<svg width="1920" height="1080" fill="none" xmlns="http://www.w3.org/2000/svg"><g clip-path="url(#a)" stroke="#EFC018" stroke-width="5" stroke-linejoin="round"><path d="m1090.12 674.329-.08-.078-.16-.168-.25-.25-.33-.324-.38-.384-.43-.43-.46-.459-.47-.472-.46-.465-.45-.441-.4-.4-.34-.344-.28-.275-.19-.194-.11-.107-.02-.015-.92.506"/><path d="m1090.12 674.329-.02-.014-.1-.106-.2-.194-.27-.274-.35-.344-.4-.401-.44-.442-.47-.466-.47-.473-.46-.46-.43-.431-.38-.385-.33-.323-.25-.25-.16-.166-.08-.077"/><path d="m1090.12 674.329-.07-.078-.17-.167-.25-.251-.32-.323-.39-.384-.43-.43-.46-.46-.47-.471-.46-.465-.44-.441-.4-.401-.35-.343-.27-.275-.2-.195-.11-.106-.01-.016.07.077.17.167.25.25.32.323.38.384.43.431.46.461.48.472.46.466.44.443.41.4.34.345.28.274.19.194.11.105.01.014Zm0 0v.001M1085.31 669.523l-.92.507M1015.07 754.853l.33.598.21.644.08.664-.05.66-.18.629-.3.574-.41.498-.01.004-.5.398-.59.291-.64.169-.67.04-.67-.09-.65-.217-.6-.335-.53-.441-.44-.53-.33-.598-.21-.644-.09-.664.05-.659.18-.629.31-.574.4-.493.01-.005.51-.403.58-.291.64-.169.67-.041.67.09.65.217.6.336.54.441.44.53ZM1003.41 766.119l.34.588.22.628.1.644-.04.634-.16.601-.28.543-.4.466v.005l-.48.366-.43.198-.02.009-.12.054-.62.141-.65.016-.66-.11-.638-.232-.595-.343-.528-.444-.441-.526-.337-.587-.221-.628-.095-.643.013-.248.002-.032.018-.354.162-.6.282-.544.389-.462.004-.005.489-.371.566-.261.62-.142.65-.016.66.11.64.231.59.344.53.444.44.526ZM986.663 776.862l.13-.56.231-.463.008-.015.01-.022.354-.416.004-.004.454-.326.531-.218.589-.102.624.018.635.137.621.252.583.356.524.447.444.521.346.574.236.605.117.614-.008.598-.131.559-.25.5-.293.344-.007.008-.059.068-.005.004-.448.322-.532.217-.589.101-.623-.018-.634-.138-.621-.252-.583-.356-.523-.446-.443-.52-.346-.574-.236-.604-.117-.613.007-.598Zm0 0 .012-.082M991.371 780.879l.17-.065M977.132 785.004l.203-.444.306-.36.004-.004.316-.21.008-.006.08-.053.485-.163.545-.052.585.061.603.173.597.277.568.372.517.451.447.513.359.556.257.576.146.576.029.553-.089.508-.04.086-.004.008-.16.349-.311.363-.005.003-.401.265-.485.163-.545.051-.585-.062-.601-.173-.596-.278-.567-.371-.517-.45-.446-.512-.359-.555-.257-.576-.146-.575-.03-.552.089-.508Zm0 0 .009-.03M982.176 789.402l.01-.004M969.015 791.719l.248-.294.003-.003.345-.202.427-.1.454.006h.01l.028.001.029.006.508.106.563.214.567.307.549.389.51.455.45.505.374.534.284.543.182.532.015.098.001.009.058.392-.038.447-.148.379-.252.296-.003.002-.343.199-.427.098-.491-.007-.538-.113-.562-.214-.566-.307-.548-.388-.508-.455-.45-.503-.374-.534-.284-.542-.182-.531-.074-.498.032-.397.005-.051.109-.284.037-.095Zm0 0 .002-.005M973.836 796.54l.032-.017M965.809 801.628l-.468-.235-.531-.34-.526-.407-.499-.46-.454-.494-.392-.509-.212-.343-.101-.162-.111-.238-.113-.244-.107-.375-.002-.006-.017-.058-.016-.275-.006-.106.082-.308.18-.219.002-.003.277-.128.358-.029h.003l.43.07.483.168.518.26.501.32.031.02.134.104.393.304.5.461.455.494.392.511.314.506.223.482.125.44.022.381-.083.306-.184.222-.003.001-.275.126-.361.028-.43-.072-.483-.168M967.41 801.737l3.386-1.878M957.488 800.465l.107-.142.001-.003.203-.049.288.046.092.035.003.001.267.103.04.021.004.002.38.203.468.308.495.375.503.429.49.466.288.302.172.182.411.485.346.466.134.214.002.004.022.034.002.004.11.174.181.378.086.309-.003.045-.009.186-.11.142h-.003l-.086.021-.115.028-.272-.044h-.001l-.015-.002-.363-.141-.424-.227-.263-.172-.001-.002-.204-.133-.494-.375-.501-.427-.287-.273-.009-.008-.004-.004-.189-.181-.459-.482-.41-.484-.347-.467-.269-.429-.181-.376-.087-.312.011-.23Zm0 0 .003-.007M962.461 805.186l3.599-2.028M954.621 801.771l.124.03.212.121.292.209.361.288.417.356.455.411.477.449.48.471.464.473.432.459.381.426.222.264.095.113.239.313.154.238.062.152-.031.061-.001.001-.125-.031-.213-.122-.293-.209-.337-.269-.001-.001-.023-.019-.031-.026-.001-.001-.384-.329-.454-.41-.476-.448-.479-.47-.463-.472-.431-.458-.381-.425-.316-.377-.241-.313-.154-.238-.043-.105-.001-.002-.019-.047.031-.063Zm0 0 .497-.936M959.457 806.606l2.524-1.413"/><path d="m954.159 800.257-.506.926v.001l-.001.001.045.108.135.197.221.278.298.348.364.404.415.446.451.47.47.475.469.463.452.433.416.386.365.324.299.25.223.166.137.075.046-.017.029-.016M1069.82 701.759l-.29.427-.39.333-.06.03-.4.195-.53.109-.57-.011-.59-.132-.58-.247-.57-.353-.51-.444-.45-.52-.37-.574-.26-.607-.16-.617-.05-.603.07-.564.19-.506.28-.405.01-.022.39-.332.46-.224.53-.108.57.012.59.132.58.247.57.353.51.444.45.518.36.574.27.606.16.616.04.602-.07.565-.18.506Zm0 0-1.07 2.43M953.652 801.183l.001.001"/><path d="m959.457 806.606-.001.001-.125-.031-.213-.123-.292-.209-.337-.27-.025-.018-.028-.024-.001-.001-.387-.332-.454-.409-.476-.449-.479-.47-.463-.472-.431-.458-.38-.425-.317-.377-.24-.313-.155-.239-.044-.107-.001-.002-.018-.045.031-.062M958.332 805.039l.381.426M959.273 806.154l.154.238.062.153M959.453 806.606l.001-.001M954.957 801.922l.292.209.362.288.416.356.455.411M956.957 803.635l.48.471.465.474M962.493 804.505l.086.31-.002.044-.01.186-.109.141-.001.002-.084.02-.119.029-.273-.044-.016-.003-.363-.139-.423-.228-.264-.173-.001-.001-.203-.134-.494-.374-.501-.428-.288-.273-.012-.012-.008-.007-.181-.172-.459-.484-.41-.484-.347-.465-.269-.43-.182-.377-.087-.311.011-.231.007-.009.064-.084.038-.05.002-.001.2-.05.288.046.102.039.002.001M961.285 802.746l.411.485.347.467.148.236.002.003.002.003.002.003.115.185M962.457 805.188l3.604-2.03M958.871 800.685l.468.308.495.375.502.428M962.669 796.334l-.337.738-.082.308.005.087.017.294.014.048.002.006.11.385.118.254.106.228.1.161.213.344.392.509.454.494.499.46.525.407.532.34.478.24.008.004.031.016.483.168.43.072.361-.028.278-.127 3.402-1.887"/><path d="m962.332 797.071.007-.009.175-.213.003-.001.274-.127.361-.03.01.002.42.069.483.168.518.26.493.315.039.025.133.103.394.305.5.46.455.495.392.511.314.506.223.482.125.44.022.381-.083.306-.182.219-.002.003M974.552 794.813l.001.009.059.4-.038.448-.147.379-.249.292-.003.003-.308.179-.038.022-.427.099-.492-.007-.537-.113-.563-.214-.566-.307-.547-.389-.509-.454-.45-.504-.374-.533-.283-.542-.183-.531-.074-.499.033-.4.004-.048.112-.289.035-.09.008-.01.242-.286.004-.003M969.605 791.226l.426-.1.464.006M973.828 796.545l2.992-1.582M970.523 791.132l.033.007.505.105.563.214M982.578 789.137l-.003.004-.388.257-.018.011-.484.163-.546.051-.585-.062-.601-.173-.596-.278-.567-.371-.517-.45-.446-.512-.359-.555-.257-.576-.146-.575-.03-.552.089-.508.017-.037.186-.407.31-.364.004-.003M982.746 786.122l.257.576.146.576.029.553-.089.508-.037.079-.003.007-.164.357M978.043 783.934l.484-.163.545-.052.585.061.603.173.597.277M982.168 789.409l2.607-1.242M992.707 779.925l-.286.336-.007.008-.062.072-.004.005-.454.325-.352.144-.179.073-.589.102-.623-.019-.634-.138-.621-.252-.583-.356-.523-.446-.443-.52-.346-.573-.236-.605-.117-.613.007-.598.021-.09.109-.469.239-.479.007-.015.003-.006.358-.421.005-.004.449-.322M993.096 778.268l-.008.598-.131.56M988.375 774.846l.589-.102.624.018.635.138M991.363 780.888l1.97-.752M991.43 775.507l.524.447.444.521M997.441 768.15l.22.628.337.588.442.526.528.443.594.344.638.231.66.11.65-.016 1.24-.216"/><path d="m997.444 768.151-.096-.643.003-.046.012-.234.002-.032.017-.322.161-.6.282-.544.394-.466.005-.005.483-.366.566-.262.62-.141.647-.017.66.11.64.231.6.344.53.444.44.526.33.589.22.628.1.643-.03.634-.17.601-.28.544-.39.461v.005l-.49.37-.41.188-.02.01-.14.063-.48.109-.14.032M1011.01 759.725l-.6-.335-.53-.441-.44-.53-.33-.598-.21-.644-.09-.664.05-.659.18-.629.3-.574.42-.498v-.005l.51-.398.58-.291.64-.169.67-.041.67.09.65.217.6.336.53.441.44.53.34.598.21.644.08.664-.05.66-.18.629-.3.574-.41.492-.01.006-.51.402-.58.291-.64.169-.67.04-.67-.09-.65-.217ZM1022.86 748.08l-.6-.331-.53-.44-.44-.532-.33-.603-.21-.652-.08-.675.05-.672.18-.644.31-.591.42-.514.51-.419.6-.308.64-.183.14-.011.53-.042.68.079.65.21.6.331.53.44.44.531.33.604.21.651.08.675-.05.672-.04.141-.14.503-.31.591-.42.515-.51.419-.59.307-.65.184-.67.053-.68-.08-.65-.209ZM1034.71 736.133l-.6-.33-.53-.44-.44-.531-.33-.604-.22-.652-.08-.675.04-.673.18-.645.29-.591.41-.516.51-.42.58-.308.63-.184.67-.054.66.079.65.209.6.33.53.439.44.532.33.603.22.652.08.675-.04.673-.17.644-.3.592-.41.515-.5.421-.58.308-.64.185-.66.054-.67-.079-.65-.209ZM1050.57 721.305l-.02.564v.097l-.15.631-.27.577-.39.501-.47.406-.56.294-.61.172-.64.043-.66-.087-.63-.215-.59-.334-.53-.44-.44-.53-.34-.598-.23-.645-.1-.665.03-.661.15-.632.27-.577.38-.5.48-.405.56-.294.61-.172.64-.043.65.088.2.066.44.149.59.334.52.44.45.529.34.598.22.644.1.665Zm0 0 .02.791M1060.81 711.444l-.24.548-.16.219-.18.252-.44.376-.51.267-.58.146-.61.021-.62-.105-.62-.228-.58-.341-.52-.442-.45-.526-.35-.589-.24-.629-.13-.646v-.637l.12-.604.23-.548.34-.471.44-.375.48-.243.04-.023.57-.145.61-.021.63.106.61.228.58.341.52.442.45.525.35.588.24.628.13.645v.637l-.11.604Zm0 0-.55 1.767M1077.58 692.799l-.23.372-.32.278-.41.173-.4.052-.07.009-.52-.053-.54-.166-.56-.271-.54-.367-.51-.448-.45-.512-.38-.556-.3-.58-.2-.579-.09-.558.02-.515v-.018l.12-.434.23-.371.33-.277.4-.171.47-.06.52.054.55.166.55.271.54.366.51.447.45.511.38.556.3.578.19.579.1.557-.02.515-.12.452Zm0 0-1.44 2.844M1073.16 687.807l-1.51.55M1083.45 685.695l-.25.213-.33.11-.41.005-.46-.102-.5-.205-.46-.266-.06-.034-.52-.383-.5-.452-.46-.504-.4-.535-.29-.488-.03-.059-.24-.537v-.006l-.15-.499-.04-.456.05-.388.12-.224.04-.083.25-.211.34-.109.25-.003h.01l.15-.001.46.103.5.205.52.3.31.234.2.149.5.452.34.368.12.133.4.534.32.546.24.536.15.505.05.456-.06.389-.16.307Zm0 0-1.78 3.294"/><path d="m1078.81 680.591-.59.261-.01.004-.75.329M1087.67 679.973l-.17.141-.26.042-.34-.058-.4-.157-.45-.249-.48-.332-.5-.402-.48-.457-.47-.493-.04-.051v-.002l-.38-.459-.36-.509-.28-.489-.15-.321-.06-.127-.1-.346-.01-.044v-.04l-.01-.278.08-.234.17-.14.26-.041.34.06.4.157.45.249.18.119v.006l.11.075.13.09.01.006.05.036.5.401.48.456.46.492.4.487v.001l.02.023.36.508.29.488.2.448.03.104.09.286.01.319-.06.179-.02.056Zm0 0-1.95 3.53"/><path d="m1082.98 674.968-.59.291-.01.006v.001l-.41.2-.01.002M1089.91 676.156l-.1.064-.18-.03-.27-.126-.14-.089v-.001l-.19-.124-.4-.296-.44-.366-.13-.112v-.001l-.34-.309-.48-.461-.47-.483-.29-.332-.15-.155-.35-.421-.04-.049-.34-.437-.26-.387-.18-.321-.09-.243v-.157l.07-.044.03-.019.18.032.27.126.34.215.4.296.44.366.46.421.14.127.01.016.33.317.47.482.44.485.39.47.34.437.19.288v.001l.07.097.18.321.09.245v.157Zm0 0-.88 1.577-1.17 2.102"/><path d="m1085.17 671.257-.03.016-.51.266v.001M724.083 335.405l-8.728-4.882-6.157-3.444-8.883-4.592-8.884-4.592-8.883-4.591-4.377-2.262-8.916-4.529-8.915-4.529-8.916-4.529-4.463-2.268-9.163-4.005-9.163-4.005-9.163-4.005-5.262-2.299-9.574-2.886-9.575-2.885-9.575-2.885-9.574-2.886-9.575-2.885-9.575-2.885-9.574-2.885-3.411-1.028 2.856 9.583 2.857 9.584 2.856 9.583 2.856 9.584 2.856 9.583 2.856 9.583 2.857 9.584.697 2.339 3.997 9.167 3.996 9.167 3.997 9.166 2.174 4.986 4.527 8.916 4.527 8.917 4.527 8.917 2.186 4.304 4.59 8.884 4.59 8.885 4.59 8.884 2.208 4.273.831 1.532 4.882 8.727 2.865 5.12M1079 664.247l-.45 2.109-2.99 4.598-5.45 6.954-3.71 4.35v.004l-.43.503v.005l-1.95 2.286-.01.008-1.63 1.913-1.44 1.605-.01.007-1.04 1.165-.01.008-1.25 1.391-2.43 2.706-.01.008-3.19 3.55v.009l-.36.393-.38.411-.01.009-2.74 2.943-2.07 2.215v.009l-3.79 4.058v.01l-.28.297-.01.009-2.08 2.226-1.66 1.735-1.71 1.779-.01.009-4.33 4.504-.01.01-.21.224-4.23 4.398-.35.371-.99.999-.01.009-4.57 4.636-5.95 6.025-1.63 1.657-3.03 2.987-5.99 5.913-4.21 4.154-.35.331-5.882 5.648-.093.088-4.313 4.14-2.109 2.024-3.35 3.113-.605.563-3.716 3.453-4.054 3.768-.547.487-1.059.945-3.446 3.074-3.152 2.811-1.127 1.005-.893.797-7.659 6.43-.665.558-6.112 4.608-3.698 2.085-1.185-.471"/><path d="m947.898 794.482-.707 1.575 1.197.487 3.759-2.114 6.219-4.686 5.652-4.745.495-.416 2.325-1.951 1.662-1.484 1.239-1.104 3.303-2.945 3.318-2.959.89-.794.183-.169 4.657-4.328 3.667-3.409.606-.562 2.829-2.629 2.653-2.547 4.315-4.14.076-.073 5.884-5.648.05-.052 4.52-4.453 5.97-5.897 2.99-2.949 1.69-1.711 5.93-6.009 4.59-4.653.01-.008 1.18-1.195.17-.182 4.21-4.373.21-.224.01-.01 4.33-4.505.01-.008 1.72-1.794 2.09-2.178 1.66-1.778.01-.008.27-.298.01-.009 3.76-4.037.01-.008 2.06-2.205 2.78-2.991.01-.009.75-.798v-.009l.25-.264 2.89-3.213v-.008l2.41-2.682 1.37-1.519v-.008l1.07-1.19.01-.007 2.17-2.415.75-.883.01-.008 2.15-2.528.01-.007.59-.701.01-.003 4.35-5.102 5.54-7.075 3.03-4.676.46-2.139-1.85.378M740.575 345.09l-2.347-.054-4.448 2.113-6.405 4.23-4.69 3.58-.002.002-.88.672-.005.003-2.453 1.873-.007.005-.098.075-2.142 1.785-.006.005-1.134.945-.006.005-1.783 1.486-2.208 1.839-.006.006-2.271 1.892-.474.421-.008.007-.614.545-.007.006-2.411 2.14-1.956 1.736-.007.006-4.106 3.644-.004.004-.004.004-.004.003-.291.258-.712.632-.838.783-2.078 1.942-.008.007-5.248 4.903-.009.008-3.015 2.817-.007.007-.005.004-6.251 6.114-2.297 2.246-2.803 2.742-3.612 3.693-2.592 2.651-4.817 4.926-.684.734-3.344 3.585-4.203 4.506-1.998 2.141-1.876 2.125-.305.345-2.858 3.235-3.729 4.223-.248.28-.563.684-1.911 2.32-2.659 3.228-1.042 1.266-1.265 1.535-5.579 7.504-3.517 5.692-1.346 3.681.84 1.561M629.219 456.446l1.07 1.587.037.055M1070.63 654.014v-.001l-.36-.436-6.33-7.739-6.33-7.739-6.34-7.739-6.33-7.739-3.3-4.036-6.5-7.6-6.5-7.601-6.5-7.6-6.5-7.601-6.49-7.601-5.4-6.308-6.676-7.444-6.678-7.444-6.677-7.444-6.677-7.444-6.677-7.445-5.481-6.11-6.852-7.284-6.852-7.283-6.852-7.284-6.852-7.283-6.852-7.284-5.585-5.936-7.471-6.647-7.47-6.647-7.471-6.648-7.471-6.647-7.471-6.647-6.142-5.466-7.696-6.384-7.697-6.385-4.587-3.805-7.696-6.385-7.697-6.384-7.696-6.385-1.859-1.542-8.065-5.912-8.065-5.912-8.065-5.912-8.065-5.912-8.065-5.913-7.105-5.207-8.292-5.589-5.749-3.874-8.292-5.589-8.293-5.588-7.334-4.943-.935-.63"/><path d="m742.51 346.393.593-1.28-.187-2.283-2.246-1.734-2.434-.079-2.239 1.052-2.373 1.116-5.125 3.368h-.001l-.057.038h-.001l-.494.325-.005.003-.789.519-.004.002-.169.111-1.469 1.118-.005.004-.206.157-.004.003-2.551 1.941-.004.004-.918.698-.006.005-1.573 1.197-.006.004-.977.744-.005.004-.718.546-1.728 1.437-.006.005-2.865 2.383-.009.007-.054.045-.013.01-.478.399-.008.006-.06.05-.003.002-2.842 2.364-.006.005-1.846 1.536-7.484 6.633-3.518 3.119-7.31 6.824-4.324 4.037-7.15 6.991-4.633 4.53-6.991 7.151-4.445 4.547-6.818 7.315-3.792 4.068-5.427 6.152-1.684 1.909-.002.003-2.234 2.532-1.472 1.791-1.995 2.428-.819.996-1.082 1.316-1.133 1.379-1.205 1.466-.844 1.139-.332.448-1.332 1.798-.482.651-1.157 1.561-.872 1.177-.75 1.012-3.591 5.847-.036.058-1.373 3.818.896 1.617 1.733 2.246 3.094-.623.236-.128"/><path d="m742.914 342.83-2.431-.069-4.62 2.187-6.663 4.396-6.167 4.705-.004.004-1.328 1.012-.005.004-.162.124-.804.613-1.825 1.521-.006.005-2.025 1.687-.007.006-1.133.944-.007.005-1.862 1.552-2.203 1.835-.006.005-.881.734-1.921 1.705-.008.007-.557.494-.007.007-2.218 1.968-2.011 1.784-.007.007-4.316 3.83-.078.073-.009.008-3.517 3.286-.007.006-5.816 5.433-.009.009-2.237 2.089-.007.007-.004.004-7.149 6.992-.119.116-1.061 1.037-3.506 3.43-3.999 4.089-1.667 1.704-5.824 5.956-.391.42-2.876 3.083-4.535 4.863-2.86 3.066-.843.955-.194.219-3.081 3.488-3.72 4.214-.815.922-.742.84-1.132 1.375-2.847 3.458-1.089 1.323-1.864 2.263-.816.991-.189.254-.129.174-5.486 7.383-3.652 5.919-.166.456-.004.01-1.22 3.356.889 1.611M1079 664.247l-.66-.807-1.68-2.05M635.762 466.154l.001.001.091.137 5.589 8.292 5.589 8.293 5.483 8.137 5.589 8.293 3.874 5.748 5.912 8.065 5.912 8.065 5.913 8.066 5.912 8.065 5.912 8.065 5.207 7.104 6.385 7.696 6.385 7.697 6.384 7.696 1.542 1.859 6.385 7.697 6.385 7.696 3.805 4.587 6.647 7.471 6.647 7.47 6.648 7.471 6.647 7.471 6.648 7.471 5.465 6.142 7.283 6.852 7.284 6.852 7.283 6.852 7.284 6.852 7.283 6.852 5.936 5.584 7.444 6.678 7.445 6.677 7.444 6.677 7.444 6.677 7.444 6.678 6.11 5.481 7.601 6.498 7.6 6.499 7.601 6.498 7.6 6.499 7.601 6.498 6.309 5.394 7.739 6.333 7.739 6.333 7.739 6.334 7.739 6.333 4.285 3.507.187.152M1138.75 851.575l4.46-4.57 1.69-1.831 5.18-5.6 6.16-7.067 5.21-6.42 4.06-5.522 2.74-4.411 1.35-3.14-.09-1.759M1095.39 885.379l1.23.615 2.63-.84 3.95-2.276 5.1-3.639 6.08-4.867 6.81-5.907 7.11-6.56M947.191 796.058l6.966 4.199M1169.51 811.254l-1.25-2.071-5.16-8.565-5.16-8.565-5.17-8.564-5.16-8.565-5.16-8.564-5.16-8.565-5.16-8.564-5.17-8.565-5.16-8.565-5.16-8.564-5.16-8.565-5.16-8.564-5.17-8.565-5.16-8.564-5.16-8.565-1.8-2.982M1172.38 887.446l.45-.471 2.7-2.783.88-.897 2.53-2.774.49-.535 2.06-2.25 4.55-5.313 3.17-4.031.65-.825 2.96-4.209 1.98-3.4.93-2.465-.14-1.443-5.03-8.642-2.46-4.21M1127.73 904.205l8.64 5.031 3.81 2.219 1.05.534 2.09-.554 3.05-1.63 3.9-2.649 2.48-1.921 2.12-1.65 5.13-4.355 3.06-2.796"/><path d="M1179.2 821.359v-.001l-.47-.854v-.001l-4.89-8.727-1.74-3.114-1.62-.339-2.22.861M1161.28 875.948l.31-.318 4.39-4.512 1.52-1.659.72-.781 3.84-4.187 5.44-6.321 4.59-5.764 3.55-4.981 2.38-4.006.08-.222 1.05-2.662-.15-1.66-4.88-8.727-1.89-3.373M1093.69 884.359l-.68 1.432-.22 2.18 8.73 4.882 3.37 1.886.61.337"/><path d="m1172.1 808.662.11 1.872-1.43 3.351-2.93 4.716-4.34 5.907-5.57 6.873-6.6 7.57-6.08 6.579-1.28 1.382-4.53 4.649-.38.385M1128.65 862.254l-.47.456-7.35 6.783-.44.41-7.3 6.325-6.5 5.207-5.47 3.889-4.21 2.429-2.81.888-1.31-.669M1111.76 898.581l8.73 4.882 2.52 1.408 1.19.613 2.43-.682 1.1-.598 2.49-1.367 4.61-3.181 5.46-4.28 6.1-5.214 5.38-4.93M1184.21 899.654l.28-.293.31-.313 1.81-1.867 2.99-3.284 1.42-1.667.26-.306.99-1.175 2.25-2.886 1.75-2.514 1.16-2.045.55-1.498-.09-.897-5.7-8.217-2.98-4.3M1152.75 905.234l8.21 5.698 4.08 2.826.66.32 1.28-.324 1.84-.96 2.33-1.56 2.74-2.102 1.08-.914M1061.67 955.471l-.04-.655m0 0-.7-9.976-.69-9.976-.7-9.975-.16-2.373 4.75-8.796 4.76-8.797 4.75-8.797 4.76-8.797 3.4-6.288-.47-1.307-8.52-5.237-8.52-5.236-8.52-5.237-8.51-5.237-8.52-5.236-8.52-5.237-8.52-5.236-8.52-5.237-8.52-5.236-8.521-5.237-8.519-5.237-8.52-5.236-8.519-5.237-5.431-3.338-.817 9.966-.816 9.967-.817 9.966-.817 9.967-.571 6.976-.817 9.967-.816 9.966-.817 9.967-.816 9.967-.817 9.966-.816 9.967-.817 9.966-.816 9.967-.147 1.787-.02 1.525 7.584 6.518 7.585 6.517 7.585 6.517 7.584 6.517 7.585 6.517 7.584 6.517 7.59 6.518 7.58 6.517 5.06 4.351 7.93 6.104 7.31 5.63 7.92 6.1 7.31 5.63 7.92 6.1 7.31 5.63 7.92 6.1 7.31 5.63 7.07-7.07 1.46-1.46-.5-1.89-3.62-9.32-3.62-9.32-2.59-6.65-3.15-9.487-3.16-9.488-2.46-7.371-3.44-9.387-3.45-9.387-2.19-5.974Z"/><path d="m1081.8 881.042-8.52-5.237-8.52-5.237-8.52-5.237-8.52-5.237-8.52-5.235-8.52-5.237-8.52-5.237-8.52-5.237-8.52-5.237-8.515-5.235-8.52-5.237-8.519-5.236-8.519-5.237-5.879-3.613"/><path d="m965.15 808.32.019 1.032-.816 9.966-.817 9.967-.816 9.967-.817 9.966-.586 7.156-.817 9.967-.816 9.967-.817 9.966-.816 9.967-.817 9.966-.816 9.967-.817 9.967-.816 9.966-.172 2.1M1089.81 1033.09l-3.62-9.32-3.63-9.32-2.62-6.75-3.16-9.484-3.15-9.488-2.49-7.472-3.45-9.387-3.44-9.387-2.58-7.01M1092.72 680.751l5.23 8.519 5.24 8.519 5.24 8.519 5.23 8.52 5.24 8.519 5.24 8.519 5.23 8.52 5.24 8.519 5.24 8.519 5.23 8.519 5.24 8.52 5.24 8.519 5.23 8.519 3.34 5.432.79.988 8.79-4.756 8.8-4.755 8.8-4.756 8.79-4.756 6.29-3.4 9.98.695 9.97.695 9.98.696 3.03.211 9.39 3.446 9.38 3.447 7.01 2.574 9.49 3.158 9.49 3.158 7.47 2.487 9.32 3.622 9.32 3.623 6.75 2.621 7.07-7.071 1.45-1.457-6.1-7.922-5.63-7.309-6.1-7.923-5.63-7.309-6.1-7.923-5.63-7.309-6.1-7.923-5.63-7.309-6.51-7.585-6.52-7.584-6.52-7.585-6.52-7.584-6.51-7.585-6.52-7.585-6.52-7.584-6.51-7.585-4.36-5.064-1-.501-9.97.817-9.96.816-9.97.817-9.97.816-9.96.817-9.97.816-9.97.817-9.96.817-1.79.146-9.97.816-9.96.817-9.97.816-9.97.817-6.97.572Z"/><path d="m1222.08 670.736-9.96.817-9.97.816-9.97.817-9.96.816-9.97.817-9.97.816-9.96.817-9.97.816-2.1.173-9.97.816-9.96.817-9.97.816-9.97.817-7.15.586"/><path d="m1092.72 680.752.51.541 5.24 8.519 5.23 8.52 5.24 8.519 5.24 8.519 5.23 8.519 5.24 8.52 5.23 8.519 5.24 8.519 5.24 8.52 5.23 8.519 5.24 8.519 5.24 8.519 5.23 8.52 3.62 5.878M1071.77 652.726l-1.5.851M1077.74 656.617l-.02-.014-.34-.346-.4-.402-.45-.443-.05-.049M1073.52 652.396l-1.04.578v.002l-.59.333-.01.001-1.25.703M1073.94 652.815l-.18-.181-.1-.093M1075.65 654.528l-.05-.055-.46-.46-.43-.429-.39-.382-.05-.059"/><path d="m1078.32 657.203-.01-.018-.11-.108-.2-.197-.26-.263-.02-.013-.34-.346-.4-.404-.45-.441-.05-.051-.41-.417-.42-.417-.06-.054-.46-.461-.42-.428-.39-.383-.06-.059-.26-.263-.06-.065-.19-.182-.09-.092-.07-.072-.07-.073M1073.52 652.396l-1.04.578v.003l-.59.333h-.01l-1.25.703M1071.77 652.725v.001l-1.5.851"/><path d="m1072.48 652.975-.31-.173-.24-.085-.16.008M937.957 786.347l-.248.442-.041.187.053.271.002.004M993.627 743.696l-.203-.653-.072-.677.023-.245.016-.165.025-.265.195-.646.32-.594.428-.512.004-.006.529-.422.603-.31.657-.186.078-.006.156-.013.449-.036.684.078.659.208.607.331.534.44.439.533.322.604.21.654.07.677-.06.675-.2.647-.319.593-.433.518-.006.004-.523.418-.603.309-.657.186-.683.055-.683-.078-.659-.209M1000.7 744.922l.59-.699.43-.802.26-.874.09-.912-.1-.914-.27-.883-.44-.817M981.432 753.848l.021-.288.002-.033.023-.327.176-.618.299-.562.406-.48.004-.005.506-.39.583-.279.636-.158.665-.03.263.038.135.02.272.04.647.223.601.339.531.442.44.529.333.595.213.637.085.656-.047.649-.176.618-.3.562-.41.485-.006.004-.501.385-.478.229-.021.01-.083.04-.636.157-.665.03-.669-.099-.647-.223-.6-.339-.531-.442-.44-.528-.333-.594-.186-.556-.027-.081-.006-.047-.079-.609Zm0 0-.006-.049M989.23 755.992l.007-.003.555-.656.404-.758.239-.835.063-.878-.114-.885-.288-.862-.45-.803M985.613 757.335l.106-.019M970.35 763.653l.144-.575.258-.507.005-.009.003-.004.366-.43.004-.005.468-.343.546-.234.602-.117.636.005.645.127.629.244.017.01.11.066.461.275.526.446.443.523.343.58.229.614.108.625-.019.612-.144.575-.264.517-.319.373-.007.009-.048.056-.005.003-.464.339-.546.234-.602.116-.635-.006-.644-.127-.628-.244-.588-.352-.525-.445-.443-.522-.014-.024-.067-.114-.261-.441-.23-.613-.108-.625.018-.612Zm0 0 .017-.097M978.488 766.09l.005-.003.505-.592.357-.698.195-.777.026-.828-.145-.845-.31-.83-.463-.783M975.074 767.662l.121-.047M961.023 771.359l.003-.005.345-.234.009-.006.064-.044.496-.178.556-.065.595.05.611.163.603.271.572.367.509.441.01.009.091.104.356.412.356.56.252.585.138.586.02.565-.1.521-.049.104-.004.008-.163.347-.323.378-.004.003M965.55 776.581l-.496.177-.557.065-.594-.051-.61-.164-.602-.27M960.802 774.446l-.252-.583-.139-.586-.02-.564.099-.522.214-.459M968.816 774.89l.005-.003.437-.511.292-.62.135-.706-.026-.763-.186-.792-.341-.791M952.118 779.248l.257-.306.003-.003.354-.215.436-.112.483-.004.01-.001h.006l.546.103.067.024.502.182.572.302.551.385.511.455.45.506.372.539.162.318.097.19.021.041.177.54.014.109.001.009.052.391-.046.459-.156.392-.261.308-.004.002-.352.212-.436.111-.499.003-.516-.097-.029-.006-.168-.061-.401-.145-.57-.302-.551-.385-.51-.454-.449-.505-.372-.537-.279-.549-.177-.539-.054-.404-.014-.105.045-.459.036-.091.119-.301Zm0 0 .002-.004M956.941 784.074l.027-.015M960.52 782.118l.004-.002.353-.417.212-.53.063-.621-.09-.688-.238-.731M945.251 784.885l.186-.23.002-.003.283-.138.366-.038.052.007.383.055.488.16.522.254.535.336.245.187.204.157.08.061.501.46.455.496.391.514.311.511.22.489.121.447.016.39-.088.316-.19.232-.003.001-.28.136-.367.037-.435-.063-.484-.16-.004-.001-.002-.001-.519-.253-.534-.335-.528-.405-.5-.459-.454-.495-.39-.513-.035-.056-.088-.145-.188-.309-.221-.488-.106-.392-.002-.006-.013-.05-.017-.389.068-.249.019-.068Zm0 0 .002-.006M950.336 789.548l1.136-.642.595-.336 1.771-1.001.016-.009.003-.002M953.855 787.558l.258-.313.12-.428-.021-.528-.125-.464M940.303 788.491l.103-.139.006-.009.002-.002.204-.057.29.039.189.069.002.001.174.063.136.071.004.002.286.15.47.303.496.372.503.427.491.465.451.475.009.01.411.487.346.47.13.212.002.003.087.141.001.002.018.029.029.048.081.171.099.211.084.316-.009.142-.006.095-.112.15h-.002l-.203.055-.162-.022-.129-.018-.366-.133-.425-.223-.135-.088h-.002l-.333-.215-.495-.372-.502-.426-.134-.127-.005-.004-.351-.333-.458-.484-.41-.486-.346-.469-.268-.435-.18-.382-.085-.317.014-.238Zm0 0 .004-.008M945.281 793.207l.623-.358 3.099-1.781h.001l.003-.002M949.008 791.067l.153-.203.02-.321M937.424 789.923l.123.026.211.119.291.205.36.285.417.354.455.409.477.449.479.47.466.475.43.46.383.427.278.332v.001l.039.047.24.316.156.24.063.156-.032.065v.001l-.123-.027-.213-.119-.291-.207-.282-.223-.002-.001-.031-.025-.001-.001-.044-.035-.416-.354-.454-.409-.476-.447-.479-.469-.464-.473-.43-.459-.382-.427-.316-.379-.242-.317-.156-.241-.06-.149-.002-.003-.001-.005.029-.066v-.001Zm0 0 .881-1.612.634-1.16.012-.022M942.262 794.76l2.649-1.517"/><path d="m938.145 786.499-.109.195-.312.558-1.196 2.135-.001.001.041.109.131.196.217.277.295.348.361.404.413.446.45.469.468.476.47.463.453.433.419.386.367.324.303.25.226.167.142.076.05-.017.019-.011M1056.85 685.288l-.31.441-.4.346-.05.024-.43.214-.54.12-.59-.002-.6-.123-.59-.242-.57-.349-.52-.444-.29-.343-.09-.101-.07-.077-.36-.579-.26-.614-.14-.625-.04-.613.09-.577.2-.518.28-.4.03-.041.4-.345.48-.236.54-.12.58.003.6.124.6.242.56.349.5.429.02.014.07.085.38.435.36.578.26.613.15.625.03.612-.09.577-.19.518Zm0 0-1.13 2.519M1052.48 680.204l-2.3.632M1050.97 688.862l.81.325.81.167.79.002.73-.163.65-.322.54-.468.42-.596M936.527 789.387l.001.001"/><path d="m940.403 793.36-.475-.448-.479-.469-.465-.473-.429-.459-.382-.427-.317-.379-.241-.316-.157-.241-.061-.153-.001-.002-.001-.002.029-.067h.002l.122.026.211.118.29.206.362.285.415.354.455.409.477.448.48.471.465.474.431.46.382.428.278.332.001.001.038.046.242.316.154.241.063.156-.03.065h-.002l-.123-.027-.213-.119-.291-.206-.281-.224-.032-.024-.047-.038-.415-.354-.455-.408ZM944.875 791.69l.124.202.003.004.088.144.002.002.021.035.001.001.029.047.076.163.103.22.084.316-.008.141-.006.096-.111.147-.001.002-.206.056-.162-.023-.129-.017-.365-.134-.426-.223-.135-.087-.001-.001-.333-.215-.495-.372-.502-.426-.134-.127-.005-.004-.351-.333-.459-.484-.41-.486-.345-.469-.268-.434-.18-.383-.085-.316.013-.238.008-.011.098-.132.005-.008h.002M940.617 788.287l.29.038.197.072.002.001.166.06.147.077.004.003.275.143.47.303"/><path d="m945.277 793.209.626-.36 3.1-1.781M947.702 788.913l-.527-.405-.5-.459-.454-.495-.39-.512-.036-.06-.085-.139-.19-.312-.221-.488-.109-.402-.002-.006-.01-.039-.018-.39.071-.258.016-.06.008-.009.181-.223.003-.001.28-.137.366-.039.065.01.37.053.488.161.522.253.535.336.238.182.21.161.081.062.501.459.455.497.39.514.312.51.22.49.121.448.016.389-.088.316-.188.229-.002.003-.284.137-.366.037-.436-.063-.473-.158-.007-.001-.007-.002-.521-.253-.535-.336ZM953.852 787.562l.002-.002M950.332 789.552l1.14-.646.595-.334 1.786-1.01M946.978 781.26l-1.348 2.826-.384.803M957.701 782.307l.053.4-.046.459-.156.391-.258.305-.003.004-.322.193-.033.02-.436.111-.5.004-.514-.097-.031-.006-.167-.061-.401-.145-.571-.302-.551-.385-.509-.454-.45-.505-.371-.537-.28-.549-.177-.539-.054-.407-.014-.102.045-.459.038-.098.117-.294.009-.01.251-.299.004-.003.35-.212.436-.112.493-.005h.007l.003.001.542.102M956.859 780.57l.373.538.162.32M957.508 781.658l.177.54M960.035 782.411l.481-.289.003-.004M956.938 784.079l3.099-1.668M953.514 775.89l-1.405 3.364M954.273 778.741l.499.181.572.301.552.386M961.406 769.348l-.924 2.852-.099.521.02.565.139.585.252.584.356.559.445.515.478.414.04.035.083.053.489.314.602.271.61.163.594.051.557-.064.496-.177 2.702-1.312"/><path d="m960.48 772.2.019-.041.195-.418.322-.379.005-.003.349-.238.008-.006.055-.037.497-.178.556-.066.595.05.611.164.603.27.572.368.51.441.009.009.091.105.355.41.356.561.252.584.139.586.019.565-.099.522-.046.096-.003.008-.167.354-.319.374-.004.004-.4.272-.018.012M968.246 775.277l.565-.382.004-.005M976.084 767.089l-.004.005-.469.343-.416.178-.13.055-.602.117-.636-.006-.644-.127-.628-.244-.587-.352-.526-.445-.442-.522-.014-.024-.067-.113-.261-.442-.23-.614-.108-.624.018-.612.026-.106.117-.469.264-.517.003-.004.009-.01.36-.424.006-.004M976.773 764.328l.107.625M970.726 761.46l-.386 2.202M977.109 766.874l.738-.316.634-.463.005-.005M975.066 767.67l2.044-.796M973.371 761.441l.644.127M974.645 761.812l.018.011M988.263 754.206l-.047.65-.177.618-.299.562-.406.479-.005.006-.506.388-.456.219-.022.01-.104.05-.52.129-.116.029-.666.029-.668-.099-.647-.222-.601-.339-.53-.442-.44-.528-.333-.594-.186-.555-.027-.083-.006-.045-.079-.611.004-.058.019-.263.002-.032.021-.296.176-.617.299-.561.41-.486.006-.005.5-.384.582-.28.637-.157.665-.031M981.246 752.402l.175 1.455M987.754 756.901l.787-.376.684-.526.004-.006M985.605 757.346l1.292-.233M986.66 751.348l.531.442.44.529M995.522 745.614l-.608-.331-.533-.44-.439-.532-.327-.604-.204-.654-.071-.677.023-.243.015-.166.025-.265.195-.647.32-.594.433-.517.006-.005.522-.417.604-.31.656-.186.079-.007.156-.012.448-.037.684.079.659.208.608.33.533.44.439.533.325.605.21.653.07.678-.07.675-.19.646-.322.594-.428.511-.005.006-.528.422-.604.31-.656.186-.683.054-.684-.078-.658-.208ZM1007.86 733.468l-.61-.326-.54-.439-.44-.534-.32-.61-.2-.661-.07-.688.07-.688.04-.127.06-.206.1-.329.32-.61.44-.534.54-.439.61-.326.28-.087.21-.061.17-.052.69-.068.68.068.67.2.61.326.53.439.44.534.32.61.2.662.07.688-.07.688-.2.661-.32.61-.44.534-.53.439-.61.326-.67.2-.68.068-.69-.068-.66-.2ZM1013.8 730.825l.09-.93-.09-.929M1008.2 734.566l.92.092.93-.092M1018.3 721.98l.82.44.88.271.92.09.92-.092.88-.272.81-.441.71-.593M1020.21 721.025l-.6-.326-.54-.438-.43-.534-.33-.61-.21-.662-.07-.688.06-.669v-.019l.05-.175.14-.487.31-.609.43-.535.53-.439.6-.326.6-.186.05-.015.12-.012.56-.056.68.068.66.2.6.325.54.439.43.534.33.609.21.661.07.688-.06.688-.19.662-.31.61-.43.534-.53.44-.6.326-.65.201-.68.068-.68-.067-.66-.2ZM1029.77 710.185l.81.445.87.279.9.104.89-.076.85-.255.77-.42.67-.572.55-.7.39-.803"/><path d="m1036.74 705.576-.03.512-.01.163-.17.647-.29.594-.4.519-.5.423-.57.312-.63.187-.66.057-.66-.077-.65-.207-.6-.33-.53-.439-.44-.532-.33-.604-.22-.654-.08-.64-.01-.037.01-.112.03-.563.17-.647.29-.595.4-.518.5-.423.57-.31.63-.187.66-.056.16.018.13.016.38.043.15.049.49.158.6.33.53.439.44.531.33.604.22.653.09.676Zm0 0 .01.825M1034.53 702.343l-.76-.308M1040.53 698.864l.79.455.84.299.86.129.85-.044.8-.217.72-.381.61-.529.49-.658.34-.762M1047.41 695.324l-.25.563-.15.205-.21.282-.45.392-.54.281-.59.16-.62.033-.64-.096-.62-.221-.59-.337-.52-.442-.45-.527-.34-.594-.12-.306-.04-.118-.08-.213-.11-.657v-.649l.14-.619.25-.563.36-.486.46-.391.46-.243.07-.038.59-.159.63-.032.63.097.6.212.03.009.08.049.5.288.52.441.45.526.34.593.24.637.11.655v.65l-.14.618Zm0 0-.58 1.832M1043.42 690.581l-1.98.169M1064.98 676.034l-.24.382-.34.288-.41.182-.4.058-.09.012-.53-.045-.55-.16-.57-.267-.18-.12-.14-.094-.22-.15-.51-.447-.45-.514-.38-.56-.29-.584-.19-.587-.08-.566.03-.521v-.003l.14-.461.24-.382.34-.287.41-.181.49-.069.53.047.55.159.56.267.55.364.51.447.45.512.38.559.12.242.07.151.09.19.19.586.09.566-.03.524-.14.462Zm0 0-1.51 2.945"/><path d="m1060.57 671.027-.92.358-.01.002-.35.138-.01.003-1.77.684M1060 679.953l.75.215.72.061.65-.096.57-.248.45-.39.33-.516M1071.16 668.719l-.26.221-.28.094-.06.023-.34.008-.08.003-.47-.097-.51-.201-.46-.263-.07-.034-.52-.382-.5-.453-.45-.503-.4-.537-.27-.455-.05-.096-.02-.034v-.003l-.22-.503-.13-.512-.04-.462.04-.232.03-.163.17-.313.26-.219.35-.117.41-.01.22.047h.01l.24.052.51.201.53.297.27.197.25.183.5.452.41.453.04.05.4.536.32.548.23.541.14.511.04.463-.03.154-.04.242-.07.124-.1.189Zm0 0-1.87 3.409M1066.53 663.605l-1.08.498-.01.004-.3.135v.003l-2.11.969M1067.26 672.471l.64.131.56-.015.47-.16.36-.299M1075.63 662.862l-.01.003-.17.141-.27.046-.35-.055-.41-.154-.45-.247-.49-.331-.49-.401-.49-.456-.29-.313v-.001l-.17-.18-.42-.513-.36-.512-.28-.491-.02-.05-.18-.401-.08-.298v-.022l-.02-.073-.01-.322.09-.237.18-.144.27-.044.35.056.41.155.45.247.16.108.03.019.01.006.07.048.01.006.21.143.49.401.49.455.46.493.42.512.11.156v.002l.24.352.28.49.2.451.03.098.08.296.01.322-.09.239Zm0 0v.004l-2 3.529-.07.116M1070.94 657.851l-.61.314-.07.034v.001l-.47.236v.002l-1.22.617v.002l-1.34.679M1072.95 666.771l.25-.042.12-.021.24-.197M1078.03 658.995l-.1.064-.19-.03-.27-.125-.07-.045v-.001l-.27-.169-.4-.296-.45-.366v-.005l-.47-.416-.47-.462-.47-.483-.44-.487-.06-.067-.33-.404-.34-.437-.25-.387-.18-.321-.09-.244.01-.156.1-.064.19.032.27.126.34.215.4.296.45.365.35.317.02.016.1.088.47.461.47.482.44.485.39.47.33.437.24.35.02.037.18.321.08.245v.158Zm0 0-1.36 2.395-.8 1.404M1073.29 654.094l-.59.318v.002l-1.21.654-.85.46-.01.004-.47.254M1179.14 820.263l-.41.24M1183.14 823.332l-.01-.014-.06-.064-.1-.113-.15-.157-.19-.195-.22-.226-.24-.248-.26-.26-.26-.263-.26-.255-.24-.237-.21-.212-.19-.176-.14-.135-.09-.089-.05-.038-.38.211v.001l-.47.264v.001l-.42.23"/><path d="m1183.13 823.332-.04-.039-.1-.088-.14-.135-.18-.176-.22-.211-.24-.238-.25-.256-.26-.263-.26-.26-.25-.248-.22-.226-.19-.195-.15-.157-.1-.113-.06-.064V820.65"/><path d="M1183.14 823.334v-.001l-.05-.038-.09-.088-.15-.135-.18-.176-.21-.212-.24-.237-.26-.256-.26-.263-.26-.26-.24-.248-.22-.226-.19-.195-.15-.157-.11-.113-.05-.064-.01-.013.05.038.09.089.15.135.18.176.21.211.24.238.26.255.26.263.26.26.24.248.22.225.19.196.15.157.11.113.05.063v.001l.01.014Zm0 0-.34.6M1180.09 820.862l-.05-.041-.24-.196-.23-.159-.18-.116-.15-.069-.1-.018-.01.007-.4.234M1104.89 894.74l.02.077.1.205.15.236.13.184M1140.24 874.694l-.33-.181-.29-.239-.24-.289-.18-.328M1141.3 874.829l-.33.024-.38-.044M1139.09 873.304l-.04-.366.04-.31M1132.44 879.171v-.02l-.01-.099.03-.348.1-.331.17-.3.23-.257.28-.206.32-.146.36-.081.36-.012.37.058.36.124.33.186.29.241.23.287.18.322.12.343.04.353-.03.349-.11.33-.17.3-.23.258-.21.155-.01.006-.06.045-.32.145-.35.081-.37.011-.37-.057-.35-.124-.33-.186M1136.57 880.136v-.003l.31-.348.23-.406.14-.446.04-.471-.05-.478-.16-.464-.24-.435-.32-.388M1132.46 879.405l.12.344.18.321.23.287M1126.16 884.201l.09-.306.04-.072v-.007l.11-.194.21-.231.27-.178.31-.119.34-.057.35.01.36.074.34.137.33.194.29.244.24.283.18.313.12.331.05.335-.02.327-.09.305-.15.274-.03.034-.01.004-.17.192-.27.178-.31.119-.34.056-.35-.009-.36-.075-.34-.137-.33-.194-.28-.243-.24-.284-.19-.313-.12-.33-.05-.335.02-.326ZM1130.5 885.459l.01-.002.29-.311.2-.369.12-.414.03-.442-.07-.453-.16-.446-.25-.424-.33-.384M1120.4 888.892l.06-.276.14-.24.19-.196.05-.032v-.003l.19-.11.28-.087.32-.026.33.035.35.096.33.153.32.203.28.246.24.28.19.303.13.314.07.313v.3l-.05.208v.003l-.02.064-.13.24-.19.196-.24.144-.28.087-.32.026-.34-.035-.34-.096-.33-.153-.32-.203-.28-.246-.24-.28-.19-.302-.14-.314-.06-.313v-.299ZM1124.93 890.028v-.001l.26-.265.17-.325.1-.373v-.405l-.09-.424-.18-.424-.26-.409-.32-.379M1115.38 892.902l-.02-.269.04-.241.1-.202.16-.157.21-.106.25-.049.12.003.17.005.31.065.32.121.32.17.31.214.28.25.25.275.19.291.15.295.08.256v.031l.03.269-.04.24-.1.203-.16.157-.01.001-.21.104-.25.049-.29-.009-.31-.065M1120.02 893.705l.21-.212.14-.274.06-.325-.03-.364-.12-.389-.2-.398-.26-.393"/><path d="m1118.35 894.723 1.66-1.013.01-.003v-.002M1111.38 894.836l.18-.063.22-.008.25.046.29.098.29.147.31.19.29.226.28.254.25.27.2.277.17.274.1.259.05.236v.202l-.07.16-.13.114v.001M1115.92 896.38l.17-.154.09-.218.01-.273-.06-.318-.15-.351-.22-.371-.28-.375M1112.53 897.105l.25.154v.002l.05.035.3.147.28.098.26.046.22-.008M1111.26 894.95l-.06.161-.01.202M1114.07 897.518l1.85-1.138M1111.21 895.41l.03.138.1.259M1111.71 896.357l.25.27.28.253M1108.09 896.511l.14-.018.02.004.16.031.1.04v.001l.12.045.03.016.22.117.27.175.28.211.29.239.17.163.1.093.25.266.22.263.18.251.01.031v.002l.12.197.08.2.03.161-.03.117-.08.066v.002l-.14.017M1108.23 897.287l.18.251.22.263.25.265.1.102v.001l.17.153.28.239.28.21M1110.23 899.08l.22.086M1108.01 896.579l.07-.056.01-.008M1110.77 899.184l.99-.602 1-.606M1107.98 896.695l.03.162M1112.77 897.976l.11-.093.04-.158-.04-.219-.1-.238M1107.92 899.277l-.25-.205-.12-.106v-.001l-.14-.125-.27-.25-.12-.126-.01-.004-.13-.13-.26-.26-.23-.248-.15-.181-.01-.005-.04-.043-.16-.2-.11-.163-.07-.12-.01-.072.04-.023.09.029.14.079.18.126.22.169.24.204.26.232.27.251.27.261.25.259.12.134v.001l.11.114.2.229.16.2.12.163.06.12.01.071v.001l-.04.022-.09-.029-.14-.08-.18-.126M1108.58 899.658l1.31-.768"/><path d="m1104.79 896.346.05.075.09.123.14.166.18.203.22.233.24.253.25.263.26.264.26.255.24.234.22.207.19.17.15.127.11.079.05.028.11-.06M1169.04 842.587l.38.326.42.252.43.168.43.079.42-.013.39-.106.34-.193.28-.274.21-.344M1173.04 841.22l-.16.254-.2.203-.17.093-.09.05-.28.078-.31.01-.32-.059-.32-.125-.31-.186-.28-.241-.25-.286-.19-.319-.15-.342-.09-.35-.03-.345.04-.327.1-.297.16-.254.11-.11.1-.092.25-.143.29-.078.3-.009.33.059.31.125.31.186.28.24.25.286.2.319.14.341.09.35.03.345-.04.327-.1.297Zm0 0-.7 1.263M1170.94 838.354l-1.44.255M1105.49 895.077l-.2.365-.49.88-.01.024"/><path d="m1106.57 895.646-.02.025-.39.756-.32.611.01.071.06.12.12.164.16.2.03.031v.005l.17.191.23.25.25.26.15.139v.005l.12.116.27.25.14.125v.001l.12.106.24.204.22.169.18.125.14.081.09.029.04-.022"/><path d="m1107.8 898.625.12.134v.001l.11.114.2.229.16.2.11.163.07.12.01.072M1105.84 897.038v-.002l.03-.021.1.029.13.079.18.126.22.169.24.204.27.232.26.251M1108.93 894.677l-.47.959-.08.184-.01.001-.19.401v.001l-.07.137v.001l-.05.121-.01.022-.04.076-.03.117.03.162.03.088.05.111.13.23.18.251.22.263.25.265.11.103.16.153.29.239.28.21.18.118.09.058.25.133.22.086.18.035.14-.017v-.001"/><path d="M1108.01 896.58v-.003l.07-.055.01-.007v-.003l.13-.018M1110.85 899.117l-.08.067v.001M1109.88 897.53l.1.099.25.265M1112.13 892.909l-.87 2.043-.07.161-.01.202.02.088v.003l.04.144.1.259.16.274.21.277.25.27.28.253.29.225.25.157v.003l.05.03.3.148.28.098.26.046.22-.008.17-.062.01-.002"/><path d="m1112.03 894.812.28.099.3.146.31.19.29.227.28.254.24.269.21.278.16.274.11.258.05.237-.01.201M1111.26 894.952v-.004l.12-.11M1116.02 890.558l-.63 1.837-.04.24.02.269.09.288.15.294.19.29.25.276.28.249.3.214.32.17.33.121.31.065.29.009.25-.049.21-.105 1.67-1.018"/><path d="m1118.39 893.275.15.295.07.251M1115.39 892.395l.01-.02.09-.182.16-.157.21-.106M1120.02 893.708v-.001M1118.5 894.568l-.16.155v.002M1116.72 891.954l.32.12.32.171M1117.67 892.459l.28.25.24.275M1120.76 887.349l-.37 1.546v.3l.07.313.13.313.19.303.24.28.29.246.31.203.34.153.34.095.34.036.31-.026.29-.087 1.36-.797M1122.64 888.209l.31.204.29.246.24.28.19.303"/><path d="M1123.87 889.869v.299l-.05.205v.004l-.02.067-.13.24M1120.84 888.146l.18-.107.29-.087.31-.026.34.035M1124.6 890.227l.32-.195.01-.003M1120.39 888.895l.07-.275v-.005l.13-.235.19-.197M1123.48 890.88l-.15.086-.1.058M1126.23 882.902l-.08 1.302-.02.327.05.335.12.33.19.313.24.283.29.244.32.193.35.137.35.075.36.01.33-.056.31-.12 1.1-.574"/><path d="m1126.15 884.205.01-.022.08-.284.04-.079.01-.007.1-.187.22-.23.26-.178.31-.12.34-.056.35.009.36.075.35.137.32.194.29.243.24.284.18.313.12.33.05.335-.01.327-.09.306-.16.273-.02.03-.01.004-.18.196-.25.17-.02.008M1130.14 885.702l.36-.24v-.003M1132.24 878.629l.22.781.11.344.18.321.24.287.29.241.33.186.35.124.37.058.37-.012.35-.08.69-.265M1134.28 877.376l.37.058.35.124.33.186.29.241.24.287.18.322.11.344.04.352M1136.16 879.639l-.1.33-.17.3"/><path d="m1132.46 879.409-.01-.045-.02-.209v-.019l-.01-.08.03-.348.1-.33.17-.3.23-.258M1133.23 877.615l.33-.146.35-.081M1135.75 880.614l.43-.197.39-.279v-.002M1135.66 880.527l-.21.15-.01.006-.07.05-.28.126-.04.02M1139.66 874.469l.45.244.48.155.51.061.28-.021"/><path d="m1141.3 874.834-.34.025-.37-.045-.36-.114-.33-.181-.29-.239-.24-.289-.18-.328-.11-.353-.03-.366.03-.321M1152.14 861.449l.39.322.44.238.48.145.5.046.5-.054.47-.152.44-.244.38-.327.31-.398.23-.452.13-.49.04-.509-.05-.509-.16-.488v-.004l-.24-.445"/><path d="m1153.68 861.368-.33-.176-.29-.237-.24-.291-.18-.332-.11-.362-.04-.376.03-.376.1-.363.17-.335.23-.294.28-.242.32-.18.35-.112.37-.04.37.034.35.108.33.175.29.238.24.291.18.332.11.361.05.376-.03.377-.11.362-.16.335-.23.294-.28.242-.33.181-.35.112-.37.04-.36-.034-.36-.108ZM1158.29 854.93l.38.322.44.24.47.147.48.051.48-.049.46-.146.41-.238.36-.321.28-.391.21-.446"/><path d="m1162.41 853.526-.03.055-.13.275-.21.289-.26.237-.31.176-.33.108-.36.037-.36-.038-.34-.109-.33-.177-.28-.238-.24-.29-.19-.331-.12-.359-.05-.372.01-.373.09-.358.15-.33.22-.289.26-.237.31-.176.33-.108.36-.036.35.038.32.101.03.008.32.177.29.238.24.29.19.33.12.359.05.372-.02.373-.08.358Zm0 0-.15.573M1161.62 851.206l-.42-.243M1163.98 848.576l.39.323.42.244.46.156.46.061.45-.035.42-.13.39-.221.32-.303.25-.373M1168.01 847.313l-.19.276-.06.055-.18.168-.28.164-.31.096-.34.026-.34-.045-.33-.116-.32-.18-.29-.239-.24-.289-.19-.326-.13-.352-.07-.364v-.362l.06-.346.13-.317.19-.276.24-.223.28-.163.19-.058.13-.039.33-.025.34.045.34.116.31.18.29.239.24.288.19.326.13.352.07.364v.362l-.06.346-.13.317Zm0 0-.46.985M1166.29 844.378l-1.07-.048M1173.68 837.484l.4.263.41.186.4.103.38.015.34-.072.3-.157.23-.236M1177.08 835.993l-.17.175-.22.115-.25.054-.08-.003-.2-.009-.3-.076-.3-.138-.3-.194-.27-.243-.25-.282-.21-.311-.17-.327-.11-.332-.05-.323v-.301l.04-.152.03-.117.12-.226.17-.174.22-.116.25-.052.28.012.3.076.3.138.29.194.28.242.25.282.21.311.16.327.11.331.06.323-.01.301-.06.269-.12.226Zm0 0-.94 1.593M1174.78 833.013l-1.75.544M1177.02 832.779l.39.275.38.207.36.132.34.051.29-.031.24-.113.18-.19M1180.27 831.314l-.13.14-.18.083-.21.024-.25-.038-.27-.098-.28-.153-.01-.005-.28-.199-.27-.245-.25-.278-.22-.3-.18-.311-.08-.171-.06-.138-.08-.295-.04-.271.03-.236.08-.191.13-.14.17-.082.22-.023.25.038.27.098.28.153.28.203.27.246.25.277.23.3.18.31.13.309.09.295.03.271-.02.236-.08.191Zm0 0-1.08 1.796M1177.9 828.41l-1.92.772M1182.38 827.577l-.09.101-.13.046-.18-.012-.21-.068-.25-.122-.26-.171-.26-.214-.27-.248-.26-.274-.23-.288-.2-.291-.17-.283-.11-.265-.08-.235v-.1l-.01-.098.03-.152.09-.1.13-.045.14.008v.001l.04.002.21.068.24.123.12.077v.001l.14.093.27.214.27.248.02.021.23.252.24.287.2.291.16.283.03.059.09.205.07.236.02.198-.03.152Zm0 0-1.17 1.956"/><path d="m1179.79 824.803-.3.14-.91.427v.001l-.09.042v.002M1179.7 829.229l.35.231.33.165.29.091.24.016.18-.063.12-.136M1183.33 824.888l-.04.059-.09.004-.13-.049-.18-.1-.21-.149-.2-.154v-.001l-.04-.036-.25-.225-.27-.252-.25-.268-.18-.192v-.001l-.07-.082-.22-.27-.2-.255-.15-.231-.11-.197-.06-.156-.01-.109.04-.058.09-.005.14.05.17.1.22.149.23.191.26.225v.007l.01.002v.001l.25.242.26.268.24.274.22.264v.006l.2.255.15.23.11.198.06.156.01.109Zm0 0-1.1 1.888v.01"/><path d="m1180.71 822.166-.03.015v.001l-.79.409-.49.258-.08.037M730.82 339.174l.256-.458-.064-.07-.136-.14-.201-.205-.259-.263-.306-.309-.343-.344-.365-.366-.375-.374-.369-.367-.349-.347-.317-.313-.271-.268-.216-.211-.152-.146-.082-.077-.009-.004"/><path d="M731.076 338.716h-.001l-.007-.003-.001-.001-.081-.075-.151-.146-.215-.211-.272-.267-.316-.313-.35-.347-.37-.369-.375-.374-.366-.367-.344-.345-.307-.309-.258-.263-.201-.205-.135-.139-.064-.07"/><path d="m729.682 337.352-.37-.368-.375-.375-.366-.367-.344-.345-.307-.309-.258-.262-.201-.205-.135-.14-.063-.069-.001-.001.009.004.001.001.081.076.152.147.216.211.271.267.317.313.349.347.369.367.375.374.365.366.343.344.306.309.259.263.201.205.136.14.064.07-.008-.003-.082-.076-.151-.146-.215-.211-.272-.267-.316-.313-.35-.347ZM727.259 334.911l-.798.446M659.32 394.725l.26.477.165.518.064.539-.041.539-.143.517-.239.477-.327.418-.005.004-.398.339-.462.254-.503.157-.527.052-.528-.053-.511-.158-.472-.256-.417-.343-.346-.419-.26-.477-.165-.518-.063-.538.04-.539.143-.517.239-.477.324-.414.003-.004.402-.343.462-.255.504-.157.526-.052.529.053.511.158.473.255.417.344.345.419ZM645.682 404.729l.2-.438.012-.025.296-.401.003-.005.374-.329.434-.242.478-.146.504-.042.51.062.497.163.464.259.414.345.347.417.268.473.178.511.082.53-.019.528-.118.505-.212.464-.299.404-.004.004-.37.326-.434.241-.478.145-.504.042-.028-.003-.051-.006-.431-.053-.496-.163-.464-.259-.413-.345-.348-.416-.268-.473-.178-.511-.081-.529.018-.528.117-.505Zm0 0 .01-.03M647.793 408.458l.078.019M637.847 413.301l.257-.375.002-.004.222-.201.006-.006.106-.097.396-.218.443-.123.473-.023.484.077.478.174.452.266.409.346.351.414.278.465.196.499.106.513.012.507-.084.483-.174.439-.26.379-.004.003-.33.301-.206.112-.012.007-.178.098-.443.123-.473.022-.484-.077-.477-.175-.451-.265-.409-.346-.35-.414-.279-.464-.196-.498-.106-.513-.012-.507.083-.483.174-.439Zm0 0 .004-.007M640.824 417.46l.031-.003M630.938 421.538l.208-.339.002-.003.284-.269.349-.183.052-.012.007-.001.341-.078.434.004.452.099.453.191.436.275.405.349.354.409.292.454.217.48.137.489.048.479-.04.45-.128.404-.122.197-.004.007-.085.138-.004.003-.281.264-.349.183-.399.091-.435-.005-.451-.099-.453-.192-.437-.275-.403-.348-.353-.408-.293-.453-.217-.48-.137-.489-.048-.478.04-.45.128-.404Zm0 0 .014-.025M634.398 425.527l.015-.004M625.537 428.419l.229-.222.294-.14.348-.051.39.038.02.007.007.002.388.119.426.212.419.287.396.352.359.403.307.439.244.458.171.458.091.442.003.157.001.008.005.244-.075.359-.154.296-.003.003-.226.219-.295.139-.348.051-.39-.039-.415-.128-.424-.212-.419-.287-.396-.351-.358-.403-.307-.438-.243-.457-.171-.458-.092-.442-.01-.408.074-.36.153-.293.001-.004Zm0 0 1.436-2.425M628.883 432.648l.035-.012M621.439 434.373l.167-.169.234-.089.293-.005.34.08.375.16.395.236.399.301.389.356.363.396.324.422.272.431.209.423.138.4.063.36-.016.307-.093.243-.001.002-.166.166-.234.088-.293.004-.047-.011-.005-.001-.289-.068-.374-.161-.394-.235-.399-.301-.388-.355-.363-.396-.323-.421-.272-.43-.048-.098-.003-.005-.158-.32-.139-.399-.063-.361.015-.307.091-.241.001-.002Zm0 0 1.62-2.693M625.125 438.393l.003-.001M618.962 438.883l.001-.002.1-.108.171-.032.234.047.289.124.081.048v.001l.17.101h.002l.079.047.362.263.379.317.381.36.368.389.341.402.301.402.053.081.04.062.002.002.154.239.188.352.101.259.002.003.017.045.037.2.001.002.009.047-.029.183-.001.001-.101.108-.171.032-.235-.048-.289-.125-.331-.197-.362-.262-.378-.317-.38-.359-.293-.309-.075-.079-.031-.037-.001-.002-.308-.363-.301-.401-.249-.383-.021-.04-.001-.001-.166-.312-.121-.307-.047-.25.022-.147.005-.034.001-.001v-.001Zm0 0 1.725-2.886M622.695 442.826l.003-.001M618.164 441.828l.005-.008.029-.039.107.028.175.102.236.172.289.237.319.281.001.001.009.007.358.335.372.364.373.381.359.383.33.369.29.343.239.302.177.25.11.187.037.121-.035.046-.108-.029-.08-.047-.003-.001-.092-.054-.236-.174-.288-.235-.329-.291-.357-.333-.372-.363-.372-.38-.358-.382-.151-.168-.001-.003-.137-.152-.001-.001-.04-.045-.29-.342-.239-.302-.178-.251-.11-.189-.038-.119v-.001Zm0 0 1.103-1.89M621.945 445.689l.002-.001"/><path d="m619.06 443.078-.044.079.043.09.117.159.184.221.245.276.297.32.337.351.364.369.377.372.376.362.36.338.33.299.288.251.235.191.171.126.103.055.025-.014.432-.242M706.746 352.871l-.107.415-.2.366-.185.197-.1.106-.36.229-.421.145-.466.057-.493-.035-.5-.124-.489-.21-.459-.287-.411-.353-.347-.405-.27-.442-.182-.462-.088-.463.01-.448.107-.415.097-.177.104-.189.286-.303.36-.228.421-.145.466-.056.492.035.5.125.489.209.458.287.41.352.347.405.269.441.183.461.088.464-.009.448ZM702.633 349.845l-1.863.982M622.844 446.937l.456-.255"/><path d="m621.126 444.443.29.343.239.302.177.25.11.188.037.118v.002l-.033.043-.002.003-.108-.029-.076-.045-.003-.001-.096-.056-.236-.173-.288-.236-.329-.29-.357-.334-.372-.363-.372-.38-.358-.382-.155-.174-.002-.002-.133-.148-.001-.001-.039-.044-.29-.342-.239-.303-.178-.25-.11-.189-.038-.12M619.336 442.612l.358.334.372.364.373.381.359.383M618.199 441.783l.107.028.175.102.236.172.289.236.318.281M621.945 445.692l.618-.328M622.814 442.483v.001l.01.054-.028.18v.003l-.098.104-.004.005-.172.031-.234-.048-.289-.125-.332-.197-.362-.262-.378-.317-.38-.359-.284-.3-.083-.088-.032-.037-.001-.002-.308-.363-.3-.401-.25-.383-.021-.04v-.001l-.167-.311-.12-.307-.047-.25.023-.153.004-.031.001-.001.1-.109.172-.032.234.047.289.125.08.047.001.001.175.104M621.578 440.441l.341.403.301.401.053.081.032.05.002.003M622.469 441.629l.188.352.098.252M622.695 442.83l.313-.154.001-.001.136-.067h.002l.294-.145M620.449 439.375l.379.317.381.36M625.289 438.227l-.002.002-.161.163-.006.006-.234.088-.293.004-.038-.009-.005-.001-.298-.07-.374-.161-.394-.236-.399-.301-.388-.355-.363-.396-.323-.42-.272-.431-.052-.105-.002-.005-.155-.312-.139-.4-.063-.36.015-.308.092-.243.002-.002M624.391 435.644l.323.422M624.988 436.497l.209.423M625.332 437.318l.063.361-.015.307M623.06 431.68l-1.622 2.697M621.836 434.119l.293-.004M622.469 434.193l.375.161M623.238 434.59l.399.302M629.622 431.229l.003.149v.008l.006.252-.075.359-.153.293-.002.003-.229.222-.255.121-.039.018-.349.051-.389-.039-.415-.128-.425-.212-.418-.287-.396-.351-.358-.403-.307-.438-.244-.457-.171-.458-.092-.442-.009-.409.074-.359.154-.297.003-.002M627.633 428.389l.419.288.397.352.359.403.307.439.243.457M626.981 425.982l-1.446 2.442M625.762 428.202l.294-.14M626.406 428.011l.39.039M635.029 425.081l-.002.004-.286.267-.328.172-.021.011-.399.091-.434-.005-.452-.1-.452-.191-.436-.275-.403-.348-.354-.409-.292-.453-.218-.479-.137-.489-.049-.478.041-.45.127-.404.02-.032.19-.311.004-.003M635.004 422.441l.218.48M635.403 423.889l-.04.45-.128.403-.118.191M631.426 420.934l.349-.183.059-.014.006-.001.334-.077M632.059 419.539l-1.125 2.006M634.355 421.578l.356.409M639.385 417.238l-.452-.266-.408-.346-.351-.413-.278-.465-.197-.498-.105-.512-.012-.507.082-.483.175-.439.01-.015.249-.364.004-.004.223-.204.006-.005.101-.092.396-.218.443-.123.472-.023.485.077.477.175.452.266.409.346.351.414.279.465.196.498.105.513.012.508-.083.482-.175.44-.257.374-.003.004-.334.304-.193.106-.012.007-.191.105-.405.112-.038.01-.472.023-.484-.077-.477-.175ZM638.639 411.681l-.799 1.628M650.091 407.766l-.003.005-.374.329-.434.241-.479.145-.492.041-.011.001-.028-.003-.397-.048-.085-.011-.496-.163-.464-.259-.414-.344-.347-.417-.268-.473-.178-.511-.082-.529.019-.528.117-.505.017-.038.194-.425.001-.001.008-.01.291-.395.004-.003.369-.326M648.484 403.171l.497.163.464.259.414.345.348.417.268.473.178.511M646.992 403.297l.478-.145M646.02 403.686l-.348 1.051M656.114 398.813l-.472-.255-.417-.344-.346-.418-.26-.478-.165-.517-.063-.539.04-.538.143-.518.239-.477.327-.418.005-.004.397-.339.462-.254.504-.157.526-.053.529.054.51.157.473.256.418.344.345.418.26.478.165.518.063.539-.04.538-.143.518-.239.477-.324.413-.004.004-.402.343-.462.255-.504.156-.526.053-.528-.054-.511-.158ZM665.577 389.08l-.478-.256-.419-.343-.344-.419-.255-.478-.157-.519-.053-.539.053-.539.157-.519.255-.478.344-.418.419-.344.478-.256.518-.157.54-.053.539.053.519.157.477.256.419.344.344.418.255.478.158.519.053.539-.053.539-.158.519-.255.478-.344.419-.419.343-.477.256-.519.157-.539.053-.54-.053-.518-.157ZM675.357 379.424l-.479-.259-.419-.345-.344-.418-.254-.474-.155-.513-.05-.532.056-.53.161-.508.26-.466.347-.408.423-.332.482-.244.522-.147.542-.044.542.061.52.162.479.259.419.345.343.417.254.474.155.513.051.532-.057.53-.16.508-.26.467-.347.407-.423.332-.482.244-.522.147-.542.045-.542-.061-.52-.162ZM688.704 366.888l.026.081.133.42.056.516-.05.51-.153.487-.251.444-.339.383-.414.309-.473.222-.514.125-.535.026-.536-.074-.516-.174-.476-.265-.418-.347-.344-.414-.256-.467-.159-.502-.055-.516.05-.511.153-.487.252-.444.339-.383.414-.308.473-.221.036-.009.478-.117.535-.026.536.075.515.174.476.265.418.347.343.414.256.467ZM685.624 365.172l-.694.127M698.202 359.635l-.034.483-.077.26-.058.196-.231.409-.318.349-.393.273-.452.188-.495.096h-.519l-.522-.097-.505-.19-.469-.274-.415-.35-.345-.41-.262-.456-.168-.484-.068-.494.034-.483.136-.456.231-.409.293-.321.026-.027.393-.273.452-.188.495-.095.518.001.522.097.505.189.468.275.415.349.345.41.261.456.168.483.069.493ZM693.983 357.165l-1.467.638M714.268 347.265l-.16.315-.243.25-.317.176-.229.057-.151.038-.427.01-.459-.075-.472-.158-.468-.233-.445-.301-.405-.357-.35-.398-.281-.426-.202-.435-.114-.429-.018-.328-.004-.078.07-.367.16-.315.244-.249.318-.176.38-.094.427-.009.459.075.471.158.467.233.444.301.405.356.35.398.28.424.202.435.114.429.023.406-.069.367ZM709.996 343.962l-2.328 1.332M720.68 342.691l-.111.257-.192.191-.266.117-.331.038-.381-.041-.418-.12-.318-.141-.12-.053-.442-.26-.429-.317-.399-.361-.353-.391-.263-.363-.032-.044-.224-.406-.146-.39-.06-.359.025-.314.112-.257.193-.19.267-.116.33-.038.382.042.417.121.438.194.442.26.428.316.398.361.352.39.295.406.224.405.146.39.061.359-.025.314ZM716.524 339.287l-2.61 1.535M725.634 339.887l-.12.113-.001.001-.013.013-.209.054-.263-.021-.011-.001-.33-.097-.372-.168-.4-.233-.414-.289-.41-.333-.391-.366-.358-.383-.309-.387-.25-.374-.181-.348-.105-.309-.024-.257.056-.196.136-.127.209-.053.275.023.33.097.087.04.284.129.4.233.413.288.409.334.391.364.357.383.091.114.001.001.036.045.181.226.045.067.003.005.202.302.181.348.105.308.025.257-.056.197Zm0 0-.079.165-.001.002-.151.314-.085.178-.002.003M721.666 336.179l-2.826 1.666M729.165 338.469l-.073.062-.146-.011-.214-.084-.051-.029-.222-.125-.323-.218-.359-.273-.383-.318-.39-.351-.061-.059-.001-.001-.14-.135-.181-.175-.362-.375-.326-.366-.199-.245-.001-.001-.078-.096-.219-.305-.152-.257-.079-.198-.002-.133.074-.061.146.012.215.085.274.154.322.218.228.173.001.001.13.099.382.318.39.35.382.369.326.338.006.007.029.03.326.365.278.341.219.305.152.257.034.085.045.114.003.133Zm0 0-.156.297-.001.001"/><path d="m725.277 334.715-1.193.691-1.518.88M751.223 352.266l.214-.371M750.289 351.636l.113-.202.001-.002.394-.704.001-.002.411-.734-.074-.078-.151-.154-.22-.224-.283-.285-.334-.335-.372-.373-.395-.397-.405-.404-.398-.397-.376-.374-.34-.337-.29-.287-.23-.226-.16-.157-.085-.081-.005-.001"/><path d="m751.208 349.992-.005-.001-.001-.001-.083-.079-.159-.155-.23-.226-.29-.287-.34-.338-.376-.374-.399-.398-.406-.405-.396-.397-.373-.374-.334-.336-.283-.285-.22-.224-.15-.153-.073-.077"/><path d="m749.724 348.53-.399-.398-.406-.405-.396-.397-.373-.374-.334-.336-.283-.285-.22-.224-.15-.153-.073-.076.005.001h.001l.084.08.16.157.23.226.29.287.34.337.376.374.398.397.405.404.395.397.372.373.334.335.283.285.22.224.151.154.074.078-.005-.001-.084-.08-.159-.155-.23-.226-.29-.287-.34-.338-.376-.374ZM747.092 345.881l-.85.475M751.438 351.893l-.014-.148-.091-.22-.166-.285-.234-.339-.136-.175M674.034 411.091l.282.518.178.562.069.583-.044.584-.156.561-.26.516-.356.453-.005.004-.431.367-.502.275-.547.169-.571.057-.573-.059-.554-.171-.513-.277-.452-.373-.374-.454-.282-.517-.179-.561-.069-.584.045-.583.155-.561.26-.517.351-.448.004-.004.437-.372.501-.275.547-.17.571-.056.574.058.554.171.513.278.452.373.375.453ZM659.223 421.909l.082-.178.095-.205.008-.018.046-.1.179-.242.142-.191.004-.005.406-.356.472-.261.519-.156.547-.045.554.067.539.178.504.281.449.374.377.452.29.513.193.554.087.573-.021.572-.129.547-.231.501-.325.438-.005.004-.401.351-.472.261-.52.156-.514.042-.028.002-.005.001-.553-.068-.539-.178-.503-.281-.448-.374-.377-.452-.29-.512-.193-.553-.088-.574.021-.571.128-.547Zm0 0 .009-.026M661.512 425.951l.101.022M650.696 431.163l.279-.404.003-.005.209-.188.007-.006.147-.134.431-.234.482-.132.513-.023.526.084.518.191.491.288.444.376.38.448.302.504.211.54.114.555.011.548-.091.522-.191.474-.283.409-.004.003-.36.324-.185.101-.014.007-.231.126-.482.131-.513.023-.526-.085-.517-.191-.49-.288-.443-.375-.38-.448-.302-.503-.212-.539-.114-.554-.012-.549.092-.521.19-.475Zm0 0 .003-.007M653.922 435.668l.037-.004M643.169 440.034l.227-.365.002-.004.311-.288.38-.196.038-.009.006-.001.39-.087.472.006.491.11.492.208.474.299.437.378.385.444.315.49.236.52.146.528.052.517-.046.485-.14.435-.117.186-.004.008-.11.175-.003.003-.308.284-.38.196-.434.096-.471-.007-.456-.102-.035-.008-.444-.188-.048-.021-.473-.298-.437-.378-.383-.443-.316-.49-.236-.519-.146-.527-.052-.517.045-.485.14-.435Zm0 0 .011-.02M646.914 444.356l.017-.005M637.27 447.42l.25-.238.32-.149.379-.052.424.044.008.003.008.002.435.135.463.231.453.312.43.382.39.437.331.474.263.495.185.495.013.071.084.405.002.138v.009l.005.237.001.056-.084.386-.169.318-.003.003-.247.234-.32.148-.381.052-.422-.045-.026-.008-.425-.133-.357-.178-.104-.053-.455-.311-.428-.382-.388-.435-.199-.283-.133-.191-.172-.322-.091-.172-.185-.494-.097-.476-.008-.44.081-.387.167-.315.002-.003Zm0 0 1.54-2.637.013-.023M640.891 451.996l.046-.017M632.776 453.783l.183-.18.256-.093.319-.001.37.089.408.175.428.258.339.255.094.072.422.385.193.211.2.219.35.456.294.465.225.455.148.431.066.387-.019.329-.103.258-.002.003-.181.177-.256.092-.32.001-.027-.007-.006-.001-.337-.082-.407-.176-.428-.257-.433-.327-.42-.385-.393-.43-.22-.285-.129-.168-.293-.465-.086-.174-.003-.006-.022-.043-.114-.232-.149-.43-.067-.387.018-.33.101-.257.001-.002Zm0 0 .229-.385.901-1.51.616-1.034M636.766 458.134l.003-.002M630.04 458.57l.001-.002.111-.113.187-.031.249.053.007.001.296.13h.001l.017.008.276.165.002.001.083.05.394.286.411.344.412.391.398.42.369.435.175.234.01.013.003.003.137.183.268.413.202.378.067.174.001.003.06.152.02.115.001.002.027.149-.033.194-.001.002-.112.113-.188.03-.256-.056-.093-.041-.087-.038-.134-.059-.156-.093-.205-.123-.233-.17-.16-.116-.41-.344-.412-.389-.397-.42-.16-.188-.001-.001-.207-.245-.324-.432-.269-.413-.073-.137-.001-.001-.128-.24-.128-.329-.049-.267.032-.192v-.002Zm0 0 .286-.482.067-.112 1.187-1.997.323-.543M634.078 462.836l.004-.002M629.117 461.654l.003-.004.037-.043.118.034.191.115.257.189.314.259.255.226.001.001.102.089.388.363.403.394.403.412.388.413.357.398.312.368.256.324.19.267.116.2.039.125-.041.046-.104-.031-.002-.001-.013-.004-.191-.114-.258-.191-.313-.258-.357-.316-.388-.362-.402-.394-.402-.411-.387-.412-.293-.326-.001-.001-.063-.07-.013-.016-.001-.001-.298-.351-.256-.323-.191-.268-.117-.2-.039-.125v-.001Zm0 0 1.193-2.051M633.207 465.83l.003-.002"/><path d="m630.017 462.923-.037.066.049.102.128.175.201.243.267.301.322.348.366.381.394.399.408.403.406.39.388.363.356.322.31.268.251.203.184.132.108.055.007-.004 1.564-.875.072-.041M725.327 365.605l-.113.451-.214.399-.224.24-.083.09-.388.25-.454.159-.503.063-.532-.036-.54-.134-.529-.226-.496-.311-.445-.382-.377-.439-.293-.48-.199-.501-.097-.504.008-.487.114-.451.119-.22.096-.179.308-.33.388-.249.454-.158.503-.063.531.037.54.134.528.227.496.31.444.381.376.439.294.479.199.501.097.503-.004.246-.004.241Zm0 0-.109.505-.365 1.696M720.871 362.329l-2.039 1.051M634.121 467.074l1.57-.879.072-.04"/><path d="m633.208 465.66.038.124.001.002-.038.042-.003.004-.102-.031-.017-.005-.191-.115-.258-.19-.313-.258-.357-.316-.388-.362-.402-.394-.402-.411-.387-.412-.296-.33-.061-.067-.014-.017-.001-.001-.297-.35-.256-.323-.191-.268-.117-.2-.039-.126v-.001l.04-.046M631.59 463.691l.388.413.356.398.313.368.256.324M633.207 465.832l1.199-.641.52-.277M629.469 461.758l.257.189.314.259.255.225M634.197 462.375l.028.156-.032.192-.001.002-.107.109-.005.005-.188.03-.257-.055-.063-.028-.111-.049-.14-.062-.184-.11-.176-.106-.234-.169-.159-.116-.41-.344-.412-.39-.398-.42-.159-.188-.001-.001-.208-.245-.324-.431-.269-.413-.073-.138-.001-.001-.128-.239-.128-.329-.049-.267.032-.195.002-.001.11-.114M631.664 459.121l.411.345.412.39.399.421.368.435M633.848 461.557l.201.379.065.165.001.003"/><path d="m634.078 462.839.39-.194.139-.069h.002l.343-.171.001-.001.383-.189.001-.001.488-.242M630.59 458.48l.002.001.296.129.001.001.018.008.281.168.002.001.078.047M636.95 457.957l-.001.003-.177.172-.006.007-.257.091-.319.001-.018-.004-.006-.001-.346-.084-.407-.176-.428-.257-.433-.328-.42-.385-.393-.428-.222-.289-.127-.166-.293-.464-.091-.182-.002-.006-.019-.037-.114-.23-.148-.43-.067-.387.018-.33.102-.26.002-.002M636.855 456.555l.149.43.066.387-.019.329M634.523 450.852l-.617 1.036-.901 1.511-.232.388M632.957 453.608l.256-.093.319-.002.37.089"/><path d="m636.766 458.138 1.451-.646.024-.011M641.46 451.614l-.002.003-.25.237-.27.125-.051.023-.379.052-.424-.045-.029-.009-.422-.132-.359-.18-.102-.05-.454-.312-.429-.381-.388-.436-.199-.285-.133-.189-.172-.324-.091-.17-.184-.494-.098-.476-.008-.44.082-.387.169-.318.002-.003M637.516 447.188l.321-.148.379-.053.424.044.017.006.007.002.427.133.462.23.455.312.123.111.306.271.124.139.265.298.332.475.263.494.184.495.014.068.084.408.002.13v.008l.004.243.001.059-.082.386M638.822 444.763l-1.556 2.663M640.887 452.002l2.828-1.053M645.02 444.134l-.473-.299-.437-.378-.383-.442-.316-.491-.236-.518-.146-.528-.052-.516.045-.486.14-.435.017-.027.212-.342.004-.003.307-.285.38-.196.044-.01.007-.002.383-.085.471.007.492.109.492.208.474.299.437.379.384.443.316.491.236.519.105.38.041.148.036.36.016.157-.046.485-.141.436-.111.178-.005.007-.111.179-.003.004-.311.287-.357.184-.023.012-.434.096-.471-.007-.459-.103-.032-.007-.446-.189-.046-.019ZM644.37 437.846l-1.206 2.195M646.91 444.363l2.522-.676M655.665 434.101l-.191.474-.28.404-.003.005-.364.327-.172.094-.013.007-.246.133-.437.119-.044.012-.513.023-.526-.085-.517-.19-.49-.289-.444-.375-.379-.448-.302-.503-.212-.539-.114-.554-.012-.549.091-.521.191-.474.01-.016.272-.393.004-.004.212-.191.007-.006.14-.127.431-.235M653.285 430.13l.518.19.491.289.443.375.381.449.301.503.212.54M651.541 429.385l-.85 1.787M653.918 435.676l1.819-.187M664.005 425.206l-.003.004-.406.356-.472.261-.52.156-.486.039-.028.003-.033.002-.444-.054-.109-.014-.539-.178-.503-.281-.449-.373-.376-.452-.29-.512-.193-.554-.088-.573.021-.571.128-.547.017-.035.065-.143.103-.223.008-.019.038-.081.188-.254.137-.184.004-.004M664.137 421.513l.291.513M664.684 423.725l-.129.547M660.648 420.362l.519-.156M659.574 420.755l-.318 1.03-.041.133M662.805 420.406l.504.281M661.504 425.959l1.162.256M674.094 414.424l-.352.448-.002.005-.438.371-.501.275-.546.17-.573.056-.573-.059-.553-.171-.513-.277-.452-.373-.375-.454-.281-.517-.18-.561-.067-.584.044-.583.155-.561.259-.517.356-.452.005-.005.432-.367M674.309 411.618l.178.562.069.584-.044.583-.156.561M670.441 409.993l.547-.17.571-.056.574.058M673.199 410.273l.452.373.375.454M680.824 404.975l-.519-.277-.454-.373-.373-.455-.277-.518-.17-.562-.058-.585.058-.585.17-.562.277-.518.373-.455.454-.372.519-.277.562-.171.585-.058.585.058.562.171.518.277.454.372.373.455.277.518.171.562.057.585-.057.585-.171.562-.277.518-.373.455-.454.373-.518.277-.562.17-.585.058-.585-.058-.562-.17ZM691.427 394.498l-.519-.281-.455-.373-.372-.453-.276-.515-.168-.557-.055-.577.06-.575.174-.551.281-.507.377-.442.148-.117.009-.007.301-.237.521-.265.566-.16.587-.048.587.065.188.059h.002l.374.118.519.28.454.374.373.452.275.515.169.556.055.577-.06.575-.174.552-.281.506-.376.442-.458.361-.522.266-.565.16-.588.048-.587-.065-.564-.176ZM705.869 380.876l.039.124.134.419.061.56-.053.555-.165.529-.271.482-.366.417-.448.335-.512.242-.556.138-.579.029-.581-.081-.558-.188-.516-.287-.453-.376-.373-.45-.278-.506-.173-.545-.061-.56.053-.555.095-.303.002-.006.069-.22.271-.482.367-.416.447-.335.512-.241.149-.037.407-.101h.01l.57-.029.58.081.558.188.515.287.453.376.372.449.279.507Zm0 0 .394.771M702.533 379.017l-.748.115M716.12 372.98l-.035.525-.092.315-.052.18-.249.445-.342.379-.424.298-.489.206-.535.105h-.561l-.564-.104-.547-.204-.508-.298-.45-.378-.374-.446-.284-.494-.183-.526-.076-.536.036-.525.145-.495.249-.445.343-.379.004-.003.421-.295.489-.204.535-.105h.56l.564.104.546.205.508.297.449.378.374.445.284.494.183.525.075.536Zm0 0-.007 1.614M712.045 370.101l-1.44.603M733.403 359.483l-.169.343-.26.273-.178.101-.163.092-.272.07-.137.035-.46.013-.495-.08-.509-.169-.505-.252-.482-.326-.439-.386-.379-.432-.306-.462-.219-.473-.126-.466-.023-.376-.004-.065.074-.4.17-.343.261-.272.342-.192.408-.104.461-.012.494.08.509.17.504.252.481.325.185.163.253.222.105.12.274.312.305.46.22.473.126.465.027.441-.054.298-.019.102Zm0 0-.554 1.631M728.781 355.908l-2.539 1.432M740.146 354.754l-.204.209-.285.129-.354.044-.41-.043-.45-.128-.386-.171-.087-.038-.262-.155-.215-.126-.431-.319-.032-.023-.432-.391-.383-.424-.287-.396-.033-.045-.245-.441-.159-.424-.069-.39.025-.342.117-.281.205-.208.286-.128.087-.011.267-.032.41.044.11.031.34.097.472.209.476.281.463.342.029.027.396.359.005.004.174.193.209.23.006.009.314.431.244.441.16.423.07.39-.024.342-.117.281Zm0 0-1.298 3.049M735.769 350.791l-2.839 1.654M745.533 351.381l-.142.14-.121.033-.002.001-.099.027-.293-.022-.03-.009-.323-.094-.4-.18-.431-.251-.445-.311-.443-.361-.424-.396-.387-.415-.337-.419-.245-.365-.027-.041-.199-.379-.116-.336-.03-.28.058-.214.142-.14.223-.06.294.023.278.081.06.018.015.004.4.181.43.251.445.311.442.36.423.395.299.321.001.001.086.092.257.32.079.098.072.107.003.005.198.294.198.378.117.336.031.281-.057.215Zm0 0-.072.148-.001.003-.076.157-.001.002-.109.224-.697 1.439"/><path d="m741.24 347.369-.71.416-2.358 1.382M749.253 349.786l-.075.069-.154-.009-.227-.089-.292-.164-.001-.001-.346-.233-.386-.294-.412-.344-.421-.379-.233-.225-.002-.002-.179-.173-.392-.406-.355-.397-.292-.358-.001-.001-.009-.012-.24-.332-.168-.28-.088-.216-.007-.146.075-.069.155.011.228.09.293.164.346.234.172.132.001.001.213.161.411.343.42.379.414.399.391.406.001.001.008.008.345.386.302.371.24.332.168.279.089.218.008.146Zm0 0-.207.392-.001.002-.24.455-.713 1.35M745.045 345.725l-1.899 1.098-1.052.608M789.223 413.396l-2.693-1.996-8.833-4.688-2.992-1.588-9.584-2.853-3.236-.963-9.957-.931-3.423-.32-9.955.952-3.588.343-9.563 2.923-3.372 1.03-8.845 4.666-3.182 1.678-7.715 6.362-2.721 2.244-6.363 7.714-2.253 2.732-4.647 8.855-1.628 3.103-2.913 9.567-1.02 3.348-.889 9.96-.312 3.489.931 9.956.321 3.423 2.831 9.591.96 3.253 4.683 8.836 1.588 2.995 6.257 7.801 2.037 2.539 7.638 6.455 2.382 2.014 8.789 4.77 2.792 1.515 9.565 2.915 3.058.932 9.956.947 3.222.306"/><path d="m786.528 411.4 1.966 1.612 7.733 6.34.54.443 6.296 7.77 1.98 2.443 4.623 8.868 1.499 2.876 2.763 9.611.915 3.182.804 9.968.273 3.385-1.175 9.93-.41 3.465-2.992 9.542-1.073 3.423-4.829 8.756-1.764 3.199-6.358 7.719-2.314 2.81-7.72 6.357-2.799 2.305-8.775 4.796-3.051 1.668-9.551 2.963-3.351 1.039-9.944 1.055-1.714.181-1.553.165"/><path d="m773.78 428.764.179.147 6.893 5.666 5.782 7.115 4.267 8.147 2.448 8.395.137.471.802 9.243-1.014 9.264-2.793 8.926-4.465 8.244-5.965 7.241-7.234 5.958-8.223 4.445-8.893 2.759-9.219.97-8.125-.758-.221-.021-.843-.078M737.292 514.898l-8.803-2.648-8.079-4.334-7.046-5.852-5.742-7.142-4.221-8.157-2.54-8.856-.496-5.987-.267-3.231 1.039-9.225 2.252-7.137.55-1.743.184-.338 4.271-7.86 5.939-7.201 7.195-5.932 8.177-4.435.174-.055 1.529-.478 7.144-2.235 9.181-.996 4.744.424 4.419.394 8.794 2.602 8.089 4.288"/><path d="m738.136 514.976-8.68-2.61-8.046-4.317-7.016-5.827-5.719-7.112-4.204-8.123-2.53-8.82-.407-4.91-.354-4.269 1.035-9.187 2.79-8.843 4.437-8.164 5.914-7.171 7.165-5.907 8.143-4.417 8.811-2.757 9.142-.991 4.379.391 4.746.424 8.759 2.591 7.458 3.954M1184.49 899.361l1.33 1.287 6.83-6.829-.98-1.5-.39-.395"/><path d="m1143.4 857.058-1.21-1.429-.62-.729-2.37-2.795-.13-.159-.09-.1-.23-.271-6.46-7.627-1.78-2.095-.43-.418-.32-.316-7.13-7.01-2.38-2.337-7.13-7.01-7.13-7.011-7.13-7.01-7.13-7.01-7.13-7.01-7.13-7.01-.52-.504-7.13-7.01-7.13-7.01-7.13-7.01-7.13-7.011-7.13-7.01-5.97-5.867-2.21 2.206-.51.518-4.77 4.77 6.76 7.365 6.76 7.364 6.77 7.365 3.28 3.572 6.76 7.364 6.77 7.365 6.76 7.365 6.77 7.365 6.76 7.364 6.77 7.365 2.07 2.251 7.09 7.049 7.09 7.049 7.09 7.049 3.45 3.424.33.326 7.09 7.049 2.09 2.071.35.349 7.09 7.049 2.79 2.777.01.005.54.538.01.005 2.21 2.201v.005l.07.069.01.005 1.5 1.487.3.299 7.09 7.049 1.17 1.162.33.328 3.6 3.579 1.37 1.364 2.45 2.43 2.44 2.416 1.43 1.412.82.812 1.61 1.599 5.2 5.137 1.29 1.282 1.44 1.42.25.245 1.3 1.29 7.11 7.033 5.54 5.482 7.11 7.033 7.07 6.989 7.1 7.033 7.04 6.962 7.07-7.071.67-.669-1.27-1.926-6.96-7.175-6.97-7.175-5.84-6.023-6.96-7.188-6.95-7.188-4.53-4.682-.93-.967-.37-.384-2.73-2.815-.91-.939-3.8-3.917-.2-.212-2.89-2.974-.13-.134-1.17-1.204-5.42-5.592-1.23-1.274-.99-1.024-2.15-2.269-.3-.32-6.88-7.264-1.49-1.582-.29-.299-4.23-4.47-4.69-4.956Z"/><path d="m1035.33 748.289 6.8 7.336 6.79 7.335 6.8 7.336 3.29 3.553 6.8 7.336 6.8 7.335 6.79 7.336 6.8 7.335 6.79 7.336 6.8 7.336 2.07 2.234M1094.07 827.888l7.11-7.112.68-.679 7.09 7.051 7.09 7.051 5.05 5.025 5.32 5.289.32.315 7.09 7.052 7.09 7.051 5.11 5.086 3.62 3.598 7.09 7.051 2.64 2.619.31.31 7.09 7.051.19.189 2.72 2.693 1.2 1.188.13.132 2.93 2.896 5.03 4.983 2.21 2.194 1.9 1.876 7.1 7.037 5.2 5.145 7.1 7.037 7.06 6.993 7.11 7.036 7.03 6.966M1777.15 69.204l-8.1-5.87-8.09-5.87-.2-.143-8.62-5.077-8.78-5.178-9.06-4.234-9.2-4.298-9.42-3.347-9.51-3.378-5.48-1.468-9.7-2.424-9.7-2.423-.58-.142-9.89-1.47-9.89-1.469-.52-.077-9.99-.495-9.99-.495-.46-.024-9.99.492-9.99.493-.41.02-7.48.496-9.89 1.48-9.89 1.48-.7.104-9.69 2.461-9.7 2.46-.65.165-7.48 2.682-9.4 3.42-9.4 3.42-.73.267-9.01 4.35-9 4.35-.69.334-8.52 5.238-8.52 5.237-.65.401-6.6 4.58-7.94 6.073-7.95 6.074-.57.436-7.29 6.847-7.28 6.847-.55.51-6.55 7.55-6.56 7.55-.52.593-4.73 5.686-5.76 8.173-5.76 8.173-.33.474-4.91 8.713-4.91 8.712-.32.56-4.01 9.16-4.01 9.16-.29.656-2.32 5.653-3.08 9.515-3.08 9.514-.1.32-2.12 9.773-2.12 9.773-.09.407-1.14 9.935-1.15 9.934-.05.495-.17 9.998-.16 9.999-.01.578.1 3.689.81 9.967.81 9.963 1.77 9.842 1.78 9.901 2.72 9.625 2.74 9.738 3.63 9.32 3.68 9.472 4.5 8.929 4.59 9.104 5.34 8.458 5.33 8.458.12.184 6.12 7.909 6.12 7.909.13.175 6.85 7.289 6.85 7.288.14.156 7.52 6.598 7.66 6.725 8.11 5.847 8.24 5.938 3.06 1.885 8.63 5.037 8.64 5.037.67.389 9.09 4.178 9.08 4.178.65.298 9.45 3.273 9.45 3.273.61.21 9.72 2.333 9.72 2.333.56.133 6.03.846 9.9 1.363 9.91 1.362.95.131 9.99.374 9.99.375.88.032 9.98-.624 9.98-.625.8-.05 7.31-1.191 9.87-1.621 9.87-1.622.97-.16 9.66-2.609 9.65-2.608.89-.24 9.34-3.571 9.34-3.571.81-.308 7.32-3.368 8.93-4.5 8.93-4.501.79-.395 8.43-5.384 8.42-5.384.71-.455 7.84-6.213 7.84-6.213.64-.513 6.14-5.118 7.17-6.976 7.16-6.975.49-.474 6.42-7.666 6.42-7.665.44-.527 5.62-8.274 5.62-8.273.4-.587 4.03-5.962 4.76-8.796 4.75-8.796.19-.348 3.86-9.226 3.86-9.226.17-.404 2.92-9.563 2.92-9.563.15-.466 1.47-5.561 1.97-9.804 1.97-9.791 1.01-9.95 1-9.992.04-10 .03-10.1-.92-9.956-.95-10.11-1.87-9.822-1.91-10.021-2.8-9.6-2.8-9.6-.07-.233-.54-1.541-3.69-9.293-3.51-8.833-4.56-8.904-4.33-8.483-5.37-8.436-5.12-8.048-6.14-7.895-5.86-7.532-.98-1.116-6.85-7.284-6.85-7.284-.21-.217-7.5-6.607-7.51-6.608-.2-.18Z"/><path d="m1795.57 247.199-7.3 6.841-5.52 5.184-8.59 5.133-6.78 4.06-8.41 5.417-7.68 4.951-9.61 2.79-9.6 2.789-.48.14-9.93-1.188-9.93-1.187-1.87-.224-9.44-3.287-9.48-3.301-8.81-4.734-8.81-4.734-2.59-1.392-7.81-6.244-7.81-6.243-.66-.523-6.58-7.525-6.59-7.524-2.22-2.537-5.32-8.466-5.32-8.467-.65-1.034-3.6-9.331-3.6-9.33-.9-2.335-1.49-9.888-1.49-9.889-.33-2.185 3.79-9.252 3.8-9.251.14-.33 3.09-9.511 2.71-8.345 4.21-9.069 3.41-7.333 6-8.001 4.52-6.038 7.52-6.596 5.41-4.745 8.69-4.95 6.13-3.493 9.48-3.175 6.76-2.26 9.99-.435 9.99-.435 3.07-.134 9.87 1.606 7.93 1.289 9.17 3.986 6.95 3.021 8.72 4.888 6.34 3.551 7.81 6.246 7.81 6.245 2.67 2.138 6.5 7.599 5.97 6.969 5.57 8.302 4.18 6.228 4.26 9.048 3.36 7.144 2.1 9.778 2.09 9.779.46 2.123-.14 9.999-.14 9.999v.247l-2.27 9.741-1.72 7.409-4.01 9.158-3 6.832-5.73 8.195-4.26 6.096Z"/><path d="m1822.44 207.09.14-9.999.13-9.999.04-3.139-2.09-9.778-2.1-9.777-1.12-5.211-4.26-9.048-4.25-9.047-.19-.396-5.58-8.302-5.56-8.291-6.5-7.598-6.5-7.599-1.23-1.438-7.81-6.245-7.81-6.245-5.28-4.215-8.72-4.89-8.48-4.75-9.17-3.987-9.24-4.018-9.87-1.61-9.87-1.611-.59-.096-9.99.428-9.99.428-6.37.274M1593.01 237.006l2.19 6.502.62 6.855-.66 7.51-.2 5.701-2.15 5.476-5.17 4.542-4.59 3.878-2.88.601-5.41 3.117-1.47.3-4.62.947-4.71-2.857-2.18-2.957-4.92-2.299-5.33-5.047-2.76-2.2-2.73-5.282-1-1.93-.9-2.774-1.42-8.041.99-3.064 1.03-7.862 2.77-2.784.07-5.943 1.54-5.151M1562.82 284.637l6.27 3.803 6.56-1.339 1.53-.311 7.21-4.138M1534.61 244.072l1.74 9.848.15.833M1546.32 270.938l7.07 6.708 6.53 3.06M1569.72 203.654l-3.16-.032-3.8-.039-4.26 1.958-7.99 4.329M1581.3 221.549l3.16 5.132M1590.12 214.228l-4.21-6.824M1666.19 388.573l4.8-2.112 8.25-2.274M1613.2 380.603l.84.391M1647.33 390.787l8.38.269 8.87-.613M1678.77 301.735l-6.91-2.44-8.61-2.165M1601.24 369.607l-1.35 1.793M1599.89 371.401l6.49-5.494.23-.314.76-1.005-1.67 1.365-4.46 3.655M1696.97 313.702l-6.77-4.77M1627.05 385.522l3.43 1.192M1712.99 335.503l-2.43-4.15-1.65-6.319-2.68-5.948-5.23-3.7M1586.31 336.871l-3.22 3.353 3.54 2.558M1708.38 360.378l3.09-4.749 1.72-.276 1.24-5.217.48-6.4-.38-6.249M1591.2 318.775l1.31 1.269 7.18 6.953.37.351.98.864"/><path d="m1613.68 302.619-5.15 1.442-3.47.93-5.75 4.451-5.08 5.056-3.03 4.278M1621.2 299.516l-6.84 2.824M1638.89 368.642l-4.38-1.059-1.11-.27-1.74-.604-4.26-1.486-2.33-.81-.43-.199-3.7-2.181-3.02-2.486.69-.911-1.11-1.715-.45-.686-2.34-3.078-.65-2.281 1.2-1.37-1.63-2.736-2.36-1.705-1.79-1.291 1.64-1.691 1.42-2.548.81-3.2.96-2.761-.68-.594 1.54-2.146 2.57-2.532 2.9-2.224 1.75-.461 2.6-.717 3.78-1.545M1635.71 321.311l2.22.627 4.62-.011M407.423 778.36l-8.147-5.799-.598-.426-8.682-4.962-.653-.374-9.129-4.081-.706-.315-9.487-3.162-.756-.252-1.437-.429-9.751-2.218-.896-.203-9.921-1.255-.938-.118-9.996-.285-.971-.027-9.976.685-.994.069-9.864 1.644-1.006.168-9.659 2.587-1.005.269-1.713.598-9.367 3.503-.983.367-8.987 4.385-.955.466-8.527 5.225-.914.56-7.986 6.018-.86.647-7.373 6.756-.793.727-6.69 7.433-.717.796-5.943 8.042-.632.855-.761 1.144-5.139 8.579-.48.802-4.284 9.036-.394.832-3.382 9.41-.305.849-2.447 9.696-.216.856-1.482 9.89-.128.853-.499 9.987-.042.842.495 9.988.04.822 1.486 9.889.12.798 2.468 9.691.195.768 3.426 9.395.267.734 4.353 9.003.337.696 5.236 8.52.403.657 6.067 7.949.469.614 6.835 7.299.532.567 7.534 6.575.593.518 8.156 5.787.652.463 8.694 4.942.71.404 9.142 4.052.763.339 1.296.573 9.499 3.125.923.303 9.761 2.173.969.216 9.927 1.202 1.007.122 9.997.225 1.035.024 9.971-.75 1.05-.079 9.853-1.714 1.053-.183 1.762-.439 9.64-2.658 1.05-.29 9.339-3.574 1.025-.393 8.952-4.456.986-.491 8.483-5.295.935-.583 7.935-6.086.87-.667 7.315-6.818.795-.74 6.626-7.49.71-.802.957-1.122 5.876-8.092.561-.773 5.067-8.621.473-.805 4.21-9.071.383-.825 3.31-9.437.292-.833 2.375-9.714.203-.832 1.413-9.9.117-.821.435-9.991.035-.802-.553-9.984-.043-.777-1.537-9.882-.116-.747-2.511-9.679-.185-.714-3.46-9.382-.25-.678-4.379-8.99-.312-.641-5.253-8.509-.371-.601-6.076-7.942-.43-.561-6.837-7.297-.486-.519-7.531-6.579-.543-.474Z"/><path d="m365.778 891.909-7.69 6.501-8.674 4.976-.245.14-8.474 5.309-.113.07-9.573 2.889-.709.214-9.971-.753-1.441-.109-9.586-2.847-.201-.06-8.947-4.466-1.224-.611-7.885-6.15-.115-.09-6.449-7.643-.81-.96-4.947-8.691-.117-.205-2.934-9.559-.293-.954-.699-9.976-.076-1.088 4.119-9.112.124-.274 3.97-9.263 5.07-8.683 6.475-7.543 7.586-6.208 8.411-4.745 8.959-3.204 9.965-.834 2.302-.192 9.402 1.039 8.054 3.329 7.488 4.056 7.851 6.194 1.16.916 5.218 6.16.829.978 4.67 7.146 3.374 8.077 1.251 9.921.137 1.082-1.116 9.938-.047.42-3.094 8.892-4.717 8.383-6.268 7.59Z"/><path d="m389.859 862.156.718-6.435-1.256-9.92-.343-2.707-3.874-9.27-5.361-8.2-6.464-7.63-.476-.562-7.85-6.194-2.49-1.966-8.594-4.655-9.242-3.822-9.939-1.103-.85-.095-9.966.829-4.114.343M266.618 887.27l.977 3.205.4 3.283-.054 3.523.129 2.663-.581 2.442-1.821 1.877-1.625 1.598-1.067.133-1.861 1.148-2.227.256-1.963-1.554-1.005-1.471-1.862-1.381-2.174-2.67-1.05-1.22-1.611-3.625-.393-1.378-.721-3.914.275-1.393.234-3.705.886-1.126.04-2.904.576-2.424M248.727 871.431l-.766 3.226M267.262 907.665l2.165-2.127M271.855 903.039l.777-3.253-.172-3.546.074-4.694M246.051 886.806l.959 5.207M247.535 893.846l2.142 4.821M261.81 870.982l-3.368-1.518-2.624-.425-1.543.681-2.908 1.608M253.965 903.843l2.477 1.837 1.338 1.958 2.612 2.069M261.953 879.249l1.216 2.655M282.484 947.127l3.382 2.211 3.837 2.009.425.188 2.312.761 4.238 1.396 1.724.568M308.318 918.73l-3.527-1.111-4.221-1.037M282.484 947.127l.978-1.732.175-.51-.915 1.547M303.875 955.48l3.045.679M323.777 926.236l-3.16-1.53M274.949 936.224l2.076 2.434M330.099 946.037l1.044-2.373.731-1.992.875-.151-.18-2.215-.779-2.692-1.217-2.606-1.152-.797-1.823-1.747M271.531 924.359l.653.727 3.269 3.643.481.421M272.345 922.577l-.814 1.783M282.083 916.844l-2.914 1.166-2.051.491-1.313.278M287.644 915.374l-3.312-.101M293.847 916.163l-4.148-.136M298.574 947.089l-2.205-.492-.56-.125-.87-.287-2.141-.705-1.167-.385-.215-.095-1.937-1.015-1.707-1.117.121-.351-1.024-1.06-1.45-1.371-.642-.973.248-.52-1.045-1.228-1.167-.828-.883-.627.437-.664.249-1.047-.062-1.359.048-1.158-.332-.29.413-.895.792-1.028.956-.878.663-.138 1.032-.246 1.468-.583M290.391 926.891l1.031.328 2.085.069M1378.04 284.115l-7.17-6.965-7.18-6.965-6.88-6.685-6.97 7.175-6.96 7.175-6.69 6.887 7.18 6.965 7.17 6.965 6.89 6.685 6.96-7.175 6.97-7.175 6.68-6.887ZM1347.28 252.199l-7.18-6.965-5.52-5.358-6.96 7.175-5.36 5.52 7.18 6.965 5.52 5.358 6.96-7.176 5.36-5.519ZM1367.02 237.449l-7.18-6.966-1.5-1.464-6.97 7.175-1.46 1.509 7.17 6.965 1.51 1.465 6.97-7.176 1.46-1.508ZM810.945-371.662l6.982 7.159 6.982 7.159 6.983 7.159 6.982 7.159 6.982 7.159 6.982 7.159 6.982 7.159 6.982 7.159 6.982 7.159 6.982 7.159 6.982 7.158 6.983 7.159 6.982 7.159 6.982 7.159 6.982 7.159 6.982 7.159 6.982 7.159 6.982 7.159 6.982 7.159 6.983 7.159 6.982 7.159 6.982 7.159 6.982 7.159 6.982 7.158 6.982 7.159 6.982 7.159 6.982 7.159 6.978 7.159 6.99 7.159 6.98 7.159 6.98 7.159 6.98 7.159 6.99 7.159 6.98 7.159 6.98 7.159 6.98 7.158 6.98 7.159 6.99 7.159 6.98 7.159 6.98 7.159 6.98 7.159 6.98 7.159 6.99 7.159 6.98 7.159 6.98 7.159 6.98 7.159 6.99 7.158 6.98 7.159 6.98 7.159 6.98 7.159 6.98 7.159 7.88 8.076 7.07-7.071 2.15-2.146M272.181 925.087l-.083 2.152M618.963 438.884l-.002.002M622.84 446.937h.002M623.297 446.681l.001.001 2.44 4.363M629.117 461.655v.001M630.041 458.571l-.002.002M635.691 466.195l.163.097M731.074 338.716v-.001M735.997 342.069l-5.176-2.895M751.207 349.992v-.001M751.223 352.266l.213-.368.002-.004.001-.001M743.146 346.823l-.639-.43-1.933-1.303M938.145 786.499l-.11.195-.311.557-1.197 2.136M938.949 787.128l-.012.022-.633 1.16-.882 1.614M941.991 785.236l-.515.992-.411.792v.002l-.156.3-.001.001-.215.414v.001l-.076.147-.001.001-.223.429-.008.017-.084.161M945.906 792.85l1.995 1.633.477.39M954.158 800.257l-.506.926M955.118 800.835l-.497.936M958.034 799.371v.001l-.197.392-.001.001-.075.15v.001l-.222.442-.055.109M985.141 750.746l.27.039M1077.75 658.235l.57-1.032M1089.57 675.336l.55-1.006M962.371 805.208l8.565 5.162 8.564 5.162 8.565 5.163 8.565 5.162 8.56 5.162 8.57 5.162 8.56 5.162 8.57 5.162 8.56 5.163 8.57 5.162 8.56 5.162 8.57 5.162 8.56 5.162 8.57 5.163 8.56 5.162 2.85 1.719 1.69 1.019M1108.66 896.631l.22.117M1114.06 897.519v.001M1084.39 670.03v-.001l-4.2-6.967M1191.01 892.229l1.64 1.589M1592.51 320.045l-1.85 5.405"/></g><defs><clipPath id="a"><path fill="#fff" d="M0 0h1920v1080H0z"/></clipPath></defs></svg>