<svg width="1920" height="1080" fill="none" xmlns="http://www.w3.org/2000/svg"><g clip-path="url(#a)" stroke="#EFC018" stroke-width="5" stroke-linejoin="round"><path d="m954.152 800.499.11.19.062.09"/><path d="m954.394 800.646-.072.133-.494.912.013.02.105.109.193.198.274.279.343.346.401.402.441.445.466.466.473.472.462.46.432.43.386.383.326.321.253.249.17.164.081.075 1.073-.593"/><path d="m953.828 801.691.08.074.169.164.252.248.326.321.387.384.433.43.462.461.474.473.467.468.443.444.401.404.344.347.273.277.192.198.104.109.012.017M955.82 801.094l-.162.313-.041.078.03.188.125.269.214.342.296.4.365.443.422.469.461.478.432.418.052.049.487.439.472.395.439.334.309.208.08.054.324.179.246.089.16-.005 1.626-.915 2.051-1.154"/><path d="m955.617 801.484.049-.073.017-.026.158-.005.246.087.324.179.389.261.439.334.473.395.021.019.467.422.485.468.462.478.344.383.079.088.366.444.295.4.138.22.076.121.124.27.029.187-.067.097M1043.74 725.877l.33.602.22.649.09.672-.03.669-.17.64-.29.587-.4.512v.004l-.49.411-.57.304-.63.181-.65.051-.66-.082-.65-.21-.59-.332-.53-.439-.44-.532-.34-.601-.22-.65-.09-.672.04-.67.16-.64.29-.587.4-.505v-.006l.49-.415.58-.304.62-.18.66-.051.66.082.64.211.6.331.53.44.44.53ZM1026.46 737.671l.41-.511v-.006l.52-.421.58-.31.64-.186.67-.054.68.078.65.208.6.33.53.44.44.532.33.603.21.653.09.676-.06.675-.18.645-.3.593-.42.517v.005M1028.77 743.026l-.65-.208-.6-.33M1031.34 742.555l-.59.31M1026.54 741.517l-.33-.604-.21-.653M1020.3 749.694l.33.601.21.648.08.67-.05.667-.18.637-.31.584-.42.507v.004l-.51.407-.59.3-.64.177-.68.048-.67-.085-.65-.212-.6-.334-.54-.44-.44-.531-.33-.601-.21-.648-.08-.67.06-.666.18-.638.3-.583.42-.502v-.005l.52-.412.59-.3.64-.178.67-.047.68.085.65.212.6.333.53.441.44.531ZM1002.64 764.049l-.09-.261-.02-.069-.11-.305-.01-.091-.07-.563.04-.646.17-.615.29-.559.4-.477v-.005l.5-.387.58-.276.63-.155.66-.029.67.1.64.224.6.34.53.443.44.528.34.593.21.636.09.654-.04.647-.17.614-.07.129-.23.43-.4.482-.01.005-.49.382-.58.275-.63.155-.19.008-.06.003-.41.017-.66-.1-.65-.224-.6-.34-.53-.442-.44-.528-.33-.593Zm0 0-.05-.105M1005.85 766.276l.12.004M991.27 772.604l.145-.575.001-.003.007-.015.258-.506.371-.437.004-.006.471-.346.548-.239.605-.122.637.002.646.125.63.242.589.35.526.445.443.523.342.581.229.617.106.627-.021.616-.146.579-.266.52-.376.444-.005.003-.271.198-.012.01-.183.134-.548.238-.605.12-.637-.002-.646-.123-.629-.242-.588-.352-.526-.445-.442-.521-.342-.582-.228-.615-.107-.628.02-.615Zm0 0 .002-.035M996 776.61l.037-.011M986.661 781.727l.353.565.248.59.132.593.011.574-.109.532-.205.428-.004.008-.016.033-.334.39-.005.003-.423.291-.507.188-.566.075-.603-.042-.617-.157-.607-.265-.575-.364-.52-.449-.444-.516-.353-.563-.247-.589-.133-.593-.012-.573.108-.532.225-.47.326-.383.003-.003.003-.005.002-.001.426-.294.507-.189.566-.075.603.042.618.156.608.265.576.365.52.449.445.516ZM972.319 789.185l.173-.409.275-.324.003-.003.373-.233.399-.113.008-.003.046-.013.516-.02.56.089.581.195.581.294.558.381.513.453.449.509.367.544.271.558.166.552.053.523-.013.096-.001.008-.048.372-.174.408-.279.326-.004.003-.369.229-.454.128-.516.019-.56-.09-.58-.195-.58-.294-.557-.38-.512-.453-.448-.507-.367-.543-.271-.558-.166-.551-.054-.523.061-.475Zm0 0 .026-.072M977.32 793.608l.015-.008M965.061 794.946l.211-.253.003-.003.308-.161.39-.062.458.042.508.143.195.086.303.135.014.006.026.012.549.325.536.4.505.458.453.499.384.521.074.13.007.012.219.381.204.505.102.466-.005.411-.113.339-.215.255-.003.002-.305.158-.391.06-.459-.042-.507-.144-.538-.239-.547-.325-.535-.399-.406-.368-.046-.043-.052-.046-.255-.282-.19-.209-.007-.008-.383-.52-.3-.522-.206-.503-.097-.443-.005-.024.003-.229.002-.182.088-.269.023-.07Zm0 0 .002-.005M970.176 799.592l3.227-1.763M959.387 799.215l.14-.176.002-.002.169-.061.066-.024.235.009.086.003.393.108.45.202.491.285.511.36.514.419.031.03.463.434.458.489.403.496.332.484.248.454.156.405.057.341-.044.265-.143.177-.003.001-.115.041-.119.042-.321-.013-.393-.11-.425-.19-.025-.011-.49-.286-.479-.337-.032-.022-.512-.419-.494-.462-.097-.104-.359-.385-.11-.135-.231-.285-.061-.075-.332-.483-.249-.453-.156-.405-.058-.342.043-.265Zm0 0 .003-.006M964.406 803.913l3.519-1.974M1085.55 682.948l-.22.182-.3.081-.38-.023-.43-.125-.48-.224-.5-.314-.51-.392-.5-.453-.46-.5-.39-.504v-.003l-.01-.017-.35-.531-.26-.516-.17-.481-.07-.427.03-.358.12-.275.12-.104.1-.077.3-.08.35.022.03.001.43.127.48.224.01.006v.001l.05.028v.001l.44.278.51.39.49.453.46.498.41.524.34.53.26.514.02.046.15.435.08.428-.03.359-.12.276Zm0 0-1.58 2.877"/><path d="m1080.89 677.887-.13.059-.01.003-.91.425-.01.002M962.47 800.37l.464.435.458.489.402.496.332.484.249.453.156.406.057.341-.044.265-.142.175-.001.002-.114.04-.123.044-.321-.013-.393-.11-.399-.179-.051-.022-.49-.286-.479-.337-.032-.023-.512-.418-.494-.463-.116-.124-.34-.364-.136-.167-.209-.257-.057-.071-.332-.483-.249-.453-.156-.405-.058-.342.042-.265.008-.009.134-.169.003-.001.172-.062.061-.022.243.009.078.003.014.004.379.104.45.201.491.286.511.36.513.419M964.402 803.917l3.525-1.979M967.423 799.067l-.535-.398-.339-.308-.046-.042-.119-.108-.452-.498-.005-.007-.016-.022-.362-.491-.3-.522-.205-.504-.098-.444-.005-.022.003-.223.002-.188.094-.286.017-.054.008-.009.206-.246.003-.002.305-.16.39-.061.458.042.508.143.192.085.32.142.014.006.013.006.548.325.536.4.505.458.453.499.384.521.067.118.007.012.226.393.205.504.101.467-.005.411-.113.339-.212.252-.002.002-.309.161-.391.06-.458-.043-.508-.143-.538-.239-.547-.326ZM970.172 799.597l3.285-1.794M977.691 793.379l-.003.003-.351.218-.023.014-.453.128-.517.019-.559-.089-.58-.196-.58-.293-.557-.381-.512-.453-.448-.507-.367-.543-.271-.558-.166-.551-.054-.523.061-.475.033-.078.139-.331.278-.327.005-.003.368-.229M975.246 788.358l.581.293.557.381.513.453.449.509.368.544.271.559M978.202 792.172l-.011.088-.001.008-.049.379M973.543 788.107l.008-.003.038-.01.516-.021M977.312 793.613l2.831-1.442M981.222 781.36l-.109.532.013.573.132.593.247.59.353.563.445.516.52.448.574.364.608.266.617.156.603.042.565-.074.507-.188 2.416-1.068"/><path d="m981.223 781.36.013-.028.211-.442.333-.39.002-.001.003-.002.006-.004.417-.288.506-.189.566-.075.604.041.617.157.609.265.575.364.521.449.445.517.353.564.247.59.132.594.012.573-.109.532-.202.42-.004.008-.02.042-.33.385-.003.005-.413.283-.016.011M997.015 776.028l-.005.005-.263.194-.012.009-.196.144-.501.218-.047.02-.604.12-.637-.002-.646-.125-.629-.242-.589-.35-.525-.445-.442-.523-.342-.58-.229-.615-.106-.628.02-.615.011-.044.134-.535.008-.014.008-.016.25-.491.375-.442.005-.004M997.714 773.248l.106.628-.02.615-.146.58-.267.52M992.52 770.724l.548-.239.604-.121.638.002.646.124M995.992 776.618l1.751-.544M996.176 771.082l.526.446.443.523M1009.08 763.786l-.17.615-.07.116-.23.443-.4.477v.005l-.5.386-.58.276-.62.152-.01.003-.13.006-.06.002-.34.014-.13.006-.66-.1-.65-.225-.6-.339-.53-.442-.44-.528-.33-.593-.04-.115-.07-.215-.03-.069-.08-.237-.01-.09-.08-.563.05-.646.17-.615.29-.559.4-.482.01-.005.49-.382.58-.276M1006.27 759.722l.64.224.6.34.53.442.44.529.33.593.22.636M1005.84 766.286l.69.023M1020.37 753.51l-.41.501-.01.006-.51.412-.59.3-.65.177-.67.047-.67-.085-.65-.212-.61-.333-.53-.441-.44-.531-.33-.601-.21-.647-.08-.671.05-.666.19-.637.3-.584.42-.507.01-.005M1016.07 748.327l.65-.177.67-.048.67.085.65.212.61.334.53.44.44.531.33.601.21.648.08.671-.05.666-.18.637M1028.11 742.828l-.6-.33-.54-.439-.44-.532-.33-.604-.21-.653-.08-.677.05-.674.18-.646.31-.593.41-.517.01-.004.51-.417.58-.309.65-.186.67-.055.67.078.65.208.6.331.53.439.44.532.33.604.21.653.09.676-.05.674-.19.646-.3.593-.41.511-.01.006-.51.421-.59.31-.64.186-.67.055-.67-.078-.65-.209ZM1043.49 730.212l-.01.006-.49.415-.57.305-.63.18-.65.051-.67-.081-.64-.211-.59-.331-.53-.44-.45-.531-.33-.602-.22-.65-.09-.672.04-.669.16-.641.29-.587.4-.511v-.004M1039 724.828l.58-.304.62-.18.66-.05.66.081.64.211.6.331.53.44.44.531.33.601.22.649.09.672-.03.669-.17.641-.29.587M1055.25 716.966l-.14.621-.07.174-.18.392-.37.49-.46.394-.54.284-.6.163-.63.034-.64-.094-.62-.22-.59-.337-.53-.441-.44-.528-.35-.594-.23-.639-.11-.658.01-.652.14-.621.26-.566.37-.489.46-.394.54-.283.59-.162.3-.016.34-.018.64.095.62.22.59.336.52.441.44.527.35.594.23.638.12.658-.02.651Zm0 0-.22 1.261M1065.03 706.814l-.22.531-.32.454-.09.081-.32.277-.5.25-.55.132-.6.007-.61-.116-.6-.235-.57-.346-.52-.443-.45-.523-.36-.583-.25-.621-.14-.634-.02-.623.1-.588.21-.531.32-.453.41-.352.01-.006.5-.249.55-.13.6-.007.6.116.61.236.57.346.52.442.44.522.36.583.25.619.14.633.02.623-.09.588Zm0 0-.76 1.987M1073.43 697.637l-.26.404-.36.31-.37.174-.07.03-.5.089-.55-.029-.57-.146-.57-.257-.56-.359-.51-.446-.45-.516-.37-.567-.28-.596-.18-.601-.06-.584.05-.544.16-.483.04-.058.22-.346.36-.309.44-.202.5-.088.55.03.57.146.58.257.55.358.51.446.45.515.37.566.28.595.17.6.07.584-.05.543-.16.484Zm0 0-1.23 2.62M1080.46 689.328l-.2.345-.29.25-.37.147-.45.037-.43-.065-.06-.009-.53-.183-.54-.283-.53-.374-.5-.45-.46-.508-.39-.547-.31-.566-.21-.561-.1-.463v-.001l-.02-.06v-.012l-.01-.49.1-.424.2-.344.02-.017v-.005l.27-.227.18-.072.01-.001.18-.073.45-.035.49.074.53.183.54.283.53.374.5.449.45.507.39.546.31.564.22.561.11.535.01.49-.09.425Zm0 0-1.57 3.004M1075.64 684.519l-.28.115-.01.002M1088.9 678.049l-.14.108-.21.01h-.01l-.31-.087-.37-.182-.22-.138-.14-.086-.07-.045-.03-.022-.43-.325-.49-.411-.23-.223-.25-.235-.47-.489-.42-.501-.38-.493-.31-.465-.03-.066-.16-.286-.04-.07-.14-.36-.05-.286.05-.199.14-.107.23-.009.3.088.38.183.43.269.46.347.48.41.48.457.09.092.38.396.17.2.25.299.38.492.11.165.2.3.23.422.13.348.01.012.03.192.02.094-.05.201Zm0 0-2 3.607"/><path d="m1084.19 673.092-.33.17-.34.169-.11.06-.46.232M1090.25 675.103l-.06.03-.15-.064-.24-.155-.31-.241-.13-.111-.24-.206-.42-.381-.46-.431-.47-.463-.47-.479-.45-.475-.41-.453-.36-.414-.29-.359-.21-.289-.12-.21-.03-.121.06-.029.15.065.23.156.31.241.38.317.42.381.45.43.48.462.46.477.45.474.41.453.36.413v.004l.29.355.21.29.12.211.04.122Zm0 0-1.35 2.447"/><path d="m1085.43 670.281-.76.405-.87.465"/><path d="M1089.59 674.125v-.01l-.07-.139-.16-.224-.25-.3-.32-.366-.39-.416-.43-.451-.46-.468-.47-.468-.47-.449-.45-.413-.4-.362-.35-.295-.28-.218-.2-.133-.11-.042-.68.374M723.739 335.326l-8.725-4.885-5.626-3.15-8.882-4.596-8.881-4.595-8.882-4.596-4.389-2.271-8.913-4.533-8.914-4.533-8.914-4.533-4.484-2.281-9.161-4.011-9.16-4.011-9.161-4.01-5.3-2.321-9.572-2.896-9.571-2.896-9.572-2.896-9.571-2.896-9.572-2.896-9.571-2.895-9.572-2.896-3.569-1.08 2.867 9.58 2.867 9.58 2.867 9.581 2.867 9.58 2.866 9.58 2.867 9.58 2.867 9.581.628 2.098.371 1.168 3.995 9.168 3.995 9.167 3.995 9.167 2.279 5.229 4.521 8.919 4.522 8.92 4.521 8.919 2.255 4.446 4.584 8.888 4.584 8.887 4.585 8.887 2.254 4.369 4.875 8.731 3.24 5.8M1078.83 664.141l-.03 1.681-2.55 4.183-5.05 6.569-6.44 7.644-.23.272-.01.005-.68.81-.29.331-.01.007-.06.066-2.79 3.136-.01.007-3.06 3.433-.01.008-.92 1.04-.01.008-1.96 2.198-.3.336-1.96 2.115-.01.008-3.44 3.717-.01.009-.54.582-.01.009-3.2 3.458-1.89 2.039-.01.009-.05.047-4.09 4.28-.01.01-.06.065-.01.01-4.07 4.261-1.56 1.627-.01.009-2.54 2.663-1.89 1.924-.01.009-.43.439-4.3 4.377-1.16 1.178-.01.01-4.6 4.684-.01.01-.67.684-.27.258-4.35 4.319-.71.697v.01l-4.63 4.584-.01.009-1.36 1.355-1.93 1.908-2.44 2.353-.22.212-.01.01-4.496 4.336-5.699 5.497-.004.004-.321.3-4.051 3.787-5.145 4.81-.82.767-1.592 1.488-1.932 1.737-4.074 3.662-1.177 1.058-3.326 2.99-.174.148-2.257 1.919-.472.401-5.767 4.903-6.505 5.024-4.117 2.518-1.613-.04"/><path d="m947.809 794.65-.598 1.672 1.635.048 4.185-2.556 6.618-5.11 6.54-5.558.677-.576 1.609-1.368.859-.772 3.311-2.975 1.203-1.082 4.182-3.759 1.148-1.032 2.293-2.143.821-.768 5.186-4.848 3.855-3.604.168-.162.317-.305 5.718-5.516 4.494-4.337.01-.009.22-.212 2.18-2.099 2.16-2.146 1.37-1.359.01-.01 4.64-4.599.01-.01.72-.712 4.31-4.272.28-.279.67-.679.01-.01 4.62-4.7.01-.01 1.17-1.194 4.26-4.337.44-.447.01-.01 2.14-2.178 2.31-2.421.01-.009 1.56-1.627 4.07-4.261.01-.01.05-.049.01-.01 4.13-4.326.01-.009.43-.445 1.47-1.588 3.23-3.49.01-.009.54-.583.01-.008 3.4-3.67.01-.008 2.24-2.424.41-.435 1.64-1.844.01-.008.94-1.052v-.008l2.95-3.311.01-.008 2.71-3.037.28-.312v-.006l1.05-1.177.06-.072.01-.007 3.3-3.917.01-.008.53-.634v-.003l3.59-4.248 5.12-6.683 2.6-4.252.02-1.703-1.68.575M740.757 345.313l-1.984-.419-4.099 1.746-6.087 3.879-7.861 5.888-.026.021-.005.004-1.266 1.042-.006.004-.828.682-2.44 2.007-.006.006-2.324 1.912-.007.006-.953.784-.007.005-1.472 1.212-.76.667-2.04 1.794-.007.006-3.264 2.869-.008.007-.32.281-.007.007-2.367 2.081-1.678 1.475-.252.233-.007.007-4.547 4.213-.009.008-3.576 3.315-.008.006-2.738 2.537-3.003 2.916-.009.008-2.623 2.547-.008.007-5.718 5.55-.807.819-.008.008-2.215 2.249-.009.008-6.114 6.205-.007.008-1.949 1.978-.951 1.011-.008.008-4.905 5.214-3.685 3.918-.006.007-.84.892-2.825 3.167-3.898 4.369-.574.643-1.951 2.188-.4.478-3.32 3.977-.956 1.145-1.899 2.275-1.155 1.384-.728.958-.633.834-4.55 5.993-3.877 6.015-1.718 4.033.473 1.924"/><path d="m628.922 456.333 1.164 1.73.348.516M796.61 383.397l-7.271-5.331-8.292-5.591-5.74-3.87-8.291-5.59-8.292-5.59-8.003-5.396-.461-.31-.768-.518"/><path d="m742.513 346.494.398-.782.192-2.648-2.052-.45-4.257 1.805-6.33 4.029-6.094 4.561v.001l-.191.143-.003.003-1.353 1.011-.005.005-.538.403-1.691 1.391-.006.004-1.315 1.083-.006.004-1.093.899-2.389 1.966-.007.005-2.253 1.854-.007.006-.924.76-.008.006-.03.025-2.119 1.861-2.07 1.82-.005.006-3.521 3.094-.008.007-.195.171-.008.007-1.996 1.755-.97.852-1.081 1.001-.006.006-4.914 4.554-.01.008-3.073 2.849-.008.007-2.516 2.331-3.96 3.843-.008.009-1.652 1.603-.007.007-6.218 6.035-1.451 1.473-.008.007-.937.95-.008.009-7.018 7.123-.094.095-.008.007-2.06 2.091-.117.126-.01.009-5.441 5.786-3.359 3.57-1.907 2.029-2.025 2.269-3.781 4.24-.524.587-2.441 2.736-.867.972-2.551 3.055-.961 1.152-1.7 2.039-2.259 2.706-.58.694-.48.634-5.671 7.471-4.027 6.257-.681 1.606-.011.024-1.084 2.558.505 1.99 2.729-.247.71-.359"/><path d="m743.102 343.064-2.244-1.733-2.056-.458-2.944 1.238-1.307.549-5.909 3.744-.406.257-.895.669-.003.002-1.618 1.207-.004.004-.637.475-.005.004-1.78 1.329-.005.004-.473.352-.005.004-2.641 1.972-.005.004-.086.064-1.343 1.103-.007.005-1.28 1.051-.007.006-.976.802-.006.004-2.425 1.992-.006.004-3.645 2.993-.847.744-.009.008-1.732 1.52-.005.004-7.515 6.598-.74.649-7.338 6.794-4.222 3.91-7.177 6.964-4.616 4.478-7.018 7.124-4.511 4.579-6.849 7.286-3.934 4.185-6.652 7.466-2.906 3.26-.031.035-2.275 2.731-.14.168-.511.613-.001.001-2.308 2.771-2.028 2.434-.744.892-.032.043-1.211 1.6-.685.904-1.912 2.527-.206.272-1.188 1.57-.586.773-.295.39-.033.053-.035.054-3.932 6.134-.471 1.12-1.287 3.062.513 1.994 1.734 2.248M1078.83 664.14l-.5-.61-1.7-2.076M1070.99 654.559l-.64-.779-.08-.097-.06-.072-6.33-7.739-6.34-7.738-6.33-7.739-6.33-7.738-3.38-4.13-6.5-7.6-6.5-7.6-6.5-7.6-6.5-7.6-6.5-7.601-5.35-6.256-6.676-7.444-6.677-7.443-6.678-7.444-6.677-7.444-6.678-7.444-5.431-6.055-6.852-7.283-6.853-7.283-6.852-7.284-6.852-7.283-6.852-7.284-5.531-5.878-7.47-6.648-7.471-6.648-7.47-6.648-7.471-6.647-7.47-6.648-6.088-5.417-7.696-6.385-7.696-6.385-4.563-3.787-7.696-6.385-7.696-6.385-7.696-6.385-1.832-1.52-4.238-3.107M635.273 465.766l.639.949 5.585 8.295 5.585 8.295 5.132 7.623 5.585 8.295 3.877 5.759 5.91 8.067 5.909 8.067 5.91 8.067 5.909 8.067 5.91 8.067 5.234 7.146 6.383 7.697 6.383 7.698 6.383 7.698 1.565 1.886 6.383 7.698 6.383 7.697 3.823 4.611 6.646 7.471 6.647 7.472 6.646 7.471 6.647 7.472 6.646 7.472 5.514 6.197 7.284 6.852 7.284 6.852 7.284 6.851 7.284 6.852 7.284 6.851 5.993 5.638 7.445 6.677 7.445 6.676 7.444 6.677 7.445 6.676 7.445 6.676 6.167 5.531 7.602 6.497 7.601 6.498 7.602 6.497 7.601 6.498 7.602 6.497 6.362 5.438 7.74 6.331 7.74 6.332 7.741 6.331 7.74 6.332 4.226 3.457.454.371M1095.49 885.585l1.48.369 2.86-1.086 4.15-2.514 4.04-2.947 1.25-.911 6.22-5.057 6.91-6.062 7.32-6.826 7.13-7.011.31-.302 6.95-7.191.3-.314 6.77-7.39 5.84-6.771M947.211 796.322l6.939 4.177.244.147M1127.65 904.278l8.64 5.026 3.99 2.318 1.23.35 2.26-.739 3.2-1.807 4.03-2.814 1.71-1.345 3-2.369 5.19-4.472 5.48-5.053 2.05-2.015 3.48-3.418 3.54-3.678 1.84-1.917 5.01-5.533 4.44-5.25 2.45-3.168 1.23-1.591 2.8-4.082 1.81-3.25.75-2.297-.33-1.263-5.03-8.641-2.35-4.028"/><path d="m1111.3 898.465 8.73 4.876 3.09 1.725 1.4.395.4-.137 2.24-.765.49-.281 3.28-1.896 4.77-3.377 5.59-4.451 6.18-5.353 6.52-6.045 6.62-6.492 6.43-6.678 5.99-6.594 5.31-6.244 4.42-5.646 3.36-4.828 1.95-3.432.14-.24M1093.65 884.474l-.79 1.791.05 1.93 8.73 4.876 3.35 1.873.86.482"/><path d="m1092.91 888.194 1.57.406 3.05-1.152 4.44-2.683 5.65-4.125.71-.577 5.95-4.835 7.4-6.491 7.32-6.818.53-.494 6-5.901v-.005l1.3-1.272v-.005l.67-.653 4.34-4.498.01-.006.74-.77.01-.005 2.67-2.762 6.75-7.373.5-.544 5.2-6.037M1152.71 905.268l8.22 5.696 4.18 2.895.77.212 1.37-.434 1.93-1.064 2.41-1.657 2.79-2.187 3.08-2.632 3.23-2.974 3.27-3.201 3.17-3.301 2.94-3.27 2.61-3.112 2.17-2.831 1.65-2.44 1.07-1.957.44-1.4-.2-.79-5.7-8.217-2.92-4.209M969.449 807.943l-.057 1.732-.33 9.994-.33 9.995-.33 9.995-.33 9.995-.174 5.281-.33 9.995-.33 9.993-.33 9.996-.33 9.993-.33 9.995-.33 9.994-.33 9.995-.33 9.995-.102 3.105 7.563 6.541 7.564 6.542 7.563 6.542 7.564 6.543 7.56 6.54 7.57 6.542 7.56 6.543 7.56 6.542 6.47 5.589 7.89 6.14 7.53 5.86 7.89 6.15 7.52 5.85 7.89 6.14 7.51 5.84 7.89 6.14 7.49 5.83 3.56-1.26 6.53-7.57 1.17-1.36-3.9-9.21-3.89-9.2-3.27-7.72-3.48-9.376-3.47-9.376-3.11-8.384-3.74-9.275-3.74-9.274-3.15-7.802-1.21-9.925-1.22-9.926-1.22-9.926-.46-3.733 4.15-9.1 4.14-9.101 3.22-7.076 3.96-8.687 2.7-5.928.81-1.765-8.46-5.341-8.45-5.343-8.46-5.342-8.45-5.341-1.09-.688-8.45-5.341-8.46-5.341-8.61-5.442-3.86-2.444-8.46-5.341-8.45-5.343-8.455-5.341-8.454-5.342-8.453-5.341-8.454-5.341-.582-.369-3.073 2.088Z"/><path d="m972.522 805.855-.183 5.594-.326 9.995-.326 9.996-.327 9.993-.326 9.995-.051 1.575-.327 9.994-.326 9.995-.326 9.995-.327 9.995-.326 9.995-.326 9.994-.327 9.995-.326 9.995-.11 3.383"/><path d="m965.156 937.996 3.106-1.652 7.563 6.542 7.563 6.543 7.563 6.542 7.563 6.542 7.566 6.542 7.56 6.542 7.56 6.542 7.57 6.542 6.7 5.799 7.89 6.14 7.59 5.91 7.89 6.14 7.57 5.89 7.89 6.14 7.56 5.89 7.89 6.14 7.55 5.88M1193.71 778.884l9.96.926 9.95.926 10.15.943 9.29 3.691 9.29 3.692 5.4 2.144 9.4 3.41 9.4 3.41 5.65 2.048 9.22 3.862 9.23 3.862 5.04 2.112 4.07-2.002 6.53-7.572.41-.477-6.2-7.839-5.5-6.933-6.2-7.839-5.49-6.921-6.21-7.839-5.47-6.911-6.21-7.839-5.46-6.9-6.58-7.533-6.58-7.533-6.57-7.534-6.58-7.533-6.58-7.534-6.57-7.533-6.58-7.533-6.57-7.534-2.96-3.388-9.99.54-9.98.539-9.99.54-9.98.539-9.99.54-9.98.539-9.99.54-4.14.223-9.99.54-9.98.539-9.99.54-8.15.44"/><path d="m1183.26 784.882 8.67-4.98 1.78-1.019 3.71-2.13 9.95.929 9.96.928 9.96.928.32.031 9.29 3.693 9.3 3.694 5.47 2.176 9.4 3.412 9.4 3.412 5.73 2.078 9.22 3.864 9.22 3.865 5.12 2.144M937.867 786.52l-.936 1.663-.005.152.087.239.176.317.012.018M938.322 786.891l-.79 1.424-.33.594-.542.974.016.021.108.112.196.199.276.279.345.348.402.404.442.444.467.467.472.472.461.459.431.429.385.382.323.321.251.246.167.163.078.074 1.101-.624"/><path d="m936.66 789.883.077.073.166.162.25.246.324.32.385.382.432.43.461.46.474.474.468.468.443.444.402.405.346.348.275.279.195.199.107.111.015.019M939.993 786.654l-.17.317-.02.037-.407.759-.743 1.387-.235.439.03.193.124.274.214.346.295.403.366.445.421.471.462.478.35.339.133.128.488.438.472.393.439.331.371.246.019.012.324.174.247.085.161-.01 2.406-1.383 1.393-.801"/><path d="m938.418 789.594.066-.104.159-.011.246.083.324.175.39.256.439.333.474.391.488.439.485.469.462.479.423.472.027.033.339.413.295.405.181.292.033.052.123.274.029.192-.067.102M947.133 792.155l.092-.139-.02-.141M1023.91 710.35l.41-.524.01-.006.51-.433.59-.321.65-.197.28-.027.17-.016.22-.021.67.07.65.203.61.327.53.438.44.533.33.608.21.658.08.684-.05.684-.18.657-.31.605-.42.53-.01.005-.5.429"/><path d="m1029.3 716.173.57-.715.41-.818.25-.887.07-.924-.11-.924-.28-.889-.45-.821M1027.56 715.753l-.67.065M1023.37 712.295l.03-.448.01-.158.01-.078M1017.59 722.748l.33.61.2.662.07.69-.07.689-.2.664-.32.612-.44.536v.005l-.53.436-.61.328-.65.203-.69.069-.69-.066-.66-.2-.61-.325-.53-.438-.44-.535-.33-.61-.2-.663-.07-.689.07-.69.06-.191.06-.202.08-.27.32-.612.43-.531.01-.006.53-.44.61-.328.32-.101.21-.064.13-.038.68-.069.69.066.66.2.61.325.53.438.44.535Z"/><path d="m1017.7 728.025.01-.005.59-.725.44-.826.26-.897.09-.931-.09-.931-.27-.895-.45-.824M1005.2 735.169l.33.608.2.658.07.683-.07.683-.2.655-.32.602-.44.527v.005l-.53.426-.61.319-.66.194-.69.062-.68-.072-.66-.204-.61-.328-.537-.439-.439-.534-.326-.607-.201-.658-.069-.683.058-.592.009-.09.027-.091.172-.564.325-.603.432-.521.005-.006.534-.431.61-.319.46-.137.2-.058.68-.062.69.072.66.205.61.328.54.439.43.533ZM1005.88 739.836v-.005l.59-.712.44-.814.27-.884.09-.922-.09-.923-.27-.889-.44-.821M987.574 746.531l.005-.006.518-.406.593-.294.647-.172.534-.034.141-.009.011.001.666.087.654.216.604.335.532.441.44.531.33.599.208.646.078.667-.056.662-.187.632-.31.577-.422.501-.006.005M990.48 752.397l-.354.022-.677-.089-.653-.215-.604-.335-.532-.441-.44-.53-.329-.6-.1-.309-.023-.069-.085-.267-.049-.419-.016-.135-.013-.112M992.039 751.911l-.594.294M986.844 747.604l.31-.578M994.215 751.215l.005-.004.571-.677.42-.781.252-.854.075-.894-.104-.901-.281-.872M975.126 759.199l.159-.595.014-.026.008-.016.259-.496.387-.456.004-.005.487-.365.563-.256.619-.136.65-.012.657.113.185.068.116.042.337.124.595.346.528.444.442.526.338.586.221.626.096.64-.032.629-.16.596-.281.538-.392.46-.005.004-.301.225-.013.01-.168.126-.564.255-.619.136-.65.011-.656-.114-.637-.234-.594-.345-.527-.444-.442-.525-.314-.545-.024-.041-.025-.073-.196-.552-.097-.639.032-.63Zm0 0 .003-.038M979.875 763.195l.035-.011M983.109 761.782l.005-.004.53-.622.38-.727.217-.804.044-.851-.13-.865M964.733 768.366l.237-.486.342-.402.004-.004.011-.008.009-.006.421-.298.52-.204.578-.089.614.029.627.146.615.258.58.361.05.043.098.084.374.321.445.518.35.57.241.598.124.605.002.586-.121.547-.225.457-.004.008-.01.02-.347.406-.004.004-.437.307-.52.203-.578.089-.614-.03-.626-.147-.614-.258-.579-.36-.482-.414-.04-.034-.052-.06-.392-.458-.349-.568-.242-.598-.124-.603-.002-.587.12-.546Zm0 0 .006-.022M969.824 772.737l.007-.004M972.922 771.191l.004-.003.47-.549.322-.656.164-.739-.002-.793M955.518 776.579l.183-.423.244-.288.041-.049.003-.004.213-.135.17-.111.431-.131.008-.003.025-.008.201-.012.325-.019.568.078.589.186.586.288.561.376.515.453.448.51.124.187.09.136.151.226.266.566.159.562.046.533-.017.113-.001.007-.053.368-.184.422-.289.34-.005.003-.379.242-.464.141-.526.032-.568-.079-.588-.187-.255-.126-.151-.074-.179-.087-.56-.378-.513-.45-.448-.511-.364-.546-.267-.566-.16-.559-.045-.534.069-.489Zm0 0 .035-.092M960.535 780.992l.014-.007M963.984 779.142l.004-.003.392-.46.249-.571M948.05 782.645l.219-.264.002-.003.315-.173.398-.072.464.032.224.059.29.076.062.026.472.202.01.004.004.002.136.079.412.239.539.397.505.457.453.501.382.525.075.133.007.012.215.383.201.512.093.462.003.014-.009.326-.003.095-.119.35-.222.266-.004.002-.312.169-.049.009-.308.054-.041.008-.465-.033-.513-.135-.543-.233-.551-.32-.538-.396-.283-.256-.047-.043-.174-.157-.452-.5-.014-.019-.016-.023-.352-.482-.297-.527-.201-.511-.008-.045-.002-.005-.086-.426.01-.421.118-.35Zm0 0 .003-.006"/><path d="m953.176 787.285 3.284-1.827.114-.064.004-.002M942.237 787.159l.145-.185.001-.002.24-.093h.013l.244.003.067.001.397.102.453.195.493.281.514.355.515.418.26.243.235.22.458.49.401.499.331.488.246.459.153.412.054.348-.047.273-.147.185-.003.001-.056.022-.182.069-.325-.005-.397-.102-.397-.172-.056-.024-.493-.281-.296-.206-.216-.149-.514-.417-.494-.462-.264-.282-.193-.207-.228-.284-.033-.041-.14-.173-.33-.487-.246-.458-.154-.412-.055-.349.046-.273Zm0 0 .004-.007M947.262 791.851l3.525-2.016M951.102 788.673l-.206-.558-.334-.621M1073.38 665.901l-.23.188-.31.086-.38-.018-.45-.121-.48-.221-.51-.311-.51-.391-.5-.453-.46-.5-.14-.192-.01-.003-.25-.332-.34-.533-.25-.52-.17-.485-.06-.433.03-.364.11-.223.03-.057.23-.186.31-.086.35.018.03.001.45.123.48.221.34.208.01.003v.002l.16.098.51.389.49.453.46.499.41.525.33.533.26.518.03.089.13.397.07.433-.04.364-.13.281Zm0 0-.65 1.167-.36.631-.96 1.728M1068.72 660.832l-.36.174v.003l-.76.367-.01.002-2.48 1.195M1068.21 668.896l.69.419.64.292.02.006.23.064.37.1.52.023.42-.118.31-.255"/><path d="m944.838 791.008-.513-.417-.494-.462-.292-.312-.165-.177-.255-.316-.012-.016-.134-.166-.33-.487-.247-.458-.154-.412-.054-.349.046-.273.008-.01.138-.177.003-.001.236-.092h.021l.245.004h.058l.242.062.155.04.454.195.492.281.515.356.514.417.26.243.235.22.458.49.401.499.331.488.247.459.153.412.053.348-.047.273-.146.183-.002.003-.053.02-.187.071-.325-.005-.396-.102-.371-.161-.082-.035-.493-.281-.297-.206-.216-.149ZM947.258 791.855l3.529-2.019M953.172 787.286l-.002.003-.316.171-.046.008-.309.055-.043.008-.465-.033-.513-.136-.543-.232-.551-.32-.538-.396-.244-.221-.025-.023-.235-.213-.452-.499-.038-.052-.016-.023-.328-.449-.297-.527-.2-.512-.01-.046-.001-.003-.086-.426.01-.421.118-.351.009-.01.212-.256.004-.002.091-.05M950.637 782.616l.414.24.539.397.505.457.453.501.382.525.068.12.007.013M953.227 785.265l.201.512.094.464M953.525 786.252l-.009.329M953.172 787.289l3.402-1.893M948.977 782.138l.465.032"/><path d="m949.641 779.125-1.14 2.515-.207.457-.251.551M949.715 782.241l.239.063.033.014.511.218M961.386 779.991l-.183.422-.287.337-.003.004-.362.231-.022.014-.464.141-.526.031-.567-.079-.588-.187-.254-.125-.151-.074-.18-.088-.56-.377-.514-.452-.447-.509-.365-.548-.267-.565-.159-.56-.046-.534.07-.488.042-.098.14-.324.249-.294.04-.047.004-.003.22-.141.159-.102.439-.135.008-.002.017-.005.192-.012M957.922 775.48l.588.187.586.287.561.377.515.453.448.51.125.188.09.136.15.226.267.565.159.56M963.461 779.479l.52-.332.003-.004"/><path d="m956.683 773.516-.838 2.197-.089.232-.244.641M960.527 781l2.934-1.521M970.262 772.43l-.004.005-.426.298-.016.012-.52.203-.578.088-.614-.028-.626-.148-.614-.258-.579-.36-.481-.413-.04-.035-.052-.06-.392-.458-.35-.568-.241-.598-.125-.602-.002-.588.12-.545.015-.031.222-.456.346-.406.005-.003M970.598 769.207l.241.598.124.604.002.587M972.32 771.616l.598-.42.004-.005M965.439 765.711l-.716 2.663M969.816 772.745l2.504-1.129M966.844 766.877l.614.029.627.146.615.258M980.923 762.578l-.005.005-.294.22-.012.01-.181.135-.519.235-.045.02-.618.136-.65.011-.657-.113-.637-.235-.594-.345-.527-.444-.441-.525-.314-.544-.024-.042-.026-.072-.196-.553-.097-.639.032-.629.013-.048.147-.548.022-.042.008-.016.25-.48.391-.461.006-.004M976.438 757.25l.563-.256.619-.136.651-.012.656.113.185.068.117.043.336.123.594.346.529.444.442.526.337.587.221.625.097.64-.032.63M981.59 761.585l-.281.538M975.267 757.229l-.15 1.98M981.684 762.625l.762-.345.659-.492.004-.006M979.867 763.203l1.816-.578M986.555 749.471l.326.749.33.6.439.53.532.441.604.335.653.215.677.089.808.025"/><path d="m986.88 750.219-.042-.131-.08-.247-.023-.07-.063-.197-.049-.418-.016-.135-.013-.113.055-.662.187-.632.31-.577.422-.502.005-.004.512-.402.594-.294.647-.172.534-.034.141-.009.012.002.665.086.653.216.605.335.532.441.44.531.33.599.208.646.077.667-.055.662-.187.632-.311.577-.417.496-.005.006-.518.405-.594.294-.646.172-.202.012-.059.004-.303.019-.111.007M990.922 752.454l.912-.057.873-.231.802-.398.7-.547.005-.006M1000.93 740.325l-.61-.327-.535-.44-.439-.533-.326-.608-.201-.657-.069-.684.058-.591.009-.091.027-.089.172-.566.325-.602.437-.527.006-.005.526-.427.61-.319.46-.137.2-.057.69-.062.68.072.66.204.61.328.54.439.44.534.32.608.2.658.07.683-.06.682-.2.655-.33.603-.43.521v.006l-.54.431-.61.319-.66.194-.68.062-.69-.072-.66-.205ZM1002.51 741.201l.93-.084.89-.262.82-.431.72-.582v-.006M1017.59 726.684l-.43.531-.01.006-.53.441-.6.328-.66.203-.69.069-.69-.066-.66-.2-.61-.325-.53-.438-.44-.535-.32-.61-.21-.663-.07-.689.07-.69.06-.191.06-.202.08-.27.32-.612.44-.537v-.005l.53-.435M1018.11 724.03l.07.69-.07.689M1016.16 729.069l.82-.443.72-.595v-.006M1014.65 721.194l.69.066M1016.61 721.785l.53.438.44.535M1025.56 715.556l-.61-.327-.53-.438-.44-.534-.33-.608-.21-.659-.08-.685.03-.448.02-.158v-.078l.19-.657.3-.605.42-.529.01-.005.51-.429.59-.321.64-.196.28-.027.17-.016.22-.021.68.07.65.203.6.326.53.439.44.533.33.607.21.659.08.684-.05.684-.18.657-.31.605-.41.524-.01.006-.51.434-.59.321-.65.197-.67.065-.67-.071-.65-.202ZM1041.61 701.059l-.15.636-.07.143-.21.44-.38.506-.48.411-.56.3-.61.177-.65.048-.65-.084-.64-.213-.59-.332-.53-.44-.44-.53-.34-.601-.23-.647-.03-.261-.03-.137-.04-.271.03-.666.16-.636.27-.582.39-.506.48-.411.56-.299.61-.176.27-.02.38-.027.63.082.02.002.11.037.52.176.6.332.52.44.44.53.34.599.23.647.1.668-.03.665Zm0 0-.24 1.309M1038.13 696.882l-1.47-.157M1036.28 705.852l.88.113.88-.064M1044.94 694.123l.78.462.83.309.84.145.82-.026.77-.195.7-.357.58-.504M1051.83 690.526l-.23.545-.34.469-.08.071-.35.302-.51.263-.57.144-.61.019-.62-.107-.61-.229-.58-.342-.52-.443-.45-.525-.27-.446-.06-.11-.02-.031-.25-.628-.13-.644-.01-.635.12-.601.23-.545.34-.468.41-.351.02-.021.51-.263.57-.143.61-.018.62.107.61.23.48.279.1.063.01.007.51.434.45.525.35.586.25.627.12.643.01.635-.11.601Zm0 0-.8 2.061M1047.82 685.808l-2.2.404M1054.05 684.132l.75.48.79.34.79.187.75.027.7-.135.62-.291.5-.435.38-.564M1060.63 681.026l-.27.417-.38.321-.37.177-.08.038-.52.099-.56-.02-.58-.138-.58-.252-.56-.356-.39-.34-.11-.095-.02-.01-.45-.518-.36-.571-.28-.602-.16-.609-.05-.593.06-.555.17-.495.03-.041.25-.375.38-.32.45-.214.52-.098.56.021.58.139.58.252.56.355.51.445.44.508.01.009.08.123.29.447.27.6.16.609.06.593-.06.554-.18.495Zm0 0-1.3 2.715"/><path d="m1056.25 675.975-.97.323-.01.001-1.86.616M1061.65 675.459l.46.318.13.092.13.092.74.378.73.239.68.09.62-.061.52-.21.41-.351.28-.479M1068.01 672.457l-.21.354-.3.259-.39.154-.45.045-.44-.058-.07-.009-.54-.177-.01-.005-.19-.1-.34-.175-.54-.372-.5-.449-.46-.51-.38-.55-.31-.57-.14-.39v-.001l-.06-.176-.1-.507-.01-.036v-.498l.11-.433.21-.352.19-.159v-.006l.11-.093.39-.154.35-.034h.01l.1-.01.5.069.54.177.54.28.54.371.5.448.45.509.39.549.3.569.17.446.04.12.02.096.09.447v.497l-.11.434Zm0 0-1.66 3.11"/><path d="m1063.19 667.644-.12.053-.01.003-3.22 1.361M1076.94 660.907l-.14.109-.12.007-.12.006-.31-.086-.06-.03-.32-.15-.09-.055-.3-.188-.04-.025-.09-.067-.38-.279-.48-.41-.07-.062-.42-.397-.46-.489-.43-.502-.37-.494-.28-.424-.02-.043-.12-.227-.11-.196-.13-.362-.04-.288.05-.202.07-.056.08-.053.23-.011.31.087.38.181.43.268.47.346.48.409.49.458.18.196.28.292.42.5.38.493.19.293.11.174.23.422.13.363.02.095.02.193-.05.204Zm0 0-.31.548-1.81 3.179M1072.23 655.943l-.08.042-.32.171-.32.169-.12.059-.48.252-.19.101-.93.487-1.07.56M1073.34 664.426l.03.017.51.243.43.115.31-.018.2-.15M1078.41 657.948l-.06.029-.15-.065-.24-.157-.31-.242-.07-.056-.31-.262-.43-.382-.45-.431-.48-.463-.47-.479-.44-.474-.41-.453-.36-.413-.28-.358-.21-.289-.12-.208-.03-.121.06-.027.16.066.24.157.31.242.38.318.42.382.46.43.47.462.47.478.44.473.41.452.36.413.03.045.25.313.21.289.12.209.03.122Zm0 0-1.45 2.562M1073.59 653.123l-.02.011-1.72.949-.86.476-.32.173-.59.326"/><path d="m1077.8 657.014-.07-.132-.16-.228-.25-.304-.32-.368-.38-.418-.43-.453-.47-.468-.47-.468-.47-.448-.45-.411-.4-.358-.35-.292-.28-.215-.19-.128-.11-.038-2.2 1.241-.45.254M1070.8 653.526l-.25-.046-.18.043-.16.089M1104.99 894.943l-.3.527.02.099.07.146.12.188.16.222.2.248.05.057"/><path d="m1105.85 895.426-.29.538-.26.467-.19.351.04.047.09.098.13.142.18.183.21.216.24.241.25.256.27.262.26.258.24.244.23.22.2.188.16.149.11.104.07.054.01.004.63-.36"/><path d="m1105.11 896.781.02.003.06.055.12.103.16.149.19.188.23.22.25.244.26.258.26.262.26.257.24.241.21.216.17.183.14.143.08.097.04.047M1107.33 895.646l-.03.057-.21.415-.44.864v.091l.05.139.1.179.15.213.19.238.19.215.03.04.03.028.22.234.27.259.28.245.27.223v.001l.25.19.24.153.19.109.16.06.11.008.55-.326 1.37-.815.01-.005"/><path d="m1106.66 896.981.05-.042.11.008.16.06.2.108.23.153.26.191.27.223.1.094.17.152.27.258.25.262.23.256.05.056.14.183.15.213.1.179.05.138-.01.092-.06.042M1155.47 855.842l.16-.334.23-.293.27-.241.32-.179.34-.111.37-.039.36.035.35.108.33.176.29.238.24.29.18.332.11.36.05.375-.02.376-.1.361-.16.334-.22.293-.28.241-.32.18"/><path d="M1158.45 858.547v-.003l.3-.396.22-.451.13-.489.03-.507-.06-.508-.16-.487-.24-.448-.33-.393M1157.27 858.494l-.37-.035-.35-.108M1155.51 857.314l-.11-.361-.05-.375M1148.92 862.666l.18-.334.23-.293.29-.241.33-.179.35-.112.38-.038.37.035.36.107.33.177.29.238.23.29.18.332.11.361.04.375-.03.376-.11.362-.17.334-.24.293-.29.241-.33.179"/><path d="M1152.22 865.069v-.003l.32-.396.23-.452.15-.489.04-.508-.05-.507-.15-.488-.24-.448-.32-.393M1150.69 865.319l-.37-.035-.36-.108M1148.93 864.139l-.11-.361-.04-.375M1142.36 869.042l.23-.284.3-.233.33-.171.36-.104.37-.033.38.041.36.112.33.178.29.239.24.29.18.33.1.356.04.37-.04.37-.11.354-.18.326-.24.284-.29.233"/><path d="M1145.78 871.485v-.003l.32-.384.25-.44.14-.479.06-.499-.05-.501-.15-.482-.24-.445-.32-.392M1144.32 871.975l-.38.032-.37-.04M1142.07 870.462l-.04-.37.04-.37M1142.88 871.675l-.29-.239-.24-.289M1135.45 875.73l.18-.309.23-.268.29-.216.33-.155.35-.09.38-.019.37.051.35.12.33.183.29.24.24.288.18.325.11.348.04.36-.03.356-.11.339-.17.31-.24.267-.29.216-.29.139-.01.006-.03.01M1139.35 877.593v-.002l.32-.362.23-.418.15-.459.04-.482-.05-.485-.15-.472-.24-.438-.32-.39M1135.64 877.457l.24.288.29.241.33.183M1135.64 877.457l-.15-.277-.02-.036-.01-.011M1129.13 881.265l.22-.243.28-.192.31-.132.35-.067.36-.001.36.066.35.131.33.191.29.242.24.285.18.317.12.337.04.343-.02.337-.1.318-.16.286-.17.192-.01.004-.04.047-.28.191M1133.12 883.196l.01-.002.3-.328.22-.387.13-.429.03-.455-.06-.465-.16-.455-.25-.429M1128.85 882.205l.05.343.11.337.19.317.23.285.29.242.33.19.35.131.36.067.36-.001"/><path d="m1128.85 882.206.03-.338.02-.097M1122.93 886.644l.15-.255.07-.081.01-.005.12-.126.25-.16.3-.102.32-.04.35.023.35.086.34.145.32.199.28.245.24.282.19.308.13.321.06.323-.01.312-.08.29-.05.098-.01.004-.08.153-.2.212-.26.16-.29.102M1127.31 888.118v-.002l.27-.286.2-.346.1-.391.01-.423-.08-.436-.17-.435-.25-.416M1123.03 887.891l.19.307.24.282.28.245.32.199M1124.41 889.068l.35.086M1122.85 887.246l.06.323M1117.64 890.634l.18-.175.22-.123.1-.023v-.002l.17-.042.3-.007.33.052.33.109.33.162.31.209.28.249.24.277.2.296.13.304.08.299.01.224v.059l-.05.256-.11.22-.18.174v.002l-.22.121M1118.73 893.024l.33.162.33.11.33.052.3-.008"/><path d="m1120.51 893.151 1.56-.939.02-.008v-.001M1117.53 890.854l-.05.255.01.284.08.298.13.304M1122.09 892.203l.24-.237.15-.297.07-.346-.01-.383-.11-.405-.18-.41M1117.9 892.29l.24.277.28.248M1113.92 895.88l-.27-.251-.25-.273-.2-.283-.16-.283-.09-.272-.04-.25.02-.219.08-.18.14-.133.19-.082.24-.027.27.029.3.084.09.039v.003l.22.093.31.181.3.221.28.251.24.273.2.283.02.032.01.007.13.244.1.272.03.251-.02.219-.08.18-.14.133-.19.081-.24.027-.27-.03-.3-.083-.31-.135M1117.62 895.331l.19-.18.04-.08.07-.163.03-.296-.05-.339-.13-.368-.21-.383-.27-.383"/><path d="m1115.84 896.422 1.77-1.089v-.001l.01-.002M1110.57 897.99l-.2-.159-.27-.255-.25-.267-.21-.27-.17-.261-.12-.243-.07-.215-.01-.179.04-.137.1-.089.15-.037.04.003.16.012.24.068.26.118.29.163.29.201.29.233.27.255.25.268.22.27.17.261.12.243.07.215.01.18-.05.136-.1.088v.001l-.15.037-.2-.016-.24-.068-.19-.087-.07-.031-.29-.163-.29-.202M1114.03 897.409l.14-.12.06-.185-.01-.243-.09-.291-.17-.329-.23-.354-.29-.365-.33-.362M1112.09 898.593l1.94-1.184"/><path d="m1109.86 894.817-.03.051-.39.867-.13.27-.04.137.01.18.07.215.12.243.17.261.21.269.25.267.27.255.18.142.11.091.29.201.29.163.07.031.19.087.24.068.2.016.15-.037v-.001M1110.84 896.445l.29.233.27.255.25.267.21.27"/><path d="m1109.31 896.005.01-.003.09-.085.16-.038.03.003.16.013M1112.24 898.369l-.05.137-.1.087v.001M1113.68 892.125l-.75 1.926-.03.219.04.251.1.272.15.283.21.283.24.272.28.251.3.221.31.181.31.135.29.084.28.029.23-.027.19-.081 1.78-1.091M1115.95 895.37l.09.272"/><path d="m1112.93 894.051.01-.04.07-.14.14-.133.19-.081.23-.027M1116.06 896.111l-.09.18-.14.131v.002M1117.61 895.333v-.001M1115.06 894.279l.28.252.25.272M1118.05 889.1l-.52 1.757-.06.256.02.283.07.299.14.303.19.296.25.277.28.248.31.209.33.163.33.109.32.052.3-.007.27-.067.23-.123 1.57-.948"/><path d="m1117.53 890.857.01-.015.1-.205.18-.175.22-.123.1-.024.01-.002.16-.04.3-.008.32.052.34.109.32.162.31.21.29.248.24.277.19.296M1120.76 891.922l.08.299.01.221M1120.85 892.504l-.05.256-.12.22-.17.173v.001M1122.09 892.206v-.002M1123.09 885.495l-.24 1.443-.01.312.06.323.13.321.18.307.24.282.29.245.32.199.34.145.35.086.34.024.33-.04.29-.102 1.25-.704"/><path d="m1126.21 887.167.13.321.06.323-.01.313-.08.289-.05.095M1126.96 888.336l.35-.216v-.002M1123.82 885.919l.33-.04.34.023.35.086.34.145M1122.85 886.939l.01-.044.07-.246.14-.255.08-.086.01-.005.11-.121M1125.97 888.88l-.24.148-.02.012M1128.79 881.145l.06 1.066.04.343.12.337.18.316.24.285.29.243.32.19.35.131.37.066h.36l.34-.068.32-.131.97-.464M1132.51 882.204l.05.343-.03.337-.09.318"/><path d="m1128.84 882.21.01-.045.02-.292.03-.108v-.011l.06-.198.16-.286.23-.244M1132.75 883.458l.37-.259v-.003M1129.94 880.703l.34-.068h.36l.37.066.35.131M1132.06 883.731l-.27.184-.01.007M1131.69 881.022l.29.244.24.284M1135.38 877.053l.26.411.23.288.29.24.33.183.36.12.37.051.37-.019.44-.108M1138.79 875.562l.18.324.11.349.04.359-.04.356-.11.34-.17.309"/><path d="m1135.64 877.463-.08-.138-.1-.176v-.01l-.01-.015-.1-.334-.04-.359.03-.356.11-.34.17-.309.24-.268M1136.14 874.942l.33-.155.36-.089.37-.02.37.051.36.12.33.183M1138.03 878.219l.48-.12.45-.21.39-.292v-.003M1138.57 877.866l-.29.215-.28.134-.02.005-.02.01-.01.007-.36.089M1142.5 871.771l.44.241.49.151.51.055.5-.043.49-.141.45-.232.39-.314.01-.003"/><path d="m1145.83 870.507-.11.355-.18.325-.24.285-.29.232-.34.172-.36.104-.37.032-.38-.041-.36-.111-.33-.179-.29-.239-.24-.29-.17-.329-.11-.357-.04-.37.04-.369.11-.354.18-.326.24-.284.29-.233.33-.171.36-.104M1144.32 868.264l.36.111.34.179.29.239.23.29.18.329.11.357M1152.27 864.461l-.23.293-.29.241-.33.179-.36.112-.37.039-.37-.035-.36-.108-.33-.176-.29-.238-.24-.291-.17-.332-.11-.361-.04-.375.03-.376.11-.362.17-.334.24-.293.29-.241M1152.44 862.653l.11.361.04.375-.04.376M1149.41 865.65l.48.145.5.048.51-.053.48-.151.44-.243.39-.325v-.003M1150.3 861.513l.37-.039.37.036.36.107M1155.28 858.891l.44.238.47.146.5.047.49-.053.46-.15.43-.243.37-.326.01-.003M1158.78 857.635l-.22.293-.27.241-.32.18-.35.112-.36.039-.36-.036-.35-.107-.33-.177-.29-.237-.24-.291-.18-.332-.12-.361-.04-.375.02-.376.1-.361.16-.334.22-.293.28-.241M1158.9 855.829l.12.36M1159.04 856.94l-.09.361M1156.45 854.8l.34-.111M1157.52 854.686l.35.107M1158.2 854.969l.28.237.24.291M1160.86 852.097l.39.323.43.241.47.151.47.055.47-.044.44-.141.4-.231.35-.315.27-.385.19-.439"/><path d="m1165.01 850.606-.14.325-.06.084-.15.2-.25.233-.3.171-.32.104-.35.032-.35-.04-.34-.111-.32-.179-.29-.238-.24-.29-.19-.329-.12-.356-.06-.369.01-.369.07-.354.15-.325.2-.284.25-.232.3-.172.33-.103.34-.032.07.007.28.033.35.111.32.179.28.238.24.289.19.329.13.356.06.37-.01.368-.08.354Zm0 0-.27.707M1163.53 848.012l-.78-.206M1166.3 845.88l.38.324.42.248.45.161.45.068.43-.026.41-.121.37-.21.3-.292.24-.361M1170.32 844.56l-.17.268-.21.193-.02.022-.27.155-.3.09-.33.019-.33-.051-.33-.119-.31-.183-.28-.239-.25-.287-.19-.324-.14-.348-.08-.359-.01-.355.05-.338.12-.309.18-.267.22-.215.18-.102.09-.053.31-.089.32-.02.33.051.33.119.31.183.29.24.24.287.19.323.14.348.08.358.01.355-.05.339-.12.308Zm0 0-.57 1.111M1168.25 841.669l-1.3.093M1171.03 840.115l.38.328.4.255.43.177.42.089.4-.002.37-.092.32-.179.26-.258.19-.329M1174.99 838.728l-.15.243-.19.191-.24.132-.07.019-.2.049-.29.001-.32-.066-.31-.13-.3-.19-.28-.241-.24-.285-.21-.316-.15-.335-.1-.343-.04-.336.03-.316.08-.285.1-.172.04-.071.19-.191.24-.131.27-.068h.3l.31.066.31.13.3.189.28.242.25.284.2.315.16.336.09.342.04.336-.02.316-.08.285Zm0 0-.8 1.377M1172.85 835.887l-1.54.377M618.93 441.913l-.481.842.002.011.075.084.146.154.209.218.267.274.312.318.347.351.368.37.374.376.367.366.346.343.31.306.264.259.208.2.142.134.072.063.582-.32.022-.012"/><path d="m618.449 442.755.072.063.141.134.207.199.264.259.311.306.346.344.368.367.376.376.368.371.347.351.313.319.266.273.21.218.144.153.075.084.001.01M619.934 437.976l-.886 1.499-.743 1.257.009.149.082.216.153.275.216.325.164.217.108.143.318.383.35.391.37.384.12.116.255.246.367.326.343.277.307.219.26.151.198.077.003.002.136.002.171-.089"/><path d="m618.305 440.731.064-.075.135.001.201.078.259.151.308.218.081.066.263.212.367.327.376.362.281.292.05.052.04.041.35.391.318.384.272.361.216.324.152.276.082.215.009.148-.065.075M683.068 371.381l.254.471.156.508.052.526-.054.523-.159.5-.257.458-.345.398-.005.003-.416.32-.479.236-.52.139-.541.037-.54-.066-.519-.166-.478-.262-.419-.345-.343-.417-.255-.471-.156-.509-.052-.526.055-.523.159-.5.257-.458.342-.393.004-.005.421-.323.479-.235.52-.139.54-.037.54.066.519.167.478.261.419.345.343.417ZM673.259 380.733l.254.477.156.517.051.537-.056.536-.16.516-.258.474-.348.415-.004.004-.418.336-.481.252-.521.155-.542.05-.541-.055-.521-.159-.478-.257-.42-.344-.343-.419-.254-.476-.156-.517-.051-.537.056-.537.16-.515.259-.474.343-.411.004-.005.422-.34.481-.252.522-.154.541-.05.542.055.52.159.478.257.42.344.343.418ZM663.511 390.427l.257.478.161.519.058.54-.047.54-.15.52-.248.479-.336.42-.005.004-.407.34-.47.257-.512.158-.533.054-.534-.052-.515-.157-.475-.255-.418-.344-.345-.419-.257-.478-.161-.519-.058-.54.047-.54.15-.519.248-.479.332-.415.004-.005.411-.345.47-.256.512-.159.533-.054.535.053.515.157.475.255.418.343.345.419ZM649.377 401.087l.096-.378.009-.037.025-.098.225-.471.309-.407.004-.005.387-.337.448-.249.491-.151.515-.048.519.057.504.16.468.257.416.344.346.418.264.476.172.515.073.534-.03.534-.13.512-.225.471-.313.412-.005.004-.383.333-.448.249-.491.151-.514.048-.519-.058-.468-.149-.029-.009-.007-.002-.468-.257-.415-.344-.346-.417-.264-.476-.172-.515-.073-.534.029-.533Zm0 0 .013-.074M641.262 409.401l.275-.388.003-.004.007-.006.007-.006.339-.305.414-.23.459-.134.488-.032.496.069.487.169.458.263.411.345.349.415.274.469.188.505.094.522-.003.517-.1.494-.192.452-.278.391-.004.004-.349.312-.414.23-.227.066-.016.004-.217.063-.487.033-.496-.07-.486-.169-.458-.262-.411-.345-.349-.415-.273-.469-.188-.504-.094-.521.002-.518.099-.494.192-.451Zm0 0 .003-.005M643.727 413.619l.083.002M633.826 418.024l.231-.356.002-.004.308-.285.172-.093.005-.003.193-.104.42-.106.452-.009.467.089.464.183.444.271.406.347.353.412.286.459.208.489.122.5.031.492-.06.466-.15.42-.233.36-.004.003-.121.112-.007.007-.176.163-.371.199-.419.106-.452.008-.467-.089-.463-.183-.444-.271-.405-.347-.353-.411-.285-.458-.208-.489-.123-.499-.032-.492.06-.466.149-.421Zm0 0 .007-.012M636.848 422.142l.096-.019M627.83 425.381l.254-.243.319-.16.372-.07.051.003h.005l.353.02.433.114.438.202.427.282.4.35.356.406.301.446.232.468.155.473.072.459-.014.428-.046.175-.002.007-.051.198-.18.317-.003.003-.252.24-.319.159-.372.07-.409-.023-.432-.115-.437-.202-.427-.282-.399-.35-.356-.405-.3-.445-.232-.468-.156-.472-.072-.459.013-.427.098-.381.178-.314.002-.004Zm0 0 1.302-2.235M631.133 429.657l.021-.006M623.049 431.918l.194-.194.261-.112.318-.026.363.061.393.146.381.21.009.005.018.009.409.295.392.355.361.399.316.43.259.443.079.18.005.011.108.248.118.419.038.382-.042.331-.121.267-.002.002-.193.191-.261.111-.318.026-.362-.062-.393-.146-.408-.224-.408-.295-.391-.353-.361-.399-.316-.429-.259-.442-.192-.439-.118-.419-.039-.382.042-.332.118-.264.002-.003Zm0 0 1.549-2.585M626.453 436.081l.236-.096M619.845 437.082l.001-.001.129-.136.2-.057.26.024.312.104.351.181.376.25.389.31.384.358.366.392.333.412.288.414.232.402.166.373.094.331.007.105.012.171-.057.21-.002.001-.129.134-.042.012-.158.045-.261-.024-.311-.105-.351-.181-.376-.25-.224-.179-.089-.071-.075-.059-.283-.264-.1-.093-.366-.392-.332-.41-.288-.415-.231-.401-.135-.302-.032-.071-.095-.331-.019-.277.056-.207v-.003Zm0 0 1.689-2.811M623.559 441.061l.003-.001M722.98 341.4l-.167.163-.242.09-.306.012-.359-.066-.399-.141-.422-.211-.43-.272-.42-.324-.396-.363-.355-.388-.301-.398-.235-.392-.161-.372-.08-.337.005-.289.088-.231.168-.162.242-.089.307-.012.359.067.398.141.26.13.162.081.429.272.42.324.395.362.354.388.301.397.235.391.161.372.08.337v.02l-.004.269-.087.231ZM718.967 337.719l-2.713 1.601"/><path d="m623.732 440.541.013.178-.057.207v.002l-.126.131-.005.005-.037.011-.163.046-.261-.024-.311-.105-.351-.181-.376-.25-.218-.174-.095-.076-.075-.06-.26-.242-.123-.115-.366-.391-.332-.411-.288-.414-.232-.401-.134-.302-.032-.072-.095-.331-.019-.276.056-.21.002-.002.128-.135M620.434 436.916l.312.104.351.18.376.251.388.31.385.358.366.392.333.411M623.234 439.337l.231.402.166.373M623.555 441.065l.442-.208.109-.051M626.911 434.383l.117.419.039.382-.042.332-.12.263-.001.004-.195.192-.022.01-.24.101-.318.026-.362-.062-.393-.145-.407-.225-.408-.295-.392-.353-.36-.399-.316-.429-.259-.442-.192-.439-.118-.419-.039-.382.041-.331.12-.268.002-.002M623.238 431.73l.261-.112.318-.026.362.061.393.145.391.215.01.005.008.005.408.295.392.354.362.399.316.43M626.719 433.944l.074.169.005.011M624.597 429.33l-1.554 2.593M631.703 429.259l-.002.003-.255.243-.293.147-.026.013-.371.069-.41-.023-.432-.115-.437-.202-.427-.282-.399-.35-.356-.405-.3-.445-.232-.467-.155-.473-.073-.458.013-.428.099-.38.179-.318.003-.003M631.535 426.736l.232.468M629.17 423.076l-1.346 2.311M629.613 425.051l.438.202M630.477 425.534l.4.351.357.406M638.321 420.78l-.15.421-.231.355-.002.004-.117.109-.008.006-.183.17-.371.199-.317.08-.102.026-.452.009-.467-.09-.463-.183-.444-.27-.405-.348-.353-.41-.285-.459-.208-.488-.123-.5-.031-.492.059-.466.149-.42.013-.02.22-.34.004-.004.304-.282.177-.095.006-.003.187-.102M635.602 417.071l.467.089.464.183.444.271.406.348.353.411.286.459.208.489.122.5M634.809 416.188l-.989 1.845M646.007 411.061l-.003.518-.1.494-.192.451-.275.388-.003.004-.353.316-.414.23-.211.061-.016.005-.233.067-.397.027-.09.006-.496-.07-.486-.169-.458-.262-.411-.346-.349-.414-.273-.469-.188-.505-.094-.52.002-.518.099-.494.192-.451.01-.013.268-.379.004-.004.01-.009.007-.006.332-.298.414-.23.459-.134.488-.033M641.897 407.96l-.639 1.449M644.691 408.805l.411.346.349.415M651.079 404.172l-.469-.258-.415-.343-.346-.418-.264-.475-.172-.515-.073-.535.029-.533.021-.082.084-.333.01-.036.015-.061.226-.471.312-.412.004-.004.384-.333.447-.249.491-.152.515-.048.519.057.504.16.468.257.416.344.346.418.265.476.171.515.073.535-.029.533-.131.513-.225.471-.31.407-.003.004-.388.337-.448.249-.49.151-.515.048-.519-.057-.439-.14-.029-.009-.005-.002-.03-.009ZM649.491 400.416l-.12.679M663.202 393.928l-.004.004-.411.345-.47.256-.512.159-.533.053-.534-.052-.515-.157-.476-.255-.418-.343-.344-.419-.258-.478-.161-.519-.058-.54.047-.54.151-.52.248-.478.336-.42.004-.004M663.762 390.914l.161.519.058.54-.047.54-.151.519M660.172 389.421l.512-.158.533-.054.534.052.515.157M673.713 382.272l-.056.537-.16.515-.259.474-.343.411-.004.005-.422.34-.481.252-.522.154-.542.05-.541-.055-.52-.159-.479-.256-.419-.345-.344-.418-.254-.477-.156-.517-.051-.537.056-.536.16-.516.259-.474.347-.415.005-.004.417-.336.482-.252.521-.154.542-.051M672.012 379.724l.479.256.419.344.343.419.255.477M679.687 375.276l-.479-.262-.419-.345-.343-.417-.254-.471-.157-.509-.051-.526.055-.523.159-.5.257-.458.346-.398.004-.003.416-.32.48-.235.52-.139.54-.037.54.066.519.167.478.261.418.345.343.417.255.471.156.508.052.526-.055.523-.159.5-.257.458-.341.393-.004.005-.42.323-.48.236-.52.139-.54.037-.54-.066-.519-.166ZM693.018 363.641l.061.506-.003.028-.041.472-.147.474-.243.43-.331.369-.406.295-.466.208-.507.114-.529.015-.531-.084-.512-.18-.473-.269-.417-.347-.344-.413-.258-.463-.163-.495-.06-.506.045-.501.146-.474.244-.43.332-.368.386-.28.02-.014.466-.208.507-.114.529-.015.53.084.511.18.473.269.417.348.344.412.258.463.162.494ZM689.287 361.52l-1.068.352M702.05 356.781l-.124.438-.118.212-.1.18-.305.329-.38.255-.44.171-.483.079-.508-.014-.514-.109-.499-.198-.465-.279-.413-.351-.346-.408-.265-.451-.173-.474-.077-.481.025-.469.124-.439.219-.391.084-.091.222-.239.38-.254.44-.17.483-.079.508.015.513.109.498.198.464.279.413.351.346.408.265.449.173.475.077.48-.024.469ZM697.896 353.797l-1.646.796M710.134 350.465l-.183.345-.268.281-.163.098-.18.108-.403.124-.45.037-.479-.052-.489-.138-.48-.22-.453-.293-.408-.354-.349-.403-.274-.435-.191-.45-.098-.449-.004-.43.074-.319.018-.076.184-.344.269-.281.343-.206.404-.123.45-.036.478.052.488.139.48.22.452.292.408.354.348.402.274.434.19.45.099.449.005.43-.092.394ZM706.15 347.007l-2.025 1.117M717.252 345.062l-.139.29-.222.225-.296.151-.358.07-.282-.008-.126-.004-.442-.094-.458-.173-.457-.245-.438-.308-.402-.359-.352-.395-.286-.417-.212-.423-.109-.354-.018-.058-.038-.386.051-.344.14-.29.222-.224.296-.15.359-.07.408.012.441.095.458.174.456.245.437.307.402.358.351.395.287.416.211.422.127.412.04.386-.051.344ZM713.03 341.717l-2.46 1.429M727.386 339.058l-.107.099-.183.025-.247-.049-.005-.002-.248-.099-.052-.021-.351-.19-.245-.16-.138-.091-.4-.302-.078-.066-.324-.275-.388-.367-.359-.38-.317-.377-.209-.288-.053-.072-.138-.233-.059-.097-.125-.286-.048-.231.032-.168.109-.098.181-.024.106.021.143.028.305.123.326.177.025.013.381.251.354.267.046.034.388.33.012.011.388.366.358.379.318.377.261.36.028.045.169.284.126.286.049.231-.031.169Zm0 0-.206.409-.055.112-.176.349M723.451 335.329l-2.9 1.7M730.211 338.374l-.046.033-.118-.04-.185-.111-.25-.179-.3-.24-.34-.291-.368-.331-.382-.358-.38-.372-.363-.372-.328-.35-.005-.006-.292-.328-.236-.286-.173-.234-.103-.172-.03-.105.045-.032.12.04.187.113.248.179.3.24.34.29.056.051.014.013.298.267.38.358.38.371.362.371.333.356.292.327.235.286.174.234.104.173.026.089.005.016Zm0 0-.24.441M726.355 334.6l-1.843 1.055"/><path d="m731.276 339.546.131-.232-.052-.104-.123-.173-.19-.235-.248-.288-.299-.331-.334-.36-.362-.375-.37-.377-.369-.363-.351-.336-.319-.295-.278-.244-.221-.183-.161-.114-.092-.042-.033.018M634.203 466.354l.189.147.338.237.285.168.22.094.146.016.532-.302M629.908 461.703l-.513.899v.007l.079.087.155.163.225.232.286.292.337.342.374.378.397.399.405.406.398.397.374.372.337.333.288.282.226.22.156.149.08.073.69-.38.696-.383.375-.206"/><path d="m629.395 462.603.08.071.155.149.226.219.287.282.338.334.375.373.398.398.406.406.398.401.375.378.337.342.286.292.224.232.155.162.078.086-.001.007M631.068 457.506l-.051.087-.581.986-1.139 1.934.008.157.087.23.163.294.233.348.121.161.172.227.342.413.379.422.4.414.094.091.312.301.398.354.373.303.334.239.282.167.22.089.15.006.257-.134.641-.332 1.247-.647"/><path d="m629.297 460.514.072-.077.149.005.219.088.283.166.329.236.005.004.374.302.398.355.407.393.143.148.258.268.379.422.343.414.293.388.232.348.163.294.086.23.007.156-.072.076M699.773 385.762l.276.511.17.552.057.57-.059.568-.171.542-.278.498-.374.432-.005.004-.45.348-.519.256-.563.152-.585.041-.585-.071-.563-.181-.518-.283-.454-.374-.373-.452-.276-.512-.17-.552-.056-.57.058-.568.172-.543.278-.497.37-.428.004-.005.455-.351.277-.136.014-.007.229-.113.562-.151.586-.041.169.021h.006l.41.05.562.181.518.283.454.374.372.452ZM689.156 395.92l.276.517.169.561.056.582-.061.582-.173.559-.28.515-.376.451-.005.004-.453.365-.521.273-.566.168-.587.055-.587-.06-.564-.173-.519-.278-.455-.373-.372-.454-.276-.517-.169-.561-.056-.582.061-.582.173-.559.281-.515.372-.445.004-.005.457-.37.522-.273.565-.167.587-.055.587.06.564.172.519.278.455.373.372.454ZM678.588 406.435l.279.518.174.563.063.586-.052.586-.163.562-.269.52-.365.454-.005.004-.441.369-.511.278-.555.171-.578.059-.58-.057-.558-.17-.516-.276-.453-.374-.374-.454-.279-.519-.175-.562-.012-.116-.001-.013-.049-.456.051-.586.163-.562.01-.019.007-.015.253-.486.36-.45.004-.005.446-.373.511-.277.555-.173.578-.058.58.057.559.17.515.277.454.373.374.454ZM663.243 417.973l.076-.3.011-.04.054-.215.246-.51.336-.44.003-.005.422-.365.226-.125.26-.144.533-.163.559-.052.563.063.547.174.508.279.451.373.375.453.287.516.185.558.079.579-.033.578-.142.554-.245.51-.34.446-.005.004-.417.36-.486.269-.533.163-.559.051-.563-.063-.492-.157-.031-.01-.023-.007-.508-.279-.45-.373-.376-.453-.286-.515-.186-.558-.078-.578.018-.32.014-.258Zm0 0 .008-.056M665.094 421.308l.04.022.013.007M654.206 427.444l.21-.488.274-.383.008-.012.017-.023.003-.005.384-.342.45-.247.499-.144.53-.034.539.076.528.184.497.285.446.375.379.45.296.508.203.547.101.564-.004.56-.109.534-.21.488-.303.422-.004.004-.38.338-.45.247-.213.061-.018.005-.268.077-.53.034-.538-.076-.528-.185-.496-.285-.446-.374-.378-.45-.296-.507-.203-.546-.102-.564.004-.56.108-.534Zm0 0 .205-.482M657.082 431.524l.113.001M646.316 436.254l.251-.384.003-.004.335-.307.158-.084.006-.003.239-.127.456-.114.491-.008.507.098.505.2.481.294.441.377.382.446.309.496.225.53.131.54.033.532-.067.503-.164.453-.254.388-.004.003-.106.097-.008.008-.218.198-.403.214-.456.113-.108.001-.383.006-.507-.098-.504-.2-.48-.294-.44-.376-.382-.445-.309-.497-.225-.528-.131-.54-.034-.532.066-.502.164-.454Zm0 0 .005-.011M649.59 440.713l.148-.031M639.581 444.503l.194-.338.002-.004.278-.261.347-.171.404-.073.036.002.007.001.403.024.469.126.476.22.464.306.433.381.386.439.325.482.251.506.167.511.076.495-.016.461-.044.163-.002.008-.063.238-.198.341-.003.003-.084.079-.191.178-.114.056-.233.114-.405.073-.445-.028-.469-.126-.475-.221-.463-.305-.243-.214-.189-.166-.165-.187-.221-.252-.325-.481-.25-.505-.167-.51-.077-.495.016-.461.108-.409Zm0 0 .193-.337M643.352 448.79l.026-.009M634.546 451.164l.212-.206.285-.118.346-.025.395.069.427.159.412.228.011.006.021.011.442.321.426.384.391.432.081.111.261.354.151.258.129.22.066.152.005.012.135.31.126.451.039.411-.047.356-.133.285-.002.003-.211.203-.286.117-.346.024-.394-.069-.427-.16-.443-.245-.442-.32-.157-.143-.267-.241-.332-.367-.059-.064-.341-.464-.28-.477-.207-.474-.069-.246-.057-.205-.04-.411.014-.104.033-.251.13-.284.002-.003Zm0 0 1.668-2.814M638.512 455.55l.003-.002M631.025 456.664v-.001l.143-.143.218-.059.284.029.339.116.382.198.079.053.33.22.421.337.416.388.396.424.36.445.311.447.249.432.179.402.1.355.004.078.013.205.001.012-.064.223-.002.001-.074.074-.03.03-.038.038-.218.058-.285-.03-.339-.116-.381-.199-.409-.272-.296-.238-.124-.099-.125-.116-.009-.009-.281-.262-.396-.424-.359-.443-.311-.447-.249-.432-.171-.383-.008-.018-.01-.036-.09-.319-.02-.295.063-.222.001-.002Zm0 0 .321-.539 1.502-2.517M635.039 460.969l.003-.002M742.718 353.052l-.178.179-.258.1-.328.015-.385-.069-.429-.151-.455-.227-.463-.294-.455-.351-.305-.28-.123-.112-.385-.421-.113-.149-.214-.282-.257-.426-.176-.404-.089-.367.001-.315.092-.252.178-.178.259-.099.328-.014.386.07.428.151.108.054.102.051.244.122.463.294.138.107.316.243.427.392.384.419.327.431.256.425.177.404.09.367v.04l-.001.275-.09.252Zm0 0-.722 1.59-.002.004-.02.044-.002.005"/><path d="m738.376 349.068-.547.32-1.415.829-.988.578M635.182 460.826v.003l-.073.072-.033.033-.033.032-.005.006-.219.058-.284-.03-.339-.116-.381-.199-.409-.272-.29-.233-.13-.104-.089-.082-.045-.043-.282-.262-.395-.424-.36-.443-.31-.446-.249-.433-.172-.385-.007-.016-.01-.036-.091-.319-.019-.295.063-.224.002-.002M634.699 459.122l.249.433.178.401.1.355.005.071.013.213.001.011M631.164 456.524l.217-.059.284.029.34.116.381.198.078.052M635.039 460.972l.025-.012.074-.035.393-.187 1.28-.609M638.864 454.299l.04.411-.048.355-.131.283-.002.003-.206.198-.007.007-.285.117-.347.025-.394-.07-.427-.16-.443-.245-.442-.32-.159-.144-.265-.239-.334-.37-.057-.062-.341-.463-.28-.478-.206-.473-.07-.249-.057-.202-.04-.411.014-.109.033-.247.132-.286.002-.003.211-.203.284-.118M637.988 452.539l.262.355.15.256M638.531 453.373l.06.139.006.012.14.322M636.217 448.346l-1.674 2.824M638.508 455.555l3.069-1.28M636.375 451.141l.256.141.01.006.011.006.443.321M643.971 448.363l-.002.004-.072.067-.206.193-.124.061-.192.093-.032.016-.404.072-.445-.027-.469-.127-.475-.22-.463-.306-.245-.215-.188-.164-.166-.189-.219-.25-.325-.482-.251-.505-.167-.51-.077-.494.016-.461.109-.409.196-.342.002-.002.001-.001M643.473 445.162l.091.135.234.347.022.046M644.215 446.66l.077.496M640.801 443.663l.042.002.007.001.397.024M640.951 442.108l-1.377 2.402M643.344 448.797l.144-.048 1.653-.546M642.191 444.036l.463.306M650.782 440.082l-.003.005-.102.093-.008.007-.225.206-.404.214-.301.074-.155.038-.11.002-.38.006-.507-.098-.504-.2-.481-.294-.44-.377-.382-.445-.309-.496-.224-.528-.132-.541-.033-.531.066-.503.163-.454.012-.018.242-.369.004-.004M650.875 437.142l.224.529M646.898 435.566l.164-.088.006-.003.233-.124.456-.113M647.366 434.24l-1.057 2.02M649.582 440.719l.641-.132M649.262 435.528l.482.294.44.377.382.445M658.943 430.762l-.003.005-.384.341-.451.247-.195.057-.018.005-.286.082-.409.026-.12.008-.539-.077-.528-.184-.496-.285-.446-.375-.378-.449-.296-.508-.203-.546-.101-.564.003-.559.109-.534.209-.488.003-.003.28-.392.008-.012.012-.016.004-.004M658.965 427.144l.296.509.203.546.101.564-.004.56-.109.534-.21.488M655.094 426.199l.45-.248.5-.144.529-.034.539.076.528.185M654.8 426.03l-.601 1.422M657.074 431.533l1.611.011M665.086 421.316l.759.41M668.196 420.702l-.004.005-.421.364-.486.269-.533.163-.559.051-.563-.063-.457-.145-.028-.009-.007-.003-.054-.017-.508-.279-.451-.373-.375-.453-.286-.515-.186-.558-.079-.578.018-.323.015-.255.016-.065.07-.275.01-.039.045-.176.245-.51.34-.446.005-.003M668.691 417.481l.186.558.078.579-.032.578-.142.554M663.344 417.223l-.11.76M664.867 415.838l.533-.164.559-.051.564.063.546.174M678.247 410.228l-.004.005-.446.374-.511.277-.555.172-.578.058-.58-.057-.558-.17-.516-.277-.453-.373-.374-.454-.279-.518-.175-.563-.01-.102-.002-.013-.05-.47.051-.586.163-.562.018-.035.008-.015.244-.469.364-.456.005-.004M678.578 406.444l.28.519.174.562.063.586-.052.585-.163.563-.269.519M674.453 405.621l.511-.278.555-.171.578-.059.58.057.559.17.515.277M689.148 395.929l.276.517.169.561.055.582-.06.582-.173.559-.281.515-.371.446-.005.005-.457.369-.522.273-.565.168-.587.055-.587-.06-.564-.173-.52-.278-.454-.373-.373-.454-.276-.517-.169-.56-.055-.583.06-.582.174-.559.28-.515.376-.45.006-.004.452-.365.522-.274.565-.167.587-.055.587.06.564.172.519.278M700.039 386.282l.17.551.056.571-.058.567-.171.543-.278.497-.37.428-.004.005-.455.351-.519.257-.563.151-.585.042-.585-.072-.563-.18-.518-.283-.454-.375-.373-.452-.276-.511-.17-.552-.057-.571.059-.568.172-.542.278-.498.374-.432.005-.004M695.605 384.859l.293-.144.014-.007.212-.105M696.688 384.451l.585-.041.165.02h.005M697.855 384.481l.564.18M710.528 377.341l.067.55-.007.078-.039.465-.158.515-.262.467-.358.402-.438.32-.504.227-.548.125-.572.017-.575-.09-.554-.194-.513-.292-.452-.377-.373-.448-.28-.502-.177-.536-.066-.551.046-.543.158-.515.263-.467.044-.05.007-.007.307-.345.439-.32.067-.03.277-.124.002-.001.157-.071.549-.124.572-.018.574.091.554.194.512.292.451.376.373.448.281.501.176.537Zm0 0 .239 1.17M706.485 375.044l-.136.042-.002.001-1.042.321M720.273 369.869l-.132.477-.147.268-.087.158-.329.359-.409.278-.475.186-.522.087-.549-.014-.555-.117-.54-.213-.503-.303-.448-.38-.375-.443-.288-.489-.189-.515-.084-.523.025-.509.132-.477.236-.426.119-.13.21-.228.409-.278.476-.185.521-.087.549.015.555.117.539.213.502.303.448.38.374.442.288.488.19.515.084.522-.025.509Zm0 0-.198 1.754M715.77 366.638l-1.805.848M728.969 362.98l-.195.375-.288.306-.202.124-.166.101-.435.137-.485.041-.517-.054-.528-.149-.519-.238-.49-.316-.442-.384-.378-.436-.299-.472-.207-.49-.109-.487-.006-.468.083-.366.014-.064.197-.374.288-.306.369-.225.435-.135.485-.041.516.055.527.149.519.237.489.317.442.383.377.436.283.447.015.024.199.467.009.021.109.488.007.467-.097.43Zm0 0-.696 2.512M724.654 359.234l-2.213 1.197M736.603 357.073l-.147.317-.237.245-.317.165-.385.079-.156-.004-.179-.005-.104-.002-.455-.097-.021-.004-.494-.186-.493-.265-.474-.332-.436-.389-.381-.428-.311-.453-.231-.459-.124-.397-.016-.051-.044-.419.053-.375.148-.316.237-.245.318-.165.386-.077.439.011.475.102.493.186.088.047.405.217.148.104.325.229.435.387.38.428.312.452.005.011.225.447.116.372.024.076.045.419-.052.375Zm0 0-1.072 2.812M732.035 353.452l-2.68 1.539M747.383 350.457l-.113.109-.192.03-.265-.051-.139-.055-.188-.075-.066-.036-.31-.168-.412-.27-.142-.107-.289-.218-.433-.369-.177-.167-.243-.23-.389-.412-.345-.409-.2-.275-.085-.116-.216-.357-.001-.001-.138-.311-.03-.138-.026-.115.03-.184.114-.108.193-.029.265.052.327.13.255.139.121.065.411.27.431.325.271.232.161.137.419.396.389.411.343.408.15.205.034.047.102.139.174.288.042.069.139.312.056.252-.024.155-.004.03Zm0 0-.25.494-.056.111-.204.404-.143.283-.305.603"/><path d="m743.13 346.423-.387.226-.437.255-1.764 1.029-.558.326M750.33 349.655l-.044.039-.123-.041-.198-.119-.264-.191-.322-.258-.366-.313-.396-.357-.412-.387-.41-.403-.394-.402-.363-.386-.075-.085-.241-.271-.259-.311-.19-.255-.116-.189-.036-.115.045-.038.124.042.199.119.265.192.321.258.361.309.005.004.001.001.395.356.41.386.41.402.393.401.362.386.316.355.258.311.191.255.117.189.036.116Zm0 0-.013.024-.691 1.273-.135.249M746.167 345.573l-1.999 1.142"/><path d="m750.721 352.029.805-1.414-.053-.11-.13-.185-.201-.252-.264-.31-.321-.356-.361-.389-.388-.405-.402-.407-.399-.394-.381-.363-.347-.321-.302-.265-.244-.2-.177-.126-.103-.047-.015.008M837.13 473.884l-6.458 7.636-1.525 1.803-2.29 1.774-7.689 5.955-8.866 4.625-3.179 1.658-9.642 2.655-3.181.876-9.924 1.234-4.028.501-9.981-.606-3.994-.242-9.707-2.401-3.789-.937-9.11-4.124-3.4-1.539-8.305-5.57-2.897-1.943-6.784-7.346-2.209-2.392-4.863-8.738-1.587-2.852-3.174-9.483-.943-2.818-1.138-9.935-.326-2.845 1.134-9.936.372-3.259 2.978-9.546.219-.705.571-1.828 4.911-8.711 1.439-2.552 6.636-7.481 1.545-1.741 8.035-5.953 2.04-1.512 9.19-3.945 1.98-.85 9.758-2.185 2.579-.577 9.999.12 2.523.031 9.884 1.519 3.044.468 9.487 3.162.145.048 2.933.978 8.716 4.903 2.836 1.595 8.048 5.936 2.577 1.901 7.234 6.905 2.088 1.993 1.446 2.098 5.698 8.263 4.005 9.163.879 2.013 2.078 9.781.375 1.763-.033 10-.005 1.418-2.607 9.654-.524 1.942-4.565 8.897-.659 1.284Z"/><path d="m818.816 462.713-2.196 2.577-3.322 3.899-6.881 5.293-7.983 3.9-8.776 2.35-9.23.702-9.322-.976-9.048-2.62-.968-.479-7.451-3.683-7.458-5.539-6.206-6.699-4.713-7.594-1.378-3.715-1.66-4.473-1.251-8.463.578-8.408 2.377-8.027 2.582-4.649 1.494-2.69M738.004 413.419l5.613-6.373 6.927-5.168 5.154-2.438 2.819-1.333 2.061-.529 6.652-1.708 5.278-.36 3.342-.229.503-.034 9.187 1.011 8.906 2.603 8.291 4.097 7.365 5.437 6.16 6.573 4.721 7.465.386 1.005 2.715 7.071 1.305 8.053.054.331-.443 8.373-2.235 8.044-3.949 7.403"/><path d="m736.512 416.109 4.693-5.33 6.904-5.153 7.946-3.762 8.683-2.232 9.091-.624 3.553.39 5.601.615 8.873 2.592 8.26 4.082 7.336 5.418 6.135 6.551 4.702 7.439 3.086 8.05.172 1.061 1.178 7.295-.445 8.347-2.231 8.018-3.427 6.424M1080.66 895.276l4.3 4.08 7.39 6.741 6.08 5.551 7.38 6.741 6.11 5.57 7.38 6.742 6.13 5.589 7.38 6.742 6.15 5.609 4.03-1.743 5.97-6.858-5.78-8.157-5.79-8.157-1.44-2.032-5.58-8.294-5.44-8.076"/><path d="m1142.99 946.898-5.79-8.149-5.8-8.149-1.46-2.052-5.6-8.285-5.6-8.286-1.45-2.147-5.72-8.201-1.64-2.348M1096.67 734.433l-9.29-3.703-9.29-3.702-9.29-3.703-6.89-2.746-6.64 7.104 6.38 7.707 6.37 7.707 6.37 7.707 6.37 7.708 6.37 7.707 6.38 7.707 6.37 7.707 6.37 7.707 6.37 7.707 6.37 7.707 6.37 7.707 6.38 7.707 6.37 7.707 2.42 2.928.2.249.21.006 10 .32 6.08.194.7.022 3.62.116h.01l.03.001 2.05.066h.01l3.29.105.01.001.42.013.43.226.01.006 8.84 4.667 6.79 3.582 1.22.64 2.55 1.345.81.431.4.209 5.56 2.933 8.17 5.764 8.17 5.764 6.63 4.673 8.24 5.659 8.24 5.66 7.06 4.842 8.12 5.826 8.13 5.826 6.87 4.926 5.07-2.189 6.48-7.593-6.68-7.441-6.57-7.315-6.68-7.441-6.59-7.341-6.68-7.441-6.62-7.367-6.68-7.441-6.64-7.395-6.84-7.287-6.85-7.288-6.85-7.288-6.85-7.288-6.84-7.288-4.32-4.59-.01-.019-6.85-7.288-6.85-7.288-6.85-7.288-3.37-3.591-9.29-3.703-9.29-3.703-9.27-3.693-3.45-1.377-6.7-2.669-9.28-3.702-9.29-3.703-6.09-2.425Z"/><path d="m1152.61 766.834-9.27-3.732-3.87-1.556-9.28-3.732-.17-.067-9.28-3.731-9.28-3.732-9.27-3.731-9.28-3.732-2.91-1.169-9.28-3.731-9.27-3.732-9.28-3.731-6.9-2.774M1268.47 892.686l-6.69-7.438-6.59-7.336-6.68-7.438-6.62-7.362-6.68-7.438-6.64-7.389-6.69-7.438-6.66-7.415-6.85-7.286-6.85-7.286-6.85-7.286-6.85-7.286-6.85-7.286-6.59-7.017-6.85-7.286-6.85-7.286-6.85-7.286-1.22-1.294 6.72-7.425M1781.96 72.33l-2.64-2.259-7.99-6.016-6.47-4.87-8.47-5.315-6.74-4.23-8.9-4.563-6.94-3.558-9.27-3.756-7.05-2.858-7.34-2.367-9.57-2.9-7.96-2.414-9.8-1.994-7.93-1.615-9.95-1.045-7.82-.82-9.97-.695-.18-.012-10-.055-8.35-.047-9.95.963-8.1.783-9.91 1.337-1.32.178-9.79 2-8.3 1.693-9.53 3.038-7.93 2.526-9.49 3.14-1.94.64-9.13 4.062-7.81 3.47-8.8 4.757-1.87 1.015-8.63 5.051-7.46 4.364-8.01 5.988-6.92 5.173-7.84 6.205-1.64 1.3-7.29 6.85-6.32 5.941-6.63 7.484-1.19 1.345-6.47 7.624-5.56 6.544-5.58 8.296-4.88 7.258-5.16 8.571-.52.88-4.64 8.858-3.98 7.594-3.66 9.307-3.23 8.207-3.29 9.263-2.66 9.641-2.26 8.204-1.65 9.862-1.45 8.674-.92 8.213-.65 9.979-.55 8.283.33 9.995.28 8.57 1.28 9.918 1.13 8.765 1.08 5.358 2.2 9.755 1.78 7.88 3.08 9.513 2.56 7.872 3.92 9.196 3.32 7.761 4.73 8.81 4.05 7.542 5.49 8.359 4.74 7.222 6.2 7.845 5.38 6.803 6.87 7.271 5.94 6.293 7.48 6.637 6.43 5.703 8.04 5.947 6.82 5.045 8.54 5.197 7.12 4.333 4.77 2.721 8.98 4.394 8.23 4.024 9.35 3.535 8.36 3.156 9.65 2.625 8.37 2.277 8.19 1.789 9.86 1.667 9.08 1.533 9.98.668 8.89.596 10-.105 10-.365 9.22-.337 9.9-1.419 8.86-1.27 9.79-2.051 1.18-.249 9.69-2.481 8.82-2.259 9.35-3.532 8.31-3.139 9.26-3.791 1.82-.745 8.9-4.558 7.94-4.066 8.44-5.356 1.88-1.189 8.33-5.533 7.35-4.882 7.65-6.442 6.7-5.643 7.38-6.749 1.63-1.489 6.87-7.265 5.91-6.245 6.05-7.961 1.25-1.643 6.01-7.988 5-6.636 5.09-8.603 4.29-7.237 4.43-8.963.58-1.173 4.14-9.105 3.32-7.311 3.16-9.49 2.58-7.796 2.47-9.692.03-.131 2.16-9.763 1.66-7.52 1.18-9.93.93-7.866.22-9.998.17-8.146-.03-7.689-.72-9.973-.55-7.421-1.63-9.866-1.25-7.541-2.51-9.681-1.96-7.579-3.34-9.427-2.67-7.53-1.39-3.239-4.13-9.108-2.88-6.349-4.88-8.728-3.45-6.164-5.58-8.293-3.98-5.9-6.25-7.803-4.46-5.564-6.88-7.259-4.89-5.16-7.46-6.664-5.26-4.698Z"/><path d="m1834.42 156.183.45 5.299.85 9.964.3 3.472-1.24 9.923-.71 5.691-3.15 9.493-1.6 4.856-5.16 8.569-2.42 4.022-7.08 7.065-3.25 3.254-8.64 5.034-4.28 2.494-8.39 5.447-5.63 3.656-9.68 2.479-8.05 2.059-9.83-1.814-9.84-1.814-.4-.073-9.25-3.808-8.59-3.54-8.63-5.053-8.63-5.054-2.2-1.292-7.73-6.355-7.72-6.355-.6-.499-6.69-7.435-6.69-7.435-2.29-2.549-5.63-8.264-5.63-8.263-.67-.983-4.17-9.089-4.17-9.089-.9-1.949-2.26-9.741-2.26-9.742-.3-1.294 3.26-9.454 2.8-8.118 2.29-9.735 1.52-6.459 3.5-9.366 1.94-5.18 5.63-8.259 2.66-3.892 7.48-6.633 3.24-2.865 8.84-4.674 3.86-2.04 9.65-2.629 4.6-1.254 10 .274 9.99.274.87.024 9.73 2.314 5.75 1.366.83.198 9.01 4.34 6.29 3.03 8.58 5.147 5.84 3.507 7.73 6.345 7.73 6.345 2.34 1.921 6.57 7.538 5.87 6.735 5.77 8.17 4.19 5.946 4.71 8.826 3.54 6.655 2.9 9.571 2.9 9.571.35 1.174Zm0 0 1.45 8.588M1837.69 186.196l-.85-9.964-.84-9.964-.13-1.497"/><path d="m1750.1 61.363-9.08-4.195-1.4-.65M1739.61 56.517l-9.72-2.316-8.92-2.123-9.99-.28-10-.282-3.88-.109M1630.12 201.241l2.47 6.339.85 6.773-.45 7.497-.08 5.72-2.13 5.616-5.23 4.783-4.65 4.094-2.97.743-5.61 3.449-6.32 1.574-4.9-2.696-2.28-2.916-5.22-2.012-5.67-4.795-2.97-2.022-4.07-7.022-1.03-2.708-1.71-7.93.97-3.117.82-7.841 2.87-2.968-.21-5.794 1.38-5.104M1574.66 185.775l.28 7.694-3.82 3.946-1.04 9.945-.05.471M1621.61 247.972l3.96-.987 6.18-5.444M1568.75 211.973l2.1 9.775.17.756M1641.66 220.086l.61-9.98M1604.01 170.281l-7.21.253-4.38 2.148-8.17 4.661M1589.25 244.495l6.94 2.679M1617.46 186.551l3.49 4.867M1717.39 353.056l1.21-3.515 5.07-2.334 5.25-.136 4.6-.118 1.59-4.89 1.39-5.542M1634.34 341.92l5.67 5.28 7.09 4.574M1665.96 358.917l8.3 2.325 5.79 1.622 8.07.4 8.64-.593 1.73-2.098M1715.11 266.79l-6.58-2.677-8.28-2.365M1634.34 341.92l7.43-6.699.09-.08 1.1-1.491-7.11 6.241M1732.17 279.779l-6.31-5.203M1660.54 357.046l3.32 1.279M1742.94 292.271l-2.29-6.428-4.74-4.154M1622.5 304.734l-3.45 3.721 3.52 2.618 4.65 3.457M1747.64 312.654v-6.803l-1.31-2.239-2.09-4.539M1628.18 285.249l1.34 1.215 7.4 6.727.47.431.98.875M1664.95 260.202l-6.06 4.11-7.58 3.358-5.18 1.596-3.56 1.083-5.94 4.846-5.27 5.466M1743.82 325.385l1.58-.206M1686.08 261.099l-9.02.019M1673.75 338.018l-4.2-1.184-1.07-.301-1.67-.649-4.13-1.596-2.25-.871-.42-.208-3.58-2.318-2.86-2.675.77-1.03-1.43-2.581-2.18-3.296-.51-2.484 1.32-1.553-1.52-2.902-2.34-1.744-1.77-1.321 1.75-1.874 1.54-2.777.94-3.444 1.08-2.98-.67-.602 1.6-2.304 2.67-2.742 2.99-2.428 1.79-.541 2.61-.798 3.81-1.68M1672.96 286.904l2.19.637 4.53-.01M407.698 778.222l-8.143-5.804-.619-.441-8.676-4.974-.693-.397-9.119-4.103-.767-.345-9.475-3.198-.839-.283-9.739-2.27-.907-.212-9.911-1.326-.968-.129-9.993-.377-1.018-.038-9.984.573-1.057.06-9.885 1.512-1.081.166-9.698 2.437-1.089.273-9.427 3.338-1.08.382-9.071 4.209-1.054.49-8.635 5.043-1.011.591-8.12 5.837-.953.684-7.53 6.58-.88.768-6.869 7.267-.794.84-6.141 7.892-.699.899-5.35 8.448-.598.943-4.503 8.929-.491.974-3.604 9.328-.383.992-2.664 9.639-.276.997-1.688 9.857-.17.993-.688 9.976-.068.979-.063 1.136.327 9.995.031.971 1.343 9.909.128.946 2.351 9.719.221.917 3.336 9.427.313.884 4.29 9.033.403.849 5.196 8.544.494.812 6.047 7.964.584.769 6.832 7.302.674.722 7.542 6.567.766.666 8.168 5.769.855.604 8.709 4.915.942.532.529.25 9.156 4.019.934.41 9.511 3.09 1.003.326 9.769 2.139 1.063.233 9.931 1.173 1.111.131 9.998.204 1.144.024 9.971-.761 1.161-.089 9.852-1.712 1.159-.201 9.644-2.646 1.14-.312 9.349-3.549 1.101-.419 8.97-4.421 1.047-.516 8.511-5.251.976-.602.499-.324 7.973-6.035.971-.735 7.364-6.764.87-.8 6.686-7.437.763-.848 5.943-8.042.651-.88 5.142-8.577.537-.896 4.289-9.034.426-.897 3.388-9.408.319-.885 2.452-9.695.218-.862 1.484-9.889.125-.831.498-9.988.04-.795-.5-9.988-.038-.756-.147-1.1-1.495-9.888-.106-.706-2.48-9.688-.171-.669-3.439-9.39-.232-.633-4.367-8.997-.292-.6-5.247-8.513-.352-.57-6.075-7.944-.414-.541-6.837-7.297-.479-.511-7.53-6.58-.548-.478Z"/><path d="m383.113 875.346-7.516 6.161-.074.041-8.674 4.743-8.544 5.196-.093.057-9.606 2.778-.736.213-7.157-.655-4.216-.385-9.547-2.977-.206-.064-8.919-4.523-1.255-.636-7.875-6.163-.135-.106-.35-.411-6.486-7.612-.458-.538-5.016-8.65-.088-.151-3.016-9.535-.257-.813-.258-3.561-.529-7.302 4.297-9.029.128-.269 3.918-8.955 4.953-8.302 6.357-7.159 7.474-5.839 8.306-4.408 8.867-2.911 9.981-.62 2.202-.137 9.308 1.22 8.051 3.347 7.473 4.057 7.85 6.195 1.119.883 5.998 7.083 4.619 7.083 3.364 7.948 1.343 9.91.112.825-1.061 9.943-.014.129-2.968 8.591-4.566 8.057-6.1 7.251Z"/><path d="m404.289 853.848 1.051-9.945.171-1.617-1.351-9.908-.328-2.409-3.864-9.119-5.301-8.125-6.462-7.631-.419-.495-7.849-6.195-2.44-1.926-8.572-4.655-9.236-3.843-9.915-1.306-.765-.101-9.981.613-4.001.245M281.995 871.207l.951 3.199.291 3.344-.239 3.644-.015 2.763-.82 2.621-2.162 2.137-1.923 1.826-1.218.252-.063.041-2.152 1.388-2.557.517-2.097-1.447-1.016-1.462-2.068-1.207-2.317-2.545-1.154-1.128-1.633-3.586-.384-1.376-.626-3.962.395-1.478.437-3.835 1.106-1.295.119-2.932.723-2.51M277.723 894.234l1.759-1.134 1.622-.335M260.677 864.656l-1.471 1.725-.581 5.101M283.668 890.334l2.676-2.644.204-.202 1.094-3.491M287.66 880.32l.319-4.853M261.617 885.319l1.535 1.501 3.082 3.388 2.752 1.607 1.353 1.945 2.791 1.927M276.766 855.488l-3.779-1.175-2.952-.164-1.792.87-3.38 1.961M277.062 863.474l1.29 2.568M281.467 859.879l-1.717-3.415M288.367 929.653l2.692 2.923 1.865 2.276-.408.846 3.278 2.354 3.823 2.076.43.189M324.021 902.639l-3.537-1.143"/><path d="m292.516 935.699 1.8-2.481.298-.62-1.69 2.255M317.078 944.967l3.583.081.605.013M333.84 908.251l-3.719-2.231M302.391 941.083l4.297 1.403 1.747.571M342.248 916.506l-1.382-2.98-1.858-2.796-3.004-1.706M284.746 911.219l-.418 2.505-.244 3.028-.854 2.397-1.168 1.578"/><path d="m284.098 910.541.645.677 3.418 3.585.485.423M342.66 937.427l.13-2.113-.088-2.382.078-.146 1.34-2.55 1.046-2.265M289.495 904.048l-2.304 2.082M310.112 934.512l-2.236-.495-.568-.126-.882-.288-2.168-.709-1.183-.387-.217-.096-1.928-1.048-1.653-1.189.206-.427-.939-1.149-1.356-1.475-.526-1.084.382-.639-.961-1.314-1.176-.832-.891-.631.591-.794.432-1.207.045-.546.081-.978.221-1.31-.333-.291.561-1.02.998-1.197 1.162-1.046.749-.208 1.146-.332 1.435-.63.216-.095M304.41 912.015l1.069.306 2.197-.003M1378.62 284.106l-7.17-6.965-7.18-6.965-7.18-6.965-.29-.291-6.97 7.176-6.96 7.175-6.97 7.175-.29.3 7.17 6.965 7.18 6.965 7.18 6.965.29.291 6.97-7.176 6.97-7.175 6.96-7.175.29-.3ZM1347.62 252.194l-7.17-6.966-5.87-5.699-6.97 7.176-5.7 5.871 7.18 6.965 5.87 5.699 6.96-7.175 5.7-5.871ZM1367.26 237.445l-7.18-6.965-1.75-1.698-6.96 7.175-1.7 1.749 7.17 6.966 1.75 1.698 6.97-7.176 1.7-1.749ZM861.422-321.179l6.982 7.158 6.983 7.159 6.982 7.159 6.982 7.159 6.982 7.159 6.982 7.159 6.982 7.159 6.982 7.159 6.982 7.159 6.982 7.159 6.983 7.159 6.982 7.159 6.982 7.158 6.982 7.159 6.982 7.159 6.982 7.159 6.982 7.159 6.982 7.159 6.982 7.159 6.978 7.159 6.99 7.159 6.98 7.159 6.98 7.159 6.98 7.159 6.98 7.158 6.99 7.159 6.98 7.159 6.98 7.159 6.98 7.159 6.99 7.159 6.98 7.16 6.98 7.158 6.98 7.16 6.98 7.158 6.99 7.16 6.98 7.158 6.98 7.158 6.98 7.16 6.98 7.158 6.99 7.16 6.98 7.158 6.98 7.16 6.98 7.158 6.98 7.16 6.99 7.158 6.98 7.16 6.98 7.158 6.98 7.158 6.99 7.16 6.98 7.158 6.98 7.16 7.88 8.075 7.07-7.07 2.14-2.146-7.16-6.982-7.16-6.983-7.15-6.982-7.16-6.982-7.16-6.982-7.16-6.982-7.16-6.982-7.16-6.982-7.16-6.982-7.16-6.982-7.16-6.983L1148.7-41l-7.16-6.982-7.16-6.982-7.16-6.982-7.16-6.982-7.16-6.982-7.16-6.982-7.16-6.982-7.16-6.983-7.15-6.982-7.16-6.982-7.16-6.982-7.16-6.982-7.16-6.982-7.16-6.982-7.16-6.982-7.16-6.982-7.16-6.983-7.16-6.982-7.15-6.982-7.16-6.982-7.161-6.982-7.159-6.982-7.159-6.982-7.159-6.982-7.159-6.983-7.159-6.982-7.159-6.982-7.159-6.982-7.159-6.982-7.159-6.982-7.159-6.982-7.158-6.982-7.159-6.982-7.159-6.983-7.159-6.982-7.159-6.982-7.159-6.982-7.159-6.982-7.159-6.982-8.076-7.876ZM619.846 437.083l-.002.003M622.84 446.263l2.849 5.103M631.023 456.664l-.003.004M735.857 342.111l-4.581-2.565-1.307-.732M742.741 346.649l-.229-.155-1.754-1.182M943.299 785.042l-.638 1.271-.142.282-.057.114-.228.453M945.738 792.956l2.071 1.694.588.481M959.73 798.503l-.083.171-.08.165-.184.379M965.485 793.956l-.43.993M970.623 771.992l-.004.008-.014.028M972.755 787.952l-.443 1.239M1002.33 763.412l.3.647M1087.31 880.661l6.33 3.812 1.85 1.112M962.156 805.318l7.237 4.357M1114.24 893.785l.01.003.2.089M1084.67 670.686l-.57-.941-4.09-6.79M1131.48 748.309l-5.16-8.564-5.17-8.563-5.16-8.563-5.16-8.564-5.17-8.563-5.16-8.563-5.17-8.563-1.76-2.931-1.33-2.194-3.31-5.487"/></g><defs><clipPath id="a"><path fill="#fff" d="M0 0h1920v1080H0z"/></clipPath></defs></svg>