<svg width="1920" height="1080" fill="none" xmlns="http://www.w3.org/2000/svg"><g clip-path="url(#a)" stroke="#EFC018" stroke-width="5" stroke-linejoin="round"><path d="m953.936 800.499-.264.482.035.117.127.206.212.286.291.354.357.41.137.15"/><path d="m954.813 801.027-.271.508-.145.271-.022.054.072.144.163.23.218.269.029.037.323.37.385.42.432.455.465.472.477.47.473.45.45.415.409.361.354.296.284.218.204.131.116.04 2.201-1.23"/><path d="m954.398 801.807.114.04.204.13.283.217.354.295.41.362.451.415.474.452.478.471.465.473.434.455.385.422.152.174.171.196.247.306.162.228.071.144-.023.052M957.591 799.641l-.002.004-.552 1.091-.002.222.095.302.188.37.175.268.1.155.35.461.413.481.363.381.096.101.488.465.498.43.49.379.036.025.425.288.417.235.264.11.091.038.279.055.194-.039.099-.056 3.523-1.985"/><path d="m957.035 800.736.1-.134.193-.041.279.055.354.147.417.235.462.313.49.379.5.431.489.466.058.061.402.422.413.482.351.462.048.073.227.351.188.369.074.239.02.063-.004.221-.041.054-.06.079M962.354 796.074l-.698 1.505-.044.177-.03.122.009.108.021.264.043.141.089.292.229.476.318.5.393.506.455.493.264.244.234.216.522.41.528.344.511.265.289.107.187.069.423.079.352-.019.269-.118 3.431-1.909"/><path d="m961.656 797.579.174-.213.268-.119.352-.021.423.079.476.175.512.265.126.082.402.262.524.411.499.461.456.494.394.507.318.501.228.477.132.432.029.373-.075.298-.176.212M968.388 791.811l-.262.646-.139.371-.03.44.08.492.187.525.287.538.376.53.45.503.508.455.545.391.562.311.557.219.531.119.485.015.42-.091 3.033-1.618"/><path d="m968.125 792.457.243-.288.338-.194.419-.092.485.014.152.034.379.085.559.219.563.311.546.391.508.456.451.503.377.532.287.539.163.46.023.066.08.492-.031.44-.141.37-.244.287-.338.193M1068.02 704.737l.78-1.833.19-.512.08-.57-.01-.199-.03-.408-.16-.619-.26-.61-.36-.575-.24-.276-.21-.244-.52-.443-.56-.351-.59-.244-.59-.129-.58-.008-.53.113"/><path d="m1068.8 702.904-.01.015-.28.418-.01.004-.36.316-.01.007-.02.012-.47.23-.2.043-.33.071-.58-.007-.59-.128-.59-.245-.56-.351-.52-.444-.45-.52-.36-.577-.27-.61-.15-.62-.04-.607.08-.57.19-.512.29-.428.01-.005.05-.05.01-.008.33-.279.44-.217.03-.013M1054.09 708.79v-.006l.45-.379.52-.27.1-.027.03-.006.45-.117.61-.023.63.103.62.226.58.34.52.442.44.525.35.589.25.631.12.648v.64l-.12.608-.02.042-.22.511-.09.122-.01.012-.25.341v.004M1058.61 714.122l-.52.271-.58.15-.62.024-.63-.103M1053.38 711.06v-.641l.12-.608.24-.552M1059.14 714.421l.5-1.707M1049.37 723.387l-.08-.726-.1-.667-.22-.645-.34-.599-.44-.53-.53-.439-.5-.285"/><path d="M1049.29 722.661v.071l-.01.091v.059l-.02.441-.15.633-.28.58-.38.503-.01.005-.48.404-.55.297-.62.174-.65.046-.65-.086-.64-.215-.59-.333-.53-.44-.44-.53-.34-.599-.22-.646-.1-.668.03-.662.15-.635.28-.578.38-.498.01-.005.48-.409.56-.295.61-.174.65-.046.65.086.59.2.05.015.12.068.47.266M1037.34 732.501l.33.604.22.652.08.676-.05.673-.17.645-.3.592-.41.517-.01.004-.5.417-.58.309-.64.185-.66.054-.67-.078-.65-.208-.6-.331-.53-.439-.44-.532-.33-.604-.22-.652-.08-.676.04-.673.18-.646.3-.592.41-.51v-.006l.51-.421.58-.309.64-.185.66-.054.67.079.65.208.6.33.53.44.44.531ZM1025.55 744.46l.33.603.21.652.08.674-.05.671-.19.643-.31.59-.41.513-.01.005-.51.413-.59.306-.64.183-.68.052-.67-.081-.65-.21-.61-.331-.53-.44-.44-.531-.33-.603-.21-.651-.08-.675.06-.671.18-.643.31-.589.41-.508.01-.006.51-.418.59-.306.65-.183.67-.052.67.081.65.21.61.331.53.44.44.531ZM1007.66 756.566l.3-.571.41-.49v-.005l.51-.4.59-.289.63-.166.67-.038.67.092.65.218.6.336.53.442.44.53.33.597.22.642.08.663-.05.656-.18.627-.3.571-.41.495-.01.005M1010.95 761.369l-.67-.092-.65-.219-.6-.336-.53-.441-.44-.53-.33-.597-.21-.641-.09-.663M996.037 768.741l.024-.479.001-.032.006-.12.158-.596.28-.539.385-.457.004-.005.486-.366.562-.257.617-.138.649-.012.656.112.635.234.6.345.52.444.45.525.33.587.23.626.09.641-.03.63-.16.596-.28.54-.39.461v.004l-.48.362-.27.123-.02.009-.27.124-.62.137-.651.012-.655-.112-.637-.234-.593-.345-.528-.444-.441-.525-.338-.586-.222-.625-.098-.64Zm0 0-.006-.062M1000.2 772.24l.61-.13M985.456 777.964l.126-.554.244-.493.054-.063.008-.01.288-.338.003-.004.449-.32.526-.212.585-.097.619.023.632.142.618.254.582.358.523.447.444.52.348.572.238.603.12.609-.004.593-.127.554-.245.494-.224.262-.007.008-.122.144-.005.004-.444.315-.527.211-.584.096-.619-.023-.631-.142-.618-.255-.581-.357-.522-.447-.444-.519-.348-.571-.238-.602-.12-.609.003-.593Zm0 0 .021-.123M990.16 781.985l.526-.209M976.071 785.934l.196-.437.301-.352.003-.004.398-.261.007-.002.009-.003.462-.151.54-.046.58.067.598.177.594.281.566.373.516.452.447.512.025.038.336.516.26.573.15.57.034.547-.083.494-.001.007v.001l-.198.436-.304.355-.005.003-.394.257-.479.156-.539.045-.58-.068-.597-.178-.561-.266-.032-.015-.565-.373-.515-.45-.447-.512-.36-.552-.261-.572-.15-.57-.034-.547.083-.501Zm0 0 .01-.034M981.109 790.337l.01-.005M1090.2 674.441l-.02-.005-.12-.097-.2-.185-.29-.268-.35-.338-.4-.397-.45-.439-.47-.466-.47-.474-.46-.463-.42-.436-.38-.39-.31-.331-.25-.258-.15-.176-.07-.087.03.006.11.098.21.187.28.267.35.338.41.396.44.439.47.465.47.472.45.463.43.435.38.39.31.331.24.259.16.176.07.088Zm0 0-.71 1.295"/><path d="m1085.39 669.631-.69.375-.5.273-.07.037M982.001 789.292l-.198.437-.301.351-.003.004-.381.248-.018.012-.479.156-.539.044-.579-.067-.598-.178-.56-.265-.033-.016-.565-.373-.515-.45-.447-.512-.36-.552-.26-.572-.151-.571-.034-.546.083-.501.018-.041.179-.396.303-.356.005-.003.394-.258.015-.005.009-.003.454-.149.539-.045.58.067.598.177.594.281.566.373.516.452.448.512.025.039.335.514.26.573.15.571.034.547M981.102 790.343l2.035-.985M991.479 781.049l-.216.254-.008.008-.125.148-.004.004-.441.313-.008.006-.527.211-.584.096-.619-.023-.631-.142-.618-.254-.581-.358-.522-.447-.444-.519-.348-.571-.238-.602-.12-.609.003-.592.03-.132.096-.422.245-.494.061-.073.009-.01.283-.332.005-.004.443-.316M991.148 777.625l.348.572M991.734 778.8l.12.609-.004.593-.127.554M987.145 775.978l.585-.096.619.022.632.142M990.148 781.994l2.028-.806M989.602 776.3l.582.358M1001.86 771.486l-.01.005-.48.366-.25.114-.02.009-.29.131v.002l-.62.137-.651.012-.655-.112-.637-.234-.593-.345-.527-.444-.442-.525-.338-.586-.222-.625-.098-.64.004-.071.021-.44.002-.032.004-.087.158-.597.28-.539.39-.462.005-.004M1000.5 766.096l.59.345.53.444.44.526.34.587M1002.62 768.623l.09.641-.03.63M1002.53 770.49l-.28.539M998.555 765.763l.649-.013.655.112M1000.19 772.25l1.31-.277M1009.63 761.067l-.61-.336-.53-.441-.44-.53-.33-.597-.21-.642-.08-.662.04-.656.18-.627.3-.571.41-.495.01-.005.5-.395.59-.289.63-.166.67-.038.67.092.65.218.6.336.53.442.44.53.33.597.22.642.08.662-.05.657-.18.627-.3.571-.41.49v.005l-.51.399-.58.289-.64.166-.67.038-.67-.092-.64-.219ZM1021.45 749.485l-.61-.332-.53-.439-.44-.532-.33-.603-.21-.651-.08-.674.06-.672.18-.642.31-.59.42-.514v-.004l.51-.413.59-.307.65-.182.67-.052.67.08.66.21.6.331.53.44.44.532.33.603.21.651.08.674-.05.672-.19.642-.3.59-.42.508v.005l-.52.418-.59.306-.64.183-.68.052-.67-.08-.65-.21ZM1037.91 735.116l-.17.646-.3.592-.41.51v.006l-.51.421-.58.308-.64.185-.66.056-.67-.08-.65-.208-.6-.329-.53-.44-.44-.533-.33-.602-.22-.653-.08-.677.04-.672.18-.646.3-.591.41-.517.01-.004.5-.417.58-.308.63-.185M1037.66 733.115l.21.652M1035.11 731.002l.65.208M1048.96 721.358l.22.645.1.667v.105l-.01.058-.02.5-.15.633-.28.58-.38.498v.005l-.49.408-.56.297-.61.175-.65.045-.65-.086-.64-.214-.59-.333-.53-.441-.44-.529-.34-.6-.22-.646-.1-.667.03-.663.15-.633.28-.58.38-.503.01-.005.48-.403.56-.296.61-.174.65-.045.65.087.63.213M1059.63 712.724l-.24.552-.08.11-.01.012-.25.348-.01.006-.44.38-.52.27-.58.151-.62.024-.62-.103-.62-.226-.58-.34-.53-.442-.44-.526-.35-.59-.24-.632-.12-.648v-.641l.12-.608.24-.552.34-.475.01-.004.44-.376.52-.27.13-.033.03-.007.42-.109.62-.024.62.104.62.226.58.34.52.441.45.526.35.589.24.631.12.648v.64l-.12.608Zm0 0-.01.032M1056.24 707.971l-.6.014M1068.99 702.401l-.19.511-.3.429v.005l-.36.313-.01.007-.02.018-.47.231-.19.04-.35.074-.57-.007-.6-.129-.59-.244-.56-.351-.52-.444-.45-.521-.36-.576-.26-.61-.16-.621-.04-.607.08-.57.19-.511.3-.433v-.004l.07-.055.01-.008.31-.271.47-.23M1068.87 700.604l.15.62.03.398M1065.53 697.731l.6.129M1067.28 698.456l.51.444.21.243.24.276M1076.74 693.786l-.23.379-.33.285-.41.18-.3.042-.18.025-.53-.048-.55-.161-.56-.268-.54-.365-.51-.448-.46-.513-.37-.559-.3-.582-.19-.585-.08-.564.02-.521.04-.133.09-.325.24-.379.33-.284.41-.178.48-.066.52.049.56.161.55.268.55.365.51.447.45.512.38.557.29.582.19.584.09.563-.03.521-.13.459Zm0 0-1.39 2.798M1072.33 688.783l-.93.328M1082.83 686.494l-.26.221-.35.119-.41.011-.47-.096-.51-.2-.17-.098-.35-.198-.52-.382-.5-.451-.46-.505-.4-.537-.32-.551-.05-.119-.06-.143-.12-.28-.14-.512-.04-.463.07-.397.16-.314.26-.22.25-.084.1-.033.41-.011.47.097.06.025.45.176.52.296.52.381.5.45.45.504.4.536.32.549.24.542.14.512.04.463-.07.397-.16.315Zm0 0-1.76 3.26M1087.28 680.553l-.19.15-.27.051-.34-.051-.41-.15-.46-.244-.48-.328-.5-.399-.49-.456-.19-.204-.27-.291-.42-.514-.36-.514-.28-.495-.19-.455-.11-.398v-.327l.02-.074.07-.168.18-.149.27-.05.26.039.08.012.01.001.41.151.45.244.49.327.1.084.39.315.01.01.48.446.46.493.34.411.08.102.35.513.29.494.19.455.11.399v.327l-.08.243Zm0 0-1.95 3.507"/><path d="m1082.59 675.538-.36.174-.73.356M1089.75 676.506l-.11.074-.19-.023-.28-.117-.05-.032-.29-.175-.41-.291-.4-.331-.04-.031-.47-.419-.48-.461-.43-.442-.04-.042-.44-.489-.39-.476-.33-.443-.25-.394-.17-.329-.09-.253.02-.165.09-.064.01-.009.2.023v.004l.27.114.35.209.4.29.45.361.47.419.47.46.47.483.35.391.09.097.06.079.33.396.33.442.24.374.01.02.17.33.09.253-.01.167Zm0 0-.86 1.54-1.18 2.126"/><path d="m1085.01 671.594-.01.007-2.05 1.072M1084.7 670.005l-.14-.105-.31-.187-.23-.1-.14-.007-.06.032M723.71 335.51l-8.722-4.891-5.466-3.065-8.878-4.602-8.878-4.602-8.878-4.602-4.397-2.28-8.91-4.54-8.91-4.54-8.91-4.54-4.502-2.294-1.312-.651-9.159-4.015-9.158-4.016-9.158-4.015-5.054-2.215-9.574-2.887-9.575-2.886-9.574-2.886-9.574-2.886-9.575-2.887-9.574-2.886-9.575-2.886-2.62-.79 2.858 9.583 2.858 9.583 2.859 9.582 2.858 9.583 2.858 9.583 2.858 9.583 2.858 9.583.93 3.116 3.988 9.17 3.989 9.17 3.988 9.171 2.258 5.19 4.517 8.921 4.517 8.922 4.517 8.922 2.24 4.425 4.58 8.89 4.58 8.889 4.58 8.89 2.245 4.357 4.872 8.733 3.222 5.773M1078.58 664.105l.41 1.252-2.13 3.765-4.63 6.177-5.35 6.419-.28.336-1.36 1.63-.36.404-3.14 3.553v.006l-1.06 1.192v.007l-1.02 1.152-2.48 2.797v.008l-1.03 1.166-2.14 2.322-.01.009-.78.844-.01.009-2.58 2.804-2.1 2.274v.008l-3.24 3.514-.46.481-.01.009-.33.355-.01.009-3.66 3.848-1.75 1.83v.01l-4.29 4.5-.01.01-.15.165-1.51 1.587-2.72 2.782-1.4 1.423-.01.01-4.53 4.64-.01.01-.65.661-3.68 3.763-.62.615-.98.976-.01.01-4.66 4.638-.01.009-1.12 1.118-4.35 4.335-.49.487-.01.01-1.02 1.011-3.57 3.466-.01.009-1.57 1.523-4.317 4.18-.009.009-.012.012-.009.009-3.47 3.362-.92.866-.009.008-1.994 1.875-3.537 3.326-.009.008-.535.503-.009.009-3.749 3.525-.009.008-1.356 1.275-1.046.947-2.341 2.12-.008.008-1.005.91-.008.007-3.42 3.097-2.954 2.676-.429.369-1.194 1.027-4.176 3.59-.505.434-2.704 2.325-6.89 5.436-4.533 2.949-2.041.393"/><path d="m947.726 794.689-.417 1.823 2.07-.392 4.609-2.995 7.012-5.53 3.415-2.936.035-.03 1.163-1 3.704-3.184.853-.733.409-.371 3.509-3.178 3.312-2.999.008-.007 1.005-.91.008-.008 2.423-2.194.307-.278 2.067-1.944.008-.007 3.711-3.489.009-.009.533-.501.009-.008 3.563-3.35 1.995-1.875.009-.009.449-.422 3.933-3.812.006-.006.004-.004.005-.005 4.318-4.18 1.57-1.523.01-.009 3.37-3.266 1.23-1.229.01-.01.5-.5 4.31-4.291 1.14-1.133.01-.01 4.67-4.653.01-.009 1-.993.63-.63 3.62-3.699.66-.678.01-.01 4.56-4.656v-.009l1.4-1.423 2.99-3.063 1.23-1.286.15-.166.01-.01 4.29-4.501v-.009l1.75-1.839 3.67-3.855.01-.009.34-.354.01-.01.95-1.005 2.72-2.949.01-.009 2.09-2.273 2.63-2.853.01-.008.79-.861.01-.008 2.8-3.041.31-.347v-.008l2.45-2.771 1.14-1.287.01-.008 1.08-1.219v-.007l2.98-3.369 1.29-1.457.65-.78.46-.553 6-7.202 4.7-6.284 2.17-3.826-.42-1.267-1.58.694M947.309 796.512l6.626 3.987.88.529M740.883 345.595l-1.619-.783-3.747 1.379-5.762 3.523-6.766 4.963-.639.469-.175.127-1.912 1.553-2.342 1.902-.006.005-1.17.95-.006.005-1.648 1.338-2.029 1.648-.229.198-.006.006-2.569 2.236-.008.007-.702.611-.007.006-2.421 2.107-1.972 1.716-.007.007-2.37 2.062-1.589 1.46-.008.006-.016.016-.009.008-.11.101-1.891 1.738-2.01 1.847-.007.006-5.152 4.735-.009.009-.251.23-2.831 2.727-.008.007-6.2 5.973-.009.008-2.28 2.197-.008.006-.021.021-6.446 6.492-.007.009-2.491 2.508-.008.009-2.233 2.249-3.389 3.573-.007.008-3.284 3.462-.008.008-3.859 4.07-.5.554-.006.007-1.74 1.931-2.076 2.306-.008.008-.208.231-.007.008-3.048 3.384-.006.007-1.812 2.01-.06.067-1.88 2.224-.006.007-.766.906-.006.007-1.983 2.345-2.874 3.399-.496.587-.523.676-2.375 3.069-.109.14-3.23 4.173-4.232 6.333-2.089 4.379.103 2.287M628.691 456.158l1.281 1.903.231.344"/><path d="m742.489 346.678.169-.31.57-3.009-1.671-.828-3.222 1.179-.035.012-.633.232-5.992 3.658-7.889 5.784-.223.181-1.275 1.035-2.532 2.055-2.047 1.661-.007.006-1.191.967-.006.005-1.756 1.425-.456.37-1.749 1.522-.006.005-2.625 2.284-.007.006-.65.566-.008.007-2.269 1.974-2.019 1.757-.007.006-1.384 1.204-2.795 2.568-.008.008-.508.467-.788.724-2.396 2.201-.007.007-5.019 4.611-.636.613-.009.009-2.391 2.303-.007.007-7.203 6.937-.008.009-.962.926-.007.007-.616.594-7.034 7.084-.007.007-1.469 1.479-.008.009-3.144 3.167-3.25 3.427-.007.007-2.787 2.938-.008.009-4.762 5.022-.007.007-.174.184-1.701 1.888-1.701 1.889-.007.008-.08.088-.027.03-.008.009-3.297 3.661-.006.006-1.825 2.026-1.218 1.353-.711.84-.006.007-.739.875-.006.007-1.944 2.3-3.027 3.581-1.096 1.297-.815.964-.926 1.196-1.281 1.657-.285.367-3.999 5.17-4.399 6.588-2.163 4.551.121 2.367 2.359.131 1.208-.559"/><path d="m743.227 343.36-2.242-1.732-1.678-.835-3.754 1.358-.132.048-5.977 3.632-1.793 1.31-1.391 1.018-.471.344-2.407 1.76-.84.613-.963.704-.665.539-.888.719-2.471 2.002-2.428 1.966-.008.007-.834.675-.007.006-.44.357-.005.003-1.713 1.388-.901.784-.006.004-7.548 6.56-2.227 1.936-7.366 6.763-4.107 3.77-7.204 6.936-4.584 4.414-7.045 7.097-4.564 4.596-6.879 7.258-4.062 4.287-6.689 7.433-1.694 1.882-.004.005-1.16 1.289-.008.009-.266.295-3.819 4.525-2.046 2.424-.776.92-1.018 1.207-.64.758-.657.851-1.997 2.588-.456.591-1.343 1.74-.503.651-1.379 1.788-.119.154-.931 1.399-3.439 5.171-1.038 2.199-1.106 2.344.131 2.37 1.735 2.249M1078.58 664.106l-.4-.491-1.63-1.989M1070.49 654.222l-.41-.507-6.34-7.737-6.33-7.738-6.34-7.737-6.33-7.738-3.46-4.219-6.5-7.6-6.5-7.599-6.5-7.599-6.5-7.6-6.5-7.599-5.3-6.203-6.681-7.443-6.678-7.444-6.678-7.443-6.678-7.443-6.679-7.443-5.382-5.999-6.852-7.283-6.853-7.283-6.852-7.283-6.853-7.283-6.852-7.283-5.478-5.822-7.47-6.648-7.47-6.649-7.47-6.648-7.469-6.649-7.47-6.648-6.032-5.369-7.695-6.387-7.677-6.371M634.793 465.226l.795 1.182 5.584 8.296 5.583 8.297 5.229 7.771 5.583 8.296 3.881 5.767 5.908 8.069 5.908 8.068 5.908 8.068 5.909 8.068 5.908 8.068 5.261 7.185 6.382 7.698 6.383 7.698 6.382 7.698 1.586 1.914 6.383 7.698 6.382 7.698 3.842 4.634 6.646 7.472 6.646 7.472 6.646 7.472 6.646 7.471 6.646 7.472 5.562 6.254 7.285 6.851 7.284 6.851 7.284 6.852 7.284 6.851 7.284 6.852 6.051 5.691 7.445 6.676 7.445 6.676 7.445 6.676 7.445 6.676 7.445 6.676 6.223 5.581 7.602 6.497 7.603 6.497 7.601 6.497 7.602 6.496 7.602 6.497 6.415 5.482 7.741 6.331 7.741 6.331 7.741 6.331 7.741 6.331 4.262 3.485.003.003.721.59M1096.32 885.797l1.04.075 3.09-1.332 4.35-2.75 5.46-4.072 6.36-5.243 7-6.21 7.28-6.852.08-.076 7.1-7.042.33-.325 6.92-7.222.27-.285 6.66-7.341 5.87-6.878 4.83-6.142 3.63-5.167 2.28-3.996.86-2.68-.58-1.277M1169.15 810.983l-.56-.934M1127.62 904.321l8.64 5.023 4.16 2.413 1.41.167 2.42-.923 3.35-1.984 4.16-2.975.94-.756 3.86-3.097 5.26-4.584 5.5-5.132 1.06-1.051 4.47-4.425 2.63-2.767 2.7-2.833 4.92-5.501 4.32-5.18 1.74-2.29 1.81-2.367 2.63-3.951 1.63-3.096.57-2.126-.51-1.083-5.03-8.638-2.25-3.859"/><path d="m1111.51 898.662 8.73 4.873 3.03 1.689 1.62.176 2.72-1.079.11-.043 3.96-2.387 4.92-3.569 5.7-4.617 6.26-5.487 6.56-6.137 6.6-6.543 6.37-6.683 5.9-6.553 5.17-6.159 4.25-5.523 3.17-4.669 1.42-2.645.54-.995.7-2.478-.58-1.231-4.89-8.723-1.59-2.844M1095.66 888.185l2.53-1.086 4.66-2.936 5.84-4.354 6.8-5.612 7.5-6.649 7.28-6.853.61-.57 2.11-2.091v-.005l.89-.88.01-.006 4.95-4.911.08-.09.01-.006 1.24-1.299.01-.005 6.36-6.643 6.72-7.406.42-.458 6.28-7.366 5.17-6.574 3.88-5.526 2.43-4.27.91-2.859-.36-.771M1152.7 905.286l8.22 5.694 4.28 2.959.87.102 1.47-.542 2.02-1.168 2.48-1.752 2.85-2.268 3.11-2.698 3.25-3.021 3.26-3.227 3.14-3.305 2.9-3.252 2.54-3.072 2.08-2.773 1.56-2.364.96-1.867.33-1.3-.3-.684-5.71-8.215-2.85-4.107"/><path d="m984.789 796.014 1.233 9.923 1.233 9.924.629 5.062 1.233 9.924.929 7.478 1.233 9.924 1.233 9.924 1.233 9.923 1.233 9.924 1.233 9.924.586 4.718 1.233 9.923.104.834 1.233 9.924.096.774 7.447 6.67 7.45 6.67 7.45 6.671 7.45 6.67 7.46 6.67 7.45 6.67 7.44 6.67 7.46 6.671 7.74 6.931 7.71 6.368 7.58 6.258 7.71 6.368 7.55 6.24 7.71 6.366 7.53 6.22 7.71 6.37 7.52 6.2 6.18-4.44 5.25-7.59-4.75-8.8-4.75-8.797-4.13-7.653-4.45-8.96-4.44-8.959-4-8.082-4.64-8.861-4.64-8.86-3.93-7.529-2.68-9.634-2.68-9.634-2.68-9.635-.6-2.132 2.69-9.631 1.68-6.004.4-1.414.66-2.387 2.24-7.992.61-2.203 1.73-6.162-8.16-5.787-.85-.601-.07-.055-8.16-5.787-8.16-5.786-8.15-5.787-8.16-5.786-8.15-5.787-8.16-5.786-8.15-5.787-8.16-5.786-8.16-5.787-8.15-5.786-8.16-5.787-8.154-5.786-3.494-2.479-4.883 4.254-.78.679Z"/><path d="m990.453 791.081 1.248 9.921 1.248 9.922 1.248 9.922.528 4.192 1.058 8.413 1.248 9.922 1.249 9.922 1.248 9.922 1.252 9.922 1.24 9.921 1.25 9.922 1.25 9.922.81 6.451"/><path d="m999.465 914.117 5.545-4.505.32-.258 7.45 6.672 7.45 6.672 7.45 6.671 7.45 6.67 7.45 6.672 7.45 6.672 7.45 6.672.98.88 7.45 6.671 6.94 6.212 7.7 6.37 7.62 6.293 7.71 6.37 7.59 6.274 7.71 6.375 7.57 6.25 7.71 6.37 7.55 6.24M1208.69 806.822l8.9 4.565.8.41 9.01 4.342 9 4.343 3.53 1.702 8.83 4.699 8.83 4.699 3.2 1.705 3.59-2.722M1168.56 705.626l-.71-.787-9.96-.869-9.96-.869-9.97-.869-9.96-.869-9.96-.87-9.96-.869-1.06-.092-5.44-.475M937.955 786.695l-1.396 2.489.03.117.122.206.209.286.287.354.195.227"/><path d="m939.09 786.541-.41.748-.247.449-1.061 1.935-.164.297-.02.057.074.148.141.2.023.032.248.308.323.373.387.422.433.456.464.471.478.47.472.45.449.413.409.36.353.293.283.215.202.128.115.037 2.284-1.305"/><path d="m937.207 789.97.113.036.201.128.283.214.353.293.409.36.45.413.473.451.479.471.465.473.435.457.386.423.209.241.114.131.248.308.164.232.072.147-.021.055M941.487 785.647l-.658 1.259-.084.16-.276.528-.012.022-.006.012-.406.777-.197.376-.004.229.093.307.187.375.072.112.202.316.35.464.412.483.459.483.489.464.499.429.49.376.163.108.3.201.418.23.347.139.01.004.281.049.196-.046.862-.495 2.882-1.657"/><path d="m939.848 788.782.101-.14.195-.047.167.028.114.02.357.142.418.23.463.309.492.376.5.429.489.466.222.233.239.251.413.484.18.239.17.226.133.208.141.22.186.375.092.307v.02l-.005.208-.103.139M948.554 791.353l.141-.19.008-.308-.124-.416-.153-.31"/><path d="m946.32 781.771-.667 1.38-.258.536-.84 1.737-.012.047-.066.261.006.101.019.281.06.204.068.236.226.482.315.505.393.51.454.493.499.46.026.019.498.388.53.339.515.26.34.119.141.05.427.071.358-.029.275-.127 1.597-.905.55-.312 1.403-.796"/><path d="m953.177 788.082.245-.301.109-.416-.032-.515-.045-.158-.075-.261-.051-.177-.305-.653-.426-.685-.531-.691M944.555 785.425l.18-.223.274-.129.357-.029.427.07.481.168.516.259.479.307.052.033.525.408.5.461.456.495.393.51.315.506.226.483.127.44.024.381-.08.307-.18.222M952.649 776.624l-.79 1.857-.174.407-.432 1.015-.031.073-.021.048-.147.383-.038.452.074.502.182.533.283.544.374.535.45.504.508.454.548.388.567.305.563.212.055.011.24.049.243.05.493.003.428-.102 3.143-1.706M959.637 782.864l.342-.405.202-.518.053-.61-.097-.68-.245-.722-.383-.738-.001-.001-.096-.138-.408-.585"/><path d="m951.199 780.024.052-.061.2-.239.346-.206.428-.104.284.002.209.001.179.037.359.072.564.212.568.305.549.388.51.455.45.506.375.535.263.508.02.038.059.175.103.302.019.057.073.502-.038.451-.149.383-.253.299-.347.205M1050.21 682.42l.31-.441v-.005l.04-.036.01-.009.36-.307.46-.228.03-.014.55-.125.58-.002.61.121.6.238.56.348.36.301.11.093.05.049.45.521.36.58.25.616.15.629.03.617-.09.582-.21.525-.01.016-.3.431-.01.004-.37.316v.007l-.03.025M1053.43 687.644l-.6-.12-.6-.239M1049.91 683.526l.09-.583M1051.42 681.38l-2.61.675M1054.7 688.936l1.08-2.463M1054.28 689.541l.42-.605M1050.33 685.391l-.25-.617-.15-.63M1045.67 698.41l.52-1.77.14-.622.01-.653-.11-.659-.24-.639-.34-.594-.44-.528-.53-.44-.58-.336-.06-.021-.13-.044-.44-.154-.64-.094-1.7.091"/><path d="m1046.19 696.64-.02.041-.24.527-.07.104-.01.013-.28.374-.01.005-.45.391-.54.286-.6.164-.63.036-.64-.093-.63-.219-.58-.336-.53-.441-.44-.528-.35-.596-.15-.432-.05-.115-.03-.092-.11-.66.01-.653.14-.622.26-.568.36-.486v-.005l.47-.395.54-.285.06-.017.03-.008.47-.129.03-.009.63-.036M1044.82 699.847l.01-.005.49-.664.35-.767M1035.47 707.742l-.07-.757-.09-.679-.22-.654-.33-.605-.44-.532-.53-.439-.6-.328-.7-.378"/><path d="m1035.4 706.985-.01.067v.094l-.04.516-.17.649-.29.597-.41.522v.004l-.5.421-.58.314-.63.19-.66.059-.67-.076-.64-.206-.6-.328-.53-.439-.44-.533-.34-.605-.21-.655-.09-.679v-.074l.01-.154.03-.449.17-.65.3-.597.4-.515.01-.006.5-.425.58-.314.63-.189.66-.058.02.002.13.016.51.058.56.178.02.005.05.018.02.005M1034.23 711.049l.01-.004.55-.705.4-.806.23-.878.05-.914M1022.97 717.264l.33.609.2.662.08.689-.06.688-.2.663-.32.61-.43.536v.005l-.52.435-.6.327-.66.202-.68.069-.68-.067-.66-.2-.61-.325-.53-.439-.44-.534-.33-.61-.2-.662-.07-.689.06-.689.01-.045.06-.2.12-.417.32-.611.42-.529.01-.006.53-.44.6-.327.49-.152.16-.049.04-.004.64-.065.68.067.66.2.61.325.53.439.44.534Z"/><path d="M1022.87 722.785v-.005l.58-.724.43-.825.26-.894.09-.931-.1-.929-.28-.894M1010.68 729.715l.32.61.21.661.06.686-.07.687-.2.662-.32.608-.44.534-.01.004-.53.432-.61.325-.66.2-.68.066-.69-.068-.66-.2-.61-.328-.54-.438-.44-.534-.32-.609-.2-.661-.07-.688.07-.686.03-.101.06-.209.11-.351.32-.609.44-.527v-.007l.54-.437.61-.324.27-.083.2-.06.19-.057.69-.067.68.069.67.201.61.326.53.439.44.534ZM1011.09 734.661l.01-.005.59-.72.44-.822.27-.893.1-.928-.1-.928M998.296 741.982l.328.603.204.652.072.676-.062.672-.194.644-.319.591-.43.514-.006.005-.521.414-.602.307-.655.183-.681.052-.683-.08-.657-.21-.607-.331-.533-.44-.439-.532-.328-.603-.204-.652-.073-.675.013-.143.016-.17.033-.36.194-.643.318-.591.426-.509.005-.006.526-.419.602-.307.655-.183.132-.011.158-.012.392-.03.682.08.658.21.607.331.534.44.439.533ZM999.309 746.279l.006-.005.582-.695.433-.798.26-.869.08-.909M980.064 755.147l.035-.525.003-.033.005-.087.173-.613.296-.557.402-.476.004-.005.502-.385.579-.274.633-.154.662-.027.36.055.132.02.175.026.646.225.6.341.53.443.441.528.334.593.214.635.087.653-.044.645-.173.613-.296.558-.407.48-.006.004-.497.38-.314.149-.022.01-.243.115-.632.153-.663.026-.666-.101-.645-.225-.599-.341-.53-.442-.44-.528-.334-.592-.146-.432-.043-.125-.026-.078-.087-.652Zm0 0-.005-.068M984.242 758.636l.304-.066M987.91 757.249l.005-.004.551-.649.4-.753M969.1 764.807l.139-.569.258-.511.071-.084.009-.01.283-.333.004-.004.463-.337.541-.229.597-.111.632.01.641.131.626.247.131.079.101.061.355.213.525.446.443.523.344.577.232.611.111.621-.015.607-.139.569-.259.511-.246.288-.007.008-.115.135-.006.004-.458.332-.541.227-.597.111-.631-.01-.64-.132-.626-.247-.586-.353-.524-.446-.356-.419-.087-.102-.344-.577-.232-.61-.111-.62.014-.607Zm0 0 .031-.158M973.82 768.819l.303-.122M959.394 773.168l.208-.452.312-.367.004-.004.41-.276.027-.009.009-.004.453-.158.551-.058.589.056.606.168.6.274.57.369.518.451.105.121.088.101.254.292.357.558.256.581.142.581.025.558-.094.515-.003.007-.004.008-.202.436-.316.371-.005.003-.406.272-.49.17-.55.057-.589-.056-.606-.169-.598-.274-.318-.206-.138-.089-.113-.074-.518-.45-.445-.513-.358-.557-.255-.58-.143-.58-.026-.558.093-.515Zm0 0 .013-.038M964.449 777.562l.01-.005M968.597 774.024l-.033-.755-.193-.785M1078.4 657.306l-.03-.008-.12-.099-.2-.188-.28-.269-.36-.34-.4-.398-.45-.441-.47-.466-.47-.473-.46-.463-.42-.434-.38-.389-.31-.329-.24-.256-.16-.173-.06-.084.03.008.12.101.2.188.29.27.35.34.4.397.45.44.47.465.47.472.45.462.43.433.37.389.32.329.24.256.15.174.07.086Zm0 0-.75 1.337M1073.59 652.496l-.74.414-.57.313-1.79 1"/><path d="m964.854 777.29-.003.004-.393.263-.018.012-.49.17-.55.057-.589-.056-.606-.169-.598-.274-.317-.205-.138-.089-.114-.075-.518-.45-.446-.513-.357-.557-.255-.58-.143-.58-.026-.558.093-.515.021-.045.187-.406.315-.371.005-.004M965.471 775.958l-.094.514-.003.007-.206.444M960.32 772.076l.036-.012.009-.004.444-.154.55-.059M964.441 777.569l2.753-1.358M964.242 773.165l.106.122.088.101M971.314 768.55l-.586-.353-.524-.446-.356-.419-.087-.102-.344-.577-.232-.61-.111-.621.014-.606.04-.167.099-.403.258-.51.08-.094.009-.011.278-.327.005-.004.458-.332.541-.229.597-.111.632.01.641.13.626.247.132.08.101.061.354.213.525.446.443.522.344.578.232.611.111.621-.015.607-.139.569-.259.51-.239.28-.007.008-.119.139-.004.004-.463.336-.229.097-.312.131-.597.111-.631-.011-.641-.131-.625-.247ZM969.538 762.555l-.448 2.261M975.914 767.975l.731-.308.626-.454M973.809 768.828l2.105-.853M985.952 757.829l-.004.005-.503.385-.293.139-.021.01-.265.125-.318.077-.314.076-.663.026-.666-.101-.645-.226-.599-.34-.53-.442-.44-.528-.334-.592-.146-.432-.042-.124-.027-.079-.087-.652.005-.078.032-.48.003-.033.003-.054.173-.613.295-.558.407-.48.006-.005M986.781 754.887l.087.653-.044.645M979.945 753.636l.108 1.521M985.59 758.35l.855-.207.782-.37.679-.519.005-.005M984.234 758.647l1.357-.297M985.262 752.688l.531.442.44.529M993.344 746.742l.82.448.888.283.922.109.921-.071.884-.248.813-.414.711-.566.005-.005"/><path d="m994.078 747.015-.607-.332-.533-.44-.439-.532-.328-.603-.204-.652-.072-.675.013-.142.015-.17.033-.36.194-.644.318-.591.431-.514.006-.005.521-.414.602-.307.654-.184.134-.01.158-.012.39-.031.683.08.658.21.607.331.533.441.439.532.328.604.204.652.073.675-.062.673-.195.643-.318.591-.426.509-.005.005-.527.419-.602.307-.654.183-.682.053-.683-.081-.657-.209ZM1010.23 734.167v.006l-.54.438-.61.325-.66.199-.69.067-.68-.068-.67-.202-.61-.326-.53-.438-.44-.535-.32-.609-.2-.661-.07-.687.07-.687.03-.1.06-.21.11-.351.32-.609.44-.533.01-.005M1006.86 728.279l.19-.056.68-.067.69.069.66.201.61.326.54.439.44.534.32.609.2.662.07.687-.07.687M1010.99 733.031l-.32.609M1005.77 728.749l.61-.325M1005.89 735.692l.9.272.93.092.93-.09.89-.27.82-.438.73-.591v-.006M1018.76 722.503l-.61-.325-.53-.439-.44-.534-.33-.61-.2-.662-.08-.689.07-.689.01-.045.06-.201.12-.416.32-.611.43-.535v-.005l.52-.435.61-.327.49-.152.16-.049.04-.004.64-.065.68.067.66.2.61.325.53.438.44.535.33.609.2.662.08.688-.07.689-.19.663-.32.61-.42.53-.01.006-.52.44-.6.327-.66.202-.68.069-.68-.067-.66-.2ZM1018.61 724.103l.93.09.92-.093.88-.273.81-.442.71-.594.01-.006M1034.75 705.058l.33.604.22.654.09.679-.01.042v.06l-.04.575-.17.65-.29.597-.4.515-.01.006-.5.426-.58.314-.63.19-.66.058-.67-.075-.64-.206-.6-.329-.53-.439-.44-.532-.34-.605-.21-.655-.09-.679v-.075l.01-.154.03-.449.17-.649.3-.597.4-.521.01-.005.5-.421.57-.313.64-.189.66-.058.02.002.13.015.51.058.63.201.02.005.17.092.43.237M1031.02 712.391l.9-.079.85-.257.78-.424.68-.576v-.006M1045.56 697.704v.005l-.46.396-.54.286-.6.164-.63.036-.64-.093-.62-.219-.59-.336-.53-.441-.44-.529-.34-.595-.16-.433-.04-.115-.04-.092-.11-.659.01-.653.14-.623.26-.567.37-.491v-.005M1042.82 691.867l.64.094.44.153.12.044.06.022.59.336.53.44.44.528.34.594.24.639.11.659M1046.18 696.65l-.26.568-.06.092M1041.05 692.349l.54-.284.09-.025.03-.007M1043.46 700.774l.73-.386.63-.536v-.005M1055.77 686.482l-.31.442v.005l-.37.313v.007l-.04.032-.49.243-.55.126-.59.003-.6-.12-.6-.239-.57-.347-.52-.444-.4-.469-.05-.053-.03-.049-.32-.532-.26-.617-.14-.63-.03-.618.09-.582.21-.524.31-.447.01-.003.04-.041.01-.008.35-.299.49-.242.55-.125.58-.002.61.121.6.238.57.348.35.3.11.093.05.049.45.522.36.58.25.616.15.629.03.617-.09.582-.21.525Zm0 0v.007M1051.41 681.389l-.02.005M1064.1 677.052l-.24.389-.35.296-.42.189-.29.046-.2.031-.54-.04-.56-.155-.57-.264-.36-.238-.13-.087-.06-.037-.51-.447-.45-.514-.38-.563-.28-.588-.18-.592-.08-.572.04-.531.03-.114.07-.222.04-.132.25-.39.35-.294.42-.188.29-.044.2-.031.54.04.56.156.57.263.55.362.51.446.44.514.38.561.01.024.08.164.2.399.18.591.08.572-.04.53-.15.47Zm0 0-1.47 2.898M1059.7 672.035l-2.54.956M1059.11 680.976l.76.209.72.053M1064.46 672.126l.71.513.37.205.19.103.16.088.69.264.65.121.58-.025.48-.171.36-.309M1070.5 669.539l-.27.229-.35.126-.42.017h-.01l-.25-.047-.23-.043-.51-.196-.18-.096-.35-.197-.53-.38-.5-.451-.45-.505-.4-.54-.13-.234-.19-.321-.09-.235-.13-.311-.13-.519-.03-.47.07-.403.18-.322.27-.227.3-.104.06-.021.42-.016.48.091.44.167.08.029.52.293.53.379.5.45.45.505.4.539.31.553.23.546.13.518.02.27.01.2-.01.077-.06.327-.18.322Zm0 0-1.85 3.375M1065.87 664.415l-3.47 1.57M1069.52 665.799l.67.539.67.441.62.325.56.198.36.048.12.015.38-.075.26-.209M1075.2 663.455l-.19.154-.27.054-.36-.047-.41-.147-.47-.241-.49-.327-.5-.398-.46-.435-.03-.021-.46-.496-.41-.515-.35-.517-.28-.497-.19-.458-.1-.402.01-.331.02-.063.07-.183.2-.153.28-.053.22.031.13.017.42.148.46.241.49.326.48.389.01.009.22.201.27.254.46.494.42.515.09.131.26.384.28.496.19.459.09.402v.332l-.1.247Zm0 0-1.79 3.183-.25.443M1070.53 658.432l-.38.189-.82.412-2.4 1.206M1077.85 659.346l-.11.074-.2-.021-.26-.109-.02-.008-.35-.207-.4-.29-.29-.231-.16-.131-.48-.419-.47-.461-.47-.484-.44-.49-.39-.476-.32-.444-.25-.394-.17-.33-.08-.253.02-.166.11-.074.14.017.06.006.28.118.35.207.41.29.44.362.48.418.47.46.47.483.43.489.06.07.1.118.23.287.33.443.25.394.03.049.14.282.08.254-.02.167Zm0 0-1.3 2.28-.85 1.506"/><path d="m1073.12 654.432-1.7.918-.51.27-.07.038-.13.073-.37.196M1075.3 663.208l.25.026.15-.102M1072.85 652.91l-.08-.054-.31-.182-.23-.094-.14-.002-2.01 1.138M1105.3 895.194l-.55.966-.01.028.04.08.09.128.14.171.17.207.21.236.24.255.25.265.26.265.26.253.25.234.22.203.19.167.15.122.04.026"/><path d="m1106.31 895.765-.17.33-.45.847-.04.072.02.067.07.115.12.159.16.196.21.226.23.247.25.259.27.26.26.252.01.006.25.229.24.207.21.173.18.131.13.085.09.034.03-.016 1.17-.68"/><path d="m1105.65 897.014.04-.017.08.034.13.085.18.13.21.173.24.208.26.234.27.253.26.261.26.259.08.086.15.161.2.226.17.196.12.159.07.115.01.067M1108.38 895.29l-.25.516-.06.127-.16.315-.02.045-.13.275-.07.128-.02.112.02.081.01.075.09.196.14.226.18.248.22.262.25.264.03.035.24.222.28.239.28.214.14.094.13.084.24.138.22.09.18.041.12-.012 1.07-.643.95-.57"/><path d="m1107.69 896.696.08-.063.09-.008.04-.004.17.04.03.013.19.078.17.094.08.043.04.03.22.149.28.213.1.085.19.155.15.148.12.109.25.265.08.099.14.162.17.234.01.015.14.226.08.196.03.156-.02.112-.08.062M1112.45 898.092l.11-.085.03-.151-.04-.212-.02-.047"/><path d="m1111.71 893.149-.89 2.055-.07.156v.197l.05.231.12.256.16.271.21.275.25.27.27.253.29.227.3.193.13.063.17.087.28.103.25.051.22-.003.17-.057 1.87-1.15"/><path d="m1115.49 896.628.16-.146.09-.211.01-.267-.08-.313-.15-.346-.22-.367-.28-.373-.34-.365M1110.82 895.205l.12-.108.17-.058.21-.003.25.05.28.103.3.15.3.193.29.227.28.254.24.27.21.275.17.272.11.256.05.231v.197l-.06.155-.12.109M1115.5 890.917l-.66 1.858-.03.236.02.265.09.284.15.292.2.289.24.274.28.25.31.215.32.173.32.123.3.07.29.012.25-.044.21-.1 1.69-1.034M1119.49 894.08l.21-.206.13-.267.05-.319-.04-.359-.12-.385-.19-.395-.27-.391-.33-.372"/><path d="m1114.84 892.774.1-.198.16-.152.2-.101.25-.044.21.009.08.003.31.069.32.124.32.172.3.216.28.25.25.275.2.289.14.292.05.168.04.116.03.266-.04.235-.1.198-.15.152M1171.82 843.138l.67-1.232.1-.299.04-.329-.02-.348-.08-.352-.15-.342-.2-.32-.24-.286-.28-.24-.31-.186-.32-.124-.33-.057-.31.012-1.41.221M1170.94 842.552l-.33-.124"/><path d="m1172.12 842.37-.13.072v.002l-.13.072-.29.081M1169.33 840.353l.04-.329.1-.3M1169.63 839.467l.16-.152v-.005l.05-.048.26-.146.25-.069.04-.011M1172.49 841.906l-.01.018-.15.24M1171.6 843.489v-.002l.22-.348M1169.58 841.396l-.14-.343M1166.93 849.015l.43-.951.14-.319.06-.348v-.363l-.06-.366-.13-.352-.19-.327-.25-.288-.28-.239-.32-.18-.33-.115-.35-.044-1.03-.084M1165.65 848.814l-.34-.114-.32-.18-.28-.239-.25-.289"/><path d="M1167.15 848.36v.004l-.22.203-.29.165-.31.098-.34.028M1164.08 846.947v-.364l.07-.348.13-.319.19-.277.24-.226.29-.165.26-.081.01-.003.05-.014.3-.024.03-.003M1167.36 848.063v.01l-.19.268M1166.67 849.393v-.003l.26-.375M1161.7 854.367l.08-.41.02-.374-.05-.373-.12-.359-.19-.331-.24-.29-.29-.238-.38-.28M1160.41 855.461l-.36.037-.36-.037-.35-.109-.32-.177"/><path d="m1158.24 852.851.16-.331.21-.29.27-.238.31-.177.34-.108.35-.037.36.037.35.108.16.088.03.02.08.041.05.028M1161.78 853.957l-.02.077-.05.218-.01.026-.01.038-.15.331-.22.29-.27.238-.3.177M1161.08 855.695v-.003l.29-.392.21-.447.12-.486M1158.49 854.647l-.18-.331-.12-.359-.05-.373.02-.374M1151.85 859.66l.17-.335.23-.294.28-.242.33-.18.35-.113.37-.039.37.034.35.107.33.176.29.238.24.291.18.332.11.361.04.376-.03.377-.1.362-.17.335-.23.294-.29.242-.32.181"/><path d="M1155 862.194v-.002l.31-.398.23-.452.14-.491.04-.509-.05-.508-.16-.488-.24-.449-.32-.393M1153.63 862.315l-.37-.034-.36-.108M1151.87 861.136l-.11-.362-.05-.376M1145.16 866.443l.18-.33.24-.29.29-.237.33-.176.36-.108.37-.036.38.037.36.11.33.177.29.238.24.291.17.331.11.359.04.373-.04.373-.11.358-.17.33-.24.29-.29.237-.34.176"/><path d="m1148.62 868.683.01-.003.32-.391.24-.446.15-.485.05-.504-.05-.504-.15-.485-.24-.448M1146.55 869.053l-.35-.11-.34-.177M1145.34 868.237l-.18-.331-.11-.359M1138.82 872.387l.29-.224.33-.163.36-.097.37-.026.37.046.36.116.33.181.29.239.24.289.18.327.11.353.04.365-.04.362-.11.347-.18.318-.24.276M1142.17 874.951v-.002l.32-.373.24-.43.15-.468.05-.491-.05-.493-.15-.476-.24-.443M1141.23 875.319l-.33.163-.36.097-.37.026-.37-.046-.36-.116M1138.4 874.408l-.11-.353-.03-.364.03-.363.11-.347.18-.317M1132.18 878.513l.28-.203.33-.143.35-.078.36-.01.37.059.36.126.32.187.29.241.24.287.18.32.12.343.04.351-.03.346-.1.328-.17.297-.23.255M1132.52 881.279l.33.187.35.126.37.059.37-.01M1135.83 880.801v-.002l.31-.344.23-.402.14-.443.04-.468-.06-.475-.15-.463M1131.99 880.751l-.18-.32-.11-.342-.04-.351M1125.6 885.787l-.12-.328-.05-.333.01-.324.09-.302.07-.133.01-.007.07-.13.21-.226.26-.175.31-.116.33-.053.36.013.35.076.35.139.32.195.29.244.24.283.18.312.13.329.05.332-.02.324-.08.303-.15.261v.004l-.01.004-.21.226-.26.175-.31.116-.33.052-.35-.012-.36-.077-.35-.139-.32-.195M1129.81 886.044l.01-.002.28-.306.21-.365.11-.409.03-.438-.08-.449-.16-.445-.25-.422M1119.82 889.115l.13-.236.19-.192.1-.061v-.003l.13-.076.29-.083.31-.022.33.039.34.098.34.155.31.204.28.247.25.28.19.301.13.312.07.31v.296l-.04.158v.004l-.02.11-.13.236-.19.191v.002l-.24.138-.28.082-.31.023-.33-.039-.34-.099-.34-.155-.31-.204-.29-.247-.24-.279-.19-.301-.13-.311-.07-.31v-.296l.06-.272ZM1124.31 890.513l.25-.259.17-.319.09-.367v-.401l-.1-.42-.17-.421-.26-.408-.33-.378"/><path d="m1122.83 891.384 1.29-.758.19-.111v-.002M1183.21 823.465l-.05-.033-.1-.084-.14-.132-.19-.172-.22-.208-.24-.237-.25-.255-.27-.263-.25-.263-.24-.25-.22-.23-.19-.2-.14-.161-.1-.118-.05-.07v-.018l.05.034.1.083.15.13.18.174.22.209.24.236.26.255.26.263.26.262.24.25.21.229.19.2.14.162.1.117.06.07-.01.02Zm0 0-.41.743M1180.56 820.771l-.24.132-.42.232-.79.435"/><path d="m1120.23 887.451-.41 1.669-.07.271.01.297.06.309.14.312.19.301.24.279.28.247.32.204.33.155.34.098.33.039.32-.022.28-.082.24-.14 1.47-.871"/><path d="M1119.82 889.12v-.013l.12-.223.19-.192.11-.064v-.003l.13-.073.28-.083.31-.022.34.038.34.099.33.155.32.204.28.247.24.279.19.302.13.311.07.31.01.297M1123.14 890.96l-.12.236-.19.19v.002M1124.3 890.517l.01-.002M1125.55 883.474l-.11 1.333-.02.324.06.332.12.328.18.312.24.283.29.244.32.195.35.138.35.077.35.013.34-.053.3-.116 1.13-.602M1126.79 883.665l.35.012.36.077.34.138.33.195.28.244.24.284.19.312.12.328.05.333"/><path d="M1125.44 884.807v-.025l.08-.278.08-.14.01-.007.06-.122.22-.227.26-.174.3-.116M1128.95 886.214l-.14.258-.01.004v.008l-.21.226-.25.166-.02.008M1129.45 886.282l.36-.236v-.002M1131.51 879.277l.18.817.11.342.18.32.24.287.29.241.33.187.35.126.37.059.37-.01.35-.077.73-.298"/><path d="M1131.69 880.095v-.069l-.04-.282.01-.039v-.018l.02-.289.1-.328.17-.297.23-.255.28-.203.32-.143.35-.078.37-.01.37.059.35.126.33.187.29.241.24.287.18.32.11.343.04.351-.03.346-.1.328-.17.297-.22.255-.15.104-.01.005-.13.094-.24.108-.08.035M1135.01 881.272l.44-.194.38-.274v-.003M1138.5 874.857l.4.323.44.245.49.156.5.062.51-.035.48-.13.45-.221.39-.303.01-.003"/><path d="m1141.93 873.081.11.353.04.364-.04.363-.11.347-.17.317-.24.277-.29.224-.33.163-.36.096-.37.026-.36-.044-.02-.002-.36-.115-.01-.007-.32-.174-.29-.24-.24-.289-.17-.327-.11-.352-.04-.365.04-.363.11-.346.17-.318.24-.276.29-.224.33-.164.36-.096.38-.026.37.046.36.115M1144.96 868.679l.39.322.45.24.48.148.51.051.51-.049.48-.146.45-.238.39-.321v-.003"/><path d="m1148.52 868.249-.24.29-.29.237-.33.176-.36.108-.38.036-.37-.037-.36-.11-.33-.177-.29-.239-.24-.29-.18-.331-.11-.359-.03-.373.03-.373.11-.358.18-.331.24-.289.29-.237M1146.55 865.307l.38-.036.37.038.36.109.33.178.29.237.24.291.18.331.11.359.03.373-.03.373M1151.78 862.544l.44.238.48.145.5.047.5-.054.48-.152.44-.244.38-.327v-.004M1155.18 861.452l-.23.294-.28.242-.33.181-.35.112-.37.04-.37-.035-.35-.107-.33-.176-.29-.238-.24-.29-.18-.332-.11-.362-.04-.376.03-.376.1-.363.17-.335.23-.294.29-.242M1152.85 858.615l.35-.113.37-.039.37.034.35.107.33.176.29.238.24.291.18.332.11.361.04.376-.03.377-.1.362M1157.96 856.02l.44.239.47.147.49.05.48-.05.46-.148.41-.239.36-.322.01-.003M1161.32 854.942l-.27.238-.31.177-.34.109-.35.037-.36-.037-.35-.109-.32-.177-.29-.238-.24-.29-.19-.331-.12-.359-.05-.373.02-.374.09-.359.15-.331.22-.29M1161.77 853.962l.02-.374-.05-.373-.12-.359M1161.77 853.963l-.06.269-.01.026-.02.064M1159.18 851.821l.34-.109.36-.036.36.036.34.109M1167.36 848.07l-.19.277-.02.015v.005l-.22.206-.29.165-.32.099-.33.027-.35-.044-.33-.115-.32-.18-.29-.239-.24-.288-.19-.327-.13-.353-.07-.365v-.364l.07-.348.13-.319.2-.277.24-.226M1167.56 847.039l-.07-.365-.13-.353-.19-.326-.24-.289-.29-.239M1167.49 847.75l.07-.348M1164.15 849.881l.45.154.47.06.45-.037.43-.133.39-.224.33-.305v-.003M1164.99 845.254l.28-.084.01-.004.03-.01M1166.33 845.287l-.34-.114-.34-.044M1168.86 843.597l.42.251.43.167.44.077.42-.017.39-.109.35-.197.29-.278v-.003M1172.49 841.912l-.16.257-.22.205-.12.07v.002l-.13.074-.29.081-.31.012-.33-.057-.32-.124-.31-.185-.28-.241-.24-.286-.2-.32-.15-.343-.08-.352-.03-.348.05-.329.1-.299.16-.258.16-.157.01-.005.04-.043.26-.145.29-.081.31-.011.32.057.33.123.3.186.28.24.25.286.2.32.14.343.09.351.02.348-.04.329-.1.3ZM1172.85 837.766l.37.328.4.261.41.184.41.099.38.012.35-.076.3-.162.24-.241M1176.63 836.604l-.18.179-.22.119-.26.057-.01-.001-.27-.008-.3-.074-.31-.136-.29-.193-.28-.243-.25-.283-.21-.312-.16-.329-.1-.334-.06-.325.01-.305.06-.224.01-.049.13-.229.17-.178.22-.119.26-.056.29.009.3.074.3.136.29.193.28.242.25.283.21.311.16.329.11.334.05.325-.01.305-.07.273-.12.229Zm0 0-.92 1.567M1174.33 833.617l-1.72.514M1176.31 832.963l.37.332.38.273.39.205.36.128.35.046.29-.036.25-.119.18-.195M1179.95 831.823l-.14.144-.18.087-.22.027-.25-.034-.28-.095-.15-.079-.13-.073-.29-.202-.27-.245-.25-.279-.22-.301-.18-.313-.13-.312-.01-.024-.07-.274-.03-.275.03-.24.08-.196.14-.144.18-.087.22-.026.25.035.28.095.28.151.28.202.27.245.26.278.22.301.18.313.13.311.08.299.03.275-.03.24-.08.196Zm0 0-1.07 1.774M1177.58 828.908l-1.9.748M1178.76 829.01l.36.336.37.287.35.229.33.16.3.087.24.009.19-.068.12-.144M1182.18 827.967l-.09.106-.14.05-.18-.007-.22-.064-.24-.119-.26-.169-.27-.213-.27-.248-.26-.274-.23-.289-.2-.294-.16-.286-.11-.268-.07-.24-.01-.203.03-.112.01-.044.09-.106.14-.05.18.008.22.064.24.119.27.169.27.213.26.248.26.273.23.289.2.293.16.287.05.108.06.16.07.24.01.202-.04.157Zm0 0-1.16 1.939M1179.6 825.187l-.16.076-1.91.883M1183.28 825.15l-.05.063-.09.01-.14-.044-.18-.097-.22-.145-.15-.116-.09-.073-.26-.224-.26-.251-.26-.269-.08-.097-.16-.179-.22-.273-.19-.259-.15-.235-.11-.201-.05-.162-.01-.114.05-.063.1-.009.14.044.18.097.21.146.24.188.26.224.08.082.18.169.26.268.24.276.22.273.03.03.16.228.15.235.11.202.05.161.01.115Zm0 0-1.1 1.885-.1.172"/><path d="m1180.66 822.421-.83.427-.14.073-.13.065-.16.083-.01.008M1180.32 820.903l-.08-.072-.25-.2-.22-.163-.18-.121-.14-.074-.1-.023-.74.43M620.156 444.389l.255.269.364.369.377.372.378.359.364.334.335.294.293.245.241.185.179.118.111.047.042-.024"/><path d="m619.148 440.406-.968 1.664.046.113.118.182.185.243.244.296.295.337.334.366.36.379.372.379.023.023.348.341.355.336.325.293.283.241.23.178.168.11.1.036.216-.116.211-.113"/><path d="m618.18 442.07.027-.039.099.035.168.109.23.178.283.241.326.294.056.054.299.282.371.365.374.38.36.38.335.366.295.337.244.296.184.243.117.181.046.112-.028.039M620.51 436.416l-1.702 2.852-.031.051-.019.176.054.243.127.301.195.346.015.022.239.357.304.397.342.399.065.068.061.065.242.254.379.36.376.319.358.265.327.202.042.02.24.11.228.055.164-.025.483-.24.267-.133"/><path d="m618.777 439.318.037-.04.057-.063.163-.025.228.054.282.13.151.093.176.108.358.266.377.319.2.19.18.17.368.388.343.401.305.397.219.328.035.051.194.347.126.3.054.243-.02.175-.094.102M622.696 432.267l-1.639 2.723-.085.237-.007.301.07.354.144.394.028.055.186.363.275.427.325.419.363.395.388.355.396.303.391.239.369.165.334.085.211.001.076.001.227-.082"/><path d="m621.055 434.99.159-.162.227-.082.286.001.334.085.37.165.391.238.397.303.388.357.364.395.326.42.275.427.214.419.144.394.069.354-.008.301-.086.236-.159.161M626.435 426.725l-1.471 2.476-.147.291-.067.354.016.403.097.437.175.454.247.454.309.437.358.401.396.352.416.289.421.214.41.132.384.044.342-.046"/><path d="m624.965 429.201.222-.216.287-.134.342-.046.384.043.162.052.248.079.422.215.417.288.396.353.359.402.309.437.247.455.175.455.097.437.001.024.014.379-.068.354-.147.29-.222.216-.288.133M705.781 353.662l.013-.453-.086-.467-.18-.464-.269-.443-.346-.405-.411-.352-.46-.285-.49-.207-.503-.122-.496-.03-.47.061-.425.15-1.818.944"/><path d="m705.78 353.662-.02.077-.09.343-.204.372-.123.131-.007.007-.16.171-.004.003-.361.231-.425.151-.47.062-.496-.03-.503-.121-.492-.207-.46-.286-.411-.352-.347-.406-.269-.443-.18-.465-.086-.468.014-.452.111-.421.129-.235.003-.005.072-.131.288-.305.003-.004.347-.222.018-.012M697.138 360.559l-.067-.496-.166-.486-.261-.457-.345-.411-.415-.349-.469-.273-.507-.187-.523-.094-.521.002-.498.1-1.257.526"/><path d="m697.139 360.559-.005.069-.031.418-.042.139-.005.016-.091.304-.234.414-.321.354-.004.003-.392.275-.455.192-.498.1-.521.003-.524-.094-.507-.187-.47-.273-.416-.349-.344-.411-.261-.458-.167-.486-.066-.497.036-.487.139-.46.234-.414.318-.348.003-.004.038-.027.011-.007.339-.238.009-.006.455-.192M687.322 367.448l.054.098.088.161.029.053.085.155.158.503.055.518-.051.514-.155.49-.253.447-.34.386-.005.004-.411.308-.475.225-.515.13-.537.028-.537-.073-.516-.172-.477-.264-.418-.346-.344-.416-.255-.468-.159-.503-.054-.518.051-.514.155-.49.253-.447.337-.382.004-.004.416-.312.475-.225.261-.065.037-.009.165-.042.052-.013.537-.028.536.073.517.172.476.264.418.347.343.415ZM684.496 366.205l-.641.077M677.594 376.551l.255.475.155.514.05.533-.056.531-.161.51-.26.469-.348.409-.004.004-.419.33-.481.247-.523.148-.542.046-.542-.059-.52-.162-.48-.258-.419-.344-.343-.418-.254-.475-.155-.514-.051-.533.057-.532.161-.51.26-.468.344-.405.004-.005.423-.334.482-.246.522-.148.542-.046.542.059.52.162.479.258.419.344.343.418ZM667.781 386.134l.256.478.158.519.055.539-.052.54-.156.519-.256.478-.342.42-.004.004-.414.34-.476.256-.518.158-.537.053-.539-.052-.518-.157-.477-.256-.419-.343-.344-.419-.255-.478-.159-.519-.054-.54.052-.539.156-.52.255-.478.338-.415.004-.004.418-.345.477-.256.518-.157.537-.054.538.053.519.157.477.255.419.344.343.419ZM658.207 395.878l.261.477.166.518.065.538-.038.538-.141.516-.237.476-.325.417-.003.004-.396.338-.459.254-.501.155-.524.052-.527-.054-.509-.158-.472-.256-.416-.344-.346-.418-.261-.477-.166-.517-.066-.538.039-.538.14-.517.237-.476.32-.412.004-.005.4-.342.459-.253.5-.156.525-.052.527.054.508.158.473.256.417.343.346.419ZM644.68 405.831l.208-.462.055-.075.008-.011.228-.311.004-.005.369-.327.43-.24.475-.143.5-.04.508.063.494.164.463.26.414.345.348.416.269.473.18.51.084.528-.016.526-.114.503-.208.462-.295.401-.004.004-.366.323-.43.24-.474.142-.334.027-.026.002-.141.012-.507-.064-.494-.164-.463-.26-.413-.344-.348-.417-.269-.472-.18-.509-.084-.528.015-.526.114-.503Zm0 0 .015-.041M646.801 409.554l.164.03M636.963 414.326l.251-.372.002-.004.279-.254.006-.006.044-.04.391-.215.438-.119.468-.021.481.08.475.176.45.267.409.346.351.414.28.463.199.497.109.511.015.504-.078.479-.17.436-.254.375-.004.003-.325.297-.103.056-.012.007-.276.151-.438.119-.468.02-.481-.08-.474-.176-.45-.267-.408-.346-.351-.413-.28-.463-.199-.496-.109-.51-.016-.505.078-.479.17-.435Zm0 0 .004-.008M639.949 418.476l.036-.004M630.203 422.45l.202-.334.002-.004.279-.263.342-.179.129-.028.006-.001.259-.058.429.008.448.103.45.193.435.276.403.35.355.408.293.452.221.478.14.486.054.474-.035.446-.123.399-.072.118-.004.007-.128.212-.003.003-.276.26-.343.177-.393.087-.429-.008-.448-.103-.45-.194-.434-.276-.402-.349-.354-.408-.294-.451-.221-.477-.14-.485-.054-.475.035-.445.121-.399Zm0 0 .02-.035M633.668 426.433l.016-.004M730.934 338.599l-.016.005-.089-.068-.159-.139-.222-.204-.278-.261-.322-.309-.353-.344-.373-.366-.376-.374-.365-.368-.342-.347-.303-.313-.254-.268-.195-.211-.128-.147-.057-.076.017-.004.09.069.159.139.223.205.277.261.322.308.353.344.372.365.375.374.365.367.341.346.303.313.254.268.195.211.129.147.057.077Zm0 0-.244.44-.163.294M727.104 334.809l-1.006.566"/><path d="m634.61 425.262-.122.399-.068.112-.004.007-.13.215-.002.004-.28.262-.321.167-.021.011-.394.087-.429-.009-.447-.103-.45-.193-.434-.276-.402-.349-.355-.408-.293-.451-.221-.477-.14-.486-.054-.474.034-.445.122-.399.025-.042.179-.296.003-.003.275-.26.343-.179.135-.03M634.594 424.343l.053.475M631.359 420.408l-1.16 2.049M633.18 422.17l.402.349.355.409M641 414.585l.28.464.198.497.109.51.016.505-.079.479-.17.435-.251.371-.003.004-.329.3-.09.05-.012.006-.289.158-.395.108-.043.011-.468.021-.48-.08-.475-.177-.45-.266-.408-.346-.351-.413-.28-.464-.198-.496-.109-.51-.016-.504.078-.479.169-.436.011-.015.243-.36.004-.004.28-.256.007-.006.037-.035.391-.214.438-.12.469-.02.481.079.474.177.451.266M637.794 412.658l-.841 1.674M649.079 408.871l-.004.005-.369.326-.43.24-.475.142-.308.025-.025.002-.167.014-.336-.042-.171-.022-.495-.164-.462-.26-.413-.344-.348-.416-.269-.473-.18-.509-.084-.528.015-.526.114-.503.022-.049.186-.413.063-.085.008-.011.223-.306.004-.003.366-.324M649.692 407.51l-.114.503M645.973 404.408l.474-.143M645.068 404.736l-.396 1.102M647.949 404.452l.463.26M655.031 399.957l-.472-.255-.416-.344-.346-.419-.261-.477-.166-.517-.065-.538.038-.537.14-.517.237-.476.324-.417.004-.004.395-.338.46-.254.501-.156.524-.052.527.054.509.158.472.256.417.344.346.418.261.478.166.517.065.538-.038.538-.141.517-.237.476-.32.412-.004.005-.4.342-.459.253-.501.156-.524.052-.527-.055-.509-.158ZM667.44 389.631l-.003.004-.418.345-.477.255-.517.158-.538.054-.539-.053-.517-.157-.478-.255-.419-.344-.344-.419-.255-.478-.158-.519-.054-.539.052-.54.156-.519.254-.478.342-.42.005-.004M664.422 385.126l.517-.158.538-.054.539.053.518.157.477.256.419.343.344.419.256.478.158.519.053.54-.052.539-.156.519M678.046 378.08l-.057.532-.161.51-.259.468-.344.405-.004.004-.423.335-.482.246-.522.149-.543.046-.541-.06-.521-.161-.479-.258-.419-.345-.344-.418-.254-.475-.155-.514-.05-.533.056-.532.162-.51.259-.468.348-.409.005-.004.418-.33.482-.246.522-.149.543-.046.541.059M677.586 376.56l.254.474.155.514M687.315 367.455l.113.207.029.053.113.208.159.503.054.518-.051.514-.154.49-.253.446-.337.383-.004.004-.415.312-.475.225-.516.129-.536.029-.537-.073-.517-.172-.476-.264-.419-.347-.343-.415-.256-.468-.158-.503-.055-.518.052-.514.155-.49.253-.447.341-.387.004-.003.411-.308.475-.225.298-.074.037-.01.181-.045.536-.028.537.073.516.172.477.264M696.406 362.276l-.004.004-.396.278-.455.193-.498.099-.521.003-.524-.094-.507-.187-.47-.273-.416-.349-.344-.411-.261-.458-.167-.486-.066-.497.036-.487.139-.46.234-.414.321-.352.005-.003M696.898 359.584l.166.486.067.496-.036.487M693.359 357.915l.498-.1.521-.003.523.095M695.406 358.094l.469.273.415.349.345.411M705.457 354.459l-.115.123-.007.008-.164.175-.004.003-.364.234-.426.151-.469.062-.496-.03-.504-.121-.491-.207-.46-.285-.411-.353-.347-.406-.269-.443-.181-.465-.085-.468.013-.452.111-.421.133-.24.003-.006.069-.125.291-.309.004-.002.361-.232M705.52 352.283l.181.464M702.547 350.439l.496.031M703.543 350.592l.491.207M713.421 347.906l-.165.321-.248.257-.323.182-.131.035-.254.067-.433.015-.463-.069-.476-.154-.47-.23-.447-.299-.406-.357-.349-.399-.28-.427-.199-.439-.111-.433-.018-.412.002-.011.073-.362.166-.321.249-.256.323-.182.386-.101.432-.015.463.07.475.154.47.23.446.299.405.356.349.399.28.426.199.438.111.433.018.411-.074.374ZM709.139 344.615l-2.291 1.303M719.987 343.153l-.117.265-.198.198-.273.124-.337.045-.387-.035-.423-.114-.075-.032-.368-.158-.445-.257-.431-.315-.399-.36-.353-.392-.293-.409-.103-.19-.118-.22-.142-.394-.056-.365.031-.321.118-.264.199-.197.274-.124.336-.044.388.035.423.115.442.19.444.257.43.314.399.36.353.391.292.409.221.409.142.394.057.365-.031.32ZM715.817 339.762l-2.579 1.514M725.11 340.164l-.142.135-.14.04-.075.021-.281-.014-.336-.09-.378-.163-.405-.228-.417-.285-.413-.332-.392-.365-.357-.384-.308-.389-.247-.378-.176-.354-.099-.314-.018-.264.063-.203.143-.135.216-.061.282.016.336.091.016.007.014.006.347.149.405.229.416.285.412.331.391.364.357.384.307.388.247.377.176.353.1.315.019.264-.063.204Zm0 0-.079.167-.059.125-.317.667M721.132 336.463l-2.804 1.654M728.832 338.55l-.08.07-.154-.004-.221-.076-.281-.147-.328-.212-.365-.269-.386-.314-.393-.349-.192-.185-.072-.069-.12-.116-.361-.376-.324-.368-.25-.315-.025-.031-.214-.31-.146-.263-.072-.205.004-.14.081-.069.155.004.222.077.28.148.329.212.179.132.185.136.385.314.392.349.373.358.011.01.36.376.271.307.053.06.274.345.059.086.156.225.146.263.061.173.012.032-.004.141Z"/><path d="m724.932 334.802-1.22.709-1.728 1.005M731.191 339.705l-.041-.066-.226-.309-.233-.291M631.703 464.826l.188.191.408.402.408.387.392.359.361.316.316.261.259.196.191.124.117.047 1.246-.701"/><path d="m630.173 460.104-1.044 1.801.048.117.125.193.197.26.263.317.318.362.36.393.389.409.403.41.401.394.069.066.316.299.353.32.307.263.251.196.184.122.111.044.264-.143 1.305-.701.119-.065"/><path d="m629.129 461.904.031-.039.11.042.184.122.25.196.308.263.325.295.029.025.385.365.402.395.404.411.39.41.36.394.318.363.262.317.198.259.124.192.047.117-.032.038M631.703 455.878l-.056.095-1.074 1.809-.37.623-.37.625-.024.186.057.26.136.321.171.307.037.065.274.408.328.428.311.362.059.069.398.419.411.39.407.346.389.289.355.221.007.003.301.141.013.004.235.059.18-.023.695-.348.168-.085.018-.009.581-.291.035-.017"/><path d="m629.832 459.029.103-.107.179-.024.248.062.308.144.005.003.055.034.295.184.389.289.409.347.051.048.36.342.399.42.371.432.328.429.036.053.238.355.208.372.135.321.056.259-.024.186-.104.106M634.122 451.478l-.336.562-.783 1.312-.649 1.089-.094.252-.01.323.074.38.082.226.068.184.005.014.23.45.259.402.038.059.351.452.393.428.42.385.43.329.424.26.401.181.364.095.245.005.067.001.248-.085 2.126-.96"/><path d="m632.355 454.441.174-.173.248-.085.312.005.364.094.402.181.424.26.029.022.402.308.34.312.08.074.394.428.353.453.296.462.231.451.154.424.073.38-.011.322-.095.252-.175.171M638.229 445.558l-1.584 2.7-.161.311-.074.381.015.434.104.471.126.327.062.163.241.442.026.048.334.472.388.434.428.382.227.158.225.156.457.233.096.031.35.114.417.05.373-.046 2.86-1.095"/><path d="m636.645 448.258.242-.232.313-.142.373-.047.417.049.164.053.283.092.458.233.452.314.429.383.389.435.334.473.267.491.109.284.079.206.1.454.002.011.002.007.014.434-.075.38-.162.311-.243.23-.313.142M724.091 367.471l.144-.736.052-.266.012-.492-.094-.507-.197-.504-.292-.481-.376-.44-.445-.381-.497-.308-.531-.224-.543-.13-.536-.032-.506.068-.459.164-1.991 1.009"/><path d="m724.29 366.469-.027.106-.09.351-.219.404-.156.168-.007.008-.149.161-.004.003-.389.253-.458.165-.507.069-.536-.032-.544-.13-.531-.223-.498-.309-.446-.382-.376-.44-.292-.481-.197-.505-.094-.508.012-.492.119-.457.154-.284.003-.006.062-.114.309-.333.004-.003.374-.244.019-.012M715.028 375.547l-.049-1.562-.073-.538-.182-.528-.283-.495-.373-.446-.45-.378-.509-.296-.548-.202-.566-.101-.563.004-.538.109-1.386.553"/><path d="m714.979 373.984-.006.086-.031.444-.055.183-.005.018-.088.298-.252.45-.347.385-.003.003-.423.3-.492.21-.538.109-.565.005-.566-.101-.548-.202-.509-.296-.451-.379-.374-.446-.283-.496-.183-.528-.072-.539.039-.53.148-.499.252-.45.343-.38.004-.004.093-.066.011-.008.323-.229.335-.142.158-.067M704.732 382.02l-.356-.535-.373-.45-.453-.376-.516-.286-.559-.186-.581-.079-.581.032-.719.064"/><path d="m704.374 381.486.068.124.102.186.031.057.076.14.173.546.06.562-.055.558-.166.532-.273.486-.368.42-.005.004-.445.335-.513.245-.558.141-.581.032-.582-.078-.56-.186-.516-.287-.453-.375-.373-.451-.278-.507-.172-.546-.06-.563.055-.558.167-.532.273-.486.365-.415.004-.005.449-.339.514-.244.393-.099.04-.011.078-.019.047-.012M693.852 391.378l.275.515.169.558.055.578-.061.577-.174.553-.281.509-.376.444-.006.004-.453.359-.522.268-.565.162-.588.05-.588-.064-.564-.175-.519-.28-.455-.374-.372-.453-.276-.515-.168-.558-.055-.578.061-.577.174-.554.281-.508.373-.44.004-.004.458-.363.522-.268.566-.161.588-.05.587.064.564.175.519.28.454.373.373.453ZM683.217 401.779l.277.518.171.563.059.585-.057.585-.169.563-.276.519-.371.454-.006.005-.447.369-.517.277-.562.171-.583.058-.584-.057-.562-.17-.518-.277-.454-.373-.373-.454-.277-.519-.066-.215-.001-.004-.104-.343-.059-.585.057-.586.169-.562.276-.519.043-.053.007-.009.317-.388.004-.005.453-.373.517-.278.561-.171.584-.058.584.057.562.171.517.277.455.372.373.455ZM672.828 412.341l.283.518.18.561.07.583-.042.582-.153.56-.257.516-.353.451-.005.004-.429.366-.498.274-.544.168-.569.056-.572-.059-.552-.172-.512-.277-.452-.373-.374-.454-.283-.517-.18-.561-.058-.481-.001-.003-.011-.098.027-.381.014-.202.153-.56.257-.515.244-.313.105-.134.004-.005.433-.37.499-.274.282-.088.007-.002.255-.079.569-.056.571.06.553.171.512.278.452.373.375.453ZM658.129 423.1l.227-.5.021-.028.009-.012.287-.389.003-.005.402-.354.232-.128.029-.016.092-.051.008-.005.106-.058.516-.154.543-.043.551.069.537.179.502.282.449.374.377.452.292.511.194.553.09.572-.017.569-.125.544-.227.499-.321.435-.004.004-.398.349-.467.258-.516.153-.314.025-.027.002-.202.016-.55-.069-.537-.179-.502-.282-.448-.374-.377-.451-.291-.512-.195-.552-.09-.571.017-.569.124-.544Zm0 0 .012-.035M660.43 427.135l.271.044M649.735 432.268l.274-.401.003-.004.272-.246.006-.006.08-.072.425-.23.476-.128.509-.021.522.088.516.192.488.289.443.376.381.448.303.503.215.537.117.552.016.546-.087.517-.185.47-.277.405-.004.004-.354.319-.074.04-.013.007-.339.183-.476.127-.509.021-.521-.088-.515-.193-.488-.289-.443-.376-.38-.447-.303-.502-.215-.537-.117-.551-.016-.545.086-.518.184-.47Zm0 0 .004-.008M652.969 436.763l.044-.005M642.368 441.014l.22-.36.002-.004.304-.282.373-.191.121-.026.006-.002.301-.064.466.01.487.113.489.211.472.3.437.379.384.442.318.49.239.516.15.525.057.512-.04.481-.134.43-.062.1-.005.008-.157.254-.003.004-.301.278-.373.191-.428.091-.466-.011-.487-.113-.234-.102-.254-.109-.222-.142-.249-.159-.436-.378-.384-.441-.317-.489-.239-.516-.151-.524-.057-.512.039-.48.134-.43Zm0 0 .013-.025M646.117 445.328l.018-.006M751.071 349.873l-.013.008-.092-.072-.168-.148-.237-.218-.297-.281-.345-.332-.381-.372-.401-.395-.407-.404-.396-.399-.37-.376-.331-.34-.277-.291-.214-.23-.143-.161-.065-.085.014-.007.093.073.168.148.237.219.297.281.345.332.381.371.4.395.406.403.395.398.37.375.33.34.278.291.214.23.143.161.066.086Zm0 0-.284.511-.354.637-.411.74M746.932 345.776l-1.077.605"/><path d="m646.979 442.553.039.137.111.388.005.043.052.47-.04.48-.134.43-.057.093-.004.007-.159.259-.003.004-.305.282-.349.177-.024.013-.428.091-.466-.011-.486-.113-.237-.102-.252-.109-.224-.143-.247-.157-.436-.379-.384-.441-.317-.489-.239-.516-.151-.524-.056-.512.039-.48.133-.43.019-.032.204-.331.003-.004.3-.279.373-.191.127-.027.007-.002.295-.063.466.011.487.112M643.607 438.781l-1.244 2.24M646.113 445.335l2.562-.724M645.602 440.727l.437.378.384.443M654.227 436.087l-.003.004-.358.323-.06.033-.014.007-.352.19-.425.114-.051.013-.509.021-.521-.088-.515-.193-.488-.289-.443-.376-.38-.447-.303-.501-.215-.537-.117-.552-.016-.545.086-.518.184-.47.011-.016.266-.389.004-.004M654.641 433.601l.117.552M654.771 434.699l-.087.517M650.785 431.316l.476-.128M650.623 430.438l-.896 1.837M652.965 436.771l1.503-.191M662.902 426.401l-.004.005-.402.353-.467.258-.516.153-.286.023-.028.002-.229.018-.271-.034-.28-.036-.536-.179-.502-.282-.448-.373-.377-.452-.29-.511-.196-.552-.09-.571.017-.569.124-.545.02-.043.207-.456.03-.04.008-.012.282-.383.005-.003M663.308 423.233l.194.553.09.571-.017.57-.125.544-.227.499M659.07 421.821l.276-.153.028-.015.03-.017.008-.004.125-.07.516-.153.543-.044.551.07.537.179M660.422 427.143l1.218.198M672.897 415.67l-.349.446-.004.005-.433.37-.499.275-.544.168-.569.055-.571-.059-.553-.172-.512-.277-.451-.373-.375-.454-.283-.517-.18-.56-.058-.486-.001-.004-.011-.093.027-.38v-.002l.015-.201.152-.559.257-.516.245-.314.008-.01.1-.128.005-.004M671.477 411.246l.512.278.453.373.374.454.283.517.18.561.07.583M673.308 414.594l-.152.56M669.242 411.239l.29-.09.008-.002.246-.077M683.657 402.87l.059.585-.057.585-.169.563-.276.519-.368.45-.004.005-.453.373-.517.277-.561.171-.582.058-.585-.057-.562-.17-.517-.277-.455-.373-.373-.454-.276-.518-.065-.211-.002-.004-.105-.348-.059-.585.056-.585.17-.563.276-.519.052-.063.008-.009.312-.383.004-.004.449-.369.516-.278.561-.171.585-.058.583.058M682.383 400.962l.454.373.373.454M694.108 394.169l-.281.509-.373.439-.004.005-.458.363-.522.268-.566.162-.588.05-.587-.064-.564-.175-.519-.28-.455-.374-.372-.453-.276-.515-.169-.558-.054-.578.06-.577.175-.554.281-.508.377-.444.005-.005.453-.358.522-.268M694.117 391.902l.169.558M691.934 390.106l.564.175M704.821 383.667l-.167.532-.272.486-.364.416-.004.004-.45.34-.514.245-.558.141-.581.032-.581-.079-.56-.186-.516-.286-.454-.376-.372-.45-.278-.508-.172-.546-.06-.563.055-.558.167-.532.273-.485.369-.421.005-.003.444-.335.514-.245.433-.109.04-.01M704.645 382.002l.172.545.06.563M701.883 380.118l.581.078.559.187M714.192 375.852l-.004.004-.428.303-.492.211-.538.109-.563.005-.567-.101-.549-.203-.509-.296-.45-.378-.374-.446-.284-.496-.181-.528-.073-.539.038-.53.148-.499.252-.451.347-.383.005-.004M714.715 372.927l.181.527M713.605 371.607l.45.378.375.445M723.798 367.497l-.007.008-.153.165-.004.004-.392.256-.036.013-.423.152-.507.068-.536-.031-.544-.13-.531-.224-.498-.308-.446-.382-.376-.44-.292-.482-.197-.504-.094-.508.013-.492.118-.457.157-.291.004-.006.058-.108.313-.336.004-.003.389-.252M722.391 363.361l.497.309.445.381.376.439.292.481M724.291 365.983l-.012.491-.076.297M724.164 366.932l-.219.405M720.277 363.044l.507-.067.535.031.543.131M732.497 360.185l-.176.35-.266.28-.347.2-.167.045-.247.066-.466.02-.499-.075-.514-.164-.508-.249-.484-.324-.439-.386-.379-.433-.304-.463-.217-.477-.122-.471-.022-.447.006-.031.072-.375.177-.35.267-.279.347-.2.415-.11.465-.019.499.075.514.165.507.249.482.323.425.373.014.012.324.37.055.063.303.462.218.476.122.47.023.447-.078.407Zm0 0-.265.807M728.209 356.422l-2.377 1.331M739.525 354.981l-.124.289-.211.216-.292.137-.361.051-.416-.036-.456-.122-.122-.052-.355-.152-.012-.007-.469-.27-.135-.1-.33-.241-.433-.39-.383-.425-.318-.443-.113-.209-.128-.236-.156-.429-.063-.397.031-.349.124-.288.212-.216.293-.136.361-.051.189.017.227.02.455.123.022.009.455.195.48.277.465.34.271.245.16.145.382.424.036.05.282.392.242.445.156.428.064.397-.03.349Zm0 0-1.22 2.922M735.015 351.312l-2.808 1.631M744.98 351.689l-.15.149-.167.05-.062.018-.301-.013-.217-.058-.143-.038-.406-.174-.436-.245-.45-.308-.445-.359-.425-.395-.387-.416-.334-.422-.053-.081-.216-.329-.194-.384-.11-.343-.023-.288.064-.222.151-.148.23-.068.301.015.256.068.105.028.283.122.123.052.435.246.449.308.444.358.424.394.386.415.334.421.269.41.194.384.111.342.016.188.008.1-.064.223Zm0 0-.157.329-.335.699M740.675 347.683l-.204.12-2.582 1.513-.26.152M748.902 349.881l-.083.078-.162-.002-.236-.08-.299-.157-.353-.228-.392-.289-.415-.339-.424-.377-.376-.362-.04-.038-.392-.407-.352-.399-.299-.376-.043-.062-.191-.275-.162-.287-.081-.224.001-.154.083-.077.163.002.237.082.3.158.352.227.118.087.273.202.415.339.423.376.266.256.149.143.192.2.199.207.351.398.299.375.235.337.115.204.047.083.082.224v.155Zm0 0-.435.831-.451.861-.093.178M744.684 345.826l-1.862 1.079-.669.388-.676.391M751.013 352.431l.491-.854-.021-.14-.1-.213-.173-.278-.241-.332-.184-.23M857.775 456.707l-7.659 5.113-9.031 3.759-1.37.569-9.91 1.341-1.139.154-8.866.374-4.194.178-2.539-.323-9.921-1.26-.93-.119-9.618-2.739-3.668-1.045-9.132-4.075-3.563-1.59-8.673-4.978-3.305-1.896-7.337-6.795-2.389-2.212-5.498-8.353-1.6-2.429-4.327-9.015-.91-1.895-2.452-9.695-.342-1.352.315-9.994.047-1.484.348-1.681 1.665-8.038 4.664-8.892 5.993-6.402 7.955-4.738 8.709-1.863.992-.026 9.246-.244 9.692 2.459.583.148 9.525 3.045 1.872.598 9.091 4.167 2.393 1.098 8.339 5.519 2.431 1.608 8.179 5.755 2.533 1.782 8.011 5.985 2.267 1.694 6.939 7.202 1.482 1.538 5.914 8.064.721.982 4.644 8.968 2.563 8.447-.306 3.405-.492 5.471-2.367 7.004-5.575 6.706Z"/><path d="m841.307 443.452-1.382.907-2.015 1.321-1.909 1.252-6.532 2.232-7.511.888-8.201-.501-8.569-1.877-8.598-3.183-8.282-4.369-7.637-5.376-6.685-6.174-5.469-6.721-4.039-7-2.455-7-.785-6.725.906-6.189.859-1.825.988-2.099.702-1.492"/><path d="m764.691 389.521 4.081-4.44 5.447-3.302.485-.151 6.108-1.896 7.485-.725 2.256.172 5.833.446 8.391 1.929 8.378 3.164 8.057 4.278 7.438 5.233 6.545 5.995 5.408 6.537 4.066 6.837 2.567 6.884.213 1.472.75 5.2-.175 1.587-.512 4.622-2.324 5.504-3.883 4.585"/><path d="m763.988 391.012 4.909-2.984 6.588-2.056 7.476-.736 8.077.604 2.092.479 6.284 1.437 5.812 2.189 2.549.96 8.037 4.265 7.418 5.219 6.525 5.983 3.289 3.985 2.098 2.54 4.047 6.828.869 2.343 1.681 4.534.948 6.668-.698 6.207-2.067 4.881M979.801 816.058l.591 9.982.083 1.413.591 9.983.591 9.982.591 9.983.591 9.982.591 9.983.591 9.982.21 3.548 7.431 6.692 6.476 5.831M1125.17 701.638l-9.96-.915-9.96-.915-3.41-.314-9.96-.915-9.73-.894-3.98 4.719-.54.631 5.71 8.211 5.71 8.211 5.71 8.211 5.7 8.211 5.71 8.21 5.71 8.211 1.29 1.856 5.71 8.21 5.71 8.211 5.71 8.211 5.7 8.211 5.71 8.211 5.71 8.21 1.62 2.333.67.959 5.34 7.678 9.22-2.956 4.32-1.385 3.4-1.09.05-.015 9.52-3.052 9.52-3.052.64-.203 9.71 2.394 7.26 1.792 9.71 2.393 4.68 1.153 8.94 4.472 8.95 4.471 7.47 3.737 9.04 4.264 5.62 2.649 1.28.604 9.05 4.264 1.12.526 8.88 4.597 8.88 4.596 7.55 3.907 7.75-5.741 3.93-5.884-6.33-7.743-6.12-7.482-6.33-7.742-6.13-7.502-6.33-7.742-6.15-7.521-6.32-7.742-6.17-7.541-6.65-7.47-6.64-7.47-6.65-7.471-6.65-7.47-6.65-7.47-6.64-7.471-6.65-7.47-6.65-7.47-6.55-7.362-9.96-.916-9.96-.915-9.96-.915-3.49-.32-1.48-.137-9.96-.915-9.96-.915-9.96-.915-9.95-.915-2.08-.191Z"/><path d="m1197.65 714.212-9.95-.928-9.96-.927-3.36-.312-9.95-.928-9.96-.927-9.96-.927-9.95-.927-9.96-.927-3.87-.36-9.95-.927-5.23-.487-9.96-.927-9.95-.927-8.01-.746M1307.61 842.714l-6.33-7.741-6.15-7.526-6.33-7.741-6.17-7.545-6.33-7.741-6.19-7.565-6.33-7.741-6.2-7.585-6.65-7.469-6.65-7.469-6.65-7.47-6.65-7.469-6.65-7.47-6.65-7.469-6.65-7.47-6.64-7.469-6.74-7.563 4.28-5.52M1733.41 40.664l-1.7-.82-9.34-3.59-3.87-1.49-9.37-3.48-.65-.24-9.61-2.781-4.76-1.378-9.81-1.9-4.45-.86-9.87-1.62-2.77-.454-9.96-.94-5.06-.48-10 .025-3.67.009-10 .092-5.46.05-9.93 1.193-5 .6-9.89 1.512-4.98.762-9.72 2.343-5.17 1.245-9.57 2.89-5.22 1.578-9.36 3.522-5.14 1.935-9.09 4.169-5.19 2.379-8.83 4.69-4.97 2.637-8.45 5.35-4.89 3.097-8.13 5.81-4.66 3.323-7.65 6.429-4.37 3.664-7.29 6.84-4.23 3.959-6.72 7.402-3.66 4.028-6.32 7.744-3.7 4.519-5.64 8.256-2.83 4.144-5.27 8.497-3.08 4.962-4.41 8.977-1.96 3.99-4.16 9.09-2.41 5.251-3.05 9.523-1.9 5.936-3.01 9.537-.94 2.965-1.94 9.809-1.19 5.987-1.4 9.901-.3 2.094-.88 9.961-.51 5.781.13 9.999.09 6.319.47 10.029 1.1 9.94.63 5.742 1.99 9.799 1.25 6.103 2.84 9.588 1.89 6.37 1.81 6.062 3.63 9.318 2.07 5.313 4.37 8.995 2.61 5.376 5.07 8.623 3.13 5.336 5.71 8.208 3.61 5.192 6.33 7.748 4.03 4.95 6.9 7.245 4.39 4.618 7.43 6.695 4.67 4.206 7.92 6.097 4.85 3.73 8.39 5.446 4.93 3.203 5.75 3.189 8.81 4.739 6.06 3.263 9.18 3.968 5.97 2.58 2.34.771 9.49 3.132 3.43 1.132 4.24 1.164 5.79 1.591 7.81 1.782 8.43 1.924 9.92 1.245 6.1.765 9.96.853 2.52.215 10 .193 6.46.124 9.98-.753 3.5-.265 9.96-.922 6.57-.608 9.78-2.09 5.98-1.276 9.75-2.215 4.73-1.074 9.44-3.282 5.81-2.017 9.34-3.564 5.01-1.913 8.95-4.473 5.45-2.726 8.77-4.807 5.01-2.749 8.27-5.617 4.96-3.366 8.04-5.949 4.73-3.503 7.45-6.677 4.36-3.912 7.16-6.981 4.21-4.107 6.49-7.613 3.69-4.341 6.14-7.897 3.5-4.507 5.43-8.398 2.99-4.633 4.96-8.681 2.67-4.66 4.32-9.019 2.28-4.763 3.63-9.315 1.78-4.546 3.2-9.475 1.59-4.71 2.14-9.767.92-4.166 2.1-9.778.95-4.448 1.04-9.947.51-4.952.44-9.991.11-2.561.04-10 .01-4.412-.9-9.959-.44-4.822-1.57-9.876-.07-.447-1.78-9.841-.72-3.971-2.58-9.659-1.14-4.248-1.27-3.572"/><path d="m1848.28 169.964-1.71 9.853-.41 2.351-.03.077-4.17 9.092-.54 1.184-6.77 7.361-.64.691-8.83 4.688-1.16.617-8.45 5.353-2.92 1.849-9.84 1.78-5.35.97-9.6-2.802-8.35-2.434-8.91-4.537-7.52-3.83-8.36-5.488-8.36-5.489-1.73-1.136-7.59-6.504-7.6-6.505-.49-.421-6.81-7.325-6.8-7.325-2.31-2.479-6.01-7.991-6.01-7.992-.63-.844-4.9-8.719-4.9-8.719-.81-1.443-3.31-9.436-3.31-9.436-.08-.214 2.36-9.718 1.44-5.917.95-9.955.38-4.01 2.24-9.746.56-2.398 4.98-8.668.61-1.063 7.48-6.639.58-.51 9.13-4.07 1.01-.452 8.28-1.333 3.59-.579 6.76.961 9.9 1.411 1.56.223 9.44 3.32 5.12 1.802 8.75 4.832 5.54 3.058 8.36 5.502 5.27 3.474 7.62 6.48 7.61 6.478 1.97 1.674 6.67 7.456 5.76 6.452 6.02 7.987 4.21 5.591 5.25 8.513 3.73 6.061 3.91 9.204 3.99 9.38 2.19 9.757 1.58 7.026.3 9.995.05 1.807.06 1.817Zm0 0-1.18 9.931-.84 7.044M1726.67 39.703l-9.97-.855-9.37-.804M1665.61 165.801l2.85 6.046 1.24 6.51-.05 7.247.19 5.569-1.88 5.537-5.02 4.756-4.46 4.076-2.96.792-5.54 3.547-6.32 1.704-5.02-2.574-2.38-2.845-5.43-1.788-5.96-4.535-3.15-1.854-4.47-6.722-1.2-2.586-2.16-7.624.84-3.055.38-7.571 2.82-2.996-.63-5.477 1.03-4.871M1608.74 160.341l-3.74 3.982-.52 10.053M1662.63 210.997l5.94-5.423 6.67-6.329 2.52-7.367M1613.75 200.935l4.19 2.467 7.92 6.034M1625.12 140.102l-8 4.661M1652 152.01l3.85 4.541M1743.5 325.883l5.76-2.859 1.36-3.799M1698.73 326.842l1.98.693 7.79 2.722 5.42 1.897 7.55.731 8.14-.335 1.75-2.234 4.56-2.254M1682.83 319.591l.79.44M1749.02 232.433l-6.13-3.011M1663.1 264.059l-3.07 5.752-3.48 3.909 3.46 2.696 4.56 3.559 2.89 6.016-2.69 3.301.83 5.227 4.08 6.901 2.63 5.408-1.57 2.182M1670.74 309.01l7.25-6.889.9-.858 1.15-1.601-7.33 6.797-.4.369M1764.78 246.534l-5.78-5.659M1778.42 274.609l-1.09-2.471-1.81-4.864-1.1-7.138-2.01-6.797-4.22-4.623M1674.09 239.302l-5.17 5.595-3.11 4.695 1.34 1.211"/><path d="m1667.15 250.803 7.6 6.501 1.55 1.326-.98-.887-7.59-6.509-1.92-1.642M1709.02 223.985l-7.47.259-5.8 4.074-7.31 3.328-5.03 1.574-3.49 1.119M1760.09 317.21l4.14.185 1.68-5.168M1709.3 305.019l-3.93-1.387-1-.353-1.59-.72-3.91-1.771-2.13-.967-.4-.223-3.4-2.486-2.69-2.869.79-1.103-1.32-2.732-2.04-3.484-.42-2.637 1.36-1.665-1.44-3.032-2.3-1.792-1.74-1.358 1.76-1.968 1.55-2.895.96-3.572 1.09-3.095-.67-.609 1.56-2.36 2.61-2.812 2.93-2.493 1.76-.561 2.53-.792 3.67-1.674M1709.57 251.429l2.11.684 4.31.11M1546.4 447.848l.02.016 2.69 1.287 3.26 1.39 3.56 1.422 3.81 1.437 3.07 1.227.38.27 2.77.348 3.52.443 3.74.469.93.147 1.95.277 1.06.068M1563.18 454.896l.38-1.621M408.387 778.367l-8.099-5.866-.289-.209-8.613-5.08-.339-.2-9.05-4.255-.386-.182-9.406-3.395-.429-.155-9.68-2.51-.464-.121-9.871-1.602-.491-.08-9.977-.682-.509-.035-9.997.248-.515.013-9.931 1.178-.511.061-9.776 2.104-.498.107-2.279.55-9.534 3.016-.691.219-9.204 3.909-.653.277-8.788 4.773-.607.33-8.284 5.602-.555.375-2.426 1.786-7.698 6.384-.595.494-7.028 7.113-.529.535-6.286 7.777-.461.57-1.781 2.65-5.471 8.37-.404.618-4.595 8.882-.334.645-3.663 9.305-.264.671-2.69 9.632-.194.696-.72 2.915-1.681 9.858-.108.636-.654 9.979-.043.659.383 9.993.026.683 1.413 9.9.101.706.383 2.324 2.427 9.701.135.539 3.41 9.401.203.559 4.352 9.003.278.575 5.243 8.516.359.583 6.075 7.943.444.58 6.838 7.297.53.565 7.529 6.582.615.538.392.306 8.139 5.81.447.318 8.668 4.986.501.288 9.112 4.121.548.248.402.151 9.467 3.221.874.298 9.732 2.297.903.213 9.908 1.354.915.125 9.992.4.907.037 9.984-.557.882-.05 9.886-1.508.839-.129 9.696-2.45.782-.198 9.415-3.371.714-.255 2.403-.868 9.045-4.266.809-.381 8.588-5.124.715-.426 8.046-5.939.619-.456 2.241-1.999 7.424-6.7.586-.529 6.724-7.401.488-.537 5.956-8.033.396-.534 5.123-8.588.312-.523 1.517-2.764 4.236-9.059.23-.49 3.301-9.439.165-.472 2.334-9.724.11-.455.448-2.912 1.341-9.909.044-.324.336-9.995.011-.314-.671-9.978-.021-.31-1.664-9.861-.053-.313-.599-2.227-2.638-9.646-.031-.114-3.577-9.338-.051-.131-4.477-8.941-.076-.151-5.326-8.464-.108-.171-6.119-7.909-.147-.19-6.848-7.287-.191-.203-7.51-6.603-.239-.21Z"/><path d="m399.668 859.952-7.002 5.504-8.238 4.139-8.335 4.798-9.69 2.473-.372.095-9.915-1.302-1.146-.151-2.376-.828-7.159-2.494-8.826-4.702-1.208-.644-7.83-6.221-.131-.104-6.552-7.555-.795-.917-1.187-1.954-4.038-6.653-3.292-9.442-.195-.559-.998-9.95-.047-.464 4.266-8.878 3.542-8.344 4.503-7.613 5.902-6.468 7.026-5.17 7.881-3.787 8.479-2.359 9.999-.174 1.773-.031 9.01 1.574 7.926 3.465 7.368 4.129 7.816 6.237 1.056.842 5.967 6.997 4.621 6.956 3.459 7.709 1.672 9.859.066.391-.721 9.528-2.566 8.023-4.109 7.44-5.604 6.605Z"/><path d="m417.517 842.174.744-9.973.073-.97-1.68-9.858-.325-1.907-3.972-8.845-5.303-7.979-6.489-7.608-.356-.417-7.816-6.238-2.36-1.883-8.452-4.738-9.093-3.978-9.85-1.727-.489-.085-9.998.166-3.518.058M299.098 854.076l.977 3.135.255 3.328-.333 3.666-.093 2.791-.979 2.715-2.401 2.29-2.133 1.961-1.333.334-2.484 1.62-2.814.704-2.214-1.355-1.038-1.438-2.254-1.053-2.464-2.413-1.257-1.036-1.702-3.497-.399-1.348-.283-1.83-.325-2.095.473-1.518.539-3.857 1.272-1.406.125-2.884.791-2.516M295.418 876.665l1.776-.445 2.84-2.61 3.197-3.049M275.52 849.356l-1.692 1.871M304.656 863.231l.154-1.707.287-3.174M273.82 865.392l2.264 4.654M277.758 871.425l2.283 2.236.996.975 3 1.403 1.382 1.915 2.947 1.804M293.832 846.703l1.393 2.448M298.296 843.199l-1.855-3.254M341.289 929.287l4.017-1.201 2.886-1.426.227-1.666M305.995 920.836l-.55.965 3.143 2.515 3.76 2.18.429.196 2.336.805 4.28 1.475 1.74.599 1.12.27 4.403 1.061M333.949 931.766l4.401-.349M341.118 885.666l-3.481-1.227-4.282-1.078"/><path d="m305.445 921.801 2.535-3.124.403-.707-2.388 2.866M300.18 908.721l1.753 2.76-.637.945M350.537 891.708l-3.541-2.417M356.308 923.565l.387-2.336.206-2.64 1.696-2.917 1.285-2.456.874-.125.36-2.684-.099-3.295-.539-3.22-.65-.738-.261-.297-1.423-2.13-1.11-3.219-1.6-3.027-2.809-1.907M299.884 895.334l-.7 2.771-.548 3.273-1.148 2.632-1.414 1.771 1.769 1.267M299.238 894.695l.648.638 3.558 3.505.485.424"/><path d="m302.866 889.89-2.289 2.609-1.339 2.197M324.101 919.908l-2.222-.538-.565-.137-.878-.303-2.158-.746-1.177-.406-.217-.099-1.894-1.101-1.583-1.269.145-.255.132-.232-.855-1.231-1.26-1.572-.421-1.18.494-.733-.881-1.39-1.176-.842-.89-.638.713-.892.58-1.325.277-1.647.361-1.423-.334-.293.675-1.105 1.153-1.312 1.315-1.16.814-.254 1.224-.384 1.778-.809M320.535 895.552l1.087.303 2.254-.023M1379.2 284.098l-7.17-6.966-7.18-6.965-7.17-6.965-.89-.861-6.97 7.175-6.96 7.176-6.97 7.175-.86.887 7.18 6.965 7.17 6.966 7.18 6.965.89.861 6.96-7.175 6.97-7.176 6.96-7.175.86-.887ZM1347.97 252.188l-7.18-6.965-6.22-6.04-6.96 7.176-6.04 6.222 7.17 6.965 6.22 6.04 6.97-7.175 6.04-6.223ZM1367.5 237.442l-7.18-6.966-1.99-1.931-6.96 7.175-1.94 1.99 7.18 6.965 1.99 1.932 6.96-7.176 1.94-1.989ZM911.906-270.697l6.983 7.159 6.982 7.158 6.982 7.159 6.982 7.159 6.982 7.159 6.982 7.159 6.982 7.159 6.982 7.159 6.982 7.159 6.983 7.159 6.982 7.159 6.982 7.159 6.978 7.159 6.99 7.158 6.98 7.159 6.98 7.159 6.98 7.159 6.98 7.159 6.99 7.159 6.98 7.159 6.98 7.159 6.98 7.159 6.99 7.159 6.98 7.159 6.98 7.159 6.98 7.158 6.98 7.159 6.99 7.159 6.98 7.159 6.98 7.159 6.98 7.159 6.98 7.159 6.99 7.159 6.98 7.159 6.98 7.159 6.98 7.159 6.99 7.159 6.98 7.158 6.98 7.159 6.98 7.159 6.98 7.159 6.99 7.159 6.98 7.159 6.98 7.159 6.98 7.159 6.98 7.159 6.99 7.159 6.98 7.159 6.98 7.159 6.98 7.158 6.98 7.159 7.88 8.076 7.07-7.071 2.15-2.145-7.16-6.982-7.16-6.982-7.16-6.983-7.16-6.982-7.16-6.982-7.16-6.982-7.15-6.982-7.16-6.982-7.16-6.982-7.16-6.982-7.16-6.982-7.16-6.983-7.16-6.982-7.16-6.982-7.16-6.982-7.16-6.982-7.15-6.982-7.16-6.982-7.16-6.982-7.16-6.982-7.16-6.983-7.16-6.982-7.16-6.982-7.16-6.982-7.16-6.982-7.15-6.982-7.16-6.982-7.16-6.982-7.16-6.982-7.16-6.983-7.16-6.982-7.16-6.982-7.16-6.982-7.16-6.982-7.15-6.982-7.16-6.982-7.16-6.982-7.16-6.982-7.16-6.983-7.16-6.982-7.159-6.982-7.158-6.982-7.159-6.982-7.159-6.982-7.159-6.982-7.159-6.982-7.159-6.983-7.159-6.982-7.159-6.982-7.159-6.982-7.159-6.982-8.076-7.876ZM622.395 445.694l.579 1.039.109.195.015.028 2.549 4.569M658.508 421.963l-.002.005-.016.048-.001.005-.368 1.088M735.554 342.151l-4.364-2.446-.663-.372M742.824 346.905l-.334-.226-1.607-1.084M770.091 365.306l-8.289-5.594-8.289-5.594-2.5-1.687-.993-.67M945.672 793.01l2.053 1.679.768.628M960.027 771.278l-.019.056-.621 1.84M1047.24 719.562l.41.229M962.094 805.406l8.569 5.155 8.569 5.155.566.341 5.064 3.046 3.023 1.819M1095.27 889.599l8.73 4.872 1.3.724.12.067.9.503M1131.66 879.699l.03-.306M1084.2 670.279l-.37-.608-.02-.032-4.05-6.718M1101.84 699.494l-.26-.437-5.17-8.561-5.17-8.56-2.35-3.89M1182.07 827.208l.01-.001M1179.11 821.57l-.5-.891-4.89-8.723-1.68-3.013"/></g><defs><clipPath id="a"><path fill="#fff" d="M0 0h1920v1080H0z"/></clipPath></defs></svg>