<svg width="1920" height="1080" fill="none" xmlns="http://www.w3.org/2000/svg"><g clip-path="url(#a)" stroke="#EFC018" stroke-width="5" stroke-linejoin="round"><path d="m959.513 798.209-.296.605-.381.779-.014.104-.015.111-.006.041.066.333.034.083.129.315.255.447.335.478.379.462.025.03.458.487.387.364.105.099.312.258.197.163.507.364.483.291.444.209.385.117.312.022.228-.074.083-.046 3.465-1.948"/><path d="m958.836 799.593.133-.169.226-.076.312.021.385.117.265.124.179.084.484.292.507.363.173.143.215.178.123.101.493.464.458.488.405.493.336.48.254.447.163.398.065.333-.036.255-.012.015-.122.153M954.235 800.692l-.489.901.07.083.16.173.244.256.318.328.381.39.428.434.459.463.473.474.468.467.445.441.405.399.349.341.281.27.2.188.113.1.021.008.787-.434"/><path d="m955.852 800.571-.435.832-.109.207-.003.007.039.179.132.261.221.334.302.394.369.438.424.466.462.476.482.468.484.442.468.399.432.34.228.16.154.109.316.187.237.098.151.005 1.795-1.009 1.894-1.065"/><path d="m955.305 801.617.004-.006.052-.083.149.004.237.097.315.186.382.269.433.34.468.399.485.443.484.469.463.477.198.218.226.25.37.439.302.394.083.126.137.207.132.261.038.178-.057.088M964.431 795.232l-.002.006-.141.32-.104.331.003.403.023.099.085.36.211.498.154.263.149.254.066.089.32.428.452.498.503.457.412.311.12.091.543.329.533.244.501.15.451.051.383-.052.3-.151 3.319-1.821"/><path d="m964.289 795.558.205-.247.133-.068.011-.005.156-.08.382-.052.034.003.014.002.006.001.397.043.501.15.533.244.357.216.187.113.534.402.504.459.453.498.204.274.182.244.304.519.21.498.108.46.001.402-.104.331-.207.246M971.351 790.009l-.054.468.059.516.17.546.275.554.368.54.449.507.511.453.554.382.576.298.576.2.554.096.51-.013.446-.12 2.876-1.481"/><path d="m971.352 790.009.166-.401.271-.319.365-.224.447-.122.076-.002.434-.011.554.095.576.2.577.298.555.382.513.454.449.508.369.541.275.555.169.546.057.501.002.016-.056.468-.166.401-.272.318-.367.223M980.095 782.373l-.103.525.016.568.136.588.25.586.355.561.445.515.519.449.572.366.605.268.613.161.598.048.56-.069.502-.181 2.468-1.116"/><path d="m980.094 782.373.219-.464.327-.383.088-.06.333-.228.501-.182.561-.069.599.046.613.161.606.268.573.367.52.449.446.516.354.562.25.587.136.588.016.568-.104.526-.16.337-.06.126-.328.383-.422.287M990.004 773.784l-.016.61.109.624.23.613.343.578.442.522.525.445.587.352.627.245.643.128.634.006.6-.115 1.81-.601"/><path d="m990.004 773.784.142-.574.07-.14.191-.376.371-.437.466-.341.544-.234.601-.116.634.006.643.128.627.244.588.352.526.446.443.523.343.579.23.613.109.624-.017.611-.143.574-.262.516-.371.436-.174.127-.293.214-.544.233M1083.18 687.026l1.85-3.379.13-.285.03-.366-.06-.436-.17-.488-.16-.323-.09-.197-.34-.534-.41-.526-.45-.5-.5-.452-.51-.389v-.002l-.5-.307-.49-.22-.12-.033-.32-.087-.31-.013-.08-.003-.31.088"/><path d="m1085.03 683.647-.01.002-.22.188-.31.09-.39-.016-.44-.119-.48-.219-.51-.31-.51-.389-.5-.453-.46-.501-.36-.479-.04-.048-.34-.535-.25-.521-.17-.488-.06-.436.03-.366.13-.28v-.003l.22-.182.01-.008M1074.42 685.991l.18-.319.01-.003.29-.253.01-.004.38-.153.45-.042.27.036v.001l.23.032.54.178.54.28.53.371.5.449.46.508.39.549.3.568.21.565.11.542v.497l-.1.432-.02.033-.18.319-.01.003-.29.255M1078.38 691.032l-.28-.039-.01-.001-.21-.028-.53-.177M1075.29 685.259l-1.56.614M1078.19 693.187l1.53-2.962M1074.62 688.057l-.21-.566M1076.27 690.135l-.5-.45-.46-.509M1071.31 701.282l1.19-2.57.16-.49.06-.549-.06-.589-.17-.605-.28-.598-.37-.568-.45-.516-.51-.445-.55-.357-.58-.254-.58-.142-.55-.025-.51.093"/><path d="m1072.5 698.712-.01.017-.26.394v.003l-.37.313-.29.136v.004l-.15.07-.51.094-.56-.024-.57-.142-.58-.254-.56-.357-.51-.445-.45-.518-.37-.569-.28-.599-.17-.605-.06-.589.06-.55.17-.489.09-.144.01-.009.16-.253.01-.005.36-.315.42-.192.03-.017M1063.23 709.961l.7-1.93.1-.591-.02-.628-.13-.635-.25-.624-.36-.583-.45-.522-.51-.443-.58-.345-.6-.233-.62-.114-.6.011"/><path d="m1063.92 708.031-.04.111-.17.425-.33.459-.01.004-.01.012-.01.008-.39.34-.5.254-.56.136-.6.011-.62-.113-.6-.233-.58-.345-.52-.443-.44-.523-.36-.585-.25-.623-.14-.637-.01-.627.1-.593.22-.536.32-.453.01-.005.42-.363.11-.053.01-.008.38-.192.49-.117.07-.018M1053.85 719.485l.17-1.197.01-.654-.11-.66-.23-.64-.34-.595-.44-.528-.53-.44-.59-.336-.63-.218"/><path d="m1054.02 718.288-.02.089-.13.535v.019l-.01.021-.25.529-.19.256-.18.237v.005l-.46.393-.55.287-.6.165-.63.038-.65-.093-.62-.218-.59-.336-.53-.441-.44-.528-.35-.596-.23-.641-.01-.076-.1-.584.02-.654.14-.624.27-.57.36-.487.01-.005.46-.397.55-.287.6-.164.5-.029.03-.002.1-.006.43.062.22.031M1042.4 727.274l.33.602.22.651.09.673-.04.67-.17.642-.29.588-.4.513v.004l-.49.413-.58.305-.63.183-.66.051-.66-.08-.64-.21-.6-.331-.53-.44-.44-.531-.34-.603-.21-.65-.09-.673.04-.671.16-.642.3-.588.39-.507.01-.005.49-.417.58-.305.63-.182.66-.052.66.081.64.21.6.331.53.44.44.53ZM1030.78 739.191l.33.604.21.653.08.676-.05.674-.18.645-.3.593-.42.517-.01.004-.5.417-.59.309-.65.186-.67.054-.67-.078-.65-.208-.6-.331-.54-.439-.44-.532-.33-.604-.21-.653-.08-.676.05-.674.19-.646.3-.592.41-.511.01-.006.51-.421.59-.309.64-.186.67-.054.68.078.65.209.6.33.53.44.44.531ZM1018.89 751.091l.33.6.21.647.08.669-.05.665-.18.635-.31.581-.42.505v.005l-.51.405-.59.298-.64.175-.67.045-.68-.085-.65-.214-.6-.334-.53-.44-.44-.531-.33-.6-.21-.647-.08-.669.05-.665.18-.635.31-.581.41-.5v-.005l.52-.41.59-.298.64-.175.67-.046.67.086.65.213.61.334.53.441.44.531ZM1001.29 765.34l-.22-.634v-.051l-.01-.036-.08-.564.04-.643.17-.611.29-.555.4-.473v-.006l.5-.382.58-.273.62-.152.66-.025.67.102.64.226.6.341.53.443.44.528.33.592.22.634.09.651-.04.643-.17.612-.29.555-.4.478-.01.004-.49.378-.57.272-.53.126-.03.007-.07.018-.66.025-.66-.102-.65-.226-.59-.341-.53-.443-.44-.527-.34-.591Zm0 0-.23-.671M1005.16 767.544l.03-.001"/><path d="m1007.54 765.715-.29.555-.4.473-.01.005-.49.383-.58.272-.49.119-.03.007-.06.014-.04.011-.66.025-.67-.103-.64-.226-.6-.341-.52-.442-.45-.527-.33-.592-.22-.633v-.047l-.01-.04v-.036l-.08-.528.04-.644.17-.611.29-.555.4-.478.01-.004.49-.379.57-.272M1005.14 767.554l1.08-.047M1018.55 755.398l-.01.006-.51.409-.59.298-.64.175-.67.046-.67-.086-.65-.214-.61-.334-.53-.44-.44-.531-.33-.6-.21-.647-.08-.669.05-.664.18-.636.31-.581.42-.505v-.005M1018.88 751.102l.33.6M1019.45 753.682l-.18.635-.31.582M1014.08 750.015l.59-.298.64-.175M1017.3 749.796l.61.333M1031.34 741.807l-.18.646-.31.592-.41.511v.006l-.52.421-.59.31-.64.185-.67.055-.67-.079-.65-.208-.61-.33-.53-.44-.44-.532-.33-.604-.21-.652-.08-.677.05-.674.18-.645.31-.593.42-.517v-.004l.51-.417.59-.309.64-.185M1031.31 740.457l.08.676M1029.8 738.229l.53.44.44.532M1038.47 732.288l-.6-.331-.53-.439-.44-.532-.34-.602-.22-.651-.09-.673.04-.67.17-.642.29-.589.41-.512v-.005l.49-.412.58-.305.62-.182.66-.051.67.08.64.21.6.331.53.44.44.531.33.602.22.65.09.673-.04.67-.17.642-.29.588-.4.507v.006l-.5.417-.57.306-.63.182-.66.052-.66-.081-.64-.21ZM1053.23 719.98v.005l-.47.398-.54.287-.6.165-.58.034-.06.003-.64-.092-.63-.218-.59-.336-.52-.441-.44-.528-.35-.596-.23-.641-.01-.077-.1-.583.02-.655.14-.623.26-.57.37-.492.01-.005.46-.392.55-.287.6-.164.53-.031.03-.002M1050.51 714.134l.64.093.63.218.59.336.52.44.45.528.34.595.23.64.11.66-.01.654-.15.621M1063.62 705.563l.25.622.13.636.02.627-.1.593-.22.536-.32.453-.01.005-.01.009-.01.008-.4.347-.5.254-.56.136-.6.011-.62-.113-.6-.233-.58-.345-.52-.442-.44-.524-.36-.585-.25-.623-.13-.637-.02-.627.1-.593.22-.536.33-.458.01-.004.41-.358.12-.062.02-.007.36-.185.57-.135.59-.011.62.114.6.233M1072.49 698.72l-.27.406v.005l-.36.316-.29.133v.003l-.16.074-.51.094-.55-.024-.58-.142-.58-.254-.56-.357-.51-.445-.45-.518-.37-.569-.27-.599-.17-.605-.06-.589.05-.55.17-.489.1-.153v-.008l.17-.25v-.003l.37-.312M1070.32 694.004l.56.356.51.445.45.516.37.568M1068.1 693.676l.51-.094M1079.72 690.232l-.21.348v.004l-.3.258-.38.154-.45.043-.28-.038-.01-.001-.21-.029-.54-.178-.54-.28-.53-.372-.51-.449-.45-.509-.39-.55-.31-.569-.2-.567-.11-.542-.01-.15V686.459l.11-.432.02-.036.18-.316.01-.003.29-.253.39-.153.45-.043.26.037.01.001.23.032.53.178.54.28.54.371.5.449.45.508.39.549.31.568.21.565.11.542v.496l-.1.433Zm0 0-.02.026M1075.28 685.266l-.38.15M1085.16 683.368l-.14.281v.003l-.22.191-.31.089-.39-.015-.44-.12-.49-.218-.5-.31-.52-.39-.49-.453-.46-.5-.37-.485-.04-.043-.33-.535-.26-.521-.16-.488-.07-.435.04-.367.13-.283v-.002l.23-.187M1083.96 680.497l.41.526.33.534M1081.39 678.598l.12.031.48.219.51.308v.002l.51.388M1088.61 678.53l-.14.117-.1.008-.14.011-.26-.066-.05-.014-.39-.175-.43-.264-.47-.342-.48-.406v-.003l-.49-.458-.46-.49-.43-.503-.37-.498-.3-.472-.22-.428-.1-.276-.04-.093-.03-.248-.01-.046.06-.209.04-.028.11-.088.24-.018.31.081.38.176.43.264.47.342.49.408.48.457.35.367.11.122.43.502.37.497.21.334.09.137.22.428.14.369.02.126.02.169-.06.21Zm0 0-1.99 3.588"/><path d="m1083.91 673.56-.14.068-.26.131-.16.082-.67.336M1090.2 675.348l-.07.04-.16-.055-.24-.148-.32-.233-.05-.039-.33-.273-.43-.377-.46-.428-.47-.463-.47-.48-.45-.478-.41-.458-.35-.42-.28-.366-.2-.298-.12-.219-.02-.131.07-.038.16.056.24.148.32.234.38.312.28.248.15.128.46.428.47.462.47.478.11.114.34.363.4.457.35.42.06.079.22.287.21.299.11.219.03.132Zm0 0-1.41 2.533-.14.27M1085.44 670.484l-.84.449-.27.143"/><path d="m1089.63 674.411.13-.241.01-.039-.08-.13-.17-.216-.26-.294-.32-.359-.39-.412-.44-.449-.46-.468-.47-.469-.47-.452-.44-.418-.4-.368-.34-.302-.27-.227-.19-.142-.1-.052-.99.541M724.226 335.673l-8.725-4.887-7.161-4.012-8.881-4.597-8.881-4.596-8.881-4.596-4.319-2.235-8.913-4.534-8.913-4.534-8.913-4.533-4.378-2.227-9.162-4.008-9.162-4.007-9.162-4.008-5.115-2.237-9.576-2.879-9.576-2.88-9.577-2.88-9.576-2.879-9.577-2.88-9.576-2.879-9.577-2.88-2.848-.856 2.851 9.585 2.851 9.585 2.852 9.585 2.851 9.585 2.851 9.585 2.851 9.585 2.851 9.584.875 2.943 3.986 9.171 3.986 9.172 3.985 9.171 2.237 5.146 4.515 8.923 4.515 8.922 4.515 8.923 2.227 4.4 4.578 8.891 4.579 8.89 4.578 8.89 2.236 4.342 4.871 8.733 3.605 6.461M1079.1 664.968l-1.7 3.343-4.21 5.779-6.35 7.725-.25.305-1.48 1.688-.89 1.014-2.62 2.986-3.03 3.458-.74.843-.23.244-4.12 4.507-3.37 3.68-.6.653-2.27 2.478-2.77 2.93-4.04 4.266-.01.009-.13.134-.01.009-3.97 4.193-1.06 1.127-.54.55-.01.009-4.42 4.544-.01.01-.37.382-4.28 4.393-1.2 1.234-.01.009-2.06 2.114-2.55 2.551-.01.01-.88.879-4.34 4.342-.76.758-.01.009-4.62 4.62v.01l-.09.084-1.24 1.207-4.38 4.266-.28.271-.01.009-4.495 4.38-.009.009-1.742 1.696-.903.879-3.119 2.949-.01.009-.25.237-.01.009-4.099 3.876-.009.008-2.157 2.04-2.653 2.507-.408.372-.008.008-.762.695-.008.007-3.577 3.263-.008.007-2.635 2.403-1.583 1.445-.007.006-1.144 1.044-.008.006-.895.817-2.578 2.24-.008.006-2.5 2.173-.006.005-.637.554-.004.003-3.602 3.129-7.269 5.843-4.944 3.378-2.469.827"/><path d="m947.694 794.638-.15.244-.064 1.747 2.505-.834 5.029-3.433 7.397-5.944 4.34-3.77.004-.004.839-.728.006-.006 2.718-2.361.007-.006 1.59-1.381 1.701-1.551.007-.007 1.159-1.057.008-.007 1.69-1.541 2.616-2.386.008-.008 3.508-3.199.008-.008.542-.494.217-.205.008-.008 3.098-2.928 2.145-2.029.009-.008 4.084-3.861.009-.009.251-.236.009-.009 2.706-2.559 1.312-1.276 1.749-1.704.009-.009 4.502-4.387.01-.009.28-.271 4.35-4.239 1.09-1.06.25-.245.01-.01 4.63-4.635.01-.01.78-.773 4.29-4.295.89-.895.01-.01 2.64-2.639 1.99-2.04.01-.01 1.21-1.249 4.25-4.36.37-.383.01-.01 4.44-4.56.01-.009.85-.873.76-.8 3.97-4.193.01-.009.11-.121.01-.01 4.03-4.262 3.33-3.509 1.76-1.923.59-.653 3.33-3.631 4.18-4.57.92-.999.09-.103 2.91-3.32 2.75-3.139 1.04-1.181 2.13-2.428 6.35-7.726.36-.447 4.28-5.878 1.73-3.397-.85-.831-1.4.717M739.688 344.793l-3.392 1.012-5.432 3.165-7.289 5.226-2.195 1.756-1.266 1.014-3.092 2.474-2.309 1.849-.015.012-.976.84-4.211 3.628-3.136 2.701-.412.354-1.384 1.193-2.931 2.67-4.434 4.04-.008.007-3.582 3.264-.107.102-.008.007-5.589 5.344-.009.008-2.734 2.614-.008.007-2.883 2.755-3.557 3.557-.008.007-2.255 2.254-.008.008-5.42 5.418-.81.847-.007.008-2.785 2.913-.008.008-5.076 5.311-.007.007-1.994 2.085-.077.085-1.127 1.24-.394.433-.008.008-3.778 4.155-.006.007-1.751 1.926-2.19 2.408-.007.007-.344.379-.15.176-.007.008-2.422 2.83-.006.007-1.844 2.155-1.614 1.887-.006.006-.931 1.088-.005.007-1.298 1.515-.564.717-.005.007-2.077 2.635-.003.005-.191.242-.69.876-.002.002-3.024 3.838-4.584 6.644-2.458 4.723-.268 2.647M628.52 455.921l1.425 2.118.492.732"/><path d="m742.463 346.665.828-2.944-1.291-1.205-3.519 1.04-5.648 3.284-7.586 5.436-.676.541-.037.029-.748.599-2.472 1.977-1.345 1.077-3.363 2.691-.604.483-1.54 1.326-.988.851-4.212 3.627-3.358 2.892-.293.253-.153.131-3.936 3.586-4.763 4.339-.008.008-2.712 2.47-.494.472-.007.007-6.285 6.007-.009.009-1.829 1.748-.008.007-3.188 3.048-4.326 4.324-.008.008-1.025 1.025-.008.008-6.36 6.358-.88.92-.007.007-2.024 2.118-.009.008-5.652 5.914-.007.007-2.563 2.68-.659.725-.007.009-4.067 4.472-.006.007-1.805 1.986-1.98 2.177-.006.007-.444.488-.007.007-1.109 1.221-1.467 1.715-.006.006-1.842 2.153-1.66 1.941-.006.006-.926 1.083-.006.007-1.729 2.021-.005.006-.981 1.147-1.129 1.434-.297.376-.004.006-1.062 1.347-.003.005-4.33 5.498-4.766 6.913-2.548 4.908-.266 2.744 1.987.51 1.734-.716"/><path d="m742 342.515-2.249-1.738-3.516 1.026-.524.302-5.112 2.958-2.013 1.438-.876.626-1.373.98-.653.466-1.832 1.309-.335.239-.481.343-2.14 1.709-1.259 1.005-1.38 1.102-1.031.824-2.442 1.949-.961.767-3.08 2.649-.063.055-2.211 1.901-5.149 4.428-7.396 6.731-3.976 3.62-7.23 6.908-4.539 4.336-7.073 7.07-4.601 4.599-6.908 7.23-4.18 4.374-6.724 7.402-3.316 3.652-2.352 2.753-.005.006-2.343 2.742-.006.007-.306.359-.008.009-2.723 3.187-.005.006-.835.977-1.154 1.47-.005.005-.782.996-.005.006-1.194 1.52-.005.006-.778.991-.004.004-2.084 2.653-.004.005-.027.035-.004.004-.74.942-.598.87-.003.005-.487.709-.558.813-.152.221-2.937 4.275-1.65 3.198-.877 1.701-.254 2.745 1.735 2.25M1079.1 664.968l-1.06-1.29-1.6-1.953M1070.81 654.852l-.69-.85-.2-.241-6.34-7.737-6.33-7.736-6.34-7.737-6.34-7.736-2.97-3.625-6.5-7.599-6.5-7.598-6.5-7.599-6.5-7.598-6.5-7.598-5.52-6.457-6.683-7.442-6.679-7.443-6.679-7.442-6.679-7.443-6.679-7.442-5.627-6.271-6.853-7.283-6.853-7.282-6.853-7.283-6.853-7.282-6.853-7.283-5.741-6.101-7.469-6.649-7.47-6.649-7.469-6.649-7.469-6.649-7.469-6.649-6.299-5.608-7.309-6.068M634.309 464.525l.6.891.363.54.517.768.082.121 5.583 8.297 5.583 8.296 4.784 7.11 5.583 8.297 3.886 5.774 5.908 8.069 5.908 8.068 5.908 8.068 5.908 8.068 5.908 8.068 5.288 7.222 6.383 7.698 6.382 7.698 6.383 7.698 1.608 1.94 6.383 7.698 6.382 7.699 3.861 4.656 6.646 7.472 6.646 7.471 6.646 7.472 6.647 7.472 6.646 7.472 5.611 6.308 7.284 6.851 7.284 6.852 7.284 6.851 7.284 6.852 7.284 6.851 6.108 5.745 7.445 6.677 7.445 6.676 7.445 6.676 7.445 6.676 7.445 6.676 6.279 5.631 7.602 6.497 7.601 6.497 7.602 6.497 7.602 6.497 7.602 6.497 6.467 5.527 7.74 6.331 7.741 6.331 7.741 6.331 7.741 6.331 4.01 3.279.382.313.999.817M1119.72 869.736l5.13-4.601 7.25-6.886.14-.137 7.07-7.072.34-.34 6.89-7.252.24-.248 6.54-7.283 5.71-6.772.28-.368 4.36-5.625 3.4-4.98 2.05-3.782.61-2.447M947.48 796.629l6.754 4.063.642.386.54.325M1169.74 811.943l-1.63-2.693-4.28-7.092M1141.16 911.855l1.01-.011 2.59-1.106 3.5-2.158 4.28-3.133.19-.156 4.7-3.832 5.31-4.69 5.5-5.186.02-.02 5.51-5.513 1.71-1.817 3.57-3.782 4.83-5.461 4.2-5.106 1.05-1.402 2.35-3.147 2.47-3.815 1.46-2.939.38-1.953-2.06-3.537-5.04-8.638-.68-1.177"/><path d="m1133.46 900.616 4.06-3.006 5.81-4.778 6.32-5.613 6.59-6.225 6.58-6.585 6.31-6.68 5.79-6.504 5.03-6.069 4.08-5.392 1.61-2.452 1.36-2.054 1-1.981.75-1.47.48-2.271-.78-1.399-4.89-8.724-.49-.871-.69-1.232M1179.53 822.21l-.27-.488-.35-.611-.4-.73-4.89-8.724-1.27-2.264-.89-1.096-2.37.443-.98.51"/><path d="m1172.35 809.394-.65 2.609-2.18 4.04-3.64 5.326-4.96 6.414-1.08 1.278-5.03 5.973-6.68 7.439-.33.362-4.69 4.939v.004l-.46.486-.01.008-2.47 2.599-2.66 2.657v.005l-1.25 1.252-.01.006-4.02 4.022-7.25 6.886-.67.638-4.51 4.044M1152.73 905.291l8.22 5.695 4.35 3.016.98-.007 1.57-.65 2.1-1.271 2.55-1.845 2.9-2.348 3.15-2.76 3.26-3.065 3.24-3.249 3.11-3.305 2.84-3.231 2.48-3.029 2-2.711 1.45-2.286.86-1.775.22-1.198-5.7-8.213-3.18-4.577"/><path d="m1008.62 774.413 4.22 9.067 4.22 9.066 4.21 9.067 2.89 6.192 4.21 9.067 4.22 9.066 4.22 9.067 4.22 9.066 2.52 5.412 2.86 6.158.33.696 4.22 9.066 1.26 2.714 7.26 6.88 7.25 6.881 7.26 6.88 1.01.957.15.144 7.26 6.88 7.25 6.881 7.26 6.88 7.26 6.881 7.25 6.88 7.21 6.839 7.39 6.739 7.38 6.727 7.39 6.739 7.34 6.701 7.39 6.739 7.32 6.676 7.39 6.738 7.29 6.651 7.44-6.68.21-.187 1.58-4.618-6.02-7.983-6.03-7.982-5.13-6.801-5.88-8.086-5.89-8.086-5.05-6.948-5.98-8.021-5.62-7.563-1.02-1.368-4.19-5.622-2.49-4.25-.36-.625-3.74-6.391-.37-.621-2.48-4.238-2.41-4.121-3.26-5.574-.28-2.339v-.006l-.06-.462v-.01l-.37-3.055v-.004l-.1-.878v-.001l-.23-1.91-.08-.644-1.19-9.929-.66-5.501-.1-.085-.36-.308-7.62-6.48-7.62-6.479-7.62-6.48-7.61-6.479-7.62-6.48-7.62-6.479-7.61-6.48-7.62-6.479-7.62-6.48-7.61-6.479-7.62-6.48-7.62-6.48-7.61-6.479-2.55-2.165-7.22 6.899Z"/><path d="m1015.84 767.514 4.25 9.052 4.25 9.052 4.25 9.052 2.9 6.181 4.25 9.052 4.25 9.052 4.25 9.052 4.25 9.052 4.25 9.052 4.25 9.051 1.92 4.089.86 1.816"/><path d="m1052.22 868.117 5.52-5.159 2.03-1.891 7.25 6.883 1.7 1.611 7.26 6.882 4.38 4.161 7.26 6.882 7.25 6.883 7.25 6.882 7.26 6.883 7.25 6.883 7.26 6.882 2.36 2.244 7.39 6.742 7.39 6.746 7.38 6.743 7.36 6.72 7.39 6.742 7.33 6.695 7.39 6.742 7.3 6.67M1193.73 853.091l5.58 3.991 8.01 5.984 8.01 5.985 1.83 1.365 6.83-6.211 1.24-3.635-6.8-7.339-5.62-6.071-6.79-7.339-5.6-6.049-6.79-7.339-5.58-6.027-6.8-7.338-5.55-6.005-6.95-7.271"/><path d="m1188.45 838.136 8.12 5.831 8.13 5.831 1.44 1.035 8 5.997 8.01 5.997 1.83 1.378M943.346 784.266l-.555 1.094-.363.716-.342.676-.411.81-.005.034-.015.108-.018.121.063.341.161.404.252.451.335.483.066.081.337.413.457.488.493.463.296.242.184.152.03.025.509.36.486.286.446.203.388.111.316.015.132-.047.099-.035.201-.116 3.469-1.987"/><path d="m941.676 787.561.136-.177.231-.084.315.014.388.11.316.143.13.059.487.287.509.36.423.347.089.073.312.293.182.17.458.489.404.496.335.483.252.453.16.404.062.34-.018.117-.021.146-.138.176M950.359 790.157l.187-.238.054-.357-.083-.46-.215-.547-.341-.612M937.826 786.565l-.721 1.28-.015.162.078.248.132.254"/><path d="m938.206 786.878-.569 1.021-.339.61-.712 1.28.066.082.157.171.241.255.316.327.379.389.426.434.459.462.472.474.468.467.446.442.407.399.352.342.282.271.204.19.116.101.024.01.805-.455"/><path d="m939.694 786.788-.046.085-.443.822-.507.94-.563 1.045-.033.061.039.183.133.265.221.338.301.397.37.44.424.468.462.477.482.467.485.441.467.396.433.338.287.199.095.066.315.183.238.094h.151l2.65-1.522 1.161-.667"/><path d="m938.102 789.742.035-.06.021-.035.149-.001.237.094.316.182.381.264.434.338.468.398.485.44.484.469.463.479.307.338.118.131.37.44.301.398.13.198.091.138.132.266.038.182-.057.092M946.816 792.305l.079-.126-.007-.034M948.559 780.454l-.003.008-.047.102-.003.007-1.163 2.527-.003.006-.086.186-.11.342-.001.153-.002.259.103.468.207.505.142.247.158.276.384.521.079.087.373.411.504.457.469.35.066.049.546.324.537.238.507.142.457.041.39-.062.054-.029.253-.133.253-.141 3.183-1.779"/><path d="m947.254 783.291.137-.166.004-.006.071-.086.307-.163.389-.063.457.04.203.057.111.031.005.001.188.053.538.237.396.235.151.09.537.399.504.458.453.499.195.264.19.258.3.524.206.506.103.468-.004.39-.001.022-.11.341-.214.257M955.809 786.016l.289-.348.151-.462.007-.558-.138-.633-.207-.511-.071-.174-.01-.017-.396-.691M955.611 774.671l-.335.854-.002.006-.75 1.913-.063.481.051.527.164.555.271.56.366.545.448.508.512.453.558.379.396.198.157.079.028.014.583.192.562.086.519-.025.456-.133 2.981-1.562"/><path d="m962.512 780.301.509-.321.382-.448.239-.56.088-.65-.068-.714-.221-.751-.365-.759-.427-.637-.068-.101M954.523 777.444l.175-.414.281-.332.376-.238.456-.134.101-.005.418-.021.562.085.583.192.583.291.559.38.513.453.449.509.239.356.099.147.029.043.27.561.164.556.05.525v.003l-.064.48-.176.414-.282.331-.377.237M964.329 766.72l-.773 2.715-.115.54.007.58.128.599.245.594.351.566.444.517.091.078.104.09.326.28.576.362.612.261.621.151.609.036.573-.082.513-.197 2.559-1.179"/><path d="m971.199 772.632.589-.41.461-.539.315-.647.156-.73-.008-.786-.172-.81-.329-.804-.475-.767M963.555 769.436l.231-.479.34-.399.109-.077.326-.228.513-.197.573-.083.609.034.623.151.612.262.578.362.171.147.103.089.247.212.445.518.351.568.245.594.127.6.007.581-.116.54-.176.363-.056.115-.341.399-.436.303M974.028 758.394l-.214 2.04-.029.625.1.635.223.622.046.079.062.107.231.398.442.524.527.445.592.347.635.236.653.117.646-.006.615-.131 1.878-.638M981.84 762.971l.524-.614.374-.72.211-.798.04-.844-.134-.86-.302-.841-.458-.791"/><path d="m973.812 760.433.155-.59.09-.172.186-.361.387-.455.482-.359.558-.251.615-.131.647-.008.654.117.307.114.12.045.208.078.594.347.527.445.442.525.339.584.223.623.1.636-.029.625-.156.59-.277.533-.387.454-.201.15-.281.209-.56.25M1067.94 661.735v-.003l.23-.187.01-.008.32-.094.02.001.37.01.32.082.13.034.49.216.52.307.26.202.25.185.49.452.46.5.4.529.34.537.11.243.14.281.15.492.06.441-.04.373-.15.29v.002M1071.42 666.785l-.49-.215-.51-.308M1070.88 670.115l1.2-2.162.32-.569.43-.766M1068.18 661.537l-2.98 1.418M1068.55 664.39l-.34-.538-.25-.525M1069.9 665.874l-.49-.453-.46-.501M1065.62 676.449l1.62-3.067.11-.442.01-.505-.1-.549-.05-.152-.07-.188-.08-.231-.3-.573-.38-.552-.46-.51-.5-.447-.54-.37-.55-.276-.33-.104-.03-.01-.18-.058-.51-.062-.46.05-.4.161-1.7.704-1.61.67"/><path d="m1067.24 673.381-.02.029-.2.332v.003l-.31.264-.4.163-.46.052-.28-.034-.01-.002-.22-.026-.55-.172-.2-.101-.18-.091-.17-.084-.54-.37-.5-.448-.45-.512-.39-.553-.3-.573-.2-.573-.1-.549v-.131l.01-.374.01-.032.11-.409.21-.357.01-.004.3-.256.01-.01M1065.32 676.94v-.003l.3-.489M1058.39 684.802l1.26-2.664.18-.501.07-.561-.05-.599-.16-.613-.27-.604-.36-.572-.04-.041-.09-.11-.32-.367-.51-.444-.56-.353-.59-.249-.59-.135-.56-.016-.53.104-2.79.886"/><path d="m1059.65 682.138-.01.017-.27.406-.01.004-.37.325-.29.136-.01.004-.16.081-.53.105-.57-.015-.58-.134-.59-.249-.56-.354-.51-.442v-.003l-.1-.106-.35-.413-.37-.573-.27-.605-.16-.614-.05-.599.07-.561.18-.501.09-.129.01-.009.19-.28v-.004l.38-.328.43-.202.03-.018M1058 685.378l.01-.004.38-.572M1045.14 687.859v-.005l.44-.377.08-.042.02-.009.42-.217.49-.127.09-.021.61-.022.62.105.62.227.33.198.11.065.14.077.52.442.44.525.35.588.25.63.12.646v.639l-.11.606-.04.092-.2.459-.34.473-.01.004M1049.66 693.189l-.52.269-.58.149-.61.022-.63-.104-.61-.226-.58-.341-.53-.442-.44-.526-.33-.551-.02-.039-.03-.079-.21-.551-.13-.647v-.639l.12-.607.23-.55M1046.67 687.062l-2.14.342M1049.14 695.175l.01-.004.46-.64.32-.744M1049.93 693.787l.75-2M1040.14 703.675l.18-1.242.03-.668-.1-.671-.22-.649-.34-.601-.44-.53-.53-.439-.59-.332-.64-.211-.01-.001-.14-.023-1.02-.171"/><path d="m1040.32 702.433-.02.079-.13.524-.01.036v.004l-.28.582-.39.51v.004l-.48.41-.57.304-.61.18-.65.05-.66-.082-.64-.211-.59-.332-.53-.439-.44-.531-.34-.602-.22-.649-.05-.356-.02-.134-.03-.181.03-.669.16-.639.28-.586.39-.504v-.005l.49-.415.56-.302.62-.18.47-.036.03-.002.15-.011.36.046.14.017.14.018.01.001M1039.02 706.024v-.004l.53-.689.38-.792.21-.864M1028.25 711.826l.33.609.21.659.08.686-.05.685-.19.658-.31.607-.42.531-.01.005-.51.431-.59.323-.65.198-.67.066-.68-.069-.65-.202-.61-.326-.53-.439-.44-.533-.33-.609-.21-.66-.07-.686.04-.504.01-.156v-.025l.19-.659.31-.606.41-.525.01-.006.51-.436.6-.322.64-.198.19-.019.17-.016.32-.031.67.07.66.201.6.327.53.438.44.533ZM1027.95 717.572l.01-.005.56-.717.42-.82.25-.889.08-.926M1016.13 724.226l.33.61.2.663.07.689-.07.689-.2.663-.32.612-.44.536v.005l-.53.436-.61.328-.66.202-.69.069-.68-.066-.66-.2-.61-.325-.54-.439-.44-.534-.32-.611-.2-.662-.07-.689.06-.69.06-.172.06-.203.08-.288.33-.611.43-.531v-.006l.54-.44.61-.328.31-.095.2-.062.15-.045.68-.069.69.066.66.2.61.325.53.439.44.534ZM1016.3 729.436l.01-.005.59-.725.44-.826M1003.74 736.626l.32.607.2.657.07.682-.06.68-.2.653-.33.601-.43.524-.01.005-.52.424-.61.317-.66.192-.69.06-.68-.073-.664-.206-.609-.328-.534-.439-.438-.534-.327-.606-.202-.657-.069-.682.048-.496.016-.162.002-.022.199-.653.323-.601.432-.519.005-.006.532-.429.607-.317.537-.156.122-.036.06-.005.63-.055.68.073.66.205.61.329.54.439.44.534ZM985.278 750.913l-.009-.076-.004-.036-.02-.164-.016-.138-.03-.25.053-.658.183-.628.308-.574.414-.492.005-.006.515-.401.591-.291.644-.168.649-.039.023-.001.112.015.564.076.652.217.603.336.532.442.44.53.331.598.209.644.079.664-.053.659-.184.628-.308.574-.42.497-.006.004-.509.397-.591.29-.569.149-.028.007-.047.012-.672.039-.675-.09-.652-.218-.603-.336-.531-.441-.44-.53-.33-.598-.21-.643Zm0 0-.018-.059M988.719 753.769l.672-.031M994.097 750.219l.072-.89-.107-.897"/><path d="m992.016 749.859.08.664-.054.659-.185.628-.308.574-.414.491-.005.006-.514.401-.591.29-.541.141-.028.008-.065.017-.011.002-.672.039-.674-.091-.652-.217-.603-.336-.532-.441-.44-.53-.33-.598-.209-.643-.008-.069-.005-.043-.005-.037-.016-.126-.016-.138-.03-.251.053-.658.183-.628.308-.574.419-.498.005-.004.51-.397.591-.291.644-.168.651-.039.021-.001.112.015.564.076M989.902 747.31l.604.336.532.442.44.53.33.598"/><path d="m984.938 749.88.218.694.037.117.075.232M989.586 753.739l.908-.053M988.707 753.779l.876-.041M998.477 741.75l.822.444.891.277.93.1.92-.082.9-.259.07-.04.01-.003.74-.385.49-.401.02-.011.2-.167"/><path d="m1004.33 738.582-.07.681-.2.653-.32.6-.43.519-.01.006-.53.429-.61.316-.66.193-.68.06-.69-.074-.662-.205-.609-.328-.534-.44-.438-.533-.327-.607-.201-.657-.07-.681.049-.496.015-.162.002-.023.199-.653.324-.6.436-.525.006-.005.526-.424.607-.317.538-.157M1003.73 736.636l.32.607M1000.11 735.118l.06-.006.63-.055M1002.14 735.335l.61.329M1010.3 730.048l.82.44.89.27.93.089.93-.093.89-.274.82-.442.72-.596.01-.005M1016.45 727.552l-.32.612-.43.53-.01.006-.53.441-.61.327-.66.203-.69.069-.68-.066-.67-.2-.6-.325-.54-.439-.44-.534-.32-.611-.21-.662-.06-.689.06-.69.05-.172.07-.203.08-.288.33-.612.43-.536.01-.005.53-.435.6-.328.31-.095M1013.19 722.672l.69.067.66.2.61.325.53.438.44.535.33.61.2.663.07.689M1022.05 718.154l.81.441.89.272.91.094.91-.089.87-.268.8-.437.7-.589.01-.006M1027.89 716.266v.006l-.52.436-.59.323-.65.198-.67.066-.68-.069-.65-.202-.61-.326-.53-.439-.44-.534-.33-.608-.21-.66-.08-.686.04-.505.02-.156v-.024l.18-.659.31-.606.43-.531v-.005M1028.57 712.445l.21.66M1028.86 713.79l-.06.685M1023.42 710.855l.59-.323.65-.198.19-.018.16-.016.32-.031M1026.01 710.337l.65.202M1039.87 703.668l-.38.504-.01.006-.48.415-.57.303-.61.18-.65.05-.66-.082-.64-.211-.59-.331-.53-.44-.44-.531-.34-.601-.22-.649-.06-.358-.02-.133-.02-.181.03-.668.16-.64.28-.585.39-.51v-.005l.48-.409.57-.303.62-.179.5-.039.04-.002.1-.009.51.063.14.018.01.002.64.211M1040.02 700.455l.22.649.1.671-.03.668-.14.557-.01.046M1034.14 706.917l.86.284.89.111.87-.068.84-.244.76-.409.65-.561.01-.006M1038.71 698.885l.53.439.44.531M1050.67 691.797l-.24.55-.34.468v.005l-.01.004-.43.375-.52.269-.58.148-.61.023-.63-.104-.61-.227-.58-.341-.52-.442-.45-.526-.33-.551-.02-.038-.03-.08-.21-.551-.13-.647v-.639l.12-.606.23-.55.35-.473v-.005l.44-.373.1-.05.01-.008.41-.21.57-.147.62-.022.62.104.62.227.33.198.11.065.14.078.52.441.44.525.35.589.24.629.13.647v.638l-.11.607Zm0 0-.03.082M1045.39 696.148l.85.14.82-.031.78-.201.7-.364.6-.511v-.006M1046.66 687.071l-.07.011M1059.83 681.645l-.18.502-.29.418v.005l-.38.328-.28.133-.01.004-.17.084-.53.105-.56-.014-.59-.135-.59-.249-.56-.354-.51-.442v-.003l-.1-.107-.35-.412-.37-.573-.27-.605-.16-.614-.04-.598.06-.561.19-.502.09-.138.01-.008.18-.276.01-.004.37-.324M1059.42 679.27l.27.604.16.613.05.598M1055.39 686.25l.76.019.71-.143.63-.299.51-.445v-.004M1055.79 676.981l.57.016.59.135.58.249M1067.2 671.738l.06.154.1.549-.01.505-.12.442-.21.357-.01.004-.31.267-.39.163-.46.051-.28-.033-.01-.001-.23-.027-.54-.172-.2-.102-.18-.091-.17-.084-.54-.369-.5-.449-.46-.511-.38-.553-.3-.573-.2-.573-.1-.549V670.001l.01-.363.01-.04.1-.401.22-.361.01-.003.3-.263.4-.161.46-.051.51.063.19.059M1064.88 668.869l.53.369.51.448.45.51.38.552M1064.36 677.526l.53-.22.43-.362v-.004M1072.82 666.624l-.24.196-.32.095-.39-.01-.45-.115-.49-.215-.52-.308-.51-.387-.5-.454-.46-.501-.09-.118-.31-.411-.33-.538-.25-.526-.16-.492-.05-.441.04-.372.14-.289.01-.003.23-.193.32-.093.04.001.36.01.32.084.13.031.49.216.51.307.27.204.24.183.5.453.46.5.4.528.33.537.11.233.14.292.16.492.06.441-.05.373-.14.286v.004Zm0 0-.42.762-.32.569-1.19 2.142-.02.019v.004M1068.17 661.542v.003M1076.63 661.393l-.16.12-.19.017-.05.004-.27-.065-.05-.012-.39-.173-.44-.263-.47-.341-.31-.258-.18-.15-.48-.458-.46-.491-.43-.504-.37-.499-.3-.474-.21-.43-.06-.165-.07-.206-.02-.196-.01-.101.06-.212.01-.003.15-.115.15-.013.09-.007.32.078.39.174.44.263.47.341.49.407.48.457.46.49.03.033.39.47.37.498.3.466v.007l.22.43.13.371.02.247.01.051-.06.212Zm0 0-.19.332-1.92 3.377M1071.93 656.418l-.18.092-.26.137-.18.092-.66.341-.3.159-.73.377-1.11.58M1072.66 664.741l.37.217.52.233M1078.35 658.189l-.07.038-.16-.055-.25-.148-.3-.22-.02-.015-.38-.312-.43-.377-.46-.429-.48-.463-.47-.48-.44-.478-.41-.457-.34-.42-.28-.365-.2-.298-.11-.218-.02-.13.07-.037.16.057.25.148.32.235.39.312.04.039.38.338.47.428.47.462.47.479.33.361.11.115.4.457.35.419.11.134.17.232.2.298.11.219.02.131Zm0 0-1.66 2.941M1073.53 653.362l-1.13.62-1.16.633-.43.237-.53.294"/><path d="m1077.85 657.309.13-.237.01-.044-.09-.134-.17-.219-.25-.297-.33-.362-.39-.414-.44-.45-.46-.468-.47-.468-.47-.451-.44-.416-.4-.365-.34-.3-.27-.223-.19-.138-.1-.048-1.87 1.056-.59.328-.6.343"/><path d="m1071.31 653.331-.08-.035-.27-.06-.18.033-.86.492M1126.51 888.74l.14-.089.27-.28.19-.341.1-.386.01-.418-.08-.433-.17-.432-.26-.414-.32-.381M1128.08 881.75l.03 1.1.04.341.12.335.18.315.24.285.29.243.33.191.35.132.36.069.36.002.34-.064.31-.129 1.01-.494M1132.04 884.076l.37-.254.3-.324.21-.382.13-.425.03-.452-.07-.462-.15-.453-.25-.427-.32-.385"/><path d="m1128.11 882.85.02-.335.06-.191.04-.123.16-.283.22-.239.27-.188.31-.129.34-.065.36.002.37.069.35.132.32.191.29.243.24.285.18.316.12.335.05.341-.03.335-.09.314-.16.283-.14.149-.08.09-.27.188M1181.07 830.002v-.003l.07-.18.01-.224-.05-.259-.09-.286-.15-.301-.13-.211-.06-.093-.22-.296-.26-.276-.27-.246-.27-.207-.28-.159-.26-.104v-.001l-.23-.047-.21.012-1.96.837M1180.79 830.199l-.2.013-.24-.048-.26-.105M1181.07 829.999V830"/><path d="m1178.6 828.57-.14-.301-.1-.286-.04-.26M1178.39 827.319l.12-.125v-.002l.16-.071M1177.23 836.05l.99-1.663.11-.215.05-.259-.01-.292-.06-.315-.12-.324-.17-.322-.21-.307-.25-.281-.28-.243-.29-.197-.29-.142-.29-.083-.27-.02-.24.043-1.81.622"/><path d="m1177.37 834.683-.02-.001-.29-.083-.3-.143-.29-.197-.27-.243-.25-.281-.22-.308-.17-.322-.11-.325M1175.38 832.23v-.056l.05-.259.1-.215.16-.164.19-.096.02-.01M1178.22 834.387v.002l-.16.162-.2.106M1173.72 840.727l.76-1.347.05-.148.04-.14.03-.32-.04-.338-.09-.344-.15-.337-.21-.317-.24-.284-.28-.241-.3-.189-.32-.129-.31-.064-.3.004-1.15.261"/><path d="m1174.14 839.822-.24.135-.03.008-.01.001-.24.061-.3.004-.31-.064-.31-.129-.31-.188-.28-.242-.24-.284-.21-.317-.15-.338-.09-.344-.04-.339.03-.319.09-.289.07-.119M1171.64 836.932l.2-.194.24-.135.13-.033.15-.037M1174.48 839.38l-.02.048-.12.198M1173.52 841.063v-.002l.2-.333M1169.18 846.364l.54-1.078.12-.311.06-.34-.01-.358-.08-.359-.13-.349-.2-.324-.24-.288-.28-.239-.32-.182-.33-.118-.33-.05-1.16.051"/><path d="m1169.04 845.932-.31.091-.32.021-.34-.049-.33-.118-.31-.182-.28-.24-.25-.287-.19-.325-.14-.349-.07-.36-.01-.357M1166.84 842.856l.23-.218.23-.134.01-.005.03-.018.31-.091.08-.006.25-.016M1169.72 845.286l-.01.012-.17.258M1168.93 846.731l.01-.003.24-.364M1164.09 852.051l.24-.671.08-.355.01-.37-.06-.37-.12-.357-.19-.33-.24-.289-.29-.238-.32-.178-.63-.204M1163.09 852.504l-.35.033-.35-.039-.35-.111-.32-.178"/><path d="m1161.06 849.573.21-.286.26-.234.29-.172.33-.105.35-.033.19.02.02.002.11.013.03.004.35.111M1164.32 851.38l-.01.032-.13.295-.02.023-.01.008-.18.254-.26.234M1163.61 852.881l.01-.002.27-.387.2-.441M1161.2 851.681l-.19-.329-.12-.357-.06-.371.01-.37M1154.88 856.315l.22-.293.28-.241.32-.18.35-.112.36-.039.36.035.36.107.32.176.29.238.24.291.18.332.12.36.04.376-.02.376-.1.362-.16.334-.23.293-.28.242"/><path d="M1157.73 859.319v-.003l.3-.396.23-.452.13-.489.03-.509-.06-.507-.15-.488-.25-.448M1157.22 859.152l-.35.112-.37.039-.36-.035-.35-.107-.33-.176-.29-.238-.24-.291-.18-.332-.12-.361-.04-.375.03-.376.09-.362M1148.3 863.138l.24-.293.29-.24.33-.179.36-.111.37-.039.37.036.36.108.33.176.29.238.24.291.18.332.11.36.03.375-.03.376-.11.361-.17.333-.24.293-.29.24M1149.17 865.98l-.33-.176-.29-.238-.24-.291-.17-.332-.11-.36-.04-.375.03-.376M1150.28 866.085l-.38.039-.37-.036"/><path d="M1151.46 865.838v-.002l.32-.396.24-.45.14-.489.05-.507-.05-.507-.15-.487M1141.55 871.919l-.18-.329-.11-.356-.03-.369.03-.368.11-.353.18-.324.24-.283.29-.231.34-.17.36-.103.37-.031.37.041.36.113.34.179.29.239.24.29.17.329.11.356.04.369-.04.368-.11.353-.18.324-.24.283-.29.231-.33.17-.36.102-.38.031-.37-.041-.36-.113-.33-.179M1145.01 872.23v-.003l.33-.382.24-.438.15-.477.05-.498-.05-.499-.15-.481-.23-.445M1135.08 875.881l.28-.214.33-.153.36-.087.37-.017.37.052.36.121.33.184.28.241.24.287.18.324.11.348.04.357-.03.355-.11.337-.17.307-.23.265M1138.6 878.288v-.002l.32-.359.23-.415.14-.456.05-.478-.06-.484-.15-.47-.24-.437-.32-.389M1134.86 878.172l.24.288.29.24.33.185M1137.5 878.801l-.21.095-.01.007-.11.051M1134.67 876.453l.17-.307"/><path d="m1134.4 877.292.28.562.17.324.24.287.29.241.33.184.36.121.37.052.37-.017.36-.087.59-.173"/><path d="m1137.99 876.301.18.324.11.347.04.358-.03.354-.11.337-.17.307-.23.265-.29.213-.18.087-.02.008-.1.048-.03.01M1134.68 877.854l-.02-.048-.03-.086-.01-.038-.05-.175-.04-.358.03-.354.11-.337.17-.307.23-.265.29-.213.33-.153.35-.087.37-.018.37.053.36.12.33.185M1137.76 878.786l.44-.207.39-.288v-.003M1141.34 872.182l.39.323.45.242.49.152.5.056.51-.042.49-.138.45-.23.39-.312v-.003"/><path d="m1144.5 872.251-.29.231-.34.17-.36.103-.37.031-.38-.042-.36-.112-.33-.179-.29-.239-.24-.29-.17-.329-.11-.356-.04-.369.04-.368.11-.353.18-.324.24-.283M1144.74 869.869l.18.329.11.356.03.369M1144.92 871.645l-.18.325M1142.08 869.311l.33-.17M1143.14 869.008l.38.041.36.113.33.179M1147.8 865.857l.4.321.44.239.49.146.5.048.51-.052.48-.15.44-.242.39-.325.01-.004"/><path d="m1151.24 865.562-.28.24-.33.179-.36.111-.37.039-.38-.036-.35-.108-.34-.176-.29-.238-.23-.291-.18-.332-.11-.36-.04-.375.04-.376.1-.361.18-.333.23-.293M1149.15 862.432l.36-.111.37-.039.37.036.36.108.33.176.29.238.24.291.18.332.11.36.04.375-.04.376-.1.361M1154.16 859.345l.39.321.44.238.48.145.49.047.49-.053.47-.151.43-.243.38-.327v-.003M1158.03 858.443l-.22.293-.28.242-.32.18-.35.112-.36.039-.36-.035-.36-.107-.32-.176-.29-.238-.24-.291-.18-.332-.12-.361-.04-.375.02-.376.1-.362.16-.335.23-.293.28-.241M1156.77 855.491l.35.107.33.176.29.238.24.291.18.331.11.361M1160.18 852.856l.39.322.43.241.47.15.47.053.47-.046.45-.142.4-.234.35-.316v-.003M1163.97 851.998l-.26.234-.3.172-.33.106-.35.033-.35-.039-.34-.111-.32-.178-.29-.238-.24-.29-.19-.33-.12-.356-.06-.371.01-.37.08-.355.15-.327.2-.285M1164.32 851.386l.08-.355M1164.32 851.386l-.14.326M1161.52 849.059l.3-.172.33-.105M1162.85 848.788l.35.111M1164.04 849.604l-.24-.289-.28-.238M1166.07 846.922l.42.246.45.16.45.066.45-.029.41-.123.37-.214.31-.294v-.003M1169.88 844.283l.01.357-.06.341-.12.311-.17.27-.16.151-.01.004-.06.062-.28.158-.3.091-.33.022-.34-.05-.33-.118-.31-.182-.28-.239-.25-.288-.19-.324-.14-.349-.07-.36-.01-.358.06-.34.12-.311.18-.27.23-.218.24-.138.01-.005.02-.014.31-.091.32-.021M1169.48 843.25l-.25-.287-.28-.24-.31-.182M1170.89 841.096l.41.256.42.174.42.086.41-.005.37-.096.33-.183.27-.263v-.003M1174.57 839.097l-.04.134-.05.154-.15.246-.19.194-.24.135-.03.008-.01.001-.24.062-.3.004-.31-.064-.32-.129-.3-.189-.28-.241-.25-.285-.2-.317-.15-.337-.1-.344-.03-.339.03-.319.08-.289.08-.125.06-.101v-.005l.01-.014.2-.195.24-.134.27-.071M1174.32 837.759l-.21-.317-.24-.284-.28-.241-.3-.189M1178.22 834.389v.002l-.16.164-.2.106-.24.044-.25-.017v-.001l-.02-.001-.29-.083-.3-.143-.29-.196-.27-.244-.25-.281-.22-.307-.17-.323-.12-.324-.06-.315v-.292l.05-.259.1-.215M1178.32 834.177l.06-.259-.01-.292-.07-.314M1175.69 831.54l.21-.105.24-.044.27.02M1177.23 836.054v-.003l.01-.006.98-1.654M1175.26 836.15l.4.192.39.112.36.027.33-.06.28-.144.21-.222M1177.88 831.442l.38.279.37.215.35.142.32.064.28-.017.22-.097.14-.156.02-.017M1181.07 830v.002l-.11.128-.17.072-.2.012-.24-.047-.26-.105-.27-.159-.28-.207-.27-.246-.26-.277-.22-.296-.19-.305-.14-.301-.1-.286-.04-.26.01-.223.06-.179M1180.67 828.448l-.22-.296-.25-.276-.27-.246-.28-.206-.28-.159-.25-.102M1181.14 829.823l.01-.224-.05-.26-.09-.286-.15-.3-.13-.218M1178.51 827.195l.16-.071M1179.96 831.855l1.11-1.853M1182.81 826.592l-.07.088-.12.033-.16-.023-.2-.079-.24-.13-.16-.116-.09-.061-.26-.218-.27-.25-.04-.044-.21-.227-.24-.284-.21-.285-.17-.274-.04-.073-.09-.181-.09-.223-.03-.185.02-.138.04-.052.01-.003.02-.032.12-.033.07.009.03.005.07.01.2.078.01.004.22.127.25.177.27.217.26.25.16.163.1.108.23.283.21.284.14.214.04.061.13.253.08.224.03.185-.02.138Zm0 0-.42.717-.18.296-.58.985M1180.21 823.835l-.04.019v.002l-.54.261-.07.035-.37.183-.41.198"/><path d="m1180.73 828.538.14.078.27.106.22.031.17-.045.09-.118M1183.4 824.258l-.03.044-.08-.009-.12-.061-.16-.111-.21-.158-.23-.197-.08-.073-.17-.157-.26-.253-.26-.266-.25-.27-.23-.263-.2-.246-.16-.22-.13-.184-.07-.142-.03-.095.03-.044.08.01.12.061.17.112.2.157.23.198.25.229.26.253.26.266.25.269.14.168.09.095.2.246.16.219.12.185.08.142.03.095Zm0 0-.85 1.473"/><path d="m1180.76 821.553-.37.195-.71.382-.15.08"/><path d="m1182.72 823.276.12-.217-.03-.052-.08-.101-.13-.146-.17-.186-.21-.218-.24-.242-.25-.256-.27-.261-.26-.256-.25-.241-.23-.216-.2-.184-.16-.144-.12-.098-.07-.05-.02.002-.76.432-.48.269"/><path d="m1179.39 820.842-.21-.153-.24-.148-.2-.103-.16-.054-.08-.003M621.276 434.768l-1.7 2.833-.049.203.027.269.102.325.065.14.107.228.236.396.291.411.335.408.366.391.383.358.248.2.137.111.372.253.299.16.047.026.305.11.083.01.171.02.192-.05.633-.302.193-.092"/><path d="m619.578 437.6.122-.129.192-.051.253.03.306.109.345.185.373.254.386.312.383.358.367.392.335.409.292.411.236.397.128.274.002.004.042.09.101.324.026.269-.049.202-.123.129M618.93 442.26l-.36.635.064.07.134.141.201.205.259.263.307.31.344.346.367.367.376.376.37.368.351.348.317.313.272.267.217.211.152.146.082.076.009.002.402-.222"/><path d="m619.723 438.537-.697 1.184-.788 1.337.017.141.09.209.159.269.223.318.206.265.07.091.321.379.353.388.37.383.375.362.364.328.339.281.302.224.202.125.051.032.195.085.063.004.065.005.729-.379"/><path d="m618.238 441.058.056-.068.128.009.194.084.253.157.302.223.146.121.194.16.365.329.375.363.371.383.037.041.304.335.012.013.321.38.277.356.222.319.159.268.089.209.017.14-.057.067M624.155 429.988l-1.574 2.623-.113.261-.034.325.045.376.124.414.196.435.263.439.288.386.029.04.362.398.391.354.405.297.112.063.292.164.388.15.356.066.312-.019.254-.105"/><path d="m622.582 432.611.187-.187.254-.106.311-.021.357.066.388.15.405.227.259.19.147.107.391.355.362.398.318.428.19.318.072.121.197.436.123.413.045.377-.035.325-.113.26-.188.187M628.556 423.881l-1.374 2.347-.173.313-.091.374-.008.423.078.454.159.469.236.465.301.443.357.404.398.351.425.283.434.204.427.119.404.027.366-.064"/><path d="m627.18 426.229.248-.238.312-.155.365-.065.149.01.256.017.428.118.434.205.425.283.399.351.358.405.302.444.235.465.159.469.077.455-.008.422-.017.071-.075.304-.174.312-.248.238-.312.154M634.044 417.108l-1.026 1.889-.144.416-.054.461.036.489.126.497.211.486.287.457.353.41.405.348.441.271.461.186.463.092.447-.005"/><path d="m633.02 418.997.227-.356.301-.281.237-.127.128-.068.414-.103.446-.005.465.091.461.185.442.272.406.348.353.411.287.457.211.487.125.498.037.488-.055.462-.146.416-.226.355-.052.049-.25.232-.365.195-.414.102M641 408.976l-.683 1.498-.187.448-.095.491.001.515.097.519.19.503.275.467.349.415.411.345.456.263.483.171.493.072"/><path d="m640.316 410.473.273-.389.071-.064.277-.25.409-.226.455-.132.484-.03.493.071.484.171.457.263.411.346.349.415.275.468.19.503.097.519.001.515-.095.491-.188.449-.273.388-.348.313-.41.227-.1.028-.355.102-.484.031M722.363 341.783l.094-.238.01-.296-.058-.262-.017-.081-.157-.376-.232-.396-.299-.399-.354-.388-.396-.362-.422-.321-.324-.202-.109-.068-.426-.206-.403-.136-.365-.059-.314.018-.248.096-2.687 1.585"/><path d="m722.362 341.783-.006.006-.168.165-.003.001-.245.096-.312.019-.366-.059-.404-.135-.427-.206-.433-.27-.422-.322-.396-.362-.356-.389-.299-.4-.232-.396-.157-.377-.074-.343.01-.296.095-.237.173-.169.002-.002M716.48 345.622l.056-.35-.034-.391-.124-.417-.209-.425-.285-.419-.35-.396-.403-.357-.439-.306-.459-.242-.461-.169-.446-.089-.414-.007-.365.077-.302.157-2.425 1.405"/><path d="m716.477 345.622-.017.036-.127.261-.228.232-.003.002-.299.156-.364.077-.157-.003h-.008l-.248-.003-.447-.089-.462-.169-.459-.242-.44-.306-.404-.358-.35-.396-.286-.42-.208-.426-.124-.417-.005-.054v-.005l-.029-.332.057-.351.145-.296.226-.229.002-.002M709.223 351.193l.095-.4v-.435l-.096-.453-.188-.453-.273-.436-.348-.403-.408-.353-.454-.291-.482-.217-.492-.135-.482-.047-.454.041-.409.13-1.982 1.081"/><path d="m709.222 351.193-.011.019-.177.332-.273.287-.004.002-.085.052-.008.005-.251.153-.408.13-.455.042-.482-.047-.492-.134-.483-.217-.454-.291-.41-.354-.347-.404-.274-.436-.188-.454-.096-.453.001-.435.094-.393.001-.006.001-.002.188-.35.271-.283.003-.003.32-.195.028-.017M701.028 357.651l.027-.472-.074-.484-.172-.477-.264-.451-.345-.409-.414-.35-.465-.278-.5-.196-.515-.105-.511-.011-.487.083-.444.175-1.598.755"/><path d="m701.027 357.651-.009.034-.117.41-.065.114-.006.012-.151.27-.309.335-.004.003-.38.257-.443.176-.487.084-.511-.011-.516-.105-.5-.196-.467-.278-.413-.35-.346-.409-.264-.452-.172-.478-.074-.484.027-.473.128-.443.222-.397.136-.146.006-.006.164-.178.004-.004.369-.25.014-.01M691.917 364.625l-.161-.496-.258-.464-.343-.413-.417-.347-.474-.268-.513-.178-.531-.082-.531.018-.509.117-1.016.305"/><path d="m691.92 364.625.007.062.028.234.003.029.021.184-.045.503-.149.478-.245.434-.334.373-.004.003-.404.295-.468.212-.509.118-.531.018-.532-.081-.514-.178-.474-.268-.417-.348-.344-.413-.258-.464-.161-.497-.059-.509.046-.504.149-.477.246-.434.331-.369.003-.004.409-.298.124-.056.021-.009.29-.132.033-.015M681.911 372.462l.254.472.156.51.052.527-.056.525-.159.503-.258.46-.346.401-.005.004-.417.322-.48.238-.521.142-.541.039-.54-.064-.52-.166-.479-.26-.418-.346-.344-.417-.254-.472-.156-.51-.051-.527.055-.525.16-.503.258-.46.343-.396.004-.005.421-.326.48-.238.521-.141.541-.039.541.064.519.166.478.26.419.346.343.416ZM672.098 381.873l.255.477.156.517.051.538-.055.537-.16.517-.258.475-.346.417-.005.004-.417.337-.48.253-.521.156-.541.051-.541-.055-.52-.158-.479-.256-.419-.344-.344-.419-.254-.477-.156-.518-.052-.537.056-.538.159-.516.258-.476.343-.412.004-.004.422-.341.48-.254.521-.155.541-.051.541.055.52.158.478.256.42.344.343.419ZM662.375 391.585l.258.478.162.519.059.54-.045.54-.149.519-.246.478-.334.42-.004.004-.405.34-.468.257-.51.158-.531.053-.533-.052-.514-.157-.474-.255-.418-.344-.345-.419-.258-.478-.162-.519-.06-.539.046-.54.148-.519.246-.479.33-.415.004-.004.409-.345.468-.256.51-.158.532-.054.533.052.513.157.475.255.418.344.345.419ZM648.336 402.212l.126-.511.029-.06.008-.017.185-.392.306-.406.003-.004.384-.336.445-.247.487-.15.512-.047.517.058.502.161.467.258.415.344.347.418.265.475.174.514.074.534-.026.532-.127.51-.222.47-.31.41-.004.004-.38.331-.444.247-.488.15-.512.046-.516-.058-.161-.052-.055-.017-.286-.092-.467-.258-.415-.344-.346-.417-.266-.475-.173-.514-.075-.533.027-.532Zm0 0 .087-.377M650.051 405.285l.084.037"/><path d="m650.046 405.293-.467-.257-.415-.345-.346-.417-.265-.475-.174-.514-.074-.533.026-.532.095-.385.031-.125.037-.078.008-.017.177-.375.309-.41.005-.004.379-.331.445-.248.487-.15.512-.046.517.058.502.161.468.257.415.344.346.418.266.475.173.514.075.534-.027.532-.127.511-.222.469-.306.406-.003.004-.385.335-.444.247-.487.15-.512.046-.517-.058-.107-.034-.054-.018-.249-.08-.092-.029ZM648.498 401.489l-.17.731M661.605 390.831l.418.344.345.419.258.478.162.519.059.539-.045.54-.149.519-.246.479-.33.415-.004.004-.409.345-.468.256-.51.158-.531.054-.533-.053-.514-.157-.475-.255-.418-.343-.344-.419-.258-.478-.162-.519-.06-.54.046-.539.148-.52.246-.478.334-.42.004-.004.405-.34.468-.257.51-.158.531-.054.533.053.514.157M672.552 383.412l-.056.538-.159.516-.258.476-.343.412-.004.004-.421.342-.481.253-.521.155-.541.051-.541-.054-.52-.159-.478-.256-.42-.344-.343-.418-.255-.478-.156-.517-.051-.538.055-.537.16-.517.258-.475.346-.417.005-.004.417-.337.48-.253.521-.155.542-.051M670.848 380.862l.479.256.419.344.343.418.255.477M681.55 375.864l-.004.004-.421.326-.48.238-.521.142-.541.039-.541-.064-.52-.166-.478-.26-.419-.346-.343-.416-.255-.473-.155-.51-.052-.527.056-.525.16-.503.258-.46.346-.401.005-.003.417-.323M678.543 371.398l.521-.141.541-.039.54.064.519.166.479.26.418.346.344.416.254.473.156.509.051.527-.055.525-.16.503M691.528 366.556l-.329.369-.004.004-.409.299-.467.212-.51.117-.53.019-.533-.082-.513-.178-.474-.268-.417-.347-.344-.414-.258-.464-.161-.496-.059-.51.046-.503.149-.478.246-.433.334-.373.005-.004.404-.294.145-.066.017-.008M691.492 363.673l.258.463.161.496.031.269.003.028.025.213M689.211 362.385l.532.081.513.179M700.671 358.499l-.305.331-.004.004-.383.26-.444.175-.487.084-.511-.011-.515-.105-.501-.195-.466-.278-.414-.351-.346-.409-.264-.452-.172-.477-.074-.485.028-.472.127-.444.223-.396.141-.153.006-.006.162-.176.004-.002.38-.257M700.973 356.701l.075.484M697.301 354.508l.487-.084M698.812 354.541l.5.196M708.756 351.833l-.003.003-.082.05-.007.005-.258.158-.409.13-.455.042-.482-.047-.492-.135-.483-.217-.454-.291-.409-.354-.348-.403-.274-.437-.188-.454-.096-.453.001-.435.096-.399v-.001l.002-.004.186-.346.274-.287.004-.002M709.027 349.458l.188.453.096.453v.434l-.095.401M705.633 347.617l.454-.042.482.048.492.135.482.217M716.163 344.044l.209.426.124.416.034.391-.056.351-.144.297-.225.229-.003.002-.301.158-.365.077-.149-.002h-.008l-.256-.004-.446-.089-.462-.169-.46-.242-.44-.306-.404-.358-.351-.396-.285-.419-.208-.427-.124-.416-.005-.06-.001-.006-.028-.326.057-.35.145-.297.228-.231.004-.002.299-.155.364-.076.414.006.446.09.461.169.459.242M712.237 342.292l-2.405 1.393M722.187 341.955l-.002.002-.248.097-.313.019-.365-.059-.404-.135-.426-.206-.433-.27-.423-.322-.397-.362-.354-.389-.3-.4-.232-.396-.156-.377-.075-.343.01-.296.095-.237.175-.171.003-.001M720.949 338.988l.396.362.354.388.299.399M722.462 341.252l-.01.296-.093.238M718.341 338.11l-2.681 1.582M718.59 338.014l.313-.018.365.059M719.672 338.191l.426.206M726.946 339.248l-.115.107-.053.009-.134.024h-.002l-.255-.042-.312-.115-.356-.184-.388-.246-.101-.075-.302-.223-.404-.339-.389-.367-.359-.381-.315-.38-.259-.364-.172-.299-.021-.035-.119-.292-.042-.238.038-.176.116-.106.19-.032.256.043.312.115.265.138.091.047.387.245.403.298.281.237.122.102.388.366.358.38.315.379.154.217.104.147.193.334.12.292.042.239-.03.144-.007.031Zm0 0-.096.194-.051.104M723.001 335.526l-2.88 1.692M729.962 338.367l-.052.041-.126-.032-.194-.104-.255-.173-.306-.233-.346-.286-.372-.328-.384-.357-.38-.371-.364-.373-.331-.358-.053-.062-.234-.27-.232-.291-.167-.24-.097-.18-.022-.112.053-.04.126.033.194.105.256.173.306.233.345.286.009.008.363.32.383.356.38.37.362.372.331.358.287.331.232.291.168.241.097.179.023.113Zm0 0-.214.398-.163.303"/><path d="m726.098 334.598-1.871 1.075-.204.117M731.119 339.534l.22-.388.012-.024-.06-.096-.131-.166-.197-.229-.254-.282-.303-.326-.34-.357-.363-.373-.372-.377-.368-.364-.349-.338-.316-.299-.272-.249-.216-.188-.154-.122-.084-.049-.236.13M632.558 454.135l-1.113 1.866-.722 1.212-.055.216.027.288.004.011.104.337.022.047.163.348.254.427.315.442.362.441.396.423.414.388.047.038.371.3.404.276.376.204.055.02.277.102.172.023.105.013.21-.05.571-.275.089-.043.034-.016.005-.003.324-.156 1.704-.82"/><path d="m630.723 457.213.135-.136.209-.052.277.036.332.122.149.08.227.123.405.276.418.339.416.389.397.423.362.442.315.443.25.421.004.007.105.224.079.171.108.348.026.287-.055.216-.136.135M634.566 466.346l.134.102.345.23.291.161.228.086.154.007.153-.087"/><path d="m629.902 462.068-.382.672.071.08.148.156.219.225.282.288.333.337.373.375.397.398.406.406.401.398.378.374.342.336.293.286.231.224.163.154.086.078.007-.002.916-.507.706-.39"/><path d="m630.825 458.112-.387.659-1.223 2.083.016.149.096.222.17.287.239.342.167.214.131.168.346.409.381.419.401.414.405.392.395.356.368.306.329.245.276.173.09.041.122.055.141.014.858-.449.164-.086 1.394-.729"/><path d="m629.215 460.854.063-.069.14.013.212.095.276.173.329.244.066.055.303.252.395.357.407.393.28.289.121.125.382.421.346.409.299.383.238.341.17.287.095.222.015.147-.064.069M635.731 449.048l-1.629 2.742-.067.113-.125.28-.039.348.028.236.02.169.132.445.212.469.283.474.185.249.069.092.089.12.384.422.007.009.424.384.439.322.167.094.272.154.422.164.388.075.339-.018.277-.111 3.094-1.314"/><path d="m634.035 451.903.204-.199.277-.111.339-.019.388.074.422.164.44.248.28.206.16.117.424.384.232.255.16.177.344.462.008.013.165.277.11.184.212.47.132.445.046.405-.04.348-.125.279-.205.198M640.544 442.51l-1.477 2.561-.19.335-.101.403-.01.456.083.49.172.506.254.502.32.47.006.009.333.377.053.061.432.38.46.308.472.223.464.13.271.02.169.012.397-.067 1.015-.348"/><path d="m639.07 445.071.269-.256.341-.164.397-.068.142.01.298.021.465.13.472.223.461.308.432.381.387.438.327.48.254.503.171.507.083.49-.011.455-.012.05-.026.102-.064.251-.19.336-.27.254-.341.164M646.534 435.231l-1.098 2.068-.157.449-.06.498.038.528.135.537.228.526.311.495.382.444.439.377.479.295.5.202.434.088.069.013.486-.003.099-.023 2.152-.483"/><path d="m645.438 437.299.248-.383.328-.302.23-.121.167-.088.451-.109.486-.005.503.101.501.202.48.296.439.377.383.445.311.495.228.527.135.537.038.528-.062.498-.157.449-.249.383-.031.028-.298.273-.397.209-.451.109M654.11 426.466l-.723 1.646-.205.485-.104.531.001.556.104.562.206.544.297.506.379.45.445.374.495.286.525.186.535.079 1.663-.046"/><path d="m653.387 428.112.297-.419.045-.041.333-.298.445-.244.495-.141.525-.031.536.078.526.186.495.286.445.375.379.449.298.507.205.546.105.561v.557l-.105.531-.205.484-.297.42-.379.337-.445.244-.074.021-.421.119-.525.032M740.673 356.583l1.389-3.109.098-.26.007-.323-.06-.264-.025-.109-.172-.409-.253-.429-.325-.433-.383-.421-.429-.391-.083-.063-.373-.285-.407-.254-.013-.008-.046-.028-.459-.222-.434-.145-.393-.063-.335.022-.243.097-.023.009-1.439.842-1.483.868"/><path d="m742.061 353.474-.006.007-.179.18-.003.002-.262.106-.335.023-.393-.062-.434-.145-.459-.222-.468-.291-.457-.348-.019-.017-.41-.375-.261-.286-.123-.135-.326-.434-.253-.43-.172-.41-.083-.373.007-.323.099-.259.184-.185.002-.002M734.746 360.467l1.031-2.781.057-.381-.01-.112-.03-.314-.136-.452-.046-.094-.182-.368-.309-.454-.38-.429-.436-.387-.089-.062-.386-.268-.087-.047-.409-.215-.498-.181-.48-.096-.445-.005-.392.085-.324.172-2.644 1.512"/><path d="m735.777 357.686-.021.045-.133.279-.243.253-.003.002-.321.171-.15.033-.241.053-.199-.002h-.009l-.237-.003-.155-.03-.326-.065-.498-.181-.497-.262-.476-.33-.436-.388-.381-.43-.31-.455-.228-.462-.135-.453-.008-.077v-.007l-.032-.342.058-.381.155-.324.241-.249.003-.003M727.342 366.247l.648-2.473.101-.435-.003-.473-.043-.202-.062-.29-.09-.214-.116-.278-.297-.473-.376-.437-.443-.382-.491-.315-.521-.234-.531-.145-.52-.05-.49.046-.441.142-2.167 1.159"/><path d="m727.989 363.774-.012.022-.189.36-.293.313-.004.002-.119.074-.007.004-.244.152-.44.142-.49.048-.521-.05-.531-.144-.522-.235-.492-.315-.443-.383-.378-.437-.297-.474-.205-.493-.105-.492-.002-.473.102-.436.005-.01.004-.007.192-.364.291-.309.003-.003.349-.216.025-.016M719.004 372.751l.17-1.933.027-.514-.081-.525-.188-.518-.287-.49-.374-.443-.448-.379-.504-.301-.541-.212-.557-.113-.552-.011-.526.092-.479.191-1.754.802"/><path d="m719.172 370.818-.011.039-.125.442-.089.162-.008.014-.141.256-.333.364-.004.004-.409.28-.479.192-.526.092-.552-.01-.558-.113-.542-.211-.504-.302-.449-.379-.375-.444-.286-.49-.188-.519-.081-.526.027-.514.137-.481.239-.432.175-.191.006-.007.148-.162.004-.004.399-.273.015-.01M709.639 379.528l-.297-1.114-.176-.539-.28-.503-.372-.448-.452-.376-.513-.29-.556-.193-.575-.087-.574.02-.551.128-1.125.312"/><path d="m709.343 378.413.008.074.033.281.004.031.02.167-.049.546-.159.519-.265.471-.36.406-.005.004-.437.321-.505.231-.551.129-.575.02-.576-.087-.555-.193-.514-.29-.452-.376-.373-.449-.28-.503-.176-.539-.064-.553.048-.547.16-.519.266-.471.356-.402.004-.004.442-.324.189-.087.019-.008.266-.122.032-.014M698.526 386.937l.276.512.169.553.056.573-.059.569-.172.546-.279.5-.375.435-.005.004-.451.35-.52.259-.564.155-.586.043-.586-.069-.563-.18-.519-.282-.454-.374-.372-.452-.276-.513-.17-.553-.056-.573.06-.57.172-.545.28-.5.37-.431.005-.004.456-.354.52-.259.564-.154.586-.043.585.069.563.18.518.282.454.374.373.452ZM687.897 397.156l.276.517.169.561.056.584-.06.583-.172.56-.28.516-.376.452-.005.004-.452.366-.52.275-.565.168-.587.056-.587-.059-.563-.172-.519-.278-.455-.373-.372-.454-.277-.517-.011-.039-.001-.001-.157-.521-.025-.267-.031-.317.06-.583.173-.56.008-.015.272-.501.318-.383.008-.009.045-.054.004-.006.457-.37.521-.275.565-.168.587-.056.586.059.564.172.519.278.454.373.373.454ZM677.353 407.69l.28.518.175.563.064.585-.049.585-.162.562-.267.519-.362.455-.006.004-.438.369-.509.277-.553.171-.576.058-.579-.057-.557-.171-.515-.276-.453-.373-.374-.454-.28-.518-.175-.563-.033-.3-.001-.006-.03-.279.005-.063.044-.522.162-.562.267-.519.358-.45.004-.005.444-.373.124-.068.384-.209.553-.172.194-.019.008-.001.375-.038.578.058.558.17.515.277.453.372.374.455ZM662.108 419.19l.138-.553.006-.014.009-.019.226-.475.198-.261.005-.006.016-.023.011-.013.005-.007.097-.129.004-.005.418-.362.482-.267.022-.007.508-.155.552-.05h.004l.561.064.544.175.507.279.451.374.376.452.287.515.187.557.081.578-.03.577-.138.552-.242.508-.336.444-.005.004-.413.358-.482.267-.53.161-.556.05-.56-.064-.113-.037-.059-.019-.373-.119-.506-.28-.45-.373-.376-.453-.287-.514-.188-.557-.081-.577.03-.576Zm0 0 .026-.13M663.969 422.521l.108.046M663.961 422.529l.818.351"/><path d="m667.627 420.976-.242.508-.333.439-.004.005-.417.362-.483.267-.529.161-.556.05-.561-.064-.054-.018-.059-.019-.315-.101-.116-.037-.507-.28-.45-.373-.376-.453-.287-.514-.187-.557-.081-.577.029-.576.035-.139.103-.414.016-.033.009-.018.217-.457.204-.27.005-.006.016-.021.004-.006.007-.009.005-.007.095-.125.004-.004.413-.358.483-.268.022-.006.002-.001M667.715 419.27l.081.578M662.268 418.382l-.166.817M664.797 416.854h.003l.561.064M666.414 417.371l.45.374.376.452M677.027 411.482l-.003.005-.444.373-.509.277-.553.171-.576.058-.579-.057-.557-.17-.515-.277-.453-.373-.374-.454-.28-.518-.175-.563-.034-.307v-.005l-.03-.273.005-.063.001-.004.043-.518.162-.562.267-.519.362-.455.005-.004.439-.369.125-.068.009-.005.374-.204M674.867 406.368l.578.057.558.17.515.277.453.373.374.454.28.518.175.563.064.585M687.502 400.933l-.004.005-.457.37-.521.275-.564.168-.587.056-.587-.059-.564-.172-.519-.277-.454-.373-.373-.454-.276-.518-.011-.037v-.002l-.158-.522-.025-.26-.001-.006-.03-.317.06-.583.173-.561.009-.017.008-.014.262-.485.328-.393.007-.009.041-.049.005-.004M688.164 397.682l.169.562M684.238 396.054l.565-.169M686.539 396.061l.519.278M698.505 390.199l-.371.43-.004.005-.456.354-.52.259-.564.154-.586.044-.586-.07-.563-.179-.519-.282-.454-.374-.372-.453-.276-.512-.17-.553-.056-.573.06-.57.172-.545.279-.5.375-.436.005-.004.452-.349M698.516 386.946l.276.512M699.016 388.583l-.059.57M695.434 385.632l.586-.043M697.172 385.838l.518.282M708.571 380.913l-.004.004-.442.325-.505.231-.551.129-.575.021-.576-.088-.555-.193-.514-.29-.452-.376-.373-.449-.28-.503-.176-.539-.064-.553.048-.547.161-.519.265-.471.36-.406.005-.004M705.285 376.133l.551-.128.574-.02.575.087.556.193.513.29.452.376.373.449.279.502.176.539.038.325.004.03.023.198-.049.546M719.192 370.311l-.027.514-.136.482-.082.148-.008.014-.149.269-.328.361-.004.004-.414.283-.478.192-.526.092-.552-.01-.558-.113-.542-.211-.505-.301-.448-.38-.375-.444-.287-.49-.187-.518-.082-.526.028-.514.136-.482.24-.432.181-.197.006-.007.146-.16.004-.003.41-.28.479-.191.525-.092.552.011M716.77 367.444l.541.211M717.812 367.956l.448.379.375.443M727.492 364.472l-.005.004-.114.071-.008.005-.25.156-.442.142-.414.041-.076.007-.451-.043-.068-.007-.533-.144-.522-.235-.491-.315-.444-.383-.377-.437-.297-.474-.205-.493-.105-.492-.002-.473.101-.435.009-.018.004-.006.19-.358.293-.312.004-.003M727.77 361.889l.117.281.088.211.063.293.043.199.002.473-.101.435M724.102 359.899l.489-.046.521.05.531.145.521.234M735.375 358.265l-.003.003-.324.173-.147.032-.245.053-.19-.002h-.009l-.246-.002-.151-.03-.328-.065-.5-.182-.495-.261-.477-.33-.127-.114-.31-.274-.106-.12-.274-.31-.31-.455-.227-.463-.137-.453-.008-.083v-.006l-.031-.336.059-.382.154-.323.243-.252.004-.002M735.113 355.516l.31.455M735.788 356.884l.03.317.01.108-.058.382-.153.324M731.188 354.083l-2.61 1.493M731.512 353.911l.392-.085.445.005.48.095M733.824 354.369l.388.27.087.061M742.057 353.478l-.183.186-.002.002-.265.107-.335.023-.393-.062-.434-.145-.46-.222-.467-.29-.457-.349-.017-.016-.412-.376-.259-.284-.125-.137-.326-.434-.253-.43-.172-.41-.083-.373.005-.236.002-.086.099-.26.186-.186.003-.002.024-.009.239-.096M740.516 350.438l.429.392.383.42.325.434.253.429.173.409.022.099.062.274M737.704 349.499l-1.434.839-1.481.866M738.699 349.434l.434.145.459.222.056.035.005.003.405.253.376.286M746.92 350.671l-.019.018-.102.099-.112.022-.088.016-.125-.019-.147-.024-.334-.122-.383-.198-.417-.264-.391-.29-.044-.032-.436-.367-.421-.397-.389-.412-.342-.412-.282-.395-.211-.364-.034-.081-.099-.237-.048-.26.037-.192.03-.028.091-.089.202-.037.272.044.335.123.187.097.195.101.417.265.434.321.155.131.28.235.42.396.388.412.341.411.003.003.134.188.145.203.212.364.133.318.049.26-.036.193Zm0 0-.012.024-.115.229-.068.136-.35.7-.04.081-.466.931"/><path d="m742.653 346.644-.119.07-.104.061-2.054 1.201-.849.496M750.076 349.656l-.052.047-.132-.033-.206-.11-.272-.184-.328-.251-.372-.309-.4-.353-.414-.385-.412-.402-.393-.403-.36-.389-.138-.159-.175-.201-.254-.317-.184-.262-.108-.196-.028-.123.053-.046.132.033.207.111.272.185.328.251.313.26.058.048.4.353.413.385.411.401.393.402.359.389.313.359.253.316.185.262.109.197.029.124Zm0 0-.44.816-.409.758M745.9 345.58l-2.252 1.29"/><path d="m750.517 352.101.18-.318.777-1.37-.062-.102-.137-.177-.209-.245-.272-.304-.325-.351-.365-.385-.392-.403-.402-.407-.399-.394-.378-.366-.344-.325-.297-.271-.238-.206-.169-.133-.095-.055-.238.131M751.082 352.48l-.006-.02-.146-.303-.217-.355-.014-.019M800.212 373.988l8.791 4.766 2.405 1.303 7.361 4.131 7.465 4.765 7.296 5.225 6.86 5.493 6.171 5.56 5.255 5.423 7.485 6.631 1.834 1.626 7.162 6.177 5.625 5.14 2.366 5.445 1.298 3.154-2.047 2.991-3.068 1.075-1.069.374-7.321 1.094-8.018-1.617-6.803-1.17-3.966-.682-9.549-2.97-2.026-.63-5.657-2.385-6.391-2.694-8.873-4.611-3.226-1.676-8.764-4.817-3.412-1.876-7.793-6.267-2.538-2.042-6.441-7.65-1.63-1.936-6.094-7.928-.809-1.053-4.944-8.56-1.961-8.691-.92-6.37 1.625-5.395.511-.521 2.061-2.105 4.591-1.054 5.226 1.79 7.142 2.954 8.392 5.438 6.398 4.145Zm0 0 4.21 2.728"/><path d="m858.837 429.166-2.269.748-.629.207-3.43-.127-.802-.03-5.413-1.273-6.388-2.349-7.117-3.339-7.565-4.2-7.71-4.897-7.545-5.397-7.074-5.68-6.32-5.734-5.315-5.558-4.1-5.159-2.733-4.558-.521-1.557-.746-2.226.235-2.867.504-.544 1.21-1.304"/><path d="m851.816 410.654 4.14 5.085 2.864 4.556 1.471 3.853.01 2.998-1.465 2.02M785.109 373.322l3.113-.767 4.38.331 5.472 1.408 6.349 2.422 6.986 3.341M783.906 380.264l1.598.112 5.485 1.385 5.371 2.029.988.373 6.991 3.322 7.363 4.116 7.462 4.754 7.288 5.217 6.849 5.49 6.157 5.561 5.237 5.429 4.12 5.095.423.681 2.419 3.889.852 2.278M966.611 808.139l-.622 9.981-.621 9.981-.622 9.98-.621 9.981-.079 1.265-.621 9.98-.621 9.981-.622 9.981-.621 9.98-.622 9.981-.621 9.981-.621 9.98-.4 6.419 7.548 6.56 7.548 6.559 7.548 6.56 7.548 6.559 7.549 6.559 7.552 6.56 7.54 6.559 7.55 6.56 3.88 3.374 7.87 6.179 7.02 5.515 7.86 6.179 7.03 5.517 7.86 6.18 7.04 5.53 7.86 6.18 7.04 5.53 7.42-6.7.77-.69 1.57-3.79-3.79-9.25-3.79-9.255-2.26-5.503-3.34-9.427-3.33-9.427-2.18-6.141-3.62-9.322-3.62-9.322-2.26-5.833-.86-9.963-.86-9.963-.86-9.963-.06-.646"/><path d="m1060.34 916.145 1.73-3.071 4.91-8.714 4.91-8.713 3.26-5.788M1091.33 1020.88l-3.8-9.26-3.79-9.25-2.29-5.586-3.34-9.427-3.34-9.427-2.21-6.227-3.62-9.322-3.62-9.321-2.3-5.919-.86-9.963-.86-9.962-.86-9.963-.1-1.107M1139.29 681.584l-9.98.475-9.99.475-9.99.475-9.99.475-6.97.331-1.62 2.65 5.31 8.472 5.31 8.473 5.31 8.473 5.32 8.473 5.31 8.473 5.31 8.473 5.31 8.473 5.31 8.472 5.31 8.473 5.31 8.473 4.68 7.461 5.31 8.473 5.31 8.473 4.24 6.761.43-.203 4.91-2.366 9.01-4.336 9.02-4.335 9.01-4.336 9.2-4.426 9.94 1.064 9.94 1.063 9.95 1.064 3.5.375 9.3 3.654 9.31 3.654 7.56 2.965 9.41 3.384 9.41 3.385 8.09 2.912 9.25 3.818 9.24 3.818 7.41 3.061 7.42-6.706 1.38-1.245.75-3.13-6.13-7.9-5.75-7.419-6.13-7.9-5.77-7.427-6.13-7.901-5.77-7.435-6.13-7.9-5.77-7.444-6.54-7.569-6.53-7.57-6.54-7.569-6.53-7.57-6.54-7.569-6.53-7.57-6.54-7.569-6.53-7.57-5.14-5.955-9.99.475-9.99.475-9.99.475-9.99.475-9.99.475-9.99.476-9.98.475-9.99.475-2.64.125Z"/><path d="m1220.68 680.313-9.99.473-9.98.473-9.99.473-9.99.474-9.99.472-9.99.473-9.99.474-9.99.471-2.93.139-9.99.473-9.99.474-9.99.472-9.98.474-4.01.188-3.13.15M1326.09 808.625l-6.14-7.9-5.8-7.476-6.13-7.9-5.8-7.483-6.14-7.901-5.81-7.492-6.13-7.9-5.82-7.501-6.54-7.569-6.53-7.569-6.54-7.57-6.53-7.569-6.54-7.569-6.53-7.57-6.54-7.569-6.53-7.569-5.36-6.205 1.16-2.655M1580.52 457.32l9.87 1.626 4.36.718 8.01.925.06.008 3.43.395 1.64.189 9.99.259 5.75.148 10 .001h3.26l9.95-1.016 6.72-.686 9.91-1.279 3.11-.401 9.75-2.217 7.36-1.675 9.64-2.675 2.79-.775 9.42-3.349 7.69-2.733 9.1-4.144 2.4-1.094 8.97-4.418 7.68-3.783 8.41-5.414 7.34-4.729 8.28-5.604 2.05-1.385 7.73-6.338 6.88-5.629 7.18-6.955 1.62-1.564 6.96-7.179 6.16-6.353 6.09-7.934 5.45-7.111 5.88-8.091 1.08-1.484 5.11-8.592 4.45-7.476 4.46-8.954.77-1.552 4.05-9.141 3.36-7.567 3.03-9.529.51-1.603 2.91-9.569 2.23-7.364 1.68-9.857.28-1.588 1.66-9.86 1.16-6.866.46-9.989.07-1.443.32-9.995.2-6.084-.62-9.98-.07-1.121-1.12-9.937-.58-5.059-1.57-9.876-.09-.587-2.4-9.708-.28-1.149-.22-.768M1708.14 30.326l-2.27-.738-9.7-2.423-4.75-1.185-9.74-2.256-1.43-.333-9.92-1.283-.81-.105-9.95-1.06-6.9-.738-10-.163-1.12-.018-10 .213-7.7.165-9.94 1.103-1.28.143-9.9 1.426-8.22 1.185-9.68 2.505-1.34.347-9.66 2.58-8.44 2.253-9.3 3.67-7.97 3.145-9.17 3.982-1.76.762-8.83 4.698-7.75 4.126-8.38 5.455-1.65 1.072-8.25 5.662-7.27 4.997-7.55 6.553-6.51 5.641-7.32 6.807-1.63 1.513-6.77 7.366-5.69 6.203-6.07 7.951-1.45 1.908-5.88 8.092-4.73 6.519-4.89 8.723-3.82 6.809-4.71 8.825-1.11 2.1-3.81 9.247-2.75 6.682-3.33 9.43-.85 2.392-2.62 9.649-1.7 6.247-2.01 9.795-.54 2.585-1.33 9.911-.75 5.506-.8 9.968-.21 2.607.08 10 .03 4.489.3 9.995.07 2.398 1.29 9.917.4 3.077 1.66 9.863.35 2.121 2.17 9.761.56 2.502 2.97 9.55.94 3.007 3.32 8.725 3.67 9.266.05.118.77 1.963 4.34 9.012 1.13 2.355 4.93 8.7 1.46 2.568 5.48 8.364 1.76 2.685 5.99 8.006 2.03 2.708 6.47 7.621 2.24 2.642 6.93 7.211 2.4 2.492 7.36 6.769 2.46 2.271 7.78 6.291 2.46 1.99 8.16 5.77 2.36 1.666 3.7 2.252.35.211 6.66 4.052 7.85 4.403 8.9 4.565 3.19 1.635 2.83 1.186 9.15 3.826.04.016.48.155 9.5 3.113 1.46.476 9.52 3.062 3.48 1.122 4.31.956"/><path d="m1848.78 196.204 2.14-9.769 1.33-6.075 1.5-6.851 1.69-7.74-.71-9.711-2.51-9.681-.42-1.635-3.87-9.218-2.24-5.31-5.06-8.625-4.68-7.986-5.86-8.108-3.92-5.428-6.3-7.761-4.22-5.194-6.78-7.357-5.65-6.137-7.48-6.638-7.48-6.637-1.59-1.41-8.05-5.925-4.69-3.45-8.4-5.433-4.77-3.091-8.89-4.59-3.76-1.944-9.52-3.057-5.79-1.858-9.26-.332-9.98.695-5.42.378-8.26.576"/><path d="m1853.75 173.509-2.53 3.231-1.1 1.399-.6.763-6.8 2.688-8.33 4.808-10 .398-2.26.09-9.09-4.158-6.41-2.931-8.4-5.429-6.4-4.142-8-6.01-7.99-6.009-1.24-.931-7.44-6.682-7.44-6.683-.32-.293-6.94-7.201-6.94-7.201-2.25-2.335-6.44-7.655-6.43-7.656-.55-.655-5.72-8.2-5.73-8.201-.66-.945-4.59-8.881-4.21-8.131.83-9.965.27-3.202-1.26-9.92-.18-1.41-.13-9.37 2.62-6.95 3.62-3.157.09-.082 1.4-1.227 7.34-2.021M1697.54 132.643l3.29 5.644 1.74 6.081.55 6.778.6 5.254-1.45 5.244-4.53 4.46-4.03 3.821-2.84.744-5.22 3.399-6.08 1.626-5.05-2.501-2.49-2.75-5.51-1.642-6.2-4.287-3.28-1.707-4.92-6.328-1.39-2.416-2.74-7.141.6-2.881-.25-7.062 2.6-2.867-1.18-5.009.54-4.466M1640.53 128.258l-3.46 3.808.32 9.377M1702.73 170.784l6.02-5.935 1.93-6.977-.81-6.988M1636.59 145.271l3.57 9.34.06.151M1648.59 166.394l4.37 2.272M1675.59 108.308l-9.64-1.101M1661.2 174.371l7.32 2.188M1654.81 109.572l-7.47 4.326M1683.04 119.822l4.2 4.176M1688.75 114.832l-5.58-5.536M1671.84 180.22l6.71 3.33 8.1-2.164M1730.34 292.307l2.92 1.602 1.81.829 7.11 3.255 4.96 2.268 6.83 1.249 7.39.149 1.67-2.267 4.14-2.055M1778.64 200.549l-5.58-3.421-7.11-3.187M1708.67 272.151l-1.53 2.238M1707.14 274.389l7.07-7.065 1.26-1.256 1.12-1.64-7.16 6.977-.76.746M1741.97 189.792l-6.98-.036-5.26 3.767-6.74 3.012-4.67 1.376-3.3 1.033-5.4 4.785-4.77 5.429-2.82 4.585 1.32 1.226-1.97 6.151-1.68 7.107-2.86 5.749-3.3 3.899 3.37 2.785 4.43 3.677 2.81 6.185-2.61 3.371.76 5.42 3.87 7.201M1793.04 215.777l-5.25-6.108M1805.24 245.444l-.91-2.667-1.63-5.104-1.06-7.307-1.85-7.03-3.72-5.076M1784.82 287.112l4.1.686 3.58.6 1.58-5.268 1.45-6.025 3.51-6.053 2.76-5.154 1.19.072 1.24-5.812"/><path d="m1703.35 214.969 7.77 6.297 1.6 1.299-.97-.898-7.75-6.316-1.97-1.608M1753.76 192.022l-7.85-.699M1743.61 271.412l-3.59-1.659-.92-.422-1.47-.814-3.62-2.001-1.97-1.092-.38-.243-3.2-2.675-2.51-3.055.78-1.128-1.26-2.842-1.94-3.629-.38-2.729 1.32-1.697-1.41-3.113-2.23-1.849-1.69-1.401 1.66-1.962 1.44-2.892.85-3.574.99-3.093-.67-.617 1.42-2.308 2.4-2.733 2.71-2.41 1.66-.522 2.35-.697 3.39-1.523M1743.5 216.839l1.98.766 3.96.34M1424.04 333.213l.05.422.99 6.449 1.58 5.865 2.05 5.516 2.28 5.409 3 6.238 4.1 7.248 3.29 5.089 3.43 4.977 4.07 5.429 5.85 6.902 4.22 4.409 4.36 4.286 4.72 4.342 7.04 5.694 5.09 3.598 5.09 3.302 5.24 3.113 6.15 2.789 5.8 1.975 2.21.613M1534.09 442.719l4.52 6.279 1.25.676 1.44.822 1.72.942 2.1 1.103 1.72.901 1.08.357 3.02.987 3.53 1.149 3.78 1.226 3.97 1.29 3.26 1.057.49.163 2.53.558 3.22.708 3.4.751.88.188 1.95.26 4.16.507 4.06.483 1.45.18 1.17.022 3.56-.002 3.31-.035.74-.057.55-.225 5.87-2.412M1596.95 463.009l2.39-.479 2.35-.498 1.39-.177.26-.069 2.57-.701.34-.093"/><path d="m1544.65 447.012-.9-.295-.48-.155M1565.97 459.671l1.74-5.182M1572.02 455.445l-1.08-.239-3.23-.717M1580.52 457.32l-1.12-.24-.01-.001-2.42-.537M409.452 778.806l-7.646-5.708-8.12-5.041-8.522-4.331-8.849-3.577-9.096-2.791-9.263-1.975-9.345-1.139-3.141-.144-9.76-.3-9.67.597-9.489 1.493-4.165.977-9.53 2.46-9.163 3.363-8.707 4.237-4.535 2.237-8.355 5.198-7.719 6.015-4.177 3.291-7.095 6.871-3.441 4.076-6.317 7.612-5.446 8.26-2.506 4.627-4.489 8.774-3.513 9.259-1.383 4.784-2.456 9.494-1.424 9.787-.201 4.501-.363 9.716.671 9.806 1.701 9.797.834 3.406 2.618 9.322 3.573 9.119 4.496 8.819 5.374 8.43 6.197 7.95.822.959 6.615 7.026 7.27 6.418 7.848 5.746 8.345 5.013 8.756 4.232 1.185.511 9.361 3.516.18.067 9.643 2.647.133.036 9.91 1.758 9.943.821 9.874-.121 3.586-.148 9.941-1.081.138-.015 9.803-2.052 9.43-2.979 4.372-1.4 9.207-3.976 8.643-4.846 4.329-2.565 8.127-5.755 7.396-6.522 3.877-3.557 6.641-7.269 5.781-7.896 3.094-4.273 4.856-8.42 2.138-4.745 3.862-8.771 2.9-9.148 1.019-4.8 1.875-9.226.902-9.423-.071-9.532-.114-4.132-1.008-9.251-1.932-9.19-2.836-9.047-.947-2.893-3.553-8.452-4.358-8.163-5.12-7.804-5.837-7.372-6.499-6.878-7.105-6.32Z"/><path d="m414.659 846.445-6.185 4.574-7.421 3.223-7.707 4.047-9.46 1.859-9.81-1.939-.686-.136-9.148-3.734-8.664-4.994-1.096-.632-7.751-6.319-.106-.087-6.642-7.475-.771-.867-5.42-8.322-3.761-9.266-.093-.228-1.532-9.744 3.776-8.154 2.872-7.467 3.751-6.662 5.137-5.511 6.277-4.245 7.169-2.923 7.825-1.585 9.986.534 1.082.058 8.529 2.076 7.69 3.673 7.181 4.264 7.752 6.318.974.795 5.956 6.882 4.673 6.775 3.648 7.376 2.217 9.583-.132 8.762-1.916 7.227-3.378 6.573-4.816 5.691Z"/><path d="m428.354 833.091.142-10.073-2.258-9.742-.293-1.264-4.189-8.467-5.362-7.773-6.544-7.562-.289-.334-7.751-6.318-2.26-1.842-8.239-4.893-8.826-4.216-9.794-2.386-9.985-.539-2.733-.147M317.081 836.721l1.055 3.017.291 3.234-.328 3.589-.102 2.748-1.048 2.714-2.524 2.327-2.242 1.995-1.407.376-2.652 1.709-2.984.806-2.308-1.282-1.068-1.404-2.41-.927-2.608-2.279-1.355-.949-1.813-3.361-.435-1.297-.67-3.806.501-1.509.535-3.77 1.373-1.451.057-2.762.78-2.441M292.828 826.452l-1.038 3.244-.078 3.672-1.826 1.93-.714 5.014M309.332 861.62l3.531-2.275 1.874-.502M288.504 842.319l.89 5.064M289.969 849.109l2.412 4.474M305.878 822.176l-3.394.141-2.089 1.043M300.863 859.116l1.421 1.87M311.434 829.764l1.521 2.301M315.754 826.539l-2.024-3.06M362.887 911.976l.406-1.816 2.518-1.146 2.763.003 2.417.001.581-2.49.434-2.824M353.555 915.717l2.339-1.14 4.033-1.155M331.742 912.843l2.454.942 1.702.654 1.091.31 4.291 1.218 2.992.849.262.015 3.884.234 4.374-.265M316.328 892.215l1.615 2.882-1.148 1.579.662 2.495 2.321 3.291 1.547 2.582-.657 1.049 2.985 2.683"/><path d="m320.668 906.093 3.143-3.627.481-.767-2.967 3.345M355.398 867.29l-4.183-1.207M367.681 875.181l-3.329-2.621M376.524 888.337l-.788-1.147-1.238-2.291-.884-3.4-1.371-3.217-2.587-2.12M316.868 878.197l-.905 2.941-.764 3.42"/><path d="m316.211 877.591.654.606 3.687 3.413.483.428M317.692 875.314l-1.481 2.277M337.528 865.042l-3.774.168M344.152 865.695l-4.472-.025M339.864 903.974l-2.164-.617-.55-.157-.857-.331-2.11-.813-1.151-.443-.213-.105-1.837-1.168-1.502-1.354.332-.528-.779-1.301-1.167-1.658-.332-1.256.579-.795-.812-1.451-1.165-.859-.882-.65.798-.949.682-1.395.384-1.721.459-1.491-.332-.294.745-1.146 1.248-1.367.404-.348 1.005-.864.851-.274 1.262-.396 1.84-.831M337.973 878.313l1.083.317 2.253.008M1379.78 284.089l-7.17-6.965-7.18-6.965-7.17-6.966-1.48-1.432-6.96 7.176-6.97 7.175-6.96 7.175-1.44 1.476 7.18 6.965 7.17 6.965 7.18 6.965 1.48 1.433 6.96-7.176 6.97-7.175 6.96-7.176 1.43-1.475ZM1348.32 252.183l-7.18-6.965-6.57-6.381-6.97 7.175-6.38 6.574 7.18 6.965 6.57 6.382 6.97-7.176 6.38-6.574ZM1367.73 237.439l-7.17-6.965-2.23-2.165-6.97 7.176-2.16 2.23 7.17 6.965 2.23 2.164 6.97-7.175 2.16-2.23ZM962.391-220.215l6.982 7.159 6.982 7.159 6.982 7.158 6.982 7.159 6.982 7.159 6.979 7.159 6.98 7.159 6.99 7.159 6.98 7.159 6.98 7.159 6.98 7.159 6.99 7.159 6.98 7.159 6.98 7.159 6.98 7.158 6.98 7.159 6.99 7.16 6.98 7.158 6.98 7.16 6.98 7.158 6.98 7.16 6.99 7.158 6.98 7.16 6.98 7.158 6.98 7.16 6.99 7.158 6.98 7.158 6.98 7.16 6.98 7.158 6.98 7.16 6.99 7.158 6.98 7.16 6.98 7.158 6.98 7.16 6.98 7.158 6.99 7.16 6.98 7.158 6.98 7.16 6.98 7.157 6.98 7.16 6.99 7.158 6.98 7.16 6.98 7.158 6.98 7.16 6.99 7.158 6.98 7.159 6.98 7.159 6.98 7.159 6.98 7.159 6.99 7.159 6.98 7.158 7.87 8.076 7.08-7.071 2.14-2.145-7.16-6.982-7.16-6.982-7.16-6.982-7.16-6.983-7.15-6.982-7.16-6.982-7.16-6.982-7.16-6.982-7.16-6.982-7.16-6.982-7.16-6.982-7.16-6.982-7.16-6.983-7.15-6.982-7.16-6.982-7.16-6.982-7.16-6.982-7.16-6.982-7.16-6.982-7.16-6.982-7.16-6.982-7.16-6.983-7.15-6.982-7.16-6.982-7.16-6.982-7.16-6.982-7.16-6.982-7.16-6.982-7.16-6.982-7.16-6.982-7.16-6.983-7.15-6.982-7.16-6.982-7.16-6.982-7.16-6.982-7.16-6.982-7.16-6.982-7.16-6.982-7.16-6.983-7.16-6.982-7.15-6.982-7.16-6.982-7.16-6.982-7.16-6.982-7.16-6.982-7.16-6.982-7.158-6.983-7.159-6.982-7.159-6.982-7.159-6.982-7.159-6.982-8.075-7.876ZM621.938 444.942l.236.427.623 1.113 2.825 5.067M735.709 342.106l-4.592-2.572-1.371-.768M742.532 346.713l-.073-.049-2.279-1.539-.492-.332M766.402 362.82l-8.289-5.594-7.032-4.746-.563-.379-1.291-.871M873.594 443.823l1.947-2.005M945.656 792.971l2.038 1.667.969.792M1053.85 718.941l-.25.55M1084.79 681.743l.17.335M1083.19 687.013l1.83-3.361M962 805.364l4.613 2.774 1.784 1.074 8.569 5.154 8.569 5.155 8.569 5.155 8.566 5.155 8.57 5.154 8.57 5.155 8.57 5.155 8.57 5.154 8.57 5.155 1.22.733M1134.64 877.714l-.07-.212M1169.37 845.716l-.06.058M1084.6 670.933l-.61-1.019-3.7-6.122M1092.38 683.815l-3.59-5.934M1177.23 836.051l.01-.001M1576.97 456.542l2.43.538"/></g><defs><clipPath id="a"><path fill="#fff" d="M0 0h1920v1080H0z"/></clipPath></defs></svg>