<svg width="1920" height="1080" fill="none" xmlns="http://www.w3.org/2000/svg"><g clip-path="url(#a)" stroke="#EFC018" stroke-width="5" stroke-linejoin="round"><path d="m953.909 800.396-.193.354h-.001v.002l.026.127.117.214.204.294.221.282M975.022 786.848l-.077.494.04.541.154.565.263.568.362.55.447.51.515.452.563.375.589.284.593.182.574.074.534-.038.472-.149 2.704-1.329"/><path d="m975.023 786.848.191-.429.297-.349.391-.253.119-.038.353-.112.533-.039.575.073.594.182.59.285.564.375.515.452.448.511.362.551.264.569.154.566.038.54-.061.39-.017.105-.191.429-.298.348-.392.252M954.71 800.877l-.172.32-.252.47v.002l-.079.146-.012.044.081.135.171.221.254.298.328.364.389.416.435.452.465.47.476.471.47.453.445.418.404.368.346.302.276.226.195.141.106.049 1.887-1.052"/><path d="m954.207 801.814.105.048.194.14.185.151.007.006.084.068.346.303.404.367.446.419.47.455.478.471.465.472.437.452.117.126.006.007.266.284.328.364.254.298.17.22.08.134-.013.043M957.365 799.502l-.558 1.095-.002.003-.192.376.007.213.103.293.195.363.28.417.167.215.188.241.415.477.46.481.486.466.496.433.368.291.001.001.115.091.456.318.409.243.161.072.186.084.271.064.184-.03.607-.342 3.032-1.708"/><path d="m956.613 800.975.091-.124.184-.031.162.038.007.001.101.024.346.156.409.241.456.319.486.384.496.433.195.186.005.005.288.276.461.482.416.479.281.361.074.095.28.418.125.231.07.131.047.135.055.158.005.212-.092.123M961.571 796.854l-.235.502-.003.006-.327.695-.026.115-.039.176.037.363.139.427.234.469.321.496.001.001.007.008.388.494.455.492.098.091.002.001.397.367.52.414.523.347.505.271.469.182.142.031.273.057.344-.01.261-.109 3.458-1.93"/><path d="m961.008 798.057.166-.203.259-.11.344-.012.415.086.277.108.007.003.185.071.506.271.524.348.521.413.498.462.456.492.397.505.321.496.234.471.138.425.036.364-.066.289-.167.203M967.988 791.41l-.723 1.752-.132.363-.024.432.086.486.192.519.291.534.377.528.451.501.506.456.543.393.558.314.552.225.525.125.478.022.412-.082 3.073-1.652"/><path d="m967.266 793.162.235-.279.33-.185.411-.084.478.022.343.081.182.044.553.224.559.315.544.393.507.457.452.502.378.529.291.534.101.277.09.244.085.485-.024.432-.133.362-.236.279-.331.184M984.258 779.055l.001.588.123.605.241.598.349.569.443.519.522.447.58.359.615.258.627.145.615.028.579-.09.522-.205 2.269-.933"/><path d="m984.258 779.055.121-.548.24-.488.135-.159.212-.249.443-.313.522-.206.579-.091.616.027.628.146.615.257.581.359.522.448.445.519.349.57.24.6.123.605v.588l-.122.548-.24.488-.154.18-.195.227-.443.313M994.723 769.978l.1.637.224.622.339.585.441.524.527.445.592.346.635.235.653.117.646-.01.614-.131 1.586-.387"/><path d="m994.723 769.978.028-.626.02-.076.135-.516.276-.535.386-.456.482-.362.559-.252.614-.133.646-.009.653.115.636.236.592.346.53.445.44.525.34.585.22.623.1.638-.03.626-.15.592-.28.535-.39.456-.48.361-.108.05-.448.202M1008.24 762.401l-.6-.337-.53-.442-.44-.528-.33-.597-.22-.64-.08-.66.05-.654.17-.624.3-.568.41-.492.51-.396.58-.286.64-.164.66-.035.67.094.65.22.6.337.53.441.44.529.33.596.22.641.08.661-.05.654-.17.624-.3.568-.41.492-.51.396-.58.285-.64.164-.66.035-.67-.095-.65-.219ZM1020.03 750.884l-.6-.332-.53-.44-.44-.531-.33-.603-.21-.65-.08-.673.03-.414.02-.257.19-.641.3-.588.42-.513.52-.416.59-.305.64-.181.18-.014.5-.037.67.081.65.21.61.332.53.44.44.532.33.602.21.651.08.673-.06.67-.18.642-.31.588-.42.512-.51.417-.59.305-.65.181-.67.051-.67-.081-.66-.211ZM1090.25 674.58l-.06-.097-.15-.186-.23-.267-.31-.339-.37-.396-.42-.44-.46-.466-.47-.473-.46-.464-.45-.437-.41-.392-.36-.332-.29-.261-.21-.178-.13-.089-.03.003-.41.222-.52.283-.06.035"/><path d="m1090.25 674.58-.03.004-.13-.088-.21-.177-.29-.26-.36-.333-.41-.393-.45-.437-.46-.465-.48-.475-.45-.467-.42-.44-.38-.397-.3-.338-.24-.267-.14-.185-.06-.094v-.002M1087.95 674.284l.43.491.18.227.21.253.32.448.25.401.03.069.01.001.13.269.07.262-.02.176v.001l-.11.082-.21-.014-.24-.093-.04-.016-.35-.2-.41-.285-.2-.16-.05-.036-.2-.162-.48-.417-.48-.46-.46-.486-.44-.492-.39-.48-.32-.449-.25-.402-.16-.337-.07-.262.02-.173v-.002l.1-.074.01-.007.2.014.29.11.3.17.05.031.41.285.45.357.47.416.48.46.47.484ZM1084.83 671.957l-1.19.619M1084.93 684.639l1.92-3.482.1-.252v-.336l-.1-.407-.19-.462-.27-.499-.35-.518-.42-.516-.46-.494-.18-.169-.31-.286-.5-.397-.49-.324-.46-.238-.41-.144-.36-.044-.24.05-.04.008-.13.061v.002l-1.88.903"/><path d="M1086.85 681.158v.002l-.19.157-.28.059-.35-.043-.42-.144-.46-.238-.49-.324-.5-.398-.49-.455-.08-.086-.38-.41-.42-.517-.35-.519-.28-.5-.19-.462-.09-.406v-.336l.1-.248v-.003l.08-.068.01-.002.09-.08.01-.007M1080.69 690.099l1.66-3.111.07-.405-.03-.47-.13-.519-.23-.546-.32-.554-.4-.539-.45-.504-.5-.45-.52-.379-.38-.211-.05-.025-.1-.057-.51-.195-.48-.091-.42.017-.35.125-1.14.482"/><path d="m1082.35 686.988-.18.323v.003l-.26.226-.36.127-.42.018-.47-.09-.43-.163-.01-.004-.08-.028-.53-.293-.52-.379-.5-.451-.46-.506-.39-.54-.32-.555-.22-.523v-.011l-.01-.013-.13-.519-.03-.47.03-.166.04-.238.17-.319.01-.004.26-.22.01-.008M1074.53 697.538l1.36-2.751.14-.466.03-.527-.08-.569-.19-.589-.29-.585-.38-.56-.45-.513-.51-.446-.54-.363-.57-.265-.55-.157-.53-.044-.49.072"/><path d="m1075.89 694.786-.02.02-.23.366v.003l-.33.289-.42.186-.2.03-.01.001-.28.042-.53-.042-.56-.157-.56-.265-.55-.363-.51-.448-.45-.514-.38-.561-.28-.586-.19-.589-.08-.569.03-.528.07-.238v-.009l.07-.218.24-.382v-.004l.34-.291.37-.161.05-.024M1061.93 701.101l.08-.575.2-.517.3-.434v-.004l.15-.13.01-.008.24-.206.46-.226.02-.009.54-.118.58.004.6.125.59.242.56.349.52.444.45.52.36.577.26.612.15.624.04.611-.09.575-.19.517-.01.016-.3.423v.004l-.29.252-.01.007-.09.082-.48.236-.54.119M1064.86 705.085l-.6-.242-.56-.35-.52-.444-.45-.521-.36-.578-.26-.613-.15-.624M1066.79 706.397l.97-2.324M1058.01 715.653l.43-1.646.13-.612v-.643l-.12-.651-.24-.633-.35-.59-.44-.526-.52-.441-.58-.34-.62-.224-.63-.101"/><path d="m1058.44 714.007-.01.036-.23.52-.02.026-.01.012-.32.442-.01.004-.44.38-.53.274-.58.154-.62.027-.64-.1-.62-.224-.58-.34-.52-.441-.45-.527-.34-.591-.24-.634-.12-.651v-.644l.13-.612.24-.556.35-.474.01-.005.44-.384.53-.273.3-.079.03-.007.26-.067.45-.02.17-.007M1047.99 723.791l-.1-.426-.23-.646-.34-.6-.44-.53-.52-.439"/><path d="m1047.88 723.366.02.116.01.082.01.066.06.404-.03.664-.16.637-.28.582-.39.505v.005l-.48.406-.56.299-.62.177-.65.045-.66-.083-.63-.214-.6-.333-.53-.44-.44-.529-.34-.6-.22-.647-.1-.669.03-.665.16-.636.28-.582.39-.5v-.005l.49-.41.56-.299.62-.175.65-.047.65.084.64.214.5.281.02.012.05.026.02.014M1035.96 733.916l.33.604.21.652.09.676-.05.674-.18.646-.3.592-.41.517-.01.005-.5.417-.58.309-.64.186-.67.055-.67-.078-.65-.209-.6-.33-.53-.439-.44-.532-.33-.604-.22-.653-.08-.676.05-.674.18-.646.3-.592.41-.511v-.006l.51-.421.58-.309.64-.186.67-.055.67.079.65.208.6.33.53.439.44.532Z"/><path d="M1035.64 738.283v.006l-.51.421-.59.31-.63.185-.67.055-.67-.078-.65-.208-.6-.33-.53-.44-.44-.532-.34-.604-.21-.652-.08-.677.05-.674.17-.645.31-.593.41-.517v-.004l.51-.417.58-.309.64-.186.66-.054.68.078.64.208M1036.28 734.53l.21.653.09.676-.05.674-.18.645M1034.98 732.955l.53.44.44.531M1047.12 726.427v.006l-.49.41-.56.3-.62.176-.65.047-.65-.085-.64-.213-.6-.333-.52-.439-.45-.531-.33-.6-.23-.647-.09-.669.03-.665.16-.635.28-.582.39-.506v-.004M1047.32 722.13l.34.6.22.646M1047.9 723.507l.01.067.07.471-.04.665-.15.635-.28.582M1042.63 721.05l.56-.298.62-.176.65-.047.65.085.64.213.57.32.02.013M1054.18 709.35l.03-.007.23-.061.62-.026.63.101.62.224.58.339.52.441.45.526.34.591.24.633.12.65v.644l-.13.612-.24.556-.01.013-.01.012-.33.449v.005l-.45.385-.53.274-.58.154-.62.027-.63-.1-.62-.225-.59-.339-.52-.441-.44-.527-.35-.592-.24-.633-.12-.651v-.644l.13-.612.24-.556.36-.479v-.005l.45-.379.52-.274M1067.75 704.083l-.3.434v.005l-.29.249-.01.007-.1.088-.48.237-.54.118-.58-.003-.6-.124-.59-.242-.57-.35-.52-.444-.45-.521-.36-.578-.26-.613-.15-.625-.03-.611.08-.575.2-.517.3-.439.01-.004.15-.133.01-.009.23-.197.48-.235.54-.118.58.004.6.125.59.242.57.349.51.443.45.521.36.577.26.612.15.624.04.611-.08.575-.2.517Zm0 0v.007M1063.92 698.883l-.55.118M1072.74 695.267l-.54-.363-.51-.447-.45-.514-.38-.561-.29-.586-.19-.59-.08-.569.03-.527.08-.247v-.009l.06-.21.25-.385v-.004l.34-.287.42-.185.48-.072.53.043.56.158.56.265.55.362.51.447.45.513.37.56.29.585.19.588.08.569-.03.528-.14.465-.24.382v.005l-.34.292-.42.186-.19.028v.002l-.29.043-.53-.043-.56-.157-.57-.265ZM1082.17 687.314v.003l-.27.229-.35.127-.42.018-.48-.09-.41-.158-.01-.004-.09-.033-.53-.293-.52-.379-.5-.451-.46-.506-.4-.54-.31-.555-.23-.534V684.135l-.14-.519-.03-.47.04-.173.04-.231.17-.322.01-.003M1080.35 683.007l.5.45.46.504M1084.65 680.63l-.5-.397-.49-.455-.08-.092-.38-.404-.41-.518-.35-.518-.28-.5-.19-.462-.09-.407v-.335l.1-.251v-.002l.08-.07.01-.002.1-.084.04-.009.24-.049.36.044.41.144.46.239.49.324.5.397.31.286.18.168.46.495.41.516.36.518.27.499.19.462.1.403v.339l-.1.25v.003l-.19.158-.28.059-.36-.043-.41-.143-.46-.238-.5-.325ZM1089.56 676.884l-.11.083-.21-.014-.24-.094-.04-.015-.35-.201-.41-.284-.2-.155-.05-.042-.2-.161-.48-.417-.48-.46-.46-.486-.44-.492-.39-.48-.32-.45-.25-.401-.16-.338-.07-.261.02-.175v-.001l.11-.081.2.015.29.11.3.173.05.028.41.285.45.357.47.416.48.459.47.485.43.491.19.227.2.252.32.449.25.401.04.068v.001l.13.27.07.262-.02.174v.002Zm0 0-.55.989-1.48 2.663M1084.83 671.959l-.01.005M1090.25 674.58v.001l-.03.004-.13-.088-.21-.177-.29-.26-.36-.333-.41-.392-.45-.438-.46-.465-.48-.475-.45-.466-.42-.441-.38-.397-.3-.338-.24-.267-.14-.184-.06-.096M1086.46 670.624l.41.392.44.437.47.464.47.474.46.465.42.44M1089.5 673.691l.31.339.23.267.15.186"/><path d="m1085.44 669.768-.41.221-.52.283-.06.034M1085.6 669.853l.21.178.29.261M1085.03 669.988l-.22-.162-.3-.196-.22-.108-.14-.017-.14.081M723.863 335.318l-8.726-4.883-6.449-3.608-8.884-4.592-8.883-4.592-8.883-4.592-4.343-2.245-8.915-4.529-8.916-4.53-8.915-4.529-4.411-2.241-9.164-4.003-9.164-4.004-9.163-4.003-5.171-2.259-9.577-2.877-9.577-2.878-9.577-2.877-9.578-2.877-9.577-2.877-9.577-2.878-9.577-2.877-3.059-.919 2.849 9.586 2.848 9.585 2.849 9.586 2.849 9.586 2.848 9.585 2.849 9.586 2.848 9.586.818 2.751 3.986 9.171 3.986 9.171 3.986 9.171 2.215 5.096 4.517 8.922 4.516 8.922 4.517 8.922 2.212 4.372 4.58 8.889 4.58 8.89 4.58 8.889 2.226 4.322 4.873 8.732 3.548 6.359M1079.13 664.649l-1.27 2.919-3.79 5.377-6.21 7.666-.51.587-.17.199-1.42 1.63-3.22 3.702-1.05 1.217-2.04 2.347-1.31 1.432-3.15 3.461-.81.899-4.56 5.006-.48.528-3.17 3.37-.4.425-5.33 5.656-2.88 3.065-1.38 1.418-5.77 5.95-4.51 4.653-1.13 1.165-4.81 4.839-4.65 4.67-.01.009-1.07 1.073-2.69 2.709-1.66 1.622-.56.542v.01l-4.61 4.506-.01.009-1.51 1.481-4.332 4.234-.05.049-.01.01-.395.386-4.06 3.859-.009.009-1.937 1.84-3.638 3.458-.009.009-.471.448-.009.008-2.339 2.223-1.486 1.365-.008.008-2.36 2.167-2.506 2.3-.008.008-.944.867-.008.007-3.406 3.128-.008.007-.556.511-2.424 2.126-.635.558-.007.006-1.191 1.044-.006.006-3.828 3.358-.008.006-1.248 1.095-.005.004-.065.057-.004.004-.231.203-7.64 6.244-5.353 3.805-2.894 1.261"/><path d="m947.8 794.567-.448.788.369 1.315 2.94-1.276 5.444-3.868 7.776-6.353.936-.821.003-.003.208-.182.004-.004 1.584-1.389.007-.006 3.534-3.1.007-.006 1.262-1.107.007-.006.818-.717 1.458-1.279 1.426-1.31.007-.007 3.326-3.053.008-.008.944-.866.008-.008 2.572-2.362 2.36-2.167.009-.008.839-.77 2.942-2.797.01-.009.471-.447.009-.009 3.654-3.473 1.936-1.84.009-.009 3.673-3.491.77-.753.009-.009.058-.057 4.311-4.218 1.51-1.481.01-.009 4.63-4.522.01-.009.57-.559 1.5-1.473 2.8-2.811 1.08-1.089.01-.01 4.67-4.685 4.93-4.955 1-1.032 4.52-4.668 5.76-5.935 1.74-1.798 2.52-2.68 5.34-5.672.4-.424 3.63-3.857.11-.117 4.5-4.941.83-.913 3.07-3.379 2.1-2.302 1.36-1.565 1.09-1.258 3-3.449 1.67-1.928.32-.364 1.12-1.293 6.32-7.802 3.86-5.468 1.28-2.965-1.28-.395-.82.465M1096.07 885.953l2.19-.37 3.53-1.82 4.75-3.212 5.79-4.489 6.6-5.595 2.84-2.572 4.32-3.911 6.41-6.147 1.01-.963 6.12-6.177M740.051 344.837l-3.033.644-5.098 2.804-6.991 4.887-1.736 1.368-.325.256-1.679 1.324-2.475 1.951-1.232.972-1.183.932-2.555 2.177-2.493 2.124-.776.661-4.112 3.503-.303.274-3.768 3.404-.068.061-4.134 3.733-2.57 2.322-2.384 2.26-3.258 3.091-5.664 5.372-.49.486-2.322 2.304-6.521 6.469-.008.008-1.956 1.941-.405.42-.008.009-5.778 5.996-.007.008-3.203 3.324-.008.008-1.406 1.458-3.057 3.332-.007.008-1.779 1.939-2.049 2.233-.007.008-.103.112-.002.002-.007.008-2.871 3.128-.39.452-.006.006-1.748 2.02-2.03 2.346-.007.007-.716.828-.006.007-2.07 2.392-.006.006-1.565 1.809-.398.497-1.023 1.276-.005.006-.991 1.238-.004.006-2.091 2.611-.006.007-.972 1.214-.003.003-.08.101-.002.001-1.293 1.616-4.933 6.947-2.825 5.062-.64 3.006"/><path d="m628.41 455.621.063.094 1.547 2.297.261.389"/><path d="m742.46 346.46.824-2.318-.91-1.58-3.146.657-5.298 2.909-7.275 5.081-2.819 2.221-.97.765-2.278 1.795-2.077 1.637-.843.663-.403.345-3.823 3.256-2.529 2.154-.742.633-2.855 2.431-1.439 1.3-4.02 3.63-.014.013-3.817 3.447-2.013 1.817-3.406 3.231-2.636 2.5-5.745 5.448-1.322 1.312-1.138 1.128-7.098 7.043-.586.582-.008.006-1.2 1.192-.008.008-.418.414-6.235 6.471-.007.007-2.647 2.748-.008.008-2.377 2.467-2.536 2.764-.006.007-1.931 2.104-1.58 1.722-.037.041-.007.008-.037.039-.007.009-3.523 3.84-.006.006-.63.686-1.165 1.347-1.935 2.236-.006.007-.697.806-.007.007-2.065 2.386-.005.007-1.954 2.258-1.068 1.233-.162.202-.005.007-1.013 1.265-.005.007-1.687 2.107-.005.006-1.57 1.961-.003.005-.543.678-.001.002-2.156 2.692-5.129 7.231-2.931 5.261-.653 3.118 1.611.89 2.301-.813"/><path d="m742.373 342.561-2.248-1.735-3.145.643-1.076.587-4.211 2.299-3.604 2.508-1.103.768-.749.522-1.798 1.251-.452.355-.73.574-1.653 1.3-.815.641-2.518 1.98-2.135 1.678-.653.514-.35.297-.641.545-2.517 2.141-6.806 5.789-7.425 6.698-3.831 3.457-7.258 6.88-4.478 4.245-7.1 7.043-4.625 4.589-6.938 7.202-4.283 4.447-6.758 7.372-3.491 3.808-6.369 7.37-.005.006-2.104 2.434-.004.005-.373.432-.292.365-.005.007-.904 1.132-.006.007-1.472 1.843-.004.005-2.019 2.527-.004.005-.561.702-.004.006-1.341 1.679-.004.005-.495.619-.032.044-.003.005-1.461 2.067-.003.003-.754 1.067-.004.006-.494.698-.001.002-2.345 3.316-2.294 4.141-.614 1.11-.64 3.117 1.737 2.251M634.969 465.361l.751 1.117h.001l5.584 8.296 5.585 8.295 4.837 7.187 5.585 8.295 3.891 5.781 5.91 8.067 5.909 8.067 5.909 8.067 5.91 8.067 5.909 8.067 5.316 7.257 6.383 7.697 6.384 7.698 6.383 7.697 1.631 1.966 6.383 7.698 6.384 7.697 3.879 4.678 6.647 7.472 6.647 7.471 6.646 7.471 6.647 7.472 6.647 7.471 5.66 6.362 7.284 6.852 7.283 6.852 7.284 6.852 7.284 6.851 7.284 6.852 6.164 5.799 7.445 6.677 7.444 6.677 7.445 6.677 7.444 6.676 7.445 6.677 6.334 5.681 7.601 6.498 7.602 6.498 7.601 6.497 7.601 6.498 7.601 6.498 6.518 5.571 7.74 6.332 7.74 6.332 7.739 6.332 7.74 6.332 3.969 3.247.521.426.007.006.122.1M1079.13 664.65l-.91-1.11-1.62-1.979M1070.65 654.284l-.48-.579-6.33-7.738-6.34-7.738-6.33-7.738-6.33-7.738-3.15-3.845-6.5-7.6-6.5-7.6-6.5-7.599-6.5-7.6-6.5-7.6-5.48-6.406-6.677-7.443-6.678-7.444-6.678-7.443-6.678-7.444-6.678-7.443-5.576-6.216-6.852-7.283-6.853-7.283-6.852-7.283-6.853-7.283-6.852-7.283-5.687-6.045-7.47-6.648-7.47-6.648-7.47-6.648-7.47-6.648-7.471-6.648-6.245-5.558-5.76-4.78-3.495-2.9M1154.05 835.063l.3-.337 5.54-6.658 4.45-5.837 3.18-4.789 1.8-3.563.37-2.212M947.719 796.671l6.19 3.725.798.481M1169.69 811.667l-1.5-2.501-5.17-8.563-5.16-8.564-5.17-8.563-5.16-8.563-5.17-8.564-5.16-8.563-5.16-8.563-5.17-8.564-5.16-8.563-5.17-8.563-5.16-8.564-5.17-8.563-5.16-8.563-5.16-8.564-5.17-8.563-1.71-2.843M1127.58 904.266l8.65 5.024 4.55 2.645 1.76-.204 2.75-1.287 3.64-2.33 3.82-2.855.57-.432 3.38-2.793 1.59-1.318.01-.009 5.36-4.791.25-.235 1.52-1.449 2.92-2.784.85-.804 5.48-5.544.85-.909 1.87-2.002M1188.15 869.761l.56-.692.46-.632 2.79-3.804 2.31-3.677 1.27-2.778.2-1.778-5.03-8.642-2.66-4.576"/><path d="m1111.46 898.611 8.73 4.874 3.49 1.943 2.04-.264 1.86-.897 1.36-.659 4.3-2.8 5.21-3.942 5.92-4.934 1.04-.931 2.23-2.002 3.12-2.8 1.74-1.66 2.22-2.125 2.64-2.519 6.56-6.62 1.66-1.777M1093.58 884.456l-.18.327-.7 2.648.82 1.164 2.33-.386 3.77-1.938 5.08-3.432 6.2-4.801 7.07-5.991 4.18-3.784 3.49-3.159 7.18-6.885.76-.732.04-.035v-.006l1.11-1.114v-.006l4.99-5.028.33-.337M1168.18 809.166l.37-.201 2.61-.701 1.14.835-.39 2.357-1.92 3.806-3.39 5.121-4.76 6.245-5.93 7.129-1.49 1.679M1177.15 858.541l3.56-4.353 3.9-5.256 2.77-4.338.67-1.412.87-1.847.27-2.062-4.89-8.727-2-3.575M1093.51 888.595l8.73 4.873 2.97 1.653v.001l.72.401v.003l.25.14M1152.75 905.26l8.21 5.697 4.46 3.089 1.08-.117 1.61-.733.06-.024.99-.624 1.19-.748 2.62-1.936 2.95-2.424.01-.014.87-.772 2.29-2.034 3.27-3.105 3.23-3.268 3.07-3.301 1.18-1.356M1112.91 808.872l-7.78-6.282-7.78-6.283-7.78-6.281-7.78-6.282-7.78-6.283-7.78-6.28-2.55-2.061-7.78-6.28-7.78-6.283-7.78-6.281-3.88-3.131"/><path d="m1036.46 747.144 6.9 7.238 6.9 7.238 6.9 7.238 6.9 7.238 6.9 7.238 6.9 7.238 6.9 7.238 6.9 7.238 6.9 7.238 6.9 7.238 6.9 7.238 6.9 7.238 6.9 7.238 1.71 1.796.31.324.42.436 8.47 5.305 2.56 1.598.32.2.1.063.23.147 3.11 1.947.76.475 1.68 1.052 5.14 4.401.75.642 2.8 2.401v.001l.23.19v.002l1.02.874.32.274 7.59 6.506 1.56 1.333.34.292 2.41 2.066 1.16 1.064 1.33 1.222 5.52 5.06 1.4 1.28.21.194 2.67 2.447 4.68 4.296 1.09.998 2.56 2.345.11.102 1.12 1.018 7.39 6.735 7.39 6.734 4.98 4.533 7.36 6.773 7.35 6.773 6.18 5.682 2.5.662 6.9-7.235.61-.643-6.97-7.17-6.89-7.088-6.97-7.17-6.92-7.117-6.97-7.169-6.95-7.145-3.89-4.002-6.79-6.982-2.05-2.106-1.21-1.253-1-1.013-2.01-2.04-4.73-4.808-.37-.377-7.04-7.157-.35-.352-2.48-2.524-.01-.005-.49-.497-.01-.011-1.67-1.704-.01-.005v-.006l-.06-.057-.01-.007-7.01-7.129-3.22-3.274-.37-.373-7.01-7.129-1.24-1.261-.35-.354-7.02-7.128-7.01-7.128-7.01-7.128-3.86-3.926-7.81-6.249-7.81-6.249-7.81-6.249-7.8-6.249-7.81-6.249-7.81-6.249-2.55-2.043-7.81-6.249-7.8-6.25-7.81-6.249-3.89-3.112-7 7.142-.38.391Z"/><path d="m1232.99 931.482-6.98-7.166-6.9-7.092-6.98-7.166-6.93-7.121-6.97-7.166-5.49-5.638-1.47-1.51-1.25-1.28-6.71-6.893-1.21-1.252-1.02-1.041-1.42-1.46-2.35-2.417-7.02-7.126-.33-.338-.33-.333-7.01-7.126-2.57-2.607v-.001l-3.57-3.628-5.92-6.011-3.06-3.109-7.02-7.126-2.77-2.819-.32-.324-7.02-7.126-7.01-7.126-7.02-7.127-3.43-3.481 6.97-7.176.67-.687M1168.11 913.195l1.59 1.547 1.95.516 6.67-6.951-1.52-1.654M1171.65 915.259l-2.49-2.711M937.977 786.532l-1.359 2.42-.001.002.021.128.112.214.2.294.167.217M959.341 771.179l-1.031 2.948-.087.507.031.552.148.575.258.576.359.554.446.513.517.45.26.171.15.098.156.102.595.278.601.173.584.063.543-.051.484-.162 2.803-1.403"/><path d="m958.312 774.127.203-.444.308-.363.403-.269.143-.048.339-.115.545-.052.583.062.602.173.596.278.568.371.517.451.24.277.094.108.112.129.361.555.258.577.147.576.03.552-.072.414-.016.093-.203.444-.31.362-.403.268M966.16 777.123l.546-.362.419-.49.274-.6.119-.686-.04-.747-.198-.778M938.628 787.064l-.037.067-.002.003-1.212 2.201-.001.002-.257.468-.001.002-.099.179-.011.047.083.138.173.223.256.301.329.366.39.417.436.452.465.471.476.47.469.453.444.417.403.366.345.3.274.224.193.137.104.047 1.957-1.116"/><path d="m937.02 789.986.102.046.193.137.274.222.046.041.011.009.288.251.402.366.445.417.471.454.477.472.466.471.437.454.073.078.006.007.312.333.329.366.255.3.172.223.082.137-.012.045M940.774 786.474l-.001.002-.205.389-.002.004-.112.213-.125.237-.001.001-.091.173-.327.621-.247.469-.002.004-.239.454.005.219.101.299.195.367.279.421.354.459.415.479.46.482.487.465.496.431.483.379.001.001.001.001.457.315.41.237.239.104.109.048.273.058.186-.036 1.439-.828 2.322-1.335"/><path d="m939.422 789.041.092-.13.185-.038.272.058.022.009.009.005.316.136.411.237.457.316.487.38.497.432.299.286.006.006.183.175.461.483.415.48.355.46.021.032v.001l.258.389.194.367.073.216.028.082.003.218-.093.129M945.579 782.482l-1.033 2.114-.002.004-.289.592-.003.006-.358.733-.026.108-.044.19.033.373.135.433.231.475.277.435.006.009.036.057.395.506.455.493.306.283.002.001.189.176.522.41.525.344.509.265.474.175.188.036.231.044.349-.02.266-.118 2.208-1.255.546-.31.824-.469"/><path d="m943.891 785.931.17-.213.265-.119.348-.021.305.057.027.005.087.017.474.175.059.031.009.004.016.009.426.221.526.344.523.411.499.461.455.493.396.508.319.501.231.476.135.433.032.373-.072.297-.171.212M952.531 788.573l.233-.287.097-.403M951.805 777.333l-.867 1.998-.003.007-.62 1.43-.139.374-.031.444.036.22.005.034.039.24.185.522.002.006.005.009.282.531.376.531.45.503.507.455.546.39.562.309.558.217.26.058.269.058.003.001.485.012.42-.094 3.184-1.742"/><path d="m950.312 780.768.245-.292.338-.197.42-.095.484.011.374.081.159.035.559.216.562.31.548.39.508.456.451.504.377.533.287.541.081.229.021.06.047.135.037.104.079.495-.031.443-.142.374-.245.291-.338.196M958.32 783.846l.459-.265.332-.393.191-.506.043-.6-.106-.67M968.368 763.631l-.51 2.318-.01.602.114.615.235.607.345.575.094.11.092.108.257.303.524.446.584.355.623.25.636.135.627.015.592-.104.536-.222 2.352-.987"/><path d="m967.855 765.949.135-.563.252-.504.156-.185.206-.24.458-.33.534-.223.592-.105.627.015.638.135.623.249.275.167.105.064.205.125.526.446.443.522.346.575.233.608.114.616-.01.602-.134.564-.255.503-.172.203-.19.222-.458.329M975.457 768.756l.619-.445.491-.574.343-.681.182-.762.015-.813-.154-.833-.316-.822M978.656 754.854l.041 1.586.089.649.064.186.045.13.108.316.335.589.44.528.53.443.597.341.643.227.664.106.659-.023.63-.148 1.644-.414M985.145 759.371l.777-.363.674-.513.545-.641.395-.747.23-.822.055-.867-.12-.877-.292-.855-.453-.799"/><path d="m978.699 756.44.04-.642.033-.117.137-.491.291-.553.403-.475.498-.38.575-.27.63-.149.659-.023.507.08.13.02.028.004.643.228.599.342.529.443.441.527.335.592.217.633.089.649-.041.641-.17.609-.292.552-.404.475-.498.38-.15.07-.425.199M992.642 748.406l-.606-.332-.533-.44-.439-.532-.328-.602-.205-.651-.074-.672.005-.049.015-.175.04-.446.192-.641.317-.587.428-.512.525-.416.6-.304.652-.18.244-.018.154-.012.283-.02.681.082.657.211.607.332.533.44.439.532.328.603.205.651.074.673-.061.67-.192.641-.317.587-.429.511-.524.416-.6.303-.653.18-.68.05-.681-.082-.657-.211Z"/><path d="m996.402 748.598.811-.41.591-.469.008-.005.109-.087.58-.69.079-.148.002-.003.347-.643.26-.867.082-.904-.1-.909-.276-.88-.444-.813M1004.91 736.392l-.61-.326-.53-.439-.44-.534-.33-.609-.2-.66-.07-.687.07-.686.03-.083.06-.214.11-.362.33-.608.44-.532.53-.436.61-.323.32-.095.2-.06.14-.044.69-.065.69.069.66.202.61.326.53.439.44.534.33.609.2.661.07.686-.07.686-.2.66-.33.607-.44.532-.53.436-.61.323-.66.199-.69.065-.69-.069-.66-.202ZM1009.68 736.065l.56-.678.01-.009.02-.031.44-.82.27-.891.1-.926-.1-.928-.27-.892-.44-.822M1074.06 653.164l-.23-.265-.15-.183-.05-.092v-.001l.04-.002.12.092.22.18.29.262.36.334.41.393.45.437.47.464.47.474.45.465.42.438.37.396.31.336.23.266.15.183.05.095-.03.002-.13-.09-.22-.179-.29-.262-.36-.334-.41-.394-.45-.438-.47-.465-.47-.475-.45-.466-.42-.439-.37-.396"/><path d="m1073.63 652.624-.45.251-.52.288-2.02 1.121M1077.64 659.726l.01-.002.02-.178-.07-.263-.09-.196-.07-.143-.24-.402-.32-.45-.11-.142-.27-.337-.44-.492-.46-.485-.48-.459-.48-.416-.45-.357-.41-.284-.36-.201-.29-.109-.21-.013-1.29.691-.02.009-.59.316v.001l-.27.145-.06.03-.84.45-.12.061"/><path d="m1077.65 659.724-.12.084-.21-.013-.17-.064-.12-.044-.35-.2-.42-.284-.12-.099-.33-.258-.48-.417-.48-.46-.46-.486-.44-.493-.38-.481-.32-.45-.25-.402-.16-.339-.06-.262.02-.174v-.002l.11-.074.01-.009M1072.73 667.672l.2-.367.31-.549 1.51-2.685.11-.256.01-.287v-.054l-.09-.41-.18-.466-.27-.502-.35-.52-.41-.518-.44-.472-.02-.023-.49-.454-.5-.396-.5-.322-.46-.236-.43-.141-.36-.04-.29.062-.03.017-.11.052v.001l-1.97.981-.49.243"/><path d="M1074.75 664.07v.002l-.2.161-.28.064-.37-.04-.42-.14-.47-.235-.49-.323-.51-.396-.28-.267-.21-.188-.46-.497-.41-.519-.35-.521-.27-.503-.18-.465-.09-.411.01-.34.11-.252v-.003l.08-.065v-.002l.09-.072.02-.015.01-.008M1064.78 667.223l-.12-.525-.01-.344-.01-.133.09-.412.18-.326v-.004l.27-.227.01-.009.37-.132.43-.024.49.085.51.191.37.196.13.072.04.021.53.377.5.45.45.505.39.542.32.557.22.552.12.516v.009l.02.295v.182l-.08.413-.06.11-.13.22v.003l-.28.234M1068.17 670.663l-.35-.13-.01-.004-.08-.029-.53-.289-.53-.377-.5-.451-.46-.507-.39-.543-.31-.558-.21-.498M1068.25 673.271l1.75-3.221M1067.99 673.721l.01-.002.25-.448M1065.19 665.242l-1.42.635-1.67.74M1061.78 680.935l1.43-2.851.15-.476.04-.538-.07-.577-.17-.596-.28-.571-.01-.02-.08-.132-.29-.431-.45-.515-.51-.445-.55-.36-.57-.261-.57-.15-.54-.036-.5.082-2.97 1.084"/><path d="m1063.21 678.084-.01.02-.25.378v.003l-.35.299-.43.197-.19.031-.01.001-.3.05-.54-.034-.57-.15-.57-.261-.55-.359v-.001l-.11-.093-.41-.354-.45-.515-.37-.565-.28-.592-.18-.596-.07-.578.04-.538.08-.222v-.009l.08-.245.25-.392.01-.004.35-.302.37-.167.06-.028M1061.43 681.476v-.004l.35-.537M1053.66 690.091l1.02-2.408.22-.53.09-.588-.02-.622-.14-.632-.25-.62-.36-.581-.45-.522-.17-.148-.11-.092-.24-.203-.57-.346-.6-.236-.61-.117-.59.007-.56.13-2.55.616"/><path d="m1054.68 687.684-.01.016-.31.437v.004l-.29.25-.01.007-.11.097-.5.25-.55.13-.6.008-.61-.117-.6-.236-.57-.346-.52-.443-.45-.523-.05-.087-.06-.105-.24-.391-.26-.62-.14-.633-.02-.623.1-.588.21-.53.32-.447v-.005l.14-.118.01-.009.27-.23.47-.235.02-.013M1053.22 690.709v-.004l.44-.613M1044.48 699.687l.46-1.706.14-.627.02-.656-.11-.661-.23-.641-.34-.597-.45-.528-.52-.44-.59-.335-.18-.061-.13-.045-.32-.111-.64-.091-1.64.025"/><path d="m1044.94 697.981-.02.035-.24.537v.004l-.01.013-.36.478-.01.005-.46.396-.54.29-.61.167-.63.04-.64-.091-.63-.217-.59-.335-.53-.441-.44-.529-.34-.596-.21-.567-.02-.075-.01-.043-.1-.619.01-.657.15-.626.26-.572.37-.49v-.006l.47-.399.54-.289.27-.075.03-.007.3-.085.42-.026.22-.013M1043.61 701.135l.01-.005.5-.669.35-.773M1034.06 708.182l-.11-.45-.22-.656-.33-.605-.44-.533-.53-.438-.42-.332"/><path d="m1033.95 707.732.01.098v.057l.01.068.06.457-.04.679-.18.652-.3.599-.41.524v.005l-.5.424-.58.316-.64.192-.66.06-.67-.073-.65-.205-.6-.328-.53-.439-.44-.533-.34-.606-.21-.656-.08-.681.01-.202.01-.154.02-.323.18-.652.3-.6.4-.517.01-.006.5-.428.58-.316.64-.191.57-.052.09-.008.07.007.6.067.65.205.49.267.03.02.03.017.05.024M1021.53 718.737l.33.61.2.662.07.689-.06.689-.19.663-.32.611-.44.536v.005l-.52.436-.61.328-.65.202-.69.069-.68-.066-.66-.2-.61-.325-.53-.438-.44-.535-.33-.61-.2-.662-.07-.69.06-.689.04-.126.06-.202.1-.335.32-.611.42-.53.01-.006.53-.44.6-.328.44-.134.21-.066.01-.002.68-.069.68.066.66.2.61.325.53.439.44.534ZM1022.77 721.744l.08-.931-.1-.931"/><path d="m1021.85 719.358.2.662.07.689-.06.689-.2.663-.31.611-.43.53-.01.006-.52.441-.61.327-.65.203-.69.069-.68-.066-.66-.2-.61-.325-.53-.439-.44-.534-.33-.61-.2-.663-.07-.689.06-.689.04-.126.06-.202.1-.335.32-.611.43-.536v-.005l.53-.436.6-.327.43-.134.22-.066v-.002l.69-.069.68.066.66.2M1017.22 725.515l.92.09.92-.094M1027.1 712.955l.81.444.87.276.91.1.9-.082.85-.26.79-.427.68-.579M1034.02 708.422l-.04.679-.18.652-.3.599-.4.518v.006l-.51.428-.58.317-.64.192-.66.06-.67-.074-.65-.205-.6-.328-.53-.439-.44-.532-.33-.607-.22-.656-.08-.68.01-.203.01-.154.02-.323.18-.652.3-.599.41-.524v-.004l.5-.424.58-.315.64-.192.57-.052.09-.008.07.008M1031.17 704.977l.65.205.55.304.05.024.33.271.2.168.44.532.33.606.22.655M1038.06 701.487l.79.453.85.293.87.122.86-.054.81-.227.74-.392.63-.541v-.005M1044.3 699.054v.005l-.47.401-.55.29-.6.167-.63.04-.65-.091-.62-.217-.59-.335-.53-.441-.44-.529-.35-.596-.2-.568-.03-.074v-.044l-.1-.618.01-.657.15-.626.26-.572.37-.496.01-.004M1041.58 693.198l.64.091.32.111.13.044.18.062.59.335.52.44.45.528.34.596.23.641.11.662M1048.02 690.78l.78.467.81.319.83.157.8-.01.75-.178.67-.337.56-.484v-.005M1053.76 683.598l.45.522.36.581.25.62.14.632.02.623-.09.587-.22.531-.31.447-.01.005-.28.247-.01.007-.12.104-.5.25-.55.13-.59.008-.61-.117-.61-.236-.57-.346-.52-.443-.44-.523-.06-.088-.06-.105-.24-.39-.25-.62-.14-.633-.03-.623.1-.588.22-.53.32-.452v-.004l.14-.123.01-.009.26-.221.5-.248.55-.13M1051.46 682.455l.61.117.61.236.57.346.23.202.11.092M1063.2 678.092l-.25.393v.004l-.35.303-.44.196-.18.031-.01.001-.31.051-.54-.034-.57-.151-.57-.26-.55-.36-.11-.094-.4-.353-.45-.515-.37-.565-.29-.592-.17-.597-.07-.578.04-.537.07-.231.01-.009.07-.236.26-.397v-.003l.35-.298M1062.5 674.751l.28.43.09.133.01.018.27.573.18.596M1057.41 681.668l.78.352.77.203.73.045.67-.112.59-.266.48-.41v-.004M1059.85 673.019l.56.151.57.26.56.36M1069.99 670.056l-.18.327v.004l-.28.237-.36.133-.44.026-.34-.06-.14-.025-.08-.029-.34-.124-.01-.004-.09-.033-.54-.29-.53-.377-.5-.451-.45-.506-.39-.543-.32-.559-.2-.509-.01-.012-.01-.031-.12-.525-.02-.354v-.124l.08-.412.19-.33v-.002l.28-.233.36-.133.44-.024.48.085.52.191.37.199.13.071.03.019.53.377.5.45.46.505.39.542.31.558.22.551.13.515v.01l.01.293.01.185-.09.412Zm0 0-.05.104M1065.19 665.25l-.01.002M1065.17 673.893l.7.257.66.113.59-.035.49-.182.38-.321v-.004M1074.75 664.073v.003l-.2.163-.29.063-.36-.039-.42-.14-.47-.236-.5-.322-.5-.396-.29-.27-.2-.186-.46-.496-.41-.519-.35-.521-.27-.503-.18-.466-.09-.41.01-.34.11-.256v-.001l.08-.067v-.002l.1-.072.02-.019M1073.98 661.58l.34.519M1074.59 662.603l.19.465.09.411-.01.044v.295"/><path d="M1072.72 667.676v-.004l.01-.006.2-.361.31-.549 1.51-2.681M1071 667.745l.57.188.1.01.36.039.03.003.39-.086.27-.222M1071.62 659.396l.5.322M1072.62 660.112l.49.455M1077.67 659.549l-.03.175v.002l-.11.084-.21-.012-.17-.064-.12-.044-.36-.2-.41-.284-.13-.099-.33-.258-.47-.417-.48-.461-.47-.485-.43-.493-.39-.481-.32-.45-.24-.402-.16-.339-.07-.263.03-.175v-.001l.12-.082M1076.77 657.953l.11.142.32.45M1075.5 663.499l1.1-1.938 1.05-1.835M1075.06 663.598l.28.016.16-.115M1073.78 655.123l.41.284M1078.44 657.438l-.03.003-.13-.091-.22-.179-.29-.262-.36-.334-.41-.394-.45-.438-.47-.465-.47-.475-.45-.466-.42-.439-.37-.396-.31-.336-.23-.265-.15-.183-.05-.093.04-.002.12.092.22.18.29.262.36.334.41.393.45.437.47.464.47.474.45.465.42.438.37.396.31.336.23.266.15.183.05.094v.001Zm0 0-.93 1.649M1073.63 652.625l-.45.251-.52.287-2.01 1.121"/><path d="m1073.18 652.875-.15-.11-.3-.191-.23-.103-.13-.012-2.2 1.246M1104.7 896.018l.04.086.08.132.13.176.18.211.2.239.23.254M1119.63 887.912l-.44 1.693-.07.268.01.292.07.307.13.31.2.299.24.279.28.247.32.205.33.157.34.102.33.042.31-.018.27-.079.24-.135 1.5-.892"/><path d="m1123.69 890.99.25-.254.17-.313.08-.362-.01-.396-.09-.415-.18-.419-.26-.406M1119.18 889.605l.13-.232.18-.187.16-.094.08-.042.27-.078.31-.019.33.043.34.101.34.157.31.205.28.247.24.279.2.3.13.31.07.307.01.293-.03.102-.03.165-.13.232-.18.187M1105.21 895.121l-.49.862-.02.034M1106.18 895.666l-.04.079v.002l-.51.951-.15.275.03.062.05.077v.004l.02.03.13.154.16.193.21.223.23.245.26.258.26.261.27.254.25.237.24.211.21.176.17.136.13.09.08.04.02-.011 1.02-.592"/><path d="m1105.48 896.973.03-.011.08.04.13.089.17.136.21.177.24.211.25.237.27.254.26.261.26.259.03.038.01.001.19.206.21.224.16.192.13.154.07.111.02.061M1107.97 895.63l-.08.145-.15.315-.02.03-.07.146v.002l-.08.17-.12.237v.002l-.06.118-.02.107.04.152.09.19.14.223.18.246.22.26.22.228v.001l.03.034.27.257.28.241.28.216.1.071.17.111.24.142.21.095.17.046.12-.006 1.33-.798.7-.419"/><path d="m1107.39 896.794.07-.057.13-.007.17.046.21.095.24.141.27.183.27.215.28.242.09.079v.001l.18.178.26.263.22.26.14.186.04.061.14.222.09.191.04.151-.02.107-.08.057M1112.16 898.192l.1-.078.03-.145-.02-.073"/><path d="m1111.3 893.375-.91 2.068-.04.098-.02.052v.193l.06.227.11.252.17.268.21.274.25.269.27.254.3.228.29.195.28.144.02.01.27.107.25.055.21.002.16-.052 1.9-1.159"/><path d="m1110.39 895.443.11-.104.17-.052.21.002.25.055.27.107.3.153.29.195.3.229.27.254.25.269.21.275.17.268.11.253.06.226v.193l-.06.15-.12.103M1115.08 896.86l.16-.14.07-.204.01-.26-.08-.307-.16-.342-.22-.363M1115 891.262l-.69 1.877-.03.232.03.261.09.281.15.289.2.287.24.274.28.251.3.216.32.175.32.127.3.073.28.017.25-.04.2-.095 1.72-1.05M1118.96 894.436l.21-.199.13-.261.04-.313-.04-.354-.12-.38-.2-.392-.27-.389"/><path d="m1114.31 893.139.09-.193.15-.147.21-.095.24-.04.28.016.03.006.28.067.32.127.31.175.31.217.28.25.24.274.2.288.15.29.02.069.07.212.03.261-.03.232-.1.192-.15.147M1124.88 884.033l-.15 1.363-.02.321.06.33.12.326.19.311.24.282.28.244.32.196.35.141.35.079.35.015.34-.049.3-.112 1.16-.63M1128.77 886.851l.35-.231.29-.301.2-.36.11-.404.02-.434-.07-.446-.17-.442-.25-.42-.32-.383"/><path d="m1124.73 885.396.08-.299.12-.206.03-.06.21-.223.26-.171.3-.112.33-.049.36.015.35.079.34.14.33.196.28.244.24.283.19.311.12.327.06.33-.02.321-.08.299-.12.218-.03.048-.21.222-.26.171M1130.79 879.918l.14.852.11.341.18.319.24.286.29.242.33.188.35.127.37.061.36-.007.35-.076.77-.33M1134.28 881.92l.43-.19.38-.27.26-.29.05-.05.22-.398.14-.44.03-.464-.05-.472-.16-.461-.24-.433-.32-.387"/><path d="m1130.93 880.769-.04-.349.01-.164.01-.18.1-.325.17-.294.23-.252.28-.2.32-.14.35-.076.36-.007.23.038.14.023.35.127.33.188.29.242.24.286.18.319.11.341.01.092.04.258-.03.343-.1.325-.17.295-.23.251-.09.065-.19.135-.32.14M1138.14 875.887l.16.124.33.182.36.117.38.047.2-.003"/><path d="m1139.57 876.354.51-.033.48-.128.45-.218.39-.3.32-.37.24-.427.15-.466v-.019l.05-.469-.05-.491-.15-.476-.24-.441-.32-.39"/><path d="m1138.31 876.011-.12-.097-.17-.142-.24-.289-.18-.326-.11-.352-.04-.363.04-.361.11-.345.17-.315.24-.274.29-.222.33-.162.36-.095.37-.024.38.047.35.117.34.182.29.239.23.289.18.326.11.352.04.363-.04.361-.11.345-.17.316-.24.274-.29.222-.33.161-.36.095-.22.014-.15.01M1144.58 869.753l.45.24.49.149.5.052.51-.048.49-.145.44-.236.4-.319.32-.39.24-.445.15-.483.05-.503-.05-.504-.14-.484-.24-.447-.33-.392"/><path d="m1145.38 869.738-.33-.178-.29-.238-.24-.291-.17-.33-.11-.359-.04-.372.04-.372.11-.358.18-.329.24-.288.29-.236.33-.175.36-.107.38-.036.37.039.36.11.33.177.29.239.24.29.18.331.1.358.04.372-.04.373-.11.357-.17.329-.24.289-.29.236-.34.175-.36.107-.37.035-.38-.038-.36-.11ZM1183.28 823.586l-.04-.075-.1-.123-.14-.167-.18-.204-.21-.233-.24-.253-.25-.263-.27-.264-.25-.254-.25-.235-.22-.206-.19-.17-.15-.127-.1-.079-.06-.028-.1.054-.36.2-.85.469"/><path d="m1183.12 823.505-.15-.127-.19-.17M1181.3 821.731l-.21-.233-.15-.163-.03-.041M1180.62 820.929l.01-.023M1183.21 825.426v-.121l-.05-.166-.1-.207-.14-.239-.14-.193-.05-.069-.22-.275-.24-.277-.26-.269-.1-.098-.16-.153-.26-.222-.24-.186-.22-.142-.19-.093-.14-.04-.1.014-.53.269-.01.003-.34.176-.1.052-.14.07-.01.006-.01.001-.39.2"/><path d="m1182.4 825.153-.13-.106-.26-.223M1182.91 825.467l-.18-.092-.22-.142M1183.21 825.425v.001M1181.75 824.574l-.26-.27v-.001l-.24-.277-.22-.275-.19-.262-.14-.239M1180.54 822.757l.05-.065v-.003M1181.98 828.371v-.003l.04-.162-.01-.207-.06-.244-.07-.181v-.002l-.04-.089-.15-.289-.2-.296-.23-.29-.26-.275-.26-.247-.28-.211-.26-.167-.25-.116-.22-.061-.19-.003-.14.054-.04.016v.001l-2.02.923"/><path d="m1181.55 828.532-.22-.061-.25-.116-.26-.166-.28-.212-.26-.248-.26-.274-.23-.291-.2-.296-.15-.289-.12-.273M1179.26 826.062l-.01-.207.05-.161.07-.082v-.001l.02-.024.01-.004M1181.98 828.369v.002l-.1.109-.14.055M1178.56 834.092l1.05-1.752.09-.2.03-.244-.02-.279-.08-.302-.13-.314-.18-.315-.21-.302-.26-.279-.27-.244-.28-.201-.29-.15-.28-.092-.25-.032-.23.031-1.87.721"/><path d="m1178.24 832.337-.29-.201-.27-.245-.25-.279M1179.28 832.58l-.23.031M1179.61 832.34v.002M1176.93 829.656l.14-.148.16-.078.02-.013M1175.27 838.761l.9-1.539.13-.233.07-.276.01-.308-.05-.329-.1-.336-.16-.33-.21-.313-.24-.283-.28-.242-.3-.192-.31-.134-.3-.072-.29-.007-.26.06-1.7.484"/><path d="m1175.5 837.586-.29-.007-.3-.071-.31-.135-.29-.192-.28-.242-.25-.283-.21-.313-.16-.331-.1-.337-.05-.328.01-.308M1175.76 837.526l-.21.049M1173.35 834.764v-.012l.01-.005.12-.216.18-.182.21-.115.01-.007M1176.17 837.222v.002l-.18.18M1171.28 843.808l.64-1.199.11-.302.04-.332-.02-.35-.08-.353-.14-.344-.2-.321-.24-.287-.29-.24-.3-.184-.33-.123-.32-.055-.32.014-1.38.187M1170.02 843.146l-.31-.185M1170.99 843.309l-.32.014"/><path d="m1171.54 843.076-.08.049-.01.002-.17.098M1168.79 840.733l.11-.302M1169.06 840.17l.21-.199v-.005l.01-.004.26-.148.26-.074.03-.009M1171.92 842.608l-.01.015-.15.245M1171.05 844.162v-.002l.23-.352M1168.77 841.414l-.02-.35M1169.19 842.433l-.2-.321M1166.91 848.131v-.34l-.06-.366-.13-.354-.19-.327-.24-.289-.29-.238-.32-.18-.33-.114-.35-.043-.35-.041M1154.52 862.027l-.11.23-.24.294-.28.242-.33.18-.35.113-.37.039-.37-.034-.36-.108-.33-.175-.28-.238-.24-.291-.18-.332-.11-.361-.04-.376.03-.377.1-.363.17-.334.23-.294.26-.217M1154.25 862.969l.01-.003.31-.397.18-.35"/><path d="m1150.63 862.997.39.322.45.238.48.145.5.047.5-.054.48-.152.44-.244.38-.327v-.003"/><path d="m1154.17 862.557-.28.242-.33.18-.35.113-.37.039-.37-.034-.36-.108-.33-.176-.29-.237-.24-.291-.18-.332-.11-.362-.04-.376.03-.376.11-.363.17-.334.23-.294M1166.84 847.431l-.13-.354-.19-.328-.24-.288-.28-.239-.32-.179-.34-.114M1167.91 843.965l.38.325.42.25.43.165.44.075.43-.02.4-.112.35-.201.29-.282v-.003M1171.76 842.874l-.22.209-.08.046-.01.002-.17.1-.29.083-.32.014-.33-.055-.32-.122-.31-.185-.28-.24-.24-.286-.2-.322-.14-.344-.09-.354-.02-.35.05-.332.1-.302.17-.26M1172.05 841.63l-.09-.354M1170.79 839.901l-.32-.122-.33-.056M1171.62 840.612l-.24-.286-.28-.24M1172.37 838.385l.38.328.4.26.41.181.41.097.39.008.36-.081.3-.166.25-.246M1176.17 837.223l-.01.003-.18.182-.22.123-.21.048-.01.001-.04.01-.29-.006-.3-.072-.31-.134-.3-.192-.28-.242-.24-.283-.21-.314-.16-.331-.11-.336-.04-.328.01-.309.07-.276.01-.016.01-.005.11-.212M1176.23 835.745l-.16-.331-.21-.313-.24-.282-.28-.242-.3-.192-.31-.135M1176.37 836.716l.01-.308"/><path d="M1175.27 838.766v-.003l.01-.025.88-1.511M1174.14 834.172l-.26.059M1176.32 833.821l.38.272.39.202.37.124.35.043.31-.042.25-.124.19-.201M1179.61 832.341v.002l-.14.149-.19.091-.22.031-.26-.032-.28-.092-.02-.013-.01-.003-.25-.133-.29-.201-.27-.245-.25-.279-.22-.303-.18-.315-.13-.314-.04-.162v-.007l-.04-.134-.02-.278.03-.244.09-.2M1179.63 831.319l-.13-.314-.18-.315-.22-.302-.25-.279-.27-.245-.29-.2-.28-.15-.28-.092"/><path d="M1178.56 834.096v-.006l1.05-1.746M1178.88 829.766l.37.285.36.226.34.157.3.081.25.004.19-.075.13-.15M1182.01 828.002l.01.207-.04.161-.01.001v.001l-.09.11-.15.055-.18-.003-.22-.061-.25-.116-.27-.166-.27-.212-.27-.247-.25-.275-.23-.291-.2-.296-.16-.289-.11-.273-.06-.244-.01-.207.05-.161.07-.084v-.002l.03-.025.14-.054M1181.88 827.575v-.002l-.04-.086-.16-.289-.19-.296-.23-.29-.26-.275-.27-.247-.27-.211-.26-.167-.25-.116M1180.82 830.293l1.15-1.922M1182.78 824.501l.13.194.15.239.1.207.05.166v.124l-.05.065-.1.014-.15-.039-.18-.093-.22-.142-.1-.079-.01-.001-.13-.106-.26-.223-.27-.251-.25-.27-.01-.001-.24-.276-.21-.276-.19-.262-.15-.239-.1-.206-.05-.166v-.12l.05-.068.11-.014.14.04.19.093.22.142"/><path d="m1182.01 827.473.29-.502.91-1.544M1181.88 827.575l.06-.009.07-.093M1181.85 822.005l.26.264.26.263.24.253.21.233.18.204.14.167.1.123.04.074v.025l-.06-.027-.11-.079-.14-.127-.19-.17-.22-.206-.25-.235-.25-.255-.1-.096-.17-.168-.25-.264-.24-.253-.21-.233-.15-.167-.04-.037-.14-.166-.09-.123-.05-.075.01-.024.06.028.1.079.15.127.19.17.22.206.25.235M1180.53 820.96l-.11-.102-.24-.204-.22-.167-.18-.126-.13-.079-.09-.029-.04.021-.73.421M622.055 446.108l.04.036.34.29.299.238.247.178.109.065M630.678 421.263l-1.194 2.09-.115.394-.029.441.058.47.145.482.224.475.295.449.355.407.401.349.432.278.447.196.443.106.424.012.387-.082"/><path d="m629.484 423.353.197-.333.273-.258.336-.174.212-.045.176-.037.424.011.444.106.447.196.432.277.402.35.356.408.295.45.224.475.144.483.058.47-.029.441-.116.394-.024.039-.174.293-.273.258-.337.173M619.054 440.847l-.835 1.443.054.105.125.174.192.237.25.29.3.332.337.361.362.377.373.378.37.365.352.337.321.297.278.246.224.184.161.116.093.044.043-.024.45-.242"/><path d="m618.219 442.29.019-.032.092.043.161.115.223.184.278.246.322.297.143.137.003.003.207.198.37.365.374.379.363.378.338.362.299.332.251.29.191.236.124.174.039.077.002.003.013.024-.02.032M620.355 436.81l-1.499 2.518-.24.402-.011.168.062.236.133.294.201.34.054.079.205.295.307.394.345.397.162.169.002.002.204.215.379.361.13.111.243.209.354.269.321.206.276.136.221.061.156-.018.221-.11.003-.002"/><path d="m618.617 439.729.086-.096.156-.018.187.051.033.009.276.136.22.14.102.066.354.269.374.321.322.307.002.001.055.053.369.387.346.398.308.394.259.374.194.332.005.009h.001l.133.293.035.135.003.012.023.089-.012.168-.087.094M622.352 432.835l-1.654 2.748-.077.229v.295l.076.348.088.227.063.162.218.413.278.424.328.416.364.394.386.356.394.305.386.242.365.169.212.058.002.001h.002l.112.031.28.008.136-.047.083-.028.126-.057.003-.001"/><path d="m620.695 435.583.151-.155.22-.076.279.007.328.09.365.169.387.242.395.305.387.356.364.395.328.417.279.424.218.415.15.388.076.348-.001.294-.078.229-.079.081-.002.002-.071.072M625.913 427.45l-1.494 2.509-.14.284-.06.348.021.398.103.432.18.45.25.451.311.434.359.401.394.353.414.29.418.217.405.135.378.049.336-.041"/><path d="m624.418 429.96.214-.211.28-.128.336-.041.378.048.302.101.104.034.418.217.415.291.395.352.36.402.311.435.25.452.179.45.073.307.03.126.021.398-.061.347-.141.284-.214.21-.281.127M636.966 413.625l-.881 1.721-.164.432-.073.475.02.501.112.508.201.494.282.462.351.412.408.347.448.267.471.179.477.082.464-.017"/><path d="m636.086 415.346.248-.372.323-.296.018-.01.368-.201.433-.116.464-.018.477.082.473.178.448.268.408.347.352.413.281.462.201.495.113.508.02.501-.074.476-.165.432-.249.371-.323.295-.386.211-.433.116M644.125 405.779l-.444 1.153-.11.501-.012.524.086.526.182.508.271.472.348.416.412.344.462.261.492.165.504.065"/><path d="m643.68 406.933.204-.459.125-.173.165-.226.365-.325.426-.237.47-.141.498-.039.504.065.493.166.461.26.413.345.349.416.27.472.182.509.086.526-.012.524-.11.501-.204.459-.291.399-.365.324-.426.237-.471.141-.149.011-.348.027M652.221 398.551l.003-.054.032-.483.137-.516.235-.475.322-.416.396-.341.456-.252.498-.155.523-.051.524.055.508.158.471.256.416.344.347.418.262.477.167.517.068.537-.037.537-.138.516-.234.475-.322.416-.396.34-.456.253-.498.155-.523.051-.524-.055-.507-.159-.472-.256-.417-.344-.234-.285-.111-.133-.261-.476-.169-.517-.066-.537Zm0 0-.033-.348M663.287 391.394l-.477-.255-.418-.344-.344-.419-.257-.478-.158-.519-.055-.54.051-.54.154-.519.253-.479.341-.42.416-.345.475-.256.516-.158.537-.054.538.053.517.156.477.256.419.343.344.419.256.478.159.519.055.54-.051.54-.155.52-.253.478-.341.42-.416.345-.475.256-.516.158-.537.054-.538-.052-.517-.157ZM730.487 339.025l.155-.282.13-.235-.05-.085-.122-.154-.189-.218-.25-.272-.299-.317-.339-.349-.364-.368-.377-.373-.374-.363-.357-.34-.326-.304-.284-.255-.23-.198-.166-.132-.098-.062v.001l-.025.011"/><path d="m730.772 338.507-.002.001-.022.011-.001-.001-.096-.06-.166-.131-.229-.198-.284-.255-.327-.304-.357-.34-.375-.365-.377-.373-.365-.369-.339-.35-.3-.317-.25-.272-.189-.217-.121-.154-.05-.084M728.031 339.509l.441-.856.012-.148-.067-.213-.141-.269-.21-.316-.05-.064-.221-.285-.321-.37-.36-.376-.117-.112-.268-.256-.395-.346-.389-.311-.239-.172-.002-.001-.128-.091-.334-.206-.288-.141-.228-.07-.163.004-.001.001"/><path d="m728.474 338.653-.005.003-.083.074h-.002l-.16.005-.228-.07-.287-.14-.335-.206-.369-.263-.39-.312-.395-.346-.322-.309-.063-.06-.361-.377-.322-.371-.271-.35-.024-.035-.001-.001-.022-.033-.163-.246-.141-.269-.065-.213.012-.147.087-.076.001-.001M723.96 341.767l.551-1.179.009-.019.001-.002.049-.104.069-.211-.003-.066-.009-.205-.095-.321-.172-.358-.244-.381-.305-.391-.356-.384-.393-.364-.414-.329-.419-.282-.41-.224-.325-.133-.003-.001-.055-.022-.342-.085-.288-.008-.224.069-.004.002"/><path d="m724.571 340.464-.006.005-.075.073-.002.001-.026.025-.04.039h-.002l-.221.069-.288-.008-.097-.023-.245-.06-.383-.157-.41-.223-.421-.282-.414-.33-.393-.364-.357-.385-.306-.392-.244-.382-.172-.358-.094-.321-.012-.271.071-.21.147-.141.002-.001M719.283 343.633l.036-.327-.051-.371-.138-.399-.219-.412-.291-.411-.352-.392-.399-.359-.432-.313-.448-.254-.446-.185-.428-.109-.393-.03-.343.052-.28.131-2.548 1.493"/><path d="m719.281 343.634-.034.074-.09.197-.204.206-.003.001-.276.13-.343.052-.393-.028-.294-.075-.009-.003-.125-.032-.447-.184-.448-.254-.433-.313-.401-.36-.352-.393-.291-.411-.193-.363-.004-.008-.022-.042-.138-.4-.051-.37.038-.327.123-.272.203-.202.002-.002M712.564 348.563l.079-.379-.014-.416-.108-.437-.197-.442-.278-.428-.349-.4-.406-.355-.447-.297-.473-.228-.479-.149-.467-.066-.437.021-.39.107-2.137 1.207"/><path d="m712.562 348.563-.012.024-.158.304-.254.263-.003.003-.325.187-.04.011-.007.002-.343.094-.438.022-.467-.065-.48-.149-.473-.228-.448-.297-.407-.356-.349-.4-.278-.43-.197-.442-.107-.437-.014-.417.019-.09.001-.006.059-.283.171-.327.252-.26.003-.003.163-.094.166-.095M704.796 354.476l.015-.457-.083-.471-.178-.467-.268-.445-.346-.406-.411-.352-.461-.283-.493-.205-.506-.117-.499-.027-.473.066-.43.156-1.772.905"/><path d="m704.797 354.477-.017.06-.098.365-.208.377-.06.064-.007.008-.227.243-.004.002-.365.238-.429.157-.474.066-.499-.026-.507-.117-.493-.205-.461-.284-.412-.351-.347-.407-.268-.446-.178-.467-.083-.471.017-.458.114-.425.166-.299.003-.005.04-.073.292-.311.003-.003.352-.229.017-.011M696.058 361.504l-.064-.499-.166-.488-.26-.459-.344-.411-.416-.349-.47-.272-.508-.185-.525-.091-.523.006-.501.103-1.207.481"/><path d="m696.06 361.503-.004.053-.034.438-.005.018-.005.016-.13.429-.237.419-.324.357-.004.003-.395.28-.458.197-.501.104-.523.006-.526-.091-.508-.185-.471-.272-.416-.349-.345-.411-.26-.459-.165-.489-.065-.499.039-.491.141-.464.237-.418.321-.354.003-.004.13-.092.011-.007.258-.183.33-.142.129-.055M685.841 368.077l.155.188.048.058.039.047.101.123.255.468.158.505.054.52-.052.516-.156.493-.254.45-.343.39-.004.004-.413.312-.476.228-.517.132-.538.031-.538-.071-.517-.17-.477-.264-.419-.346-.343-.416-.256-.469-.157-.504-.054-.521.053-.517.156-.492.254-.45.339-.386.004-.004.417-.315.477-.228.516-.132.134-.007.028-.002.019-.001.357-.021.538.071.517.171.477.263.418.346ZM683.891 367.226l-.399.015M676.426 377.669l.254.476.156.514.05.534-.056.534-.161.511-.26.47-.348.412-.005.003-.418.333-.482.248-.522.15-.542.047-.542-.058-.521-.16-.479-.258-.419-.345-.343-.418-.255-.475-.155-.515-.05-.534.056-.534.162-.511.259-.47.344-.407.004-.005.423-.335.482-.248.522-.151.543-.047.542.058.52.161.479.258.419.344.343.418Z"/><path d="m673.022 381.69-.479-.258-.42-.344-.343-.418-.254-.476-.155-.515-.051-.534.057-.533.161-.512.26-.47.348-.411.004-.004.419-.332.482-.248.522-.15.542-.047.542.058.52.16.479.258.42.344.343.418.254.476.155.515.05.534-.056.533-.161.511-.259.471-.345.406-.003.005-.423.336-.482.248-.522.15-.543.048-.542-.058-.52-.161ZM685.842 371.839l-.004.004-.417.315-.476.228-.517.133-.538.031-.538-.071-.518-.171-.477-.263-.418-.346-.344-.416-.255-.469-.158-.505-.053-.52.052-.517.157-.493.254-.45.342-.389.005-.004M684.938 367.476l.476.263.417.346.166.199.039.047.14.169.255.469M686.642 369.993l-.052.516-.156.493-.254.45M682.352 367.624l.476-.228.517-.132.18-.01.047-.003.311-.018M695.874 362.465l-.237.419-.32.353-.004.004-.399.283-.458.197-.501.104-.523.007-.526-.092-.508-.185-.471-.272-.416-.348-.345-.412-.26-.459-.165-.489-.065-.499.039-.491.141-.464.237-.418.324-.358.005-.003M695.82 360.523l.166.488.064.499M691.555 359.245l.011-.008.247-.175.459-.197M694.801 359.306l.416.348.344.411M701.401 355.715l-.462-.283-.412-.352-.346-.407-.268-.445-.179-.468-.082-.471.016-.457.115-.426.169-.304.003-.006.037-.067.294-.314.005-.003.365-.237.429-.156.474-.066.499.027.506.118.492.204.461.283.412.352.346.406.267.445.179.467.083.471-.016.457-.114.425-.208.377-.053.057-.007.007-.231.247-.003.004-.369.24-.43.157-.473.066-.5-.026-.506-.117-.493-.205ZM712.619 347.773l.015.416-.079.379-.17.328-.251.261-.003.002-.329.19-.032.009-.007.002-.351.096-.437.022-.468-.065-.479-.149-.473-.228-.449-.297-.406-.356-.35-.4-.278-.43-.196-.442-.108-.437-.014-.417.02-.096.002-.005.058-.278.17-.327.255-.263.004-.002.325-.187.391-.107.437-.021M712.316 346.894l.196.442M710.836 345.414l.448.297.406.355.349.4M719.155 343.908l-.203.203-.002.003-.279.131-.343.052-.393-.029-.283-.072-.01-.002-.135-.035-.447-.185-.448-.254-.433-.312-.4-.36-.353-.393-.291-.411-.196-.371-.004-.008-.019-.035-.137-.399-.052-.371.037-.327.124-.271.206-.205.003-.001.276-.129.343-.052M716.535 340.215l.447.185.447.254.432.312.4.36.352.392.291.41.218.413.138.399M719.313 343.31l-.036.328M715.094 340.258l-2.539 1.487M724.636 340.254l-.069.211-.078.075-.002.002-.026.025-.041.039-.002.002-.223.069-.288-.007-.096-.024-.246-.06-.384-.156-.409-.224-.421-.282-.414-.329-.394-.365-.356-.385-.306-.391-.244-.382-.172-.359-.094-.32-.012-.271.07-.211.15-.142.002-.001.221-.067.289.008.342.084.059.024.002.001.322.132M723.805 338.532l.305.391.244.382.172.358.094.32.01.205M720.578 336.77l-2.781 1.641M722.645 337.456l.414.329.393.364M727.793 337.359l.218.281.053.068.21.316.141.269.066.212-.011.148-.087.077-.001.001-.161.005-.229-.07-.287-.14-.335-.206-.369-.264-.39-.311-.395-.347-.322-.308-.063-.061-.361-.377-.322-.37-.271-.35-.024-.035v-.001l-.025-.037-.161-.242-.14-.269-.066-.213.012-.147.086-.075.003-.002M724.561 334.911l-.7.407-2.244 1.308M724.723 334.907l.229.07.287.141.335.206.128.092.24.172.39.31M730.768 338.507l-.024.012-.097-.061-.166-.131-.23-.197-.283-.256-.327-.304-.358-.34-.374-.364-.378-.374-.365-.368-.339-.35-.3-.317-.249-.273-.189-.217-.122-.154-.048-.083-.001-.001.025-.011.001.001M727.723 335.364l.327.303.357.34.374.364.376.373.365.368.339.349M730.598 338.268l.122.154M727.043 334.778l.167.132M726.921 334.729l-1.214.686M731.167 339.405l-.015-.023-.232-.303-.279-.337M633.344 466.239l.33.281.322.254.265.189.2.115.125.039v-.001l.005-.002 1.127-.636M642.863 439.699l-1.281 2.284-.127.425-.033.475.062.507.156.521.241.513.32.486.384.441.432.376.003.003.451.29.018.012.485.213.482.117.46.015.422-.086 2.259-.67"/><path d="m641.582 441.983.216-.358.296-.277.367-.185.211-.044.21-.044.461.015.483.117.485.213.469.302.436.379.385.441.32.488.242.514.154.521.062.507-.033.476-.128.424-.009.015-.207.342-.298.277-.366.185M634.59 467.118l1.131-.639M630.062 460.574l-.898 1.553.056.11.134.184.205.253.269.31.323.357.363.389.392.407.403.408.401.395.381.367.349.323.302.268.244.203.177.13.102.051.078-.043.493-.266.001-.001 1.129-.611"/><path d="m629.164 462.128.023-.03.102.05.176.129.244.203.302.268.349.324.114.109.005.004.264.254.401.396.404.409.392.408.365.389.323.357.268.311.205.252.128.177.004.005.001.002.055.108-.024.03M631.529 456.293l-.889 1.501-.36.608-.628 1.06-.015.179.065.251.143.315.215.365.002.003.276.4.332.423.373.429.043.046.001.001.355.371.409.39.405.349.384.292.35.226.3.151.241.069.172-.015.111-.056.158-.08.003-.002.955-.483.102-.052.002-.001.272-.138.003-.001.059-.03"/><path d="m629.652 459.462.095-.099.17-.016.241.069.301.15.135.087.214.139.385.293.406.348.137.131.046.044.001.002.226.215.4.418.373.43.332.424.279.403.031.053.006.01.178.303.142.314.029.114.003.012.032.125-.016.178-.007.008-.088.09M633.747 452.082l-.74 1.239-1.044 1.75-.086.245-.002.315.036.17.045.204.064.167.097.251.235.446.051.077.25.379.354.45.393.427.419.386.427.331.42.263.263.124.002.001.113.052.004.002.014.007.357.101.305.011.161-.052.079-.025.481-.221.003-.001 2.322-1.065"/><path d="m631.961 455.071.166-.164.24-.079.304.011.357.101.397.185.144.09.276.173.428.332.065.059.355.328.394.427.355.451.3.457.235.447.161.418.081.373-.004.315-.021.061-.001.003-.064.18-.167.164M637.654 446.335l-1.609 2.734-.154.305-.067.374.022.428.109.466.004.008.19.477.091.164.179.323.336.47.389.434.366.327.061.055.449.315.201.105.253.132.44.149.411.055.366-.041 2.89-1.134"/><path d="m636.047 449.069.234-.225.305-.135.366-.042.411.055.316.106.125.042.454.237.45.316.428.382.39.435.336.471.247.445.023.042.193.486.023.095.046.199.041.172.021.428-.068.374-.154.304-.235.224-.306.135M649.72 431.479l-.94 1.887-.179.467-.081.513.021.542.121.549.217.534.305.501.38.446.442.376.486.291.512.194.518.09.504-.016 1.175-.177"/><path d="m648.781 433.366.27-.4.341-.31.011-.01.42-.226.471-.124.504-.018.518.091.513.194.487.291.442.376.381.447.305.501.217.535.121.55.02.541-.081.514-.18.466-.271.4-.326.296-.026.023-.42.226-.471.124M657.508 423.018l-.464 1.274-.12.541-.014.567.094.569.196.551.293.51.377.451.448.374.5.283.534.18.548.071 1.466.166"/><path d="m657.047 424.291.223-.497.098-.135.217-.297.397-.35.463-.256.512-.152.54-.04.547.071.535.18.501.283.448.374.377.451.293.511.197.551.093.57-.014.567-.121.542-.223.496-.316.431-.397.351-.463.255-.511.151-.113.008-.427.032M666.404 415.812l-.02-.165-.052-.417.039-.581.15-.559.254-.514.136-.175v-.001l.006-.007.027-.035.18-.232.431-.369.495-.274.542-.167.289-.028.277-.027.548.058h.002l.02.002.551.172.511.278.452.373.375.454.283.517.182.56.072.582-.039.582-.15.558-.255.515-.349.45-.431.368-.496.274-.541.167-.566.054-.57-.06-.55-.172-.511-.278-.452-.373-.276-.334-.099-.119-.283-.517-.182-.56Zm0 0-.03-.196M666.867 416.889l.133.181M678.342 407.484l-.518-.277-.454-.373-.373-.454-.278-.519-.172-.562-.029-.289v-.007l-.03-.29.015-.157.04-.428.168-.563.275-.519.369-.455.452-.374.515-.278.239-.073.321-.098.569-.057.007-.001.007-.001.582.057.561.171.518.276.454.373.373.454.278.519.172.563.059.585-.055.586-.168.563-.274.519-.37.455-.452.373-.515.278-.56.172-.582.058-.583-.057-.561-.17ZM749.949 351.51l.485-.878.311-.563.16-.288-.058-.094-.136-.169-.208-.237-.273-.296-.326-.344-.368-.378-.394-.398-.407-.404-.403-.392-.385-.367-.351-.327-.303-.275-.245-.211-.176-.141-.102-.064"/><path d="m750.907 349.781-.003.002-.019.014-.001-.001-.099-.063-.176-.14-.245-.211-.303-.274-.351-.328-.385-.367-.404-.393-.408-.404-.395-.4-.369-.379-.326-.344-.273-.296-.207-.237-.136-.168-.057-.093.022-.015M747.574 351.839l.043-.083.114-.219.299-.577.287-.553.212-.408.008-.162-.076-.233-.155-.293-.23-.343-.295-.379-.35-.401-.39-.407-.263-.253-.152-.146-.426-.374-.419-.335-.336-.24-.001-.001-.06-.043-.359-.221-.307-.15-.244-.074-.171.006-.002.001"/><path d="m748.526 349.999-.005.005-.086.082h-.002l-.168.007-.244-.073-.307-.15-.359-.221-.397-.284-.42-.335-.427-.375-.416-.399-.094-.098-.297-.311-.35-.402-.296-.379-.092-.138-.001-.001-.136-.204-.155-.293-.075-.232.009-.162.091-.085.001-.001M743.606 353.709l.739-1.563.001-.003.017-.035.042-.089.071-.231-.017-.295-.052-.173-.053-.176-.189-.39-.266-.414-.332-.423-.386-.417-.424-.393-.447-.356-.453-.304-.19-.104-.251-.137-.412-.168-.027-.007h-.003l-.337-.082-.264-.006-.044-.001-.238.077-.005.002"/><path d="m744.404 352.02-.006.006-.066.066-.024.023-.002.002-.059.06h-.003l-.235.077-.308-.006-.367-.089-.219-.089-.193-.078-.441-.241-.454-.304-.448-.356-.425-.395-.386-.417-.159-.202-.174-.222-.266-.415-.188-.388-.001-.002-.104-.349-.017-.295.073-.23.156-.155.002-.001M737.591 358.401l1.182-2.894.036-.356-.059-.403-.152-.434-.238-.448-.05-.07-.266-.375-.3-.334-.082-.091-.432-.389-.467-.338-.483-.273-.098-.041-.384-.159-.353-.089-.107-.028-.423-.03-.368.058-.3.144-2.774 1.608"/><path d="m738.771 355.508-.06.137-.07.159-.218.225-.004.002-.295.143-.368.058-.422-.029-.35-.088-.011-.003-.1-.026-.191-.078-.291-.121-.298-.168-.186-.105-.468-.339-.434-.389-.382-.426-.316-.446-.216-.407-.005-.008-.018-.034-.151-.434-.058-.403.037-.356.13-.296.217-.222.002-.002M731.056 362.559l.522-1.657.083-.412-.019-.453-.118-.475-.215-.479-.167-.257-.135-.208-.206-.237-.172-.196-.44-.385-.484-.321-.511-.246-.516-.161-.504-.069-.471.024-.421.118-2.333 1.296"/><path d="m731.579 360.902-.014.028-.167.329-.273.288-.003.002-.349.205-.073.02-.008.002-.34.096-.471.025-.504-.069-.517-.16-.512-.246-.485-.321-.44-.386-.379-.434-.302-.465-.215-.48-.118-.476-.018-.453.024-.116.001-.007.059-.289.182-.357.27-.284.003-.003.295-.172.058-.034M722.971 368.835l.133-.76.125-.719.016-.496-.091-.512-.196-.507-.29-.483-.375-.44-.447-.381-.498-.306-.533-.221-.547-.127-.539-.027-.51.073-.464.17-1.943.967"/><path d="m723.228 367.357-.02.077-.102.386-.223.41-.088.095-.008.009-.221.239-.004.003-.393.259-.463.171-.511.074-.54-.027-.547-.126-.534-.221-.499-.307-.446-.381-.376-.441-.291-.483-.195-.508-.091-.512.016-.497.122-.462.193-.355.004-.006.027-.05.314-.338.003-.004.381-.25.017-.012M713.92 376.522l-.106-1.509-.071-.541-.181-.53-.282-.498-.373-.446-.451-.377-.509-.295-.55-.2-.569-.098-.565.007-.541.114-1.331.503"/><path d="m713.812 375.013-.005.064-.035.47-.016.051-.005.018-.13.434-.254.455-.35.39-.005.003-.426.305-.495.215-.541.113-.566.008-.569-.097-.55-.201-.511-.294-.45-.378-.374-.447-.283-.498-.18-.53-.071-.542.041-.534.151-.504.255-.455.346-.384.004-.004.193-.138.012-.008.226-.162.413-.179.083-.035M702.77 382.172l.217.261.003.005.042.051.111.133.277.509.171.547.059.565-.055.56-.169.536-.274.489-.37.423-.005.004-.446.339-.515.248-.56.145-.582.034-.583-.076-.561-.185-.517-.285-.453-.375-.373-.451-.277-.509-.171-.548-.059-.565.056-.561.168-.535.275-.489.366-.419.004-.005.452-.342.515-.248.56-.144.235-.013.051-.003.168-.01.128-.008.582.077.56.184.517.285.453.376Zm0 0 .285.319M700.656 381.249l-.457-.003M692.587 392.593l.276.516.168.558.055.58-.061.578-.173.556-.282.51-.377.446-.005.005-.453.36-.521.27-.567.163-.588.052-.587-.063-.564-.174-.52-.279-.454-.374-.373-.453-.275-.516-.014-.045-.155-.514-.055-.579.061-.579.174-.555.281-.511.373-.441.004-.005.191-.152.268-.213.522-.269.567-.163.587-.052.587.063.564.174.519.28.455.373.372.453Z"/><path d="m693.079 394.255-.061.578-.174.556-.281.51-.373.442-.004.004-.458.365-.522.27-.566.163-.588.052-.587-.063-.565-.174-.519-.279-.455-.374-.372-.453-.276-.516-.013-.043-.155-.516-.012-.122-.043-.457.061-.579.174-.555.281-.511.154-.182.223-.264.005-.004.195-.155M688.406 391.744l.523-.27.566-.163.587-.052M691.75 391.775l.454.373.373.453M701.792 381.52l.517.285.453.375.178.215.042.051.152.184.278.509.171.547.059.565-.056.561-.168.535-.274.489-.366.419-.004.005-.451.343-.516.248-.559.144-.582.035-.583-.077-.561-.184-.517-.285-.453-.376-.373-.451-.277-.509-.172-.547-.058-.565.056-.561.168-.535.275-.489.37-.424.005-.004.447-.338.515-.248.56-.144.286-.017.051-.003.245-.014.582.076M713.012 376.899l-.004.004-.43.308-.496.215-.541.114-.566.008-.569-.098-.55-.2-.51-.294-.451-.378-.374-.447-.282-.498-.18-.53-.071-.543.04-.533.151-.504.256-.455.35-.389.004-.003M712.445 372.629l.45.378.373.446.283.498M713.734 374.479l.071.542-.04.533M713.614 376.059l-.255.455M710.254 372.044l.566-.007.568.098M722.562 368.575l-.003.004-.398.262-.463.171-.511.074-.54-.027-.547-.126-.534-.221-.499-.307-.446-.381-.376-.441-.291-.484-.195-.507-.091-.512.016-.497.122-.463.197-.36.003-.006.024-.044.317-.342.005-.003M723.144 366.355l.091.511-.015.497-.122.462-.223.411M718.746 364.106l.464-.17.511-.073.539.027M731.121 361.549l-.003.003-.353.207-.065.018-.008.003-.347.098-.472.025-.504-.069-.517-.16-.001-.001-.387-.186-.124-.059-.485-.323-.44-.384-.379-.435-.302-.465-.215-.48-.118-.475-.018-.453.025-.123.002-.006.057-.284.182-.356.273-.287.004-.003M731.516 359.567l.118.475.019.452-.083.413M727.695 357.033l.471-.025.504.07.517.16M738.634 355.808l-.216.223-.002.002-.299.145-.368.058-.422-.029-.339-.086-.011-.002-.111-.028-.189-.078-.293-.121-.296-.168-.188-.106-.468-.339-.433-.389-.383-.426-.136-.192-.18-.254-.127-.239-.094-.176-.004-.008-.014-.026-.151-.434-.058-.403.037-.356.13-.296.22-.224.003-.002.296-.142M738.742 354.753l.059.403-.036.356M734.239 351.855l-2.762 1.601M734.906 351.653l.423.031.11.028.351.088.385.16M737.223 352.611l.433.389M744.471 351.791l-.072.23-.068.069-.024.023-.002.002-.06.061-.003.002-.237.077-.307-.006-.367-.088-.216-.087-.198-.081-.44-.24-.454-.305-.447-.356-.427-.394-.386-.418-.156-.2-.175-.224-.266-.415-.187-.383-.002-.006-.105-.349-.017-.295.072-.231.159-.156.003-.001.234-.075.049.001.261.006M743.895 350.344l.266.414.189.389.053.176.052.173"/><path d="m740.087 348.021-.856.502-1.468.861-.693.406M741 348.042l.412.168.252.138.189.103.452.304M748.436 350.086l-.001.001-.17.007-.244-.073-.307-.15-.359-.221-.397-.284-.42-.335-.426-.375-.417-.399-.093-.098-.298-.311-.35-.401-.295-.38-.093-.138v-.001l-.137-.204-.155-.293-.075-.232.009-.162.09-.084.002-.002h.001M747.777 348.591l.295.379M744.298 345.951l-1.393.809-.696.404-1.104.641M748.531 349.839l-.008.162M744.469 345.945l.244.074M745.777 346.675l.419.335M750.882 349.796l-.101-.063-.176-.14-.244-.211-.303-.275-.351-.327-.385-.368-.405-.393-.407-.404-.396-.399-.368-.379-.327-.344-.272-.297-.208-.236-.135-.169-.058-.093.009-.005.014-.01.001.001M747.293 346.1l.303.275.351.326.384.367.403.393.407.403.395.398.368.379.326.343.272.297.208.237.136.168.058.095M746.768 345.683l-1.327.75M751.006 352.221l.538-.937-.03-.132-.108-.205-.181-.271-.247-.327-.232-.281M875.439 445.031l4.182-4.129-.193-2.469-3.519-2.686-4.428-5.097-7.637-4.903-8.274-5.615-.699-.474-8.255-5.644-1.839-1.258-8.281-5.606-2.6-1.76-8.601-5.101-3.176-1.884-8.08-5.891-2.602-1.897-7.418-6.707-1.728-1.562-7.832-6.218-.908-.72-7.428-5.871-4.117-4.558-.083-.092-.727-.805-3.755-2.362-.625-.394"/><path d="m777.441 361.723-2.71-1.916-5.102 4.971M776.815 361.329l-2.085-1.522M871.479 430.651l-7.868-6.172-4.541-3.562"/><path d="m863.843 425.748-4.772-4.831-4.927-4.989-5.305-5.027-6.197-5.431-6.843-5.619-7.216-5.582-7.296-5.318-7.084-4.84-6.585-4.168-5.826-3.333-8.544-5.195-8.544-5.196-3.509-2.134M965.243 809.462l-.763 9.971-.763 9.971-.763 9.971-.763 9.971-.575 7.513-.763 9.971-.763 9.971-.763 9.971-.763 9.971-.763 9.97-.763 9.971-.763 9.971-.763 9.971-.239 3.125 7.588 6.513 7.588 6.514 7.588 6.513 7.587 6.514 7.588 6.513 7.588 6.514 7.59 6.513 7.59 6.514 5.34 4.589 7.93 6.092 7.36 5.66 7.93 6.09 7.35 5.65 7.93 6.1 7.35 5.65 7.93 6.09 7.35 5.65 1.44.96 6.91-7.22 1.54-1.6-3.65-9.31-3.64-9.32-2.8-7.15-3.18-9.48-3.19-9.479-2.64-7.885-3.47-9.379-3.47-9.379-2.73-7.372-.76-9.971-.76-9.97-.77-9.971-.27-3.529 4.62-8.869 4.63-8.868 4.62-8.868 4.62-8.869 3.49-6.704-8.52-5.231-8.52-5.232-8.53-5.231-8.52-5.231-8.52-5.232-8.52-5.231-8.53-5.231-8.52-5.232-8.52-5.231-8.525-5.231-8.522-5.231-8.523-5.232-8.522-5.231-5.968-3.663-.987-.065Z"/><path d="m966.23 809.526-.762 9.971-.763 9.971-.762 9.971-.763 9.971-.589 7.695-.762 9.971-.763 9.971-.762 9.971-.763 9.971-.763 9.97-.762 9.971-.763 9.971-.763 9.971-.263 3.444M955.273 939.751l.954.566 7.588 6.514 7.588 6.513 7.587 6.514 7.588 6.513 7.588 6.514 7.584 6.513 7.59 6.514 7.59 6.513 5.6 4.808 7.93 6.097 7.42 5.7 7.92 6.09 7.42 5.7 7.93 6.09 7.41 5.7 7.93 6.09 7.4 5.69M1204.63 774.636l9.98.668 9.97.668 9.98.667.73.049 9.39 3.454 9.38 3.453 6.52 2.398 9.48 3.162 9.49 3.163 6.92 2.306 9.31 3.63 9.32 3.631 6.21 2.42 2.29.044 6.91-7.225 1.26-1.312-6.12-7.911-5.57-7.205-6.12-7.911-5.57-7.201-6.12-7.911-5.56-7.197-6.12-7.911-5.56-7.194-6.53-7.577-6.52-7.578-6.53-7.578-6.52-7.577-6.53-7.578-6.52-7.577-6.53-7.578-6.52-7.577-3.9-4.529-9.97.83-9.96.831-9.97.83-9.96.83-9.97.831-9.97.83-9.96.83-10.37.864-9.97.83-9.96.831-9.97.83-9.96.83-6.41.534-1.46.423 5.26 8.506 5.26 8.507 5.26 8.506 5.25 8.507 5.26 8.506 5.26 8.507 5.26 8.507 5.25 8.506 5.26 8.507 5.26 8.506 5.25 8.507 5.26 8.506 5.26 8.507 3.27 5.286 1.73.017 8.73-4.871 8.73-4.871 8.74-4.871 8.73-4.871 5.28-2.944Zm0 0 .31-.173"/><path d="m1092.53 680.753 5.26 8.507 5.26 8.506 5.25 8.507 5.26 8.506 5.26 8.506 5.26 8.507 5.25 8.506 5.26 8.507 5.26 8.506 5.26 8.507 5.25 8.506 5.26 8.507 5.26 8.506 3.54 5.727M1204.94 774.463l9.98.668 9.97.668 9.98.667 2.42.162 9.38 3.454 9.39 3.454 6.61 2.432 9.49 3.163 9.48 3.162 7.02 2.339 9.31 3.631 9.32 3.63 6.3 2.456M1824.21 116.37l-3.15-4.792-3.43-4.849-3.75-4.899-3.96-4.885-4.21-4.827-4.36-4.74-4.51-4.585-4.59-4.425-4.65-4.172-4.67-3.95-4.62-3.611-4.57-3.33-8.14-5.804-1.44-1.023M1617.77 461.376l3.18.017 10 .055 5.99.032 9.95-1.036 9.35-.974 9.02-1.23 9.78-2.084 9.84-2.097 9.51-3.099 9.5-3.098.27-.085 8.36-2.891 9.14-4.06 9.14-4.06.6-.267 8.68-4.977 8.67-4.978.71-.41 7.13-4.536 8.12-5.838 8.12-5.837.77-.557 7.48-6.638 7.48-6.639.79-.705 5.48-5.968 6.76-7.371 6.76-7.371.65-.714 5.96-8.033 5.96-8.032.61-.824 5.09-8.61 5.08-8.61.56-.948 3.5-6.69 4.15-9.1 4.14-9.1.32-.689 3.14-9.492 3.15-9.493.25-.766 1.79-7.043 2.09-9.779 2.09-9.778.06-.291.99-9.951.99-9.951.04-.353.39-6.803-.15-9.999-.15-9.697-.64-6.848-1.33-9.911-1.19-8.83-1.4-6.605-1.43-5.421M1516.75 433.989l6.96 3.79 1.65.897 5.6 2.571 2.75 1.265 3.39 1.318M1697.41 26.877l-.7-.17-9.77-2.12-9.35-2.026-6.56-.774-9.94-1.008-9.95-1.009-.29-.03-10 .074-10 .075-.21.001-7.21.295-9.93 1.127-9.94 1.127-.76.085-9.76 2.156-9.77 2.155-.64.143-7.29 1.784-9.5 3.14-9.49 3.141-.97.321-9.13 4.09-9.13 4.09-.81.362-6.84 3.544-8.66 4.99-8.67 4.99-.91.525-8.12 5.838-8.12 5.838-.71.51-7.49 6.627-7.49 6.627-.52.467-6.03 5.462-6.77 7.354-6.78 7.353-.41.446-5.99 8.008-5.99 8.007-.24.316-4.63 7.022-5.13 8.584-5.17 8.659-4.2 9.075-4.14 8.935-3.07 8.133-3.21 9.471-2.99 8.826-2.15 9.765-1.96 8.862-1.52 8.607-1.04 9.946-.86 8.281-.21 9.052.13 9.999.09 7.386.93 9.144 1.37 9.906.85 6.203 1.84 8.876 2.69 9.631 1.34 4.792 1.4 4.686 1.07 3.576 2.24 5.847 1.07 2.821 4.13 8.988"/><path d="m1858.38 161.177-1.01 2.523-3.55-.143-5.11 2.096-.3-.067-6.09-1.394-2.72-.621-8.17-5.77-4.75-3.357-7.69-6.398-5.37-4.477-7.54-6.572-7.54-6.573-.8-.703-7.26-6.876-7.39-7-7.08-7.068-7.07-7.068-2.13-2.133-6.87-7.268-6.87-7.268-.43-.452-6.57-7.536-6.58-7.535-.48-.56-6-8.005-5.01-6.694-1.75-9.846-.09-.5-.59-1.17-3.73-7.302-.41-.829-2.73-5.579-.45-3.996 2.1-1.626 4.44.622 6.57 2.706 8.58 5.141 3.74 2.24 8 5.996 2.7 2.026 7.93 6.097 4.07 3.131 7.69 6.39 4.14 3.435 7.32 6.811 7.32 6.811 1.22 1.136 6.89 7.246 5.53 5.811 6.62 7.498 4.22 4.787 6.48 7.616 4.1 4.815 6.25 7.811 5.36 6.707 5.72 8.202 2.73 3.918 5.26 8.508.21.341 3.55 7.038 1.39 4.927Zm0 0-2.44 9.697-2.45 9.698-.43 1.741M1720.35 23.41l-9.89 1.494-9.89 1.494-3.17.48M1724.19 103.555l3.75 5.159 2.34 5.518 1.29 6.123 1.11 4.8-.85 4.759-3.8 3.915-3.4 3.35-2.61.6-4.65 3.018-5.64 1.343-4.99-2.48-2.59-2.636-5.48-1.586-6.35-4.066-3.36-1.591-5.36-5.868-1.61-2.208-3.42-6.513.27-2.606-1.04-6.348 2.23-2.59-1.8-4.421-.07-3.916M1666.14 87.9l.07 5.19 2.38 5.863M1693.31 141.232l7.29 2.113 3.45 3.511 6.64 3.303 7.5-1.794 6.2-4.022M1665.61 102.392l1.37 8.432M1732.38 139.078l5.04-5.213M1737.06 121.151l-1.71-8.136M1690.28 80.89l-6.68.11-3.65 1.714M1708.91 91.71l4.53 3.797M1777.9 268.902l5.96 1.922 6.45.832 1.48-2.195 3.57-1.686 5.85-1.06M1736.75 224.578l3.74 7.399 2.43 5.771-1.38 2.19 4.66 6.393 5.91 5.692.69.524M1802.42 172.83l-4.99-3.876-6.34-3.753"/><path d="m1741.54 239.939 6.9-7.242 1.15-1.214 1.01-1.602-6.98 7.156-.7.712M1826.7 219.88l-.78-2.813-1.52-5.247-1.17-7.301-1.84-7.116M1745.94 166.114l-4.7 4.326-4.09 4.98-2.34 4.266 1.3 1.239-1.56 5.914-1.24 6.86-2.42 5.503-2.92 3.689"/><path d="m1736.11 180.926 7.9 6.128 1.61 1.245-.95-.906-7.88-6.159-1.98-1.547M1769.77 159.128l-6.29-.509M1774.78 239.028l-3.19-1.984-.81-.504-1.33-.924-3.29-2.272-1.79-1.24-.35-.265-2.97-2.873-2.34-3.221.7-1.1-1.22-2.904-1.88-3.722-.4-2.753 1.19-1.646-1.41-3.141-2.15-1.911-1.63-1.447 1.47-1.854 1.21-2.768.62-3.45.77-2.976-.65-.623 1.17-2.15 2.05-2.513 2.37-2.186 1.5-.423 2.08-.52 2.97-1.24M1772.9 185.028l1.82.879 3.51.663M1416.93 314.649l-.09 10-.07 8.653.14 2.921.55 3.305.95 3.672 2.04 5.604 2.39 5.247 2.62 5.137 2.79 5.075 3.55 5.905 4.65 6.947 3.62 4.933 3.73 4.855 4.34 5.339 6.12 6.88 4.32 4.46 4.42 4.367 4.74 4.466 6.95 5.967 4.95 3.853 4.88 3.59 5 3.442 5.53 3.459 5.08 2.712 3.78 1.672 3.49 1.249 3.16.805 2.96.372 9.96.977 7.48.734M1515.83 433.455l-6.94-4.369"/><path d="m1441.86 363.197-5.58-8.299-.31-.456M1464.39 390.982l-6.65-7.469-1.09-1.224-5.49-6.742M1543.25 451.243l.51.078.2.03 1.1.237.06.014.45.097 1.98.315 2.25.453 2.6.649 2.13.519 1.36.091 3.32.709 3.75.942.44.118 3.5.954 4.09 1.191 3.4.921.6.057 2.24.827 2.84 1.05 3.02 1.112.81.247 1.91.279 3.79.825 3.63.846 1.34.273 1.04.137 3 .466 2.73.463.52.143.18.014 1.87.056 1.71.053 1.15.026.2-.027 2.06-.28 1.9-.258 9.45-3.279.57-.198"/><path d="m1543.44 451.63 1.34.459 2.22.811 2.35.46 2.35.479 2.69.416 3.08.599 3.32.534 2.61.108M1600.61 459.255l-4.63-1.086-1.17-.258-2.68-.586-.15-.034-.06-.012-.26-.057-.51-.112-.13-.02M1536.79 443.444l.31.386 6.07 7.521.15.131.17.145.02.016M1603.64 459.781l-1.32-.177"/><path d="m1543.32 451.482.12.147.07.014 1.61-.041M1543.17 451.351l.02-.031.03-.04.03-.037M1537.77 443.406l-.26-.032M1548.51 445.612l-3.32-.817M1552.95 446.374l-1.73-.11M1572.23 451.356l-5.22-1.519M1580.2 453.662l-2.85-1.061-.78-.071"/><path d="m1574.99 458.619.57-1.461.4-1 .65-1.681.28-.708.46-1.167M1588.72 456.754l-1.04-.317-3.84-1.426M387.858 764.667l-5.23-2.453-7.612-2.876-7.705-2.229-7.724-1.559-4.435-.842-8.242-.936-8.116-.186-5.545.15-8.386.604-8.1 1.404-6.25 1.305-8.099 2.302-6.254 2.413-7.915 3.228-7.365 4.049-6.215 3.571-6.911 4.959-5.693 4.517-6.293 5.813-4.98 5.321-5.538 6.575-4.102 5.957-4.664 7.216-3.092 6.393-3.709 7.704-2.777 8.225-1.918 6.407-1.766 8.448-.764 6.296-.77 8.479.175 8.723.376 5.532 1.073 8.46 1.971 8.52 1.302 4.345 2.683 7.984 3.488 7.872 4.259 7.679 4.988 7.404 1.226 1.694 5.248 6.532 5.82 6.137 6.333 5.678 6.781 5.16 7.158 4.591 7.458 3.974 1.868.865 8.291 3.58 3.759 1.263.019.007 4.666 1.568 4.788 1.163 3.723.905 8.488 1.281 4.544.506 3.535.205 5.37.31 8.698-.33 5.582-.567 8.814-1.226 8.415-2.085 6.162-1.773 8.221-3.025 6.092-2.887 7.836-3.947 7.171-4.748 5.891-3.999 6.532-5.577 5.3-4.888 5.757-6.305 4.53-5.624 4.883-6.906 3.619-6.177 3.936-7.363 2.596-6.529 2.96-7.657 2.057-8.059 1.435-6.392 1.103-8.099.328-6.223.203-7.97-.64-8.127-.723-5.38-1.396-7.758-2.168-7.769-1.553-4.171-2.722-7.189-3.393-7.073-4.036-6.894-2.485-3.563"/><path d="m434.025 811.28.207 2.477.448 5.345-1.061 6.25-2.421 5.508-3.787 4.568-5.115 3.426-6.349 2.092-6.794 3.045-8.576.911-9.591-2.832-.122-.036-8.616-4.252-8.429-5.382-.941-.6-7.702-6.506-6.753-7.376-.736-.804-5.676-7.963-4.354-8.858-2.216-8.892 2.992-7.172 1.948-6.378 2.745-5.502 4.115-4.348 5.273-3.119 6.216-1.869 4.809-.439 2.138-.195 9.88 1.545.237.037 2.066.706 5.832 1.99 7.359 3.955 6.926 4.455 7.657 6.432.883.742 5.963 6.747 4.77 6.551 2.834 5.041 1.085 1.929 2.856 8.771Zm0 0 1.572 6.671M436.351 826.955l-.757-9.005M375.676 762.379l-7.102-.581M335.05 819.995l1.179 2.851.4 3.069-.228 3.417-.042 2.634-1.022 2.623-2.526 2.246-2.244 1.926-1.436.376-2.71 1.692-3.059.815-2.373-1.231-1.104-1.36-2.527-.837-2.742-2.151-1.44-.872-1.96-3.187-.493-1.224-.809-3.611.481-1.45.425-3.58 1.403-1.426-.081-2.575.688-2.29M309.269 811.007l-.917 3.043M323.273 845.33l4.072-1.086 3.609-2.254 1.912-.501M306.585 819.369l-.569 4.762M305.375 826.06l1.073 4.806M340.57 832.441l.053-3.505.3-4.546M309.711 836.738l1.918 1.161M327.183 807.346l-4.567-.588-3.485.17-2.123 1.017-3.973 2.189M329.004 813.482l1.666 2.138M332.99 810.705l-2.217-2.84M371.336 899.404l3.92-.988 2.923-1.362.532-1.909M376.085 852.418l-3.193-1.533-4.005-1.399M337.438 889.334l3.59-3.958.53-.796-3.395 3.666M350.379 897.662l1.636.73 1.042.367 4.095 1.442 2.855 1.004M329.816 871.84l1.724 1.326 2.275 1.751 1.503 2.968-1.251 1.636M384.43 859.468l-3.094-2.832M390.515 869.787l-.716-3.513-1.185-3.354-2.348-2.335M344.156 894.886l2.197.98M389.195 885.985l1.487-2.554.773-.01.619-2.847.289-3.57-.102-3.549M333.827 863.655l-.878 3.462M334.842 860.658l4.287 3.739-.479-.431-4.462-3.897"/><path d="m345.331 851.474-2.502.73-1.709.53-2.858 2.38-2.543 2.692-1.531 2.264M356.637 887.49l-2.063-.73-.524-.186-.824-.369-2.026-.908-1.105-.496-.205-.112-1.76-1.249-1.414-1.437.365-.547-.711-1.356-1.083-1.728-.264-1.307.629-.823-.755-1.492-1.144-.881-.866-.667.839-.962.734-1.414.44-1.742.51-1.508-.329-.297.769-1.14 1.278-1.357 1.437-1.2.86-.268 1.258-.37 1.835-.788M355.863 861.145l1.06.346 2.192.092M295.945 970.914l.139.209.566.638.446.523.256.223 1.224.545 1.557.615 1.736.644 1.898.669 1.492.556.133.099 1.574.237 2 .301 2.119.319.511.085 1.008.123 2.463.196 2.456.178.84.073.726-.012 2.328-.088 2.242-.11.602-.063.45-.138.998-.187M305.391 975.635l.026-1.983M1380.36 284.08l-7.18-6.965-7.17-6.965-7.18-6.965-2.06-2.003-6.97 7.175-6.96 7.176-6.97 7.175-2 2.064 7.18 6.965 7.17 6.965 7.18 6.965 2.06 2.003 6.97-7.175 6.96-7.176 6.97-7.175 2-2.064ZM1348.66 252.177l-7.17-6.965-6.93-6.723-6.97 7.176-6.72 6.925 7.18 6.965 6.92 6.723 6.97-7.175 6.72-6.926ZM1367.97 237.434l-7.18-6.966-2.47-2.398-6.96 7.176-2.4 2.47 7.17 6.965 2.47 2.398 6.97-7.175 2.4-2.47ZM1012.87-169.733l6.98 7.159 6.99 7.159 6.98 7.159 6.98 7.158 6.98 7.159 6.98 7.159 6.99 7.159 6.98 7.159 6.98 7.159 6.98 7.159 6.98 7.159 6.99 7.159 6.98 7.159 6.98 7.159 6.98 7.159 6.98 7.158 6.99 7.159 6.98 7.159 6.98 7.159 6.98 7.159 6.99 7.159 6.98 7.159 6.98 7.159 6.98 7.159 6.98 7.159 6.99 7.159 6.98 7.159 6.98 7.158 6.98 7.159 6.98 7.159 6.99 7.159 6.98 7.159 6.98 7.159 6.98 7.159 6.99 7.159 6.98 7.159 6.98 7.159 6.98 7.159 6.98 7.159 6.99 7.158 6.98 7.159 6.98 7.159 6.98 7.159 6.98 7.159 6.99 7.159 6.98 7.159 6.98 7.159 6.98 7.159 6.98 7.159 6.99 7.159 6.98 7.159 7.88 8.075 7.07-7.071 2.14-2.145-7.16-6.982-7.16-6.982-7.16-6.982-7.15-6.983-7.16-6.982-7.16-6.982-7.16-6.982-7.16-6.982-7.16-6.982-7.16-6.982-7.16-6.982-7.16-6.982-7.15-6.982-7.16-6.983-7.16-6.982-7.16-6.982-7.16-6.982-7.16-6.982-7.16-6.982-7.16-6.982-7.16-6.982-7.15-6.982-7.16-6.983-7.16-6.982-7.16-6.982-7.16-6.982-7.16-6.982-7.16-6.982-7.16-6.982-7.16-6.982-7.15-6.983-7.16-6.982-7.16-6.982-7.16-6.982-7.16-6.982-7.16-6.982-7.16-6.982-7.16-6.982-7.16-6.982-7.15-6.983-7.16-6.982-7.16-6.982-7.16-6.982-7.16-6.982-7.16-6.982-7.16-6.982-7.16-6.982-7.16-6.983-7.16-6.982-7.15-6.982-7.16-6.982-8.08-7.876ZM622.504 445.866l.584 1.047.001.002 2.535 4.542M634.586 467.116l.002.001M735.904 342.056l-4.738-2.651-.681-.381-.002-.001-.971-.543M737.738 353.094l.298.332M738.305 353.803l.048.069M739.231 348.523l-1.468.861-.693.406M742.905 346.761l-.446-.301-2.293-1.546-.115-.077M769.629 364.778l-8.291-5.59-8.292-5.591-2.04-1.375-1.056-.712-.001-.001M937.976 786.532l-1.359 2.421M945.812 792.941l1.989 1.626 1.102.902M953.909 800.396l-.194.354M1072.72 667.673v-.001M1073.13 660.591l.44.472M1084.93 684.635l1.92-3.473M1089.56 676.883v-.002M1089.38 676.173l.87-1.593M962.168 805.366l8.568 5.157 8.568 5.157 8.568 5.156 8.568 5.157 8.57 5.157 8.57 5.156 8.56 5.157 8.57 5.157 8.57 5.156 8.57 5.157 8.56 5.157 8.57 5.156 8.57 5.157 8.57 5.157 8.57 5.156 2.88 1.739 2.49 1.498M1164.72 845.904l.25-.021.03-.003M1084.44 670.306l-.43-.72-3.69-6.116M1175.27 838.763v-.002M1182.78 824.499l.5-.888M1179.32 821.63l-.53-.935-4.88-8.727-1.61-2.869M1194.94 876.742l-5.7-8.216-.06-.089"/></g><defs><clipPath id="a"><path fill="#fff" d="M0 0h1920v1080H0z"/></clipPath></defs></svg>