<svg width="1920" height="1080" fill="none" xmlns="http://www.w3.org/2000/svg"><g clip-path="url(#a)" stroke="#EFC018" stroke-width="5" stroke-linejoin="round"><path d="m958.319 799.937.01-.013.001-.001.112-.144.001-.002.218-.066.303.03.229.076.006.002.142.047.436.215.478.297.503.368.426.356.015.013.066.056.493.464.459.487.026.031.004.005.165.199.001.001.211.254.34.475.017.029.008.013.234.399.169.39.073.324-.016.147v.001l-.011.098-.015.02-.001.001-.109.138-.003.001-.216.064-.029-.003h-.001l-.274-.028-.377-.126-.41-.202-.001-.001-.025-.012-.478-.298-.501-.367-.421-.352-.001-.001-.085-.071-.491-.463-.458-.486-.406-.489-.34-.474-.259-.44-.133-.305-.001-.002-.036-.083-.074-.325.011-.106.015-.141Zm0 0 .003-.007M963.312 804.647l3.564-2.005M955.066 801.642l.14.013.228.106.307.195.374.275.427.347.463.403.482.445.482.47.464.476.427.464.374.434.307.388.024.034.001.001.203.291.14.252.047.169-.048.077-.001.001h-.001l-.14-.015-.228-.107-.307-.195-.224-.165-.001-.001-.15-.11M958.428 805.543l-.463-.403-.481-.444M955.068 801.891l-.048-.17"/><path d="m959.906 806.483 2.315-1.3.839-.471M956.542 803.754l-.426-.464-.374-.433-.307-.387-.228-.327"/><path d="m954.273 800.393-.584 1.073-.001.001.061.093.151.182.235.263.31.336.375.395.424.439.456.465.472.475.468.465.448.438.409.394.355.335.287.262.209.181.122.091.03-.002.505-.277M999.723 765.992l.218.631.339.59.44.527.53.443.59.342.64.228.66.105.66-.022 1.14-.109"/><path d="m999.721 765.993-.06-.426-.032-.222.038-.64.166-.608.287-.551.4-.474.49-.379.57-.268.63-.148.66-.022.66.104.64.228.6.342.52.444.45.527.33.59.22.632.09.649-.04.64-.16.607-.29.552-.4.473-.49.378-.58.269-.27.064-.35.083M955.368 801.053l-.047.089-.001.003-.304.577.048.169.141.253.228.326.307.388.374.433.426.463.462.475.481.469.481.444.463.403.426.346.15.11.001.001.224.165.307.195.228.107.141.015.002-.001"/><path d="m955.016 801.722.016-.027.031-.053h.002l.138.014.228.106.307.194.374.276.427.346.463.404.482.445.482.469.464.476.427.464.374.435.307.387.024.035.001.001.203.291.14.252.047.168-.048.078-.001.001M963.434 804.49l-.015.019-.109.138-.001.002-.219.065-.029-.003-.274-.028-.378-.126-.41-.203-.001-.001-.025-.012-.477-.297-.502-.368-.421-.352-.002-.001-.083-.07-.492-.464-.458-.485-.406-.489-.34-.474-.259-.441-.138-.316-.001-.002-.031-.072-.074-.325.012-.111.014-.136.007-.009.006-.007.001-.002.11-.141.003-.001M963.219 803.529l.17.39.072.325-.016.144v.001M958.656 799.714l.303.029.239.08.006.002.132.043.436.216.479.297M963.309 804.65l3.57-2.008M964.077 794.955l-.529 1.183-.095.322.01.395.115.453.118.27.004.009.093.213.307.512.093.124.004.005.197.261.001.002.093.123.453.496.501.458.53.404.351.216.01.007.178.11.527.25.494.157.443.058.375-.043.293-.143 3.35-1.846"/><path d="m963.547 796.139.198-.238.291-.143.375-.044.199.025.006.001.238.031.494.156.528.25.54.333.513.391.018.013.502.46.071.077.383.42.388.515.308.514.215.492.114.453.008.394-.096.322-.198.237M970.415 790.802l-.048.461.064.51.175.54.278.55.371.537.449.506.51.454.552.384.572.301.571.205.548.102.503-.005.439-.112 2.92-1.52"/><path d="m970.418 790.802.159-.393.263-.311.358-.216.44-.113.204-.003.299-.003.548.101.572.205.573.301.553.385.511.455.45.506.371.539.278.55.174.541.045.359.019.152-.049.46-.16.393-.265.31-.359.215M978.984 783.363l-.097.519.021.562.14.583.252.583.356.558.446.514.518.45.57.368.602.271.609.166.593.052.555-.062.495-.174 2.52-1.164"/><path d="m978.984 783.364.214-.457.32-.376.175-.118.241-.163.495-.175.555-.063.594.052.61.165.602.271.572.368.518.45.447.515.356.56.252.583.14.584.02.563-.099.519-.115.245-.099.211-.321.375-.417.281M988.759 774.936l-.013.606.112.62.233.61.344.577.443.521.524.446.585.353.625.247.397.082.242.05.63.011.597-.111 1.435-.504"/><path d="m988.758 774.936.138-.568.133-.264.124-.246.366-.431.462-.336.54-.228.596-.111.63.01.64.131.626.247.181.11.405.244.525.446.443.522.345.577.232.611.111.62-.013.606-.139.569-.257.51-.367.431-.072.052-.391.283-.539.227M1013.4 757.4l-.6-.334-.53-.441-.44-.53-.33-.6-.21-.645-.08-.667.05-.663.18-.633.3-.579.42-.503.51-.407.59-.296.64-.173.67-.044.67.087.66.215.6.334.53.441.44.531.33.599.21.646.08.668-.05.662-.18.634-.31.579-.41.502-.51.407-.59.296-.64.173-.67.043-.68-.087-.65-.215ZM1025.29 745.66l-.61-.33-.53-.44-.44-.532-.33-.604-.21-.652-.08-.676.05-.673.18-.646.31-.592.42-.516.51-.42.59-.309.65-.185.67-.054.67.079.65.208.61.331.53.44.44.531.33.604.21.652.08.676-.05.674-.19.645-.3.592-.42.516-.51.421-.59.308-.65.185-.67.055-.67-.079-.65-.209ZM1037.09 733.703l-.6-.331-.53-.44-.44-.531-.33-.603-.22-.651-.09-.674.04-.672.18-.643.29-.59.4-.513.5-.418.58-.307.63-.183.66-.052.67.08.64.209.6.331.53.439.44.531.33.603.22.651.09.674-.04.671-.17.643-.3.59-.4.514-.5.418-.58.307-.63.183-.66.053-.66-.08-.65-.209ZM1052.74 719.641l-.07.339-.07.288-.27.572-.37.496-.47.401-.55.29-.61.168-.63.04-.65-.091-.63-.217-.59-.335-.53-.441-.44-.529-.34-.596-.23-.642-.11-.663.02-.657.15-.627.27-.572.37-.496.47-.4.55-.289.61-.168.63-.039.25.035.4.056.63.217.59.335.52.441.45.528.34.596.23.642.1.661-.02.657Zm0 0-.1 1.133M1085.12 669.403l-.83.456M1090.12 675.62l-.02-.143-.1-.228-.2-.307-.16-.22v-.001l-.11-.153-.35-.426-.4-.462-.44-.48-.47-.48-.48-.461-.46-.425-.43-.372-.39-.306-.32-.227-.25-.14-.17-.047-.42.22-.13.068v.002l-1.09.58"/><path d="m1090.11 675.619-.07.048-.17-.046-.25-.139-.29-.199-.04-.028-.39-.305-.43-.373-.46-.426-.48-.463-.46-.481-.45-.481-.4-.462-.35-.427-.27-.373-.2-.307-.1-.228-.01-.138v-.002l.05-.032.02-.015M1086.31 682.601l1.98-3.568.07-.219-.01-.021-.03-.282-.12-.377-.2-.401v-.001l-.02-.034-.29-.477-.37-.501-.34-.409v-.002l-.08-.095-.47-.49-.48-.456-.49-.406-.47-.338-.44-.259-.25-.107-.14-.061-.32-.073-.07.007-.18.019v.001l-.63.315v.001l-.36.179v.001l-.01.005-.01.002"/><path d="M1088.29 679.034v.002l-.12.101-.03.023-.09.01-.16.018-.32-.072-.39-.168-.32-.19-.02-.008-.1-.061-.47-.338-.24-.201-.01-.001-.14-.117v-.004l-.1-.083-.49-.458-.46-.491-.13-.151-.01-.016-.28-.34-.37-.501-.3-.478-.21-.436-.08-.233v-.007l-.05-.137-.03-.303.07-.216v-.002l.15-.118v-.006l.01-.001M1079.59 679.494v-.004l.22-.19.01-.007.32-.097.4.009.45.114.29.127.01.004.19.083.51.306.19.143v.004l.22.161v.002l.1.077.5.452.45.5.41.529.2.327.01.01.12.201.25.526.16.495.06.443-.05.375-.14.293v.002l-.23.196-.32.098-.39-.008-.45-.113M1082.07 684.033l-.51-.387-.35-.314-.05-.051-.1-.088-.46-.501-.02-.028-.02-.031M1079.87 681.621l-.25-.527-.16-.494-.04-.339v-.006l-.02-.098"/><path d="m1079.82 679.294-1.09.491v.003M1077.46 694.071l1.5-2.919.11-.44v-.504l-.06-.326-.02-.099v-.031l-.02-.091-.21-.571-.3-.572-.38-.551-.46-.509-.5-.448-.54-.37-.54-.276-.54-.174-.51-.063-.46.049"/><path d="m1078.96 691.152-.02.028-.2.331v.003l-.31.263-.39.16-.45.05-.15-.017-.01-.001-.35-.044-.54-.173-.55-.277-.54-.37-.5-.449-.46-.51-.38-.552-.3-.573-.21-.572-.1-.548v-.305l.01-.198.11-.44.21-.354v-.004l.31-.265.21-.084.18-.075M1070.39 702.334l1.15-2.52.17-.496.06-.555-.05-.594-.17-.609-.27-.601-.37-.57-.45-.517-.51-.444-.56-.355-.58-.252-.58-.138-.56-.021-.52.099"/><path d="m1071.53 699.815-.01.017-.26.4-.01.004-.37.319-.2.097-.01.004-.24.114-.52.1-.56-.019-.58-.138-.58-.252-.56-.355-.51-.445-.45-.518-.37-.571-.27-.602-.17-.61-.05-.594.06-.556.17-.495.16-.237.01-.009.11-.166v-.005l.38-.321.42-.2.03-.015M1062.15 711.142l.65-1.869.11-.597-.02-.631-.13-.639-.25-.625-.35-.585-.45-.524-.52-.442-.57-.343-.61-.232-.62-.11-.6.014"/><path d="m1062.8 709.273-.04.075-.19.465-.28.387v.012l-.05.065-.01.004-.42.364-.51.259-.56.14-.61.015-.61-.11-.61-.231-.58-.344-.52-.442-.45-.525-.35-.586-.25-.625-.13-.641-.01-.631.11-.597.22-.54.33-.458.01-.005.42-.367.24-.12.01-.008.26-.131.51-.124.06-.015"/><path d="M1062.23 710.28v.005l-.43.368-.5.26-.57.139-.6.015-.62-.11-.61-.231-.58-.343-.52-.443-.44-.524-.36-.586-.25-.626-.13-.64-.01-.631.11-.597.22-.541.34-.463v-.004M1060.61 704.896l.57.343.53.442.44.524.35.584M1062.79 709.281l-.23.541M1057.71 704.965l.25-.128.01-.008.24-.122M1071.7 698.179l.06.593-.06.556-.17.496-.28.412v.005l-.37.322-.2.094-.01.004-.25.118-.51.1-.56-.02-.59-.138-.58-.251-.56-.356-.51-.445-.45-.518-.37-.571-.27-.602-.17-.61-.05-.594.06-.555.18-.496.16-.246.01-.008.1-.162.01-.004.37-.318.45-.214.52-.099M1068.22 694.691l.58.138.58.252.56.355.51.444.45.518.37.57.27.601M1078.74 691.514v.004l-.31.266-.39.16-.46.05-.13-.016-.01-.001-.37-.045-.53-.173-.55-.277-.54-.37-.51-.449-.45-.51-.38-.553-.31-.572-.2-.572-.1-.548v-.503l.11-.44.22-.358v-.003l.31-.262M1078.45 688.524l.3.572.21.571M1078.98 689.782l.02.084.06.348v.504l-.11.44M1075.49 686.196l.54.174.55.276M1084.47 684.382l-.24.199-.32.097-.39-.008-.45-.112-.49-.214-.51-.306-.52-.388-.28-.262-.06-.051-.15-.139-.46-.502-.04-.058-.03-.031-.33-.441-.34-.539-.25-.527-.15-.495-.05-.348v-.006l-.01-.089.04-.374.14-.292.01-.002.23-.196.32-.096.39.009.45.113.31.133.01.004.17.077.51.307.2.147.01.004.2.158.01.001.1.076.49.452.46.5.4.53.2.311v.01l.14.217.25.526.15.494.06.443-.04.375-.14.29v.003Zm0 0-1.14 2.097-.1.19M1079.82 679.299l-.01.002M1088.29 679.036v.002l-.13.102-.03.024-.08.009v.001l-.16.018-.32-.072-.39-.168-.3-.173-.01-.008-.13-.078-.48-.338-.24-.201v-.001l-.13-.112-.01-.004-.1-.088-.49-.458-.46-.491-.16-.185-.01-.016-.26-.306-.36-.502-.3-.478-.22-.435-.08-.243v-.007l-.04-.127-.03-.303.06-.218v-.002M1086.98 676.315l.34.409.37.5M1088 677.737l.2.4.12.377M1084.16 674.101l.15.066v.001l.24.102.44.259.47.338.49.406M1090.11 675.619l.01.001v.001l-.08.048-.17-.046-.25-.139-.29-.199-.04-.028-.38-.305-.44-.373-.46-.426-.48-.463-.46-.481-.45-.481-.4-.462-.35-.427-.27-.373-.2-.307-.1-.228-.01-.14M1086.93 671.837l.46.425.48.461.46.48.45.48M1089.18 674.145l.34.425.12.154.16.221.19.307.11.227M1085.36 670.744l.17.047.26.14.32.227M1089.92 674.203v-.03l-.09-.121-.18-.208-.26-.286-.34-.354-.39-.408-.44-.446-.46-.467-.48-.471-.46-.455-.44-.422-.39-.374-.34-.31-.26-.236-.18-.151-.09-.061M1085.12 669.403v.001l-.83.456M724.295 335.498l-8.728-4.881-6.582-3.682-8.884-4.591-8.884-4.59-8.884-4.591-4.363-2.254-8.916-4.528-8.916-4.527-8.916-4.528-4.441-2.255-9.164-4.003-9.164-4.002-9.164-4.003-5.221-2.281-9.576-2.879-9.577-2.88-9.576-2.879-9.577-2.88-9.576-2.879-9.576-2.88-9.577-2.879-3.252-.978 2.851 9.585 2.85 9.585 2.851 9.585 2.85 9.585 2.851 9.585 2.85 9.585 2.851 9.586.756 2.542 3.99 9.169 3.99 9.17 3.99 9.169 2.194 5.041 4.52 8.92 4.521 8.919 4.521 8.92 2.198 4.338 4.584 8.888 4.585 8.887 4.583 8.887 2.217 4.298 4.877 8.73 3.93 7.036M1079.1 664.404l-.84 2.493-3.37 4.97-5.81 7.294-3.5 4.061-.69.805-2.4 2.784-1.47 1.714-1.56 1.727-1.01 1.114-3.96 4.384-3.29 3.637-.19.215-.46.494-4.98 5.313-3.94 4.202-.19.203-2 2.138-3.56 3.686-4.38 4.544-4.71 4.881-1.12 1.135-4.62 4.658-5.96 6.016-1.5 1.512-3.16 3.107-5.98 5.88-4.05 3.977-.469.45-5.831 5.571-.2.19-4.173 3.988-.009.008-1.938 1.852-.155.143-3.228 2.983-.009.008-.699.646-.009.008-3.608 3.335-.008.008-2.555 2.361-1.254 1.159-.558.494-.008.007-1.113.985-.007.007-3.449 3.052-.007.006-2.764 2.447-.006.005-.841.744-.004.004-1.202 1.064-7.697 6.384-.306.255-5.755 4.229-3.319 1.695"/><path d="m947.94 794.389-.702 1.369.805.881 3.371-1.718 5.855-4.3 7.697-6.384.449-.372 1.9-1.681.004-.004.065-.058.402-.355.585-.519.007-.005 2.915-2.58.007-.006 3.313-2.932.007-.007.936-.828.197-.182.008-.007 1.886-1.743 2.544-2.352.009-.007 3.552-3.283.008-.008.699-.646.009-.008 2.826-2.612.428-.409 2.09-1.997.009-.008 4.16-3.975.198-.188 5.831-5.571.14-.136 4.39-4.311 5.97-5.865 3.08-3.032 1.59-1.604 5.95-5.999 4.63-4.674 1.28-1.294 4.54-4.704 4.4-4.559 3.94-4.094 1.62-1.726.19-.2 3.92-4.188 5.01-5.345.66-.706.39-.414 2.85-3.159 4.03-4.457 1.02-1.135 2.29-2.53.65-.757 2.54-2.947.88-1.027 4.14-4.802 5.91-7.423 3.42-5.053.85-2.531-1.71.039-.28.17M1096.34 885.994l.5-.127 1.92-.491 3.75-2.061 4.94-3.438 5.95-4.69 6.71-5.762 7.23-6.609 7.18-6.951.25-.237 7.01-7.133.33-.343 6.83-7.314.13-.146 6.29-7.142 5.37-6.536 2.49-3.336M740.357 344.941l-2.674.277-4.757 2.441-6.686 4.543-4.244 3.292-1.235.957-2.894 2.245-.011.009-2.228 1.877-1.054.888-4.165 3.508-2.283 1.923-.696.623-.481.43-4.352 3.896-4.329 3.874-.862.772-2.907 2.735-5.49 5.166-2.814 2.648-.05.047-6.349 6.252-2.263 2.228-2.72 2.678-3.57 3.678-2.742 2.823-4.616 4.753-.636.687-3.502 3.783-3.945 4.263-.007.006-1.776 1.919-.204.221-1.923 2.198-.007.008-.422.481-.007.008-2.576 2.945-.005.006-1.846 2.109-1.75 2-.005.007-.257.292-.617.759-.005.007-1.85 2.275-.006.007-2.143 2.636-.171.21-.004.005-.998 1.227-.004.005-1.375 1.691-5.274 7.243-3.191 5.396-1.012 3.363M628.367 455.262l.313.465 1.539 2.284.297.44M788.986 377.712l-8.292-5.588-5.755-3.879-1.395-.94-8.293-5.588-8.293-5.589-5.699-3.841-.003-.002-.733-.494-.001-.001-1.362-.917"/><path d="m742.487 346.378.73-1.752-.53-1.952-2.77.275-4.943 2.529-6.956 4.723-6.04 4.682-1.366 1.059-1.313 1.018-1.836 1.546-2.087 1.758-1.048.883-4.185 3.524-.993.836-2.113 1.891-.414.37-4.162 3.725-4.484 4.013-.177.166-3.3 3.106-6.158 5.793-1.926 1.813-.178.167-7.125 7.017-.172.169-1.011.995-3.507 3.453-3.818 3.932-1.938 1.996-5.637 5.805-.26.281-3.074 3.321-4.245 4.586-.006.007-1.845 1.993-1.066 1.152-.847.968-.007.008-.354.404-.007.009-2.733 3.124-.006.007-1.845 2.109-1.761 2.013-.006.007-.897 1.024-.005.007-.698.797-1.053 1.296-.005.006-2.044 2.514-.521.641-.004.005-1.093 1.345-.005.005-2.744 3.377-5.487 7.539-3.312 5.611-1.041 3.49 1.233 1.269 2.926-.822"/><path d="m742.69 342.673-2.246-1.734-2.772.263-1.665.846-3.269 1.662-4.19 2.834-.511.346-.003.002-1.135.767-.004.004-.654.442-.44.297-1.392 1.077-.139.108-2.671 2.065-1.126.871-1.475 1.141-1.032.797-.855.661-1.573 1.323-3.626 3.048-.176.149-2.534 2.13-2.201 1.851-7.456 6.665-3.672 3.283-7.285 6.851-4.404 4.142-7.126 7.015-4.636 4.564-6.966 7.175-4.374 4.507-6.79 7.341-3.655 3.952-4.968 5.685-.005.006-2.162 2.474-.007.008-.127.146-.008.009-1.841 2.108-1.263 1.556-.005.006-1.969 2.427-.005.006-.827 1.019-.004.006-1.166 1.437-.005.006-.899 1.109-.004.004-1.281 1.579-.791 1.09-.003.005-.109.15-.004.005-1.336 1.842-.003.004-.486.67-.003.005-.801 1.104-.002.002-.391.539-1.525 2.101-2.96 5.041-.327.556-1.026 3.488 1.738 2.252M634.668 464.611l.912 1.354.001.001.547.812v.001l.009.012 5.587 8.294 5.588 8.293 4.392 6.518 5.587 8.293 3.898 5.785 5.912 8.065 5.912 8.066 5.913 8.065 5.912 8.065 5.912 8.065 5.343 7.289 6.385 7.696 6.386 7.696 6.385 7.696 1.652 1.992 6.385 7.696 6.385 7.696 3.899 4.7 6.648 7.47 6.648 7.471 6.648 7.47 6.647 7.47 6.648 7.471 5.709 6.415 7.284 6.853 7.283 6.852 7.283 6.852 7.283 6.853 7.284 6.852 6.221 5.853 7.444 6.678 7.443 6.678 7.444 6.677 7.443 6.678 7.444 6.678 6.389 5.731 7.6 6.5 7.6 6.499 7.6 6.499 7.6 6.5 7.6 6.499 6.567 5.616 7.739 6.334 7.738 6.334 7.738 6.334 7.739 6.334 3.712 3.038.309.253.922.755M1079.1 664.404l-.8-.974-1.69-2.066M1071.25 654.816l-.76-.926v-.001l-.25-.313-6.34-7.739-6.33-7.739-6.33-7.739-6.34-7.738-3.2-3.918-6.5-7.6-6.5-7.601-6.5-7.6-6.5-7.6-6.5-7.601-5.43-6.355-6.679-7.444-6.678-7.444-6.677-7.444-6.678-7.444-6.677-7.444-5.526-6.16-6.852-7.284-6.852-7.283-6.852-7.284-6.853-7.283-6.852-7.283-5.632-5.988-7.471-6.647-7.471-6.648-7.47-6.647-7.471-6.648-7.471-6.647-6.191-5.509-7.696-6.385-.153-.127-7.697-6.385-4.454-3.695-4.519-3.749M948.043 796.639l6.23 3.753.001.001.855.515.007.004.234.141M1127.67 904.22l8.65 5.029 4.68 2.728 1.94-.388 2.91-1.469 3.78-2.499 3.16-2.413 1.34-1.025 5.06-4.245 5.41-4.887 3.8-3.661 1.74-1.673 5.46-5.567.06-.073 5.09-5.505 4.63-5.364 3.83-4.793.12-.145 3.1-4.319 2.13-3.533 1.1-2.615.02-1.602-5.03-8.642-2.57-4.405"/><path d="m1111.78 898.681 8.73 4.878 3.43 1.916 2.25-.484 1.48-.77 1.94-1.002 4.46-3.002 5.35-4.122 6.01-5.084 6.44-5.847 6.62-6.376 6.52-6.647 6.16-6.651 5.55-6.385 4.73-5.864 3.72-5.114 2.57-4.165.34-.807.98-2.256.05-1.851-4.88-8.728-1.73-3.094M1093.66 884.379l-.49.952-.44 2.404 1.08.903 2.58-.65 1.02-.56 2.99-1.637 5.28-3.674 6.36-5.018 7.2-6.17 7.37-6.75.36-.328 7.19-6.951.78-.75 2.02-2.062 1.27-1.292 4.58-4.657.82-.882.09-.094 6.54-7.017 6.61-7.506.12-.143 5.75-6.998 1.44-1.931M1093.81 888.639l5.08 2.843 5.97 3.333.78.437v.001l1.15.638M1152.79 905.209l8.22 5.701 4.55 3.162 1.19-.226 1.75-.865 2.27-1.471 2.68-2.024 3-2.499 3.19-2.877 3.27-3.141 3.22-3.283 3.03-3.294 2.73-3.177 2.32-2.934 1.82-2.577 1.26-2.122.65-1.586v-.99l-5.7-8.218-3.03-4.372M1168.5 749.082l-9.63-2.695-9.63-2.694-9.63-2.695-9.63-2.695-5.34-1.494-9.63-2.695-8.12-2.271-6.26-1.753-9.63-2.695-9.63-2.695-9.63-2.695-8.85-2.477"/><path d="m1062.89 719.529 6.14 7.89 6.15 7.889 6.14 7.89 6.14 7.889 6.15 7.89 6.14 7.89 6.15 7.889 6.14 7.89 6.15 7.889 6.14 7.89 6.15 7.89 6.14 7.889 6.14 7.89 2.8 3.594.7-.078.92-.106 9.94-1.13 6.1-.696.96-.109 9.94-1.131.11-.012v-.001l1.44-.164.78.328.01.002 1.07.451v.001l1.32.554.01.002.05.021v.001l.84.353v.001l.41.173.01.001.27.115.01.002.24.102v.001l.2.082.07.031.05.02.01.005.06.023.91.383v.001l.92.386v.001l9.22 3.871 9.22 3.872 2.67 1.123 8.47 5.326 8.46 5.326 6.94 4.368 8.55 5.185 8.55 5.186 7.42 4.496 8.41 5.409 8.41 5.41 7.14 4.595 6.07-3.405 5.79-7.21-6.56-7.549-6.42-7.391-6.56-7.549-6.44-7.416-6.56-7.549-6.46-7.44-6.56-7.549-6.49-7.466-6.78-7.352-6.77-7.353-6.78-7.352-.73-.792-3.66-3.969-6.78-7.352-6.78-7.353-6.78-7.352-6.77-7.352-6.78-7.353-3-3.256-9.64-2.671-9.64-2.671-9.63-2.671-9.64-2.672-9.64-2.671-7.92-2.197-9.64-2.672-1.04-.289-1.06-.294-6.75-1.869-9.63-2.671-9.64-2.672-9.64-2.671-2.08-.577-6.09 6.689Z"/><path d="m1282.44 876.062-6.57-7.547-6.45-7.42-6.56-7.546-6.47-7.445-6.56-7.546-6.5-7.47-6.56-7.546-6.51-7.495-6.78-7.351-6.78-7.35-6.78-7.351-6.78-7.351-2.08-2.249-6.77-7.351-6.78-7.351-6.78-7.351-6.78-7.351-5.45-5.909 6.07-6.975M1074.99 918.42l7.48 6.633 2.51 2.222 7.48 6.632 6.24 5.528 7.48 6.632 6.26 5.546 7.49 6.633 6.28 5.564 4.9-2.755 5.5-6.65-5.36-8.441-5.36-8.44-1.55-2.44-5.1-8.602-5.1-8.602-1.55-2.613-5.26-8.503-5.27-8.502-1.68-2.727-1.49-4.054"/><path d="m1131.11 961.055-5.37-8.435-5.37-8.434-1.58-2.468-5.11-8.595-5.11-8.596-1.57-2.64-5.27-8.496-5.28-8.496-1.71-2.755-3.45-9.384-3.03-8.229M941.15 787.927l.032-.043.002-.001.091-.121.002-.002.221-.074.306.023.356.111.006.002.017.006.439.209.481.293.504.365.509.422.183.173.035.032.275.259.458.488.078.093.004.005.259.315.002.002.064.077.076.108.014.02.249.351.257.446.167.396.07.331-.02.174-.009.079-.129.167h-.002l-.219.072-.052-.004-.255-.02-.38-.119-.262-.126-.177-.084-.48-.293-.503-.365-.255-.212-.002-.001-.25-.208-.492-.463-.458-.487-.406-.491-.338-.478-.153-.263-.105-.182-.168-.396-.001-.007-.001-.001-.069-.324.019-.17.01-.084Zm0 0 .004-.007"/><path d="m946.148 792.633.365-.21.002-.001.021-.012.003-.001 3.295-1.891.003-.001.003-.002M949.842 790.514l.175-.226.041-.343-.093-.449-.226-.536-.348-.603-.082-.117M937.866 789.774l.001-.001.14.009.227.102.307.191.373.272.427.344.464.401.482.444.482.47.464.476.427.466.375.436.307.391.072.105.156.224.14.256.048.173-.048.082h-.002l-.139-.01-.228-.103-.307-.192-.167-.121-.001-.001-.206-.15-.426-.344-.463-.401-.481-.443-.481-.468-.463-.475-.426-.465-.374-.436-.307-.39-.229-.329-.141-.257-.049-.174M942.707 794.617l3.238-1.858.584-.336M946.531 792.422l.008-.014"/><path d="m938.304 786.504-.539.967-.002.003-.336.602-.001.003-.886 1.587-.001.001.057.092.148.18.232.263.308.335.372.394.422.439.455.465.471.474.469.466.449.438.411.395.357.335.29.263.212.182.126.092.034-.001.511-.288M937.995 786.25l-.693 1.228-.001.003-.024.171.068.257.08.168M983.613 751.147l.202.857.03.128.03.125.21.641.332.597.44.529.531.441.602.337.65.22.672.094.67-.036 1.179-.121"/><path d="m983.875 752.257-.017-.138-.018-.142-.027-.221-.02-.16.051-.655.181-.624.304-.57.416-.493.512-.397.588-.287.641-.165.67-.036.071.01.134.018.469.065.65.22.603.337.531.442.44.529.332.597.21.642.082.661-.052.655-.181.625-.305.569-.417.493-.512.397-.587.286-.357.092-.285.073"/><path d="m989.16 754.96.866-.222.794-.386.692-.537.563-.666.412-.769.245-.844.07-.885-.11-.894M936.539 789.666l.001.001M942.706 794.615l-.141-.009-.228-.103-.307-.192-.167-.121-.207-.152-.427-.343-.462-.401-.481-.443-.481-.468-.463-.476-.426-.464-.374-.436-.308-.39-.228-.33-.141-.256-.049-.174.047-.083.14.009M938.535 790.076l.374.272.427.344.464.401.482.444.482.47.464.476.427.466.375.436.307.391.073.105.155.224.14.256M942.707 794.616l.001-.001M946.066 791.487l.168.396.07.332-.02.169-.001.002-.009.082-.127.164-.001.002-.222.073-.044-.004-.263-.02-.38-.12-.262-.125-.001-.001-.175-.084-.481-.293-.503-.364-.256-.212-.001-.002-.25-.208-.492-.463-.458-.486-.405-.491-.339-.478-.159-.275-.099-.17-.168-.396-.003-.016-.068-.316.02-.176.009-.078.008-.01.027-.037.002-.002.09-.118.002-.001.219-.073.306.023.365.114.006.002.008.002.439.21M943.602 788.696l.509.423.26.245.035.032.198.187.458.488.072.087.005.005.264.321.001.001.065.078.047.067.014.019M946.145 792.635l.369-.212.002-.001.02-.011.002-.002 3.298-1.892M948.164 780.32l-.814 1.744-.003.007-.215.461-.002.005-.638 1.365-.101.333.004.404.11.461.109.257.004.009.098.233.305.518.186.249.006.008.194.26.125.137.001.002.327.359.502.458.532.4.402.243.01.007.13.079.532.243.499.149.449.05.382-.053.298-.153.256-.144.566-.317 2.647-1.486"/><path d="m946.492 783.902.204-.248.298-.154.38-.054.449.048.004.001.008.002.488.145.532.244.543.328.534.402.075.068.428.391.004.003.45.495.387.519.304.519.211.499.11.461.003.404-.103.332-.205.248M955.479 785.276l-.147-.623-.109-.259-.082-.195M954.825 775.121l-1.269 3.156-.056.472.057.521.169.549.274.556.368.542.448.508.512.453.555.381.577.295.024.008.188.064.366.125.555.092.513-.017.449-.125 3.025-1.602"/><path d="m953.555 778.278.168-.406.273-.324.368-.23.449-.126.233-.008.279-.01.556.092.578.197.579.295.556.381.513.454.449.508.346.51.023.034.071.145.202.412.169.549.04.376.016.145-.057.473-.169.405-.275.324-.368.228M961.582 781.1l.499-.309M963.235 767.707l-.829 2.766-.109.533.012.575.132.594.247.59.353.564.444.516.235.202.11.096.175.15.575.364.608.265.617.156.604.04.567-.075.507-.19 2.613-1.229"/><path d="m962.406 770.473.225-.472.334-.392.198-.137.23-.159.508-.191.566-.077.604.041.619.155.608.265.576.364.282.243.111.095.128.111.445.517.353.565.247.591.132.594.011.575-.11.534-.129.268-.097.203-.335.391-.429.296M970.098 773.624l.58-.4.452-.529.307-.637M972.799 759.537l-.278 2.101-.025.62.103.631.225.619.125.213.065.112.151.257.441.524.527.445.59.348.633.24.65.12.642-.002.61-.126 1.94-.697"/><path d="m972.52 761.639.151-.585.155-.301.116-.226.382-.449.477-.354.554-.244.611-.127.642-.003.651.121.419.158.124.047.09.034.592.349.527.445.442.524.34.583.226.62.102.632-.025.621-.152.584-.272.527-.383.449-.095.07-.382.283-.555.243M979.199 764.942l.75-.329.645-.477.517-.606.369-.712.205-.79.035-.839M998.011 743.188l-.608-.33-.534-.439-.438-.533-.327-.606-.202-.656-.07-.68.039-.407.016-.165.01-.106.197-.651.323-.598.435-.523.531-.426.606-.315.598-.172.061-.018.108-.009.577-.05.687.076.66.206.61.329.53.44.44.533.33.606.2.656.07.68-.07.679-.19.651-.33.598-.43.522-.53.426-.61.315-.66.19-.683.058-.686-.075-.66-.206Z"/><path d="m998.801 743.829.926.102.923-.079.89-.257.82-.424.72-.576.11-.138.48-.568.43-.808.02-.055.25-.824.09-.917-.1-.919-.27-.885M1010.39 730.946l-.61-.325-.54-.438-.44-.535-.32-.61-.2-.662-.07-.689.06-.689.05-.163.07-.205.08-.295.33-.611.44-.536.53-.44.61-.327.28-.086.2-.062.18-.054.69-.069.69.067.66.2.61.325.53.439.44.534.33.61.2.663.06.688-.06.689-.2.663-.33.611-.44.536-.53.44-.61.327-.66.202-.69.069-.68-.067-.66-.2Z"/><path d="m1011.54 732.253.93-.093.89-.273.36-.193.46-.249.72-.595.59-.723.31-.568.13-.258.27-.895.09-.931-.09-.93-.27-.894-.44-.824M1022.69 718.496l-.6-.326-.54-.439-.44-.534-.33-.609-.2-.66-.08-.687.05-.57.01-.117.01-.049.17-.611.32-.608.42-.532.52-.437.6-.324.64-.199.1-.009.16-.016.42-.042.68.069.65.201.61.326.53.438.44.534.33.608.21.661.07.686-.05.686-.19.66-.31.608-.43.533-.52.437-.59.325-.65.199-.68.067-.68-.068-.65-.201Z"/><path d="m1025.08 720.006.81-.439.7-.59.03-.041.54-.679.42-.821.26-.891.07-.928-.1-.927-.28-.891-.45-.822M1038.99 703.836l-.07.269-.09.373-.29.59-.39.513-.49.418-.57.306-.62.183-.65.053-.66-.08-.64-.209-.6-.331-.53-.44-.44-.531-.33-.603-.23-.65-.06-.463-.02-.131-.01-.08.03-.671.17-.643.28-.589.4-.513.49-.417.56-.306.63-.182.65-.052.18.022.18.022.14.016.16.02.64.21.59.33.53.439.44.531.34.602.22.65.09.674-.03.67Zm0 0-.11 1.176M1037.74 707.371l.54-.694.38-.796.22-.868"/><path d="m1036.17 699.731-.15-.035-.12-.029-.83-.2M1071.17 653.046l-.93.53M1073.33 652.295v-.001l-1.56.877v.002l-.6.336v.001l-.68.379M1073.44 653.767l-.01-.138v-.002l.08-.047.18.048.25.14.33.227.39.307.44.372.46.426.47.461.47.48.44.48.4.461.34.426.16.21.12.163.19.307.1.228.01.141v.001l-.08.048M1077.75 658.321l-.22-.151v-.001l-.11-.075M1073.51 653.58l-.61.336-.01.002-1.09.599v.001l-.55.297-.81.446-.2.106M1074.2 665.594l1.87-3.302v-.003l.02-.033v-.002l.2-.348.07-.222-.03-.307-.12-.379-.12-.252v-.002l-.01-.021-.08-.163-.29-.48-.36-.502-.2-.244-.01-.002-.21-.26-.46-.491-.49-.457-.07-.062-.42-.342-.48-.337-.44-.257-.35-.147-.04-.02-.33-.07-.13.014-.13.015-.03.018v.001l-.68.348v.002l-.32.164-.07.035v.002l-1.33.684v.002l-.99.508"/><path d="M1076.29 661.906v.002l-.17.127-.06.007v.001l-.19.022-.33-.069-.39-.166-.45-.257-.21-.149-.04-.026-.22-.162-.07-.055v-.001l-.26-.212v-.004l-.17-.134-.48-.457-.44-.47-.03-.022v-.005l-.42-.502-.36-.504-.29-.48-.21-.438-.03-.104-.01-.006-.08-.269-.02-.307.07-.218v-.003l.13-.104.01-.001.01-.014.01-.008M1070.32 670.833l1.5-2.708.29-.519.13-.238.15-.299.05-.382-.05-.449-.15-.499-.24-.53-.09-.154-.01-.011-.23-.377-.4-.531-.45-.501-.34-.308v-.002l-.16-.142-.16-.12-.01-.005-.35-.26-.51-.303-.21-.089-.01-.004-.28-.117-.46-.109-.4-.004-.33.102-1.27.597-.01.003-.46.216-1.82.856"/><path d="M1072.24 667.367v.002l-.25.203-.33.103-.4-.002-.46-.108-.5-.21-.51-.304-.52-.385-.42-.38-.05-.051-.03-.022-.41-.447-.05-.055-.4-.533-.32-.542-.25-.532-.15-.499-.01-.103v-.007l-.04-.339.06-.381.15-.294v-.004l.24-.196.01-.008M1064.85 677.358l1.58-3.023.13-.449.01-.512-.09-.555-.14-.409-.06-.168v-.005l-.29-.572-.39-.554-.45-.511-.5-.447-.54-.368-.56-.272-.55-.168-.51-.056-.47.057-3.14 1.269"/><path d="m1066.43 674.335-.01.026-.21.343-.01.003-.32.272-.4.17-.47.058-.14-.014-.01-.001-.37-.04-.55-.167-.4-.201-.15-.072-.02-.012-.52-.356-.51-.448-.45-.512-.38-.555-.3-.578-.2-.578-.09-.555.01-.278v-.009l.01-.226.12-.448.23-.365v-.004l.32-.273.04-.016.37-.153M1064.54 677.86v-.003l.31-.5M1057.43 685.889l1.21-2.61.19-.508.07-.567-.04-.604-.16-.617-.26-.608-.36-.574-.18-.199-.09-.104-.18-.216-.52-.444-.56-.351-.59-.246-.59-.131-.57-.011-.53.11-2.75.83"/><path d="m1058.64 683.279-.01.016-.28.413-.01.004-.38.332-.2.095-.01.004-.26.128-.53.111-.57-.01-.59-.131-.59-.246-.57-.352-.51-.444-.11-.123-.09-.104-.25-.293-.37-.576-.26-.608-.16-.618-.04-.604.08-.567.18-.508.16-.226.01-.009.13-.189v-.005l.39-.334.43-.21.04-.016M1048.81 695.011l.69-1.939.12-.61v-.643l-.12-.65-.24-.632-.35-.59-.44-.526-.53-.441-.28-.164-.1-.062-.2-.114-.62-.224-.62-.102-.62.026-2.09.278"/><path d="m1049.49 693.073-.03.067-.21.489-.28.378v.012l-.07.088v.005l-.45.379-.52.273-.58.153-.62.027-.63-.101-.62-.225-.58-.339-.52-.442-.45-.526-.35-.592-.03-.083-.04-.119-.17-.431-.12-.65v-.643l.13-.611.24-.555.35-.473v-.006l.45-.382.21-.112.02-.009.29-.152.52-.135.06-.017"/><path d="m1049.61 692.472-.13.611-.24.555-.27.366v.012l-.07.096-.01.005-.44.383-.53.274-.58.153-.62.026-.63-.1-.61-.225-.59-.34-.52-.441-.44-.527-.35-.591-.04-.084-.04-.12-.16-.429-.13-.651.01-.643.12-.611.24-.555.35-.478.01-.004.44-.379.23-.12.02-.008.27-.144M1046.73 688.426l.62.225.2.113.1.062.28.164.53.441.44.526.35.59.24.633M1044.21 697.414l.86.136.83-.036M1052.02 686.394l.76.476.79.332.8.176.78.013.72-.15.63-.308.53-.454M1058.82 682.778l-.19.508-.29.425v.005l-.39.335-.19.092-.01.004-.27.131-.53.111-.57-.01-.59-.13-.59-.246-.57-.352-.51-.445-.11-.124-.09-.103-.25-.293-.36-.575-.27-.608-.16-.619-.04-.604.08-.567.19-.507.16-.235v-.009l.13-.186.01-.003.38-.331M1058.07 679.81l.36.574M1058.7 680.99l.15.618.04.603M1054.79 678.106l.57.011.59.131M1056.54 678.494l.57.352M1060 677.383l.11.079.15.099.47.319.75.368.74.226.7.074.64-.08.54-.23.44-.373v-.004M1066.42 674.341l-.22.365v.005l-.32.274-.41.17-.47.059-.12-.014-.01-.001-.38-.041-.55-.167-.41-.202-.15-.071-.02-.013-.52-.354-.51-.449-.45-.511-.38-.556-.3-.578-.19-.578-.1-.555.01-.287v-.008l.01-.217.12-.449.23-.368.01-.004M1062.01 669.353l.47-.057.52.056.54.168.56.273.54.367.5.447.46.511.38.554.29.571M1066.33 672.416l.14.41.1.555-.02.512M1066.29 669.895l.7.521.7.411.17.069.24.099.27.114.62.146.54.003.45-.141.33-.279M1072.24 667.37v.003l-.25.205-.33.104-.4-.003-.46-.108-.5-.21-.52-.303-.51-.386-.36-.329-.06-.05-.08-.073-.46-.503v-.001l-.02-.03-.38-.501-.33-.543-.24-.531-.15-.5-.01-.112v-.007l-.04-.329.05-.381.16-.298v-.002l.24-.202.33-.102.41.003M1071.67 664.673l.22.362v.01l.11.169M1072.39 666.243l.05.449-.05.381"/><path d="M1070.31 670.838v-.003l.02-.03 1.49-2.678.29-.519.13-.235M1069.28 662.5l.52.304M1074.22 661.24l-.06-.054v-.002l-.26-.207v-.004l-.17-.139-.49-.457-.46-.492-.02-.024-.01-.015-.39-.469-.36-.503-.3-.48-.21-.438-.03-.113v-.006l-.08-.261-.03-.306.07-.221.01-.001.13-.106.01-.001.02-.019.13-.015.12-.014.33.07.06.025.34.142.44.256.48.338.43.357.06.047.48.457.47.49.21.262v.001l.21.244.36.502.29.48.07.146.02.039v.001l.12.252.12.379.03.307-.07.22v.002l-.17.129-.06.007-.19.023-.33-.069-.4-.166-.44-.257-.13-.094-.04-.026-.31-.217Z"/><path d="M1074.2 665.597v-.006l1.87-3.3v-.002l.02-.035v-.002l.2-.343M1071.91 665.055l.14.098.6.346.53.224.45.092.34-.042.22-.175M1078.26 658.46l-.08.048-.18-.047-.25-.139-.22-.151v-.001l-.11-.075-.39-.306-.43-.374-.47-.426-.47-.462-.47-.481-.44-.481-.41-.463-.34-.426-.27-.373-.19-.307-.1-.227-.01-.14.08-.047.18.048.25.14.33.228.39.306.43.372.47.426.47.461.47.48.44.48.4.461.34.426.16.21v.001l.12.163.19.306.1.229.01.139v.002Zm0 0-1.65 2.904-.52.914M1073.51 653.582l-.08.045M1078.13 657.095v-.034l-.09-.125-.19-.211-.26-.289-.33-.356-.4-.41-.43-.447-.47-.468-.47-.47-.47-.454-.43-.421-.4-.371-.33-.308-.26-.232-.18-.147-.09-.057M1073.33 652.295l-1.56.877v.001l-.6.337v.001l-.68.379M1071.17 653.044v.002l-.93.53"/><path d="m1071.77 653.171-.17-.082-.26-.069-.17.024M1108.56 896.589v-.002l-.01-.12.04-.126.09-.078.04-.008v-.001l.1-.018.19.026.23.078.25.126.04.02.11.072.01.002.12.075.29.207.28.236.28.256.25.266.21.266.18.256.13.236.04.131.03.076.02.17-.04.126-.09.076v.002l-.14.025-.19-.026-.23-.077-.25-.126-.03-.014v-.001l-.25-.155-.29-.207-.28-.235-.04-.039v-.001l-.23-.216-.25-.266-.21-.256v-.001l-.01-.009-.18-.256-.04-.084-.01-.009v-.002l-.01-.016-.06-.124-.08-.207M1111.36 898.938l.42-.258 1.55-.94"/><path d="m1113.33 897.74.12-.105.05-.171-.02-.23-.1-.28-.18-.319-.04-.061M1106.19 897.04l.05-.032.04.008.06.012.15.07.18.118.23.161.25.198.15.129v.001l.11.098.28.249.26.259.26.261.19.215v.001l.03.036.2.233.15.206.11.171.06.128v.081l-.03.021-.01.011-.01-.001-.09-.019M1107.93 899.051l.07.056.25.198.22.161M1108.91 899.675l1.6-.952M1106.25 897.25l.11.171.16.205.19.233.23.252.25.261.27.259M1104.92 896.576l.06.065.1.114.15.158.19.196.22.227.24.249.26.261.26.263.26.256.24.237.21.211.19.176.14.134.1.087.04.037.35-.196M1104.86 894.815l-.1.171v.008l.01.109.06.156.1.197.16.23.18.242M1133.66 877.963l.24.598.18.323.23.288.29.24.33.185.36.122.37.054.37-.015.35-.085.64-.207M1137.02 879.466l.44-.203.38-.285.32-.356.23-.411.14-.453.04-.475-.05-.481-.15-.469-.24-.437"/><path d="m1133.9 878.561-.11-.346-.01-.022-.03-.333.03-.352.1-.335.18-.305.23-.262.28-.211.33-.15.35-.085.37-.016.37.055.36.122.33.184.29.241.24.288.18.323.11.346.04.356-.04.352-.1.335-.17.304-.23.263-.29.21-.07.034-.26.116M1104.86 894.814l-.1.178v.001M1105.64 895.252l-.06.106v.002l-.31.568v.001l-.35.633v.015M1107.03 895.414l-.25.477-.22.423v.002l-.33.651-.01.001-.03.072v.082l.06.128.11.171.15.205.2.234.23.251.25.261.27.259.27.248.2.173.06.055.25.198.23.161.19.118.14.071.1.02M1108.89 899.434l.06.128v.081l-.05.031"/><path d="M1106.19 897.04v-.002l.05-.03.04.008v.001l.06.011.14.07.19.118M1107.3 897.703v.002l.11.097.27.249.27.259.26.261M1109 895.464v.001l-.16.343v.001l-.19.395v.001l-.06.138-.04.126.01.116v.002l.01.052.08.207.06.121.01.02v.001l.05.094.18.249v.006l.22.266.25.266.23.217.04.039.28.236.29.206.25.156.03.014.25.126.23.077.19.027.14-.027.01-.001M1111.08 897.867l.18.256.13.236.04.127.03.08"/><path d="M1108.59 896.342v-.003l.09-.075.04-.009h.01l.09-.017.19.026.23.077M1111.48 898.736l-.04.126-.09.077M1109.49 896.468l.04.022.12.076.01.003.11.068.29.207M1112.77 892.689l-.8 1.96-.02.21.05.242.09.244.01.006v.015l.16.278.21.28.24.271.28.252.16.122.01.005.13.096.3.187.31.141.28.092.27.038.23-.017.18-.071 1.82-1.118"/><path d="m1116.68 895.923.18-.166.1-.229.02-.284-.06-.328-.14-.359-.21-.376-.28-.379-.33-.368M1111.97 894.65l.07-.17.13-.123.19-.071.22-.017.27.038.29.091.3.142.27.161.04.025.29.223.28.253.13.147.12.124.2.28.16.279.1.265.05.242-.02.21-.07.169-.13.123M1116.94 889.907l-.58 1.802-.05.248.02.275.08.293.14.298.2.293.24.276.29.249.3.212.33.166.32.116.32.059.29.001.27-.057.21-.114 1.63-.986M1120.95 893.038l.23-.224.14-.284.07-.336-.03-.373-.11-.396-.19-.404-.26-.396"/><path d="m1116.36 891.709.11-.211.16-.165.22-.114.24-.052.02-.005.3.001.31.059.33.115.32.166.31.212.28.249.25.277.19.293.15.299.08.292v.091l.02.185-.05.248-.11.21-.17.165M1121.82 886.514l-.31 1.5v.306l.06.317.13.318.19.304.24.281.28.245.32.201.34.15.34.091.34.03.33-.033.29-.093 1.31-.756"/><path d="m1121.51 888.014.07-.282.14-.247.17-.176.02-.028.25-.152.29-.094.32-.032.34.029.35.091.34.15.31.201.29.246.24.28.19.305.13.318.06.318v.305l-.08.282v.009l-.13.239-.2.203-.24.152M1125.68 889.374l.33-.205.26-.275.19-.334.1-.382v-.413l-.08-.43-.18-.429M1127.39 882.347l-.01 1.132.04.339.12.333.18.315.24.284.29.243.33.192.34.134.37.071.35.005.34-.062.32-.125 1.03-.524M1131.34 884.683l.36-.249.3-.32.21-.377.12-.421.03-.448-.06-.459-.16-.45-.25-.426"/><path d="m1127.38 883.478.02-.332.08-.275.01-.036.16-.279.21-.236.27-.185.31-.125.35-.062.35.005.36.07.35.134.33.193.28.243.24.284.19.315.12.333.04.339-.02.332-.09.311-.16.279-.1.107-.11.13-.27.184M1140.97 873.234l.45.243.48.153.51.057.51-.04.48-.137.45-.227.39-.31.33-.38.24-.436.15-.475.05-.496-.05-.497-.15-.48-.24-.445-.32-.391"/><path d="m1141.6 873.399-.33-.18-.29-.239-.24-.289-.17-.329-.11-.355-.04-.368.04-.367.11-.351.18-.322.24-.282.29-.229.33-.168.36-.102.37-.029.38.042.36.113.33.18.29.239.24.29.18.328.1.355.04.368-.04.367-.11.351-.18.323-.24.281-.29.23-.33.168-.36.101-.37.03-.38-.043-.36-.113ZM1147.43 866.943l.45.238.49.147.5.047.5-.05.49-.149.44-.241.4-.324.32-.395.23-.449.15-.488.05-.508-.05-.505-.15-.487-.24-.448-.32-.393"/><path d="m1148.37 866.788-.33-.177-.29-.238-.24-.29-.18-.332-.11-.36-.04-.375.04-.375.11-.36.17-.333.24-.292.29-.239.33-.179.36-.11.37-.038.37.036.36.108.33.177.29.238.24.29.18.332.11.36.04.375-.04.375-.11.36-.17.333-.24.292-.29.24-.33.178-.36.11-.37.038-.37-.036-.36-.108ZM1155.01 859.978l-.33-.176-.29-.238-.23-.291-.18-.332-.12-.361-.04-.376.02-.376.1-.363.17-.334.23-.294.27-.241.32-.181.35-.112.37-.039.36.035.36.107.33.176.29.238.23.29.18.332.12.361.04.376-.02.376-.1.363-.17.334-.23.294-.27.241-.32.181-.35.112-.37.04-.36-.035-.36-.107Z"/><path d="m1154.25 860.679.48.145.49.046.5-.053.47-.152.43-.244.38-.326.3-.397.23-.453.13-.489.04-.509-.06-.508-.16-.488-.24-.449-.32-.392M1159.88 853.94l.43.24.47.149.48.052.47-.047.45-.144.41-.235.35-.318.28-.388.2-.443"/><path d="m1163.62 852.17-.11.248-.03.08-.21.287-.26.235-.3.174-.34.106-.35.035-.35-.039-.35-.11-.32-.178-.29-.238-.24-.29-.18-.33-.13-.357-.05-.372.01-.371.09-.356.14-.328.21-.287.26-.235.3-.174.34-.106.35-.034.33.037.02.001.34.111.33.177.28.239.24.289.19.33.12.357.06.372-.01.37-.09.357Zm0 0-.2.635M1162.5 849.679l-.59-.241M1182.67 826.941v-.001l.02-.144-.02-.19-.08-.228-.13-.257-.01-.02v-.001l-.16-.257-.21-.286-.23-.285-.04-.038v-.001l-.22-.233-.26-.249-.17-.139v-.001l-.1-.076-.04-.028M1182.09 826.977l-.24-.128M1179.99 824.6l-.02-.19.02-.129v-.003"/><path d="m1182.67 826.939-.08.092-.13.038M1180.17 824.147l-.1.028-.11.054v.001l-.41.196v.001l-.32.152v.001l-.96.461M1181.33 826.458l-.26-.249-.26-.273-.23-.285-.21-.287-.09-.145v-.005l-.07-.115"/><path d="m1180 824.268.07-.089v-.003M1179.69 832.302l1.1-1.833.07-.184.02-.228-.04-.264-.09-.289-.15-.304-.18-.306-.11-.143v-.007l-.12-.148-.25-.276-.27-.246-.28-.205-.27-.157-.01-.001v-.002l-.26-.1-.24-.044-.21.016-1.94.815"/><path d="m1180.29 830.695-.24-.044-.26-.102M1180.67 830.603l-.17.076M1178.03 828.202l.01-.228M1180.79 830.47v.002M1178.3 829.059l-.15-.304-.09-.289M1178.11 827.79l.13-.132.07-.034.09-.042M1179.23 830.186l-.1-.095-.02-.014-.15-.137-.25-.278M1176.85 836.605l.97-1.638.11-.219.05-.263v-.296l-.06-.317-.12-.327-.16-.324-.22-.308-.24-.281-.28-.243-.29-.196-.3-.141-.29-.08-.27-.017-.25.047-1.79.593"/><path d="M1177.81 834.967v.002l-.16.166-.21.11-.24.047-.19-.011-.09-.005M1175.02 833.374l-.06-.318v-.321l.05-.237.11-.219.17-.168.19-.1.02-.009M1176.04 834.859l-.28-.243-.24-.282M1173.23 841.364l.74-1.317.09-.292.03-.321-.03-.341-.09-.346-.15-.339-.2-.317-.25-.285-.28-.241-.3-.188-.32-.127-.32-.062-.3.005-1.49.312M1172.78 840.711l-.31-.062"/><path d="m1173.62 840.494-.24.131v.002l-.01.005M1170.88 838.142l.09-.291M1171.12 837.601l.03-.025v-.005l.17-.168.25-.137.2-.052.08-.021M1173.97 840.048l-.02.031-.13.218M1173.02 841.702v-.002l.2-.337M1170.97 839.152l-.09-.347M1168.59 847.069l.51-1.044.13-.313.06-.343-.01-.359-.07-.361-.14-.35-.19-.325-.24-.288-.29-.239-.31-.182-.33-.117-.34-.048-1.12.015M1167.77 846.794l-.34-.048-.33-.117"/><path d="m1165.91 844.181.13-.313.18-.272.23-.22.28-.159.03-.009.01-.004.27-.081.23-.016.1-.007M1169.1 846.024v.011l-.18.261-.12.119-.01.004-.1.097-.28.16M1168.34 847.438v-.002l.25-.368M1166.07 845.595l-.14-.35-.07-.362"/><path d="m1165.07 847.321.38.323.43.246.45.158.45.065.45-.032.42-.126.37-.216.32-.298v-.003M1168.91 846.303l-.12.114v.004l-.11.102-.28.159-.31.094-.33.023-.33-.048-.34-.117-.31-.181-.28-.24-.25-.288-.19-.325-.13-.35-.08-.362v-.359l.06-.342.12-.314.18-.272M1169.1 846.03l.12-.314.06-.343-.01-.359-.07-.361-.13-.35-.2-.325-.24-.287-.28-.24-.32-.181-.33-.117-.34-.048"/><path d="m1166.45 843.38.28-.159.04-.012.01-.003.26-.078.33-.023M1169.98 841.433l.38.326.41.253.43.172.42.084.41-.008.38-.1.33-.187.28-.267v-.003M1173.96 840.052l-.15.249-.2.197-.23.13v.002l-.02.007-.28.073-.3.006-.32-.062-.31-.127-.31-.188-.28-.241-.24-.285-.2-.318-.15-.339-.1-.347-.03-.341.03-.322.1-.291.15-.249.03-.03v-.005M1174.05 839.761l.03-.322-.03-.341-.09-.346M1171.56 837.271l.28-.073.31-.006.31.062M1173.37 837.811l-.28-.241-.31-.188M1174.07 836.135l.37.329.4.265.4.19.4.108.37.022.33-.064.28-.149.22-.227M1177.81 834.968v.003l-.16.167-.21.11-.24.048-.18-.011h-.01l-.09-.006-.29-.08-.3-.141-.29-.196-.28-.243-.25-.282-.21-.308-.16-.325-.12-.327-.06-.317v-.327l.05-.232.11-.219M1177.8 833.549l-.17-.324M1177.98 834.488v-.295l-.06-.318M1176.84 836.609v-.003l.01-.007.96-1.627M1176.02 831.976l-.28-.017-.24.047M1176.9 832.393l-.29-.196-.3-.141M1177.21 831.591l.37.333.38.278.37.212.36.138.32.059.29-.023.22-.102.17-.18M1180.84 829.797l.04.264-.02.228-.07.182v.002l-.12.132-.17.076-.21.017-.24-.044-.26-.103-.28-.156-.28-.206-.09-.081-.01-.013-.17-.152-.25-.277-.23-.298-.03-.056-.01-.012-.14-.238-.15-.304-.09-.29-.04-.264.02-.228.07-.184.12-.132.17-.075.21-.016M1180.6 829.204l-.19-.307-.11-.153-.01-.007-.1-.137-.25-.277-.27-.246M1179.69 832.306v-.003l1.1-1.829M1182.69 826.799l-.02.142v.001l-.01.002-.07.091-.13.037-.05-.006-.12-.012-.2-.075-.24-.127-.25-.175-.27-.217-.26-.249-.26-.272-.23-.285-.21-.287-.1-.156v-.005l-.07-.107v-.01l-.13-.258-.08-.228-.02-.189.02-.133v-.01l.08-.093M1182.59 826.381l-.13-.258-.01-.02v-.001l-.16-.256"/><path d="m1181.48 828.924 1.02-1.699.16-.284M1180.31 828.752l.07.052.32.172.28.1.23.025.17-.051.1-.125M1181.33 824.753l-.16-.124v-.001M619.333 438.088l.002-.001.113-.121.184-.044.247.036.299.115.341.189.369.257.383.314.382.359.367.39.338.407.063.088.001.001.003.005.003.003.043.06.006.008.176.243.241.392.178.362.108.318.007.059.001.005.025.198-.041.195-.002.002-.114.12-.146.034-.002.001-.036.008-.178-.027-.069-.01-.299-.115-.084-.047h-.001l-.256-.143-.326-.227-.002-.001-.04-.028-.383-.314-.381-.358-.367-.39-.187-.225-.001-.001-.149-.18-.294-.407-.241-.392-.077-.155-.102-.207-.108-.318-.034-.262.04-.194v-.002Zm0 0 1.711-2.853M623.055 442.049l.003-.002M618.191 441.359l.004-.005.044-.055.12.015.187.091.247.163.297.228.21.177.001.001.125.106.362.331.375.363.371.383.355.386.325.377.013.016.022.027.247.308.046.062.016.022.166.228.166.262.097.201.024.133-.049.059-.121-.016-.187-.092-.247-.163-.297-.228-.335-.284-.362-.33-.373-.363-.371-.381-.355-.387-.324-.375-.031-.038-.001-.001-.25-.312-.228-.312-.166-.262-.098-.202-.025-.132v-.001Zm0 0 .999-1.701.344-.585M621.961 445.238l.003-.002M618.956 442.582l-.241.429.056.077.128.148.194.211.254.268.304.314.341.347.366.368.376.374.373.366.354.344.322.309.278.261.223.203.159.139.09.068M647.684 401.867l-.264.963-.123.508-.024.531.078.532.175.513.266.474.347.417.414.344.466.258"/><path d="m647.422 402.831.095-.203.124-.265.305-.408.38-.334.441-.245.484-.148.509-.046.515.06.5.161.466.258.415.345.347.417.266.475.175.513.077.532-.024.531-.123.509-.219.467-.306.408-.38.333-.441.245-.484.148-.509.045-.403-.046-.111-.013-.5-.162M622.535 446.808h.001l.016-.005M622.551 446.802l.481-.267M622.01 445.18l.001.002-.046.055-.003.004-.121-.016-.187-.092-.247-.163-.297-.228-.336-.284-.361-.33-.374-.363-.371-.381-.354-.386-.325-.376-.031-.039-.001-.001-.249-.311-.229-.312-.166-.262-.097-.202-.025-.133v-.001l.048-.059M621.215 443.923l.025.032.023.027.234.292.032.044.019.026.177.242.165.262.097.201"/><path d="m621.961 445.241.268-.141.012-.006.002-.001M618.793 441.57l.297.228M619.297 441.976l.001.001.126.106.362.331.374.363.372.383M623.168 441.929v.002l-.111.116-.004.005-.143.034h-.002l-.04.01-.171-.026-.076-.011-.299-.116-.072-.04h-.001l-.267-.149-.327-.228-.002-.001-.04-.028-.382-.313-.382-.359-.367-.389-.187-.226-.15-.18-.294-.407-.241-.392-.077-.156v-.001l-.101-.205-.109-.318-.034-.262.041-.196.001-.002M622.355 439.993l.063.087.002.002.004.006.003.004.029.04.006.008.188.26.241.392.178.363.108.318.007.052M619.629 437.926l.247.037.299.115.341.189.369.257M623.055 442.051l.4-.193.002-.001M623.733 430.628l-1.593 2.651-.105.254-.027.319.052.371.129.408.201.43.244.401.005.007.017.028.319.425.362.397.39.354.403.298.4.231.149.06.007.002.227.092.351.071.304-.014.248-.099"/><path d="m622.141 433.278.179-.181.247-.099.305-.015.35.071.384.153.401.231.403.298.316.287.075.068.362.398.192.255.128.17.266.437.201.431.129.408.051.371-.027.318-.106.254-.18.18M627.958 424.67l-1.401 2.382-.166.307-.085.37-.001.417.082.45.164.465.238.462.304.441.357.404.398.351.422.284.431.207.422.122.399.032.359-.06"/><path d="m626.559 427.051.241-.232.305-.149.359-.06.243.019.156.012.424.121.431.207.423.285.398.351.358.405.304.442.238.462.163.466.083.45-.002.376v.041l-.086.369-.167.307-.241.232-.306.148M633.298 418.015l-1.064 1.933-.137.412-.05.457.041.485.13.494.213.484.289.455.354.41.404.348.439.272.458.188.459.095.442-.002"/><path d="m632.234 419.947.221-.351.296-.276.297-.159.062-.033.409-.098.442-.002.459.094.459.188.44.273.405.348.353.41.289.456.214.485.129.494.041.485-.05.457-.138.412-.209.331-.013.02-.296.276-.359.19-.409.098M640.117 409.98l-.726 1.546-.183.445-.091.488.005.512.101.517.192.501.276.466.35.414.41.346.454.264.481.172.49.074"/><path d="m639.391 411.526.268-.385.129-.117.213-.194.405-.224.451-.128.479-.028.49.074.482.172.455.264.41.346.35.414.277.467.192.502.1.517.005.512-.091.488-.183.445-.269.385-.343.31-.382.211-.023.012-.45.128-.48.028M658 396.842l-.474-.255-.418-.344-.345-.418-.259-.478-.163-.519-.06-.539.043-.539.147-.519.243-.478.332-.419.406-.345.467-.255.507-.158.53-.054.531.053.513.157.474.256.418.343.345.419.259.478.163.519.061.539-.044.54-.147.518-.244.478-.331.42-.407.344-.466.255-.508.158-.529.053-.532-.053-.512-.157ZM667.549 387.099l-.479-.256-.419-.343-.343-.419-.255-.478-.157-.518-.052-.538.055-.538.159-.518.257-.476.346-.418.421-.342.479-.254.52-.156.541-.052.54.054.52.158.478.255.419.344.344.419.255.478.156.517.052.539-.054.538-.159.517-.258.477-.345.417-.421.343-.48.254-.52.156-.54.052-.541-.054-.519-.158ZM677.358 377.497l-.479-.259-.419-.345-.343-.417-.254-.473-.156-.511-.051-.53.056-.527.161-.504.258-.464.347-.402.423-.328.48-.241.522-.143.541-.041.541.062.52.165.479.26.418.345.344.417.254.473.155.51.051.529-.055.527-.161.505-.258.463-.347.403-.422.328-.481.241-.521.144-.542.041-.541-.064-.52-.164ZM690.633 365.14l.16.498.012.1.046.411-.047.507-.151.481-.247.437-.336.377-.411.302-.469.216-.512.121-.532.021-.534-.079-.514-.176-.475-.267-.417-.347-.344-.414-.257-.465-.161-.498-.057-.513.048-.506.15-.481.248-.438.336-.376.411-.302.273-.125.197-.091.511-.12.533-.021.533.079.514.177.474.266.417.347.344.414.257.465ZM687.05 363.532l-.964.256M731.078 339.293l.184-.326.005-.016-.001-.001M729.028 339.622l.524-.981.001-.002.081-.153.055-.103-.016-.12-.09-.187-.162-.246-.227-.296-.284-.335-.329-.361-.362-.373-.381-.37-.385-.354-.375-.323-.042-.034h-.001l-.308-.248-.312-.228-.262-.166-.202-.097-.134-.025h-.001"/><path d="m729.691 338.383-.004.003-.056.046h-.001l-.132-.025-.014-.006-.187-.09-.204-.129-.058-.037-.009-.006-.021-.016-.283-.206-.35-.281-.154-.133-.018-.015-.204-.176-.386-.355-.382-.371-.363-.373-.329-.361-.109-.129-.001-.001-.174-.206-.227-.296-.162-.246-.09-.187-.015-.119.06-.048h.001M726.091 340.267l.217-.441.001-.002.178-.363.039-.161v-.002l.005-.021-.032-.219-.004-.026-.114-.298-.078-.14v-.001l-.111-.198-.232-.335-.001-.002-.022-.031-.313-.381-.357-.381-.389-.366-.231-.191-.001-.001-.174-.145-.406-.294-.392-.241-.159-.079h-.001l-.202-.1-.319-.108-.263-.036-.196.04-.003.002"/><path d="m726.484 339.461-.005.004-.117.11-.003.001-.194.04-.133-.018h-.004l-.125-.017-.318-.108-.363-.178-.392-.241-.2-.145-.008-.006-.113-.081v-.001l-.086-.062-.406-.337-.39-.367-.358-.381-.313-.382-.256-.368-.188-.34-.114-.298-.035-.245.044-.183.122-.112.002-.002M721.724 342.192l.1-.245.015-.303-.07-.349-.097-.243-.003-.008-.052-.13-.23-.399-.297-.402-.353-.389-.397-.361-.424-.32-.011-.007-.009-.005-.416-.254-.431-.201-.408-.131-.372-.053-.319.026-.256.104-2.659 1.567"/><path d="m721.723 342.191-.006.006-.175.172-.003.001-.252.104-.319.026-.372-.053-.409-.129-.431-.202-.436-.266-.139-.104-.025-.019-.261-.197-.398-.362-.074-.082-.02-.022-.26-.286-.297-.402-.23-.4-.152-.381-.069-.349.016-.303.1-.245.18-.175.002-.002M715.682 346.208l.061-.357-.03-.396-.12-.421-.206-.429-.284-.421-.35-.397-.403-.357-.441-.303-.462-.239-.465-.165-.451-.084-.419-.001-.37.083-.308.164-2.391 1.379"/><path d="m715.683 346.208-.015.031-.135.273-.233.238-.004.002-.304.162-.37.084h-.419l-.451-.084-.465-.164-.463-.239-.442-.304-.404-.357-.351-.398-.283-.421-.206-.43-.12-.421-.012-.155v-.006l-.018-.236.062-.357.151-.303.231-.235.003-.003M708.387 351.539l.003-.439-.093-.457-.186-.456-.272-.438-.347-.404-.409-.353-.456-.289-.484-.214-.494-.131-.486-.043-.459.047-.414.135-1.938 1.045"/><path d="m708.384 351.54-.1.406-.002.005-.19.351-.278.294-.004.002-.012.008-.007.004-.329.204-.413.136-.459.047-.486-.042-.496-.131-.485-.214-.456-.29-.409-.353-.348-.404-.272-.439-.186-.456-.093-.458.004-.439.1-.406.033-.06.002-.005.158-.291.276-.29.003-.003.329-.203.023-.015M700.018 358.068l-.072-.487-.171-.48-.263-.453-.345-.409-.414-.35-.467-.276-.502-.194-.517-.102-.514-.007-.49.088-.447.179-1.55.713"/><path d="m700.018 358.067-.03.477-.13.447-.01.018-.007.012-.208.372-.313.34-.004.003-.383.262-.447.18-.49.089-.513-.007-.519-.102-.502-.193-.467-.277-.415-.35-.345-.41-.263-.453-.171-.48-.071-.488.03-.477.13-.448.226-.401.192-.208.006-.007.111-.121.004-.004.373-.255.014-.01"/><path d="m699.626 359.401-.309.336-.003.003-.387.266-.447.18-.49.088-.514-.007-.518-.102-.503-.193-.467-.277-.414-.35-.346-.409-.263-.454-.17-.48-.072-.487.03-.477.13-.448.226-.402.198-.214.006-.007.109-.118.004-.003.383-.262M700.01 358.074l-.03.476M696.746 355.316l.513.007M705.117 352.615l-.457-.29-.41-.353-.347-.404-.272-.439-.186-.457-.093-.457.004-.44.1-.406.035-.064.003-.006.155-.286.279-.292.004-.003.348-.215.414-.136.459-.047.485.043.495.131.484.215.456.289.409.353.347.403.272.438.186.457.093.456-.003.44-.1.406-.192.356-.275.29-.003.003-.009.006-.007.004-.336.209-.413.136-.459.047-.486-.042-.496-.131-.484-.214ZM715.294 346.752l-.002.003-.308.164-.369.084H714.195l-.45-.084-.466-.165-.463-.238-.441-.304-.405-.358-.35-.397-.284-.422-.206-.429-.12-.422-.012-.161-.001-.005-.017-.23.062-.357.151-.303.234-.239.003-.001M715.383 344.608l.206.429.12.421M711.429 342.889l-2.363 1.363M712.105 342.643h.419l.45.084.466.165.462.239.442.304M721.54 342.37l-.002.002-.255.105-.319.026-.372-.052-.409-.13-.431-.202-.436-.266-.115-.086-.024-.018-.286-.216-.398-.362-.094-.104-.019-.021-.241-.264-.297-.403-.23-.4-.152-.381-.069-.349.016-.303.1-.245.182-.177.003-.001M719.902 339.041l.007.004.001.001.423.319.397.361.353.389.297.402.23.399.047.118M721.764 341.298l.07.349-.015.303-.1.245M717.688 338.524l-2.653 1.563M718.262 338.395l.372.054.409.13M726.359 339.576l-.001.001-.196.041-.126-.017-.005-.001-.131-.017-.319-.108-.362-.179-.392-.241-.183-.132-.008-.006-.129-.093-.001-.001-.087-.062-.406-.337-.39-.367-.358-.382-.313-.382-.256-.368-.188-.339-.114-.298-.035-.246.045-.182.122-.113.001-.001h.001M725.93 338.029l.022.031.001.002.233.334.104.187.084.153.115.298.003.019M722.529 335.746l-2.861 1.683M722.727 335.707l.263.035M723.305 335.851l.203.1.159.079.392.241.407.294.174.145.001.001M729.687 338.383l-.059.049-.133-.024-.203-.097-.223-.141-.035-.023-.003-.002-.016-.011-.297-.216-.351-.282-.164-.141-.018-.016-.193-.167-.386-.354-.382-.371-.363-.374-.329-.361-.109-.128-.001-.001-.174-.206-.227-.297-.162-.246-.09-.186-.015-.12.056-.044.005-.004M729.195 337.534l.227.296.162.247.09.186"/><path d="m725.816 334.62-1.523.878-.781.45M727.453 335.742l.385.353.381.371.362.372M731.266 338.951l-.068-.089-.139-.159-.203-.222-.261-.277-.308-.321-.343-.353-.366-.372-.373-.375-.367-.365-.347-.341-.313-.303-.267-.254-.211-.194-.146-.128-.077-.057M727.476 335.141l-.441.244M630.453 457.731l.001-.001.125-.128.202-.044.268.043.081.032.245.096.371.207.4.28.416.341.414.389.398.423.218.263.002.002.03.037.003.003.111.134.017.022.006.009.296.408.259.423.191.389.098.292.003.007.014.042.034.279-.047.208-.001.001-.126.127-.107.022-.003.001-.092.019-.072-.011-.197-.032-.275-.108h-.001l-.05-.02-.37-.208-.401-.28-.179-.147-.001-.001-.234-.192-.414-.389-.264-.28-.132-.141-.327-.393-.001-.002-.036-.044-.318-.438-.26-.422-.132-.267v-.001l-.059-.121-.034-.1-.082-.241-.032-.261-.003-.019.046-.206.001-.001v-.001Zm0 0 1.064-1.787.782-1.313M634.48 462.015l.003-.002M629.16 461.169l.002-.003.052-.058.132.021.205.102.268.179.324.249.135.116.002.001.227.193.393.359.405.394.403.414.383.417.351.405.303.378.245.334.177.28.103.214.024.139-.001.001-.054.059-.133-.022-.205-.102-.269-.18-.323-.249-.364-.31-.392-.358-.405-.393-.401-.413-.383-.417-.35-.404-.089-.111-.001-.001-.213-.265-.246-.335-.177-.28-.104-.214-.024-.139v-.001Zm0 0 1.454-2.485M633.238 465.362l.003-.002"/><path d="m629.921 462.404-.253.448.063.088.141.163.212.232.276.292.33.342.37.377.396.398.407.405.402.395.382.37.347.331.299.279.239.217.17.145.095.07v-.001l.017-.009 1.14-.634.002-.001.622-.346M634.957 466.313l.076.056.351.224.298.153.235.078h.162l.002-.001.003-.002.053-.03M661.382 418.791l-.268 1.067-.135.551-.026.574.083.576.19.556.288.513.376.453.449.373.506.28.875.293"/><path d="m661.113 419.857.079-.168.159-.338.332-.442.413-.36.479-.265.526-.16.552-.048.559.065.543.176.505.28.45.374.376.452.289.514.189.556.083.577-.026.574-.135.551-.239.506-.332.441-.413.36-.479.265-.526.159-.553.048-.404-.047-.154-.018-.542-.176M636.082 466.823l.055-.032M633.801 466.957l1.157-.643.002-.001.622-.346M633.271 465.165l.023.138.001.001-.052.056-.004.004-.132-.021-.205-.103-.269-.18-.323-.249-.365-.31-.392-.358-.404-.393-.401-.413-.383-.416-.35-.405-.09-.111-.001-.001-.213-.265-.245-.335-.178-.28-.103-.214-.025-.14.001-.001.054-.06M632.746 464.338l.245.335M633.238 465.365l.362-.191.002-.001 1.066-.561.021-.012.003-.001M629.551 461.232l.269.179M634.652 461.682l-.046.205-.001.003-.122.122-.005.005-.102.022h-.003l-.097.021-.065-.01-.204-.033-.266-.105h-.001l-.059-.023-.37-.208-.4-.28-.18-.147-.001-.001-.234-.192-.414-.389-.248-.264-.148-.157-.327-.394-.001-.001-.036-.044-.318-.438-.26-.422-.132-.268v-.001l-.059-.12-.038-.113-.077-.228-.034-.265-.002-.015.047-.209.001-.001M632.145 458.22l.415.341.414.389.398.422.218.264.002.002.032.039.003.003.109.132.003.003.006.009M634.504 461.062l.095.282.002.007M634.48 462.017l.492-.24.003-.001.411-.2.001-.001.382-.186.005-.002.637-.31M635.266 449.729l-1.23 2.068-.486.818-.117.272-.021.228-.01.114.055.398.138.44.216.464.217.355.006.01.005.008.059.097.346.459.163.179.229.251.422.384.437.324.435.251.185.076.008.003.223.09.381.08.332-.012.27-.103 3.116-1.348"/><path d="m633.551 452.616.196-.192.269-.104.332-.013.382.079.416.169.436.251.438.325.369.336.048.043.006.006.392.43.129.171.03.04.187.249.287.471.217.465.138.439.053.399-.032.341-.117.272-.197.191M639.893 443.354l-1.509 2.6-.181.329-.095.397-.003.45.088.485.177.502.258.499.117.172.211.305.13.148.256.289.431.381.459.309.467.226.259.075.201.059.433.036.391-.061.179-.064 2.593-.917"/><path d="m638.387 445.954.263-.249.333-.159.391-.062.244.02.19.016.459.133.469.226.459.31.431.381.388.438.328.478.258.5.176.502.087.485-.001.202-.002.174v.074l-.095.397-.183.329-.199.188-.064.06-.063.03-.27.128M645.719 436.207l-1.138 2.116-.151.444-.055.493.043.524.14.534.23.523.313.493.383.444.438.377.477.297.497.204.07.015.428.089h.481l.444-.104 2.452-.592"/><path d="m644.582 438.323.241-.378.322-.297.298-.156.093-.049.444-.104.481-.001.499.104.498.204.477.297.439.378.383.444.313.494.231.524.139.534.043.524-.056.493-.151.444-.212.33-.03.048-.323.296-.391.204M653.151 427.551l-.771 1.698-.199.481-.099.528.004.554.108.558.208.543.299.505.379.449.444.375.493.286.523.188.532.081.52-.029 1.898-.111"/><path d="m652.379 429.249.292-.415.109-.098.264-.237.44-.241.49-.137.521-.029.532.08.523.188.494.287.445.375.379.449.299.506.208.543.108.559.004.554-.1.528-.2.481-.292.415-.374.334-.378.207-.062.034-.49.136M672.602 413.385l-.515-.277-.452-.372-.374-.455-.281-.517-.176-.563-.066-.584.047-.585.16-.562.264-.518.179-.225.181-.229.442-.373.506-.277.55-.17.575-.058.577.058.324.099.232.071.515.277.453.373.374.454.28.518.177.563.065.584-.047.585-.16.562-.265.518-.36.454-.441.373-.506.276-.551.171-.575.057-.576-.057-.556-.171ZM682.965 402.826l-.518-.278-.455-.373-.372-.454-.277-.518-.17-.561-.043-.45-.013-.134.059-.584.172-.561.279-.517.375-.453.456-.371.52-.276.564-.169.586-.057.252.025.334.033.564.172.518.277.455.373.372.454.277.518.169.562.057.583-.059.584-.172.561-.279.517-.375.453-.456.372-.52.275-.564.17-.586.056-.586-.058-.564-.171ZM693.596 392.406l-.519-.282-.454-.374-.373-.452-.276-.514-.075-.246-.094-.308-.055-.575.06-.572.173-.548.28-.502.376-.438.362-.282.095-.074.521-.262.564-.156.587-.045.586.068.563.178.519.281.454.374.372.452.276.514.169.554.056.574-.06.572-.173.548-.279.502-.376.438-.457.357-.521.262-.564.156-.587.045-.587-.067-.563-.178ZM707.953 378.973l.175.54.016.143.047.413-.05.55-.162.522-.267.476-.362.41-.444.329-.508.235-.553.132-.577.024-.577-.085-.557-.191-.515-.289-.452-.376-.373-.449-.279-.505-.175-.541-.063-.556.05-.55.163-.522.267-.476.363-.409.444-.329.347-.16.162-.074.552-.132.577-.024.577.085.556.191.514.289.453.376.372.449.279.504Zm0 0 .294.869M704.073 377.235l-1.069.259M750.523 351.791l.236-.419.001-.002.64-1.134-.001-.001M749.041 351.091l.001-.002.115-.216.458-.856.002-.002.179-.334-.021-.133-.102-.204-.179-.268-.248-.322-.309-.364-.357-.391-.392-.403-.412-.401-.416-.382-.404-.349-.114-.092-.001-.001-.262-.21-.334-.245-.28-.177-.215-.104-.14-.025-.001.001"/><path d="m749.799 349.681-.004.003-.057.052-.14-.024-.214-.103-.279-.177-.335-.244-.377-.303-.405-.35-.416-.383-.413-.401-.393-.405-.358-.391-.197-.232v-.001l-.112-.131-.248-.323-.179-.268-.101-.204-.02-.131.061-.054.001-.001M745.51 352.78l.001-.003.311-.628.002-.004.171-.348.001-.001.214-.433.002-.003.223-.451.027-.124v-.002l.017-.075-.019-.119-.024-.149-.124-.318v-.001l-.003-.005-.206-.369-.279-.399-.154-.188-.001-.002-.184-.224-.388-.412-.421-.396-.398-.331-.001-.001-.038-.032-.438-.317-.422-.26-.272-.134-.117-.057-.341-.116-.281-.036-.079.017-.13.028-.003.002"/><path d="m746.434 350.909-.005.005-.124.121h-.002l-.206.046-.238-.03h-.005l-.037-.005-.341-.115-.389-.191-.422-.26-.362-.262-.009-.006-.068-.05-.169-.14-.004-.003-.012-.011-.002-.001-.252-.209-.422-.397-.388-.413-.34-.415-.279-.399-.206-.369-.125-.32-.002-.005-.041-.267.045-.2.128-.124.001-.002M740.022 357.012l1.356-3.088.105-.268.013-.33-.078-.379-.097-.241-.004-.007-.067-.167-.25-.433-.323-.436-.383-.421-.248-.226-.181-.165-.459-.346-.048-.029-.031-.02-.009-.005-.382-.233-.464-.217-.44-.139-.399-.056-.14.013-.202.017-.273.115-.74.432-2.153 1.257"/><path d="m741.376 353.923-.006.006-.186.189-.003.001-.269.114-.342.031-.399-.055-.44-.139-.465-.217-.471-.287-.231-.174-.023-.017-.017-.013-.188-.142-.429-.39-.001-.002-.057-.062-.021-.023-.306-.337-.324-.436-.25-.434-.167-.415-.078-.38.014-.33.106-.267.191-.192.002-.002M733.933 361.074l.942-2.62.046-.128.063-.388-.035-.431-.038-.132-.095-.326-.224-.466-.308-.456-.38-.43-.276-.244-.16-.142-.248-.171-.229-.158-.499-.258-.502-.177-.486-.09-.451.002-.398.092-.331.179-2.605 1.484"/><path d="m734.923 358.326-.019.039-.07.147-.07.145-.183.191-.067.07-.004.002-.326.178-.398.093h-.076l-.161.001h-.214l-.486-.089-.502-.177-.5-.257-.478-.329-.437-.387-.381-.431-.308-.457-.224-.467-.133-.458-.015-.187v-.007l-.019-.237.064-.389.16-.33.248-.257.002-.003M726.385 367.027l.599-2.432.106-.442.001-.308.001-.17-.077-.371-.026-.125-.203-.495-.295-.475-.377-.438-.443-.382-.493-.313-.524-.231-.534-.141-.524-.045-.495.052-.446.148-2.12 1.12"/><path d="m726.983 364.595-.011.021-.194.367-.299.319-.004.003-.039.025-.008.005-.328.206-.445.149-.495.053-.525-.044-.535-.141-.524-.231-.494-.314-.444-.383-.377-.438-.295-.476-.203-.496-.103-.496.003-.478.106-.442.048-.089.003-.006.156-.292.295-.316.004-.003.357-.225.022-.014M717.934 373.674l.115-1.884.03-.518-.079-.53-.187-.52-.285-.492-.374-.443-.449-.379-.505-.3-.543-.208-.56-.11-.555-.007-.529.097-.483.196-1.702.756"/><path d="m718.05 371.79-.011.035-.128.451-.031.056-.008.014-.204.367-.336.37-.005.003-.413.286-.482.197-.53.097-.555-.006-.56-.11-.544-.208-.506-.3-.449-.379-.375-.445-.285-.492-.186-.521-.079-.529.03-.519.14-.486.243-.437.236-.258.006-.007.091-.101.004-.004.403-.278.015-.01"/><path d="m717.993 370.751.08.529-.031.518-.139.487-.023.042-.008.013-.211.381-.333.366-.003.004-.418.289-.483.197-.529.098-.555-.007-.561-.109-.543-.209-.507-.3-.449-.379-.374-.444-.286-.492-.186-.521-.079-.53.031-.518.14-.487.243-.437.242-.265.006-.007.089-.097.004-.004.414-.285.482-.196.53-.097.555.007.56.11M716.699 368.916l.448.379.375.444M726.979 363.186l.027.127.076.37v.173l-.001.305-.106.441-.206.388-.295.316-.003.003-.036.023-.008.005-.335.211-.446.149-.092.01-.402.043-.147-.012-.378-.032-.535-.141-.525-.231-.493-.313-.444-.383-.377-.438-.296-.476-.203-.496-.102-.497.002-.478.107-.442.051-.095.003-.007.152-.285.299-.319.004-.003.376-.235.445-.149.495-.052.525.045.534.141M725.664 361.396l.444.383.376.437M734.509 358.921l-.002.003-.331.18-.398.093h-.067l-.167.001h-.216l-.486-.089-.503-.177-.5-.258-.411-.283-.066-.045-.325-.288-.113-.1-.38-.43-.308-.457-.225-.467-.132-.458-.016-.194v-.006l-.019-.231.064-.389.161-.33.25-.26.004-.002.327-.178.398-.092.451-.001M734.277 356.133l.308.456M734.978 357.943l-.063.388-.095.196M730.319 354.735l-2.553 1.454M732.984 354.987l.232.159.245.169M741.49 353.329l-.013.33-.105.268-.19.193-.002.002-.272.116-.343.03-.399-.055-.44-.138-.464-.217-.471-.287-.204-.154-.027-.02-.021-.016-.207-.156-.427-.389-.003-.003-.078-.085-.021-.024-.286-.313-.323-.437-.25-.434-.167-.415-.028-.135-.05-.244.014-.33.105-.267.194-.195.003-.001.27-.113.205-.018.137-.012.399.055M738.93 350.222l.395.241.009.005.021.013.045.028.459.345.183.167.246.224.383.422.323.435.25.434.063.155"/><path d="m737.014 349.953-.736.43-2.149 1.255M746.454 350.584l.02.126-.015.07-.001.002-.028.129-.127.124-.001.002-.209.046-.23-.029-.005-.001-.045-.005-.341-.115-.389-.191-.422-.26-.343-.248-.008-.007-.088-.063-.171-.142-.003-.003-.011-.009-.002-.001-.252-.209-.421-.397-.389-.413-.34-.415-.278-.399-.207-.369-.123-.317-.003-.008-.042-.267.045-.201.128-.124.001-.001h.003l.13-.029.076-.016.281.036.341.115M746.098 349.748l.204.363v.001l.003.004.127.325M742.153 346.889l-1.731 1.013-1.375.805M743.102 347.053l.271.134.422.259M749.735 349.736h-.001l-.14-.024-.214-.102-.28-.177-.334-.245-.377-.303-.405-.35-.417-.383-.412-.401-.393-.404-.358-.392-.196-.231-.001-.001-.112-.132-.249-.322-.178-.269-.101-.203-.02-.132.058-.052.003-.002h.002M748.578 348l.357.392.309.363M745.608 345.611l-2.297 1.321-.206.118M746.957 346.465l.404.349.416.383M751.399 350.235l-.069-.094-.146-.169-.216-.238-.279-.298-.331-.346-.369-.381-.394-.401-.404-.406-.397-.395-.377-.37-.34-.328-.292-.276-.231-.213-.162-.14-.087-.064M747.305 346.116l-.461.255M751.257 352.287l-.064-.193-.154-.296-.223-.349-.058-.079M873.57 443.302l.08-2.049-.995-8.263-4.329-7.965-5.804-8.144-.349-.49-6.642-7.475-1.221-1.375-7.333-6.799-1.995-1.849-8.184-5.747-2.716-1.907-8.183-5.748-2.541-1.786-8.182-5.749-1.918-1.348-8.943-4.475-1.427-.714-9.406-3.396-.331-.119-7.924-2.417-7.679.43-4.005 1.388M973.137 805.413l.016 6.356.026 10 .025 10 .026 10 .024 9.688.026 10 .025 10 .026 10 .025 10 .026 10 .025 10 .026 10 .025 10 .005 1.757 7.538 6.571 7.537 6.571 7.538 6.572 7.534 6.571 7.54 6.571 7.54 6.571 7.54 6.572 7.54 6.571 6.91 6.032 7.86 6.193 7.57 5.971 7.85 6.2 7.56 5.96 7.85 6.19 7.54 5.95 7.85 6.19 7.52 5.94 4.47-2.3 6.32-7.74.78-.95-4.11-9.12-4.1-9.12-3.52-7.8-3.71-9.289-3.72-9.285-3.36-8.413-3.96-9.183-3.96-9.183-3.37-7.824-1.57-9.876-1.57-9.876-1.57-9.876-.34-2.154-.21-1.282 3.14-7.586 3.82-9.242 3.82-9.242 2.7-6.541 1.12-2.726 2.12-5.125-2.95-1.919-8.39-5.446-8.39-5.447-8.38-5.446-8.39-5.447-8.39-5.447-8.38-5.446-8.39-5.447-8.39-5.446-8.38-5.447-3.09-2.003-8.38-5.446-.24-.158-8.391-5.447-8.387-5.446-7.485-4.861-3.96 3.035Z"/><path d="m977.098 802.378.032 10 .006 1.79.032 10 .032 10 .031 10 .014 4.385.032 10 .032 10 .032 10 .031 10 .032 10 .032 10 .032 10 .032 10 .006 1.996M973.465 933.214l4.042-2.665 7.537 6.572 7.538 6.572 7.538 6.572 7.54 6.571 7.53 6.572 7.54 6.572 7.54 6.572 7.54 6.571 7.14 6.23 7.85 6.194 7.62 6.013 7.85 6.2 7.61 6 7.85 6.19 7.59 5.99 7.85 6.2 7.58 5.97M1215.12 786.094l1.41.171 9.21 3.9 9.21 3.899 4.82 2.042 9.32 3.63 9.31 3.631 4.99 1.943 9.14 4.063 9.14 4.063 4.46 1.983 4.75-2.857 6.22-7.618-6.27-7.787-5.48-6.797-6.27-7.787-5.46-6.782-6.28-7.787-5.45-6.769-6.28-7.787-5.44-6.755-6.61-7.501-6.61-7.502-6.62-7.501-6.61-7.501-6.61-7.502-6.62-7.501-6.61-7.502-6.61-7.501-2.57-2.91-9.99.243-10 .243-10 .243-10 .243-9.99.243-10 .243-10.4.253-9.99.243-10 .243-10.18.247"/><path d="m1211.46 782.125 9.64 1.171 9.21 3.903 9.2 3.903 4.89 2.072 9.32 3.635 9.31 3.634 5.06 1.972 9.13 4.067 9.14 4.066 4.52 2.014M1799.07 84.683l-2.11-2.193-1.02-.94M1799.07 84.683l-3.13-3.133-2.67-2.671-1.82-1.65M1801.49 87.18l-.83-.933-1.59-1.564"/><path d="m1805.73 91.72-1.49-1.71-2.75-2.83-2.42-2.497"/><path d="m1809.8 96.265-2.25-2.624-1.82-1.921-3.32-3.507-3.34-3.53M1813.57 100.704l-3.09-3.705-.68-.734-6.8-7.338-3.93-4.244"/><path d="m1812.91 99.96-6.72-7.413-6.71-7.413-.41-.451M1814 101.316l-.43-.612-.66-.744.1.133.99 1.223Zm0 0 2.04 2.517 5.76 8.174 2.36 3.356"/><path d="m1824.16 115.361-5.76-8.172-.62-.873-2.62-3.371-.42-.539M1826.35 118.766l-3.56-5.001-4.06-5.707-2.82-3.81M1628.8 461.503l2.59.04 4.63-.333 9.97-.839 9.96-.838 1.51-.126 9.83-1.805 9.84-1.805 1.64-.301 9.62-2.75 9.61-2.749 1.77-.504 9.3-3.667 9.3-3.667 1.85-.729 3.84-1.795 8.91-4.545 8.91-4.544 1.87-.955 8.43-5.38 8.42-5.38 1.85-1.175 7.87-6.167 7.87-6.167 1.77-1.391 7.24-6.901 7.24-6.901 1.67-1.596 6.54-7.572 6.53-7.572 1.54-1.786 5.76-8.175 5.76-8.175 1.37-1.954 1.74-2.71 4.93-8.703 4.92-8.704 1.06-1.874 4.03-9.153 4.03-9.152.87-1.961 3.08-9.512 3.09-9.511.66-2.027 2.1-9.776 2.11-9.776.44-2.07 1.09-9.941 1.09-9.94.23-2.094.04-2.548.06-10 .05-10 .01-1.736-.99-9.951-.99-9.95-.18-1.73-2.04-9.79-2.04-9.79-.36-1.72-.54-1.748-.13-.434M1693.99 25.974l-9.72-2.362-1.36-.329-9.9-1.379-9.9-1.379-2.15-.299-10-.39-9.99-.392-2.15-.084-9.98.593-9.99.594-2.13.127-2.59.287-9.88 1.56-9.88 1.56-2.4.38-9.68 2.502-9.68 2.504-2.3.595-9.4 3.418-9.4 3.42-2.17.788-9.03 4.301-9.02 4.301-2.01.956-8.58 5.142-8.58 5.141-1.82 1.093-8.05 5.936-8.05 5.936-1.62 1.196-2.73 2.24-7.45 6.675-7.45 6.676-1.53 1.376-6.77 7.358-6.78 7.357-1.28 1.396-6.03 7.975-6.04 7.974-1.04 1.376-5.23 8.522-5.24 8.521-.81 1.322-4.38 8.991-4.37 8.99-.61 1.24-1.6 4.016-3.47 9.378-3.47 9.378-.4 1.068-2.52 9.678-2.52 9.677-.23.902-1.53 9.882-.58 3.73-1.07 6.885-.27 4.807-.21 3.986-.51 9.986-.33 6.253.54 9.986.53 10.04.72 4.998 1.59 9.874 1.48 9.209 2.67 9.639 1.41 5.109M1779.54 67.323l-3.74-2.853-8.04-5.952-2.76-2.046"/><path d="m1767.96 58.372-1.9-1.352-4.96-2.954M1781.28 68.435l-1.58-1.26-2.28-1.835-8.06-5.93-1.4-1.037 1.61 1.154 8.06 5.919 2.14 1.577 2.17 1.81 1.61 1.341.06.053M1799.07 84.682l-7.3-6.83-7.31-6.832-.84-.794-.84-.777"/><path d="m1787 73.134 2.73 2.417 1.72 1.678 3.21 3.14 4.41 4.314-7.22-6.912-4.85-4.637Zm0 0-.53-.504-3.69-3.18-.83-.617M1761.1 54.066l-7.76-6.31-7.76-6.31-6.89-5.606-4-4.378-7.15-5.568-6.06-3.442-3.42-1.044-9.83 1.864-9.82 1.863-4.43.84"/><path d="m1849.2 146.906-6.79-7.348-3.56-3.864-6.81-7.328-.53-.567-.03-.034-.03-.04-3.92-4.22-7.02-7.129-7.01-7.129-.48-.487-7.06-7.074-6.99-6.993-7.2-6.934-7.21-6.935-1.96-1.89-7.29-6.85-7.28-6.85-.27-.255-7.37-6.761-7.37-6.762-.36-.327-5.73-5.36v-.001l-.01-.014-7.3-6.832-.11-.096-4.82-7.363M1852.1 177.432l2.39-9.712 2.39-9.711.62-2.552-.42-3.011-1.93-.755-5.95-4.786M1857.08 152.446l-5.16-4.679-6.51-7.595-6.5-7.594-6.51-7.595-6.51-7.594-1.73-2.027v-.001l-.04-.042M1733.59 110.222l-2.68-2.51-.96-.291-4.36-1.33-6.42-3.886-3.37-1.512-5.81-5.373-1.82-1.975-4.14-5.784-.12-2.25-1.95-5.482 1.75-2.183-2.46-3.756-.76-3.26M1687.23 64.656l.98 4.32M1744.25 80.006l4.23 4.626 2.98 4.863.73 1.842 1.38 3.489 1.7 4.239-.14 4.12-2.88 3.166-2.61 2.698-2.3.374-3.9 2.432-5 .881-4.85-2.514M1744.27 119.482l5.19-3.249 3.06-.502M1711.95 106.635l8.54 5.177 7.08 2.16M1708.5 59.889l-6.11-.287-3.12 1.277-5.55 2.782M1728.38 69.088l1.86 1.332 2.94 2.092M1730.9 107.712l-2.98-2.167M1827.32 239.264l.96-3.836M1781.87 220.316l.64.573 3.18 2.772 5.82 5.074 2.36 2.06 1.4 1.171 5.48 4.598 3.82 3.201 4.98 2.705M1767.05 192.228l3.7 7.48 2.45 5.803-1.14 2.042"/><path d="m1772.05 207.553 6.69-7.44.63-.704.83-1.491-6.78 7.349-.22.244M1814.88 146.303l-5.54-4.37M1836.23 176.802l-2.86-5.823M1842.16 206.29l-.35-7.114-.71-2.905-1.51-5.286-1.43-7.127M1771.07 137.608l-3.79 3.623-3.18 4.281-1.69 3.763 1.26 1.248-.96 5.465-.6 6.381-1.78 5.032-2.36 3.295"/><path d="m1763.68 150.523 7.99 6.007 1.55 1.168-.92-.914-7.97-6.048-1.92-1.461M1833.66 236.437l2.3 1.646.87-4.928.76-5.722 1.97-5.057 1.55-4.37.7.47M1791.02 133.583l-5.47-1.124-3.52 2.458-4.88 1.637M1801.17 209.614l-2.76-2.336-.7-.595-1.19-1.042-2.92-2.566-1.6-1.401-.32-.289-2.72-3.065-2.19-3.357.57-1.023-1.23-2.914-1.85-3.756-.49-2.708.99-1.518-1.45-3.114-2.05-1.972-1.56-1.493 1.18-1.656.88-2.531.3-3.21.47-2.752-.64-.627.85-1.901 1.58-2.166 1.9-1.839 1.3-.274 1.75-.275 2.45-.845M1796.25 157.682l1.64 1.011 2.99 1.059M1415.07 308.16l-.59 9.983-.58 9.983-.47 8.032.46 1.635.78 1.542 1.18 1.992 1.56 2.416 1.92 2.827 3.22 4.634 3.29 4.529 3.26 4.681 3.38 4.67 4.16 5.499 5.28 6.576 3.99 4.738 4.07 4.701 4.66 5.22 6.41 6.842 4.43 4.509 4.48 4.456 4.76 4.604 6.84 6.282 4.77 4.153 4.66 3.927 4.71 3.83 4.85 4.226 4.29 3.556 3 2.467 2.64 2.095 2.25 1.692 1.97 1.324 2.07 1.013 1.22.285 2.5.375 10 .133 10 .133 6.86.091M1525.02 431.691l-6.06-5.34M1415.64 310.106l-.57-1.946M1544.98 447.012l-2.5-1.273"/><path d="m1430.75 332.213-4.17-5.646-4.06-5.751M1475.27 386.215l-6.85-7.291-1.26-1.343-5.89-6.583M1492.54 403.357l-6.01-5.818M1599.46 456.306l6.61 2.559 1.2.398.88.281M1545.04 443.551l.86 1.434"/><path d="m1545.9 444.984 3.09 2.781.08.069.99.893 3.15 2.828 1.83 1.194 1.74 1.032 1.77 1.031 2.16.91 2.59 1.059 2.9.918 2.06.628 2.8.56 3.8.745 3.74.756 3.78.657 4.12.698 3.11.513 1.78.126 3.86.391 3.77.408 3.65.421 3.49.429.31.089.59.047 2.53.088 2.26.095 1.98.103 2.51.053 2.21-.003 9.6-2.809.65-.191.17-.048"/><path d="m1553.21 451.556-.67-1.116.63-.526.05-.12.13-.375.16-.458.76-.765 1.17-.57.48-.233 1.94.021 2.51-.193 2.74-.033 3.07.202 2.51.143 1.62-.167 3.56.468 3.91.783 4.04.97 4.13 1.149 1.09.26.09.024 2.3.548.71-.045M1590.51 452.996l6.8 2.811.46.189 1.69.309.14.026 3.34 1.235 3.14 1.298M1618.9 456.401l-3.03-1.317M1608.15 459.544l2.36 1.016.03.011 1.34.67.75.378.23.287.06.079-.07.245 1.17.7 1.03.683.86.269.15.022 1.48.225 1.37.209M1554.93 439.366l-3.18.259-2.47-.019-.61.303-.9.453-.58.289-.95.991-.41 1.228M1624.57 460.303l-1.29-.875M1628.96 461.455l.48-.217M1592.01 444.864l-4.45-1.06-5.27-1.467"/><path d="m1597.77 455.997-.46-.201-.28-.123-1.43-.859-.22-.132-.01-.008-.03-.02-.87-.525-2.43-1.458-1.91-1.148 2.78-6.718M1601.71 450.124l-3.27-1.978M326.32 976.504l5.977.252.492-.016 6.659-.218 7.456-.811 7.159-1.026 7.724-1.94 6.972-1.872 7.75-3.06 6.604-2.734 7.543-4.132 6.068-3.581 7.121-5.121 5.393-4.374 6.507-5.992 4.605-5.091 5.731-6.717 4.89-7.37 3.674-5.603 3.901-7.803 2.752-6.022 2.836-8.038 1.839-6.295 1.728-8.066.968-6.415.615-7.883.167-6.378-.473-7.488-.534-6.19-1.214-6.394-1.403-6.346-1.723-5.991-2.315-6.074-.53-1.258M371.991 758.244l-4.707-1.402-6.378-1.478-6.217-.9-6.828-.79-6.559-.338-7.397.248-6.742.337-6.362 1.039-8.15 1.398-6.293 1.844-8.202 2.521-6.054 2.702-8.036 3.615-7.501 4.542-5.814 3.678-7 5.489-5.195 4.521-6.314 6.314-4.455 5.3-5.468 6.99-3.617 5.984-4.494 7.481-3.483 7.91-2.656 6.397-2.357 8.052-1.724 6.72-1.194 7.963-.819 6.865-.037 7.636.021 6.826.819 7.109 1.018 6.569 1.498 6.797 2.224 6.919 1.783 5.098 2.672 6.362 3.289 6.341 3.172 5.121.702 1.133 1.778 2.638 3.951 5.456 4.399 5.262 4.801 5.013 5.155 4.714 5.453 4.365 5.697 3.972 5.88 3.539 2.155 1.103 3.849 1.967 3.129 1.566 3.17 1.344 3.608 1.53"/><path d="m441.305 814.606-.051 5.146-.12.401-.447 1.486-.727 2.418-2.574 3.297-3.855 2.127-5.087.808-5.65 1.854-7.466-.221-8.761-3.785-7.97-4.844-8.117-5.841-.768-.553-7.509-6.617-6.876-7.262-.693-.732-5.978-7.554-4.954-8.128-3.057-7.908 1.964-5.99.826-5.14 1.545-4.202 2.895-3.042 3.053-1.389 1.022-.465.553-.074 4.523-.61 5.898.439 8.974 2.713 7.152 3.397 6.955 4.297 6.615 4.688 7.538 6.572.788.687 5.987 6.599 4.905 6.295 4.254 6.512 3.619 7.861 1.594 6.76Zm0 0-.043 5.85-.026 3.519M377.023 757.786l-5.033.457-4.678.426M352.149 804.702l1.342 2.649.573 2.843-.039 3.16.084 2.458-.908 2.445-2.406 2.055-2.141 1.76-1.419.333-2.657 1.571-3.033.733-2.408-1.205-1.143-1.309-2.6-.787-2.857-2.036-1.511-.808-2.134-2.985-.567-1.134-1.016-3.35.412-1.346.215-3.298 1.363-1.336-.279-2.331.521-2.072M322.285 810.393l1.348 4.461M357.84 813.4l.048-4.204M324.387 816.363l2.84 3.976M338.475 792.77l-3.483.113-2.078.922M345.695 798.644l1.821 1.965M349.175 796.457l-2.421-2.609M383.848 886.536l.826-1.099 2.201-.932 3.682-.711 2.78-1.18M354.941 872.348l2.633 3.013 3.318 2.653.389.242 2.075 1.108 3.8 2.03 1.544.825.974.437M392.264 837.747l-2.978-1.736-3.759-1.642M354.941 872.348l3.851-4.1.546-.791-3.65 3.808M369.377 831.924l-2.773 1.721-3.501 1.352-2.409.6-1.672.464-2.784 2.23-2.475 2.544-1.486 2.159.646.595-1.02 2.933-.887 3.396-1.463 2.741-1.666 1.853 1.681 1.366 2.219 1.803 1.422 3.011-1.282 1.623.436 2.645 2.015 3.537 1.309 2.768M400.609 880.677l.745-2.565.651-2.94 1.844-2.883 1.44-2.46.693.075.625-2.802.348-3.567-.002-3.586-.57-1.329-.944-2.513-.614-3.553-1.049-3.433-2.107-2.541"/><path d="m352.923 843.588 4.389 3.624-.473-.435-4.562-3.784M373.605 871.266l-1.927-.871-.489-.222-.777-.417-1.911-1.025-1.042-.559-.196-.122-1.666-1.336-1.323-1.516.375-.544-.658-1.392-1.012-1.779-.219-1.329.643-.816-.715-1.514-1.114-.906-.844-.687.835-.932.733-1.379.444-1.709.511-1.477-.325-.299.745-1.088 1.243-1.283 1.398-1.126.842-.235 1.212-.306 1.762-.686M373.332 844.886l1.018.391 2.077.223M238.434 926.023l.026.072 1.325 3.152 1.91 3.683 1.583 2.599 1.683 2.549 2.022 2.792 2.987 3.573 2.193 2.3 2.283 2.245 2.5 2.286 3.786 3.03 2.782 1.939 2.799 1.795 2.909 1.711 3.584 1.653 3.456 1.254 2.143.562M319.575 976.037l-1.032-.148M288.555 968.096l2.63 3.776.46.225.455.236.609.302.83.394.665.318.408.082 1.408.39 1.71.495 1.865.551 2.001.604 1.603.474.194.042 1.468.367 1.865.467 1.976.494.492.113 1.022.126 2.352.347 2.319.352.81.117.681.044 2.13.143 2.025.138.508.038.345-.028 1.662-.077 1.57-.075.849-.029.159-.022 1.608-.231 1.492-.213 4.066-1.316"/><path d="m301.594 972.328-2.554-.769-.409-.121-.152-.045-.018-.005-1.801-.533M315.589 975.437l-2.997-.445-1.305-.161-.627-.144-2.52-.633-2.379-.597-1.873-.47-.248-.054-1.628-.481"/><path d="m303.391 975.984.468-2.834.027-.163M1380.94 284.072l-7.17-6.965-7.18-6.966-7.18-6.965-2.65-2.574-6.96 7.176-6.97 7.175-6.96 7.176-2.58 2.651 7.18 6.965 7.17 6.966 7.18 6.965 2.65 2.573 6.97-7.175 6.96-7.175 6.97-7.176 2.57-2.651ZM1349.01 252.173l-7.17-6.965-7.28-7.064-6.96 7.176-7.07 7.276 7.18 6.966 7.27 7.063 6.97-7.175 7.06-7.277ZM1368.2 237.431l-7.17-6.965-2.71-2.632-6.97 7.176-2.63 2.711 7.18 6.965 2.71 2.631 6.96-7.175 2.63-2.711ZM1408.52 217.388l-7.16-6.983-7.16-6.982-7.16-6.982-7.16-6.982-7.16-6.982-7.15-6.982-7.16-6.982-7.16-6.982-7.16-6.982-7.16-6.982-7.16-6.983-7.16-6.982-7.16-6.982-7.16-6.982-7.15-6.982-7.16-6.982-7.16-6.982-7.16-6.982-7.16-6.983-7.16-6.982-7.16-6.982-7.16-6.982-7.16-6.982-7.15-6.982-7.16-6.982-7.16-6.982-7.16-6.982-7.16-6.983-7.16-6.982-7.16-6.982-7.16-6.982-7.16-6.982-7.15-6.982-7.16-6.982-7.16-6.982-7.16-6.983-7.16-6.982-7.16-6.982-7.16-6.982-7.16-6.982-7.16-6.982-7.16-6.982-7.15-6.982-7.16-6.982-7.16-6.983-7.16-6.982-7.16-6.982-8.69-8.48 6.98 7.159 6.98 7.159 6.98 7.159 6.98 7.159 6.99 7.159 6.98 7.158 6.98 7.159 6.98 7.159 6.98 7.159 6.99 7.16 6.98 7.158 6.98 7.159 6.98 7.159 6.98 7.159 6.99 7.159 6.98 7.16 6.98 7.158 6.98 7.158 6.99 7.159 6.98 7.159 6.98 7.16 6.98 7.158 6.98 7.159 6.99 7.159 6.98 7.159 6.98 7.159 6.98 7.159 6.98 7.159 6.99 7.16 6.98 7.157 6.98 7.159 6.98 7.159 6.99 7.159 6.98 7.159 6.98 7.159 6.98 7.159 6.98 7.159 6.99 7.159 6.98 7.159 6.98 7.159 6.98 7.159 6.98 7.158 6.99 7.159 6.98 7.159 6.98 7.159 6.98 7.159 6.98 7.159 6.99 7.159 8.47 8.69M681.219-359.855l6.982 7.159 6.982 7.159 6.982 7.159 6.982 7.159 6.982 7.158 6.983 7.159 6.982 7.159 6.982 7.159 6.982 7.159 6.982 7.159 6.982 7.159 6.982 7.159 6.982 7.159 6.983 7.159 6.982 7.159 6.982 7.159 6.982 7.158 6.982 7.159 6.982 7.159 6.982 7.159 6.982 7.159 6.982 7.159 6.983 7.159 6.982 7.159 6.982 7.159 6.982 7.159 6.982 7.159 6.982 7.159 6.982 7.159 6.982 7.158 6.982 7.159 6.983 7.159 6.982 7.159 6.982 7.159 6.982 7.159 6.982 7.159 6.982 7.159 6.982 7.158 6.982 7.16 6.982 7.158 6.983 7.16 6.982 7.157 6.982 7.16 6.982 7.158 6.982 7.16 6.986 7.159 6.98 7.159 6.98 7.159 6.98 7.159 6.98 7.159 6.99 7.159 7.87 8.075 7.07-7.071 2.15-2.145-7.16-6.982-7.16-6.982-7.16-6.982-7.16-6.983-7.16-6.982-7.15-6.983-7.16-6.981-7.162-6.983-7.159-6.981-7.159-6.983-7.159-6.982-7.158-6.982-7.159-6.981-7.159-6.983-7.159-6.982-7.159-6.982-7.159-6.982-7.159-6.982-7.159-6.982-7.159-6.982-7.159-6.982-7.159-6.982-7.159-6.983-7.159-6.982-7.158-6.982-7.159-6.982-7.159-6.982-7.159-6.982-7.159-6.982-7.159-6.982-7.159-6.982-7.159-6.983-7.159-6.982-7.159-6.982-7.159-6.982-7.159-6.982-7.158-6.982-7.159-6.982-7.159-6.982-7.159-6.983-7.159-6.982-7.159-6.982-7.159-6.982-7.159-6.982-7.159-6.982-7.159-6.982-7.159-6.982-7.158-6.982-7.159-6.983-7.159-6.982-7.159-6.982-8.076-7.876ZM618.191 441.36v.001M619.333 438.09l-.001.003M622.23 445.1l.802 1.435v.001l2.644 4.732M629.161 461.17l-.001.001M631.125 457.635l.248.097M630.451 457.731l-.002.002M633.797 466.955l.001.001M736.007 342.048l-4.927-2.755-.001-.001-1.442-.806M750.52 351.79l.236-.419.001-.002.631-1.118.009-.016M743.313 346.932l-.823-.555-2.131-1.436M938.304 786.504l-.54.967-.001.003-.336.601-.002.003-.886 1.588M937.994 786.25l-.693 1.228M939.505 786.743l-.279.515-.453.836-.002.003-.601 1.108-.002.003-.352.649M942.426 785.425l-.001.003-.679 1.327-.003.005-.058.115-.001.002-.148.289-.002.003-.36.704-.001.002-.028.055M945.945 792.759l1.992 1.63 1.279 1.048M954.272 800.392l-.584 1.074M958.818 798.923l-.001.002-.164.331-.001.003-.325.659-.001.002-.01.019M1070.31 670.834l.01-.002M1074.2 665.595v-.001M1076.07 662.291l.02-.013M1077.84 657.62l.29-.525M1078.26 658.459v-.002M1083.23 686.671l.1-.191 1.14-2.102M1086.31 682.6l1.98-3.563M1089.64 674.722l.28-.519M1088.36 678.793l.63-1.137 1.13-2.035M1089.38 881.802l4.28 2.578 2.68 1.614M962.223 805.183l8.565 5.161 2.366 1.425M1084.95 670.963l-.66-1.102v-.001l-4-6.638"/><path d="m1118.46 726.554-5.16-8.565-5.16-8.564-5.17-8.565-5.16-8.565-1.77-2.936-1.89-3.143-5.16-8.56M1176.84 836.606l.01-.002M1181.81 825.236l-.22-.234M1182.45 826.101l.46-.8M1544.98 447.013l2.37.799 2.71.916M1587.3 451.125l2.13.443M1599.3 456.859l7.65 3.278 2.18.936 5.92 2.539"/></g><defs><clipPath id="a"><path fill="#fff" d="M0 0h1920v1080H0z"/></clipPath></defs></svg>