<svg width="1920" height="1080" fill="none" xmlns="http://www.w3.org/2000/svg"><g clip-path="url(#a)" stroke="#EFC018" stroke-width="5" stroke-linejoin="round"><path d="m974.016 787.725.184-.422.287-.337.003-.003.385-.246.215-.066.009-.003.241-.073.527-.032.569.079.59.186.586.288.562.377.515.453.448.51.364.548.266.566.158.56.044.535-.042.283-.001.007-.029.197-.185.422-.291.339-.004.003-.382.243-.118.035-.347.105-.527.032-.569-.08-.057-.018-.532-.169-.151-.074-.435-.213-.56-.377-.514-.452-.447-.51-.364-.547-.266-.564-.159-.56-.044-.534.071-.488Zm0 0 .016-.047M979.035 792.139l.013-.007M966.441 793.839l.225-.268.002-.003.322-.176.318-.059.005-.001.081-.015.471.028.519.132.012.005.012.005.523.219.555.319.541.396.507.457.452.501.38.526.294.53.029.075.004.011.164.429.091.478-.018.425-.125.354-.229.269-.003.002-.319.174M968.76 798.016l-.54-.395-.505-.457-.452-.5-.38-.525M970.849 798.726l-.471-.03-.519-.132-.547-.23M966.586 795.61l-.197-.514-.092-.478.016-.425M960.393 798.506l.014-.017.003-.003.075-.094.002-.002.061-.076.002-.002.251-.101.335-.003.407.095.462.189.501.276.519.352.518.416.437.406.001.001.059.055.457.491.399.502.325.492.239.464.145.418.044.355-.059.28-.158.194-.002.001-.249.099-.323.002H964.845l-.407-.096-.462-.189-.5-.277-.519-.352-.517-.415-.496-.461-.181-.195-.002-.002-.272-.293-.398-.5-.325-.492-.24-.463-.145-.418-.045-.356.057-.281Zm0 0 .003-.005M965.434 803.194l3.475-1.943M956.23 801.186l.08-.113.001-.002.174-.021.262.072.338.164.401.249.45.324.481.388.494.436.486.468.462.48.168.191.25.285.154.194.001.002.204.256.286.411.202.355.013.034.097.25.013.203-.082.113v.001h-.002l-.174.02-.262-.073-.274-.133-.064-.032-.402-.249-.449-.325-.26-.21-.002-.001-.218-.176-.492-.435-.486-.466-.46-.48-.418-.475-.358-.451-.286-.411-.202-.354-.034-.085-.077-.2-.015-.204Zm0 0 .004-.009"/><path d="m961.164 805.926 1.216-.685 2.438-1.374M954.046 801.794l.096.058.185.148.266.234.339.31.398.373.441.423.467.457.477.471.466.471.438.45.394.41.334.359.261.291.178.212.089.125-.004.031m-4.825-4.823-.003.034.09.127.179.212.261.291.334.357.393.411.438.448.465.469.475.472.467.455.44.422.397.375.339.309.268.233.185.151.097.057m-4.825-4.823.229-.425.001-.002.283-.527.001-.002.126-.234m4.185 6.013v.002M958.871 806.619l1.579-.878M953.97 800.173l-.175.318-.001.001-.001.002.017.136.108.223.196.301.16.214M1030.52 740.395l-.6-.331-.53-.439-.44-.532-.33-.604-.22-.653-.08-.676.05-.674.18-.646.3-.593.42-.517.51-.422.58-.309.64-.186.67-.055.67.078.65.208.6.33.53.44.44.532.33.603.22.653.08.676-.05.674-.18.646-.3.593-.42.517-.5.422-.59.31-.64.186-.67.055-.67-.078-.65-.208Z"/><path d="m958.875 806.585-.004.033v.001l-.097-.059-.186-.15-.267-.234-.339-.31-.397-.373-.44-.422-.467-.456-.475-.471-.465-.469-.438-.449-.393-.411-.334-.357-.261-.291-.179-.213-.09-.126.003-.034.096.058M955.77 803.34l.467.457.477.472.466.47.438.45M958.348 805.958l.261.291M954.594 802.234l.339.309M961.231 805.61l.014.203-.082.113-.001.001-.176.021-.262-.074-.273-.133-.065-.031-.402-.25-.449-.324-.26-.21-.001-.001-.219-.176-.492-.436-.486-.466-.46-.479-.418-.475-.358-.451-.286-.411-.202-.355-.035-.089-.076-.195-.015-.204.007-.011.074-.104h.002l.173-.022.261.073M957.484 801.536l.45.325.48.388.494.436.487.467.461.481.162.184M960.43 804.304l.203.256.286.412M961.121 805.326l.013.034v.001M961.16 805.927l.003-.001M965.43 803.195l-.002.002-.252.1-.317.002h-.019l-.407-.096-.462-.189-.5-.276-.518-.353-.517-.414-.496-.461-.182-.197-.002-.001-.272-.293-.398-.5-.325-.491-.239-.464-.146-.417-.044-.357.057-.28.007-.009.01-.013.003-.003.075-.094.002-.002.06-.074.002-.001M964.492 800.492l.399.502.325.492M965.457 801.95l.144.418M965.43 803.197l3.483-1.948M962.5 798.771l.52.354.518.414M966.962 792.588l-.528 1.256-.125.354-.016.425.092.478.196.514.029.052.003.005.034.06.001.003.227.409.38.525.451.5.506.457.54.395.554.318.547.23.518.132.471.03.404-.074 2.296-1.243"/><path d="m966.434 793.844.008-.01.219-.261.004-.002.318-.174.325-.061.005-.001.074-.013.47.028.519.132.025.01.011.005.512.214.555.319.541.396.507.457.452.501.38.526.294.53.024.064.005.011.167.44.091.478-.017.425-.125.354-.226.266-.002.002-.001.001-.323.176M979.89 791.138l-.185.422-.287.336-.004.004-.365.232-.02.013-.107.032-.36.109-.526.031-.569-.079-.049-.016-.539-.171-.15-.074-.436-.214-.561-.377-.513-.452-.448-.509-.364-.547-.266-.565-.158-.56-.045-.534.071-.487.024-.054.16-.368.29-.341.005-.003.38-.243.224-.068.009-.003M977.605 787.102l.561.378.515.452.448.51.364.549M979.762 789.557l.158.561.043.534M979.027 792.145l2.751-1.372M975.859 786.549l.569.079.589.187M983.086 780.118l.005.583.127.6.243.595.35.567.444.518.521.447.578.361.612.261.624.149.611.033.574-.084.516-.199 2.324-.983"/><path d="m983.086 780.119.117-.542.234-.482.209-.245.133-.156.438-.307.516-.2.575-.085.611.032.624.15.613.26.579.361.521.448.445.519.351.568.243.595.126.601.004.583-.117.543-.235.481-.085.099-.259.302-.438.306M993.434 771.19l.102.633.225.62.341.583.441.524.527.445.591.347.632.238.651.119.642-.004.611-.129 1.647-.444"/><path d="m993.434 771.19.025-.623.069-.267.083-.32.272-.53.382-.451.478-.357.555-.247.611-.129.643-.005.651.119.633.237.592.348.527.445.442.525.34.583.225.621.098.634-.02.623-.154.587-.273.529-.383.452-.448.333-.03.023-.555.246M1004.95 761.981l.35.434.44.528.53.442.6.338.65.221.43.104"/><path d="m1005.3 762.415-.02-.047-.31-.548-.22-.639-.08-.658.04-.651.18-.62.29-.566.41-.488.51-.393.58-.283.63-.16.66-.033.67.096.65.221.6.338.53.442.44.529.33.595.22.639.08.658-.04.652-.18.62-.29.566-.41.488-.51.392-.58.282-.63.161-.67.033-.44-.065-.22-.032M1018.62 752.28l-.6-.332-.53-.441-.44-.531-.33-.602-.21-.649-.08-.673.05-.669.19-.64.3-.586.42-.511.52-.415.59-.303.64-.18.67-.05.68.082.65.211.6.332.54.441.44.531.33.602.21.65.07.672-.05.669-.18.64-.31.587-.42.511-.51.414-.59.304-.65.18-.67.049-.67-.082-.66-.211ZM1042.16 728.467l-.59-.332-.53-.44-.44-.53-.34-.601-.22-.648-.09-.671.03-.666.16-.638.28-.584.4-.507.49-.412.56-.301.62-.178.66-.048.65.084.64.212.6.332.52.439.45.531.33.6.22.648.1.669-.03.667-.16.637-.29.584-.39.508-.49.413-.56.301-.63.178-.65.049-.66-.084-.64-.212ZM1057.23 715.322l-.2.441-.05.119-.36.483-.45.388-.54.278-.59.158-.62.03-.63-.098-.63-.223-.58-.338-.52-.442-.45-.527-.35-.592-.23-.636-.12-.654.01-.647.13-.615.25-.56.36-.483.45-.388.53-.277.53-.138.06-.018.63-.03.63.099.62.222.59.338.52.441.44.527.35.592.24.635.11.653v.647l-.13.615Zm0 0-.38 1.584M1066.69 705.272l-.31.445-.22.191-.19.158-.48.242-.55.123-.58.001-.61-.121-.59-.24-.57-.348-.52-.444-.39-.459-.06-.062-.36-.58-.26-.616-.14-.628-.03-.616.09-.58.2-.522.31-.444.25-.217.16-.132.48-.241.55-.122.58-.001.61.122.59.24.57.348.52.443.44.521.36.579.13.3.13.315.15.627.03.616-.09.58-.16.417-.04.105Zm0 0-.92 2.269M1075.01 695.824l-.26.393-.34.299-.43.192-.1.016-.39.063-.54-.037-.56-.153-.57-.262-.55-.361-.51-.447-.45-.515-.37-.563-.29-.59-.18-.594-.08-.575.04-.533.11-.358.04-.114.25-.393.35-.297.42-.192.5-.078.53.038.57.154.56.262.55.361.51.446.45.513.38.563.28.588.18.593.08.575-.04.533-.14.473Zm0 0-1.32 2.704M1084.41 669.432l-.29.161M1085.46 669.932v-.001l.05-.013.13.08.22.17.3.254.36.327.42.387.45.434.47.464.47.475.45.469.42.444.36.403.3.346.23.275.14.195.05.107M1090.1 674.682l-.22-.169-.3-.253-.36-.327-.21-.196-.01-.006-.2-.186-.45-.435-.47-.465-.47-.476-.45-.47-.42-.445M1085.46 669.931l-.13.071v.001l-.47.249v.001l-.26.141M1085.87 670.505l-.12-.148v-.008l-.1-.119M1089.34 677.289l.01-.003.03-.185-.07-.271-.08-.18v-.001l-.08-.165-.24-.409-.32-.455-.08-.108v-.001l-.3-.375-.43-.494-.46-.486-.48-.458-.48-.414-.03-.024-.42-.329-.42-.28-.36-.194-.29-.102-.22-.006-.33.17v.002l-1.11.571"/><path d="M1089.34 677.286v.001l-.12.091-.21-.004-.15-.053-.11-.036-.03-.012-.36-.194-.42-.279-.08-.067-.01-.001-.36-.286-.48-.414-.48-.46-.23-.233v-.004l-.24-.25-.43-.495-.38-.485-.32-.455-.24-.409-.16-.346-.04-.185v-.007l-.02-.078.03-.183v-.002l.11-.083.01-.008M1084.5 685.249l1.9-3.456.11-.261.01-.345-.06-.285v-.004l-.03-.125-.18-.469-.27-.505-.35-.522-.41-.519-.36-.382v-.002l-.1-.112-.49-.454-.36-.285-.01-.007-.13-.103-.5-.32-.47-.233-.42-.137-.36-.037-.16.037-.01.001-.12.028-.62.295-.01.003-.5.237"/><path d="M1086.4 681.793v.001l-.2.166-.29.067-.36-.035-.42-.137-.47-.233-.5-.32-.5-.395-.49-.455-.46-.497-.42-.52-.34-.524-.27-.505-.09-.223-.02-.038-.01-.048-.01-.007-.06-.153-.04-.217-.01-.027-.03-.171.01-.344.11-.257v-.003l.19-.158.01-.008M1080.05 690.9l1.63-3.073.08-.412-.03-.478-.12-.525-.23-.551-.31-.558-.39-.541-.46-.506-.5-.45-.53-.376-.53-.29-.52-.19-.48-.085-.43.024-.36.133-1.68.701"/><path d="m1081.68 687.828-.05.087-.14.244v.002l-.27.235-.36.133-.43.026-.49-.084-.23-.086-.01-.004-.27-.1-.54-.289-.52-.377-.51-.451-.45-.507-.39-.542-.32-.56-.22-.552-.05-.182v-.011l-.08-.331-.02-.479.08-.411.18-.328v-.003l.27-.227.01-.009"/><path d="m1081.67 687.834-.18.327v.004l-.28.237-.36.134-.43.025-.48-.084-.22-.083-.01-.003-.29-.104-.53-.29-.53-.377-.5-.451-.46-.506-.39-.543-.31-.559-.23-.552-.04-.192-.01-.011-.07-.322-.03-.478.09-.412.18-.33v-.003l.28-.233M1079.19 683.436l.53.377.5.449.45.506.39.542M1081.61 686.419l.12.525M1077.66 682.871l.48.085M1086.4 681.794v.003l-.2.168-.29.067-.36-.035-.43-.137-.47-.233-.49-.321-.5-.395-.5-.455-.46-.497-.41-.52-.35-.523-.27-.506-.08-.211-.01-.016-.03-.092v-.007l-.06-.143-.05-.239-.01-.026-.03-.149.01-.344.11-.26.01-.002M1084.86 678.38v.002l.35.381.42.518.34.522.27.506.19.468M1082.38 676.727l.42.138.47.233.49.32.14.113.01.007.35.275.49.454M1088.21 675.139l.3.375v.001l.08.108.32.455.24.409.08.165v.001l.08.18.06.271-.02.183v.002l-.13.092-.21-.004-.15-.053-.1-.034-.04-.014-.36-.194-.42-.279-.08-.067-.01-.001-.36-.286-.48-.414-.48-.46-.22-.232-.01-.003-.24-.252-.43-.495-.38-.485-.32-.455-.24-.409-.16-.346-.04-.191v-.007l-.02-.072.03-.185v-.001l.12-.09.22.006.29.102.36.194.41.28.44.335.02.018"/><path d="m1087.32 680.926 1.74-3.131.28-.506M1086.84 673.701l.48.458.46.486M1090.28 674.749l-.05.014-.13-.079-.22-.17-.3-.253-.36-.327-.21-.193v-.006l-.21-.189-.45-.435-.47-.464-.47-.477-.45-.469-.42-.445-.37-.403-.3-.346-.12-.154-.01-.007-.09-.114-.14-.194-.05-.106.05-.013.13.081.22.17.3.253.36.327.42.388.45.434.47.463.47.475.45.469.42.444.36.403.3.346.23.276.14.194.05.106v.001Zm0 0-1.05 1.901M1085.46 669.932l-.13.071v.001l-.46.249-.01.001-.26.141M1084.42 669.431l-.01.001v.001l-.29.161"/><path d="m1085.33 670.002-.28-.223-.3-.204-.21-.117-.13-.027M723.811 335.259l-8.728-4.882-5.86-3.278-8.883-4.592-8.883-4.592-8.884-4.592-4.378-2.263-8.915-4.53-8.916-4.529-8.915-4.529-4.466-2.269-9.163-4.005-9.163-4.006-9.162-4.005-5.266-2.302-9.574-2.886-9.575-2.886-9.574-2.886-9.574-2.887-9.575-2.886-9.574-2.886-9.575-2.886-3.427-1.033 2.857 9.583 2.857 9.583 2.857 9.583 2.857 9.584 2.858 9.583 2.857 9.583 2.857 9.583.69 2.316 3.998 9.166 3.998 9.167 3.997 9.166 2.172 4.979 4.528 8.916 4.528 8.917 4.527 8.916 2.185 4.3.744 1.458 4.591 8.883 4.591 8.884 4.591 8.884 2.261 4.376 4.882 8.728 2.998 5.361M1078.99 664.233l-.41 2.066-2.95 4.557-5.4 6.916-2.56 3.001v.004l-.02.024-.01.005-1 1.179-.01.008-3.3 3.871v.007l-.8.936-.24.268-.01.007-.56.63-2.64 2.94-.01.008-3.09 3.442-.86.96-2.3 2.561-2.14 2.307-3.58 3.834-.45.487-5.16 5.54-.08.084-4.26 4.439-5.71 5.944-2.45 2.553-2.05 2.073-5.93 6.009-4.62 4.691-.55.552-5.46 5.394-4.62 4.556-3.15 3.115-2.788 2.676-4.469 4.292-5.5 5.281-.12.111-.425.395-3.93 3.655-4.973 4.625-.892.829-1.406 1.307-2.067 1.845-3.779 3.373-1.215 1.085-3.193 2.85-.452.38-.008.007-1.678 1.411-.005.004-.179.15-.004.003-6.032 5.072-6.153 4.649-3.739 2.129-1.228-.428"/><path d="m947.89 794.505-.699 1.583 1.242.443 3.801-2.159 6.259-4.729 6.813-5.726.003-.003.36-.303.005-.004 1.327-1.115.65-.58.007-.006 3.401-3.036 1.25-1.116 3.886-3.468 1.248-1.113 2.125-1.976.908-.844 5.022-4.67 3.897-3.624.012-.011.407-.391 5.633-5.41 4.47-4.292 2.483-2.386 3.44-3.393 4.63-4.572 5.41-5.344.58-.587 4.65-4.706 5.91-5.993 2.26-2.289 2.25-2.35 5.7-5.94 4.26-4.428.52-.546 4.74-5.087.45-.487 3.55-3.804 2.81-3.017 1.71-1.905.86-.96 3.01-3.354v-.008l2.59-2.883.71-.788v-.007l1-1.109.14-.163v-.006l3.03-3.553.01-.008 1.31-1.541v-.005l.15-.174v-.003l3.19-3.745 5.5-7.037 2.99-4.633.41-2.096-1.82.403M1102.43 883.319l.84-.492 5.13-3.661 6.09-4.886 6.82-5.923 7.28-6.726 7.16-6.983.28-.275 6.98-7.164.32-.331 6.79-7.345.07-.082 6.15-7.059 5.19-6.407 4.04-5.504 2.72-4.391 1.32-3.117-.11-1.735M740.596 345.11l-2.311-.09-4.412 2.076-6.374 4.195-4.129 3.146-.001.001-.062.047-.004.003-1.184.902-.008.006-2.65 2.02-.006.004-.064.049-1.17.974-.005.004-1.24 1.032-2.326 1.936-.007.006-2.43 2.022-.849.707-1.508 1.255-2.854 2.531-3.606 3.197-.131.116-3.993 3.541-.234.218-4.777 4.459-3.392 3.167-2.798 2.612-3.183 3.11-2.465 2.409-5.705 5.576-.847.866-2.298 2.348-5.927 6.057-1.958 2.001-1.125 1.205-4.625 4.953-3.794 4.064-.055.059-.648.694-2.761 3.123-3.859 4.365-.673.761-1.746 1.974-.415.503-3.104 3.764-1.002 1.215-1.984 2.406-.006.006-.959 1.163-.434.583-.003.004-.257.345-.001.001-4.917 6.599-3.553 5.725-1.384 3.717.804 1.596M1070.88 654.317l-.54-.653-6.33-7.739-6.33-7.739-6.34-7.739-6.33-7.739-3.38-4.132-6.5-7.601-6.5-7.6-6.5-7.601-6.49-7.6-6.5-7.601-5.39-6.303-6.68-7.444-6.678-7.444-6.677-7.444-6.677-7.444-6.677-7.445-5.476-6.104-6.852-7.284-6.852-7.283-6.852-7.284-6.852-7.283-6.853-7.284-5.579-5.93-7.47-6.648-7.471-6.647-7.471-6.647-7.471-6.648-7.47-6.647-6.137-5.461-7.697-6.384-7.696-6.385-4.584-3.803-6.326-5.247-7.696-6.385-7.697-6.385-3.227-2.677-8.065-5.912-8.065-5.912-8.065-5.912-8.065-5.913-8.065-5.912-5.261-3.856-1.84-1.349-8.292-5.588-5.748-3.874-8.293-5.589-8.292-5.588-7.629-5.142-1.12-.755M629.188 456.438l1.078 1.599.169.253"/><path d="m742.513 346.399.574-1.229-.149-2.319-2.393-.108-4.583 2.149-6.63 4.36-5.286 4.025-.001.002-.659.501-.004.003-2.008 1.53-.006.004-.478.364-1.587 1.321-.006.005-1.254 1.043-.006.005-1.427 1.188-2.298 1.912-.007.005-2.423 2.016-.826.688-.099.082-4.144 3.674-3.891 3.45-.05.044-2.945 2.611-.952.889-5.233 4.885-2.803 2.616-2.689 2.51-4.135 4.041-1.368 1.336-6.334 6.191-1.349 1.378-1.121 1.145-6.843 6.993-2.187 2.235-.289.309-5.089 5.452-3.51 3.76-.009.01-1.783 1.91-1.88 2.127-3.776 4.271-.643.727-2.208 2.498-.912 1.031-2.331 2.827-1.018 1.235-1.691 2.05-.005.006-1.868 2.266-.003.004-.658.798-.164.199-.041.05-.015.019-.001.002-5.823 7.82-3.69 5.953-.208.563-.01.026-1.21 3.27.851 1.649 3.056-.586.283-.153"/><path d="m742.936 342.851-2.245-1.734-2.396-.117-2.306 1.073-2.27 1.056-5.263 3.447-.003.001-.765.501-.005.004-.577.378-.445.338-.004.003-1.992 1.513-.004.003-.691.525-.005.004-1.705 1.295-.006.004-.709.54-.006.004-2.573 1.954-.005.004-.269.204-1.538 1.278-.007.006-1.101.914-.006.006-.843.699-.005.005-2.446 2.032-.006.004-3.944 3.276-7.486 6.63-3.501 3.1-7.312 6.821-4.316 4.025-7.152 6.989-4.632 4.525-6.993 7.148-4.453 4.551-6.821 7.312-3.807 4.08-6.619 7.496-2.478 2.807-.274.31-1.818 2.21-.555.674-.832 1.01-1.713 2.081-.004.005-2.037 2.475-.004.005-.657.798-.004.005-.113.137-1.148 1.546-.004.006-.561.756-.003.004-1.646 2.217-.003.003-.53.715-.004.005-.825 1.11-.002.003-1.078 1.451-3.664 5.939-.019.051-1.392 3.804.857 1.655 1.734 2.246M635.25 465.43l.708 1.051.001.001 5.588 8.293 5.588 8.293 5.35 7.94 5.589 8.293 3.874 5.75 5.912 8.065 5.912 8.066 5.911 8.065 5.912 8.065 5.912 8.066 5.21 7.108 6.385 7.697 6.384 7.696 6.385 7.697 1.544 1.862 6.384 7.696 6.385 7.697 3.807 4.589 6.647 7.471 6.647 7.471 6.647 7.47 6.648 7.471 6.647 7.471 5.47 6.148 7.284 6.852 7.283 6.852 7.284 6.852 7.283 6.852 7.284 6.852 5.942 5.59 7.444 6.677 7.444 6.677 7.444 6.677 7.444 6.677 7.444 6.677 6.117 5.486 7.6 6.499 7.601 6.498 7.601 6.499 7.6 6.498 7.601 6.498 6.314 5.399 7.739 6.333 7.739 6.332 7.74 6.333 7.739 6.333 4.33 3.544.577.471M1078.99 664.233l-.64-.782-1.66-2.034M1169.5 811.238l-1.24-2.05-1.4-2.333M947.191 796.088l6.778 4.084.001.001.715.431M1127.71 904.213l8.65 5.03 3.83 2.23 1.07.516 2.1-.573 3.07-1.648 3.91-2.665 2.4-1.864 2.22-1.722 5.13-4.367 5.44-4.976 2.86-2.78 2.69-2.609 4.44-4.581.98-1.004 5.07-5.557 4.54-5.307 3.1-3.945.71-.901 2.94-4.196 1.96-3.386.92-2.448-.17-1.425-5.03-8.642-2.43-4.185"/><path d="m1111.55 898.479 8.72 4.881 2.75 1.534 1.21.592 2.46-.705 1.03-.567 2.57-1.419 4.63-3.201 5.47-4.297 6.11-5.228 6.49-5.954 6.62-6.441 6.47-6.667 6.08-6.624 5.43-6.314 4.56-5.753 3.54-4.965 2.36-3.989.06-.153 1.05-2.71-.17-1.639-4.88-8.728-1.75-3.116M1102.19 884.571l4.5-3.214 6.52-5.228 7.31-6.342 7.34-6.786.46-.419 6.03-5.881 1.18-1.16.76-.735 4.22-4.332.98-1.009 2.62-2.69 6.79-7.345.56-.612 6.59-7.56 5.55-6.859 4.31-5.889 2.91-4.693 1.4-3.327-.13-1.846-1.65-.313-2.18.856M1152.74 905.239l8.22 5.698 4.09 2.833.67.309 1.29-.335 1.84-.97 2.34-1.57 2.75-2.111 3.04-2.57 3.22-2.93 3.27-3.174 3.19-3.294 2.99-3.283 2.66-3.144 2.25-2.881 1.73-2.507 1.16-2.036.53-1.489-.1-.886-5.7-8.217-2.97-4.291M1207.38 701.371l-9.99-.356-10-.356-9.99-.356-10-.357-9.99-.356-9.99-.356-10-.357-9.78-.348-9.99-.357-10-.356-6.66-.238-10-.356-8.21-.293"/><path d="m1082.78 696.929 5.55 8.319.71 1.061 4.84 7.256 5.55 8.318 5.55 8.319 5.55 8.318 5.55 8.319 5.55 8.318 5.55 8.319 5.55 8.318 5.55 8.319 5.55 8.318 5.55 8.319 4.97 7.46 1.15 1.72 2.81 4.202 8.54-3.277 5.28-2.022 9.34-3.579 1.16-.444 9.33-3.578 5.18-1.985 9.82 1.873 9.83 1.873.55.105 9.82 1.872 2.28.435 1.08.492 9.09 4.155 9.1 4.155 6.53 2.982 9.19 3.924 9.2 3.924 8.17 3.482 9.03 4.295 9.03 4.295 7.61 3.62 7.81-6.238.46-.361 2.96-5.105-6.25-7.808-5.99-7.488-6.25-7.808-6-7.505-6.25-7.808-6.02-7.521-6.25-7.808-6.03-7.537-6.6-7.511-6.6-7.511-6.6-7.511-6.6-7.511-6.61-7.511-6.6-7.511-6.6-7.511-6.6-7.511-6.13-6.977-10-.349-9.99-.348-10-.348-9.99-.349-9.99-.348-10-.348-9.99-.348-9.56-.334-10-.348-9.99-.348-10-.348-3.13-.11-10-.348-1.63-.057-3.67 4.583Z"/><path d="m1315.74 830.13-6.25-7.807-6.04-7.538-6.25-7.807-6.04-7.554-6.25-7.807-6.06-7.57-6.25-7.807-6.07-7.587-6.61-7.51-6.6-7.51-6.6-7.511-6.6-7.51-6.61-7.511-6.6-7.51-6.6-7.51-6.6-7.511-6.33-7.199 3.33-4.694M973.645 812.029l.071 10 .07 9.999.024 3.664.072 9.999.069 10 .07 10 .07 10 .07 10 .071 9.999.055 7.939 7.476 6.642 7.474 6.643 7.476 6.643 7.477 6.642 7.47 6.643 7.48 6.643 7.47 6.642 7.48 6.643 2.8 2.493 7.75 6.326 6.69 5.468 7.74 6.326 6.71 5.479 7.75 6.327 6.72 5.491 7.74 6.33 6.74 5.5 7.2-5.75 3.43-5.29-4.25-9.052-4.26-9.051-1.14-2.429"/><path d="m1101.93 1000.76-4.26-9.047-4.25-9.05-2-4.247-3.85-9.231-.74-1.79M957.272 775.047l.194-.436.298-.351.003-.004.396-.261.242-.078.009-.003.225-.074.537-.045.579.068.596.178.593.281.565.374.517.451.37.424.077.089.02.03.342.523.261.573.151.57.036.546-.05.304-.001.008-.031.188-.196.436-.302.354-.004.003-.392.256-.477.155-.537.044-.578-.069-.596-.178-.591-.282-.004-.002-.127-.084-.433-.287-.516-.451-.447-.511-.361-.552-.261-.572-.152-.569-.036-.546.081-.5Zm0 0 .02-.056M965.695 777.653l.409-.479.265-.59.111-.676-.048-.738-.204-.771-.353-.775-.488-.748M962.309 779.451l.012-.006M949.467 781.479l.232-.279.003-.003.33-.189.411-.086.233.009h.007l.239.009.525.123.043.017.011.005.499.2.56.314.543.392.507.457.452.503.378.529.292.537.028.078.004.011.145.397.014.036.037.214.048.274-.025.435-.131.365-.237.282-.005.002-.326.185-.413.085-.219-.009-.245-.01h-.013l-.526-.124-.552-.222-.558-.313-.543-.392-.506-.456-.451-.502-.378-.528-.035-.065-.001-.003-.091-.167-.003-.006-.16-.295-.192-.521-.086-.488.023-.435.132-.366Zm0 0 .002-.005M957.949 784.269l.004-.002.321-.381.18-.495.034-.588-.114-.66-.259-.707-.192-.355-.101-.187-.099-.183-.512-.717M954.281 786.296l.109-.061M943.264 786.407l.058-.074.003-.003.039-.05.002-.002.058-.072.001-.003.256-.109.34-.012.41.087.467.183.503.27.522.349.52.413.498.462.211.228.001.001.244.263.398.504.323.497.237.47.141.425.04.364-.063.288-.162.202-.003.002-.254.107-.278.008h-.003l-.059.002-.411-.088-.466-.183-.503-.271-.521-.348-.518-.412-.488-.453-.002-.002-.007-.006-.455-.491-.397-.503-.323-.496-.238-.469-.141-.425-.041-.364.061-.289Zm0 0 .003-.007M951.917 789.034l.221-.274.086-.391-.002-.019-.048-.442-.002-.031-.19-.576-.321-.635-.437-.672-.536-.683M948.312 791.088l2.708-1.542.6-.343.286-.163.008-.004.003-.002M939.031 789.268l.082-.119.001-.001.175-.028.263.067.339.159.402.245.451.321.482.385.494.435.487.467.461.481.418.478.253.32.001.001.105.134.285.415.201.359.043.113.066.176.013.208-.083.12h-.002l-.175.026-.263-.068-.201-.095-.139-.065-.402-.245-.451-.321-.15-.12-.001-.001-.329-.264-.493-.433-.486-.466-.46-.481-.418-.476-.358-.454-.285-.415-.202-.359-.11-.289-.014-.21Zm0 0 .006-.011"/><path d="m943.969 794.004 1.943-1.117 1.833-1.055M947.746 791.832l.114-.162-.016-.283-.067-.178M936.864 789.974l.093.057.183.146.265.23.337.309.396.371.44.422.467.457.476.472.467.471.439.449.395.413.335.359.263.293.181.215.091.126-.002.035-.095-.056-.183-.147-.266-.231-.337-.308-.396-.372-.439-.422-.466-.455-.475-.471-.466-.469-.438-.449-.394-.413-.335-.359-.264-.293-.181-.213-.092-.13.001-.037Zm0 0 .259-.469.001-.002.288-.521.001-.002 1.16-2.099.221-.401M941.691 794.8l1.635-.931M937.997 786.409l-1.285 2.284-.001.001v.002l.011.136.103.224.191.302.107.146M1015.84 725.461l-.61-.325-.53-.438-.44-.535-.33-.61-.2-.662-.07-.69.06-.689.05-.145.06-.201.09-.318.32-.612.44-.536.53-.441.6-.327.4-.124.21-.065.05-.014.68-.069.69.066.66.2.6.325.54.438.44.535.32.61.21.662.07.689-.07.69-.19.663-.32.612-.44.536-.53.441-.6.328-.66.203-.68.069-.69-.066-.66-.2Z"/><path d="m1014.93 726.658.89.27.93.089.92-.094.89-.274.82-.443.17-.144.54-.451.59-.725.43-.826.03-.104.24-.792.08-.931-.09-.931M941.42 794.423l.181.214.091.128-.002.035-.095-.056-.184-.147-.265-.232-.337-.308-.396-.372-.439-.421-.466-.455-.475-.471-.466-.47-.438-.449-.394-.412-.335-.359-.264-.293-.181-.215-.092-.128.001-.037h.001l.092.055.183.147M937.742 790.715l.396.372.44.422.467.456.476.472.467.47.439.451.395.413.335.359M941.853 792.853l-.493-.434-.486-.466-.46-.48-.417-.476-.359-.454-.285-.415-.202-.359-.109-.29-.015-.209.009-.013.074-.108h.002l.173-.027.263.067.339.159.403.245.45.321.482.385.494.434.487.467.461.482.419.477.252.32.001.002.105.133.285.415.201.359.043.113v.001l.066.176.013.208-.082.118-.001.001-.177.027-.263-.068-.201-.095h-.001l-.138-.065-.402-.245-.451-.321-.15-.12-.001-.001-.329-.264ZM943.969 794.005l.003-.001M945.81 790.321l-.519-.413-.489-.453-.001-.002-.007-.005-.455-.492-.397-.503-.323-.496-.237-.469-.142-.425-.041-.364.061-.289.008-.01.054-.068.003-.003.039-.049.002-.003.056-.07.003-.001.252-.109.34-.011.411.087.466.182.504.271.521.348.52.414.498.461.214.232.002.001.24.26.398.504.323.496.237.47.141.425.04.364-.062.289-.161.2-.002.002-.256.108-.273.009h-.003l-.065.002-.411-.088-.466-.183-.503-.271-.52-.348ZM951.91 789.038l.002-.002M948.309 791.092l2.711-1.545.601-.343.292-.166M954.434 783.486l.291.536.024.067.004.011.151.41.012.034.038.216.048.272-.025.435-.133.365-.234.279-.002.003-.215.121-.116.066-.412.085-.217-.008-.245-.01-.016-.001-.525-.123-.552-.223-.558-.313-.543-.392-.506-.456-.451-.502-.378-.528-.036-.067-.002-.002-.092-.171-.003-.006-.158-.29-.192-.521-.086-.488.024-.435.131-.366.009-.01.227-.272.003-.002M950.023 781.014l.412-.087.242.009.006.001.23.008.525.123.055.022.012.005.486.196.559.313M957.5 784.526l.448-.253.002-.003M954.277 786.301l3.224-1.776M962.7 779.195l-.003.004-.377.246-.02.013-.476.155-.538.043-.577-.068-.596-.179-.592-.281-.002-.001-.128-.085-.434-.287-.516-.451-.446-.511-.361-.552-.262-.572-.151-.569-.037-.546.081-.5.028-.063.166-.373.302-.355.004-.003M961.5 774.703l.516.451.371.425.076.088.021.031M963.086 776.792l.151.571.036.545-.049.298-.001.007-.032.196-.195.435M958.156 774.002l.25-.082.009-.002.216-.071.538-.045.578.068.597.178M958.349 772.061l-1.083 2.994M962.297 779.458l2.852-1.447M967.391 763.934l-.616 2.571-.129.557-.005.596.118.611.237.604.347.573.203.238.083.097.157.184.523.447.582.356.62.253.633.14.622.021.587-.099.53-.215 2.409-1.041"/><path d="m966.773 766.505.247-.498.234-.274.123-.144.451-.323.53-.216.587-.1.623.02.633.139.62.253.41.251.109.067.065.039.523.447.444.521.347.573.237.605.118.612-.006.596-.13.557-.248.497-.101.118-.256.3-.452.323M975.895 767.401l.009-.806-.158-.827M977.384 756.057l-.025 1.649.092.646.112.323.041.119.065.187.336.589.441.526.528.444.597.343.641.23.661.107.656-.018.625-.144 1.708-.474"/><path d="m977.359 757.706.037-.638.087-.318.079-.284.288-.548.398-.47.494-.375.571-.266.626-.143.656-.019.644.104.018.003.099.036.543.194.597.343.529.443.441.528.336.589.218.631.092.645-.038.638-.166.604-.289.547-.399.469-.485.367-.01.008-.571.263M983.863 760.584l.772-.357.668-.505M989.312 748.062l.329.42.44.531.532.441.606.333.654.213.454.112"/><path d="m989.641 748.482-.036-.066-.293-.535-.206-.648-.068-.606-.007-.065.008-.085.05-.582.19-.638.315-.584.426-.508.522-.412.598-.301.651-.177.354-.025.155-.011.169-.012.68.084.656.213.606.333.533.441.439.532.329.601.206.649.075.671-.059.667-.19.638-.315.584-.427.508-.522.411-.598.301-.651.177-.678.047-.501-.062-.179-.022"/><path d="m992.324 750.111.918.114.916-.064.879-.239.808-.405.705-.557.577-.686.425-.789M1002.27 738.026l.82.442.9.274.92.095.93-.088.9-.266.82-.434.72-.587.59-.716.35-.644.09-.175.01-.022.26-.866.1-.925"/><path d="m1003.44 737.846-.61-.327-.53-.438-.44-.534-.33-.609-.2-.659-.06-.686.06-.684v-.005l.07-.207.13-.446.33-.606.44-.53.53-.435.61-.322.38-.112.2-.06.08-.025.69-.065.69.071.66.202.61.327.53.439.44.534.33.609.2.659.07.686-.07.685-.2.658-.33.605-.44.531-.53.434-.61.322-.66.197-.69.064-.69-.07-.66-.203ZM1027.99 713.05l-.6-.328-.54-.438-.44-.533-.33-.607-.21-.658-.08-.682.02-.292.01-.158.01-.231.18-.654.3-.602.42-.526.51-.43.58-.318.64-.193.47-.044.17-.015.03-.003.67.073.65.204.6.327.53.439.44.532.33.607.21.656.09.682-.05.681-.18.654-.3.602-.41.526-.51.431-.59.318-.63.194-.67.062-.67-.072-.65-.204Z"/><path d="m1027.45 715.067.9.097.9-.084.87-.262.68-.372.11-.058.68-.582.19-.233.37-.478.41-.813.24-.883.06-.92-.11-.921-.29-.887M1043.67 699.346l-.2.417-.07.159-.38.5-.47.404-.55.294-.6.171-.64.043-.65-.089-.63-.215-.59-.334-.53-.44-.44-.53-.34-.598-.23-.644-.01-.043-.02-.138-.08-.484.02-.66.15-.63.27-.576.38-.499.47-.404.55-.293.5-.141.1-.03.64-.041.65.088.2.069.12.042.31.104.59.334.53.44.44.529.34.597.23.644.1.664-.02.66-.14.63Zm0 0-.41 1.642M1039.33 703.676l.86-.058.82-.232.75-.397.63-.547.51-.675.36-.779M1040.32 694.545l-1.57-.042M1053.56 688.923l-.33.459-.21.186-.21.178-.5.254-.56.136-.6.012-.61-.113-.61-.233-.57-.345-.52-.443-.45-.524-.14-.223-.07-.115-.14-.246-.26-.623-.13-.638-.02-.627.11-.593.22-.536.32-.458.25-.209.18-.154.5-.253.56-.135.6-.011.61.113.61.234.57.344.12.102.1.087.3.253.44.523.36.584.25.622.14.637.01.626-.1.593-.22.536Zm0 0-.97 2.351M1050.9 692.731l.68-.344.57-.492.44-.621M1049.77 683.68l-2.31.51M1062.28 679.155l-.26.404-.36.31-.44.203-.09.016-.42.073-.55-.029-.57-.146-.58-.257-.55-.358-.15-.126-.12-.108-.24-.213-.45-.516-.38-.567-.27-.596-.18-.601-.06-.584.05-.544.11-.345.05-.138.27-.404.36-.308.44-.202.5-.088.55.03.58.146.57.257.55.358.51.446.45.515.18.275.09.138.1.153.28.595.18.6.06.583-.05.544-.16.484Zm0 0-1.38 2.801M1057.89 674.119l-2.93 1.031M1060.54 682.503l.36-.547M1072.63 652.371l-2.29 1.293M1078.46 657.599l-.04-.104-.14-.193-.22-.275-.3-.344-.37-.402-.41-.444-.46-.467-.47-.476-.46-.462-.46-.436-.41-.388-.37-.329-.3-.253-.22-.172-.14-.083-.05.011-.16.091v.002l-.46.255-2.14 1.188-.03.016-.01.002"/><path d="m1078.46 657.599-.04.012-.14-.081-.22-.171-.3-.254-.37-.328-.26-.242v-.007l-.16-.141-.45-.435-.47-.465-.47-.476-.45-.469-.42-.444-.36-.402-.3-.345-.03-.031v-.006l-.19-.236-.14-.193-.04-.102-.01-.001M1075.28 663.89l1.41-2.473.73-1.284.03-.187-.05-.272-.05-.104-.11-.244-.23-.41-.31-.449v-.001l-.01-.006-.38-.484-.43-.495-.46-.486-.48-.459-.48-.413-.46-.353-.42-.278-.36-.194-.3-.101-.22-.004-.4.215-.01.002-.36.192-.75.396v.001l-.16.086-.25.134-.18.093v.002l-.4.212v.001"/><path d="m1077.42 660.133-.01.001-.12.093-.22-.004-.08-.025-.22-.074-.36-.193-.38-.251v-.001l-.04-.026-.46-.354-.48-.414-.48-.46-.11-.114-.01-.006-.35-.367-.43-.496-.38-.485-.31-.457-.24-.41-.15-.347-.01-.062-.01-.007-.04-.203.04-.183v-.003l.12-.084.01-.008M1072.27 668.295l.51-.916.33-.585 1.17-2.073.11-.266.02-.349-.04-.243-.01-.004-.03-.172-.17-.473-.27-.508-.34-.525-.41-.52-.16-.175v-.001l-.3-.321-.49-.453-.41-.315-.01-.009-.09-.07-.5-.318-.47-.23-.43-.134-.37-.033-.18.042v.001l-.12.028-.65.322-.01.003-.59.292-.01.002-2.08 1.026"/><path d="m1074.28 664.72-.01.002-.2.17-.3.072-.37-.031-.43-.133-.48-.231-.5-.318-.5-.394-.5-.455-.46-.497-.41-.522-.34-.526-.13-.245v-.011l-.13-.253-.03-.068v-.007l-.15-.398-.07-.372v-.018l-.01-.029.02-.348.12-.262v-.003l.2-.163.01-.008M1067.58 674.094l1.72-3.181.09-.421-.01-.477v-.008l-.06-.231-.06-.3-.22-.557-.31-.562-.39-.544-.45-.507-.5-.449-.53-.375-.54-.286-.53-.186-.49-.078-.44.031-.37.14-1.34.584-.01.003-1.98.868"/><path d="m1069.29 670.914-.03.056-.16.283v.002l-.29.242-.37.142-.44.033-.49-.078-.1-.034-.13-.047-.01-.004-.1-.035-.19-.065-.54-.287-.53-.375-.5-.45-.46-.508-.39-.546-.31-.563-.22-.558-.03-.158v-.01l-.08-.363-.01-.486.09-.419.19-.334.01-.005.27-.235.01-.008"/><path d="m1068.34 667.819.39.546.31.56.21.557.07.299.05.233v.007l.01.479-.09.419-.19.336v.003l-.29.247-.37.141-.45.032-.49-.078-.09-.034-.13-.044-.01-.003-.11-.039-.18-.066-.54-.286-.53-.375-.51-.45-.45-.508-.39-.545-.31-.562-.22-.558-.04-.169v-.01l-.08-.354-.01-.485.1-.419.19-.339v-.002l.29-.242.37-.141.44-.031.5.08.52.185.54.287.53.373M1064.44 674.774l.71.251.67.104M1068.49 667.138l.68.533.68.429.64.311.41.125.17.054.1.008.41.034.4-.099.28-.234M1074.39 664.459l-.12.263v.003l-.21.172-.29.072-.38-.031-.43-.134-.47-.23-.5-.318-.51-.394-.49-.455-.46-.498-.41-.521-.34-.526-.13-.237v-.011l-.14-.261-.03-.079v-.006l-.14-.388-.08-.388v-.031l.02-.348.12-.265v-.002l.21-.169.12-.03.17-.041.38.033.43.133M1073.54 662.186l.35.525M1074.15 663.218l.18.473.03.164v.004l.05.251"/><path d="M1072.27 668.299v-.012l.51-.908.33-.585 1.16-2.069M1071.18 660.003l.5.318M1071.8 660.413l.38.301.49.454.3.321v.002l.16.174M1077.42 660.134v.002l-.13.094-.22-.004-.08-.025-.22-.074-.36-.193-.38-.251v-.001l-.04-.026-.46-.353-.48-.415-.48-.459-.11-.112v-.005l-.36-.371-.43-.496-.38-.485-.31-.457-.24-.41-.15-.347-.02-.068v-.007l-.04-.197.04-.185v-.001l.13-.092.22.005.29.1.37.194M1077.24 659.329l.11.244.04.104"/><path d="M1075.28 663.893v-.004l1.41-2.472.72-1.281M1074.37 663.862l.04.022.4.134.3.003.17-.128M1076.97 656.389l-.45-.436-.47-.465-.47-.475-.45-.469-.42-.445-.36-.401-.3-.346-.03-.034-.01-.007-.18-.232-.14-.191-.05-.104.05-.012.14.082.22.172.3.255.37.328.41.389.46.434.46.464.47.475.46.468.41.443.37.403.3.344.22.273.14.194.04.103v.001l-.04.012-.14-.081-.22-.171-.3-.253-.37-.328-.25-.24-.01-.007-.16-.143ZM1073.64 652.783l-.16.09v.001l-.46.256v.001l-2.14 1.187-.03.016-.01.003M1072.63 652.37v.001l-2.29 1.293"/><path d="m1073.48 652.873-.22-.17-.29-.199-.21-.113-.13-.021M1118.73 891.239l-.13-.307-.08-.304v-.289l.05-.264.12-.227.18-.183.22-.121v-.002l.02-.008.27-.074.31-.015.33.046.33.104.33.159.31.207.29.247.24.279.19.298.14.308.07.304.01.289-.01.044v.004l-.05.215-.12.228-.18.182v.002l-.23.129-.28.074-.3.014-.33-.046-.34-.104-.33-.159M1123.1 891.446l.24-.247.17-.308.07-.356-.01-.392-.09-.411-.19-.416-.26-.403-.33-.377"/><path d="m1121.57 892.359 1.5-.897.03-.015v-.001M1119.16 891.815l.29.247M1114.03 893.156l.2-.091.24-.035.28.021.14.036.01.002.15.039.32.13.31.177.3.218.28.251.25.274.2.286.13.25v.006l.02.031.09.278.04.257-.03.227-.09.188-.15.142v.001M1118.46 894.777l.2-.192.12-.254.04-.308-.04-.348-.12-.375-.21-.389-.27-.387-.33-.37M1114.77 895.344l.3.218.32.178.31.129.3.077.28.022"/><path d="m1116.72 895.843 1.74-1.063v-.003M1113.77 893.713l.03.257.09.278.15.287.2.285M1110.02 895.634l.08-.07.16-.046.2.007.25.059.27.111.29.157.29.197.3.231.27.254.25.269.21.272.17.266.11.249.07.223V898l-.05.146-.11.097v.001M1114.69 897.074l.15-.132.07-.197v-.254l-.09-.301-.16-.337-.22-.36-.29-.369-.33-.363M1111.02 897.527l.29.23.3.198.28.157.1.037.18.073.24.06M1112.78 898.243l1.91-1.169M1109.93 895.809l.01.188.06.222.12.249.16.266.22.272M1107.11 896.877l.07-.052h.12l.17.05.2.1.24.146.26.185.28.219.27.236v.001l.01.006.27.258.25.263.22.258.11.137v.001l.08.106.14.219.09.186.04.147-.01.101-.06.049-.01.003h-.12"/><path d="m1109.85 899.496 1.7-1.018.34-.203M1111.89 898.275l.09-.07.01-.053M1107.23 897.312l.15.219.18.243M1106.71 898.401l-.27-.261-.25-.258-.24-.243-.2-.221-.18-.189-.12-.15-.08-.105-.03-.057.02-.006.08.045.12.095.17.14.12.114.01.009.07.058.23.215.26.239.26.256.09.09.01.007.17.165.25.257.24.244.2.221.17.189.13.15.08.105.03.056v.001l-.03.005-.07-.045-.12-.095-.17-.141-.2-.181-.24-.214M1108.05 899.567l.87-.506M1104.69 895.83l.03.091.08.138.12.18.17.215.2.242.1.114M1149.88 863.77l.39.321.44.238.49.146.5.046.5-.053.48-.151.44-.244.39-.327.31-.397.23-.452.15-.49.04-.509-.05-.508-.15-.488-.25-.449"/><path d="m1151.32 863.798-.33-.176-.29-.237-.23-.291-.18-.332-.11-.361-.04-.376.03-.377.1-.362.18-.335.23-.293.29-.242.32-.18.36-.112.37-.039.37.034.36.108.33.176.29.238.23.29.18.332.11.361.04.376-.03.376-.1.363-.18.334-.23.294-.29.242-.32.18-.36.112-.37.04-.37-.035-.36-.108ZM1105.2 894.929l-.49.861-.02.039v.001M1106.16 895.382l-.03.066-.54.991v.001l-.2.369v.001l-.05.106.02.057.08.106.13.15.17.189.21.22.23.244.26.257.26.262.27.255.25.239.23.214.21.181.16.141.13.095.07.046.02-.006"/><path d="m1105.73 897.191.13.118.01.009.06.054.23.214.26.24.26.255.09.088.01.008.17.166.25.258.24.244.2.221.17.189.13.15M1105.34 896.916l.02-.005.07.045.13.095M1108.02 899.51l.03.056M1107.89 895.317l-.2.398v.002l-.01.011-.07.143v.001l-.05.106-.11.211-.06.13v.003l-.28.556-.01.101.04.147.09.187.14.219.19.243.22.258.15.155v.001l.11.107.26.257.28.243.28.218.06.047.2.139.24.146.2.1.17.051.12-.001"/><path d="m1109.47 898.548.1.137v.001l.08.105.15.219.09.187.04.146-.01.102-.07.051M1107.11 896.878v-.002l.07-.05.12-.001.16.051.21.1.24.145.26.186.27.218.27.237M1108.72 897.768l.27.258.25.264M1110.91 893.585l-.91 2.036v.002l-.02.041-.05.145v.188l.07.223.11.249.17.265.21.272.25.269.27.254.29.23.3.197.29.157.09.038v.001l.18.072.24.06.21.007.16-.046v-.001M1112.38 896.804l.21.273.16.266.12.249.06.222.01.188-.06.145"/><path d="m1110.25 895.52.21.007.24.06.28.11.28.157.3.198.29.23M1109.98 895.664l.01-.004.03-.025v-.001l.07-.068M1114.5 891.593l-.71 1.895-.03.227.03.258.1.277.15.287.2.286.24.273.28.251.31.218.31.177.31.13.31.077.27.022.25-.035.19-.091 1.75-1.066M1116.71 894.466l.13.246"/><path d="m1116.95 895.031.03.258-.03.227-.09.188-.14.14-.01.001M1113.79 893.488l.02-.028.07-.16.15-.142.2-.09.24-.035.28.021.15.037v.002l.15.038M1115.98 893.656l.28.251.24.273M1119.04 888.361l-.48 1.718-.05.263.01.289.07.304.13.307.2.299.24.278.28.247.31.207.33.159.34.104.33.046.3-.015.28-.073.23-.131 1.53-.914"/><path d="m1119.09 889.542.01-.005.27-.074.31-.014.33.045.33.105.33.158.32.207.28.248.24.278.2.299.13.307.07.304.01.29-.01.04v.004l-.05.219-.12.227M1123.09 891.449l.01-.002M1118.57 890.079v-.014l.12-.214.18-.183M1124.21 884.582l-.18 1.393-.01.318.06.327.12.325.18.309.25.282.28.245.32.197.35.142.35.082.35.018.33-.046.3-.108 1.19-.658M1128.1 887.408l.35-.226.28-.295.2-.356.11-.398.02-.43-.08-.443-.17-.44-.25-.419-.32-.381"/><path d="m1124.03 885.975.08-.295.15-.263.01-.007.2-.211.25-.167.3-.109.33-.046.35.018.36.082.34.142.32.197.29.244.24.283.18.31.13.324.05.328-.01.318-.08.295-.1.174-.05.088-.2.219-.26.167M1130.01 880.08l.12 1.009.05.346.11.34.18.318.24.286.29.242.33.189.35.128.37.063.36-.005.35-.072.32-.137.91-.412M1133.99 882.375l.37-.266.31-.336.22-.393.13-.436.04-.462-.06-.469-.15-.459-.25-.431"/><path d="m1130.13 881.089.03-.289v-.053l.1-.322.16-.291.23-.249.27-.197.32-.137.35-.073.37-.005.36.063.35.128.33.189.29.242.24.286.18.319.11.339.05.347-.03.342-.1.322-.16.291-.23.249-.02.019-.26.178M1137 876.261l.23.246.29.24.33.182.36.118.37.049.37-.023.38-.047"/><path d="m1137.23 876.507-.14-.17-.1-.118-.18-.326-.11-.35-.04-.362.04-.359.11-.343.17-.314.24-.271.29-.22.33-.159.36-.093.37-.023.37.049.36.117.33.183.29.24.24.288.18.326.11.35.03.362-.03.36-.11.343-.18.313-.23.272-.29.219-.33.16-.23.06-.13.032"/><path d="m1139.32 877.027.49-.125.44-.215.39-.297.32-.368.24-.423.15-.464.05-.486-.06-.489-.14-.474M1143.42 870.178l.39.322.45.241.49.15.51.052.5-.046.49-.143.45-.235.39-.318.33-.387.24-.444.14-.482.06-.501-.05-.503-.15-.483-.24-.447"/><path d="m1144.58 870.524-.33-.178-.29-.239-.24-.29-.17-.33-.11-.358-.04-.371.04-.371.11-.357.18-.328.24-.287.29-.235.33-.173.36-.106.38-.035.37.039.36.111.33.178.29.239.24.29.18.33.11.358.03.371-.04.371-.11.357-.17.328-.24.287-.29.235-.34.173-.36.106-.37.035-.38-.039-.36-.111ZM1156.53 857.565l.44.239.47.146.49.048.49-.052.46-.149.43-.242.36-.324.3-.394.21-.45.13-.487.03-.507"/><path d="m1160.34 855.187-.01.141-.01.232-.1.362-.16.333-.21.291-.28.24-.31.179-.34.11-.36.037-.36-.034-.35-.109-.33-.176-.29-.238-.24-.29-.18-.333-.12-.359-.05-.375.03-.375.09-.36.16-.333.22-.291.27-.24.31-.178.34-.111.36-.039.37.036.35.109.32.177.29.238.15.182.09.107.18.332.12.36.05.375Zm0 0v.205M1159.99 854.121l-.12-.17M1159.87 853.951l-.33-.392M1162.41 851.128l.43.243.46.152.47.057.46-.042.44-.137.39-.228.34-.31.26-.381.19-.436"/><path d="m1166.17 849.278-.14.323-.13.188-.06.093-.25.23-.29.168-.33.102-.34.03-.35-.042-.34-.113-.31-.179-.29-.238-.24-.289-.19-.329-.13-.354-.06-.368v-.367l.08-.351.14-.322.19-.282.25-.229.29-.168.33-.102.18-.016.16-.014.35.042.34.113.31.179.29.239.24.288.19.328.13.355.06.368v.366l-.08.351Zm0 0-.32.768M1164.69 846.691l-.85-.142M1171.35 843.324l-.17.263-.22.211-.05.026-.22.125-.29.086-.32.016-.33-.054-.33-.121-.31-.184-.28-.24-.24-.286-.2-.323-.14-.345-.08-.356-.02-.352.05-.334.11-.305.17-.263.22-.21.06-.036.2-.115.3-.085.32-.016.33.053.32.121.31.184.28.24.25.287.19.322.15.345.08.355.01.352-.04.335-.11.304Zm0 0-.62 1.167M1168.12 845.239l.44.163.45.072.43-.022.4-.115.36-.205.3-.285.22-.356M1169.26 840.442l-1.35.152M1172.27 839.342l.4.258.42.18.41.094.39.004.36-.085.32-.171.25-.25M1175.69 837.86l-.18.185-.23.127-.16.038-.11.024-.29-.003-.3-.07-.31-.132-.3-.191-.28-.242-.25-.284-.2-.314-.16-.333-.1-.339-.05-.331.02-.311.08-.28.04-.076.09-.16.19-.185.23-.126.26-.063.29.004.31.07.31.133.3.191.27.241.25.284.21.314.15.332.11.338.04.331-.02.312-.07.279-.14.237Zm0 0-.87 1.512M1173.42 834.857l-1.68.454M1179.74 820.273v-.002l-.03.017-.84.483M1183.32 823.776l.02-.029-.04-.081-.09-.129-.14-.171-.18-.208-.21-.236-.23-.256-.26-.265-.26-.265-.25-.254-.25-.233-.22-.203-.19-.167-.15-.115-.01-.005v-.003l-.11-.074-.06-.023-.26.143-.94.51v.001l-.07.039"/><path d="m1182.58 823.185-.2-.194v-.001l-.04-.038-.26-.254-.26-.265-.25-.266M1183.15 823.678l-.15-.122-.19-.167M1181.33 821.912l-.21-.236-.18-.208-.13-.171-.09-.129-.04-.08.01-.027v-.002M1183.33 823.775l-.06-.023M1183.13 825.719v-.126l-.04-.172-.1-.211-.14-.243-.11-.159v-.001l-.07-.105-.22-.278-.24-.278-.26-.27-.03-.03v-.001l-.23-.22-.26-.221-.24-.183-.23-.139-.19-.089-.15-.036-.1.019-.1.049v.001l-.22.112-.17.086-.01.001-.16.082v.001l-.03.012-.32.162-.13.065v.001"/><path d="M1182.34 825.505v-.001l-.18-.14-.26-.221-.27-.251-.17-.182v-.001l-.08-.087-.25-.279-.21-.278M1183.13 825.718l-.06.073-.1.02-.15-.035M1180.59 823.558l-.09-.211-.05-.172.01-.124.05-.071.01-.003M1181.76 828.792v-.003l.05-.167v-.212l-.06-.248-.11-.276-.01-.024v-.003l-.14-.265-.2-.297-.23-.292-.25-.276-.27-.247-.27-.21-.27-.165-.25-.112-.22-.057h-.2l-.04.018v.001l-.11.04-2.04.92"/><path d="m1180.84 828.795-.27-.165-.27-.21-.27-.247-.25-.275-.23-.293-.2-.298M1179.03 826.278l.05-.166.1-.111v-.004M1181.76 828.789v.001l-.1.114M1178.22 834.603l1.04-1.729.09-.204.04-.248-.02-.283-.07-.305-.13-.317-.17-.317-.22-.303-.25-.28-.28-.244-.28-.2-.29-.147-.28-.09-.26-.028-.23.034-1.86.695"/><path d="m1178.92 833.123-.23.034-.26-.028-.2-.066-.01-.002-.07-.022-.28-.147-.29-.2M1179.26 832.874v.002M1177.05 832.168l-.21-.304-.18-.317-.13-.318-.06-.283-.01-.006v-.016l-.02-.283M1176.57 830.189l.15-.152.17-.083.02-.012M1175.58 834.031l.37.33.39.271.39.199.38.121.35.038.31-.047.26-.129.19-.207"/><path d="m1177.4 829.94.28.09.28.147.29.2.27.244.25.279.22.304.18.317.12.317.08.305.02.283-.04.248-.09.202-.01.002-.14.153-.19.096-.23.034-.26-.028-.2-.065-.01-.001-.07-.024-.29-.147-.29-.2-.27-.245-.25-.279-.22-.304-.17-.317-.13-.318-.07-.289v-.006l-.01-.01-.01-.283.04-.248.09-.204.15-.152.19-.095.23-.034M1178.22 834.607v-.004l.01-.002 1.03-1.723M1178.27 829.864l.37.335.37.284.36.223.34.152.31.077.25-.002.21-.081.13-.156M1181.76 828.79v.001l-.01.001-.1.115-.15.06-.19.001-.22-.057-.26-.113-.26-.165-.28-.21-.27-.247-.25-.275-.23-.293-.19-.298-.16-.293-.1-.275-.06-.249v-.211l.05-.167M1181.29 827.299l-.23-.292-.25-.275-.27-.247-.27-.21M1181.81 828.625v-.212l-.06-.248-.11-.276-.01-.028v-.003l-.14-.261M1180.61 830.696l1.14-1.904M1180 826.11l-.25-.113-.23-.057-.19.001M1183.13 825.718v.002l-.01.003-.05.071-.11.019-.15-.035-.19-.089-.22-.139-.06-.043v-.001l-.18-.139-.26-.222-.27-.25-.17-.183v-.001l-.08-.087-.25-.279-.21-.278-.18-.265-.15-.243-.09-.211-.05-.171.01-.125M1182.99 825.212l-.14-.243-.11-.159v-.001l-.07-.105-.22-.277M1181.93 827.753l.43-.738.77-1.295M1180.77 822.995l-.15-.036"/><path d="m1181.63 827.862.08.018.14-.027.08-.1M1181.19 823.223l-.23-.139M1183.07 823.366l.14.172.09.128.04.08v.001l-.01.029-.07-.022-.11-.075-.15-.122-.19-.167-.22-.204-.21-.194v-.001l-.04-.038-.26-.254-.26-.265-.25-.266-.24-.255-.21-.237-.18-.208-.13-.171-.09-.129-.04-.08.01-.029.06.023.11.074M1182.45 822.666l-.26-.265-.26-.265-.25-.253-.25-.233-.22-.204-.19-.167M1182.9 823.158l-.21-.236M1180.87 821.163l-.03-.03-.26-.232-.24-.208-.21-.172-.17-.13-.13-.084-.09-.036v.002M628.796 424.227l.189-.324.002-.004.266-.253.33-.168.283-.058.006-.001.092-.019.419.015.44.109.444.198.43.279.401.35.356.407.297.449.227.473.148.479.064.466-.024.436-.097.345-.002.007-.011.037-.191.327-.003.003-.264.249-.33.168-.382.078-.418-.016-.439-.11-.444-.197-.43-.28-.4-.349-.356-.406-.297-.448-.227-.473-.148-.478-.063-.466.023-.436.109-.389Zm0 0 .103-.179M632.27 428.197l.018-.005M623.901 430.694l.207-.204.273-.123.329-.035.373.053.401.138.044.023.007.004.364.193.412.292.394.354.36.4.313.433.254.449.184.446.031.125.003.01.074.293.027.392-.054.342-.133.278-.002.002-.206.201-.273.122-.33.035-.372-.054-.401-.139-.414-.219-.411-.292-.394-.353-.359-.4-.313-.433-.253-.447-.185-.446-.108-.428-.028-.392.053-.342.132-.275.001-.003Zm0 0 1.511-2.53M627.281 434.883l.073-.029M620.367 436.151l.143-.149.212-.069.272.013.323.095.359.174.384.244.392.307.386.358.365.393.33.416.282.42.223.41.156.383.059.243v.002l.024.097.006.287-.07.222-.002.002-.001.001-.003.003-.054.055-.002.002-.083.085-.212.068-.046-.002h-.002l-.224-.012-.323-.095-.359-.174-.383-.245-.391-.306-.386-.357-.364-.393-.329-.414-.282-.42-.223-.409-.135-.329-.001-.003-.021-.051-.083-.342-.007-.288.069-.22.001-.002Zm0 0 1.667-2.773M624.07 440.145l.004-.002M618.484 440.115l.003-.002.075-.086.149-.011.212.067.27.141.284.189.002.001.03.021.351.272.137.119.235.204.377.361.068.07.001.002.301.314.347.396.312.39.264.37.206.334.14.287.07.228-.006.161-.001.001-.077.086-.148.01-.215-.067-.16-.084-.109-.057-.317-.211-.35-.272-.37-.323-.377-.36-.106-.111-.001-.001-.263-.274-.347-.395-.311-.389-.168-.237-.002-.001-.094-.131-.206-.335-.14-.287-.07-.229.004-.159v-.002Zm0 0 .576-.967 1.169-1.968M622.234 444.03l.003-.001M618.938 443.262l-.256-.284-.198-.23-.133-.167-.061-.096-.001-.001.012-.024h.001l.083.05.153.122.218.19.273.25.317.301.351.34.369.366.375.378.365.375.341.358.304.327.256.284.198.229.132.167.061.096v.001l-.012.023-.085-.051-.154-.123-.217-.19M621.039 445.403l-.35-.34-.369-.365-.374-.377-.364-.375M622.332 446.184l.335.277.305.232.254.172.193.103.015.003M671.861 382.832l-.479-.258-.419-.344-.343-.418-.254-.476-.156-.516-.05-.535.056-.535.161-.513.259-.472.348-.413.423-.337.482-.25.522-.152.542-.048.542.057.52.16.479.257.42.344.343.419.254.476.155.515.051.535-.056.535-.161.513-.26.472-.347.413-.423.337-.482.25-.522.152-.542.049-.542-.057-.521-.16Z"/><path d="m618.301 442.46-.001.001-.011.024.062.098.132.167.198.229.257.284.304.327.341.358.364.374.374.377.368.366.35.339.317.3.273.251.218.19.154.122.085.051.248-.135h.001l.506-.275.03-.016.002-.001"/><path d="m618.301 442.461.084.05.154.122.217.19.273.25.318.301.35.34.37.366.374.378.365.375.341.358.305.328.256.283.198.23.132.166.06.096.001.001-.011.021-.001.002M621.902 442.936l.206.335.14.287.069.228-.005.159v.002l-.074.083-.004.004-.149.01-.213-.067-.158-.083-.112-.058-.317-.211-.35-.272-.371-.323-.377-.361-.106-.11-.001-.002-.262-.273-.346-.395-.312-.389-.169-.238-.001-.001-.093-.13-.207-.335-.14-.287-.07-.229.004-.161.001-.001.077-.087.148-.011.213.066M620.68 441.465l.302.315.348.396M622.234 444.033l.898-.456M619.512 440.438l.35.272M622.519 439.69l-.392-.307-.385-.357-.364-.393-.33-.414-.282-.42-.223-.408-.136-.334-.001-.003-.019-.047-.083-.342-.007-.287.069-.223.002-.001.142-.147.212-.069.272.013.322.095.36.173.383.245.393.307.386.357.365.394.329.416.282.419.224.41.156.383.058.242v.001l.024.099.007.287-.07.22-.001.002-.003.003-.053.055-.002.002-.08.082-.006.006-.212.068-.046-.002h-.002l-.225-.012-.322-.095-.359-.174-.383-.244Z"/><path d="m624.066 440.149.114-.053.003-.001.052-.024.004-.001M627.762 434.559l-.002.003-.207.204-.197.087-.077.034-.329.035-.373-.053-.4-.139-.415-.22-.411-.292-.393-.353-.36-.4-.313-.432-.253-.448-.184-.446-.109-.427-.028-.392.054-.342.132-.279.003-.002M627.062 431.795l.312.433M627.918 433.55l.027.393-.054.341M625.412 428.159l-1.517 2.54M624.102 430.495l.273-.122.33-.036M625.48 430.529l.052.027.007.004.357.188.411.293M633.186 426.631l-.024.437-.096.337-.002.008-.012.043-.189.324-.003.003-.266.253-.307.156-.023.012-.382.077-.418-.016-.44-.109-.443-.198-.43-.279-.4-.35-.356-.406-.297-.448-.227-.472-.148-.478-.063-.467.023-.436.109-.389.108-.185.083-.142.003-.003.262-.25.331-.169.289-.059.006-.001.086-.018M632.746 425.213l.227.473.148.479M630.02 422.104l-1.227 2.13M631.695 424.008l.401.35.356.407M636.16 414.579l-.921 1.767-.159.428-.068.472.024.498.116.505.204.492.283.461.351.411.407.347.447.269.468.18.474.084.459-.014"/><path d="m635.238 416.346.242-.367.318-.293.076-.041.304-.165.428-.113.46-.015.473.085.47.18.447.268.407.348.352.412.283.461.204.493.116.505.024.498-.069.472-.159.428-.244.367-.249.229-.069.063-.38.206-.428.112M643.2 406.816l-.491 1.203-.106.499-.009.521.09.525.184.507.271.47.349.415.412.345.46.261.49.167.501.067"/><path d="m642.707 408.019.2-.456.188-.261.097-.136.361-.322.422-.235.466-.138.494-.037.502.067.49.167.46.261.413.345.349.416.271.471.184.507.089.525-.009.521-.106.499-.2.456-.286.397-.361.321-.422.234-.442.131-.025.007-.493.037M651.156 399.689l.023-.372.011-.164.134-.514.231-.474.319-.415.393-.339.453-.252.496-.154.519-.05.523.056.507.159.47.256.416.344.346.418.263.477.169.516.069.537-.034.535-.135.515-.231.474-.319.414-.393.34-.453.251-.496.153-.519.05-.523-.055-.506-.159-.47-.257-.154-.127-.262-.217-.346-.418-.263-.476-.169-.516-.069-.536Zm0 0 .02-.401M652 401.635l.317.283M662.156 392.552l-.476-.255-.418-.343-.345-.419-.256-.478-.16-.52-.056-.539.05-.541.153-.519.251-.479.34-.42.414-.345.474-.256.514-.159.536-.054.536.052.517.157.476.255.419.344.344.419.257.478.159.519.056.54-.05.54-.153.52-.251.479-.34.42-.414.345-.474.256-.514.158-.536.054-.536-.052-.517-.157ZM684.274 368.795l.118.097.3.248.343.416.255.47.157.506.053.522-.053.519-.157.496-.255.453-.344.393-.418.318-.478.231-.518.135-.539.034-.539-.07-.518-.169-.478-.262-.418-.346-.343-.416-.256-.47-.157-.506-.052-.523.053-.519.158-.495.255-.453.344-.394.419-.318.477-.23.518-.135.501-.031.038-.002.539.069.518.169.477.263Zm0 0 .193.138M682.737 368.294l-.346-.037M694.904 361.968l.064.502-.028.338-.013.156-.143.468-.239.423-.327.362-.401.287-.462.201-.503.108-.525.01-.528-.089-.51-.183-.472-.271-.416-.348-.344-.412-.26-.461-.164-.49-.063-.503.041-.494.143-.468.24-.422.327-.362.233-.166.169-.121.462-.201.503-.107.525-.009.527.088.509.183.472.271.416.348.344.412.259.46.164.49ZM691.183 359.832l-1.156.434M703.793 355.315l-.117.43-.21.378-.002.005-.299.32-.373.246-.433.162-.478.071-.502-.022-.509-.114-.496-.202-.462-.282-.413-.351-.346-.408-.267-.447-.177-.47-.08-.475.02-.462.118-.43.205-.368.008-.014.299-.32.373-.246.434-.161.477-.071.502.023.509.114.494.202.463.282.412.351.345.407.267.446.177.47.08.475-.019.461ZM699.652 352.316l-1.726.866M711.68 349.25l-.175.335-.259.269-.291.17-.043.026-.395.113-.443.028-.471-.059-.483-.147-.476-.224-.45-.296-.407-.355-.349-.4-.277-.433-.194-.445-.104-.441-.011-.422.04-.179.045-.205.175-.335.26-.269.334-.195.396-.113.442-.027.471.06.483.146.475.224.449.296.407.355.348.401.277.431.194.444.105.441.01.421-.083.385ZM707.705 345.786l-2.096 1.174M730.32 338.923v-.001l.009-.015.238-.435.001-.001.018-.033-.043-.092-.116-.161-.183-.224-.244-.277-.297-.321-.336-.351-.364-.369-.378-.372-.376-.362-.361-.336-.332-.299-.289-.25-.237-.191-.174-.125-.106-.054v.001"/><path d="m730.587 338.438-.003.002-.028.017-.001.001-.001-.001-.104-.052-.173-.124-.237-.191-.289-.249-.332-.299-.362-.338-.377-.362-.378-.373-.365-.369-.216-.227-.003-.002-.118-.124-.296-.32-.245-.278-.183-.223-.115-.161-.042-.091.032-.019v-.001M727.548 339.854l.452-.884.001-.003.095-.186.018-.155-.059-.22-.136-.275-.205-.32-.267-.353-.271-.316-.049-.057-.36-.377-.22-.21-.001-.001-.164-.157-.397-.344-.393-.307-.298-.207-.076-.052-.34-.2-.294-.134-.236-.063-.17.011-.002.001"/><path d="m728.096 338.781-.004.004-.091.082h-.002l-.146.011h-.005l-.016.001-.236-.062-.294-.133-.091-.054-.004-.002-.245-.144-.375-.259-.393-.308-.398-.345-.386-.368-.059-.062-.001-.001-.301-.315-.319-.373-.268-.354-.068-.105-.137-.215-.135-.276-.022-.082-.038-.137.02-.155.095-.084.001-.001M723.979 340.853l.002-.003.028-.062.032-.09v-.003l.044-.125-.006-.278-.032-.115v-.001l-.057-.211-.168-.363-.241-.385-.304-.393-.355-.386-.393-.363-.417-.327-.423-.278-.414-.219-.15-.059-.004-.001-.234-.091-.349-.078h-.295l-.231.075-.004.003"/><path d="m724.007 340.788-.005.006-.029.027-.002.002-.12.115-.002.001-.227.076h-.295l-.349-.077-.389-.151-.414-.219-.424-.278-.417-.328-.394-.363-.356-.387-.304-.393-.241-.386-.167-.364-.089-.326-.006-.278.077-.218.155-.148.001-.002M718.555 344.14l.041-.334-.047-.376-.134-.403-.215-.417-.29-.412-.351-.393-.401-.359-.434-.311-.451-.25-.45-.181-.433-.104-.399-.023-.349.058-.285.138-2.517 1.47"/><path d="m718.555 344.14-.026.055-.103.223-.211.213-.003.002-.283.137-.348.059-.399-.023-.118-.028-.009-.002-.306-.074-.451-.18-.452-.251-.434-.311-.402-.359-.352-.394-.289-.413-.216-.417-.034-.104-.003-.007-.097-.293-.046-.376.042-.334.13-.278.209-.21.003-.002"/><path d="m718.214 344.633-.003.002-.285.138-.349.06-.398-.023-.11-.026-.009-.002-.314-.076-.452-.18-.451-.251-.435-.311-.401-.359-.352-.394-.29-.413-.216-.417-.036-.111-.002-.007-.095-.286-.047-.377.043-.333.129-.278.212-.212.003-.002.283-.136M714.353 340.777l-2.505 1.463M714.988 340.581l.398.023M724.041 340.181l.031.113.007.278-.042.121-.001.003-.033.095-.03.029-.002.002-.122.117-.002.002-.23.077-.294-.001-.349-.077-.389-.15-.414-.219-.424-.279-.417-.327-.394-.364-.356-.386-.304-.394-.241-.386-.168-.363-.088-.327-.006-.277.077-.218.156-.15.003-.001.227-.075.296.001.348.077.24.094M723.574 339.219l.24.386M720.007 337.1l-2.757 1.627M721.684 337.472l.423.279M728.11 338.627l-.018.156-.094.084-.001.001-.143.01-.006.001-.02.001-.236-.062-.294-.133-.092-.054-.003-.003-.245-.143-.374-.259-.394-.308-.397-.345-.387-.368-.058-.061-.001-.001-.301-.316-.32-.373-.268-.354-.067-.105-.001-.001-.137-.214-.135-.275-.023-.086-.036-.134.019-.155.094-.083.002-.002h.001l.169-.011.236.063M727.445 337.459l.267.353.206.32M724.174 335.045l-.365.214-2.563 1.497M725.215 335.431l.076.052.001.001.297.206.393.307.397.344M730.556 338.457v.001l-.105-.053-.174-.125-.236-.19-.29-.25-.332-.299-.361-.337-.377-.362-.379-.373-.364-.37-.217-.226-.002-.002-.118-.124-.297-.321-.244-.277-.184-.224-.114-.16-.042-.091-.001-.001.033-.019.001.001M729.367 337.011l.337.352.296.321M730.43 338.184l.115.161M726.751 334.654l-1.458.828M727.031 334.833l.236.191.29.249M731.367 339.487l-.055-.091-.177-.246-.238-.298-.289-.339-.038-.042M640.834 442.923l.206-.348.002-.004.29-.272.359-.18.291-.057.005-.001.12-.024.455.019.478.12.482.216.468.303.434.38.386.441.321.485.245.511.159.517.067.504-.026.47-.099.341-.003.008-.02.07-.209.351-.004.003-.287.268-.359.179-.415.081-.456-.019-.477-.12-.481-.216-.302-.197-.165-.106-.204-.179-.23-.2-.385-.441-.321-.484-.245-.511-.16-.516-.066-.503.026-.47.12-.419Zm0 0 .029-.052M644.594 447.223l.022-.007M635.478 449.855l.227-.218.298-.129.358-.036.405.06.436.152.035.019.008.004.407.217.448.317.427.384.39.434.338.468.071.124.203.36.114.277.084.205.025.101.003.01.087.349.028.422-.06.367-.147.298-.002.002-.225.215-.298.128-.359.035-.405-.06-.435-.153-.45-.24-.136-.097-.31-.22-.291-.261-.135-.121-.39-.434-.338-.467-.273-.483-.071-.173-.128-.309-.071-.283-.045-.177-.028-.422.06-.367.144-.295.001-.003Zm0 0 1.627-2.755M639.137 454.385l.139-.056M631.601 455.675l.157-.157.232-.071.297.017.35.106.035.017.356.173.417.267.223.175.202.159.418.387.395.426.357.449.304.453.241.442.072.178.001.002.094.232.087.366.005.308-.078.236-.002.002-.046.045-.002.003-.006.005-.002.002-.101.1-.232.07-.297-.019-.154-.047h-.003l-.193-.059-.391-.19-.416-.267-.424-.333-.418-.387-.394-.425-.356-.448-.304-.453-.148-.27-.093-.17-.167-.412-.008-.032-.001-.003-.079-.332-.004-.221-.002-.087.077-.234.001-.003Zm0 0 .298-.501 1.03-1.724.471-.79M635.605 459.997l.004-.002M629.503 459.867l.001-.002.085-.089.162-.008.233.076.294.156.209.14.001.001.134.09.381.296.403.351.318.305.002.001.089.086.4.418.375.427.337.42.284.397.221.36.15.307.072.243-.007.17-.001.001-.086.089-.164.007-.233-.076-.294-.157-.344-.231-.38-.296-.402-.351-.409-.391-.246-.257-.001-.001-.152-.158-.374-.426-.336-.42-.238-.333-.001-.001-.045-.063-.222-.359-.15-.307-.073-.244.006-.169.001-.002Zm0 0 .932-1.577.299-.506.652-1.102M633.562 464.102l.003-.002M629.23 462.326l.01-.015.005-.007.094.058.167.136.237.209.297.273.345.328.381.369.399.396.405.409.394.405.368.385.328.352.275.303.212.245.142.176.063.1-.016.021-.094-.059-.169-.137-.237-.208-.297-.274-.344-.327-.379-.368-.399-.396-.404-.408-.393-.404-.369-.385-.328-.351-.275-.304-.213-.245-.141-.176-.064-.1v-.001Zm0 0 .755-1.312M633.336 466.469l.003-.001M633.641 466.306l.279.229.328.248.273.181.207.108.133.03.001-.001.004-.002 1.091-.618M687.639 398.197l-.52-.279-.455-.373-.372-.454-.276-.516-.168-.56-.055-.58.013-.125.048-.455.174-.557.281-.512.377-.448.458-.367.522-.271.566-.165.588-.053.394.042.193.02.564.174.519.278.455.374.372.453.276.516.168.56.055.58-.06.58-.174.557-.281.512-.377.448-.458.367-.522.271-.566.165-.588.053-.587-.062-.564-.173ZM634.863 467.102l1.095-.62"/><path d="M633.352 466.448v.001l-.013.019-.002.002-.094-.059-.169-.136-.238-.209-.296-.273-.345-.328-.379-.368-.399-.396-.404-.407-.393-.405-.367-.384-.329-.352-.276-.303-.212-.245-.141-.177-.065-.101.015-.022.094.058.169.136.237.209.295.273.345.328.381.369.399.397.405.408.394.405.369.386.328.351.275.304.212.244.141.176M633.34 466.47l.302-.164.002-.001.57-.311.002-.001 1.034-.563M633.654 463.845l-.007.168v.001l-.083.086-.005.005-.163.007-.233-.077-.294-.156-.344-.231-.38-.296-.402-.351-.409-.391-.246-.257-.001-.001-.152-.158-.374-.427-.336-.419-.239-.332v-.002l-.045-.063-.222-.359-.15-.307-.073-.244.006-.171.001-.001.086-.09.162-.008.233.076.294.156M632.215 461.69l.375.428.337.42.284.397.221.359.15.307"/><path d="m633.559 464.105.592-.303.415-.212.004-.002.559-.286.227-.116.002-.001.069-.035M630.488 460.143l.135.091.381.296.403.351.318.305M635.841 459.608l-.078.234v.003l-.044.043-.003.003-.005.005-.003.002-.098.097-.006.006-.232.07-.296-.018-.155-.047-.002-.001-.195-.059-.391-.19-.414-.267-.425-.333-.418-.386-.394-.426-.356-.447-.305-.453-.149-.273-.091-.168-.167-.412-.01-.036v-.002l-.078-.329-.005-.225-.001-.083.077-.237.002-.001.156-.156.232-.071M634.68 457.178l.356.449.305.454.24.441.072.177.001.002M635.605 460.001l.136-.063.002-.001.003-.002 1.627-.757.005-.001M632.281 455.469l.351.106.032.015.359.175.416.266.221.174.204.16M639.661 454.042l-.002.003-.227.218-.154.066-.143.062-.359.035-.406-.061-.435-.152-.45-.24-.138-.098-.308-.219-.294-.264-.133-.119-.388-.433-.339-.467-.273-.484-.071-.174-.127-.307-.073-.285-.044-.175-.027-.422.058-.367.146-.298.003-.003M639.637 452.292l.085.206.022.091.003.01M637.107 447.092l-1.634 2.769M639.865 453.381l-.06.367M635.699 449.642l.298-.129M639.133 454.391l2.92-1.174M638.094 450.247l.427.383.39.434M645.24 446.776l-.002.004-.29.271-.332.165-.028.014-.415.081-.455-.019-.477-.12-.482-.216-.305-.199-.161-.105-.207-.18-.227-.199-.385-.44-.322-.484-.245-.511-.159-.516-.068-.503.027-.47.12-.419.035-.059.174-.293.003-.003M645.16 444.081l.2.416.01.022.16.517M642.145 440.602l-1.317 2.328M644.586 447.23l1.5-.464M642.555 442.063l.477.121.482.215.467.303.435.38.386.441M648.841 432.508l-.983 1.937-.174.462-.075.51.025.538.125.545.22.533.306.499.381.446.441.376.484.292.509.196.514.093.5-.013.686-.118.718-.123"/><path d="m647.859 434.445.264-.396.346-.315.054-.028.359-.194.466-.12.499-.014.515.093.509.196.485.292.442.377.381.446.307.5.22.533.125.546.024.538-.076.51-.174.462-.265.395-.246.224-.1.091-.414.221-.465.12M656.504 424.136l-.515 1.328-.116.539-.01.565.096.567.199.549.294.51.378.45.446.374.499.283.532.182.545.073 1.519.108"/><path d="m655.988 425.464.218-.493.166-.23.145-.199.392-.347.458-.253.507-.149.536-.039.545.073.532.182.5.283.447.375.378.451.294.51.199.549.096.568-.01.564-.117.54-.218.493-.311.428-.393.347-.459.253-.448.131-.058.017-.536.038M665.172 416.462l.02-.313.017-.268.147-.557.251-.513.346-.448.427-.368.493-.272.538-.166.564-.054.567.061.55.173.51.278.451.373.375.454.285.516.183.56.074.581-.037.58-.147.558-.251.512-.346.449-.428.367-.492.272-.539.166-.563.053-.568-.061-.549-.173-.51-.278-.167-.139-.284-.234-.375-.453-.284-.516-.183-.56-.075-.58Zm0 0 .001-.459M666.086 418.571l.323.282M677.113 408.738l-.517-.277-.453-.372-.374-.454-.278-.519-.173-.563-.06-.585.054-.586.166-.563.273-.519.317-.393.051-.062.449-.374.514-.278.558-.172.582-.058.581.057.494.15.067.02.516.277.454.372.374.455.278.518.173.563.06.585-.054.586-.166.563-.273.519-.368.456-.45.374-.513.277-.559.172-.581.058-.582-.057-.56-.17ZM701.073 382.953l.102.084.351.29.372.451.277.51.171.549.058.567-.057.563-.169.538-.276.493-.371.427-.453.346-.517.251-.561.147-.584.037-.584-.074-.561-.183-.517-.284-.454-.375-.373-.451-.277-.51-.17-.55-.004-.035-.054-.532.057-.564.17-.538.276-.492.372-.427.398-.304.002-.001.053-.041.517-.251.561-.146.583-.037.437.056.146.018.562.183.517.285Zm0 0 .184.129M699.995 382.485l-.194-.034M712.633 376.067l-.033.415-.01.121-.153.508-.258.46-.352.394-.434.313-.499.219-.544.118-.568.012-.571-.095-.552-.198-.511-.293-.452-.378-.373-.447-.282-.5-.179-.532-.069-.546.043-.537.154-.508.258-.46.353-.393.304-.218.13-.094.499-.219.544-.118.568-.011.571.095.551.198.511.293.45.378.374.446.281.499.179.532.07.546Zm0 0 .163 1.455M708.534 373.209l-1.276.452M722.149 368.271l-.126.468-.227.416-.021.022-.3.327-.402.268-.468.177-.515.079-.543-.022-.551-.123-.535-.218-.501-.305-.447-.381-.376-.442-.29-.485-.192-.511-.089-.516.02-.501.126-.468.228-.416.013-.014.309-.335.402-.267.468-.176.515-.078.543.022.549.123.536.218.5.305.446.381.375.441.29.485.193.509.089.516-.019.501Zm0 0-.17 1.109M717.665 365.024l-1.892.923M730.631 361.653l-.187.363-.278.295-.34.202-.019.012-.425.125-.477.031-.508-.063-.522-.156-.514-.243-.487-.32-.441-.385-.379-.434-.301-.469-.211-.483-.115-.48-.013-.459.045-.213.043-.205.188-.364.279-.294.359-.213.426-.124.476-.031.508.064.521.157.514.242.486.32.44.384.373.428.005.006.277.431.024.036.212.483.115.48.014.458-.088.419Zm0 0-.686 2.274M726.329 357.9l-2.29 1.26M750.949 352.086l.611-1.067v-.001M749.551 351.841l.28-.51.586-1.066v-.002l.266-.483.001-.001.036-.066-.051-.102-.128-.176-.202-.244-.267-.302-.323-.347-.365-.382-.394-.399-.408-.403-.406-.39-.389-.363-.356-.322-.31-.268-.252-.205-.185-.133-.11-.055"/><path d="m750.719 349.713-.003.003-.027.021-.078-.039-.003-.002-.028-.014-.184-.132-.252-.204-.31-.268-.356-.322-.39-.364-.406-.391-.409-.403-.395-.401-.278-.29-.003-.003-.085-.089-.323-.348-.267-.302-.202-.243-.128-.176-.049-.101.03-.023M747.291 351.785l.048-.093.001-.003.128-.248v-.001l.049-.094v-.001l.496-.966.002-.003.103-.2.015-.03.016-.171-.068-.24-.15-.3-.224-.348-.292-.383-.347-.404-.39-.408-.376-.359-.001-.001-.04-.038-.428-.372-.423-.332-.402-.278-.001-.001-.365-.214-.314-.143-.252-.066-.179.015-.002.001"/><path d="m748.13 350.147-.004.004-.02.019-.074.072h-.002l-.177.015-.008-.002-.01-.003-.233-.06-.315-.142-.365-.215-.032-.022-.008-.005-.363-.251-.424-.332-.429-.373-.418-.399-.221-.231-.001-.002-.168-.176-.127-.148-.221-.256-.292-.384-.14-.218-.084-.131-.149-.3-.068-.239.017-.17.099-.093.001-.001M742.529 355.124l1.085-2.33.002-.004.192-.412.029-.086.001-.003.049-.15-.011-.303-.099-.355-.031-.066-.002-.004-.035-.076-.001-.002-.116-.247-.262-.418-.33-.426-.385-.418-.426-.393-.449-.353-.368-.242-.089-.059-.445-.235-.24-.093-.004-.001-.174-.068-.143-.031-.231-.051-.316.001-.246.084-1.68.985-1.316.772"/><path d="m743.807 352.378-.006.006-.159.159-.002.001-.127.044-.002.001-.114.039-.315.002-.374-.081-.418-.162-.446-.235-.458-.301-.45-.354-.426-.394-.288-.312-.098-.106-.331-.427-.233-.372-.029-.047-.184-.395-.099-.355-.01-.303.079-.238.164-.163.002-.002M736.854 358.928l1.142-2.865.043-.363-.054-.409-.148-.439-.13-.251-.105-.201-.314-.447-.051-.057-.33-.37-.434-.388-.469-.336-.335-.186-.152-.084-.477-.191-.009-.004-.466-.111-.429-.023-.374.065-.306.152-2.741 1.584"/><path d="m737.994 356.063-.037.084-.099.22-.225.232-.003.002-.303.15-.374.066-.429-.022-.164-.039-.009-.002-.137-.033-.156-.037-.487-.194-.035-.019-.452-.251-.47-.337-.434-.389-.382-.427-.315-.448-.235-.453-.042-.124-.003-.008-.102-.307-.054-.409.043-.363.137-.304.224-.229.003-.002"/><path d="m737.83 354.856.148.439.054.409-.042.363-.137.304-.222.23-.003.002-.306.153-.374.066-.429-.023-.154-.037-.01-.002-.144-.034-.158-.038-.486-.194-.033-.018-.455-.252-.47-.336-.434-.39-.298-.332-.084-.094-.283-.404-.032-.045-.235-.452-.044-.132-.003-.008-.1-.3-.053-.409.042-.363.138-.303.226-.232.003-.002.303-.149.375-.066.428.024.466.111.012.004.474.19.154.085.333.185.469.336.434.389.332.371.049.055.314.447.106.204M733.448 352.424l-2.725 1.575M743.641 352.544l-.002.002-.124.043-.003.001-.118.041-.316.002-.374-.081-.418-.162-.446-.235-.457-.301-.451-.354-.426-.394-.286-.31-.1-.108-.33-.427-.232-.37-.031-.049-.184-.395-.099-.356-.01-.302.08-.238.165-.165.003-.001M742.996 350.245l.33.426.263.418.115.247.001.002.034.072.002.004.032.069.1.356.01.303-.047.144-.001.003-.03.091"/><path d="m739.479 348.386-1.675.982-1.316.771M739.727 348.302l.316-.001.235.051M740.602 348.454l.233.09.446.236.091.06.365.24.45.354M746.091 349.225l-.429-.373-.418-.398-.22-.232-.002-.001-.168-.177-.134-.156-.214-.248-.292-.384-.14-.217v-.001l-.084-.131-.149-.299-.068-.24.017-.17.098-.092.002-.002h.002l.177-.015.252.066.314.143.365.214.001.001.402.279.423.331.428.372.04.038.001.001.376.359.39.408.347.404.292.383.224.349.15.299.068.24-.016.171-.022.022-.075.072-.002.001-.178.015-.011-.002-.24-.062-.315-.143-.365-.215-.037-.025-.007-.005-.359-.248-.424-.332Z"/><path d="m743.892 346.104-.976.567-.731.426-1.47.855M749.383 348.16l.366.381.322.348.268.302.201.243.129.177.05.102-.029.024h-.001l-.075-.039-.004-.001-.03-.015-.183-.132-.252-.204-.311-.269-.356-.322-.389-.363-.407-.391-.409-.404-.395-.4-.278-.29-.003-.003-.085-.089-.323-.348-.267-.302-.201-.244-.128-.175-.05-.102.024-.018.007-.005.001.001.109.055.184.133M746.572 345.621l-1.568.89M747.117 346.014l.311.269.356.322.388.363.406.39M751.562 351.017l-.038-.123-.116-.198-.188-.265-.255-.32-.281-.332M855.249 428.08l-.242-.721-4.801-8.772-.979-1.788-6.172-7.868-1.579-2.014-7.522-6.589-2.227-1.951-8.108-5.855-2.368-1.71-8.641-5.033-2.126-1.239-9.441-3.299-2.076-.725-7.924-1.3M991.504 790.152l2.007 9.796.519 2.537 1.758 8.58 2.006 9.797 1.337 6.527.55 2.682 2.009 9.796 2 9.797 2.01 9.797 2.01 9.796 2 9.797 2.01 9.796 2.01 9.797.64 3.162 7.4 6.729 7.4 6.729 7.4 6.729 7.39 6.729 7.4 6.729 7.4 6.729 7.4 6.729 7.39 6.729 8.02 7.292 5.26 4.462 7.62 6.472 1.26 1.071 1.02.867 7.63 6.472 7.51 6.379 7.62 6.472 7.49 6.362 7.63 6.47 7.46 6.34 6.8-5.32 4.21-6.82-5.12-8.592-5.12-8.591-4.44-7.449-4.85-8.742-4.86-8.743-4.32-7.786-5.02-8.649-5.02-8.649-4.22-7.267-3.33-9.427-3.34-9.427-3.34-9.427-.49-1.384 1.08-5.62 1.5-7.836.24-1.252 1.87-9.823.91-4.744.22-1.153.46-2.391-8.01-5.983-8.02-5.983-8.01-5.984-8.01-5.983-8.01-5.983-8.02-5.984-8.01-5.983-8.01-5.984-8.01-5.983-8.02-5.983-8.01-5.984-8.01-5.983-8.01-5.983-3.942-2.941-6.284 5.668Z"/><path d="m997.789 784.484 2.027 9.792 2.024 9.793.91 4.361 2.02 9.792 1.29 6.203 1.69 8.154 2.02 9.793 2.03 9.792 2.03 9.793 2.02 9.792 2.03 9.792 2.03 9.793 1.01 4.874"/><path d="m1014.38 901.809 6.54-5.601 7.39 6.73 7.4 6.73 7.39 6.731 7.4 6.73 7.4 6.731 7.39 6.73 7.4 6.731 7.39 6.73 7.4 6.731.77.699.16.141 7.63 6.474 7.4 6.291 7.62 6.474 7.55 6.41 7.62 6.475 7.52 6.389 7.62 6.475 7.5 6.37M1172.13 804.833l9.59 2.859 5.22 1.558 8.69 4.951 8.69 4.95 3.01 1.713 8.79 4.758 8.8 4.758 2.92 1.585 8.63 5.065 8.62 5.066 2.69 1.581 6.33-5.136 3.42-5.536-6.55-7.55-5.52-6.353-6.56-7.55-5.5-6.333-2.88-3.323"/><path d="m1182.62 800.811 9.58 2.876 1.01.304 8.69 4.96 8.68 4.96 3.04 1.735 8.79 4.769 8.79 4.769 2.95 1.605 8.62 5.075 8.62 5.074 2.72 1.604M1617.1 461.314l5.71.33 9.99-.376 9.99-.377 2.16-.082 9.91-1.322 9.92-1.321 2.25-.301 9.74-2.253 9.75-2.254 2.31-.535 9.49-3.162 9.48-3.162 2.34-.777 9.14-4.044 9.15-4.043 2.31-1.02 8.72-4.889 8.72-4.888 2.24-1.255 8.22-5.694 8.22-5.693 2.13-1.475 7.65-6.449 7.64-6.45 1.98-1.671 6.99-7.152 6.99-7.152 1.79-1.84 6.27-7.793 6.27-7.792 1.59-1.976 5.48-8.366 5.48-8.365 1.36-2.077 4.63-8.862 4.63-8.863 1.12-2.141 3.73-9.278 3.73-9.278.87-2.17 2.78-9.605 2.79-9.605.62-2.166 1.8-9.838 1.79-9.837.39-2.134.3-1.98.78-9.97.78-9.97.15-2.031-.26-9.997-.26-9.996-.05-1.917-1.31-9.914-1.31-9.914-.24-1.794-2.35-9.72-2.35-9.72-.4-1.667-.59-2.236-1.2-3.354M1555.43 450.67l2.67.967 9.69 2.476 9.68 2.475 1.71.435 9.88 1.53 7.05 1.092M1488.53 415.989l.83.655 8.16 5.781 3.64 2.577M1485.49 413.552l.38.324 2.23 1.808"/><path d="m1484.44 412.696 1.05.856.56.46.54.438 1.51 1.234.43.305.27.193.07.048 8.15 5.793 3.07 2.178"/><path d="m1466.91 397.585 7.57 6.529 7.58 6.528 2.38 2.054.44.331.98.737.24.184"/><path d="m1466.91 397.585 7.59 6.511 7.59 6.51.3.263 2.65 2.201.54.447.52.431.19.137.34.24 8.14 5.807 2.94 2.097"/><path d="m1466.91 397.585 7.64 6.446 5.25 4.43 3.62 3.038M1451.07 378.695l.27.337.42.506.95 1.168 1.39 1.692 6.45 7.645 6.36 7.542-6.47-7.625-6.47-7.625-1.76-2.07"/><path d="m1443.03 367.215 5.73 8.192 2.13 3.032.17.256.12.153.17.233.67.924.19.26-.59-.732-.92-1.148-.94-1.165-.51-.633"/><path d="m1440.93 364.681 5.73 8.197 2.15 3.077.09.126.24.342.11.164 1.7 2.159.67.787M1707.14 29.38l-1.95-.672-2.48-.781-5.06-1.18-9.74-2.271-6.57-1.531-9.92-1.28-9.91-1.28-2.05-.264-10-.29-9.99-.287-2.19-.064-2.27-.046-9.98.687-9.97.686-2.36.162-9.86 1.646-9.87 1.645-2.37.396-9.67 2.583-9.66 2.583-2.35.63-9.37 3.49-9.38 3.49-2.3.856-8.99 4.363-9 4.363-2.2 1.068-8.55 5.192-8.55 5.193-2.07 1.257-8.02 5.976-8.01 5.976-1.91 1.42-7.42 6.705-7.42 6.704-1.72 1.55-6.75 7.376-6.75 7.376-1.51 1.647-6.03 7.981-6.02 7.981-1.29 1.707-5.24 8.518-5.24 8.518-1.06 1.73-4.4 8.979-4.4 8.979-.85 1.719-3.51 9.361-3.52 9.361-.63 1.677-2.6 9.657-2.59 9.658-.43 1.609-1.64 9.864-1.13 6.783-.77 4.603-.58 8.748-.67 9.978-.17 2.651.32 9.995.33 9.995.04 1.314 1.31 9.913 1.32 9.913.16 1.207 2.3 9.732 2.3 9.732.26 1.105.15.421M1440.06 363.536l5.71 8.208 2.43 3.479.93 1.2"/><path d="m1849.05 167.681 2.02-9.795 2.02-9.794.65-3.184-2.98-7.46-5.15-8.572-2.79-4.648-5.85-8.114-3.83-5.318-6.46-7.637-6.45-7.637-.26-.31-6.88-7.266-6.57-6.954-7.33-6.807-7.32-6.807-1.75-1.618-7.66-6.427-7.75-6.508-8.05-5.94-8.04-5.942-.31-.227-8.35-5.502-6.77-4.463-7.69-4.395-9.62-2.743-.14-.04-8.73-.627-9.81 1.927-9.55 1.874M1725.59 64.085l-4.74-6.717-3.13-3.056-1.47-2.544"/><path d="m1756.88 63.05.04.039 4.64 4.042 3.63 4.158 2.96 4.458 2.31 3.613.66 3.374-1.77 2.153-.09.115-1.71 1.916-1.93.084-3.01 1.69-4.22.275-4.65-2.596-2.76-2.38-5.05-1.741-6.4-3.756-3.34-1.475-6.19-4.873-2.03-1.736-4.86-5.001M1767.6 93.922l2.57-.118M1723.11 65.41l-.54-1.839-2.91-4.522.77-1.089.42-.592M1708.08 54.483l-1.6 2.232 3.83 6.012M1772.44 91.241l1.4-1.725 1.06-1.307M1770.94 78.908l-3.93-5.926M1728 47.051l-8.14-1.927-5.42-.812-2.48.74M1740.6 52.957l5.03 3.081M1840.41 219.007l2.63-.704.58-3.582M1833.98 220.524l.84-1.764 2.09-.554M1797.07 178.965l5.65-6.764.54-.652.6-1.317-1.51 1.754-4.45 5.173M1825.76 214.373l3.98 3.548M1795.36 171.429l2.54 5.73M1783.42 124.075l1.23 1.254-.14 3.111-.08 1.728.18 5.706-.97 4.376-1.69 2.746 2.96 3.066 3.9 4.046 3.04 6.054-1.47 2.636M1816.72 203.998l1.18 1.355M1850.85 190.955l-.86-6.718-.69-2.938M1784.65 125.329l8.05 5.941 1.16.86.28.209-.9-.918M1793.24 131.421l-8.01-5.988-1.81-1.358M1850.54 205.189l.75-3.733.46.682M1804.79 114.344l-4.56-1.833-2.45 1.557-3.72.684-2.78-.066-2.1.155-2.72 2.732M1802.39 141.789l-.6-.691-6.58-7.536-1.07-1.223M1821.43 184.691l-2.33-2.695-.59-.686-1.04-1.163-.9-1.007-1.66-1.855-1.39-1.563-.29-.313-2.5-3.242-2.07-3.453.42-.903-1.28-2.872-1.87-3.731-.63-2.6.74-1.322-1.53-3.036-1.95-2.028-1.48-1.537.83-1.381.48-2.202-.1-2.873.09-2.254.01-.186"/><path d="m1801.79 141.098.43-1.516 1.05-1.722 1.36-1.395 1.05-.086 1.39.019 1.86-.367M1812.46 136.132l1.44 1.156 2.45 1.495M1413.2 336.95l.7 1.838 1.32 2.702 1.79 3.198 2.28 3.675 2.74 4.124 3.03 4.396 2.73 2.584 4 4.2 4.73 5.623 4.76 5.577 4.94 5.589 5.54 6.099 5.05 5.48 5.99 6.238 5.2 5.279 6.04 5.958 5.32 5.115 6 5.584 5.77 5.287 5.04 4.356 5.39 4.636 4.49 4.03 2.25 2.631 3.58 2.603 3.83 2.52 3.36 2.024 2.88 1.516 2.36 1.001 1.84.485"/><path d="m1414.73 307.674-.01.169-.52 9.987-.52 9.986-.48 9.134.54.925.75.455.16-.039.99-.243 1.76.401 1.89.505 2.27.986 2.63 1.45 2.95 1.906 2.61 2.084 1.86 1.483 4.26 3.733 3.95 4.16 4.02 4.205 4.84 5.031 5.96 6.144 4.4 4.508 4.42 4.517 5 5.076 6.72 6.784 4.55 4.557 4.55 4.549 4.77 4.753 6.71 6.627 4.58 4.487 4.41 4.305 4.39 4.266 4.13 5.063 3.45 4.48.04.058 2.15 3.279 1.76 3.017 1.3 2.662.93 2.363.83 2.236v.888l-.01.586 1.53 1.3.9.801 10-.214 9.99-.215 9.29-.199.82-.017M1545.16 428.987l-4.28-5.66-5.13-6.397M1420.02 309.124l-2.22-.385M1553.39 448.014l.12-1.856M1484.51 366.029l-6.31-6.39M1510.5 392.065l-6.02-6"/><path d="m1413.74 337.875 7.37 6.756 7.38 6.756 7.37 6.757 2.34 2.144M1632.3 444.521l-1.32-.702-3.29-2.337M1610.96 438.44l1.55 1.511 1.97 1.918 2.09 2.03.64.415 1.72.431 2.83 1.724 2.59 1.827 1.04.548.69.45 1.73 1.66 1.42 1.703.05.602-.31.487.45 1.402.32 1.366.58.544.09.079.86.794.8.737M1579.28 455.268l-1.23-1.042-.21-.178-2.43-1.375-2.05-1.588-1.59-1.469-1.16-1.642-1.11-1.666-1.42-1.62.02-1.812 1.18-1.081 1-1.635 1.41-1.439 1.82-1.227.74-.501 2.24-.286 2.97-.678 3.18-.493 3.47-.213 2.85-.206 1.83-.403 3.73.28 3.99.683 4.07.932 4.09 1.172 3.5.797.79-.138 2.98-7.237"/><path d="m1573.67 452.764 5.61 2.504 2.48.845 3.43 1.088 3.52.943 3.67.734 3.73.767.24.048 2.96.624 1.63.243 3.9.307 3.89.252 3.84.197 3.75.138.49-.083.29-.057 1.3-.253M1563.89 431.639l-1.79 1.846-1.25 2.095M1636.82 450.785l.4-.622-.05-.77M1582.23 427.248l-4.42.281-4.06.64-3.77.876-2.85.372-.94.644"/><path d="m1617.66 461.153.74-.092 2.23-.278 2.76-.417 2.53-.46 2.73-.193 2.45-.28 8.34-1.395M1598.05 427.678l-5.1-.869-4.76-.353-2.33.521M1613.94 431.203l-1.01.177-4.47-1.015M1561.18 441.348l1.42 2.127 1.49 2.093 2.03 1.872 2.62 2.022 3.08 1.749 1.85 1.553M1621.08 438.194l-2.65-2.599M330.477 976.592l4.097.074 1.267.022 9.07-.793 5.253-.58 9.314-1.91 4.967-1.323 9.327-3.025 8.989-4.045 4.649-2.168 8.65-5.062 3.995-2.947 8.123-5.996 7.449-6.818 6.626-7.49.077-.087 3.191-3.636 5.824-8.184 4.926-8.759 2.259-4.089 3.888-9.08 1.41-4.508 2.81-9.219 1.766-9.458.569-4.499.659-9.274-.114-4.581-.408-8.892-.684-4.521-1.414-8.317-1.126-4.321-1.419-4.593M300.555 972.23l3.125.973 2.1.469M277.191 962.516l.003.001.328.181 4.94 2.686 4.882 2.289.86.337M368.205 756.964l-3.739-.908-4.587-1.075-4.296-.588-8.89-1-4.435-.102-9.389.057-4.423.498-9.685 1.162-9.49 2.211-4.543 1.275-9.451 3.306-9.034 4.288-4.34 2.158-8.533 5.214-.137.084-7.936 6.084-.106.081-3.845 3.054-7.252 6.886-.132.125-6.48 7.616-.09.105-3.125 3.852-5.669 8.326-4.706 8.84-2.26 4.446-3.634 9.139-1.411 4.944-2.511 9.229-1.409 9.377-.557 5.011-.258 9.097.164 5.107.846 8.588.776 5.029 1.872 7.853 1.254 4.781 1.8 4.997.775 1.901 1.787 4.384.053.116.996 2.208.002.005.987 2.186.556 1.035 1.924 3.576 2.706 4.351.193.311"/><path d="m445.437 820.576-1.244 1.944-1.558.468-.307.093-.61.183-3.702-.557-4.342.538-6.193-1.472-7.692-4.775-7.249-5.478-7.731-6.342-.604-.495-7.286-6.736-7.005-7.137-.644-.656-6.309-7.114-5.62-7.347-4.005-6.847.753-4.675-.43-3.817.118-1.539.027-.356.072-.934 1.543-1.663 2.746-.516 3.812.572 4.732 1.582 7.701 3.924 6.33 4.148 6.496 4.68 6.268 4.951 7.396 6.73.696.633 6.025 6.444 5.072 6.021 4.636 6.025 4.467 6.897 2.635 5.626 1.062 3.973-.056 3.024Zm0 0-.972 7.937-.468 3.822M378.166 755.346l-9.963 1.618M367.56 791.553l1.534 2.42.798 2.569.227 2.836.266 2.231-.711 2.193-2.176 1.765-1.942 1.508-1.356.251-2.497 1.355-2.912.567-2.409-1.207-1.187-1.253-2.624-.778-2.948-1.941-1.562-.761-2.326-2.763-.656-1.033-1.278-3.04.3-1.204-.079-2.94 1.255-1.185-.528-2.046.292-1.8M340.074 783.867l-.394 2.392M353.57 809.814l1.581 1.67 3.209 1.606 3.88-.758 3.326-1.808M367.371 810.189l2.583-2.011 2.893-2.352.943-2.921-.356-2.968-.306-3.773M344.066 805.177l2.081 1.013 3.927 2.587M357.313 781.5l-4.606-.644M347.357 781.594l-3.611 1.638M360.719 785.932l1.976 1.793M401.754 870.596l3.336-.34 2.541-.91.606-1.913 2.058-.597 2.045.744M406.539 825.31l-2.73-1.958M372.312 855.968l3.915-4.048.528-.756-3.719 3.77M368.516 833.794l-1.36 2.574-1.574 1.711 1.628 1.409 2.148 1.86M385.133 866.702l.891.519M414.836 865.747l.633-2.869 1.66-2.647 1.302-2.276.597.17.549-2.678.315-3.47M370.237 827.791l4.465 3.525-.465-.439-4.635-3.685M379.638 820.217l-2.242.407-1.58.349-2.585 1.966-2.282 2.282M388.754 818.107l-3.354-.351-2.525 1.423M394.45 819.784l-3.794-.785M389.932 856.081l-1.761-1.03-.448-.262-.72-.471-1.771-1.157-.966-.632-.184-.132-1.563-1.428-1.234-1.586.363-.518-.621-1.408-.958-1.807-.201-1.324.621-.773-.692-1.514-1.078-.935-.817-.707.788-.861.68-1.295.394-1.624.464-1.398-.32-.302.677-.994 1.144-1.152 1.298-.995.794-.178 1.128-.208 1.629-.529M389.539 830.311l.958.448 1.916.39M266.234 955.146l-3.386-2.603M229.336 908.012l.666 9.804.518 2.627.824 2.508 1.076 2.524 1.191 2.504 1.572 2.928 2.154 3.471 1.728 2.483 1.809 2.453 2.139 2.71 3.089 3.525 2.227 2.307 2.299 2.27 2.495 2.336 3.723 3.161 2.698 2.072 2.694 1.949 2.781 1.89 3.267 2.028 3.091 1.672 2.404 1.124 2.285.925 2.146.712 2.088.511 2.347.32 6.287.148M277.194 962.517l-.003-.001"/><path d="m232.174 914.725-.001-.002-.001-.003M238.349 925.873l-2.706-4.35-1.924-3.577M249.356 939.889l-3.881-4.425-2.686-3.402M295.199 971.094l.534.086 1.04.169 1.84.401 1.941.48.026.006 2.073.567 1.692.417.254-.011 1.18.463.152.059 1.692.664 1.794.704.462.149 1.018.149 2.188.543 2.133.572.763.175.62.114 1.394.312.485.108 1.758.43.4.151.229.09 1.354.248 1.267.243.738.093.136.003 1.373.023 1.275.022.486-.003 7.076-1.855"/><path d="m287.555 967.155.251.33.398.525.426.562.305.402 1.596 2.104.326.29.548.384.267.185 1.065.463 1.366.541 1.548.427 1.539.429 1.685.374 1.871.454 1.952.391 1.68.225 1.722.234 2.294.316 2.088.347 1.995.312 2.213.325 1.689.236 1.03.039.587.063M325.923 975.727l-.508-.193-2.235-.55"/><path d="m290.531 971.079-.102-.193-.042-.079.649.052 2.113.084M327.931 976.16l-1.72-.318"/><path d="m291.777 970.827.888.045.262.038.221.032.608.087.886.119 1.091.032M291.035 970.858l.309-.013.433-.018M292.788 967.226l-1.128-.149M294.645 971.148l.557-.054M300.361 968.612l-2.509-.62-2.348-.512M304.602 973.209l.126-.475.08-.298.188-.71.498-1.874M316.31 973.345l-2.789-.695-1.297-.19-.59-.19-2.286-.9M1381.52 284.063l-7.18-6.965-7.17-6.965-7.18-6.965-3.24-3.145-6.96 7.175-6.97 7.176-6.96 7.175-3.15 3.24 7.18 6.965 7.18 6.965 7.17 6.965 3.24 3.145 6.97-7.176 6.96-7.175 6.97-7.175 3.14-3.24ZM1349.36 252.168l-7.18-6.965-7.17-6.965-.46-.44-6.96 7.175-6.97 7.176-.44.453 7.18 6.965 7.17 6.965.46.44 6.96-7.176 6.97-7.175.44-.453ZM1368.44 237.427l-7.17-6.965-2.95-2.865-6.97 7.176-2.86 2.951 7.17 6.965 2.95 2.865 6.97-7.175 2.86-2.952ZM-375.898-329.586l6.982 7.159 6.982 7.159 6.982 7.159 6.982 7.159 6.982 7.159 6.983 7.159 6.982 7.159 6.982 7.159 6.982 7.158 6.982 7.159 6.982 7.159 6.982 7.159 6.982 7.159 6.982 7.159 6.983 7.159 6.982 7.159 6.982 7.159 6.982 7.159 6.982 7.159 6.982 7.159 6.982 7.158 6.982 7.159 6.983 7.159 6.982 7.159 6.982 7.159 6.982 7.159 6.982 7.159 6.982 7.159 6.982 7.159 6.982 7.159 6.982 7.159 6.983 7.159 6.982 7.158 6.982 7.16 6.982 7.158 6.982 7.16 6.982 7.158 6.982 7.16 6.982 7.158 6.982 7.16 6.983 7.158 6.982 7.16 6.982 7.158 6.981 7.158 6.983 7.16 6.982 7.158 6.982 7.16 6.982 7.158 6.981 7.159 6.984 7.159 6.982 7.16 6.981 7.158 6.983 7.16 6.982 7.158 6.982 7.16 6.982 7.158 6.981 7.158 6.983 7.159 8.715 8.936 7.072-7.07 3.404-3.405-7.16-6.982-7.158-6.982-7.16-6.982-7.158-6.982-7.16-6.983L5.301 42.2l-7.16-6.982-7.157-6.982-7.16-6.982-7.158-6.982-7.16-6.982-7.159-6.982-7.159-6.983-7.159-6.982-7.159-6.982-7.158-6.982-7.16-6.982-7.158-6.982-7.16-6.982-7.157-6.982-7.159-6.982-7.159-6.983-7.159-6.982-7.159-6.982-7.159-6.982-7.159-6.982-7.159-6.982-7.159-6.982-7.159-6.982-7.159-6.982-7.159-6.983-7.158-6.982-7.159-6.982-7.159-6.982-7.159-6.982-7.159-6.982-7.159-6.982-7.159-6.982-7.159-6.982-7.159-6.983-7.159-6.982-7.159-6.982-7.158-6.982-7.159-6.982-7.159-6.982-7.159-6.982-7.159-6.982-7.159-6.983-7.159-6.982-7.159-6.982-7.159-6.982-7.159-6.982-7.159-6.982-7.159-6.982-7.159-6.982-7.158-6.982-7.159-6.983-7.159-6.982-8.936-8.715ZM-402.949-185.92l6.982 7.159 6.982 7.159 6.983 7.159 6.982 7.158 6.982 7.159 6.982 7.159 6.982 7.159 6.982 7.159 6.982 7.159 6.982 7.159 6.982 7.159 6.983 7.159 6.982 7.16 6.982 7.158 6.982 7.16 6.982 7.158 6.982 7.158 6.982 7.16 6.982 7.158 6.982 7.16 6.983 7.158 6.982 7.16 6.982 7.158 6.982 7.16 6.982 7.158 6.982 7.16 6.982 7.158 6.982 7.16 6.982 7.157 6.983 7.16 6.982 7.158 6.982 7.16 6.982 7.158 6.982 7.16 6.982 7.158 6.982 7.16 6.982 7.158 6.983 7.16 6.982 7.158 6.982 7.159 6.982 7.158 6.982 7.159 6.982 7.159 6.982 7.159 6.982 7.159 6.982 7.159 6.983 7.159 6.982 7.159 6.982 7.159 6.982 7.159 6.982 7.159 6.982 7.159 6.982 7.158 6.982 7.159 6.982 7.159 6.983 7.159 6.982 7.159 6.982 7.159 8.715 8.936 7.07-7.071 3.405-3.404-7.16-6.982-7.158-6.983-7.16-6.982-7.157-6.982-7.16-6.982-7.158-6.982-7.16-6.982-7.158-6.982-7.16-6.982-7.158-6.983-7.16-6.982-7.158-6.982-7.16-6.982-7.158-6.982-7.16-6.982-7.157-6.982-7.159-6.982-7.159-6.982-7.159-6.983-7.159-6.982-7.159-6.982-7.159-6.982-7.159-6.982-7.159-6.982-7.159-6.982-7.159-6.982-7.159-6.983-7.158-6.982-7.159-6.982-7.159-6.982-7.159-6.982-7.159-6.982-7.159-6.982-7.159-6.982-7.159-6.982-7.159-6.983-7.159-6.982-7.159-6.982-7.159-6.982-7.158-6.982-7.159-6.982-7.159-6.982-7.159-6.982-7.159-6.982-7.159-6.983-7.159-6.982-7.159-6.982-7.159-6.982-7.159-6.982-7.159-6.982-7.159-6.982-7.158-6.982-7.159-6.982-7.159-6.983-7.159-6.982-7.159-6.982-7.159-6.982-7.159-6.982-8.936-8.715ZM1408.42 218.536l-7.16-6.983-7.16-6.982-7.16-6.982-7.16-6.982-7.16-6.982-7.16-6.982-7.16-6.982-7.16-6.982-7.16-6.983-7.15-6.982-7.16-6.982-7.16-6.982-7.16-6.982-7.16-6.982-7.16-6.982-7.16-6.982-7.16-6.982-7.16-6.983-7.15-6.982-7.16-6.982-7.16-6.982-7.16-6.982-7.16-6.982-7.16-6.982-7.16-6.982-7.16-6.983-7.16-6.982-7.15-6.982-7.16-6.982-7.16-6.982-7.16-6.982-7.16-6.982-7.16-6.982-7.16-6.982-7.16-6.983-7.16-6.982-7.15-6.982-7.16-6.982-7.16-6.982-7.16-6.982-8.22-8.02 6.98 7.16 6.98 7.158 6.98 7.16 6.98 7.158 6.99 7.16 6.98 7.158 6.98 7.16 6.98 7.157 6.98 7.16 6.99 7.158 6.98 7.16 6.98 7.158 6.98 7.16 6.98 7.158 6.99 7.16 6.98 7.158 6.98 7.16 6.98 7.158 6.99 7.158 6.98 7.16 6.98 7.159 6.98 7.158 6.98 7.16 6.99 7.158 6.98 7.159 6.98 7.159 6.98 7.159 6.98 7.159 6.99 7.159 6.98 7.159 6.98 7.158 6.98 7.159 6.99 7.159 6.98 7.159 6.98 7.159 6.98 7.159 6.98 7.159 6.99 7.159 6.98 7.159 6.98 7.159 6.98 7.159 6.97 7.14M731.703-309.373l6.982 7.159 6.982 7.159 6.982 7.159 6.983 7.159 6.982 7.159 6.982 7.159 6.982 7.159 6.982 7.158 6.982 7.159 6.982 7.159 6.982 7.159 6.982 7.159 6.983 7.159 6.982 7.159 6.982 7.159 6.982 7.159 6.982 7.159 6.982 7.159 6.982 7.158 6.982 7.159 6.982 7.159 6.983 7.159 6.982 7.159 6.982 7.159 6.982 7.159 6.982 7.159 6.982 7.159 6.982 7.159 6.982 7.159 6.982 7.159 6.983 7.158 6.982 7.159 6.982 7.159 6.982 7.159 6.982 7.159 6.982 7.159 6.982 7.159 6.982 7.159 6.987 7.159 6.98 7.159 6.98 7.159 6.98 7.159 6.98 7.158 6.99 7.159 6.98 7.159 6.98 7.159 6.98 7.159 6.99 7.159 6.98 7.159 6.98 7.159 6.98 7.159 7.88 8.076 7.07-7.071 2.14-2.146-7.15-6.982-7.16-6.982-7.16-6.982-7.16-6.982-7.16-6.982-7.16-6.983-7.16-6.982-7.16-6.982-7.16-6.982-7.15-6.982-7.16-6.982-7.16-6.982-7.16-6.982-7.16-6.982-7.16-6.983-7.159-6.982-7.159-6.982-7.159-6.982-7.159-6.982-7.159-6.982-7.159-6.982-7.159-6.982-7.158-6.982-7.159-6.982-7.159-6.983-7.159-6.982-7.159-6.982-7.159-6.982-7.159-6.982-7.159-6.982-7.159-6.982-7.159-6.982-7.159-6.983-7.159-6.982-7.158-6.982-7.159-6.982-7.159-6.982-7.159-6.982-7.159-6.982-7.159-6.982-7.159-6.983-7.159-6.982-7.159-6.982-7.159-6.982-7.159-6.982-7.159-6.982-7.158-6.982-7.159-6.982-7.159-6.982-7.159-6.983-7.159-6.982-8.076-7.876ZM618.992 441.26l-.691 1.2M618.485 440.116l-.001.002M620.004 440.833l.23.2M620.37 436.151l-.003.004M622.84 445.908l.594 1.062h.001l2.293 4.101M629.505 459.869l-.001.001M631.899 455.174l-.301.505M634.863 467.102l.001.001M726.543 336.499l.22.21M735.991 342.073l-4.623-2.586-.002-.001-1.034-.579M750.949 352.087l.609-1.063.003-.005v-.001M742.916 346.671l-.404-.272-1.914-1.29M937.996 786.409l-1.285 2.285M938.794 786.479l-.222.401-1.16 2.099-.001.002-.288.522-.001.001-.259.47M940.75 786.021l-.001.002-.051.097-.003.005-.46.867v.002l-.039.071v.002l-.141.266h-.001l-.281.531-.019.036-.002.004-.725 1.366M944.588 783.719l-.002.004-.236.477-.003.006-1.013 2.05-.001.003-.027.054-.002.004-.046.093M945.914 792.887l1.977 1.618.486.397M950.871 778.281l-.728 1.65-.003.007-.683 1.546M953.968 800.172l-.175.32M954.687 800.604l-.126.232-.001.003-.283.527-.001.001-.229.427M956.87 799.936l-.002.004-.641 1.249M961.389 796.409l-.93 1.957-.001.002-.053.112-.002.004-.012.026M1077.35 659.57l1.11-1.97M1084.5 685.243l1.9-3.446M962.383 805.241l8.565 5.161 2.698 1.627 3.914 2.358 8.565 5.162 8.564 5.161 4.445 2.679M1108.92 899.061l.2.139M1112.77 898.244v.001M1121.56 892.361v.002M1100.69 892.407l4.51 2.522.93.519M1084.6 670.394l-.48-.8-3.94-6.546M1098.08 692.751l-5.16-8.564-3.86-6.392M1179.29 825.959l-.11.041M1181.92 823.847l-.23-.219M1182.74 824.808l.59-1.032M1179.42 821.752l-.12-.224-.01-.006-.42-.749-4.88-8.728-1.9-3.4M1496.65 418.866l6.55 7.337 6.66 7.46 6.66 7.461 6.66 7.461.54.612"/></g><defs><clipPath id="a"><path fill="#fff" d="M0 0h1920v1080H0z"/></clipPath></defs></svg>