<svg width="1920" height="1080" fill="none" xmlns="http://www.w3.org/2000/svg"><g clip-path="url(#a)" stroke="#EFC018" stroke-width="5" stroke-linejoin="round"><path d="m998.395 767.248-.094-.646.005-.083.002-.033.028-.52.164-.603.284-.547.392-.465.004-.005.491-.374.569-.265.62-.144.65-.019.66.108.64.229.6.344.53.443.44.527.34.589.22.63.09.645-.04.637-.16.604-.28.547-.4.469-.01.004-.48.37-.54.251-.02.01-.01.003-.62.143-.66.019-.66-.108-.63-.23-.599-.343-.529-.443-.441-.526-.336-.589-.22-.629Zm0 0-.043-.219M1002.47 770.097l.08-.011M987.523 776.664l.01-.601.133-.564.187-.373.008-.016.057-.115.358-.42.004-.005.457-.33.535-.222.592-.106.626.015.637.134.623.25.585.355.524.447.444.521.346.575.234.608.114.616-.01.602-.134.564-.253.503-.343.402-.007.009-.013.014-.005.004-.452.326-.535.221-.592.105-.626-.015M977.897 784.325l.207-.449.311-.365.004-.004.254-.17.008-.005.147-.099.489-.168.55-.057.589.058.605.169.599.275.57.37.518.451.446.513.358.558.256.579.143.58.025.556-.093.513-.072.153-.003.008-.134.288-.315.368-.005.003-.405.27-.489.168-.55.056-.588-.059-.605-.169-.598-.275-.569-.37-.517-.45-.446-.513-.357-.556-.256-.579-.143-.579-.026-.556.092-.513Zm0 0 .008-.027M982.949 788.721l.009-.004M969.507 791.565l.152-.385.253-.3.003-.003.351-.208.05-.012.382-.093h.354l.142.001.542.107.567.211.569.304.551.387.51.455.45.506.373.536.282.546.178.536.029.208.001.009.04.286-.043.453-.153.385-.257.302-.004.002-.347.205-.433.104-.496-.002-.542-.108-.566-.211-.568-.304-.55-.387-.509-.454-.45-.505-.372-.535-.281-.545-.179-.535-.039-.274-.001-.011-.031-.218.042-.453Zm0 0 .15-.386M974.48 796.003l.026-.014M962.834 796.689l.187-.226.002-.003.283-.134.366-.036.435.065.488.164.522.255.536.337.104.08.424.327.502.46.454.495.39.513.312.509.22.487.12.445.016.386-.089.313-.19.228-.003.002-.28.132-.367.034-.436-.066-.488-.164-.316-.155-.007-.003-.198-.097-.534-.337-.528-.406-.5-.459-.453-.495-.39-.511-.016-.026-.295-.482-.22-.486-.034-.125-.002-.006-.085-.314-.018-.387.004-.012.084-.302Zm0 0 .002-.005M967.914 801.354l3.362-1.86M957.822 800.256l.105-.137h.001l.008-.011.001-.002.209-.057.076.01h.003l.215.029.181.065.002.001.186.067.429.222.473.304.498.372.504.426.491.466.449.474.002.002.009.009.409.487.344.47.265.435.176.382.007.028.001.002.073.286-.011.132-.008.105-.116.149-.002.001-.208.055-.176-.024-.119-.016-.369-.134-.428-.223-.146-.093-.001-.001-.325-.209-.498-.371-.503-.426-.133-.126-.001-.002-.356-.336-.458-.485-.409-.486-.344-.469-.265-.434-.177-.383-.081-.316.017-.238Zm0 0 .004-.007M962.805 804.971l3.585-2.018M954.758 801.798l.037-.069v-.001l.131.023.219.115.298.203.367.283.42.352.459.408.479.447.481.47.464.475.43.461.378.43.269.328.001.001.043.052.234.318.148.244.056.159-.038.068-.001.001-.131-.024-.22-.116-.299-.204-.291-.224M958.615 805.938l-.421-.351-.458-.408-.199-.186-.007-.007-.272-.253"/><path d="m959.633 806.565 2.364-1.325.418-.234M955.197 802.52l-.236-.318-.149-.245M956.317 803.79l-.429-.46-.294-.333"/><path d="m954.105 800.489-.448.822v.001l.051.102.142.191.226.272.304.343.368.4.419.443.453.468.47.475.469.464.45.435.413.389.361.329.294.255.217.172.131.082.04-.011.226-.124M1061.64 710.539l-.23.545-.21.289-.13.179-.44.373-.51.264-.57.143-.61.019-.62-.107-.61-.23-.58-.342-.52-.442-.45-.525-.35-.588-.24-.627-.13-.644-.01-.635.11-.601.23-.545.34-.467.44-.373.38-.194.13-.068.57-.143.61-.018.62.108.61.229.58.342.52.442.44.524.36.587.24.627.13.643.01.634-.11.601Zm0 0-.59 1.81M953.656 801.312l.001.001"/><path d="m955.363 800.646-.001.003-.24.453-.368.696.057.16.148.245.236.318.312.381.06.068.008.009.31.352.429.461.463.472.479.469.289.27.007.006.182.171.458.407.421.353.075.057.291.225.299.205.22.115.131.024.002-.001"/><path d="m954.754 801.798.037-.069h.002l.129.022.219.116.298.202.367.283.421.352.458.408.479.448.481.469.464.476.43.461.378.428.27.33h.001l.042.052.234.318.149.245.055.158-.038.068-.001.001M962.802 804.972l-.002.002-.209.055-.177-.023-.001-.001-.117-.015-.369-.135-.429-.222-.146-.094-.001-.001-.325-.208-.497-.372-.504-.426-.133-.126-.001-.002-.356-.336-.458-.485-.409-.485-.343-.47-.265-.434-.177-.382-.082-.317.018-.238.007-.009.1-.131.008-.01h.002M961.652 802.486l.001.002.009.009.409.487M962.68 803.89l.177.382.005.023M962.801 804.974l3.59-2.021M958.805 800.223l.429.223M960.207 801.12l.504.427M968.171 800.432l.016.386-.089.314-.188.225-.002.002-.284.134-.366.034-.436-.066-.488-.164-.305-.149-.008-.004-.208-.102-.535-.337-.527-.406-.5-.459-.454-.495-.389-.511-.017-.027-.294-.481-.221-.486-.036-.135-.002-.006-.083-.304-.017-.387.005-.019.083-.295.007-.009.181-.22.004-.001.279-.133.367-.036.435.065M965.109 796.778l.536.337.109.084.419.323.501.46.455.496.39.512.311.509M967.91 801.358l3.381-1.87M975.082 795.501l-.255.298-.002.003-.319.188-.033.019-.432.105-.497-.002-.542-.109-.566-.21-.568-.304-.55-.387-.509-.455-.449-.504-.373-.535-.281-.545-.179-.535-.039-.277-.001-.011-.03-.216.041-.453.152-.385.005-.006.251-.296.004-.003M974.375 792.54l.373.537.281.546M975.211 794.158l.027.2.001.009.041.295-.042.453M970.258 790.675l.057-.014.375-.092.354.001M974.473 796.008l2.962-1.557M972.297 790.889l.57.305.55.387M983.875 787.637l-.068.146-.004.007-.137.296-.312.364-.003.004-.393.262-.017.011-.49.168-.549.056-.588-.058-.605-.17-.598-.275-.569-.37-.517-.45-.446-.513-.357-.556-.256-.579-.143-.579-.026-.556.092-.513.016-.034.191-.415.315-.369.004-.003.258-.172.008-.006.139-.093.489-.168M982.941 788.728l2.57-1.209M979.859 783.016l.588.058M987.525 776.071l-.009.601.115.616.234.607.346.575.443.52.523.446.584.355.622.25.637.135.626.016.592-.105 1.929-.713"/><path d="m987.523 776.071.018-.074.116-.489.195-.389.008-.016.049-.099.362-.426.005-.003.452-.327.535-.222.592-.106.626.015.637.135.623.25.585.355.524.446.444.521.345.576.235.607.114.617-.01.601-.134.564-.253.504-.336.393-.007.009-.016.018-.004.005-.457.329-.422.175-.113.047M1004.15 769.321l-.01.005-.49.374-.52.242-.02.009-.03.013-.53.123-.09.021-.65.018-.66-.108-.64-.23-.597-.343-.528-.443-.441-.526-.337-.589-.22-.629-.033-.228-.061-.417.007-.116.002-.033.027-.488.163-.603.284-.547.396-.47.006-.004.485-.37.567-.264M1002.17 763.661l.64.23.59.343.53.443.44.527.34.59.22.629.09.646-.03.637-.17.603M1000.85 763.573l.65-.019M1002.46 770.108l1.2-.172M1012.01 758.761l-.61-.335-.53-.441-.44-.53-.33-.599-.21-.644-.08-.666.05-.66.18-.631.3-.577.42-.5.51-.404.58-.294.64-.17.67-.042.68.089.64.216.61.335.53.441.44.53.33.599.21.644.08.666-.05.661-.18.631-.3.576-.42.5-.51.404-.58.293-.64.171-.67.042-.67-.089-.65-.216ZM1023.87 747.073l-.6-.331-.53-.439-.44-.532-.33-.604-.21-.652-.08-.675.05-.673.18-.644.31-.592.42-.515.51-.42.59-.308.65-.184.67-.053.67.079.65.209.61.331.53.439.44.532.33.604.21.652.08.675-.05.673-.19.644-.3.592-.42.515-.52.42-.59.308-.64.184-.67.053-.68-.079-.65-.209ZM1035.71 735.12l-.6-.331-.53-.439-.44-.532-.34-.603-.21-.652-.02-.097-.07-.578.02-.346.02-.326.18-.644.29-.591.41-.515.5-.419.58-.308.63-.184.49-.038.18-.015.66.08.65.208.6.331.53.439.44.532.33.603.22.651.08.675-.04.672-.17.644-.3.591-.4.515-.51.419-.58.308-.63.184-.66.054-.67-.079-.23-.074-.41-.135ZM1051.47 720.994l-.02.094-.13.535-.27.575-.38.499-.47.404-.56.293-.61.17-.64.042-.65-.089-.63-.215-.59-.335-.53-.44-.44-.53-.34-.597-.23-.644-.1-.664.02-.66.15-.629.27-.575.38-.499.48-.403.55-.292.61-.17.64-.041.57.079.08.01.63.216.59.334.53.44.44.529.34.597.23.643.1.664-.02.659Zm0 0-.04 1.069M1070.54 700.946l-.28.423-.38.329-.13.058-.34.163-.52.105-.56-.015-.59-.134-.59-.249-.56-.353-.51-.445-.45-.519-.37-.573-.26-.606-.17-.613-.04-.599.06-.561.18-.502.23-.339.06-.083.38-.328.46-.22.52-.105.57.016.58.135.59.249.56.353.51.444.45.518.37.572.26.605.17.613.05.598-.07.561-.18.502Zm0 0-1.1 2.468M1078.16 692.108l-.22.367-.32.272-.4.168-.46.057-.01-.002-.51-.056-.54-.168-.55-.274-.55-.368-.5-.448-.45-.511-.39-.555-.3-.577-.19-.576-.1-.554.01-.44v-.07l.12-.447.22-.366.32-.271.4-.167.46-.055.52.058.54.169.55.273.54.368.51.447.45.511.38.553.3.576.2.575.1.554-.01.51-.12.447Zm0 0-1.46 2.875M1083.88 685.139l-.24.208-.33.105-.4-.001-.46-.107-.49-.208-.52-.303-.22-.163-.3-.222-.49-.452-.46-.503-.4-.533-.13-.207-.2-.336-.25-.532-.15-.502-.03-.324v-.006l-.01-.074-.01-.046.05-.383.15-.299v-.001l.01-.004.24-.202.33-.104.4.002.38.09.02.003.06.014.49.209.3.173.09.052.01.008.12.069.52.385.49.451.46.502.28.379.12.153.33.542.24.532.15.5.06.451-.06.383-.15.301Zm0 0-1.79 3.318M1079.24 680.044l-.24.106v.003M1087.94 679.574l-.13.108-.01.002-.03.024-.25.037-.33-.064-.4-.162-.44-.253-.48-.335-.49-.403-.49-.457-.46-.493-.26-.316-.01-.002v-.004l-.01-.009-.14-.178-.04-.05-.33-.457-.29-.484-.11-.231v-.007l-.1-.204-.11-.385-.03-.312.08-.227.17-.134.18-.024v-.001l.07-.01.03.006v.001l.3.058.15.058v.003l.25.101.44.253.48.335.49.403.49.456.46.491.27.324v.001l.15.183.36.506.29.483.21.443.12.385.02.313-.06.184v.003l-.01.041Zm0 0-.04.072v.003l-1.93 3.471M1083.25 674.578l-.76.374v.001l-.56.275M1085.24 669.464v-.001l-.99.545M1090 675.923v-.153l-.1-.237-.19-.316-.1-.149-.17-.232-.34-.432-.39-.467-.44-.483-.47-.481-.48-.46-.46-.423-.44-.368-.39-.301-.33-.22-.26-.131-.13-.028-.01-.001-.04-.01-.3.159-.71.371"/><path d="M1090 675.921v.001l-.08.057-.18-.037-.26-.131-.2-.133v-.001l-.13-.086-.4-.3-.43-.369-.24-.217-.01-.002-.08-.078-.14-.126-.48-.462-.46-.482-.45-.485-.39-.467-.34-.432-.27-.382-.19-.315-.09-.236-.01-.148v-.002l.07-.047.02-.01"/><path d="M1090 675.773v.151l-.09.057-.17-.037-.26-.131-.21-.133v-.001l-.13-.086-.39-.3-.44-.369-.24-.217v-.002l-.09-.078v-.001l-.13-.125-.48-.462-.47-.482-.44-.484-.4-.468-.34-.432-.27-.381-.18-.315-.1-.237v-.15l.09-.057M1086.86 672.093l.47.423.47.461.47.481.44.483M1089.61 675.07l.1.149.19.316M1085.32 671.047l.12.026.26.132M1090.05 674.268l-.01-.02-.1-.113-.19-.199-.27-.28-.34-.348-.4-.404-.44-.443-.47-.467-.47-.472-.46-.458-.43-.427-.39-.38-.33-.318-.25-.244-.17-.16-.09-.07M1085.24 669.465l-.99.545M724.045 335.513l-8.725-4.885-5.916-3.313-8.882-4.596-8.881-4.596-8.881-4.596-4.39-2.272-8.913-4.534-8.914-4.534-8.913-4.533-4.487-2.282-9.16-4.012-9.16-4.012-9.16-4.011-5.304-2.323-1.182-.365-9.571-2.897-9.571-2.896-9.572-2.896-9.571-2.896-9.572-2.896-9.571-2.897-9.572-2.896-2.4-.726 2.868 9.58 2.869 9.58 2.868 9.579 2.868 9.58 2.868 9.58 2.868 9.58 2.868 9.58.621 2.073.355 1.184 3.994 9.168 3.994 9.168 3.995 9.167 2.276 5.225 4.521 8.92 4.521 8.92 4.521 8.919 2.253 4.445 4.584 8.887 4.583 8.888 4.584 8.888 2.253 4.367 4.875 8.731 3.444 6.167M1078.81 664.134l.02 1.638-2.52 4.142-5 6.53-5.22 6.197v.004l-.54.636v.006l-1.56 1.854-.6.667-.01.007-3.06 3.446-.01.007-1.02 1.145-.01.008-1.39 1.568-2.39 2.676v.008l-.9 1.01-2.36 2.542-.01.008-.7.759-.01.009-2.83 3.062-2.02 2.179-.01.009-3.15 3.404-.68.711-.01.009-.24.252-.01.01-3.82 3.996-1.69 1.764v.009l-4.34 4.535-1.55 1.628-4.28 4.356-4.58 4.666-4.22 4.291-1.74 1.727-4.67 4.629-5.96 5.918-.88.874-3.69 3.559-5.848 5.639-.139.134-3.204 3.093-1.048.98-5.415 5.065-.646.605-3.653 3.417-1.191 1.114-3.348 3.012-1.079.97-3.435 3.091-2.676 2.407-.325.276-1.03.877-7.349 6.255-6.543 5.065-4.159 2.561-1.656.004"/><path d="m947.802 794.66-.583 1.684 1.677.005 4.228-2.601 6.658-5.152 7.616-6.481.571-.485.674-.574.526-.473 3.142-2.827 3.307-2.974 1.1-.99 2.656-2.389 1.936-1.811 3.606-3.373.646-.605 5.447-5.095.54-.505 3.704-3.573.125-.121 5.842-5.639 3.45-3.324 1.13-1.127 5.95-5.904 4.69-4.644 1.73-1.72 4.21-4.282 4.6-4.682 4.51-4.599 1.31-1.366 4.34-4.54v-.009l1.7-1.774 3.82-3.997.01-.009.24-.252.01-.009 1.14-1.199 2.68-2.894.01-.008 2.01-2.165 2.87-3.109.01-.008.71-.759v-.009l3.01-3.243.2-.225v-.008l2.37-2.656 1.5-1.685.01-.008 1.03-1.164.01-.007 2.93-3.288.01-.007 1.5-1.687.86-1.019v-.006l.72-.852v-.004l5.87-6.972 5.09-6.643 2.55-4.21-.02-1.66-1.67.589M1128.28 861.893l1.57-1.461 7.13-7.015.31-.305 6.94-7.194.3-.311 5.06-5.528 1.7-1.858 6.01-6.967 5-6.271.08-.107 3.74-5.222 2.49-4.185 1.08-2.889-.36-1.494M1070.51 653.992l-.32-.384-6.33-7.739-6.33-7.738-6.34-7.739-6.33-7.738-3.38-4.128-6.5-7.6-6.5-7.6-6.5-7.601-6.5-7.6-6.5-7.6-5.34-6.251-6.678-7.444-6.677-7.443-6.678-7.444-6.678-7.444-6.677-7.444-5.426-6.049-6.853-7.283-6.852-7.283-6.852-7.284-6.852-7.283-6.853-7.283-5.525-5.874-7.471-6.648-7.47-6.647-7.47-6.648-7.471-6.648-7.47-6.648-6.082-5.412-7.696-6.385-7.696-6.385-4.561-3.785-7.696-6.385-7.696-6.385-7.696-6.386-1.829-1.517-8.064-5.914-8.065-5.913-8.064-5.914-8.064-5.913-8.064-5.914-7.061-5.178-8.292-5.59-5.739-3.87-8.291-5.59-8.292-5.591-7.509-5.063-.89-.6M740.773 345.338l-1.948-.455-4.063 1.71-6.055 3.843-6.2 4.633-.002.002-.943.705-.199.149-.005.004-.485.362-2.118 1.74-.006.006-2.252 1.85-.007.006-1.104.908-.007.005-1.902 1.563-1.922 1.579-.269.236-.006.006-2.774 2.436-.008.007-.567.498-.007.006-2.441 2.144-1.955 1.717-.007.006-2.401 2.109-1.768 1.637-.008.007-.405.375-1.332 1.233-2.131 1.974-.008.006-5.407 5.007-.07.064-2.825 2.741-6.341 6.15-2.195 2.129-.029.029-6.381 6.471-2.656 2.693-2.052 2.081-3.305 3.511-3.455 3.671-3.65 3.876-.469.525-3.859 4.322-.361.403-2.762 3.093-1.82 2.039-1.822 2.179-.837 1.002-1.906 2.28-2.562 3.065-.632.755-.397.523-5.546 7.29-3.913 6.047-1.755 4.068.435 1.96M628.898 456.318l1.176 1.746.123.183"/><path d="m742.513 346.51.375-.734.231-2.685-2.014-.487-2.516 1.053-.015.007-1.689.707-6.297 3.992-7.974 5.957-.004.003-.177.132-1.181.971-.005.004-.354.29-2.566 2.109-.006.005-2.062 1.694-.007.005-1.101.905-.007.005-1.958 1.609-.459.377-1.687 1.482-.007.005-2.908 2.554-.008.007-.504.443-.008.007-2.208 1.938-2.013 1.768-.007.006-1.525 1.339-2.925 2.708-.008.008-3.468 3.21-.008.007-5.192 4.807-.804.78-2.108 2.044-7.178 6.963-.273.264-.753.73-.729.707-6.86 6.957-1.78 1.805-2.951 2.993-3.091 3.284-3.018 3.205-4.432 4.709-.311.33-3.381 3.786-.266.298-2.944 3.297-3.071 3.439-.617.739-.835 1-1.814 2.17-2.771 3.315-1.112 1.332-.931 1.113-1.026 1.349-.571.752-.021.027-4.567 6.006-4.065 6.291-.744 1.731-.003.009-1.068 2.484.467 2.028 2.692-.209.759-.381"/><path d="m743.12 343.09-2.244-1.732-2.019-.496-3.02 1.253-1.194.496-6.052 3.819v.001l-.23.145-.062.046-.002.002-.824.613-.004.004-.674.501-.004.003-1.777 1.324-.005.004-.062.046-.004.003-2.69 2.005-.005.003-1.006.749-.006.005-1.003.748-.527.431-.006.005-.97.796-.005.004-2.438 1.999-.005.004-3.227 2.646-.009.008-.368.302-.008.006-2.108 1.729-.638.559-.006.005-7.518 6.594-2.671 2.342-7.34 6.791-4.212 3.896-7.179 6.961-4.614 4.473-7.021 7.121-4.516 4.581-6.853 7.283-3.947 4.196-6.656 7.462-1.121 1.257-1.835 2.058-.039.046-.036.043-3.46 4.147-2.013 2.413-.839 1.006-1.127 1.351-.523.627-.496.654-2.024 2.669-.249.327-1.363 1.798-.481.634-1.051 1.386-.485.64-.21.326-3.827 5.948-.525 1.232-1.273 2.986.476 2.032 1.734 2.248M635.527 466.167l.001.001.209.31.003.005 5.584 8.295 5.585 8.295 5.279 7.841 5.585 8.296 3.877 5.759 5.91 8.067 5.909 8.068 5.909 8.067 5.909 8.067 5.91 8.068 5.237 7.149 6.383 7.698 6.383 7.698 6.383 7.697 1.566 1.889 6.383 7.698 6.383 7.698 3.825 4.613 6.647 7.471 6.646 7.472 6.646 7.471 6.647 7.472 6.646 7.472 5.519 6.203 7.284 6.852 7.284 6.851 7.283 6.852 7.284 6.851 7.284 6.852 6 5.643 7.444 6.676 7.445 6.677 7.445 6.676 7.445 6.677 7.445 6.676 6.173 5.536 7.601 6.497 7.602 6.497 7.601 6.498 7.602 6.497 7.602 6.497 6.367 5.442 7.74 6.332 7.741 6.331 7.74 6.332 7.74 6.331 4.203 3.438.239.195.85.696M1078.81 664.133l-.49-.596-1.71-2.091M1095.51 885.603l1.5.345 2.88-1.111 4.01-2.439M1169.33 811.086l-1.12-1.859-5.16-8.563-5.17-8.564-5.16-8.563-5.17-8.563-5.16-8.563-5.17-8.562-5.16-8.564-5.17-8.563-5.16-8.563-5.16-8.564-5.17-8.563-5.16-8.563-5.17-8.563-5.16-8.562-5.17-8.563-1.79-2.968M947.219 796.345l6.885 4.145 1.019.613M1156.18 902.497l4.81-4.152 5.48-5.061 1.96-1.924 3.58-3.514 3.44-3.583 1.93-2.013 5-5.53 4.42-5.243.47-.604 1.92-2.477.74-.964.55-.704 2.41-3.522.37-.547 1.79-3.235.08-.249.65-2.031-.34-1.245-5.04-8.641-2.33-4.013"/><path d="m1146.23 890.267 1.34-1.163 6.54-6.054 6.61-6.497 6.43-6.679 5.98-6.59 2-2.36 3.29-3.876.73-.923 1.99-2.555 1.69-2.157 2.06-2.964 1.28-1.848 1.9-3.355.25-.452.9-2.661-.39-1.425-4.88-8.726-1.48-2.631M1093.64 884.481l-.79 1.828.07 1.905 8.73 4.875 3.17 1.77.68.381"/><path d="m1092.92 888.214 1.6.38 3.08-1.179 4.45-2.709 2.42-1.763M1128.47 862.41l1.19-1.113 2.3-2.265.52-.512 5.15-5.065.03-.035 1.33-1.37 6.41-6.637 4.61-5.044 2.63-2.868 6.42-7.462 3.76-4.703 1.6-2.009 4.08-5.701 2.66-4.472 1.15-3.082-.4-1.589-1.9-.052-1.8.796M1111.67 898.685l8.73 4.876 2.73 1.523 1.43.374 2.32-.808M1165.88 914.062l.02.006 1.38-.445 1.94-1.075 2.41-1.665 2.8-2.195 3.08-2.639 3.24-2.98 3.26-3.202 3.17-3.302 2.94-3.268 2.6-3.109 2.17-2.826 1.64-2.432 1.05-1.948.43-1.39-.21-.78-1.83-2.645-5.7-8.218-1.08-1.553M1222.77 674.558l-9.97.684-9.98.684-9.98.684-9.97.684-9.98.684-9.98.684-9.97.684-9.98.683-3.07.211-9.98.684-9.97.684-9.98.683-9.98.684-7.43.51"/><path d="m1092.55 683.485 5.25 8.507 5.26 8.507 5.26 8.507 5.25 8.507 5.26 8.507 5.26 8.507 5.25 8.507 5.26 8.506 5.26 8.507 5.25 8.507 5.26 8.507 5.26 8.507 5.25 8.507 3.65 5.898 8.9-4.559 8.9-4.558 8.9-4.558 8.9-4.559 6.28-3.216 9.96.843 9.97.844 9.96.843 3.44.291 9.36 3.522 9.36 3.523 7.37 2.773 9.46 3.242 9.46 3.242 7.88 2.701 9.3 3.693 9.29 3.693 7.17 2.848 7.25-6.879 1.51-1.431-.24-2.164-6.1-7.919-5.68-7.355-6.1-7.919-5.68-7.359-6.1-7.919-5.68-7.364-6.11-7.919-5.68-7.368-6.52-7.582-6.52-7.582-6.52-7.582-6.52-7.581-6.52-7.582-6.52-7.582-6.52-7.581-6.52-7.582-4.69-5.45-9.98.685-9.97.684-9.98.685-9.98.684-9.97.685-9.98.685-9.98.684-9.97.685-2.76.189-9.97.685-9.98.684-9.98.685-9.97.685-7.26.498-.65 1.701Z"/><path d="m1327.15 802.271-6.1-7.919-5.72-7.413-6.1-7.919-5.72-7.418-6.11-7.919-5.72-7.422-6.11-7.919-5.73-7.427-6.52-7.582-6.52-7.581-6.52-7.582-6.52-7.582-6.52-7.581-6.52-7.582-6.52-7.581-6.52-7.582-4.91-5.704.16-1.677M1059.11 919.844l.85-1.521 4.86-8.739 4.86-8.738 4.86-8.739 4.87-8.737 1.91-3.435.68-2.427-1.51-.945"/><path d="m1081.32 879.935-8.49-5.287-8.49-5.288-8.49-5.287-8.48-5.287-8.49-5.288-8.49-5.287-8.49-5.288-8.48-5.287-8.49-5.288-8.49-5.287-8.488-5.288-8.488-5.287-8.487-5.288-5.614-3.497"/><path d="m965.536 807.37-.174.331-.764 9.971-.767 9.971-.764 9.97-.765 9.971-.453 5.899-.766 9.971-.765 9.971-.766 9.97-.764 9.971-.765 9.971-.765 9.97-.766 9.971-.722 9.416 7.569 6.535 7.57 6.534 7.569 6.535 7.569 6.535 7.57 6.534 7.573 6.535 7.57 6.535 7.57 6.534 4.42 3.817 7.89 6.133 7.16 5.559 7.9 6.14 7.17 5.56 7.89 6.13 7.17 5.57 7.9 6.13 7.17 5.57 7.26-6.88 1.17-1.1.65-2.97-3.68-9.3-3.68-9.3-2.39-6.056-3.22-9.47-3.21-9.469-2.29-6.749-3.51-9.366-3.5-9.366-2.38-6.367-.73-9.974-.73-9.973-.73-9.973-.07-.945"/><path d="m1089.43 1027.6-3.68-9.3-3.68-9.3-2.43-6.15-3.22-9.469-3.22-9.469-2.32-6.844-3.5-9.366-3.51-9.366-2.41-6.461-.74-9.973-.73-9.973-.73-9.974-.15-2.111M982.496 753.561l.001.009.212.639.333.595.44.529.53.442.601.338.648.221.671.097.667-.033.574-.144.046-.011.019-.005.584-.282.503-.388.006-.004.413-.489.302-.565.179-.62.048-.652-.083-.658-.212-.64-.332-.595-.44-.529-.532-.443-.601-.338-.649-.221-.376-.054-.128-.019-.167-.023-.667.033-.639.16-.584.283-.509.393-.004.005-.409.483-.301.566-.178.62-.037.498-.002.033-.009.121.064.501.018.147Zm0 0-.023-.141-.026-.155M990.184 755.085l.558-.66.408-.763.242-.839.066-.88-.113-.89-.286-.863-.449-.805M986.598 756.398l.071-.01M971.251 762.817l.147-.579.212-.414.008-.016.046-.091.373-.438.005-.005.471-.347.549-.239.607-.121.638.001.647.125.547.21.085.032.026.016.563.334.526.446.442.523.342.581.229.617.104.628-.021.615-.148.58-.266.52-.37.434-.008.009-.005.004-.468.343-.55.238-.604.12-.64-.002-.646-.125-.63-.242-.589-.35-.526-.445-.441-.523-.074-.125-.069-.117-.198-.338-.229-.616-.106-.628.021-.615Zm0 0 .012-.076M979.359 765.282l.005-.004.51-.598.362-.704.2-.783.029-.831-.141-.849-.308-.834-.462-.785M975.98 766.823l.084-.032M961.283 771.481l.22-.464.323-.38.003-.005.28-.192.009-.006.133-.091.501-.183.561-.07.599.045.614.16.605.269.574.365.414.359.098.084.008.007.446.516.354.563.25.587.136.589.016.569-.104.527-.082.173-.004.008-.134.283-.328.384-.005.003-.418.285-.501.183-.561.069-.598-.047-.613-.16-.605-.268-.573-.366-.032-.028-.118-.102-.368-.319-.446-.515-.354-.561-.25-.587-.136-.589-.017-.568.103-.527Zm0 0 .01-.03M969.582 774.203l.005-.003.443-.519.298-.627.142-.712-.021-.77-.183-.797-.338-.794-.479-.76M966.352 775.866l.009-.004M952.78 778.682l.262-.311.003-.004.361-.221.441-.118.065-.001.306-.006h.01l.124-.003.549.098.573.202.575.299.554.384.511.454.45.507.371.541.082.164.078.155.117.233.173.545.027.221.001.009.034.284-.05.464-.162.398-.266.314-.004.003-.357.217-.442.117-.505.009-.549-.098-.136-.049-.208-.073-.228-.081-.574-.299-.552-.383-.511-.454-.449-.506-.37-.539-.277-.552-.118-.368-.019-.058-.037-.117-.063-.514.05-.465.16-.398Zm0 0 .002-.004M961.16 781.573l.004-.002.361-.426.219-.537.069-.629-.083-.695-.234-.736-.374-.748-.196-.286M957.609 783.509l.022-.012M945.761 784.485l.193-.236.002-.003.289-.145.372-.045.441.056.493.156.526.249.539.333.473.36.058.044.502.459.454.497.389.516.309.514.216.494.116.453.011.396-.095.323-.195.238-.004.001-.286.142-.373.044-.441-.057-.493-.156-.274-.13-.007-.003-.244-.116-.538-.333-.529-.403-.501-.459-.454-.496-.201-.267-.187-.247-.309-.514-.216-.493-.035-.135-.002-.007-.08-.311-.012-.395.017-.059.076-.265Zm0 0 .003-.006"/><path d="m950.852 789.143.659-.372.618-.348 2.199-1.24.019-.011.004-.002M954.352 787.171l.266-.322.128-.437-.013-.536-.156-.613-.004-.009-.095-.216-.193-.443M940.645 788.268l.116-.156.002-.002.026-.007.001-.001.184-.055.132.014h.003l.162.018.296.101.002.001.073.025.431.217.475.299.499.369.506.425.492.464.459.487.139.166.001.002.269.321.343.474.263.439.174.388.005.018v.002l.074.302-.02.232-.001.012-.075.099-.044.058h-.002l-.21.062-.059-.006h-.001l-.238-.027-.372-.128-.43-.217-.016-.01-.001-.001-.457-.288-.499-.369-.482-.405-.001-.001-.021-.018-.491-.463-.458-.486-.232-.277-.023-.027-.153-.184-.195-.269-.048-.066-.1-.138-.263-.438-.161-.357-.014-.032-.08-.322.02-.245Zm0 0 .004-.008M945.633 792.98l.068-.039 3.639-2.09.002-.001.003-.002M949.343 790.847l.162-.212.029-.331-.104-.436-.235-.526M937.596 789.872l.13.019.218.111.298.2.366.28.42.349.459.406.478.447.481.47.465.475.43.462.378.432.314.383.01.015.001.001.224.306.149.247.056.163-.037.072-.001.001-.131-.02-.219-.113-.298-.2-.235-.18-.001-.001-.13-.099-.42-.35-.422-.373-.006-.006-.029-.026-.478-.446-.48-.469-.463-.474-.429-.461-.378-.431-.07-.085-.005-.006-.239-.292-.236-.322-.149-.248-.058-.164.037-.073Zm0 0 .637-1.169.001-.003.633-1.161.002-.003.068-.127.45-.825M942.438 794.711l2.921-1.674"/><path d="m938.086 786.713-.172.309-.001.003-.327.582-.001.003-1.064 1.903-.001.002.048.101.138.19.223.271.3.343.365.4.416.442.454.468.468.475.471.464.451.436.414.389.365.329.297.256.22.172.134.083.044-.01.223-.125"/><path d="m937.847 786.519-.322.571-.033.181.059.265.033.075M1048.28 694.385l-.25.56-.2.277-.15.206-.45.389-.53.278-.59.157-.62.03-.64-.098-.62-.222-.58-.338-.53-.442-.44-.527-.35-.593-.08-.221-.04-.115-.12-.299-.11-.654v-.647l.13-.616.25-.559.36-.483.45-.388.36-.191.17-.086.59-.157.62-.029.63.098.62.223.05.029.12.068.41.241.53.441.44.526.35.592.24.635.11.653v.647l-.13.615Zm0 0-.63 1.877M1042.18 698.396l.84.301.86.132.84-.042.79-.212.72-.377.61-.525.48-.653.34-.757M1044.29 689.646l-2.03.216M942.473 794.639l-.037.072-.132-.02-.218-.112-.299-.2-.235-.18-.001-.001-.13-.1-.42-.349-.409-.363-.006-.005-.042-.037-.478-.446-.48-.469-.463-.474-.429-.461-.378-.431-.079-.097-.005-.005-.23-.281-.235-.322-.15-.248-.058-.164.037-.074h.002M941.34 793.092l.379.431M942.266 794.229l.149.248M942.434 794.711h.002M937.941 790.004l.298.199.366.28M939.027 790.832l.459.406M945.674 792.921l-.045.059-.002.002-.212.063-.059-.007-.239-.027-.371-.127-.431-.218-.016-.01-.458-.289-.498-.368-.483-.406-.001-.001-.021-.017-.49-.464-.459-.485-.199-.239-.023-.028-.186-.221-.26-.359-.031-.044-.051-.07-.264-.439-.165-.365-.01-.023-.079-.323.019-.245.008-.01.11-.147.002-.001.029-.008.001-.001.179-.054.139.015h.002l.156.017M944.641 790.637l.269.321.343.474.264.439M945.629 792.982l.072-.041 3.64-2.091M942.07 788.424l.474.299.5.369.505.425.492.465.459.486M951.013 787.737l.116.453.01.396-.094.323-.194.235-.002.003-.29.143-.373.044-.441-.057-.492-.156-.263-.125-.007-.003-.256-.121-.537-.333-.53-.403-.501-.458-.453-.496-.203-.269-.186-.246-.308-.514-.217-.492-.037-.146-.002-.007-.077-.3-.012-.396.019-.066.074-.258.008-.01.187-.229.003-.001M946.238 784.106l.372-.046.441.057.493.155M954.348 787.175l.002-.003M950.848 789.148l.663-.374.618-.348 2.218-1.25M957.965 783.292l-.004.003-.331.202-.029.018-.442.117-.505.009-.55-.098-.135-.048-.206-.073-.23-.082-.575-.299-.552-.383-.51-.454-.449-.506-.37-.539-.278-.552-.118-.37-.02-.062-.036-.111-.063-.514.05-.465.161-.398.008-.01.257-.305.004-.002M955.465 778.323l.575.299.554.384.511.454.45.507.371.541M960.668 781.874l.489-.298.003-.004M957.602 783.515l3.069-1.641"/><path d="m954.146 775.351-.608 1.479-.765 1.858M966.77 775.582l-.003.004-.406.277-.017.012-.501.182-.561.069-.598-.046-.614-.161-.604-.268-.573-.365-.031-.027-.118-.103-.37-.319-.445-.515-.354-.562-.25-.586-.136-.589-.017-.569.103-.527.018-.037.201-.427.327-.384.005-.003M966.66 771.903l.355.562.25.587.136.59.016.569-.105.527-.078.165-.004.007M962.242 770.351l.501-.183.561-.07.599.046.613.16.606.268.574.366M969.008 774.597l.572-.391.003-.004M962.158 768.672l-.885 2.816M966.344 775.875l2.665-1.277M977.638 765.283l-.268.521-.362.425-.008.009-.003.004-.004.004-.472.347-.457.198-.093.04-.606.121-.638-.003-.647-.124-.629-.242-.589-.351-.526-.445-.442-.522-.073-.124-.069-.117-.2-.34-.228-.615-.105-.628.021-.615.021-.085.125-.494.22-.43.009-.016.038-.075.376-.443.006-.004.467-.344.549-.239M975.492 760.912l.082.031.028.017.562.334.526.445.443.524.342.581M971.583 760.666l-.341 2.16M977.973 766.076l.743-.322.639-.468.004-.005M975.973 766.831l2.001-.755M988.736 755.084l-.409.483-.004.005-.509.393-.572.276-.013.006-.019.005-.538.135-.081.02-.667.033-.671-.097-.648-.221-.601-.339-.531-.442-.439-.528-.333-.595-.212-.639-.001-.008-.018-.147-.021-.16-.043-.343.011-.153.002-.033.035-.465.178-.621.301-.565.413-.489.006-.004.502-.389M989.179 752.588l.083.659-.048.651-.179.621M982.293 752.402l.17 1.027.023.142.001.008M984.438 749.921l.638-.161.668-.033.167.024.128.019M986.59 756.408l1.245-.186M996.556 744.606l-.608-.33-.534-.439-.438-.533-.328-.605-.202-.654-.071-.679.031-.326.016-.168.017-.182.196-.649.321-.595.434-.52.529-.424.605-.312.65-.186.008-.002.148-.012.536-.044.685.076.659.208.608.33.532.44.44.533.33.605.2.654.07.679-.06.677-.2.648-.32.595-.43.52-.535.424-.605.312-.657.187-.684.057-.684-.077-.659-.208ZM1002.97 741.579l.09-.913-.1-.917M997.414 745.182l.925.104.923-.077M1007.48 732.857l.83.44.89.271.93.091.93-.092.89-.272.83-.441.72-.594"/><path d="m1008.91 732.419-.61-.326-.54-.438-.44-.535-.32-.61-.2-.662-.07-.688.07-.689.05-.162.06-.207.09-.293.32-.61.44-.535.54-.439.61-.327.24-.074.2-.061.22-.066.69-.068.68.067.66.2.61.326.54.438.44.535.32.61.2.662.07.688-.07.689-.2.662-.32.61-.44.535-.53.439-.61.327-.67.201-.68.069-.69-.068-.66-.2ZM1019.29 720.972l.82.44.88.271.92.091.92-.091.88-.271.81-.44.7-.593.34-.423.24-.298.34-.666.08-.157"/><path d="m1021.25 719.97-.61-.325-.53-.439-.44-.534-.33-.61-.21-.661-.07-.687.05-.643.01-.045.04-.141.15-.52.31-.609.43-.534.52-.438.6-.325.63-.194.02-.007.14-.014.54-.053.68.068.65.2.61.326.53.438.44.534.33.609.21.661.07.687-.06.688-.19.661-.31.609-.43.534-.52.438-.6.326-.65.201-.68.067-.68-.067-.65-.201ZM1030.72 709.201l.81.446.86.281.9.106.88-.075.85-.251.77-.418.67-.569.54-.698.39-.8.22-.872.05-.909"/><path d="m1037.69 704.57-.03.673-.02.065-.15.58-.29.592-.4.517-.49.421-.57.309-.63.186-.65.055-.67-.078-.64-.208-.6-.33-.52-.44-.45-.531-.33-.604-.22-.652-.08-.577-.01-.099v-.036l.03-.638.17-.645.29-.592.4-.516.49-.421.57-.309.63-.185.66-.054.21.025.14.017.21.025.1.011.64.209.6.329.52.439.45.532.33.603.22.651.09.676Zm0 0-.03.873M1034.84 701.131l-.26-.082-.12-.039-.66-.211M1057.6 684.448l-.3.436-.4.341-.11.055-.36.179-.54.116-.58-.005-.6-.126-.59-.244-.57-.35-.51-.444-.22-.258-.09-.098-.14-.165-.36-.577-.26-.612-.16-.623-.03-.609.08-.572.19-.514.23-.332.08-.104.39-.341.48-.232.54-.115.57.006.6.127.59.243.57.35.51.443.06.062.1.119.29.339.36.577.26.61.16.622.03.609-.08.572-.19.515Zm0 0-1.16 2.557M1053.23 679.369l-2.7.774M1052.53 688.355l.81.171.78.006.73-.158.64-.316.54-.462.4-.59M1065.59 675.322l-.23.377-.33.282-.41.177-.48.065-.53-.049-.55-.163-.56-.269-.06-.043-.14-.09-.34-.233-.51-.448-.45-.512-.38-.558-.3-.582-.19-.583-.08-.562.02-.424v-.095l.13-.456.24-.376.33-.282.41-.176.48-.064.52.051.56.163.55.269.55.365.51.447.45.512.38.557.17.348.09.186.03.046.19.582.09.562-.03.519-.13.457Zm0 0-1.54 2.978M1061.18 670.321l-1.83.724-.01.002-.81.32-.01.003M1061.37 679.455l.71.067.65-.089.56-.24.44-.383.32-.51M1071.62 668.15l-.25.214-.34.112-.08.001-.33.004-.47-.102-.5-.204-.53-.3-.23-.171-.29-.212-.5-.452-.45-.504-.4-.535-.1-.171-.23-.376-.23-.537-.04-.133v-.005l-.05-.18-.06-.189-.04-.456.07-.39.16-.306.16-.136.01-.005.08-.072.34-.111.31-.003h.01l.09-.001.47.103.5.205.28.16.24.139.52.383.01.008.01.005.48.438.46.503.32.436.07.098.33.546.24.536.14.506.04.457-.05.351-.01.039-.16.307Zm0 0-.06.115-1.84 3.318M1066.98 663.044l-.1.045v.003l-2.51 1.162v.003l-.08.035-.01.004M1068.92 672.024l.46-.152.34-.29M1075.91 662.455l-.17.138-.09.014-.01.001-.17.024-.33-.061-.41-.159-.45-.251-.48-.333-.49-.403-.49-.457-.41-.439-.01-.01-.04-.044-.06-.067v-.002l-.15-.182-.21-.26-.36-.508-.29-.486-.08-.185-.01-.007-.11-.254-.11-.388-.02-.315.09-.23.17-.137.12-.017.01-.001.08-.012.06-.008.33.062.07.024v.002l.34.134.45.251.48.333.41.332v.001l.08.069.49.456.46.492.01.01v.001l.39.48v.001l.02.017.36.507.28.486.21.446.11.388.01.316-.03.101v.003l-.05.127Zm0 0-.1.184v.002l-1.98 3.48M1071.22 657.454l-.78.402-.01.001-.62.321-.01.001-.69.352v.003l-1.09.557M1071.53 652.85l-1.34.759M1073.45 652.344l-1.25.702-.01.001-.6.339v.001l-1.08.606M1078.13 658.761v-.152l-.09-.238-.18-.316-.07-.09-.2-.291-.34-.432-.39-.467-.44-.483-.47-.481-.47-.461-.47-.422-.44-.369-.39-.3-.34-.22-.27-.132-.18-.038-.03.015v.002l-1.03.559v.002l-1.01.545-.76.416-.08.043"/><path d="M1078.13 658.759v.001l-.09.057-.18-.037-.26-.131-.14-.087v-.001l-.2-.132-.4-.3-.44-.369-.12-.109v-.001l-.03-.026-.31-.287-.48-.462-.47-.483-.44-.484-.39-.467-.34-.433-.27-.381-.18-.315-.09-.237v-.15l.06-.038.01-.002.02-.016"/><path d="M1078.13 658.761v.002l-.09.058-.18-.038-.27-.131-.13-.087v-.001l-.2-.131-.4-.301-.44-.369-.12-.109v-.001l-.03-.027v-.001l-.32-.285-.47-.462-.47-.482-.44-.485-.4-.467-.33-.433-.27-.381-.18-.315-.09-.237v-.15M1077.25 657.244l.34.433M1075.97 662.57l.64-1.123 1.52-2.684M1074.18 654.262l.39.3M1078.25 657.148l-.01-.024-.1-.115-.19-.203-.27-.282-.34-.35-.4-.405-.44-.445-.47-.467-.47-.471-.46-.458-.43-.426-.39-.377-.33-.316-.25-.241-.17-.156-.08-.068"/><path d="M1073.45 652.344v.001l-1.25.702-.01.001-.6.338v.002l-1.08.606M1071.53 652.849v.001l-1.34.759"/><path d="m1072.2 653.045-.26-.134-.25-.078-.16.015M1137.73 878.607l.05-.163.05-.473-.06-.479-.15-.466-.24-.435-.33-.389M1111.58 894.759l.13-.118.18-.065.22-.013.26.044.28.094.3.145.31.188.3.225.27.254.25.271.21.277.16.276.1.262.05.238-.01.205-.07.165-.13.117v.002l-.18.065M1116.23 896.194l.18-.159.09-.223.02-.277-.07-.323-.14-.354-.22-.373-.28-.377M1112.27 896.453l.28.252.29.225.09.057.01.003.21.128.3.145M1113.73 897.359l.26.043M1114.39 897.324l1.84-1.13M1111.55 895.369l.11.26.16.275.2.278M1108.32 896.976v-.003l-.08-.2v-.006l-.02-.121v-.001l-.01-.037.04-.121.04-.034v-.001l.01-.008.03-.029.14-.021.18.031.23.082.17.087v.001l.08.042.27.173.29.209.28.237.27.257.03.025.02.019.2.221.22.265.13.175.05.078.13.233.08.202.03.165-.04.121-.08.07v.002l-.14.021-.19-.032-.22-.082-.25-.13-.06-.04M1109.37 898.246l.28.237"/><path d="m1111 899.088.67-.404 1.32-.801"/><path d="m1112.99 897.883.12-.097.04-.164-.03-.223-.11-.274-.07-.128M1108.62 897.461l.22.264M1106.75 898.094l-.23-.25-.2-.23-.16-.202-.11-.167-.06-.123-.01-.077.04-.026.09.025.15.076.18.122.22.166.25.201.26.231.27.25.27.26.25.26.15.167v.001l.08.082.2.231.15.202.12.166.06.124.01.075v.001l-.05.026v-.001l-.09-.025-.14-.075-.19-.123-.22-.166-.24-.201-.1-.085v-.001l-.16-.144-.27-.25M1108.69 899.684l1.45-.858"/><path d="m1104.84 896.448.05.071.1.119.14.163.18.2.22.23.24.252.26.262.26.264.26.255.24.236.22.208.18.172.15.13.1.082.05.032.21-.116M1104.82 894.859l.05.149.1.202.15.234.15.208M1164.44 848.051l.38.324.43.244.45.157.46.063.45-.034.42-.129.38-.219.32-.3.25-.371M1168.46 846.777l-.18.274-.09.082-.15.141-.28.162-.31.095-.33.025-.34-.047-.34-.116-.31-.181-.29-.239-.24-.288-.19-.326-.13-.351-.07-.363-.01-.361.07-.345.12-.315.19-.274.24-.223.28-.161.12-.039.19-.056.33-.025.34.047.33.116.32.181.17.145.11.094.17.199.07.089.2.325.13.351.07.363v.361l-.06.345-.13.315Zm0 0-.48 1.01M1166.74 843.845l-1.09-.021"/><path d="m1105.5 895.24-.23.41v.002l-.43.776v.019M1106.6 895.853l-.04.078v.002l-.38.726v.001l-.2.386.01.076.06.124.11.166.16.202.2.23.23.25.25.26.27.26.27.25.16.144v.001l.1.085.24.201.22.166.19.123.14.075.09.026v-.001"/><path d="m1107.96 898.609.15.168.01.001M1108.19 898.859l.2.231.15.202.12.166.06.124.01.076-.05.025v.001M1105.98 897.046v-.002l.04-.025.09.025.15.076.18.122.22.166.24.201.27.231M1108.95 895.011l-.39.811v.001l-.03.054v.002l-.26.542v.014l-.03.053-.03.121.01.033.01.124.01.008.07.201v.002l.14.232.17.253.22.264.25.265.16.151v.001l.11.105.29.237.28.209.21.133.06.04.26.13.22.082.19.032.13-.021v-.001"/><path d="m1108.65 896.426.23.082.17.087v.001l.08.042.27.173.29.209.28.238.27.256.07.066.01.018.17.182.22.264.12.171.06.083.13.232.08.202.02.165M1108.24 896.487l.01-.003.04-.033.01-.009.03-.027M1112.34 892.951l-.83 1.975-.01.205.05.23v.008l.11.262.15.275.21.278.25.271.27.252.3.225.1.062v.003l.2.123.3.145.29.096.26.043.22-.012.18-.066v-.002"/><path d="m1113.25 895.036.3.225.28.253.24.271.21.278M1114.55 896.602l.05.238-.02.205M1112.11 894.565l.25.043.29.095M1111.51 894.927l.07-.165v-.002l.12-.116M1139.81 873.633l.39.324.45.243.48.154.51.059.51-.038.48-.134.45-.226.39-.307.33-.378.24-.433.15-.473.05-.494-.05-.496-.15-.479-.24-.443-.32-.391"/><path d="m1140.8 874.16-.33-.18-.29-.24-.24-.289-.18-.328-.11-.354-.03-.367.03-.365.11-.35.18-.321.24-.279.29-.228.33-.166.36-.1.38-.028.37.043.36.114.33.181.29.239.24.289.18.328.11.354.03.367-.03.366-.11.349-.18.321-.24.28-.29.227-.33.167-.36.099-.38.029-.37-.044-.36-.114ZM1146.27 867.383l.4.321.44.239.49.148.5.048.51-.05.48-.148.45-.24.39-.323.32-.394.24-.448.15-.487.05-.505-.05-.507-.15-.485-.24-.448"/><path d="m1147.57 867.587-.34-.177-.29-.238-.23-.289-.18-.333-.11-.36-.04-.374.04-.373.11-.361.17-.332.24-.291.29-.239.33-.178.36-.109.38-.037.37.036.36.11.33.177.29.237.24.29.17.332.11.36.04.374-.04.374-.1.361-.18.331-.24.291-.29.24-.33.177-.36.109-.37.037-.38-.036-.35-.109ZM1152.67 860.896l.39.321.44.238.48.145.5.046.49-.053.48-.152.43-.244.38-.327.31-.398.23-.452.13-.49.04-.509-.06-.508-.15-.488"/><path d="m1154.24 860.789-.33-.176-.29-.238-.24-.29-.18-.333-.11-.361-.05-.376.03-.376.1-.363.17-.335.23-.294.28-.241.32-.181.35-.112.37-.04.36.035.36.107.33.176.29.238.23.29.19.332.11.361.04.376-.03.377-.1.362-.16.335-.23.294-.28.242-.32.181-.36.112-.36.04-.37-.035-.35-.107ZM1158.79 854.383l.39.322.43.24.47.148.48.051.48-.048.45-.145.41-.237.36-.319.28-.39.21-.445"/><path d="m1162.91 852.96-.05.118-.1.211-.21.288-.26.237-.31.175-.33.107-.35.036-.36-.038-.35-.11-.32-.177-.29-.238-.24-.29-.18-.33-.12-.359-.06-.372.02-.372.08-.357.15-.329.21-.289.27-.236.3-.175.34-.107.35-.035.35.038.23.071.12.038.32.178.29.238.24.289.19.331.12.358.05.372-.01.372-.09.357Zm0 0-.17.599M1161.8 850.466l-.56-.278M1169.81 842.43l.42.253.43.17.43.081.41-.011.39-.103.33-.191.28-.271.21-.341M1173.43 840.73l-.16.252-.2.201-.19.11-.06.031-.28.076-.31.008-.32-.06-.32-.126-.3-.187-.28-.24-.25-.286-.2-.319-.15-.34-.09-.349-.03-.343.04-.325.09-.295.16-.252.08-.076.12-.124.25-.141.29-.076.3-.007.32.06.32.126.31.186.28.241.24.285.2.319.15.34.09.348.03.344-.04.325-.09.294Zm0 0-.72 1.286M1171.32 837.869l-1.46.279M1177.39 835.563l-.17.172-.21.113-.25.051-.12-.006-.16-.007-.3-.078-.3-.139-.29-.195-.28-.243-.25-.282-.21-.31-.16-.326-.11-.33-.06-.32v-.3l.02-.099.04-.167.12-.223.17-.171.21-.113.25-.051.28.014.29.078.3.139.3.195.27.243.25.281.21.31.17.326.11.329.06.32-.01.3-.06.266-.11.223Zm0 0-.95 1.612M1175.08 832.59l-1.77.564M1174.02 837.067l.38.252.41.188.39.105.38.018.34-.069.29-.153.22-.233M1180.49 830.959l-.12.137-.18.08-.21.021-.25-.041-.26-.099-.28-.155-.15-.104-.13-.1-.28-.246-.25-.278-.22-.299-.18-.309-.02-.035-.12-.272-.09-.293-.04-.268.03-.232.07-.188.13-.137.17-.079.21-.02.25.04.27.1.28.155.12.09.16.114.27.245.05.062.2.216.22.298.19.309.13.306.09.293.04.268-.02.233-.08.188Zm0 0-1.08 1.812M1178.11 828.062l-1.93.79M1177.64 832.694l.38.21.36.134.33.054.29-.027.23-.109.17-.185M1182.5 827.307l-.03.036-.05.062-.13.042-.18-.015-.21-.07-.24-.124-.25-.173-.27-.215-.27-.249-.25-.273-.24-.287-.2-.289-.17-.281-.12-.262-.03-.105v-.003l-.04-.124-.02-.194v-.04l.03-.109.08-.097.13-.042.17.015.19.064.01.001.01.006.24.124.05.033.05.035.01.003.15.102.27.215.05.044.21.204.26.273.23.286.21.289.16.281.01.023v.001l.12.238.07.232.02.195-.03.148Zm0 0-.03.043-1.14 1.924"/><path d="m1179.91 824.537-.24.113v.001l-.15.071v.001l-1.06.504M1179.72 828.849l.13.1.35.234.32.167.28.096.24.019.18-.058.11-.132M1178.97 820.282l-.34.2M1182.95 823.128l-.06-.058-.15-.154-.19-.192-.23-.224-.24-.245-.26-.259-.26-.263-.26-.255-.24-.238-.21-.213-.18-.179-.14-.138-.09-.092-.04-.042-.48.268v.001l-.52.286v.001l-.31.175"/><path d="m1183.06 823.24.01.01-.04-.042-.1-.092-.13-.137-.18-.179-.22-.213-.24-.239-.25-.256-.26-.263-.26-.259-.25-.246-.22-.223M1180.57 820.755l-.11-.109M1180.41 820.585l-.01-.009M1183.36 824.71v-.001l-.01-.105-.07-.153-.11-.194-.16-.228-.19-.252-.03-.029v-.001l-.2-.238-.24-.273-.26-.268-.26-.251-.26-.227-.16-.134-.01-.004-.06-.054-.21-.151-.18-.104-.13-.052-.09.001-.31.162v.001l-.66.347-.49.258"/><path d="M1182.5 824.276v-.001l-.01-.009-.26-.227M1181.05 822.725l-.16-.228-.11-.194-.07-.152-.01-.105.03-.052.01-.002M1183.36 824.709v.001l-.04.054-.08.001M1181.71 823.519l-.23-.259v-.001l-.02-.013"/><path d="M1183.36 824.711v.009l-.03.046-.09.001-.13-.052-.18-.104-.21-.151-.22-.183-.01-.009-.25-.227-.27-.252-.25-.268-.24-.26v-.001l-.01-.012-.23-.268-.19-.253-.16-.228-.11-.194-.07-.152-.01-.106.04-.054.08-.001.14.053.17.104.21.15.07.058v.004l.16.131.26.226.26.252.26.268.24.273.2.237v.001l.03.03.19.252.16.228.11.194.07.153.01.105Zm0 0-1.03 1.783M1183.07 823.25v-.001l-.04-.041-.09-.092-.14-.138-.18-.179-.22-.213-.23-.239-.26-.255-.26-.263-.26-.259-.25-.246-.22-.224-.19-.192-.16-.153-.1-.109-.06-.06-.01-.01.04.043.09.091.14.139.18.178.21.213.24.239.26.255.26.262.26.259.24.246.23.224.19.192.15.153.06.058.05.052.06.06.01.01Zm0 0-.28.498M1179.92 820.844l-.03-.02-.25-.194-.22-.156-.19-.113-.15-.065-.11-.014-.01.005-.33.196M646.402 403.938l.143-.311.008-.017.064-.138.298-.401.003-.005.377-.331.437-.244.48-.146.507-.044.511.061.499.163.465.258.414.345.347.417.268.474.176.512.08.53-.021.53-.12.506-.215.466-.302.406-.004.004-.373.327-.437.243-.48.146-.506.044-.204-.025-.029-.003-.279-.033-.498-.163-.465-.259-.414-.344-.347-.417-.267-.473-.177-.512-.079-.53.02-.529.12-.507Zm0 0 .008-.025M648.512 407.672l.056.015M638.487 412.562l.26-.377.003-.004.18-.164.007-.006.151-.137.4-.22.446-.126.475-.025.487.075.479.174.454.265.409.346.351.414.277.466.195.5.103.515.009.509-.087.485-.178.442-.263.381-.004.004-.334.303-.28.153-.012.007-.108.06-.446.124-.476.025-.486-.076-.479-.173-.452-.265-.41-.346-.35-.413-.277-.466-.195-.499-.103-.515-.01-.509.087-.485.177-.442Zm0 0 .004-.006M641.461 416.727l.028-.002M631.473 420.878l.213-.342.002-.003.289-.273.353-.186v-.001l.006-.001.398-.093.437.002.455.097.456.189.438.275.404.349.354.409.291.454.216.483.133.491.046.482-.045.452-.132.407-.158.254-.005.007-.053.085-.003.003-.287.268-.353.186-.403.094-.437-.002-.455-.098-.455-.189-.438-.273-.403-.35-.354-.408-.29-.454-.216-.482-.134-.491-.046-.481.044-.453.132-.407Zm0 0 .012-.021M634.926 424.872l.014-.003M625.957 427.854l.234-.227.299-.144.353-.055.332.03.006.001.055.005.419.125.428.209.42.287.397.351.359.404.305.44.242.46.168.461.087.446.003.25v.008l.002.154-.08.364-.159.3-.003.003-.231.223-.3.143-.353.055-.393-.037-.418-.125-.427-.21-.42-.285-.397-.352-.358-.403-.305-.439-.242-.459-.168-.461-.088-.445-.005-.413.079-.363.157-.298.002-.003Zm0 0 1.416-2.398M629.293 432.092l.031-.011M621.605 434.482l.02-.311.097-.246.001-.003.172-.174.239-.093.298-.009.345.076.378.157.397.234.402.3.389.357.363.396.322.423.269.433.206.426.135.404.058.364-.021.313-.099.247-.002.003-.17.17-.24.092M621.799 435.251l-.135-.403M619.107 438.56l.001-.001.106-.114.176-.037.24.043.293.121.037.02.001.001.297.173.366.259.38.315.382.361.367.388.34.405.232.315h.001l.065.089.246.387.184.357.115.311.033.205.008.05-.021.114v.001l-.013.073-.001.001-.107.113-.004.001-.172.036-.24-.044-.293-.12-.336-.195-.136-.097-.001-.001-.227-.161-.38-.316-.381-.359-.367-.388-.097-.116-.001-.001-.241-.287-.298-.403-.246-.387-.045-.087-.139-.269-.115-.312-.042-.255.033-.187v-.002Zm0 0 1.719-2.872M622.836 442.511l.003-.001M618.164 441.642l.004-.006.036-.046.113.023.179.097.241.168.292.233.274.237.001.001.057.05.36.332.373.364.372.382.357.384.329.372.286.346.234.307.173.255.104.193.032.126-.041.051-.113-.023-.18-.098-.241-.169-.292-.232-.331-.288-.359-.332-.373-.363-.371-.381-.357-.384-.317-.36-.001-.001-.01-.011-.286-.345-.234-.307-.173-.255-.105-.194-.033-.124v-.002Zm0 0 1.063-1.816.139-.238M621.941 445.511l.003-.001M618.879 443.105l.049.084.121.154.189.218.249.272.299.317.339.35.365.368.377.374.374.363.358.34.327.304.283.254.23.197.167.131.097.06M698.958 358.98l-.032.481-.102.347-.031.105-.229.407-.315.344-.391.271-.45.184-.493.093-.517-.003-.52-.099-.504-.191-.469-.275-.414-.35-.345-.41-.263-.455-.169-.483-.069-.491.032-.481.134-.452.229-.406.253-.276.063-.068.391-.27.45-.185.493-.092.516.004.52.099.504.191.468.275.414.35.345.409.262.455.169.482.07.49ZM694.744 356.501l-1.502.669M622.703 446.891l.001.001.025-.013.334-.186"/><path d="m619.721 442.733.373.364.372.382.357.384.328.372.287.346.234.307.173.255.104.194.032.123v.002l-.038.048-.003.003-.113-.023-.18-.098-.241-.169-.292-.232-.331-.288-.359-.332-.373-.363-.371-.381-.357-.384-.318-.36-.001-.002-.009-.01-.286-.345-.235-.307-.172-.255-.105-.194-.033-.126M618.207 441.592l.112.022.18.098.241.168.292.233.273.237"/><path d="m621.941 445.512.357-.189.375-.198M622.932 441.956l.032.199v.001l.009.055-.019.109-.001.002-.013.075-.001.002-.103.11-.004.005-.177.036-.24-.043-.293-.121-.335-.194-.136-.097-.002-.001-.227-.162-.38-.315-.381-.359-.367-.389-.097-.116-.001-.001-.241-.287-.298-.403-.246-.387-.045-.087v-.001l-.139-.268-.115-.312-.042-.255.033-.189.002-.001.105-.114.177-.037M622.09 440.497l.232.314M622.391 440.901l.246.388.183.356M622.832 442.515l.214-.105.002-.001.116-.057.681-.332M619.629 438.454l.293.12.037.021.001.001.298.172M623.33 431.248l-1.61 2.679-.098.248-.02.312.058.365.135.403.206.426.058.093.004.006.207.333.322.423.362.396.389.355.401.3.397.233.378.158.089.02.006.001.249.055.298-.008.24-.093"/><path d="m621.719 433.927.002-.002.17-.172.239-.093.298-.009.345.076.378.157.397.234.402.3.389.355.363.397.322.424.269.433.206.426.135.403.058.365-.021.312-.098.245-.001.002-.166.168-.006.005M629.824 431.726l-.002.003-.234.226-.264.126-.035.017-.353.054-.393-.036-.419-.125-.427-.21-.42-.286-.396-.351-.358-.403-.306-.439-.241-.459-.168-.461-.088-.446-.005-.412.079-.364.159-.301.002-.002M629.254 428.847l.306.44.241.46M627.381 425.442l-1.428 2.417M627.648 427.596l.428.209.421.286M635.569 424.418l-.002.004-.29.271-.334.176-.019.01-.404.094-.437-.002-.455-.098-.455-.189-.437-.274-.404-.349-.353-.409-.291-.454-.216-.481-.134-.491-.045-.481.044-.453.132-.407.017-.028.197-.318.004-.003M635.562 421.762l.217.482.134.492M632.727 419.986l.437.001.456.098M632.568 418.909l-1.099 1.976M643.078 415.26l-.179.442-.26.377-.003.004-.338.306-.267.147-.012.007-.121.066-.411.115-.035.01-.475.025-.487-.076-.478-.174-.453-.264-.409-.346-.351-.414-.277-.465-.195-.5-.103-.514-.009-.509.086-.485.178-.442.01-.014.252-.368.004-.003.183-.166.006-.006.145-.131.4-.221M642.582 412.785l.278.466.194.5M639.926 411.537l.476-.025M639.248 410.978l-.768 1.593M640.887 411.586l.48.174.453.265M648.004 407.517l-.465-.258-.414-.345-.347-.417-.267-.473-.177-.512-.08-.53.021-.529.12-.507.015-.033.136-.295.011-.023.052-.115.302-.406.004-.003.372-.328.437-.243.481-.147.506-.044.512.061.498.163.465.258.414.345.348.417.267.474.177.512.079.531-.021.529-.12.507-.215.465-.298.402-.004.004-.376.331-.437.243-.481.146-.506.044-.176-.021-.028-.004-.244-.029-.064-.007-.497-.163ZM646.711 402.932l-.313 1.014M656.898 397.995l-.474-.256-.417-.343-.345-.419-.26-.478-.164-.518-.062-.539.042-.538.144-.519.241-.477.329-.419.404-.343.464-.255.505-.158.528-.053.53.054.511.157.474.255.417.344.345.419.26.478.164.518.063.539-.042.539-.145.518-.241.477-.329.419-.404.343-.464.255-.506.157-.527.053-.53-.053-.511-.157ZM666.397 388.254l-.478-.256-.419-.343-.344-.419-.255-.478-.157-.518-.053-.539.054-.539.158-.518.256-.477.345-.419.42-.343.478-.255.52-.157.54-.053.539.054.519.157.478.256.419.344.344.419.255.477.157.519.053.539-.054.538-.158.518-.256.478-.345.418-.42.343-.478.255-.519.157-.54.053-.54-.053-.519-.158ZM676.189 378.619l-.479-.259-.419-.345-.343-.417-.254-.474-.155-.513-.051-.53.056-.529.161-.507.259-.465.348-.406.423-.33.481-.243.522-.145.542-.043.541.061.52.164.479.259.419.345.343.417.254.474.155.512.051.53-.056.529-.161.507-.259.465-.347.406-.423.33-.481.243-.522.146-.542.043-.541-.062-.521-.163ZM689.509 366.155l.103.321.057.179.056.514-.049.509-.152.485-.249.441-.338.381-.412.306-.472.219-.513.124-.534.024-.535-.077-.516-.174-.475-.266-.418-.347-.344-.415-.256-.466-.16-.5-.056-.515.049-.509.153-.484.25-.441.338-.381.412-.306.401-.185.071-.033.513-.124.534-.024.535.077.515.175.475.265.417.347.344.414.256.466ZM686.435 364.436l-.732.163M707.431 352.312l-.104.411-.197.362-.23.244-.052.056-.357.224-.418.142-.463.052-.489-.037-.499-.128-.487-.211-.458-.288-.41-.353-.347-.405-.271-.44-.184-.46-.09-.461.007-.445.105-.411.071-.13.126-.232.283-.299.357-.224.419-.141.462-.052.49.039.498.127.486.212.457.287.41.353.347.404.271.44.184.459.09.461-.007.444ZM703.324 349.279l-1.894 1.009M714.857 346.819l-.155.31-.239.246-.314.171-.3.072-.076.018-.423.006-.456-.079-.469-.16-.466-.236-.444-.302-.405-.357-.35-.398-.282-.424-.203-.433-.117-.426-.016-.259-.009-.143.067-.363.156-.31.24-.244.314-.171.376-.09.423-.005.456.079.468.161.465.235.443.302.405.357.349.397.282.423.203.433.117.425.026.402-.066.363ZM710.597 343.509l-2.355 1.351M721.055 342.627l-.188.185-.261.112-.326.033-.377-.046-.414-.124-.436-.197-.1-.06-.34-.203-.427-.318-.398-.361-.354-.391-.117-.161-.178-.244-.227-.403-.148-.387-.065-.354.022-.31.107-.252.189-.185.262-.111.326-.032.377.047.414.124.435.197.439.263.411.306.015.011.398.361.353.39.296.404.046.082.18.321.148.386.065.355-.021.309-.106.253ZM717.014 338.961l-2.631 1.549M725.993 339.702l-.13.122-.203.048-.27-.027-.325-.102-.002-.001-.003-.001-.039-.018-.006-.003-.318-.149-.397-.236-.41-.291-.409-.336-.391-.365-.358-.383-.311-.385-.252-.371-.184-.345-.108-.304-.029-.252.052-.191.13-.121.204-.048.27.028.325.102.136.064.001.001.231.108.396.236.41.291.408.335.39.365.357.382.192.237.001.002.118.145.252.371.125.234.003.006.056.105.109.304.003.023v.004l.027.225-.051.191Zm0 0-.298.615M722.032 335.991l-2.841 1.673M730.867 339.335l.292-.521-.003-.009-.001-.001M729.025 339.117l.332-.629.034-.063-.008-.128-.084-.194-.081-.131-.005-.007-.07-.114-.223-.301-.28-.339-.327-.363-.361-.374-.382-.37-.388-.351-.379-.321-.093-.072-.001-.001-.262-.203-.318-.222-.269-.159-.209-.09-.142-.018-.001.001"/><path d="m729.391 338.425-.004.003-.055.046-.008.007h-.002l-.139-.016-.209-.09-.269-.158-.318-.222-.228-.178-.128-.099-.311-.263-.068-.058-.355-.321-.002-.002-.032-.029-.383-.37-.362-.375-.327-.364-.163-.196-.001-.002-.117-.141-.222-.301-.156-.253-.083-.193-.008-.127.068-.055v-.001"/><path d="m729.324 338.481-.001.001-.14-.017-.209-.089-.269-.159-.318-.222-.236-.183-.12-.093-.307-.26-.003-.003-.07-.058-.354-.321-.001-.002-.033-.03-.383-.37-.362-.374-.328-.364-.162-.196-.001-.001-.117-.142-.222-.302-.156-.252-.084-.194-.007-.127.064-.052.004-.004.001.001.141.017.209.09M728.312 336.849l.328.363M729.141 337.852l.067.108.004.007.086.138.083.194M725.51 334.667l-1.463.846M729.39 338.426l-.058.049M726.801 335.434l.379.32.388.352M731.158 338.803l-.076-.081-.146-.151-.21-.216-.267-.271-.313-.317-.347-.349-.368-.37-.375-.375-.366-.366-.345-.343-.309-.307-.263-.259-.205-.2-.139-.135-.07-.064M727.358 334.999l-.647.36M660.006 421.054l.133-.286.008-.018.093-.2.324-.434.004-.005.409-.358.475-.263.522-.158.549-.046.556.066.541.178.504.28.45.374.376.452.29.514.191.554.086.575-.024.573-.131.548-.234.504-.328.439-.005.004-.405.353-.475.263-.522.157-.549.046-.188-.022-.03-.004-.338-.04-.54-.178-.504-.28-.449-.374-.376-.452-.29-.512-.191-.555-.086-.574.023-.573.131-.548Zm0 0 .007-.023M662.289 425.101l.068.018M651.394 430.368l.283-.408.003-.004.164-.148.008-.006.196-.177.434-.237.485-.134.517-.026.529.083.521.189.492.288.443.375.38.449.3.505.21.541.112.556.008.551-.095.525-.194.477-.288.411-.004.004-.363.326-.267.145-.013.007-.155.085-.485.133-.516.026-.529-.084-.52-.189-.49-.287-.445-.376-.378-.448-.301-.504-.211-.54-.11-.556-.01-.551.096-.524.193-.477Zm0 0 .003-.007M654.613 434.877l.033-.002M643.753 439.323l.232-.368.002-.004.316-.292.364-.189.007-.004.013-.007.439-.1.475.004.495.107.494.206.476.298.438.378.383.444.315.492.234.522.143.53.048.52-.05.489-.145.439-.156.246-.005.008-.075.118-.003.003-.312.288-.385.199-.438.1-.476-.005-.169-.036-.325-.071-.229-.096-.265-.111-.474-.297-.438-.378-.383-.443-.314-.491-.234-.521-.143-.53-.049-.52.049-.488.145-.44Zm0 0 .009-.017M647.496 443.65l.016-.004M637.726 446.815l.255-.243.326-.153.384-.057.343.033.007.001.078.007.455.138.465.228.456.312.431.381.388.437.33.476.261.497.181.498.072.371.021.109.002.239v.009l.001.196-.049.219-.039.172-.175.322-.003.003-.252.239-.327.152-.384.056-.045-.004-.382-.037-.455-.138-.118-.058-.346-.171-.455-.311-.43-.38-.388-.437-.042-.061-.288-.414-.062-.117-.199-.379-.18-.497-.094-.48-.004-.444.087-.391.172-.32.002-.003Zm0 0 1.518-2.606.016-.027M641.34 451.401l.041-.015M633.092 453.303l.189-.185.261-.097.325-.006.375.085.411.173.431.254.436.326.178.163.244.223.321.351.072.078.348.458.291.467.221.46.144.434.061.392-.025.334-.108.265-.002.001-.187.182-.262.097-.325.006-.259-.059-.006-.002-.11-.025-.41-.173-.431-.255-.435-.325-.421-.385-.392-.429-.017-.022-.331-.435-.262-.42-.005-.007-.024-.039-.006-.013-.215-.446-.145-.434-.061-.392.023-.335.089-.217.018-.045.001-.003Zm0 0 .805-1.351.928-1.557M637.078 457.66l.003-.001M630.202 458.229l.001-.001.117-.12.193-.036.261.049.241.101.007.003h.001l.071.03.364.212.397.284.413.343.413.389.398.422.367.437.041.056.002.002.279.377.265.417.197.383.122.334.014.089v.001l.029.181-.013.066-.001.002-.025.132-.002.002-.081.081v.001l-.036.036-.194.035-.261-.05-.32-.134-.364-.213-.381-.272-.002-.001-.013-.01-.168-.14-.244-.202-.413-.389-.397-.421-.23-.273-.001-.002-.135-.161-.322-.434-.265-.417-.098-.19v-.001l-.099-.191-.123-.334-.043-.273.034-.181.004-.017v-.002Zm0 0 .195-.327 1.052-1.77.609-1.023M634.238 462.502l.003-.002M629.125 461.461l.003-.004.043-.049.124.029.197.109.262.185.318.255.205.179.001.001.154.133.39.361.404.395.403.412.386.415.354.401.309.372.251.328.185.273.111.205.032.131-.047.052-.124-.029-.197-.11-.263-.186-.317-.254-.36-.314-.389-.36-.404-.394-.402-.412-.385-.413-.354-.401-.045-.055-.001-.001-.262-.315-.252-.329-.185-.272-.111-.206-.033-.131-.001-.001Zm0 0 1.302-2.231M633.211 465.645l.003-.002"/><path d="m629.966 462.717-.126.226.055.095.133.17.206.239.27.297.326.345.367.38.395.399.407.403.405.393.386.366.352.325.305.272.246.21.178.137.103.061.008-.004 1.387-.775.003-.001.155-.087M635.371 466.256l.016.011.354.216M716.937 372.266l-.033.522-.119.41-.024.081-.246.442-.34.376-.421.294-.486.202-.533.102-.559-.003-.562-.106-.546-.206-.507-.298-.45-.379-.374-.445-.285-.494-.184-.524-.077-.533.034-.522.143-.492.246-.442.303-.333.038-.042.422-.293.486-.202.533-.101.558.003.562.106.545.207.507.298.449.378.374.445.284.493.185.523.077.533Zm0 0-.048 1.651M712.377 369.583l-1.65.709"/><path d="m633.977 467.035 1.394-.779.003-.001.155-.087M633.257 465.594v.001l-.044.048-.003.004-.124-.029-.198-.11-.262-.186-.317-.254-.36-.314-.39-.36-.403-.394-.402-.412-.385-.413-.354-.401-.046-.055-.001-.002-.261-.314-.252-.329-.185-.272-.112-.206-.033-.132.001-.001M631.629 463.47l.386.415.354.401M632.676 464.657l.251.328M629.293 461.439l.197.109M633.211 465.646l.85-.451.002-.002.598-.317.585-.311M630.07 461.988l.205.178.002.001.154.135.39.361M634.352 462.384v.002l-.08.08v.001l-.034.033-.005.006-.194.035-.261-.05-.319-.134-.365-.213-.381-.273-.002-.001-.013-.009-.159-.132-.253-.211-.412-.389-.397-.42-.23-.274-.001-.001-.136-.161-.322-.435-.264-.416-.099-.191-.099-.192-.123-.334-.043-.272.035-.186.003-.015.002-.001M632.266 459.098l.413.39.398.421.367.437M634.234 462.507l.052-.026h.001l.223-.11.002-.001.15-.074.001-.001.683-.336h.001l.109-.054.003-.001.948-.467M637.265 457.479l-.002.003-.182.178-.007.006-.262.097-.324.006-.25-.057-.006-.002-.119-.027-.411-.173-.431-.255-.434-.325-.422-.385-.392-.429-.019-.025-.329-.432-.268-.431-.004-.007-.018-.028-.007-.016-.215-.443-.144-.434-.062-.392.024-.335.09-.221.018-.044.002-.002M633.539 453.026h.02l.304-.006.375.085.411.173.432.254.435.326.176.161.246.225.32.349.073.08.349.458M637.191 456.058l.144.434.061.392M634.822 450.393l-.928 1.559-.808 1.356M637.074 457.665l3.138-1.38M641.917 451.009l-.002.004-.255.241-.281.131-.045.021-.385.057-.048-.005-.379-.037-.455-.138-.12-.059-.344-.17-.455-.31-.43-.381-.387-.437-.045-.063-.286-.412-.063-.119-.197-.377-.181-.497-.094-.48-.004-.444.087-.391.175-.323.002-.003M640.922 447.468l.235.265.153.172.331.477.26.496M642.082 449.375l.072.369.021.111.002.231v.008l.001.206-.048.215M639.259 444.184l-1.536 2.637M637.977 446.577l.325-.152.385-.057.349.033M641.336 451.407l2.805-1.023M639.57 446.547l.465.229.456.311.341.302M648.191 443.163l-.003.004-.316.291-.362.188-.022.012-.438.099-.476-.004-.172-.038-.322-.07-.231-.096-.263-.11-.475-.298-.437-.378-.383-.443-.315-.491-.233-.521-.144-.53-.048-.519.049-.489.145-.439.015-.025.219-.348.004-.003M647.059 438.982l.438.378.383.443.315.492M648.58 441.458l.037.409-.006.061-.043.428-.146.439M644.297 438.666l.37-.192.007-.004.007-.003.438-.101.476.004M644.924 437.169l-1.178 2.162M647.488 443.659l2.493-.642M646.09 438.478l.494.207M656.182 433.775l-.284.407-.003.004-.368.331-.252.137-.014.007-.169.092-.444.123-.04.011-.517.025-.528-.083-.52-.19-.491-.287-.444-.375-.379-.448-.301-.504-.21-.541-.111-.556-.009-.551.095-.524.194-.477.01-.015.276-.397.004-.004.167-.15.007-.006M654.527 429.508l.491.288.445.376.379.448.301.505M656.47 432.773l-.095.524M652.473 429.396l.485-.134M652.204 428.625l-.817 1.75M654.609 434.887l1.947-.166M665.12 423.913l-.325.434-.004.005-.409.357-.475.263-.522.157-.549.046-.157-.019-.031-.003-.292-.035-.076-.01-.54-.177-.504-.28-.449-.374-.377-.452-.289-.513-.191-.554-.086-.574.023-.573.131-.548.015-.032.126-.272.009-.019.084-.181.328-.439.004-.004M665.426 421.713l.085.575-.023.573M661.445 419.499l.523-.158.549-.046.556.066M660.321 419.939l-.321 1.124M662.281 425.108l1.122.298M664.117 419.819l.45.374.376.452M671.406 414.632l-.514-.277-.452-.373-.374-.454-.281-.518-.178-.561-.068-.584.046-.584.157-.562.262-.517.357-.453.439-.372.503-.276.549-.17.573-.057.574.058.555.17.514.278.453.372.374.454.281.518.178.562.067.584-.045.584-.157.562-.263.517-.357.453-.439.372-.503.276-.549.17-.573.057-.574-.058-.555-.171ZM681.713 404.079l-.518-.277-.455-.373-.372-.454-.277-.518-.17-.562-.058-.585.059-.584.171-.562.278-.518.374-.454.201-.165.254-.207.519-.277.563-.17.585-.057.586.058.504.153.059.018.518.277.454.373.373.454.277.518.17.562.057.585-.058.584-.172.562-.277.518-.374.454-.455.372-.519.276-.563.171-.586.057-.585-.058-.563-.171ZM692.33 393.625l-.519-.28-.455-.374-.372-.453-.276-.514-.169-.556-.055-.576.053-.504.008-.07.173-.55.281-.505.376-.44.458-.359.521-.264.565-.159.588-.046.363.041.223.025.564.177.519.28.454.374.372.453.276.514.169.555.055.576-.06.574-.174.55-.28.505-.376.44-.458.36-.521.264-.565.158-.588.047-.586-.066-.564-.177ZM706.738 380.079l.132.41.042.132.062.558-.052.553-.163.526-.27.48-.365.414-.446.333-.51.238-.555.136-.578.027-.579-.082-.558-.189-.516-.288-.453-.376-.372-.45-.279-.506-.173-.543-.062-.558.001-.016v-.002l.051-.535.164-.527.022-.039.248-.44.365-.414.24-.179.005-.003.003-.002.03-.023.007-.005.161-.12.485-.226.026-.012.555-.135.578-.027.578.083.558.188.515.288.452.376.373.449.278.506Zm0 0 .353.812M703.407 378.217l-.817.158M726.062 364.997l-.11.447-.211.394-.272.292-.032.034-.384.245-.45.155-.5.059-.529-.04-.538-.136-.527-.229-.495-.311-.445-.383-.376-.438-.295-.478-.2-.5-.1-.501.006-.483.111-.447.092-.17.12-.224.304-.326.385-.244.45-.155.5-.058.528.041.538.136.526.229.495.311.444.382.376.438.294.478.201.498.098.492.001.008-.005.484Zm0 0-.041.179-.47 2.053M721.617 361.713l-2.074 1.079M734.041 358.996l-.165.338-.256.268-.336.187-.172.042-.177.044-.055.014-.457.008-.491-.084-.506-.172-.503-.254-.48-.327-.439-.387-.379-.431-.307-.46-.222-.47-.128-.463-.021-.301-.009-.136.069-.395.167-.338.256-.267.337-.187.405-.099.456-.008.491.085.506.172.502.255.479.326.001.001.418.369.019.016.379.431.306.459.222.469.129.462.025.364.004.073-.068.396Zm0 0-.364 1.046M729.426 355.412l-2.567 1.454M740.664 354.401l-.199.203-.28.124-.349.038-.405-.048-.446-.133-.469-.212-.162-.096-.313-.187-.012-.009-.45-.335-.133-.122-.298-.269-.383-.424-.128-.175-.193-.264-.247-.438-.163-.42-.073-.386.02-.337.113-.275.2-.202.005-.003.276-.12.349-.037.286.034.12.014.445.134.469.212.474.283.212.159.155.115.093.07.43.39.032.035.351.387.321.439.076.134.171.303.163.42.074.385-.02.338-.112.275Zm0 0-1.323 3.065M736.292 350.435l-2.862 1.669M745.914 351.176l-.138.134-.216.055-.287-.027-.349-.108-.117-.055-.007-.003-.183-.086-.003-.001-.085-.04-.427-.254-.443-.315-.442-.362-.422-.396-.388-.414-.337-.417-.276-.404-.151-.28-.051-.095-.121-.331-.033-.275.052-.208.137-.134.217-.054.287.028.051.016.298.093.043.02.352.165.427.255.443.314.44.361.422.395.386.414.03.036v.001l.308.379.274.403.202.374.003.006.002.005.117.321.014.102v.004l.021.169-.05.209Zm0 0-.263.534-.002.004-.068.141v.001l-.138.282-.002.002"/><path d="m741.628 347.16-1.052.616-2.033 1.191M751.23 352.388l.146-.251M750.34 351.787l.028-.049.001-.002.42-.748.001-.002.502-.894.001-.007M748.909 350.823l.143-.27.001-.002.434-.818-.013-.14-.082-.184-.002-.005-.01-.023-.173-.275-.243-.328-.305-.368-.355-.393-.392-.405-.413-.4-.418-.38-.409-.345-.171-.134-.001-.001-.21-.163-.341-.239-.287-.17-.223-.095-.149-.017-.001.001"/><path d="m749.489 349.733-.004.004-.064.06-.002-.001-.147-.015-.222-.095-.287-.169-.341-.239-.382-.297-.409-.346-.251-.228-.168-.153-.133-.128-.001-.002-.28-.271-.393-.405-.355-.395-.254-.306-.001-.001-.051-.061-.243-.328-.172-.275-.094-.211-.012-.14.069-.062v-.001"/><path d="m749.486 349.733-.068.063-.001.001-.148-.016-.222-.094-.287-.17-.341-.238-.383-.298-.408-.346-.247-.224-.003-.002-.17-.155-.132-.127-.001-.002-.281-.271-.392-.406-.356-.394-.253-.305-.001-.002-.051-.061-.244-.328-.171-.275-.094-.212-.013-.139.067-.06.003-.003h.002l.147.016.222.096M746.672 346.487l.408.346.419.38.413.4.391.404.355.394.305.368M745.287 345.669l-2.168 1.25-.596.344M751.294 350.085l-.078-.086-.155-.161-.224-.231-.285-.292-.336-.341-.374-.377-.397-.399-.405-.406-.397-.396-.374-.372-.337-.333-.286-.281-.224-.219-.156-.148-.078-.072M747.186 345.971l-.686.382M751.376 352.133l-.008-.153-.085-.226-.161-.29-.23-.343-.103-.135M1017.13 766.267l5.39 8.427 5.38 8.427 5.38 8.428 3.01 4.702 5.38 8.427 5.39 8.427 5.38 8.427 5.38 8.427 5.39 8.427 5.38 8.428 2.34 3.66 7.18 6.956 7.19 6.957 7.18 6.956 5.75 5.562.57.554 5.1 4.94.56.545 4.3 4.158.32.316 2.97 2.874.06.052 7.18 6.956 4.41 4.268 3.18 3.082 7.19 6.956 2.75 2.668 7.27 6.871 7.27 6.875 7.26 6.871 7.24 6.848 7.27 6.871 7.21 6.821 7.26 6.871 7.19 6.795 7.27-6.867.52-.491.29-3.438-6.46-7.637-6.45-7.638-5.46-6.454-6.37-7.705-6.38-7.705-5.4-6.531-.48-.568-.89-1.071-6.43-7.662-2.37-2.832-1.61-1.92-3.06-3.647-1.55-1.847-1.63-1.942-2.1-2.875-.29-.403-5.89-8.08-.64-.873-.28-.385-1.4-1.918v-.004l-2.33-3.188v-.007l-4.41-6.043-.63-1.748-1.02-2.798-.87-2.41-.19-.517-3.41-9.399-1.33-3.66-.37-.338-.34-.302-7.4-6.72-7.41-6.721-7.4-6.72-7.41-6.721-7.4-6.72-7.41-6.72-7.4-6.721-7.41-6.72-7.4-6.721-7.41-6.72-7.4-6.721-7.41-6.72-7.4-6.721-2-1.815-7.16 6.984-.28.27Z"/><path d="m1024.57 759.013 5.41 8.406 5.42 8.405 5.42 8.406 3.02 4.685 5.41 8.405 5.42 8.406 5.42 8.405 5.42 8.406 5.41 8.405 5.42 8.406 2.35 3.643"/><path d="m1070.93 850.473 7.2-6.941.56-.542 7.18 6.958 7.18 6.959 7.19 6.958 4.59 4.455.42.401 7.18 6.959 2.9 2.809.84.811 1.47 1.428.34.324 4.77 4.626v.003l3.15 3.049v.003l7.19 6.958 2.57 2.498.49.467 7.18 6.959 1.27 1.236 2.58 2.436 7.26 6.875 4.7 4.451 7.26 6.875 7.25 6.86 7.26 6.875 7.22 6.834 7.26 6.875 7.19 6.806M1195.96 878.167l6.85 5.743 6.89-6.551.23-2.687-6.91-7.232-5.69-5.958-2.2-2.306M1550.96 449.053l6.39 2.355 9.69 2.46 9.79 2.483 4.07 1.004 9.89 1.464 9.9 1.464.8.119 3.89.232 9.99.463 9.99.464 1.4.065 9.99-.522 9.98-.522 1.41-.074 9.89-1.499 9.89-1.499 1.41-.214 4.36-.96 9.69-2.458 9.7-2.457 1.81-.461 9.41-3.384 9.42-3.383 1.75-.63 9.03-4.282 9.04-4.281 1.66-.787 8.58-5.141 8.57-5.141 1.55-.928 4.34-2.883 8.04-5.954 8.03-5.953 1.62-1.204 7.42-6.713 7.41-6.712 1.43-1.297 6.71-7.413 6.71-7.414 1.23-1.359 5.94-8.046 5.94-8.046 1.02-1.393 3.31-4.862 5.1-8.606 5.09-8.606.84-1.42 4.18-9.083 4.18-9.083.62-1.351 3.22-9.469 3.21-9.469.43-1.264 1.74-6.087 2.19-9.756 2.19-9.757.21-.942 1.13-9.937 1.12-9.936.09-.773.26-6.669.02-10 .02-10.149-1.13-9.936-1.12-9.897-.86-6.475-2.3-9.732-2.09-8.836-1.03-3.851M1850.37 172.668l-.68-2.545-3.33-8.887M1846.31 161.109l-2.51-6.695-.42-1.135-1.27-3.367-.55-1.458M1841.56 148.439l-.43-1.126-3.01-6.415-4.8-8.773-2.59-4.729M1824.08 116.127l-4.14-5.945-4.63-6.072-5.07-6.135M1734.8 40.26l-5.87-2.762-6.81-2.907-6.34-2.193-8.16-2.554-.03-.01-8.85-2.77-6.81-1.708-9.83-1.82-8.92-1.652-6.9-.936-9.98-.708-10.01-.71-6.63.074-9.99.372-9.99.371-.76.028-9.9 1.407-9.9 1.408-.9.127-6.31 1.354-9.71 2.412-9.7 2.411-1.28.317-9.42 3.37-9.41 3.367-1.32.473-9.04 4.287-9.03 4.287-1.35.64-5.35 2.831-8.57 5.152-8.57 5.152-1.34.804-8.03 5.965-8.02 5.964-1.27.94-7.41 6.718-7.4 6.717-1.18 1.068-6.72 7.407-6.72 7.407-1.07 1.184-3.49 3.944-5.96 8.027-5.97 8.027-.81 1.091-5.15 8.573-5.14 8.573-.68 1.132-4.28 9.038-4.28 9.038-.55 1.163-3.37 9.416-3.37 9.417-.42 1.185-1.46 4.193-2.4 9.706-2.41 9.706-.2.824-1.42 9.899-.44 3.076-1.09 7.635-.14 3.305-.41 9.992-.3 7.497-.05 3.977.63 9.981.62 9.98.02.317 1.66 9.862 1.65 9.862.06.34.78 3.684 2.69 9.632 2.63 9.41 1.34 3.654.25.634"/><path d="m1843.8 154.414 1.1-9.131-.31-9.968-3.6-9.328-2.21-5.719-4.92-8.707-3.29-5.833-5.91-8.066-5.92-8.066-.14-.19-6.68-7.44-6.19-6.886-7.43-6.692-7.43-6.692-1.48-1.335-7.98-6.025-7.89-5.952-8.57-5.148-8.57-5.148-.34-.202-9.07-4.207-7.76-3.595-9.88-1.534-.41-.063-10-.205-2.04-.042-9.29 1.593"/><path d="m1733.74 48.028-2.95-4.362-3.75-2.365-2.18-1.81"/><path d="m1777.66 71.725-1.53-.248-.01.007-2.02.838-3.37-.428-2.7-1.675-.01-.005-1.68-1.038-2.81-2.256-4.71-1.932-6.3-3.68-3.23-1.478-6.51-4.4-2.22-1.502-5.53-4.215-.98-1.399-.31-.286-3.53-3.245M1775.4 79.513l1.09-.459 1.62-.684 2.04.323 1.01-1.425 1.03-1.73M1712.83 38.206l4.96 3.138-.79 1.483M1730.21 44.783l.58-1.117M1719.41 35.669l9.27 2.745 3.23.958 2.89.888.6.184 5.51 1.883 4.34 1.548 5.18 2.785 5.72 3.194 5.58 3.433 5.07 3.552 4.25 3.449 3.79 3.559 1.21 1.229 1.7 1.732 1.47 2.572-.53.866-.11.176-.15.245-.76 1.058"/><path d="m1782.19 75.539-1.83-3.781-1.15-2.377M1719.41 35.669l-1.81.139-2.96.486M1776.14 71.478l-8.12-1.263M1847.05 200.495l1.28.132 2.27 1.86M1822.74 167.636l1.19 1.745.51.668M1829.97 126.288l-3.24-5.215-3.96-5.596M1815.38 155.615l4.75-6.335.33-1.092-4.63 5.928M1815.38 155.615l3.96 7.003M1808.57 134.251l-.88 2.14 1.59 4.868 3.86 7.293M1831.25 179.705l1.79 2.534.12.199.85 1.332 3.83 6.011 2.66 4.183M1846.36 161.236l-.01-.004-.04-.123-2.41-6.429-.1-.258-1.69-4.508-.55-1.46-.01-.015M1798.81 121.146l2.81 3.143 3.7 4.147M1854.88 191.702l-.97-4.16-1.36-5.776-1.47-6.182-.71-2.914v-.002M1810.66 102.155l-3.62-2.59-1.35.575-2.51-.36-2.01-.71-1.59-.268-1.56 1.717-.95 2.322-.02.044-.11 2.367 1.2 1.256.6 4.085.55 2.534.52 2.354-.09 3.581"/><path d="m1798.14 106.508.59.434 8.05 5.931.25.177.46.344-.88-.919M1806.61 112.474l-8.08-6.035-1.59-1.188M1854.75 193.805l-.1-2.72-.01-.271M1849.63 186.333l-.78-2.044-.89-2.339M1816.92 108.617l-3.79-3.876M1814.73 123.614l-.59-.841-5.78-8.16-.87-1.219M1834.67 165.439l-1.86-2.94-.06-.098-.49-.773-.89-1.277-2.21-3.142-1.2-1.716-.26-.336-2.3-3.391-1.98-3.507.23-.749-1.35-2.784-1.93-3.651-.8-2.438.43-1.073-1.63-2.915-1.85-2.077-1.41-1.573.45-1.052.03-1.805-.55-2.465-.31-2.064M1814.14 122.773l.03-.994.47-1.211.77-.887.79.126 1.01.343 1.25.157M1820.95 121.285l1.24 1.303 1.91 1.945M1418.66 310.374l-.12 8.96-.14 9.999-.12 9.288.25 3.824.81 4.277 1.35 4.701 1.89 5.088 2.32 5.226 1.96 3.424 3.26 5.061 4.27 6.268 4.43 6.073 4.74 5.966 5.44 6.405 5.08 5.627 6.14 6.302 5.43 5.23 6.42 5.776 5.77 4.859 6.62 5.159 6.51 4.748 5.74 3.81 6.32 3.883 5.55 3.132 3.34 1.665 4.58 1.722 4.98 1.479 4.56.929 4.09.378 10-.278 10-.278.83-.024 7.4-.206"/><path d="m1418.28 338.621.4-2.984 1.67-.142 1.84-.608 2.05-1.308.02-.018.4-.257 3.09-.883 3.01-.57 3.37-.059 3.71.445 4 .947 5.74 2.442 5.25 2.89 4.68 3.591 4.68 3.698 5.54 4.517 6.66 5.667 4.82 4.252 4.8 4.31 5.34 4.911 7.04 6.708 4.66 4.602 4.62 4.64 4.79 4.906 6.56 6.991 4.37 4.841 4.15 4.709 4.06 4.732 3.4 5.937 2.62 5.449 1.38 4.244.87 3.982.35 3.674-.09 3.451-.42 3.523-.89 1.958v.01l-.34.756.53 2.302-.19 1.876-3.09.71-3.6.17M1566.22 415.307l-3.21-6.875M1430.53 302.09l-3.87 1.226M1568.36 439.08l.64-4.429M1462.11 309.158l-6.63-3.549M1489.32 330.936l-7.64-6.445-.77-.641M1517.08 356.274l-7.25-6.889-1.63-1.547-6.74-6.168M1657 437.2l.23-1.075-.93-3.052-1.34-2.984-.65-.812-1.09-.923-2.56-3.076-2.89-2.904-2-.721-.68-.662M1636.71 419.75l1.19 1.897 1.51 2.41 1.59 2.55.54.518 1.57.564 2.28 2.272 2.01 2.409.86.723.51.635 1.06 2.34.75 2.394-.18.843-.53.726-.26 2.132-.36 2.073.28.838.03.14.24 1.407.22 1.303"/><path d="m1596.27 446.188-.81-1.86-1.92-1.891-1.49-2.167-1-2.073-.55-2.286-.47-2.333-1-2.073.67-2.517 1.68-1.624 1.61-2.304 2.01-2.094 2.4-1.861.97-.759 2.48-.555 3.35-1.113 3.54-.898 3.78-.571 3.12-.508 1.99-.603 3.8.161 4 .654 4 .965 3.98 1.265 3.45.822.85-.214 2.92-7.531M1655.97 440.839l.35-2.714M1593.91 412.308l-3.15.714M1655.86 444.543l-.35-1.066M1623.96 408.597l-5.1-.834M1643.66 452.299l3.83-1.258M1611.52 454.315l1.84.508 4.88.377 4.96.214 4.99.05 4.99-.116.82-.322 1.4-.603 4.21-.993M1643.06 417.731l-1.92-3.083M1582.86 438.442l1.91 2.754 2.44 2.4 1.05 2.362M434.032 805.049l-.389-.694-.282-.459-.055-.089-.742-1.208-1.245-1.857-1.451-1.987-2.442-3.289-1.107-1.463-1.03-1.376-1.311-1.551-1.254-1.49-1.465-1.58-1.431-1.546-1.562-1.552-1.555-1.544-1.602-1.465-1.622-1.483-1.58-1.325-1.627-1.366-1.499-1.135-1.573-1.197-4.665-3.221-2.054-1.418-1.968-1.27-1.578-.919-.154-.09-.085-.049-.727-.381M328.406 976.598l.942.059 3.011.004 9.991-.418.555-.023 9.896-1.438.6-.088 2.871-.632 9.7-2.431.783-.196 9.412-3.378.785-.283 9.033-4.291.78-.371 2.464-1.41 8.569-5.155.788-.475 8.027-5.965.736-.547 7.408-6.717.677-.615 6.718-7.408.611-.673 1.657-2.089 5.962-8.028.491-.66 5.144-8.575.408-.681 4.272-9.042.328-.694 3.353-9.421.25-.702.711-2.343 2.39-9.71.132-.537 1.39-9.903.072-.519.37-9.993.019-.506.009-2.279-.675-9.978-.017-.242-1.724-9.85-.041-.235-.416-2.115-1.213-4.188M294.348 970.371l.116.034M368.233 756.833l-3.948-1.042-2.267-.487-9.884-1.523-.383-.059-9.988-.5-.41-.02-2.463-.096-9.987.503-.704.035-9.888 1.492-.716.108-2.377.525-9.693 2.459-.903.23-9.408 3.392-.879.317-9.031 4.293-.845.401-8.571 5.152-.802.482-2.239 1.431-8.029 5.961-.816.606-7.41 6.716-.731.663-6.715 7.41-.642.709-5.951 8.036-.551.744-1.609 2.293-5.12 8.59-.444.745-4.228 9.061-.343.734-3.284 9.445-.248.714-.793 2.815-2.292 9.734-.132.56-1.254 9.921-.063.504-.079 3.073-.191 9.999-.004.216.912 9.958.013.147.456 2.989 1.977 9.54.856 2.975.621 1.857"/><path d="m433.309 803.807 1.619 1.774 5.361 5.92 3.73 4.476 2.225 2.781 1.234 1.725.138.574-1.039-.656-2.264-1.939-2.941-.834-1.087-.627-3.737-2.151-6.565-5.785-6.488-6.122-7.284-6.849-.466-.438-7.046-6.854-7.133-7.008-.592-.582-6.649-6.665-6.317-6.555-5.009-5.763-.094-.541-.483-2.755-1.754-2.477-1.172-1.451.127-.275 1.353.832 2.483 1.842 3.506 2.742 6.355 5.164 3.626 3.255M379.621 754.73l-9.834 1.817-1.553.286M438.346 809.812l-4.983-5.916M380.594 781.124l1.744 2.177 1.064 2.264.553 2.462.493 1.965-.446 1.884-1.851 1.395-1.658 1.185-1.254.135-2.243 1.058-2.705.328-2.378-1.233-1.229-1.196-2.601-.81-3.01-1.869-1.592-.733-2.525-2.536-.752-.925-1.58-2.697.151-1.032-.443-2.528 1.089-.983-.812-1.735.013-1.489M353 773.42l-.023 1.978 1.075 2.307M377.449 799.302l2.988-1.414M382.105 797.706l2.206-1.582M386.773 794.263l.589-2.509-.659-2.615-.738-3.276M356.074 788.577l3.363 3.381M369.155 772.335l-4.475-.803-3.216-.224-1.773.542-3.23 1.195M361.559 792.935l4.011 2.491 3.467 1.08 1.638 1.594M373.402 775.901l2.124 1.629M420.395 857.856l.553-1.825 1.761-.29M393.906 847.268l.34.287 1.757 1.406 3.217 2.576 1.307 1.047.799.605 3.139 2.375 2.188 1.656 2.962 1.486 3.199 1 .705-.935 1.757-.449 2.901.105M386.336 833.631l1.837 3.61 1.199 2.794-.658.945"/><path d="m388.711 840.98 3.783-3.81.48-.69-3.605 3.555M424.784 824.157l-2.378-3.394M428.725 832.005l-.945-3.41-1.663-2.884M385.208 816.541l-.598 2.968-1.161 2.318-1.402 1.497 1.566 1.453 2.068 1.918 1.368 2.971M424.434 856.793l1.507.92.597-2.331.532-2.719 1.377-2.319 1.08-2.014.49.271.401-2.483M392.159 807.969l-1.44.195-2.275 1.606-1.977 1.922-1.135 1.711.623.604"/><path d="m385.955 814.006 4.512 3.445-.456-.442-4.679-3.607M402.272 806.784l-3.05-.658-2.183 1.045M404.845 842.651l-1.577-1.2-.402-.305-.656-.528-1.615-1.297-.881-.709-.171-.144-1.453-1.517-1.152-1.642.329-.474-.602-1.402-.923-1.813-.21-1.291.566-.699-.688-1.493-1.038-.963-.786-.73.7-.753.58-1.167.296-1.494.372-1.277-.313-.304.567-.864.99-.972 1.142-.815.724-.1 1.011-.084 1.443-.328M403.734 818.079l.887.514 1.717.586M226.755 900.642l-.352 9.993-.145 4.105.104.739.314.967.519 1.188 1.098 2.071 1.268 2.09 1.376 2.245 1.467 2.253 1.859 2.672 2.438 3.228 1.895 2.347 1.955 2.341 2.273 2.615 3.204 3.466 2.262 2.309 2.313 2.296 2.484 2.389 3.642 3.305 2.595 2.219 2.566 2.121 2.625 2.09 2.905 2.433 2.678 2.125 2 1.557 1.848 1.388 1.678 1.202 1.579 1.039 1.744.945 1.298.563 1.82.508 1.587.24 9.997-.266 2.403-.064"/><path d="m281.746 961.958-2.99-2.387-.352-.281-3.631-3.056M290.575 968.466l-1.958-1.304M294.328 970.357l-1.598-.706M230.921 908.741l-1.59-2.601-1.378-2.569M236.821 917.698l-2.333-3.341M251.59 935.234l-4.022-4.346-1.692-1.945-1.161-1.334M309.027 967.368l1.171.697 1.49.885 1.578.939.425.192.991.191 1.981.778 1.903.826.7.247.545.197 1.587.731 1.451.753.282.27.106.212.855.507.156.093.931.587.609.23.109.03 1.1.309 1.021.286M290.508 966.895l3.041 2.924.888.569.028.018.256.164 1.247.742.084.049 1.167.686 1.427.651 1.633.716 1.756.615 1.403.522 1.611.37 2.166.48 2.04.43 2.002.339 2.204.372 1.671.282.992.094 1.947.142 1.858.126 1.751.108 1.629.09 3.679-.616"/><path d="m293.548 969.818-.719-.814.023-.468-.056-.21-.14-.52.026-.632.247-.528.1-.216.83-.109 1.02-.284 1.156-.195 1.208-.055.132-.006 1.093-.065.698-.178 1.713.149 1.939.336 2.036.453 2.113.565 1.752.386.309-.059 1.202-3.623M296.759 961.64l-.977.06-.417.025-1.708.08-1.473.252-1.298.364-1.057.141-.126.276-.312.677M330.782 974.098l-1.18-.748-1.282-.767M334.602 975.578l-.219-.388M326.078 976.831l.185-.013.401-.029.323-.022.238-.017.971-.118.21-.034 6.194-1.02M299.834 961.601l-2.186-.19"/><path d="m323.508 977.288 1.03-.139 2.126-.36M304.906 962.608l-2.597-.578M319.962 968.451l-2.524-.994-1.263-.244-.542-.245-2.011-1.199-1.898-1.132-1.494-.892M1382.1 284.055l-7.18-6.966-7.17-6.965-7.18-6.965-3.83-3.715-6.96 7.175-6.97 7.175-6.96 7.176-3.72 3.827 7.18 6.966 7.17 6.965 7.18 6.965 3.83 3.715 6.96-7.175 6.97-7.176 6.96-7.175 3.72-3.827ZM1349.7 252.163l-7.17-6.965-7.18-6.966-.8-.781-6.97 7.176-6.96 7.175-.78.805 7.17 6.965 7.18 6.965.8.781 6.97-7.175 6.96-7.176.78-.804ZM1368.68 237.424l-7.18-6.965-3.19-3.099-6.97 7.176-3.09 3.192 7.17 6.965 3.19 3.098 6.97-7.175 3.1-3.192ZM-286.852-240.537l6.982 7.159 6.982 7.159 6.982 7.159 6.983 7.159 6.982 7.159 6.982 7.159 6.982 7.159 6.982 7.159 6.982 7.159 6.982 7.158 6.982 7.159 6.982 7.159 6.983 7.159 6.982 7.159 6.982 7.159 6.982 7.159 6.982 7.159 6.982 7.159 6.982 7.159 6.982 7.159 6.982 7.159 6.983 7.158 6.982 7.159 6.982 7.159 6.982 7.159 6.982 7.159 6.982 7.159 6.982 7.159 6.982 7.159 6.983 7.159 6.983 7.159 6.981 7.159 6.982 7.159 6.982 7.159 6.982 7.158 6.982 7.159 6.983 7.159 6.981 7.159 6.982 7.159 6.983 7.159 6.982 7.159 6.982 7.159 6.982 7.159 6.982 7.159 6.982 7.159 6.982 7.158 6.982 7.159 6.983 7.159 6.982 7.159 6.983 7.159 6.982 7.159 6.981 7.159 6.982 7.159 6.982 7.159 6.982 7.159 6.982 7.159 6.983 7.159 6.982 7.159 8.715 8.935 7.071-7.071 3.404-3.404-7.159-6.982-7.159-6.982-7.159-6.982-7.159-6.982-7.159-6.982-7.158-6.983-7.159-6.982-7.158-6.982-7.16-6.982-7.159-6.982-7.159-6.982-7.159-6.982-7.159-6.982-7.159-6.982-7.159-6.983-7.159-6.982-7.158-6.982-7.159-6.982-7.159-6.982-7.159-6.982-7.159-6.982-7.159-6.982-7.159-6.983-7.159-6.982-7.159-6.982-7.159-6.982-7.159-6.982-7.159-6.982-7.159-6.982-7.157-6.982-7.16-6.982-7.159-6.982-7.159-6.983-7.159-6.982-7.159-6.982-7.159-6.982-7.159-6.982-7.159-6.982-7.159-6.982-7.159-6.982-7.159-6.983-7.158-6.982-7.159-6.982-7.159-6.982-7.159-6.982-7.159-6.982-7.159-6.982-7.159-6.982-7.159-6.982-7.159-6.983-7.159-6.982-7.159-6.982-7.158-6.982-7.159-6.982-7.159-6.982-7.159-6.982-7.159-6.982-7.159-6.983-8.936-8.715ZM-300.062-83.03l6.982 7.159 6.982 7.159 6.982 7.159 6.983 7.158 6.982 7.159 6.982 7.159 6.982 7.159 6.982 7.159 6.982 7.159 6.982 7.159 6.982 7.159 6.982 7.159 6.983 7.159 6.982 7.159 6.982 7.159 6.982 7.158 6.982 7.159 6.982 7.159 6.982 7.159 6.982 7.159 6.982 7.159 6.983 7.159 6.982 7.159 6.982 7.159 6.982 7.159 6.982 7.159 6.982 7.159 6.982 7.159 6.981 7.158 6.982 7.159 6.983 7.159 6.983 7.159 6.981 7.159 6.983 7.159 6.982 7.159 6.982 7.159 6.982 7.159 6.981 7.159 6.984 7.159 6.982 7.159 6.982 7.158 6.982 7.159 6.982 7.159 6.982 7.159 6.982 7.159 6.982 7.159 6.982 7.159 6.983 7.159 6.982 7.159 6.982 7.159 6.982 7.159 6.981 7.159 6.983 7.158 6.982 7.159 6.982 7.159 6.982 7.159 6.982 7.159 6.983 7.159 8.715 8.936 7.071-7.071 3.404-3.404-7.159-6.983-7.159-6.982-7.159-6.982-7.16-6.982-7.157-6.982-7.16-6.982-7.159-6.982-7.158-6.982-7.16-6.982-7.158-6.982-7.16-6.983-7.158-6.982-7.16-6.982-7.159-6.982-7.159-6.982-7.158-6.982-7.16-6.982-7.157-6.982-7.16-6.983-7.158-6.982-7.16-6.982-7.159-6.982-7.159-6.982-7.159-6.982-7.159-6.982-7.158-6.982-7.16-6.982-7.159-6.983-7.159-6.982-7.157-6.982-7.16-6.982-7.158-6.982-7.159-6.982-7.159-6.982-7.159-6.982-7.159-6.982-7.159-6.983-7.159-6.982-7.159-6.982-7.159-6.982-7.159-6.982-7.158-6.982-7.159-6.982-7.159-6.982-7.159-6.982-7.159-6.983-7.159-6.982-7.159-6.982-7.159-6.982-7.159-6.982-7.159-6.982-7.159-6.982-7.158-6.982-7.159-6.983-7.159-6.982-7.16-6.982-7.158-6.982-7.159-6.982-8.936-8.715ZM1408.2 219.572l-7.16-6.982-7.16-6.982-7.16-6.982-7.16-6.983-7.16-6.982-7.16-6.982-7.15-6.982-7.16-6.982-7.16-6.982-7.16-6.982-7.16-6.982-7.16-6.983-7.16-6.982-7.16-6.982-7.16-6.982-7.15-6.982-7.16-6.982-7.16-6.982-7.16-6.982-7.16-6.982-7.16-6.982-7.16-6.983-7.16-6.982-7.16-6.982-7.15-6.982-7.16-6.982-7.16-6.982-7.16-6.982-7.16-6.982-7.16-6.982-7.16-6.983-7.16-6.982-7.16-6.982-7.63-7.45 6.98 7.16 6.98 7.159 6.98 7.159 6.98 7.159 6.99 7.159 6.98 7.159 6.98 7.159 6.98 7.158 6.99 7.159 6.98 7.159 6.98 7.159 6.98 7.159 6.98 7.159 6.99 7.159 6.98 7.159 6.98 7.159 6.98 7.159 6.98 7.159 6.99 7.159 6.98 7.159 6.98 7.158 6.98 7.159 6.99 7.159 6.98 7.159 6.98 7.159 6.98 7.159 6.98 7.159 6.99 7.159 6.98 7.159 6.98 7.159 6.98 7.159 6.98 7.159 6.99 7.158 6.98 7.159 5.26 5.396M782.18-258.891l6.982 7.159 6.982 7.159 6.983 7.159 6.982 7.159 6.982 7.159 6.982 7.159 6.982 7.159 6.982 7.158 6.982 7.159 6.982 7.159 6.982 7.159 6.983 7.159 6.982 7.159 6.982 7.159 6.982 7.159 6.982 7.159 6.982 7.159 6.982 7.159 6.982 7.159 6.982 7.158 6.983 7.159 6.982 7.159 6.982 7.16 6.982 7.158 6.982 7.16 6.982 7.158 6.982 7.16 6.982 7.158 6.983 7.16 6.982 7.158 6.982 7.16 6.984 7.157 6.98 7.16 6.98 7.158 6.98 7.16 6.99 7.158 6.98 7.16 6.98 7.158 6.98 7.16 6.98 7.158 6.99 7.16 6.98 7.158 6.98 7.16 6.98 7.158 6.98 7.158 6.99 7.16 6.98 7.158 6.98 7.16 6.98 7.158 6.99 7.16 6.98 7.158 7.87 8.076 7.07-7.071 2.15-2.146-7.16-6.982-7.16-6.982-7.16-6.982-7.16-6.982-7.15-6.982-7.16-6.982-7.16-6.983-7.16-6.982-7.16-6.982-7.16-6.982-7.16-6.982-7.16-6.982-7.16-6.982-7.15-6.982-7.16-6.982-7.16-6.983-7.16-6.982-7.16-6.982-7.16-6.982-7.16-6.982-7.16-6.982-7.155-6.982-7.159-6.982-7.159-6.982-7.159-6.982-7.159-6.983-7.159-6.982-7.159-6.982-7.159-6.982-7.159-6.982-7.159-6.982-7.159-6.982-7.158-6.982-7.159-6.983-7.159-6.982-7.159-6.982-7.159-6.982-7.159-6.982-7.159-6.982-7.159-6.982-7.159-6.982-7.159-6.982-7.159-6.983-7.159-6.982-7.159-6.982-7.158-6.982-7.159-6.982-7.159-6.982-7.159-6.982-7.159-6.982-7.159-6.983-8.076-7.876ZM318.395 972.703l6.786 2.77M396.789 768.475l-7.875-6.268M445.637 831.858l1.802-9.836.177-.964M618.164 441.643v.001M619.005 442.881l-.126.225M619.107 438.562l-.002.002M623.33 431.249l-1.607 2.673M623.062 446.692l.002.001 2.621 4.695M630.059 430.895v.008l.001.163M629.126 461.463l-.001.001M630.201 458.23l-.002.002M633.488 460.403l.279.377M633.977 467.034l.002.001M735.834 342.115l-4.967-2.781M751.23 352.388l.145-.249.001-.003.002-.002M743.119 346.92l-.608-.41-1.738-1.172M938.086 786.713l-.172.308-.003.003-.325.583-.001.003-1.065 1.904M939.386 786.583l-.45.826-.069.126-.001.003-.633 1.161-.001.003-.638 1.17M942.447 784.771l-.572 1.109-.387.748-.001.003-.176.34-.328.636-.101.195v.003l-.132.255h-.001l-.108.209M947.214 781.401l-1.46 3.087M945.699 792.94l2.103 1.72.602.493M954.105 800.489l-.449.822M958.012 780.674l.077.154.117.232M958.443 799.006v.001l-.324.65-.089.179-.001.001-.126.254-.001.001-.082.165M962.926 804.72l-.008.106M970.174 789.84l-.674 1.731M1073.37 653.886l.02-.015M1077.79 657.966l.46-.819M1088.95 677.814l1.05-1.89M1089.61 675.069l.44-.801M961.996 805.24l3.539 2.13.775.466 8.567 5.157 8.568 5.157 8.567 5.157 8.568 5.157 8.57 5.157 8.57 5.158 8.56 5.157 8.57 5.157 8.57 5.157 8.57 5.157 8.56 5.157 8.57 5.157 8.57 5.157 2.8 1.685 8.56 5.157 4.59 2.761 1.87 1.122M1111 899.088v.001M1114.39 897.325v.001M1084.25 670.008l-4.26-7.06M1179.09 821.307l-.46-.824-4.89-8.726-1.83-3.275M1192.89 863.206l7.65 6.44 7.65 6.439 1.51 1.273"/></g><defs><clipPath id="a"><path fill="#fff" d="M0 0h1920v1080H0z"/></clipPath></defs></svg>