<svg width="1920" height="1080" fill="none" xmlns="http://www.w3.org/2000/svg"><g clip-path="url(#a)" stroke="#EFC018" stroke-width="5" stroke-linejoin="round"><path d="m1033.18 736.755.33.604.21.652.08.677-.05.674-.18.646-.3.593-.42.517v.005l-.51.417-.58.309-.64.186-.67.055-.68-.078-.65-.208-.6-.33-.53-.439-.44-.532-.33-.604-.21-.653-.08-.677.05-.674.18-.646.3-.593.41-.511.01-.006.51-.422.58-.309.64-.186.67-.055.68.078.65.208.6.331.53.439.44.532ZM1015.98 748.039l.01-.006.51-.413.59-.302.65-.178.67-.049.67.084.65.212.61.333.53.44.44.531.33.602.21.649.08.671-.05.667-.19.639-.3.585-.42.508-.01.005M1020.46 753.425l-.59.302-.65.178-.67.049M1015.11 751.104l-.08-.671.05-.668.18-.638.31-.585M1003.95 763.714l-.25-.429-.03-.067-.06-.098-.21-.636-.09-.656.04-.648.17-.617.3-.562.4-.48v-.005l.51-.389.57-.279.64-.158.66-.03.66.098.19.063.46.16.6.339.53.442.44.529.33.594.22.637.09.656-.05.649-.12.45-.05.167-.3.562-.4.484-.01.005-.49.384-.58.279-.63.157-.48.022-.06.002-.12.006-.67-.099-.65-.223-.59-.339-.53-.442-.44-.528Zm0 0-.25-.432M1006.83 765.345l.06.006M992.16 772.375l.022-.618.111-.437.007-.026.03-.12.269-.524.374-.442.004-.005.474-.351.551-.242.607-.124.64-.002.648.122.631.241.59.349.527.445.442.524.341.582.228.618.104.631-.023.618-.149.582-.269.525-.379.446-.005.004-.342.253-.012.009-.115.084-.551.242-.607.124h-.64l-.647-.122-.631-.24-.589-.349-.526-.445-.442-.523-.341-.582-.227-.617-.105-.63Zm0 0 .014-.615M996.914 775.76l.032-.009M982.049 780.616l.23-.474.273-.322.008-.009.051-.06.004-.004.432-.3.51-.194.571-.079.605.037.621.154.61.263.578.363.52.449.445.517.352.566.246.592.129.597.009.577-.113.537-.23.474-.015.018-.006.008-.316.369-.005.003-.428.296-.511.193-.569.078-.606-.038-.62-.154-.61-.263-.576-.363-.52-.448-.444-.516-.352-.565-.246-.592-.129-.596-.009-.577.111-.537Zm0 0 .006-.019M987.133 784.994l.007-.003M973.018 788.584l.177-.414.28-.329.003-.004.378-.238.322-.094.009-.003.128-.037.521-.026.563.085.585.192.583.291.56.379.513.453.449.509.366.546.269.562.162.555.049.528-.024.175-.001.007-.041.298-.178.414-.284.332-.004.003-.375.235-.458.133-.521.024-.564-.085-.584-.192-.582-.291-.558-.379-.513-.452-.448-.509-.365-.545-.27-.56-.162-.555-.05-.528.065-.48Zm0 0 .021-.059M978.027 793.004l.014-.008M970.121 796.084l.382.524.191.337.007.012.1.177.201.508.097.472-.01.416-.118.346-.221.261-.003.001-.311.165-.397.066-.463-.037-.512-.139-.542-.235-.55-.322-.537-.398-.505-.457-.451-.499-.382-.522-.298-.525-.189-.478-.012-.03-.098-.471.009-.417.063-.184.054-.162.217-.259.002-.002.314-.168.396-.067.464.036.512.138.281.122.014.006.158.068.09.039.551.323.538.398.505.457.453.5ZM970.75 799.137l3.152-1.716M959.798 798.929l.147-.183.001-.002.181-.068.002-.001.06-.023.326.006.399.103.455.196.495.282.515.356.515.418.273.255.223.208.457.49.401.498.329.488.245.457.151.411.052.347-.05.271-.15.185-.002.001-.241.089-.048-.001h-.003l-.276-.006-.399-.104-.455-.196-.494-.282-.514-.356-.025-.02-.489-.397-.495-.462-.456-.489-.005-.007-.249-.308-.146-.182-.329-.487-.245-.457-.152-.411-.015-.096-.021-.144-.016-.107.048-.272Zm0 0 .003-.006M964.824 803.624l3.501-1.962M955.863 801.369l.071-.104.001-.001.165-.012.252.081.33.172.394.256.444.331.476.392.491.438.485.468.334.347.128.133.421.472.023.029.34.418.291.405.173.288.036.059.118.276.023.193-.073.104-.001.001h-.001l-.165.011-.253-.083-.33-.172-.025-.016-.369-.241-.444-.33-.404-.333-.071-.059-.044-.039-.445-.398-.485-.467-.461-.479-.419-.471-.363-.447-.291-.404-.21-.347-.051-.12-.068-.156-.006-.052-.017-.143Zm0 0 .005-.01"/><path d="m960.785 806.115 1.278-.72 2.39-1.346M1080.97 688.697l-.19.339-.28.245-.37.141-.44.032-.49-.078-.05-.02-.47-.165-.54-.286-.53-.376-.5-.45-.46-.507-.39-.546-.31-.562-.22-.558-.09-.388-.03-.143-.01-.485.09-.42.19-.338.29-.243.36-.14.44-.032.49.079.53.186.53.286.53.375.5.449.46.507.39.544.31.561.22.557.12.531.01.485-.09.42Zm0 0-1.59 3.033M1076.16 683.889l-.57.236-.01.002-.9.369M958.719 804.894l-.041-.037-.448-.401-.484-.467-.461-.478-.42-.472-.363-.446-.291-.405-.209-.347-.054-.123-.065-.153-.007-.056-.017-.138.008-.012.064-.094h.002l.163-.012.253.081.329.173.395.256.443.33.477.392.49.438.485.468.328.34.134.14.421.472.023.029.34.419.291.405.174.288.035.058.118.276.023.194-.072.103-.001.001-.167.011-.253-.082-.33-.173-.024-.016-.37-.241-.443-.33-.405-.333-.071-.058ZM960.785 806.116l.002-.001M964.971 803.442l-.147.183-.002.002-.243.09-.044-.001h-.003l-.28-.006-.399-.103-.455-.197-.495-.282-.513-.356-.016-.013-.499-.404-.494-.462-.456-.489-.006-.007-.243-.302-.152-.188-.329-.487-.245-.457-.151-.411-.016-.105-.022-.147-.015-.095.049-.272.007-.009.141-.176.003-.001M963.844 800.97l.401.498.329.488.245.458.151.41.051.347M964.82 803.627l3.509-1.966M961.363 798.961l.495.282.515.356.515.418M965.622 794.498l-.052.155-.065.191-.009.417.098.471.011.028.19.48.298.525.382.522.451.499.505.457.537.397.55.323.542.235.512.139.463.037.397-.066.315-.167 3.261-1.775"/><path d="m965.621 794.498.008-.009.212-.253.003-.002.31-.165.396-.067.464.036.512.138.295.128.014.006.147.064.087.037.551.323.538.397.505.458.453.5.382.523.184.325.007.013.107.188.201.509.097.471-.01.417-.118.345-.218.258-.002.003M978.861 792.027l-.178.414-.281.328-.004.004-.357.223-.021.014-.459.133-.521.025-.563-.086-.584-.192-.582-.291-.559-.379-.512-.452-.448-.508-.366-.545-.269-.561-.163-.555-.049-.527.065-.48.028-.066.149-.349.283-.333.004-.002.374-.236.331-.097M978.082 789.355l.366.546M978.926 791.547l-.023.167-.001.007M978.02 793.01l2.798-1.413M974.828 787.447l.564.084M976.559 788.014l.559.379M988.235 783.297l-.113.536-.229.475-.009.01-.006.007-.319.373-.004.004-.417.289-.015.011-.511.192-.57.079-.606-.038-.62-.154-.609-.263-.576-.363-.52-.448-.445-.517-.352-.565-.245-.591-.13-.596-.009-.578.112-.536.013-.027.215-.448.283-.331.008-.009.046-.055.005-.003.427-.297.511-.193.569-.08M985.348 779.372l.611.264.576.363.521.448.445.518.352.565.246.593M987.125 785.002l2.377-1.033M998.079 771.175l.341.582.227.618.104.63-.022.619-.149.582-.269.525-.375.441-.004.005-.336.248-.012.009-.126.093-.51.224-.041.018-.607.124h-.64l-.648-.122-.63-.24-.59-.349-.526-.445-.442-.523-.341-.582-.227-.617-.104-.63.022-.618.001-.006.116-.457.007-.026.024-.094.268-.524.378-.447.006-.004.468-.347.551-.242.607-.124.64-.002.648.122.632.24.59.35M996.906 775.769l1.707-.502M1010.11 762.188l-.05.648-.12.432-.05.186-.29.561-.4.48-.01.005-.5.389-.58.278-.63.158-.42.019-.06.002-.11.005-.07.004-.67-.099-.64-.223-.6-.339-.53-.442-.44-.528-.28-.497-.06-.097-.02-.065-.19-.572-.09-.655.04-.648.18-.618.29-.561.41-.485v-.005l.5-.385.58-.278.63-.158.66-.03M1009.47 760.301l.1.186.23.408M1006.82 765.354l.73.073M1007.9 758.991l.04.024.56.315M1017.21 753.668l-.6-.332-.53-.441-.44-.531-.33-.601-.21-.649-.08-.671.05-.668.19-.638.3-.585.42-.509.01-.004.5-.409.59-.301.65-.179.67-.048.67.083.66.212.6.333.53.44.44.531.33.602.21.649.08.671-.05.668-.18.638-.31.585-.42.503v.006l-.51.413-.59.301-.65.178-.67.049-.67-.084-.66-.212ZM1033.26 740.611l-.41.511v.007l-.51.42-.59.31-.64.187-.67.055-.67-.078-.65-.208-.61-.331-.53-.44-.44-.531-.33-.604-.21-.654-.08-.675.05-.675.18-.647.3-.592.42-.518v-.003M1028.96 735.418l.65-.185.66-.055.68.078.65.208.6.33.53.439.44.532.33.604.21.653.09.676-.05.674-.19.646M1040.81 729.871l-.6-.331-.53-.44-.44-.531-.33-.602-.22-.649-.1-.671.04-.668.16-.64.29-.585.4-.51.49-.414.57-.303.62-.179.66-.049.66.082.64.211.59.332.53.44.44.53.34.601.22.649.09.671-.03.668-.17.639-.28.586-.4.51-.49.414-.57.303-.62.18-.66.05-.66-.083-.64-.211ZM1056.13 716.02l-.13.619-.13.284-.12.279-.37.487-.45.392-.54.282-.59.16-.63.033-.64-.096-.63-.221-.58-.337-.53-.441-.44-.528-.35-.594-.23-.637-.11-.657.01-.65.13-.618.26-.564.36-.486.46-.392.54-.281.59-.159.13-.007.5-.025.64.096.62.221.58.337.53.441.44.527.35.593.23.637.12.655-.02.65Zm0 0-.26 1.305M1065.81 705.948l-.21.527-.32.45-.14.127-.27.228-.49.247-.55.128-.59.005-.61-.119-.6-.237-.57-.347-.52-.443-.45-.522-.35-.582-.26-.619-.14-.631-.03-.62.1-.585.21-.528.32-.449.34-.296.07-.058.49-.246.55-.127.59-.004.61.118.6.238.57.346.51.443.45.522.36.581.25.617.15.631.02.62-.09.585Zm0 0-.8 2.028M1074.1 696.874l-.26.399-.35.306-.44.199-.5.085-.54-.033-.57-.149-.57-.259-.55-.359-.51-.447-.46-.515-.37-.566-.28-.593-.18-.598-.07-.58.05-.54.15-.468v-.011l.26-.399.35-.304.44-.198.5-.084.54.033.57.15.57.259.55.359.51.446.45.514.37.565.28.592.18.597.07.58-.04.54-.15.479Zm0 0-1.27 2.655M1085.91 682.458l-.21.176-.29.076-.37-.028-.44-.13-.47-.228-.5-.317-.51-.392-.49-.455-.46-.498-.41-.523-.24-.37v-.003l-.1-.154-.27-.512-.17-.476-.01-.023-.07-.399.02-.352.12-.269.21-.175.26-.066.01-.001.02-.007.13.01.25.019.22.068.01.002.2.061.47.228.5.316.5.392.5.454.21.23v.001l.24.266.41.522.35.526.26.511.1.27.08.206.08.422-.02.353-.12.269Zm0 0-1.88 3.43M1081.25 677.406l-1.4.653M1089.1 677.723l-.14.1-.22.005-.01-.005-.04-.013-.25-.076-.36-.187-.34-.219-.09-.053-.46-.351-.48-.411-.41-.388v-.003l-.07-.068-.46-.489-.43-.498-.16-.205-.22-.284-.32-.462-.23-.416-.15-.354-.05-.279.04-.195.13-.099.22-.003.3.094.37.188.41.263.01.008v.002l.46.349.15.123.33.289.48.458.47.487.43.497.38.489.03.045.28.416.23.415.12.271.03.083.06.281-.04.195Zm0 0-.21.37-1.81 3.25M1084.38 672.772l-1.03.527v.001l-.02.009-.01.005M1090.27 674.945l-.05.024-.15-.071-.22-.161-.31-.246-.19-.165-.18-.157-.42-.383-.45-.432-.48-.464-.47-.479-.45-.472-.41-.449-.36-.41-.3-.353-.21-.284-.13-.203-.04-.115.05-.022.15.071.23.162.3.247.31.266.06.055.42.384.45.431.47.463.47.476.45.472.42.448.36.409.29.354.22.284.13.203.04.117Zm0 0-1.22 2.219"/><path d="m1085.45 670.125-.25.135-.78.422"/><path d="m1086.49 670.85-.03-.033-.45-.41-.41-.357-.35-.29-.29-.212-.2-.127-.12-.035-.75.416M953.98 800.533l.021.049.187.31.102.142M954.421 800.797l-.128.237-.383.71.006.025.099.117.187.204.269.283.339.352.398.406.44.445.465.468.474.472.464.458.435.427.391.379.332.316.259.243.176.158.088.069 1.279-.71"/><path d="m953.91 801.744.086.068.176.157.258.242.332.316.391.38.436.427.465.459.475.473.467.469.44.446.398.407.34.352.268.283.187.203.097.116.006.024M723.444 335.386l-8.722-4.892-5.189-2.91-1.552-.813-8.878-4.603-8.878-4.602-8.877-4.603-4.294-2.226-8.91-4.54-8.91-4.541-8.91-4.54-4.344-2.213-9.159-4.014-9.159-4.015-9.159-4.014-5.059-2.218-9.575-2.885-9.575-2.885-9.574-2.886-9.575-2.885-9.575-2.886-9.574-2.885-9.575-2.885-2.644-.797 2.857 9.583 2.858 9.583 2.857 9.583 2.857 9.583 2.857 9.583 2.858 9.584 2.857 9.583.924 3.1 3.988 9.17 3.988 9.17 3.988 9.17 2.256 5.186 4.516 8.922 4.517 8.922 4.517 8.922 2.239 4.423 4.58 8.89 4.579 8.89 4.58 8.889 2.244 4.356 4.872 8.733 3.374 6.047M1078.56 664.105l.44 1.21-2.09 3.722-4.58 6.138-4.33 5.198v.003l-.38.456-.01.009-2.23 2.684-1.33 1.502v.006l-1.05 1.184-.01.006-.25.294-2.72 3.07v.008l-3.05 3.443v.008l-.65.735-.26.276v.008l-2.12 2.302-2.23 2.413v.008l-3.48 3.777-.01.009-.5.542-.01.008-2.22 2.42-1.07 1.125-1.89 1.98-.01.009-4.18 4.406-.01.009-.02.016-.01.01-4.12 4.332-.86.904-.66.682-.01.01-4.48 4.58-.01.009-.48.491-4.29 4.39-1.11 1.135-.01.01-1.94 1.977-2.69 2.687-.01.01-.97.961-4.35 4.336-.67.665-.01.01-4.56 4.547-.04.038-5.98 5.795-4.47 4.338-2.49 2.415-3.205 3.014-.363.342-3.986 3.75-4.592 4.32-.473.429-.859.778-3.518 3.189-3.932 3.564-1.198 1.085-.829.752-2.761 2.376-2.007 1.727-.332.286-3.941 3.392-6.928 5.477-4.574 2.992-2.084.437"/><path d="m947.717 794.684-.393 1.843 2.113-.436 4.651-3.039 7.051-5.572 4.69-4.037.537-.461 2.244-1.931 1.733-1.492 1.639-1.485 1.224-1.109 4.035-3.657 3.435-3.113.675-.612.195-.183 5.106-4.803 3.954-3.721.363-.341 2.754-2.59 2.95-2.861 4.477-4.339 5.8-5.622.16-.159 4.61-4.601.01-.01.69-.681 4.3-4.288.98-.978.01-.009 2.75-2.738 1.9-1.941.01-.01 1.13-1.152 4.25-4.347.49-.501.01-.01 4.49-4.596.01-.009.94-.968.59-.615 4.12-4.332.01-.01.01-.009 4.19-4.406v-.009l1.89-1.98 1.58-1.669 1.75-1.892v-.009l.5-.54.01-.009 3.44-3.738.01-.008 2.21-2.398 2.19-2.381v-.008l.92-.998.01-.004.01-.008 2.94-3.328v-.008l2.66-3.008.44-.5.01-.006 1.1-1.245v-.006l2.06-2.33 1.12-1.342v-.007l.98-1.176.01-.005.02-.026v-.003l4.94-5.94 4.66-6.244 2.12-3.782-.46-1.224-1.57.702M1070.74 654.563l-.59-.724-.09-.117-6.34-7.738-6.34-7.737-6.33-7.738-6.34-7.737-3.45-4.219-6.5-7.599-6.5-7.6-6.5-7.599-6.5-7.599-6.5-7.599-5.3-6.198-6.681-7.443-6.678-7.443-6.678-7.444-6.679-7.443-6.678-7.443-5.377-5.993-6.853-7.283-6.852-7.283-6.853-7.282-6.853-7.283-6.852-7.283-5.473-5.817-7.47-6.648-7.469-6.649-7.47-6.648-7.47-6.649-7.469-6.649-6.027-5.364-7.694-6.386-7.695-6.387-4.538-3.767-7.695-6.386-7.694-6.387-7.695-6.387-1.802-1.496-8.063-5.916-8.062-5.916-8.062-5.916-8.062-5.916-8.063-5.916-7.02-5.151-8.289-5.594-5.729-3.867-8.289-5.594-8.289-5.594-8.128-5.485-.732-.494M740.89 345.626l-1.583-.819-3.711 1.343-5.73 3.487-6.343 4.643-.007.005-.342.25-.013.01-.846.619-2.101 1.704-.005.004-1.259 1.021-.006.004-1.004.814-2.419 1.962-.006.005-2.29 1.856-.084.073-.007.006-.896.779-.007.006-2.256 1.962-2.041 1.774-.007.006-3.437 2.989-.008.007-.232.201-.008.007-1.291 1.123-.998.916-1.94 1.781-.007.007-4.662 4.28-.009.008-3.427 3.147-.056.054-.007.007-5.828 5.609-.008.008-2.562 2.466-.007.007-2.887 2.779-3.606 3.629-.008.008-2.299 2.314-.009.008-5.271 5.305-.782.825-2.961 3.12-4.812 5.07-2.006 2.113-1.699 1.884-.022.024-3.563 3.952-3.911 4.337-.298.331-.314.371-2.228 2.632-3.271 3.864-.983 1.161-1.242 1.467-.66.852-1.642 2.117-.467.602-3.5 4.514-4.268 6.364-2.126 4.414.066 2.323M628.672 456.137l1.294 1.923.374.555"/><path d="m742.485 346.702.145-.264.608-3.044-2.242-1.733-1.64-.873-3.842 1.366-.007.003-5.944 3.595-.945.689-1.538 1.122-.003.002-1.784 1.301-.004.003-.662.483-.005.004-1.769 1.29-.005.004-.594.432-.005.004-.521.38-2.027 1.64-.005.004-1.571 1.271-.006.005-1.234.998-.007.005-.941.762-.005.004-2.441 1.974-.006.005-1.191.964-3.527 3.062-.009.008-1.437 1.247-.005.004-5.687 4.938-7.369 6.76-4.095 3.755-7.206 6.934-4.58 4.407-7.048 7.094-4.568 4.597-6.882 7.255-4.075 4.296-6.693 7.43-3.15 3.498-2.059 2.436-2.194 2.597-.389.46-.69.816-2.037 2.411-.959 1.136-1.038 1.342-.705.912-1.254 1.622-.643.831-1.837 2.376-.325.421-.686.886-.369.553-4.037 6.05-1.097 2.302-1.085 2.277.092 2.407 1.735 2.25 2.322.169 1.259-.577"/><path d="m743.236 343.394-1.633-.867-3.307 1.189-.021.007-.525.189-5.958 3.621-7.491 5.48-.002.001-.366.268-.051.041-.004.003-1.632 1.323-.006.005-2.162 1.753-.006.004-1.308 1.061-.006.004-1.241 1.006-2.381 1.93-.006.005-.666.54-1.613 1.402-.007.006-.862.75-.007.006-2.2 1.912-2.057 1.788-.006.006-3.731 3.243-.009.007-.032.028-.082.071-.008.007-.092.081-1.759 1.615-2.082 1.911-.007.006-5.077 4.661-.009.008-2.577 2.367-.351.337-.007.007-6.62 6.371-.009.009-1.516 1.459-.007.007-3.329 3.204-4.276 4.304-.007.007-1.116 1.123-.008.008-6.262 6.302-.748.789-2.297 2.42-5.289 5.573-2.676 2.819-.742.823-3.796 4.211-3.823 4.24-.577.64-.954 1.059-1.35 1.594-3.353 3.962-.998 1.18-1.698 2.005-.974 1.152-1.099 1.417-.975 1.258-4.451 5.743-4.436 6.621-2.202 4.586.083 2.406M635.113 465.711l.669.994 5.583 8.296 5.583 8.297 5.017 7.454 5.583 8.297 3.881 5.768 5.908 8.068 5.908 8.068 5.908 8.068 5.908 8.069 5.908 8.068 5.264 7.188 6.383 7.698 6.382 7.699 6.382 7.698 1.589 1.916 6.382 7.698 6.383 7.699 3.843 4.636 6.646 7.471 6.646 7.472 6.646 7.472 6.647 7.472 6.646 7.472 5.566 6.259 7.285 6.851 7.284 6.852 7.284 6.851 7.284 6.851 7.284 6.852 6.057 5.697 7.445 6.676 7.445 6.676 7.445 6.676 7.445 6.676 7.445 6.676 6.229 5.585 7.602 6.497 7.602 6.497 7.602 6.497 7.602 6.497 7.602 6.497 6.42 5.486 7.741 6.331 7.741 6.331 7.74 6.331 7.741 6.33 4.142 3.387.505.414M1078.56 664.106l-.4-.482-1.62-1.979M1095.66 885.764l1.74.098 3.11-1.356 3.8-2.408.58-.365 5.47-4.094 6.37-5.261 4.49-3.987 2.52-2.237 7.28-6.856.09-.082 7.1-7.045.32-.327 6.92-7.225.27-.282 2.11-2.332M1169.13 810.974l-1.03-1.701-5.17-8.561-1.82-3.018-.04-.077-5.17-8.561-5.17-8.56-5.17-8.56-5.17-8.561-5.17-8.56-5.17-8.56-5.17-8.561-5.17-8.56-5.17-8.56-5.17-8.561-5.17-8.56-5.16-8.561-5.17-8.56-1.69-2.786-.66-1.102-.69-1.135-1.94-3.216M1169.31 813.577l.42-1.351-.6-1.252M947.324 796.526l6.659 4.006.438.264M1127.61 904.318l.43.25 8.64 5.023 3.75 2.177 1.43.148 1.29-.499 1.15-.442 2.58-1.536.79-.465 3.53-2.537.64-.454.86-.697 3.94-3.17 5.27-4.595 5.5-5.139.96-.949 4.57-4.532 2.55-2.682 2.77-2.918 4.92-5.497 4.3-5.173 1.67-2.191"/><path d="m1111.29 898.542 8.73 4.872 3.27 1.823 1.64.154 2.68-1.073.11-.047.06-.024 3.97-2.407 2.42-1.757 1.6-1.161.92-.67 4.9-3.971.81-.662 6.27-5.5 6.56-6.148 6.6-6.547 6.37-6.682 5.88-6.549 2.8-3.339M1093.61 884.526l-.85 2.21.33 1.651 1.85.117 3.32-1.442 4.68-2.961 1.95-1.458 3.91-2.919 6.81-5.631 5.91-5.244 1.6-1.421 7.28-6.856.61-.577 4.03-4.001.01-.005 1.18-1.171.01-.006 2.73-2.716 2.3-2.402.01-.007.85-.89v-.005l4.54-4.739 1.71-1.89M1170.29 814.598l1.18-2.069.88-2.835-.65-1.329-2.15.208-1.44.7M1093.09 888.387l8.73 4.872 3.2 1.785.89.498M1152.7 905.287l8.22 5.695 4.28 2.964.89.092 1.48-.553 2.03-1.179 2.48-1.761 2.86-2.276 3.11-2.704 3.25-3.027 3.26-3.229 3.14-3.305 2.89-3.25 2.54-3.068 2.07-2.766 1.55-2.357.95-1.858.32-1.29-.32-.673-5.7-8.215-2.82-4.06M1200.39 775.796l9.97.729 9.98.729 9.97.729.62.045 9.36 3.524 9.36 3.524 6.04 2.275 9.46 3.235 9.46 3.234 6.39 2.181 9.29 3.7 9.29 3.7 5.71 2.273 3.14-.908 6.75-7.379.93-1.02-6.15-7.885-5.53-7.089-6.15-7.886-5.52-7.081-6.15-7.886-5.52-7.074-6.15-7.886-5.51-7.067-6.54-7.562-6.54-7.562-6.55-7.562-6.54-7.563-6.54-7.562-6.55-7.562-6.54-7.562-6.54-7.562-3.47-4.006-9.97.755-9.97.756-9.97.755-9.97.755-9.98.755-9.97.755-9.97.755-7.94.601-9.97.755-9.97.755-9.97.755-9.97.755-5.17.392"/><path d="m1161.11 797.694 2.15-.769 8.69-4.945 8.69-4.945 8.69-4.946 8.69-4.945 2.37-1.348 1.91-1.086M1202.3 774.71l9.97.73 9.98.73 9.97.73 1.59.116 9.36 3.524 9.35 3.525 6.14 2.309 9.46 3.235 9.46 3.236 6.47 2.212 9.29 3.701 9.29 3.7 5.8 2.308M1064.01 922.886l4.44-8.961 4.44-8.961 4.44-8.961 4.44-8.961 3.2-6.46-8.51-5.26-8.5-5.261-8.51-5.261-8.5-5.26-8.51-5.261-8.5-5.261-8.5-5.261-8.51-5.26-5.65-3.497-8.51-5.261-8.502-5.261-8.504-5.26-8.504-5.261-8.783-5.433-.68.319-1.27.598-.622 9.98-.622 9.981-.621 9.981-.622 9.98-.472 7.578-.622 9.981-.622 9.981-.621 9.98-.622 9.981-.622 9.981-.622 9.98-.621 9.981-.622 9.981-.227 3.635 7.582 6.52 7.583 6.521 7.582 6.52 7.582 6.52 7.582 6.52 7.582 6.52 7.58 6.52 7.58 6.52 5.88 5.052 7.92 6.105 7.45 5.74 7.92 6.11 7.44 5.73 7.92 6.11 7.44 5.73 7.92 6.1 7.43 5.73 2.42-.04 6.74-7.38 1.46-1.59-3.72-9.28-3.73-9.28-2.99-7.47-3.28-9.45-3.28-9.447-2.84-8.188-3.55-9.347-3.56-9.347-2.9-7.634-.92-9.957-.91-9.958-.92-9.958-.35-3.778Z"/><path d="m968.476 808.524-.044.702-.62 9.981-.62 9.98-.621 9.981-.62 9.981-.438 7.051-.621 9.981-.62 9.98-.62 9.981-.621 9.981-.62 9.981-.62 9.98-.621 9.981-.62 9.981-.245 3.946M958.367 940.423l1.939-.43 7.582 6.52 7.582 6.52 7.582 6.521 7.582 6.52 7.582 6.52 7.584 6.52 7.58 6.52 7.58 6.52 6.13 5.268 7.92 6.108 7.51 5.78 7.92 6.11 7.5 5.78 7.92 6.1 7.49 5.78 7.92 6.1 7.49 5.77M1018.63 721.69l.33.611.2.662.07.689-.06.69-.2.663-.32.612-.44.537v.005l-.53.436-.61.328-.65.203-.69.069-.69-.066-.66-.199-.6-.326-.54-.438-.44-.535-.32-.61-.21-.663-.07-.689.07-.69.04-.15.06-.202.1-.311.32-.612.43-.531v-.006l.54-.44.6-.328.36-.111.21-.063.09-.029.69-.069.68.066.66.2.61.325.53.438.44.534Z"/><path d="m1018.71 727.01.59-.724.43-.827.27-.896.09-.931-.1-.931-.27-.895-.44-.824M1006.26 734.124l.33.608.2.659.07.684-.07.684-.2.656-.33.604-.44.528v.005l-.53.428-.61.32-.66.196-.69.063-.68-.072-.66-.203-.61-.328-.54-.439-.44-.534-.32-.607-.203-.659-.068-.684.06-.614.007-.069.036-.12.168-.537.32-.604.43-.522.01-.006.53-.433.61-.32.43-.127.2-.059.03-.01.69-.063.69.071.66.204.61.327.53.439.44.534ZM1006.88 738.846v-.005l.6-.713.44-.816.27-.887.09-.923-.1-.924-.27-.89-.44-.821M987.901 749.239l-.013-.039-.194-.607-.055-.479-.016-.137-.006-.052.057-.664.188-.635.312-.58.419-.499.004-.005.52-.409.596-.297.648-.174.455-.031.157-.01.064-.004.679.086.654.215.605.334.533.441.439.531.33.6.207.647.077.669-.057.664-.189.634-.312.581-.424.504-.006.004-.514.404-.596.297-.648.174-.555.036-.059.004-.062.004-.678-.087-.654-.214-.605-.334-.532-.441-.439-.531-.25-.454-.08-.146Zm0 0-.034-.063M995.188 750.277l.005-.004.574-.681.422-.784.254-.857.078-.898-.104-.903-.279-.874-.445-.811M991.137 751.445l.058.006M976.039 758.947l.034-.633.133-.492.007-.027.022-.08.284-.542.39-.459.004-.006.49-.369.567-.26.621-.14.653-.014.659.11.095.035.119.043.426.155.595.344.529.444.441.526.338.589.22.627.094.642-.035.633-.163.599-.284.542-.395.464-.005.005-.376.282-.012.009-.097.073-.567.259-.622.139-.652.015-.658-.111-.639-.233-.595-.344-.528-.444-.441-.525-.337-.588-.011-.03-.043-.123-.166-.473-.095-.642Zm0 0 .035-.665M980.824 762.306l.031-.009M984.02 760.927l.006-.004.534-.627.384-.733.22-.809.048-.855-.128-.868-.297-.848M965.581 767.595l.242-.491.302-.354.008-.01.037-.043.003-.004.446-.317.524-.209.582-.094.618.025.629.144.618.256.534.33.047.029.06.051.463.396.444.52.349.571.239.601.121.607-.001.591-.125.551-.242.491-.028.032-.007.009-.317.37-.005.003-.441.312-.524.208-.582.093-.617-.026-.629-.143-.616-.257-.581-.358-.522-.447-.031-.036-.087-.103-.326-.38-.348-.57-.24-.6-.121-.607.001-.59.123-.551Zm0 0 .006-.021M970.68 771.962l.007-.003M973.742 770.446l.005-.004.475-.555.328-.663.169-.745.002-.799-.163-.821M956.242 775.949l.188-.429.291-.343.003-.004.388-.252.208-.065.143-.045.009-.003.109-.034.531-.038.572.074.592.183.589.285.563.376.515.452.448.511.039.058.094.142.231.35.264.569.156.565.041.539-.03.194-.001.007-.044.292-.189.428-.295.346-.004.003-.385.248-.469.147-.531.037-.572-.075-.591-.184-.371-.179-.152-.074-.065-.031-.562-.376-.514-.451-.447-.51-.363-.55-.265-.567-.156-.565-.042-.538.041-.268.033-.225Zm0 0 .027-.073M961.266 780.359l.013-.007M964.688 778.531l.003-.003.399-.468.256-.578.102-.667-.054-.729M948.632 782.168l.224-.27.003-.003.321-.179.404-.078.47.026.519.13.313.13.013.006.221.092.349.2.206.117.541.395.507.457.452.502.38.527.19.343.007.012.098.176.196.517.048.251.044.229-.003.078-.014.349-.125.356-.228.273-.004.002-.318.176-.25.047-.154.03-.143-.008-.327-.019-.519-.131-.546-.228-.554-.317-.54-.395-.506-.456-.451-.5-.38-.526-.294-.531-.043-.111-.154-.404-.093-.481.016-.427.054-.154.07-.203Zm0 0 .002-.005"/><path d="m953.766 786.804 2.932-1.625.441-.245.004-.002M957.145 784.932l.309-.369.17-.482M942.654 786.856l.151-.192.002-.002.195-.079.003-.001.048-.02.331-.002.402.095.459.19.498.277.517.353.516.415.497.462.005.005.452.487.4.501.327.491.243.464.148.417.048.355-.054.279-.153.193-.003.001-.232.093-.003.001-.01.004-.331.001-.403-.096-.458-.191-.497-.276-.315-.215-.201-.138-.516-.415-.495-.461-.271-.291-.141-.152-.044-.047-.4-.5-.327-.491-.243-.463-.148-.417-.031-.221-.018-.134.017-.094.035-.186Zm0 0 .004-.007M947.691 791.544l3.07-1.754.551-.314.005-.003.003-.002M938.664 789.468l.072-.11.001-.001.166-.018.253.077.33.167.395.252.445.328.476.389.491.437.486.468.462.48.42.474.123.153.24.297.291.409.209.351.005.013.112.267.022.199-.074.109-.002.001-.165.016-.254-.078-.287-.146-.043-.022-.395-.253-.444-.327-.296-.241-.083-.068-.097-.08-.49-.436-.484-.466-.461-.479-.42-.474-.362-.449-.292-.408-.208-.351-.119-.281-.013-.116-.01-.083Zm0 0 .007-.014M943.59 794.209l2.083-1.197 1.708-.982M1068.55 671.808l-.2.347-.3.253-.38.15-.45.039-.5-.072-.04-.016-.29-.098-.2-.066-.02-.01-.52-.272-.54-.373-.5-.45-.45-.509-.39-.548-.31-.567-.21-.564-.07-.368-.04-.17v-.492l.1-.428.2-.347.3-.252.01-.004.01-.002.36-.142.45-.039.5.073.53.181.54.282.54.373.5.449.45.507.39.547.31.566.21.563.01.048.04.217.06.273v.492l-.1.429Zm0 0-1.68 3.14"/><path d="m1063.74 666.995-.1.042v.001l-.81.35-.01.005-.5.213-.01.003-1.94.834M1062.77 675.181l.13.089.04.028.73.381.72.243.68.097.61-.055.51-.202.4-.344.28-.47M943.637 793.902l.023.199-.074.109-.168.017-.253-.077-.288-.147-.043-.022-.395-.252-.444-.327-.296-.242-.08-.066-.1-.081-.489-.436-.485-.467-.461-.479-.42-.473-.362-.449-.291-.408-.209-.352-.118-.28-.014-.121-.01-.079.01-.015.063-.096h.002l.164-.017M942.66 792.413l.123.152.24.298.291.408M943.52 793.622l.005.013M943.586 794.211l.002-.002M939.879 789.837l.445.327.477.39M947.687 791.545l-.002.002-.23.092-.002.001-.015.006-.331.001-.403-.096-.459-.19-.497-.277-.306-.209-.21-.144-.515-.415-.496-.461-.271-.291-.138-.149-.047-.05-.399-.5-.327-.491-.243-.463-.149-.417-.031-.23-.018-.125.019-.1.034-.18.008-.01.144-.184.003-.001M947.453 789.84l.242.463.148.417.048.355-.053.28M943.051 786.565l.331-.003.403.097.459.189.497.277M951.316 789.474l.001-.001"/><path d="m947.684 791.547 3.074-1.755.556-.318M953.762 786.805l-.002.003-.322.178-.248.047-.156.03-.141-.008-.329-.019-.519-.131-.546-.228-.554-.317-.54-.395-.506-.456-.451-.5-.38-.526-.294-.531-.043-.112-.154-.403-.093-.481.016-.427.056-.161.068-.196.008-.01.219-.263.003-.002M954.039 785.272l.049.253.043.227-.003.081-.014.346M957.137 784.937l.002-.003M953.762 786.809l3.377-1.872M949.578 781.643l.47.026M950.195 778.672l-1.57 3.501M961.652 780.111l-.003.004-.369.237-.021.014-.469.147-.531.036-.571-.075-.592-.183-.369-.179-.152-.074-.066-.032-.562-.375-.515-.451-.447-.511-.363-.549-.264-.568-.157-.564-.041-.539.041-.271.033-.222.034-.079.153-.349.294-.347.005-.003M961.383 776.625l.039.059.094.142M962.012 777.744l.155.564M964.16 778.875l.527-.34.003-.004M961.258 780.366l2.901-1.491M958.676 774.817l.592.183M971.119 771.65l-.003.005-.431.304-.016.011-.524.208-.582.093-.617-.026-.629-.143-.616-.256-.581-.359-.522-.447-.03-.035-.087-.103-.326-.381-.349-.57-.239-.6-.122-.607.001-.59.124-.551.014-.029.227-.462.31-.364.009-.01.032-.037.005-.004M971.477 768.402l.239.601.122.607-.002.591-.125.551M973.137 770.878l.604-.427.004-.004M967.133 766.175l.582-.094.618.026.629.143.618.256M966.244 764.978l-.674 2.625M970.672 771.97l2.465-1.092M970.223 766.917l.462.395.444.52M982.097 757.592l.337.588.22.627.094.643-.035.633-.162.599-.285.542-.39.459-.005.005-.368.277-.013.009-.109.082-.526.241-.041.018-.622.14-.652.014-.658-.111-.639-.232-.595-.345-.528-.444-.441-.525-.337-.587-.01-.03-.044-.123-.166-.474-.095-.642.034-.633.011-.041.13-.478.007-.026.014-.054.284-.542.394-.464.006-.004.484-.366.567-.259.622-.14.652-.015.659.111M976.119 757.243l-.092 1.713M982.586 761.78l.766-.35.663-.498.004-.005M980.816 762.315l1.771-.535M980.105 756.122l.425.155.595.345M994.303 749.449l-.313.58-.419.498-.005.006-.52.408-.595.297-.649.174-.495.032-.059.004-.053.004-.069.004-.678-.086-.654-.215-.604-.334-.533-.441-.439-.53-.329-.6-.013-.04-.011-.034-.012-.036-.171-.537-.055-.478-.016-.137-.006-.053.056-.664.188-.634.312-.581.424-.504.006-.005.514-.404M994.473 747.48l.076.669M987.516 748.549l.376.701M991.887 751.529l.913-.06.876-.235.805-.401.702-.551.005-.006M990.352 744.672l.455-.031.157-.01M991.027 744.627l.678.086M991.129 751.456l.76.074M992.965 745.262l.532.441.44.531M1005.82 738.551l-.01.006-.53.433-.61.32-.66.195-.69.063-.68-.071-.67-.204-.61-.327-.53-.439-.44-.534-.32-.608-.205-.658-.068-.684.06-.614.007-.07.036-.119.16-.537.33-.604.44-.529v-.004M1005.33 739.869l.83-.433.72-.584v-.006M1005.28 733.162l.53.439.44.534M1018.63 725.628l-.43.531v.006l-.53.441-.61.328-.66.203-.68.069-.69-.066-.66-.2-.61-.325-.53-.438-.44-.535-.33-.61-.2-.663-.07-.689.07-.69.04-.15.06-.202.09-.311.33-.612.43-.537.01-.005.52-.435M1019.15 724.353l-.19.663M1014.35 720.41l.36-.111.21-.063.09-.029M1017.65 720.729l.53.438.44.534M1026.57 714.51l-.6-.327-.53-.439-.44-.533-.33-.608-.21-.658-.08-.684.02-.364.01-.156.02-.163.18-.655.3-.604.42-.528.51-.432.59-.32.64-.196.36-.034.17-.015.14-.014.67.072.65.203.61.327.53.438.44.533.33.607.21.658.08.683-.05.683-.18.656-.3.603-.42.529-.51.432-.59.321-.64.196-.67.063-.68-.071-.65-.203ZM1031.47 712.776l.07-.922-.11-.923M1026.09 716.463l.91.096.9-.086M1035.54 704.153l.8.45.86.288.87.116.87-.062.83-.236.75-.402.64-.552M1042.53 700.077l-.15.634-.12.257-.15.323-.38.504-.48.408-.55.298-.61.174-.65.046-.65-.086-.63-.214-.59-.333-.53-.44-.44-.53-.34-.599-.23-.646-.02-.152-.02-.134-.06-.382.02-.663.16-.634.27-.579.38-.504.48-.408.55-.296.61-.174.1-.007.55-.038.65.086.07.025.12.041.44.148.59.333.53.44.44.529.34.599.23.645.1.667-.03.662Zm0 0-.28 1.356M1039.05 695.903l-1.51-.109M1045.77 693.231l.77.464.83.312.83.148.82-.022.77-.191.68-.352.58-.499.45-.628.31-.732M1052.65 689.628l-.23.541-.33.465-.14.119-.29.25-.5.26-.57.141-.61.015-.61-.109-.61-.231-.58-.343-.52-.443-.45-.524-.2-.337-.07-.11-.08-.14-.25-.626-.13-.641-.01-.632.11-.597.22-.542.34-.463.34-.292.09-.077.51-.259.56-.14.61-.015.61.11.61.231.57.339.01.004.09.078.43.364.44.524.36.585.24.625.14.641.01.631-.11.598Zm0 0-.84 2.103M1048.64 684.914l-2.25.449M1054.75 683.342l.76.482.78.343.78.191.75.031.7-.129.6-.284.5-.429.37-.557M1061.33 680.239l-.27.411-.37.317-.44.205-.01.005-.51.095-.56-.024-.58-.141-.58-.254-.55-.357-.27-.236-.12-.1-.13-.11-.45-.517-.37-.569-.27-.6-.17-.606-.06-.589.06-.55.16-.459.01-.031.27-.411.37-.316.45-.209.51-.094.56.025.58.142.58.254.55.357.51.444.45.517.07.106.08.128.22.334.28.598.16.605.06.589-.05.551-.17.49Zm0 0-1.34 2.751M1056.94 675.192l-1.74.594-.01.002-.03.012-.01.002-1.09.369M1073.76 665.401l-.22.181-.3.081-.38-.024-.44-.126-.48-.225-.51-.314-.51-.392-.49-.454-.46-.499-.41-.524-.01-.021v-.002l-.33-.508-.25-.515-.06-.164-.11-.316-.07-.427.03-.357.12-.274.22-.18.14-.036v-.001l.17-.042.12.007.26.017.31.089v.002l.13.036.48.225.5.314.51.391.49.453.45.491v.001l.01.006.41.524.34.529.26.514.11.319.05.161.08.427-.03.358-.13.275Zm0 0-.92 1.64-.33.598-.73 1.309M1069.1 660.341l-1.62.791-.01.003-.54.263v.003l-1.45.705M1069.3 668.8l.66.303.13.038.23.066.23.066.51.031.42-.11.29-.246M1077.15 660.575l-.14.103-.2.005-.02.001-.31-.092-.37-.185-.21-.134-.22-.139-.46-.349-.49-.412-.22-.214-.01-.011-.01-.001-.24-.233-.46-.488-.33-.376-.1-.123-.38-.491-.31-.463-.09-.167-.14-.25-.14-.356-.05-.281.05-.195.14-.102.23-.005.3.092.38.186.28.183.02.009.12.081.47.349.48.411.48.458.46.487.43.498.38.489.11.172.19.291.24.417.14.353v.004l.05.281-.05.197Zm0 0-.61 1.07-1.52 2.67M1072.44 655.622l-.58.305-.54.285v.001l-.01.001-.56.297-.13.07-1.24.653v.002"/><path d="m1073.79 664.18.33.162.41.123.31-.01.19-.14M1078.44 657.792l-.05.022-.15-.072-.23-.162-.31-.247-.12-.11-.25-.213-.42-.385-.46-.433-.47-.464-.47-.477-.45-.473-.41-.449-.36-.408-.29-.353-.21-.282-.13-.202-.04-.113.06-.021.15.073.23.163.21.17.1.078.37.322.42.384.46.432.47.463.46.477.45.471.41.448.36.409.3.352.21.283.13.202.03.115Zm0 0-1.29 2.301M1073.62 652.971l-.27.152-1.91 1.053v.002l-.7.385-.48.269"/><path d="m1074.27 653.356-.05-.045-.41-.353-.35-.287-.29-.208-.2-.122-.12-.031-2.45 1.386v.002l-.25.141M1070.4 653.696l-.15-.024-.2.049M937.844 786.607l-1.012 1.797.002.146.094.233.182.31.051.073"/><path d="m938.346 787.021-.874 1.578-.314.568-.424.764.009.027.102.119.189.206.271.285.341.353.399.407.44.445.466.469.474.471.463.458.434.425.39.378.329.315.257.241.174.157.085.066 1.32-.75"/><path d="m936.734 789.931.084.065.173.156.256.24.33.315.389.378.435.426.464.459.475.473.467.469.442.447.399.408.341.353.271.284.188.205.101.118.008.026M1149.66 861.754l.24-.293.29-.241.32-.18.36-.112.37-.039.37.035.36.108.33.176.29.238.24.29.18.332.11.361.04.376-.04.376-.1.362-.18.334-.23.293-.29.242"/><path d="m1152.75 864.516.01-.003.31-.396.24-.452.14-.489.05-.509-.06-.507-.15-.488-.24-.449-.32-.393M1150.89 864.708l-.36-.108-.33-.176-.29-.238-.23-.291-.18-.332-.11-.361M1151.99 864.592l-.35.111M1149.38 862.451l.11-.362M1143.17 868.196l.29-.234.34-.172.36-.105.37-.033.38.04.36.111.33.178.29.239.24.29.17.33.11.357.04.371-.04.37-.11.355-.18.327-.24.285"/><path d="M1146.33 870.95v-.002l.33-.386.24-.442.14-.48.06-.5-.05-.502-.15-.482-.24-.446-.32-.392M1144.52 871.45l-.37-.04-.36-.111-.33-.178-.29-.239-.24-.29-.18-.33-.11-.357-.03-.37M1145.59 871.14l-.34.172M1142.75 868.808l.18-.327M1136.03 876.617l-.11-.349-.04-.361.03-.357.11-.341.17-.311.24-.27.29-.217.33-.157.35-.091.38-.021.37.05.36.119.33.183.29.24.23.288.18.325.11.35.04.36-.03.358-.11.341-.18.311-.23.269-.29.218-.33.157M1139.89 877.092v-.002l.32-.364.24-.421.14-.461.05-.483-.05-.487-.15-.472-.24-.44-.32-.39M1137.06 877.652l.36.119.37.05.37-.021M1129.89 880.548l.28-.193.23-.096.09-.039.34-.069.37-.003.36.065.35.13.33.19.29.242.24.285.18.318.11.338.05.345-.03.339-.09.319-.17.288-.11.126-.09.097v.005l-.02.018M1133.64 882.746v-.002l.31-.332.22-.39.13-.432.03-.458-.06-.466-.16-.457-.24-.43-.32-.386M1130.93 883.588l.37.065.36-.002.35-.07.31-.134M1130.26 883.269l-.29-.242-.24-.286-.18-.317-.12-.338-.04-.345.02-.338.01-.038.01-.011.08-.271.16-.288M1123.77 885.772l.25-.163.3-.105.33-.043.35.022.35.084.34.144.32.198.29.245.24.282.18.308.13.323.06.325-.01.315-.08.292-.08.13v.003l-.07.125-.2.215M1127.78 887.731v-.002l.28-.29.19-.349.11-.395.02-.425-.08-.44-.17-.437-.25-.417M1123.34 886.851l.05.325.02.055.11.268.18.308.25.282.28.244.32.199.34.144.07.015.11.027.17.042M1118.08 890.311l.17-.178.23-.127.05-.012v-.001l.22-.057.31-.01.32.049.34.107.32.161.32.208.28.248.24.278.2.297.13.305.08.302.01.271v.014l-.06.259-.12.223-.17.178v.002l-.23.124M1122.51 891.892l.24-.241.16-.301.07-.351-.01-.386-.11-.408-.18-.412-.26-.402M1118.85 892.506l.31.209M1119.82 892.982l.32.049"/><path d="m1120.95 892.826 1.54-.923.01-.009.01-.002M1117.91 890.793l.01.286M1118.13 891.684l.19.297M1113.52 893.5l.19-.086.24-.03.27.025.28.075v.001l.02.005.31.133.31.18.31.219.27.252.25.273.2.284.07.13.01.006.07.149.1.274.04.254-.03.222-.09.183-.14.137v.001M1114.57 895.882l.31.179M1115.2 896.193l.29.081M1115.77 896.301l.23-.03M1113.29 893.82l.08-.184"/><path d="m1116.2 896.185 1.76-1.078v-.003"/><path d="m1117.96 895.104.04-.037.16-.148.11-.247.04-.302-.05-.341-.13-.373-.2-.385M1113.26 894.042l.04.253M1113.39 894.57l.15.284M1113.75 895.138l.24.273.28.251M1109.7 895.775l.05-.014.1-.027.2.012.24.064.27.115.29.16.29.2.29.232.27.255.25.268.21.27.17.264.12.245.07.219.01.182-.05.141-.11.091v.001M1114.3 897.274l.14-.125.07-.19-.01-.248-.09-.295-.16-.332-.23-.357-.29-.366M1111.22 898.142l.29.16.09.04v.001l.01.004.17.07.24.064.2.013M1109.59 895.867l-.05.141.01.183.06.218.12.245M1112.37 898.453l1.93-1.178M1110.12 897.188l.25.268.27.254M1106.83 897.039l.01-.096.06-.047.12.005.16.057.2.104.23.149.26.19.28.221.17.154.1.091.27.258.25.263.23.255.07.091.12.151.14.216.1.182.05.141-.01.096-.06.042-.01.003-.11-.005-.16-.055-.2-.105-.24-.15"/><path d="m1109.57 899.566 1.72-1.024.32-.193M1107.31 897.82l.22.256.08.081.17.181"/><path d="m1107.5 895.639-.01.027-.08.157-.06.113-.16.319-.35.689-.01.096.05.142.1.182.14.216.19.24.23.256.07.082.18.181.27.258.27.244.27.221.03.021.23.168.24.15.2.105.16.056.11.005v-.001"/><path d="m1107.02 896.902.16.056.2.105.23.15.26.189.27.221.18.154.1.09.27.259.25.262.23.257.07.09.11.151.15.215.1.182.04.142-.01.096M1106.84 896.943v-.002l.06-.044M1110.04 894.87l-.01.024-.36.798v.002l-.08.175-.05.14.01.183.06.219.12.245.17.263.22.27.24.268.28.255.29.231.29.2.29.16.09.039.01.007.16.069.24.065.21.012.15-.041v-.001"/><path d="M1109.59 895.868v-.003l.1-.09.05-.014.01-.001.1-.026.2.012.24.064.26.115.29.161.29.2.29.231.28.255.25.268.21.271.17.263.12.246.06.218.01.183-.05.14-.1.091v.001M1114.02 891.908l-.74 1.914-.02.223.03.253.1.274.15.285.2.284.25.273.28.251.3.219.31.18.31.133.3.081.27.026.24-.031.2-.085 1.76-1.081"/><path d="m1114.83 893.625.31.18.3.22.28.251.25.273.2.285.07.125v.005l.08.155M1116.42 895.393l.03.253-.02.223M1113.94 893.386l.28.026.28.076v.002l.01.003M1113.28 893.822l.02-.034.07-.149.14-.137M1118.46 888.796l-.5 1.741-.06.259.01.286.08.301.14.305.19.297.24.277.28.248.32.208.32.161.34.107.32.049.31-.01.27-.069.22-.126 1.56-.935"/><path d="m1119.38 889.979.33.107.33.159.31.21.29.248.24.276.19.299.14.305.07.3M1121.24 892.429l-.12.223M1118.48 890.009l.05-.014v-.001l.22-.055M1122.5 891.895v-.001M1117.96 890.537l.01-.015.11-.208.17-.178M1123.56 885.119l-.22 1.422v.036l-.01.279.06.324.02.041.11.282.18.308.24.282.29.245.32.198.34.144.08.018.11.026.16.04.35.021.32-.042.3-.105 1.23-.684"/><path d="m1126.53 886.439.19.308.12.323.06.325-.01.315M1126.81 888.003l-.07.126v.004l-.07.128M1124.02 885.613l.3-.105M1127.43 887.953l.35-.22v-.003M1123.34 886.54l.01-.038.07-.254.14-.258.05-.053.01-.005.15-.157M1126.47 888.476l-.24.151-.02.011M1124.65 885.466l.34.021.36.084.34.144.32.198M1129.29 880.704l.09 1.042.05.345.11.338.18.317.24.286.29.242.33.189.35.13.36.065.36-.002.35-.07.32-.134.47-.219.47-.223"/><path d="M1129.38 881.746v-.038l.02-.3.02-.049v-.011l.08-.26.16-.288.23-.246.27-.193.24-.099.08-.036.35-.069.36-.003.36.065.35.13.33.19.29.242.24.285.18.318.11.338.05.345-.03.339-.09.319-.16.288-.11.12-.09.098-.01.005-.02.023-.26.186-.01.007M1133.27 883.01l.37-.261v-.003M1135.92 876.562l.28.385.24.287.28.242.34.182.35.118.38.051.37-.02.41-.083M1138.5 874.315l.33.183.29.241.24.288.18.325"/><path d="m1136.2 876.947-.03-.054-.05-.085-.02-.037-.08-.149-.11-.349-.04-.36.04-.358.1-.34.18-.312.23-.269M1139.54 876.761l-.17.311M1136.71 874.416l.33-.157M1138.57 877.724l.48-.123.44-.212.39-.294.01-.003M1139.13 877.342l-.29.217-.33.157-.03.007-.02.007-.22.056-.08.021M1143.78 871.305l-.33-.179-.29-.238-.24-.29-.18-.33-.11-.357-.03-.371.03-.37.11-.355.18-.327.24-.285.29-.234.34-.172.36-.105.37-.033.38.039.36.112.33.178.29.239.24.29.17.33.11.357.04.371-.04.37-.11.355-.18.327-.24.285-.29.234-.33.172-.36.105-.38.033-.37-.04-.36-.111Z"/><path d="m1143.5 871.484.48.151.51.054.51-.045.48-.142.45-.233.4-.316v-.003M1149.51 864.862l.44.238.49.146.5.047.5-.053.48-.151.45-.244.38-.326.01-.003"/><path d="m1150.53 864.606-.33-.176-.29-.238-.24-.291-.18-.333-.11-.36-.04-.375.04-.377.1-.362.18-.334.23-.294.29-.24.33-.18.35-.112.37-.039.37.035.36.108.33.176.29.238.24.29.18.331.11.362.04.375-.04.377-.1.362-.17.334-.24.293-.29.242-.32.18-.36.11-.37.041-.37-.035-.36-.108ZM1155.41 858.016l.39.322.45.238.47.146.49.048.49-.053.46-.15.43-.242.37-.326.3-.395.22-.45.12-.489.04-.507-.07-.507-.16-.487-.24-.448-.33-.392"/><path d="m1157.09 857.778-.32-.176-.29-.238-.24-.291-.18-.331-.12-.361-.05-.375.02-.375.1-.361.16-.334.22-.292.28-.24.31-.179.34-.111.37-.039.36.035.35.108.33.176.28.238.24.291.19.331.11.36.05.375-.02.376-.1.361-.16.333-.22.293-.27.24-.32.179-.34.111-.36.039-.37-.035-.35-.108ZM1161.35 851.558l.38.322.44.242.46.151.47.056.47-.043.44-.139.39-.231.35-.312.27-.383.18-.418"/><path d="m1165.08 850.724-.18.165-.29.17-.33.103-.34.032-.35-.041-.34-.112-.32-.179-.29-.239-.24-.289-.19-.329-.12-.355-.06-.369.01-.368.05-.252M1183.02 826.028l-.06.079-.11.024-.16-.03-.19-.085-.23-.136-.01-.009-.23-.172-.12-.097-.14-.123-.27-.25-.14-.147-.12-.124-.24-.281-.21-.28-.18-.269-.01-.016-.07-.133-.06-.098-.07-.172v-.002l-.02-.042-.04-.176.01-.13.07-.078.11-.024.09.017v.001l.06.013.2.085.22.136.25.181.26.22.27.25.04.04.21.23.24.28.22.28.09.145.09.124.13.247.09.216.04.176-.01.13Zm0 0-.65 1.11M1180.42 823.281l-.28.14-.1.05-.05.024-.3.151-.15.07-.31.158M1183.35 823.956l-.06-.017-.12-.07-.16-.118-.19-.163-.23-.202-.16-.149-.08-.083-.26-.254-.26-.265-.26-.267-.23-.259-.21-.24-.17-.212-.13-.176-.08-.134-.04-.085.02-.035.06.018.12.07.16.119.19.163.23.201.25.232.25.253.26.265.26.267.04.05.19.209.21.239.17.212.13.177.09.134.03.085-.02.035Zm0 0-.67 1.179"/><path d="m1180.73 821.227-.06.033-.83.45v.001l-.51.273"/><path d="m1182.55 822.865-.06-.087-.12-.153-.17-.192-.2-.222-.23-.244-.26-.258-.26-.26-.26-.253-.26-.236-.23-.21-.21-.177-.17-.135-.13-.09-.08-.04-.03.011-1 .576v.001l-.12.069M1178.88 820.894l-.15-.104-.1-.059M1105.02 895.044l-.34.581.03.096.07.142.12.185.17.219.2.246.07.081"/><path d="m1105.91 895.542-.34.624-.23.428-.14.249.04.052.08.1.13.146.18.185.21.218.23.242.26.257.26.262.26.256.25.242.23.218.2.185.16.146.12.1.07.051h.02l.73-.42"/><path d="M1105.2 896.843h.02l.07.05.12.1.16.145.2.186.23.217.25.242.26.257.27.263.25.257.24.242.21.218.17.185.13.146.09.1.03.052M674.094 379.922l.255.477.155.516.051.536-.056.536-.161.514-.259.474-.347.414-.005.004-.417.335-.482.251-.522.154-.542.049-.541-.056-.521-.159-.479-.257-.419-.344-.343-.419-.255-.476-.155-.516-.051-.537.056-.535.161-.515.259-.473.344-.41.003-.005.423-.339.481-.251.522-.153.542-.049.542.056.52.159.479.257.419.344.343.418ZM664.328 389.6l.257.479.16.519.057.54-.048.54-.152.519-.249.479-.338.42-.004.004-.408.341-.472.257-.513.158-.534.054-.535-.052-.516-.157-.476-.255-.418-.344-.344-.419-.257-.478-.161-.519-.057-.54.048-.54.152-.519.249-.479.334-.416.004-.004.412-.345.472-.257.513-.158.534-.054.536.052.515.157.476.255.418.343.345.419ZM650.133 400.279l.05-.192.009-.037.073-.284.228-.472.312-.409.003-.004.39-.338.45-.251.493-.152.517-.049.521.056.504.16.47.257.416.344.346.418.263.476.171.515.071.536-.031.535-.132.513-.229.472-.315.413-.004.004-.386.334-.45.25-.493.152-.517.049-.52-.057-.505-.16-.19-.104-.053-.029-.226-.123-.415-.344-.346-.418-.264-.476-.17-.515-.072-.535.031-.535Zm0 0 .006-.044M651.367 403.102l.098.066M641.752 409.089l.196-.454.242-.34.008-.01.028-.039.003-.005.356-.319.417-.232.463-.136.49-.034.499.068.488.168.459.262.411.345.349.416.273.47.186.506.092.522-.005.52-.102.495-.196.454-.282.394-.004.003-.352.315-.417.232-.317.092-.016.005-.13.038-.49.034-.498-.068-.488-.168-.458-.262-.412-.345-.349-.415-.272-.47-.186-.505-.093-.522.005-.52.102-.495Zm0 0 .196-.456M644.398 412.858l.063.003M634.195 418.219l.064-.468.153-.424.234-.359.003-.004.312-.289.129-.07.006-.003.239-.129.423-.11.455-.011.47.087.467.182.445.27.406.347.353.412.285.46.206.49.119.503.028.495-.063.468-.154.424-.238.362-.003.003-.173.16-.008.007-.128.118-.375.202-.423.109M636.501 421.374l-.466-.182M634.55 419.705l-.206-.49M628.305 424.769l.259-.247.324-.164.363-.071.005-.001.007-.001.414.019.435.113.441.2.428.28.401.351.356.406.299.447.23.47.152.475.068.463-.017.431-.068.248-.002.008-.034.128-.185.321-.003.003-.257.244-.323.163-.376.073-.413-.021-.435-.112-.44-.2-.428-.281-.4-.35-.356-.405-.299-.447-.23-.469-.152-.475-.069-.462.018-.431.103-.384.182-.318.002-.004Zm0 0 1.218-2.099M631.598 429.055l.02-.006M623.394 431.415l.2-.198.266-.117.323-.03.366.058.397.143.222.12.009.005.18.097.41.294.393.354.361.4.315.431.256.445.152.356.005.011.032.076.113.422.034.387-.047.335-.126.272-.002.002-.198.195-.267.116-.322.029-.367-.058-.396-.143-.41-.223-.41-.293-.392-.353-.36-.4-.315-.43-.256-.445-.189-.442-.114-.422-.034-.386.046-.336.124-.269.001-.003Zm0 0 1.534-2.563M626.789 435.589l.121-.049M620.1 437.534l-.09-.336-.014-.281.061-.213.001-.002v-.001l.136-.141.204-.062.266.019.316.1.354.178.38.248.39.309.385.357.365.393.332.413.285.417.229.405.161.378.09.335.013.281-.018.062-.001.003-.043.15-.002.001-.135.14-.205.061-.265-.02M622.242 440.201l-.389-.309-.384-.357-.365-.392-.331-.412M621.736 433.906l-1.681 2.796M620.49 438.316l-.228-.405M618.371 440.481l.003-.003.067-.077.141-.004.206.073.264.147.311.215.035.028.312.247.227.201.141.124.377.362.192.2.179.186.349.393.315.386.269.365.212.328.147.281.076.221.003.153-.001.001-.069.078-.141.004-.207-.074-.238-.133-.025-.014h-.001l-.311-.216-.346-.275-.262-.231-.106-.093-.376-.362-.004-.004-.366-.38-.349-.393-.314-.385-.134-.182-.135-.183-.212-.328-.148-.281-.077-.221-.004-.152v-.002Zm0 0 .569-.96 1.163-1.964M622.129 444.386l.003-.001M717.8 344.671l-.135.285-.217.22-.292.145-.354.066-.374-.015-.03-.001-.437-.098-.456-.177-.455-.247-.437-.309-.402-.359-.352-.395-.288-.415-.213-.421-.079-.254-.05-.155-.041-.381.046-.34.136-.285.219-.219.291-.145.355-.065.404.017.437.099.455.176.454.247.437.309.401.358.35.394.288.415.213.42.131.408.042.382-.047.34ZM713.589 341.316l-2.484 1.447"/><path d="m622.196 444.307-.066.077-.004.004-.141.003-.207-.073-.235-.132-.017-.01-.011-.006-.311-.215-.347-.275-.274-.242-.094-.083-.376-.361-.005-.005-.365-.38-.348-.392-.315-.386-.135-.182-.134-.182-.212-.329-.147-.28-.078-.221-.003-.154v-.001l.069-.08M620.648 441.996l.179.186.349.394.315.386.269.364.212.329.147.28.076.221M618.789 440.472l.264.147.311.216M619.398 440.861l.312.248.231.204.138.121.377.362M620.056 436.702l-.002.004-.062.215.014.281.09.336.008.019.001.001.016.037v.002l.137.318.228.405.285.416.332.412.365.392.384.357.389.309.379.247.355.178.316.101.265.02.205-.062.197-.091.109-.051.002-.001"/><path d="m620.055 436.706.001-.002.134-.14.205-.062.265.019.316.1.355.178.38.248.389.309.385.357.366.393.332.413.285.417.228.405.162.378.09.335.013.281-.017.057v.003l-.045.152v.003l-.132.135-.005.005M627.425 434.673l-.047.335-.125.269-.001.003-.201.197-.142.062-.124.054-.323.029-.366-.058-.396-.143-.411-.222-.409-.294-.393-.353-.36-.4-.314-.43-.257-.444-.189-.442-.114-.423-.034-.386.046-.336.126-.272.002-.002.197-.196.267-.116M625.176 431.4l.009.005.17.092.41.294.393.354.361.4.315.431.257.445M624.93 428.848l-1.539 2.572M632.178 428.648l-.002.003-.259.247-.299.151-.025.012-.376.073-.413-.02-.435-.113-.44-.2-.428-.28-.4-.35-.356-.406-.299-.446-.229-.47-.153-.474-.068-.462.017-.432.103-.384.184-.321.003-.003.256-.245.324-.164M632.262 426.577l.152.476.069.462M629.626 422.492l-1.325 2.284M632.467 427.945l-.065.241-.002.008-.037.135M629.262 424.291l.413.02.435.112M630.977 424.904l.4.35.356.406M635.365 415.521l-.96 1.812-.153.424-.064.468.028.494.12.502.207.49.284.46.352.411.406.347.445.27.465.182.47.087.454-.011"/><path d="m634.406 417.333.012-.018.225-.345.003-.003.308-.286.136-.073.005-.003.234-.126.423-.109.455-.012.47.087.467.182.445.27.406.347.353.412.285.46.206.491.119.502.028.495-.064.468-.153.424-.235.358-.003.004-.169.156-.007.007-.136.125-.375.203-.343.088-.08.02M646.122 412.143l-.003.005-.356.318-.417.232-.301.088-.016.004-.146.043-.42.029-.07.005-.498-.068-.488-.168-.458-.262-.412-.345-.349-.415-.272-.47-.186-.505-.093-.522.005-.52.102-.496.196-.453.007-.01.243-.34.007-.011.024-.033.004-.003M643.945 407.527l.498.068.489.168.458.262.412.345.349.416.273.469.186.506.092.523M646.597 411.3l-.195.454M642.578 407.93l.417-.232M642.284 407.842l-.538 1.254M654.708 402.79l-.004.004-.39.338-.45.25-.493.152-.516.049-.521-.056-.504-.16-.138-.076-.053-.029-.173-.094-.105-.058-.416-.344-.346-.418-.264-.475-.17-.516-.071-.535.031-.534.013-.053.046-.177.009-.037.063-.247.228-.472.315-.413.005-.004M653.676 398.314l.469.257.416.344.346.418.263.476M655.382 401.396l-.132.513M650.207 399.646l-.082.642M651.641 398.3l.493-.153M661.026 393.709l-.477-.255-.417-.343-.346-.419-.256-.478-.16-.519-.058-.54.049-.54.152-.52.249-.479.337-.42.005-.004.408-.341.472-.256.513-.159.534-.054.534.053.516.156.476.255.419.344.344.419.258.478.159.519.057.54-.047.54-.153.52-.248.479-.334.415-.004.005-.412.345-.472.256-.513.159-.534.054-.536-.053-.515-.157ZM673.727 383.394l-.004.004-.422.34-.481.251-.522.153-.542.05-.542-.056-.52-.16-.479-.257-.419-.344-.344-.418-.254-.477-.156-.516-.05-.536.056-.536.16-.515.259-.473.348-.414.005-.004M674.34 380.408l.156.516M672.324 378.753l.52.159M680.517 374.489l-.478-.262-.419-.345-.344-.417-.255-.471-.155-.507-.054-.525.055-.521.159-.499.257-.455.345-.396.419-.321.479-.234.52-.137.539-.036.54.068.518.167.477.262.419.346.343.416.255.47.157.508.052.524-.054.521-.159.498-.256.456-.344.397-.421.321-.479.234-.518.137-.54.036-.539-.067-.519-.168ZM693.808 362.938l.062.505-.013.157-.029.341-.145.47-.242.428-.33.365-.404.293-.464.205-.505.112-.528.013-.529-.086-.511-.181-.473-.27-.417-.349-.344-.412-.259-.463-.163-.491-.061-.505.043-.498.145-.472.243-.427.329-.366.323-.232.082-.059.464-.205.505-.111.527-.012.53.085.51.181.473.271.416.347.344.412.258.462.163.492ZM690.082 360.811l-1.105.387M702.781 356.164l-.121.435-.157.281-.059.107-.302.326-.377.251-.438.167-.481.076-.505-.018-.512-.11-.497-.2-.464-.281-.413-.351-.346-.408-.266-.449-.175-.473-.078-.478.023-.466.121-.435.217-.388.043-.046.26-.279.377-.251.438-.166.48-.076.506.018.511.111.497.2.463.28.413.351.345.407.266.449.175.472.078.479-.022.465ZM698.633 353.174l-1.68.825M710.784 349.952l-.18.34-.264.276-.216.128-.123.074-.401.12-.446.033-.476-.056-.486-.141-.479-.222-.451-.294-.408-.354-.349-.402-.276-.434-.191-.448-.101-.446-.007-.427.06-.261.029-.13.181-.339.265-.276.339-.202.401-.119.446-.032.476.056.485.141.478.222.451.294.408.354.348.401.275.433.192.448.101.445.007.427-.088.391ZM706.804 346.491l-2.054 1.141M723.413 341.138l-.163.158-.236.084-.302.007-.354-.07-.395-.145-.419-.215-.427-.275-.419-.325-.395-.363-.356-.388-.302-.396-.238-.389-.163-.369-.084-.332v-.285l.084-.225.163-.157.238-.084.301-.006.355.071.394.145.072.037.347.178.427.274.418.325.394.363.355.387.302.395.237.389.164.368.084.333.001.194v.09l-.083.226ZM719.407 337.453l-2.731 1.612M727.69 338.934l-.103.093-.176.02-.132-.029-.111-.025-.301-.127-.346-.194-.064-.043-.002-.001-.313-.21-.398-.304-.149-.128-.25-.215-.307-.291-.081-.077-.177-.186-.182-.193-.319-.375-.264-.358-.111-.179-.09-.147-.129-.281-.043-.188-.009-.038.026-.163.103-.092.177-.02.244.056.3.127.347.194.019.013.359.241.397.304.399.342.061.059.326.308.359.379.053.062.264.313.265.357.2.324v.001l.002.003.128.278.053.227-.025.163Zm0 0-.217.429-.002.003-.144.286-.017.034M723.76 335.203l-.315.184-2.597 1.52M730.373 338.392l-.039.027-.113-.045-.181-.117-.243-.184-.296-.243-.337-.295-.365-.333-.38-.36-.379-.373-.364-.371-.285-.301-.05-.053-.293-.325-.24-.283-.177-.229-.108-.167-.035-.1.04-.027.113.046.182.118.243.184.296.244.337.294.365.333.378.36.177.173.202.199.363.369.335.355.292.324.24.282.178.23.109.168.035.1Zm0 0-.108.198-.259.476M726.53 334.613l-1.682.96"/><path d="m731.266 339.772.175-.306-.048-.109-.118-.178-.184-.24-.244-.292-.294-.334-.333-.363-.359-.377-.371-.377-.369-.362-.352-.334-.148-.135M618.946 441.649l-.568.991-.003.017.069.089.14.16.205.222.263.278.309.322.344.354.366.372.374.376.368.366.347.341.314.304.267.255.212.196.147.129.077.058.457-.249.039-.021"/><path d="m618.379 442.641.077.057.147.129.211.196.268.255.314.304.347.342.369.367.375.376.367.373.345.355.309.322.262.277.205.223.139.159.069.088-.005.016M690.061 395.041l.276.516.169.56.055.582-.06.581-.174.558-.281.514-.376.45-.005.004-.453.364-.522.273-.565.166-.588.054-.587-.06-.564-.173-.52-.278-.454-.374-.373-.453-.276-.517-.168-.56-.056-.582.061-.581.174-.559.28-.513.373-.445.004-.005.458-.368.081-.042.013-.007.428-.224.565-.166.588-.054.587.061.288.088.005.001.271.083.519.279.455.373.372.454ZM679.472 405.539l.279.518.173.563.062.585-.052.586-.165.563-.271.519-.366.455-.005.005-.443.369-.512.278-.556.171-.58.059-.58-.057-.56-.17-.516-.277-.453-.373-.374-.454-.279-.518-.173-.563-.062-.585.052-.586.165-.563.271-.519.362-.45.004-.005.447-.374.512-.278.557-.172.58-.058.58.057.559.17.517.277.453.372.374.455ZM664.062 417.099l.025-.099.01-.04.108-.417.248-.511.339-.442.003-.005.424-.366.489-.27.535-.165.561-.052.565.061.548.174.509.279.451.373.376.453.285.516.185.559.076.58-.034.579-.144.555-.248.512-.343.446-.004.005-.42.361-.489.27-.535.164-.561.052-.565-.062-.547-.173-.179-.098-.057-.031-.273-.15-.451-.373-.375-.453-.285-.515-.185-.559-.077-.58.035-.578Zm0 0 .003-.039M665.398 420.158l.126.083M654.946 426.619l.213-.49.226-.315.009-.012.068-.094.003-.005.387-.344.454-.25.503-.146.532-.036.542.075.529.183.498.284.447.375.378.45.296.509.201.548.099.566-.007.561-.112.537-.213.49-.307.425-.004.004-.383.34-.454.249-.311.09-.018.005-.174.051-.532.035-.541-.075-.529-.183-.498-.284-.446-.374-.378-.45-.295-.509-.201-.547-.1-.565.007-.562.111-.536Zm0 0 .064-.156M657.816 430.704l.08.003M646.956 435.502l.256-.387.003-.005.339-.31.113-.06.006-.003.289-.155.46-.116.495-.011.51.096.507.198.482.294.441.376.382.446.309.498.222.531.129.543.029.535-.071.506-.168.457-.259.391-.004.003-.162.148-.009.008-.165.15-.408.217-.459.116-.495.01-.51-.096-.506-.199-.482-.293-.44-.376-.382-.445-.308-.498-.222-.53-.129-.543-.03-.534.07-.505.167-.457Zm0 0 .006-.011M650.223 439.968l.102-.02M640.094 443.851l.2-.342.002-.004.282-.266.353-.174.376-.071.006-.001.027-.005.449.023.474.124.478.218.465.305.434.38.386.44.323.484.249.508.163.513.073.499-.021.465-.067.241-.002.007-.045.165-.203.345-.003.003-.28.262-.353.174-.408.076-.45-.024-.472-.124-.478-.218-.464-.305-.097-.085-.336-.295-.036-.04-.35-.399-.323-.483-.248-.507-.164-.513-.073-.498.02-.465.113-.413Zm0 0 .064-.112M643.859 448.144l.025-.008M634.924 450.626l.218-.212.29-.122.352-.03.398.065.431.157.239.13.01.005.198.108.444.319.426.384.391.433.219.3.122.166.277.48.008.021.137.322.006.012.052.123.121.455.035.415-.053.36-.139.291-.002.003-.217.208-.29.121-.352.029-.399-.065-.43-.157-.446-.243-.43-.31-.014-.009-.425-.383-.146-.162-.244-.27-.34-.466-.277-.48-.203-.476-.005-.017-.117-.438-.024-.279-.011-.137.052-.36.136-.288.002-.003Zm0 0 1.651-2.79M638.598 455.14l.289-.119M631.253 456.26l.15-.15.223-.063.29.024.344.112.385.194.407.267.005.004.423.335.417.388.396.425.359.446.308.45.245.436.174.406.046.174.049.186.012.3-.015.049v.002l-.055.178-.001.002-.149.147-.224.063-.079-.007-.211-.019-.343-.112-.386-.195-.066-.043-.345-.227-.081-.064-.341-.271-.417-.387-.394-.424-.359-.445-.307-.449-.246-.436-.066-.155-.108-.251-.027-.102v-.002l-.068-.256-.014-.3.069-.227v-.003Zm0 0 .094-.157 1.635-2.74M635.266 460.572l.004-.002M629.375 460.251l.002-.002.075-.081h.155l.225.083.287.162.281.196.058.04.376.3.4.353.408.392.047.049.354.368.378.424.34.417.289.392.228.352.157.3.08.235.001.162-.001.001-.077.081-.155-.001-.198-.073-.028-.01-.287-.163-.339-.236-.375-.3-.4-.352-.286-.275-.121-.117-.137-.142-.263-.273-.377-.424-.339-.416-.199-.269-.091-.122-.228-.353-.157-.3-.082-.235-.001-.161v-.002Zm0 0 .965-1.636.587-.996M633.438 464.475l.002-.002M737.188 356.646l-.142.311-.232.24-.313.16-.38.073-.426-.015-.008-.001-.473-.104-.238-.092-.253-.098-.491-.267-.472-.334-.435-.389-.382-.428-.313-.451-.232-.456-.093-.289-.05-.155-.048-.416.049-.37.143-.31.233-.24.313-.159.381-.072.435.016.472.106.375.145.115.044.423.231.067.036.471.334.435.388.38.427.187.269.126.181.232.456.017.052.127.392.048.415-.048.37Zm0 0-1.102 2.834M732.632 353.015l-2.706 1.559"/><path d="m633.515 464.234.001.16-.074.079-.004.005-.155-.001-.192-.071-.034-.012-.287-.163-.338-.236-.376-.3-.4-.352-.292-.281-.115-.111-.137-.143-.263-.272-.377-.424-.339-.416-.2-.27-.09-.121-.227-.353-.158-.3-.081-.236-.002-.162.001-.001.077-.082M632.422 462.538l.34.416M633.051 463.346l.228.353.157.3M629.605 460.171l.225.082.287.163M633.438 464.478l.628-.325 1.122-.579M630.457 460.65l.376.301M635.473 459.898l.013.3-.013.044-.001.002-.055.181-.001.002-.144.143-.006.006-.224.063-.079-.007-.211-.018-.344-.112-.379-.192-.006-.003-.411-.271-.115-.091-.308-.244-.416-.387-.395-.424-.358-.445-.308-.449-.245-.436-.068-.157-.106-.249-.028-.103v-.002l-.068-.255-.013-.3.069-.23.002-.001.147-.148.224-.064.289.024.344.112.386.195.403.264.009.006M634.648 458.246l.308.45.246.436.173.406.046.175M635.266 460.576l.344-.162.002-.001.746-.352M633.48 456.986l.417.388.396.425M639.241 454.523l-.137.288-.002.003-.216.207-.003.003-.29.122-.352.029-.399-.066-.43-.157-.446-.243-.433-.311-.011-.008-.425-.383-.146-.163-.244-.269-.34-.465-.277-.48-.203-.476-.005-.02-.116-.435-.025-.282-.011-.134.052-.36.138-.292.002-.002.216-.209M637.504 451.052l.426.383.391.433.218.298.123.168.277.481.007.018.133.312.005.012.058.135M636.579 447.83l-1.657 2.801M638.594 455.146l2.948-1.212M636.18 450.333l.154.056.277.1M644.495 447.708l-.002.004-.283.265-.323.159-.03.015-.409.076-.449-.024-.473-.124-.477-.219-.465-.304-.098-.087-.335-.293-.037-.042-.348-.397-.324-.483-.248-.507-.164-.513-.073-.498.021-.465.113-.413.069-.119.133-.227.003-.003.279-.263.353-.174.382-.072.006-.002.02-.003.45.023.473.124.478.218.465.305.434.38.386.44M644.227 444.794l.117.175.125.256M644.754 445.99l.072.499-.021.464-.064.234-.002.008-.048.171M641.442 441.486l-1.352 2.371"/><path d="m643.855 448.151.671-.216 1.729-.557M651.232 435.873l.308.498.223.531.128.543.029.535-.07.505-.132.359-.036.098-.257.387-.002.004-.159.145-.008.007-.173.158-.408.217-.278.07-.073.018-.109.028-.495.01-.509-.096-.506-.199-.483-.293-.44-.376-.381-.446-.308-.497-.223-.53-.129-.543-.03-.534.07-.505.168-.458.012-.018.246-.373.004-.003.336-.307.118-.063.006-.004.283-.151.46-.116.495-.011.51.096.507.198.483.293M647.975 433.522l-1.026 1.986M650.215 439.976l.165-.032.803-.154M656.737 430.455l-.497-.285-.447-.374-.378-.45-.295-.508-.201-.548-.099-.565.006-.561.112-.537.071-.164.142-.326.234-.326.008-.012.063-.087.005-.004.383-.341.453-.25.503-.146.532-.036.542.075.53.183.498.285.446.374.379.451.295.509.201.547.099.566-.007.562-.112.536-.213.49-.303.421-.004.005-.387.343-.454.25-.294.085-.017.005-.192.055-.444.03-.088.006-.541-.075-.529-.183ZM655.506 425.244l-.565 1.383M657.809 430.713l1.573.051M669.027 419.825l-.004.005-.424.365-.49.27-.534.164-.561.052-.565-.062-.548-.173-.121-.066-.057-.032-.196-.107-.134-.074-.451-.373-.375-.453-.286-.515-.185-.559-.076-.579.034-.579.012-.048.024-.091.01-.04.098-.377.247-.511.343-.447.005-.004M665.391 420.167l.539.354M669.753 418.315l-.144.555M664.121 416.389l-.07.72M665.699 414.959l.536-.165M679.916 406.629l.062.586-.053.585-.164.563-.271.52-.362.45-.004.005-.448.373-.512.278-.556.172-.58.058-.58-.057-.56-.17-.516-.277-.453-.372-.374-.455-.279-.518-.173-.563-.062-.585.052-.586.165-.563.271-.519.366-.455.005-.004.442-.37.512-.278.557-.171.58-.059.58.057.559.17.517.277.453.373.374.454.279.518M690.318 397.848l-.28.513-.372.445-.004.005-.458.368-.522.273-.566.166-.587.054-.588-.06-.564-.173-.519-.278-.455-.374-.372-.453-.276-.517-.169-.56-.055-.582.061-.581.174-.559.28-.513.377-.45.005-.004.453-.364.095-.05.013-.006.413-.216.566-.167.588-.054M689.227 394.223l.454.373.373.454.276.516.168.561M690.553 396.708l-.061.581M688.141 393.771l.283.087.005.001.276.085M697.017 389.138l-.518-.283-.454-.375-.373-.452-.276-.511-.17-.55-.058-.57.058-.566.115-.362.003-.008.054-.171.277-.495.373-.43.301-.232.153-.117.519-.254.562-.15.182-.012.402-.027.152.019.004.001.429.053.561.181.518.284.454.374.372.452.276.51.171.551.057.569-.058.566-.171.541-.277.495-.372.43-.455.349-.518.255-.562.15-.585.039-.584-.072-.562-.182ZM711.379 376.577l.068.548-.018.219-.027.322-.155.512-.261.464-.355.399-.437.317-.502.224-.546.122-.571.015-.573-.092-.553-.196-.513-.292-.451-.377-.374-.448-.28-.501-.178-.535-.067-.548.045-.541.147-.482.001-.003.008-.027.261-.465.052-.058.007-.008.297-.332.401-.29.036-.026.502-.224.546-.121.571-.015.572.092.553.196.512.292.451.377.373.447.281.501.177.534Zm0 0 .197 1.21M707.345 374.273l-1.012.333-.004.001-.035.011-.005.002M721.061 369.196l-.13.473-.188.344-.043.078-.326.355-.406.274-.472.182-.519.084-.547-.018-.553-.119-.538-.215-.502-.304-.448-.38-.375-.443-.289-.487-.191-.513-.085-.52.022-.507.13-.473.233-.422.075-.081.251-.273.407-.273.472-.182.519-.083.546.018.553.119.537.216.502.303.447.38.374.442.289.487.191.513.086.519-.022.506Zm0 0-.193 1.482M716.565 365.959l-1.842.879M729.668 362.419l-.192.37-.284.301-.259.157-.105.064-.431.132-.482.037-.513-.058-.525-.152-.517-.24-.489-.318-.442-.384-.378-.435-.299-.471-.21-.487-.111-.484-.009-.464.067-.303.027-.122.193-.37.284-.301.365-.22.431-.131.482-.037.513.059.524.152.516.24.488.317.442.384.377.435.174.273.125.197.103.239.107.247.111.484.01.463-.093.426Zm0 0-.73 2.54M725.359 358.671l-2.246 1.223M743.18 352.764l-.172.173-.253.093-.323.01-.38-.074-.425-.155-.451-.231-.461-.297-.453-.352-.427-.393-.007-.007-.378-.412-.317-.414-.012-.016-.259-.423-.18-.4-.093-.362-.003-.31.087-.246.173-.173.253-.093.323-.009.381.075.336.124.088.032.003.002.448.229.348.224.112.072.452.352.426.392.385.419.328.428.259.423.18.4.093.362.004.228.001.082-.086.247Zm0 0-.949 2.067M738.845 348.774l-.979.574-1.52.89-.471.276M747.703 350.318l-.107.103-.186.024-.259-.057-.167-.07-.155-.065-.372-.208-.367-.246-.003-.002-.038-.025-.428-.329-.431-.37-.419-.398-.349-.367-.041-.044-.346-.407-.163-.219-.125-.169-.185-.298-.035-.056-.143-.306-.06-.247.024-.179.108-.102.187-.023.26.058.322.135.302.17.07.039.407.273.427.328.355.305.076.065.418.397.389.41.345.406.288.388.182.293.004.005.034.055.143.307.062.247-.012.092-.012.087Zm0 0-.323.636-.002.003-.096.189-.013.026-.297.582-.006.012-.489.96"/><path d="m743.456 346.281-.855.499-.233.135-1.952 1.138-.119.069M750.501 349.67l-.038.033-.118-.047-.192-.124-.259-.197-.317-.262-.362-.317-.393-.36-.41-.389-.409-.403-.395-.401-.364-.384-.029-.033-.29-.32-.262-.307-.195-.25-.121-.184-.042-.109.039-.032.119.048.192.125.26.197.317.262.361.317.393.359.409.388.409.402.169.173.224.228.364.384.318.352.263.307.195.25.122.184.042.11Zm0 0-.134.245-.763 1.399-.002.003-.075.138M746.346 345.584l-1.819 1.037"/><path d="m750.706 352.25.843-1.477-.047-.116-.123-.19-.196-.258-.261-.314-.315-.36-.358-.39-.387-.407-.401-.408-.399-.392-.089-.084M633.961 466.343l.227.181.334.242.28.173.214.1.141.022.627-.356"/><path d="m629.933 461.426-.607 1.061-.006.014.072.093.15.168.219.237.282.297.333.346.372.381.395.401.405.407.398.396.377.371.34.331.291.278.231.215.161.144.086.067.529-.29.646-.354.508-.278"/><path d="m629.324 462.486.085.066.161.143.23.215.291.279.341.331.377.371.399.397.406.408.396.402.372.382.333.346.282.297.219.237.149.167.072.092-.007.013M1131.45 789.612l-8.6-5.111-8.59-5.111-8.6-5.111-8.59-5.111-8.6-5.11-8.59-5.111-4-2.373-8.59-5.111-8.6-5.111-8.59-5.111-4.97-2.953"/><path d="m1045.13 738.288 6.66 7.461 6.66 7.461 6.66 7.461 6.66 7.462 6.65 7.461 6.66 7.461 6.66 7.461 6.66 7.461 6.66 7.461 6.66 7.461 6.65 7.461 6.66 7.461 6.66 7.461 1.87 2.096.3.338.31.35 9.61 2.771 4.05 1.168.55.158 1.28.37.02.004.18.052.03.011.77.219.03.009.29.086.02.005 4.73 1.365 5.35 3.681 1.01.696 2.99 2.063.12.079 2.23 1.537.39.268 8.23 5.673.41.285.42.288L1180 861l2.41 1.958 2.45 1.992 1.78 1.45 2.51 2.041.03.026 7.76 6.308 4.8 3.897 7.81 6.248 7.8 6.247 6.6 5.276 7.73 6.344 7.73 6.344 6.5 5.334 3.72-.649 6.72-7.4.41-.448-6.83-7.298-6.75-7.2-6.84-7.298-6.77-7.228-6.84-7.298-6.79-7.256-6.84-7.297-6.83-7.284-6.93-7.203-6.94-7.203-6.03-6.265-.36-.368-2.06-2.147-.01-.002-.71-.747-2.51-2.602-6.43-6.674-.98-1.021-2.28-2.368-.93-.964-6.94-7.203-6.93-7.203-6.94-7.203-6.54-6.787-8.61-5.078-8.62-5.079-8.61-5.078-8.61-5.078-8.62-5.078-8.61-5.078-3.99-2.351-8.62-5.078-8.61-5.078-8.62-5.078-4.97-2.931-6.92 7.213-.21.211Z"/><path d="m1249.63 913.816-6.84-7.294-6.77-7.212-6.84-7.295-6.79-7.239-6.84-7.295-6.81-7.267-6.85-7.294-6.55-6.986-.29-.31-6.94-7.201-1.89-1.96-.65-.677-6.94-7.201-6.93-7.201-6.94-7.201-7.01-7.271-.47-.484-6.93-7.201-6.94-7.201-6.94-7.201-5.02-5.213 6.85-7.282.45-.481M1128.04 904.568l.68.646 7.26 6.876 5.98 5.66 7.26 6.876 6 5.681 2.92-.51 6.41-6.971-6.32-7.756-6.31-7.755-.71-.878"/><path d="m1158.14 929.798-6.33-7.746-6.32-7.745-1.37-1.676-.96-1.213M1536.34 443.635l5.07 2.027 9.42 3.345 4.49 1.595 8.08 2.613 7.63 1.814 9.78 2.075 6.99 1.481 8.17 1.14 9.96.89 8.07.721 8.44.208 10-.25 8.94-.224 8.43-.962 9.91-1.35 9.54-1.301 9.71-2.409 9.28-2.303 8.75-2.506 9.4-3.424 9.47-3.452 8.98-4.398 8.98-4.397 8.46-4.315 8.47-5.316 8.47-5.317.26-.167 7.86-6.182 8.02-6.303 7.59-6.193 7.17-6.979 7.16-6.98.21-.207 6.37-7.708 6.46-7.816 6.24-7.911 5.5-8.355 5.5-8.359 4.53-8.911 4.46-8.749 4.42-8.966.13-.254 3.5-9.369 3.29-8.84 2.66-9.639.18-.635 2.38-9.712 2.11-8.599 1.2-9.928 1.03-8.56 1.04-9.946.05-.505-.07-10-.05-7.801-.38-9.993-.03-.644-1.4-9.901-.95-6.722-.06-.399-.24-1.473-1.38-8.569-1.29-4.785-1.69-6.228M1848.32 168.246l-1.4-4.752-3.49-9.375-.33-.898-4.23-9.062-.7-1.498-4.44-8.957-.65-1.298-4.87-8.733-.35-.623-2.03-3.138-.6-.92-2.56-3.949v-.002l-.9-1.389M1803.14 90.729l-4.18-4.497-1.68-1.778-7.19-6.947-.26-.25-7.55-6.558-.11-.1M1710.96 31.204l-1.49-.554-9.57-2.905-1.4-.426-9.78-2.12-.75-.162-9.82-1.893-5.15-.994-9.93-1.21-1.16-.141-9.98-.521-6.57-.342-9.99-.156-1.26-.02-9.98.737-7.66.566-9.94 1.072-1.09.117-9.81 1.909-8.41 1.634-9.69 2.485-.73.188-9.54 3.008-8.77 2.768-9.15 4.043-8.57 3.79-9.14 4.065-.55.246-8.66 5.002-8.41 4.86-8.2 5.728-.11.078-8.08 5.898-7.96 5.815-7.41 6.716-7.36 6.663-6.66 7.142-6.66 7.459-6.55 7.33-5.84 8.119-5.75 8.003-4.78 8.073-4.95 8.69-4.73 8.31-3.99 9.169-3.82 8.783-2.89 8.513-2.98 9.545-2.72 8.703-1.92 9.815-1.75 8.978-.97 6.773-.24 1.639-.58 7.182-.81 9.967-.11 1.34.14 8.55.33 9.995.26 7.834 1.24 8.435 1.51 9.885 1.06 6.931 2.1 8.072 2.73 9.619 1.66 5.842 2.68 7.471 4.02 9.159 2.02 4.618 2.77 6.209"/><path d="m1824.54 117.449-4.12-9.114-.08-.18-5.42-8.406-5.49-8.524-6.52-7.588-5.83-6.792-7.51-6.595-7.52-6.594-1.2-1.053-8.24-5.668-7.93-5.456-8.96-4.443-8.96-4.443-.4-.199-8.66-2.811M1733.84 37.75l-.06-.095-.46-.698-3.9-1.562-.39-.156-2.84-1.105"/><path d="m1729.42 35.395-.5-.24-2.73-1.02-9.82-1.89-5.41-1.04-.01-.003M1779.82 63.935l-1.12-.6-1.05-.045-.19-.089-2.3-1.092-4.09-2.87-2.84-2.142-4.31-2.178-6.12-3.659-3.1-1.517-6.74-3.977-2.37-1.287-6.12-3.47-1.4-.959-1.58-.857-2.64-1.443-.49-.266M1779.38 70.035l1.4.042 1.48.792"/><path d="m1782.26 70.87-.09-.27-2.35-6.664-.16-.179-.28-.283-2.25-1.763-3.47-2.32-4.55-2.687-4.8-2.773-5.4-3.068-5.66-3.17-5.56-3.175-5.25-2.548-3.82-1.928-.93-.459-3.9-1.92-.01-.008M1733.36 37.485l-.01-.065-.03-.463M1715.53 32.999l4.85 1.947.02.543.01.157 2.27 1.243M1728.49 40.334l8.14 4.627M1752.9 54.009l8.17 4.88M1766.82 61.792l3.79 2.859M1778.7 63.336l-1.24-.134M1854 191.834l.63 1.05-.39-2.784.24 1.303M1825.83 119.913l-.25-.508-1.05-1.956-1.36-2.559-1.74-3.202-1.45-2.769-2.03-3.468-1.54-2.098-1.99-2.448-.17-.302-.95-1.032-.92-.995-7.62-6.472-1.62-1.376M1849.66 172.669l-.14-.365-.67-1.809M1823.38 132.087l2.16 3.949.75 1.368-.01.256-.05.891 1.05 1.91 2.81 5.121"/><path d="m1826.23 138.551.26-.417 2.38-3.803.48-.769.04-.833-.76 1.144-2.34 3.531M1852.4 189.14v-.257M1846.08 174.803l2.16 4.617 2.11 5.198M1846.96 167.286l-.91-2.255-.64-1.57-.42-.928-1.31-2.898-.69-1.527-1.42-3.146M1842.18 166.478l.79 1.69 2.27 4.85M1817.6 119.006l-.05.259M1802.58 93.516l1.17 1.254 1.45 3.255 1.99 3.985.74 2.347.11.357-.13 1.359 2.67 3.203 2.33 2.797M1826.21 124.659l-3.18-5.354-2.17-3.414-.38-.605-2.57-3.085-1.19-1.427-.76-.91M1803.75 94.77l6.86 5.118 1.53 1.136.18.139.56.414-.85-.917"/><path d="m1812.02 100.66-.51-.392-1.39-1.051-7.54-5.701M1802.06 90.015l-.4.645.19 1.284M1855.37 196.914l.24 1.474v-.001M1819.23 112.462l-1.02-1.747-4.67-8.007-.66-1.131M1820.86 115.891l-.89-1.78-.74-1.649"/><path d="m1818.21 110.715-.07-.359.18-.349.54.35.63.674.64.696M1852.7 183.56l-2.3-9.733-.56-2.386-1.52-3.194M1822.67 115.042v.001M1840.03 151.669l-1.11-2.381-.4-.85-.77-1.379-1.89-3.391-1.03-1.852-.24-.355-2.12-3.506-1.92-3.516.02-.572-1.37-2.504-.08-.155-2.02-3.523-1.01-2.234.12-.792M1426.77 317.606l.75 9.972.75 9.971.34 4.47.1 1.281.36 4.439 1.09 6.044 1.67 6.049 1.19 4.289 2.54 5.941 3.82 6.915 4.15 6.569 4.56 6.344 5.35 6.713 5.14 5.775 6.3 6.369 5.66 5.182 6.82 5.595 6.2 4.605 7.24 4.735 7.22 4.205 6.43 3.264 7.23 3.125 6.59 2.219 4.43.659 5.53.834 6.1.434 2.01.03 10 .147 10 .147 2.04.03M1577.76 365.847l-5.2-6.549"/><path d="m1428.61 342.019.15-5.348.4-2.629.36-2.31 1.48-4.126 2.78-1.24 2.93-1.685 3.75-2.876 4.37-2.16 4.08-1.634 4.43-1.092 4.74-.552 5.01-.009 6.97 1.316 6.22 2.04 5.4 3.002 5.34 3.171 6.23 3.982 7.35 5.167 5.24 3.981 5.16 4.09 5.68 4.732 7.35 6.618 4.77 4.64 4.68 4.727 4.79 5.055 6.42 7.355 4.16 5.2 3.88 5.118 3.72 5.207 2.73 6.806 1.82 6.413.61 5.147.04 4.939-.54 4.683-1.07 4.535-1.6 4.815-2.4 3.978-.45 3.341-1.26 2.988-4.27 1.911-4.64 1.309-.14.04-5.26.768-3.89.117-1.8.055M1592.81 395.503l-2.2-8.077M1441.52 291.866l-4.67 3.705M1586.03 430.803l3.12-4.985 2.11-6.041M1486.49 288.562l-7.83-2.473-4.31-.757M1507.85 301.141l-7.85-4.946M1680.29 410.622l-.41-1.059-.86-1.16-1.82-3.848-2.19-3.642M1666.27 396.176l.84 2.289 1.06 2.907 1.12 3.076.44.628 1.38.73 1.72 2.853 1.44 3.017.68.91.32.831.42 3.029.11 3.09-.38 1.075-.72.95-.92 2.85-.98 2.768-.01 1.14-.03.202-.36 2.031-.33 1.884M1618.7 431.247l-.19-2.522-1.4-2.442-.93-2.771-.44-2.693.04-2.932.13-3.002-.6-2.529 1.25-3.191 2.11-2.124 2.13-2.924 2.51-2.692 2.88-2.433 1.17-.991 2.64-.77 3.62-1.465 3.78-1.222 3.98-.846 3.28-.741 2.09-.751 3.78.123 3.89.704 3.86 1.071 3.79 1.428 3.32.912.88-.269 2.59-7.567M1625.96 442.776l3.19 1.296 1.57.751 4.71.47 4.88.211 5-.048 5.07-.309 1.01-.525 1.66-.906 4.54-1.429M1614.13 395.338l-3.19 3.438-2.69 3.731M1622.62 389.976l-3.35.985M1658.67 385.963l-4.92-1.37-4.97-.898M1604.79 412.502l-.14 3.819-.03 3.729.57 3.421M296.531 970.979l3.81 1.306 9.736 2.28 1.018.239 9.916 1.3 1.086.143.759.066 9.994.324 1.2.039 9.979-.646 1.228-.08 9.871-1.602 1.24-.201 9.672-2.539 1.235-.324 9.387-3.446 1.209-.444 9.018-4.321 1.166-.558 8.57-5.153 1.104-.664 8.046-5.939 1.026-.758 7.449-6.672.936-.838 6.784-7.347.833-.902 6.057-7.957.723-.949 5.271-8.498.608-.98 4.433-8.963.492-.994 3.548-9.349.377-.991 2.626-9.649.265-.975 1.671-9.86.161-.948.694-9.976.063-.912-.298-9.996-.025-.87-1.291-9.916-.108-.825-2.277-9.737-.035-.148-.147-.63M264.528 954.577l.014.01 1.67 1.18.234.165 3.034 2.144-3.035-2.145-.235-.166-1.682-1.188Zm0 0-1.073-.758-1.303-1.053M259.246 950.302l.897.809 1.881 1.563.129.092.521.371.017.013.057.04.473.337 2.8 1.996.233.166 1.373.979"/><path d="m253.512 945.125 5.029 4.578.704.599 1.055.896"/><path d="m253.512 945.125 3.264 2.958.291.252.968.836.318.275M249.9 941.147l.727.816.499.561.028.031.055.062 2.303 2.507-4.009-4.295-.32-.365-1.106-1.26-.042-.048M246.422 937.359l.182.212.412.479.968 1.127 1.197 1.288"/><path d="m242.547 932.046 3.506 4.808.052.071.317.434.293.364"/><path d="m240.906 930.021 3.771 5.187.449.617 1.589 1.898.301.326"/><path d="m239.832 928.511.339.545 4.024 5.557.482.595M418.903 784.938l-.567-.472M418.904 784.938l-.584-.49M238.172 925.741l1.22 2.072.441.698-1.622-2.734M372.278 757.794l-.773-.189-9.713-2.377-.213-.053-9.899-1.423-1.056-.151-9.989-.464-1.116-.051-9.988.496-1.163.058-9.895 1.445-1.195.174-9.713 2.378-1.208.296-9.445 3.286-1.204.418-9.092 4.163-1.178.54-8.659 5.002-1.134.656-8.147 5.798-1.072.763-7.561 6.544-.992.858-6.904 7.234-.898.941-6.181 7.861-.792 1.006-5.396 8.42-.677 1.056-4.555 8.903-.557 1.089-3.663 9.305-.436 1.106-2.729 9.621-.314 1.107-1.76 9.844-.195 1.095-.766 9.971-.082 1.071-.05.687.251 9.997.025.997 1.272 9.918.122.946 2.309 9.826"/><path d="m445.759 831.749 1.832-8.804.385-2.014-.838-3.275-1.51-2.2-3.428-4.074-5.433-6.771-5.727-6.741-6.797-7.335-.361-.39-4.339-4.444-.013-.013-.005-.005-.02-.021-.002-.002-.015-.016-.009-.009-.002-.001-.006-.006-1.123-1.151-.001-.001-.008-.008-.002-.002-.017-.017-1.239-1.269-7.255-6.882-.538-.51-6.984-6.233-7.01-5.786-6.019-4.708-1.957-1.918-3.085-1.182-2.557-.126-9.852 1.714-.32.056M373.521 773.755l-2.41-3.264-1.116-1.415-.3-1.156M363.492 765.679l.394 1.537"/><path d="m390.707 773.834 1.963 1.932 1.354 1.943.92 2.059.752 1.675-.127 1.534-1.451.967-1.308.811-1.119-.007-1.911.698-2.424.03-2.318-1.281-1.269-1.141-2.242-.779-.291-.101-3.042-1.823-1.6-.723M376.594 779.628l-2.721-2.316-.851-.817-1.907-2.34-.023-.838-.854-2.083.834-.71.039-.033M398.092 783.675l-.765-1.702-.238-.529-1.226-2.741M378.158 766.203l-4.258-1.034-2.97-.485M374.777 782.234l4.055 2.431 3.378 1.172M383.219 768.953l2.258 1.482M384.502 769.032l-3.002-1.969M383.902 787.358l3.09 1.707 1.1-.014 2.13-.029M431.066 848.65l.445-1.685 1.418.054 1.388 1.363 1.214 1.192.42-2.115.356-2.498 1.011-1.918.789-1.693.38.375M426.836 848.228l2.401.599M410.105 836.488l2.891 2.859 1.175 1.162.702.692 2.756 2.718 1.92 1.894 2.528 1.893 2.721 1.459.584-.799M427.022 809.114l-2.194-2.411-2.766-2.531M400.926 820.931l1.808 3.578 1.198 2.746-.554.822 2.156 3.356"/><path d="m403.379 828.077 3.466-3.403.404-.599-3.316 3.18M399.375 802.846l-.488 2.226-.321 2.634-.88 1.991-1.159 1.222 1.501 1.496 1.981 1.975M438.676 839.495l-.005-3.033-.098-1.595-.099-1.608-.381-1.439-.779-2.539-.716-3.262M399.375 802.846l4.491 3.358.038.029-.446-.446M403.458 805.787l-4.692-3.549M412.94 798.522l-2.691-1.005-1.767.611-2.418.176-1.728-.129M417.489 801.276l-1.851-.997-1.103-.594M408.492 810.93l-.304-.311-4.286-4.387M417.675 831.577l-1.385-1.37-.352-.349-.589-.585-1.451-1.439-.792-.785-.156-.156-1.345-1.599-1.081-1.684.276-.411-.601-1.379-.908-1.795-.244-1.233.48-.599-.702-1.452-.994-.992-.753-.751.578-.615.438-1.003.157-1.327.241-1.122"/><path d="m408.188 810.619.421-.7.193-.184.599-.57.939-.596.634-.008.868.061 1.217-.096M415.305 808.715l.806.586 1.492.798M225.941 914.484l.024.035 1.194 1.72 1.424 1.969 1.648 2.204 1.858 2.424 1.945 2.529 1.826 1.591 2.489 2.44 2.752 3.12 2.691 3.054 2.73 3.023 3.007 3.268 2.674 2.895 3.12 3.261 2.654 2.723 3.015 3.028 2.612 2.564 2.866 2.744 2.684 2.547 2.299 2.057 2.37 2.125 1.053 1.021M231.508 917.095l1.711 1.944 1.77 1.982 1.154 1.27.003.004.025.027.993 1.093 2.751 2.964 1.364 1.444.714.756 2.113 2.217 2.418 2.51 3.326 3.397 2.298 2.31 2.325 2.32 2.468 2.443 3.545 3.454 2.24 2.148.236.227 2.421 2.301 2.447 2.303M267.828 954.209l2.517 2.851 2.232 2.594.454.579 1.115 1.424 1.381 1.864 1.18 1.707.987 1.509.05.077 1.097 1.595.658 1.2 1.328 1.014 1.048.79M283.151 952.733l-3.139-3.577"/><path d="m225.932 897.521-.036.44-.81 9.968-.398 4.898.018.519 1.237 1.138 7.358 6.773 4.872 4.484.039.035.007.008M292.323 964.966l-1.276-1.987"/><path d="m224.688 912.827.3-.164.466-.052.67.203.864.449 1.047.694 1.725 1.488 1.748 1.65M266.211 955.767l6.168 7.871 2.498 3.189 1.376 1.755 1.361 1.019 1.404.915 1.132.638.856.361.575.085 9.992-.415 4.958-.206.457-.019M281.877 971.413l-.295.187M245.033 914.277l-3.452-3.703-2.729-2.988M257.498 927.2l-4.172-4.255-3.033-3.142M316.535 958.679l.995.882 1.264 1.121 1.34 1.188.38.24.945.252 1.738 1.039 1.639 1.106.624.33.459.287 1.265 1.062 1.118 1.093.162.389-.019.333.649.963.577.939.466.376.08.061.801.613.743.569M293.555 960.225l.465 1.484M305.711 970.754l-1.095-.839-1.525-.867-1.366-.999-1.141-.949-.938-1.053-.925-1.072-.961-.971-.362-1.164.312-.743.155-1.065.374-.962.589-.848.238-.346.995-.25 1.275-.509 1.4-.406 1.562-.25 1.279-.224.821-.282 1.818.077 2.002.309 2.067.454 2.114.596 1.779.387.357-.1 1.407-3.776M308.562 971.859l2.481.698 2.506.512 2.734.584 2.058.456 1.183.215 2.54.159 2.474.09M300.346 953.671l-1.783.52-1.624.651-1.268.32-.302.442-.749 1.084-.473 1.228-.194 1.36M332.919 965.881l-1.419-1.393M315.217 954.537l-2.696-.761-2.637-.58-2.552-.394M329.754 974.14l1.623-.456"/><path d="m326.427 960.932-2.213-1.327-1.203-.32-.485-.307-1.706-1.517-1.611-1.432-1.268-1.127M299.082 966.866l1.74 1.272 1.942 1.104 1.395 1.068M295.246 962.947l1.18 1.367M1382.68 284.046l-7.18-6.965-7.17-6.965-7.18-6.966-4.41-4.286-6.97 7.176-6.96 7.175-6.97 7.175-4.29 4.416 7.18 6.965 7.18 6.965 7.17 6.965 4.42 4.287 6.96-7.176 6.97-7.175 6.96-7.176 4.29-4.415ZM1350.05 252.158l-7.18-6.967-7.17-6.964-1.16-1.123-6.96 7.175-6.97 7.176-1.12 1.156 7.17 6.965 7.18 6.965 1.16 1.122 6.96-7.174 6.97-7.176 1.12-1.155ZM1368.92 237.42l-7.18-6.965-3.43-3.331-6.97 7.175-3.33 3.432 7.18 6.965 3.43 3.332 6.96-7.175 3.34-3.433ZM-197.801-151.487l6.982 7.159 6.982 7.158 6.983 7.159 6.982 7.159 6.982 7.159 6.982 7.159 6.982 7.159 6.982 7.159 6.982 7.159 6.982 7.159 6.982 7.159 6.983 7.159 6.982 7.159 6.982 7.159 6.982 7.158 6.982 7.159 6.982 7.159 6.982 7.159 6.982 7.159 6.982 7.159 6.983 7.159 6.982 7.159 6.982 7.159 6.982 7.159 6.982 7.159 6.982 7.159 6.982 7.158 6.982 7.159 6.983 7.159 6.982 7.159 6.982 7.159 6.982 7.159 6.982 7.159 6.982 7.159 6.982 7.159 6.982 7.159 6.982 7.159 6.983 7.159 6.982 7.158 6.982 7.159 6.982 7.159 6.982 7.159 6.982 7.159 6.982 7.159 6.982 7.159 6.982 7.159 6.983 7.159 6.982 7.159 6.982 7.159 6.982 7.158 6.982 7.159 6.982 7.159 6.982 7.159 6.982 7.159 6.982 7.159 6.983 7.159 6.982 7.159 6.982 7.159 8.715 8.936 7.071-7.071 3.404-3.405-7.159-6.982-7.159-6.982-7.159-6.982-7.158-6.982-7.159-6.982-7.159-6.982-7.159-6.982-7.159-6.982-7.159-6.983-7.159-6.982-7.159-6.982-7.159-6.982-7.159-6.982-7.159-6.982-7.159-6.982-7.158-6.982-7.159-6.982-7.159-6.983-7.159-6.982-7.159-6.982-7.159-6.982-7.159-6.982-7.159-6.982-7.159-6.982-7.159-6.982-7.159-6.982-7.159-6.983-7.158-6.982-7.159-6.982-7.159-6.982-7.159-6.982-7.159-6.982-7.159-6.982-7.159-6.982-7.159-6.983-7.159-6.982-7.159-6.982-7.159-6.982-7.159-6.982-7.158-6.982-7.159-6.982-7.159-6.982-7.159-6.982-7.159-6.983-7.159-6.982-7.159-6.982-7.159-6.982-7.159-6.982-7.159-6.982-7.159-6.982-7.159-6.982-7.158-6.983-7.159-6.982-7.159-6.982-7.159-6.982-7.159-6.982-7.159-6.982-7.159-6.982-8.936-8.715ZM-197.172 19.857l6.982 7.16 6.982 7.158 6.982 7.16 6.983 7.158 6.982 7.158 6.982 7.16 6.982 7.158 6.982 7.16 6.982 7.158 6.982 7.16 6.982 7.158 6.982 7.159 6.983 7.159 6.982 7.159 6.982 7.159 6.982 7.159 6.982 7.158 6.982 7.159 6.982 7.159 6.982 7.159 6.982 7.159 6.983 7.159 6.982 7.159 6.982 7.159 6.982 7.159 6.982 7.159 6.982 7.159 6.982 7.158 6.982 7.159 6.982 7.159 6.983 7.159 6.982 7.159 6.982 7.159 6.982 7.159 6.982 7.159 6.982 7.159 6.982 7.159 6.982 7.159 6.983 7.159 6.982 7.159 6.982 7.158 6.982 7.159 6.982 7.159 6.982 7.159 6.982 7.159 6.982 7.159 6.982 7.159 6.983 7.159 6.982 7.159 6.982 7.159 6.982 7.159 6.982 7.159 6.982 7.158 6.982 7.159 6.982 7.159 6.982 7.159 6.983 7.159 6.982 7.159 8.715 8.936 7.071-7.071 3.404-3.404-7.159-6.982-7.159-6.983-7.159-6.982-7.159-6.982-7.158-6.982-7.159-6.982-7.159-6.982-7.159-6.982-7.159-6.982-7.159-6.983-7.159-6.982-7.159-6.982-7.159-6.982-7.159-6.982-7.159-6.982-7.159-6.982-7.159-6.982-7.158-6.982-7.159-6.983-7.159-6.982-7.159-6.982-7.159-6.982-7.159-6.982-7.159-6.982-7.159-6.982L40.85 252l-7.159-6.982-7.159-6.983-7.158-6.982-7.159-6.982-7.159-6.982-7.159-6.982-7.159-6.982-7.159-6.982-7.159-6.982-7.159-6.982-7.159-6.983-7.159-6.982-7.159-6.982-7.159-6.982-7.159-6.982-7.158-6.982-7.159-6.982-7.159-6.982-7.159-6.982-7.159-6.983-7.159-6.982-7.159-6.982-7.159-6.982-7.159-6.982-7.159-6.982-7.159-6.982-7.158-6.982-7.159-6.983-7.159-6.982-7.159-6.982-7.159-6.982-7.159-6.982-8.936-8.715ZM1407.93 220.553l-7.16-6.982-7.16-6.982-7.16-6.983-7.16-6.982-7.16-6.982-7.16-6.982-7.15-6.982-7.16-6.982-7.16-6.982-7.16-6.982-7.16-6.983-7.16-6.982-7.16-6.982-7.16-6.982-7.16-6.982-7.15-6.982-7.16-6.982-7.16-6.982-7.16-6.982-7.16-6.983-7.16-6.982-7.16-6.982-7.16-6.982-7.16-6.982-7.16-6.982-7.15-6.982-7-6.823 6.98 7.16 6.98 7.158 6.99 7.16 6.98 7.158 6.98 7.16 6.98 7.158 6.99 7.16 6.98 7.158 6.98 7.16 6.98 7.157 6.98 7.159 6.99 7.159 6.98 7.159 6.98 7.159 6.98 7.159 6.98 7.159 6.99 7.159 6.98 7.159 6.98 7.159 6.98 7.159 6.99 7.159 6.98 7.158 6.98 7.159 6.98 7.159 6.98 7.159 6.99 7.159 6.98 7.159 3.79 3.888M832.664-208.409l6.982 7.159 6.982 7.159 6.983 7.159 6.982 7.159 6.982 7.159 6.982 7.159 6.982 7.159 6.982 7.159 6.982 7.158 6.982 7.159 6.983 7.159 6.982 7.159 6.982 7.159 6.982 7.159 6.982 7.159 6.982 7.159 6.982 7.159 6.982 7.159 6.982 7.159 6.983 7.159 6.982 7.158 6.982 7.159 6.982 7.159 6.987 7.159 6.98 7.159 6.98 7.159 6.98 7.159 6.98 7.159 6.99 7.159 6.98 7.159 6.98 7.159 6.98 7.159 6.98 7.158 6.99 7.159 6.98 7.159 6.98 7.159 6.98 7.159 6.99 7.159 6.98 7.159 6.98 7.159 6.98 7.159 6.98 7.159 6.99 7.159 6.98 7.159 6.98 7.158 6.98 7.159 6.98 7.159 6.99 7.159 6.98 7.159 6.98 7.159 6.98 7.159 7.88 8.076 7.07-7.071 2.15-2.146-7.16-6.982-7.16-6.982-7.16-6.982-7.16-6.982-7.16-6.982-7.16-6.982-7.16-6.982-7.16-6.983-7.15-6.982-7.16-6.982-7.16-6.982-7.16-6.982-7.16-6.982-7.16-6.982-7.16-6.982-7.16-6.982-7.16-6.983-7.16-6.982-7.15-6.982-7.16-6.982-7.16-6.982-7.16-6.982-7.16-6.982-7.16-6.982-7.16-6.982-7.16-6.983-7.16-6.982-7.15-6.982-7.164-6.982-7.159-6.982-7.159-6.982-7.158-6.982-7.159-6.982-7.159-6.982-7.159-6.983-7.159-6.982-7.159-6.982-7.159-6.982-7.159-6.982-7.159-6.982-7.159-6.982-7.159-6.982-7.159-6.983-7.159-6.982-7.158-6.982-7.159-6.982-7.159-6.982-7.159-6.982-7.159-6.982-7.159-6.982-7.159-6.982-8.076-7.877ZM266.711 954.871l2.54 2.926.025.029.234.27 6.555 7.553 3.437 3.96M368.739 765.128l-2.087.511M419.475 785.633l-.573-.695M419.523 785.682l-.621-.744.639.763M431.007 814.829l-.214-.347M618.371 440.481v.002M622.633 446.23l.091.073M622.672 446.21l.052.094 2.918 5.23M629.376 460.252l-.001.002M631.256 456.26l-.002.004M735.514 342.153l-4.248-2.382M742.6 346.78l-.116-.078-1.593-1.076M940.172 786.636l-.205.386-.07.13-.02.038-.403.754-.814 1.525M944.502 783.15l-1.215 2.434-.438.878-.001.003-.196.393M945.672 793.012l2.044 1.672.792.648M957.266 773.192l-1.032 2.763M957.316 774.861l.145-.045.009-.003.101-.032M960.354 797.765l-.379.79-.001.002-.181.376M962.179 779.041l-.046.3M973.282 787.82l-.27.772M1002.4 732.692l.2-.059.03-.01M1011.28 835.001l8.57 5.154 8.57 5.155 8.56 5.155 8.57 5.155 8.57 5.155 8.57 5.155 8.57 5.155 8.57 5.154 8.57 5.155 5.2 3.132 2.06 1.238M962.062 805.395l5.733 3.449M1109.57 899.565v.001M1116.2 896.187v.001M1120.94 892.828v.002M1138.44 877.73l-.28.07M1092.18 683.546l5.31 8.473 5.32 8.473 5.31 8.473 5.31 8.472 5.31 8.473 5.31 8.473 5.31 8.473 5.31 8.473 5.31 8.473 5.32 8.473 5.31 8.473 5.31 8.473 5.31 8.473 2.03 3.231M1084.42 670.682l-.53-.88-4.16-6.88M1178.76 820.965l-.13-.23v-.003l-4.89-8.723-2.04-3.644"/></g><defs><clipPath id="a"><path fill="#fff" d="M0 0h1920v1080H0z"/></clipPath></defs></svg>