<svg width="1920" height="1080" fill="none" xmlns="http://www.w3.org/2000/svg"><g clip-path="url(#a)" stroke="#EFC018" stroke-width="5" stroke-linejoin="round"><path d="m1059.95 713.549.53-1.75.12-.605v-.638l-.13-.646-.24-.629-.35-.588-.45-.525-.52-.442-.58-.341-.61-.227-.63-.105-.61.021"/><path d="m1060.48 711.799-.02.047-.21.502-.14.191-.01.012-.2.27v.004l-.44.373-.51.268-.58.147-.61.022-.63-.105-.61-.227-.58-.341-.53-.442-.44-.526-.35-.589-.24-.63-.13-.646v-.638l.12-.606.23-.549.34-.467.01-.005.44-.376.49-.255.02-.008v-.004l.54-.136.04-.011M1043.57 721.46l.03-.662.15-.631.28-.578.38-.496v-.006l.48-.405.56-.295.61-.172.64-.044.66.088.25.088.07.023.2.066.11.037.59.334.53.44.44.529.34.598.23.645.1.665-.01.125-.01.325v.058l-.01.154-.15.631-.27.578-.39.502v.005l-.48.401-.55.296-.62.172-.64.044M1045.8 724.674l-.59-.334M1047.99 718.473l-.75-.353M1050.25 722.458l-.03-.773M1044.24 723.37l-.34-.599M1038.32 731.492l.33.603.22.652.08.675-.04.673-.18.645-.29.592-.41.516-.01.004-.5.416-.58.309-.63.184-.67.055-.67-.079-.64-.209-.6-.33-.53-.439-.45-.532-.33-.604-.21-.652-.09-.676.05-.673.17-.644.3-.592.4-.51.01-.006.5-.42.58-.308.64-.185.66-.054.67.079.65.209.6.33.53.439.44.532ZM1026.56 743.449l.33.603.21.652.08.674-.05.672-.19.644-.3.59-.42.515-.01.004-.51.414-.59.307-.64.184-.68.053-.67-.08-.65-.21-.6-.331-.54-.44-.44-.531-.33-.604-.21-.651-.08-.675.06-.672.18-.644.31-.59.41-.509.01-.005.51-.419.59-.307.65-.183.67-.053.67.08.66.209.6.331.53.44.44.532ZM1014.66 755.246l.33.598.22.643.08.664-.05.659-.18.628-.3.574-.41.497-.01.004-.5.397-.59.291-.64.168-.67.039-.67-.091-.65-.217-.6-.336-.53-.441-.44-.53-.33-.597-.21-.643-.08-.664.04-.658.18-.628.3-.574.41-.492.01-.005.51-.402.58-.291.64-.168.67-.04.67.091.65.217.6.336.53.441.44.53ZM996.98 767.856l.016-.314.001-.032.015-.287.161-.6.281-.542.388-.46.005-.005.487-.37.565-.26.62-.141.651-.015.66.111.64.231.59.345.53.444.44.526.34.588.22.627.09.643-.03.633-.16.599-.28.543-.4.465v.004l-.48.365-.39.176-.02.009-.16.074-.62.14-.65.015-.655-.111-.638-.232-.594-.344-.528-.443-.441-.526-.337-.587-.221-.627-.096-.642Zm0 0-.007-.05M1001.14 771.353l.18-.032M986.431 778.388l-.119-.612.007-.596.129-.559.247-.498.01-.011.343-.404.004-.004.452-.324.53-.216.588-.101.622.019.634.139.621.253.583.357.523.446.444.52.347.574.237.604.097.507.02.107-.006.596-.13.557-.249.498-.273.321-.007.008-.077.09-.005.005-.448.318-.53.216-.185.031-.402.069-.623-.019-.633-.14M987.978 780.53l-.523-.447-.213-.249-.23-.27M976.825 785.272l.201-.442.305-.358.003-.004.342-.226.008-.005.053-.035.483-.162.544-.05.583.063.602.174.596.279.567.371.517.451.447.513.36.555.258.576.147.575.03.55-.088.506-.027.061-.004.007-.171.374-.309.361-.005.003-.399.263-.483.16-.543.05-.584-.064-.6-.175-.595-.278-.567-.371-.516-.451-.446-.512-.359-.554-.259-.575-.147-.574-.031-.55.087-.506Zm0 0 .009-.031M981.871 789.672l.01-.005M968.762 791.931l.245-.291.003-.003.086-.051.257-.149.425-.098.49.009.01.002.01.002.041.009.475.101.561.215.566.308.548.39.509.456.451.504.375.533.284.542.184.53.008.054.001.008.066.435-.036.446-.145.376-.25.293-.004.002-.34.197-.425.096-.49-.009-.535-.115-.561-.215-.565-.308-.547-.389-.508-.455-.45-.503-.375-.533-.284-.541-.184-.529-.076-.497.035-.445.094-.245.051-.132Zm0 0 .001-.005M973.582 796.751l.035-.019M1089.87 676.254l-.1.067-.19-.028-.27-.123-.11-.073-.23-.14-.4-.294-.44-.365-.08-.07-.39-.351-.48-.461-.46-.484-.44-.487-.4-.472-.12-.163-.21-.276-.26-.388-.18-.324-.07-.211-.02-.034.01-.159.1-.066.18.029.27.124.34.213.4.294.45.365.46.42.48.46.47.482.07.088.36.398.4.472.33.438.21.313.05.075.18.324.09.247v.16Zm0 0-.98 1.748-1.07 1.928"/><path d="m1085.13 671.352-.19.098-.16.085M973.92 796.555l-.003.004-.302.174-.042.024-.425.097-.489-.009-.536-.115-.561-.216-.565-.308-.547-.389-.508-.455-.45-.503-.374-.532-.285-.542-.183-.529-.076-.497.035-.445.095-.248.049-.129.008-.01.241-.284.003-.002M970.797 791.467l.562.216.565.308.548.389.51.456.45.504.375.534.285.542.183.53M973.574 796.756l3.005-1.592M982.428 786.403l.258.576.147.575.03.55-.088.506-.024.053-.003.008-.175.381-.306.357-.003.004-.386.254-.018.012-.483.16-.543.05-.584-.064-.6-.175-.595-.278-.567-.371-.516-.451-.446-.512-.359-.554-.259-.575-.147-.574-.031-.55.087-.506.017-.038.184-.404.308-.362.005-.003.345-.228.009-.006.045-.029.482-.162.544-.05.584.063.601.174.596.278M981.863 789.679l2.621-1.255M981.105 784.884l.517.451.447.513M986.311 777.188l-.006.596.118.612.236.604.347.573.231.271.212.248.523.447.583.357.619.251.633.139.623.021.412-.07.175-.031 1.987-.768"/><path d="m986.309 777.187.023-.099.106-.459.248-.498.009-.011.008-.01.339-.398.005-.004.447-.32.53-.217.588-.1.622.019.634.139.621.252.583.357.523.447.444.52.347.574.237.604.093.489.024.124-.006.597-.13.558-.249.498-.266.312-.007.008-.08.094-.004.004-.453.324-.294.119-.236.096M999.187 771.035l-.595-.345-.527-.443-.442-.526-.337-.587-.221-.627-.096-.642.003-.059.015-.287.001-.032.014-.255.16-.599.281-.543.393-.465.005-.004.483-.366.564-.26.62-.14.652-.016.66.111.63.232.6.344.53.444.44.526.34.588.22.627.09.643-.03.633-.16.6-.28.542-.39.46-.01.005-.48.369-.37.167-.02.009-.18.084-.43.098-.19.041-.65.015-.656-.11-.637-.232ZM1001.13 771.362l1.26-.233M1015.05 758.449l-.3.574-.41.491v.006l-.51.401-.59.291-.64.168-.66.039-.68-.091-.64-.217-.6-.336-.54-.441-.44-.53-.33-.597-.21-.643-.08-.664.05-.658.17-.628.31-.574.41-.497.01-.005.5-.397.58-.291M1014.65 755.256l.34.598.21.643.08.664M1011.76 753.642l.67.091.65.217.6.336M1026.63 747.295l-.42.508v.006l-.52.419-.59.307-.64.183-.67.053-.68-.08-.65-.21-.6-.331-.54-.439-.43-.532-.34-.603-.21-.652-.07-.675.05-.672.18-.643.31-.59.42-.515v-.005l.51-.414M1026.55 743.459l.33.603.21.652M1027.17 745.39l-.05.672-.19.643M1022.33 742.103l.65-.183.67-.053M1024.32 741.947l.66.21.6.331M1038.43 735.342l-.41.51v.006l-.51.42-.58.309-.63.185-.67.054-.66-.079-.65-.208-.6-.331-.53-.439-.44-.532-.34-.603-.21-.652-.09-.676.05-.673.17-.645.3-.592.41-.515.01-.005.5-.416M1038.64 732.105l.22.653.08.675M1034.12 730.152l.64-.185M1035.43 729.914l.66.078.65.209M1037.34 730.531l.53.44.44.531M1050.21 721.695l-.02.392v.058l-.01.212-.15.632-.27.577-.38.497-.01.005-.48.406-.55.296-.61.173-.65.043-.65-.087-.63-.214-.6-.334-.52-.44-.45-.53-.34-.599-.22-.645-.1-.666.02-.661.16-.632.27-.578.38-.501.01-.005.47-.401.56-.295.61-.172.65-.044.65.088.32.111.07.023.24.081.59.333.53.44.44.529.34.599.23.644.1.665Zm0 0v.115M1047.98 718.485l-.1-.048M1060.24 712.358l-.13.179-.01.012-.2.276-.01.005-.44.377-.51.268-.58.148-.61.022-.63-.105-.61-.227-.58-.342-.52-.442-.45-.525-.35-.589-.24-.63-.13-.647v-.638l.12-.605.23-.549.35-.472v-.005M1060.22 709.29l.24.629M1057.71 707.167l.61.228M1058.9 707.736l.52.441.45.525M1069.53 702.086l-.29.43-.39.334-.04.018-.43.209-.53.11-.57-.01-.59-.131-.59-.246-.56-.352-.51-.444-.45-.52-.37-.575-.26-.608-.16-.618-.04-.604.07-.566.19-.508.29-.428v-.002l.39-.332.46-.226.53-.109.57.011.59.131.59.246.56.352.52.444.45.519.36.574.27.607.15.617.05.604-.07.566-.19.507Zm0 0-1.05 2.416M1077.34 693.079l-.23.374-.32.28-.41.176-.37.048-.1.013-.52-.051-.55-.164-.41-.197-.15-.074-.54-.366-.51-.448-.45-.511-.38-.557-.3-.581-.19-.581-.09-.56.02-.517.01-.051.11-.403.23-.373.33-.278.4-.174.48-.062.52.052.55.166.55.27.54.365.51.448.45.511.38.557.3.578.07.208.12.372.09.559-.01.517-.13.454Zm0 0-.71 1.404-.71 1.426M1072.92 688.084l-1.16.42M1083.28 685.921l-.26.215-.33.113-.41.007-.47-.101-.5-.204-.38-.216-.14-.083-.52-.382-.5-.452-.46-.504-.39-.536-.33-.547-.02-.042-.11-.255-.11-.241-.14-.508-.05-.458.06-.39.16-.309.26-.214.34-.112.4-.005.07.013.4.088.5.204.52.299.52.382.45.406.05.045v.009l.45.493.4.535.33.546.24.538.14.507.04.458-.05.391-.16.31Zm0 0-1.77 3.284M1078.64 680.814l-.89.39M1087.56 680.136l-.17.144-.27.044-.34-.056-.4-.155-.45-.247-.49-.331-.49-.401-.49-.457-.41-.443-.05-.051-.42-.512-.36-.511-.28-.49-.21-.45-.1-.393-.01-.104-.01-.216.05-.125.04-.111.17-.143.27-.043.34.057.4.156.45.247.49.331.14.114.32.26.03.027.49.455.13.143.33.35.42.511.03.045.32.465.21.344.08.145.2.45.11.393.02.321-.04.109-.05.128Zm0 0-1.95 3.524"/><path d="m1082.88 675.128-.32.156-.21.101-.11.053M1090.15 674.358l-.02-.011-.11-.103-.2-.192-.28-.272-.34-.342-.4-.4-.45-.442-.46-.466-.48-.472-.46-.462-.43-.432-.38-.386-.32-.326-.24-.252-.17-.169-.07-.08.02.013.11.104.2.192.27.273.35.342.4.399.44.441.47.465.47.471.46.461.43.431.38.386.32.326.25.252.16.17.08.081Zm0 0-.6 1.089M1085.34 669.551l-.89.485-.27.15"/><path d="m1084.45 670.036-.09-.065-.32-.181-.14-.055M953.98 800.534l-.324.594.042.112.133.199.218.28.296.35.362.406.414.447.45.47.469.476.47.462.452.433.417.384.367.322.301.248.225.163.112.059"/><path d="m955.443 800.115-.523.984-.354.665-.011.02-.028.061.066.151.157.235.242.312.318.374.382.424.431.457.464.473.478.469.475.449.453.412.392.338.022.019.36.291.29.211.21.125.123.034 2.429-1.36"/><path d="m954.555 801.784.121.033.21.124.29.211.359.29.415.358.454.412.476.45.479.471.465.473.432.458.382.425.203.238.116.137.241.311.157.235.064.15-.029.059M958.003 799.254l-.241.479-.055.108-.156.311-.198.395-.009.229.089.307.184.375.271.428.347.465.411.483.459.483.036.033.453.431.5.429.02.015.473.361.155.102.311.207.421.229.343.135.018.008.015.002.271.047.201-.047 3.609-2.032"/><path d="m957.355 800.547.106-.141.199-.047.286.048.36.141.178.097.244.132.017.012.449.297.494.377.501.429.49.466.223.234.237.25.412.484.265.354.077.103.006.008.126.199.145.229.183.375.088.308v.009l-.01.219-.107.139M962.662 796.081l-.417.907-.107.232-.079.305.022.336.002.042.128.438.225.48.003.004.017.028.295.472.392.508.454.494.499.459.525.409.53.341.515.261.066.023.415.147.428.074.359-.026.275-.124 3.411-1.893"/><path d="m962.137 797.221.181-.22.274-.125.358-.027.428.073.481.17.516.261.523.336.009.005.525.409.501.461.455.494.392.51.315.504.225.481.127.438.023.378-.08.304-.182.219M723.907 335.475l-8.725-4.886-6.805-3.812-8.881-4.596-8.882-4.596-8.881-4.596-4.321-2.236-8.913-4.533-8.914-4.533-8.914-4.533-4.381-2.228-9.162-4.007-9.162-4.007-9.162-4.007-5.121-2.239-9.576-2.88-9.577-2.879-9.576-2.879-9.577-2.879-9.577-2.879-9.576-2.879-9.577-2.879-2.87-.863 2.851 9.585 2.85 9.585 2.851 9.585 2.851 9.585 2.85 9.585 2.851 9.585 2.851 9.585.87 2.925 3.985 9.171 3.986 9.172 3.985 9.171 2.234 5.141 4.515 8.923 4.516 8.922 4.515 8.923 2.225 4.398 4.579 8.89 4.578 8.89 4.579 8.891 2.235 4.339 4.871 8.733 3.82 6.85M1079.1 664.934l-1.65 3.301-4.17 5.739-6.35 7.729-.22.265-.07.085v.005l-.44.503-.01.005-1.92 2.195-.01.008-3.1 3.543-.01.007-1.03 1.175-.01.007-1.18 1.348-.94 1.077-1.5 1.64-.01.008-3.21 3.508-.01.009-.74.816-.01.008-2.68 2.922-2.06 2.253v.008l-.34.368-3.45 3.64v.01l-.3.312-.01.01-3.72 3.931-1.7 1.802-.01.009-2.78 2.939-1.53 1.571-.01.009-.2.206-4.25 4.367-1.35 1.39-.01.009-4.54 4.664-.01.01-.69.71-.3.304-4.03 4.038-.94.937-.01.01-4.64 4.645-.01.01-1.16 1.158-2.47 2.469-1.89 1.847-.46.442-.01.01-4.57 4.457-.01.009-1.61 1.571-4.236 4.125-.009.009-.058.056-.01.01-.201.195-4.16 3.936-.009.009-2.012 1.902-3.448 3.262-.008.008-.576.545-.009.008-2.101 1.988-1.616 1.475-4.662 4.255-1.04.949-3.4 3.103-.351.321-2.907 2.528-1.129.982-5.331 4.636-7.306 5.883-4.986 3.421-2.511.87"/><path d="m947.702 794.635-.181.298-.021 1.704 2.549-.878 5.07-3.477 7.436-5.986 1.55-1.348.745-.648 3.874-3.369 1.248-1.085 2.12-1.842 1.274-1.163 3.285-2.998 1.052-.961 4.729-4.316.932-.851 2.725-2.577.009-.008.576-.545.008-.008 3.48-3.292 2.011-1.902.009-.009 3.736-3.533.62-.604.009-.009.043-.042.009-.009 4.231-4.125 1.62-1.571.01-.009 4.59-4.472v-.01l.47-.451 1.71-1.668 2.61-2.61 1.17-1.174.01-.01 4.66-4.66.01-.01.95-.953 4.1-4.1.19-.193.7-.726.01-.01 4.56-4.68.01-.009 1.35-1.393 4.23-4.349.2-.205.01-.01 1.87-1.914 2.45-2.59.01-.01 1.72-1.817 3.72-3.932v-.009l.3-.313.01-.009 3.76-3.98.01-.009.21-.22 1.85-2.018 2.72-2.972v-.008l.76-.821v-.009l3.15-3.439.01-.008 2.26-2.477.17-.187 1.3-1.491.01-.007 1.05-1.204.01-.008 2.94-3.348v-.007l2.11-2.411.01-.006.6-.69.01-.004.68-.777 6.34-7.73.34-.406 4.23-5.838 1.68-3.353-.89-.788-1.34.694M1071.21 655.291l-.88-1.071-.37-.456-6.34-7.736-6.33-7.737-6.34-7.737-6.34-7.736-2.99-3.659-6.5-7.599-6.51-7.598-6.5-7.599-6.5-7.598-6.5-7.599-5.52-6.451-6.676-7.443-6.679-7.443-6.679-7.442-6.678-7.443-6.679-7.443-5.622-6.264-6.853-7.283-6.853-7.283-6.853-7.282-6.853-7.283-6.853-7.283-5.735-6.095-7.47-6.649-7.469-6.649-7.469-6.649-7.469-6.649-7.47-6.649-6.294-5.603-7.694-6.387-7.694-6.387-4.649-3.859-7.694-6.387-7.694-6.387-7.694-6.388-1.932-1.604-8.063-5.916-8.062-5.916-8.062-5.916-8.062-5.916-8.063-5.916-7.201-5.285-8.29-5.593-5.765-3.89-8.289-5.593-8.29-5.593-6.654-4.49-.95-.641-1.501-1.013M739.729 344.795l-3.356.975-5.399 3.129-7.26 5.192-.901.721-.002.001-.847.677-.005.004-2.294 1.834-.007.005-2.321 1.855-.006.005-1.157.924-.006.005-1.306 1.044-.459.395-2.181 1.877-.007.005-2.674 2.301-.007.007-.652.561-.008.006-2.436 2.096-1.678 1.444-.298.271-.007.007-4.015 3.654-.008.008-.001.001-.008.007-.192.175-1.745 1.588-2.039 1.857-.007.006-2.624 2.388-2.589 2.473-.009.009-3.045 2.909-.008.007-5.684 5.429-.616.616-.008.008-2.228 2.225-.008.008-6.449 6.442-.008.008-1.937 1.934-.572.599-.009.008-5.512 5.762-.007.007-3.361 3.513-.008.008-1.231 1.287-2.991 3.287-.007.007-1.734 1.905-2.134 2.345-.007.007-.28.308-.007.008-2.543 2.794-.386.451-3.681 4.296-.807.943-1.966 2.294-1.469 1.715-1.244 1.577-1.004 1.271-4.339 5.499-4.62 6.674-2.495 4.758-.305 2.683M628.508 455.895l1.442 2.142.226.337"/><path d="m742.461 346.637.832-2.877-1.253-1.243-2.248-1.738-3.48.987-.577.333-5.023 2.89-2.279 1.623-.184.131-.935.667-1.575 1.122-.289.206-2.271 1.618-.296.236-.869.693-.006.005-1.553 1.237-.005.005-.949.756-.005.005-2.465 1.965-.005.004-2.861 2.281-.01.007-.032.026-.014.011-.118.094-.398.343-.008.006-.082.07-.002.003-2.812 2.415-.006.005-7.177 6.165-7.398 6.728-3.963 3.603-7.233 6.906-4.533 4.328-7.075 7.067-4.604 4.599-6.912 7.227-4.19 4.382-6.728 7.399-3.334 3.667-.718.839-1.489 1.742-3.798 4.44-2.059 2.408-.546.639-.249.315-1.039 1.321-1.156 1.469-2.043 2.595-.376.477-1.384 1.759-.473.601-.099.126-1.084 1.573-.852 1.236-2.836 4.116-1.713 3.295-.852 1.639-.293 2.783 1.736 2.25 1.949.548 1.789-.729"/><path d="m742.038 342.518-3.482 1.001-5.613 3.248-7.555 5.4-2.189 1.749-.004.003-1.317 1.052-.001.001-.005.004-2.712 2.166-.006.005-2.059 1.646-.006.005-.921.735-.237.204-.006.005-1.809 1.556-2.181 1.876-.006.006-2.758 2.372-.008.007-.594.511-.007.007-2.242 1.928-.677.582-1.338 1.218-.007.006-4.275 3.892-.009.008-3.619 3.294-.007.006-2.153 1.96-3.581 3.42-.009.009-2.333 2.228-.007.007-5.887 5.623-1.405 1.403-.008.008-.98.979-.008.008-7.075 7.067-.511.51-.007.007-1.475 1.474-.009.008-.255.255-6.034 6.307-.007.007-2.889 3.02-.008.008-2.217 2.318-2.372 2.606-.006.007-1.844 2.026-1.817 1.997-.008.008-.17.188-.008.008-3.171 3.484-.716.788-2.971 3.468-.785.917-1.909 2.228-2.96 3.456-.031.037-1.026 1.3-1.802 2.285-1.029 1.304-.15.191-2.851 3.613-4.802 6.945-2.587 4.944-.304 2.781M634.703 465.103l.34.505.486.724 5.583 8.296 5.583 8.297 5.113 7.598 5.583 8.297 3.538 5.257.349.518 5.908 8.068 5.908 8.068 5.908 8.068 5.908 8.068 5.908 8.068 5.291 7.225 6.383 7.699 6.383 7.698 4.769 5.753 3.224 3.887 6.382 7.699 6.383 7.698 3.862 4.658 6.647 7.472 6.646 7.472 6.646 7.472 6.646 7.471 6.646 7.472 5.616 6.314 7.284 6.851 7.284 6.852 7.284 6.851 7.284 6.852 7.284 6.851 6.114 5.751 7.445 6.676 7.445 6.676 7.445 6.676 7.445 6.677 7.445 6.676 6.284 5.635 7.602 6.498 7.602 6.497 7.602 6.497 7.602 6.497 7.602 6.497 6.471 5.531 7.741 6.331 7.741 6.331 7.74 6.331 7.741 6.331 4.009 3.279.037.03.129.105.776.636M1079.1 664.933l-1.04-1.269-1.58-1.934M947.5 796.638l6.479 3.897.939.565M1095.86 885.883l1.98-.149 3.33-1.6 4.58-3.006 5.64-4.304 6.5-5.439 7.09-6.364 7.24-6.889.15-.143 7.07-7.076.34-.341 6.88-7.254.23-.244 6.54-7.277 5.69-6.761 4.62-5.977 3.38-4.962.9-1.676M1127.56 904.296l8.65 5.023 4.39 2.553 1.6-.037 2.61-1.124 3.51-2.175 4.29-3.148.12-.097 4.78-3.906 5.32-4.7 5.42-5.118.1-.094 5.51-5.516 1.62-1.724 3.65-3.875 4.83-5.457 4.18-5.098.99-1.326 2.4-3.212 2.46-3.802 1.43-2.922.37-1.937-5.04-8.639-2.74-4.7"/><path d="m1111.54 898.696 8.73 4.872 3.21 1.787 1.85-.066 2.23-.994.82-.368 4.15-2.615 5.08-3.776 5.82-4.794 6.34-5.626 6.58-6.232 6.58-6.589 6.31-6.679 5.77-6.5 5.02-6.058 4.06-5.379 2.95-4.49.97-1.925.76-1.507.46-2.25-4.89-8.725-2.1-3.752M1093.56 884.502l-.86 2.62.59 1.395 2.11-.147 3.56-1.704 4.89-3.21 6.04-4.603 6.95-5.823 7.45-6.679.15-.136 7.25-6.889.68-.645.11-.11v-.005l.88-.88.01-.006 5.05-5.061.01-.006 1.28-1.288.01-.005.58-.585 6.88-7.256.74-.779 6.68-7.441.32-.353 6.09-7.24 4.95-6.397 3.52-5.171M1093.29 888.517l8.74 4.872 3.12 1.741.21.12 1.05.588M1152.73 905.291l8.22 5.696 4.36 3.021.99-.018 1.58-.661 2.11-1.281 2.56-1.854 2.9-2.355 3.15-2.767 3.26-3.069 3.25-3.251 3.1-3.305 2.84-3.228 2.46-3.025 2-2.704 1.44-2.279.85-1.765.21-1.188-5.7-8.213-3.18-4.568M1272.74 821.264l2.65 1.268 5.36-3.651 5.41-7.075-6.35-7.724-5.48-6.658-6.35-7.724-5.46-6.641-6.35-7.724-5.45-6.625-6.35-7.724-5.43-6.609-6.66-7.463-6.66-7.462-6.65-7.463-6.66-7.463-6.66-7.462-6.65-7.463-6.66-7.462-6.66-7.463-2.2-2.474-10-.177-10-.176-10-.176-10-.176-10-.177-10-.176-6.27-.111-10-.176-10-.176-.67-.012"/><path d="m1081.65 912.357 2.59-7.189 3.39-9.407.46-1.271 3.39-9.407.54-1.506 3.4-9.407.17-.492-5.26-3.539-1.56-1.055-8.3-5.583-8.3-5.584-8.29-5.583-8.3-5.584-8.29-5.584-8.3-5.583-8.3-5.584-8.29-5.584-8.3-5.583-8.29-5.584-8.299-5.584-3.216-2.165-6.844-4.606-4.689-3.156-4.785 3.939.496 9.987.185 3.717.496 9.988.496 9.987.496 9.988.048.957.496 9.987.496 9.988.497 9.988.496 9.987.496 9.988.496 9.988.496 9.987.48 9.658 7.504 6.61 7.503 6.611 7.506 6.611 7.5 6.61 7.5 6.611 7.51 6.611 7.5 6.611 7.5 6.61 7.33 6.46 7.8 6.263 7.59 6.098 7.8 6.263 7.57 6.08 7.8 6.27 7.55 6.06 7.79 6.27 7.54 6.05 5.3-3.3 6.07-7.94.28-.36-4.37-8.99-4.37-9-3.79-7.792-4.01-9.161-4.01-9.16-3.65-8.327-3.72-7.954-4.23-9.058-4.04-8.642-.1-.21-2.02-9.794-2.01-9.795-2.02-9.794-.6-2.936Z"/><path d="m982.762 797.737.506 9.987.506 9.987.039.77.506 9.987.506 9.987.203 4.007.506 9.988.506 9.987.506 9.987.506 9.987.506 9.987.506 9.987.506 9.988.499 9.847M984.148 925.872l4.922-3.651 7.503 6.612 7.507 6.611 7.5 6.612 7.5 6.611 7.5 6.612 7.51 6.611 7.5 6.612 7.5 6.611 7.54 6.643 7.79 6.264 7.64 6.138 7.8 6.262 7.61 6.12 7.8 6.27 7.6 6.1 7.79 6.27 7.58 6.09M1046.5 697.506l.57-1.814.14-.62.01-.65-.12-.656-.23-.637-.35-.594-.44-.527-.53-.44-.52-.304-.06-.033-.07-.023-.56-.198-.63-.096-.63.033-1.97.15"/><path d="m1047.07 695.692-.02.045-.23.519-.13.177-.01.012-.22.3-.01.004-.45.389-.54.282-.59.161-.62.034-.64-.095-.63-.22-.58-.338-.53-.441-.44-.527-.35-.595-.13-.364-.04-.113-.06-.161-.12-.657.01-.651.14-.619.25-.564.36-.483v-.005l.46-.392.49-.255.01-.008.04-.019.54-.148.05-.013M1045.68 698.93l.48-.66.35-.764M1036.4 706.776l-.04-.806-.09-.677-.21-.653-.34-.604-.44-.532-.53-.439-.6-.329-.74-.328"/><path d="M1036.36 705.97v.106l-.02.289v.059l-.02.222-.17.648-.29.595-.4.519v.005l-.5.419-.57.312-.63.188-.66.057-.67-.076-.64-.207-.6-.329-.53-.439-.44-.532-.34-.605-.21-.654-.09-.678v-.023l.01-.153.03-.499.17-.648.29-.595.4-.513v-.006l.5-.424.58-.311.63-.188.66-.056.12.013.14.017.4.046.22.071.07.022.23.074.12.04M1035.17 710.074v-.005l.55-.702.39-.804.23-.875.06-.912M1024 716.213l.33.61.2.661.08.688-.07.689-.19.661-.31.611-.43.535-.01.004-.52.435-.6.327-.65.201-.68.069-.68-.068-.66-.2-.6-.325-.54-.439-.44-.534-.33-.61-.2-.661-.08-.689.06-.688.02-.045.06-.2.12-.417.31-.61.43-.529v-.006l.53-.439.6-.326.57-.176.08-.026.1-.01.58-.058.68.068.66.2.61.325.53.438.44.534Z"/><path d="m1023.85 721.779.01-.005.58-.722.42-.825.26-.894.08-.929-.1-.93-.27-.893-.45-.823M1011.73 728.661l.32.61.21.661.06.688-.06.688-.21.661-.32.61-.44.534-.01.005-.52.433-.61.326-.67.2-.68.068-.69-.068-.66-.201-.61-.326-.54-.439-.44-.534-.32-.61-.2-.661-.07-.688.07-.688.05-.172.06-.204.09-.285.32-.609.44-.529v-.006l.54-.438.61-.325.28-.085.2-.062.18-.054.69-.067.68.068.67.2.61.326.53.439.44.534ZM1012.1 733.659v-.005l.6-.721.44-.824.27-.893.09-.929-.09-.929-.27-.893M999.339 740.96l.328.604.203.653.071.677-.063.674-.195.646-.32.593-.431.516-.007.005-.521.416-.605.309-.655.185-.683.054-.682-.078-.659-.209-.607-.331-.534-.44-.439-.532-.328-.604-.203-.653-.071-.676.023-.254.016-.172.023-.248.195-.646.319-.593.429-.511.003-.006.528-.421.604-.309.655-.186.098-.008.156-.012.43-.034.683.079.658.208.609.331.532.44.44.533ZM1000.3 745.314l.01-.005.58-.698.43-.8.27-.873.08-.911-.09-.914M981.04 754.222l.025-.356.003-.033.018-.259.175-.616.298-.561.404-.478.005-.006.505-.388.581-.278.635-.157.665-.029.301.045.13.019.238.035.647.224.6.339.531.443.44.528.334.594.213.637.085.655-.046.649-.175.616-.299.56-.409.484-.006.004-.5.384-.431.206-.021.01-.129.061-.635.156-.665.029-.668-.099-.646-.224-.6-.339-.53-.442-.44-.528-.333-.594-.183-.543-.031-.093-.005-.041-.081-.614Zm0 0-.005-.054M985.223 757.71l.131-.025M988.852 756.354l.006-.005.554-.653.403-.758.237-.831.063-.877M969.99 763.985l.142-.573.261-.515.017-.019.009-.011.342-.401.004-.005.467-.341.544-.234.601-.115.635.006.643.129.628.245.062.037.103.062.423.253.526.445.443.523.343.579.23.614.109.623-.018.611-.143.573-.262.516-.298.349-.007.008-.067.078-.006.005-.462.336-.544.232-.601.114-.634-.007-.643-.128-.627-.245-.588-.351-.525-.446-.442-.523-.073-.123-.27-.455-.23-.612-.109-.624.017-.61Zm0 0 .02-.109M974.715 767.995l.145-.057M978.141 766.412l.005-.004.504-.589.355-.696M960.175 772.473l.213-.456.316-.373.004-.004.371-.252.008-.005.036-.025.494-.176.555-.063.593.051.61.165.602.272.572.368.518.45.035.04.091.105.321.37.356.56.253.583.14.585.021.563-.098.519-.036.077-.004.008-.174.372-.321.376-.005.003-.411.278-.495.175-.554.062-.593-.052-.609-.165-.601-.272-.457-.294-.114-.073-.027-.024-.491-.426-.445-.514-.356-.559-.253-.583-.14-.583-.022-.563.097-.52Zm0 0 .011-.034M965.234 776.864l.009-.005M951.856 779.471l.167-.199.087-.104.003-.004.352-.212.434-.109.497-.003.035.007.011.002.498.095.165.061.402.147.571.303.551.386.511.455.45.506.373.537.199.39.081.159.003.008.175.53.009.063.001.009.059.435-.044.457-.154.389-.259.306-.003.002-.35.209-.433.108-.498.002-.464-.09-.079-.015-.155-.057-.412-.151-.569-.303-.55-.385-.51-.454-.449-.505-.373-.537-.28-.547-.179-.538-.069-.507.014-.151.029-.306.153-.389Zm0 0 .002-.005M956.68 784.296l.029-.016M960.891 780.773l-.091-.686-.241-.728M1077.98 659.092l-.1.068-.19-.027-.28-.124-.04-.029-.3-.183-.4-.294-.41-.33-.04-.035-.47-.421-.48-.462-.46-.483-.44-.488-.39-.472-.33-.439-.26-.389-.17-.324-.09-.246.01-.159.11-.067.19.029.27.124.35.214.4.294.44.363.47.421.48.461.47.482.04.049.39.436.39.473.33.437.25.375.01.014.18.325.08.247-.01.16Zm0 0-1.5 2.638-.66 1.158"/><path d="m1073.25 654.188-.4.216-1.64.886-.51.272-.04.024-.28.148-.31.17M1075.54 662.96l.14.021.14-.092M957.029 784.087l-.003.003-.318.19-.035.022-.434.108-.498.002-.461-.09-.082-.015-.153-.057-.414-.151-.569-.303-.55-.386-.51-.454-.449-.505-.372-.536-.281-.548-.178-.537-.07-.507.015-.154.028-.303.153-.389.009-.011.163-.194.085-.102.004-.002M956.672 784.302l3.112-1.68"/><path d="m953.265 776.103-1.32 3.144-.097.231M955.621 779.848l.511.454.45.506M965.863 773.508l.253.584.14.584.021.563-.099.52-.032.069-.003.007-.178.38-.318.372-.003.004-.399.269-.017.012-.495.175-.554.063-.594-.053-.608-.165-.601-.271-.456-.294-.115-.074-.026-.022-.492-.427-.445-.515-.357-.559-.253-.582-.14-.584-.022-.562.098-.52.019-.042.193-.415.321-.377.004-.003.375-.254M961.113 771.366l.494-.177.555-.063.593.052.61.164.602.272M961.107 769.615l-.61 1.86-.329 1.006M967.941 775.547l.563-.38M965.227 776.871l2.716-1.324M964.539 771.982l.519.45.036.041.091.105.32.369M975.8 767.335l-.007.009-.071.082-.004.005-.467.34-.39.166-.155.066-.601.115-.634-.007-.643-.129-.627-.245-.587-.352-.525-.445-.442-.521-.073-.123-.27-.456-.231-.613-.108-.623.016-.61.03-.118.112-.456.262-.515.026-.03.009-.01.337-.396.005-.004M975.832 763.479l.343.581.23.612.108.625-.017.609M970.384 761.775l-.404 2.219M976.77 767.19l.735-.313.633-.46.003-.005M972.367 761.779l.634.007.644.128.628.245.062.037.104.062.422.253M974.707 768.003l2.062-.813M983.68 751.099l.665-.029.302.044.13.02.237.035.647.223.6.34.531.442.44.529.333.594.214.637.085.655-.046.648-.175.617-.299.56-.405.478-.005.006-.505.388-.41.195-.021.01-.15.072-.494.121-.141.035-.665.029-.668-.099-.646-.224-.6-.34-.53-.442-.44-.528-.334-.593-.182-.542-.031-.095-.005-.04-.081-.614.005-.064.022-.325.003-.033.016-.226.175-.616.298-.561.409-.484.005-.004M980.875 752.757l.156 1.474M986.523 757.469l.858-.211.785-.375.683-.524.004-.005M985.211 757.72l1.311-.251M998.925 745.329l-.005.006-.528.421-.603.309-.656.185-.683.054-.683-.079-.658-.209-.608-.33-.533-.44-.439-.533-.327-.604-.204-.653-.072-.676.024-.253.016-.172.023-.249.195-.646.32-.593.432-.516.006-.005M999.328 740.971l.327.604M999.867 743.579l-.195.645-.32.593M994.465 739.929l.604-.309.655-.185"/><path d="m995.148 746.24.888.282.924.107.922-.074.885-.25.815-.417.718-.568v-.006M997.75 739.667l.608.33M1011.29 733.118l-.01.006-.53.438-.61.326-.66.2-.69.067-.69-.067-.66-.201-.61-.326-.54-.439-.43-.534-.33-.61-.2-.661-.07-.688.07-.688.05-.171.06-.205.09-.285.33-.61.43-.534.01-.005M1009.48 727.172l.66.201.61.326.53.439.44.534.33.61.2.661M1012.25 731.319l-.2.661M1007.8 734.967l.93.091.93-.091.89-.27.82-.44.72-.592.01-.006M1007.44 727.372l.28-.085.2-.061.18-.054M1024.53 718.871l-.19.662-.31.61-.43.529v.007l-.53.439-.6.326-.65.202-.68.068-.68-.067-.66-.2-.61-.325-.53-.439-.44-.534-.33-.61-.2-.662-.08-.688.06-.688.02-.046.06-.2.12-.416.31-.61.43-.535.01-.005.52-.434M1021.75 714.727l.66.201.6.325.54.438.43.534.33.61.21.661M1020.53 723.185l.92-.093.88-.272.81-.441.71-.594v-.006M1019.73 714.929l.57-.175.09-.026M1036.26 705.303l.09.678-.02.335v.059l-.02.281-.17.648-.29.595-.4.514v.006l-.5.423-.57.313-.63.188-.66.057-.67-.077-.64-.206-.6-.33-.53-.439-.44-.532-.34-.604-.21-.654-.09-.678v-.024l.01-.154.03-.498.17-.648.29-.595.4-.519.01-.004.49-.419.58-.312.63-.187.65-.057.12.014.15.016.4.047M1033.71 711.074l.78-.421.67-.573.01-.006M1034.74 703.076l.53.439.44.531M1046.45 696.749v.005l-.46.393-.53.283-.59.161-.63.034-.64-.095-.62-.221-.59-.337-.52-.441-.45-.528-.34-.594-.14-.365-.04-.113-.06-.16-.11-.657.01-.651.13-.619.26-.565.36-.487v-.005l.46-.388M1046.86 693.139l.23.638.12.656M1043.7 690.924l.64.096.56.198.06.022.06.033M1056.54 685.627l-.31.443-.4.348-.02.012-.46.227-.55.122h-.58l-.6-.123-.6-.241-.57-.348-.51-.444-.35-.398-.08-.093-.02-.031-.36-.579-.26-.615-.15-.627-.03-.614.09-.578.2-.521.3-.426.01-.015.4-.347.49-.239.54-.12.58.001.61.123.59.241.57.348.46.398.06.045.04.058.4.463.36.578.26.614.15.626.03.614-.09.578-.2.52Zm0 0-1.11 2.503M1052.17 680.54l-2.64.717M1051.47 689.523l.82.166h.79M1058.25 679.394l.74.491.76.359.75.213.72.059.66-.097.57-.251.46-.392M1064.73 676.322l-.24.385-.34.29-.42.184-.36.055-.12.017-.53-.044-.56-.158-.57-.266-.26-.174-.13-.084-.15-.106-.51-.447-.46-.514-.37-.56-.29-.586-.19-.588-.08-.568.02-.298v-.003l.01-.225.01-.031.13-.432.21-.321.01-.012.03-.051.13-.113.01-.006.2-.17.42-.183.48-.071.53.045.56.158.56.266.55.363.51.447.45.513.38.559.09.186.08.171.11.227.19.588.08.567-.03.526-.14.464Zm0 0-1.5 2.932M1060.33 671.313l-.57.218v.001l-.19.073-.01.003-2.28.876M1064.96 671.522l.71.515.52.294.18.096.01.009.69.27.64.127.57-.018.47-.163.36-.302M1070.98 668.952l-.27.222-.34.12-.12.003-.3.009-.08-.016-.4-.079-.51-.199-.38-.213-.14-.083-.53-.381-.5-.452-.45-.504-.4-.539-.22-.371-.1-.18-.01-.012-.03-.092-.19-.438-.14-.514-.01-.212-.02-.252.07-.398.17-.315.27-.222.34-.118.42-.012.44.088.03.007.01.001.51.2.52.296.52.38.01.004.49.447.12.131.34.372.39.537.32.55.24.542.13.513.04.465-.01.021-.06.377-.01.009-.16.308Zm0 0-1.87 3.398M1066.35 663.834l-.41.186-.5.228-2.59 1.184M1069.86 665.347l.67.541.66.445.62.331.55.205.47.07.24-.042.13-.024.25-.201M1075.51 663.028l-.18.148-.28.048-.34-.053-.41-.152-.46-.246-.49-.329-.49-.4-.49-.457-.21-.215-.26-.279-.41-.514-.36-.513-.28-.492-.19-.453-.1-.396-.01-.087v-.238l.02-.051.07-.188.19-.147.27-.047.35.054.41.153.45.246.49.329.27.217.05.039.18.143.46.434.02.022.47.493.41.512.16.23.2.282.24.424.04.068.19.453.1.396.01.325-.06.172-.03.069Zm0 0-2 3.545-.06.098"/><path d="m1070.83 658.015-.39.198-.16.08-.22.11-1.27.643-1.67.846M1078.35 657.229l-.02-.014-.11-.106-.2-.194-.28-.275-.35-.344-.4-.401-.45-.442-.46-.467-.48-.472-.45-.461-.43-.431-.38-.384-.32-.323-.25-.25-.16-.166-.07-.077.02.015.11.107.2.195.28.275.35.344.4.4.44.442.47.465.47.471.46.46.43.43.38.384.32.323.24.25.16.168.08.078Zm0 0-.63 1.117"/><path d="m1073.54 652.422-.95.531-.59.329-1.67.937"/><path d="m1072.59 652.953-.02-.015-.31-.176-.24-.087-.15.005-1.91 1.083M937.841 786.568l-.056.098-.043.189.044.241"/><path d="m938.004 786.703-.221.393-1.252 2.236.037.111.129.199.214.28.293.349.359.406.412.447.449.47.468.476.47.463.454.432.419.385.37.322.305.248.228.164.062.031"/><path d="m939.302 786.388-.314.576-.206.376-.444.811-.957 1.75-.022.04-.027.064.067.154.158.239.243.314.319.377.383.426.431.458.464.473.478.469.475.448.453.41.399.343.014.012.359.288.289.209.209.122.122.03 2.543-1.456"/><path d="m937.359 789.94.12.029.208.121.289.208.359.287.414.356.453.41.476.449.479.471.465.474.433.459.383.426.259.306.06.072.243.313.157.239.066.153-.028.063M942.044 784.969l-.57 1.097-.506.972-.087.168-.262.504-.053.102-.157.301-.203.391-.039.075-.011.235.088.314.182.381.269.432.347.468.41.485.459.484.117.111.372.353.502.427.494.372.283.185.184.12.423.225.363.137.087.012.202.03.203-.053.543-.312 3.188-1.832"/><path d="m940.168 788.579.049-.066.059-.081.202-.054.287.041.363.136.306.162.117.062.149.097.32.208.494.373.503.428.49.465.385.407.075.078.411.486.209.282.096.13.043.057.208.335.061.098.155.324.026.056.087.314-.006.105-.006.129-.109.146M948.876 791.154l.149-.2.017-.316-.116-.426-.244-.514-.006-.01M946.791 781.409l-1.157 2.415-.361.755-.223.466-.085.314.017.336.003.052.123.445.222.487.192.312.12.196.391.512.454.495.5.459.526.405.533.337.52.255.11.037.375.126.433.066.365-.035.281-.134 1.302-.737.524-.296 1.703-.964"/><path d="m953.658 787.714.254-.309.117-.425-.024-.524-.093-.341-.072-.262-.009-.02-.29-.639-.422-.69-.529-.693M945.047 785.046l.185-.23.281-.135.363-.036.433.064.486.163.52.255.534.337.307.236.221.17.501.46.455.496.391.513.313.509.221.488.123.445.019.387-.086.314-.187.229M1167.37 848.498l.46-.975.13-.318.06-.346v-.363l-.06-.364-.14-.352-.19-.326-.24-.288-.28-.239-.32-.181-.34-.115-.34-.045-1.06-.058"/><path d="m1167.4 848.024-.28.163-.32.097-.33.027-.35-.045-.33-.115-.32-.181-.28-.239-.24-.288-.2-.327-.13-.352-.06-.364-.01-.363.07-.347.13-.317M1164.94 845.097l.24-.224.28-.164.2-.062.01-.003.11-.032.29-.023.04-.003M1167.83 847.523l-.01.01-.18.266M1167.12 848.874v-.002l.26-.374M1162.19 853.825l.1-.436.02-.373-.05-.373-.12-.358-.19-.331-.24-.29-.29-.238-.4-.254M1160.58 854.926l-.36-.037"/><path d="m1159.13 851.661.27-.238.3-.176.34-.108.36-.035.35.037.34.106.01.003.02.013.18.095.12.069M1162.29 853.39l-.09.358v.009l-.01.022v.012l-.14.287-.21.29M1161.57 855.15l.01-.002.29-.392.2-.446.12-.485M1158.71 853.385l-.05-.373M1159.02 854.074l-.18-.331M1152.57 858.746l.23-.294.29-.242.32-.18.35-.113.37-.039.37.034.35.107.33.176.29.238.24.29.18.333.11.361.04.376-.03.376-.1.363-.17.335-.23.294-.28.242"/><path d="M1155.53 861.641v-.003l.31-.397.23-.453.14-.49.04-.509-.06-.508-.15-.488-.24-.449-.33-.393M1154.56 861.696l-.37.04-.37-.035M1152.32 860.196l-.05-.376.03-.377M1153.13 861.419l-.28-.238-.24-.29M1149.1 865.545l.18.331.11.36.03.373-.03.374-.11.359-.18.331-.24.29-.29.238-.33.177-.36.109-.38.036-.37-.037-.36-.109-.33-.177-.29-.238-.24-.291-.18-.331-.1-.359-.04-.374.04-.373.11-.36.17-.331.24-.29.29-.238.33-.176.36-.109.38-.037.37.037.36.109.33.178.29.238.24.29Z"/><path d="M1149.18 868.14v-.003l.32-.392.24-.447.15-.486.05-.505-.05-.505-.15-.485-.24-.448-.32-.393M1139.39 871.845l.29-.225.33-.165.36-.098.38-.027.37.045.36.115.33.181.29.239.24.289.18.328.1.353.04.366-.04.363-.11.348-.17.319-.24.278M1142.71 874.435l.01-.003.32-.375.24-.431.15-.471.05-.492-.05-.494-.15-.477-.24-.443M1140.37 875.025l-.36-.115-.33-.181-.29-.239-.24-.289-.18-.327-.11-.354M1132.73 878.016l.29-.205.32-.146.35-.079.37-.012.37.058.35.125.33.186.29.241.24.287.18.321.11.344.04.352-.03.348-.1.33-.17.299-.23.257M1136.36 880.327v-.003l.31-.347.23-.404.14-.446.04-.47-.06-.477-.15-.464-.24-.434M1134.48 881.151l.36-.079M1132.23 878.902l.11-.33M1132.54 880.267l.24.287.29.241M1126.09 883.973l.1-.175.21-.229.27-.178.31-.118.33-.056.36.011.36.075.34.137.33.194.28.244.24.284.19.313.12.329.05.335-.02.326-.09.304-.15.273-.02.021v.005l-.19.203-.27.177-.31.118-.33.055-.36-.01-.35-.076-.35-.137-.32-.194-.29-.244-.24-.283-.18-.313-.12-.329-.06-.334.02-.326M1125.95 884.374l.09-.305M1130.3 885.627l.01-.002.29-.31.2-.368.12-.412.03-.44-.07-.452-.17-.446M1120.28 888.76l.13-.239.19-.195.07-.04v-.003l.17-.1.28-.086.32-.025.33.036.35.097.33.153.32.204.28.246.24.28.19.302.14.314.06.312v.299l-.04.194-.01.004-.01.076-.13.239-.19.195-.24.143-.29.085M1124.75 890.169v-.001l.26-.264.17-.323.09-.371v-.404l-.09-.422-.18-.424-.25-.409M1115.24 892.502l.1-.201.16-.156.21-.103.25-.049.14.005h.01l.14.005.31.066.32.121.32.171.31.215.28.25.24.275.2.29.15.294.07.234v.004l.01.049.03.268-.04.239-.1.201-.16.155-.01.001-.2.103-.26.048M1119.87 893.813l.21-.21.14-.272.05-.324-.03-.362-.12-.388-.19-.398-.27-.392-.33-.373M1115.23 893.01l.08.287.15.293.2.29.24.275.28.25.31.214.32.171.32.121M1118.19 894.836l1.67-1.018v-.003l.01-.002M1183.32 824.961l-.04.06-.09.006-.14-.047-.18-.1-.21-.147-.18-.144-.06-.047-.25-.225-.27-.251-.25-.269-.15-.165-.1-.11-.22-.271-.19-.256-.16-.232-.11-.198-.06-.158v-.11l.04-.06.09-.006.06.02.08.028.18.1.21.148.24.19.18.162.07.063.03.03.23.221.26.268.25.275.22.27v.005l.19.251.15.232.11.199.06.157.01.111Zm0 0-1.13 1.943"/><path d="m1180.7 822.237-.88.458-.37.192-.05.022-.05.028-.14.07M1115.88 890.662l-.65 1.843-.03.239.02.268.09.286.14.294.2.29.24.275.28.249.31.215.32.171.32.121.31.067.29.01.25-.048.21-.104 1.68-1.022"/><path d="m1116.88 892.193.32.171.3.215.28.25.25.275.19.29.15.294M1118.46 893.976l.02.268-.04.239M1119.86 893.816v-.001M1115.96 891.996l.14.005h.01l.13.004.32.067M1115.23 892.505l.02-.02.09-.181.15-.156M1120.58 887.484l-.37 1.554v.299l.07.312.13.313.19.302.24.28.29.246.31.204.34.153.34.096.33.037.32-.025.28-.086 1.37-.804"/><path d="m1121.12 888.101.32-.025.33.036.34.097.34.153.31.204.29.246.24.28.19.302.13.313.07.313v.298l-.05.191v.004M1124.42 890.365l.33-.193v-.003M1120.21 889.038l.07-.274v-.011l.13-.228.19-.195M1123.29 891.027l-.07.045-.17.097M1126.04 883.067l-.09 1.311-.02.326.05.334.12.33.19.312.24.284.28.243.33.194.34.138.36.075.35.01.34-.055.31-.118 1.1-.582"/><path d="m1125.95 884.378.01-.023.08-.282.05-.096v-.008l.1-.168.21-.229.27-.177.3-.119.34-.055.36.01.35.075.35.138.32.194.29.244.24.283.18.313.12.33.06.334-.02.326-.09.305-.15.272-.02.018v.004l-.2.207-.25.169-.01.008M1129.94 885.869l.36-.239v-.003M1132.04 878.815l.2.792.11.343.18.321.24.287.29.241.33.186.35.125.37.058.37-.012.35-.079.71-.274M1133.01 877.816l.33-.145.35-.08.36-.011.37.057.36.125.33.186.29.242.23.286.18.322.12.343.04.352-.03.348-.1.33-.17.299"/><path d="M1132.24 879.607v-.05l-.03-.242-.01-.02v-.04l.03-.348.1-.329.17-.299.23-.258M1135.54 880.803l.43-.196.38-.277.01-.003M1135.44 880.728l-.19.137-.01.005-.08.063-.28.123-.05.022M1139.05 874.351l.39.323.45.245.49.155.5.061.51-.037.48-.132.45-.222.39-.305.01-.003"/><path d="m1140 874.915-.33-.181-.29-.24-.24-.288-.17-.328-.11-.353-.04-.366.04-.363.11-.349.17-.319.24-.277.29-.226.33-.165.36-.097.38-.027.37.045.36.115.33.18.29.24.24.289.18.327.11.354.03.365-.03.364-.11.348-.18.319-.24.278-.29.225-.33.165-.36.098-.37.026-.38-.044-.36-.115ZM1145.9 868.462l.45.24.49.147.5.05.51-.049.48-.147.45-.239.39-.322.01-.003"/><path d="m1149.27 867.349-.18.331-.24.29-.29.238-.33.177-.36.108-.37.037-.38-.037-.36-.109-.33-.177-.29-.239-.24-.29-.17-.331-.11-.359-.04-.374.04-.374.11-.359.18-.331.23-.29.29-.238.34-.176M1149.09 865.551l.18.331.11.359.04.374M1147.5 864.699l.37.037.36.109.33.177M1152.31 861.993l.45.238.48.145.49.046.5-.053.48-.152.43-.245.39-.327v-.003M1155.51 861.167l-.29.242-.32.181-.35.112-.37.04-.37-.035-.35-.107-.33-.176-.29-.238-.24-.29-.18-.333-.11-.361-.04-.376.03-.377.1-.362.17-.335.23-.294M1154.49 857.918l.35.107.33.176.29.238.24.29.18.333.11.361M1155.9 860.538l-.17.335M1153.08 858.216l.32-.18M1162.19 853.784l-.14.299-.22.29-.26.237-.31.176-.34.109-.35.036-.36-.037-.34-.109-.33-.177-.29-.238-.24-.29-.18-.331-.12-.359-.05-.373.01-.373.09-.358.15-.33.22-.29.26-.237.31-.176.34-.108.35-.036M1162.25 852.65l-.12-.359-.18-.33-.24-.29-.29-.238M1162.29 853.396l.01-.374M1162.29 853.396l-.09.357M1158.91 855.711l.47.147.48.051.48-.05.46-.146.41-.239.36-.321v-.003M1160.75 851.146l.34.109.03.013.03.019.27.145M1164.18 849.109l.43.244.46.156.46.061.45-.036.43-.131.38-.222.32-.303.01-.004M1166.11 844.592l.34.045.34.115.31.18.29.239.24.288.19.327.13.352.07.364v.362l-.06.347-.13.317-.19.277-.05.041v.004l-.19.179-.29.164-.31.097-.34.026-.34-.045-.33-.115-.32-.18-.29-.239-.24-.289-.19-.326-.13-.352-.07-.365v-.362l.07-.347.13-.318.18-.276.25-.224.28-.163M1168.88 842.783l.38.325.42.252.43.168.44.079.42-.015.38-.106.35-.195.28-.275.21-.345M1172.89 841.417l-.16.255-.21.203-.16.088-.1.056-.28.079-.31.01-.32-.058-.33-.124-.3-.186-.28-.241-.25-.286-.2-.32-.14-.342-.09-.35-.03-.346.04-.328.1-.297.16-.255.13-.124.08-.079.25-.144.29-.078.31-.01.32.058.32.124.31.186.28.241.24.285.2.32.15.342.09.35.02.346-.04.327-.09.298Zm0 0-.7 1.254M1170.78 838.55l-1.43.245M1173.18 837.329l.37.329.4.261.41.186.4.102.39.014.34-.073.29-.158.24-.238M1176.95 836.167l-.17.175-.22.117-.26.054-.05-.002-.23-.009-.29-.075-.31-.138-.29-.193-.28-.243-.25-.282-.21-.311-.16-.328-.11-.333-.05-.323v-.303l.04-.172.03-.098.12-.227.17-.175.22-.116.25-.054.29.011.29.076.31.137.29.194.28.242.25.282.2.311.17.328.11.332.05.323-.01.303-.06.27-.12.227Zm0 0-.93 1.585M1174.65 833.186l-1.74.535M1176.56 832.594l.37.332.38.275.38.206.37.131.33.05.3-.033.24-.115.18-.191M1180.18 831.458l-.13.141-.18.085-.22.024-.25-.037-.27-.097-.24-.131-.04-.022-.28-.203-.28-.245-.25-.278-.22-.301-.18-.311-.1-.22-.04-.09-.08-.296-.03-.272.03-.237.08-.192.13-.141.18-.084.21-.024.25.037.27.097.29.153.28.203.27.245.25.278.22.3.18.311.14.309.08.297.03.271-.02.237-.08.193Zm0 0-1.07 1.79M1177.81 828.551l-1.91.765M1178.92 828.719l.36.336.36.289.36.23.32.164.29.09.24.014.19-.064.12-.139M1182.32 827.687l-.08.102-.14.047-.18-.01-.21-.067-.24-.121-.26-.171-.27-.213-.27-.248-.26-.274-.23-.288-.2-.292-.16-.284-.12-.266-.07-.237-.01-.175-.01-.024.04-.153.09-.102.13-.046.18.01.22.067.24.121.26.171.27.213.26.248.26.274.21.263.02.025.1.149.1.142.17.284.03.072.05.126.03.067.07.237.02.199-.04.154Zm0 0-1.16 1.951M1179.74 824.911l-.26.122-.85.397-.04.019M1183.16 823.37l-.05-.036-.09-.087-.14-.134-.19-.176-.21-.21-.24-.238-.26-.255-.26-.263-.26-.261-.24-.249-.22-.227-.19-.196-.15-.158-.1-.115-.06-.065v-.015l.05.037.09.087.15.134.18.176.22.21.24.237.25.255.26.263.26.261.24.248.22.227.19.197.15.158.1.114.06.066v.015Zm0 0-.36.642M1180.5 820.685l-.34.189-.46.256-.58.323M1180.16 820.873l-.06-.051-.24-.197-.23-.16-.18-.118-.15-.07-.1-.02-.56.331M1105.14 895.129l.04.054.12.174"/><path d="m1105.36 895.249-.06.108-.52.921v.025l.04.076.09.124.14.167.18.205.22.233.23.254.26.264.26.264.26.254.24.234.22.206.19.169.15.125.11.078.06.027.06-.037"/><path d="m1106.58 895.533-.16.304-.27.498-.36.697.01.072.07.118.01.019.1.143.16.199.2.227.24.249.25.259.27.26.22.211.04.04.13.117.13.116.25.205.21.17.18.127.14.081.09.031.04-.02 1.26-.743"/><path d="m1105.79 897.032.03-.02.09.03.14.081.18.127.21.17.25.205.26.233.27.251.26.261.26.259.11.121.12.128.2.228.16.199.11.161.07.119.02.071M1108.44 895.539l-.14.279-.15.323-.1.189-.04.1-.09.185-.02.053-.01.063.03.16.02.043.06.155.14.229.18.25.22.263.25.264.08.083.19.174.28.238.28.212.17.111.1.065.25.135.22.087.18.036.13-.015.87-.525 1.13-.685"/><path d="m1107.92 896.615.08-.067.11-.014.02-.002.15.031.03.006.19.075.03.012.21.113.04.021.27.176.28.212.28.239.28.257.19.209.06.056.21.262.17.229.02.022.01.018.12.211.08.198.03.16-.03.116-.08.066M1112.67 898.011l.11-.09.04-.157-.04-.216-.07-.182"/><path d="m1112.01 892.979-.88 2.047-.06.159-.01.201.01.033.04.201.11.258.16.273.21.277.25.27.27.253.3.226.3.19.3.149.28.099.25.049.22-.008.17-.061 1.87-1.141M1115.8 896.454l.16-.152.09-.216.01-.271-.07-.317-.14-.35-.22-.369-.28-.375-.34-.365"/><path d="m1111.13 895.027.12-.113.18-.061.22-.007.25.048.28.099.3.148.3.191.3.226.27.254.25.27.21.277.16.273.11.258.05.234-.01.201-.06.159-.12.112M697.904 359.894l-.068-.494-.167-.484-.263-.456-.344-.411-.415-.349-.469-.274-.505-.189-.522-.096h-.518l-.497.097-.454.189-1.452.625"/><path d="m697.903 359.893-.006.087-.028.397-.067.225-.005.016-.064.215-.232.411-.319.35-.004.003-.389.272-.454.19-.496.096-.519.001-.522-.096-.506-.189-.469-.274-.416-.349-.345-.411-.261-.457-.168-.484-.067-.495.035-.484.136-.457.232-.411.303-.331.006-.007.007-.007.004-.004.38-.265.013-.009M688.132 366.709l.256.467.005.015.003.01.009.029.142.447.055.517-.05.512-.153.487-.252.445-.339.384-.005.004-.41.306-.473.222-.515.127-.535.027-.537-.074-.516-.173-.476-.265-.418-.347-.344-.415-.256-.467-.158-.502-.056-.517.051-.512.154-.488.252-.444.336-.38.003-.004.415-.309.474-.223.074-.018.037-.009.324-.08.079-.019.536-.027.536.075.515.173.476.265.418.346.343.415ZM685.312 365.461l-.679.113M678.429 375.758l.254.474.155.513.051.532-.057.531-.161.508-.259.468-.348.407-.005.004-.418.329-.481.245-.522.148-.543.044-.542-.06-.52-.162-.479-.259-.419-.344-.343-.418-.255-.475-.155-.513-.05-.532.056-.53.161-.509.26-.467.344-.404.004-.004.423-.333.482-.244.522-.148.542-.044.541.06.521.162.479.259.419.344.343.418ZM668.61 385.311l.256.478.157.518.054.54-.053.539-.157.519-.255.478-.344.419-.004.004-.414.34-.478.255-.518.158-.539.053-.539-.053-.518-.157-.478-.255-.419-.344-.344-.419-.255-.478-.158-.519-.053-.539.053-.539.157-.519.255-.478.339-.414.004-.005.419-.344.477-.256.518-.157.539-.053.539.053.519.157.478.255.418.344.344.419ZM659.001 395.055l.26.477.166.518.064.539-.04.538-.142.517-.239.477-.326.418-.005.004-.397.338-.461.254-.503.157-.526.052-.528-.054-.51-.157-.472-.256-.417-.344-.345-.418-.261-.477-.165-.518-.064-.539.039-.538.142-.517.239-.477.323-.413.003-.005.402-.342.461-.255.503-.156.526-.053.528.054.51.158.473.255.417.344.345.419ZM645.396 405.044l.211-.463.009-.013.008-.011.277-.375.003-.005.372-.329.433-.241.478-.145.503-.042.509.062.496.164.464.259.414.345.347.417.269.473.178.511.082.529-.017.527-.117.505-.211.463-.298.404-.004.004-.369.325-.433.241-.477.144-.465.038-.026.003-.012.001-.509-.063-.495-.163-.464-.26-.414-.344-.347-.417-.268-.472-.179-.511-.082-.529.017-.527.117-.505Zm0 0 .011-.032M647.508 408.772l.093.021M637.594 413.596l.255-.374.003-.004.237-.217.006-.005.089-.081.395-.217.441-.122.472-.023.483.078.477.175.451.266.409.347.351.413.279.465.197.498.107.512.012.507-.082.482-.173.438-.258.377-.004.004-.329.299-.176.097-.012.006-.206.114-.442.121-.471.022-.483-.078-.476-.175-.451-.266-.409-.346-.351-.413-.278-.464-.197-.498-.107-.512-.013-.506.081-.482.173-.438Zm0 0 .004-.007M640.574 417.751l.032-.003M630.75 423.616l-.138-.487-.05-.478.038-.448.127-.403.205-.337.003-.004.284-.267.346-.182.074-.017.007-.001.316-.072.434.005.45.101.452.191.437.276.403.349.354.409.293.453.22.479.136.488.05.478-.039.449-.126.402-.107.175-.005.007-.098.159-.003.003-.279.263-.348.181-.397.09-.432-.006-.451-.1M625.372 428.643l.226-.221.292-.138.347-.05.388.04.058.018.007.003.349.108.424.212.419.288.396.352.359.403.308.438.244.457.172.458.093.44.003.12.001.008.007.28-.073.357-.152.295-.003.002-.224.218-.293.137-.347.05-.387-.041-.414-.129-.424-.212-.417-.288-.396-.352-.358-.402-.308-.437-.244-.456-.173-.458-.093-.44-.011-.407.072-.358.15-.292.002-.003Zm0 0 1.443-2.436M628.723 432.868l.036-.013M729.073 338.49l-.075.064-.149-.009-.216-.082-.275-.152-.325-.216-.36-.272-.384-.317-.391-.35-.015-.015-.085-.081-.283-.274-.362-.376-.326-.366-.214-.266-.063-.077-.217-.307-.15-.258-.077-.2-.001-.135.076-.064.149.01.217.083.276.152.324.216.214.162.146.11.383.317.39.349.383.37.094.097.267.277.325.366.277.343.218.306.15.259.078.2v.013l.001.123Zm0 0-.072.137M725.18 334.737l-1.272.738-1.506.874"/><path d="m628.94 430.102.245.457.172.457.094.441.002.112v.008l.008.287-.073.358-.151.291-.001.003-.228.221-.251.118-.041.019-.346.049-.388-.04-.414-.129-.423-.213-.418-.287-.396-.352-.358-.402-.307-.438-.245-.456-.172-.457-.093-.44-.011-.407.071-.358.153-.295.001-.003.224-.218.293-.138.347-.05.388.04.065.02.006.002.343.107.424.212M626.824 426.197l-1.453 2.452M631.859 419.789l-1.135 2.018-.126.403-.039.448.051.477.137.488.219.479.292.452.354.409.403.348.436.276.451.191.451.101.433.006.397-.09"/><path d="m630.723 421.808.021-.035.187-.306.003-.003.28-.264.347-.182.081-.018.006-.002.311-.07.432.005.452.1.452.192.436.276.403.349.355.408.292.453.219.48.138.488.05.478-.039.448-.127.403-.103.168-.004.007-.1.162-.002.004-.284.266-.326.17-.021.011M641.74 417.115l-.003.004-.332.303-.164.09-.012.006-.219.12-.403.111-.038.011-.472.022-.483-.078-.476-.176-.451-.265-.409-.346-.35-.413-.279-.465-.197-.497-.107-.512-.013-.507.082-.481.173-.438.01-.015.247-.363.004-.004M639.965 412.639l.477.175.452.266.409.346.351.414.279.465.196.498M642.248 415.821l-.082.481-.174.438M638.086 413.002l.006-.005.083-.076.394-.217.442-.122M638.396 411.962l-.81 1.641M650.18 405.149l.179.511.082.529-.018.528-.117.504-.211.464-.294.399-.004.004-.372.329-.433.241-.477.144-.44.037-.026.002-.037.003-.409-.05-.1-.013-.496-.163-.463-.259-.414-.345-.347-.416-.269-.473-.178-.511-.082-.529.017-.527.116-.505.019-.04.192-.423.018-.024.008-.011.272-.369.004-.003.368-.326.433-.241.477-.144.503-.042.509.062.497.163M645.749 403.987l-.362 1.065M655.806 399.141l-.472-.256-.417-.343-.346-.419-.26-.477-.165-.518-.064-.538.039-.538.142-.518.239-.476.326-.418.005-.004.397-.339.461-.254.503-.157.525-.052.529.054.51.157.473.256.417.344.345.418.26.478.166.518.064.538-.04.538-.142.518-.239.477-.323.413-.004.004-.401.343-.461.254-.503.156-.526.052-.528-.053-.51-.158ZM668.855 387.914l-.255.478-.339.415-.004.004-.419.344-.477.256-.518.157-.539.054-.539-.053-.519-.158-.478-.255-.418-.344-.344-.419-.256-.478-.157-.518-.054-.539.053-.54.157-.519.255-.478.344-.419.004-.003.414-.341.478-.255M668.602 385.319l.255.478M669.016 386.316l.053.539M666.305 384.091l.539.053M667.359 384.301l.478.256M678.06 379.194l-.003.005-.423.332-.482.245-.522.148-.542.045-.542-.06-.521-.163-.479-.258-.419-.345-.343-.418-.254-.474-.155-.514-.051-.532.057-.53.161-.509.259-.467.348-.408.005-.004M678.881 377.285l-.056.53-.161.509M675.055 374.714l.522-.148.542-.044M687.804 370.025l-.004.004-.414.309-.474.223-.514.127-.536.027-.536-.074-.516-.174-.476-.264-.418-.347-.344-.415-.256-.467-.159-.502-.055-.517.05-.512.155-.488.251-.444.34-.384.005-.004M688.125 366.715l.252.461.004.006.008.026M688.539 367.685l.055.516M685.836 365.442l.536.074M686.891 365.69l.476.264M697.179 361.597l-.003.004-.394.275-.454.189-.495.097-.52.001-.522-.096-.506-.189-.469-.274-.416-.349-.344-.411-.262-.457-.168-.484-.067-.495.035-.484.136-.457.232-.411.31-.338.005-.007.005-.004.004-.003M695.664 357.243l.505.189.469.274.415.349.344.41.262.457.167.484M697.793 360.609l-.069.231-.232.411M693.676 357.433l.453-.19M694.625 357.147h.519M706.47 353.097l-.108.416-.201.368-.167.178-.12.127-.361.23-.423.147-.467.058-.493-.033-.501-.124-.49-.209-.459-.286-.411-.352-.347-.406-.27-.442-.182-.463-.087-.465.011-.449.108-.417.107-.194.095-.173.288-.305.361-.23.423-.146.467-.058.493.034.501.124.489.209.458.286.411.352.346.405.27.442.182.462.087.465-.01.449ZM702.354 350.073l-1.85.971M714.026 347.446l-.161.317-.245.252-.319.178-.201.051-.18.045-.429.012-.46-.073-.473-.156-.469-.233-.445-.301-.406-.356-.349-.399-.281-.426-.201-.436-.113-.43-.018-.356-.003-.052.071-.369.162-.316.245-.252.32-.177.382-.096.428-.011.46.074.473.156.467.233.445.3.405.356.349.398.281.425.201.436.113.43.022.407-.071.369ZM709.751 344.146l-2.317 1.324M720.483 342.822l-.113.259-.194.193-.268.119-.332.041-.383-.04-.42-.119-.247-.108-.192-.084-.443-.26-.43-.316-.399-.361-.353-.391-.294-.407-.016-.029-.207-.378-.145-.392-.059-.36.027-.316.113-.259.195-.193.269-.118.332-.04.383.041.42.119.439.192.442.26.429.315.398.361.353.39.293.407.224.406.144.391.06.361-.026.316ZM716.324 339.42l-2.601 1.529M725.488 339.964l-.137.129-.21.056-.157-.011-.12-.008-.331-.095-.374-.167-.401-.232-.415-.287-.411-.333-.391-.366-.358-.383-.309-.387-.249-.376-.179-.35-.103-.31-.023-.259.059-.198.137-.129.211-.055.277.02.331.096.068.03.306.137.401.231.414.288.41.332.391.365.026.029.331.354.051.065.046.057.211.264.249.375.18.35.104.31.023.259-.031.105-.027.094Zm0 0-.204.427-.044.091M721.515 336.258l-2.82 1.663M731.039 338.68l-.011-.001-.084-.074-.153-.144-.218-.209-.273-.265-.318-.312-.351-.346-.37-.368-.376-.375-.366-.367-.342-.345-.306-.311-.258-.263-.199-.207-.133-.142-.062-.071.012.001.084.075.154.144.218.21.273.265.318.312.35.346.37.366.375.374.365.367.342.345.306.31.257.263.2.207.133.143.063.072Zm0 0-.327.586-.008.014M727.216 334.88l-.857.48M619.086 443.154l-.012.022.041.091.115.161.182.223.244.277.296.321.336.352.364.369.377.372.377.361.361.336.331.298.29.249.236.19.174.124.105.052.12-.067"/><path d="m619.232 440.076-.004.007-1.06 1.818.041.118.112.187.18.249.24.3.292.341.053.058.008.01.27.3.359.381.372.38.371.363.357.334.327.292.287.237.235.174.173.105.105.031.009-.005.334-.178"/><path d="m618.168 441.901.033-.045.104.03.173.105.235.174.286.237.329.291.009.009.348.326.372.364.373.381.359.382.332.368.291.341.24.301.18.248.111.186.04.117-.033.045M620.636 436.121l-1.727 2.891-.026.181.05.249.122.305.178.329.012.021.25.382.302.4.336.395.005.006.368.388.379.359.378.318.361.263.057.034.199.12.074.044.287.127.157.033.075.016.17-.029.439-.217.105-.052"/><path d="m618.906 439.012.099-.108.169-.03.232.049.287.126.101.061.229.137.117.086.245.178.378.317.38.36.368.389.124.145.218.257.302.4.1.152.151.231.189.35.002.005.091.228.029.072.049.248-.026.181-.1.107M622.954 431.85l-1.628 2.706-.09.241-.013.305.065.359.141.398.122.245.088.176.273.43.324.42.363.395.387.356.399.301.393.237.373.162.338.081h.035l.256-.002.233-.086"/><path d="m621.324 434.555.165-.168.232-.087.291-.002.338.08.374.162.393.237.399.302.389.356.363.396.325.421.272.43.211.422.14.398.064.358-.013.306-.091.24-.165.167M715.811 374.859l-.008-1.599-.075-.536-.183-.526-.284-.495-.373-.445-.45-.378-.508-.297-.546-.204-.565-.103-.561.001-.536.106-1.425.589"/><path d="m715.804 373.26-.008.117-.028.409-.081.278-.006.017-.059.201-.249.447-.344.381-.004.003-.42.296-.49.207-.536.107-.562.001-.565-.103-.547-.204-.509-.297-.45-.378-.374-.446-.284-.495-.182-.526-.075-.537.037-.527.146-.496.25-.447.34-.375.004-.005.021-.015.012-.008.391-.275.001-.001.49-.206M705.943 381.943l-.412-.755-.278-.507-.372-.45-.453-.375-.516-.287-.558-.187-.58-.081-.293.015h-.002l-.285.015-.76.103"/><path d="m705.529 381.188.014.043.005.016.005.015.149.47.061.561-.054.556-.165.529-.271.483-.367.418-.005.004-.443.333-.513.242-.556.139-.58.03-.581-.08-.559-.187-.516-.287-.453-.376-.373-.45-.278-.507-.173-.545-.06-.561.053-.556.166-.53.199-.354.005-.007.068-.122.363-.413.004-.004.449-.337.512-.242.19-.047.04-.01.263-.065.064-.016M694.752 390.516l.275.515.169.557.055.577-.06.576-.174.552-.281.507-.376.443-.006.004-.452.357-.522.266-.566.161-.588.049-.587-.065-.564-.176-.519-.28-.455-.374-.372-.453-.276-.515-.168-.557-.055-.577.06-.576.175-.552.28-.507.373-.438.004-.005.458-.361.522-.266.243-.069.023-.006.3-.085.587-.049.29.032.013.001.284.032.564.176.519.28.455.374.372.452ZM684.116 400.888l.277.518.171.563.058.585-.057.585-.171.562-.276.519-.373.454-.005.004-.449.369-.518.277-.562.171-.584.058-.585-.058-.562-.17-.518-.277-.454-.373-.373-.454-.277-.519-.171-.562-.058-.585.058-.585.17-.562.277-.519.368-.449.004-.005.454-.373.518-.277.562-.171.584-.058.585.058.562.17.518.277.454.373.373.454ZM673.69 411.449l.283.517.179.562.069.583-.044.584-.154.56-.26.516-.355.453-.005.004-.431.366-.5.276-.546.168-.571.057-.573-.059-.553-.171-.513-.278-.452-.373-.374-.453-.282-.518-.179-.561-.041-.343-.001-.005-.028-.235.044-.583.154-.561.208-.413.007-.014.045-.089.35-.447.004-.005.436-.371.501-.276.546-.169.57-.056.573.058.554.172.513.277.452.373.374.454ZM658.908 422.251l.092-.201.001-.002.101-.22.009-.019.027-.059.32-.432.004-.005.404-.355.032-.018.005-.003.434-.24.518-.155.546-.045.553.068.539.178.503.282.449.374.377.452.291.512.193.554.088.573-.02.57-.128.547-.23.501-.324.436-.004.004-.401.351-.47.26-.519.155-.457.037-.028.002-.06.005-.553-.068-.538-.178-.503-.282-.448-.373-.377-.452-.291-.512-.193-.553-.088-.573.019-.57.127-.546Zm0 0 .009-.029M661.199 426.29l.124.025M650.419 431.48l.278-.403.003-.005.227-.205.006-.006.128-.115.43-.234.479-.13.513-.023.525.085.517.191.49.289.444.376.38.448.302.503.213.539.115.555.012.547-.09.521-.189.473-.281.407-.004.004-.359.323-.153.083-.013.007-.263.142-.48.13-.512.023-.524-.086-.517-.191-.49-.289-.443-.375-.38-.448-.302-.503-.212-.538-.115-.554-.013-.547.089-.521.189-.473Zm0 0 .003-.007M653.648 435.983l.039-.004M642.939 440.315l.225-.363.003-.004.308-.286.378-.195.062-.014.006-.001.364-.081.471.008.49.11.491.209.473.3.438.378.384.443.316.491.237.518.147.528.053.515-.044.484-.139.434-.1.161-.005.008-.123.197-.003.004-.306.282-.378.194-.432.095-.47-.008-.49-.111-.018-.008-.473-.201-.007-.005-.465-.294-.437-.378-.384-.443-.316-.489-.236-.518-.148-.527-.053-.515.043-.484.138-.434Zm0 0 .012-.021M646.688 444.635l.017-.005M637.09 447.66l.248-.236.318-.146.378-.052.421.046.051.016.008.003.391.123.461.231.454.313.43.382.388.436.333.474.264.494.184.489.001.005.1.475.002.097v.008l.002.109.005.224-.08.384-.168.316-.003.003-.245.233-.319.145-.377.051-.422-.047-.113-.035-.336-.106-.432-.218-.028-.014-.453-.313-.429-.381-.388-.435-.228-.325-.105-.149-.212-.395-.052-.097-.185-.493-.1-.475-.01-.438.08-.385.165-.313.001-.004Zm0 0 1.551-2.65M640.715 452.231l.05-.018M749.152 349.81l-.077.072-.156-.007-.23-.086-.294-.163-.348-.232-.388-.292-.413-.343-.422-.378-.275-.266-.14-.134-.392-.407-.353-.397-.302-.372-.006-.009-.232-.325-.166-.281-.087-.219-.004-.148.078-.071.157.008.23.087.295.163.348.232.157.119.23.174.412.341.422.378.414.4.038.04.353.365.353.397.301.372.239.333.166.281.087.22.005.148Zm0 0-.116.222-.406.77-.587 1.114"/><path d="m744.948 345.752-2.046 1.183-.695.402-.289.167M641.279 451.853l-.001.003-.248.236-.265.121-.054.024-.378.051-.421-.047-.116-.036-.334-.105-.435-.219-.025-.013-.453-.312-.429-.382-.388-.435-.229-.327-.103-.146-.214-.399-.05-.094-.186-.493-.099-.475-.011-.438.08-.385.167-.316.003-.003M641.516 450.719l.002.088v.009M638.65 444.992l-1.564 2.674M640.711 452.237l2.837-1.065M639.816 447.963l.064.057.366.325.024.027.365.41M647.494 443.957l-.125.202-.003.004-.309.286-.355.181-.023.013-.432.094-.47-.008-.49-.111-.02-.008-.471-.201-.009-.006-.463-.293-.437-.378-.383-.442-.317-.49-.236-.518-.148-.527-.053-.515.043-.483.138-.434.018-.029.21-.339.003-.003M647.023 440.827l.316.49.237.519M647.777 442.878l-.044.484-.139.434M643.469 439.669l.378-.195.068-.015.007-.001M644.151 438.115l-1.217 2.208M646.68 444.643l2.533-.69M645.238 439.497l.491.209.473.299M654.92 435.297l-.004.004-.362.327-.14.076-.013.007-.276.149-.434.118-.046.012-.512.023-.525-.086-.516-.191-.49-.289-.443-.375-.38-.448-.302-.503-.212-.538-.115-.554-.013-.547.089-.52.189-.474.01-.015.271-.392.004-.004.229-.208.007-.006.121-.109.429-.233.48-.131.513-.023.525.086.517.191.49.288M654.832 431.756l.302.504.213.539.114.554.013.548-.09.52M651.277 429.688l-.863 1.8M653.645 435.99l1.779-.196M663.688 425.548l-.004.005-.405.355-.47.26-.519.155-.429.035-.028.002-.089.007-.42-.052-.132-.016-.538-.179-.503-.281-.449-.374-.376-.451-.291-.512-.193-.553-.088-.573.019-.57.127-.547.017-.037.077-.168.001-.002.108-.234.012-.027.015-.033.323-.436.005-.004.4-.352M660.848 420.55l.546-.044.553.068.539.178.503.282.449.373.377.452.29.513.194.553.088.573-.02.571"/><path d="m659.276 421.081-.316.998-.001.002-.057.178M661.191 426.299l1.178.239M673.404 415.228l-.003.005-.437.371-.5.275-.546.169-.571.056-.573-.059-.553-.171-.513-.278-.452-.372-.374-.454-.282-.517-.179-.562-.04-.337-.001-.006-.028-.24.043-.583.155-.561.215-.429.007-.014.037-.073.354-.452.005-.004M671.215 410.124l.573.059.554.171.513.277.452.373.375.454.282.518.179.561.069.584M674.014 414.265l-.26.517M669.598 410.626l.501-.276M684.552 401.977l.058.585-.058.585-.17.562-.276.519-.369.449-.004.005-.454.373-.518.277-.562.171-.584.058-.585-.058-.562-.17-.518-.277-.454-.373-.373-.454-.277-.518-.171-.563-.058-.585.057-.585.171-.562.276-.519.373-.454.005-.004.449-.369.518-.277.562-.171.584-.058.585.058M683.277 400.069l.454.373.373.454M695.184 392.751l-.174.552-.28.507-.373.438-.004.005-.458.361-.522.266-.565.161-.588.049-.587-.065-.564-.176-.52-.28-.454-.374-.372-.453-.276-.515-.169-.557-.055-.577.061-.576.174-.552.281-.507.377-.443.005-.004.453-.357.522-.266.268-.076.023-.006.274-.078M694.742 390.525l.276.515M703.903 379.578l.516.287.453.376.372.449.278.507.004.012.01.031.159.501.061.561-.054.556-.165.53-.271.483-.363.413-.004.004-.448.337-.513.242-.557.139-.579.03-.581-.08-.559-.187-.516-.287-.453-.376-.373-.45-.278-.507-.173-.544-.06-.562.053-.556.166-.529.204-.362.004-.008.064-.113.367-.418.005-.004.444-.332.512-.242M702.184 379.34l.288-.014h.002l.289-.015M715.025 375.114l-.004.005-.425.299-.49.207-.536.106-.561.002-.565-.103-.548-.204-.508-.297-.45-.379-.374-.445-.284-.496-.183-.526-.074-.536.036-.527.146-.496.25-.447.344-.38.005-.003M711.223 370.597l.489-.206.536-.106.561-.001.565.103.547.204.508.297.449.378.374.445.284.495.182.525.075.537-.036.526-.076.26-.005.017-.064.219-.249.447M725.028 365.852l-.114.453-.216.4-.204.22-.104.113-.389.251-.456.162-.504.065-.533-.036-.541-.133-.53-.225-.497-.31-.445-.382-.376-.44-.293-.48-.199-.502-.096-.505.01-.489.115-.452.13-.24.086-.161.309-.331.39-.251.456-.161.503-.064.533.037.541.132.529.226.496.31.445.381.375.438.293.48.199.502.096.505-.007.36-.002.127Zm0 0-.159.757M720.572 362.579l-2.025 1.038M733.147 359.681l-.123.248-.048.097-.089.094-.173.182-.343.194-.241.063-.169.044-.462.015-.495-.078-.511-.168-.506-.252-.482-.325-.439-.386-.38-.432-.305-.462-.219-.474-.124-.467-.024-.406-.002-.038.075-.401.172-.345.263-.274.343-.194.411-.106.461-.014.496.078.51.169.505.251.481.324.224.197.215.189.189.216.19.215.304.462.219.473.125.467.026.443-.074.401Zm0 0-.048.145-.585 1.739M728.864 355.916l-2.407 1.355M739.936 354.9l-.207.211-.286.131-.357.046-.411-.041-.452-.126-.309-.136-.165-.072-.201-.118-.277-.162-.284-.209-.18-.132-.432-.391-.383-.424-.319-.442-.019-.033-.225-.409-.159-.425-.067-.393.027-.344.119-.282.207-.211.288-.13.167-.021.189-.024.412.042.293.082.158.045.474.207.477.28.463.341.042.038.389.352.298.33.084.094.319.441.244.441.159.425.068.392-.026.344-.118.283Zm0 0-1.289 3.042M735.557 350.938l-2.83 1.647M745.38 351.467l-.034.034-.11.109-.224.063-.054-.004-.147-.009-.094-.006-.355-.101-.402-.179-.433-.249-.446-.311-.444-.359-.424-.396-.387-.415-.336-.42-.204-.307-.068-.101-.196-.38-.115-.338-.028-.282.06-.217.145-.142.224-.062.296.02.314.09.041.012.114.05.288.129.432.249.446.31.443.36.422.394.165.177.087.094.135.144.046.057.289.362.272.407.197.38.115.337.029.283-.057.212-.002.005Zm0 0-.022.047-.207.429-.592 1.225M741.083 347.456l-.674.395-2.389 1.4M751.171 349.956l-.007.001-.087-.077-.162-.154-.231-.223-.292-.286-.342-.336-.377-.373-.4-.397-.406-.405-.396-.398-.372-.374-.333-.337-.281-.287-.219-.225-.148-.156-.071-.079.008-.001.087.078.163.155.232.224.292.285.341.336.377.373.399.396.405.404.396.397.371.373.333.337.281.287.219.226.148.156.072.08Zm0 0-.374.67-.384.687-.281.503M747.047 345.85l-.914.512"/><path d="m751.082 352.456.378-.656-.016-.145-.093-.218-.169-.284-.236-.336-.149-.192M630.044 463.003l-.001.002.047.104.126.177.199.245.265.303.321.348.365.382.394.4.408.402.406.39.39.361.357.32.311.266.254.202.186.129.111.053 1.348-.756"/><path d="m630.272 459.75-1.151 1.979.041.124.12.198.192.265.258.322.313.365.001.001.358.396.387.412.403.41.402.394.386.363.356.317.312.26.256.192.189.117.116.037.042-.022 1.297-.694.156-.084"/><path d="m629.121 461.73.037-.044.116.037.189.116.255.192.312.259.276.246.081.072.387.363.403.395.403.411.388.412.358.397.314.367.258.321.192.265.119.198.041.123-.039.043M631.843 455.567l-.209.353-1.122 1.887-.336.566-.198.333-.029.192.051.265.13.327.141.26.063.116.27.412.326.43.237.279.131.155.398.419.411.39.41.344.217.16.027.019.147.108.17.103.189.115.313.14.254.057.185-.028.031-.015.496-.247.104-.052.423-.21.263-.131.639-.319"/><path d="m629.977 458.706.11-.113.185-.029.038.009.215.048.313.14.005.003.354.214.173.126.219.161.41.345.413.39.035.037.363.384.369.434.23.303.096.128.27.412.131.242.073.134.045.114.084.213.051.264-.031.192-.11.112M634.409 451.033l-.533.894-.811 1.361-.411.688-.1.258-.015.328.068.385.151.428.037.075.059.119.13.26.294.463.086.111.265.343.392.428.421.385.432.328.426.258.406.178.368.091h.317l.254-.089 1.643-.734.055-.025"/><path d="m632.652 453.976.18-.177.254-.091h.317l.368.091.406.177.428.258.296.225.136.103.421.386.083.09.311.339.351.455.294.464.226.455.151.428.068.385-.017.327-.101.257-.181.177M660.93 504.076l1.686 9.857.249 1.457 3.347 9.424.724 2.041 5.07 8.62 1.253 2.13 5.832 8.123 1.729 2.408 6.517 7.585 1.967 2.29 7.794 6.265 2.03 1.633 8.696 4.938 1.787 1.016 4.034 1.446M1182.87 732.361l-9.83-1.801-9.84-1.801-9.84-1.801-9.83-1.8-9.84-1.801-9.84-1.801-9.74-1.784-3.68-.674-9.84-1.801-9.84-1.801-3.22-.59-9.84-1.801-7.68-1.406"/><path d="m1070.01 711.7 5.93 8.05 5.94 8.05 5.93 8.049 5.93 8.05 5.94 8.05 5.93 8.05 5.93 8.05 5.94 8.049 5.93 8.05 5.93 8.05 5.94 8.05 5.93 8.05 5.93 8.049 2.99 4.056 3-.668 1.33-.296 9.76-2.172 3.8-.845 1.46-.324 5.9-1.313 8.13-1.808 9.49 3.146 9.49 3.147 9.49 3.147 1.4.463 8.71 4.914 8.71 4.915 7.22 4.074 8.8 4.741 8.81 4.742 7.73 4.162 8.65 5.018 8.65 5.018 7.36 4.275 6.93-4.536 4.99-6.682-6.44-7.645-6.28-7.446-6.45-7.645-6.29-7.469-1.73-2.051-6.45-7.645-2.37-2.806-2.22-2.634-6.44-7.645-6.34-7.515-6.71-7.41-6.72-7.411-6.71-7.41-6.72-7.411-6.71-7.41-6.72-7.411-6.71-7.41-6.71-7.411-7.04-7.76-9.84-1.782-9.84-1.783-9.84-1.783-9.83-1.782-9.84-1.783-9.84-1.783-9.84-1.782-3.49-.632-6.6-1.196-9.84-1.783-8.72-1.579-8.78-1.591-6.43-1.164-5.44 6.147Z"/><path d="m1294.95 860.203-6.45-7.643-6.31-7.482-6.45-7.643-6.33-7.504-6.45-7.643-6.35-7.528-1.74-2.06-6.45-7.643-4.63-5.491-6.72-7.409-6.71-7.409-6.72-7.41-6.71-7.409-6.72-7.409-6.72-7.41-6.71-7.409-6.72-7.409-7.18-7.93 5.3-6.386M1096.68 962.586l4.11 3.544 7.57 6.528 6.42 5.532 5.71-3.742 4.95-6.337-4.97-8.678-4.97-8.679-1.67-2.926-4.65-8.854-4.65-8.853-1.68-3.189-4.84-8.746-4.85-8.746-1.8-3.236-2.69-9.631-.58-2.083"/><path d="m1120.49 974.448-4.97-8.673-4.98-8.674-1.7-2.965-4.66-8.848-4.66-8.849-1.69-3.226-4.86-8.741-4.86-8.741-1.82-3.275-2.05-7.288M1815.03 105.768l-5.89-7.525-6.12-6.738-1.09-1.193-3.2-3.528-7.23-6.907-4.08-3.894-7.7-6.386-4.38-3.64-.25-.177-.22-.158-.35-.251-1.44-1.033-8.12-5.834-2.34-1.682-8.51-5.25-4.7-2.9-8.87-4.628-4.69-2.45-9.18-3.964-2.47-1.066-.62-.27-.8-.343-.12-.055-.56-.237-9.45-3.25-4.33-1.487-8.89-2.506-9.69-2.477-5.33-1.361-9.86-1.638-4.85-.806-9.97-.761-2.09-.16-9.97-.728-5.4-.394-9.99.263-4.72.123-9.96.836-4.37.367-9.91 1.332-4.82.648-9.74 2.253-5.26 1.216-9.68 2.48-4.65 1.189-9.36 3.532-5.81 2.194-9.3 3.685-4.26 1.688-8.83 4.69-6.01 3.196-8.71 4.92-3.72 2.103-8.19 5.744-5.9 4.139-7.9 6.13-3.12 2.419-7.43 6.694-5.49 4.95-6.88 7.256-2.51 2.647-6.57 7.539-4.87 5.58-5.68 8.227-1.94 2.81-5.62 8.272-4.07 5.989-4.58 8.892-3.34 6.502-4.37 8.997-1.25 2.573-3.44 9.387-2.41 6.539-3 9.538-.79 2.511-2.24 9.745-1.46 6.322-1.66 9.86-.41 2.385-.3 3.172-.63 6.486-.59 6.154-.41 9.992-.09 2.165.4 9.992.21 5.17.74 9.973.13 1.822 1.76 9.844.42 2.356 1.85 9.827.62 3.268 2.67 9.637.5 1.819 3.45 9.388.79 2.172 3.48 9.378.41 1.102 4.18 9.082.69 1.486 4.82 8.761.99 1.803 4.54 7.156 5.39 8.424.51.807 5.91 8.071.73 1.006 6.37 7.708.95 1.141 6.79 7.333 1.13 1.213 7.2 6.943 1.27 1.227 7.57 6.538 1.37 1.188 7.92 6.114 1.42 1.102 8.24 5.666 1.42.976 8.55 5.19 1.35.82 8.84 4.68 1.21.643 6.73 3.115 9.11 4.128 2.39 1.083 9.36 3.526 2.13.804 9.58 2.863 1.8.537 9.74 2.25 1.63.375 9.77 2.13 2.66.579 9.91 1.314 2.18.289 9.98.684 4.03.275 9.99.405 2.76.112 9.98-.608 2.19-.134 9.97-.723 5.96-.432 9.85-1.721 2.53-.44 9.79-2.02 6.56-1.352 9.56-2.926 2.7-.826 9.47-3.231 6.88-2.349 9.08-4.189 2.74-1.268 9-4.367 6.92-3.357 8.4-5.422 6.32-4.081 8.38-5.465 3.04-1.987 7.69-6.395 5.95-4.946 7.44-6.678 2.79-2.495 6.85-7.279 5.33-5.653 6.31-7.758 2.46-3.024 5.91-8.067 4.5-6.142 5.03-8.643 2.07-3.558 4.85-8.744 3.53-6.357 3.68-9.298 2.58-6.534 3.67-9.302 1.5-3.79 2.4-9.708 1.55-6.28 2.31-9.73.95-4.026 1-9.951.57-5.708.99-9.951.41-4.092-.24-9.997-.11-4.788-.54-9.986-.22-3.99-1.36-9.907-.63-4.566-2.24-9.746-.63-2.722-2.38-9.711-1-4.056v-.004l-2.37-6.763-2.53-7.204-4.13-9.104-1.84-4.036-.01-.022-.38-.849"/><path d="m1726.83 36.81-2.92-.709-1.25-.204M1775.09 65.78l-.81-2.204-.28-.375"/><path d="m1774.87 65.622-.71-1.97-.16-.451-.55-1.508-1.62-1.937-3.78-3.04-2.85-2.043-3.87-2.462-5.9-3.686-2.92-1.59-6.88-3.621-2.49-1.101-6.61-2.802-1.78-.541-5.47-1.674-2.45-.387-3.25-.515M1825.89 122.605l3.15 5.008.34.77 3.83 6.972 3.98 7.163.41.741.39.849"/><path d="m1848.86 171.238-2.5-9.683-1.38-5.325-1.27-3.651-1.84-5.242-.47-1.334-.96-2.131-2.38-5.243-1.3-2.864-.31-.541-2.9-5.227-2.79-5.083-.25-.56-2.3-3.651-3.11-4.899-1.78-2.918-.28-.714-2.75-3.755-2.45-3.124-1.86-2.366-.48-.454-1.29-1.323-2.13-2.239-1.69-1.764-.83-.913-7.63-5.921"/><path d="m1829.38 128.383.27-.68.17-.423.94-2.367M1830.51 124.354l-1.06 2.341-.16.361-.25.557M1846.49 164.475l.63 1.779 1.74 4.984v.004M1809.14 98.243l2.54 3.243 3.35 4.28v.002l3.77 5.142.39.977.04.064 2.38 3.935M1444.15 348.744l2.77 9.608 1.3 4.491 3.44 7.534 3.9 7.041 4.42 6.707 5.3 7.009 5.2 5.917 6.47 6.434 5.9 5.138 7.19 5.425 6.61 4.364 7.82 4.33 7.9 3.685 7.07 2.744 8.06 2.397 7.56 1.329 9.88 1.571 6.97 1.108"/><path d="m1448.22 362.843-1.87-6.803-.28-3.092-.19-2.05-1.08-6.823-.37-6.947.33-6.682 1.02-6.359 1.67-5.989 2.46-5.209 3.85-2.313 3.94-2.722 4.9-4.092 5.54-3.362 5.04-2.626 1.38-.524 4.01-1.534 4.06-1.061 1.62-.424 5.92-.903 8.09.251 7.09 1.231 6.07 2.426 5.95 2.653 6.88 3.456 7.99 4.673 5.62 3.71 5.5 3.869 5.99 4.55 7.63 6.521 4.87 4.668 4.73 4.804 4.79 5.193 6.27 7.698 3.96 5.542 3.63 5.512 3.42 5.665 2.12 7.617 1.12 7.318-.06 5.991-.69 5.838-1.32 5.628-.27.793-1.66 4.763-2.64 6.041-.4.599-3.04 4.569-1.36 4.364-2.25 4.081-5.33 3.059-5.83 2.475-6.31 1.863-6.73 1.224-7.09.565-6.4.017-2.17.136-3.28.206M1623.83 370.323l-1.33-9.193-2.59-9.572M1618.52 399.183l2.49-6.96M1468.86 270.365l-6.8 4.231-.1.065M1610.72 413.2l4.39-6.459M1549.23 279.185l-8.66-5.004-1.39-.802M1598.35 320.884l-6.01-6.518M1707.81 386.242l-.63-1.403-1.14-4.607-1.51-4.38-1.5-1.174-.43-.941-.88-4.565M1698.25 368.781l.51 2.662.66 3.382.69 3.579.34.737 1.18.92 1.19 3.436.9 3.617.5 1.102.15 1.023-.16 3.692-.46 3.749-.54 1.282-.87 1.146-1.47 3.518-1.52 3.411-.26 1.429-.09.262-.89 2.636-.83 2.444M1635.68 381.094l-2.18 4.833.32 3.771-.81 4.62-.68 4.507"/><path d="m1645.68 410.943.38-3.169-.89-3.003-.41-3.365.09-3.296.55-3.546.65-3.631-.24-2.963 1.73-3.795 2.43-2.548 2.52-3.453 2.89-3.194 3.22-2.903 1.31-1.183 2.7-.91 3.74-1.712 3.89-1.437 4.05-1.015 3.33-.887 2.11-.835 3.66.174 3.7.834 3.63 1.252 3.52 1.656 3.13 1.065.88-.298 1.98-7.326M1651.37 364.151l-1.66 1.511M1701.27 410.698l.32-1.812 1.94-4.327M1684.04 424.64l4.65-2.345 3.67-.735 3.49-.999 3.11-3.099 1.06-3.094 1.13-3.339M1681.29 355.691l-4.67-.222"/><path d="m1700.23 361.455-1.12.38-3.99-1.36-4.48-2.116M1635.19 417.641l2.52 3.198 3.2 2.409M1672.77 429.615l1.85-1.167M1632.24 403.012l.55 4.273 1.14 3.808-.45 4.016M291.102 969.026l6.639 2.478 9.68 2.511.681.176 1.495.301 9.885 1.513.95.145 9.986.52.972.05 9.989-.473.985-.047 1.611-.174 9.894-1.448 1.14-.167 9.708-2.399 1.116-.276 9.432-3.322 1.077-.379 9.069-4.214 1.024-.475 8.624-5.063.958-.562 1.504-1.038 8.1-5.864.935-.677 7.503-6.61.831-.733 6.834-7.3.724-.773 6.099-7.924.614-.797 5.303-8.478.504-.806 4.453-8.954.399-.801.866-1.842 3.55-9.349.277-.73 2.601-9.656.185-.684 1.618-9.869.105-.635.165-2.196.611-9.981.026-.422-.429-9.99-.015-.352-1.469-9.892-.044-.294-.304-2.03-2.524-9.641-.01-.033-.555-1.854-.05-.168M379.784 760.435l-.73-.314-1.384-.433-.609-.191-9.562-2.926-.214-.065-9.816-1.912-.295-.057-2.227-.337-9.959-.902-.625-.057-9.999.1-.698.007-2.122.197-9.94 1.089-.901.098-9.788 2.051-.937.197-9.543 2.988-.962.301-9.21 3.897-.972.412-1.792.955-8.792 4.765-.979.53-8.295 5.586-.937.631-7.721 6.356-.882.726-7.071 7.071-.813.813-6.355 7.722-.732.889-5.573 8.304-.641.954-.911 1.544-4.733 8.809-.496.922-3.837 9.234-.393.946-2.896 9.571-.291.96-1.917 9.814-.189.964-.913 9.959-.089.962-.094 1.543.119 10 .009.77 1.159 9.933.088.753.346 1.579 2.076 9.228"/><path d="m445.027 829.369.914-4.618.517-4.513-.114-3.499-2.065-5.309-4.347-7.687-4.999-7.312-6.295-7.77-.291-.358-6.562-7.067-7.366-6.763-.485-.444-7.297-5.834-7.667-5.075-6.991-3.727-3.327-.603-4.365.018-6.615.88M382.181 767.951l-2.313-3.295-1.424-1.1-.632-.819"/><path d="m402.003 778.346-.958-.166-.02.003-1.501.292-2.087-.308-2.232-1.351-1.305-1.089-2.426-.982-3.043-1.805-1.586-.733-2.904-2.111-.948-.713-1.287-1.141-.007-.005-.945-.84"/><path d="m381.708 768.241-1.169-1.479-1.289-1.629.237-.182.383-.295M383.98 763.309l3.476 1.203.258.09 2.087.725 2.373 1.357 2.783 1.58 2.562 1.669 2.176 1.698 1.655 1.621 1.309 1.648.106.141.924 1.236.054.277.172.883-.998.504-.912.406M380.756 767.398l-.216-.63-.001-.005M405.568 778.959l-1.88-2.683M375.016 767.143l1.267 1.126 1.712 1.522M383.978 763.308l-3.967-1.324-1.503-.444M389.301 776.938l3.234 1.309 1.74 1.454M377.344 761.197l-1.253-.004-2.181.096M401.045 778.179l-3.857-.644M439.066 842.08l.137.024.027-.138.262-1.364 1.047.416.016.026 1.039 1.638.923 1.456.185-1.85.119-2.222.581-1.465M418.992 822.976l1.18 1.585.285.332M428.441 834.826l1.654 2.123 2.08 2.299 2.216 1.929.433-.635M409.763 797.243l.016 1.638-.533 1.61-.863.904 1.434 1.536 1.893 2.028 1.459 2.777-.741.951.594 2.3 1.818 3.502 1.232 2.664-.417.67"/><path d="m415.652 817.823 2.989-2.853.303-.488-2.875 2.671M443.361 830.155l-.334-1.302-.032-.126-.804-2.467-.871-3.052-1.063-3.169-1.335-3.091M409.926 794.77l4.338 3.22.177.132-.435-.448M414.003 797.673l-4.675-3.516M416.751 792.389l-1.913-.324-1.411-.439-1.055-.195-1.407.687-1.117 1M443.848 837.273l.271.474M424.255 796.948l-2.482-2.02M418.553 803.192l-.28-.345-3.835-4.726M427.868 823.323l-1.191-1.534-.303-.39-.523-.64-1.287-1.574-.702-.858-.143-.167-1.242-1.671-1.024-1.709.208-.336-.618-1.336-.913-1.757-.3-1.154.37-.478-.734-1.395-.949-1.018-.72-.771.429-.456.264-.812-.009-.634-.007-.498.08-.943"/><path d="m418.273 802.847.238-.49.557-.509.704-.352.529.095.709.217.961.157M423.781 802.578l.72.658 1.253 1.017.726.617M225.854 895.94l-.108 1.431-.751 9.972-.249 3.305.287 1.857.607 2.285.867 2.51 1.124 2.718 1.375 2.905 1.538 2.94 1.398 2.027 2.07 2.878 2.466 3.435 2.489 3.29 2.593 3.198 2.92 3.402 2.666 2.949 3.171 3.267 2.754 2.674 3.201 2.906 2.826 2.406 3.182 2.495 3.059 2.238 2.664 1.75 2.852 1.707 2.367 1.265 1.177.485 1.883.545 2.01.361 1.759.059 9.999-.159 1.048-.016 3.729-.059"/><path d="m224.746 910.648.346-.386.458-.618.69-1.179 1.005-.815 1.057-.595.581-.152.21-.054.458-.12 1.425-.06 1.589.204 2.371.908 2.243 1.21 2.06 1.635 2.089 1.704 2.507 2.108 3.077 2.691 2.268 2.047 2.277 2.089 2.568 2.399 3.449 3.322 2.332 2.308 2.334 2.342 2.447 2.495 3.438 3.603 2.347 2.53 2.264 2.483 2.257 2.517 2.119 3.261 1.777 3.057 1.13 2.439.907 2.333.674 2.203.488 2.123.437 2.239.006 1.83.26.494.113.212.436.827.481 1.349-.948.806-1.225.526-1.497.237M293.489 946.919l-2.207-3.831-2.637-4.087M228.983 892.099l-1.258 1.045-.863 1.498-.573.794M241.426 893.644l-2.81-1.494-2.971-1.11M266.857 916.102l-4.322-4.156M275.763 925.05l-3.064-3.124M326.809 947.512l.81 1.069 1.029 1.358 1.09 1.44.331.292.879.327 1.471 1.315 1.353 1.397.539.42.367.38.929 1.399.775 1.432.044.504-.138.444.283 1.319.224 1.285.317.523.048.092.49.922.454.856M300.801 951.567l.021 1.908M311.158 963.97l-.772-1.164-1.27-1.133-1.079-1.292-.841-1.252-.619-1.369-.594-1.399-.742-1.192-.014-1.496.586-.994.487-1.374.7-1.261.906-1.135.367-.463 1.133-.363 1.493-.693 1.606-.577 1.745-.397 1.433-.348.919-.362 1.883.045 2.022.318 2.059.493 2.076.66 1.772.419.394-.13 1.492-3.807M337.166 952.889l-1.722-1.781-1.871-1.679-1.12-.417M340.713 960.403l-.357-1.679.177-.566-.054-.642-.983-1.825-1.18-1.782M306.115 944.434l-1.443.465M335.414 968.653l1.752-.786M325.537 943.335l-2.646-.843-2.625-.629M312.297 966.764l2.323.889M321.602 969.623l1.081.331 2.55.19 2.533.072 2.492-.046 2.428-.163M330.644 946.803l-1.311-1.734-1.032-1.365M303.32 958.521l1.074 1.594 1.376 1.645M301.77 954.994l.76 1.782M1383.26 284.037l-7.18-6.965-7.17-6.965-7.18-6.965-5-4.857-6.97 7.175-6.96 7.176-6.97 7.175-4.85 5.004 7.17 6.965 7.18 6.965 7.17 6.965 5.01 4.857 6.96-7.175 6.97-7.176 6.96-7.175 4.86-5.004ZM1350.4 252.152l-7.18-6.965-7.17-6.965-1.51-1.463-6.97 7.175-6.96 7.175-1.47 1.508 7.18 6.965 7.17 6.965 1.51 1.464 6.97-7.176 6.96-7.175 1.47-1.508ZM1369.15 237.418l-7.17-6.965-3.68-3.565-6.96 7.175-3.57 3.673 7.18 6.965 3.67 3.565 6.97-7.175 3.56-3.673ZM-108.75-62.438l6.982 7.16 6.982 7.158 6.982 7.16 6.982 7.159 6.982 7.159 6.982 7.159 6.982 7.158 6.983 7.158 6.982 7.16 6.982 7.159 6.982 7.159 6.982 7.159 6.982 7.159 6.982 7.159 6.982 7.159 6.982 7.158 6.983 7.16 6.982 7.157 6.982 7.16 6.982 7.159 6.982 7.159 6.982 7.158 6.982 7.159 6.982 7.159 6.982 7.16 6.983 7.159 6.982 7.159 6.982 7.158 6.982 7.16 6.982 7.157 6.982 7.16 6.982 7.159 6.982 7.159 6.982 7.158 6.983 7.159 6.982 7.16 6.982 7.159 6.982 7.159 6.982 7.158 6.982 7.159 6.982 7.159 6.982 7.158 6.982 7.16 6.983 7.159 6.982 7.159 6.982 7.158 6.982 7.159 6.982 7.159 6.982 7.159 6.982 7.159 6.982 7.159 6.983 7.159 6.982 7.159 6.982 7.158 6.982 7.159 6.982 7.159 6.982 7.159 6.982 7.159 8.715 8.936 7.071-7.07 3.405-3.405-7.159-6.982-7.159-6.982-7.159-6.983-7.159-6.982-7.159-6.982-7.159-6.982-7.159-6.982-7.159-6.982-7.159-6.982-7.159-6.982-7.158-6.983-7.159-6.982-7.159-6.982-7.159-6.981-7.159-6.983-7.159-6.982-7.159-6.982-7.159-6.982-7.159-6.981-7.159-6.983-7.159-6.982-7.159-6.983-7.158-6.981-7.159-6.982-7.159-6.982-7.159-6.982-7.159-6.982-7.159-6.982-7.159-6.984-7.159-6.981-7.159-6.982-7.159-6.983-7.159-6.981-7.159-6.983-7.158-6.981-7.159-6.983-7.159-6.983-7.159-6.981-7.159-6.983-7.159-6.981-7.159-6.983-7.159-6.981-7.159-6.982L.41 44.028l-7.159-6.983-7.159-6.983-7.158-6.982-7.159-6.981-7.159-6.982-7.159-6.983-7.159-6.982-7.159-6.981-7.159-6.982-7.159-6.983-7.159-6.982-7.159-6.982-7.159-6.982-7.159-6.982-8.935-8.715ZM-94.281 122.747l6.982 7.159 6.982 7.159 6.982 7.159 6.982 7.158 6.983 7.159 6.982 7.159 6.982 7.159 6.982 7.159 6.982 7.159 6.982 7.159 6.982 7.159 6.982 7.159 6.982 7.159 6.983 7.159 6.982 7.158 6.982 7.159 6.982 7.159 6.982 7.159 6.982 7.159 6.982 7.159 6.982 7.159 6.982 7.159 6.983 7.159 6.982 7.159 6.982 7.159 6.982 7.159 6.982 7.158 6.982 7.159 6.982 7.159 6.982 7.159 6.982 7.159 6.983 7.159 6.982 7.159 6.982 7.159 6.982 7.159 6.982 7.159 6.982 7.159 6.982 7.159 6.982 7.158 6.983 7.159 6.982 7.159 6.982 7.159 6.982 7.159 6.982 7.159 6.982 7.159 6.982 7.159 6.982 7.159 6.982 7.159 6.983 7.159 6.982 7.159 6.982 7.158 6.982 7.159 6.982 7.159 6.982 7.159 6.982 7.159 6.982 7.159 6.982 7.159 6.983 7.159 8.715 8.936 7.071-7.071 3.404-3.405-7.159-6.982-7.159-6.982-7.159-6.982-7.159-6.982-7.159-6.982-7.159-6.982-7.158-6.982-7.159-6.982-7.159-6.983-7.159-6.982-7.159-6.982-7.159-6.982-7.159-6.982-7.159-6.982-7.159-6.982-7.159-6.982-7.159-6.982-7.159-6.983-7.158-6.982-7.159-6.982-7.159-6.982-7.159-6.982-7.159-6.982-7.159-6.982-7.159-6.982-7.159-6.982-7.159-6.983-7.159-6.982-7.159-6.982-7.159-6.982-7.158-6.982-7.159-6.982-7.16-6.982-7.158-6.982-7.16-6.982-7.158-6.983-7.16-6.982-7.158-6.982-7.16-6.982-7.158-6.982-7.16-6.982-7.158-6.982-7.158-6.982-7.16-6.983-7.158-6.982-7.16-6.982-7.158-6.982-7.16-6.982-7.158-6.982-7.16-6.982-7.158-6.982-7.16-6.982-7.158-6.983-7.16-6.982-7.157-6.982-7.16-6.982-7.158-6.982-7.16-6.982-8.935-8.715ZM1407.75 221.626l-7.16-6.983-7.16-6.982-7.16-6.982-7.16-6.982-7.16-6.982-7.16-6.982-7.16-6.982-7.15-6.982-7.16-6.983-7.16-6.982-7.16-6.982-7.16-6.982-7.16-6.982-7.16-6.982-7.16-6.982-7.16-6.982-7.15-6.982-7.16-6.983-7.16-6.982-6.45-6.287 6.98 7.159 6.99 7.159 6.98 7.159 6.98 7.159 6.98 7.159 6.98 7.159 6.99 7.159 6.98 7.159 6.98 7.159 6.98 7.159 6.98 7.158 6.99 7.159 6.98 7.159 6.98 7.159 6.98 7.159 6.99 7.159 6.98 7.159 6.98 7.159 6.98 7.159 6.98 7.159 2.2 2.255M883.148-157.927l6.983 7.159 6.982 7.159 6.982 7.159 6.982 7.159 6.982 7.159 6.982 7.159 6.982 7.159 6.982 7.159 6.982 7.16 6.983 7.157 6.982 7.16 6.982 7.158 6.982 7.16 6.982 7.158 6.982 7.16 6.982 7.158 6.978 7.16 6.99 7.158 6.98 7.16 6.98 7.158 6.98 7.16 6.99 7.158 6.98 7.16 6.98 7.157 6.98 7.16 6.98 7.158 6.99 7.16 6.98 7.158 6.98 7.16 6.98 7.158 6.98 7.16 6.99 7.158 6.98 7.16 6.98 7.158 6.98 7.158 6.98 7.16 6.99 7.158 6.98 7.159 6.98 7.159 6.98 7.159 6.99 7.159 6.98 7.159 6.98 7.159 6.98 7.159 6.98 7.159 6.99 7.159 6.98 7.158 6.98 7.159 6.98 7.159 6.98 7.159 6.99 7.159 7.87 8.076 7.07-7.071 2.15-2.145-7.16-6.983-7.16-6.982-7.16-6.982-7.16-6.982-7.16-6.982-7.15-6.982-7.16-6.982-7.16-6.982-7.16-6.983-7.16-6.982-7.16-6.982-7.16-6.982-7.16-6.982-7.16-6.982-7.15-6.982-7.16-6.982-7.16-6.982-7.16-6.983-7.16-6.982-7.16-6.982-7.16-6.982-7.16-6.982-7.16-6.982-7.15-6.982-7.16-6.982-7.16-6.982-7.16-6.983-7.16-6.982-7.16-6.982-7.16-6.982-7.16-6.982-7.16-6.982-7.15-6.982-7.16-6.982-7.16-6.982-7.162-6.983-7.159-6.982-7.159-6.982-7.159-6.982-7.159-6.982-7.159-6.982-7.159-6.982-7.158-6.982-7.159-6.983-7.159-6.982-7.159-6.982-7.159-6.982-7.159-6.982-7.159-6.982-7.159-6.982-7.159-6.982-8.076-7.877ZM622.293 445.578l.73 1.307 2.599 4.66M684.938 365.56l.366-.091M692.535 389.21l.299.033M730.737 339.301l-.026-.034M735.732 342.099l-4.997-2.799-.034-.02-1.631-.913M742.902 346.935l-.441-.298-2.282-1.539-.449-.303M945.688 792.985l2.017 1.65.98.802M968.906 791.555l-.152.382M1042.45 691.136l.01-.008.02-.01M1092.02 883.577l1.54.924 2.3 1.382M961.852 805.27l8.569 5.155 8.239 4.956M1118.18 894.836v.002M1084.94 671.449l-.76-1.263-.28-.451-3.6-5.978M1109.22 711.669l-5.17-8.561-4.98-8.25-2.53-4.189-5.17-8.561-2.48-4.107M1179.81 822.695l-.69-1.243-.49-.864-3.25-5.804M1263.93 810.813l9.02 4.326 7.8 3.742M1803.02 91.505l7.37 5.642"/></g><defs><clipPath id="a"><path fill="#fff" d="M0 0h1920v1080H0z"/></clipPath></defs></svg>