<svg width="1920" height="1080" fill="none" xmlns="http://www.w3.org/2000/svg"><g clip-path="url(#a)" stroke="#EFC018" stroke-width="5" stroke-linejoin="round"><path d="m1078.69 692.569 1.56-2.991.1-.428-.01-.492-.11-.537-.22-.562-.3-.565-.39-.547-.46-.508-.5-.448-.53-.373-.54-.283-.53-.181-.5-.073-.34.03-.1.008-.2.078-.18.069"/><path d="m1080.25 689.578-.02.037-.18.309v.003l-.29.25-.38.148-.44.039-.39-.057-.01-.001-.1-.014-.53-.181-.54-.283-.53-.373-.51-.45-.45-.508-.39-.548-.31-.567-.21-.562-.11-.538-.01-.026v-.466l.1-.427.19-.342.01-.003.28-.244.01-.008M1067.56 695.434l-.06-.585.05-.546.16-.485.05-.077.01-.008.2-.316.01-.005.36-.311.4-.187.04-.017.51-.089.54.028.58.145.57.257.56.357.51.445.45.516.37.567.27.595.18.602.06.585-.05.545-.16.486-.01.017-.25.389-.01.004-.35.308-.35.163-.01.003-.08.039-.51.091-.55-.028M1071.95 700.542l1.22-2.606M1063.98 709.123l.74-1.97.1-.589-.02-.624-.14-.635-.25-.62-.36-.582-.45-.523-.52-.442-.57-.346-.6-.235-.61-.115-.6.008"/><path d="m1064.72 707.154-.07.172-.15.36-.32.456v.003l-.07.059-.01.007-.34.291-.49.251-.56.132-.59.009-.62-.115-.6-.235-.57-.345-.52-.443-.45-.524-.36-.583-.25-.621-.14-.635-.02-.625.1-.589.22-.532.32-.45v-.005l.42-.359.01-.006.02-.008.47-.236.47-.111.08-.021M1054.7 718.577l.2-1.242.02-.652-.11-.658-.13-.354-.11-.285-.34-.594-.44-.528-.53-.44-.58-.337-.29-.099-.34-.12"/><path d="m1054.9 717.335-.03.137-.1.485-.06.129-.01.021-.19.417-.21.278-.16.213-.01.004-.45.391-.54.285-.6.163-.63.035-.65-.093-.62-.22-.59-.336-.52-.441-.45-.528-.34-.595-.23-.64-.12-.658.02-.653.14-.622.26-.567.36-.484.01-.006.46-.395.54-.284.6-.162.33-.019.03-.001.23-.013.04-.002.64.094M1043.35 726.276l.34.601.22.65.09.672-.04.669-.16.641-.29.588-.4.511-.01.005-.49.411-.57.305-.63.181-.65.051-.67-.081-.64-.21-.6-.332-.52-.439-.45-.532-.33-.602-.22-.65-.09-.672.04-.67.16-.641.29-.587.4-.506v-.005l.5-.416.57-.304.63-.181.65-.051.67.082.64.21.59.331.53.44.44.531ZM1031.78 738.176l.33.603.21.653.08.676-.05.674-.18.646-.3.593-.42.517-.01.005-.5.416-.59.31-.64.186-.67.055-.68-.079-.65-.208-.6-.33-.53-.44-.44-.532-.33-.604-.21-.652-.08-.677.05-.674.18-.646.3-.592.42-.512v-.005l.51-.422.59-.309.64-.186.67-.055.68.079.65.208.6.33.53.44.44.532ZM1014.57 749.429l.01-.005.51-.411.59-.3.64-.177.68-.047.67.085.65.213.6.333.54.441.44.531.33.601.21.648.08.669-.05.666-.19.637-.3.583-.42.507-.01.004M1015.82 755.04l-.61-.334-.53-.44-.44-.531-.33-.601M1018.45 755.113l-.64.177-.67.046-.68-.084M1013.7 752.487l-.08-.67.05-.666.19-.637M1002.25 764.418l-.13-.395-.02-.069-.06-.171-.09-.653.04-.645.17-.614.29-.558.4-.476.01-.005.5-.386.57-.275.63-.154.66-.028.67.101.64.225.6.34.53.442.44.528.33.593.22.636.09.653-.04.646-.17.613-.3.558-.4.481-.01.004-.49.381-.58.275-.63.154-.07.003-.06.002-.52.022-.67-.101-.64-.225-.6-.34-.53-.442-.44-.528-.34-.592Zm0 0-.06-.148M1005.46 766.646l.19.002M990.91 772.94l.144-.578.017-.034.009-.016.238-.469.37-.436.004-.005.47-.346.547-.237.603-.12.637.003.645.126.629.242.589.351.526.446.442.523.343.58.229.616.107.626-.02.615-.145.577-.265.519-.375.441-.005.004-.241.177-.012.009-.212.155-.547.236-.603.119-.636-.003-.645-.126-.628-.243-.588-.35-.526-.445-.442-.523-.342-.579-.229-.615-.107-.627.019-.613Zm0 0 .002-.037M995.637 776.946l.041-.012"/><path d="m997.432 774.836-.145.578-.265.519-.371.436-.004.005-.235.172-.012.009-.223.164-.497.215-.05.021-.603.119-.636-.004-.645-.125-.629-.243-.588-.35-.525-.446-.442-.522-.343-.58-.229-.615-.107-.626.019-.614.012-.045.133-.532.025-.05.008-.016.231-.453.374-.441.005-.004.464-.342.547-.237M995.215 771.08l.589.351.525.445.443.523.342.581M995.629 776.955l1.768-.56M1007.82 765.81v.006l-.5.385-.58.275-.63.154h-.02l-.05.003-.4.016-.19.008-.66-.101-.64-.225-.6-.34-.53-.442-.44-.528-.34-.592-.05-.158-.11-.306-.02-.069-.03-.102-.09-.653.04-.646.17-.613.29-.558.4-.481.01-.005M1008.73 763.517l-.04.646-.17.614M1003.92 760.182l.63-.155.66-.027M1005.45 766.656l.8.007M1007.12 760.665l.53.443.44.528M1015.81 755.05l-.61-.333-.53-.441-.44-.531-.33-.6-.21-.648-.08-.67.05-.666.18-.636.31-.583.42-.507v-.005l.51-.406.59-.3.64-.177.68-.046.67.084.65.213.6.333.54.441.44.531.33.601.21.648.08.67-.06.666-.18.636-.3.583-.42.501v.006l-.52.411-.59.299-.64.177-.67.047-.67-.085-.65-.213ZM1031.86 742.03l-.41.512-.01.006-.51.421-.59.309-.64.186-.67.055-.67-.078-.66-.208-.6-.331-.53-.439-.44-.532-.33-.604-.21-.653-.08-.676.05-.674.18-.646.31-.593.41-.517.01-.005M1031.77 738.186l.33.604.21.652.08.677-.05.674M1028.2 736.653l.67-.055.68.078.65.208.6.331M1043.5 730.106l-.4.506v.006l-.5.416-.57.304-.62.181-.66.052-.66-.082-.65-.21-.59-.331-.53-.44-.44-.531-.34-.602-.22-.65-.09-.673.04-.67.17-.64.28-.588.4-.511.01-.005.49-.411.57-.304.63-.181.66-.05.66.081.64.21M1043.68 726.888l.22.649.09.672-.03.67-.17.641M1042.38 725.315l.52.439.45.531M1054.5 718.534l-.2.267-.16.218-.01.005-.46.396-.54.285-.6.163-.63.035-.64-.093-.63-.22-.59-.336-.52-.441-.45-.528-.34-.596-.23-.639-.11-.658.01-.653.14-.622.26-.567.37-.49v-.004l.46-.391M1054.91 716.692l-.02.652M1050.77 713.218l.36-.02.04-.001.23-.013M1064.18 708.144l-.01.006-.06.055-.01.007-.34.298-.5.251-.56.132-.59.009-.61-.115-.61-.235-.57-.345-.52-.443-.45-.524-.35-.583-.26-.621-.13-.635-.02-.624.1-.59.21-.532.32-.455.01-.004M1059.64 702.842l.03-.014.01-.008.46-.228M1073.17 697.943l-.26.402-.01.004-.36.312-.34.159-.01.004-.09.042-.5.091-.55-.028-.58-.145-.57-.256-.56-.358-.51-.446-.45-.517-.37-.567-.28-.597-.17-.602-.06-.585.05-.546.16-.485.05-.085.01-.008.2-.313.01-.003.36-.308.44-.204.5-.089.55.028.57.145.58.257.55.357.51.445.45.516.37.567.28.595.18.602.06.585-.05.545-.16.486Zm0 0v.009M1068.78 692.904l-.03.009M1080.34 689.157l-.09.427-.2.343v.004l-.3.252-.37.149-.45.039-.38-.056-.01-.001-.1-.016-.53-.181-.54-.282-.54-.373-.5-.45-.46-.509-.38-.548-.31-.566-.22-.563-.11-.537V686.243l-.01-.446.1-.427.2-.346v-.003l.3-.248.18-.072.19-.076M1077.29 684.842l.54.283.53.372.5.449.45.508.39.547.31.565M1085.4 683.145l-.22.185-.3.084-.38-.021-.44-.124-.48-.222-.5-.313-.51-.391-.5-.453-.46-.5-.28-.365-.06-.086-.06-.075-.34-.531-.26-.518-.17-.483-.07-.429.01-.136.02-.225.12-.277.22-.184.31-.082.36.021h.02l.07.022.37.103.05.026.43.197.18.115.32.197.51.391.49.452.46.499.41.524.34.531.22.454.03.062.17.483.08.43-.03.361-.13.278Zm0 0-1.86 3.401M1080.74 678.081l-.65.302M1088.82 678.184l-.14.11-.18.01-.05.003-.31-.085-.37-.18-.12-.076-.31-.192-.47-.346-.48-.409-.17-.159-.31-.3-.2-.21-.27-.279-.42-.502-.38-.494-.31-.467-.22-.424-.01-.016-.12-.319-.01-.027-.05-.288.05-.203.14-.109.23-.012.31.086.38.181.43.268.46.345.48.409.49.458.18.194.02.019.26.275.43.5.37.493.09.139.05.074.17.254.14.273.09.151.14.363v.023l.04.265-.05.204Zm0 0-2 3.602"/><path d="m1084.12 673.222-.06.026-.46.235-.16.08-.37.19M1090.23 675.169l-.06.033-.15-.061-.24-.153-.31-.239-.11-.09-.27-.226-.42-.38-.46-.43-.47-.463-.47-.479-.45-.476-.41-.454-.35-.416-.29-.361-.21-.292-.12-.212-.03-.124.06-.032.09.036.07.027.23.153.32.24.37.315.43.38.45.429.48.462.46.478.45.475.41.453.31.361.05.054.02.028.26.333.21.293.12.213.03.125Zm0 0-1.36 2.459-.04.086M1085.41 670.347l-.7.375-.75.404"/><path d="m1089.61 674.205.02-.043.02-.046-.08-.137-.16-.221-.25-.299-.33-.364-.38-.415-.44-.45-.46-.468-.47-.468-.47-.45-.44-.415-.41-.363-.34-.297-.28-.221-.2-.136-.1-.045-.71.391M955.825 800.945l-.233.446-.069.133.033.185.127.267.216.34.297.398.367.442.319.354.103.114.462.477.483.468.486.44.471.395.437.336.285.195.102.069.321.181.244.092.157-.002 1.692-.952 1.989-1.119"/><path d="m955.523 801.525.063-.096.065-.001.091-.002.243.091.322.18.386.263.438.337.092.077.38.319.487.441.484.468.463.478.302.336.121.134.367.442.297.399.123.193.093.146.126.267.031.184-.064.095M959.61 805.935l-.99.549-.078-.078-.168-.167-.25-.252-.324-.323-.385-.384-.431-.431-.46-.461-.473-.472-.466-.466-.443-.443-.401-.401-.345-.346-.276-.276-.195-.195-.108-.107-.016-.016.539-.994.014-.026"/><path d="m953.801 801.666.077.077.167.166.25.25.324.324.385.385.431.431.462.462.473.473.468.468.443.443.402.402.345.346.276.275.194.195.107.106.015.015M955.141 803.007l.909.909.933.933.816.816M959.758 798.228l-.21.433-.027.055-.297.612-.04.263.06.339.158.403.251.451.038.055.088.127.048.07.158.23.403.494.457.487.493.463.476.391.035.029.51.36.488.288.448.203.186.053.205.059.319.016.192-.067.042-.014 3.532-1.984"/><path d="m959.223 799.327.139-.176.233-.082.319.015.066.018.017.005.307.088.449.203.488.287.511.361.44.361.072.059.495.464.457.488.404.496.333.482.25.452.158.403.059.339-.042.262-.14.175M965.468 793.67l-.304.698-.33.758-.109.337-.001.215-.001.194.104.464.206.502.301.521.194.262.19.257.452.498.43.39.074.067.534.4.546.326.536.241.506.145.456.045.389-.057.306-.158.96-.525 1.966-1.076"/><path d="m964.832 795.125.211-.253.306-.159.388-.059.456.044.444.127.062.018.537.24.077.046.47.281.536.4.504.458.453.499.385.521.025.044.276.477.206.503.103.464-.003.409-.11.337-.213.252M972.608 787.843l-.573 1.584-.058.473.055.521.167.55.272.556.367.543.449.507.512.453.555.381.579.294.579.197.558.092.515-.018.451-.125 2.844-1.454"/><path d="m972.035 789.426.171-.407.276-.324.371-.23.439-.124.012-.003.515-.018.558.09.58.197.579.295.557.381.513.454.449.508.368.543.272.558.167.55.054.521-.008.065-.051.408-.172.407-.277.323-.372.23M980.9 781.651l-.107.53.014.572.133.591.248.588.354.563.444.516.52.448.574.365.606.266.616.158.602.044.564-.073.505-.186 2.431-1.082"/><path d="m980.898 781.652.223-.468.331-.389.027-.018.399-.275.505-.187.564-.073.603.043.616.157.608.266.575.365.52.45.445.516.354.564.248.589.133.592.013.572-.108.53-.193.402-.031.066-.332.387-.427.293M724.458 335.641l-8.727-4.883-7.012-3.923-8.883-4.592-8.884-4.591-8.883-4.592-4.345-2.246-8.915-4.529-8.916-4.529-8.915-4.529-4.415-2.242-9.163-4.003-9.164-4.003-9.164-4.004-5.176-2.261-9.577-2.877-9.577-2.877-9.577-2.878-9.577-2.877-9.578-2.877-9.577-2.878-9.577-2.877-3.079-.925 2.849 9.586 2.848 9.585 2.849 9.586 2.848 9.586 2.849 9.585 2.849 9.586 2.848 9.586.812 2.731 3.986 9.171 3.987 9.171 3.986 9.171 2.213 5.091 4.516 8.922 4.517 8.921 4.517 8.922 2.211 4.368 4.58 8.89 4.581 8.889 4.58 8.89 2.225 4.319 4.873 8.732 3.713 6.653M1079.13 664.622l-1.23 2.877-3.75 5.336-6.17 7.629-3.32 3.828-.96 1.105-2.75 3.167-1.35 1.551-1.7 1.879-.96 1.053-4.19 4.612-3.4 3.735-.01.009-.01.014-.55.582-.01.009-3.2 3.401-1.91 2.036-.01.009-4.08 4.334-.01.01-.08.085-.01.009-1.91 2.025-2.14 2.213-1.58 1.631-.01.009-4.43 4.574-.01.01-.41.425-4.18 4.317-.09.084-1.18 1.189-.01.01-4.63 4.653-.01.01-.91.92-4.33 4.352-.72.72-.01.009-1.35 1.356-3.29 3.222-.01.01-1.36 1.33-4.36 4.271-.24.23-.01.01-3.868 3.788-.607.577-.01.009-1.789 1.702-3.959 3.765-.009.009-.293.278-.009.008-4.028 3.831-.009.009-1.775 1.687-.419.385-2.987 2.746-.009.008-.801.736-.009.008-3.529 3.242-.008.008-2.67 2.454-.882.81-.543.477-.008.007-1.169 1.026-.007.006-3.53 3.1-.008.006-2.279 2.002-.006.005-.535.47-.005.004-1.594 1.399-7.676 6.284-5.393 3.848-2.937 1.304"/><path d="m947.811 794.555-.475.845.413 1.271 2.982-1.32 5.486-3.911 7.813-6.394 2.306-2.025.004-.004.724-.635.006-.005 2.503-2.198.008-.006 3.334-2.927.007-.006.968-.85.227-.208.007-.007 1.54-1.415 2.647-2.432.008-.008 3.462-3.181.009-.008.801-.736.009-.008 2.814-2.586.22-.209 2.173-2.067.009-.008 4.009-3.813.01-.009.292-.278.009-.008 3.959-3.765 1.803-1.715.009-.008.227-.216 4.246-4.158.01-.009.24-.23 4.34-4.251 1.36-1.335.01-.01 3.18-3.109 1.48-1.486.01-.01.73-.735 4.28-4.305.93-.936.01-.009 4.65-4.669.01-.01 1.2-1.205.18-.188 4.05-4.174.41-.431.01-.009 4.45-4.59.01-.009 1.58-1.632 2.5-2.582 1.55-1.65.01-.01.07-.068.01-.01 4.08-4.335.01-.009 1.91-2.036 3.23-3.432.01-.009.56-.596.01-.008.53-.57 2.83-3.108 4.25-4.677.98-1.071 2.41-2.654.54-.627 2.9-3.33 1.06-1.223 3.43-3.954.5-.58.1-.112 6.28-7.764 3.81-5.427 1.24-2.921-1.32-.352-.77.438M1070.95 654.631l-.47-.58-.18-.219-.16-.19-6.33-7.738-6.34-7.738-6.33-7.739-6.33-7.738-3.12-3.806-6.5-7.6-6.5-7.6-6.5-7.6-6.5-7.599-6.5-7.6-5.47-6.401-6.68-7.444-6.678-7.443-6.678-7.444-6.678-7.443-6.678-7.444-5.571-6.21-6.853-7.283-6.852-7.283-6.852-7.283-6.853-7.284-6.852-7.283-5.681-6.038-7.471-6.648-7.47-6.648-7.47-6.648-7.47-6.648-7.47-6.648-6.241-5.554-7.695-6.385-7.696-6.386-4.627-3.839-7.695-6.386-7.696-6.385-7.696-6.386-1.906-1.582-8.064-5.913-8.064-5.914-8.064-5.913-8.065-5.914-8.064-5.913-7.168-5.257-8.292-5.59-5.761-3.884-8.291-5.589-8.292-5.59-7.394-4.985-.228-.154-1.019-.687M740.083 344.845l-2.997.607-5.064 2.767-6.961 4.853-4.156 3.271-1.274 1.003-3.175 2.499-.102.087-2.269 1.931-.96.817-4.279 3.642-2.307 1.963-.95.857-.008.007-.332.3-.008.007-2.346 2.118-1.923 1.735-.008.006-4.569 4.124-.009.008-.678.612-2.887 2.736-.007.007-5.703 5.404-.009.008-2.627 2.49-.007.007-.062.059-6.415 6.36-.008.008-2.27 2.249-.008.008-2.6 2.579-3.524 3.654-.008.008-2.898 3.005-.008.008-4.389 4.552-.598.651-.007.007-1.878 2.046-1.484 1.616-.245.266-.003.004-.004.004-.004.004-3.714 4.044-.007.007-1.773 1.932-.184.2-1.935 2.233-.006.007-.541.624-.006.008-2.355 2.717-.005.006-1.875 2.164-1.541 1.778-.005.006-.302.348-.633.79-.006.007-1.845 2.301-.006.006-1.921 2.396-.004.005-.73.91-.002.003-1.752 2.183-4.966 6.978-2.862 5.095-.677 3.042"/><path d="m628.402 455.589.085.127 1.545 2.295.41.608"/><path d="m742.461 346.447.818-2.259-.872-1.617-2.248-1.736-3.108.606-1.132.614-4.12 2.233-3.234 2.245-1.103.767-1.588 1.102-.645.447-.652.453-1.138.893-.429.337-2.603 2.043-1.387 1.089-1.349 1.059-.999.785-1.025.804-1.407 1.195-4.292 3.647-.011.009-1.958 1.663-2.626 2.231-7.428 6.696-3.816 3.44-7.26 6.876-4.472 4.236-7.102 7.04-4.627 4.587-6.94 7.2-4.294 4.453-6.761 7.369-3.508 3.823-4.58 5.294-.005.006-2.468 2.853-.007.008-.038.044-.015.018-.254.293-.011.012-.111.129-.008.009-1.385 1.601-1.064 1.33-.004.005-1.967 2.458-.004.006-.777.971-.005.006-1.232 1.54-.005.005-.723.904-1.362 1.702-.613.865-.143.201-1.186 1.674-.585.825-.32.45-.034.05-2.252 3.175-2.359 4.233-.587 1.052-.678 3.155 1.737 2.251 1.573.928 2.36-.819"/><path d="m742.409 342.57-3.109.618-5.262 2.871-7.244 5.046-2.379 1.872-.119.093-1.134.893-2.361 1.857-1.34 1.054-1.627 1.281-1.823 1.551-2.197 1.869-.943.803-4.268 3.631-1.102.937-2.358 2.128-.008.007-.215.194-.007.007-2.02 1.822-2.042 1.843-.007.006-4.633 4.18-.304.288-.008.008-3.048 2.888-.007.007-6.469 6.13-.01.009-1.597 1.514-.007.007-.333.315-7.101 7.04-.172.171-.008.007-1.041 1.033-.009.008-3.451 3.422-3.661 3.796-.007.007-2.19 2.272-.009.009-5.42 5.62-.119.13-.006.007-3.252 3.541-.008.008-3.965 4.319-.006.006-1.826 1.989-1.138 1.239-.832.96-.006.008-.488.563-.007.007-2.445 2.823-.006.007-1.873 2.162-1.604 1.851-.005.006-.968 1.117-.005.007-.689.795-.99 1.235-.005.006-2.147 2.677-.103.129-.004.005-1.054 1.314-.004.005-2.876 3.587-5.165 7.262-2.97 5.297-.691 3.155M703.684 561.083l6.384 7.698 4.107 4.952 2.672 3.223 6.384 7.697 4.594 5.539 5.671 6.839 6.647 7.471 6.647 7.471 6.646 7.471 6.647 7.472 6.647 7.471 5.665 6.368 7.284 6.851 7.283 6.852 7.284 6.852 7.284 6.852 7.284 6.852 6.17 5.804 7.444 6.677 7.445 6.677 7.444 6.677 7.445 6.676 7.444 6.677 6.34 5.686 7.601 6.498 7.601 6.498 7.601 6.498 7.601 6.498 7.601 6.498 6.523 5.576 7.74 6.332 7.74 6.332 7.739 6.332 7.74 6.332 3.869 3.166.433.354 1.05.859M1079.13 664.622l-.9-1.094-1.64-2.014M1110.05 877.828l2.38-1.851 6.62-5.613 7.16-6.495 7.22-6.922.2-.196 7.04-7.106.34-.346 6.85-7.286.19-.197 6.4-7.209 5.53-6.646 4.42-5.82 3.16-4.77 1.01-2.018.77-1.523.35-2.189M1169.69 811.64l-1.5-2.483-1.88-3.116-.99-1.637M947.75 796.671l6.55 3.943.054.032 1.239.746M1127.59 904.263l8.64 5.025 4.57 2.653 1.77-.221 2.77-1.306 3.66-2.347 3.75-2.812.65-.491 4.99-4.132 5.37-4.801 4.6-4.391.93-.888 5.48-5.546.77-.822 4.45-4.768 4.72-5.411 4.07-5.017.4-.554 2.83-3.87 2.29-3.663 1.26-2.761.18-1.762-5.03-8.641-2.66-4.561"/><path d="m1113.68 899.84 8.73 4.874 1.29.721 2.06-.286 1.83-.886 1.42-.692 4.32-2.82 5.22-3.96 5.93-4.95 6.39-5.745 6.61-6.311 6.55-6.624 6.23-6.667 5.66-6.442 4.87-5.96 3.88-5.242 2.75-4.321.63-1.353.89-1.886.24-2.041-4.88-8.727-1.88-3.355M1109.98 878.743l1.03-.798 7.09-6.008 7.4-6.717.27-.241 7.22-6.921.73-.704 2.01-2.032.01-.006 1.23-1.247.01-.006 4.65-4.694.39-.419.01-.007.78-.837.01-.005 6.34-6.749 6.64-7.475.22-.247 5.92-7.116 4.73-6.228 2.98-4.513.39-.587 1.9-3.782.36-2.332-1.17-.808-2.64.726-.3.168M1152.75 905.255l8.22 5.698 4.46 3.097 1.09-.128 1.68-.768 2.19-1.383 2.62-1.944 2.96-2.432 3.17-2.826 3.27-3.109 3.23-3.269 3.07-3.301 2.78-3.203 2.39-2.978 1.91-2.639 1.35-2.197.73-1.672.11-1.084-5.7-8.216-3.1-4.467M634.289 464.332l.997 1.481.627.932 5.585 8.295 5.584 8.295 3.287 4.883 1.351 2.006 5.584 8.295 3.892 5.781"/><path d="m1166.31 806.042 9.31 3.66 7.4 2.913 8.43 5.388 8.42 5.387 2.56 1.636 8.52 5.233 8.52 5.234 2.42 1.486 8.37 5.479 8.36 5.479 2.28 1.488"/><path d="m1181.52 821.664 8.43 5.376 5.87 3.746 8.53 5.221 8.53 5.221 2.4 1.469 8.37 5.469 8.38 5.468 2.25 1.469 6.61-5.679 2.45-4.709-6.66-7.458-5.56-6.221-6.66-7.458-5.54-6.199-6.66-7.459-5.52-6.178-6.66-7.458-4.47-5.008M1109.15 889.719l.18-2.31.65-8.667.07-.914.75-9.972.48-6.414.06-.794.03-.309-7.85-6.201-7.84-6.2-7.85-6.201-7.84-6.201-7.85-6.2-7.85-6.201-7.84-6.2-7.85-6.201-7.84-6.2-7.85-6.201-7.84-6.2-7.85-6.201-7.84-6.2-3.49-2.754-6.788 6.3 2.928 9.561 2.94 9.559 2.93 9.562 2.59 8.464.36 1.162 2.32 7.565 2.59 8.458 2.93 9.56 2.94 9.562 2.93 9.56 2.93 9.561 2.93 9.559.6 1.945 7.33 6.795 7.34 6.794 7.34 6.795 7.34 6.794 3.9 3.617 3.64 3.375 7.34 6.794 7.34 6.795 7.34 6.794 7.33 6.794.68.628 7.52 6.587 7.48 6.548 7.52 6.588 7.46 6.524 7.52 6.589 7.43 6.502 7.52 6.586 7.4 6.475 7.27-6.09 3.06-5.896-5.52-8.34-5.51-8.342-4.75-7.182-5.31-8.475-5.31-8.475-4.65-7.428-5.44-8.393-5.44-8.391-4.51-6.953-4.07-9.132-3.93-8.793-.79-1.75-.47-1.067-1.4-3.138-.82-1.815-.18-.412-.51-1.153-.05-.112-.31-.674Z"/><path d="m1005.89 776.978 2.96 9.553 2.96 9.552 2.95 9.552 2.63 8.474 2.96 9.552 1.62 5.24 2.96 9.554 1.77 5.74 2.96 9.552 2.96 9.552 2.96 9.553 2.52 8.168M1031.02 887.356l7.09-6.336 7.33 6.795 7.34 6.797 7.33 6.797 6.15 5.694 7.33 6.795 7.34 6.797 7.33 6.797 7.34 6.796 7.34 6.797 2.19 2.035 7.52 6.591 7.5 6.573 7.52 6.591 7.48 6.551 7.52 6.591 7.45 6.527 7.52 6.591 7.42 6.505M1066.15 675.811l1.65-3.098.11-.436v-.5l-.11-.544v-.023l-.07-.177-.13-.369-.3-.569-.39-.55-.45-.509-.51-.448-.53-.371-.55-.278-.54-.176-.36-.048-.14-.019-.46.045-.01.003-.38.153-3.34 1.406"/><path d="m1067.8 672.713-.02.033-.2.322v.003l-.3.259-.39.157-.46.046-.39-.05-.01-.001-.1-.014-.54-.176-.05-.024-.17-.087-.33-.168-.54-.371-.5-.449-.46-.51-.38-.551-.3-.571-.2-.536-.01-.032-.1-.545v-.5l.11-.436.21-.351v-.003l.3-.252.01-.009M1065.86 676.293l.29-.481M1059.07 684.036l1.29-2.7.18-.497.06-.556-.05-.595-.17-.61-.27-.601-.33-.522-.03-.049-.06-.063-.39-.454-.52-.445-.55-.354-.59-.251-.58-.138-.56-.02-.52.1-2.83.925"/><path d="m1060.36 681.335-.01.018-.27.4v.004l-.37.32-.35.165-.01.004-.1.048-.52.101-.56-.019-.58-.137-.59-.251-.56-.355-.41-.354-.1-.092v-.001l-.45-.517-.37-.572-.27-.602-.16-.611-.06-.595.07-.556.17-.497.05-.06v-.009l.23-.344.01-.005.37-.322.42-.197.04-.019M1058.68 684.606l.01-.004.38-.566M1050.72 692.921l.79-2.043.11-.603-.01-.635-.13-.644-.24-.628-.35-.587-.45-.525-.52-.441-.05-.03-.11-.064-.42-.248-.61-.229-.62-.106-.61.019-2.19.386"/><path d="m1051.51 690.877-.06.127-.17.42-.34.47-.01.004-.05.048-.01.007-.37.315-.51.265-.57.146-.61.02-.63-.107-.61-.228-.58-.342-.52-.442-.44-.525-.28-.458-.06-.106-.02-.025-.24-.628-.13-.645-.01-.636.12-.603.23-.546.34-.464v-.006l.43-.365.01-.009.51-.264.47-.118.1-.026M1049.95 694.3v-.005l.46-.635.31-.739M1041.02 702.733l.23-1.29.03-.666-.1-.669-.23-.647-.34-.6-.44-.53-.53-.439-.59-.332-.58-.193-.05-.019-.07-.01-.59-.074-1.44-.176"/><path d="m1041.25 701.443-.03.114-.12.523-.05.097-.01.021-.22.466-.39.507v.005l-.48.407-.56.301-.61.178-.65.048-.65-.083-.64-.212-.59-.332-.53-.44-.44-.531-.34-.6-.23-.648-.04-.269-.02-.131-.04-.27.03-.666.16-.637.27-.584.39-.501v-.006l.48-.411.56-.3.62-.178.3-.022.04-.003.25-.018.06-.004M1039.91 705.072l.01-.005.52-.686.37-.788.21-.861M1029.25 710.789l.33.608.21.659.08.684-.05.684-.19.658-.3.605-.42.531-.01.004-.51.43-.59.322-.64.198-.68.064-.67-.069-.65-.203-.61-.326-.53-.439-.44-.534-.33-.608-.21-.659-.08-.685.04-.446.01-.155v-.083l.19-.658.31-.605.41-.524.01-.006.51-.434.59-.322.65-.197.24-.023.16-.016.27-.025.67.07.66.202.6.327.53.438.44.533Z"/><path d="m1028.91 716.576.01-.005.57-.716.41-.818.25-.888.07-.924-.11-.925M1017.17 723.169l.33.611.2.662.07.688-.07.69-.19.664-.33.612-.43.537-.01.004-.53.436-.6.328-.66.203-.69.068-.69-.065-.66-.199-.61-.327-.53-.438-.44-.534-.32-.61-.21-.663-.07-.69.07-.69.05-.164.06-.204.09-.294.32-.612.43-.531.01-.005.53-.441.61-.328.31-.094.2-.062.15-.047.68-.07.69.068.66.198.61.327.53.438.44.534ZM1017.3 728.428l.01-.005.59-.725.44-.826.26-.896.09-.932M1004.79 735.585l.32.608.21.658.06.683-.06.681-.2.655-.33.602-.43.526-.01.005-.53.426-.6.318-.66.193-.69.062-.69-.073-.66-.204-.607-.328-.534-.44-.439-.533-.326-.607-.202-.658-.068-.683.053-.545.013-.136.011-.036.188-.619.325-.602.432-.52.005-.006.532-.431.607-.318.47-.137.19-.057h.01l.68-.062.68.073.67.204.61.328.53.44.44.533ZM1005.48 740.231v-.005l.59-.711.44-.813M986.489 750.595l-.143-.444-.023-.07-.042-.13-.042-.357-.016-.141-.02-.168.054-.66.186-.631.309-.577.417-.495.004-.005.517-.405.593-.293.646-.171.545-.034.129-.008.025.003.652.086.653.216.604.335.532.441.44.531.33.599.209.645.078.666-.055.661-.186.631-.31.577-.422.5-.005.004-.512.4-.593.293-.646.171-.142.008-.059.004-.473.029-.676-.089-.652-.216-.604-.335-.532-.442-.439-.53-.331-.599Zm0 0-.072-.181M989.723 752.806l.136.001M974.754 759.55l.158-.594.033-.062.008-.017.238-.457.386-.454.004-.006.486-.363.562-.254.618-.136.649-.01.656.114.197.073.123.045.317.117.594.346.528.444.442.526.338.586.222.625.097.639-.031.628-.159.594-.28.536-.39.459-.006.004-.271.202-.012.01-.197.147-.563.254-.617.134-.649.01-.655-.115-.637-.234-.593-.346-.528-.444-.441-.525-.279-.483-.059-.103-.003-.007-.22-.617-.097-.638.031-.628Zm0 0 .003-.04M979.5 763.546l.038-.013M983.873 759.971l.043-.849-.131-.864M1070.95 653.465l-.01-.004-.27-.053-.18.04-.35.195"/><path d="m981.367 761.35-.159.594-.28.537-.386.453-.004.005-.264.197-.012.01-.21.156-.515.232-.047.022-.618.134-.649.01-.655-.114-.637-.235-.593-.346-.528-.444-.441-.525-.278-.482-.06-.104-.002-.006-.22-.617-.098-.639.031-.628.013-.049.145-.545.041-.079.009-.016.23-.441.389-.459.006-.004.48-.36.562-.254.618-.135M980.742 758.872l.339.586.222.625.097.639M974.911 757.563l-.169 1.996M979.492 763.556l1.833-.596M977.887 757.207l.656.114.199.073.122.045.316.117.594.346M988.383 752.511l-.604-.335-.531-.442-.44-.53-.33-.598-.062-.192-.104-.323-.023-.07-.019-.06-.042-.356-.017-.141-.02-.168.055-.661.185-.631.31-.577.421-.5.006-.005.511-.4.593-.293.646-.171.546-.034.128-.008.026.003.65.086.653.216.605.335.532.441.44.531.33.599.208.645.078.666-.055.661-.186.631-.309.577-.417.494-.005.006-.517.404-.593.293-.646.171-.083.005-.059.003-.386.024-.146.009-.676-.089-.653-.216ZM986.172 749.837l.306.769M990.539 752.822l.91-.056.872-.23.802-.396.698-.546M989.711 752.815l.828.006M999.469 740.774l.821.443.89.276.93.099.93-.084.89-.261.82-.43.72-.581.01-.006"/><path d="m1004.78 739.482-.43.521v.006l-.54.43-.61.319-.66.193-.68.062-.69-.073-.66-.205-.609-.328-.534-.439-.439-.533-.326-.608-.201-.657-.069-.683.053-.545.013-.137.011-.035.189-.619.324-.602.437-.527.006-.004.527-.426M1001.85 734.018l.68.073.66.204.61.328.54.439.44.534.32.607.2.658.07.683M1011.3 729.041l.82.44.89.269.93.09.93-.094.89-.274.82-.443.72-.595v-.006M1016.74 727.636l-.01.006-.53.441-.61.328-.65.203-.69.069-.69-.066-.66-.2-.61-.325-.53-.438-.44-.535-.33-.61-.2-.663-.07-.689.07-.69.05-.165.06-.204.09-.294.32-.612.44-.536v-.005M1017.69 724.453l.07.689-.07.69-.19.663M1012.89 721.887l.31-.094.2-.063.15-.045.69-.07.68.067M1016.19 722.207l.54.439.43.534M1028.9 715.221v.006l-.52.435-.59.322-.64.197-.67.065-.68-.07-.65-.202-.6-.327-.54-.438-.44-.534-.33-.608-.21-.659-.08-.685.04-.447.01-.155.01-.083.18-.657.31-.606.42-.529v-.005l.51-.43.59-.321M1029.24 710.8l.33.608.21.658.08.685M1023.84 717.591l.88.273.92.095.91-.088.87-.267.79-.435.7-.587v-.006M1026.34 709.229l.67.07.66.203.6.326M1041.17 700.117l.1.67-.03.666-.16.636-.03.076-.01.021-.23.487-.38.502-.01.005-.48.413-.56.301-.61.177-.65.049-.66-.084-.63-.212-.59-.332-.53-.44-.45-.53-.33-.601-.23-.648-.04-.269-.02-.131-.04-.27.03-.666.16-.637.27-.583.39-.508.01-.004.47-.407.56-.3.62-.177.34-.025.03-.003.27-.02.59.075.07.009.05.018M1040.61 698.871l.33.6M1035.91 706.235l.89.112.87-.065.83-.241.76-.407.65-.557v-.005M1039.04 697.569l.59.332M1051.5 690.887l-.23.547-.34.465v.005l-.05.044-.01.008-.38.323-.51.265-.57.145-.61.02-.63-.106-.61-.229-.58-.342-.52-.442-.44-.525-.28-.459-.06-.105-.02-.024-.24-.629-.13-.645v-.636l.11-.603.23-.546.34-.469.01-.004.43-.37v-.001l.02-.008.49-.255.58-.145M1048.11 686.146l.62.108.61.228.42.247.1.064.06.03.52.443.44.523.35.588.25.628.13.643M1047.06 695.394l.83-.027.77-.197.69-.358.59-.507.01-.005M1060.35 681.344l-.27.414-.01.005-.37.323-.34.162-.01.003-.11.052-.52.101-.56-.019-.58-.137-.59-.251-.56-.355-.4-.354-.11-.091v-.003l-.45-.516-.37-.571-.27-.603-.16-.611-.05-.595.06-.556.18-.497.04-.068.01-.009.23-.34v-.004l.38-.319M1056.49 676.189l.56.019.59.138.58.251.56.355.51.444.39.453.06.065.03.047.34.523.27.602.16.609.05.595M1057.56 685.341l.62-.293.5-.438.01-.005M1067.9 671.785v.5l-.11.436-.21.351v.004l-.31.262-.39.157-.45.046-.39-.049-.01-.001-.11-.016-.54-.175-.05-.025-.17-.087-.33-.167-.53-.371-.51-.449-.45-.51-.39-.551-.3-.571-.2-.541-.01-.028-.1-.544v-.5l.11-.436.22-.355v-.003l.3-.257.39-.156.46-.045.15.019.36.047.53.176.55.279.54.371M1066.91 669.553l.38.549.3.57.14.367M1073.22 666.104l-.23.19-.31.089-.39-.016-.45-.119-.48-.22-.51-.31-.51-.389-.5-.454-.46-.5-.04-.053-.1-.13-.26-.345-.34-.535-.25-.521-.16-.487-.07-.435.01-.085.03-.281.14-.283.23-.189.18-.051.13-.037.39.017.07.018.38.102.49.22.27.168.2.122.03.02.51.389.5.452.46.499.4.527.34.533.24.506.01.015.16.487.06.435-.03.367-.14.284Zm0 0-.64 1.149-.3.542-1.02 1.826M1068.57 661.031l-.72.344-2.88 1.388M1068.73 669.524l.53.237.13.059.15.04.45.121M1076.86 661.042l-.15.113-.09.004-.15.01-.21-.055-.1-.028-.38-.178-.04-.025-.01-.003-.12-.073-.27-.166-.47-.344-.48-.407v-.003l-.49-.458-.46-.49-.43-.502-.37-.495-.3-.471-.18-.349-.04-.075-.09-.245-.05-.12-.03-.29.05-.205.14-.104.01-.007.24-.014.31.084.39.179.43.266.47.346.48.407.48.458.34.357.01.01.12.122.42.501.37.494.22.342.08.127.23.425.13.364.02.138.02.154-.05.206Zm0 0-.27.471-1.85 3.25"/><path d="m1072.15 656.076-.01.005-.11.057-.45.237-.16.081-.39.207-.32.169-.76.393-.96.505M1073.16 664.517l.12.07.51.24.43.112.32-.022.2-.153M1078.4 658.013l-.07.031-.15-.062-.24-.154-.32-.239-.04-.036-.34-.281-.42-.38-.46-.431-.47-.463-.47-.479-.45-.476-.41-.454-.35-.415-.29-.36-.2-.291-.12-.211-.03-.123.07-.031.05.019.11.045.24.154.31.241.38.316.43.38.46.429.47.463.47.477.44.475.41.453.35.415.02.023.05.059.22.278.2.292.12.212.03.124Zm0 0-1.51 2.669"/><path d="m1073.58 653.188-1.57.862-1.06.581-.11.064-.7.384"/><path d="m1077.83 657.106.02-.034.01-.05-.07-.141-.17-.225-.25-.302-.32-.366-.39-.417-.43-.452-.46-.469-.48-.467-.47-.449-.44-.412-.4-.361-.35-.294-.27-.217-.2-.131-.11-.041-2.1 1.186-.55.314-.1.054M940.147 786.245l-.102.19-.275.511-.001.002-.383.713-.723 1.347-.339.63.033.19.127.272.216.343.297.402.367.444.088.099.334.371.461.477.484.468.486.438.471.394.437.333.347.233.041.027.322.177.244.087.158-.007 2.566-1.475 1.237-.71"/><path d="m938.324 789.637.064-.101.156-.007.244.085.321.177.387.259.438.333.472.394.488.44.484.468.463.479.41.457.013.014.367.445.297.402.167.266.049.077.126.271.031.19-.064.099M947.039 792.201l.088-.136-.016-.102M937.901 786.447l-.924 1.64-.008.156.085.241.17.314"/><path d="m938.336 786.802-.775 1.394-.335.603-.589 1.06.074.075.164.165.247.248.322.322.383.384.43.431.461.461.473.474.468.467.444.444.404.403.347.347.278.276.197.197.109.108.018.016 1.016-.575M943.956 783.537l-.648 1.285-.615 1.22-.245.488-.057.113-.321.636-.043.27.057.347.155.409.249.457.034.05.013.019.009.013.275.404.402.497.456.488.494.462.513.418.144.1.367.256.491.283.451.198.18.047.215.057.322.008.238-.089.019-.01 3.635-2.08M950.748 789.883l.196-.248.062-.366-.075-.469-.209-.554-.335-.619-.447-.658-.303-.375"/><path d="m942.07 787.279.144-.184.236-.09.322.007.114.03.098.026.182.047.452.197.491.283.513.357.513.418.163.153.333.31.457.49.403.498.331.487.248.457.155.409.056.347-.045.269-.127.162-.017.021M949.424 779.302l-.926 2.034-.125.273-.558 1.226-.115.348-.009.418.031.149.068.325.202.509.298.526.159.217.223.306.452.499.504.457.007.005.531.392.549.321.541.234.512.137.462.035.176-.03.22-.038.207-.111.107-.058 3.411-1.9"/><path d="m956.349 785.576.298-.357.159-.47.014-.566-.132-.641-.256-.647-.016-.043-.073-.129-.33-.584-.517-.709M947.816 782.835l.219-.265.312-.17.395-.069.463.034.512.137.458.198.084.036.114.066.436.255.539.397.505.458.453.501.382.523.027.047.272.481.202.51.098.473-.002.06-.008.359-.046.135-.071.212-.219.263M956.409 773.75l-.647 1.682-.003.007-.15.392-.002.005-.383.997-.068.486.047.532.161.559.268.563.365.547.447.509.514.452.559.378.264.13.164.081.156.077.586.189.566.081.524-.03.462-.139 2.947-1.533M963.188 779.715l.516-.328.389-.457.247-.568.093-.656-.062-.721-.216-.756-.362-.764-.491-.737-.003-.003-.091-.105"/><path d="m955.227 776.833.18-.42.286-.338.381-.244.462-.14.01-.001.514-.029.566.08.587.188.585.289.561.377.514.453.449.51.137.206.103.154.125.188.268.565.16.559.047.533-.012.08-.057.405-.182.42-.287.338-.382.242M964.999 766.447l-.61 2.231-.119.545.004.585.125.602.243.596.35.568.443.517.001.001.107.092.414.355.578.361.614.259.625.148.612.031.576-.086.519-.202 2.519-1.143M972.594 771.491l.466-.546.321-.654.162-.736-.004-.791-.168-.815-.327-.807-.474-.769"/><path d="m964.387 768.678.236-.484.344-.404.045-.032.394-.277.518-.203.577-.087.612.03.626.148.614.259.58.361.063.054.107.092.352.302.445.519.35.569.242.597.125.603.003.585-.12.544-.21.431-.026.053-.345.404-.44.308M1177.5 835.66l1-1.681.11-.212.04-.256-.01-.29-.06-.312-.12-.323-.17-.32-.22-.306-.25-.281-.27-.243-.29-.198-.3-.144-.28-.084-.27-.022-.24.041-1.82.641"/><path d="m1177.06 834.036-.29-.198-.27-.243-.25-.281-.22-.307M1178.5 833.979v.003l-.15.159-.2.104-.24.041-.27-.023-.03-.008-.25-.075M1175.86 832.685l-.12-.322-.07-.313V831.878l-.01-.117.05-.256.11-.213.15-.16.18-.093.02-.01M1174.06 840.277l.79-1.369.08-.286.03-.317-.04-.337-.1-.342-.15-.336-.2-.316-.25-.284-.28-.241-.3-.19-.31-.129-.32-.066-.29.002-1.54.367"/><path d="m1173.7 839.548-.31-.065-.31-.13-.31-.189M1171.87 836.701l.1-.182.01-.005.03-.056.19-.192.24-.13v-.002l.28-.068M1174.85 838.908l-.06.093-.08.151-.2.192M1171.76 837.305l.02-.318M1173.87 840.609v-.002l.19-.33M1172.25 838.638l-.2-.316-.16-.336-.09-.344M1169.59 845.864l.57-1.101.11-.309.06-.339-.01-.356-.08-.359-.14-.348-.19-.323-.25-.287-.28-.24-.31-.183-.33-.118-.33-.051-.33.02-1.29.083M1169.18 845.493l-.33.02-.33-.05-.33-.119"/><path d="m1166.98 842.908.12-.309.18-.268.23-.216.18-.108.01-.004.08-.043.28-.083.02-.007M1170.15 844.763v.012l-.17.256-.19.183-.01.004-.03.029-.27.156M1169.35 846.228v-.002l.24-.363M1167.15 844.311l-.13-.349-.08-.359-.01-.355M1164.56 851.518l.26-.696.07-.354.01-.369-.06-.37-.12-.356-.19-.329-.24-.289-.29-.239-.32-.178-.34-.111-.77-.217M1162.89 851.934l-.34-.112-.32-.178-.29-.238-.24-.29-.18-.329-.13-.356"/><path d="m1164.82 850.821-.02.042-.13.283-.04.067-.01.008-.15.21-.26.233-.29.172-.33.104-.35.033M1161.33 850.06l.01-.368.08-.356.14-.324.2-.285.26-.232.3-.172.32-.104.35-.032.09.008.02.003.2.023.04.006M1164.09 852.346v-.003l.27-.384.2-.441M1158.52 855.721l.18.332.11.36.05.376-.03.375-.09.362-.16.334-.23.293-.27.241-.32.18-.35.111-.36.039-.36-.035-.36-.107-.32-.176-.29-.238-.24-.291-.18-.332-.12-.36-.04-.376.02-.376.1-.361.16-.334.22-.293.28-.241.32-.18.34-.111.37-.039.36.035.35.108.33.176.29.238.24.29Z"/><path d="m1158.24 858.767.01-.002.3-.396.22-.452.13-.489.03-.508-.06-.507-.16-.487-.24-.449M1148.59 864.007l-.04-.375.04-.376.11-.361.17-.334.24-.293.28-.241.33-.179.36-.111.37-.039.37.035.36.108.33.176.29.238.24.291.18.332.11.36.04.376-.04.375-.1.362-.18.334-.23.293-.29.24-.33.18-.36.111-.37.039-.37-.035"/><path d="M1152 865.288v-.003l.32-.396.23-.451.15-.489.05-.507-.06-.508-.15-.487-.24-.449M1149.74 865.406l-.33-.176-.29-.238-.24-.291-.18-.332M1142.12 869.263l.24-.284.3-.232.33-.171.36-.104.37-.032.38.041.36.112.33.179.29.239.24.289.17.33.11.356.04.37-.04.369-.11.354-.18.325-.24.284-.29.232M1144.09 872.195l-.38.033-.37-.041M1145.56 871.698v-.002l.33-.384.24-.44.15-.478.05-.499-.05-.5-.15-.482M1141.84 870.681l-.04-.37.04-.369M1142.65 871.895l-.29-.239-.24-.289M1135.64 875.362l.29-.216.32-.154.36-.089.37-.019.37.052.36.12.33.183.29.241.24.288.18.324.11.348.04.359-.04.356-.1.338-.18.309-.23.267M1139.13 877.792l.01-.002.31-.361.24-.417.14-.458.05-.481-.05-.485-.15-.471-.24-.438M1136.27 878.374l.36.12M1137.38 878.526l.35-.088M1135.12 876.276l.11-.339M1128.66 882.052l.04-.121v-.011l.06-.185.16-.285.22-.242.27-.19.32-.131.34-.067h.36l.37.067.35.131.32.191.29.242.24.285.18.317.12.336.05.343-.03.336-.09.317-.16.285-.17.18v.004l-.06.058-.27.19-.31.131-.35.067M1132.92 883.375v-.002l.3-.327.22-.385.13-.428.03-.455-.06-.463-.16-.455-.24-.428-.33-.386M1128.69 882.73l.11.337.19.316.23.285.29.242.33.191.35.131M1179.18 820.857l-.19-.132-.23-.145-.03-.015"/><path d="m1128.58 881.317.05 1.076.05.342.12.336.18.317.24.285.28.242.33.191.35.131.36.067h.36l.35-.066.31-.131.99-.473"/><path d="m1129.41 881.023.32-.131.34-.066h.36l.36.067.35.131.33.19.29.243.24.285.18.317.12.336.04.343-.02.336-.1.317-.16.285M1128.63 882.394l.01-.049.02-.287.04-.132v-.011l.05-.174.16-.285.22-.242M1132.55 883.635l.37-.257v-.003M1131.84 883.918l-.26.183-.01.007M1135.17 877.246l.24.422.24.288.29.24.33.184.36.12.37.051.37-.019.36-.088.57-.149"/><path d="m1138.74 876.097.11.348.04.359-.03.356-.11.339-.17.308-.24.267-.29.215-.25.121-.01.006-.05.019-.01.009M1135.41 877.668l-.18-.324v-.003l-.01-.03v-.02l-.1-.295-.04-.359.04-.356.1-.338.18-.309.23-.267.29-.215.33-.155.35-.089.37-.018.37.051.36.12M1138.3 878.295l.44-.209.39-.291v-.003M1141.89 871.658l.39.323.45.242.48.151.51.055.51-.043.48-.14.45-.231.4-.314v-.003"/><path d="m1145.49 871.086-.18.325-.24.284-.29.232-.34.171-.36.104-.37.032-.38-.041-.36-.112-.33-.179-.29-.239-.24-.289-.17-.33-.11-.356-.04-.37.04-.369.11-.354.18-.325.24-.284.29-.232.33-.171M1144.45 868.6l.33.179.3.238.23.29.18.33M1148.35 865.309l.39.322.45.238.48.146.51.047.5-.052.48-.151.45-.242.39-.326v-.003"/><path d="m1151.81 864.983-.29.241-.33.18-.36.111-.37.039-.37-.035-.36-.108-.33-.176-.29-.238-.24-.291-.17-.332-.11-.361-.04-.375.03-.376.11-.361.17-.334.24-.293M1152.04 862.553l.17.332.11.36.04.376-.03.375-.11.362-.17.334M1149.39 862.034l.33-.179.35-.111.37-.039.38.035.35.108.34.176M1154.68 858.791l.39.322.44.238.48.145.49.047.49-.053.47-.15.43-.243.37-.326v-.004M1158.51 855.727l.18.332.12.36.04.375-.02.376-.1.362-.16.334-.23.293-.27.241-.32.18-.34.111-.37.039-.36-.035-.35-.107-.33-.176-.29-.238-.24-.291-.18-.332-.12-.36-.04-.376.02-.376.1-.361.16-.334.23-.293.27-.241.32-.18.35-.111.36-.039.36.035.35.108.33.176M1161.05 852.636l.44.241.46.151.48.054.46-.045.45-.141.4-.232.35-.315v-.003M1164.81 850.828l-.14.325-.04.059-.01.008-.16.218-.25.233-.3.171-.33.105-.34.032-.35-.04-.35-.111-.32-.178-.28-.239-.24-.289-.19-.329-.13-.357-.06-.37.01-.369.08-.354.15-.325.2-.285.26-.233.29-.171M1164.9 850.103l-.06-.369M1162.99 848.191l.1.012.02.003.23.025M1164.53 849.049l-.24-.289-.29-.239M1166.51 846.409l.42.247.45.159.45.068.44-.026.41-.123.36-.211.31-.291v-.003M1170.1 843.058l.13.348.08.358.01.356-.05.339-.12.31-.18.268-.18.178-.01.004-.03.034-.28.156-.3.089-.32.021-.34-.051-.33-.118-.31-.183-.28-.24-.25-.287-.19-.324-.14-.348-.07-.359-.01-.356.05-.339.12-.31.17-.267.23-.216M1167.7 842.007l.01-.004.06-.039.31-.09.32-.019.34.05.33.119M1174.84 838.913l-.14.244-.19.192-.24.133-.06.015-.01.001-.21.052-.29.002-.32-.065-.31-.13-.3-.189-.28-.242-.25-.284-.2-.316-.15-.337-.1-.343-.04-.336.03-.318.08-.286.11-.187.01-.005.03-.051.19-.192.24-.132.27-.069.3-.001.31.065.31.13.31.189.27.242.25.284.2.316.16.336.09.342.04.337-.02.317-.09.286ZM1171.66 840.883l.43.175.42.088.4-.002.37-.093.32-.18.27-.26v-.002M1175.16 835.474l.39.268.4.194.38.114.37.029.32-.056.27-.14.21-.218M1178.65 833.515l-.05.256-.1.21v.002l-.16.162-.2.103-.24.041-.26-.022-.03-.006v-.002l-.26-.076-.29-.144-.29-.197-.28-.244-.25-.281-.21-.307-.17-.32-.12-.323-.07-.312-.01-.172V831.765l.05-.256.1-.212.16-.161.2-.103M1178.58 832.914l-.12-.322-.18-.321-.21-.306"/><path d="M1177.5 835.664v-.003l.01-.005.99-1.673M1177.54 831.441l-.28-.198-.3-.143-.28-.085M1177.73 830.771l.36.335.38.279.37.218.35.144.31.068.27-.013.22-.094.15-.169M1181.26 829.674l-.11.124-.16.069-.2.009-.24-.05-.26-.107-.27-.16-.28-.208-.27-.246-.25-.277-.22-.295-.2-.303-.14-.299-.1-.283-.05-.257.01-.22.06-.176.11-.124.16-.068.2-.01.11.022.13.028.26.108.27.16.27.207.27.247.26.276.22.295.15.239.04.063.15.299.1.283.05.257-.01.221-.06.176Zm0 0-1.12 1.866M1178.69 826.871l-2.02.878M1182.91 826.351l-.07.084-.12.029-.16-.026-.2-.081-.19-.113-.04-.02-.25-.179-.16-.134-.1-.084-.27-.25-.25-.272-.24-.282-.21-.283-.18-.272-.11-.21-.02-.041-.06-.165-.03-.055-.03-.181v-.001l.02-.134.01-.018.05-.066.11-.026.01-.003.16.027.1.04.1.041.23.133.25.179.26.218.27.25.1.112.15.159.24.282.21.282.12.185.06.087.13.251.09.22.03.182-.01.135Zm0 0-.49.815-.7 1.192"/><path d="m1180.3 823.598-.08.039-.12.062-.13.063-.41.203-.17.08M1181 828.374l.25.103.22.035.15-.04.1-.114M1183.37 824.152l-.07-.012-.12-.065-.17-.114-.19-.16-.23-.199-.12-.104-.13-.127-.26-.253-.26-.266-.25-.269-.23-.261-.21-.244-.17-.216-.12-.181-.08-.139-.03-.09.02-.04.07.013.12.065.17.114.2.16.18.157.04.042.25.23.26.253.02.017.24.249.25.268.13.143.1.118.21.244.17.216.12.181.08.139.03.091-.02.04Zm0 0-.76 1.325M1180.75 821.412l-.59.314-.6.326-.17.087"/><path d="m1182.68 823.122.06-.116-.03-.056-.08-.104-.12-.149-.17-.188-.21-.22-.23-.243-.26-.257-.13-.125-.13-.136-.27-.254-.25-.239-.23-.214-.2-.181-.17-.14-.12-.095-.07-.045-.03.005-.3.17-.56.322-.22.125M1113.93 897.461l.13-.117.06-.183-.01-.241-.1-.29-.16-.328-.23-.352-.29-.364-.34-.362M1113.55 892.209l-.76 1.932-.02.218.03.249.1.271.16.282.2.282.25.273.27.251.3.221.31.182.31.136.3.085.27.03.23-.025.19-.08 1.79-1.095M1117.48 895.421l.19-.178.11-.241.03-.295-.06-.337-.13-.367-.21-.382-.27-.383-.34-.369"/><path d="m1112.79 894.141.08-.179.14-.131.19-.081.23-.025.27.03.3.085.14.064.16.071.31.183.3.221.28.251.25.273.19.267.01.016.16.282.09.271.04.249-.02.218-.08.178-.14.132M1117.89 889.218l-.53 1.764-.06.255.02.282.08.298.13.302.2.295.24.277.28.248.31.21.33.163.33.11.32.053.3-.006.27-.065.23-.122 1.58-.954M1121.92 892.327l.23-.234.16-.296.07-.345-.02-.381-.1-.403-.19-.41-.26-.4-.33-.375"/><path d="m1117.36 890.982.11-.219.17-.173.23-.122.12-.029.14-.036.3-.007.33.052.33.111.32.162.31.21.29.249.24.276.19.297.14.303.08.298.01.206v.075l-.05.256-.11.218-.18.172M1122.91 885.643l-.25 1.452-.01.311.06.322.12.321.19.307.24.281.29.245.32.199.34.146.35.087.34.024.33-.038.29-.101 1.26-.711M1126.78 888.488l.34-.215.27-.285.19-.344.11-.39.01-.421-.08-.436-.17-.433-.26-.416-.32-.381"/><path d="m1122.66 887.095.07-.289.14-.254.1-.098.1-.113.26-.159.29-.101.33-.039.34.025.35.086.34.146.32.199.29.246.24.281.18.307.13.321.06.323-.01.311-.07.288-.05.086-.1.169-.2.21-.25.159M717.038 345.216l.053-.346-.038-.387-.127-.413-.21-.424-.286-.417-.351-.395-.402-.358-.438-.306-.457-.244-.458-.172-.443-.094-.409-.011-.361.072-.298.152-2.45 1.423"/><path d="m717.038 345.217-.018.038-.122.254-.224.227-.003.002-.294.15-.36.073-.246-.006h-.008l-.156-.004-.443-.093-.459-.172-.458-.244-.438-.307-.403-.359-.351-.396-.287-.417-.211-.424-.117-.386-.002-.007-.006-.021-.037-.387.053-.346.141-.292.221-.224.002-.002M709.881 350.667l.093-.397-.003-.431-.098-.45-.19-.451-.274-.434-.348-.402-.408-.354-.453-.292-.48-.219-.489-.138-.479-.051-.452.038-.405.125-2.012 1.107"/><path d="m709.879 350.667-.01.02-.174.326-.27.283-.003.002-.138.083-.007.005-.196.118-.405.125-.451.039-.48-.051-.489-.137-.481-.219-.454-.292-.409-.354-.348-.403-.274-.436-.19-.451-.097-.45-.003-.432.079-.336.001-.006.013-.054.185-.346.268-.279.002-.003.313-.189.032-.019M701.764 357.023l.025-.469-.076-.482-.173-.475-.265-.45-.345-.408-.413-.351-.465-.279-.499-.197-.513-.107-.509-.015-.484.081-.441.171-1.633.784"/><path d="m701.764 357.023-.01.037-.115.403-.102.184-.007.012-.11.197-.306.331-.004.003-.377.254-.441.172-.484.08-.509-.013-.514-.108-.5-.197-.465-.279-.413-.351-.346-.408-.265-.451-.173-.476-.076-.482.026-.47.125-.44.22-.392.095-.103.006-.006.202-.218.004-.004.366-.246.015-.01M692.712 363.914l-.162-.494-.258-.463-.344-.413-.416-.347-.473-.269-.512-.179-.531-.083-.529.016-.508.114-1.053.339"/><path d="m692.711 363.914.01.084.045.378.005.046v.002l-.044.499-.147.475-.244.431-.332.37-.005.004-.402.292-.466.209-.508.115-.529.016-.531-.083-.513-.179-.473-.269-.417-.348-.344-.413-.258-.463-.162-.495-.06-.508.045-.501.147-.475.245-.431.328-.366.004-.004.401-.291.006-.004.011-.005.417-.187.038-.017M682.738 371.689l.254.471.156.509.052.526-.055.524-.159.5-.257.459-.346.399-.004.004-.416.32-.48.236-.52.14-.541.038-.54-.065-.519-.167-.479-.261-.418-.345-.344-.417-.254-.472-.156-.509-.052-.526.055-.524.159-.5.258-.459.342-.394.004-.005.421-.323.479-.237.52-.139.541-.038.54.066.519.166.478.261.419.345.343.417ZM672.926 381.057l.254.477.156.517.051.537-.055.537-.161.515-.258.475-.347.416-.005.004-.417.336-.481.253-.521.154-.542.051-.541-.055-.52-.159-.479-.256-.419-.344-.344-.419-.254-.477-.156-.517-.051-.537.056-.537.16-.516.258-.474.343-.411.004-.005.422-.34.481-.253.522-.154.541-.051.541.056.52.158.479.257.419.344.344.418ZM663.185 390.757l.258.478.161.519.058.54-.046.54-.15.52-.248.478-.335.42-.005.004-.406.341-.47.256-.511.158-.532.054-.534-.052-.515-.157-.475-.255-.418-.344-.344-.419-.258-.478-.161-.519-.059-.539.047-.54.15-.52.247-.478.332-.416.003-.004.411-.345.47-.257.511-.158.533-.054.533.053.515.156.475.255.419.344.344.419ZM649.207 400.896l.224-.471.308-.407.004-.004.386-.337.447-.248.49-.151.514-.048.519.057.503.161.468.257.415.344.347.418.264.475.172.515.074.534-.029.534-.129.512-.225.47-.312.411-.004.004-.382.333-.447.248-.49.151-.514.047-.518-.057M649.051 401.942l.028-.533.114-.453M650.323 404.227l-.415-.344-.347-.417-.264-.476-.172-.514M640.993 409.705l.273-.387.003-.004.024-.021.007-.006.32-.289.413-.229.459-.133.486-.032.496.07.485.169.458.263.411.345.349.415.274.469.189.505.095.521-.002.516-.098.494-.192.45-.276.391-.004.003-.348.312-.413.229-.19.055-.016.005-.252.073-.486.031-.495-.07-.486-.169-.457-.263-.411-.345-.349-.415-.274-.468-.188-.504-.095-.521.001-.516.098-.493.191-.451Zm0 0 .002-.005M643.457 413.921l.095.001"/><path d="m645.162 413.215-.003.004-.352.316-.413.229-.174.05-.016.005-.268.077-.384.025-.102.007-.495-.07-.486-.17-.457-.262-.411-.345-.349-.415-.274-.469-.188-.504-.095-.52.001-.517.098-.493.191-.45.009-.013.267-.378.004-.004M645.633 410.849l.095.52-.002.517M641.613 409.006l.413-.229M641.639 408.251l-.651 1.463M642.973 408.611l.496.07.485.17.458.263M649.205 400.723l-.134.694-.028.533.073.534.172.515.265.475.346.417.415.344.468.258"/><path d="m649.07 401.416.026-.105.097-.384.006-.023.003-.006.221-.464.312-.412.004-.004.383-.332.446-.249.49-.151.514-.048.519.058.503.16.468.257.415.344.347.418.265.476.172.514.073.535-.029.533-.129.512-.225.47-.308.407-.003.005-.387.336-.447.248-.49.151-.514.048-.518-.058-.371-.118-.041-.013-.031-.01-.06-.019M662.878 394.257l-.003.005-.411.344-.47.257-.511.158-.532.054-.534-.053-.515-.157-.475-.255-.418-.343-.345-.419-.258-.478-.161-.519-.057-.54.045-.54.15-.519.248-.479.335-.42.005-.004M661.426 389.592l.515.157.475.255.418.344.345.419.258.478.161.519M663.656 392.304l-.047.54M663.458 393.362l-.247.479M659.375 390.008l.47-.256M673.172 381.544l.155.516.052.538-.056.536-.16.516-.259.475-.343.411-.003.004-.422.341-.481.252-.522.155-.541.05-.542-.055-.52-.159-.478-.256-.42-.344-.343-.419-.255-.477-.155-.517-.051-.537.055-.537.16-.515.259-.475.347-.415.004-.004.418-.337.481-.252.521-.155.542-.05.541.055.52.159M679.354 375.59l-.478-.261-.419-.345-.343-.417-.255-.472-.156-.509-.051-.526.054-.524.16-.5.257-.459.346-.399.005-.003.416-.32.48-.237.52-.139.54-.038.541.066.519.166.478.261.418.345.343.417.255.471.156.509.052.526-.055.524-.159.5-.257.459-.342.395-.004.004-.421.324-.479.236-.521.14-.54.038-.541-.065-.519-.167ZM691.999 366.203l-.003.004-.407.295-.466.209-.508.115-.529.017-.532-.083-.512-.18-.474-.268-.417-.348-.344-.414-.258-.463-.162-.494-.059-.508.044-.501.148-.475.244-.431.333-.37.004-.004M689.477 361.689l.53-.016.531.083.511.18.474.268.416.348.344.413.258.462.162.495.049.411.006.05.005.046-.044.501-.147.475-.244.431M701.109 358.19l-.004.004-.381.256-.441.172-.484.081-.509-.014-.514-.107-.499-.197-.466-.28-.413-.35-.346-.409-.264-.45-.174-.476-.075-.482.025-.47.125-.44.22-.393.101-.108.006-.007.2-.216.004-.002M701.531 355.603l.173.475.076.482-.025.47-.124.44M698.039 353.877l.485-.08.508.014.514.108.498.197M706.767 351.267l-.454-.293-.408-.354-.349-.403-.274-.435-.189-.452-.098-.45-.003-.431.081-.342.001-.006.011-.049.186-.346.27-.282.004-.002.34-.205.406-.126.451-.037.479.051.489.137.48.219.453.292.408.354.348.402.274.435.19.451.098.45.003.431-.093.396-.184.346-.266.28-.004.003-.134.082-.007.004-.202.122-.406.126-.451.038-.48-.05-.489-.137-.481-.219ZM716.422 343.233l.286.418.21.423.127.413.038.387-.052.346-.141.292-.221.225-.002.002-.298.153-.36.072-.238-.006h-.008l-.164-.004-.442-.093-.46-.172-.457-.244-.439-.307-.403-.359-.351-.395-.286-.418-.211-.424-.12-.393-.002-.007-.004-.013-.037-.388.053-.346.141-.292.224-.226.003-.002.295-.15.361-.072.409.011.443.094.458.172M712.807 341.878l-2.432 1.413M722.803 341.508l-.169.165-.244.092-.308.014-.361-.063-.399-.14-.424-.209-.431-.272-.421-.324-.396-.362-.355-.388-.3-.399-.235-.393-.159-.373-.078-.339.006-.291.089-.233.171-.165.244-.091.308-.013.361.064.4.14.332.165.091.045.43.271.42.323.395.362.355.388.3.397.235.393.159.373.065.278.014.061-.005.291-.09.233ZM718.792 337.828l-2.706 1.597M727.261 339.108l-.11.101-.184.028-.005-.001-.245-.047-.005-.001-.302-.118-.352-.189-.125-.081-.192-.124-.067-.044-.401-.301-.402-.34-.389-.368-.359-.38-.316-.378-.261-.361-.064-.108-.087-.146-.045-.077-.124-.287-.046-.234.033-.17.111-.1.184-.027.251.048.307.121.309.165.043.023.384.249.4.301.358.303.044.037.387.366.359.38.315.377.254.35.007.011.197.33.123.288.047.234-.032.17Zm0 0-.143.286-.071.142M723.324 335.383l-2.894 1.698M730.141 338.369l-.047.035-.12-.037-.189-.11-.25-.177-.302-.238-.342-.289-.369-.33-.382-.358-.38-.372-.364-.372-.333-.357-.012-.013-.278-.316-.235-.287-.171-.236-.102-.175-.027-.106.048-.035.12.039.19.11.25.177.302.238.342.29.042.038.202.18.124.111.382.358.379.371.363.371.332.356.29.329.235.287.172.236.025.044.077.131.028.107Zm0 0-.188.347"/><path d="m726.285 334.596-1.827 1.046-.083.048M731.279 339.459l.115-.202-.055-.102-.125-.171-.192-.233-.25-.287-.299-.329-.337-.359-.361-.375-.372-.378-.368-.362-.35-.337-.319-.296-.275-.245-.221-.185-.158-.116-.09-.044-.091.05M619.869 438.138l-.857 1.452-.731 1.237.012.146.084.214.155.274.218.323.175.231.098.128.318.382.351.39.37.383.375.362.037.033.329.294.343.278.305.22.258.153.155.063.044.018.134.004.332-.172"/><path d="m618.281 440.827.062-.073.133.003.199.08.257.152.306.22.1.081.243.198.367.327.375.363.314.325.004.004.053.055.352.391.318.382.274.36.218.323.154.273.084.214.011.145-.063.073M618.926 442.015l-.446.783.004.009.078.081.147.152.212.216.268.272.314.317.347.35.369.369.374.375.367.367.345.343.31.308.263.259.204.202.141.136.07.065.492-.27"/><path d="m618.48 442.798.069.064.14.136.205.201.263.26.31.308.345.344.368.367.375.376.369.37.348.351.315.317.268.271.211.216.148.151.075.081.004.008M621.458 434.417l-1.693 2.818-.054.208.022.274.097.33.041.091.127.28.233.4.288.413.334.41.365.391.384.358.124.1.118.095.144.115.15.1.225.151.35.182.309.106.259.027.198-.055.216-.102.281-.133.197-.093"/><path d="m619.766 437.235.128-.135.197-.055.259.025.31.106.349.182.376.251.387.311.384.358.367.392.334.411.288.413.233.401.168.371.092.315.004.015.021.273-.047.178-.008.03-.128.134M624.471 429.52l-1.56 2.601-.118.266-.039.33.041.38.119.418.194.437.26.442.316.428.361.399.391.353.407.295.407.226.391.147.361.063.316-.024"/><path d="m622.91 432.121.193-.191.259-.11.316-.025.36.063.392.146.408.226.057.041.35.254.392.354.362.4.317.429.259.442.048.108.146.33.119.417.04.381-.04.329-.119.265-.192.191-.26.11M628.995 423.308l-1.354 2.321-.177.316-.097.379-.012.426.075.458.156.471.232.467.302.444.355.405.4.35.425.282.437.203.43.116.409.024.369-.068"/><path d="m627.641 425.629.252-.242.317-.159.37-.068.082.004.326.02.431.115.437.203.426.282.4.351.357.405.301.445.233.468.156.471.073.458-.012.427-.037.145-.06.233-.178.316-.253.242-.317.157M634.589 416.451l-1 1.857-.147.419-.059.464.034.492.123.499.209.487.286.458.352.411.406.347.442.271.463.184.466.09.45-.007"/><path d="m633.586 418.309.231-.359.306-.285.195-.104.174-.094.418-.105.451-.008.466.09.463.183.444.271.406.348.352.411.287.459.208.488.124.5.032.491-.059.464-.148.42-.231.358-.104.096-.203.188-.369.198-.418.105M735.313 360.046l1.061-2.803.054-.377-.044-.421-.006-.019-.133-.43-.141-.281-.089-.179-.311-.452-.38-.428-.435-.388-.264-.184-.21-.147-.25-.134-.243-.13-.495-.185-.477-.099-.44-.01-.388.079-.319.167-2.67 1.532"/><path d="m736.37 357.243-.023.05-.126.268-.237.248-.005.002-.315.165-.388.081-.102-.002-.192-.004h-.01l-.136-.003-.395-.082-.082-.017-.495-.185-.494-.264-.474-.332-.438-.388-.38-.429-.312-.453-.229-.46-.133-.432-.003-.008-.003-.01-.043-.421.054-.377.151-.318.237-.244.002-.003M728.015 365.7l.682-2.501.098-.432-.005-.469-.095-.429-.013-.059-.163-.385-.044-.105-.298-.472-.377-.435-.442-.384-.49-.315-.519-.237-.528-.148-.518-.054-.486.043-.437.137-2.2 1.186"/><path d="m728.696 363.2-.012.022-.185.354-.289.309-.004.002-.175.108-.008.005-.183.112-.436.138-.487.044-.517-.054-.529-.147-.52-.237-.491-.316-.443-.384-.377-.436-.298-.473-.207-.49-.108-.489-.005-.469.088-.385.002-.006.009-.041.198-.376.286-.304.004-.004.343-.21.027-.017M719.772 371.971l.195-1.838.025-.51-.084-.523-.189-.516-.287-.488-.375-.443-.447-.38-.503-.302-.54-.213-.555-.115-.55-.014-.523.088-.476.187-1.791.835"/><path d="m719.965 370.132-.012.043-.121.435-.132.238-.007.013-.097.177-.33.36-.004.004-.406.276-.476.188-.524.089-.55-.014-.555-.115-.541-.213-.503-.302-.448-.38-.375-.443-.288-.489-.189-.517-.083-.523.026-.511.133-.478.237-.428.131-.142.006-.007.189-.207.004-.004.396-.268.015-.011M710.452 378.794l-.255-1.154-.177-.537-.28-.502-.372-.448-.452-.376-.513-.291-.554-.194-.574-.09-.573.018-.549.126-.201.06-.015.005-.949.284"/><path d="m710.199 377.64.013.105.053.446-.002.022-.002.028-.043.494-.158.516-.263.468-.358.403-.005.004-.435.318-.504.228-.549.126-.573.018-.575-.089-.554-.194-.514-.291-.452-.377-.373-.448-.28-.502-.176-.538-.066-.551.047-.544.159-.516.263-.469.355-.398.004-.004.437-.319.003-.003.005-.002.084-.038.019-.008.361-.163.035-.016M699.417 386.095l.276.512.17.552.056.571-.058.568-.172.544-.278.498-.374.433-.005.004-.45.349-.52.257-.563.152-.585.042-.586-.071-.563-.18-.518-.283-.454-.374-.372-.452-.277-.512-.169-.552-.057-.571.059-.569.172-.544.279-.498.37-.428.004-.005.455-.352.52-.257.563-.152.585-.041.585.071.563.18.518.282.454.375.372.451ZM688.794 396.273l.276.517.169.561.056.582-.06.583-.174.559-.28.515-.376.451-.005.004-.452.366-.521.274-.565.167-.588.055-.587-.059-.564-.172-.519-.278-.454-.373-.373-.454-.276-.518-.169-.561-.055-.582.06-.583.173-.559.28-.515.372-.446.004-.005.458-.369.521-.274.565-.168.588-.055.586.06.564.172.519.278.455.373.372.454ZM678.234 406.793l.28.519.174.563.063.585-.051.585-.163.563-.268.519-.364.455-.005.004-.441.369-.51.278-.554.171-.578.058-.579-.057-.558-.17-.516-.277-.453-.372-.374-.455-.279-.518-.112-.36-.001-.001-.062-.201-.063-.586.051-.585.162-.563.269-.519.345-.431.008-.01.007-.009.004-.005.446-.373.509-.278.555-.171.578-.059.579.058.558.17.516.276.454.373.373.454ZM662.919 418.321l.013-.054.001-.004.082-.322.01-.04.034-.134.244-.509.335-.441.004-.005.42-.363.485-.269.305-.093.006-.002.221-.068.558-.051.563.063.546.174.508.28.451.373.376.453.286.515.186.558.079.579-.032.577-.14.554-.245.51-.339.445-.005.004-.415.359-.485.268-.532.163-.558.051-.563-.063-.401-.129-.059-.018-.085-.028-.508-.279-.45-.373-.376-.453-.286-.515-.187-.557-.079-.579.032-.577Zm0 0 .008-.052.001-.004.002-.011M664.77 421.653l.062.032M654.122 427.285l.294-.412.004-.006.003-.004.001-.001.381-.34.449-.247.498-.143.528-.034.539.077.527.185.496.285.446.375.379.45.297.508.203.546.103.563-.003.559-.108.534-.209.487-.301.421-.004.004-.378.337-.449.246-.174.05-.018.005-.306.087-.528.033-.538-.077-.527-.184-.496-.286-.445-.374-.379-.45-.296-.507-.204-.545-.102-.564.002-.558.107-.533.208-.487Zm0 0 .003-.006M656.793 431.85h.133"/><path d="m658.659 427.477.297.508.204.546.102.564-.003.559-.108.533-.208.487-.298.417-.004.005-.382.34-.449.246-.156.045-.018.005-.324.093-.387.024-.141.009-.538-.077-.527-.185-.495-.285-.446-.375-.378-.449-.297-.507-.204-.546-.102-.563.002-.559.108-.533.208-.487.01-.014.291-.408v-.001l.004-.003.004-.003.374-.334.448-.247.499-.143.528-.033.538.077.527.184.497.286M654.806 425.685l-.689 1.608M656.785 431.859l1.626-.005M664.762 421.663l.777.394M668.203 420.61l-.336.44-.003.005-.421.363-.485.268-.532.163-.558.051-.562-.063-.342-.11-.059-.019-.074-.023-.071-.023-.508-.279-.45-.373-.375-.453-.287-.515-.186-.557-.079-.579.031-.577.015-.06.002-.004.003-.012.087-.344.01-.04.024-.094.244-.509.339-.446.004-.004M668.622 418.97l-.032.577"/><path d="m663.032 417.554-.023.143-.002.009-.091.563v.004l-.01.057M664.535 416.189l.31-.095M665.07 416.026l.558-.051M678.258 410.136l-.36.45-.004.005-.446.374-.51.277-.554.171-.578.059-.579-.058-.559-.17-.515-.277-.453-.372-.374-.454-.279-.519-.112-.359v-.001l-.063-.202-.063-.585.051-.586.162-.563.269-.518.354-.443.008-.009.002-.003.005-.005M678.68 407.884l.063.585M675.742 405.472l.579.057M688.403 400.045l-.005.005-.456.37-.523.274-.565.167-.586.056-.587-.06-.564-.172-.519-.278-.455-.373-.372-.454-.276-.518-.169-.56-.056-.583.06-.582.174-.56.28-.515.375-.451.005-.004M689.231 397.359l.056.582-.061.583-.173.559-.28.515M684.617 395.441l.521-.274.565-.168.587-.055.587.06M687.441 395.177l.519.278M699.029 389.778l-.004.005-.456.352-.519.257-.563.153-.586.042-.585-.071-.563-.18-.518-.283-.454-.374-.373-.452-.276-.512-.17-.552-.056-.572.059-.568.172-.544.278-.498.375-.433.005-.004M699.684 386.617l.17.552.056.571-.058.568-.172.544M695.766 384.939l.564-.152.585-.041.585.07.563.181M710.011 377.111l.176.537.065.54.001.011-.002.022-.045.522-.158.516-.263.468-.354.399-.004.004-.44.322-.504.228-.549.126-.573.018-.575-.089-.554-.194-.514-.291-.451-.377-.374-.448-.28-.502-.176-.538-.066-.551.047-.544.159-.516.264-.469.358-.402.005-.004.435-.318.108-.048.018-.009.378-.17.549-.126.573-.018.574.09.555.194.512.291.452.376.373.448M719.262 371.403l-.004.004-.411.279-.476.188-.523.089-.55-.013-.556-.116-.54-.213-.504-.302-.448-.38-.375-.443-.287-.489-.189-.517-.083-.523.025-.511.134-.478.237-.429.137-.148.006-.007.187-.204.004-.003M717.559 366.766l.539.213.504.302.447.379.375.443.287.488.189.516M719.822 370.618l-.124.225-.007.013-.105.19M728.205 363.887l-.003.004-.172.105-.007.005-.191.117-.437.138-.486.043-.181-.018-.337-.035-.14-.039-.389-.108-.52-.237-.49-.316-.443-.384-.378-.436-.298-.473-.206-.49-.108-.489-.005-.469.089-.391.002-.007.007-.034.198-.376.29-.308.004-.002.367-.225M728.168 360.854l.298.472.045.107.162.383M728.786 362.773l-.098.431M726.34 359.483l.52.236.489.316M736.218 357.566l-.236.245-.003.003-.319.167-.387.081-.1-.003-.187-.003-.008-.001-.146-.003-.391-.081-.086-.018-.495-.185-.494-.263-.475-.332-.325-.29-.111-.098-.264-.298-.117-.131-.311-.454-.229-.46-.136-.439-.003-.008v-.002l-.043-.421.054-.377.15-.318.239-.247.004-.002.316-.165M735.695 355.089l.311.452M736.098 355.722l.139.279.135.433.005.015.043.421M731.792 353.63l-2.644 1.517M732.941 353.393l.477.1.495.185.244.13M734.406 353.94l.212.148.262.184M742.531 353.17l-.179.182-.26.101-.33.018-.388-.067-.43-.149-.456-.226-.465-.293-.455-.35-.237-.217-.191-.176-.385-.42-.048-.063-.279-.369-.255-.427-.175-.406-.088-.369.003-.317.094-.254.18-.181.261-.1.33-.017.388.068.43.149.252.125.037.019.167.082.463.293.18.138.275.211.427.392.384.42.327.431.255.427.175.405.078.325.011.043-.003.318-.093.254Zm0 0-.632 1.4-.008.018"/><path d="m738.187 349.188-.473.278-1.407.823-1.061.622M747.254 350.515l-.115.111-.195.033-.104-.02-.163-.029-.109-.043-.219-.085-.379-.202-.413-.268-.025-.019-.188-.141-.219-.165-.434-.368-.42-.397-.389-.412-.344-.41-.285-.392-.068-.115-.146-.245-.01-.022-.127-.291-.054-.254.012-.067.02-.12.116-.111.195-.031.268.05.329.128.236.127.142.075.413.269.431.324.238.202.195.165.419.397.389.411.343.409.107.147.177.244.024.039.191.321.138.313.054.255-.031.187Zm0 0-.182.36-.073.145-.164.327-.203.402-.229.455M742.995 346.482l-.257.15-.435.254-1.959 1.144-.489.286M750.261 349.652l-.046.041-.126-.039-.2-.116-.267-.189-.323-.256-.368-.312-.397-.356-.412-.387-.411-.402-.394-.402-.362-.388-.093-.105-.222-.251-.257-.313-.189-.257-.114-.191-.033-.117.047-.04.126.039.201.117.267.19.324.256.347.294.02.017.101.091.296.265.411.386.41.401.393.402.361.386.315.357.257.312.19.257.095.159.019.033.034.118Zm0 0-.628 1.159-.186.344M746.094 345.572l-2.071 1.184"/><path d="m750.694 351.997.82-1.442-.055-.108-.132-.183-.203-.25-.268-.308-.321-.355-.362-.387-.389-.405-.402-.407-.399-.393-.38-.365-.347-.322-.3-.267-.242-.201-.175-.128-.101-.05-.079.043M630.993 457.684l-.55.935-1.173 1.994.01.154.09.228.165.293.234.346.134.176.16.21.344.412.379.421.4.414.407.392.105.095.291.26.372.303.332.241.281.169.218.091.147.008.43-.224.52-.27 1.289-.671"/><path d="m629.27 460.613.069-.075.146.008.218.089.28.169.333.241.016.012.356.291.398.356.407.392.181.189.22.227.38.422.344.412.294.387.234.346.165.292.088.227.01.154-.07.074M634.305 466.354l.173.134.34.234.287.167.222.091.149.014.439-.25"/><path d="m629.905 461.81-.475.834.002.005.082.085.157.16.227.23.288.29.338.34.375.377.398.399.405.405.397.397.374.373.336.334.286.284.224.222.154.151.077.074.755-.415.716-.395.267-.147"/><path d="m629.43 462.644.077.074.153.15.224.222.286.283.336.335.375.374.398.397.406.407.398.399.376.377.339.341.288.29.226.23.157.159.08.084.001.004M632.759 453.764l-1.31 2.196-.517.866-.061.222.022.293.098.338.002.005.003.01.18.4.251.43.311.445.361.443.395.423.332.31.083.078.42.337.011.008.205.137.191.129.38.199.337.118.282.032.216-.056.181-.086.183-.087.188-.09 1.495-.714"/><path d="m630.934 456.826.141-.142.216-.056.281.031.338.117.38.2.025.017.383.256.42.338.416.388.396.424.361.444.312.446.251.431.18.4.083.289.019.064.02.292-.012.043-.049.178-.142.141M636.073 448.548l-1.68 2.833-.129.282-.001.002-.044.354.042.409.035.125.093.325.208.471.28.477.307.415.036.048.34.376.05.055.197.178.227.206.08.058.362.262.442.246.425.162.392.07.344-.022.283-.115 3.077-1.291"/><path d="m634.395 451.381.209-.204.284-.116.344-.024.393.07.424.161.443.246.06.044.383.277.424.384.391.433.029.037.315.426.121.207.159.271.032.073.175.399.129.45.04.409-.044.353-.131.284-.211.204M641.025 441.895l-1.456 2.533-.194.34-.107.407-.014.459.079.494.168.509.252.504.325.481.124.14.262.298.112.099.32.281.462.306.474.222.468.127.444.029.224-.04.178-.031 1.738-.581"/><path d="m639.566 444.428.275-.26.346-.169.402-.072.071.005.373.024.468.127.475.221.463.306.433.381.386.439.326.482.251.505.168.509.079.494-.015.459-.035.131-.072.276-.077.134-.118.206-.276.259-.346.168M647.127 434.524l-1.069 2.034-.161.452-.065.501.035.531.132.539.226.528.31.496.381.445.44.376.48.295.503.2.506.099.197-.003.292-.003.519-.11"/><path d="m646.059 436.559.252-.387.334-.305.182-.097.219-.116.454-.112.49-.007.506.098.504.201.481.294.44.377.382.446.31.496.226.529.132.54.034.53-.065.502-.162.452-.253.386-.087.08-.247.225-.401.212-.455.112M650.369 488.218l-1.72 5.303-.239 7.435 2.626 7.705 3.573 9.339.093.244 4.587 8.885.718 1.389 5.816 8.135 1.374 1.922 5.745 8.185 1.808 2.576 5.678 8.231 1.92 2.783 6.702 7.422 1.865 2.065 7.342 6.789 1.384 1.28 7.98 6.026.491.37 7.764 4.604 8.079 1.259 3.869.027M1214.87 690.478l-10 .087-10 .089-10 .088-10 .086-10 .089-10 .088-10 .088-10 .087-1.68.015-10 .088-10 .087-10 .088-5.94.052-10 .088-.22.001"/><path d="m1087.03 691.6 5.42 8.403 5.42 8.402 5.42 8.403 3.19 4.933 5.42 8.403.49.758 5.42 8.403 5.42 8.402 5.42 8.403 5.43 8.402 5.42 8.403 5.42 8.402 5.42 8.403 5.42 8.402 4.12 6.385 1.14 1.763 2.8-1.21 1.5-.655 9.18-3.978 9.17-3.977 3.53-1.529 8.41-3.644 5.85-2.537 9.89 1.449 9.9 1.448 9.89 1.449 3.26.477 9.21 3.893 9.21 3.893 7.65 3.229 9.31 3.642 9.31 3.641 8.21 3.207 9.14 4.044 9.15 4.045 7.58 3.353 7.62-6.471.99-.837 1.97-4.243-6.19-7.859-5.87-7.471-6.19-7.859-5.89-7.483-6.18-7.859-5.9-7.496-6.18-7.859-5.91-7.509-6.57-7.543-6.56-7.543-6.57-7.543-6.56-7.543-6.57-7.543-6.56-7.543-6.57-7.543-6.56-7.543-5.69-6.538-10 .092-10 .093-10 .092-10 .093-10 .093-10 .092-10 .093-10 .093-1.42.013-10 .092-10 .093-10 .092-10 .093-.79.007-5.23.049-2.76 3.738Z"/><path d="m1321.78 819.202-6.18-7.859-5.93-7.524-6.18-7.858-5.93-7.537-6.19-7.858-5.94-7.55-6.18-7.859-5.95-7.562-6.57-7.543-6.57-7.543-6.56-7.542-6.57-7.543-6.56-7.542-6.57-7.543-6.56-7.542-6.57-7.543-5.9-6.776 2.36-3.796M969.555 809.795l-.314 9.995-.314 9.995-.314 9.995-.091 2.9-.315 9.995-.314 9.995-.314 9.996-.314 9.995-.314 9.995-.314 9.995-.315 9.995-.064 2.061 7.512 6.6 7.512 6.601 7.513 6.6 7.512 6.6 7.513 6.601 7.51 6.6 7.51 6.6 7.52 6.601 3.27 2.88 7.81 6.252 6.84 5.482 7.81 6.251 6.86 5.491 7.8 6.254 6.87 5.5 7.8 6.25 6.88 5.51 7.63-6.47.09-.08 2.62-4.66-4-9.165-4.01-9.162-2.1-4.792-3.57-9.34-3.57-9.341-2.05-5.346-3.84-9.232-3.85-9.232-2.13-5.136-1.15-9.934-.45-3.964"/><path d="m1096.02 1010.83-4.01-9.16-4.01-9.164-2.13-4.865-3.58-9.339-3.57-9.339-2.08-5.421-3.84-9.23-3.85-9.231-2.17-5.21-1.15-9.934-1.14-9.934-.22-1.853M1447.13 373.39l6.17 7.876 2.89 3.698 6.72 7.406 3.27 3.603 7.23 6.905 3.61 3.444 7.7 6.378 3.9 3.229 8.14 5.819 4.13 2.961 8.52 5.232 4.32 2.648 8.87 4.61 4.42 2.297 9.19 3.953 4.46 1.921 5.38 2.048 9.45 3.256 5.64 1.941 9.68 2.517 5.55 1.444 9.85 1.73 5.4.948 9.26.907 9.96.895 6.25.562 10 .01 5.96.006 2.82-.262 9.96-.925 2.76-.256 2.26-.219 9.91-.962 9.81-1.903 6.08-1.177 9.65-2.621 2.8-.761 9.56-2.915 6.32-1.927 9.19-3.95 5.79-2.492 9.12-4.102 3.71-1.667 8.67-4.981 5.77-3.313 8.4-5.425 3.65-2.359 8.01-5.985 5.53-4.13 7.5-6.613 3.36-2.966 7.21-6.929 5.11-4.902 6.43-7.653 2.88-3.424 6.28-7.783 4.5-5.587 5.25-8.517 3.82-6.211 5.2-8.541 2.2-3.61 4.12-9.111 3.06-6.767 3.79-9.252 1.42-3.454 2.96-9.553 2.21-7.134 2.2-9.753.69-3.029 1.77-9.841 1.32-7.27.61-9.981.47-7.806.42-9.992.08-1.705-.52-9.986-.4-7.6-1.6-9.871-1.29-7.988-1.59-9.69-2.62-9.652-1.99-7.382-3.56-9.345-2.88-7.562-3.09-6.879-4.43-8.962-3.26-6.576-5.24-8.517-4.02-6.541-5.98-8.015-4.77-6.39-6.65-7.467-5.45-6.124-7.27-6.874-6.07-5.747-7.82-6.24-6.6-5.27-8.3-5.569-7.02-4.704-8.74-4.857-7.33-4.069-9.12-4.105-7.5-3.378-9.43-3.316-7.56-2.656-9.68-2.484-7.48-1.919-7.11-1.314-9.87-1.613-8.42-1.377-9.98-.698-8.09-.567-10 .255-7.66.194-9.98.583-.56.033-9.93 1.245-7.99 1.004-9.75 2.263-7.36 1.711-9.69 2.47-2.21.562-9.44 3.301-7.28 2.546-9.14 4.06-2.76 1.226-9.01 4.338-6.92 3.332-8.44 5.36-6.13 3.884-8.39 5.442-3.24 2.105-7.74 6.333-5.53 4.521-7.48 6.638-3.08 2.737-6.9 7.235-4.79 5.021-6.42 7.669-2.71 3.24-5.96 8.035-3.97 5.364-5.22 8.529-2.18 3.564-4.91 8.712-3.13 5.543-3.89 9.213-1.55 3.683-3.81 9.246-2.29 5.552-2.67 9.636-1.65 5.917-2.42 9.701-.77 3.059-1.54 9.88-.9 5.739-.11 1.29-.35 4.228-.58 7.052-.44 9.99-.24 5.383.6 9.981.35 5.695.94 9.956.1 1.151 1.6 9.872.83 5.122 2.52 9.677 1.4 5.358 2.74 8.945 3.38 9.413 1.63 4.561 4.17 9.091 2.15 4.695 4.89 8.724 2.67 4.761 3.28 5.103 5.56 8.317 2.48 3.73Z"/><path d="m1509.94 401.298-7.54-5.273-6.12-5.101-6.63-6.497-5.29-6.043-5.28-7.277-4.33-7.034-3.72-7.465-3.13-8.092-1.29-7.6.17-5.936-.6-7.505.22-7.744.98-7.531 1.73-7.248 2.44-6.913 1.77-3.333 1.51-2.833 2.15-1.483 2.63-1.819 4.82-3.657 5.87-5.156 6.5-4.411 5.84-3.484 6.18-2.894 6.44-2.291 6.67-1.679 9.02-.683 7.83.518 6.64 1.898 6.48 2.18 7.43 2.972 8.54 4.216 5.94 3.46 5.78 3.662 6.26 4.377 7.75 6.329.11.093 4.95 4.686 4.77 4.866 4.79 5.311 6.15 8 3.78 5.847 3.41 5.862 3.15 6.076 1.65 8.318.56 8.104-.59 6.721-1.26 6.616-1.93 6.45-2.6 6.448-3.49 7.124-4.27 6.218-2.14 5.312-3.1 5.09-6.19 4.083-4.37 2.274-2.33 1.207-7.16 2.841-.22.063-7.35 2.101-7.92 1.459-7.12.783-6.37 1.284-8.39-.513-8.78-1.741-7.61-2.278-8.49-3.217-8.32-3.968-6.98-4.15ZM1495.27 246.733l-8.08 5.575-7.29 6.496-5.98 4.616M1645.15 382.578l4.43-8.89 3.32-8.053M1547.67 233.184l-9.78-.578-9.97.832-1.31.109M1573.4 241.849l-9.3-3.667M1606.63 261.394l-7.84-5.456M1634.62 288.011l-5.99-6.648M1736.72 360.43l-.42-1.636-.55-5.309-.9-5.074M1731 338.92l.25 2.994.32 3.802.34 4.026.25.841.97 1.125.72 3.984.43 4.172.33 1.286v1.202l-.64 4.285-.91 4.332-.65 1.453-.97 1.3-1.89 4.09-1.92 3.961-.47 1.692-.13.317-1.34 3.183-1.24 2.952M1668.67 352.774l-2.6 5.459-.05 4.261M1676.02 386.105l.86-3.762-.43-3.539.03-3.917.53-3.844.96-4.085 1.08-4.185.05-3.347 2.06-4.285 2.61-2.866 2.75-3.851 3.1-3.563 3.39-3.238 1.38-1.318 2.67-.965 3.72-1.828 3.84-1.526 3.96-1.062 3.28-.93 2.04-.846 3.43.314 3.42 1.043 3.33 1.498 3.2 1.939 2.87 1.274.84-.297 1.14-6.812M1663.5 395.205l1.89 3.889 2.69 2.934 3.26 2.191 3.37 2.569 2.4 2.048.98 1.335 4.04.971 4.35.538 4.62.102M1723.33 328.382l-4.25-1.915-4.37-1.334-4.37-.404-2.6 1.079-4.17 1.185M1697.2 410.592l1.97-1.369 4.72-1.933M1732.45 335.926l-.32-3.819M1664.67 367.818l-1.21 5.194-.65 4.884M281.227 964.756l2.628 1.345 3.296 1.422 7.846 3.022 3.655 1.247 8.723 2.151 3.877.922 9.406 1.185 3.958.458 9.889.141 3.894-.13 9.957-.934.211-.02 9.802-1.982.201-.041 3.931-.873 9.544-2.984.403-.127 9.187-3.95.368-.158 3.674-1.739 8.738-4.864.448-.25 8.198-5.726.385-.268 3.169-2.628 7.576-6.528.361-.311 6.872-7.266.281-.297 6.093-7.93.214-.278 2.457-3.403 5.24-8.517.118-.191 4.321-9.018.065-.135 1.638-3.93 3.311-9.349 2.262-9.575.836-4.155 1.14-9.432.169-4.381.049-9.074-.41-4.439-.984-8.499-.871-4.327-1.931-7.717-1.197-4.048-1.078-2.839-.201-.527-.341-.898-2.526-6.094-.69-1.511M426.563 794.694l-1.956-2.444-2.697-3.095-2.831-2.993-2.938-2.86-3.015-2.699-3.062-2.511-.08-.064M376.249 759.472l-6.029-2.004-4.227-1.051-8.713-1.723-4.357-.582-9.362-.732-4.323.011-9.796.334-9.778 1.402-4.358.746-9.694 2.455-.163.041-9.385 3.453-.22.081-4.05 1.585-8.982 4.398-.359.176-8.483 5.294-.377.235-3.462 2.426-7.899 6.132-.39.302-7.231 6.907-.37.354-6.486 7.611-.349.409-2.629 3.1-5.664 8.241-.254.37-4.776 8.786-.217.4-1.742 3.567-3.819 9.242-.103.249-2.808 9.597-.075.256-.904 3.758-1.739 9.837-.633 9.973-.207 3.635.508 9.621.313 3.641 1.588 9.068.708 3.494 1.133 3.775 1.771 5.671"/><path d="m443.147 824.336.429-3-.791-6.432-3.349-8.5-4.333-7.812-5.81-8.139-.247-.345-6.339-7.153-7.462-6.657-.434-.388-7.577-5.481-8.264-4.452-7.886-2.856-2.197.094M385.923 762.928l-.552-.813-1.721-.806-.966-.491"/><path d="m410.335 778.774-.352-.745-1.234-2.615-.597-.783-1.313-1.084-1.702-1.246-1.952-1.314-2.378-1.484-2.655-1.561-2.758-1.588-2.465-1.259-2.141-1.007-1.578-.724-.325-.149-.815-.373-1.744-.839-.708-.229-1.172-.376-1.762-.579-6.437-1.347-.618-.129M375.629 759.343l1.278.652"/><path d="m407.742 775.431-.782-.338-.864-.101-.078-.009-.15-.018-.004-.001-1.708-.671-2.127-1.434-1.335-1.044-2.285-1.111-3.015-1.811-1.552-.761-3.066-1.93-1.039-.618-1.935-1.248-.627-.405-.262-.269-.028-.029-.129-.133-.268-.184-.566-.388-.895-.614M406.504 778.193l1.455.166 1.041.449.408.005M385.027 762.314l.343-.199M379.197 761.067l-.463.265M408.748 775.414l-.516.028-.49-.01M381.582 763.486l.058.038.281.181 1.068.689M390.469 769.089l2.07 1.014 4.021 2.416 3.047 1.48 1.781 1.393 2.836 1.911"/><path d="m406.963 775.094-.866-.102-.078-.009-.152-.018M442.219 836.139l1.315 1.629.95.683.094-1.285M440.337 817.498l-.949-2.192-.778-1.798-.65-1.392-1.373-2.707-1.173-2.123-1.178-2.072-1.238-2.058-1.515-2.281-1.188-1.635-1.097-1.432-1.468-1.79-.921-1.059-.246-.264-2.317-2.485M434.449 825.299l2.008 3.346 1.4 2.332 1.526 2.495.116.19 1.475 2.059.235.329.258-.454M423.984 807.58l1.298 2.55-.257.5M425.027 810.629l2.38-2.193.187-.365-2.31 2.058M416.613 789.447l.581.614.195 1.478.413 1.822-.142 1.196-.528.56 1.37 1.571 1.808 2.074 1.55 2.637-.484.68M426.918 803.194l-1.588-1.837-1.372-1.588-1.32-1.515-1.001-1.147M446.547 836.214l.167.566-.385-1.602-.587-2.366-.668-2.634M417.195 790.062l4.233 3.162.24.181-.425-.45M421.242 792.954l-4.629-3.507M446.628 841.583l-.091-1.548-.17-1.904.112-.983.058-.834M420.862 789.699l-.681-.414-1.075-.756-.831-.41-.896.176-.609.487M443.207 831.122l-.475-1.248-.276-.726-.267-.7-.347-.701-.03-.06M424.244 792.21l-1.885-1.748M425.337 798.809l-.273-.401-3.396-5.004"/><path d="m425.328 801.358.254-.276.067-.604-.211-.92-.102-.748M425.062 798.408l.054-.247.302-.251.445-.095.417.204.54.377.69.417M428.863 799.858l.634.729.148.18.863 1.051M435.023 818.196l-1.008-1.682-.256-.428-.46-.69-1.131-1.696-.616-.925-.13-.177-1.149-1.73-.983-1.717.128-.251-.652-1.278-.936-1.701-.374-1.059.241-.343-.779-1.325M228.182 893.729l-.318 9.995-.009.289-.097 3.043.035 2.813.323 3.016.614 3.198.904 3.354 1.144 3.323.966 2.45 1.65 3.302 2.188 3.73 2.293 3.51 2.465 3.36 2.837 3.526 2.662 2.997 3.225 3.271 2.856 2.625 3.386 2.787 3.038 2.255 3.493 2.258 3.427 1.94 3.023 1.46 3.325 1.308 2.912.789 6.701.427 5.183.333"/><path d="m227.758 907.056.306-2.374.004-.028.94-.931.111-.122.928-1.023 1.382-1.797 1.694-1.427 1.632-1.099 1.812-.82 1.971-.537 2.114-.252 3.003.359 2.728.792 2.41 1.335 2.406 1.433 2.836 1.828 3.4 2.424 2.456 1.896 2.439 1.961 2.714 2.291 3.568 3.245 2.362 2.303 2.34 2.361 2.423 2.54 3.326 3.744 2.214 2.678 2.104 2.656 2.063 2.724 1.732 3.641 1.335 3.486.706 2.846.451 2.767.188 2.664-.043 2.625-.203 2.844-.625 2.421.288 2.037-.086 1.893-1.581 1.39-1.857 1.102-2.12.802-1.184.245-1.184.244-.952.06-1.648.102-2.391-.096-1.746.039M304.115 935.128l-1.654-4.363M305.676 948.762l.072-3.281M304.598 955.34l.802-3.025M251.458 881.97l-3.413-.972-3.756-.429M279.281 902.427l-4.465-4.056M288.194 911.439l-3.03-3.18M339.383 934.373l.625 1.247.796 1.586.842 1.68.28.344.797.414 1.192 1.594 1.062 1.684.449.51.272.474.596 1.72.44 1.756-.067.606-.246.544-.065 1.649-.114 1.603.17.667.018.121.18 1.22.168 1.133M311.028 940.242l-.391 2.287M319.573 954.462l-.449-1.48-1.002-1.402-.789-1.58-.542-1.543-.307-1.668-.273-1.706-.527-1.4.309-1.795.827-1.207.783-1.638.987-1.513 1.181-1.375.479-.559 1.236-.442 1.663-.826 1.761-.695 1.878-.494 1.546-.432.989-.41 1.901.054 1.999.367 2.01.565 1.999.757 1.731.48.419-.147 1.451-3.711M314.33 934.684l-1.256 1.931-.996 2.089M350.226 956.84l-.211-1.44-.227-1.551-.022-.154-.215-.848.147-2.04.086-2.099M330.432 928.079l-2.424-.07-1.261.524-1.971.55-2.395.63-2.244.887-2.12 1.054-1.576.563"/><path d="m345.085 937.385-1.016-.528-.355-.438-1.073-2.143-1.013-2.023-.796-1.592-.535.188-2.205-.612-2.549-.967M311.309 944.314l.351 2.174.396 2.124.693 1.966 1.007 2.011 1.28 1.784.574 1.883M1383.84 284.029l-7.18-6.965-7.18-6.966-7.17-6.965-5.59-5.428-6.97 7.176-6.96 7.175-6.97 7.176-5.43 5.591 7.18 6.965 7.18 6.966 7.17 6.965 5.59 5.427 6.97-7.175 6.96-7.175 6.97-7.176 5.43-5.591ZM1350.74 252.147l-7.17-6.965-7.18-6.965-1.86-1.805-6.96 7.176-6.97 7.175-1.8 1.859 7.17 6.965 7.18 6.966 1.86 1.804 6.96-7.175 6.97-7.176 1.8-1.859ZM1369.39 237.412l-7.18-6.965-3.91-3.798-6.97 7.175-3.79 3.913 7.17 6.965 3.91 3.799 6.97-7.176 3.8-3.913ZM-19.703 26.61l6.982 7.16 6.982 7.158 6.982 7.16 6.982 7.158 6.982 7.16 6.982 7.158 6.983 7.16 6.982 7.158 6.982 7.158 6.982 7.16 6.982 7.158 6.982 7.159 6.982 7.159 6.982 7.159 6.982 7.159 6.983 7.159 6.982 7.159 6.982 7.159 6.982 7.159 6.982 7.159 6.982 7.158 6.982 7.159 6.982 7.159 6.982 7.159 6.983 7.159 6.982 7.159 6.982 7.159 6.982 7.159 6.982 7.159 6.982 7.159 6.982 7.159 6.982 7.159 6.983 7.158 6.982 7.159 6.982 7.159 6.982 7.159 6.982 7.159 6.982 7.159 6.982 7.159 6.982 7.159 6.982 7.159 6.983 7.159 6.982 7.159 6.982 7.159 6.982 7.159 6.982 7.158 6.982 7.159 6.982 7.159 6.982 7.159 6.982 7.159 6.983 7.159 6.982 7.159 6.982 7.159 6.982 7.159 6.982 7.159 6.982 7.159 6.982 7.158 6.982 7.159 8.716 8.936 7.071-7.071 3.404-3.404-7.159-6.982-7.159-6.982-7.159-6.982-7.159-6.982-7.159-6.983-7.159-6.982-7.159-6.982-7.159-6.982-7.158-6.982-7.159-6.982-7.159-6.982-7.159-6.982-7.159-6.982-7.159-6.983-7.159-6.982-7.159-6.982-7.159-6.982-7.159-6.982-7.159-6.982-7.159-6.982-7.158-6.982-7.159-6.983-7.159-6.982-7.159-6.982-7.159-6.982-7.159-6.982-7.159-6.982-7.159-6.982-7.159-6.982-7.159-6.982-7.159-6.983-7.159-6.982-7.158-6.982-7.159-6.982-7.159-6.982-7.159-6.982-7.159-6.982-7.159-6.982-7.159-6.982-7.159-6.983-7.159-6.982-7.159-6.982-7.16-6.982-7.158-6.982-7.158-6.982-7.16-6.982-7.158-6.982-7.16-6.982-7.158-6.983-7.16-6.982-7.158-6.982-7.16-6.982-7.158-6.982-7.16-6.982-7.158-6.982-7.16-6.982-7.157-6.983-7.16-6.982-8.935-8.715ZM8.605 225.636l6.982 7.159 6.983 7.159 6.982 7.158 6.981 7.159 6.983 7.159 6.983 7.159 6.981 7.159 6.983 7.159 6.982 7.159 6.982 7.159 6.981 7.159 6.983 7.159 6.981 7.159 6.983 7.159 6.982 7.158 6.982 7.159 6.982 7.159 6.982 7.159 6.982 7.159 6.982 7.159 6.982 7.159 6.982 7.159 6.983 7.159 6.982 7.159 6.982 7.159 6.982 7.159 6.982 7.159 6.982 7.158 6.982 7.159 6.982 7.159 6.982 7.159 6.983 7.159 6.982 7.159 6.982 7.159 6.982 7.159 6.982 7.159 6.982 7.159 6.982 7.159 6.982 7.158 6.982 7.159 6.983 7.159 6.982 7.159 6.982 7.159 6.982 7.159 6.982 7.159 6.982 7.159 6.982 7.159 6.982 7.159 6.983 7.159 6.982 7.159 6.982 7.158 6.982 7.159 6.982 7.159 6.982 7.159 6.982 7.159 6.982 7.159 6.982 7.159 6.983 7.159 8.715 8.936 7.071-7.071 3.404-3.404-7.159-6.983-7.159-6.982-7.159-6.982-7.159-6.982-7.159-6.982-7.159-6.982-7.158-6.982-7.159-6.982-7.159-6.983-7.159-6.982-7.159-6.982-7.159-6.982-7.159-6.982-7.159-6.982-7.159-6.982-7.159-6.982-7.159-6.982-7.159-6.983-7.158-6.982-7.159-6.982-7.159-6.982-7.159-6.982-7.159-6.982-7.159-6.982-7.159-6.982-7.159-6.982-7.159-6.983-7.159-6.982-7.159-6.982-7.159-6.982-7.158-6.982-7.159-6.982-7.159-6.982-7.159-6.982-7.159-6.982-7.159-6.983-7.159-6.982-7.159-6.982-7.159-6.982-7.159-6.982-7.159-6.982-7.159-6.982-7.158-6.982-7.159-6.983-7.159-6.982-7.159-6.982-7.158-6.982-7.16-6.982-7.158-6.982-7.16-6.982-7.159-6.982-7.159-6.982-7.158-6.983-7.16-6.982-7.157-6.982-7.16-6.982-7.159-6.982-7.159-6.982-8.936-8.715ZM1407.45 222.586l-7.16-6.982-7.16-6.983-7.15-6.982-7.16-6.982-7.16-6.982-7.16-6.982-7.16-6.982-7.16-6.982-7.16-6.982-7.16-6.983-7.16-6.982-7.15-6.982-5.79-5.64 6.98 7.158 6.99 7.159 6.98 7.159 6.98 7.159 6.98 7.159 6.98 7.159 6.99 7.159 6.98 7.159 6.98 7.159 6.98 7.159 6.99 7.159 6.98 7.159 7.55 7.747M1635.87 461.373l6.98 7.158 6.99 7.159 6.98 7.159 6.98 7.159 6.98 7.159 6.98 7.159 1.97 2.014 7.07-7.071 2.14-2.145-7.15-6.982-7.16-6.983-7.16-6.982-7.16-6.982-7.16-6.982-2.3-2.24M933.625-107.445l6.983 7.159 6.982 7.159 6.982 7.159 6.982 7.159 6.982 7.159 6.982 7.159 6.982 7.159 6.982 7.159 6.983 7.159 6.985 7.159 6.98 7.159 6.98 7.158 6.98 7.159 6.99 7.159 6.98 7.159 6.98 7.159 6.98 7.159 6.98 7.159 6.99 7.159 6.98 7.159 6.98 7.159 6.98 7.159 6.98 7.159 6.99 7.158 6.98 7.159 6.98 7.159 6.98 7.159 6.99 7.159 6.98 7.159 6.98 7.159 6.98 7.159 6.98 7.159 6.98 7.159 6.99 7.159 6.98 7.159 6.98 7.158 6.98 7.159 6.99 7.159 6.98 7.159 6.98 7.159 6.98 7.159 6.98 7.159 6.99 7.159 6.98 7.159 6.98 7.159 6.98 7.159 6.98 7.159 6.99 7.158 6.98 7.159 6.98 7.159 6.98 7.159 7.88 8.076 7.07-7.071 2.15-2.145-7.16-6.983-7.16-6.982-7.16-6.982-7.16-6.982-7.16-6.982-7.16-6.982-7.16-6.982-7.16-6.982-7.15-6.982-7.16-6.983-7.16-6.982-7.16-6.982-7.16-6.982-7.16-6.982-7.16-6.982-7.16-6.982-7.16-6.982-7.15-6.982-7.16-6.983-7.16-6.982-7.16-6.982-7.16-6.982-7.16-6.982-7.16-6.982-7.16-6.982-7.16-6.982-7.16-6.982-7.15-6.983-7.16-6.982-7.16-6.982-7.16-6.982-7.16-6.982-7.16-6.982-7.16-6.982-7.16-6.982-7.15-6.983-7.16-6.982-7.16-6.982-7.16-6.982-7.16-6.982-7.16-6.982-7.16-6.982-7.157-6.982-7.159-6.982-7.159-6.983-7.159-6.982-7.159-6.982-7.159-6.982-7.159-6.982-7.159-6.982-7.159-6.982-8.076-7.877ZM621.867 444.701l.675 1.21.245.438 2.843 5.095M735.921 342.055l-4.641-2.596-1.327-.743M742.739 346.633l-.276-.186-2.294-1.547-.083-.055M945.801 792.911l2.01 1.644 1.118.915M954.301 800.613l.04.058M962.125 805.323l7.427 4.471 2.895 1.742 8.568 5.157 8.567 5.157 8.568 5.157 8.57 5.157 8.56 5.157.48.288M1112.89 898.09l1.04-.629M1135.23 877.305l-.1-.316M1084.71 670.721l-.58-.963-3.81-6.317M1095.02 687.813l-5.17-8.563-.97-1.621M1174.21 839.494v.001l-.21.051M1177.5 835.662v-.001M1179.56 822.051l-.6-1.069-.23-.417-.59-1.054-4.89-8.727-.95-1.713M1178.14 819.512l1.6 1.024"/></g><defs><clipPath id="a"><path fill="#fff" d="M0 0h1920v1080H0z"/></clipPath></defs></svg>