<svg width="1920" height="1080" fill="none" xmlns="http://www.w3.org/2000/svg"><g clip-path="url(#a)" stroke="#EFC018" stroke-width="5" stroke-linejoin="round"><path d="M1089.7 676.61v-.002l.01-.169-.08-.256-.17-.329v-.003l-.25-.396-.33-.444-.29-.355-.1-.121-.44-.489v-.002l-.46-.482-.48-.46-.47-.417-.45-.361-.4-.288-.09-.05-.2-.122-.06-.035-.28-.115-.2-.021-1.82.948"/><path d="M1089.7 676.608v.001l-.11.076-.19-.02-.28-.115-.03-.016-.32-.19-.4-.288-.37-.292-.08-.069-.24-.21-.23-.209-.48-.46-.47-.485-.44-.49-.39-.477-.32-.445-.26-.396-.17-.332-.08-.255.02-.166v-.002l.09-.067.02-.008M1082.29 675.855v-.003l.18-.144.01-.007.27-.052.35.05.41.149.39.205.07.037.48.327.5.398.1.089.39.366.25.268.21.226.41.514.36.514.28.495.19.457.11.401V680.475l-.09.246v.002l-.19.15-.27.053-.35-.048-.41-.148-.46-.242-.48-.327-.5-.399-.49-.456M1083.91 679.196l-.26-.274-.1-.111-.42-.515-.35-.516-.28-.496-.2-.457-.02-.115-.08-.286v-.329M1085.22 684.221l1.94-3.5M1082.48 675.701l-.3.143v.001l-.48.232M1080.9 689.971l1.74-3.25.17-.318.07-.399-.04-.465-.14-.514-.23-.543-.32-.55-.4-.538-.45-.503-.5-.451-.52-.38-.53-.295-.27-.107-.23-.092-.48-.095h-.01l-.4.012-.35.12"/><path d="M1082.64 686.721v.003l-.26.22-.34.121-.42.013-.47-.094-.51-.199-.1-.053-.01-.007-.42-.235-.52-.381-.5-.45-.45-.505-.4-.539-.32-.552-.15-.334v-.013l-.04-.083-.05-.112-.13-.516-.04-.465.07-.397.17-.314v-.003l.25-.214.01-.008M1075.12 696.849l1.38-2.784.14-.461.02-.523-.08-.565-.19-.585-.29-.583-.38-.558-.45-.513-.51-.446-.55-.364-.56-.268-.55-.16-.53-.047-.48.068"/><path d="m1076.5 694.066-.01.02-.22.361-.01.003-.32.284-.42.181-.27.039-.01.001-.2.029-.53-.046-.55-.16-.56-.268-.55-.364-.5-.447-.46-.514-.38-.559-.29-.584-.19-.586-.08-.565.02-.523.05-.157v-.009l.09-.295.23-.376.01-.004.33-.286.35-.154.06-.026M1067.5 705.598l1.01-2.362.19-.513.08-.571-.04-.608-.15-.621-.27-.61-.36-.576-.45-.52-.51-.443-.57-.351-.59-.244-.59-.127-.58-.007-.53.114"/><path d="m1068.51 703.236-.01.016-.29.419-.01.004-.34.298-.01.007-.04.032-.47.232-.53.115-.58-.006-.6-.127-.59-.244-.56-.35-.52-.444-.45-.521-.36-.577-.26-.611-.16-.622-.03-.608.07-.572.2-.512.29-.43.01-.005.08-.073.01-.008.3-.258.45-.219.03-.013M1058.82 714.772l.48-1.69.12-.609v-.641l-.12-.649-.24-.631-.35-.59-.44-.525-.53-.441-.58-.34-.61-.226-.63-.103"/><path d="m1059.3 713.082-.02.04-.22.514-.07.094-.01.012-.27.37-.01.005-.44.377-.52.272-.58.151-.62.025-.63-.102-.61-.226-.58-.34-.53-.442-.44-.526-.35-.59-.24-.632-.12-.65v-.641l.12-.609.24-.554.35-.471v-.005l.45-.381.52-.271.16-.041.03-.007.39-.102.27-.011.35-.014M1042.44 721.548l.27-.58.39-.499v-.005l.49-.409.56-.297.61-.174.65-.045.65.086.64.213.18.102.07.038.12.072.22.121.53.44.44.53.34.599.22.645.1.667v.108l-.03.556-.15.634-.28.58-.39.504v.005l-.48.404-.56.298M1045.77 726.361l-.66-.085-.63-.214-.6-.333-.53-.44-.44-.53-.34-.6-.22-.646-.1-.668M1049.02 723.76l-.1-.708M1036.95 732.905l.33.604.21.652.09.676-.05.674-.18.645-.3.592-.26.334-.15.183v.005l-.5.416-.59.309-.63.186-.67.054-.67-.078-.65-.208-.6-.331-.53-.439-.44-.532-.33-.604-.21-.652-.09-.676.03-.44.02-.234.17-.645.3-.593.41-.511.01-.005.5-.421.59-.309.63-.185.67-.054.67.078.64.208.61.33.53.44.44.531ZM1025.15 744.865l.33.604.21.651.08.674-.06.67-.18.643-.31.588-.42.513v.006l-.51.412-.59.306-.65.183-.67.052-.67-.081-.66-.211-.6-.331-.53-.44-.44-.531-.33-.604-.21-.651-.08-.674.05-.67.19-.643.3-.589.42-.508v-.005l.52-.418.59-.306.64-.182.68-.052.67.081.65.21.61.331.53.44.44.532Z"/><path d="m1021.05 749.885-.61-.331-.53-.44-.44-.532-.33-.602-.21-.651-.08-.674.05-.671.19-.643.31-.589.42-.513v-.005l.51-.413.59-.305.65-.183.67-.052.67.081.65.21.61.332.53.44.44.531.33.603.21.651.08.674-.05.671-.19.642-.31.59-.41.507v.006l-.52.417-.59.306-.64.182-.68.052-.67-.081-.65-.21ZM1036.64 737.27l-.01.005-.24.2-.27.221-.58.31-.63.185-.67.055-.67-.079-.65-.208-.6-.33-.53-.44-.44-.532-.33-.603-.22-.653-.08-.676.03-.439.02-.235.17-.645.3-.592.41-.517.01-.005.5-.416.58-.308.64-.186.67-.054M1037.48 734.172l.09.676M1037.52 735.521l-.18.646-.3.592-.25.322M1048.91 723.063v.049l-.03.614-.15.634-.28.58-.38.499-.01.006-.48.408-.56.298-.61.175-.65.046-.66-.086-.63-.214-.6-.333-.52-.44-.45-.53-.34-.6-.22-.646-.1-.667.03-.664.16-.634.28-.58.38-.504.01-.005.48-.404.56-.297.61-.174.65-.045.65.086.64.213.25.14.06.038.28.155.53.44.44.53.34.599.22.645.07.454.03.214Zm0 0 .01.051M1047.28 720.181l-.21-.131M1058.71 714.117l-.01.005-.44.381-.53.272-.58.151-.61.025-.63-.102-.62-.225-.58-.34-.53-.442-.44-.526-.35-.591-.24-.632-.12-.649v-.642l.12-.609.24-.553.35-.476.01-.005.44-.376.52-.271M1055.29 708.361l.62-.024M1057.73 709.005l.53.441.44.526M1067.95 699.745l.36.576.27.611.15.62.04.608-.08.572-.19.513-.3.43v.005l-.34.295-.01.007-.04.038-.48.233-.53.115-.58-.006-.59-.127-.6-.244-.56-.351-.52-.444-.45-.52-.36-.577-.26-.611-.15-.622-.04-.608.08-.572.19-.513.3-.434v-.004M1063.36 698.649l.29-.25.48-.231M1064.66 698.054l.58.006.6.128.59.244.56.35M1076.63 693.611l-.13.461-.23.377-.01.004-.33.287-.41.182-.26.037-.01.001-.21.03-.53-.046-.55-.16-.56-.267-.55-.365-.51-.447-.45-.513-.38-.56-.29-.583-.19-.586-.08-.566.02-.523.05-.166v-.008l.09-.286.23-.381.01-.003.33-.283.41-.18M1082.81 686.409l-.17.314v.004l-.26.223-.35.121-.41.013-.48-.094-.5-.199-.09-.046-.01-.007-.43-.242-.52-.381-.5-.451-.46-.505-.4-.538-.32-.552-.15-.348v-.014l-.03-.073-.05-.108-.14-.515-.03-.465.07-.398.16-.317.01-.002M1082.84 685.545l.04.465M1087.16 680.725l-.19.153-.27.053-.35-.049-.41-.148-.46-.242-.49-.327-.49-.399-.49-.456-.1-.109-.25-.269-.11-.117-.42-.515-.36-.515-.28-.496-.19-.457-.03-.127-.07-.274v-.329l.06-.16v-.003l.03-.082v-.002l.19-.149.27-.052.35.049.41.149.4.215.06.027.48.327.5.398.09.09.4.365.23.248.23.246.41.514.36.515.28.495.19.457.1.401.01.197v.132l-.09.244v.002Zm0 0-1.93 3.492M1082.47 675.706v.002M1089.21 675.458l.25.396v.003l.17.329.08.256-.01.167v.002l-.11.076-.19-.019-.28-.115-.03-.017-.32-.189-.41-.289-.36-.292-.08-.068-.23-.205-.24-.214-.48-.46-.47-.485-.44-.49-.39-.477-.32-.445-.26-.396-.17-.332-.08-.255.02-.168v-.001l.11-.074.19.02.28.116M1088.49 674.537l.1.122M1087.66 680.273l1.39-2.508.65-1.154M1087.11 673.105l.48.46.45.47.01.013M1090.22 674.478l-.03-.002-.12-.095-.2-.183-.29-.265-.35-.337-.41-.395-.45-.439-.46-.466-.47-.474-.46-.464-.43-.437-.37-.393-.32-.333-.24-.26-.15-.178-.06-.09.02.004.12.095.21.184.29.265.35.337.4.395.45.438.47.465.47.472.45.464.43.436.37.392.32.333.24.261.15.18.07.09Zm0 0-.76 1.376M1085.41 669.667l-.61.331-.32.174M1084.8 669.998l-.17-.122-.3-.189-.2-.087M968.267 791.702l-.002.005-.388.954-.138.369-.028.438.082.49.188.523.288.537.377.53.45.502.507.455.545.392.561.312.555.22.53.121.483.017.417-.088 3.045-1.628"/><path d="m967.879 792.661.24-.285.336-.191.417-.09.483.016.206.047.323.073.557.221.562.312.545.392.509.456.451.503.377.531.288.538.146.408.042.116.081.49-.03.438-.138.368-.242.285-.336.19M954.058 800.235l-.374.683.032.12.124.208.21.288.289.357"/><path d="m954.911 800.749-.37.693-.198.37-.019.051.015.028.06.114.165.227.249.304.324.368.386.419.434.454.464.471.477.471.472.451.449.416.407.363.352.297.282.22.201.134.113.043 2.111-1.178"/><path d="m954.34 801.812.112.042.201.133.281.22.352.298.408.363.449.416.473.453.478.471.466.472.434.455.387.42.131.148.193.22.249.304.164.226.073.141-.02.049M957.545 799.563l-.022.044-.609 1.201v.219l.075.231.002.006.021.062.19.368.276.423.257.334.095.125.413.479.46.482.487.466.498.43.478.374.01.006.46.315.414.237.234.101.118.05.278.057.191-.037.508-.286 3.119-1.757"/><path d="m956.914 800.808.097-.132.191-.038.276.057.353.15.414.237.46.314.489.381.499.431.054.052.426.406.001.002.008.007.46.483.414.481.352.46.016.024.26.398.19.367.023.071.044.138.029.09-.001.219-.098.13M962.399 795.721l-.817 1.755-.002.004-.111.239-.071.296.001.015.001.007v.007l.03.341.134.431.23.474.319.499.394.505.455.493.308.285.001.001.188.174.522.41.526.346.51.266.383.143.091.035.42.082.351-.018.266-.115 3.439-1.914"/><path d="m961.469 797.719.154-.189.003-.003.015-.018.266-.117.349-.018.42.081.463.172.012.005.473.247.003.001.034.018.527.346.523.411.499.461.456.494.394.506.319.5.231.475.133.43.031.37-.073.296-.173.209M975.765 786.203l-.081.499.036.544.151.569.261.571.361.552.447.511.515.451.564.373.592.282.596.179.578.069.538-.042.477-.154 2.669-1.298"/><path d="m975.766 786.203.195-.435.302-.354.396-.259.045-.015.431-.14.538-.043.579.069.597.178.592.282.566.374.516.451.447.512.361.553.261.572.151.569.035.545-.076.465-.006.034-.196.435-.302.353-.397.258M985.107 778.284l-.002.591.122.608.239.601.347.57.443.519.523.447.58.358.618.256.63.142.617.025.583-.094.525-.21 2.229-.896"/><path d="m985.109 778.284.125-.552.242-.493.083-.097.269-.315.447-.318.525-.211.583-.095.618.024.631.143.617.255.582.358.523.448.444.52.348.571.239.601.121.609-.003.592-.126.552-.243.492-.204.239-.149.173-.447.317M995.656 769.104l.098.638.223.625.339.586.441.524.527.445.593.346.636.233.655.114.648-.011.614-.137 1.54-.342"/><path d="m995.656 769.103.028-.577.002-.052.158-.595.278-.538.389-.46.484-.365.561-.256.617-.136.648-.012.655.113.634.234.6.346.52.444.45.526.34.586.22.625.1.64-.04.629-.15.595-.28.538-.39.46-.49.365-.22.102-.34.152M1009.23 761.45l-.6-.336-.53-.442-.44-.529-.33-.597-.21-.641-.09-.662.05-.656.18-.625.3-.571.41-.494.51-.399.58-.288.64-.165.66-.038.67.093.65.218.6.337.53.442.44.529.34.597.21.642.08.662-.05.656-.17.626-.3.57-.42.494-.5.399-.59.287-.63.166-.67.037-.67-.093-.65-.219ZM723.98 335.324l-8.728-4.881-6.245-3.493-8.884-4.591-8.884-4.59-8.884-4.591-4.364-2.255-8.916-4.528-8.917-4.528-8.916-4.527-4.443-2.257-9.164-4.002-9.164-4.003-9.164-4.003-5.225-2.283-9.577-2.88-9.576-2.88-9.576-2.88-9.577-2.88-9.576-2.88-9.576-2.88-9.577-2.88-3.27-.983 2.851 9.585 2.851 9.585 2.851 9.585 2.851 9.585 2.851 9.585 2.851 9.585 2.851 9.585.75 2.52 3.991 9.169 3.99 9.17 3.991 9.169 2.191 5.034 4.521 8.92 4.522 8.919 4.521 8.92 2.197 4.334 4.585 8.887 4.584 8.888 4.585 8.887 2.216 4.295 4.877 8.73 3.657 6.545M1079.09 664.385l-.8 2.45-3.32 4.928-5.77 7.257-2.21 2.56-.23.275-1.63 1.899-3.12 3.625-.84.972-.22.243-3.5 3.874-3.16 3.505-.79.87-2.31 2.56-2.34 2.502-3.71 3.959-.36.383-5.13 5.488-.22.225-4.31 4.469-5.77 5.98-2.34 2.429-2.2 2.22-.01.01-.63.64-4.32 4.363-.99.995-.01.01-4.63 4.671v.01l-.4.403-.72.702-4.38 4.304-.5.501-.01.009-4.58 4.502-.01.009-1.55 1.521-1.45 1.427-2.893 2.766-.001.001-.008.008-.001.001-.009.008-4.425 4.231-.009.008-1.964 1.877-3.325 3.179-.229.211-.009.009-.521.482-.009.008-3.797 3.511-.008.008-2.389 2.209-2.368 2.19-.008.008-.983.909-.008.007-1.219 1.127-2.208 1.956-.008.007-3.039 2.692-.411.364-.006.006-1.186 1.05-.006.006-3.124 2.768-.87.722-.009.008-.806.669-.003.003-6.352 5.276-5.795 4.271-3.36 1.738"/><path d="m947.951 794.365-.724 1.429.849.837 3.414-1.762 5.895-4.343 7.121-5.913.003-.003.095-.079.005-.004.959-.797.387-.342.007-.007 3.591-3.18.007-.006 1.246-1.104.006-.006.594-.525 2.989-2.648.007-.006 1.338-1.185 1.969-1.821.008-.008.983-.909.008-.008 2.443-2.258 2.379-2.2.009-.008 3.763-3.481.009-.008.19-.176.325-.31.009-.009 3.568-3.41 1.964-1.877.008-.009 4.419-4.223.01-.01.015-.014 2.551-2.442 1.78-1.742 1.54-1.521.01-.009 4.59-4.517.01-.009.53-.514 4.33-4.26.66-.646.47-.476.01-.009 4.64-4.687.01-.01 1-1.011 4.27-4.315.65-.657.01-.01 2.38-2.397 2.18-2.265 5.75-5.964 4.31-4.47.63-.65 4.75-5.072.36-.383 3.67-3.928 2.98-3.178 1.73-1.922.81-.888 3.08-3.419 3.59-3.975.95-1.052.16-.185 2.94-3.417 1.83-2.128.41-.478 2.83-3.291 5.87-7.385 3.38-5.011.81-2.488-1.75.082-.23.139M740.385 344.956l-2.638.24-4.722 2.404-6.655 4.509-3.362 2.602-.504.391-1.98 1.533-2.395 1.854-.107.083-1.074.903-3.822 3.216-2.582 2.173-.744.626-1.499 1.26-2.883 2.579-3.901 3.488-.037.033-3.886 3.475-.189.177-5.039 4.739-3.192 3.001-2.835 2.665-3.331 3.278-.008.008-2.338 2.301-.008.007-5.649 5.559-.862.887-.008.007-2.412 2.483-.009.008-5.678 5.844-.008.007-1.963 2.02-1.278 1.379-.008.009-4.358 4.704-.006.007-1.782 1.924-2.086 2.251-.007.008-.165.178-.008.008-.39.422-2.697 3.078-.006.007-1.775 2.027-2.001 2.285-.006.006-.766.874-.006.008-1.565 1.786-.449.551-.005.007-1.951 2.396-.897 1.1-.004.006-1.012 1.242-.004.006-2.223 2.73-.006.007-.652.801-.018.023-.001.002-.019.027-.001.001-5.27 7.219-3.227 5.429-1.049 3.399M628.367 455.223l.342.508 1.538 2.282.113.168M1070.71 654.144l-.43-.529-6.34-7.739-6.33-7.739-6.33-7.739-6.34-7.739-3.25-3.972-6.5-7.6-6.5-7.601-6.49-7.6-6.5-7.601-6.5-7.6-5.43-6.35-6.678-7.444-6.678-7.444-6.677-7.444-6.677-7.444-6.678-7.444-5.521-6.155-6.852-7.283-6.852-7.284-6.852-7.283-6.852-7.284-6.852-7.283-5.627-5.982-7.471-6.647-7.471-6.648-7.471-6.647-7.47-6.648-7.471-6.647-6.186-5.504-7.696-6.385-7.697-6.385-4.604-3.82-7.697-6.385-7.696-6.385-7.696-6.384-1.88-1.56-8.066-5.912-8.065-5.912-8.065-5.913-8.065-5.912-8.065-5.912-7.134-5.229-8.292-5.589-5.755-3.878-8.292-5.588-8.293-5.589-7.26-4.892-1.014-.684"/><path d="m742.49 346.376.716-1.699-.491-1.988-2.247-1.734-2.734.225-1.726.87-3.172 1.6-5.056 3.409-1.368.923-.481.324-.041.032-2.318 1.79-.8.617-1.633 1.261-.884.682-2.519 1.945-.467.361-1.859 1.561-.864.725-.542.456-2.567 2.155-4.258 3.576-7.458 6.661-3.657 3.266-7.287 6.848-4.396 4.13-7.129 7.013-4.636 4.561-6.968 7.172-4.383 4.512-6.793 7.338-3.671 3.965-3.377 3.861-.002.003-1.076 1.23-.008.009-4.217 4.821-.005.006-.459.524-1.553 1.911-.004.006-.735.904-.006.007-.981 1.208-.005.007-1.333 1.64-.004.005-2.049 2.522-.005.005-.499.616-.004.005-.281.345-1.018 1.4-.004.005-.491.675-.003.004-1.356 1.865-.002.003-1.059 1.455-.007.01-.056.078-.004.005-.052.071v.001l-1.437 1.975-3.028 5.129-.297.503-1.064 3.524 1.738 2.252 1.194 1.307 2.993-.817"/><path d="m742.716 342.689-2.733.236-4.907 2.492-6.924 4.687-4.507 3.488-1.186.918-2.516 1.947-.483.373-1.527 1.285-1.196 1.006-3.924 3.3-2.643 2.224-.687.577-.15.127-4.103 3.668-4.145 3.706-2.911 2.603-.831.781-5.518 5.189-2.534 2.382-2.851 2.68-4.254 4.185-.008.009-1.155 1.136-.008.008-6.392 6.289-1.246 1.282-.007.008-1.34 1.379-.009.009-6.482 6.67-.007.007-2.314 2.381-.406.438-.008.009-4.769 5.148-.007.007-1.918 2.071-1.7 1.835-.007.008-.034.036-.046.05-.008.008-1.612 1.741-1.752 2.001-.006.006-1.787 2.04-1.94 2.216-.006.007-.74.844-.006.007-2.006 2.29-.005.007-.944 1.077-1.009 1.239-1.077 1.324-.005.006-1.052 1.292-.005.006-1.748 2.148-.005.006-1.4 1.72-.003.004-.408.5-.001.002-.787.967-5.523 7.57-3.35 5.645-1.079 3.527M1079.09 664.385l-.79-.963-1.63-1.992M728.781 590.944l4.798 5.784 6.648 7.47 6.648 7.47 6.648 7.471 6.648 7.47 6.648 7.47 5.714 6.421 7.283 6.853 7.284 6.852 7.283 6.852 7.283 6.853 7.283 6.852 6.227 5.859 7.443 6.678 7.444 6.677 7.443 6.678 7.444 6.678 7.443 6.678 6.395 5.737 7.599 6.499 7.6 6.499 7.6 6.5 7.6 6.499 7.6 6.5 6.572 5.621 7.738 6.334 7.739 6.334 7.738 6.334 7.738 6.334 3.741 3.062.001.001.083.068.7.573M1096.37 885.996l2.45-.643 3.77-2.085 4.96-3.46 5.96-4.71 6.73-5.779 4.17-3.82M1137.06 853.301l2.02-2.062 3.16-3.215 5.74-6.16 1.21-1.297 6.27-7.133 5.35-6.524 4.22-5.657 2.93-4.573 1.54-3.319.11-1.95M1169.61 811.411l-1.37-2.262-5.16-8.565-5.16-8.564-5.16-8.565-5.17-8.565-5.16-8.564-5.16-8.565-5.16-8.564-5.16-8.565-5.17-8.565-5.16-8.564-5.16-8.565-5.16-8.565-5.16-8.564-5.17-8.565-5.16-8.565-1.76-2.914M948.078 796.631l5.98 3.604.853.514M1169.79 890.048l.44-.423 4.7-4.799.75-.76.01-.01.19-.21 4.95-5.366.66-.766.85-.985 3.12-3.608 3.75-4.709.18-.22 3.08-4.307 2.12-3.518 1.08-2.598v-1.585l-5.03-8.643-2.56-4.385M1127.68 904.215l8.65 5.03 4.7 2.735 1.95-.406 2.92-1.487 3.8-2.515 3.1-2.369 1.41-1.085 5.01-4.205"/><path d="m1158.87 878.404 4.41-4.503 1.4-1.429.44-.445 4.8-5.197 1.29-1.392.06-.059 5.54-6.378 4.71-5.854 3.7-5.099 2.55-4.148.31-.744.99-2.299.03-1.83-4.88-8.728-1.92-3.426M1111.62 898.576l8.73 4.879 3.62 2.023 2.27-.507 1.44-.756 1.99-1.037 4.49-3.022 5.35-4.139 6.03-5.099 2.37-2.16M1137.35 853.694l1.84-1.87v-.006l.26-.257.89-.906v-.006l2.6-2.646 5.39-5.785 2.05-2.204 6.6-7.509.12-.132 5.73-6.984 4.51-6.053 3.13-4.888 1.64-3.544.1-2.077-1.43-.548-2.54.87M1124.77 865.862l-5.41 4.955-7.2 6.187-6.38 5.039-5.31 3.698-4.02 2.223-2.61.677-1.11-.877.42-2.379.52-1.016M1093.84 888.641l8.72 4.878 2.77 1.546.03.018.01.002.97.541M1152.8 905.203l8.21 5.701 4.57 3.169 1.19-.237 1.77-.875 2.27-1.481.11-.08M1181.45 902.374l1.52-1.46 3.21-3.284 1.07-1.169.51-.549 1.45-1.575 2.72-3.174 1.61-2.035.45-.575.25-.319 1.82-2.57 1.25-2.113.63-1.576v-.981l-5.7-8.217-3.03-4.365"/><path d="m1187.25 896.461 1.41 1.33 6.85-6.793-.78-1.7-.74-.745M1141.38 859.105l-4.03-5.41-.29-.393-5.97-8.022-1.7-2.282-.44-.425-.32-.312-3.36-3.262-6.22-6.028-7.18-6.962-7.17-6.962-7.18-6.963-7.18-6.962-7.18-6.962-7.18-6.963-7.17-6.962-7.18-6.962-6.52-6.324-7.18-6.962-7.18-6.962-7.18-6.964-7.08 7.057-.42.412 6.55 7.562 6.54 7.563 6.54 7.562 3.21 3.71 6.55 7.562 6.54 7.562 6.54 7.563 6.54 7.562 6.55 7.563 6.54 7.562 2.07 2.387 7.1 7.034 7.11 7.033 7.11 7.034 3.6 3.563.35.345 7.11 7.034 1.79 1.769.36.363 7.11 7.034 7.11 7.033.37.37.33.317 7.1 7.034.79.778.33.33 4.03 3.984 1.5 1.488 2.06 2.029 2.11 2.08 1.61 1.574 7.13 7.006 1.22 1.193 2.21 2.17 1.14 1.118 7.13 7.006 5.98 5.872 7.14 7.006 7.09 6.962 7.13 7.006 7.07 6.934 7.1-7.038.66-.655-1.01-2.183-6.88-7.255-6.88-7.255-5.78-6.095-6.86-7.278-6.86-7.278-4.5-4.775-.93-.99-.33-.35-2.64-2.793-.93-.975-4.01-4.241-2.81-2.977-.09-.091-1.21-1.277-5.32-5.624-1.22-1.287-1-1.06-2.09-2.305-.3-.327-6.71-7.41-1.46-1.612-.28-.305-1.01-1.118v-.003l-.52-.569-.01-.008-1.32-1.458-.01-.01-.96-1.067-.01-.005-4.9-5.408Z"/><path d="m1033.57 750.061 6.58 7.535 6.57 7.534 6.58 7.534 3.22 3.691 6.57 7.535 6.58 7.534 6.57 7.535 6.58 7.534 6.57 7.534 6.58 7.535 2.07 2.37"/><path d="m1090.23 831.687 7.1-7.05.71-.706 7.1 7.035 7.11 7.036 7.11 7.036 3.31 3.285.32.315 7.11 7.036 2.83 2.801v.003l3.06 3.031.01.003 7.1 7.036 7.11 7.036 5.41 5.354.31.313 7.11 7.036.24.242 2.66 2.614 1.35 1.321.1.099 2.75 2.709 5.37 5.273 2.05 2.017 1.82 1.786 7.13 7.01 5.3 5.209 7.13 7.01 7.09 6.967 7.13 7.01 7.06 6.939M1077.8 659.451v-.002l.02-.17-.08-.257-.13-.258-.03-.075-.25-.396-.33-.445-.2-.246-.18-.231-.25-.281-.19-.208-.46-.484-.48-.459-.48-.418-.44-.36-.41-.289-.24-.135-.12-.07-.28-.115-.2-.02-1.42.762-.53.287-.22.118-.18.093-.27.149"/><path d="M1077.8 659.449v.001l-.11.076-.2-.019-.24-.095-.05-.019-.35-.205-.41-.288-.24-.193-.21-.168-.47-.418-.48-.461-.47-.485-.43-.491-.39-.477-.32-.445-.25-.397-.17-.333-.07-.255.02-.168v-.001l.1-.067.01-.009M1073.04 667.244l.07-.115.29-.524 1.68-2.98.1-.25.01-.075v-.259l-.1-.405-.19-.46-.27-.498-.35-.517-.32-.394-.09-.121-.46-.495-.19-.175-.3-.279-.5-.398-.49-.325-.34-.174-.13-.066-.41-.145-.36-.046-.28.055-.31.156v.001l-.56.277-2.31 1.159"/><path d="M1075.08 663.625v.002l-.19.154-.28.057-.36-.044-.42-.146-.46-.239-.49-.325-.5-.398-.38-.349-.11-.107-.25-.263-.21-.233-.42-.516-.35-.518-.27-.499-.19-.46v-.005l-.09-.4v-.333l.06-.146v-.003l.04-.097v-.003l.19-.148.01-.008M1068.72 672.697l1.77-3.248.07-.353.01-.054-.01-.238-.02-.234-.13-.52-.22-.548-.32-.554-.39-.54-.46-.504-.5-.451-.52-.378-.44-.243-.09-.049-.52-.195-.42-.078-.06-.011-.42.019-.36.127-2.95 1.326"/><path d="m1070.49 669.449-.18.324v.003l-.27.229-.36.128-.43.019-.05-.009-.3-.057-.13-.021-.51-.195-.1-.052-.01-.007-.42-.233-.53-.38-.5-.451-.46-.505-.39-.541-.32-.555v-.008l-.12-.302-.01-.013-.09-.226-.13-.521-.03-.472.08-.406.18-.32v-.003l.27-.221.01-.008M1068.47 673.14v-.003l.24-.44M1062.4 680.224l1.46-2.885.15-.471.03-.533-.07-.573-.18-.593-.21-.425-.07-.157-.01-.006-.37-.562-.45-.513-.51-.447-.55-.361-.57-.262-.56-.154-.54-.04-.01.003-.48.074-1.46.544-1.55.577"/><path d="m1063.86 677.339-.02.02-.23.372-.01.003-.34.294-.43.192-.26.042-.01.001-.22.035-.54-.038-.56-.154-.57-.262-.42-.276-.13-.086-.01-.012-.5-.435-.45-.515-.38-.563-.28-.589-.18-.593-.08-.574.04-.533.04-.139.01-.009.1-.323.22-.334.03-.053v-.004l.35-.296.35-.159.08-.032M1062.05 680.757l.01-.003.34-.53M1054.41 689.265l1.06-2.448.21-.526.09-.584-.03-.619-.14-.63-.26-.617-.35-.58-.45-.521-.07-.063-.11-.09-.34-.29-.57-.347-.6-.238-.6-.12-.59.004-.55.126-2.59.659"/><path d="m1055.47 686.817-.01.016-.31.433v.004l-.34.297-.01.007-.06.046-.49.245-.55.127-.59.004-.6-.119-.6-.238-.57-.347-.52-.443-.44-.513-.01-.01-.06-.106-.3-.475-.25-.618-.15-.631-.02-.619.09-.584.21-.526.31-.443.01-.005.07-.06.01-.008.33-.285.46-.23.03-.014M1053.98 689.876v-.004l.43-.607M1045.33 698.774l.5-1.751.14-.624.02-.654-.11-.659-.24-.64-.34-.595-.44-.527-.53-.441-.59-.335-.07-.025-.12-.044-.43-.15-.64-.093-1.69.073"/><path d="m1045.84 697.023-.02.039-.24.53-.06.076-.01.012-.3.404-.01.005-.45.393-.54.287-.6.165-.63.037-.64-.093-.63-.218-.59-.336-.52-.441-.45-.528-.34-.596-.18-.477-.04-.12-.01-.043-.12-.66.02-.655.14-.623.26-.569.36-.487.01-.005.46-.397.54-.286.12-.034.03-.007.45-.123.63-.037M1044.48 700.214v-.005l.5-.666.35-.769M1034.99 707.212l-.07-.5-.21-.654-.34-.605-.44-.532-.53-.439-.46-.282"/><path d="m1034.92 706.712.06.485.03.195-.01.044-.04.633-.17.65-.29.598-.41.522-.01.005-.49.422-.58.314-.63.191-.67.059-.66-.075-.65-.205-.6-.329-.53-.439-.44-.533-.34-.605-.21-.655-.09-.68.01-.113.01-.158.03-.407.17-.65.29-.598.41-.516v-.005l.5-.427.58-.314.64-.19.66-.058.02.002.14.016.51.057.64.206.16.089.07.037.09.046.28.156M1033.86 711.441l.01-.005.54-.706.4-.807M1022.56 717.684l.33.61.2.662.07.689-.06.688-.19.663-.32.611-.43.536-.01.005-.52.435-.6.327-.65.202-.69.069-.68-.067-.66-.199-.6-.326-.54-.438-.44-.535-.33-.61-.2-.662-.07-.688.06-.689.02-.067.06-.2.11-.396.32-.611.43-.53v-.006l.53-.439.6-.328.51-.157.15-.044.05-.006.63-.063.68.067.66.2.61.325.53.438.44.534ZM1010.26 730.137l.32.609.2.661.07.687-.07.687-.2.66-.32.608-.44.533-.01.005-.53.432-.61.324-.66.2-.69.066-.69-.068-.66-.202-.61-.326-.53-.439-.44-.534-.33-.609-.2-.661-.06-.687.06-.687.03-.095.07-.205.1-.36.33-.608.43-.527.01-.006.53-.437.61-.325.32-.096.2-.061.15-.042.68-.067.69.069.66.201.61.327.54.438.44.535ZM1012 732.624l.1-.928-.1-.928"/><path d="m1005.97 735.35-.61-.326-.54-.439-.44-.534-.32-.609-.2-.661-.07-.687.07-.687.03-.095.06-.205.11-.36.32-.609.44-.533.01-.004.53-.433.61-.324.32-.096.2-.061.14-.042.69-.067.68.069.67.201.61.326.53.439.44.534.33.61.2.66.06.687-.06.687-.21.661-.32.608-.44.527v.006l-.53.437-.61.324-.67.2-.68.066-.69-.069-.66-.201ZM1006.39 736.362l.93.093.93-.09M1016.51 723.797l.82.439.89.27.92.09.92-.093.88-.273.82-.442.71-.595M1022.16 722.148l-.01.005-.53.441-.6.327-.65.202-.68.069-.69-.067-.66-.2-.6-.325-.54-.438-.44-.535-.32-.61-.21-.662-.07-.689.06-.689.02-.067.06-.2.12-.395.31-.611.44-.536v-.005M1022.88 718.305l.2.662.08.688M1019.63 716.131l.68.067.66.199M1021.58 716.723l.53.438.44.534M1028.06 711.963l.81.444.88.278.9.1.89-.079.86-.258.78-.425.68-.577v-.005M1034.97 707.208l.03.194-.04.678-.18.65-.29.598-.4.516-.01.006-.5.426-.58.315-.63.19-.67.06-.66-.075-.65-.206-.6-.328-.53-.439-.44-.533-.33-.605-.22-.656-.09-.679.01-.115.01-.158.03-.405.17-.651.3-.597.4-.522.01-.005.5-.421.58-.314.63-.19.66-.059.02.002.14.016M1032.79 704.164l.23.127.07.037.3.165.53.438.44.532.34.605.21.655M1038.95 700.545l.79.454.85.295.87.124.85-.05.81-.224.73-.388.62-.537.01-.005M1045.51 697.678l-.3.411-.01.005-.46.398-.54.286-.6.166-.63.037-.64-.093-.63-.218-.59-.336-.52-.441-.44-.528-.35-.596-.17-.478-.05-.12-.01-.042-.11-.66.01-.655.14-.623.26-.569.37-.492v-.005l.46-.392.54-.286M1045.64 694.456l.23.64.11.659-.01.654-.14.624-.26.569M1041.39 692.406l.02-.007.43-.117.63-.036.64.093.43.15.12.044M1055.46 686.826l-.31.444v.005l-.34.294-.01.007-.06.053-.49.245-.55.127-.59.004-.61-.119-.6-.238-.57-.347-.52-.443-.44-.514-.01-.009-.06-.107-.29-.474-.26-.618-.14-.631-.03-.619.1-.584.2-.526.32-.448.01-.004.07-.064.01-.009.32-.276M1055.34 683.85l.25.617M1055.73 685.097l.03.619M1049.58 690.388l.81.321.82.16.8-.006.74-.172.67-.332.55-.478v-.005M1051.1 681.732l.55-.126.59-.004M1052.84 681.721l.6.238M1054.01 682.306l.34.289.1.09M1054.53 682.748l.45.522M1063.85 677.348l-.25.387v.005l-.34.297-.43.192-.26.04v.001l-.23.037-.54-.039-.57-.153-.57-.263-.42-.276-.13-.086-.01-.013-.5-.433-.45-.515-.37-.563-.29-.589-.18-.593-.07-.574.04-.533.04-.148.01-.009.09-.314.23-.342.03-.049v-.004M1059.94 672.25l.54.039.56.154.57.263.55.361.51.446.45.514.37.562.01.004.07.158.21.426.18.592.07.574M1058.85 681.272l.76.207.73.052.67-.107.57-.259.47-.403.01-.005M1070.54 668.576l.01.232.01.24-.01.052-.06.355-.18.321v.004l-.28.231-.35.127-.43.02-.05-.009-.31-.057-.12-.022-.52-.194-.08-.045-.01-.007-.44-.241-.52-.379-.51-.451-.45-.505-.4-.541-.31-.556-.01-.015-.12-.308-.01-.013-.09-.212-.13-.521-.02-.472.08-.406.18-.324v-.002M1067.99 665.081l.53.379.5.45.45.504.4.54.31.555M1065.68 664.651l.36-.127M1066.39 673.539l.65.12.57-.028.49-.174.37-.313v-.004M1067.46 664.789l.09.051M1075.09 662.641l.09.405v.333l-.1.248v.002l-.2.157-.28.057-.35-.045-.42-.145-.46-.24-.5-.325-.5-.398-.37-.348-.12-.108-.23-.253-.23-.242-.41-.517-.35-.518-.28-.498-.19-.461v-.017l-.09-.387.01-.334.06-.151v-.003l.04-.095v-.001l.19-.154.28-.056.36.046M1073.04 667.248v-.008l.06-.11.3-.524 1.68-2.977M1072.39 667.539l.25-.05.13-.028.27-.213M1073.21 659.981l.19.175.46.494M1077.8 659.45v.002l-.11.077-.2-.019-.24-.095-.05-.019-.35-.205-.41-.289-.24-.193-.21-.167-.47-.419-.48-.46-.47-.485-.43-.491-.39-.477-.32-.446-.25-.396-.17-.333-.07-.256.02-.169v-.001M1073.27 654.554l.28.115.13.076.22.13.41.289.45.36.48.417.47.46.47.484.18.2.25.289.19.231.2.245.32.445.25.397.04.075M1075.65 663.234l1.02-1.804 1.13-1.978M1078.42 657.34l-.03-.004-.12-.097-.21-.185-.29-.268-.35-.338-.41-.397-.45-.439-.47-.466-.47-.474-.45-.464-.43-.436-.37-.39-.31-.331-.24-.259-.15-.176-.06-.086.03.005.12.098.21.186.28.268.36.338.4.396.45.439.47.465.47.472.45.463.43.435.37.391.31.331.24.259.15.177.07.087Zm0 0-.8 1.424M1073.6 652.53l-.65.367-.55.306-1.69.941"/><path d="m1072.95 652.897-.1-.07-.31-.185-.23-.096-.14-.005-1.89 1.074M938.054 786.263l-.042.157.016.108M952.407 776.829l-.549 1.283-.005.011-.011.026-.003.007-.729 1.702-.002.006-.161.375-.145.381-.036.449.076.5.183.532.284.543.375.533.45.504.508.455.547.388.566.306.561.214.118.024.208.043.211.044.49.006.426-.1 3.155-1.716"/><path d="m950.945 780.239.25-.297.344-.204.425-.101.491.005.234.049.302.062.563.213.566.307.549.388.509.456.451.505.375.534.284.544.024.071.072.208.05.146.037.108.074.5-.036.449-.147.38-.25.297-.345.202M958.922 783.345l.467-.273.339-.402.199-.515.05-.607-.1-.677-.247-.72M938.139 786.332l-.108.192-.002.004-1.455 2.594.027.12.119.208.206.288.216.27"/><path d="m938.838 786.905-.365.664-.002.003-1.102 2.007-.219.399-.009.03-.008.024.076.145.166.23.251.306.325.37.387.421.434.455.465.471.477.47.471.451.448.414.407.361.35.296.281.217.2.131.111.04 2.19-1.251"/><path d="m937.152 789.979.11.039.199.129.281.218.35.294.407.362.449.414.473.453.478.47.465.473.435.455.388.422.189.215.136.155.25.306.166.229.075.145-.019.052M941.496 785.479l-.684 1.306-.152.289-.163.312-.002.003-.076.146-.031.059-.212.406-.451.859-.002.227.029.092.003.008.064.205.189.372.275.425.351.463.413.482.46.482.488.466.498.429.489.378.115.076.346.234.416.232.315.13.039.016.279.052.194-.044 1.359-.782 2.39-1.374"/><path d="m939.723 788.859.098-.137.193-.045.278.051.354.144.416.232.462.311.49.378.499.43.337.321.152.145.156.163.001.002.304.319.413.483.352.463.101.158.174.268.188.373.092.292.003.012-.002.225-.1.137M948.434 791.428l.136-.185.005-.305M945.669 782.882l-.003.006-.219.452-.003.006-.907 1.873-.002.003-.17.351-.076.305v.005l.003.03v.008l.025.336.13.438.227.48.317.504.392.508.455.494.492.453.004.004.003.002.022.017.001.002.5.389.529.341.513.261.435.155.044.016.425.073.355-.026.272-.124 1.85-1.05.573-.325 1.135-.644"/><path d="m944.363 785.573.177-.22.081-.038.004-.002.186-.086.355-.027.425.072.479.17.37.188.144.073.319.206.003.001.207.134.525.409.5.461.455.494.394.51.317.505.227.481.129.438.027.378-.078.305-.178.219M952.992 788.225l.242-.297.106-.412-.035-.512-.027-.094-.093-.315M959.892 771.066l-.002.007-.042.122-.002.006-.767 2.248-.091.513.027.556.145.579.256.579.358.556.446.513.517.45.151.099.124.08.293.191.597.275.605.17.587.058.548-.056.488-.167 2.768-1.371"/><path d="m959.078 773.449.207-.449.313-.369.408-.274.067-.023.421-.145.548-.057.588.058.605.169.599.275.569.37.518.451.158.181.097.112.192.221.358.557.256.58.144.579.026.557-.088.491-.004.022-.207.449-.315.368-.409.273M966.898 776.474l.553-.369.425-.498.281-.607.125-.693-.035-.753-.194-.783-.345-.784M969.202 762.864l-.466 2.278-.013.605.112.619.233.609.344.576.023.027.081.095.339.399.524.446.586.354.624.248.64.132.629.012.596-.109 2.122-.869M975.578 768.286l.729-.306.625-.451.495-.581.349-.687.187-.767.018-.818-.15-.838-.314-.824-.466-.78"/><path d="m968.738 765.142.137-.568.257-.509.102-.12.264-.31.461-.334.539-.227.596-.11.631.011.64.133.625.247.189.114.108.065.289.175.525.447.444.521.344.577.233.611.111.619-.013.606-.138.567-.258.509-.225.264-.141.165-.462.334-.54.226M979.578 753.986l.088 1.539.088.651.036.106.04.118.14.41.334.592.44.527.53.443.598.341.645.226.666.102.661-.025 1.376-.315M986.074 758.496l.781-.368.677-.518.549-.646.399-.751.233-.827.059-.871-.119-.881-.29-.857-.452-.8"/><path d="m979.664 755.525.042-.626.001-.018.172-.612.294-.556.406-.479.501-.383.577-.274.632-.152.662-.026.428.066.133.02.105.016.645.226.6.341.53.443.44.528.335.592.215.635.088.652-.044.644-.172.612-.295.556-.406.478-.502.383-.267.127-.31.146-.632.152M993.668 747.414l-.607-.331-.533-.44-.439-.532-.328-.603-.204-.652-.073-.674.011-.122.015-.164.036-.386.193-.643.318-.589.43-.514.526-.418.601-.307.654-.182.195-.015.155-.012.331-.025.683.08.657.21.608.332.533.44.439.533.328.603.204.652.073.674-.062.672-.193.643-.318.59-.431.513-.526.418-.601.306-.654.182-.681.052-.683-.081-.657-.21ZM998.91 746.669l.581-.694.43-.796.259-.869.09-.907-.1-.912-.278-.88-.443-.815M1183.26 825.226v-.117l-.06-.163-.1-.203-.15-.236-.16-.218-.03-.041-.22-.273-.24-.277-.26-.268-.15-.149-.11-.102-.26-.224-.24-.187-.21-.145-.18-.096-.15-.043-.09.011-.62.317-.23.116-.19.099-.16.08-.03.016"/><path d="M1183.26 825.226v.001l-.04.064-.1.011-.14-.043-.19-.095-.21-.145-.14-.104-.1-.083-.26-.224-.26-.251-.26-.269-.06-.07M1181.32 823.81l-.22-.273-.19-.26-.15-.236-.1-.203-.06-.163v-.116l.04-.061.01-.003M1182.13 828.081v-.002l.04-.159-.01-.204-.07-.241-.06-.152-.05-.117-.16-.287-.2-.294-.23-.29-.25-.273-.27-.248-.27-.212-.27-.169-.24-.118-.22-.063-.18-.006-.14.051-.13.06-1.94.894"/><path d="M1182.13 828.079v.002l-.09.105-.15.051-.18-.005-.22-.063-.24-.119-.27-.167-.27-.214-.26-.247-.26-.275M1179.76 826.563l-.16-.287-.11-.269-.07-.242-.01-.203.04-.158v-.003l.09-.1.01-.004M1178.8 833.734l1.06-1.768.08-.197.03-.24-.02-.276-.08-.3-.14-.312-.18-.313-.22-.302-.25-.279-.27-.244-.28-.201-.29-.151-.27-.094-.25-.035-.23.028-1.89.74"/><path d="m1179.06 832.195-.28-.094-.11-.061-.01-.003-.16-.087-.28-.202-.28-.245-.25-.279-.22-.302-.18-.313-.13-.312-.02-.058v-.007l-.06-.235-.03-.276M1179.85 831.966v.002M1177.17 829.283l.14-.145.15-.073.03-.015M1175.59 838.336l.91-1.559.13-.23.07-.275.01-.306-.05-.325-.11-.334-.16-.33-.21-.313-.25-.281-.27-.242-.3-.193-.3-.137-.3-.073-.29-.008-.26.057-1.72.505"/><path d="m1175.56 837.126-.3-.074-.31-.135-.29-.193-.28-.242-.25-.283-.21-.313-.16-.329-.1-.335M1173.62 834.59l.06-.239v-.006l.01-.029.12-.23.18-.179.21-.113.01-.007M1176.5 836.777v.002l-.18.177-.22.12M1171.67 843.329l.66-1.222.11-.3.04-.33-.02-.348-.09-.353-.14-.343-.2-.32-.25-.286-.28-.24-.31-.186-.32-.123-.32-.056-.31.012-1.41.211M1170.45 842.632l-.31-.185-.28-.24-.25-.286"/><path d="M1171.84 842.636v.002l-.14.08-.29.081-.32.013M1169.19 840.904l-.03-.348.05-.331.1-.3.16-.258.17-.165.01-.005.04-.036.25-.146.26-.071.03-.01M1172.33 842.107l-.01.016-.15.242-.21.206M1171.45 843.681v-.003l.22-.349M1166.75 849.222l.43-.941.13-.319.07-.349v-.364l-.06-.365-.13-.353-.19-.327-.25-.288-.28-.239-.32-.18-.34-.114-.34-.044-1.02-.094M1166.14 849.05l-.34.028-.34-.044"/><path d="m1164.09 846.135.19-.278.25-.227.28-.165.29-.089.01-.003.02-.007.3-.024.04-.003M1167.18 848.281l-.01.01-.18.269-.01.008-.01.005-.23.213M1166.49 849.601l.01-.002.25-.377M1163.95 847.532l-.06-.365v-.364M1164.8 848.74l-.28-.239-.25-.288M1161.5 854.584l.07-.4.02-.373-.05-.374-.12-.359-.19-.331-.24-.29-.28-.238-.37-.291M1160.84 855.404l-.3.177-.34.109-.36.037-.36-.036-.35-.109-.32-.177"/><path d="M1158.41 852.459v-.006l.26-.233.31-.176.34-.109.36-.038.36.038.35.109.23.125.03.019.02.008.04.023M1158.28 854.877l-.18-.331-.12-.359-.05-.374.02-.374.08-.359.16-.331M1161.57 854.184l-.01.057-.05.187v.026l-.03.09-.15.331-.22.29M1160.88 855.913v-.003l.29-.392.09-.18.12-.268.12-.486M1152.03 859.263l.28-.242.33-.18.35-.112.37-.041.37.036.35.107.33.175.29.239.24.289.18.333.11.362.04.375-.03.376-.1.364-.17.334-.23.294"/><path d="M1154.79 862.416v-.003l.31-.397.24-.453.13-.49.05-.509-.06-.509-.15-.488-.24-.449M1152.68 862.405l-.33-.176-.29-.238-.24-.291-.18-.332M1153.4 862.546l-.36-.034M1154.45 862.214l-.32.18M1151.62 859.892l.17-.335M1151.53 861.007l-.04-.376M1147.25 865.584l.19.058.33.177.29.238.24.291.18.33.1.359.01.023M1149.11 867.632l.01-.055.05-.504-.04-.504-.15-.485-.24-.448-.32-.392"/><path d="m1147.26 865.594.17.053.33.178.29.238.24.29.18.331.11.359v.009M1151.17 862.445l.39.322.45.237.48.145.5.047.5-.054.47-.152.44-.244.38-.325.01-.002v-.003"/><path d="m1155.11 859.873.11.361.05.376-.04.376-.1.363-.17.335-.23.294-.28.242-.33.18-.35.113-.37.039-.37-.034-.36-.107-.32-.176-.29-.238-.24-.291-.18-.332-.11-.361-.05-.376.04-.377.1-.363.17-.334.23-.294.28-.242.33-.181.35-.112.37-.04.37.035.36.107M1157.37 855.919l.39.322.44.239.47.147.47.048.02.001.48-.05.46-.148.41-.239.37-.323v-.003M1161.11 855.171l-.01.007-.26.232-.31.177-.34.109-.35.037-.36-.036-.35-.109-.33-.177-.28-.238-.24-.29-.19-.331-.12-.359-.05-.374.02-.374.09-.359.16-.331.21-.291.01-.012M1161.53 853.443l-.12-.359-.18-.331M1161.57 854.19l-.06.218-.01.026-.02.116M1158.98 852.049l.34-.109M1160.03 851.94l.35.108.27.146.03.02.02.011M1163.15 849.526l.38.323.43.243.46.155.46.059.46-.038.43-.133.39-.225.33-.306v-.003M1166.98 848.565v.005l-.01.004-.23.218-.29.165-.32.099-.34.028-.34-.044-.34-.114-.31-.18-.29-.239-.24-.289-.19-.327-.13-.353-.07-.366v-.364l.07-.348.14-.32.19-.278M1167.17 848.287l.13-.32.07-.348v-.364l-.06-.365M1164.52 845.636l.29-.165.3-.093.01-.003.01-.003.34-.028.34.044M1166.75 845.921l-.29-.239-.32-.179M1168.32 843.47l.38.325.41.251.44.166.44.076.42-.017.4-.11.34-.198.29-.28v-.002M1172.22 840.438l.15.343.08.353.02.348-.04.33-.1.3-.16.258-.22.207-.11.062v.002l-.14.082-.3.081-.31.013-.32-.056-.33-.123-.3-.186-.29-.24-.24-.286-.2-.321-.14-.343-.09-.353-.02-.348.04-.33.11-.3.16-.258.17-.171.01-.005.03-.03.26-.147.29-.081.31-.012.33.056.32.124M1173.09 838.271l.4.26.41.183.41.098.39.011.35-.078.3-.163.24-.241M1176.5 836.779v.002l-.18.179-.22.121-.25.055v.001l-.01.001-.29-.008-.3-.073-.3-.136-.3-.193-.28-.242-.24-.283-.21-.312-.16-.33-.11-.334-.05-.327.01-.306.06-.244.01-.006v-.023l.13-.231M1176.38 834.981l-.2-.312M1176.69 836.278l.01-.306-.05-.326-.1-.335M1175.59 838.34v-.003l.01-.019.9-1.537M1175.93 834.386l-.28-.242-.3-.192-.3-.136-.3-.073-.29-.009-.25.057M1176.57 833.444l.39.273.38.204.38.127.34.045.3-.038.25-.12.18-.197M1179.85 831.968v.002l-.14.146-.18.088-.22.028-.26-.033-.27-.094-.11-.058v-.003l-.17-.09-.29-.202-.27-.245-.25-.279-.22-.302-.18-.313-.13-.313-.02-.064v-.007l-.06-.229-.03-.275.03-.241.09-.197M1179.97 831.532l-.03-.276-.08-.3-.13-.312-.18-.313-.22-.301-.25-.279-.27-.244-.29-.202-.28-.151-.28-.094-.25-.034-.22.027"/><path d="M1178.79 833.738v-.003l.01-.002 1.05-1.763M1182.16 827.719l.01.204-.04.157v.003l-.1.106-.14.051-.18-.006-.22-.063-.24-.118-.27-.168-.27-.213-.27-.248-.25-.274-.23-.289-.2-.295-.16-.287-.11-.269-.07-.242-.01-.203.04-.158M1182.03 827.324l-.05-.115-.16-.287-.2-.294-.23-.29-.26-.273-.27-.248-.27-.212-.26-.169-.24-.118M1179.69 825.249l-.14.051M1180.97 830.016l1.15-1.934M1179.42 829.751l.36.228.33.159.3.086.24.007.19-.07.13-.145M1183.26 825.111V825.232l-.04.06-.1.011-.14-.043-.19-.095-.21-.145-.14-.105-.1-.082-.26-.224-.26-.251-.26-.269-.06-.07-.18-.207-.22-.273-.19-.26-.15-.236-.1-.203-.06-.163v-.116l.04-.064M1182.79 824.291l-.03-.041-.22-.273-.24-.277M1183.21 824.948l-.11-.203M1182.06 827.281l.24-.408.97-1.646M1180.88 822.529l-.14-.043M1181.78 823.181l-.26-.224-.24-.187-.21-.145M1183.24 823.505l-.06-.031-.1-.082-.14-.13-.19-.172-.22-.208-.24-.236-.26-.255-.26-.264-.26-.263-.24-.251-.21-.23-.19-.201-.14-.163-.1-.12-.05-.071v-.02l.06.032.1.083.15.129.18.173.22.208.24.235.26.255.26.263.26.263.24.251.21.23.19.201.14.163.1.12.05.071v.02Zm0 0-.44.784M1180.58 820.808l-.2.11-.4.223-.68.374"/><path d="m1180.39 820.918-.1-.081-.24-.201-.22-.164-.18-.123-.14-.075-.09-.025-.62.359M1115.36 891.018l-.67 1.863-.03.235.02.264.09.283.15.291.2.289.24.274.28.25.31.216.32.173.31.125.31.07.29.014.25-.043.2-.099 1.7-1.039M1119.33 894.183l.21-.203.13-.266.05-.318-.03-.357-.12-.383-.2-.394-.27-.391"/><path d="m1114.69 892.88.1-.196.15-.151.21-.099.25-.043.23.011.05.002.31.071.32.124.32.173.3.216.28.25.25.275.2.289.14.291.05.14.04.144.03.264-.04.234-.09.197-.16.15M1105.33 895.065l-.59 1.047-.01.03.04.081.09.129.13.172.18.209.21.237.23.256.25.265.26.265.26.253.25.233.22.203.01.011"/><path d="m1106.34 895.626-.2.372V896l-.46.874-.07.13.02.066.07.113.12.158.16.195.2.225.24.247.25.258.19.19.08.071.26.252.26.236.24.208.21.174.18.132.13.086.08.037.03-.015 1.13-.655"/><path d="m1105.61 897.004.03-.015.08.036.13.085.18.133.21.173.24.209.26.235.26.253.27.261.25.259.07.073.17.174.2.225.16.195.12.158.07.113.02.066M1108.36 895.189l-.3.61-.02.049-.18.365-.01.023-.09.184-.13.263v.001l-.02.042-.02.11v.033l.03.123.09.193.13.226.19.247.22.261.25.264.01.015.26.242.28.24.28.214.13.088.13.092.25.139.21.092.18.042.13-.01 1.26-.761.75-.454"/><path d="m1107.61 896.726.07-.062.13-.01.13.033h.01l.03.009.22.092.24.138.27.18.27.21.01.004.28.24.15.139.05.053.07.066.25.264.22.261.16.22.03.028.13.225.09.194.03.155-.02.111-.08.061M1112.37 898.122l.11-.083.03-.148-.05-.203M1111.59 893.216l-.89 2.059-.06.154-.01.056v.14l.06.23.11.255.16.27.21.275.25.269.28.253.29.228.3.193.17.089.12.063.28.103.25.052.22-.001.17-.056 1.88-1.152"/><path d="m1115.37 896.696.16-.145.09-.209v-.265l-.07-.311-.15-.345-.23-.365-.28-.373M1110.7 895.275l.11-.107.17-.056.22-.002.25.052.27.103.3.152.3.193.29.228.28.253.25.27.21.275.16.271.11.255.06.23-.01.195-.06.155-.12.106M1120.06 887.584l-.42 1.676-.07.27.01.296.07.309.13.311.19.3.24.279.29.247.31.205.33.155.34.099.34.04.31-.021.28-.081.24-.139 1.48-.877M1124.13 890.653l.25-.257.17-.318.09-.365v-.4l-.1-.418-.18-.421-.25-.407-.33-.378"/><path d="m1119.64 889.26.12-.235.19-.19.12-.073.12-.066.28-.082.31-.021.33.04.34.099.33.155.32.205.28.247.25.279.19.301.13.311.07.31v.295l-.03.142-.03.128-.13.235-.19.19M1125.36 883.635l-.13 1.342-.01.323.05.331.12.328.19.311.24.283.28.244.33.195.34.14.36.077.35.013.33-.051.31-.115 1.14-.61M1129.26 886.446l.35-.235.29-.304.2-.364.12-.407.02-.437-.07-.449-.17-.443-.25-.422-.32-.383"/><path d="m1125.23 884.977.09-.302.09-.158.06-.11.21-.226.26-.173.31-.115.33-.052.35.013.36.077.35.139.32.196.29.244.24.283.18.311.12.329.06.331-.02.323-.09.302-.14.249-.01.019-.21.226-.26.173M1131.3 879.462l.17.827.12.341.18.321.24.286.29.241.32.188.36.125.36.06.37-.009.35-.077.74-.307M1134.8 881.458l.44-.192.37-.273.31-.344.23-.4.14-.442.04-.467-.06-.474-.15-.463-.25-.433-.32-.387"/><path d="m1131.48 880.289-.05-.351.01-.075.02-.27.1-.327.17-.297.23-.254.28-.202.32-.142.35-.077.37-.009.36.059.36.126.33.187.29.242.24.286.17.321.12.342.04.35-.03.346-.1.327-.17.296-.23.254-.13.097-.15.105-.32.142M728.735 338.577l.006-.143-.071-.208-.145-.265-.107-.157-.106-.154-.273-.347-.323-.368-.361-.375-.041-.04-.343-.329-.393-.348-.386-.313-.201-.147-.164-.12-.331-.21-.282-.146-.224-.075-.157-.002-.001.001"/><path d="m728.734 338.577-.004.003-.079.069h-.002l-.154-.001-.223-.075-.282-.145-.331-.21-.366-.267-.387-.314-.393-.348-.23-.221-.155-.149-.361-.376-.323-.369-.047-.058-.218-.277-.009-.012-.213-.311-.144-.265-.071-.208.007-.142.082-.07.001-.001M724.619 340.972l.229-.484.001-.002.099-.211.014-.029.064-.205-.017-.267-.098-.316-.175-.354-.246-.379-.307-.389-.356-.384-.392-.364-.412-.33-.417-.284-.406-.227-.371-.158-.009-.003-.337-.089-.284-.014-.218.063-.004.002"/><path d="m724.964 340.246-.006.005-.041.04-.097.093h-.002l-.068.02-.003.001-.145.042h-.003l-.28-.012-.338-.089-.379-.16-.406-.227-.418-.285-.413-.331-.393-.364-.357-.385-.307-.389-.246-.38-.175-.354-.098-.317-.016-.266.065-.205.143-.135.002-.002M719.791 343.287l.033-.323-.055-.366-.141-.396-.221-.41-.292-.408-.352-.392-.399-.36-.431-.314-.445-.256-.444-.188-.424-.113-.389-.034-.338.046-.275.126-2.571 1.508"/><path d="m719.793 343.286-.045.102-.073.164-.201.201-.003.001-.271.125-.338.047-.389-.033-.425-.113-.008-.004-.011-.004-.425-.18-.446-.256-.431-.315-.4-.36-.353-.392-.292-.41-.129-.239-.004-.007-.088-.165-.14-.396-.055-.366.033-.322.119-.267.199-.197.003-.002M713.184 348.089l.075-.375-.017-.413-.11-.434-.198-.439-.279-.427-.349-.399-.406-.356-.447-.298-.47-.23-.476-.152-.464-.069-.434.017-.387.102-.325.184-2.28 1.295"/><path d="m713.183 348.089-.013.024-.153.299-.251.259-.003.002-.321.182-.103.027-.008.003-.276.073-.434.018-.464-.069-.477-.152-.471-.23-.447-.298-.406-.356-.35-.4-.279-.428-.198-.44-.11-.434-.017-.413.006-.03.001-.005.069-.34.167-.323.248-.255.003-.003M700.512 351.798l.14-.254.003-.005.063-.114.289-.307.003-.004.348-.224.018-.011.427-.152.471-.063.497.03.503.12.491.206.46.285.411.352.347.405.268.444.18.465.085.468-.014.454-.019.071-.092.35-.206.374-.104.112-.007.007-.18.192-.004.002-.362.234-.426.152M703.133 355.421l-.504-.12M701.375 350.879l-1.805.933M700.472 353.142l-.085-.469M696.832 360.827l-.066-.497-.167-.486-.26-.458-.345-.411-.415-.348-.47-.273-.506-.187-.525-.093-.521.004-.498.1-1.243.514"/><path d="m696.834 360.827-.005.064-.032.424-.031.105-.005.016-.102.34-.235.416-.322.354-.004.003-.393.276-.456.194-.499.101-.521.004-.525-.093-.507-.186-.471-.273-.415-.349-.345-.412-.261-.458-.166-.487-.066-.497.037-.488.139-.461.236-.415.318-.35.004-.004.064-.045.011-.008.322-.226.107-.046.35-.148M686.998 367.746l.041.074.046.085.029.053.14.256.158.503.054.519-.051.515-.155.49-.253.448-.341.388-.005.003-.411.31-.475.226-.517.13-.536.029-.538-.072-.517-.172-.477-.264-.418-.346-.343-.416-.256-.468-.158-.503-.054-.519.052-.515.155-.491.253-.448.338-.383.004-.004.416-.313.475-.225.336-.085.037-.009.097-.025.046-.011.537-.029.537.072.517.172.476.264.418.346.343.415ZM684.169 366.505l-.626.062M672.988 376.41l.003-.004.424-.335.481-.246.523-.15.542-.046.542.059.52.162.479.258.419.344.343.418.254.475.156.514.05.533-.056.532-.161.511-.26.469-.348.41-.004.003-.419.331-.482.247-.522.15-.542.046M674.387 381.032l-.521-.161-.479-.258-.419-.345-.343-.418-.254-.475M672.164 378.327l.057-.532.161-.51.259-.469M667.45 386.463l.256.478.158.519.054.54-.052.54-.155.519-.254.478-.342.42-.005.004-.412.34-.477.256-.517.158-.538.054-.538-.053-.517-.157-.478-.255-.418-.344-.344-.419-.256-.478-.158-.519-.055-.539.052-.54.156-.519.254-.479.338-.415.004-.004.417-.345.476-.256.517-.158.538-.053.538.052.518.157.477.256.419.343.344.419Z"/><path d="m667.111 389.961-.004.004-.417.345-.476.256-.517.158-.538.053-.539-.052-.517-.157-.478-.256-.419-.343-.344-.419-.255-.478-.159-.519-.053-.54.052-.539.155-.52.254-.478.342-.42.005-.004M667.859 387.469l.054.539-.052.54M667.703 389.067l-.254.479M663.617 385.712l.477-.256M664.609 385.298l.538-.054.538.053M666.68 385.709l.419.344.343.419M673.857 380.879l-.479-.258-.42-.345-.343-.418-.254-.475-.155-.514-.05-.533.056-.533.161-.51.26-.469.348-.41.005-.004.418-.33.482-.247.522-.149.543-.046.541.058.521.162.479.258.419.344.343.418.254.475.155.514.05.534-.056.532-.161.51-.259.469-.344.405-.004.005-.423.335-.482.247-.522.149-.543.046-.542-.059-.52-.161ZM686.661 371.079l-.004.005-.416.312-.475.226-.516.13-.537.03-.537-.073-.517-.171-.477-.264-.418-.346-.344-.416-.255-.468-.158-.504-.054-.519.051-.514.156-.491.253-.448.341-.388.005-.003M687.078 367.912l.168.309.159.503M687.406 369.757l-.156.491M683.648 366.642l.372-.093.037-.01.107-.026.537-.03M685.238 366.556l.516.172.477.264.417.346.344.415M696.098 362.549l-.004.004-.397.279-.456.194-.499.101-.521.004-.525-.093-.507-.186-.471-.273-.415-.349-.345-.412-.261-.458-.166-.487-.066-.497.037-.488.139-.461.236-.415.322-.354.004-.003.071-.05M693.051 358.185l.498-.1.521-.004.525.093.506.187.47.273.415.348.345.411.26.458.167.486.066.497-.037.488-.027.089-.004.016-.107.356M705.495 353.899l-.112.421-.205.374-.098.104-.007.008-.183.195-.003.004-.366.236-.426.152-.471.063-.497-.029-.505-.12-.491-.206-.461-.285-.411-.352-.347-.406-.269-.444-.18-.466-.084-.468.014-.454.112-.422.143-.259.003-.006.06-.108.292-.311.004-.002.362-.233.427-.152.471-.063.496.03.504.12.491.206.46.285.411.352.346.405.269.444.18.465.085.468-.014.454Zm0 0-.012.065M701.37 350.885l-.011.005M713.125 346.872l.11.434.017.413-.076.375-.166.323-.247.256-.003.002-.324.185-.096.025-.008.002-.283.076-.434.018-.464-.069-.477-.152-.471-.23-.448-.298-.406-.356-.349-.4-.28-.428-.198-.44-.11-.434-.017-.413.008-.036.001-.005.068-.334.167-.323.25-.258.004-.002.322-.182M710.977 344.723l.471.23.447.298.405.356.349.399.279.427M708.888 344.805l-1.833 1.041M719.472 343.754l-.002.002-.274.126-.339.048-.389-.034-.421-.112-.003-.001-.008-.003-.436-.185-.446-.256-.432-.314-.399-.36-.353-.393-.293-.409-.132-.247-.004-.007-.084-.157-.14-.396-.055-.366.033-.323.119-.266.201-.2.003-.001M719.113 341.386l.292.409.221.41.14.396.055.366-.032.322M715.612 339.901l-2.561 1.503M716.227 339.729l.389.034.424.115.444.187.445.257.431.313M724.818 340.384l-.001.002-.065.019-.004.001-.149.043h-.003l-.281-.012-.338-.088-.378-.161-.406-.227-.419-.284-.412-.331-.393-.365-.357-.385-.307-.389-.246-.38-.176-.354-.097-.317-.016-.266.064-.205.145-.136v-.001h.003M722.602 336.977l.417.284.412.33.392.364.356.384.307.389.246.379.175.354M720.978 336.549l-2.798 1.65M725.022 340.043l-.065.206-.047.044M728.664 338.227l.071.208-.006.142-.082.072-.156-.001-.224-.074-.282-.145-.331-.211-.365-.267-.387-.313-.394-.348-.229-.221-.155-.149-.362-.376-.323-.369-.049-.063-.215-.272-.01-.012-.213-.312-.144-.264-.07-.208.006-.142.081-.069.003-.002h.001l.155.002M728.035 337.304l.273.347"/><path d="m724.83 334.831-.848.493-2.107 1.225M725.211 334.908l.283.146.33.21.165.12.2.147.387.313M726.969 336.192l.342.329M727.352 336.561l.361.376M730.892 338.571l-.018.007-.092-.067-.161-.136-.224-.203-.279-.259-.324-.307-.354-.343-.373-.366-.377-.374-.365-.368-.341-.348-.302-.314-.253-.269-.193-.213-.127-.148-.054-.079.019-.006.092.067.161.137.225.202.279.26.323.307.355.343.372.364.376.374.365.367.34.347.302.314.252.269.194.213.127.149.055.08Zm0 0-.211.381-.05.09M727.052 334.784l-1.064.599M626.285 426.936l-1.477 2.485-.145.289-.065.352.017.402.099.435.177.453.247.454.31.435.358.402.395.352.416.289.42.215.409.132.382.046.34-.044"/><path d="m624.809 429.42.219-.215.285-.132.341-.045.382.045.202.065.207.067.421.215.416.289.396.353.359.402.31.437.248.453.176.454.095.419.004.017.016.402-.066.351-.145.289-.22.214-.286.132M621.207 445.416l.003.002.378.359.364.332.337.294.295.242.243.183.181.116.112.045.14-.079"/><path d="m619.121 440.535-.93 1.601.049.111.12.179.186.242.246.294.296.336.335.364.361.379.373.378.37.365.354.336.324.294.002.002.28.24.228.18.166.112.098.038.299-.161.289-.155"/><path d="m618.191 442.136.025-.037.097.037.166.111.228.18.282.242.324.295.076.072.279.264.371.366.373.379.362.38.335.364.296.336.246.294.186.242.12.178.047.11-.025.037M620.463 436.53l-1.551 2.601-.183.307-.018.175.057.241.129.298.196.345.026.038.229.339.305.396.344.399.092.097.276.29.379.36.007.006.368.313.356.266.325.203.281.132.035.009.004.001.187.046.162-.022.725-.362"/><path d="m618.73 439.438.091-.1.161-.023.039.009.186.046.281.132.171.106.154.097.359.266.375.32.234.223.146.138.368.387.343.4.306.396.255.378.012.019v.002l.185.324.029.07.098.228.058.241-.02.173-.091.1M622.594 432.431l-1.643 2.731-.083.234-.005.299.071.353.142.379.005.013.215.417.276.426.326.418.363.395.387.356.396.303.389.239.368.167.333.086.28.004h.004l.225-.08"/><path d="m620.953 435.162.156-.161.225-.08.284.003.333.086.368.166.39.24.397.303.387.357.364.395.327.419.276.426.215.418.146.392.071.353-.006.299-.084.233-.157.16M631.163 420.654l-1.17 2.06-.12.398-.033.444.055.473.142.484.222.477.293.451.355.407.402.349.434.277.448.194.447.104.427.009.392-.085"/><path d="m629.992 422.715.202-.336.277-.262.341-.177.156-.034.235-.052.428.009.447.104.449.193.435.277.402.35.355.408.294.451.222.477.141.485.055.474-.034.444-.12.397-.058.096-.145.24-.277.261-.341.177M637.558 412.937l-.852 1.688-.168.434-.077.478.017.504.111.509.199.496.28.463.351.412.408.347.449.266.474.177.479.081.467-.019"/><path d="m636.707 414.624.252-.374.301-.276.026-.024.389-.213.437-.119.467-.02.48.08.474.177.45.267.408.347.352.413.28.464.199.496.11.51.017.503-.077.478-.168.435-.253.374-.327.299-.073.04-.317.172-.437.119M644.799 405.036l-.41 1.116-.113.503-.014.525.085.527.18.51.27.472.347.416.413.344.463.26.493.165"/><path d="m644.387 406.152.207-.46.081-.111.212-.291.368-.326.429-.239.474-.143.499-.04.507.064.494.164.462.26.414.345.348.417.269.472.181.51.084.527-.014.526-.113.502-.208.461-.293.401-.368.326-.43.239-.473.142-.281.022-.218.018-.507-.064M654.72 400.285l-.472-.256-.417-.344-.345-.418-.261-.477-.167-.517-.066-.538.038-.537.139-.517.236-.476.324-.416.398-.342.459-.254.5-.155.524-.052.526.054.509.159.472.255.416.344.346.419.261.477.167.517.066.538-.038.538-.14.516-.236.476-.324.416-.398.342-.459.253-.5.156-.524.051-.526-.054-.508-.158ZM747.87 351.689l.152-.292.499-.955.277-.53.002-.157-.08-.227-.16-.288-.233-.339-.298-.376-.351-.399-.39-.407-.183-.175-.233-.224-.423-.375-.417-.338-.291-.213-.101-.075-.355-.226-.302-.155-.238-.079h-.165l-.002.001"/><path d="m748.8 349.912-.005.004-.08.076h-.002l-.163.001-.237-.078-.302-.155-.355-.226-.393-.287-.417-.339-.425-.376-.416-.4-.391-.407-.351-.4-.298-.377-.058-.083-.176-.256-.159-.288-.08-.227.004-.156.085-.078.001-.001M743.594 354.356l.864-1.813.234-.49.001-.002.13-.272.066-.225-.016-.21-.006-.08-.11-.344-.192-.385-.268-.412-.334-.421-.386-.416-.423-.394-.446-.357-.45-.307-.437-.244-.007-.003-.4-.17-.109-.028h-.001l-.253-.066-.303-.012-.232.07-.004.003"/><path d="m744.824 351.779-.006.006-.146.145-.003.001-.089.027-.003.001-.137.042-.303-.011-.362-.094-.011-.004-.397-.168-.437-.244-.451-.307-.446-.358-.425-.394-.387-.417-.291-.369-.043-.053-.268-.412-.192-.386-.109-.344-.017-.233-.004-.057.067-.225.095-.093.056-.055.002-.002M738.108 358.041l1.209-2.914.031-.351-.062-.398-.155-.43-.24-.446-.23-.32-.088-.123-.382-.424-.099-.09-.333-.3-.465-.339-.481-.276-.373-.158-.105-.045-.457-.121-.175-.015-.243-.02-.363.053-.294.138-2.799 1.625"/><path d="m739.317 355.126-.115.267-.01.024-.214.219-.003.002-.291.137-.363.054-.418-.035-.457-.12-.049-.021-.012-.005-.301-.128-.116-.049-.482-.276-.058-.043-.408-.297-.433-.39-.383-.425-.317-.444-.144-.267-.006-.011-.091-.168-.154-.431-.062-.398.032-.352.126-.29.212-.216.003-.002M731.93 361.34l.31-.956.079-.408-.021-.449-.121-.472-.217-.476-.303-.464-.015-.017-.343-.393-.02-.022-.439-.385-.483-.323-.509-.248-.514-.164-.5-.073-.467.02-.417.113-2.364 1.321"/><path d="m732.24 360.384-.014.028-.163.324-.268.282-.004.002-.344.2-.141.038-.007.002-.268.073-.468.021-.5-.072-.515-.164-.509-.248-.484-.323-.44-.386-.379-.433-.304-.464-.216-.478-.121-.472-.021-.448.011-.052.001-.006.069-.351.177-.351.266-.279.003-.003.261-.151.088-.05M723.77 367.865l.155-.819.062-.325.013-.493-.094-.509-.196-.505-.292-.481-.375-.44-.445-.381-.498-.308-.531-.223-.545-.129-.536-.031-.508.07-.46.166-1.977.997"/><path d="m723.99 366.721-.025.096-.094.362-.22.406-.136.148-.008.008-.169.183-.004.003-.39.255-.46.167-.508.07-.537-.03-.545-.129-.532-.223-.498-.308-.446-.382-.376-.44-.292-.482-.196-.506-.093-.509.013-.493.119-.459.166-.304.003-.006.052-.096.311-.334.003-.004.377-.245.018-.012M714.711 375.825l-.065-1.547-.073-.54-.181-.528-.283-.496-.373-.446-.45-.378-.51-.295-.548-.202-.567-.1-.565.005-.537.11-1.371.54"/><path d="m714.646 374.278-.005.078-.033.452-.044.146-.005.018-.1.337-.252.452-.347.385-.005.004-.424.301-.493.211-.539.111-.564.006-.568-.1-.549-.202-.509-.296-.451-.378-.373-.446-.283-.497-.182-.529-.072-.54.039-.53.149-.501.253-.452.344-.38.004-.005.121-.086.012-.008.295-.21.37-.158.124-.053M704.398 382.328l-.373-.519-.373-.45-.453-.375-.516-.286-.56-.186-.581-.078-.581.032-.703.049"/><path d="m704.026 381.809.048.088.061.113.032.057.136.25.172.546.06.563-.055.559-.167.533-.273.486-.369.422-.005.004-.445.336-.514.246-.559.142-.581.033-.582-.078-.56-.186-.516-.286-.454-.375-.372-.451-.278-.508-.172-.546-.059-.564.055-.559.167-.533.274-.486.365-.417.004-.005.45-.339.514-.246.473-.12.041-.01.002-.001.043-.011M693.493 391.725l.276.516.168.557.055.579-.06.577-.175.554-.28.51-.377.444-.005.004-.453.36-.523.268-.565.162-.588.051-.588-.064-.564-.174-.519-.28-.455-.374-.372-.453-.276-.515-.168-.558-.055-.579.061-.578.174-.554.281-.509.373-.439.004-.005.458-.364.522-.268.566-.162.588-.05.587.063.564.175.519.28.455.373.372.453ZM682.861 402.137l.278.518.171.563.059.585-.056.586-.169.563-.276.518-.371.455-.005.005-.447.369-.517.277-.56.172-.584.058-.583-.058-.562-.17-.518-.277-.454-.372-.373-.455-.277-.518-.032-.104-.14-.459-.027-.273-.031-.312.056-.585.169-.563.144-.273.131-.246.367-.45.004-.005.324-.267.008-.007.121-.099.516-.278.561-.171.583-.058.584.057.562.17.517.277.454.373.373.454Z"/><path d="m683.133 404.961-.276.519-.367.45-.004.005-.452.373-.517.278-.561.171-.583.058-.584-.057-.561-.171-.518-.276-.454-.373-.373-.454-.277-.519-.033-.106v-.001l-.139-.456-.027-.266v-.006l-.032-.313.057-.585.169-.563.145-.274.008-.014.122-.231.371-.455.005-.004.328-.271M683.129 402.665l.171.562.059.586-.056.585M678.699 401.322l.517-.278.561-.171.583-.058.584.057.561.17.518.277.454.373.373.454M693.093 395.466l-.004.005-.459.364-.522.268-.566.162-.588.051-.587-.063-.564-.175-.52-.28-.454-.374-.372-.453-.276-.515-.169-.558-.055-.579.061-.578.175-.553.281-.51.377-.444.005-.004.453-.36.522-.268.566-.162.588-.05.587.063.564.175.519.28.455.373.372.453M693.926 392.807l.055.579-.061.577-.174.554-.281.509M700.414 385.932l-.517-.286-.453-.376-.373-.45-.277-.509-.172-.546-.06-.563.056-.559.167-.533.275-.487.368-.421.005-.004.445-.336.515-.245.513-.131.04-.01.005-.001.581-.032.581.078.56.185.517.286.453.375.373.451.078.143.031.057.167.307.172.546.06.564-.055.558-.167.533-.273.487-.365.417-.004.004-.449.34-.515.246-.558.142-.581.033-.583-.078-.56-.185ZM714.639 374.286l-.039.53-.038.128-.005.018-.105.355-.253.451-.343.382-.004.004-.428.304-.494.212-.538.111-.565.005-.567-.1-.549-.201-.51-.296-.45-.378-.374-.446-.283-.497-.181-.529-.073-.54.039-.531.149-.5.253-.452.348-.385.005-.003.128-.092.012-.008.284-.201.493-.211.539-.11.564-.005M712.77 371.604l.509.295.45.378.374.445.282.497M723.334 367.927l-.004.004-.289.189-.105.068-.46.167-.508.07-.537-.03-.545-.129-.532-.223-.498-.308-.446-.381-.376-.441-.292-.482-.196-.505-.093-.509.013-.494.12-.458.169-.311.003-.006.049-.089.313-.338.005-.003M723.703 365.221l.196.505M723.995 366.234l-.013.493-.095.369M719.973 363.298l.508-.069.536.031M732.058 360.741l-.265.279-.003.003-.348.202-.133.037-.008.002-.275.075-.468.021-.5-.073-.515-.163-.144-.071-.365-.178-.075-.049-.409-.274-.44-.385-.379-.433-.303-.465-.217-.477-.121-.472-.02-.449.011-.058.001-.006.068-.344.178-.352.268-.282.004-.002.346-.199M731.652 358.12l.304.464.216.477M732.314 359.981l-.08.408M729.844 356.732l.508.248.483.323M739.188 355.421l-.211.217-.003.002-.293.139-.363.054-.418-.035-.457-.12-.037-.016-.012-.005-.312-.132-.118-.05-.482-.276-.056-.041-.41-.299-.433-.39-.382-.425-.25-.349-.068-.095-.15-.278-.005-.01-.086-.158-.043-.122-.111-.309-.062-.398.033-.352.126-.29.214-.218.003-.002.291-.136M738.887 353.505l.241.446.154.43M734.799 351.465l-2.787 1.618M736.438 351.477l.37.157.481.276M737.754 352.248l.335.302M738.188 352.638l.382.424M744.885 351.557l-.066.225-.15.149-.001.002-.087.026-.003.001-.142.044-.303-.012-.362-.093-.011-.005-.397-.167-.438-.245-.45-.306-.447-.358-.424-.395-.387-.417-.29-.366-.044-.056-.268-.412-.192-.386-.109-.344-.017-.226-.004-.064.067-.224.1-.099.052-.051.003-.001M743.957 349.704l.334.422M744.754 350.922l.109.344.006.08M740.511 347.778l-.041.024-2.703 1.584-.294.173M740.742 347.707l.303.012M741.301 347.785l.001.001.108.028.402.17M742.703 348.537l.445.357M748.796 349.913l-.084.079-.001.001-.164.001-.238-.078-.302-.155-.354-.226-.394-.288-.417-.338-.424-.376-.416-.4-.392-.407-.351-.4-.298-.377-.057-.083-.176-.256-.16-.288-.08-.227.004-.156.084-.077.002-.002h.002l.163-.001M747.285 347.72l.39.407.351.399.298.376.233.339.16.288"/><path d="m744.578 345.86-1.535.889-.941.546-.727.422M744.98 345.939l.303.155M746.031 346.607l.416.338.424.376.233.224M751.026 349.844l-.015.01-.095-.069-.17-.146-.239-.216-.299-.279-.347-.331-.382-.37-.402-.395-.407-.404-.396-.399-.37-.377-.329-.341-.276-.293-.213-.232-.14-.163-.063-.087.016-.009.096.07.171.146.239.217.299.279.346.331.382.369.401.394.406.404.395.398.37.376.328.341.276.292.213.232.141.164.064.088Zm0 0-.248.447-.342.616-.333.599M746.882 345.752l-1.14.642"/><path d="m751.116 352.19.402-.699-.024-.137-.102-.211-.175-.276-.243-.331-.197-.245M638.064 445.782l-1.591 2.71-.159.309-.072.379.017.432.105.47.117.301.073.187.182.332.086.158.334.471.389.434.428.382.203.142.248.172.393.202.063.033.444.146.416.051.37-.045 2.869-1.106"/><path d="m636.473 448.492.24-.23.311-.14.37-.046.416.051.207.068.238.078.457.234.451.314.429.383.389.435.335.472.268.49.056.146.134.344.075.336.018.08.012.054.016.432-.073.378-.16.309-.24.229-.312.139M632.746 465.806l.018.017.393.357.362.315.317.259.261.194.194.122.119.044 1.426-.803"/><path d="m630.143 460.241-1.002 1.73.05.116.128.19.199.257.265.316.319.36.361.392.39.409.403.409.401.395.384.365.351.321.307.264.051.041.197.157.182.125.108.045.353-.19 1.469-.791"/><path d="m629.141 461.972.029-.036.107.045.182.123.248.198.307.265.345.314.007.007.384.365.402.396.404.41.391.41.361.392.32.361.264.315.199.258.127.189.049.115-.03.035M631.652 455.999l-1.154 1.945-.141.237-.578.975-.021.184.059.257.138.32.184.324.026.046.275.406.33.427.34.395.03.035.399.419.41.39.407.347.387.29.353.222.306.146.052.014.005.001.189.049.178-.02.04-.02.915-.46.003-.001.022-.012.017-.008.523-.263.153-.077"/><path d="m629.781 459.156.101-.105.177-.021.246.063.305.146.082.051.272.171.388.291.155.131.252.216.09.085.321.306.4.419.371.432.33.427.086.128.001.002.188.277.063.111.147.259.137.319.059.257-.022.183-.07.072-.032.032M634.016 451.653l-.143.239-.873 1.465-.756 1.266-.091.25-.008.321.074.378.064.169.061.165.033.088.232.45.161.248.136.211.352.452.393.427.42.385.429.33.424.261.399.183.362.096.31.007.008-.002.237-.08 2.317-1.051"/><path d="m632.242 454.623.172-.17.246-.083.309.006.362.096.401.182.335.207.088.054.43.331.275.253.145.133.394.428.353.452.298.461.232.449.156.423.075.378-.009.32-.092.25-.173.169M643.393 439.045l-1.255 2.253-.132.428-.037.479.059.511.152.523.239.515.318.488.385.441.435.379.21.134.261.166.148.065.339.147.485.114.465.013.426-.09 2.573-.737"/><path d="m642.137 441.298.221-.362.302-.281.371-.189.151-.033.275-.058.465.012.485.113.488.212.471.301.437.379.384.442.319.488.239.516.152.524.058.511-.038.479-.132.428-.047.076-.175.286-.302.28-.371.189M650.363 430.737l-.907 1.852-.185.469-.083.517.016.544.119.551.216.536.303.501.38.447.443.376.487.29.515.193.521.088.506-.019 1.382-.185"/><path d="m649.457 432.589.275-.403.296-.269.06-.054.423-.229.475-.127.507-.02.522.088.514.193.488.29.443.376.381.448.304.502.215.536.118.552.017.544-.085.517-.184.469-.275.403-.356.322-.041.022-.383.207-.475.126M658.242 422.214l-.427 1.234-.123.544-.016.568.091.571.195.551.292.512.377.451.448.373.502.283.535.179 1.234.181"/><path d="m657.816 423.448.226-.498.049-.068.27-.366.4-.353.466-.258.515-.153.542-.042.55.069.536.18.502.282.449.374.377.451.292.512.195.552.091.571-.017.569-.123.544-.226.498-.319.434-.401.352-.466.257-.515.153-.256.02-.286.022-.55-.07M669.04 417.111l-.512-.277-.451-.373-.375-.453-.283-.517-.18-.561-.071-.583.024-.337v-.005l.015-.215.002-.025.152-.559.256-.515.351-.452.433-.369.11-.061.388-.214.543-.168.334-.032.008-.001.226-.022.572.059.552.172.512.278.452.372.374.454.283.517.181.561.071.583-.042.582-.152.56-.256.515-.352.451-.433.37-.498.274-.543.167-.568.056-.571-.06-.552-.172ZM718.293 590.082l3.619 5.06 2.172.511 4.697-4.709"/><path d="m648.32 484.838-4.144 4.166-1.02 1.026 1.836 1.782 3.043 4.105 5.737 4.692 3.587 4.264 1.514 1.8.992 1.179 6.365 7.713.744.9 6.786 7.345 1.605 1.738 5.91 8.067 1.921 2.621 5.054 8.629 1.89 3.226 5.507 8.347 1.766 2.676 5.484 8.362 1.267 1.933 5.378 8.43.506.794 4.65 7.927 3.595 3.522 1.238 1.214M719.531 591.296l2.381 3.846"/><path d="m648.035 495.917 1.719 2.882 1.641 2.752 2.603 4.364 5.121 8.588 1.308 2.194 3.471 5.703 4.274 6.503 4.909 7.046 5.348 7.304L684 550.52l5.568 6.939 5.342 6.33 4.902 5.472 4.27 4.401 6.355 7.721 4.261 5.177M643.156 490.03l5.817 8.134.702.981"/><path d="m644.992 491.812 4.683 7.333 4.323 6.77M1222.46 671.143l-9.97.804-9.97.803-9.97.803-9.96.804-9.97.803-9.97.803-9.97.803-9.97.804-2.35.189-9.96.803-9.97.804-9.97.803-9.97.803-7.25.585"/><path d="m1093.24 681.556 5.24 8.519 5.23 8.519 5.24 8.52 5.24 8.519 5.23 8.52 5.24 8.519 5.24 8.519 5.23 8.52 5.24 8.519 5.23 8.519 5.24 8.52 5.24 8.519 5.23 8.519 3.63 5.905 8.82-4.728 8.81-4.728 8.81-4.727 8.81-4.728 6.36-3.41 9.97.711 9.98.711 9.97.711 3.12.223 9.39 3.453 9.38 3.453 7.09 2.606 9.48 3.165 9.49 3.165 7.55 2.521 9.32 3.628 9.32 3.628 6.82 2.657 7.11-7.04 1.48-1.467-6.1-7.924-5.65-7.329-6.1-7.924-5.64-7.33-6.1-7.924-5.65-7.33-6.1-7.924-5.64-7.332-6.52-7.585-6.51-7.585-6.52-7.585-6.52-7.585-6.51-7.585-6.52-7.585-6.52-7.585-6.51-7.585-4.45-5.177-.82-.696-9.96.804-9.97.803-9.97.803-9.97.804-9.96.803-9.97.803-9.97.804-9.97.803-2.03.164-9.97.803-9.97.804-9.97.803-9.96.803-7.08.57.32.736ZM1061.49 955.058l-.11-1.536m0 0-.69-9.976-.69-9.976-.7-9.976-.09-1.365 4.78-8.785 4.77-8.784 4.78-8.785 4.78-8.785 3.33-6.132-.27-1.498-8.52-5.242-8.51-5.241-8.52-5.242-8.51-5.242-8.52-5.241-8.52-5.242-8.51-5.242-8.52-5.242-8.51-5.241-8.521-5.242-8.517-5.242-8.516-5.241-8.516-5.242-5.409-3.33-.173 1.223-.817 9.967-.817 9.966-.816 9.967-.817 9.966-.574 6.996-.816 9.967-.817 9.966-.817 9.967-.817 9.966-.817 9.967-.817 9.967-.817 9.966-.816 9.967-.143 1.741 7.583 6.519 7.583 6.519 7.583 6.519 7.583 6.519 7.583 6.519 7.585 6.519 7.58 6.519 7.58 6.52 4.97 4.265 7.92 6.105 7.28 5.62 7.92 6.1 7.29 5.62 7.92 6.11 7.29 5.61 7.92 6.11 7.29 5.62 7.1-7.04 1.42-1.41-.3-2.08-3.63-9.32-3.62-9.32-2.55-6.56-3.16-9.484-3.16-9.488-2.43-7.278-3.45-9.386-3.45-9.386-2.42-6.586Z"/><path d="m1081.65 880.958-8.52-5.242-8.51-5.242-8.52-5.241-8.51-5.242-8.52-5.242-8.52-5.242-8.51-5.241-8.52-5.242-8.51-5.242-8.52-5.242-8.516-5.241-8.516-5.242-8.516-5.242-5.856-3.604M1089.55 1032.4l-3.62-9.31-3.63-9.32-2.59-6.66-3.16-9.485-3.16-9.488-2.46-7.378-3.45-9.386-3.45-9.386-2.55-6.929M1441.55 365.56l2.31 3.338 5.99 8.006 4.43 5.911 6.65 7.463 5.01 5.612 7.26 6.874 5.54 5.249 7.81 6.245 6.04 4.826 8.3 5.577 6.47 4.347 8.73 4.873 6.84 3.819 9.11 4.134 7.15 3.245 9.41 3.363 7.38 2.635 3.6.983 9.67 2.561 8.45 2.239 9.85 1.729 8.55 1.502 9.96.87 8.56.747 10-.013 8.49-.011 3.98-.343 3.24-.281 9.46-.873 9.6-.885 9.83-1.837 8.86-1.655 9.61-2.766 8.53-2.454 8.73-3.034 9.29-3.692 8.69-3.449 8.87-4.609 8.19-4.25 8.51-5.24.11-.063 8.35-5.498 7.96-5.244 7.73-6.35 7.31-6.01 7.27-6.871.43-.405 6.99-7.144 6.76-6.895 6.17-7.868 5.96-7.595 5.72-8.201.36-.519 5.26-8.503 5.12-8.272 4.28-9.037 4.21-8.872 3.87-9.219.1-.224 3.24-9.459 3.17-9.251 2.17-9.763 2.16-9.717 1.61-9.297 1.07-9.943 1.05-9.724-.02-10-.03-10.016-.7-8.232-1.11-9.939-1.07-9.61-2.15-9.765-2.14-9.696-3.16-9.487-3.23-9.671-2.42-5.502-4.12-9.114-3.95-8.758-5.01-8.654-4.94-8.517-5.84-8.118-5.87-8.159-6.59-7.513-6.6-7.514-.15-.174-7.29-6.848-7.29-6.848-.27-.254-7.9-6.132-7.9-6.13-.37-.29-8.44-5.364-8.44-5.365-.44-.28-8.9-4.56-8.9-4.559-.47-.238-9.28-3.715-9.29-3.714-.44-.177-9.59-2.838-9.59-2.837-.37-.11-9.81-1.931-9.81-1.932-.24-.047-9.95-1.005-10.01-1.01-5.71-.28-10-.056-10-.056-.67-.005-9.96.904-9.96.902-.4.037-9.83 1.87-9.94 1.893-7.84 2.06-9.59 2.832-9.59 2.834-.4.117-9.25 3.785-9.35 3.822-8.82 4.713-8.63 4.614-8.52 4.61-8.28 5.607-8.16 5.526-7.64 6.45-7.32 6.18-7.59 6.508-.19.166-6.91 7.233-6.56 6.867-6.12 7.907-.27.342-6.09 7.933-5.64 7.349-5.19 8.546-4.73 7.788-4.42 8.973-.15.312-4.24 9.057-3.73 7.969-3.24 9.461-2.83 8.278-2.44 9.576-2.21 9.752-1.85 8.158-1.18 9.931-.17 1.401-.22 1.828-.6 5.125-.23 9.072-.15 9.999-.12 7.945.86 9.963.7 8.035 1.83 9.831 1.51 8.067 1.7 7.071 2.77 9.608 2.12 7.343 3.66 9.307 2.85 7.269 4.49 8.934 3.59 7.129 5.27 8.498 4.29 6.921Z"/><path d="m1536.49 381.51-7.83-5.153-6.32-5.075-6.79-6.552-5.39-6.148-5.29-7.501-4.3-7.303-3.61-7.813-2.93-8.55-.84-8.283.49-4.828.19-1.796-.17-4.56-.13-3.486.64-8.381 1.44-8.206 2.24-7.956 2.98-7.646 3.89-6.932 5.54-4.14 5.49-4.425 6.57-5.992 7.2-5.232 6.4-4.144 6.73-3.537 6.98-2.913 7.21-2.279 7.95-1.163 1.74-.253 8.36-.048 7.08 1.457 6.89 1.784 7.84 2.567 8.96 3.832 6.18 3.246 5.99 3.485 6.46 4.226 7.85 6.191.18.137 5 4.694 4.8 4.91 4.78 5.4 5.92 8.061.13.178 3.65 6.092 1.33 2.527 1.92 3.62 2.94 6.412 1.33 8.856.2 8.713-.93 7.284-1.62 7.218-2.32 7.088-3.05 7.144-4.05 7.985-4.83 7.055-2.74 6.12-3.73 5.95-6.79 4.91-7.3 4.295-7.77 3.635-8.17 2.927-8.5 2.185-7.66 1.411-7.09 2.108-4.84.093-4.19.081-7.21-.927-2.12-.273-8.02-1.9-8.94-2.832-8.73-3.673-7.27-3.977ZM1693 308.647l-.19-9.998-.02-.878M1677.86 354.412l4.56-8.896.54-1.044 3.83-8.899M1619.93 212.897l-9.2-3.904-1.98-.839M1762.78 308.153l.07 3.261.08 4.142.09 4.387.17.932.77 1.332.32 4.464.07 4.646.2 1.451-.12 1.355-.98 4.772-1.22 4.8-.71 1.576-1 1.4-2.15 4.532-2.16 4.382-.62 1.91-.16.361-1.66 3.639-1.53 3.375M1702.88 321.652l-2.81 5.895-.31 4.655-1.71 5.882-1.57 5.744"/><path d="m1708.23 357.901 1.22-4.263-.06-4.019.38-4.388.85-4.301 1.24-4.514 1.36-4.621.25-3.655 2.22-4.627 2.64-3.051 2.81-4.09 3.11-3.768 3.39-3.409 1.37-1.388 2.53-.926 3.54-1.801 3.64-1.476 3.74-.981 3.09-.864 1.89-.782 3.11.541 3.08 1.317 2.98 1.797 2.83 2.259 2.56 1.53.78-.267.1-6.051M1757.27 356.844l2.74-5.75 1.26-1.778.91-2 1.55-6.094 1.24-6.063M1732.21 296.274l-4.65 1.881-4.51 2.295-3.23 1.179M1753.75 364.821l.79-2.42M1747.29 293.626l-3.97-.695-2.4.995M1749.5 374.159l1.94-4.273M1713.5 389.158l4.24.355 4.52-.155 1.29-.955 2-1.499 4.54-1.959 4.66-2.422 4.74-2.863M1694.28 368.98l1.3 4.563 2.17 3.477 2.78 2.669 2.81 3.116M1695.42 349.297l-.46 5.577.08 5.103-1.53 5.411M1764.79 325.684l-.42-5.68-.97-1.697M256.691 947.868l.378.364 4.546 3.936 4.679 3.614 4.769 3.26 4.816 2.873 4.817 2.461 5.088 2.581 5.438 2.305 5.342 1.787 6.751 2.028 5.78 1.391 7.554 1.089 6.078.853 5.79.176 8.58.084 5.857-.542 8.876-1.032 5.765-1.348 8.95-2.157 8.607-3.175 5.721-2.292 8.33-4.213 5.257-3.182 7.857-5.173 7.18-5.996 4.698-4.07 6.421-6.741 3.962-4.835 5.527-7.327 4.6-7.857 3.087-5.363 3.534-8.128 2.244-5.815 2.413-8.187 1.415-6.101 1.278-8.024.632-6.213.157-7.636-.072-6.142-.736-6.452-.845-6.47-1.271-6.116-.785-2.647-1.076-3.631M443.368 825.685l-.254-.796-2.177-5.707-2.668-5.737-3.135-5.709-3.57-5.625-.572-.838M420.535 788.195l-1.365-1.478-4.289-4.127-1.18-1.009-2.593-2.211-2.544-2.169-.965-.726-2.15-1.615M385.117 763.203l-2.462-1.113-.306-.138-.556-.251-.017-.008-6.068-2.299-5.948-1.69-6.731-1.72-6.316-1.167-7.521-.78-6.521-.511-8.098.248-6.55.254-8.449 1.329-6.405 1.094-8.57 2.432-6.091 1.977-8.464 3.516-5.623 2.866-8.144 4.548-7.608 5.474-5.038 3.742-6.965 6.333-4.279 4.501-6.163 7.05-5.318 7.731-3.368 5.026-4.298 8.16-2.508 5.483-3.197 8.39-1.666 5.786-2.055 8.408-.874 5.925-.902 8.203-.159 5.898.226 7.777.451 5.704 1.042 5.957 1.197 6.529 1.457 5.53 1.962 5.657 1.882 4.916 2.149 5.033 2.556 5.053 2.936 5.027.255.384"/><path d="m386.79 762.715-1.318-.359-3.679-.655M411.107 779.37l-1.232-3.322-.597-.51-.646-.555-1.318-1.041-2.007-1.529-1.359-1.006-2.118-1.259-2.96-1.843-1.501-.804-3.202-1.781-1.119-.537-2.863-1.352-.619-.236-2.154-.773-.623-.107-2.393-.411-.105-.018-1.943-.334"/><path d="m384.855 763.093.283.134.978.462M396.434 769.061l3.948 2.458 2.826 1.678 1.812 1.343M429.482 798.593l-.697-1.285-.801-1.156-.546-.782M444.231 828.002l-.366-.818-.136-.371-.436-1.186-.29-.648-1.054-2.138"/><path d="m442.949 825.168-.897-2.064-.106-.263-.063-.154-.731-1.802-.855-1.838-1.226-2.635-.311-.67-.586-1.065-1.439-2.622-.785-1.43-.171-.269-1.061-1.756-.18-.298-.319-.528M445.477 834.563l.779 2.119M435.199 813.689l.234.369.805 1.464.271.494M439.281 821.063l.426.917 1.679 3.604 1.17 2.513 1.231 3.033 1.225 2.815M431.152 806.747l.136-.118 1.056-.921.484-.421.04-.161.017-.067.002-.006-.003.003-.039.032-.569.472-1.042.866M422.371 791.311l.275.771-.172.205 1.311 1.6 1.73 2.111 1.221 1.818.442.66-.041.079-.163.316.922 1.897 1.946 3.248"/><path d="m433.807 806.736-.92-1.683-.043-.073-.974-1.687-.174-.291-1.247-2.081M431.767 802.745l-.777-1.471-1.069-2.026-.44-.654-.776-1.156-.368-.449-.294-.359-.458-.559-.009-.011-.068-.083-.067-.082-.403-.492-.554-.676M420.246 787.971l-.082-.028.225.289.568.616.582 1.076.333.555M427.586 796.07l-1.183-2.061-.068-.115-.542-.9M420.957 788.848l.418.318.184.14 3.453 2.63.352.268-.416-.45-.168-.214"/><path d="m424.95 791.754-.078-.06-3.859-2.982-.032-.024-.59-.456"/><path d="m428.337 796.988-.901-1.618-.754-1.353-.607-.981-.537-.78-.437-.456-.265-.243-4.303-3.362-.287-.224M445.758 833.437l-1.621-6.195-.77-1.556M434.721 808.6l-.279-.498-.676-1.205.025-.1.016-.061M431.696 803.002l-.028-.058.073-.145.028-.055M232.754 899.168l.815 9.54.472 3.747.784 3.655.549 2.842 1.249 3.688 1.368 2.827.564 1.164 2.116 3.701 2.348 3.501 2.765 3.635 2.664 3.035 3.278 3.271 2.954 2.579 2.013 1.515 1.548 1.165 3.238 2.118 3.783 2.043 3.774 1.674 3.353 1.199 3.766.949 9.597 2.279"/><path d="m233.57 908.708-.144-3.619.036-.694.144-2.767.495-3.277.864-2.885 1.512-1.432 1.589-1.62 2.021-2.34 2.331-1.963 2.159-1.541 2.328-1.249 2.472-.954 2.597-.655 3.587-.124 3.176.419 2.741 1.058 2.705 1.182 3.147 1.573 3.703 2.176 2.63 1.755 2.589 1.844 2.849 2.186 3.677 3.172 2.387 2.295 2.341 2.374 2.398 2.582 3.214 3.865 2.086 2.812 1.948 2.812 1.876 2.908 1.378 3.971.931 3.86.321 3.198.036 3.145-.253 3.065-.526 3.061-.787 3.376-1.202 2.942-.208 2.502-.623 2.39-2.163 1.907-2.436 1.615-2.693 1.304-2.927.974-3.142.63-2.861.306-2.293.523-.839-.086-2.585-.268M317.338 921.152l-1.15-4.823-1.711-4.963M238.35 878.804l-1.979 2.033M314.246 944.608l1.515-3.67M279.523 875.643l-4.628-2.708-3.934-1.954M294.2 886.815l-4.595-3.96M303.102 895.872l-2.993-3.225M361.067 930.374l-.23-.714-.454-.762-.992-2.488-1.165-2.367-.897-.649-.29-.501-.776-2.419-.732-2.283M353.672 919.887l.453 1.408.575 1.79.61 1.898.227.393.706.509.915 1.857.78 1.953.357.599.181.56.284 2.013.129 2.044-.163.693-.336.622-.379 1.937-.416 1.88.032.796-.011.148-.109 1.492-.102 1.386"/><path d="m330.606 942.646-.14-1.77-.738-1.66-.509-1.846-.258-1.81-.022-1.932.022-1.977-.328-1.586.589-2.039 1.023-1.372 1.026-1.842 1.218-1.705 1.398-1.55.567-.632 1.299-.48 1.774-.898 1.857-.755 1.954-.537 1.61-.466 1.023-.427 1.873.107 1.934.451 1.921.669 1.89.88 1.655.57.43-.151 1.283-3.492M326.73 946.821l1.649 1.81 1.894 1.359 2.106 1 2.232 1.177 1.638.941.818.61M360.953 937.213l.428-.793.208-.882M336.74 914.99l-2.369.963M339.469 954.124l2.475.201 2.526-.005 2.554-.212.49-.411.811-.666 2.252-.972 2.194-1.152 2.117-1.32 1.854-.383 1.726-.533 1.228-1.743.13-1.762.141-1.897.014-.188M349.892 914.738l-2.449-.855-2.465-.577-2.388-.137-1.305.543M324.449 941.024l.943 2.113M1384.42 284.02l-7.18-6.965-7.17-6.965-7.18-6.965-6.18-5.999-6.96 7.175-6.97 7.176-6.97 7.175-3.69 3.804-2.3 2.376 7.17 6.965 7.18 6.965 7.17 6.965 3.67 3.558 2.51 2.441 6.97-7.175 6.96-7.176 6.97-7.175 6-6.18ZM1351.09 252.142l-7.18-6.965-7.17-6.965-2.21-2.146-6.97 7.175-6.96 7.176-2.15 2.21 7.17 6.966 7.18 6.965 2.21 2.145 6.97-7.175 6.96-7.175 2.15-2.211ZM1369.63 237.41l-7.18-6.965-4.15-4.032-6.97 7.175-4.03 4.154 7.18 6.965 4.15 4.032 6.96-7.176 4.04-4.153ZM69.348 115.66l6.982 7.159 6.982 7.159 6.982 7.159 6.982 7.159 6.983 7.159 6.982 7.159 6.982 7.159 6.982 7.159 6.982 7.159 6.982 7.159 6.982 7.159 6.982 7.158 6.983 7.159 6.982 7.159 6.982 7.159 6.982 7.159 6.982 7.159 6.982 7.159 6.982 7.159 6.982 7.159 6.982 7.159 6.983 7.159 6.982 7.159 6.982 7.158 6.982 7.159 6.982 7.159 6.982 7.159 6.982 7.159 6.982 7.159 6.982 7.159 6.983 7.159 6.982 7.159 6.982 7.159 6.982 7.159 6.982 7.159 6.982 7.158 6.982 7.159 6.982 7.159 6.982 7.159 6.983 7.159 6.982 7.159 6.982 7.159 6.982 7.159 6.982 7.159 6.982 7.159 6.982 7.159 6.982 7.159 6.982 7.158 6.983 7.159 6.982 7.159 6.982 7.159 6.982 7.159 6.982 7.159 6.982 7.159 6.982 7.159 6.982 7.159 6.983 7.159 6.982 7.159 8.715 8.936 7.071-7.072 3.404-3.404-7.159-6.982-7.159-6.982-7.159-6.982-7.159-6.982-7.158-6.982-7.159-6.982-7.159-6.983-7.159-6.982-7.159-6.982-7.159-6.982-7.159-6.982-7.159-6.982-7.159-6.982-7.159-6.982-7.159-6.982-7.159-6.983-7.159-6.982-7.158-6.982-7.159-6.982-7.159-6.982-7.159-6.982-7.159-6.982-7.159-6.982-7.159-6.982-7.159-6.983-7.159-6.982-7.159-6.982-7.159-6.982-7.159-6.982-7.158-6.982-7.159-6.982-7.159-6.982-7.159-6.983-7.159-6.982-7.159-6.982-7.159-6.982-7.159-6.982-7.159-6.982-7.159-6.982-7.159-6.982-7.159-6.982-7.158-6.983-7.159-6.982-7.159-6.982-7.159-6.982-7.159-6.982-7.159-6.982-7.159-6.982-7.159-6.982-7.159-6.982-7.159-6.983-7.159-6.982-7.159-6.982-7.158-6.982-7.16-6.982-7.158-6.982-7.16-6.982-7.158-6.982-8.936-8.716ZM111.496 328.525l6.982 7.159 6.982 7.159 6.982 7.159 6.982 7.158 6.983 7.159 6.982 7.159 6.982 7.159 6.982 7.159 6.982 7.159 6.982 7.159 6.982 7.159 6.982 7.159 6.982 7.159 6.983 7.159 6.982 7.159 6.982 7.158 6.982 7.159 6.982 7.159 6.982 7.159 6.982 7.159 6.982 7.159 6.982 7.159 6.983 7.159 6.982 7.159 6.982 7.159 6.982 7.159 6.982 7.158 6.982 7.159 6.982 7.159 6.982 7.159 6.983 7.159 6.982 7.159 6.982 7.159 6.982 7.159 6.982 7.159 6.982 7.159 6.982 7.159 6.982 7.159 6.982 7.159 6.983 7.158 6.982 7.159 6.982 7.159 6.982 7.159 6.982 7.159 6.982 7.159 6.982 7.159 6.982 7.159 6.982 7.159 6.983 7.159 6.982 7.159 6.982 7.159 6.982 7.158 6.982 7.159 6.982 7.159 6.982 7.159 6.982 7.159 6.982 7.159 6.983 7.159 8.715 8.936 7.071-7.071 3.404-3.404-7.159-6.983-7.159-6.982-7.159-6.982-7.159-6.982-7.159-6.982-7.158-6.982-7.159-6.982-7.159-6.982-7.159-6.983-7.159-6.982-7.159-6.982-7.159-6.982-7.159-6.982-7.159-6.982-7.159-6.982-7.159-6.982-7.159-6.982-7.159-6.983-7.158-6.982-7.159-6.982-7.159-6.982-7.159-6.982-7.159-6.982-7.159-6.982-7.159-6.982-7.159-6.982-7.159-6.983-7.159-6.982-7.159-6.982-7.158-6.982-7.159-6.982-7.159-6.982-7.159-6.982-7.159-6.982-7.159-6.982-7.159-6.983-7.159-6.982-7.159-6.982-7.159-6.982-7.159-6.982-7.159-6.982-7.159-6.982-7.158-6.982-7.159-6.982-7.159-6.983-7.159-6.982-7.159-6.982-7.159-6.982-7.159-6.982-7.159-6.982-7.159-6.982-7.159-6.982-7.159-6.982-7.159-6.983-7.158-6.982-7.159-6.982-7.159-6.982-7.159-6.982-8.936-8.715ZM1407.23 223.615l-7.16-6.982-7.16-6.982-7.15-6.982-7.16-6.982-7.16-6.982-5.19-5.062 6.98 7.159 6.98 7.158 6.98 7.159 6.99 7.159 6.98 7.159 5.86 6.006M1637.09 461.341l6.98 7.158 6.98 7.159 6.98 7.159 6.98 7.159 6.99 7.159 6.98 7.159 6.98 7.159 6.98 7.159 6.98 7.159 6.99 7.159 6.98 7.159 6.98 7.159 6.98 7.159 2.36 2.416 7.07-7.072 2.15-2.144-7.16-6.982-7.16-6.982-7.16-6.983-7.16-6.982-7.16-6.982-7.16-6.982-7.16-6.982-7.15-6.982-7.16-6.982-7.16-6.982-7.16-6.982-7.16-6.983-3.73-3.634"/><path d="m1332.13 282.456-7.16-6.983-7.16-6.982-7.16-6.982-7.16-6.982-7.16-6.982-7.16-6.982-7.16-6.982-7.16-6.982-7.15-6.983-7.16-6.982-7.16-6.982-7.16-6.982-7.16-6.982-7.16-6.982-7.16-6.982-7.16-6.982-7.16-6.982-7.15-6.983-7.16-6.982-7.16-6.982-7.16-6.982-7.16-6.982-7.16-6.982-7.16-6.982-7.16-6.982-7.16-6.982-7.15-6.983-7.16-6.982-7.16-6.982-7.16-6.982-7.16-6.982-7.16-6.982-7.16-6.982-7.16-6.982-7.16-6.982-7.16-6.983-7.15-6.982-7.16-6.982-7.16-6.982-7.16-6.982-7.16-6.982-7.16-6.982-7.16-6.982-7.16-6.983-7.16-6.982-7.15-6.982-7.164-6.982-7.159-6.982-4.384-4.276 6.982 7.16 6.982 7.157 6.983 7.16 6.98 7.158 6.98 7.16 6.99 7.158 6.98 7.16 6.98 7.158 6.98 7.16 6.98 7.158 6.99 7.16 6.98 7.158 6.98 7.16 6.98 7.157 6.98 7.16 6.99 7.158 6.98 7.16 6.98 7.158 6.98 7.16 6.99 7.158 6.98 7.16 6.98 7.158 6.98 7.159 6.98 7.159 6.99 7.158 6.98 7.159 6.98 7.159 6.98 7.159 6.98 7.159 6.99 7.159 6.98 7.159 6.98 7.159 6.98 7.159 6.98 7.159 6.99 7.159 6.98 7.159 6.98 7.158 6.98 7.159 6.99 7.159 6.98 7.159 6.98 7.159 6.98 7.159 6.98 7.159 6.99 7.159 6.98 7.159 6.98 7.159 6.98 7.159 6.98 7.159 6.99 7.159 6.98 7.158 6.98 7.159 7.88 8.076 6.93-6.933M426.333 793.894l-.97-1.69M622.566 445.67l.693 1.24 2.422 4.334M635.043 465.13l.007.01.008.012.781 1.159 5.588 8.293 5.588 8.293 1.308 1.941M728.41 337.801l.11.161M730.855 339.168l-.175-.216M736.008 342.05l-5.154-2.882-.225-.126M743.043 346.749l-.553-.373-2.107-1.42M946.043 792.802l1.908 1.563 1.301 1.064M1071.6 658.813l.32.166M1073.04 667.245v-.001M1080.99 689.798l1.65-3.071M962.379 805.25l8.565 5.161 8.565 5.162 8.565 5.161 8.565 5.162 8.561 5.161 8.57 5.162 8.56 5.161 8.57 5.161 8.56 5.162 8.57 5.161 8.56 5.162 8.57 5.161 8.56 5.162 8.57 5.161 8.56 5.161 2.82 1.698 2.7 1.627M1084.48 670.172l-.35-.572-3.85-6.399M1175.59 838.337v-.002M1178.79 833.735v-.001M1179.46 825.402l.09-.102M1182.03 827.323l.03-.042M1179.3 821.515l-.5-.907-4.89-8.727-1.7-3.054M1193.54 889.128l1.97 1.87"/></g><defs><clipPath id="a"><path fill="#fff" d="M0 0h1920v1080H0z"/></clipPath></defs></svg>