<svg width="1920" height="1080" fill="none" xmlns="http://www.w3.org/2000/svg"><g clip-path="url(#a)" stroke="#EFC018" stroke-width="5" stroke-linejoin="round"><path d="m1085.01 669.379-.77.425M1090.17 675.423l.01-.001-.03-.135-.11-.222-.2-.301-.2-.268v-.001l-.08-.1-.35-.421-.4-.459-.45-.477-.47-.479-.47-.462-.46-.427-.43-.375-.38-.31-.32-.232-.25-.146-.16-.053-.55.295-.4.211v.001"/><path d="m1090.17 675.422-.07.042-.16-.053-.24-.145-.32-.232-.03-.018v-.001l-.36-.29-.43-.376-.46-.428-.47-.463-.47-.48-.45-.479-.4-.459-.35-.422-.28-.368-.2-.301-.11-.221-.02-.132v-.002l.01-.009.06-.031M1086.53 682.251l1.99-3.582.06-.213-.02-.129-.02-.168-.13-.372-.22-.43-.06-.089v-.002l-.24-.382-.37-.498-.43-.503-.05-.061-.01-.002-.4-.426-.48-.457-.49-.407-.47-.341-.43-.263-.38-.174-.32-.078-.22.019-.02.002-.29.142v.001l-.08.039-.79.4-.01.001-.06.033v.002"/><path d="M1088.52 678.668v.001l-.15.118-.06.006-.18.016-.12-.03v-.001l-.19-.047-.39-.173-.43-.262-.47-.342-.41-.347-.01-.001-.07-.059-.48-.458-.47-.491-.42-.504-.37-.499-.3-.473-.22-.431-.13-.371-.04-.287v-.01l.03-.097v-.002l.03-.11v-.002l.14-.111.01-.007M1083.03 687.224l1.84-3.371.13-.288.04-.368-.06-.439-.17-.488-.2-.429-.01-.006-.04-.088-.34-.534-.4-.528-.46-.5-.49-.451-.4-.3-.11-.088-.51-.31-.49-.218-.01-.003-.01-.003-.18-.047-.24-.064-.39-.014-.31.089-2.29 1.044"/><path d="M1084.87 683.852v.002l-.23.191-.31.092-.39-.014-.45-.117-.48-.217-.51-.309-.51-.389-.5-.453-.46-.501-.4-.528-.24-.382-.1-.154-.25-.523-.16-.49-.07-.437.04-.369.13-.283.01-.003.22-.184.01-.008M1077.98 693.437l1.52-2.949.11-.435v-.499l-.11-.543-.21-.567-.3-.569-.39-.55-.45-.508-.51-.448-.53-.371-.55-.279-.53-.177-.15-.021-.35-.047-.46.045-.69.271"/><path d="m1079.51 690.488-.02.031-.19.323-.01.003-.29.257-.39.156-.45.045-.25-.032-.01-.002-.24-.033-.54-.176-.55-.279-.53-.371-.51-.45-.45-.509-.39-.551-.3-.57-.21-.568-.11-.543v-.499l.11-.434.21-.35v-.004l.15-.131.15-.127v-.001l.39-.154M1066.58 695.409l.17-.491.11-.171.01-.008.15-.229v-.004l.37-.317.41-.195.04-.016.51-.095.55.024.58.141.58.254.56.356.51.444.45.517.37.569.27.598.17.606.06.59-.06.552-.16.491-.02.017-.26.396v.004l-.37.314-.26.125-.01.004-.17.082M1068.91 699.646l-.55-.356-.52-.445-.45-.518-.37-.57M1071.05 701.58l1.18-2.556M1062.92 710.295l.68-1.911.11-.594-.02-.628-.14-.638-.25-.622-.35-.585-.45-.523-.52-.442-.57-.344-.61-.233-.61-.113-.6.012"/><path d="m1063.6 708.385-.04.097-.18.44-.33.457v.008l-.42.36-.5.256-.57.137-.6.012-.61-.112-.61-.233-.57-.344-.52-.443-.45-.524-.35-.585-.25-.623-.14-.639-.01-.628.1-.594.22-.537.33-.454v-.005l.43-.365.14-.072.01-.008.35-.175.49-.119.07-.017M1053.51 719.849l.14-1.178.02-.655-.11-.66-.23-.641-.34-.595-.44-.528-.53-.441-.59-.335-.63-.218"/><path d="m1053.65 718.671-.01.078-.12.494-.01.045v.008l-.26.57-.37.494-.01.004-.46.394-.55.288-.6.166-.63.038-.65-.092-.63-.218-.59-.335-.52-.441-.45-.529-.34-.596-.23-.641-.11-.661.02-.655.14-.625.27-.57.37-.488v-.005l.47-.398.54-.287.61-.166.56-.033.03-.002.04-.002.49.069.15.023"/><path d="m1052.87 720.364-.01.006-.46.398-.55.288-.6.166-.64.038-.64-.092-.63-.218-.59-.335-.52-.441-.45-.529-.34-.596-.23-.641-.11-.661.02-.655.14-.625.27-.57.37-.493v-.005l.47-.393M1053.32 716.725l.23.641.11.66-.01.655M1049.52 714.553l.59-.035.03-.002h.01l.64.092.63.218M1063.05 709.385v.005l-.43.365-.5.256-.56.137-.6.012-.62-.112-.61-.233-.57-.344-.52-.443-.45-.524-.35-.585-.25-.623-.14-.639-.01-.628.1-.594.22-.537.33-.459.01-.004.42-.36.16-.081.01-.007M1063.3 705.911l.25.623.13.637.02.628-.11.594-.22.537-.32.445M1059.02 703.821l.56-.136.6-.012M1072.22 699.033l-.27.409-.01.004-.37.318-.25.122-.01.003-.18.086-.52.097-.55-.023-.58-.141-.58-.253-.56-.357-.51-.445-.45-.518-.37-.57-.27-.599-.17-.607-.06-.591.06-.551.17-.491.12-.179v-.009l.15-.224v-.004l.37-.313.45-.211.51-.095.55.024.58.141.58.254.56.356.51.444.45.517.37.569.27.598.17.607.06.59-.06.551-.16.491Zm0 0-.01.009M1067.83 693.985l-.03.008M1079.29 690.845v.004l-.3.26-.39.155-.45.046-.24-.031v-.002l-.26-.034-.54-.176-.54-.279-.54-.372-.5-.449-.46-.509-.38-.551-.31-.57-.21-.568-.1-.544v-.498l.1-.434.21-.354v-.003M1076.56 685.725l.54.28.54.37.5.449.45.508.39.55.3.569M1079.49 689.018l.11.543M1075.52 685.48l.35.046.16.022M1084.6 681.835l.21.439.16.49.07.437-.04.37-.13.283v.003l-.23.193-.32.092-.38-.013-.45-.118-.49-.217-.51-.309-.51-.389-.49-.453-.46-.5-.41-.529-.24-.389-.09-.147-.26-.523-.16-.49-.06-.437.04-.369.13-.286v-.002l.23-.189.32-.091M1081.16 678.771l.19.049v.003h.01l.48.219.51.309.12.089.39.299.5.451.46.5.4.528.34.535M1088.52 678.669v.003l-.15.119-.07.006-.17.015-.12-.028v-.001l-.2-.048-.38-.173-.44-.262-.46-.342-.42-.347v-.001l-.07-.06-.49-.457-.46-.491-.43-.504-.37-.499-.3-.474-.22-.43-.13-.371-.03-.294v-.003l.02-.102v-.002l.03-.108.01-.001M1088.41 677.791l.13.371.02.169M1083.84 673.696l.22-.018.31.078M1086.15 674.94l.48.456.41.427M1089.56 674.397l.07.099.01.001.2.269.2.301.11.222.02.133v.002l-.07.041-.16-.052-.24-.145-.32-.232-.03-.018v-.001l-.36-.29-.43-.376-.46-.428-.47-.463-.47-.48-.45-.479-.4-.459-.35-.422-.28-.368-.2-.301-.11-.221-.02-.134.07-.04.16.053.25.146.32.232.38.31.43.375.46.427.47.462.47.479.45.477.4.459"/><path d="m1089.64 674.496.17-.319.01-.037-.09-.127-.17-.214-.26-.291-.33-.358-.39-.411-.43-.448-.47-.468-.47-.469-.47-.453-.44-.419-.39-.37-.34-.305-.27-.229-.19-.144-.1-.055v.001l-.77.424M955.219 801.648l.053-.084v-.002l.103.005.004.001h.04l.234.101.313.188.38.271.431.341.467.401.484.444.483.469.463.477.13.141.003.004.293.321.371.438.303.392.067.1.155.232.135.258.04.174-.054.086h-.001l-.148-.008-.235-.101-.313-.188-.174-.125h-.001l-.204-.146-.431-.343-.466-.399-.483-.442-.482-.469-.462-.475-.425-.465-.371-.438-.302-.391-.224-.333-.135-.258-.041-.177Zm0 0 .009-.016"/><path d="m960.117 806.406 2.147-1.207 1.422-.799M953.723 801.56l.067.087.158.175.241.258.316.331.379.39.427.436.458.464.473.474.468.466.446.441.406.397.351.339.282.268.203.186.116.098.023.005M958.539 806.374l.706-.389M989.645 774.114l-.016.609.11.623.231.612.343.578.443.521.524.446.587.352.626.245.642.129.632.008.6-.114 1.827-.617"/><path d="m989.645 774.114.14-.573.089-.175.171-.338.37-.436.465-.34.542-.232.6-.114.633.007.642.129.627.245.587.352.526.446.443.522.343.579.231.613.109.623-.016.609-.141.573-.261.514-.37.434-.145.106-.32.234-.543.231M954.339 800.425l-.616 1.135M960.113 806.406h-.001l-.148-.007-.235-.101-.313-.189-.174-.124-.001-.001-.205-.146-.43-.342-.466-.4-.484-.442-.481-.468-.462-.476-.425-.466-.371-.436-.303-.392-.223-.332-.135-.259-.041-.176.011-.018.042-.068h.002M956.773 802.471l.467.401.484.443.483.469.463.477.128.141.003.003.294.322.372.438M960.129 806.146l.041.176M960.113 806.406h.002M959.1 798.847l-.001.002-.295.601-.002.005-.079.16-.001.003-.038.077-.032.253.035.169v.004l.033.158.165.396.168.292.088.153.337.477.148.18.002.002.255.309.457.487.492.463.247.205.001.001.248.205.003.003.009.007.504.364.001.001.483.293.441.211.382.12.31.024.223-.071h.003l3.554-1.998"/><path d="m958.684 799.694.05-.064.002-.002.078-.101.056-.018.006-.002.163-.053.309.024.383.119.441.21.128.078.01.006.345.21.506.364.057.048.008.007.002.001.442.367.493.464.362.385.006.007.091.096.405.492.337.478.256.445.164.396.067.33-.007.053v.007l-.026.193-.073.093-.001.001-.056.071-.001.001M964.405 794.977l-.002.006-.329.743-.022.072-.002.006-.077.251.004.401.111.457.211.496.068.115.237.401.386.517.007.007.001.001.445.488.502.459.532.401.025.016.517.315.53.246.499.152.449.052.381-.049.298-.149 3.328-1.828"/><path d="m964.074 795.725.203-.244.297-.15.381-.05.448.052.5.151.531.246.502.306.041.025.533.402.503.459.454.498.095.128.291.389.305.517.211.497.11.458.003.4-.102.328-.204.243M971.079 790.237l-.052.466.06.515.172.544.275.552.369.54.449.506.511.454.554.383.575.298.574.202.552.097.508-.01.445-.118 2.888-1.493"/><path d="m971.082 790.238.164-.399.269-.316.363-.222.445-.119.112-.003.396-.009.552.097.575.202.576.298.555.384.512.454.449.507.37.541.275.553.171.545.054.463.006.052-.054.466-.164.398-.27.316-.364.221M979.773 782.657l-.101.524.018.566.137.587.251.585.354.56.446.515.518.449.572.366.604.27.612.162.597.049.558-.067.5-.179 2.483-1.13"/><path d="m979.773 782.657.218-.461.325-.381.113-.077.307-.21.499-.18.559-.067.597.048.613.162.605.269.573.367.519.449.446.516.355.561.251.586.136.587.018.567-.103.524-.147.311-.071.15-.326.38-.421.286M1000.68 765.08l.02.06.19.573.34.591.44.527.53.443.59.341.65.227.66.103.66-.024 1.09-.065"/><path d="m1000.68 765.08-.03-.158-.06-.492.03-.642.17-.61.29-.554.4-.478.5-.381.57-.271.63-.151.66-.025.4.063.26.04.64.227.6.341.53.443.44.528.34.591.21.634.09.65-.04.643-.16.61-.29.554-.41.477-.49.381-.58.271-.46.112-.16.038M1014.4 756.424l-.6-.334-.53-.441-.44-.53-.34-.6-.21-.647-.08-.668.06-.664.18-.635.3-.581.42-.504.51-.409.59-.297.64-.175.67-.045.68.086.65.214.6.334.53.44.44.531.33.6.21.647.08.668-.05.665-.18.635-.31.58-.41.505-.52.408-.58.298-.65.174-.67.045-.67-.086-.65-.214ZM1026.29 744.651l-.6-.331-.53-.439-.44-.532-.33-.604-.21-.653-.08-.676.05-.674.18-.645.31-.593.41-.516.52-.421.59-.309.64-.185.67-.055.68.079.65.208.6.33.53.44.44.532.33.604.21.652.08.676-.05.674-.18.645-.31.593-.42.516-.51.421-.59.31-.64.185-.67.054-.68-.078-.65-.208ZM1038.07 732.692l-.6-.331-.53-.44-.44-.531-.33-.602-.22-.651-.09-.674.04-.671.17-.642.29-.588.4-.513.5-.418.58-.305.63-.182.65-.052.67.081.64.209.6.331.53.44.44.531.34.602.21.65.09.673-.04.671-.17.642-.29.589-.4.513-.5.418-.57.306-.63.182-.66.052-.67-.08-.64-.21ZM724.342 335.565l-8.728-4.882-6.374-3.566-8.883-4.592-8.883-4.593-8.883-4.592-4.38-2.264-8.915-4.53-8.915-4.529-8.916-4.53-4.468-2.27-9.162-4.006-9.163-4.006-9.163-4.005-5.269-2.304-9.574-2.887-9.574-2.887-9.575-2.887-9.574-2.888-9.574-2.887-9.574-2.887-9.574-2.887-3.444-1.038 2.858 9.583 2.858 9.583 2.858 9.583 2.858 9.582 2.858 9.583 2.858 9.583 2.858 9.583.684 2.293 3.998 9.166 3.999 9.165 3.999 9.166 2.169 4.973.64 1.318 4.527 8.917 4.527 8.916 4.528 8.917 2.264 4.46 4.59 8.884 4.59 8.885 4.59 8.884 2.261 4.376 4.881 8.728 3.179 5.686M1084.87 670.848l-.63-1.045-4.08-6.769-1.81.427M1078.97 664.22l-.36 2.023-2.91 4.516-5.36 6.877-5.12 6.012-.8.947-1.74 2.043-.82.91-3.07 3.421-.97 1.089-4.04 4.508-.78.861-2.59 2.781-.62.666-5.01 5.386-3.09 3.316-.9.944-.16.159-5.6 5.839-4.39 4.577-1.44 1.492-4.44 4.505-4.61 4.675-4.08 4.144-1.89 1.861-4.66 4.603-5.95 5.883-.74.726-3.8 3.652-.009.009-1.74 1.671-4.032 3.874-.009.009-.232.222-.009.009-2.937 2.822-1.172 1.09-.009.009-2.159 2.009-3.113 2.896-.008.008-.74.688-.008.008-3.554 3.307-.008.007-.996.927-1.627 1.453-1.672 1.494-.007.006-1.133 1.012-.007.006-3.45 3.082-.007.007-2.38 2.126-.212.178-.006.005-.712.599-.004.004-7.459 6.279-6.192 4.691-3.782 2.172-1.27-.384"/><path d="m947.877 794.524-.689 1.592 1.284.399 3.844-2.203 6.299-4.771 7.651-6.44.599-.503.003-.004.291-.244.657-.587.007-.005 2.758-2.464.007-.006 3.302-2.95.008-.006 1.154-1.031.006-.007 1.773-1.582.799-.715 1.792-1.667.008-.008 3.49-3.246.009-.008.74-.688.008-.008 3.154-2.934 2.151-2.002.008-.008.627-.583 3.458-3.322.009-.009.231-.223.011-.009 4.031-3.873 1.747-1.678.008-.009 3.508-3.374 1.03-1.016 5.94-5.868 4.68-4.619 1.84-1.815 4.11-4.174 4.63-4.691 4.64-4.71 1.22-1.268 4.41-4.593 5.6-5.839.14-.147 1.35-1.407 2.65-2.843 5.04-5.418.62-.666 3.21-3.448.12-.132 4.11-4.576.99-1.111 2.96-3.295 1.68-1.873 1.03-1.215.99-1.164 5.77-6.785 5.46-6.998 2.95-4.591.37-2.052M1071.18 654.703l-.71-.874-.22-.263-6.33-7.739-6.33-7.739-6.34-7.739-6.33-7.739-3.31-4.042-6.5-7.601-6.49-7.601-6.5-7.6-6.5-7.601-6.5-7.6-5.39-6.298-6.673-7.444-6.677-7.444-6.678-7.444-6.677-7.445-6.677-7.444-5.471-6.099-6.852-7.283-6.852-7.284-6.852-7.284-6.852-7.283-6.852-7.283-5.574-5.925-7.471-6.647-7.471-6.648-7.47-6.647-7.471-6.648-7.471-6.647-6.131-5.456-7.696-6.384-7.697-6.385-4.582-3.801-7.697-6.385-7.696-6.385-7.696-6.384-1.854-1.538-8.065-5.912-8.065-5.912-8.065-5.913-8.065-5.912-8.065-5.912-7.097-5.202-8.292-5.589-5.747-3.873-8.293-5.589-8.292-5.589-7.598-5.121-.004-.002-.389-.262-.001-.001-1.313-.885M629.152 456.428l1.087 1.614.352.521M740.616 345.129l-2.275-.126-4.378 2.039-6.342 4.16-6.064 4.612-1.265.962-.752.572-2.268 1.886-2.265 1.882-1.021.849-3.959 3.291-.287.254-3.043 2.696-.43.381-4.35 3.853-2.46 2.18-1.95 1.819-3.71 3.46-5.535 5.162-.097.096-2.702 2.638-6.458 6.306-2.097 2.049-.112.114-6.235 6.366-2.818 2.878-1.875 1.914-3.241 3.469-.007.007-2.005 2.145-1.146 1.228-.432.462-.008.008-3.424 3.665-.432.488-.006.007-1.717 1.94-2.162 2.442-.007.008-.479.541-.006.008-2.489 2.811-.006.007-1.759 1.988-.105.126-1.621 1.964-.006.007-.898 1.088-.006.006-1.867 2.261-.005.006-2.197 2.66-.004.005-.024.029-.766.927-.172.231-.003.003-5.471 7.327-3.589 5.757-1.421 3.752.767 1.633"/><path d="m742.511 346.405.557-1.178-.111-2.356-2.246-1.734-2.358-.155-2.374 1.094-2.166.998-5.221 3.406-.802.524-.557.363-.781.593-.614.466-1.802 1.366-.272.206-2.668 2.023-1.25.948-.999.757-.415.344-1.003.832-2.416 2.005-3.965 3.289-.089.073-1.986 1.648-.287.254-7.49 6.626-3.195 2.828-7.315 6.818-4.306 4.012-7.155 6.986-4.63 4.521-6.997 7.145-4.459 4.555-6.825 7.309-3.821 4.093-6.623 7.492-.674.763-.005.005-2.094 2.369-.201.244-.006.008-.221.268-.008.01-2.822 3.424-.005.005-2.004 2.432-.004.005-.815.988-.005.006-1.213 1.472-.004.006-.459.556-.349.469-.003.005-2.049 2.753-.001.001-.003.004-1.369 1.84-.004.004-.509.685-.004.005-.663.891-.002.003-.273.367h-.001l-.609.819-3.701 5.972-.066.176-1.384 3.715.819 1.693 1.733 2.246 3.021-.548.329-.176"/><path d="m742.955 342.872-2.355-.146-4.548 2.111-6.597 4.323-5.032 3.826-.183.139-2.744 2.086-.454.345-.902.749-3.259 2.708-2.147 1.785-1.019.847-2.584 2.147-1.628 1.442-3.231 2.862-.339.3-4.153 3.679-1.665 1.474-3.046 2.841-3.256 3.037-5.368 5.006-.942.921-1.813 1.77-7.155 6.987-.495.484-.713.695-.72.704-6.665 6.806-2.051 2.093-2.793 2.853-2.922 3.127-.007.007-3.191 3.415-.008.009-4.159 4.452-.007.007-.404.433-1.382 1.562-1.938 2.19-.007.008-.422.476-.007.008-2.621 2.962-.006.007-1.871 2.113-1.19 1.346-.506.613-.006.007-.896 1.085-.005.006-1.712 2.074-.005.006-2.105 2.549-.362.438-.004.005-1.115 1.351-.004.005-1.09 1.319-5.873 7.871-3.728 5.987-.253.671-.014.039-1.2 3.186.812 1.686M1078.97 664.219l-.62-.758-1.75-2.142M727.27 589.36l6.384 7.697.304.368 6.649 7.471 6.647 7.471 6.647 7.471 6.646 7.471 6.648 7.471 5.474 6.153 7.284 6.852 7.284 6.852 7.284 6.852 7.284 6.852 7.283 6.852 5.948 5.595 7.443 6.677 7.445 6.677 7.443 6.677 7.445 6.677 7.445 6.677 6.122 5.491 7.6 6.498 7.601 6.499 7.601 6.498 7.6 6.498 7.602 6.499 6.319 5.402 7.738 6.333 7.741 6.333 7.738 6.332 7.74 6.333 4.265 3.49.362.295M1095.4 885.423l1.29.565 2.68-.889 3.98-2.324 5.14-3.683 1.73-1.388 4.38-3.517 6.83-5.939 7.28-6.737 7.16-6.986.29-.279 6.97-7.167.32-.329 6.78-7.348.07-.076 5.29-6.078M947.188 796.116l7.15 4.308M1127.7 904.221l.7.407 8.65 5.029 3.15 1.834 1.08.497 2.13-.591 3.08-1.665 3.92-2.683 2.32-1.807 2.31-1.793 5.13-4.378 5.45-4.986 2.78-2.699 2.77-2.695 4.34-4.476 1.07-1.11 5.07-5.555 4.52-5.3 3.04-3.86.76-.977 2.93-4.184 1.94-3.37.9-2.432-.18-1.407-4.67-8.014"/><path d="m1093.68 884.387-.71 1.502-.16 2.131 1.36.616 2.86-.941 4.26-2.48 5.5-3.936 3.72-2.989 2.82-2.26 7.31-6.359 7.34-6.79.47-.427 7.15-6.985.81-.793.01-.005 1.34-1.375 5.09-5.238.52-.526.86-.893 6.79-7.349.55-.604 4.7-5.392M1111.86 898.671l2.2 1.232 8.73 4.88.23.13 1.24.571 2.48-.727.96-.536.31-.167 2.35-1.304 4.65-3.221 5.48-4.314 6.11-5.243 6.5-5.964 6.62-6.447 6.47-6.668 6.07-6.621 5.41-6.307 4.55-5.741 3.51-4.951.94-1.596M1092.81 888.02l8.73 4.88 3.4 1.901.8.452M1152.73 905.242l8.22 5.698 4.1 2.84.69.299 1.29-.347 1.86-.98 2.35-1.58 2.74-2.119 3.05-2.577 3.22-2.935 3.27-3.177 3.19-3.295 2.98-3.282 2.66-3.14 2.24-2.876 1.72-2.5 1.15-2.027.52-1.479-.11-.875-5.7-8.218-2.96-4.282"/><path d="m1082.21 890.856 5.58 5.314 7.37 6.763 6.05 5.56 7.37 6.764 6.08 5.58 7.36 6.764 6.1 5.6 7.36 6.763 6.12 5.62 3.86-1.538 6.05-6.887-5.87-8.095-5.87-8.094-1.43-1.962-5.68-8.225-4.26-6.156"/><path d="m1145.46 944.046-5.88-8.087-5.89-8.086-1.44-1.979-5.7-8.217-5.7-8.216-1.43-2.062-5.36-7.497M1094.52 736.779l-9.2-3.923-9.2-3.924-9.2-3.924-6.53-2.786-6.73 7.172 6.42 7.668 6.41 7.668 6.42 7.668 6.42 7.668 6.42 7.668 6.42 7.668 6.42 7.668 6.42 7.668 6.42 7.668 6.42 7.668 6.41 7.668 6.42 7.667 6.42 7.668 2.32 2.766.28.337.04.003 9.98.671 5.87.395.68.045 4.18.281 2.77.187 1.2.08.61.041.05.004.26.017 5.61 3.097.01.003.09.047.01.005.36.199 1.49.823.01.009 1.53.841v.003l5.88 3.244.81.446 4.78 2.639.75.417 4.23 2.329.68.377 8.11 5.854 8.1 5.853 6.56 4.736 8.18 5.757 8.18 5.756 6.97 4.913 8.07 5.912 8.06 5.911 6.82 4.993 4.85-1.937 6.53-7.571.07-.081-6.71-7.418-6.59-7.297-6.71-7.418-6.62-7.324-6.71-7.418-6.64-7.351-6.71-7.418-6.67-7.377-6.86-7.275-6.86-7.274-6.86-7.274-6.86-7.274-6.87-7.274-5.38-5.709-.08-.077-6.86-7.275-6.86-7.274-6.86-7.274-2.31-2.445-9.2-3.923-9.19-3.924-2.65-1.127-2.11-.9-6.45-2.754-9.2-3.924-9.2-3.924-9.2-3.923-4.34-1.855Z"/><path d="m1149.24 770.531-5.79-2.489-7.86-3.383-9.18-3.953-9.19-3.954-9.18-3.953-9.19-3.953-9.18-3.954-1.92-.825-9.19-3.954-9.18-3.953-9.19-3.954-6.53-2.812"/><path d="m1265.48 896.13-6.71-7.415-6.62-7.317-6.71-7.415-6.65-7.343-6.71-7.415-6.67-7.371-6.71-7.415-6.69-7.397-6.86-7.272-6.87-7.273-6.86-7.272-6.87-7.272-6.86-7.273-6.86-7.272-.81-.859-6.87-7.272-6.86-7.272-7.06-7.475 6.74-7.394.09-.104M1073.22 652.277l-1.78 1.004v.002l-.59.329v.002l-.38.213M1078.32 658.263l.01-.001-.02-.134-.11-.222-.2-.3-.16-.212v-.001l-.12-.155-.34-.421-.41-.459-.44-.477-.47-.479-.47-.462-.46-.427-.43-.376-.39-.31-.32-.233-.25-.146-.17-.054-.07.04-.96.525v.002l-1.14.624-.01.002-.21.116-.86.472v.001"/><path d="m1078.33 658.262-.08.041-.16-.053-.25-.146-.28-.199v-.001l-.04-.032-.39-.31-.43-.377-.46-.428-.48-.463-.47-.48-.44-.478-.41-.459-.34-.422-.28-.368-.2-.3-.1-.22-.02-.132M1074.43 665.236l2.1-3.703.07-.214V661.31l-.03-.292-.13-.374-.19-.386v-.001l-.02-.045-.3-.475-.37-.499-.34-.406v-.001l-.08-.097-.46-.49-.49-.457-.48-.406-.48-.34-.26-.158-.17-.104-.39-.171-.33-.076-.24.022-.03.012-.3.157v.001l-.09.047-.79.409v.001l-.13.065v.002l-.63.324-1.18.612v.001"/><path d="M1076.53 661.534v.002l-.11.084v.001l-.04.035-.25.024-.12-.027-.2-.048-.39-.171-.44-.261-.48-.34-.24-.199v-.001l-.25-.207-.48-.458-.46-.491-.43-.505-.36-.5-.3-.476-.22-.433-.12-.373-.02-.209v-.001l-.01-.089.02-.06v-.002l.04-.15.01-.003.13-.106.01-.007.01-.008M1070.72 670.316l1.35-2.431.28-.498.31-.558.15-.293.04-.375-.05-.443-.16-.495-.18-.387v-.007l-.07-.132-.33-.538-.4-.529-.46-.501-.49-.452-.13-.095-.39-.291-.51-.306-.49-.215-.03-.007-.01-.002-.19-.048-.23-.056-.39-.009-.33.096-2.49 1.186-.44.207"/><path d="M1072.66 666.829v.002l-.24.197-.32.097-.4-.008-.45-.113-.5-.214-.51-.306-.52-.387-.49-.453-.46-.502-.4-.53-.01-.009-.33-.53-.24-.527-.16-.495-.05-.443.04-.375.15-.288v-.003l.23-.19.01-.008M1065.4 676.705l1.61-3.055.12-.444.01-.507-.1-.55-.08-.23-.08-.218-.04-.126-.3-.574-.38-.552-.46-.51-.5-.448-.54-.368-.55-.275-.13-.042-.41-.13-.52-.06-.46.052-.4.164-.9.371-2.4.99"/><path d="m1067.01 673.65-.02.028-.2.336-.01.003-.31.266-.39.164-.47.054-.24-.028-.01-.001-.26-.031-.55-.171-.27-.138-.16-.079-.12-.058-.54-.369-.5-.448-.46-.511-.38-.554-.3-.575-.2-.574-.1-.551.01-.168v-.339l.12-.444.08-.126.14-.232v-.004l.31-.26.01-.008M1065.1 677.2v-.003l.3-.492M1058.12 685.11l1.25-2.648.18-.504.07-.562-.05-.6-.16-.614-.27-.605-.36-.573-.08-.09-.11-.123-.26-.305-.51-.444-.57-.353-.58-.248-.59-.134-.57-.014-.52.105-2.79.87"/><path d="m1059.37 682.461-.02.017-.27.408-.01.004-.38.326-.26.125v.004l-.2.094-.52.107-.57-.013-.59-.134-.59-.248-.56-.353-.52-.445-.03-.037-.08-.1-.33-.382-.37-.574-.27-.606-.16-.615-.04-.6.07-.563.18-.503.11-.157v-.009l.18-.254v-.005l.38-.329.43-.204.04-.018M1057.72 685.688l.01-.003.39-.576M1049.61 694.135l.73-1.983.12-.607v-.64l-.13-.648-.24-.63-.35-.589-.45-.525-.52-.442-.18-.106-.12-.071-.28-.163-.61-.226-.63-.104-.61.023-2.13.324"/><path d="m1050.34 692.153-.04.083-.2.469-.33.451-.01.012-.01.012v.004l-.44.376-.52.27-.58.15-.61.023-.63-.103-.61-.226-.58-.34-.53-.442-.44-.526-.35-.588v-.002l-.05-.114-.19-.517-.13-.649v-.64l.12-.608.24-.551.34-.469.01-.006.44-.379.12-.062.01-.008.39-.199.5-.129.08-.02M1039.78 704.054l.16-1.224.03-.669-.09-.672-.22-.648-.34-.602-.44-.53-.53-.439-.6-.332-.63-.21-.07-.013-.14-.026-.95-.176"/><path d="m1039.94 702.83-.02.071-.1.435-.02.047-.02.086-.28.588-.39.511v.004l-.49.41-.56.306-.62.181-.65.049-.66-.08-.63-.21-.6-.332-.53-.44-.44-.53-.34-.603-.22-.649-.06-.395-.02-.129-.02-.148.04-.669.16-.64.28-.587.38-.505.01-.007.49-.414.56-.303.62-.182.54-.04.03-.004.08-.005.43.054.03.003.12.016.08.009"/><path d="M1039.1 704.572v.006l-.49.416-.56.304-.62.181-.65.051-.66-.082-.64-.21-.59-.332-.53-.439-.44-.531-.34-.602-.22-.65-.06-.395-.02-.129-.02-.148.03-.669.16-.64.28-.587.4-.511v-.004M1037.74 698.948l.6.331.52.439.45.531.33.601M1039.96 702.171l-.03.669M1035.8 698.706l.57-.045.04-.002.04-.004.43.055M1034.63 707.589l.89.11.87-.069M1043.44 695.742l.79.46.83.306.85.139.83-.033.78-.203.7-.365.6-.514M1049.77 693.153l-.01.011-.01.02-.01.005-.44.379-.52.271-.57.15-.62.024-.63-.104-.61-.225-.58-.341-.52-.442-.45-.526-.35-.589v-.002l-.04-.113-.2-.517-.13-.649v-.639l.12-.608.24-.552.35-.474v-.004M1050.45 690.914v.64l-.12.608M1045.75 687.583l.58-.149.61-.023M1048.58 687.975l.19.107.52.441.44.525M1052.75 685.577l.76.477.79.335.8.18.77.018.71-.145.62-.302.52-.447.01-.005M1059.14 679.585l.26.605.16.615.05.599-.07.563-.18.503-.29.421v.004l-.38.331-.26.121v.004l-.21.098-.52.107-.57-.014-.59-.133-.59-.248-.56-.354-.51-.444-.04-.038-.08-.101-.33-.381-.37-.573-.27-.607-.16-.615-.04-.6.07-.563.18-.503.12-.166v-.008l.17-.25.01-.004.38-.326.46-.221.53-.106.56.014.59.134.59.248M1060.59 676.686l.26.173.14.095.33.231.75.371.74.23.69.08.63-.073.54-.223.42-.365.01-.004M1066.78 674.018v.003l-.31.27-.4.165-.47.052-.23-.026-.01-.001-.27-.033-.54-.169-.28-.141-.16-.078-.12-.057-.54-.37-.5-.448-.46-.511-.38-.554-.3-.574-.2-.575-.09-.55v-.189l.01-.318.12-.445.08-.133.14-.229v-.003M1066.15 670.456l.38.552M1066.83 671.582l.05.125.07.217.08.232.1.55-.01.507-.12.444M1062.18 668.839l.4-.164.47-.052.51.06.41.13.13.042M1064.65 669.131l.54.368M1072.66 666.831l-.01.003-.23.199-.33.098-.39-.008-.46-.113-.49-.214-.52-.306-.51-.388-.5-.453-.45-.501-.41-.531-.01-.016-.32-.523-.25-.527-.15-.494-.06-.444.05-.374.15-.292v-.002M1072.05 664.164l.34.538.05.121.01.008.18.398.16.494.05.443"/><path d="m1070.71 670.323.01-.004.01-.022 1.34-2.41.28-.498.3-.554M1068.33 661.653l.4.009.23.058.2.049v.002l.02.005.49.214.52.306M1067.44 669.861l.69.413.36.155.23.099.08.035.61.152.54.009.44-.132.32-.27M1076.6 661.322l-.07.213v.002l-.11.085v.001l-.04.036-.25.024-.11-.026-.21-.049-.39-.171-.44-.261-.48-.34-.23-.199-.01-.001-.24-.207-.49-.458-.46-.491-.43-.506-.36-.5-.3-.475-.22-.433-.12-.373-.02-.217v-.001l-.01-.082.02-.064v-.002l.05-.148v-.001l.14-.107v-.001l.02-.012.24-.023.33.076.38.172.19.11.25.151.48.34.48.407.49.457.46.489.08.098v.001l.34.405.37.5.3.474.02.046v.001l.19.386.13.374.03.292M1074.43 665.24v-.005l2.1-3.698M1072.46 664.837l.46.273.53.23.43.101.34-.034.21-.166M1077.84 657.393v.002l.16.212.2.301.11.222.02.132v.001l-.08.042-.16-.053-.25-.146-.28-.2-.04-.032-.39-.31-.43-.377-.46-.429-.48-.462-.47-.481-.44-.477-.41-.459-.34-.423-.28-.367-.2-.3-.1-.221-.02-.133.08-.039.16.054.25.146.32.232M1076.53 655.883l.44.477.41.459M1073.5 653.436l-.96.524v.002l-1.14.625v.001l-.21.116-.87.472M1074.7 654.139l.43.376.46.427M1078.02 657.074l.01-.041-.09-.131-.17-.217-.26-.294-.33-.361-.39-.412-.44-.449-.46-.468-.47-.47-.47-.451-.44-.418-.4-.367-.34-.302-.26-.225-.19-.141-.1-.05"/><path d="m1073.22 652.277-1.78 1.004v.002l-.59.33v.002l-.38.213M1070.89 653.201l-.64.364"/><path d="m1071.44 653.282-.11-.048-.26-.062-.18.03M938.058 789.957l-.042-.181.053-.09.001-.001.146.003.049.02.006.002.179.073.313.185.38.267.431.339.467.398.485.443.483.468.463.478.204.224.003.003.219.241.371.44.303.395.114.171.109.164.134.263.041.179-.055.089-.002.001M942.106 794.163l-.264-.186-.431-.339-.466-.398M942.918 794.531l2.92-1.677.895-.514M946.73 792.34l.075-.122v-.007M939.092 791.389l-.371-.439-.303-.395-.223-.335M940.46 792.799l-.482-.468-.462-.476"/><path d="m938.283 786.676-.615 1.103-.001.003-.339.608-.001.002-.76 1.365h-.001l.064.085.155.174.238.257.314.33.376.39.426.435.457.464.472.474.469.466.446.441.408.398.353.34.285.269.206.187.119.099.027.007.721-.407"/><path d="m937.924 786.38-.768 1.363-.002.003-.017.164.075.251.117.23M973.67 758.722l-.232 2.057-.028.624.101.634.224.621.065.111.066.115.208.358.442.524.527.444.592.348.634.237.652.118.645-.005.613-.13 1.896-.655"/><path d="m973.441 760.779.154-.588.107-.209.168-.322.385-.454.48-.358.558-.248.613-.13.646-.007.653.118.33.124.114.042.191.072.592.347.528.445.442.525.339.584.225.622.099.635-.027.624-.155.588-.276.531-.386.453-.17.127-.311.23-.558.248M980.078 764.122l.754-.334.651-.482.521-.613.373-.717.209-.795.039-.843-.135-.859M939.667 786.721l-.064.118v.001l-.343.634-.545 1.009-.001.002-.574 1.062-.001.003-.123.227.042.181.135.263.223.335.303.395.371.439.425.467.462.476.482.468.483.441.466.398.431.339.264.186.001.001.115.081.313.185.235.096.148.004.002-.001"/><path d="m938.016 789.777.021-.035.032-.056h.002l.145.003.054.021.005.002.175.072.313.185.379.267.432.339.467.398.484.443.483.468.464.478.202.223.003.003.22.242.372.44.303.395.114.171.109.164.134.263.041.179-.055.089M942.832 785.087l-.002.005-.407.799-.001.002-.455.895-.001.002-.285.561-.003.005-.086.171-.002.002-.071.14-.035.261.021.106.001.005.043.227.163.402.078.137.001.001.175.312.3.429.001.001.035.051.404.493.457.488.493.462.414.342.001.001.094.077.183.13.002.002.322.229.153.092h.001l.33.197.444.205.386.113.314.017.228-.079.055-.032.002-.001.218-.125.003-.001 3.398-1.948"/><path d="m941.52 787.668.091-.119.001-.002.042-.053.126-.045.006-.002.096-.034.311.017.387.112.443.204.201.12.01.005.274.164.509.361.31.256.004.003.197.162.493.464.458.488.244.297.003.004.157.194.336.482.255.45.161.402.044.227.002.009.019.101-.036.261-.109.14-.001.001-.025.032M950.35 789.218l-.218-.544-.343-.61M948.516 780.261l-1.178 2.549-.003.007-.245.531-.002.005-.054.115-.107.339-.001.41.105.466.208.504.055.096.247.425.384.52.303.333.001.001.149.164.503.457.534.399.072.043.473.283.535.239.505.145.455.043.387-.059.102-.054.203-.106.384-.215 3.061-1.713"/><path d="m947.031 783.467.074-.09.004-.004.132-.161.304-.161.387-.06.455.042.505.144.536.239.544.324.002.002.536.399.504.459.453.499.086.116.299.405.302.522.207.504.105.466-.002.41-.003.009-.106.33-.211.254M955.202 775.253l-.002.003-.054.138-.002.006-.903 2.285-.061.478.053.526.166.553.271.559.367.544.448.508.512.453.557.379.443.223.137.07.048.015.533.178.56.088.517-.023.455-.13 2.993-1.574"/><path d="m954.242 777.685.174-.412.278-.33.374-.235.454-.132.138-.006.379-.017.56.086.582.194.581.292.558.38.514.453.449.509.264.393.088.131.015.021.271.561.165.553.048.483.005.043-.063.478-.174.412-.28.329-.374.235M962.242 780.532l.507-.318.379-.445.236-.557M964.011 767.004l-.789 2.73-.113.538.009.579.129.597.245.593.351.565.445.517.127.109.114.099.279.24.577.362.61.263.62.152.608.037.57-.08.513-.195 2.574-1.193"/><path d="m963.223 769.733.23-.477.338-.397.134-.094.299-.209.512-.195.571-.081.607.036.622.152.611.263.577.362.199.171.096.083.227.195.445.517.351.567.245.594.129.598.008.579-.114.538-.163.336-.068.141-.339.396-.433.301M970.879 772.916l.586-.408.459-.536.312-.644.155-.727-.01-.783M984.555 750.242l.214.73.037.125.06.208.21.642.331.598.439.529.532.442.603.336.651.218.674.092.672-.038 1.13-.075"/><path d="m984.865 751.306-.022-.185-.007-.056-.017-.146-.034-.276.053-.657.182-.628.307-.572.418-.497.514-.4.59-.29.644-.167.658-.038.013-.001.117.016.558.076.652.218.603.336.532.442.44.53.331.598.209.643.08.663-.053.658-.183.627-.307.573-.419.495-.514.401-.59.289-.51.132-.133.035"/><path d="m990.109 754.049.869-.225.798-.39.694-.541.566-.67.415-.773.248-.848.072-.889-.108-.895-.283-.869M999.046 742.169l-.609-.329-.533-.439-.439-.534-.327-.606-.201-.656-.07-.682.047-.483.016-.167.003-.03.198-.652.324-.6.436-.524.531-.428.607-.317.515-.149.145-.042.042-.004.649-.056.68.074.66.205.61.329.53.439.44.534.33.606.2.657.07.682-.06.68-.2.652-.33.6-.43.524-.53.428-.61.316-.66.192-.69.059-.684-.074-.66-.205Z"/><path d="m1000.71 742.96.93-.081.89-.259.25-.13.57-.296.72-.579.46-.556.13-.152.44-.81.26-.881.09-.919-.09-.92-.27-.887-.44-.82M1011.43 729.895l-.61-.326-.53-.438-.44-.535-.33-.61-.2-.663-.07-.689.07-.689.06-.19.06-.206.08-.267.32-.612.44-.536.53-.44.61-.328.26-.077.2-.064.2-.061.69-.069.69.067.66.199.61.326.53.438.44.535.33.61.2.662.07.689-.07.69-.2.663-.32.611-.44.536-.53.441-.61.327-.66.203-.69.069-.69-.067-.66-.199Z"/><path d="m1014.36 730.881.82-.443.19-.158.53-.437.59-.724.44-.826.27-.895.09-.931-.09-.931-.27-.895-.45-.824M1023.72 717.444l-.61-.326-.53-.439-.44-.533-.33-.609-.21-.66-.08-.686.05-.537.01-.149v-.008l.19-.651.31-.607.42-.532.52-.435.59-.324.65-.198.12-.012.17-.017.38-.037.68.07.65.201.61.326.53.439.44.533.33.608.21.66.07.686-.05.685-.19.659-.31.607-.42.532-.52.436-.59.324-.65.199-.67.066-.68-.069-.65-.202Z"/><path d="m1027.55 717.976.57-.718.42-.82.25-.89.08-.926-.11-.926-.28-.891-.44-.822M1173.73 840.153l-.26.065-.3.005-.31-.064-.32-.128M1171.51 839l-.15-.337-.1-.346-.03-.339.03-.32.09-.289.07-.113M1174.45 838.931v.03l-.02.32-.09.289-.03.041-.12.206-.2.195-.24.136M1173.58 840.907l.76-1.338M1173.38 841.243v-.002l.19-.334M1172.24 839.843l-.28-.241-.25-.285M1169.01 846.563l.53-1.067.12-.312.06-.341-.01-.358-.07-.36-.14-.349-.19-.325-.24-.287-.29-.239-.31-.182-.33-.118-.34-.049-1.14.04"/><path d="m1169.54 845.496-.01.011-.17.259-.15.145-.01.004-.07.07-.27.158-.31.092-.33.022-.33-.049-.34-.118M1166.52 845.056l-.13-.349-.08-.361-.01-.357.06-.342.12-.311.18-.271.23-.218.26-.145v-.004l.02-.009.3-.091.16-.011.17-.011M1168.76 846.931v-.002l.25-.366M1167.24 845.909l-.28-.239-.25-.288M1163.9 852.263l.22-.66.08-.356.01-.37-.05-.37-.13-.357-.18-.33-.24-.289-.29-.239-.32-.177-.62-.215"/><path d="m1164.12 851.604-.01.029-.13.298-.01.006v.008l-.2.271-.26.235-.3.173-.33.105-.35.034-.35-.039-.34-.11-.32-.179M1160.99 851.908l-.19-.33-.12-.357-.06-.371.01-.37.08-.355.15-.327.21-.286.25-.234.3-.173.34-.106.34-.033.23.024.02.003.11.012.02.008.32.103M1163.42 853.096v-.003l.28-.386.2-.443"/><path d="m1159.98 853.072.39.322.43.241.47.15.47.052.48-.045.44-.143.41-.234.35-.317v-.003M1164.12 851.609l-.15.325V851.943l-.2.28-.26.234-.3.173-.33.105-.35.034-.35-.039-.35-.111-.32-.177-.28-.239-.25-.289-.18-.33-.13-.357-.05-.371.01-.37.08-.356.15-.327.2-.286.26-.234.3-.173.33-.105M1164.16 850.512l-.13-.357-.18-.329-.25-.29-.28-.238-.32-.178M1162.65 849.011l.35.11M1165.51 846.804l.38.324.43.246.44.159.46.066.44-.03.41-.124.38-.214.31-.296v-.003M1169.36 845.772l-.15.141v.004l-.08.073-.28.158-.3.092-.33.022-.34-.049-.33-.117-.31-.182-.28-.24-.25-.288-.19-.324-.14-.35-.07-.36-.01-.358.06-.341.12-.312.18-.27M1169.66 845.189l.05-.341v-.358l-.08-.36-.13-.349-.2-.324-.24-.288-.28-.239-.32-.182-.33-.118-.33-.049M1167.15 842.703l.01-.004v-.004l.31-.092.33-.022M1170.36 840.957l.37.326.41.255.43.173.42.086.41-.006.38-.097.33-.184.26-.264.01-.003M1174.45 838.928v.037l-.03.321-.09.289-.14.247-.2.195-.24.136-.02.004v.001l-.26.066-.3.005-.32-.064-.31-.128-.31-.188-.28-.242-.24-.284-.2-.318-.16-.337-.09-.346-.03-.339.03-.32.08-.289.08-.119M1106.4 896.99l.11.015.15.067.19.114.22.158.26.196.24.208v.001l.02.017.28.248.27.259.25.261.22.249v.001l.01.004.19.235.15.208.11.174.05.132v.085l-.04.028-.01.007M1107.6 898.634l.27.247.23.191.04.035M1109.07 899.658l1.71-1.02M1106.35 897.111l.05.132.08.121v.004l.03.048M1106.66 897.625l.19.235.23.253"/><path d="m1104.99 896.657.06.062.1.11.16.155.19.193.22.225.25.247.25.26.27.263.25.256.24.238.22.213.18.179.14.137.09.09.04.041.45-.254M1104.94 894.801l-.21.363-.01.007v.001l.02.106.06.152.11.194.16.227.19.252.01.013M1127.88 881.922l.02 1.109.04.34.12.334.18.316.24.284.29.243.33.192.35.133.36.069.36.003.34-.064.31-.128 1.02-.502M1131.84 884.25l.36-.253.3-.323.22-.38.12-.424.03-.451-.06-.461-.16-.452-.25-.427"/><path d="m1127.89 883.03.03-.334.06-.215.03-.098.16-.282.22-.239.27-.187.31-.128.35-.064.35.003.37.069.35.133.32.192.29.243.24.284.18.316.12.335.05.34-.03.334-.09.313-.16.282-.13.137-.09.102-.27.186M1104.93 894.801l-.21.369v.001M1105.74 895.253l-.18.327-.29.535v.001l-.29.531v.011M1107.14 895.491l-.22.418-.34.67v.001l-.23.446v.085l.05.132.07.117.01.004.03.053.15.208.19.235.23.253.25.261.27.259.27.247.23.191v.001l.04.034.25.196.23.158.19.115.15.066.11.016"/><path d="m1107.59 897.768.27.247.27.259.25.262.23.249M1108.61 898.788l.2.235.15.208.11.174.05.132v.085l-.05.035M1106.35 897.026v-.002l.05-.034.1.016.15.066.2.114.22.159.25.196.25.208M1109.58 894.646l-.53 1.134-.01.009-.2.44-.04.13.01.112v.062l.08.209.05.096v.003l.07.14v.005l.01.001.1.151.07.101.21.266.25.268.27.255.29.234.29.204.28.167.01.005.25.119.23.074.19.023.15-.031.25-.152.92-.562.79-.479"/><path d="m1108.84 896.229.09-.082.15-.03.19.022.02.006.21.068.03.015v.002l.23.106.28.167.29.205.28.235.28.255.25.267.21.268.18.258.12.238.08.21.01.165v.008l-.04.13-.09.081M1113.57 897.63l.13-.111.05-.176-.02-.234-.1-.284-.17-.323-.2-.298"/><path d="m1113.09 892.494-.79 1.948-.01.214.04.245.1.267.12.22.04.06.2.281.25.272.22.203.05.048.3.223.31.184.31.139.29.089.26.035.23-.02.19-.075 1.81-1.109M1117.01 895.718l.18-.171.1-.234.03-.289-.06-.331-.13-.363-.22-.378-.27-.381"/><path d="m1112.3 894.443.08-.173.13-.127.19-.075.23-.02.26.034.3.089.3.139.05.031.26.154.3.222.28.252.24.272.05.072.16.209.15.28.1.268.05.245-.02.213-.08.174-.13.126M1117.33 889.625l-.56 1.786-.05.25.01.279.08.294.15.301.19.294.24.276.29.249.3.21.33.165.33.113.32.057.29-.002.27-.06.22-.117.68-.414.93-.56"/><path d="m1116.77 891.412.11-.214.17-.169.22-.117.18-.044.08-.017.3-.002.32.056.32.113.33.165.21.146.1.065.28.249.24.277.2.294.14.3.07.256.01.04.01.139.01.139-.05.251-.11.213-.17.169M1121.35 892.747l.23-.227.15-.29.07-.339-.03-.376-.1-.4-.19-.406M1122.26 886.155l-.28 1.48v.308l.06.319.13.319.18.305.24.281.29.246.32.2.34.148.34.089.35.028.32-.035.29-.097 1.29-.737M1126.13 889.01l.34-.209.26-.28.19-.339.1-.385.01-.415-.08-.434-.18-.43-.25-.414"/><path d="m1121.98 887.635.08-.285.14-.25.13-.144.06-.063.25-.155.29-.097.33-.035.34.027.35.09.34.147.31.201.29.245.24.281.19.306.13.319.06.32-.01.308-.07.285-.02.041-.12.209-.2.206-.25.155M1134.18 877.484l.27.572.18.323.24.288.29.24.33.185.35.121.37.053.37-.017.36-.086.61-.183M1137.55 878.981l.44-.206.38-.287.32-.357.23-.414.15-.455.04-.478-.05-.483-.15-.469-.24-.438-.33-.389"/><path d="m1134.45 878.056-.06-.207-.05-.14-.04-.357.03-.353.11-.337.17-.306.24-.265.28-.212.33-.153.35-.086.37-.017.37.053.36.121.33.185.29.24.24.288.18.323.11.348.04.357-.04.353-.1.337-.17.306-.24.264-.28.213-.17.077-.16.075M1141.51 872.714l.45.242.49.153.5.056.51-.042.49-.138.44-.229.4-.311.32-.382.24-.438.15-.476.05-.497-.05-.499-.14-.48-.24-.445-.32-.391"/><path d="m1142.17 872.851-.33-.18-.29-.239-.24-.289-.17-.329-.11-.356-.04-.368.04-.368.11-.353.18-.323.24-.283.29-.23.33-.17.36-.102.38-.031.37.042.36.113.33.179.29.239.24.29.18.329.11.355.03.369-.04.368-.11.352-.17.324-.24.282-.3.231-.33.169-.36.102-.37.031-.38-.042-.36-.112ZM1148.93 866.216l-.33-.177-.29-.238-.24-.291-.17-.331-.11-.361-.04-.375.03-.375.11-.361.18-.333.23-.293.29-.24.33-.179.36-.11.37-.039.38.036.35.108.34.176.29.239.23.29.18.332.11.36.04.375-.04.375-.1.362-.18.333-.24.292-.28.24-.33.179-.36.111-.37.038-.38-.035-.36-.108Z"/><path d="m1148.43 866.636.48.146.5.048.51-.052.48-.15.45-.242.39-.324.32-.396.23-.45.15-.488.05-.507-.05-.507-.15-.487-.24-.449-.32-.392M1154.33 859.887l.44.238.48.145.5.047.49-.054.47-.151.43-.243.37-.327.31-.397.22-.451.13-.49.04-.508-.06-.508-.16-.488-.24-.448-.32-.393"/><path d="m1155.56 859.398-.33-.177-.29-.237-.24-.291-.18-.331-.11-.362-.05-.375.03-.376.1-.362.16-.335.23-.294.28-.24.32-.18.34-.112.37-.039.36.034.36.107.32.177.29.237.24.291.18.332.12.361.04.375-.03.377-.09.362-.17.334-.22.292-.28.242-.32.18-.35.112-.36.039-.37-.034-.35-.107ZM731.156 339.377l.162-.285.01-.022v-.001M729.576 338.947l.001-.002.185-.346.123-.23-.021-.114-.095-.182-.166-.242-.23-.293-.286-.332-.331-.359-.362-.372-.38-.37-.384-.356-.373-.326-.005-.004-.001-.001-.34-.279-.308-.233-.258-.17-.196-.103-.129-.031v.001"/><path d="m729.885 338.369-.003.003-.051.041-.002-.001-.126-.029-.196-.102-.257-.171-.308-.232-.347-.284-.373-.327-.385-.356-.381-.371-.363-.373-.331-.36-.069-.08-.001-.001-.216-.251-.23-.293-.166-.242-.095-.181-.02-.114.055-.042v-.001M726.398 340.149l.35-.706v-.001l.016-.033.001-.001.05-.102.04-.178-.001-.003-.04-.238-.118-.293-.192-.336-.141-.199-.001-.002-.116-.164-.313-.379-.358-.381-.389-.366-.152-.127-.001-.001-.251-.21-.404-.297-.388-.244-.11-.056-.001-.001-.247-.126-.314-.114-.258-.04-.191.034-.002.002"/><path d="m726.815 339.306-.004.004-.073.068-.001.001-.027.025-.012.011h-.002l-.189.035-.257-.04-.314-.113-.358-.182-.389-.245-.165-.121-.002-.002-.237-.174-.405-.339-.389-.367-.359-.38-.314-.381-.068-.096-.065-.092-.125-.177-.192-.336-.117-.294-.04-.24.04-.178.117-.106.001-.002M717.871 338.933l.012-.298.096-.239.175-.171.002-.001.251-.099.315-.021.367.057.405.135.428.205.199.124.007.004.227.141.423.321.396.361.354.389.298.4.231.396.154.372.002.006.074.344-.012.299-.095.24-.006.006-.17.167-.003.001-.248.098-.314.021-.367-.057M718.158 338.224l-2.678 1.579M716.253 345.788l.058-.353-.034-.393-.123-.417-.207-.427-.285-.419-.35-.396-.403-.357-.44-.305-.46-.241-.462-.168-.448-.088-.414-.005-.367.078-.304.159-2.416 1.398"/><path d="m716.252 345.787-.016.033-.13.265-.229.234-.003.002-.301.158-.366.079-.122-.002h-.008l-.285-.003-.447-.087-.463-.168-.461-.241-.441-.305-.403-.358-.351-.397-.285-.42-.207-.427-.123-.418-.007-.083v-.006l-.026-.304.058-.352.147-.299.227-.23.003-.003M708.955 351.405l.096-.402.001-.436-.095-.454-.188-.454-.272-.436-.348-.403-.409-.354-.454-.29-.483-.216-.492-.134-.483-.046-.456.043-.41.131-1.97 1.071"/><path d="m708.953 351.405-.011.02-.179.332-.274.289-.004.003-.064.039-.007.005-.274.168-.41.131-.455.044-.484-.046-.493-.133-.483-.216-.455-.291-.41-.354-.347-.403-.273-.438-.188-.454-.095-.455.002-.436.097-.402.007-.013.003-.005.18-.334.272-.285.003-.003.323-.198.026-.016M696.027 355.359l.149-.162.004-.004.37-.251.014-.01.445-.176.488-.085.511.01.516.105.501.195.466.277.413.35.345.409.264.452.172.477.073.485-.027.474-.01.033-.118.412-.049.086-.007.013-.167.299-.31.336-.004.003M698.242 359.598l-.517-.105-.501-.194-.466-.278M696.564 354.932l-1.584.743M695.997 358.261l-.264-.452-.171-.478-.074-.485M691.599 364.91l-.161-.497-.257-.464-.344-.413-.417-.347-.474-.268-.513-.177-.532-.081-.532.019-.509.118-1.001.29"/><path d="m691.597 364.911.006.056.022.184.003.028.028.242-.046.504-.149.478-.247.435-.334.375-.004.003-.405.296-.468.213-.51.119-.531.019-.533-.081-.514-.177-.474-.268-.417-.347-.344-.414-.258-.464-.161-.497-.058-.511.046-.504.15-.479.247-.434.33-.37.004-.004.409-.3.165-.074.017-.008.256-.116.031-.014"/><path d="m690.876 367.215-.004.004-.409.3-.469.213-.509.118-.532.019-.532-.08-.514-.178-.474-.268-.418-.347-.344-.414-.257-.464-.161-.497-.058-.51.046-.504.15-.479.246-.435.335-.374.004-.003M689.938 362.93l.473.267.417.347.343.414.259.464M691.59 364.918l.024.213.003.028.031.269M691.602 365.932l-.149.479-.246.435M687.383 363.021l.182-.083.017-.007.27-.123.509-.118.531-.019M700.721 357.912l-.127.444-.042.075-.007.012-.175.311-.305.333-.003.004-.385.261-.445.177-.487.085-.513-.01-.516-.104-.502-.195-.466-.277-.414-.351-.345-.409-.263-.452-.172-.478-.074-.486.028-.474.128-.444.224-.398.158-.171.005-.006.147-.159.004-.003.381-.258.445-.177.487-.084.513.01.516.104.5.195.466.278.414.35.344.408.263.452.172.478.075.485-.029.474Zm0 0-.002.026M696.558 354.938l-.007.003M708.947 350.119l.095.454-.001.436-.096.402-.19.352-.271.286-.003.003-.061.037-.007.005-.281.172-.41.132-.455.044-.484-.046-.493-.134-.483-.216-.455-.291-.41-.353-.347-.404-.273-.437-.188-.455-.095-.454.002-.437.097-.401.01-.018.003-.006.177-.328.275-.289.004-.002.345-.211.41-.131.456-.044.483.047.493.133M707.734 348.473l.408.353.348.403.272.437M715.872 346.322l-.003.002-.304.16-.366.079-.113-.001h-.008l-.294-.003-.447-.088-.463-.167-.461-.241-.44-.306-.404-.358-.351-.396-.285-.42-.207-.427-.123-.419-.007-.088-.001-.006-.025-.298.058-.353.147-.298.23-.233.003-.002.301-.157.367-.079M715.941 344.202l.207.426M712.006 342.461l-2.393 1.384M714 342.483l.46.241M714.902 343.029l.403.357.35.396M722.175 341.9l-.174.171-.002.002-.25.099-.315.021-.367-.057-.405-.134-.428-.205-.434-.268-.424-.322-.396-.362-.355-.389-.299-.401-.231-.397-.155-.378-.073-.345.011-.298.097-.239.177-.172.002-.002.249-.097.315-.021.367.058.405.134.427.205.209.13.007.004.217.135.423.321.396.361.354.389.298.4.232.396.148.362.003.006.004.01.074.345-.011.298-.096.24Zm0 0-.001.003M718.154 338.227l-2.674 1.576M726.243 337.895l.116.164.001.001.141.2.192.335.118.294.039.231v.001l.001.008-.039.178-.075.07-.001.001-.027.025-.013.012-.001.001-.191.035-.258-.039-.313-.113-.358-.183-.389-.244-.165-.122-.002-.001-.238-.175-.404-.338-.39-.367-.358-.381-.28-.338-.034-.041-.001-.001-.257-.365-.192-.336-.118-.294-.04-.24.04-.178.117-.107.001-.001h.002l.19-.034.258.04.314.114.247.126.001.001.11.055.388.245.404.297.251.21M722.867 335.587l-2.875 1.69M729.881 338.37l-.054.042v.001l-.128-.03-.196-.102-.257-.171-.308-.232-.347-.284-.373-.327-.385-.356-.381-.371-.363-.373-.331-.36-.068-.079-.001-.001-.217-.252-.23-.293-.166-.242-.095-.181-.02-.114.05-.038.005-.005.002.001.127.03.196.103M727.629 335.75l.384.355.38.371.362.371.331.359M729.766 338.072l.095.182"/><path d="m726.017 334.602-1.676.964-.462.265M731.325 339.07l-.063-.094-.133-.164-.199-.227-.256-.281-.304-.324-.341-.356-.364-.373-.372-.376-.368-.364-.348-.339-.316-.3-.27-.251-.215-.19-.151-.123-.082-.052M727.544 335.256l-.294.162M618.219 441.144l.004-.004.05-.062.126.011.192.086.251.158.301.225.164.136.001.001.174.145.364.329.374.363.372.383.072.079.001.002.068.075.212.233.323.379.278.354.224.317.161.267.091.206.019.138-.001.001-.054.064-.068-.006h-.003l-.055-.005-.192-.087-.252-.159-.3-.224-.339-.282-.363-.329-.374-.362-.371-.383-.353-.387-.322-.379-.058-.075-.001-.001-.219-.278-.224-.317-.161-.267-.092-.206-.019-.138-.001-.001Zm0 0 .99-1.682.454-.77M621.984 445.03l.003-.002M618.932 442.354l-.327.576.062.072.133.142.2.208.256.264.307.311.343.346.367.368.375.375.371.368.353.346.318.312.274.266.218.208.154.144.084.074M640.745 409.264l-.695 1.511-.186.447-.094.491.002.514.099.518.19.502.275.467.35.415.41.345.456.264.483.171.492.072"/><path d="m640.051 410.775.271-.388.088-.079.259-.233.408-.226.454-.132.482-.029.493.072.483.171.456.264.411.345.349.414.276.469.19.503.098.519.002.514-.094.49-.186.447-.272.388-.347.312-.408.226-.064.018-.39.112-.482.028M622.422 446.733l.001.001h.011M622.434 446.735l.643-.355M621.93 444.624l.092.206.018.137-.051.062-.003.004-.065-.006h-.004l-.057-.005-.193-.087-.251-.158-.301-.225-.338-.282-.363-.329-.374-.362-.371-.382-.353-.388-.322-.378-.059-.076-.001-.001-.218-.278-.224-.316-.161-.267-.093-.207-.019-.139.001-.001.053-.064.125.01.192.086M620.945 443.307l.322.379.279.355M621.984 445.032l.261-.136M618.84 441.337l.3.224.164.136.001.001.174.146M621.203 434.903l-1.703 2.839-.047.201.029.267.104.323.075.159.001.001.098.206.237.395.293.41.335.407.333.356.002.002.031.033.082.076.005.005.295.277.297.241.001.001.087.07.371.254.344.187.179.065.004.002.121.044.252.033.09-.023.002-.001.098-.025.687-.329"/><path d="m619.5 437.742.12-.127.189-.049.252.031.304.112.344.186.372.254.385.313.383.358.367.392.336.408.292.41.146.242.001.003.091.151.029.062.003.005.141.299.103.322.029.267-.048.201-.12.126M624.032 430.173l-1.58 2.631-.11.259-.033.323.048.375.125.412.198.433.263.439.202.269.116.157.362.397.39.355.405.296.249.142.154.087.387.151.354.067.31-.018.252-.103"/><path d="m622.453 432.803.185-.186.252-.104.309-.018.355.067.387.15.404.229.342.251.063.046.391.355.362.398.319.427.117.196.146.243.198.434.125.412.047.375-.033.323-.112.259-.185.184M628.382 424.107l-1.381 2.357-.171.311-.09.373-.006.422.079.453.161.467.236.464.302.443.357.404.398.351.424.283.433.205.426.12.403.028.363-.063"/><path d="m627 426.465.245-.236.31-.153.364-.064.175.012.228.016.426.119.434.205.425.284.398.351.358.405.302.443.236.465.161.468.078.453-.006.421-.009.04-.081.333-.172.311-.246.236-.311.152M633.826 417.367l-1.037 1.902-.142.415-.053.46.038.488.127.496.211.485.288.457.353.41.404.347.441.273.46.185.462.093.446-.004"/><path d="m632.789 419.27.225-.354.3-.28.254-.136.109-.058.413-.102.446-.004.462.092.46.186.442.272.405.348.353.411.288.457.212.486.126.497.038.487-.054.461-.142.415-.226.353-.032.03-.268.25-.364.193-.412.101M648.385 401.104l-.23.925-.125.511-.026.531.076.533.174.514.265.474.347.418.414.344.467.257"/><path d="m648.156 402.029.054-.113.168-.355.307-.41.383-.335.444-.247.486-.149.512-.047.516.059.501.161.467.258.415.344.347.418.265.475.174.513.076.534-.026.531-.126.511-.221.468-.309.41-.383.334-.443.247-.487.149-.511.046-.516-.059-.055-.017-.446-.144M658.787 396.019l-.474-.255-.418-.344-.345-.419-.258-.478-.162-.518-.06-.54.045-.539.148-.52.245-.478.333-.42.408-.344.468-.256.509-.158.531-.054.533.053.513.157.475.255.418.343.345.419.258.478.162.519.06.54-.045.54-.148.519-.245.478-.334.42-.408.344-.468.256-.509.158-.531.053-.532-.052-.514-.157ZM668.372 386.276l-.479-.257-.419-.344-.344-.418-.254-.477-.157-.518-.051-.538.055-.538.159-.516.258-.476.347-.417.421-.342.48-.253.521-.155.541-.052.541.054.519.159.479.256.419.344.344.418.254.478.156.517.052.538-.055.538-.16.516-.257.476-.347.417-.421.342-.48.253-.521.156-.541.051-.541-.054-.519-.158ZM678.19 376.7l-.479-.26-.419-.345-.343-.417-.255-.473-.155-.51-.051-.528.055-.526.16-.503.258-.461.347-.402.422-.326.48-.239.521-.142.541-.039.541.064.52.165.478.26.419.345.343.417.254.472.156.51.051.528-.055.526-.16.503-.258.461-.347.401-.421.327-.481.239-.521.142-.541.04-.541-.064-.519-.165ZM750.605 351.861l.111-.196.001-.003.737-1.302v-.001M749.017 351.485l.001-.002.273-.507.341-.633.001-.003.366-.679-.027-.127-.107-.199-.183-.263-.252-.318-.311-.361-.359-.389-.392-.403-.412-.401-.414-.383-.401-.352-.074-.061-.001-.001-.297-.245-.33-.249-.275-.183-.209-.109-.134-.031-.001.001"/><path d="m750 349.661-.004.003-.051.046-.001-.001-.133-.029-.208-.108-.274-.183-.33-.249-.373-.307-.402-.352-.415-.384-.412-.402-.393-.404-.36-.39-.154-.178-.001-.001-.156-.182-.252-.318-.183-.263-.106-.199-.026-.125.055-.048.001-.001M745.861 352.584l.407-.815v-.001l.031-.062.001-.003.375-.752.001-.001.029-.059.001-.002.077-.154.026-.133.001-.001.012-.061-.048-.263-.131-.319-.21-.365-.281-.396-.042-.051-.002-.002-.297-.359-.388-.412-.014-.012-.406-.384-.313-.262-.002-.001-.121-.102-.435-.32-.418-.264-.216-.11-.169-.086-.336-.121-.04-.006-.235-.035-.203.039-.003.002"/><path d="m746.784 350.735-.005.005-.11.107-.001.002-.007.006h-.002l-.064.013-.136.027-.275-.04-.336-.121-.385-.195-.418-.264-.436-.32-.023-.02-.002-.001-.412-.345-.421-.397-.389-.413-.341-.412-.281-.397-.21-.365-.036-.088-.001-.001-.094-.231-.047-.262.04-.194.122-.118.002-.002M740.484 356.702l1.381-3.103.099-.262.009-.325-.078-.354-.001-.006-.003-.015-.171-.41-.253-.431-.324-.434-.383-.42-.398-.363-.031-.029-.457-.347-.315-.195-.008-.005-.041-.025-.103-.064-.461-.221-.435-.143-.395-.061-.337.024-.099.04-.169.069-1.111.65-1.802 1.054"/><path d="m741.867 353.599-.007.007-.18.183-.003.001-.265.108-.337.025-.394-.059-.436-.144-.461-.22-.468-.29-.458-.347-.005-.005-.424-.387-.145-.16-.24-.262-.324-.435-.253-.431-.17-.411-.082-.375.009-.324.101-.262.186-.187.002-.002M734.513 360.638l1.018-2.771.05-.317.01-.066-.039-.427-.126-.427-.008-.027-.228-.463-.308-.455-.38-.429-.411-.365-.026-.022-.475-.33-.496-.26-.5-.181-.482-.093-.446-.004-.395.087-.326.174-2.633 1.504"/><path d="m735.532 357.867-.02.042-.135.284-.245.255-.003.002-.322.173-.06.013-.334.075-.161-.001h-.008l-.277-.002-.02-.004-.463-.089-.499-.18-.498-.261-.476-.33-.437-.387-.381-.43-.309-.456-.227-.464-.134-.454-.01-.109-.001-.007-.028-.311.06-.384.156-.325.243-.252.003-.003M727.068 366.467l.634-2.461.102-.437-.001-.475-.013-.059-.092-.434-.044-.106-.161-.387-.296-.473-.377-.437-.442-.383-.492-.314-.522-.233-.532-.144-.521-.049-.491.048-.442.144-2.155 1.148"/><path d="m727.7 364.007-.012.022-.19.361-.295.315-.004.003-.096.059-.008.005-.267.167-.442.145-.491.049-.522-.048-.533-.144-.522-.233-.493-.315-.443-.383-.377-.437-.297-.475-.204-.494-.105-.493-.001-.475.103-.437.018-.033.004-.007.182-.343.291-.311.004-.003.352-.219.024-.015M718.695 373.013l.154-1.919.028-.515-.081-.527-.187-.518-.286-.49-.375-.444-.448-.379-.504-.3-.542-.211-.558-.112-.553-.01-.526.093-.48.193-1.739.789"/><path d="m718.852 371.093-.011.038-.125.445-.073.132-.008.013-.159.288-.334.366-.004.003-.41.282-.48.194-.527.093-.553-.009-.559-.112-.542-.21-.505-.301-.449-.38-.375-.443-.286-.491-.187-.519-.081-.528.029-.515.137-.483.241-.433.192-.21.006-.007.132-.144.004-.004.4-.275.015-.01M709.309 379.821l-.314-1.098-.175-.539-.28-.503-.373-.449-.451-.376-.514-.29-.555-.192-.577-.087-.574.022-.552.129-1.108.296"/><path d="m708.997 378.723.008.066.026.228.004.031.026.228-.048.548-.161.52-.265.472-.361.408-.005.003-.437.323-.507.232-.551.129-.575.022-.577-.087-.556-.192-.514-.29-.452-.376-.373-.449-.279-.504-.176-.539-.064-.554.049-.548.161-.52.266-.472.357-.403.004-.004.443-.326.229-.104.018-.009.229-.104.03-.014"/><path d="m708.534 377.69.28.503.175.539.031.264.003.03.031.26-.049.547-.161.52-.265.473-.357.402-.004.005-.442.326-.506.232-.552.129-.575.022-.576-.087-.557-.192-.514-.289-.452-.377-.373-.449-.279-.503-.176-.54-.064-.554.049-.548.161-.52.266-.472.361-.407.005-.004.438-.321.247-.114.019-.008.24-.11.552-.129.574-.022.577.087.555.192.514.29M718.138 372.378l-.004.004-.415.286-.48.193-.526.094-.554-.01-.558-.112-.542-.21-.506-.301-.448-.379-.375-.444-.286-.491-.188-.519-.08-.527.029-.515.137-.484.24-.433.199-.217.006-.007.129-.141.005-.003M718.602 369.541l.187.518M718.872 370.586l-.028.515M718.704 371.584l-.065.119-.008.013-.166.301M714.328 367.88l.481-.192M715.336 367.595l.553.01M727.794 363.101l.001.475-.103.437-.202.383-.291.312-.003.003-.093.058-.007.004-.276.172-.441.145-.337.033-.155.016-.34-.032-.182-.016-.532-.144-.523-.233-.492-.315-.444-.383-.377-.437-.296-.475-.205-.494-.105-.493v-.475l.103-.437.021-.04.003-.006.179-.337.295-.314.004-.003.372-.231.442-.143M724.301 360.082l.522.049.532.144.522.233.491.314.443.383.377.437.296.474.162.389M727.691 362.607l.092.436M733.583 354.544l.002.001.474.328.026.024.41.363.38.429.309.455.226.464.009.03.127.423.038.427-.011.071-.048.313-.155.326-.242.252-.003.003-.326.175-.056.012-.337.076-.152-.001h-.009l-.286-.002-.017-.004-.465-.089-.499-.181-.498-.26-.476-.33-.107-.094-.33-.294-.032-.036-.349-.393-.309-.456-.227-.464-.135-.454-.01-.116-.001-.006-.027-.306.06-.383.156-.326.246-.254.003-.002.323-.172.394-.087.446.003.482.094M730.937 354.267l-2.597 1.483M741.891 352.652l.08.363-.009.325-.099.262-.185.188-.002.002-.268.11-.337.025-.394-.06-.436-.143-.461-.221-.468-.289-.458-.348-.003-.003-.426-.389-.144-.157-.241-.265-.324-.434-.253-.432-.17-.411-.082-.375.004-.137.005-.187.101-.262.188-.189.003-.001.17-.069.095-.038.337-.025M741.141 351.366l.324.434.253.43.17.411M737.508 349.626l-1.107.647-1.799 1.053M738.508 349.554l.435.143.461.221.106.066.049.03.007.005.305.188.457.348M746.818 350.542l-.011.056v.001l-.028.138-.112.109-.001.002-.008.007-.001.002-.062.012-.141.028-.275-.041-.336-.12-.384-.196-.419-.263-.436-.321-.022-.019-.002-.001-.413-.346-.421-.396-.388-.413-.342-.413-.281-.396-.21-.365-.028-.069-.004-.01-.099-.241-.046-.262.039-.195.123-.118.001-.001h.002l.201-.039.244.036.031.005M746.43 349.595l.21.364"/><path d="m742.512 346.711-.202.118-1.814 1.061-1.105.646M743.711 347.029l.418.263M745 347.979l.391.369.029.027.388.411M749.996 349.661l-.054.048-.001.001-.134-.03-.208-.108-.274-.182-.33-.25-.373-.306-.402-.353-.415-.384-.412-.402-.393-.403-.36-.39-.153-.178-.001-.002-.157-.181-.252-.319-.183-.263-.106-.199-.026-.125.052-.046.004-.003.001.001M748.363 347.601l.393.403.359.389.311.361M749.68 349.071l.183.264.107.198M745.817 345.586l-2.321 1.332M746.16 345.726l.275.183.33.249.298.246.001.001.073.06.401.352.414.384M751.454 350.359l-.064-.1-.14-.174-.211-.244-.274-.302-.326-.349-.367-.384-.392-.403-.403-.406-.398-.395-.378-.367-.343-.326-.295-.272-.236-.208-.167-.135-.093-.058M747.367 346.236l-.301.166M750.996 352.125l-.036-.074-.219-.353-.026-.036M629.195 460.944l.003-.003.058-.064.138.015.21.097.274.175.327.246.085.071.001.001.282.235.394.358.406.393.319.329.001.001.023.023.059.061.382.42.348.408.3.381.24.34.172.285.097.219.018.145-.001.001-.052.056-.002.002-.007.007-.138-.016-.211-.098-.274-.175-.327-.246-.367-.307-.394-.357-.405-.392-.401-.414-.381-.418-.348-.408-.119-.151-.001-.001-.179-.228-.241-.34-.172-.285-.098-.22-.018-.144-.001-.001v-.001Zm0 0 1.398-2.382.167-.286M633.27 465.147l.003-.002M629.903 462.166l-.344.608.069.082.145.158.218.228.28.289.332.338.372.376.397.398.406.405.401.397.379.373.344.335.294.284.234.222.165.151.088.076M634.672 466.341l.117.088.346.228.294.159.229.083.157.006.002-.001.003-.002.282-.161M653.832 426.776l-.737 1.661-.203.484-.103.53.002.556.105.56.206.544.298.506.379.449.445.375.494.286.524.186.535.08 1.678-.062"/><path d="m653.094 428.438.296-.418.063-.057.313-.281.444-.243.493-.14.525-.031.534.08.525.186.495.286.445.375.379.449.298.507.206.544.106.562.001.556-.103.53-.204.483-.296.418-.377.337-.444.243-.024.007-.469.132-.524.031M635.82 466.903l.284-.162M633.684 466.886l.001.001.01-.004M633.695 466.882l.979-.542.002-.002.775-.429.002-.002.066-.036M633.331 465.081v.002l-.051.055-.002.001-.005.005-.003.004-.139-.016-.21-.097-.274-.175-.327-.246-.367-.307-.394-.357-.405-.393-.401-.413-.382-.419-.347-.407-.12-.152-.001-.001-.179-.228-.24-.339-.173-.286-.097-.22-.019-.146h.001M631.691 462.8l.001.001.021.022.001.001.06.062.383.419.347.408.3.381.241.34.172.285.096.219M629.254 460.881l.137.015.21.097.274.174.327.246.085.071.001.001.282.236.395.357M633.27 465.149l.011-.006.002-.001 1.013-.531.003-.001.272-.143M632.481 454.279l-1.039 1.742-.8 1.342-.052.214.027.263.002.023.11.346.032.067.001.001.154.325.256.426.315.441.168.204.001.001.193.235.397.423.414.388.099.08.001.001.317.258.044.03.001.001.358.246.374.204.288.108.005.002.037.014.275.039.168-.039.003-.001.037-.008.741-.359.004-.002.013-.006.002-.001.508-.245.005-.003.011-.005.002-.001"/><path d="m630.641 457.364.132-.134.208-.049.274.038.307.114.024.009.374.205.404.277.417.339.415.389.397.423.363.441.249.348.002.004.065.091.249.415.005.007.002.003.186.394.11.346.028.285-.053.213-.133.134M635.595 449.244l-1.523 2.562-.179.302-.122.277-.037.347.024.201.025.202.134.444.213.467.284.473.068.09.092.124.185.247.376.414.015.016.423.384.439.323.317.18.121.069.42.165.385.076.338-.016.275-.108 3.1-1.325"/><path d="m633.891 452.108.202-.197.275-.109.337-.018.386.076.42.165.438.25.385.282.055.041.424.384.22.242.172.189.273.365.072.097.094.156.19.317.213.468.133.444.049.403-.038.347-.122.276-.203.197M640.354 442.753l-1.486 2.572-.187.334-.099.401-.008.454.084.489.173.504.255.502.249.365.078.113.31.352.076.086.432.38.46.308.47.224.463.131.126.01.312.024.395-.066.834-.288"/><path d="m638.867 445.325.268-.253.338-.163.396-.067.171.013.267.02.463.131.471.224.461.308.432.381.387.438.327.48.255.502.173.505.083.489-.008.454-.004.017-.022.089-.074.295-.188.333-.268.253-.339.162M646.296 435.511l-1.109 2.082-.156.448-.058.497.039.526.137.536.228.526.311.494.383.444.439.377.478.295.499.203.335.068.167.034.484-.002.063-.015 2.201-.505"/><path d="m645.188 437.593.245-.381.327-.301.248-.131.148-.077.448-.108.485-.003.502.102.5.202.479.296.438.378.383.444.312.495.229.526.136.537.039.527-.06.496-.156.448-.245.381-.01.008-.318.292-.396.207-.448.108M661.96 418.712l-.182.833-.028.576.081.577.189.556.287.514.376.453.45.373.506.28.834.335"/><path d="m661.777 419.544.137-.552.034-.071.207-.437.335-.443.416-.362.196-.108.017-.01.008-.004.014-.008.247-.136.528-.161.276-.025.01-.001.269-.024.56.064.545.176.506.279.45.374.376.453.288.514.188.557.081.577-.028.576-.138.552-.241.508-.335.443-.416.361-.482.267-.528.16-.555.049-.559-.064h-.001l-.544-.175M673.46 412.495l-.515-.277-.453-.373-.373-.454-.28-.518-.176-.562-.065-.585.021-.25.028-.335.161-.563.266-.518.362-.455.443-.373.508-.277.552-.171.577-.058.219.022.358.035.557.171.515.276.454.373.373.454.28.519.176.562.065.585-.049.585-.161.563-.267.518-.362.455-.443.373-.508.277-.552.171-.576.057-.578-.057-.557-.17ZM683.86 401.933l-.519-.277-.455-.373-.372-.454-.277-.518-.015-.052-.154-.509-.056-.584.06-.583.173-.561.279-.516.375-.452.457-.371.2-.105.321-.17.564-.168.587-.056.586.059.564.171.519.278.454.373.373.454.276.517.169.562.056.583-.059.583-.173.561-.279.516-.376.452-.456.371-.521.275-.564.169-.587.056-.587-.059-.563-.172ZM694.494 391.541l-.518-.282-.454-.374-.373-.452-.276-.513-.169-.554-.056-.573.06-.57.172-.547.28-.5.375-.436.456-.355.521-.259.564-.155.586-.044.586.069.563.179.518.282.454.374.372.452.276.513.17.553.056.573-.06.571-.172.546-.279.5-.375.437-.456.355-.521.259-.564.155-.586.044-.586-.069-.564-.179ZM654.461 511.559l4.906 8.714 3.795 6.74 4.039 7.473 4.719 7.542 5.225 7.333 5.54 6.858 5.651 6.128 6.376 6.538 6.411 7.675.625.748 6.415 6.978 5.422 5.392 5.762 2.102 3.49.993 3.336-2.361 1.095-1.051"/><path d="m647.733 480.268-1.526 1.468-1.456 1.401-1.403 4.89 1.469 5.534 2.667 7.424 5.508 8.346 1.471 2.228 1.324 2.006 4.17 6.32M657.398 499.802l.606-.556.232-.213 1.254-1.152 3.106-.434 1.37.371 2.639.714 4.76 2.573 5.33 3.972 5.69 5.219 5.824 6.265 5.724 7.061 5.392 7.575 4.845 7.783 4.104 7.678 3.2 7.266 2.175 6.567 1.072 5.612-.032 2.096-.035 2.351-.942 2.467-.248.649-2.26 1.68-3.232.192-4.073-1.289-4.754-2.711-5.253-4.02-5.556-5.172"/><path d="m663.162 527.013-3.207-7.128-2.251-6.518-1.206-5.66-.107-4.583 1.007-3.321M714.688 568.199l-3.351-1.039-4.67-2.635-.096-.054-5.261-3.998-5.559-5.153-5.65-6.111-5.535-6.843-5.216-7.323-4.706-7.535-4.023-7.47-3.188-7.13-.21-.614-2.021-5.91-1.184-5.67-.053-2.896"/><path d="m647.73 480.268 5.75-1.892 6.702.67 8.992 1.761 8.808 4.769 8.044 5.941 1.128.833 4.221 3.477 5.493 4.525 6.304 7.762 2.065 2.542 4.804 8.77 1.876 3.425 4.539 8.91.55 1.08 1.119 2.197 3.503 8.654 1.434 3.541 2.772 9.608.625 2.167.578 3.982 1.021 7.03 1.323 8.311-1.417 7.623-1.149 2.861-.643 1.597M1195 778.206l9.96.883 9.97.884 10.24.908 9.3 3.657 9.31 3.657 5.51 2.166 9.42 3.374 9.41 3.374 5.77 2.07 9.24 3.829 9.24 3.829 5.16 2.138 3.92-1.824 6.57-7.539.51-.582-6.2-7.848-5.49-6.96-6.2-7.848-5.49-6.95-6.2-7.848-5.48-6.94-6.2-7.848-5.47-6.929-6.57-7.539-6.57-7.539-6.57-7.539-6.57-7.539-6.57-7.539-6.57-7.539-6.57-7.539-6.57-7.539-3.04-3.492-9.98.585-9.99.585-9.98.586-9.98.585-9.99.586-9.98.585-9.98.586-4.84.283-9.98.586-9.99.585-9.98.586-9.49.556"/><path d="m1179.03 787.377 8.67-4.979 7.3-4.193 3.42-1.962 9.96.885 9.96.886 9.97.885.55.049 9.31 3.659 9.3 3.66 5.59 2.198 9.42 3.376 9.41 3.376 5.85 2.1 9.24 3.831 9.24 3.831 5.23 2.171M1068.23 921.04l4.2-9.075 4.2-9.075 4.2-9.075 1.37-2.959 4.04-8.721.81-1.744.54-1.179-8.46-5.325-4.62-2.906-8.47-5.325-8.46-5.325-8.46-5.325-8.47-5.325-5.11-3.218-8.47-5.325-8.46-5.325-8.47-5.325-8.46-5.324-8.466-5.325-8.465-5.325-8.464-5.325-4.482-2.82-2.89 1.895-.036.921-.388 9.993-.388 9.992-.389 9.993-.388 9.992-.242 6.237-.389 9.992-.388 9.993-.388 9.992-.388 9.992-.389 9.993-.388 9.992-.388 9.993-.388 9.992-.128 3.284 7.567 6.537 7.568 6.538 7.567 6.537 7.568 6.537 7.562 6.537 7.57 6.537 7.57 6.537 7.57 6.537 6.37 5.506 7.9 6.132 7.52 5.84 7.9 6.14 7.51 5.83 7.89 6.13 7.5 5.83 7.9 6.13 7.48 5.81 3.38-1.06 6.57-7.54 1.23-1.41-3.86-9.22-3.87-9.22-3.22-7.69-3.43-9.393-3.44-9.39-3.06-8.366-3.71-9.289-3.7-9.29-3.1-7.786-1.16-9.933-1.16-9.932-1.16-9.933-.44-3.768Z"/><path d="m971.803 806.369-.173 4.475-.385 9.993-.385 9.992-.385 9.993-.385 9.992-.11 2.843-.385 9.993-.385 9.992-.385 9.993-.385 9.993-.385 9.992-.385 9.993-.385 9.992-.385 9.993-.138 3.57M963.848 938.616l2.914-1.447 7.567 6.537 7.568 6.538 7.567 6.537 7.567 6.537 7.569 6.538 7.56 6.537 7.57 6.537 7.57 6.538 6.62 5.716 7.89 6.136 7.58 5.88 7.9 6.14 7.56 5.87 7.9 6.14 7.55 5.86 7.9 6.14 7.54 5.85M1439.42 363.062l5.88 8.095 5.85 8.064 1.68 2.077 6.6 7.504 6.29 7.137 7.28 6.853 7 6.58 7.88 6.149 7.65 5.963 8.42 5.399 8.24 5.286 8.88 4.608 8.77 4.554 9.25 3.783 9.23 3.771 9.56 2.93 9.61 2.945 9.78 2.054 9.9 2.079 9.93 1.163 10.11 1.183 2.62.141 10 .259 10 .258.78.021 7.79-.508 9.98-.65.68-.044 2.34-.152 9.87-1.561 9.88-1.56.84-.133 9.69-2.464 9.69-2.463.84-.212 9.42-3.356 9.42-3.356.81-.289 9.06-4.227 9.06-4.227.78-.361 4.94-2.406 8.62-5.071 8.62-5.072 1.06-.622 8.09-5.879 8.09-5.879.97-.711 7.48-6.643 7.47-6.642.89-.79 4.27-4.538 6.78-7.351 6.78-7.35.91-.997 6.01-7.995 6.01-7.995.81-1.072 5.16-8.564 5.16-8.564.69-1.143 4.26-9.05 4.25-9.05.57-1.211 2.55-5.843 3.29-9.442 3.29-9.443.44-1.254 2.28-9.736 2.29-9.737.31-1.321 1.24-9.922 1.25-9.923.17-1.393.25-5.778.19-9.999.18-9.998.03-1.223-.88-9.961-.87-9.961-.11-1.295-1.93-9.813-1.92-9.812-.27-1.364-2.95-9.554-2.95-9.554-.44-1.427-3.94-9.192-3.94-9.191-.64-1.477-1.56-3.508-4.88-8.729-4.88-8.73-.61-1.093-5.76-8.176-5.75-8.175-.79-1.121-6.57-7.541-6.57-7.541-.97-1.12-7.3-6.834-7.3-6.832-1.17-1.088-7.95-6.065-7.95-6.062-1.35-1.024-8.51-5.24-8.52-5.237-1.51-.928-8.99-4.372-9-4.37-1.64-.801-9.38-3.468-9.38-3.468-1.76-.648-9.67-2.538-9.67-2.538-1.82-.478-9.88-1.591-9.87-1.59-1.85-.297-9.98-.633-9.98-.633-1.82-.116-10 .33-9.99.33-1.76.058-9.92 1.287-9.92 1.285-1.65.215-9.75 2.232-9.75 2.233-1.51.346-4.15.995-9.49 3.159-9.49 3.159-1.78.59-9.13 4.06-9.14 4.06-1.57.694-8.7 4.925-8.7 4.925-1.34.758-8.19 5.75-8.18 5.75-1.11.78-4.54 3.513-7.58 6.522-7.58 6.522-1.06.912-6.9 7.239-6.9 7.237-.83.877-6.15 7.884-6.15 7.887-.63.811-3.34 5.265-5.33 8.458-5.34 8.46-.47.742-4.46 8.95-4.46 8.95-.32.645-3.54 9.353-3.54 9.353-.2.546-2.58 9.661-2.58 9.662-.12.451-1.35 5.849-1.6 9.872-1.59 9.873-.04.202-.59 9.982-.61 10.122.41 9.991.41 10.091 1.4 9.901 1.41 9.985.73 4.877 2.37 9.714 2.31 9.461 3.32 9.435 3.24 9.216 4.22 9.068 4.14 8.902 5.07 8.619 5.01 8.519Z"/><path d="m1568.65 355.331-8.03-5.074-6.47-5.062-6.94-6.599-5.49-6.222-5.36-7.664-4.33-7.496-3.6-8.057-2.87-8.875-.56-8.801 1.02-7.153-.17-8.404.83-8.806 1.67-8.655 1.84-6.223.65-2.201 3.27-8.128 4.22-7.444 6.05-4.765 5.9-4.968 6.94-6.529 7.57-5.76 6.68-4.552 7-3.935 7.26-3.3 7.47-2.654 8.58-1.616 1.46-.275 8.65-.422 7.36 1.139 7.13 1.496 8.1 2.27 9.2 3.548 6.33 3.087 6.11 3.35 6.57 4.109 4.65 3.575 3.47 2.674 5.03 4.691 4.81 4.933 4.77 5.454 5.81 8.144.18.253 3.57 6.26 3.14 6.346 2.82 6.646 1.22 9.19.06 9.097-.53 3.862-.52 3.774-1.75 7.596-2.46 7.489-3.2 7.591-4.29 8.558-5.06 7.611-3.1 6.728-4.12 6.595-7.06 5.475-7.58 4.853-8.06 4.18-8.47 3.454-8.8 2.684-7.94 1.85-7.57 2.753-9.43.681-9.65-.819-8.27-1.642-9.24-2.561-8.99-3.472-7.48-3.862ZM1727.54 275.311l-.05-10v-1.322l-1.3-9.916-.1-.806-.1-.719M1556.7 189.084l-7.94 6.078-1.45 1.107-6.61 6.267-1.98 1.868-7.31 6.194M1705.23 333.083l5.56-8.314.76-1.134M1615.19 168.075l-9.98.519-.77.039-9.82 1.881-2.67.51M1654.76 178.487l-9.34-3.578-2.12-.812M1788.05 321.55l1.67-5.272 1.36-5.121 1.16-5.12.2-1.473-.1-1.587.17-5.009-.05-4.844-.58-1.529-.12-1.004.05-4.638.04-4.379.04-3.445-1.09-5.088M1736.49 289.351l-2.79 6.11"/><path d="m1740.63 327.747 1.43-4.636.22-4.408.6-4.747 1.03-4.634 1.36-4.801 1.48-4.91.34-3.864 2.19-4.793 2.52-3.088 2.67-4.149 2.93-3.793 3.18-3.402 1.29-1.384 2.3-.794 3.21-1.631 3.3-1.289 3.39-.772 2.79-.694 1.67-.646 2.72.84 2.69 1.642 2.58 2.13 2.46 2.597 1.78 1.45.44.366.69-.208M1743.09 280.126l-3.4 5.289M1789.72 316.277l-.69 1.588-.02.054-.96 1.442-2.23 4.812-2.21 4.645-.7 2.069-2.08 5.468-1.42 3.733M1771.65 262.604l-3.56.88-4.32.98-4.21 1.64-4.1 2.076"/><path d="m1782.91 330.888-.19.394-.35.777-1.47 3.195-1.7 3.687M1725.96 340.248l.78 5.178 1.7 4.006 2.28 3.169M1750.51 364.115l1.93-1.544 4.19-1.82M1789.93 273.304l-2.83-2.316M1728.38 318.653l-.75 6.04-.26 5.604M1734.55 359.192l.42 1.944 3.04 1.833 3.41 1.281 3.76.719M1733.27 300.385l-1.87 6.255-1.72 6.115M424.263 792.944l3.478 2.895.919 1.184 1.214 1.562 1.312 1.687.063.08.819 1.22 1.501 2.252 1.1 1.647.074.102 1.384 2.45 1.469 2.621.156.279.688 1.496 1.262 2.744.513 1.115.259.708 1.019 2.785.71 1.943 1.848 6.648m-19.788-35.418.018.02 5.108 6.575 4.357 6.573.095.143.121.183 3.994 7.152 3.373 7.332 2.722 7.44m-19.788-35.418-5.574-6.166-6.02-5.733-6.386-5.224-6.689-4.661-6.923-4.053-7.088-3.403-3.899-1.62-7.75-2.939-7.771-2.174-5.36-.974-8.207-1.479-8.062-.633-6.458-.043-8.232.228-7.913 1.115-7.138 1.078-7.803 2.063-7.191 2.187-7.511 3.026-7.011 3.261-7.051 3.961-6.611 4.258-6.441 4.837-6.005 5.143-5.707 5.616-5.222 5.88-4.877 6.273-4.286 6.441-3.987 6.781-3.234 6.802-3.067 7.124-2.1 6.946-2.156 7.287-1.36 7.693-.846 6.436-.526 7.583.236 7.827.286 5.495.925 7.454 1.621 7.544 1.195 4.154 2.109 6.941 2.711 6.895 3.285 6.787 3.828 6.616 4.336 6.383 4.802 6.093 5.225 5.746 5.598 5.347 5.921 4.898 6.189 4.404 6.4 3.87 6.553 3.297 3.874 1.839 7.239 2.937 7.275 2.251 5.371 1.203 7.767 1.656 7.662.88 6.508.284 7.92.1 7.66-.737 7.238-.828 7.662-1.639 7.3-1.943 7.489-2.581 7.131-3.018 7.148-3.526 6.745-4.017 6.649-4.441 6.16-4.901 6.012-5.287 5.395-5.643 5.258-6.033 4.484-6.211 4.417-6.648 3.455-6.581 3.52-7.109 2.7-7.674 2.25-6.457 1.782-7.868 1.112-6.294.897-7.871.082-8.171-.015-5.415-.689-7.889-1.455-8.016-.929-4.13-2.044-7.472M434.669 805.471l-.923.641"/><path d="m441.332 820.922.355.97 1.394 3.812.973 2.658M247.305 921.4l-.336-.658-1.631-3.197-1.713-4.201-.888-4.017-.171-3.179-.478-3.919-.1-4.061.261-3.958.613-3.818.952-3.65 1.346-3.278 2.031-1.862 2.076-2.018 2.574-2.776 2.879-2.396 2.609-1.891 2.769-1.592 2.899-1.287 3.011-.977 4.089-.518 3.565.113 3.033.822 2.969.969 3.421 1.352 3.968 1.962 2.783 1.635 2.72 1.74 2.965 2.095 3.768 3.105 2.407 2.285 2.339 2.383 2.37 2.612 3.11 3.965 1.968 2.921 1.807 2.941 1.706 3.063 1.077 4.231.587 4.157-.004 3.475-.312 3.444-.624 3.381-.932 3.409-1.286 3.805-1.691 3.362-.651 2.898-1.101 2.817-2.661 2.328-2.931 2.033-3.181 1.714-3.407 1.371-3.606 1.011-3.266.637-2.788.948-3.876.013-4.15-.652-3.641-.983-4.076-1.452-4.039-1.864-3.415-2.004-3.716-2.587-1.764-1.471-1.28-1.068-3.329-3.268-2.671-3.061-2.706-3.721-2.251-3.613Zm0 0-1.249-2.124M258.262 935.063l1.423 1.209M331.805 900.467l-1.336-5.279M326.43 931.687l2.118-4.191 1.614-4.743 1.17-4.25M278.906 852.994l-4.447-.132-5.1.657M290.664 856.893l-4.269-1.68M306.189 866.147l-3.701-2.611M368.98 904.754l.3 1.542.381 1.961.405 2.08.179.438.605.606.658 2.093.521 2.189.27.679.098.637.008 2.259-.139 2.282-.24.758-.404.678-.641 2.166-.667 2.098-.091.907-.036.171-.365 1.723-.339 1.601M338.477 911.771l-1.028 2.83.199 2.217M343.737 929.069l.135-2.019-.489-1.892-.256-2.077-.006-2.036.223-2.147.274-2.196-.154-1.739.807-2.219 1.164-1.476 1.202-1.976 1.38-1.824 1.545-1.654.626-.673 1.319-.476 1.818-.908 1.889-.754 1.967-.518 1.622-.454 1.022-.408 1.798.199 1.83.569 1.798.8 1.751 1.023 1.55.682.427-.142.998-3.16M341.493 907.369l-1.532 2.519M372.52 927.533l.816-2.755.515-.863.305-.965M346.022 902.075l-.799.858M357.01 898.115l-2.069.578-2.508.659-2.41.96M357.805 942.975l.901-.739 2.322-1.004 2.304-1.222 2.265-1.427 1.824-.331 1.724-.506 1.465-1.944.432-2.036M367.461 900.904l-2.231-1.305-2.292-1.021M338.715 934.255l1.32 2.131L341.68 938l1.897 1.221 1.988 1.432M337.359 927.594l.626 2.41-.168 2.571M1384.99 284.011l-7.17-6.965-7.18-6.965-7.17-6.965-6.77-6.569-6.97 7.175-6.96 7.175-6.97 7.176-4.59 4.737-1.98 2.03 7.18 6.966 7.18 6.965 7.17 6.965 6.77 6.569 1.9-1.963 6.97-7.176 6.97-7.175 6.96-7.176 4.66-4.804ZM1351.43 252.137l-7.17-6.965-7.18-6.965-2.56-2.487-6.97 7.175-6.96 7.175-2.49 2.563 7.18 6.965 7.17 6.965 2.56 2.487 6.97-7.176 6.96-7.175 2.49-2.562ZM1369.86 237.406l-7.17-6.965-4.4-4.265-6.96 7.175-4.27 4.394 7.18 6.965 4.39 4.266 6.97-7.176 4.26-4.394ZM158.395 204.71l6.982 7.159 6.983 7.159 6.982 7.158 6.982 7.159 6.982 7.159 6.982 7.159 6.982 7.159 6.982 7.159 6.982 7.159 6.982 7.159 6.983 7.159 6.982 7.159 6.982 7.159 6.982 7.159 6.982 7.159 6.982 7.158 6.982 7.159 6.982 7.159 6.982 7.159 6.983 7.159 6.982 7.159 6.982 7.159 6.982 7.159 6.982 7.159 6.982 7.159 6.982 7.159 6.982 7.158 6.983 7.159 6.982 7.159 6.982 7.159 6.982 7.159 6.982 7.159 6.982 7.159 6.982 7.159 6.982 7.159 6.982 7.159 6.983 7.159 6.982 7.159 6.982 7.159 6.982 7.158 6.982 7.159 6.982 7.159 6.982 7.159 6.982 7.159 6.982 7.159 6.983 7.159 6.982 7.159 6.982 7.159 6.982 7.159 6.982 7.159 6.982 7.159 6.982 7.158 6.982 7.159 6.982 7.159 6.983 7.159 6.982 7.159 6.982 7.159 6.982 7.159 8.715 8.936 7.071-7.071 3.404-3.404-7.159-6.983-7.158-6.982-7.159-6.982-7.159-6.982-7.159-6.982-7.159-6.982-7.159-6.982-7.159-6.982-7.159-6.983-7.159-6.982-7.159-6.982-7.159-6.982-7.159-6.982-7.158-6.982-7.159-6.982-7.159-6.982-7.159-6.982-7.159-6.983-7.159-6.982-7.159-6.982-7.159-6.982-7.159-6.982-7.159-6.982-7.159-6.982-7.159-6.982-7.158-6.982-7.159-6.983-7.159-6.982-7.159-6.982-7.159-6.982-7.159-6.982-7.159-6.982-7.159-6.982-7.159-6.982-7.159-6.983-7.159-6.982-7.159-6.982-7.159-6.982-7.158-6.982-7.159-6.982-7.159-6.982-7.159-6.982-7.159-6.982-7.159-6.983-7.159-6.982-7.159-6.982-7.159-6.982-7.159-6.982-7.159-6.982-7.159-6.982-7.158-6.982-7.159-6.982-7.159-6.983-7.159-6.982-7.159-6.982-7.159-6.982-7.159-6.982-7.159-6.982-8.936-8.715ZM214.383 431.413l6.982 7.159 6.982 7.159 6.982 7.158 6.982 7.159 6.982 7.159 6.983 7.159 6.982 7.159 6.982 7.159 6.982 7.159 6.982 7.159 6.982 7.159 6.982 7.159 6.982 7.159 6.982 7.158 6.983 7.159 6.982 7.159 6.982 7.159 6.982 7.159 6.982 7.159 6.982 7.159 6.982 7.159 6.982 7.159 6.982 7.159 6.983 7.159 6.982 7.159 6.982 7.159 6.982 7.158 6.982 7.159 6.982 7.159 6.982 7.159 6.982 7.159 6.983 7.159 6.982 7.159 6.982 7.159 6.982 7.159 6.982 7.159 6.982 7.159 6.982 7.159 6.982 7.158 6.982 7.159 6.983 7.159 6.982 7.159 6.982 7.159 6.982 7.159 6.982 7.159 6.982 7.159 6.982 7.159 6.982 7.159 6.982 7.159 6.983 7.159 6.982 7.158 6.982 7.159 6.982 7.159 6.982 7.159 6.982 7.159 6.982 7.159 6.982 7.159 6.982 7.159 8.716 8.936 7.071-7.071 3.404-3.405-7.159-6.982-7.159-6.982-7.159-6.982-7.159-6.982-7.159-6.982-7.159-6.982-7.159-6.982-7.158-6.982-7.159-6.983-7.159-6.982-7.159-6.982-7.159-6.982-7.159-6.982-7.159-6.982-7.159-6.982-7.159-6.982-7.159-6.982-7.159-6.983-7.159-6.982-7.158-6.982-7.159-6.982-7.159-6.982-7.159-6.982-7.159-6.982-7.159-6.982-7.159-6.983-7.159-6.982-7.159-6.982-7.159-6.982-7.159-6.982-7.159-6.982-7.158-6.982-7.159-6.982-7.159-6.982-7.159-6.983-7.159-6.982-7.159-6.982-7.159-6.982-7.159-6.982-7.159-6.982-7.159-6.982-7.159-6.982-7.159-6.982-7.158-6.983-7.159-6.982-7.159-6.982-7.159-6.982-7.159-6.982-7.159-6.982-7.159-6.982-7.159-6.982-7.159-6.983-7.159-6.982-7.159-6.982-7.159-6.982-7.158-6.982-7.159-6.982-7.159-6.982-8.936-8.715ZM1638.4 461.41l6.98 7.159 6.99 7.159 6.98 7.159 6.98 7.159 6.98 7.159 6.99 7.159 6.98 7.159 6.98 7.159 6.98 7.159 6.98 7.159 6.99 7.159 6.98 7.158 6.98 7.159 6.98 7.159 6.98 7.159 6.99 7.159 6.98 7.159 6.98 7.159 6.98 7.159 6.98 7.159 2.65 2.715 7.07-7.071 2.15-2.145-7.16-6.982-7.16-6.982-7.16-6.982-7.16-6.983-7.15-6.982-7.16-6.982-7.16-6.982-7.16-6.982-7.16-6.982-7.16-6.982-7.16-6.982-7.16-6.982-7.16-6.983-7.16-6.982-7.15-6.982-7.16-6.982-7.16-6.982-7.16-6.982-7.16-6.982-4.83-4.712"/><path d="m1331.2 282.81-7.15-6.982-7.16-6.982-7.16-6.982-7.16-6.983-7.16-6.982-7.16-6.982-7.16-6.982-7.16-6.982-7.16-6.982-7.15-6.982-7.16-6.982-7.16-6.983-7.16-6.982-7.16-6.982-7.16-6.982-7.16-6.982-7.16-6.982-7.16-6.982-7.15-6.982-7.16-6.982-7.16-6.983-7.16-6.982-7.16-6.982-7.16-6.982-7.16-6.982-7.16-6.982-7.16-6.983-7.15-6.981-7.16-6.983-7.16-6.983-7.16-6.981-7.16-6.983-7.16-6.981-7.16-6.983-7.16-6.982-7.16-6.982-7.16-6.982-7.15-6.982-7.16-6.982-7.16-6.982-7.16-6.982-3.1-3.023 6.98 7.159 6.98 7.159 6.99 7.157 6.98 7.16 6.98 7.159 6.98 7.158 6.98 7.16 6.99 7.159 6.98 7.159 6.98 7.159 6.98 7.159 6.98 7.159 6.99 7.158 6.98 7.16 6.98 7.158 6.98 7.159 6.99 7.159 6.98 7.159 6.98 7.159 6.98 7.159 6.98 7.159 6.99 7.159 6.98 7.159 6.98 7.159 6.98 7.159 6.98 7.159 6.99 7.158 6.98 7.159 6.98 7.159 6.98 7.159 6.98 7.159 6.99 7.159 6.98 7.159 6.98 7.159 6.98 7.159 6.99 7.159 6.98 7.159 6.98 7.159 6.98 7.158 6.98 7.159 6.99 7.159 6.98 7.159 6.98 7.159 6.98 7.159 6.98 7.159 6.99 7.159 6.98 7.159 6.98 7.159 6.98 7.159 6.98 7.159 6.99 7.158 7.87 8.076 7.07-7.071 2.15-2.145-7.16-6.982-7.16-6.982-7.16-6.982-7.16-6.983-7.15-6.982-7.16-6.982-5.39-5.249M433.844 806.254l.902-.682M618.22 441.146l-.001.001M623.078 446.38l2.646 4.732M635.516 465.871l.585.869v.001l5.588 8.293 4.515 6.701M735.978 342.077l-4.823-2.699-1.393-.779M750.602 351.86l.111-.197.002-.002.732-1.293.005-.009M742.955 346.705l-.444-.299-1.894-1.277M938.283 786.675l-.615 1.104-.002.003-.338.607-.001.002-.761 1.366M937.924 786.38l-.768 1.363M945.836 792.854l2.041 1.671.496.406M954.339 800.426l-.616 1.134M955.858 800.422l-.366.699-.188.358-.001.003-.088.168M1070.71 670.318l.01-.002M1077.84 657.393l.18-.319M1076.6 661.311l1.73-3.047M1083.04 687.208l1.83-3.351M1086.53 682.25l1.99-3.577M1088.57 678.327l.38-.699 1.23-2.205M1087.05 880.392l6.63 3.995 1.72 1.037M962.262 805.199l6.616 3.986"/><path d="m1135.02 754.059-5.16-8.565-5.16-8.564-5.16-8.564-5.17-8.565-5.16-8.564-5.16-8.565-5.16-8.564-5.17-8.565-.47-.781-1.21-2.013-3.09-5.121M1780.83 336.355l2.28-4.784"/></g><defs><clipPath id="a"><path fill="#fff" d="M0 0h1920v1080H0z"/></clipPath></defs></svg>