<svg width="1920" height="1080" fill="none" xmlns="http://www.w3.org/2000/svg"><path d="m1084.23 669.482-.24.133M1090.26 674.626l-.06-.1-.14-.188-.23-.27-.31-.341-.37-.398-.42-.441-.45-.466-.47-.475-.47-.463-.45-.436-.41-.391-.36-.331-.29-.258-.22-.176-.13-.087-.03.007-.33.178v.001l-.51.274v.001l-.17.092" stroke="#EFC018" stroke-width="5" stroke-linejoin="round"/><path d="m1090.26 674.626-.04.007-.12-.086-.22-.175-.29-.258-.36-.331-.41-.391-.45-.437-.47-.465-.47-.475-.46-.467-.42-.442-.37-.399-.3-.34-.23-.269-.15-.188-.05-.097v-.001M1089.5 676.996v-.002l.02-.179-.07-.265-.11-.244v-.001l-.05-.095-.25-.403-.32-.451-.17-.211v-.002l-.21-.267-.44-.493-.46-.484-.48-.459-.47-.416-.46-.356-.34-.238-.07-.045-.35-.2-.29-.107-.2-.012-.95.489-.01.002" stroke="#EFC018" stroke-width="5" stroke-linejoin="round"/><path d="M1089.5 676.994v.001l-.12.084-.2-.01-.22-.082-.07-.025-.35-.199-.41-.279v-.004l-.2-.159-.01-.001-.25-.197-.47-.416-.48-.46-.47-.486-.43-.493-.39-.482-.32-.451-.25-.403-.16-.34-.07-.264.03-.176v-.002l.1-.077.01-.007M1081.75 676.719l.1-.251v-.003l.14-.117.01-.002.04-.034.01-.007.28-.06.19.022.01.001.16.018.41.143.47.237.49.322.5.397.39.362v.002l.1.09.46.495.41.517.35.519.28.501.18.464.08.326v.004l.02.079v.338l-.11.255v.001l-.19.16-.28.061M1085.01 681.14l-.49-.323-.5-.397M1085.89 681.518l-.42-.141M1084.81 684.812l1.92-3.475M1083.07 679.469l-.02-.02v-.005l-.4-.493-.35-.52-.27-.502-.19-.464M1082.05 676.305l-.06.029-.01.001-1.54.74M1080.51 690.325l1.65-3.1.07-.407-.03-.472-.13-.52-.22-.548-.32-.555-.4-.54-.45-.505-.5-.45-.53-.378-.25-.142v-.001l-.27-.149-.52-.194-.48-.089-.42.02-.36.127-.49.209-.01.003" stroke="#EFC018" stroke-width="5" stroke-linejoin="round"/><path d="m1082.16 687.225-.11.208-.07.118v.002l-.27.229-.35.129-.43.02-.47-.088-.37-.138-.01-.003-.14-.053-.53-.292-.52-.379-.5-.45-.46-.506-.39-.541-.32-.556-.23-.549-.01-.037v-.01l-.12-.473-.03-.473.08-.406.13-.249.01-.005.03-.067v-.004l.27-.222.01-.008M1074.33 697.753l1.14-2.328.17-.346.14-.468.03-.529-.08-.571-.18-.589-.29-.587-.38-.56-.45-.513-.51-.447-.54-.362-.57-.264-.56-.156-.53-.042-.49.074" stroke="#EFC018" stroke-width="5" stroke-linejoin="round"/><path d="m1075.64 695.079-.01.019-.21.323-.03.046v.003l-.34.291-.42.188-.17.026v.001l-.31.048-.54-.042-.56-.155-.56-.264-.23-.154-.32-.209-.51-.447-.45-.514-.38-.562-.28-.587-.19-.591-.08-.571.03-.529.09-.27v-.008l.06-.189.24-.383v-.005l.34-.292.37-.165.05-.022" stroke="#EFC018" stroke-width="5" stroke-linejoin="round"/><path d="m1075.63 695.086-.21.335-.03.049v.005l-.34.293-.42.188-.16.025-.01.001-.32.049-.53-.041-.56-.156-.15-.071-.42-.193-.23-.154-.31-.208-.51-.447-.46-.515-.37-.561-.29-.588-.19-.59-.07-.571.03-.529.08-.279.01-.009.05-.18.25-.387v-.003l.34-.29M1073.92 690.823l.51.446.45.513M1082.2 686.352l.03.473-.08.407-.17.321v.004l-.27.231-.36.129-.42.02-.48-.088-.36-.134-.01-.004-.15-.056-.53-.292-.52-.378-.5-.451-.46-.506-.39-.541-.32-.556-.23-.549-.01-.047v-.011l-.12-.462-.03-.473.08-.406.14-.256v-.005l.04-.064v-.002l.27-.228.35-.127.43-.02M1081.13 684.189l.39.54.32.555.23.548M1078.61 682.37l.51.195.27.148v.001M1079.65 682.856l.52.379M1086.72 681.341l-.19.161-.28.062-.36-.041-.42-.142-.46-.236-.5-.323-.5-.397-.49-.455-.46-.497-.02-.027v-.005l-.39-.486-.35-.52-.28-.501-.18-.464-.1-.409.01-.338.1-.254v-.001l.15-.119v-.002l.05-.038.28-.06.19.023.01.001.15.018.42.142.47.237.49.323.5.396.39.364v.001l.1.09.46.495.41.516.35.519.27.501.19.464.08.32v.004l.02.085-.01.339-.1.251v.003Zm0 0-1.91 3.466M1082.05 676.31l-.01.003M1089.45 676.553l.07.265-.02.177v.002l-.12.085-.2-.011-.22-.081-.07-.025-.35-.199-.4-.275-.01-.008-.21-.159v-.001l-.25-.197-.47-.416-.48-.46-.47-.486-.43-.493-.39-.482-.32-.451-.25-.403-.16-.34-.07-.264.03-.178v-.001l.11-.083.21.012.29.107.35.2.07.049.34.234.45.356.48.416.48.459.46.484.44.492.21.268v.002l.17.211.32.451M1087.47 680.644l1.52-2.736.51-.911M1089.83 674.069l.23.27.14.188.06.099v.001l-.04.007-.12-.085-.22-.176-.29-.258-.36-.331-.41-.391-.45-.436-.47-.465-.47-.476-.46-.467-.42-.442-.37-.399-.3-.34-.23-.269-.15-.188-.05-.098.03-.006.13.086M1086.89 671.048l.45.436.47.464.47.474.45.466M1089.15 673.329l.37.399M1085.45 669.812l-.33.178v.002l-.51.274-.17.092M1084.23 669.481v.001l-.24.133" stroke="#EFC018" stroke-width="5" stroke-linejoin="round"/><path d="m1085.12 669.989-.24-.18-.3-.197-.22-.111-.13-.02M967.034 793.355l.23-.273.003-.003.327-.183.41-.081.475.023.389.094.01.003.125.03.551.226.558.316.543.394.507.456.452.502.379.528.292.534.082.222.004.009.106.287.087.484-.022.43-.131.36-.234.276-.004.002-.324.179-.41.08-.476-.024-.523-.127-.551-.226-.557-.316-.542-.394-.506-.456-.451-.501-.378-.526-.277-.507-.003-.005-.012-.021-.193-.518-.087-.483.018-.369.001-.014.002-.047.13-.361Zm0 0 .002-.004M971.848 798.17l.112-.06M960.809 798.836l-.039-.362.054-.247v-.003l.009-.037.161-.199.002-.002.257-.108.341-.009.412.089.468.184.505.272.057.038.008.006.457.305.52.414.498.462.456.492.397.504.323.495.235.468.14.424.039.361-.065.287-.164.2-.003.001-.255.105-.342.009M963.896 802.438l-.521-.349M965.883 802.87l3.455-1.929M961.51 800.221l-.323-.494-.112-.223-.005-.009M956.504 801.039l.087-.12.001-.002.181-.028.267.066.344.158.394.235.013.008.015.011.44.31.484.385.006.005.019.017.47.412.488.467.461.481.416.478.246.314.001.001.11.141.281.415.002.003.195.357.038.106.066.185.008.209-.089.121h-.002l-.18.027-.269-.067-.211-.097-.133-.061-.407-.245-.454-.32-.156-.125-.002-.001-.325-.258-.494-.434-.487-.466-.46-.48-.415-.477-.356-.455-.008-.012-.274-.403-.197-.36-.105-.291-.009-.21Zm0 0 .004-.008M961.449 805.773l.727-.41 2.916-1.643M954.158 801.813l.102.051.192.142.273.228.344.304.148.137.016.014.238.219.444.42.47.455.477.472.466.471.033.034.014.015.39.402.391.415.329.363.256.296.173.218.082.131-.01.039-.001.001h-.001l-.102-.052-.192-.143-.274-.228-.344-.305-.402-.369-.443-.42-.469-.454-.476-.47-.465-.47-.436-.451-.39-.414-.33-.363-.256-.296-.173-.218-.084-.133.01-.041Zm0 0 .121-.225v-.002l.262-.487.001-.001.132-.248M958.988 806.64l1.797-1.001M953.898 800.382l-.163.297-.001.002.023.129.115.217.202.296.203.263M1019.63 751.284l-.6-.332-.53-.44-.44-.531-.33-.603-.21-.65-.08-.673.05-.67.18-.641.31-.588.42-.511.52-.417.59-.304.64-.181.67-.051.68.082.65.211.6.331.54.441.44.531.33.602.21.651.07.673-.05.67-.18.641-.31.588-.42.511-.51.416-.59.305-.65.181-.67.05-.68-.081-.65-.211Z" stroke="#EFC018" stroke-width="5" stroke-linejoin="round"/><path d="m958.985 806.639-.103-.052-.192-.143-.274-.228-.344-.305-.402-.369-.444-.42-.468-.453-.476-.471-.465-.469-.436-.452-.39-.415-.33-.362-.256-.296-.173-.217-.084-.133.01-.042M958.484 805.954l.256.296.173.217.082.132M954.449 802.005l.273.228M956.387 803.782l.477.472.466.471M961.421 805.154l.038.106.066.184.008.21-.088.119-.001.001-.182.028-.269-.067-.211-.097-.001-.001-.132-.061-.407-.244-.454-.32-.156-.125-.002-.001-.325-.259-.494-.433-.487-.466-.46-.48-.415-.477-.356-.455-.012-.018-.27-.397-.197-.36-.105-.291-.009-.21.007-.01.081-.112h.002l.179-.029.267.066M958.738 802.073l.483.423.488.467.461.482.417.478M961.445 805.774l.003-.001M958.242 801.678l.474.376M961.347 797.091l-.003.006-.515 1.093-.007.031-.001.003-.055.253.039.362.141.423.112.224.005.009.119.235.322.495.396.502.456.491.012.012.002.001.482.448.519.413.522.349.504.273.467.184.22.048.004.001.188.041.342-.008.258-.107 3.466-1.934" stroke="#EFC018" stroke-width="5" stroke-linejoin="round"/><path d="m960.828 798.19.007-.009.156-.192.003-.001.254-.106.341-.01.413.089.467.184.505.272.07.047.008.005.444.298.521.414.497.461.456.492.397.504.323.495.236.469.139.423.039.362-.064.286-.163.198-.002.002M972.172 797.991l-.002.003-.21.116-.119.065-.41.08-.475-.024-.523-.127-.551-.226-.557-.316-.542-.394-.506-.456-.451-.501-.378-.526-.272-.498-.003-.005-.017-.03-.193-.518-.088-.483.02-.389.001-.014.001-.027.13-.361.008-.009.225-.267.003-.002M972.277 795.926l.08.213.003.009.11.296.087.484M971.84 798.175l3.085-1.661M968.473 792.843l.399.097.01.002.115.028.551.226M974.731 787.104l-.075.491.041.539.155.564.264.568.363.549.447.509.514.452.563.375.588.285.592.184.572.075.532-.036.2-.062.27-.084 1.87-.924" stroke="#EFC018" stroke-width="5" stroke-linejoin="round"/><path d="m974.73 787.104.189-.427.295-.347.39-.251.149-.047.32-.1.532-.037.573.074.593.184.589.285.563.376.516.452.447.511.17.257.193.293.264.568.155.565.04.538-.054.359-.022.134-.19.427-.295.345-.391.251M983.922 779.361l.002.586.124.604.242.597.349.569.444.518.521.447.579.36.615.258.626.147.614.03.578-.089.52-.204 2.284-.947" stroke="#EFC018" stroke-width="5" stroke-linejoin="round"/><path d="m983.922 779.361.12-.547.238-.485.157-.184.189-.223.442-.311.52-.205.578-.089.614.029.627.146.615.259.58.36.522.448.444.518.35.57.241.598.124.604.001.587-.12.546-.239.486-.135.157-.212.249-.442.31M994.355 770.326l.1.636.224.622.339.584.442.524.527.444.592.347.634.237.652.116.645-.007.613-.132 1.607-.402" stroke="#EFC018" stroke-width="5" stroke-linejoin="round"/><path d="m994.355 770.326.027-.625.033-.129.121-.462.275-.533.385-.455.48-.361.558-.25.613-.132.646-.008.652.116.635.236.592.347.528.445.44.525.34.585.23.622.1.637-.03.625-.16.591-.27.533-.39.455-.479.359-.065.029-.493.221M1007.2 762.397l.05.046.6.338.16.073" stroke="#EFC018" stroke-width="5" stroke-linejoin="round"/><path d="m1007.25 762.443-.05-.044-.48-.398-.44-.529-.33-.596-.22-.639-.08-.66.04-.653.18-.623.3-.567.41-.491.5-.396.58-.284.64-.163.67-.035.66.094.65.22.6.338.53.442.44.529.34.596.21.64.08.66-.04.653-.18.623-.3.568-.41.49-.5.395-.58.285-.64.162-.66.035-.67-.095-.59-.198-.06-.022M1031.52 739.38l-.6-.33-.53-.44-.44-.532-.33-.604-.22-.652-.08-.677.05-.674.18-.646.3-.592.41-.517.51-.422.59-.309.63-.185.67-.055.67.078.65.208.6.33.53.44.44.531.33.604.22.653.08.676-.05.674-.18.646-.3.592-.41.517-.51.422-.58.309-.64.186-.67.055-.67-.078-.65-.208ZM1047.5 723.77l.01.069.09.6-.03.665-.16.636-.28.583-.39.506-.49.411-.56.3-.62.177-.65.047-.66-.084-.64-.213-.59-.332-.53-.44-.44-.531-.34-.6-.22-.647-.1-.669.03-.666.16-.636.28-.582.4-.507.48-.41.57-.3.61-.176.65-.047.66.085.64.212.59.333.38.316.15.123.44.53.34.6.22.647Zm0 0 .13.407M1046.5 721.993l-.22-.216M1058.09 714.388l-.24.554-.01.004-.35.48-.45.386-.53.275-.58.155-.63.028-.63-.1-.62-.224-.58-.339-.52-.441-.45-.527-.35-.592-.23-.634-.12-.652v-.645l.13-.612.24-.558.36-.48.45-.385.53-.274.38-.102.2-.052.63-.028.63.1.62.224.58.339.52.441.45.526.34.591.24.634.12.651v.644l-.13.613Zm0 0-.42 1.628M1067.45 704.421l-.31.44-.27.238-.13.108-.48.238-.54.12-.58-.002-.6-.124-.6-.241-.56-.349-.52-.444-.45-.521-.36-.579-.26-.614-.15-.625-.03-.613.08-.577.2-.518.31-.44.19-.16.21-.185.48-.237.54-.119.58.003.6.124.6.241.56.349.52.443.45.521.36.578.26.613.15.624.03.613-.08.576-.2.519Zm0 0-.96 2.308M723.744 335.361l-8.725-4.886-5.6-3.135-8.881-4.597-8.881-4.597-8.881-4.597-4.391-2.272-8.913-4.535-8.913-4.534-8.913-4.534-4.488-2.284-9.16-4.012-9.16-4.012-9.16-4.013-5.307-2.325-1.166-.381-9.572-2.895-9.571-2.895-9.572-2.895-9.572-2.895-9.572-2.895-9.572-2.895-9.571-2.895-2.426-.733 2.867 9.58 2.867 9.58 2.867 9.581 2.867 9.58 2.867 9.58 2.867 9.58 2.866 9.58.971 3.243 3.993 9.168 3.994 9.168 3.993 9.168 2.275 5.221 4.52 8.92 4.52 8.92 4.521 8.92 2.251 4.443 4.584 8.888 4.583 8.888 4.583 8.887 2.252 4.367 4.875 8.731 3.149 5.64M1078.78 664.127l.07 1.596-2.48 4.099-4.96 6.491-4.03 4.794v.004l-.11.125v.005l-1.26 1.491v.008l-1.89 2.236-1.33 1.503-1.08 1.215-3.31 3.71-3.1 3.483-.53.603-.29.314-4.57 4.933-3.61 3.905-.42.445-2.18 2.355-3.13 3.281-4.27 4.467-4.92 5.154-.8.817-4.53 4.618-5.92 6.029-1.82 1.847-2.84 2.819-5.99 5.949-4.42 4.387-.18.166-5.942 5.74-4.444 4.29-2.326 2.246-3.282 3.072-.466.436-3.864 3.617-4.361 4.081-.52.469-.941.847-3.463 3.118-.008.007-2.917 2.626-.712.641-.007.006-1.203 1.083-.007.006-.787.709-3.02 2.573-.008.007-1.321 1.126-.005.004-.07.06-.004.003-4.31 3.673-6.583 5.107-4.2 2.604-1.699.047" stroke="#EFC018" stroke-width="5" stroke-linejoin="round"/><path d="m947.795 794.669-.568 1.697 1.721-.04 4.27-2.644 6.698-5.194 5.07-4.32.004-.003.22-.188.005-.004 1.701-1.449.008-.007 1.888-1.608 1.593-1.434.007-.006 1.263-1.138.007-.006.876-.788 2.856-2.572.008-.007 3.374-3.038.775-.697.171-.16 4.932-4.616 3.832-3.587.466-.436 2.794-2.615 2.823-2.725 4.436-4.283 5.865-5.666.07-.067 4.61-4.57 5.98-5.935 2.85-2.831 1.82-1.85 5.9-6.013 4.55-4.633 1.04-1.065 4.68-4.892 4.26-4.463 3.62-3.788 1.72-1.857.41-.445 3.58-3.872 4.62-4.985.85-.923.09-.092 2.93-3.3 3.4-3.814 1.12-1.261 2.07-2.332.92-1.095.01-.007 1.58-1.873v-.005l.23-.275v-.004l4.68-5.559 5.04-6.604 2.51-4.167-.07-1.616-1.65.603M628.871 456.302l1.186 1.762.238.353M740.791 345.364l-1.911-.492-4.029 1.673-6.022 3.807-5.585 4.167-.002.001-.243.181-.004.003-1.616 1.206-.007.005-.349.26-2.086 1.712-1.228 1.008-3.71 3.045-2.271 1.864-.232.203-.779.683-4.365 3.831-3.774 3.311-.081.07-1.189 1.044-2.941 2.72-4.894 4.528-3.286 3.039-.017.017-6.051 5.864-2.42 2.346-2.873 2.784-3.626 3.674-2.4 2.433-5.1 5.167-.749.796-3.135 3.327-4.524 4.802-2.018 2.141-1.796 2.009-.092.104-3.284 3.673-3.869 4.328-.253.283-.443.529-2.063 2.465-.005.007-1.936 2.313-1.093 1.305-.005.006-1.022 1.221-.005.006-1.215 1.451-.806 1.058-.005.007-1.073 1.408-.003.003-.114.149-.001.002-3.974 5.214-3.948 6.079-1.792 4.102.398 1.996M1070.73 654.283l-.49-.601-6.34-7.738-6.33-7.739-6.33-7.738-6.34-7.739-3.44-4.203-6.5-7.6-6.5-7.6-6.49-7.6-6.5-7.6-6.5-7.6-5.34-6.246-6.681-7.444-6.677-7.443-6.678-7.444-6.678-7.444-6.677-7.444-5.422-6.043-6.852-7.283-6.852-7.284-6.853-7.283-6.852-7.283-6.852-7.284-5.52-5.867-7.471-6.648-7.47-6.648-7.47-6.648-7.471-6.647-7.47-6.648-6.076-5.407-7.697-6.386-7.695-6.385-4.559-3.783-7.696-6.385-7.696-6.386-7.695-6.385-1.827-1.516-8.064-5.913-8.064-5.914-8.064-5.914-8.064-5.914-8.064-5.913-7.057-5.176-8.292-5.59-5.738-3.87-8.291-5.59-8.291-5.591-7.785-5.249-.001-.001-1.073-.723" stroke="#EFC018" stroke-width="5" stroke-linejoin="round"/><path d="m742.512 346.526.354-.687.268-2.72-2.244-1.733-1.98-.534-3.096 1.269-1.082.443-6.248 3.927-.283.211-.004.003-1.026.762-.005.004-.798.593-.003.003-2.143 1.593-.004.003-.734.546-.005.004-1.699 1.263-.005.004-.796.592-.006.004-.589.438-1.914 1.567-.005.005-1.974 1.616-1.051.86-.75.614-2.498 2.046-1.456 1.192-7.521 6.59-3.295 2.887-7.343 6.787-4.201 3.883-7.182 6.959-4.611 4.467-7.023 7.118-4.523 4.583-6.855 7.281-3.96 4.206-6.66 7.459-2.976 3.333-1.792 2.145-.005.006-2.048 2.451-.004.005-.672.805-.006.007-.897 1.074-.006.007-1.561 1.869-.005.005-1.071 1.282-.942 1.24-.004.005-.569.749-.004.006-1.294 1.703-.004.005-.539.709-.003.004-1.562 2.056-.003.003-.683.899-.004.005-.572.753-.093.144-.001.002-3.98 6.161-.58 1.343-1.256 2.912.437 2.069 1.734 2.248 2.655-.171.808-.403" stroke="#EFC018" stroke-width="5" stroke-linejoin="round"/><path d="m743.134 343.118-1.975-.526-2.59 1.071-.029.012-1.565.646-6.263 3.956-6.783 5.056-.001.001-.911.679-.004.003-.427.319-1.777 1.457-.006.005-2.048 1.681-1.243 1.019-3.847 3.157-.762.625-1.721 1.51-.751.659-4.275 3.75-4.053 3.555-.015.013-.043.038-3.743 3.462-5.386 4.982-2.464 2.28-.183.177-6.959 6.744-1.266 1.227-3.437 3.331-4.184 4.239-1.299 1.317-6.117 6.198-.599.637-2.547 2.703-4.97 5.276-2.752 2.92-.796.891-.027.03-3.537 3.957-3.79 4.241-.691.773-.844.944-1.256 1.501-.005.007-1.91 2.281-1.247 1.491-.005.006-1.035 1.237-.005.006-1.712 2.045-.005.006-.93 1.112-.745.978-.003.004-.596.782-.001.001-4.874 6.398-4.102 6.324-1.855 4.261.429 2.065M1078.78 664.127l-.47-.582-1.67-2.042M720.039 580.942l6.383 7.698 6.383 7.698.917 1.106 6.646 7.471 6.647 7.472 6.646 7.472 6.647 7.471 6.646 7.472 5.523 6.209 7.284 6.852 7.284 6.851 7.284 6.852 7.284 6.851 7.284 6.852 6.005 5.648 7.445 6.677 7.445 6.676 7.445 6.676 7.445 6.677 7.444 6.676 6.179 5.54 7.601 6.498 7.602 6.497 7.602 6.497 7.601 6.497 7.602 6.498 6.373 5.446 7.74 6.332 7.741 6.331 7.74 6.331 7.741 6.331 4.278 3.5.001.001.629.514M1095.52 885.621l1.52.32 2.91-1.135 4.19-2.562 5.32-3.901 6.25-5.095 6.93-6.092 7.33-6.846 7.13-7.018.31-.307 6.94-7.198.3-.308 6.75-7.381 5.99-6.958 4.99-6.257 3.79-5.311 2.47-4.164 1.06-2.866-.39-1.47M947.227 796.366l6.672 4.016h.001l.774.467M1169.32 811.072l-.18-.29M1127.64 904.29l8.65 5.025 4.02 2.336 1.27.314 2.29-.776 3.23-1.843 4.06-2.846 1.55-1.228 3.17-2.514 5.2-4.495 5.49-5.069 1.86-1.832 3.67-3.61 3.35-3.488 2.02-2.109 5-5.527 4.41-5.236 2.31-2.994 1.35-1.745 2.76-4.056 1.77-3.22.72-2.263-.36-1.227-5.04-8.64-2.33-3.997" stroke="#EFC018" stroke-width="5" stroke-linejoin="round"/><path d="m1094.66 888.547 3-1.165 4.48-2.734 5.69-4.171 6.69-5.453 7.42-6.523 7.31-6.825.55-.51 4.07-4.011 1.04-1.024 2.85-2.813 2.18-2.257 1.06-1.101 4.52-4.684 6.75-7.38.48-.527 6.41-7.451 5.34-6.698 4.06-5.681 2.63-4.451 1.12-3.057-.05-.203M1111.47 898.583l8.73 4.875 2.95 1.642 1.45.352 2.67-.946.37-.216 3.44-2.003 4.8-3.416 5.61-4.485 6.2-5.38 6.53-6.064 6.61-6.503 6.42-6.679 5.98-6.587 5.28-6.227 4.39-5.623 3.32-4.796 1.84-3.277.29-.512.87-2.641-.4-1.403-4.89-8.726-1.64-2.929M1152.7 905.272l8.22 5.695 4.2 2.909.79.189 1.4-.455 1.94-1.085 2.43-1.676 2.8-2.203 3.09-2.645 3.23-2.985 3.27-3.206 3.16-3.302 2.94-3.267 2.59-3.104 2.16-2.819 1.63-2.426 1.04-1.939.42-1.38-.22-.769-5.7-8.217-2.9-4.189M981.297 816.871l.632 8.838.713 9.974.714 9.975.713 9.974.713 9.975.714 9.974.713 9.975.19 2.656 7.422 6.702.741.67" stroke="#EFC018" stroke-width="5" stroke-linejoin="round"/><path d="m1123.77 703.364-9.95-1.045-9.94-1.045-.85-.089-9.94-1.045-9.95-1.045-1.99-.209-1.71 2.01-1.54 1.805-1.43 1.678 5.74 8.187 5.74 8.186 5.75 8.186 5.74 8.187 5.74 8.186 5.75 8.187 5.74 8.186 5.74 8.186 5.75 8.187 5.74 8.186 5.74 8.187 5.75 8.186 2.72 3.886.37.52 5.74 8.187.08.115 7.51-2.3 4-1.223 2.45-.749.88-.27 3.12-.954.33-.104 9.57-2.926 8.31-2.546 9.68 2.509 9.68 2.51 9.68 2.509 2.1.545 8.91 4.541 8.91 4.541 7.44 3.791 9.01 4.339 9.01 4.338 7.98 3.841 8.84 4.663 8.85 4.662 7.52 3.967 7.64-5.553 4.11-6.028-6.35-7.728-6.14-7.478-6.35-7.728-6.16-7.498-6.34-7.728-6.18-7.518-6.35-7.727-6.19-7.539-6.65-7.461-6.66-7.461-6.66-7.461-6.66-7.461-6.66-7.461-6.66-7.462-6.65-7.461-6.66-7.461-6.64-7.434-9.94-1.045-9.95-1.045-3.47-.364-9.94-1.045-.86-.09-9.94-1.045-8.78-.922-9.94-1.045-9.95-1.045-3.33-.35Z" stroke="#EFC018" stroke-width="5" stroke-linejoin="round"/><path d="m1195.42 717.035-9.94-1.058-2.85-.303-9.94-1.058-9.95-1.058-9.94-1.058-9.94-1.057-9.95-1.058-9.94-1.058-3.81-.405-9.94-1.058-2.31-.246-9.94-1.058-9.95-1.058-9.94-1.058-.61-.065" stroke="#EFC018" stroke-width="5" stroke-linejoin="round"/><path d="m1305.72 845.455-6.35-7.726-6.18-7.521-6.35-7.726-6.19-7.541-6.35-7.726-6.22-7.561-6.34-7.726-6.23-7.581-6.66-7.46-6.66-7.461-6.66-7.46-6.66-7.46-6.66-7.46-6.66-7.461-6.66-7.46-6.66-7.46-6.81-7.63 4.46-5.675M1072.45 652.433l-2.21 1.25M1078.45 657.481v-.001l-.05-.097-.15-.187-.23-.268-.3-.338-.37-.397-.42-.44-.45-.466-.47-.474-.47-.464-.45-.437-.41-.391-.36-.333-.3-.26-.21-.178-.13-.088-.05.004-.36.205-.01.001-.5.278v.001l-2.03 1.132-.35.192v.002" stroke="#EFC018" stroke-width="5" stroke-linejoin="round"/><path d="m1078.45 657.48-.04.005-.13-.087-.21-.177-.3-.26-.36-.332-.41-.393-.45-.437-.47-.465-.47-.475-.46-.467-.42-.441-.37-.397-.3-.339-.23-.267-.14-.186-.05-.095v-.001M1077.58 659.84l.01-.002.03-.18-.07-.266-.08-.17-.08-.172-.24-.404-.32-.451-.08-.101v-.002l-.3-.379-.43-.492-.47-.485-.48-.459-.47-.416-.46-.355-.41-.283-.36-.198-.29-.107-.22-.011-1.05.561v.002l-.08.04-.66.353v.001l-.28.149v.001l-.03.016-.69.369-.01.003-.19.103v.001" stroke="#EFC018" stroke-width="5" stroke-linejoin="round"/><path d="m1077.59 659.838-.01.001-.12.085-.21-.009-.14-.053-.15-.053-.36-.198-.41-.283-.08-.061v-.001l-.38-.294-.47-.416-.49-.46-.46-.486-.43-.494-.39-.482-.32-.452-.24-.404-.15-.342-.07-.265.03-.176v-.002l.11-.077.01-.009M1072.6 667.847l.27-.477.35-.628 1.4-2.488.11-.259.01-.343v-.032l-.08-.381-.18-.468-.27-.504-.35-.521-.41-.519-.36-.387v-.001l-.1-.107-.49-.455-.5-.395-.5-.32-.47-.235-.42-.139-.27-.027-.01-.001-.09-.01-.29.065-.07.034v.002l-1.63.806v.003l-.52.257v.002l-1.44.715" stroke="#EFC018" stroke-width="5" stroke-linejoin="round"/><path d="M1074.62 664.254v.002l-.2.164-.29.065-.37-.037-.42-.138-.47-.234-.5-.321-.5-.396-.49-.455-.15-.155v-.005l-.32-.337-.41-.519-.34-.523-.27-.505-.18-.467-.09-.413.01-.342.11-.256.01-.003.14-.114v-.002l.05-.04.01-.008M1068.06 673.503l1.74-3.209.09-.415-.01-.282-.01-.198-.01-.051-.11-.475-.23-.554-.31-.558-.39-.543-.45-.506-.5-.449-.42-.295v-.002l-.01-.004v-.002l-.1-.073-.54-.289-.52-.189-.49-.084-.43.027-.37.134-.8.356-.01.003-1.76.779-.01.003" stroke="#EFC018" stroke-width="5" stroke-linejoin="round"/><path d="m1069.8 670.294-.05.086-.14.247v.003l-.28.236-.37.136-.43.027-.36-.061-.13-.021-.12-.044-.24-.088-.01-.004-.15-.053-.54-.289-.53-.376-.5-.451-.45-.507-.39-.544-.32-.559-.22-.554v-.022l-.12-.505-.02-.48.09-.414.01-.016v-.005l.18-.308v-.004l.27-.229.01-.009M1061.53 681.222l1.42-2.836.15-.479.05-.539-.07-.579-.18-.597-.28-.592-.02-.041-.09-.132-.26-.392-.45-.514-.51-.446-.55-.359-.57-.26-.57-.149-.55-.034-.5.083-2.96 1.07" stroke="#EFC018" stroke-width="5" stroke-linejoin="round"/><path d="m1062.95 678.386-.01.019-.25.38v.003l-.35.302-.44.198-.16.027-.01.001-.33.056-.55-.032-.57-.149-.57-.26-.55-.36-.02-.019-.12-.103-.37-.324-.45-.516-.37-.565-.28-.593-.18-.598-.07-.58.05-.539.08-.255v-.009l.07-.214.26-.394v-.005l.36-.303.37-.171.06-.027" stroke="#EFC018" stroke-width="5" stroke-linejoin="round"/><path d="m1063.14 677.376-.04.539-.16.478-.25.395-.01.005-.35.304-.44.199-.15.026-.01.001-.34.057-.54-.033-.57-.149-.57-.259-.56-.36-.02-.02-.12-.103-.37-.323-.45-.516-.37-.565-.28-.593-.18-.598-.07-.58.05-.539.08-.264.01-.009.06-.205.26-.399.01-.003.35-.301.44-.197.5-.083.54.034.57.149.57.259M1062.61 675.607l.28.592.18.597M1057.92 682.322l.77.201.74.044M1063.53 673.244l.71.509.13.066.15.083.45.24.7.255.66.111.59-.038.5-.184.38-.325M1069.21 667.768l.31.558.22.554.11.472.01.054.01.196.01.283-.08.415-.19.33v.003l-.28.239-.37.136-.43.028-.37-.062-.12-.021-.13-.044-.23-.083-.01-.005-.15-.057-.54-.287-.53-.378-.5-.45-.46-.506-.39-.544-.31-.56-.22-.555-.01-.022v-.009l-.11-.496-.02-.48.09-.414.01-.023v-.005l.18-.303v-.003M1065.36 665.358l.43-.026.49.083.52.19.53.288M1068.87 666.648l.68.535.67.433.64.316.54.176.03.01.31.03.19.019.39-.09.28-.225M1074.47 662.776l.18.467.08.376v.004l.01.033-.01.343-.11.257v.003l-.21.165-.29.066-.36-.037-.43-.138-.47-.234-.49-.321-.51-.396-.49-.455-.15-.164-.01-.005-.3-.328-.41-.52-.35-.522-.27-.505-.18-.468-.08-.413.01-.342.11-.258v-.002M1071.99 659.887l.5.395.5.454.1.108v.002l.35.386.42.518M1069.95 659.22l.29-.065.1.01.01.001.25.027.43.139" stroke="#EFC018" stroke-width="5" stroke-linejoin="round"/><path d="m1072.59 667.852.01-.003v-.008l.26-.47.36-.629 1.4-2.483M1077.58 659.839v.001l-.12.087-.21-.009-.14-.053-.15-.053-.36-.198-.42-.283-.08-.061v-.001l-.37-.294-.48-.416-.48-.46-.46-.486-.44-.494-.38-.482-.32-.452-.24-.404-.16-.342-.06-.265.03-.178v-.001M1076.45 657.716l.3.379v.002l.08.101.32.451M1075.44 663.608l1.2-2.105.94-1.663M1074.74 663.624l.25.091.29.012.16-.119M1074.14 655.509l.46.355M1075.07 656.28l.48.459.46.485M1078.02 656.93l.23.267.15.187.05.096v.002l-.04.005-.13-.088-.21-.177-.3-.26-.36-.332-.41-.392-.45-.438-.47-.465-.47-.475-.46-.467-.42-.441-.37-.397-.3-.339-.23-.267-.14-.186-.05-.096.04-.004.13.089M1074.68 653.522l.41.392.45.436.47.465.47.474.45.466.42.439M1073.63 652.667l-.36.205-.01.001-.5.278v.001l-2.03 1.131-.35.192v.003M1072.45 652.432v.001l-2.21 1.25" stroke="#EFC018" stroke-width="5" stroke-linejoin="round"/><path d="m1073.27 652.872-.17-.127-.3-.193-.22-.106-.13-.014M950.074 780.971l.238-.286.003-.003.336-.195.417-.092.483.013.42.093.01.002.101.022.556.219.563.31.545.391.509.456.451.504.377.532.288.539.084.235.003.009.02.057.081.226.001.007.08.486-.03.441-.138.371-.243.288-.003.002-.333.192-.418.091-.39-.011M958.547 783.776l.328-.39.189-.503.04-.596-.108-.667-.254-.713-.275-.517-.08-.15-.033-.062-.51-.72M952.908 785.529l-.561-.31-.545-.39-.507-.456-.451-.502-.319-.45-.001-.001-.056-.08-.288-.539M953.995 785.867l-.146-.033-.384-.086M949.991 782.276l-.081-.492.028-.442.119-.321M943.713 786.069l.166-.208.002-.002.262-.117.346-.018.417.081.471.177.508.267.398.261.007.006.12.079.522.411.499.461.456.493.396.507.32.5.233.474.136.431.035.37-.069.295-.169.209-.003.001-.26.114-.347.017-.146-.028-.004-.001-.267-.053-.471-.177-.507-.267-.524-.345-.521-.411-.274-.254-.002-.001-.222-.205-.455-.492-.395-.506-.32-.499-.167-.339-.004-.009-.062-.126-.137-.43-.036-.37.061-.264.001-.004.006-.028Zm0 0 .003-.006M952.355 788.706l.23-.283.094-.4-.031-.339-.014-.162-.036-.112-.148-.471-.314-.642-.433-.676-.535-.685M948.77 790.745l2.266-1.29.636-.361.672-.382.008-.005.002-.002M939.309 789.108l.088-.127.001-.001.183-.034.269.06.345.153.408.239.399.277.039.028.018.012.229.181.084.066.172.135.496.433.488.466.461.483.416.479.342.442.001.001.013.016.281.42.196.364.065.187.038.109.006.215-.09.127h-.002l-.182.033-.27-.061-.135-.061-.211-.093-.408-.24-.455-.317-.044-.035h-.001l-.439-.346-.495-.432-.486-.465-.46-.482-.416-.478-.355-.458-.281-.419-.197-.365-.104-.296-.007-.216Zm0 0 .005-.011M944.258 793.839l1.48-.852 2.282-1.312.003-.002M948.023 791.673l.123-.172-.007-.292-.123-.355M936.965 790.03l.007-.043.101.048.189.139.271.226.343.302.391.358.01.01.007.007.437.412.469.454.477.472.319.322.018.019.129.13.438.453.391.416.331.364.258.298.174.22.085.135-.009.042-.102-.049-.19-.141M941.801 794.815l1.864-1.063M937.926 786.599l-1.284 2.284-.001.002.018.13.11.217.197.297.149.196M1004.49 736.808l-.61-.326-.53-.439-.44-.534-.32-.609-.21-.66-.06-.686.06-.686.01-.025.07-.208.13-.426.32-.607.44-.531.53-.436.61-.323.35-.104.2-.06.12-.034.68-.066.69.07.66.202.61.327.54.438.44.535.32.608.2.661.07.686-.07.686-.2.659-.32.606-.44.532-.54.435-.61.323-.66.199-.69.065-.68-.07-.67-.202Z" stroke="#EFC018" stroke-width="5" stroke-linejoin="round"/><path d="m1004.09 737.48.89.273.93.094.93-.088.89-.268.48-.25.35-.186.72-.588.59-.718.29-.544.15-.276.27-.89.1-.926-.1-.927M938.648 786.948l-.002.003-.089.161-1.171 2.125-.001.001-.267.485-.001.001-.144.262-.008.044.086.136.175.221.258.298.331.364.391.415.436.452.466.47.475.471.469.453.442.418.401.368.343.302.271.226.191.141.101.05.001-.001" stroke="#EFC018" stroke-width="5" stroke-linejoin="round"/><path d="m936.973 789.986.001.001.1.048.189.139.271.226.343.302.399.366.002.002.017.016.426.403.47.454.477.472.311.315.018.018.137.138.437.453.392.416.331.364.258.298.174.22.084.135-.008.042-.001.001M944.341 793.499l.006.215-.089.125-.001.001-.184.034-.27-.062-.135-.06h-.001l-.21-.093-.408-.24-.455-.317-.044-.035-.001-.001-.439-.345-.495-.432-.486-.466-.46-.481-.416-.479-.355-.457-.281-.42-.197-.364-.104-.296-.007-.216.008-.013.081-.115.002-.001.181-.034.269.061M940.602 789.4l.429.299.026.018.041.032.126.099.084.066.235.185.496.432.488.467.461.482.416.48.342.441.001.002.013.016.281.419" stroke="#EFC018" stroke-width="5" stroke-linejoin="round"/><path d="m944.254 793.84 1.483-.853 2.282-1.312M949.002 790.245l-.069.296-.167.206-.002.003-.263.115-.347.017-.139-.027-.004-.001-.274-.054-.471-.178-.507-.267-.524-.345-.521-.41-.275-.255-.001-.001-.221-.205-.455-.492-.396-.505-.32-.499-.173-.352-.005-.009-.055-.113-.137-.43-.035-.371.061-.27.001-.004.005-.022.008-.009.16-.201.003-.001.259-.115.346-.018M952.352 788.709l.002-.002M948.766 790.749l2.271-1.292.636-.362.678-.386M945.513 782.387l-.96 1.959-.002.004-.275.561-.003.006-.566 1.154M946.93 787.008l.499.462.456.493M950.907 779.05l-.003.007-.836 1.918-.012.033-.002.007-.123.332-.029.441.082.493.188.526.288.538.059.083.001.001.317.447.45.503.507.455.545.39.561.311.556.218.387.087.143.032.096.003.387.011.418-.092 3.196-1.751" stroke="#EFC018" stroke-width="5" stroke-linejoin="round"/><path d="m950.066 780.975.009-.01.233-.279.003-.002.332-.192.418-.093.483.013.43.096.01.002.09.02.557.218.562.311.546.391.508.456.452.503.377.532.288.54.08.225.003.009.025.068.08.224.001.01.079.483-.029.441-.139.372-.239.284-.003.004-.269.154-.068.039M959.058 771.434l-1.046 2.961-.086.506.033.55.149.573.259.575.359.554.447.512.516.45.332.218.133.087.101.067.594.278.599.175.582.064.542-.048.481-.16 2.818-1.416" stroke="#EFC018" stroke-width="5" stroke-linejoin="round"/><path d="m958.012 774.394.199-.442.306-.36.401-.267.174-.058.307-.103.542-.049.583.063.6.175.595.278.567.372.517.452.272.312.105.12.07.081.36.555.259.575.148.574.032.551-.065.383-.021.122-.201.441-.307.36-.402.266M967.219 775.253l-.042-.745-.2-.776M968.036 763.936l-.527 2.334-.009.6.116.615.235.606.346.574.138.162.085.099.22.259.523.446.584.356.622.25.635.137.626.017.59-.103.534-.22 2.369-1.002" stroke="#EFC018" stroke-width="5" stroke-linejoin="round"/><path d="m967.508 766.269.132-.561.252-.502.179-.211.181-.213.456-.328.533-.22.591-.104.626.016.636.136.623.251.307.187.113.069.164.1.525.446.443.521.346.575.235.607.115.615-.009.601-.133.561-.252.502-.153.179-.208.244-.457.327M975.121 769.065l.617-.443M978.293 755.2l.022 1.603.09.648.085.246.042.122.09.263.336.591.44.526.529.443.597.343.643.228.663.105.658-.021.628-.148 1.663-.43" stroke="#EFC018" stroke-width="5" stroke-linejoin="round"/><path d="m978.312 756.803.04-.64.048-.174.12-.433.291-.551.401-.474.497-.378.574-.269.628-.148.659-.022.545.087.119.019.014.005.63.223.597.342.529.443.441.528.336.591.217.631.091.649-.042.64-.169.607-.291.551-.402.474-.497.378-.103.048-.472.219M984.777 759.719l.775-.361.673-.511.543-.64.394-.744M991.59 748.44l.038.03.606.332.174.087" stroke="#EFC018" stroke-width="5" stroke-linejoin="round"/><path d="m991.631 748.47-.035-.028-.498-.412-.439-.532-.329-.602-.205-.65-.073-.661-.001-.011.014-.154.046-.515.191-.64.316-.586.428-.511.524-.414.599-.303.652-.18.281-.021.156-.011.243-.018.681.083.656.211.607.333.533.441.439.531.329.603.205.65.074.672-.06.669-.192.641-.316.586-.429.51-.524.415-.599.302-.652.18-.68.049-.68-.083-.614-.198-.042-.014" stroke="#EFC018" stroke-width="5" stroke-linejoin="round"/><path d="m992.41 748.889.886.286.92.111.918-.066.88-.242.81-.409.708-.56.579-.689.427-.792.259-.865.082-.904M1016.88 724.406l-.61-.327-.53-.438-.44-.534-.33-.611-.2-.662-.07-.688.06-.69.03-.097.06-.2.11-.367.32-.61.43-.536.53-.442.6-.326.45-.138.2-.063.01-.003.68-.069.69.067.66.199.6.327.54.437.44.534.32.61.21.662.07.689-.06.69-.2.663-.32.611-.43.536-.53.441-.61.328-.65.203-.68.07-.69-.068-.66-.198Z" stroke="#EFC018" stroke-width="5" stroke-linejoin="round"/><path d="m1016.82 725.919.92.089.93-.093.66-.205.22-.069.82-.443.71-.595.2-.242.39-.482.43-.826.26-.896.09-.931-.1-.93-.27-.895M1033.54 708.151l.01.026.08.655-.05.681-.17.651-.3.6-.41.525-.51.43-.58.316-.64.192-.66.062-.67-.073-.65-.206-.6-.328-.53-.439-.44-.532-.34-.607-.21-.656-.08-.68.01-.203.01-.158.02-.32.18-.652.3-.601.41-.524.51-.429.58-.316.63-.192.56-.05.11-.011.04.006.63.068.65.205.6.328.38.316.15.122.44.532.33.606.21.656Zm0 0 .14.431" stroke="#EFC018" stroke-width="5" stroke-linejoin="round"/><path d="m1029.31 714.171.9-.082.86-.261.78-.428.69-.58.55-.708.41-.811.23-.881.07-.918-.12-.92M1032.56 706.357l-.21-.198M1044.57 698.377l-.24.534-.02.039-.37.497-.47.402-.55.291-.6.169-.64.04-.64-.09-.63-.217-.59-.334-.53-.441-.44-.529-.34-.597-.21-.583-.02-.06-.01-.066-.1-.596.02-.658.14-.628.26-.573.38-.496.47-.401.54-.29.36-.099.25-.069.63-.04.64.09.3.1.12.042.21.075.59.335.53.44.44.528.34.596.23.642.11.662-.02.658-.14.627Zm0 0-.45 1.688M1041.89 702.448l.74-.393.64-.543.5-.672.35-.775M1041.22 693.582l-1.62.006M1054.36 688.043l-.32.455-.28.234-.14.125-.5.251-.55.132-.6.009-.61-.116-.6-.235-.58-.345-.52-.443-.44-.524-.07-.111-.07-.112-.22-.36-.25-.621-.14-.635-.02-.624.1-.589.21-.532.33-.454.17-.15.24-.208.5-.25.56-.131.59-.008.61.116.61.235.57.345.2.176.1.084.22.183.44.522.36.583.25.62.14.633.02.624-.1.589-.21.532Zm0 0-1.01 2.392M1050 682.94l-2.54.6M1052.91 691.05l.44-.614M1179.61 820.257l-.04.02-.8.467M1183.29 823.656l.01-.025-.04-.077-.1-.125-.14-.168-.18-.205-.21-.234-.24-.253-.25-.264-.26-.265-.26-.254-.24-.234-.22-.205-.19-.169-.16-.126-.1-.078-.06-.026-.06.032-.35.19-.95.52-.06.035v.001" stroke="#EFC018" stroke-width="5" stroke-linejoin="round"/><path d="m1182.57 823.053-.25-.235-.08-.086-.01-.003-.16-.165-.27-.265-.25-.264M1183.29 823.656l-.06-.026-.1-.077-.15-.126M1181.1 821.547l-.18-.205-.14-.168-.06-.077v-.004l-.04-.044-.04-.076.01-.024v-.001M1183.19 825.508v-.122l-.05-.168-.1-.208-.14-.24-.13-.184v-.001l-.06-.078-.21-.276-.25-.277-.25-.27-.09-.078v-.001l-.18-.171-.25-.222-.25-.186-.22-.141-.18-.092-.15-.039-.1.016-.41.204v.001l-.12.062-.29.148-.08.04v.001l-.05.022v.001l-.15.077v.001l-.32.161v.001" stroke="#EFC018" stroke-width="5" stroke-linejoin="round"/><path d="M1182.39 825.254v-.001l-.15-.117-.26-.222-.27-.251-.23-.245M1183.03 825.593l-.14-.038M1180.52 822.961v-.12l.05-.068v-.002M1183.19 825.507v.001l-.05.069M1180.67 823.336l-.1-.208M1181.91 828.491l.01-.002.04-.164v-.208l-.06-.246-.09-.207v-.002l-.02-.064-.16-.29-.2-.296-.23-.291-.25-.274-.27-.248-.27-.211-.27-.166-.25-.115-.22-.06-.19-.002-.14.054v.002l-2.06.934" stroke="#EFC018" stroke-width="5" stroke-linejoin="round"/><path d="m1181.48 828.654-.22-.059-.25-.115-.26-.167-.28-.211-.27-.247-.25-.275-.23-.291-.2-.297-.15-.29-.11-.274M1179.2 826.183v-.208l.04-.163.1-.108v-.004M1181.92 828.488l-.01.001-.09.111-.15.056M1178.47 834.236l1.04-1.745.09-.201.03-.245-.02-.28-.07-.303-.13-.315-.18-.315-.22-.303-.25-.279-.27-.244-.29-.201-.28-.149-.28-.091-.26-.031-.22.031-1.88.714" stroke="#EFC018" stroke-width="5" stroke-linejoin="round"/><path d="m1179.37 832.642-.19.093-.23.032-.25-.031-.28-.091M1177.32 831.77l-.22-.303-.17-.315-.13-.316-.05-.193v-.007l-.03-.103-.02-.28.03-.245M1179.51 832.491v.002M1176.83 829.807l.14-.149.16-.08.03-.013M1175.14 838.933l.9-1.531.13-.234.07-.277.01-.309-.04-.33-.11-.336-.15-.331-.21-.314-.25-.283-.28-.241-.29-.192-.31-.134-.3-.071-.29-.006-.27.06-1.69.476" stroke="#EFC018" stroke-width="5" stroke-linejoin="round"/><path d="m1175.08 837.764-.31-.071-.31-.134-.29-.192-.28-.242-.25-.283-.21-.314-.15-.331-.11-.337M1176.04 837.402v.002l-.18.181-.23.124-.2.046M1173.12 835.53l.02-.309.07-.277.02-.028v-.005l.11-.201.19-.182.21-.116.01-.008M1172.24 838.564l.37.328.41.259.41.181.41.096.39.007.36-.082.31-.168.24-.247" stroke="#EFC018" stroke-width="5" stroke-linejoin="round"/><path d="m1176.24 836.895-.08.277-.13.232v.003l-.18.182-.23.124-.19.045-.01.001-.06.015-.29-.005-.3-.072-.31-.134-.3-.191-.27-.242-.25-.284-.21-.313-.16-.332-.1-.337-.05-.329.02-.309.07-.277.02-.034v-.005l.11-.195.18-.183.23-.123" stroke="#EFC018" stroke-width="5" stroke-linejoin="round"/><path d="M1175.14 838.938v-.003l.02-.029.87-1.499M1175.84 833.645l.37.331.39.271.39.202.37.123.35.041.31-.043.25-.126.19-.203M1179.61 831.769l.02.28-.03.245-.09.199v.002l-.14.15-.19.093-.23.031-.25-.03-.27-.089-.01-.002-.29-.149-.28-.201-.28-.245-.25-.279-.22-.303-.17-.315-.13-.316-.05-.2v-.007l-.03-.096-.02-.28.04-.245.09-.201.14-.15.19-.092.22-.031M1179.23 830.837l-.22-.303-.25-.279-.27-.244-.29-.201M1179.54 831.466l-.13-.315M1178.46 834.24l.01-.003v-.002l1.04-1.74M1177.91 829.66l-.27-.091M1178.45 829.553l.37.335.36.285.36.225.34.156.3.08.26.002.19-.077.14-.151M1181.92 828.489l-.01.001v.002l-.09.111-.15.056-.19-.002-.22-.059-.25-.115-.27-.167-.27-.211-.27-.247-.25-.275-.23-.291-.2-.297-.15-.29-.11-.274-.06-.245-.01-.208.05-.163M1181.43 827.014l-.23-.291-.25-.274-.27-.248-.27-.21M1181.96 828.327l-.01-.208M1179.49 825.647l-.14.054h-.01v.002M1180.77 830.408l1.14-1.917M1183.19 825.388v.125l-.05.066-.11.016-.14-.038-.19-.091-.22-.142-.09-.069-.15-.116-.26-.222-.27-.252-.23-.245v-.001l-.02-.023-.25-.279-.21-.276-.19-.263-.14-.239-.1-.208-.05-.167v-.122l.05-.07M1182.9 824.772l-.13-.184v-.001l-.06-.078M1183.14 825.22l-.1-.208" stroke="#EFC018" stroke-width="5" stroke-linejoin="round"/><path d="m1181.99 827.551.3-.512.9-1.53M1181.81 827.663l.11-.017.07-.095M1181.73 823.436l-.26-.222-.24-.186-.22-.141M1183.26 823.555l.04.076v.001l-.01.026v-.001l-.05-.026-.11-.077-.15-.126-.19-.169-.22-.205-.25-.235-.08-.085-.01-.003-.16-.166-.26-.265-.26-.264-.24-.254-.21-.234-.18-.205-.14-.168-.06-.079v-.004l-.03-.041-.05-.077.01-.025M1183.02 823.263l-.18-.205M1180.96 821.18l-.15-.126-.1-.077M1181.88 822.042l-.26-.254-.24-.235M1180.59 820.98l-.12-.112-.25-.204-.21-.169-.18-.127-.13-.081-.09-.03M1114.16 893.239l.1-.192.15-.145.2-.094.24-.039.28.018.05.011.01.002.25.061.31.127.32.176.3.217.28.251.25.274.2.287.15.289.01.04v.005l.08.235.03.26-.03.231-.09.191-.15.146-.01.001-.2.092-.24.039-.28-.019-.31-.074-.31-.127-.32-.176-.3-.217-.28-.251-.25-.273-.2-.287-.15-.289-.09-.28-.03-.26.03-.23ZM1118.82 894.533l.21-.196.12-.259.04-.312-.04-.352-.12-.379-.2-.391-.27-.388-.33-.371" stroke="#EFC018" stroke-width="5" stroke-linejoin="round"/><path d="m1117.1 895.589 1.72-1.052v-.004M1110.28 895.506l.11-.102.16-.05.21.003.25.057.27.107.3.154.29.196.3.231.27.253.25.27.21.272.17.268.11.252.06.226v.19l-.06.149-.11.101v.001l-.16.05M1114.97 896.921l.15-.137.08-.202v-.259l-.08-.305-.15-.34-.23-.363-.28-.37-.34-.364M1112.2 897.975l.25.1.24.056M1113.07 898.084l1.9-1.163M1107.31 896.82l.07-.056.13-.005.17.047.21.097.24.142.26.183.28.217.28.242.05.054v.001l.22.203.25.263.22.26.13.171v.001l.06.073.14.222.09.189.03.15-.01.105-.07.053-.01.003-.12.004M1109.05 898.97l.09.063v.001l.17.119.24.142" stroke="#EFC018" stroke-width="5" stroke-linejoin="round"/><path d="m1110.05 899.435 1.42-.852.61-.367M1112.08 898.216l.1-.075.02-.141v-.021M1107.33 897.075l.09.19.14.221.19.246M1108.22 898.254l.27.257M1105.47 896.949l.08.042.12.091.17.137.21.178.24.212.25.237.27.255.26.261.26.259.02.024.21.221.21.222.16.192.13.153.07.109.03.059-.03.01M1105.67 897.282l.17.191.2.223.24.244.25.258.26.261.27.255.25.237.24.212.21.178.17.137.12.092M1105.44 896.959l.03.061M1108.16 899.602l.98-.567M1104.7 895.966l.03.087.09.134.12.177.18.212.2.241.13.137M1143.97 869.645l.4.322.44.24.49.149.51.052.5-.047.49-.144.45-.236.39-.319.32-.389.25-.445.14-.483.05-.502-.04-.503-.15-.485-.24-.446" stroke="#EFC018" stroke-width="5" stroke-linejoin="round"/><path d="m1145.16 869.963-.33-.177-.29-.239-.24-.29-.18-.33-.11-.359-.03-.372.03-.372.11-.357.18-.329.24-.288.29-.235.33-.175.36-.107.38-.035.37.039.36.11.33.178.3.238.23.29.18.331.11.358.04.372-.04.372-.11.357-.18.329-.24.288-.29.236-.33.174-.36.107-.38.035-.37-.038-.36-.111ZM1105.2 895.08l-.48.85-.02.035M1106.16 895.617l-.01.025v.002l-.53.981v.001l-.18.327v.006l.03.06.07.109.13.153.16.192.21.222.23.245.26.258.26.261.27.254.25.238.24.212.21.178.17.137.12.091.08.042.03-.009" stroke="#EFC018" stroke-width="5" stroke-linejoin="round"/><path d="M1105.44 896.959v-.001l.01-.001v-.001l.02-.007.08.041.12.091.17.137.21.178.24.212.25.238.27.255.26.261.26.258.02.025v.001l.21.219.21.223.16.192.13.153.07.108.03.061M1107.94 895.542v.001l-.11.22v.001l-.13.265v.001l-.02.05v.001l-.02.029v.002l-.13.269-.1.198v.002l-.12.24-.02.105.04.15.09.19.14.221.19.245.22.259.2.208v.001l.05.055.27.257.28.242.28.216.09.064v.001l.17.118.24.143.21.097.17.047.12-.004v-.001M1109.87 898.714l.14.222" stroke="#EFC018" stroke-width="5" stroke-linejoin="round"/><path d="M1107.31 896.821v-.003l.07-.053.12-.005.17.047M1110.14 899.275l-.02.105-.07.055v.001M1108.12 897.046l.27.183M1111.19 893.438l-.91 2.07-.03.057-.03.092v.192l.06.225.11.252.17.266.21.275.25.267.27.254.29.229.3.196.29.156.03.008v.002l.25.097.24.057.21.003.17-.05v-.002M1112.69 896.625l.21.274M1113.24 897.645v.191l-.06.149" stroke="#EFC018" stroke-width="5" stroke-linejoin="round"/><path d="m1110.55 895.355.21.003.25.057M1110.27 895.507l.01-.003.11-.098M1111.87 895.873l.29.229M1114.85 891.358l-.69 1.882-.03.231.03.26.09.28.15.288.2.287.25.274.27.25.31.217.31.176.32.128.3.074.28.018.25-.038.2-.094 1.73-1.055M1117.34 895.254l-.1.192" stroke="#EFC018" stroke-width="5" stroke-linejoin="round"/><path d="m1114.61 892.81.24-.039.28.018.06.013v.003l.25.058M1118.82 894.536v-.001M1114.16 893.24l.01-.025.08-.166.15-.146M1116.07 893.166l.3.217.28.251M1119.46 888.042l-.45 1.701-.06.266.01.292.07.306.13.308.19.3.25.278.28.247.31.206.33.157.34.103.33.043.31-.017.28-.077.23-.134 1.51-.899M1123.52 891.122l.25-.251.17-.312.08-.36-.01-.395-.1-.414-.18-.418-.26-.405-.33-.377" stroke="#EFC018" stroke-width="5" stroke-linejoin="round"/><path d="m1119.01 889.744.12-.231.18-.186.18-.102.06-.032.27-.078.31-.017.33.043.34.102.33.157.32.207.28.247.24.279.19.299.14.309.07.306v.292l-.01.086-.05.181-.12.23-.18.186M1124.69 884.191l-.16 1.372-.01.32.05.329.12.326.19.311.24.282.29.244.32.196.34.141.35.08.35.017.34-.049.3-.111 1.17-.638M1128.58 887.011l.35-.229.28-.3.2-.358.12-.403.01-.432-.07-.446-.17-.441-.25-.42" stroke="#EFC018" stroke-width="5" stroke-linejoin="round"/><path d="m1124.53 885.563.08-.298.13-.225.02-.04.21-.221.26-.17.3-.111.33-.049.35.016.35.08.35.141.32.196.29.245.24.282.18.311.13.326.05.33-.01.319-.09.298-.11.206-.03.059-.21.222-.26.169M1130.58 880.101l.13.861.12.34.18.32.24.286.29.241.32.188.36.128.36.061.37-.006.35-.075.32-.139.89-.389" stroke="#EFC018" stroke-width="5" stroke-linejoin="round"/><path d="m1130.72 880.961-.05-.348.02-.199.01-.144.1-.325.16-.293.23-.251.28-.199.32-.14.35-.074.36-.007.37.062.35.127.33.188.29.242.24.286.18.319.11.341.05.349-.03.343-.1.324-.17.293-.22.251-.08.051-.2.148M1134.5 881.916l.38-.269.31-.339.22-.397.14-.438.03-.464-.06-.471-.15-.46M1137.53 875.764l.26.22.29.239.33.182.36.117.37.048.22-.014M1139.36 876.556l.51-.032.48-.127.45-.217.39-.299.32-.37.24-.426.14-.465.05-.488-.05-.49-.15-.475-.24-.441" stroke="#EFC018" stroke-width="5" stroke-linejoin="round"/><path d="m1137.79 875.983-.02-.018-.22-.271-.18-.326-.11-.351-.03-.363.03-.361.11-.344.18-.315.23-.273.29-.222.33-.161.36-.094.37-.023.38.047.36.117.33.182.29.24.24.288.17.326.11.352.04.363-.04.36-.1.345-.18.315-.24.273-.29.221-.33.161-.36.094-.15.01-.22.014M1150.8 863.54l.45.238.48.145.5.046.5-.053.48-.152.44-.244.39-.327.31-.397.23-.452.14-.49.05-.509-.06-.508-.15-.488-.24-.449-.32-.393" stroke="#EFC018" stroke-width="5" stroke-linejoin="round"/><path d="m1151.89 863.221-.33-.176-.29-.238-.24-.291-.18-.332-.11-.361-.04-.376.03-.377.11-.362.17-.335.23-.294.29-.242.32-.18.36-.112.36-.04.38.035.35.107.33.176.29.238.24.291.18.332.11.361.04.376-.03.376-.11.363-.17.335-.23.293-.28.242-.33.181-.36.112-.36.04-.37-.035-.36-.107ZM1157.04 857.013l.44.239.48.146.48.049.49-.051.46-.149.42-.241.36-.323.3-.394.21-.449.12-.487" stroke="#EFC018" stroke-width="5" stroke-linejoin="round"/><path d="m1160.84 854.989-.02.066-.07.294-.16.332-.22.291-.27.24-.31.178-.34.11-.36.038-.36-.036-.35-.109-.33-.176-.28-.238-.24-.291-.19-.331-.11-.36-.05-.374.02-.374.09-.36.16-.332.21-.292.27-.239.31-.178.35-.11.35-.037.36.036.35.108.33.177.19.156.1.082.24.29.18.331.12.36.05.374-.02.374Zm0 0-.04.363M1160.27 853.261l-.23-.245M1166.51 849.052l-.16.232-.03.047-.25.229-.29.167-.32.101-.34.029-.35-.042-.34-.114-.31-.18-.29-.237-.24-.289-.19-.328-.13-.355-.06-.367v-.366l.07-.35.14-.32.19-.281.25-.227.29-.168.32-.1.1-.008.24-.021.35.042.33.114.32.18.29.238.24.288.19.328.13.354.06.366v.366l-.07.35-.14.322Zm0 0-.39.906M1163.31 850.836l.46.153.46.058.46-.04.44-.135.39-.227.33-.309.27-.378M1165.16 846.146l-.87-.115M1168.12 844.489l.42.25.44.165.44.073.43-.02.4-.113.35-.202.29-.283.23-.353M1171.76 842.816l-.17.261-.22.209-.07.043-.19.107-.29.083-.32.015-.32-.055-.33-.122-.31-.184-.28-.24-.24-.287-.2-.322-.14-.344-.09-.355-.02-.35.05-.333.11-.302.16-.261.22-.209.01-.007.25-.142.3-.083.31-.015.33.055.32.122.31.184.28.24.25.287.2.321.14.344.08.354.02.351-.05.333-.1.302Zm0 0-.64 1.19M1169.67 839.938l-1.38.177M726.895 334.698l.1.059.169.13.232.196.285.254.328.302.358.339.375.363.377.373.364.368.337.35.3.317.248.274.187.219.119.156.049.087-.002.002-.024.013-.002-.001-.097-.058-.168-.129M729.91 337.863l-.196-.181-.019-.017-.113-.105-.359-.339-.375-.364M728.108 336.115l-.338-.351-.299-.318-.248-.274M728.026 339.355l.001-.003.342-.664.013-.15-.064-.215-.139-.271-.209-.317-.01-.014-.26-.336-.321-.371-.36-.376-.145-.14-.001-.001-.238-.227-.396-.346-.39-.31-.256-.181-.001-.001-.113-.08-.336-.204-.29-.139-.231-.068-.164.006-.001.001" stroke="#EFC018" stroke-width="5" stroke-linejoin="round"/><path d="m728.367 338.688-.004.004-.086.076h-.002l-.161.006-.231-.067-.289-.138-.336-.205-.371-.262-.391-.31-.396-.346-.357-.342-.001-.001-.027-.026-.361-.377-.321-.372-.271-.35-.036-.056-.001-.001-.01-.016-.161-.244-.139-.271-.063-.215.013-.149.09-.079M723.967 341.51l.421-.904.001-.002.023-.05.038-.111.001-.003.033-.099-.007-.166v-.002l-.004-.105-.093-.322-.171-.36-.243-.382-.305-.392-.356-.384-.392-.364-.415-.328-.421-.281-.41-.222-.286-.116-.003-.001-.096-.039-.344-.082-.291-.006-.225.071-.004.002" stroke="#EFC018" stroke-width="5" stroke-linejoin="round"/><path d="m724.409 340.554-.005.005-.033.032-.002.002-.11.106-.003.001-.222.07-.252-.004-.038-.001-.344-.082-.385-.155-.411-.222-.422-.281-.415-.329-.393-.364-.357-.385-.305-.392-.243-.384-.171-.359-.092-.323-.011-.273.072-.212.15-.143.002-.001M714.92 342.397l-.216-.412-.001-.003-.002-.004-.135-.397-.05-.372.039-.328.125-.274.205-.204.003-.002.281-.133.345-.054.394.028.43.108.447.184.449.253.432.311.4.36.352.392.291.411.217.414.137.4.051.372-.038.329-.031.068-.094.206-.207.207-.003.002-.278.132-.344.054-.394-.027-.24-.06-.01-.003-.18-.045-.448-.183-.449-.253M714.888 340.401l-2.54 1.486M712.317 348.756l.08-.381-.013-.417-.107-.439-.196-.442-.278-.43-.348-.399-.407-.355-.448-.297-.473-.227-.48-.148-.468-.064-.439.023-.392.108-2.125 1.198" stroke="#EFC018" stroke-width="5" stroke-linejoin="round"/><path d="m712.316 348.756-.012.023-.16.307-.255.265-.004.002-.326.189-.015.004-.007.002-.37.103-.438.023-.469-.063-.48-.148-.474-.227-.449-.297-.407-.355-.349-.401-.278-.43-.196-.443-.107-.439-.012-.418.024-.113.001-.006.056-.261.172-.33.253-.261.003-.003.218-.126.112-.065" stroke="#EFC018" stroke-width="5" stroke-linejoin="round"/><path d="m711.884 349.353-.003.003-.329.191-.008.002-.008.002-.376.105-.439.024-.468-.064-.481-.148-.474-.227-.449-.297-.407-.355-.349-.401-.278-.43-.196-.443-.106-.439-.013-.418.025-.119.002-.006.054-.255.172-.33.256-.264.004-.002M708.73 345.185l.438-.023.468.064.48.148.474.227.448.297.406.355.349.4.277.429M712.27 347.524l.107.439.014.417-.081.381M719.071 343.78l-.124.274-.205.205-.002.002-.281.133-.344.055-.395-.027-.229-.058-.01-.002-.19-.048-.449-.184-.449-.252-.433-.313-.401-.36-.352-.393-.291-.412-.218-.414-.001-.004-.003-.007-.132-.39-.05-.372.038-.329.126-.273.207-.207.003-.001.279-.131.344-.054.395.028.429.108.448.184.448.252.433.312.4.359.352.393.29.411.218.414.137.4.05.372-.038.329Zm0 0-.025.064M714.884 340.404l-2.529 1.481M724.405 340.557l-.035.033-.002.002-.112.108-.002.001-.224.072-.248-.005-.042-.001-.344-.081-.385-.155-.411-.222-.422-.281-.415-.329-.394-.364-.356-.386-.305-.392-.243-.383-.171-.36-.092-.322-.011-.273.072-.213.152-.144.002-.001M720.934 336.797l.344.083.1.04.002.001.283.114.41.222.421.281.414.328.393.364.356.385.305.391.243.383.171.359.093.322.004.105v.003l.007.165M720.419 336.862l-2.774 1.637M726.496 337.793l-.395-.346-.358-.342-.001-.001-.027-.026-.361-.377-.321-.372-.27-.35-.036-.055-.001-.001-.014-.021-.158-.24-.139-.271-.063-.215.014-.149.088-.077.002-.002h.002v-.001l.162-.005.232.068.289.138.336.205.114.08.001.001.255.181.391.31.395.346.238.228.001.001.146.139.359.376.322.371.255.332.015.018.208.317.139.271.064.215-.013.15-.089.079-.001.001-.163.006-.231-.067-.289-.138-.336-.205-.371-.262-.391-.31ZM724.455 334.948l-.709.413-2.23 1.301M730.718 338.485l-.026.014-.099-.058-.169-.13-.231-.195-.285-.254-.187-.172-.019-.017-.123-.113-.359-.34-.375-.363-.071-.07-.016-.017-.29-.287-.365-.369-.339-.35-.299-.318-.248-.274-.187-.219-.12-.156-.047-.085v-.001l.027-.014.001.001.099.059.169.13.231.195.286.254.328.302.358.339.375.363.376.373.365.368.338.35.298.318.248.274.188.219.12.156.048.087Zm0 0-.001.002M726.864 334.711l-1.274.721M731.352 339.623l-.032-.058-.173-.251-.233-.302-.286-.341-.007-.008M624.27 430.167l.212-.208.278-.127.334-.039.376.049.337.113.007.003.061.02.417.218.414.291.395.353.36.401.311.435.251.45.181.45.063.261.002.008.039.162.023.396-.059.346-.138.282-.003.003-.21.206-.279.125-.333.039-.377-.05-.404-.136-.417-.218-.413-.291-.394-.352-.359-.401-.311-.434-.251-.45-.182-.449-.104-.43-.023-.397.058-.346.136-.28.002-.003Zm0 0 1.494-2.506M627.645 434.365l.058-.022M620.602 435.744l.149-.153.217-.074.277.009.327.091.363.17.386.243.394.306.387.357.365.394.328.417.28.423.219.413.152.387.078.346.001.292-.024.074-.001.002-.051.151-.001.002-.148.151-.027.009-.003.001-.188.063-.221-.008h-.004l-.052-.002-.024-.007h-.003l-.3-.085-.363-.17-.385-.242-.394-.306-.386-.356-.364-.394-.328-.416-.279-.422-.22-.412-.086-.219-.001-.003-.065-.165-.078-.347-.002-.292.074-.225.001-.002v-.001Zm0 0 1.658-2.755M624.301 439.745l.003-.002M618.579 439.84l.002-.002.082-.091.153-.016.219.061.223.112.051.026.238.154.001.001.081.052.354.27.373.322.358.341.001.001.019.019.37.386.345.398.31.393.26.373.202.338.135.292.063.233-.01.166-.001.002-.083.091-.154.015-.219-.062-.274-.138-.32-.207-.287-.22-.066-.05-.373-.321-.377-.361-.177-.185-.002-.001-.19-.2-.345-.396-.309-.392-.194-.278-.001-.001-.065-.094-.202-.339-.136-.292-.064-.233.009-.165v-.002Zm0 0 .332-.558 1.409-2.367M622.324 443.762l.003-.002M618.255 442.317l.001.001.088.044.159.117.222.186.276.247.321.298.319.307.004.004.029.028.37.365.374.379.363.377.339.361.301.331.252.288.193.234.02.027.004.004.103.14.056.103h-.001l-.017.028-.09-.045-.16-.118-.222-.186-.276-.247-.32-.298-.352-.338-.369-.365-.373-.377-.363-.377-.338-.36-.301-.331-.252-.288-.194-.234-.127-.172-.056-.102v-.001l.017-.03Zm0 0 .78-1.35M622.031 446.187l.002-.001M622.133 446.133l.026.023.341.288.301.237.249.176.132.076M662.963 391.725l-.476-.255-.419-.343-.344-.419-.256-.478-.159-.519-.055-.54.05-.54.154-.52.253-.479.34-.419.416-.345.475-.257.515-.158.537-.054.537.053.517.156.477.256.419.343.344.419.256.478.159.519.055.54-.051.54-.154.52-.252.479-.341.42-.415.344-.475.257-.516.158-.536.054-.538-.053-.517-.157Z" stroke="#EFC018" stroke-width="5" stroke-linejoin="round"/><path d="m621.888 445.914.105.143.055.101.001.001-.016.026-.002.003-.09-.046-.159-.117-.222-.186-.277-.247-.32-.298-.351-.338-.37-.365-.373-.378-.363-.376-.338-.361-.301-.33-.252-.288-.193-.235-.128-.172-.056-.103M620.781 444.671l.339.361.301.331.252.288" stroke="#EFC018" stroke-width="5" stroke-linejoin="round"/><path d="m622.031 446.188.102-.055.001-.001.461-.249.02-.011h.002M618.504 442.481l.222.185.277.247.32.298.321.308.004.004.027.027M621.1 441.479l.345.398.309.392.261.373.201.339.136.292.063.233-.01.165v.001l-.08.088-.004.005-.154.015-.219-.062-.274-.138-.32-.208-.283-.216-.07-.053-.373-.321-.377-.361-.178-.185-.001-.002-.19-.199-.345-.396-.309-.392-.194-.278-.001-.002-.065-.093-.202-.339-.136-.292-.064-.233.009-.167.001-.001.083-.092M618.812 439.734l.219.061.227.114M622.324 443.765l.413-.208.003-.002M619.309 439.934l.237.154.083.053.354.27.373.322M621.932 435.792l.386.242.394.306.387.357.364.394.329.417.279.423.22.413.152.387.078.346.001.292-.024.07v.002l-.051.153-.001.002-.144.147-.006.006-.022.008h-.002l-.193.065-.219-.008h-.003l-.056-.002-.024-.006-.002-.001-.3-.084-.363-.171-.386-.241-.393-.306-.386-.357-.364-.393-.328-.416-.279-.423-.22-.411-.088-.224-.002-.005-.062-.159-.079-.345-.002-.293.075-.228.002-.002.147-.152.218-.074.277.009.326.092M624.297 439.749l.486-.221.003-.002M628.131 434.034l-.001.003-.213.208-.217.098-.061.028-.334.038-.377-.049-.404-.137-.417-.218-.413-.29-.394-.353-.359-.4-.311-.434-.251-.45-.181-.449-.105-.431-.023-.396.058-.346.138-.283.002-.003M625.767 427.655l-1.501 2.518M625.469 429.848l.344.115.007.002.054.019.417.217.414.291M630.489 421.505l-1.203 2.101-.114.393-.027.439.06.469.145.481.225.474.296.449.355.407.401.349.431.278.446.197.442.106.422.014.386-.081" stroke="#EFC018" stroke-width="5" stroke-linejoin="round"/><path d="m629.285 423.607.195-.331.271-.257.334-.172.234-.049.152-.032.423.012.442.107.447.196.432.278.401.35.356.408.296.449.225.475.145.481.059.47-.027.439-.115.393-.009.016-.187.315-.271.256-.335.171M636.736 413.899l-.893 1.734-.162.431-.072.474.021.5.114.507.202.494.281.461.352.412.407.347.448.268.471.179.475.083.463-.017" stroke="#EFC018" stroke-width="5" stroke-linejoin="round"/><path d="m635.844 415.633.247-.37.322-.296.034-.018.35-.191.431-.116.463-.016.476.082.472.179.448.268.408.347.351.412.282.463.202.494.114.507.02.5-.072.475-.163.431-.247.37-.302.276-.02.019-.384.209-.432.114M643.858 406.077l-.457 1.168-.109.5-.011.523.087.525.183.508.27.471.348.416.413.345.461.26.491.166.504.066" stroke="#EFC018" stroke-width="5" stroke-linejoin="round"/><path d="m643.402 407.245.202-.459.144-.198.145-.201.364-.324.425-.236.469-.14.497-.038.503.065.492.166.461.26.413.345.349.416.27.472.183.508.087.526-.011.523-.109.501-.204.458-.289.399-.364.323-.425.236-.469.14-.096.007-.4.031M651.916 398.876l.01-.144.026-.392.136-.516.233-.474.321-.416.395-.34.456-.253.498-.154.521-.051.524.055.508.158.471.257.416.344.346.418.262.477.168.517.068.537-.036.536-.137.516-.233.474-.321.416-.396.34-.455.252-.498.154-.521.051-.524-.055-.507-.159-.471-.256-.377-.311-.039-.033-.346-.418-.262-.476-.168-.517-.068-.537Zm0 0-.018-.362M652.762 400.824l.278.322M672.69 382.016l-.479-.257-.42-.345-.343-.418-.254-.475-.155-.516-.051-.534.057-.534.161-.512.259-.471.348-.411.423-.337.482-.248.523-.151.542-.047.542.058.52.16.479.258.419.344.343.418.255.476.155.515.05.534-.056.534-.161.512-.26.47-.347.412-.423.337-.482.248-.522.151-.543.048-.542-.058-.52-.161ZM685.508 368.385l.13.157.213.259.256.469.157.505.053.521-.052.517-.156.493-.255.451-.342.391-.418.316-.477.229-.517.133-.538.032-.538-.07-.518-.17-.477-.263-.419-.346-.343-.416-.255-.47-.158-.505-.053-.521.053-.517.156-.494.255-.451.343-.39.418-.316.476-.229.518-.132.272-.016.266-.016.538.07.517.171.477.263.418.345Zm0 0 .301.299M683.557 367.536h-.385M695.742 361.784l-.037.466-.002.025-.141.465-.238.42-.325.359-.399.284-.46.198-.501.105-.524.007-.526-.09-.509-.184-.471-.272-.416-.349-.345-.412-.26-.459-.165-.489-.064-.501.04-.491.141-.465.238-.42.325-.359.167-.118.233-.165.46-.198.501-.105.523-.007.526.091.509.185.471.271.415.349.344.411.26.459.165.489.065.5ZM691.963 359.142l-1.193.467M704.503 354.719l-.115.426-.209.379-.042.045-.253.272-.371.241-.43.158-.475.068-.5-.024-.507-.117-.494-.204-.462-.283-.412-.352-.347-.406-.267-.447-.178-.468-.082-.472.017-.459.116-.426.179-.323.031-.056.296-.316.37-.241.431-.158.475-.067.5.025.506.117.494.204.461.283.411.351.347.406.267.446.178.468.082.472-.017.458ZM700.368 351.714l-1.759.894M750.969 352.227l.585-1.019-.001-.001M749.895 351.503l.539-.977.001-.001.298-.54.124-.226-.056-.096-.133-.171-.207-.239-.271-.298-.325-.345-.367-.379-.394-.399-.407-.403-.404-.392-.386-.365-.352-.326-.306-.273-.247-.209-.178-.139-.104-.062-.001.001" stroke="#EFC018" stroke-width="5" stroke-linejoin="round"/><path d="m750.853 349.759-.002.002-.022.016-.001-.001-.102-.06-.178-.138-.246-.209-.306-.273-.352-.325-.386-.367-.405-.392-.408-.404-.396-.4-.367-.379-.326-.346-.271-.298-.206-.238-.133-.171-.055-.095.024-.017.001-.001M747.497 351.822l.081-.157v-.001l.095-.183.356-.688.002-.004.209-.403.179-.347.01-.165-.073-.234-.154-.295-.228-.345-.294-.38-.349-.402-.39-.407-.295-.283-.001-.001-.12-.115-.427-.373-.42-.334-.354-.252h-.001l-.043-.031-.361-.219-.31-.148-.245-.072-.174.009-.002.001" stroke="#EFC018" stroke-width="5" stroke-linejoin="round"/><path d="m748.416 350.039-.004.005-.089.084h-.002l-.171.009-.245-.07-.31-.148-.36-.219-.399-.282-.421-.335-.427-.374-.417-.399-.13-.135-.001-.002-.26-.272-.349-.402-.295-.381-.106-.161-.001-.001-.121-.183-.154-.295-.072-.234.011-.164.093-.087.001-.001M743.609 353.455l.002-.003.595-1.265.001-.002.031-.066.058-.185.001-.004.014-.044-.015-.297-.08-.268v-.002l-.024-.081-.188-.391-.264-.415-.332-.424-.385-.417-.425-.394-.448-.355-.454-.302-.175-.095-.267-.145-.395-.158-.002-.002-.016-.006-.342-.081-.028-.006-.31-.004-.24.078-2.025 1.187-.99.58" stroke="#EFC018" stroke-width="5" stroke-linejoin="round"/><path d="m744.24 352.119-.006.006-.045.045-.002.002-.107.107-.003.001-.236.078-.311-.003-.369-.087-.006-.002-.003-.001-.405-.163-.442-.239-.455-.303-.448-.356-.426-.394-.386-.418-.043-.055-.289-.37-.265-.416-.127-.264-.06-.127-.103-.351-.015-.297.074-.232.159-.157.002-.002M737.383 358.551l1.17-2.886.038-.358-.057-.405-.151-.435-.237-.449-.037-.052-.279-.394-.195-.217-.186-.208-.433-.389-.468-.337-.484-.273-.08-.033-.402-.165-.214-.053-.249-.062-.424-.028-.37.06-.302.146-2.765 1.601" stroke="#EFC018" stroke-width="5" stroke-linejoin="round"/><path d="m738.551 355.664-.051.116-.08.183-.221.227-.003.001-.297.145-.37.061-.424-.027-.291-.073-.011-.002-.161-.04-.08-.033-.403-.165-.27-.152-.215-.121-.469-.337-.433-.39-.383-.426-.315-.447-.238-.45-.003-.008-.003-.008-.144-.419-.057-.405.039-.358.132-.298.219-.224.002-.002M730.779 362.82l.531-1.707.085-.415-.017-.454-.118-.476-.214-.48-.149-.231-.153-.235-.135-.155-.243-.278-.44-.385-.484-.321-.512-.245-.518-.159-.505-.068-.472.026-.422.12-2.322 1.286" stroke="#EFC018" stroke-width="5" stroke-linejoin="round"/><path d="m731.309 361.113-.014.027-.169.332-.273.289-.004.003-.351.206-.046.013-.008.003-.368.105-.472.027-.506-.068-.518-.159-.513-.245-.485-.321-.441-.385-.379-.434-.301-.467-.214-.481-.117-.477-.017-.454.03-.143.001-.006.054-.265.184-.359.271-.286.004-.003.303-.178.052-.03" stroke="#EFC018" stroke-width="5" stroke-linejoin="round"/><path d="m731.041 359.293.214.481.118.476.016.454-.084.414-.183.359-.27.287-.003.003-.355.209-.038.011-.008.002-.376.107-.472.027-.506-.067-.429-.132-.089-.027-.35-.168-.163-.077-.485-.321-.441-.386-.379-.434-.301-.466-.214-.481-.117-.477-.017-.454.031-.15.001-.006.053-.259.184-.358.275-.289.003-.003M730.605 358.674l.133.154.155.237M727.008 357.363l.422-.12.472-.026.505.068M729.438 357.689l.485.321.439.384M738.198 356.191l-.002.003-.301.146-.37.061-.424-.027-.281-.07-.01-.002-.172-.043-.077-.032-.406-.166-.268-.15-.217-.123-.469-.337-.433-.39-.382-.426-.062-.087-.254-.36-.115-.217-.123-.232-.005-.017-.003-.007-.142-.412-.057-.405.039-.358.132-.298.222-.226.003-.002.298-.144M737.629 353.36l.193.216.281.396.035.049.238.449.15.436.057.404-.037.358-.132.299M734.018 352.017l-2.752 1.593M735.113 351.838l.252.063.211.052.404.166M736.059 352.151l.485.273.467.337M744.074 352.28l-.001.001-.24.08-.31-.004-.369-.086-.001-.001-.003-.001-.41-.164-.443-.239-.454-.303-.449-.356-.425-.394-.387-.418-.041-.053-.291-.372-.264-.416-.126-.261-.062-.13-.103-.351-.015-.297.075-.233.16-.158.003-.001M744.188 351.241l.023.08v.002l.08.268.016.298" stroke="#EFC018" stroke-width="5" stroke-linejoin="round"/><path d="m739.916 348.124-2.02 1.184-.99.58M744.233 352.122l-.047.047-.002.002M740.496 348.058l.339.08.02.008.003.001.391.157.269.146.173.093.454.303M742.594 349.2l.425.394.386.416M748.422 349.875l-.01.165-.092.088-.001.001-.173.009-.245-.07-.309-.148-.361-.219-.399-.282-.421-.335-.427-.374-.417-.399-.129-.135-.002-.001-.26-.273-.349-.402-.295-.381-.106-.16-.001-.001-.121-.184-.154-.295-.072-.234.011-.164.092-.086.002-.002h.002l.172-.008.246.071.309.148M746.094 347.04l.426.373.12.115.001.002.295.282.39.407.349.402" stroke="#EFC018" stroke-width="5" stroke-linejoin="round"/><path d="m744.184 345.993-1.323.769-.675.392-1.19.691M750.854 349.759l-.024.017v.001l-.103-.061-.178-.138-.247-.209-.305-.273-.353-.326-.386-.366-.405-.393-.408-.404-.395-.399-.368-.38-.325-.345-.271-.298-.206-.239-.133-.17-.056-.096.015-.01.01-.007.001.001.103.061M750.188 348.955l.27.297.206.239M746.715 345.663l-1.395.79M747.246 346.073l.305.273.353.325M748.691 347.429l.407.403.395.399M751.551 351.206l-.033-.129-.11-.204-.183-.269-.249-.325-.246-.295M635.884 449.292l.232-.223.304-.134.363-.04.41.056.353.121.008.002.078.028.453.237.449.315.428.383.39.435.337.47.185.332.086.154.195.485.014.059.044.186.002.008.051.212.023.426-.066.371-.152.303-.003.002-.23.221-.304.132-.363.039-.409-.057-.44-.149-.383-.202-.069-.036-.448-.316-.127-.113-.3-.269-.389-.434-.337-.469-.249-.447-.022-.039-.195-.484-.021-.087-.09-.377-.024-.426.065-.372.15-.299.001-.004Zm0 0 1.608-2.729M639.535 453.833l.093-.037M631.857 455.243l.164-.163.237-.076.302.013.356.102.293.139.102.047.419.265.427.332.058.054.361.333.395.427.355.45.301.456.237.445.163.417.082.371V458.908l-.001.26-.084.242-.002.002-.162.16-.016.005-.003.001-.219.069-.303-.014-.08-.023-.005-.001-.27-.078-.042-.02-.002-.001-.35-.166-.419-.264-.427-.332-.418-.386-.394-.426-.354-.45-.302-.455-.025-.049-.211-.396-.123-.313-.002-.004-.039-.099-.048-.217-.035-.154.001-.314.082-.239.001-.003Zm0 0 1.08-1.809.706-1.183M635.859 459.572l.003-.002M629.61 459.578l.002-.002.091-.095.168-.013.239.07.299.152.156.102.001.001.191.124.383.294.405.35.222.212.001.001.187.178.166.174.234.244.373.429.334.424.28.401.217.364.144.312.067.249-.002.024-.012.151-.001.001-.092.095-.169.013-.239-.071-.299-.153-.347-.227-.384-.294-.403-.349-.41-.39-.323-.339-.001-.001-.074-.078-.374-.428-.333-.422-.265-.38-.001-.001-.014-.02-.217-.364-.145-.312-.067-.249.012-.175v-.002Zm0 0 .688-1.161.396-.668.796-1.345M633.66 463.82l.004-.002M629.184 462.186l.006-.008.015-.02.099.053.174.131.242.204.301.27.347.325.382.367.026.026.007.007.368.363.405.409.392.407.366.389.324.355.271.309.083.101.006.007.118.142.134.181.058.106v.001l-.021.026-.1-.053-.175-.131-.242-.205-.3-.27-.348-.324-.381-.367-.4-.395-.404-.409-.391-.406-.365-.388-.325-.355-.271-.308-.207-.25-.135-.183-.058-.105-.001-.002Zm0 0 .856-1.484M633.285 466.337l.002-.001M633.426 466.262l.316.265.323.253.268.186.201.114.128.036v-.001l.005-.002 1.074-.607M677.991 407.842l-.517-.277-.454-.372-.373-.455-.278-.518-.172-.563-.06-.585.029-.308.026-.278.168-.563.273-.519.37-.455.451-.374.515-.278.559-.171.582-.059.546.054.037.003.561.17.517.277.454.373.373.454.278.519.172.563.06.585-.055.586-.168.563-.274.519-.369.455-.451.374-.515.278-.559.171-.582.058-.583-.057-.561-.17ZM634.664 467.116l1.079-.609" stroke="#EFC018" stroke-width="5" stroke-linejoin="round"/><path d="m632.988 465.871.006.007.121.146.135.182.057.105.001.001-.02.024-.002.003-.1-.053-.174-.132-.242-.204-.301-.27-.347-.325-.381-.367-.4-.395-.404-.408-.392-.406-.365-.388-.324-.355-.271-.309-.207-.25-.136-.182-.058-.107.02-.028.099.052.174.131M629.719 462.547l.301.27.348.325.382.368.028.028.007.007.366.361.404.409.393.407.365.388M632.637 465.466l.27.308" stroke="#EFC018" stroke-width="5" stroke-linejoin="round"/><path d="m633.285 466.339.142-.077.001-.001.515-.279.001-.001 1.058-.574M633.768 463.571l-.012.154v.002l-.088.091-.005.005-.169.013-.239-.071-.299-.153-.347-.227-.384-.294-.404-.349-.409-.39-.323-.339-.002-.001-.074-.078-.373-.428-.333-.422-.266-.381-.001-.001-.013-.019-.217-.364-.145-.312-.067-.249.012-.177.001-.001.092-.096.168-.013" stroke="#EFC018" stroke-width="5" stroke-linejoin="round"/><path d="m633.66 463.823.205-.104.275-.139.003-.002.843-.428.137-.07h.002l.258-.131v-.001l.139-.07.003-.002M631.137 460.214l.405.35M631.766 460.776l.001.001.187.178.177.185M636.108 459.173l-.084.239-.001.002-.158.156-.006.006-.011.004-.003.001-.224.071-.302-.014-.076-.022-.004-.001-.276-.08-.041-.019-.002-.001-.351-.166-.419-.265-.426-.331-.419-.387-.394-.426-.354-.449-.301-.456-.028-.051-.209-.393-.125-.32-.002-.004-.036-.092-.049-.22-.034-.152v-.313l.083-.243.002-.001.162-.161M633.727 455.574l.427.333.057.052.362.334.395.427.355.451M635.863 458.072l.163.416M633.644 452.251l-.706 1.183-1.083 1.813M635.859 459.577l.852-.392.004-.002M632.559 455.021l.356.102M640.068 453.48l-.002.004-.232.222-.207.09-.097.043-.363.039-.41-.057-.439-.15-.386-.202-.066-.035-.449-.316-.128-.115-.299-.267-.389-.434-.336-.469-.251-.449-.02-.037-.195-.484-.022-.091-.09-.373-.023-.427.065-.371.151-.304.003-.002M637.495 446.553l-1.616 2.744M636.113 449.075l.303-.134M639.531 453.839l2.899-1.146M637.188 448.957l.361.123.008.002.071.025M638.082 449.344l.449.316.03.027.398.356.39.435M642.655 439.959l-1.292 2.297-.125.423-.031.474.064.506.156.519.243.513.32.486.385.44.359.313.075.066.334.215.135.087.483.214.481.118.459.016.42-.084 1.997-.6" stroke="#EFC018" stroke-width="5" stroke-linejoin="round"/><path d="m641.363 442.256.214-.356.295-.276.364-.184.235-.048.185-.037.459.016.481.117.485.214.468.302.436.379.385.442.32.487.243.513.156.52.064.506-.032.474-.123.412-.003.011-.214.355-.296.275-.364.184M649.468 431.775l-.953 1.902-.177.465-.08.512.022.541.123.548.218.534.305.5.381.446.441.376.486.291.511.195.517.091.502-.016.963-.15" stroke="#EFC018" stroke-width="5" stroke-linejoin="round"/><path d="m648.516 433.677.269-.399.35-.319.008-.004.41-.221.469-.123.503-.016.518.09.511.195.487.291.442.377.381.447.305.5.218.535.122.548.022.541-.08.513-.178.465-.27.398-.303.275-.047.043-.418.225-.47.122M657.219 423.338l-.478 1.29-.119.541-.013.565.094.569.197.551.293.51.378.451.447.373.5.283.534.181.546.072 1.481.149" stroke="#EFC018" stroke-width="5" stroke-linejoin="round"/><path d="m656.742 424.628.221-.496.118-.162.196-.269.395-.35.462-.255.51-.15.539-.041.547.072.534.181.501.282.447.375.378.451.293.511.197.55.094.569-.013.567-.119.541-.222.495-.314.431-.396.349-.462.255-.51.15-.055.004-.484.036M665.997 415.582l.004-.065.034-.516.149-.558.254-.514.348-.45.422-.362.008-.006.494-.273.541-.167.565-.054.42.044.149.016.551.172.511.278.452.373.374.454.284.516.182.561.073.581-.039.582-.149.558-.254.514-.348.449-.43.369-.495.272-.54.167-.566.054-.568-.06-.551-.172-.51-.278-.41-.339-.042-.034-.375-.454-.283-.516-.182-.56-.073-.582Zm0 0-.04-.417M666.91 417.694l.281.324M688.54 397.312l-.519-.279-.455-.373-.372-.454-.276-.516-.047-.156-.121-.403-.055-.58.061-.579.174-.555.281-.511.377-.447.458-.365.453-.234.07-.036.565-.164.588-.052.588.063.564.174.519.279.454.373.373.453.275.516.169.559.055.58-.061.579-.174.555-.281.511-.377.447-.458.366-.522.27-.566.164-.588.052-.587-.063-.565-.174ZM702.41 382.507l.14.169.233.281.277.509.171.548.059.565-.056.562-.169.536-.275.49-.37.425-.452.343-.515.25-.561.145-.582.035-.583-.076-.561-.184-.517-.285-.454-.375-.372-.451-.278-.509-.171-.548-.058-.566.056-.562.169-.536.275-.49.371-.424.452-.344.516-.249.56-.144.385-.023.197-.012.583.076.56.184.517.285.453.375Zm0 0 .302.303M700.295 381.587l-.44-.02M713.471 375.319l-.041.534-.004.015-.147.49-.256.457-.35.39-.432.31-.496.216-.542.115-.567.009-.569-.097-.551-.2-.511-.294-.45-.378-.374-.446-.282-.499-.18-.531-.071-.543.042-.535.152-.505.256-.456.351-.39.233-.167.199-.142.496-.216.542-.114.566-.009.569.097.551.2.51.294.45.378.373.446.282.498.18.53.071.543Zm0 0 .122 1.494M709.378 372.456l-1.316.489M722.915 367.621l-.122.464-.225.412-.068.075-.25.27-.398.264-.465.173-.512.075-.541-.026-.548-.125-.534-.22-.5-.306-.446-.381-.376-.442-.291-.484-.194-.508-.09-.513.016-.498.124-.464.208-.381.017-.031.319-.345.399-.263.465-.172.512-.074.54.026.547.125.534.22.499.306.446.381.375.441.291.483.194.508.091.512-.017.498Zm0 0-.135.802-.123.729M718.44 364.367l-1.928.954M663.768 460.138l-6.743 6.199-5.073 8.163-2.194 8.947-.192 3.594-.367 6.858 2.185 9.758.167.743 2.862 9.582.594 1.988 4.047 9.144 1.095 2.474 5.451 8.384 1.619 2.49 5.754 8.179 1.805 2.566 6.052 7.96 1.731 2.277 7.297 6.838 1.603 1.503 8.185 5.745 1.081.758 9.003 4.352.233.112 8.756 2.337 1.32-.147 7.869-.876 7.345-2.64 7.027-5.827" stroke="#EFC018" stroke-width="5" stroke-linejoin="round"/><path d="m728.944 555.133-4.808 4.052-5.728 2.486-5.627.733-.796.104-6.871-.834-1.479-.516-5.578-1.946-6.978-3.99-6.64-5.364-6.056-6.533-5.248-7.459-4.247-8.108-3.086-8.456-1.808-8.491-.159-2.839-.3-5.37.429-3.569.126-1.05.36-2.999 1.948-5.805.313-.931 3.53-5.593 4.674-4.229 1.328-.633.4-.191 3.916-1.868 6.404-1.039 6.919.664 7.164 2.352 7.129 3.956 6.811 5.411 6.222 6.655 5.382 7.635 4.33 8.313 3.106 8.659 1.76 8.661.352 8.319-1.066 7.652-2.432 6.689-2.769 4.099-.19.282-.737 1.091Z" stroke="#EFC018" stroke-width="5" stroke-linejoin="round"/><path d="m729.68 554.042-5.273 2.294-6.417.847-6.862-.821-4.82-1.672-2.226-.773-6.966-3.971-6.197-4.996-.429-.346-6.041-6.511-5.234-7.436-3.091-5.907-1.14-2.178-3.073-8.434-1.319-6.226-.476-2.246-.448-8.192.923-7.605 2.268-6.727 3.383-5.349" stroke="#EFC018" stroke-width="5" stroke-linejoin="round"/><path d="m663.77 460.138 8.858-4.642.35-.183 6.946-1.507 3.072-.667 9.992-.399 1.73-.069 9.729 2.313 1.532.364 9.07 4.211 2.005.931 8.394 5.434 2.488 1.611 6.84 7.294 2.23 2.378 5.006 8.657 1.893 3.272 4.048 9.144 1.576 3.559 2.668 9.638 1.023 3.698 1.148 9.934.211 1.826.199 1.722-.235 4.209-.501 8.977-1.532 9.882-.212 1.367-1.363 3.146-3.23 7.454-5.423 7.907M1176.51 708.906l-5.81-6.433-9.98-.738-9.97-.739-9.97-.738-9.97-.738-9.98-.738-9.97-.738-1.93-.143-8.25-.61M1089.39 906.44l2.82-9.593 2.29-7.742.16-.557.86-2.926v-.001l1.61-5.474.86-2.917 2.1-7.119-8.18-5.75-.32-.227-.41-.287-8.18-5.75-8.19-5.75-8.18-5.75-8.18-5.75-8.18-5.751-8.18-5.75-8.18-5.75-8.18-5.75-8.19-5.75-8.18-5.75-8.18-5.75-8.179-5.75-3.791-2.664-2.436 2.105-1.86 1.607-1.23 1.064 1.097 9.939 1.096 9.94.33 2.99 1.074 9.741 1.097 9.94.021.192 1.096 9.94 1.097 9.939 1.096 9.94 1.097 9.94.581 5.267 1.096 9.939.101.92 1.097 9.939 1.096 9.94.082.744 7.462 6.66 7.46 6.659 7.46 6.66 7.46 6.659 7.46 6.66 7.46 6.659 7.46 6.66 7.46 6.659 7.68 6.859 7.73 6.349 7.58 6.231 7.73 6.349 7.56 6.208 7.72 6.35 7.54 6.2 7.73 6.35 7.52 6.18 6.04-4.26 5.45-7.73-4.68-8.83-4.68-8.839-4.08-7.686-4.36-8.997-4.37-8.997-3.94-8.133-4.57-8.898-4.56-8.898-3.89-7.574-2.56-9.666-2.56-9.667-2.56-9.667-.6-2.278Z" stroke="#EFC018" stroke-width="5" stroke-linejoin="round"/><path d="m989.207 792.182 1.111 9.938 1.111 9.938 1.11 9.938.197 1.763 1.111 9.938.145 1.294 1.11 9.938 1.111 9.938 1.111 9.938 1.11 9.938 1.111 9.938 1.115 9.938.8 7.196 1.1 9.809" stroke="#EFC018" stroke-width="5" stroke-linejoin="round"/><path d="m996.836 916.207 5.724-4.584 7.46 6.66 7.45 6.661 7.46 6.661 7.46 6.66 7.46 6.661 7.46 6.66 7.46 6.661 7.46 6.661 7.86 7.023 7.73 6.351 7.62 6.267 7.73 6.351 7.6 6.249 7.72 6.351 7.58 6.23 7.72 6.35 7.56 6.22M1438.17 362.024l5.81 8.141 5.8 8.141.5.699 6.59 7.527 6.58 7.526.59.676 1.49 1.413 7.3 6.841 7.29 6.841.6.558 7.93 6.094 7.92 6.094.71.543 8.48 5.293 8.49 5.294.83.517 8.95 4.45 8.96 4.45.96.478 9.34 3.57 9.34 3.57 1.1.421 9.64 2.665 9.64 2.666 1.24.343 9.85 1.741 9.85 1.741 1.37.243 9.97.808 9.97.808 1.49.121 10-.129 10-.129 1.6-.021 1.71-.182 7.99-.852 9.95-1.06 1.93-.205 9.8-1.981 9.8-1.982 1.74-.352 9.58-2.883 9.57-2.883 1.77-.532 9.26-3.762 9.27-3.762 1.76-.716 8.88-4.609 8.87-4.609 1.73-.895 8.4-5.421 8.4-5.42 1.66-1.068 7.86-6.187 7.85-6.186 1.56-1.226 7.23-6.904 7.24-6.905 1.43-1.366 6.54-7.564 6.54-7.563 1.28-1.485 5.78-8.16 5.79-8.16 1.11-1.581 4.96-8.684 4.96-8.684.95-1.652 1-1.878 4.08-9.13 4.08-9.131.82-1.844 3.15-9.491 3.15-9.491.63-1.876 2.18-9.76 2.18-9.759.42-1.888 1.18-9.931 1.17-9.93.23-1.883.15-9.999.16-9.999.02-1.863-.87-9.962-.88-9.961-.16-1.834-1.91-9.816-1.91-9.816-.35-1.797-2.92-9.563-2.93-9.564-.53-1.752-3.91-9.205-3.91-9.205-.72-1.702-1.03-2.21-4.85-8.746-4.85-8.746-.88-1.589-5.74-8.191-5.73-8.191-1.07-1.523-6.56-7.549-6.56-7.55-1.25-1.446-7.31-6.828-7.3-6.829-1.45-1.352-7.97-6.04-7.97-6.04-1.64-1.242-8.54-5.194-8.55-5.194-1.82-1.106-9.02-4.303-9.03-4.302-1.99-.95-9.42-3.374-9.41-3.374-2.15-.769-9.7-2.422-9.7-2.423-2.28-.568-9.89-1.454-9.89-1.454-2.38-.349-9.99-.482-9.99-.48-2.44-.119-9.99.49-9.99.488-2.47.121-9.89 1.446-9.9 1.447-2.45.358-9.71 2.387-9.71 2.387-2.4.59-9.44 3.3-9.44 3.3-2.3.803-9.08 4.181-9.09 4.182-2.16.997-8.65 5.023-8.65 5.023-2 1.162-8.13 5.821-8.13 5.82-1.81 1.295-7.55 6.565-7.54 6.565-1.6 1.393-6.88 7.253-6.89 7.254-1.38 1.453-6.16 7.877-6.16 7.877-1.15 1.479-5.38 8.432-5.38 8.432-.93 1.469-4.54 8.911-4.54 8.91-.73 1.43-3.65 9.309-3.65 9.31-.54 1.365-2.72 9.621-2.73 9.622-.36 1.283-1.77 9.842-1.77 9.843-.22 1.189-.21 2.342-.79 9.969-.79 9.969-.09 1.146.2 9.998.21 9.998.02 1.05 1.2 9.928 1.19 9.928.12.96 2.18 9.759 2.18 9.759.2.882 3.14 9.493 3.15 9.492.27.817 4.08 9.13 4.08 9.131.34.765 4.97 8.679 4.96 8.679.42.727Z" stroke="#EFC018" stroke-width="5" stroke-linejoin="round"/><path d="m1605 323.869-8.15-5.048-6.57-5.066-7.05-6.634-5.61-6.262-5.47-7.752-4.43-7.595-3.7-8.175-2.93-9.036-.5-9.109 1.15-7.481-.24-8.542.77-8.978 1.63-8.834 2.46-8.607 3.25-8.315 4.24-7.656 6.26-5.124 6.03-5.237 6.93-6.722 7.58-5.945 6.64-4.671 6.97-4.052 7.22-3.417 7.45-2.771 9.79-2.014.26-.053 8.67-.573 7.44.964 7.2 1.338 8.16 2.106 9.27 3.388 2.57 1.212 3.79 1.781 6.14 3.269 6.58 4.035 7.96 6.057.18.133.39.369 4.64 4.307 4.8 4.932 4.76 5.47 5.76 8.177.2.287 3.55 6.339 3.11 6.441 2.79 6.764 1.31 9.293.09 4.919.07 4.306-.93 7.747-1.62 7.718-2.33 7.623-3.06 7.749-4.17 8.792-4.94 7.838-3.18 7.09-4.2 6.973-6.98 5.729-7.52 5.105-8 4.428-8.42 3.692-8.77 2.91-7.95 2.06-7.77 3.166-9.53.96-6.39-.417-3.33-.217-8.33-1.53-9.33-2.433-9.09-3.385-7.57-3.816ZM1750.4 203.291l-4.4-7.873M1579.2 165.345l-7.17 6.971-1.41 1.375M1738.31 301.578l5.34-8.456.79-1.263 4.3-9.032.89-1.874M1646.87 136.111l-3.22.217M1710.38 158.5l-.18-.112-8-4.895M1738.61 184.905l-5.91-6.793M1810.23 299.043l3.21-7.235.64-1.646 1.33-5.278 1.17-5.307.23-1.549-.03-1.685.27-5.239.08-5.1-.41-1.702-.09-1.053.05-4.767.06-4.497.04-3.537-2.32-3.987M1767.66 257.616l-2.51 6.084-.42 5.051-1.8 6.413-1.67 6.28-1.34 6.144-.84 6.33-.45 5.96" stroke="#EFC018" stroke-width="5" stroke-linejoin="round"/><path d="m1771.52 297.241 1.47-4.856.36-4.68.67-4.968 1.06-4.821 1.31-4.926 1.42-5.029.33-3.961 1.97-4.77 2.24-2.974 2.34-4.021 2.59-3.636 2.8-3.216 1.13-1.308 1.98-.576 2.75-1.329 2.84-.978 2.92-.451 2.42-.428 1.38-.443 2.29 1.187 2.27 1.995 2.18 2.477 2.09 2.932.11.122 1.77 1.991.58-.126M1780.39 239.964l-3.58 4.098-3.3 4.635-2.99 5.127M1802.89 315.842l4.04-9.148.74-1.659.71-2.159 1.26-2.854.83-1.881.67-1.55 1.44-3.362M1795.23 234.067l-3.73.569-3.62 1.24-3.52 1.689-2.52.732M1813.44 291.809l-.86 1.421M1800.33 321.648l2.33-5.282" stroke="#EFC018" stroke-width="5" stroke-linejoin="round"/><path d="m1807.67 305.035-.18.413-1.85 4.163-1.71 3.867M1811.34 243.927l-2.66-3.736-2.79-3.159-2.89-2.547M1758.54 320.684l1.81 3.659 1.76 4.22M240.483 929.523l5.484 7.3 6.079 6.813 6.618 6.264 7.096 5.657 7.507 4.995 7.849 4.288 2.7 1.224 8.578 3.739 8.782 2.913 8.905 2.057 4.334.615 9.337 1.233 9.293.305 9.159-.627 5.407-.43 9.229-1.608 5.455-1.53 9.109-2.609 8.702-3.556 5.368-2.626 8.306-4.521 7.729-5.407 4.883-3.574 7.089-6.253 4.119-4.318 6.314-6.978 5.533-7.687 3.105-4.745 4.612-8.177 3.741-8.725 1.934-4.777 2.753-8.936 1.838-9.301.734-4.375.867-9.213-.043-9.385-.958-9.466-.329-3.082-1.771-8.991-2.618-8.889-3.438-8.698-4.227-8.422-4.974-8.061-5.673-7.62-6.314-7.103-6.894-6.514-7.405-5.861-7.842-5.15-8.201-4.389-8.478-3.584-3.18-1.223-9.117-2.887-9.227-1.977-9.247-1.05-4.686-.463-9.536-.118-9.367.854-5.338.62-9.363 1.867-9.003 2.832-5.553 1.767-8.708 3.838-5.279 2.807-8.233 4.787-7.611 5.659-4.766 3.745-6.904 6.46-3.998 4.497-6.076 7.124-5.272 7.792-2.951 4.906-4.325 8.205-3.452 8.704-1.755 4.91-2.469 8.832-1.574 9.15-.526 4.475-.639 8.984.234 9.121 1.103 9.17.548 3.107 1.853 8.644 2.646 8.529 3.41 8.336 4.143 8.064 4.835 7.717Z" stroke="#EFC018" stroke-width="5" stroke-linejoin="round"/><path d="m275.419 928.142-3.845-2.517-3.119-2.506-3.375-3.263-2.683-3.075-2.666-3.777-2.18-3.69-1.855-3.96-1.543-4.349-.589-4.269.148-3.442-.243-4.098.188-4.279.576-4.192.951-4.066 1.31-3.909 1.729-3.556 2.467-2.196 2.474-2.314 3.006-3.081 3.308-2.698 2.957-2.132 3.109-1.827 3.23-1.516 3.33-1.2 4.481-.799 3.87-.108 3.271.639 3.185.803 3.642 1.181 4.182 1.796 2.905 1.538 2.823 1.659 3.056 2.022 3.837 3.048 2.418 2.275 2.334 2.385 2.343 2.631 3.02 4.036 1.867 3 1.688 3.037 1.564 3.178.845 4.405.323 4.359-.249 3.662-.574 3.645-.904 3.597-1.238 3.645-1.668 4.107-2.066 3.656-1.017 3.206-1.493 3.144-3.043 2.63-3.313 2.331-3.56 2.007-3.777 1.656-3.966 1.283-3.583.878-3.203 1.285-4.241.291-4.454-.432-3.869-.828-4.319-1.286-4.245-1.731-3.557-1.919ZM264.756 849.912l-3.742 3.84-3.08 2.885M340.594 917.185l2.576-4.554 2.083-5.115 1.545-4.541M295.005 837.083l-4.821.139M328.532 852.867l-4.781-3.798-3.81-2.517M337.377 861.953l-2.92-3.28M384.571 889.708l.175 1.643.205 1.924.018.166.237 2.216.136.475.504.701.433 2.29.299 2.378.192.749.026.699-.216 2.446-.352 2.458-.293.798-.446.707-.838 2.324-.854 2.249-.189.991-.057.188-.573 1.902-.533 1.767M354.394 895.988l-1.218 2.961.023 2.359" stroke="#EFC018" stroke-width="5" stroke-linejoin="round"/><path d="m358.359 914.379.361-2.212-.27-2.086-.042-2.26.2-2.209.415-2.301.469-2.352-.017-1.85.955-2.322 1.24-1.516.049-.076 1.252-1.954 1.464-1.864 1.613-1.679.655-.683 1.292-.43 1.794-.853 1.854-.689 1.917-.443 1.583-.392.985-.356 1.681.326 1.691.712 1.648.95 1.592 1.178 1.421.81.41-.119.61-2.733M361.564 886.947l-2.058 2.141-1.869 2.377-1.66 2.589M386.348 912.001l.568-.901.374-1.016M368.701 883.565l-2.365.878-.241.114-2.048.972-1.649.547M379.184 926.48l1.667-.429 1.623-2.063M376.564 882.468l-2.144-.416-1.256.452M372.785 929.366l2.329-1.21 2.324-1.447M352.422 920.323l1.005 2.429 1.387 1.865 1.667 1.454 1.723 1.696M352.602 904.308l-.528 2.935-.253 2.816.056 2.881.347 2.659-.458 2.819M362.008 930.816l2.189.531 2.312.26M1385.57 284.003l-7.17-6.965-7.18-6.965-7.17-6.966-7.36-7.14-6.96 7.176-6.97 7.175-6.96 7.175-5.51 5.671-1.63 1.685 7.17 6.965 7.18 6.965 7.17 6.966 7.36 7.14 1.57-1.617 6.96-7.175 6.97-7.176 6.96-7.175 5.57-5.739ZM1351.78 252.132l-7.17-6.965-7.18-6.966-2.91-2.828-6.97 7.176-6.96 7.175-2.83 2.914 7.17 6.965 7.18 6.965 2.91 2.828 6.97-7.175 6.96-7.176 2.83-2.913ZM1370.1 237.403l-7.18-6.965-4.63-4.499-6.97 7.175-4.5 4.635 7.18 6.965 4.63 4.499 6.97-7.176 4.5-4.634ZM247.445 293.759l6.983 7.159 6.982 7.159 6.982 7.159 6.982 7.159 6.982 7.158 6.982 7.159 6.982 7.159 6.982 7.159 6.982 7.159 6.983 7.159 6.982 7.159 6.982 7.159 6.982 7.159 6.982 7.159 6.982 7.159 6.982 7.159 6.982 7.158 6.982 7.159 6.983 7.159 6.982 7.159 6.982 7.159 6.982 7.159 6.982 7.159 6.982 7.159 6.982 7.159 6.982 7.159 6.982 7.159 6.983 7.159 6.982 7.158 6.982 7.159 6.982 7.159 6.982 7.159 6.982 7.159 6.982 7.159 6.982 7.159 6.983 7.159 6.982 7.159 6.982 7.159 6.982 7.159 6.982 7.159 6.982 7.158 6.982 7.159 6.982 7.159 6.982 7.159 6.983 7.159 6.982 7.159 6.982 7.159 6.982 7.159 6.982 7.159 6.982 7.159 6.982 7.159 6.982 7.159 6.982 7.158 6.983 7.159 6.982 7.159 6.982 7.159 6.982 7.159 6.982 7.159 8.715 8.936 7.071-7.071 3.404-3.404-7.158-6.982-7.159-6.983-7.159-6.982-7.159-6.982-7.159-6.982-7.159-6.982-7.159-6.982-7.159-6.982-7.159-6.982-7.159-6.982-7.159-6.983-7.159-6.982-7.158-6.982-7.159-6.982-7.159-6.982-7.159-6.982-7.159-6.982-7.159-6.982-7.159-6.983-7.159-6.982-7.159-6.982-7.159-6.982-7.159-6.982-7.159-6.982-7.158-6.982-7.159-6.982-7.159-6.982-7.159-6.983-7.159-6.982-7.159-6.982-7.159-6.982-7.159-6.982-7.159-6.982-7.159-6.982-7.159-6.982-7.159-6.982-7.158-6.983-7.159-6.982-7.159-6.982-7.159-6.982-7.159-6.982-7.159-6.982-7.159-6.982-7.159-6.982-7.159-6.982-7.159-6.983-7.159-6.982-7.159-6.982-7.158-6.982-7.159-6.982-7.159-6.982-7.159-6.982-7.159-6.982-7.159-6.983-7.159-6.982-7.159-6.982-7.159-6.982-7.159-6.982-8.936-8.715ZM317.273 534.303l6.982 7.159 6.982 7.158 6.982 7.159 6.982 7.159 6.982 7.159 6.983 7.159 6.982 7.159 6.982 7.159 6.982 7.159 6.982 7.159 6.982 7.159 6.982 7.159 6.982 7.159 6.982 7.158 6.983 7.159 6.982 7.159 6.982 7.159 6.982 7.159 6.982 7.159 6.982 7.159 6.982 7.159 6.982 7.159 6.982 7.159 6.983 7.159 6.982 7.159 6.982 7.158 6.982 7.159 6.982 7.159 6.982 7.159 6.982 7.159 6.982 7.159 6.983 7.159 6.982 7.159 6.982 7.159 6.982 7.159 6.982 7.159 6.982 7.159 6.982 7.159 6.982 7.158 6.982 7.159 6.983 7.159 6.982 7.159 6.982 7.159 6.982 7.159 6.982 7.159 6.982 7.159 6.982 7.159 6.982 7.159 6.982 7.159 6.983 7.159 6.982 7.158 6.982 7.159 6.982 7.159 6.982 7.159 6.982 7.159 6.982 7.159 6.982 7.159 6.982 7.159 8.716 8.936 7.071-7.071 3.404-3.405-7.159-6.982-7.159-6.982-7.159-6.982-7.159-6.982-7.159-6.982-7.159-6.982-7.159-6.982-7.158-6.982-7.159-6.983-7.159-6.982-7.159-6.982-7.159-6.982-7.159-6.982-7.159-6.982-7.159-6.982-7.159-6.982-7.159-6.983-7.159-6.982-7.159-6.982-7.158-6.982-7.159-6.982-7.159-6.982-7.159-6.982-7.159-6.982-7.159-6.982-7.159-6.983-7.159-6.982-7.159-6.982-7.159-6.982-7.159-6.982-7.159-6.982-7.158-6.982-7.159-6.982-7.159-6.982-7.159-6.983-7.159-6.982-7.159-6.982-7.159-6.982-7.159-6.982-7.159-6.982-7.159-6.982-7.159-6.982-7.159-6.982-7.158-6.983-7.159-6.982-7.159-6.982-7.159-6.982-7.159-6.982-7.159-6.982-7.159-6.982-7.159-6.982-7.159-6.983-7.159-6.982-7.159-6.982-7.159-6.982-7.158-6.982-7.159-6.982-7.159-6.982-8.936-8.715ZM1640.06 461.836l6.98 7.159 6.99 7.159 6.98 7.159 6.98 7.159 6.98 7.159 6.99 7.159 6.98 7.159 6.98 7.159 6.98 7.158 6.98 7.159 6.99 7.159 6.98 7.159 6.98 7.159 6.98 7.159 6.98 7.159 6.99 7.159 6.98 7.159 6.98 7.159 6.98 7.159 6.98 7.159 6.99 7.158 6.98 7.159 6.98 7.159 6.98 7.159 6.99 7.159 6.98 7.159 6.98 7.159 2.59 2.659 7.07-7.071 2.15-2.145-7.16-6.982-7.16-6.982-7.16-6.982-7.16-6.982-7.15-6.983-7.16-6.982-7.16-6.982-7.16-6.982-7.16-6.982-7.16-6.982-7.16-6.982-7.16-6.982-7.16-6.982-7.15-6.983-7.16-6.982-7.16-6.982-7.16-6.982-7.16-6.982-7.16-6.982-7.16-6.982-7.16-6.982-7.16-6.982-7.16-6.983-7.15-6.982-7.16-6.982-7.16-6.982-6.21-6.051" stroke="#EFC018" stroke-width="5" stroke-linejoin="round"/><path d="m1330.29 283.164-7.16-6.982-7.16-6.982-7.15-6.982-7.16-6.982-7.16-6.982-7.16-6.983-7.16-6.982-7.16-6.982-7.16-6.982-7.16-6.982-7.16-6.982-7.15-6.982-7.16-6.982-7.16-6.982-7.16-6.983-7.16-6.982-7.16-6.982-7.16-6.982-7.16-6.982-7.16-6.982-7.15-6.982-7.16-6.982-7.16-6.982-7.16-6.983-7.16-6.982-7.16-6.982-7.16-6.982-7.16-6.982-7.16-6.982-7.15-6.982-7.16-6.982-7.16-6.982-7.16-6.983-8.98-8.752 6.99 7.159 6.98 7.159 6.98 7.159 6.98 7.159 6.98 7.158 6.99 7.159 6.98 7.159 6.98 7.159 6.98 7.159 6.99 7.159 6.98 7.159 6.98 7.159 6.98 7.159 6.98 7.159 6.99 7.159 6.98 7.158 6.98 7.159 6.98 7.159 6.98 7.159 6.99 7.159 6.98 7.159 6.98 7.159 6.98 7.159 6.99 7.159 6.98 7.159 6.98 7.159 6.98 7.159 6.98 7.159 6.99 7.158 6.98 7.159 6.98 7.159 6.98 7.159 6.98 7.159 6.99 7.159 6.98 7.159 6.98 7.159 6.98 7.159 6.98 7.159 6.99 7.159 6.98 7.159 6.98 7.158 6.98 7.159 6.99 7.159 6.98 7.159 6.98 7.159 6.98 7.159 6.98 7.159 6.99 7.159 6.98 7.159 6.98 7.159 6.98 7.159 7.88 8.075 7.07-7.071 2.14-2.145-7.15-6.982-7.16-6.982-7.16-6.982-7.16-6.982-7.16-6.983-7.16-6.982-7.16-6.982-7.16-6.982-7.16-6.982-7.15-6.982-7.16-6.982-7.16-6.982-7.16-6.983-6.08-5.93M618.579 439.841l-.001.002M620.605 435.745l-.003.004M622.594 445.883l.586 1.048.001.002 2.499 4.476M628.262 432.834l.002.008.041.171M629.61 459.579l-.001.002M634.664 467.115l.001.001M635 465.407l.74 1.099.001.001 5.584 8.295 5.584 8.296 2.655 3.943M730.344 339.171v-.002l.048-.085.231-.42v-.001l.098-.178" stroke="#EFC018" stroke-width="5" stroke-linejoin="round"/><path d="m735.812 342.12-4.459-2.497-.002-.001-.96-.538M750.965 352.226l.583-1.015.002-.004.001-.001M742.862 346.762l-.351-.237-1.722-1.161M937.928 786.598l-1.283 2.285M938.647 786.949l-.002.004-.088.16-1.171 2.124-.001.002-.267.485-.001.001-.144.261M940.767 786.348l-.001.002-.161.305-.002.004-.223.422-.079.148v.002l-.116.219v.001l-.366.693-.131.248-.002.004-.377.715M945.738 792.987l2.057 1.682.617.505M953.9 800.382l-.162.297M954.672 800.85l-.132.247-.001.001-.261.487-.001.002-.121.226M957.308 799.457l-.487.954-.002.004-.319.625M960.832 804.237l.111.141M1072.6 667.85v-.002M1077.47 659.222l.98-1.741M1089.34 676.306l.92-1.68M962.176 805.363l8.567 5.157 8.568 5.157 1.985 1.194 4.909 2.955M1109 897.743l.21.202M1113.07 898.084v.002M1117.09 895.59v.001M1094.49 889.104l8.73 4.875 1.98 1.102.87.488.01.004.08.044M1084.44 670.357l-.45-.742-4.03-6.673M1103.03 701.185l-2.35-3.894-5.16-8.563-5.17-8.563-1.36-2.257M1175.14 838.936v-.002M1178.46 834.237l.01-.001M1181.81 827.664v-.002l-.02-.061M1182.77 824.586l.52-.928M1179.29 821.691l-.53-.945-4.88-8.727-1.29-2.294M1674.82 141.45l-9.69-2.484-.1-.026M1809.64 300.022l.59-.979" stroke="#EFC018" stroke-width="5" stroke-linejoin="round"/></svg>