<svg width="1920" height="1080" fill="none" xmlns="http://www.w3.org/2000/svg"><path d="m1085.15 669.418-1.15.631M1090.08 675.704v-.001l-.01-.144-.1-.231-.19-.31-.15-.2v-.001l-.13-.175-.34-.427-.4-.464-.44-.48-.47-.481-.48-.461-.46-.424-.43-.371-.39-.304-.33-.226-.25-.137-.17-.045-.39.203v.001l-.27.144" stroke="#EFC018" stroke-width="5" stroke-linejoin="round"/><path d="m1090.08 675.703-.08.051-.17-.043-.25-.137-.26-.18-.07-.045-.39-.304-.43-.372-.47-.425-.3-.296-.01-.008-.16-.158-.47-.482-.44-.482-.4-.463-.35-.429-.27-.372V671.549l-.19-.303-.11-.231-.01-.141v-.002l.06-.037.03-.013M1086.22 682.747l1.97-3.562.05-.162v-.002l.02-.058-.03-.306-.12-.38-.17-.347-.05-.09-.29-.479-.37-.503-.28-.344-.01-.002-.13-.16-.46-.49-.49-.457-.48-.404-.48-.337-.26-.151v-.001l-.18-.106-.39-.167-.04-.008v-.001l-.29-.061-.08.01-.01.001-.15.018-.4.196v.001l-.28.139v.002l-.25.123v.001" stroke="#EFC018" stroke-width="5" stroke-linejoin="round"/><path d="M1088.2 679.185v.001l-.08.057v.001l-.08.069-.01.001-.24.029-.33-.069-.11-.05-.01-.005-.27-.112-.44-.257-.47-.337-.19-.151v-.001l-.3-.254-.49-.457-.46-.492-.43-.507-.2-.283-.01-.012-.15-.208-.07-.107-.04-.064-.19-.309-.09-.192-.02-.034-.1-.212-.12-.379-.03-.293v-.012l.07-.218v-.003l.15-.12.01-.007" stroke="#EFC018" stroke-width="5" stroke-linejoin="round"/><path d="m1088.24 679.028-.05.158v.002l-.07.059-.09.07-.24.03-.33-.07-.07-.031-.03-.01-.29-.125-.44-.257-.48-.337-.18-.151v-.001l-.31-.254-.48-.457-.47-.492-.42-.507-.22-.309-.01-.012-.13-.182-.06-.092-.02-.023-.22-.365-.11-.22-.01-.034-.09-.184-.13-.379-.02-.3v-.005l.06-.221.01-.001.16-.126.16-.019v-.001l.08-.009M1086.81 676.356l.13.161v.001l.29.344.37.503M1084.9 674.667l.48.338.48.404M1086.09 671.232l.39.304.43.371.46.425.48.461.47.48.44.481.4.463.34.427.13.175v.001l.15.2.19.31.1.231.01.142v.002l-.08.051-.17-.043-.25-.137-.26-.18-.07-.045-.39-.304-.43-.372-.47-.425-.3-.291v-.008l-.17-.163-.47-.481-.44-.482-.4-.464-.35-.428-.27-.376v-.004l-.01-.008-.18-.297-.11-.231-.01-.143.09-.05.17.045" stroke="#EFC018" stroke-width="5" stroke-linejoin="round"/><path d="m1089.63 674.818.33-.598-.01-.028-.09-.118-.18-.206-.27-.284-.33-.353-.4-.406-.43-.446-.47-.467-.47-.471-.47-.456-.43-.424-.39-.375-.34-.313-.26-.237-.18-.154-.08-.064-.01.001-1.15.631M988.41 775.254l.137-.567.143-.284.007-.016.105-.208.361-.425.004-.005.461-.334.538-.227.595-.109.629.011.639.133.625.247.586.354.525.447.443.521.345.577.233.61.112.619-.013.605-.137.568-.256.508-.366.429-.005.003-.037.027-.012.009-.407.294-.538.226-.595.109-.629-.013-.639-.132-.624-.248-.585-.354-.524-.446-.443-.52-.344-.577-.233-.609-.113-.618.012-.605Zm0 0 .006-.055M993.129 779.267l.074-.027M979.203 782.811l.003-.004.191-.129.009-.006.214-.144.493-.174.554-.061.592.054.609.166.601.273.571.368.519.45.446.515.357.559.253.582.14.583.022.561-.097.517-.103.219-.003.008-.107.227-.319.374-.005.003-.41.275M982.097 788.206l-.608-.167-.6-.273-.57-.368-.518-.45-.446-.513-.356-.559-.253-.581-.141-.582M970.159 791.018l.157-.39.258-.305.003-.004.356-.214.438-.111.236-.002h.01l.255-.002.546.103.571.207.572.302.552.385.511.455.45.506.372.538.278.549.176.54.041.316.001.009.023.183-.047.459-.158.39-.262.308-.004.002-.353.211-.438.11-.501.003-.546-.104-.569-.207-.572-.302-.551-.385-.51-.454-.449-.505-.371-.537-.279-.548-.176-.539-.066-.508.046-.459Zm0 0 .093-.242M975.141 795.453l.022-.012M963.343 796.296l.193-.233.002-.002.289-.141.372-.042.441.06.371.119.007.002.115.037.526.251.538.335.531.404.502.46.454.497.389.514.308.513.217.491.115.45.011.392-.094.32-.196.234-.003.001-.287.139-.373.04-.441-.06-.492-.159-.525-.251-.057-.036-.01-.006-.471-.293-.529-.404-.501-.459-.453-.495-.181-.239-.002-.002-.206-.273-.232-.386-.006-.009-.07-.116-.143-.324-.004-.009-.07-.157-.116-.45-.012-.393.093-.32Zm0 0 .002-.005M968.434 800.957l3.337-1.841M958.172 800.032l.063-.082.021-.027.001-.001.035-.046.001-.001.215-.064.301.033.375.127.434.217.251.158.017.01.208.131.502.369.506.425.339.32.015.014.139.131.458.486.138.165.001.001.269.324.341.473.261.439.172.388.074.322-.004.049-.001.002-.017.17-.002.023-.123.156h-.002l-.214.062-.072-.008-.229-.025-.375-.129-.434-.217-.025-.016-.001-.001-.45-.282-.501-.369-.485-.407-.001-.001-.019-.016-.491-.464-.458-.485-.407-.488-.341-.473-.261-.438-.172-.388-.054-.231-.022-.092.024-.244Zm0 0 .003-.007M963.164 804.743l3.571-2.009M954.984 801.67l.138.015.225.109.304.197.372.277.426.348.462.405.481.446.482.47.463.475.428.463.375.433.309.386.006.009.001.001.223.314.142.25.049.166-.045.075h-.001M959.684 806.492l-.225-.11-.305-.197-.244-.182M955.135 802.163l-.143-.25-.051-.167" stroke="#EFC018" stroke-width="5" stroke-linejoin="round"/><path d="m959.824 806.509 2.112-1.185.934-.525M954.115 800.618l-.439.807v.001l.058.095.148.185.233.266.309.337.372.397.423.44.455.466.471.475.469.465.448.437.41.392.357.333.289.261.211.178.125.088.033-.004.424-.233M1052.38 720.027l-.06.245-.08.382-.27.573-.38.497-.47.402-.55.291-.6.168-.64.041-.65-.09-.63-.217-.59-.335-.53-.44-.44-.53-.34-.597-.23-.642-.04-.215-.07-.448.02-.658.15-.627.27-.573.38-.497.47-.401.55-.29.6-.168.64-.04.37.052.28.038.09.033.5.171.04.013.59.335.52.44.45.528.34.597.22.609.01.033.1.662-.02.658Zm0 0-.08 1.114" stroke="#EFC018" stroke-width="5" stroke-linejoin="round"/><path d="m955.922 799.88-.592 1.124-.002.002-.138.26-.252.48.051.167.143.251.23.324.307.385.375.432.427.463.464.474.479.469.482.445.461.404.424.347.128.096v.001l.245.181.304.198.226.11.139.017v-.001" stroke="#EFC018" stroke-width="5" stroke-linejoin="round"/><path d="m954.938 801.746.018-.033.026-.043h.002l.136.016.224.108.304.197.373.278.424.348.464.405.481.445.482.47.463.476.428.463.375.433.309.386.006.009v.001l.224.314.141.249.049.166-.044.075v.001M963.163 804.743l-.001.002-.217.063-.073-.009-.228-.025-.375-.128-.434-.218-.025-.016-.002-.001-.449-.282-.5-.369-.486-.407-.001-.001-.019-.016-.491-.464-.458-.485-.407-.488-.34-.472-.262-.439-.172-.388-.056-.239v-.001l-.019-.082.023-.245.007-.009.059-.076.021-.027.001-.001.034-.044.002-.001M962.188 802.398v.002l.269.323.341.473.262.439.171.388.075.322-.005.046v.001M963.16 804.745l3.575-2.012M959.184 799.972l.434.218.274.172.016.01.187.117.501.369.507.425M968.626 800.727l-.194.231-.002.003-.29.141-.373.041-.441-.062-.493-.159-.525-.25-.044-.029-.008-.005-.485-.302-.53-.404-.501-.458-.453-.495-.181-.241-.002-.001-.205-.271-.239-.398-.005-.008-.064-.107-.15-.338-.004-.008-.063-.143-.116-.451-.012-.393.093-.32.007-.008.188-.227.003-.002M965.652 796.352l.539.335.53.405.502.459.455.497.388.514.309.513M968.43 800.961l3.359-1.853M964.637 795.942l.38.122M975.753 794.938l-.26.304-.003.003-.328.196-.029.017-.437.11-.502.004-.546-.104-.569-.207-.571-.302-.552-.385-.51-.454-.449-.505-.371-.537-.279-.549-.175-.538-.067-.508.046-.459.1-.248.057-.143.262-.308.003-.002.354-.212M975.066 791.954l.372.538.278.549.176.54.04.307.001.009.024.192M975.133 795.458l2.932-1.53M971.617 789.998l.245-.002.546.103.571.207.572.301.552.386M978.67 783.644l-.096.517.023.56.141.582.253.582.356.558.446.514.518.449.57.368.6.273.608.167.592.054.553-.06.494-.173 2.534-1.176" stroke="#EFC018" stroke-width="5" stroke-linejoin="round"/><path d="m978.668 783.643.016-.033.196-.422.319-.374.005-.003.195-.131.008-.006.206-.139.493-.173.554-.062.592.054.609.166.601.273.571.369.519.45.446.514.356.559.254.583.14.582.022.561-.097.517-.099.212-.004.008-.11.234-.316.37-.004.004-.397.267-.017.011M992.022 773.231l.625.248.586.354.525.446.443.522.345.577.233.609.112.62-.013.605-.137.567-.257.508-.361.424-.004.005-.031.022-.012.009-.418.303-.455.19-.083.035-.595.109-.629-.012-.639-.133-.624-.248-.585-.353-.524-.446-.443-.521-.344-.576-.234-.609-.112-.619.012-.604.015-.064.121-.504.151-.3.008-.015.097-.193.365-.43.005-.003.456-.331.538-.226.595-.11.629.012M993.121 779.276l1.886-.673M999.34 766.355l.219.632.336.589.445.528.52.441.6.343.64.229.66.105.66-.021 1.15-.127" stroke="#EFC018" stroke-width="5" stroke-linejoin="round"/><path d="m999.338 766.355-.079-.554-.013-.093.037-.639.165-.606.287-.55.395-.473.5-.377.57-.268.62-.147.66-.021.66.106.64.228.6.342.52.444.45.526.33.591.22.631.09.648-.03.639-.17.606-.29.55-.4.473-.49.377-.57.267-.18.041-.44.105M1013 757.789l-.6-.334-.53-.441-.44-.53-.33-.599-.21-.646-.09-.666.05-.662.19-.633.3-.578.42-.502.51-.407.58-.295.65-.172.67-.044.67.088.65.215.6.335.53.441.44.53.33.6.21.645.09.667-.05.662-.19.633-.3.578-.42.502-.51.406-.59.295-.64.172-.67.043-.67-.087-.65-.216ZM1024.88 746.065l-.6-.331-.53-.439-.44-.532-.33-.604-.21-.651-.08-.677.05-.672.18-.646.31-.591.42-.516.51-.421.59-.308.64-.185.68-.054.67.078.65.209.61.332.53.438.44.532.33.604.21.653.08.675-.05.674-.19.644-.3.593-.42.515-.52.42-.59.31-.64.184-.67.055-.68-.08-.65-.209ZM1036.69 734.107l-.6-.33-.53-.44-.44-.531-.33-.603-.22-.652-.09-.674.05-.672.17-.643.29-.59.41-.515.5-.418.58-.307.63-.183.66-.053.66.08.65.209.6.331.53.439.44.532.33.602.22.651.09.674-.05.672-.17.643-.29.59-.41.515-.5.419-.57.307-.63.183-.67.053-.66-.079-.65-.21ZM1062.46 709.64l-.23.541-.25.359-.08.106-.43.37-.51.26-.57.141-.6.016-.62-.109-.61-.231-.58-.343-.52-.442-.44-.525-.36-.586-.24-.627-.14-.641-.01-.632.11-.598.23-.542.34-.464.43-.369.28-.147.22-.113.57-.14.61-.015.62.11.6.23.58.343.52.442.45.524.35.586.25.625.13.641.01.631-.11.599Zm0 0-.63 1.852M1071.24 700.142l-.28.419-.37.325-.18.086-.28.131-.51.101-.57-.018-.58-.137-.58-.251-.56-.354-.51-.446-.45-.518-.37-.572-.27-.603-.17-.611-.05-.595.06-.557.18-.497.18-.273.1-.146.38-.323.45-.216.52-.101.56.019.58.138.58.251.56.354.52.444.44.518.37.571.27.602.17.61.05.595-.06.557-.18.497Zm0 0-1.13 2.505M1078.73 691.428l-.22.361-.31.268-.39.162-.46.052-.11-.012-.4-.049-.54-.172-.55-.275-.54-.37-.51-.448-.45-.511-.38-.553-.3-.574-.21-.573-.1-.549.01-.345v-.161l.11-.441.22-.361.31-.267.39-.161.46-.051.51.062.54.172.55.276.54.369.5.448.46.509.38.552.3.573.2.572.11.549-.01.506-.11.442Zm0 0-1.49 2.906M1084.3 684.597l-.23.201-.33.099-.39-.005-.45-.111-.5-.213-.51-.305-.51-.386-.1-.089-.4-.364-.46-.502-.22-.29-.18-.241-.33-.54-.25-.529-.16-.496-.05-.446.04-.376.03-.064.01-.004.11-.227.24-.2.32-.098.39.007.46.112.42.185.01.004.06.023.51.305.5.376v.002l.01.008.02.012v.002l.48.438.46.5.4.531.11.18.01.01.21.349.25.528.15.496.06.445-.04.377-.15.296Zm0 0-1.81 3.34M1079.66 679.509l-.59.263-.01.003-.7.315M723.917 335.677l-8.722-4.892-5.652-3.17-1.52-.845-8.878-4.602-8.878-4.602-8.879-4.602-4.296-2.227-8.911-4.539-8.91-4.539-8.91-4.54-4.348-2.215-9.16-4.013-9.159-4.013-9.159-4.014-5.066-2.22-9.575-2.884-9.575-2.885-9.575-2.884-9.575-2.885-9.575-2.885-9.575-2.884-9.575-2.885-2.667-.803 2.857 9.583 2.856 9.584 2.856 9.583 2.857 9.583 2.856 9.584 2.856 9.583 2.857 9.583.919 3.084 3.987 9.17 3.988 9.171 3.988 9.17 2.253 5.182 4.516 8.922 4.517 8.922 4.516 8.922 2.238 4.421 4.579 8.89 4.58 8.889 4.579 8.89 2.243 4.354 4.872 8.733 3.568 6.395M1078.53 664.107l.49 1.167-2.05 3.681-4.54 6.098-6.39 7.691-.23.269v.004l-.29.35-.39.444-.01.006-2.37 2.69-.01.008-3.05 3.448v.007l-.99 1.122-.01.008-1.56 1.764-.64.73-1.71 1.853v.008l-3.3 3.585-.01.009-.66.719-.01.008-2.92 3.17-1.98 2.152-.01.009-.21.228-3.71 3.912-.21.219-5.53 5.822-2.69 2.825-1.68 1.723-5.86 5.989-4.58 4.687-.86.882-5.12 5.107-4.65 4.634-3.5 3.481-2.48 2.41-4.55 4.412-5.8 5.629-.155.15-.026.025-4.228 3.979-5.339 5.025-.686.647-1.885 1.773-1.739 1.578-4.443 4.03-1.101.999-3.407 3.089-.145.133-2.736 2.356-.872.752-5.466 4.709-6.967 5.518-4.615 3.036-2.127.479" stroke="#EFC018" stroke-width="5" stroke-linejoin="round"/><path d="m947.703 794.676-.367 1.866 2.157-.481 4.693-3.083 7.09-5.613 6.225-5.363 1.098-.946 1.915-1.65 1.099-.996 3.283-2.978 1.122-1.018 4.511-4.091 1.02-.925 2.542-2.393.686-.646 5.371-5.054 3.791-3.569.423-.41.172-.168 5.806-5.629 4.56-4.426 2.27-2.204 3.69-3.675 4.66-4.649 5.17-5.146.8-.827 4.6-4.702 5.84-5.974 1.98-2.028 2.4-2.529 5.54-5.824.21-.22 3.91-4.121.01-.009.3-.313 1.68-1.831 2.95-3.205.01-.008.66-.719.01-.009 3.25-3.526v-.008l2.36-2.557.08-.096 1.56-1.758v-.008l1.01-1.144.01-.007 2.92-3.311.01-.008 2.51-2.841v-.006l.9-1.02.01-.005.27-.305 6.39-7.692.64-.771 4.62-6.204 2.07-3.74-.5-1.18-1.56.712M628.652 456.115l1.308 1.943.564.839M740.9 345.659l-1.546-.856-3.676 1.306-5.697 3.452-7.522 5.493-.294.238-.004.003-1.228.994-.005.005-.094.076-2.672 2.163-.006.005-2.277 1.844-.007.006-1.076.871-.007.005-1.397 1.131-.603.524-2.121 1.843-.007.006-2.886 2.506-.008.007-.511.444-.008.007-2.446 2.124-1.668 1.449-.286.263-.007.006-4.221 3.872-3.841 3.524-2.678 2.457-2.777 2.671-2.869 2.759-5.708 5.49-.715.719-2.199 2.211-6.34 6.376-1.945 1.956-.738.777-5.255 5.533-3.525 3.71-1.058 1.114-2.916 3.231-3.911 4.334-.413.457-2.274 2.52-.386.455-3.553 4.192-.879 1.037-1.9 2.242-1.348 1.59-1.049 1.351-.962 1.238-4.29 5.523-4.303 6.395-2.163 4.449.028 2.358M1070.28 654.038l-.27-.333-6.34-7.737-6.33-7.737-6.34-7.738-6.33-7.737-3.44-4.196-6.5-7.599-6.5-7.599-6.5-7.6-6.5-7.599-6.5-7.599-5.3-6.192-6.675-7.443-6.678-7.443-6.678-7.443-6.679-7.443-6.678-7.443-5.372-5.988-6.853-7.283-6.853-7.282-6.853-7.283-6.852-7.283-6.853-7.283-5.467-5.811-7.47-6.648-7.469-6.649-7.47-6.649-7.47-6.649-7.469-6.648-6.021-5.36-7.695-6.386-7.694-6.387-4.536-3.765-7.694-6.387-7.695-6.387-7.694-6.387-1.8-1.493-8.062-5.917-8.062-5.916-8.062-5.917-8.062-5.916-8.062-5.916-7.016-5.149-8.289-5.595-5.728-3.866-8.289-5.594-8.288-5.595-7.661-5.17-.001-.001-.299-.202-.01-.006-.535-.362" stroke="#EFC018" stroke-width="5" stroke-linejoin="round"/><path d="m742.478 346.725.12-.217.646-3.081-2.243-1.732-1.602-.911-3.812 1.331-.094.057-5.815 3.501-1.096.797-.474.345-.002.001-1.007.733-.004.003-.679.494-.004.003-1.843 1.341-.005.004-.073.053-.005.004-2.614 1.902-.134.108-.004.004-1.061.856-.006.005-1.456 1.177-.006.005-1.008.813-.005.005-2.437 1.968-.006.005-3.287 2.655-.326.283-.008.007-.177.154-.008.006-2.541 2.204-.005.004-7.583 6.576-7.372 6.757-4.081 3.741-7.209 6.93-4.577 4.4-7.05 7.091-4.572 4.599-6.885 7.252-4.087 4.305-6.697 7.427-3.169 3.515-.339.402-2.025 2.393-.111.131-3.195 3.777-2.033 2.402-.654.773-.179.231-1.123 1.451-.918 1.184-2.066 2.667-.154.199-1.4 1.807-.463.599-.004.004-.213.276-.659.983-.001.003-.438.653-3.346 4.996-1.157 2.404-1.063 2.211.053 2.445 1.735 2.249 2.286.207 1.31-.594" stroke="#EFC018" stroke-width="5" stroke-linejoin="round"/><path d="m743.245 343.427-1.596-.904-3.393 1.198-.004.001-.419.148-5.924 3.584-7.829 5.714-1.918 1.553-.005.004-1.353 1.095-.005.004-.541.438-2.544 2.059-.006.005-2.101 1.701-.007.005-.964.78-.106.092-.006.006-1.983 1.722-2.122 1.843-.007.005-3.05 2.649-.008.007-.448.389-.007.006-2.171 1.886-.781.677-1.231 1.13-.007.006-4.54 4.165-3.397 3.116-2.326 2.133-3.752 3.609-2.067 1.988-6.018 5.788-1.504 1.512-.83.834-7.051 7.091-.4.403-1.815 1.826-.076.076-5.845 6.154-3.107 3.27-2.073 2.183-2.219 2.459-3.736 4.14-.343.38-2.829 3.135-.788.874-2.802 3.306-.874 1.031-1.789 2.112-2.689 3.173-.248.292-.83 1.069-5.728 7.378-4.473 6.653-2.24 4.623.043 2.442M1078.53 664.107l-.39-.472-1.66-2.024M685.934 538.284l5.908 8.069 4.377 5.978 6.383 7.698 6.382 7.699 6.383 7.698 1.59 1.918 6.383 7.699 6.382 7.698 3.845 4.638 6.646 7.472 6.646 7.472 6.647 7.472 6.646 7.472 6.646 7.472 5.571 6.264 7.285 6.852 7.284 6.851 7.284 6.851 7.284 6.852 7.284 6.851 6.062 5.702 7.445 6.676 7.445 6.677 7.446 6.676 7.445 6.676 7.445 6.676 6.234 5.59 7.602 6.497 7.602 6.497 7.602 6.497 7.602 6.497 7.602 6.497 6.425 5.491 7.741 6.33 7.741 6.331 7.741 6.331 7.741 6.331 4.097 3.35.29.237v.001l.905.74M634.484 464.783l.902 1.34.001.001.397.591.002.003 5.583 8.296 5.583 8.297 4.994 7.421 5.583 8.297 3.882 5.769 5.908 8.068 5.908 8.068.216.296M1118.21 871.064l5.65-5.022 7.28-6.86.09-.088 7.1-7.048.33-.329 6.91-7.228.27-.278 6.64-7.33 5.83-6.858 2.88-3.665 1.92-2.448 3.58-5.129 2.23-3.954.81-2.634-.62-1.228M947.336 796.542l6.777 4.076 1.077.648M1169.11 810.965l-1.02-1.687-4.09-6.777M1134.81 908.504l5.64 3.277 1.44.129 2.46-.959 3.38-2.019 4.18-3.007.8-.637 4.02-3.244 5.27-4.605 5.51-5.147.85-.844 4.67-4.64 2.47-2.593 2.85-3.008 4.91-5.493 4.29-5.166 1.61-2.112 1.91-2.523 2.6-3.925 1.6-3.064.53-2.092-.54-1.047-5.04-8.637-.96-1.639-1.27-2.182" stroke="#EFC018" stroke-width="5" stroke-linejoin="round"/><path d="m1118.27 871.735 4.98-4.428 7.28-6.859.62-.584.33-.334.42-.412 5.27-5.234 1.34-1.331.59-.593 6.91-7.228.78-.815 6.72-7.412.39-.44 6.25-7.343 1.62-2.067 3.51-4.476 3.83-5.487 2.38-4.223.86-2.81-.68-1.303-.97.104-1.2.13-1.41.688M1131.05 902.262l.78-.473 4.95-3.607 5.73-4.65 6.27-5.512 6.56-6.156 6.6-6.552 6.37-6.683 5.87-6.543 5.14-6.142 4.22-5.497 3.13-4.638.82-1.538.5-.944.6-1.12.66-2.437-.63-1.188-4.25-7.586-1.99-3.546M1152.7 905.289l8.22 5.695 4.29 2.97.9.081 1.49-.564 2.03-1.189 2.5-1.77 2.86-2.285 3.12-2.71 3.25-3.031 3.25-3.231 3.14-3.305 2.89-3.249 2.52-3.064 2.07-2.76 1.54-2.349.94-1.849.31-1.279-.33-.663-5.7-8.215-2.84-4.085M966.988 808.362l-.581 9.983-.581 9.983-.58 9.983-.584 10.024-.581 9.983-.58 9.983-.581 9.983-.581 9.984-.581 9.983-.581 9.983-.581 9.983-.334 5.746 7.543 6.565 7.543 6.566 7.543 6.565 7.543 6.565 7.542 6.566 7.544 6.565 7.54 6.566 7.54 6.565 3.78 3.29 7.86 6.189 6.99 5.508 7.85 6.189 7 5.518 7.86 6.19 7.01 5.52 7.85 6.19 7.02 5.53 7.45-6.67.66-.6 1.76-3.94-3.82-9.24-3.82-9.24-2.23-5.388-3.37-9.415-3.37-9.415-2.15-6.013-3.66-9.31-3.65-9.309-2.24-5.721-.9-9.96-.89-9.96-.9-9.96-.05-.562" stroke="#EFC018" stroke-width="5" stroke-linejoin="round"/><path d="m1060.74 915.278 1.9-3.371 4.91-8.711 4.91-8.711.28-.495M1091.93 1019.34l-3.82-9.24-3.83-9.24-2.26-5.469-3.37-9.415-3.37-9.415-2.18-6.097-3.66-9.309-3.65-9.309-2.28-5.805-.9-9.959-.89-9.96-.9-9.96-.08-.884M1138.89 682.389l-10 .422-9.99.421-9.99.422-9.99.422-6.28.265-.57.024-1.82 2.835 5.33 8.463 5.33 8.464 5.32 8.463 5.33 8.464 5.33 8.463 5.32 8.463 5.33 8.464 5.33 8.463 1.17 1.875 5.33 8.463 5.33 8.463 5.32 8.464 5.33 8.463 3.15 5.006 4.59 7.29.91-.43.71-.338 8.65-4.1 9.04-4.283 9.03-4.284 9.04-4.283 4.06-1.927 9.94 1.119 9.94 1.118 9.93 1.119 3.49.392 9.29 3.688 9.3 3.688 7.57 3.007 9.4 3.42 9.4 3.421 8.12 2.958 9.23 3.85 9.23 3.85 7.45 3.107 7.45-6.669 1.33-1.191.96-3.319-6.14-7.895-5.77-7.43-6.14-7.895-5.78-7.438-6.14-7.895-5.79-7.447-6.14-7.895-5.79-7.457-6.54-7.565-6.54-7.566-6.54-7.566-6.54-7.566-6.54-7.566-6.53-7.566-6.54-7.566-6.54-7.566-5.23-6.055-10 .422-9.99.422-9.99.421-9.99.422-9.99.421-9.99.422-9.99.422-9.99.421-2.51.106Z" stroke="#EFC018" stroke-width="5" stroke-linejoin="round"/><path d="m1219.97 681.759-9.99.419-9.99.419-9.99.419-9.99.419-9.99.419-10 .419-9.99.42-9.99.419-2.8.117-9.99.419-10 .419-9.99.42-9.99.419-3.01.126-4.01.168M1325.6 810.163l-6.13-7.894-5.82-7.486-6.14-7.895-5.83-7.494-6.14-7.895-5.83-7.504-6.14-7.895-5.84-7.513-6.54-7.565-6.54-7.566-6.54-7.566-6.53-7.566-6.54-7.566-6.54-7.565-6.54-7.566-6.54-7.566-5.45-6.302 1.36-2.849M1071.28 652.987l-1.27.718M1073.36 652.306v-.001l-1.47.827v.002l-.6.337v.001l-1.01.566M1078.22 658.543l.01-.002-.01-.143-.1-.231-.19-.31-.1-.142-.17-.233-.34-.428-.4-.463-.44-.481-.47-.48-.47-.461-.47-.425-.43-.371-.39-.305-.34-.225-.25-.138-.18-.045-.45.244v.002l-1.08.588v.002l-.89.487-.59.318" stroke="#EFC018" stroke-width="5" stroke-linejoin="round"/><path d="M1078.23 658.541v.001l-.09.05-.17-.043-.26-.137-.2-.133-.13-.092-.39-.305-.44-.372-.47-.425-.32-.316-.01-.011-.14-.136-.47-.481-.44-.482-.4-.464-.34-.428-.12-.165-.01-.013-.14-.198-.19-.308-.1-.23-.01-.142.04-.02.05-.031M1074.1 665.741l1.89-3.34v-.003l.07-.113v-.002l.12-.224.08-.225-.02-.309-.11-.344-.01-.038-.09-.198v-.001l-.12-.241-.29-.482-.36-.503-.15-.18v-.001l-.27-.327-.46-.491-.49-.456-.46-.376-.03-.028-.48-.336-.38-.218v-.001l-.06-.036-.4-.165-.13-.026-.2-.042-.14.018-.12.014-.46.24-.01.001-.29.151-.01.002-.19.102v.001l-1.18.607-.01.001-.9.464" stroke="#EFC018" stroke-width="5" stroke-linejoin="round"/><path d="M1076.18 662.059v.001l-.13.103v.001l-.03.026-.26.033-.33-.067-.29-.12-.01-.004-.1-.04-.45-.255-.47-.334v-.003l-.01-.003-.49-.401-.48-.457-.47-.492-.42-.509-.12-.176-.01-.012-.19-.269-.03-.03-.01-.018-.29-.481-.03-.066-.02-.034-.16-.341-.11-.381-.02-.2v-.109l.07-.221v-.003l.16-.122.01-.008" stroke="#EFC018" stroke-width="5" stroke-linejoin="round"/><path d="m1075.1 659.541.01.002.14.178.37.504.29.482.1.207V660.927l.01.022v.001l.1.197v.026l.11.356.02.309-.07.222v.003l-.13.102-.04.029-.25.033-.34-.067-.26-.111-.01-.004-.12-.049-.45-.255-.47-.333v-.002h-.01v-.002l-.49-.404-.49-.457-.46-.492-.42-.509-.14-.202-.01-.012-.16-.219-.02-.03-.03-.042-.29-.481-.05-.094-.01-.034-.15-.313-.12-.382-.01-.206v-.004l-.01-.098.08-.224v-.001l.17-.129M1071.61 657.056l.14-.017.21.044.12.024.4.165.07.045.01.001.36.209.48.336.05.043M1071.93 665.315l.6.344.54.221M1073.66 653.707l.26.138.33.226.39.304.43.372.47.424.47.461.47.48.44.481.4.463.34.428.17.232v.001l.1.143.19.309.1.231.01.142v.002l-.09.051-.17-.044-.26-.137-.2-.133-.13-.092-.39-.305-.44-.372-.47-.425-.31-.308-.02-.012-.14-.142-.47-.482-.44-.482-.4-.464-.34-.428-.13-.174-.01-.013-.13-.188-.19-.309-.1-.23-.01-.143.01-.001.08-.049" stroke="#EFC018" stroke-width="5" stroke-linejoin="round"/><path d="m1076.06 662.359.42-.748 1.74-3.067M1078.17 657.107v-.031l-.1-.122-.18-.209-.27-.287-.34-.355-.39-.408-.44-.446-.46-.468-.48-.47-.46-.455-.44-.423-.39-.373-.33-.31-.26-.234-.17-.15-.09-.061M1073.37 652.305l-.01.001-1.47.826v.002l-.6.337v.002l-1.01.565M1071.28 652.985v.002l-1.27.718" stroke="#EFC018" stroke-width="5" stroke-linejoin="round"/><path d="m1071.89 653.132-.19-.097-.26-.071-.16.021M972.312 761.388l.165-.322.008-.016.097-.188.376-.442.004-.005.476-.352.554-.243.608-.124.642-.002.649.121.471.179.117.045.044.016.592.35.526.445.442.524.341.582.227.619.104.631-.026.619-.15.583-.271.526-.381.446-.005.004M980.246 764.458l.515-.604.366-.709.204-.788.033-.837-.139-.853-.306-.836-.46-.787M976.289 766.098l-.642.001-.648-.122-.632-.24-.59-.349M977.851 765.438l-.399.294-.554.242M972.467 763.838l-.226-.618-.104-.63.024-.619M972.81 764.421l-.143-.244-.069-.117M962.087 770.758l.224-.47.328-.385.004-.005.215-.148.009-.006.202-.14.506-.189.565-.074.602.041.618.157.607.266.576.364.335.29.101.087.084.072.446.517.353.564.248.59.133.594.012.573-.108.531-.116.241-.003.008-.106.221-.332.389-.005.003-.423.291-.505.187-.565.074-.602-.043-.617-.157-.607-.265-.574-.365-.154-.133-.12-.103-.245-.212-.445-.516-.354-.563-.247-.589-.134-.593-.013-.573.107-.531Zm0 0 .009-.028M970.364 773.503l.005-.004.45-.525.304-.635.147-.719-.017-.775-.179-.802-.334-.797-.478-.763M967.164 775.14l.009-.004M953.289 778.505l.069-.17.096-.234.268-.318.003-.003.366-.227.447-.124.262-.008h.009l.239-.008.554.094.577.198.577.296.556.382.512.454.449.508.37.543.021.043.079.161.174.352.17.548.037.332.001.008.02.179-.055.47-.167.403-.272.321-.004.002-.363.224-.447.123-.51.014-.554-.094-.333-.115-.2-.069-.043-.014-.576-.296-.554-.382-.512-.453-.448-.507-.369-.541-.275-.555-.086-.278-.084-.27-.059-.519.055-.47Zm0 0 .069-.172.094-.231M961.817 781.014l.005-.003.368-.434.227-.545.075-.636-.078-.702-.229-.742-.371-.752-.274-.403-.096-.141-.128-.189M958.285 782.931l.02-.011M946.484 783.826l.002-.003.295-.151.378-.052.447.051.498.15.201.093.008.004.321.148.542.33.533.402.503.459.454.498.387.518.306.518.212.498.112.458.005.402-.1.329-.203.245-.003.002-.293.148-.379.051-.447-.052-.497-.151-.53-.245-.007-.005-.01-.006-.524-.319M946.306 785.259l-.112-.458-.006-.402.098-.33M951.387 788.724l.375-.21.501-.282 2.573-1.446.025-.014.004-.002M954.863 786.769l.274-.332.137-.446-.007-.543-.149-.621-.073-.172-.1-.234-.114-.267-.413-.701M946.821 786.273l-.207-.35-.005-.009-.093-.158-.149-.346M941.003 788.027l.094-.124.001-.001.014-.018.001-.002.013-.017.002-.002.218-.071.303.025.377.121.437.212.479.295.032.023.029.021.442.321.508.424.241.227.016.015.235.222.459.487.284.343.001.002.122.147.34.477.26.444.169.394.072.328-.006.06-.001.001-.02.19-.096.124-.03.039-.002.001-.081.026-.002.001-.134.042-.304-.027-.152-.048-.226-.073-.315-.154-.121-.059-.478-.294-.502-.366-.32-.267-.002-.001-.185-.154-.491-.463-.458-.486-.406-.491-.101-.141-.239-.335-.26-.443-.169-.394-.069-.308-.005-.021.026-.252Zm0 0 .004-.007" stroke="#EFC018" stroke-width="5" stroke-linejoin="round"/><path d="m945.996 792.734 3.693-2.118.002-.002.003-.002M949.694 790.612l.171-.221.038-.34-.097-.445-.228-.533-.344-.591M937.786 789.805l.137.012.224.104.304.194.372.274.425.346.462.403.481.444.482.47.464.476.428.465.376.435.309.388.055.079.001.001.174.247.143.254.05.17-.045.079h-.001l-.137-.013-.226-.105-.305-.194-.186-.138-.001-.001-.184-.136-.425-.346-.461-.402-.48-.444-.481-.468-.462-.475-.428-.464-.375-.434-.309-.388-.231-.328-.143-.254-.051-.17.043-.08.001-.001Zm0 0 .399-.736.002-.002.611-1.127.002-.003.204-.376.466-.858.126-.231M942.629 794.647l2.962-1.7.319-.183" stroke="#EFC018" stroke-width="5" stroke-linejoin="round"/><path d="m938.098 786.82-.293.525-.001.003-.334.597-.002.003-.936 1.677-.001.001.054.095.145.183.23.266.306.337.37.395.42.44.454.466.471.475.469.465.45.437.412.393.359.334.292.261.215.179.128.089.037-.003.428-.241M937.808 786.582l-.445.791-.027.174.066.259.066.142M1038.61 704.237l-.05.211-.11.432-.29.591-.39.514-.49.419-.57.307-.62.184-.66.053-.66-.079-.64-.209-.59-.331-.53-.439-.44-.532-.34-.603-.22-.651-.08-.527-.01-.13-.01-.017.04-.672.16-.643.29-.59.4-.514.49-.418.57-.307.62-.183.65-.053.32.038.01.002.14.017.19.023.64.209.6.33.53.439.44.531.33.603.22.65.1.674-.04.671Zm0 0-.09 1.158" stroke="#EFC018" stroke-width="5" stroke-linejoin="round"/><path d="m1032.46 708.669.87.282.89.107.89-.071.84-.25.76-.414.67-.567.53-.695.39-.798.22-.867M1035.79 700.13l-.17-.043-.12-.034-.8-.206M942.624 794.646l-.138-.012-.226-.106-.305-.194-.186-.137-.001-.001-.184-.137-.425-.345-.461-.402-.48-.444-.481-.468-.462-.475-.428-.464-.375-.434-.309-.388-.231-.328-.143-.254-.051-.171.044-.081.001.001M942.621 794.398l.049.169M942.625 794.647l.001-.001M938.449 790.116l.372.274M945.997 792.735l-.002.002-.085.027-.001.001-.133.042-.304-.027-.14-.045-.237-.077-.317-.154-.12-.058-.478-.294-.502-.366-.321-.267-.001-.001-.184-.154-.492-.463-.458-.487-.406-.49-.111-.155-.229-.321-.259-.444-.17-.394-.071-.316-.003-.013.026-.251.008-.01.089-.118.001-.001.014-.018.001-.002.012-.016h.002M945.906 791.6l.169.394.072.329-.006.055v.002l-.021.194M941.34 787.795l.303.025.378.121.436.212M949.691 790.615l.001-.001M945.992 792.737l3.698-2.122M947.962 780.483l-.595 1.269-.212.452-.003.006-.873 1.863-.099.33.007.402.111.459.055.127.004.009.154.361.088.148.005.008.213.361.387.516.023.026.002.002.428.469.501.458.532.402.537.327.004.002.004.002.525.244.498.151.447.051.379-.05.296-.151.378-.212.502-.282 2.597-1.46" stroke="#EFC018" stroke-width="5" stroke-linejoin="round"/><path d="m946.277 784.073.008-.01.193-.235.004-.002.292-.15.378-.051.447.05.498.151.211.097.008.004.311.144.542.329.532.403.503.459.454.498.388.517.305.518.213.498.111.459.005.401-.1.33-.2.242-.002.002M954.855 786.773l.002-.002M958.919 782.391l-.269.317-.003.004-.34.209-.027.017-.447.123-.51.014-.554-.094-.331-.114-.201-.069-.044-.015-.576-.296-.554-.382-.512-.453-.448-.507-.369-.541-.275-.555-.082-.266-.088-.282-.059-.519.055-.47.075-.183.09-.221.005-.005.266-.316.004-.003.362-.224M958.27 779.352l.369.543.022.045.08.16M961.316 781.323l.496-.306.003-.003M954.567 775.343l-1.208 2.983-.074.185M958.277 782.937l3.038-1.614M956.75 778.007l.556.383M967.915 774.464l-.329.385-.004.004-.41.283-.017.011-.506.188-.565.073-.602-.042-.616-.157-.607-.266-.574-.364-.154-.132-.12-.104-.246-.213-.445-.515-.353-.564-.248-.589-.133-.592-.013-.573.107-.532.017-.035.207-.434.331-.39.005-.003M967.5 771.144l.354.564.247.59.133.593M969.781 773.904l.578-.397.004-.004M962.923 767.985l-.845 2.78M967.156 775.147l2.627-1.243M964.734 769.391l.617.157.608.265.575.365M972.448 759.862l-.296 2.118-.023.618.103.631.226.618.13.222.069.117.142.243.442.523.526.445.59.349.632.24.649.122.641-.001.609-.124 1.958-.714" stroke="#EFC018" stroke-width="5" stroke-linejoin="round"/><path d="m972.152 761.98.018-.071.132-.512.174-.338.008-.016.088-.172.38-.447.006-.004.47-.348.553-.243.609-.125.642-.001.649.121.472.179.118.045.043.016.591.35.527.445.442.524.341.582.226.619.103.631-.024.619-.151.583-.271.525-.376.442-.005.005-.052.039-.012.009-.412.303-.48.21-.073.033M983.234 751.507l.187.875.028.13.027.125.211.64.332.596.44.529.531.442.601.337.65.221.672.094.669-.035 1.197-.14" stroke="#EFC018" stroke-width="5" stroke-linejoin="round"/><path d="m983.477 752.637-.017-.136-.017-.14-.045-.356-.003-.028.05-.654.18-.623.304-.569.415-.492.511-.396.587-.285.64-.164.67-.035.112.015.129.018.431.061.65.22.602.337.532.442.44.53.332.596.211.641.081.661-.05.654-.181.623-.304.569-.415.491-.511.396-.588.285-.26.066-.38.097M992.347 751.908l.069-.885-.111-.892M996.691 743.493l.821.445.891.279.925.102.922-.078.89-.256.82-.423.72-.575" stroke="#EFC018" stroke-width="5" stroke-linejoin="round"/><path d="m997.594 743.594-.608-.33-.534-.439-.439-.533-.327-.606-.202-.655-.07-.68.04-.421.016-.16.009-.097.197-.65.322-.597.435-.522.53-.426.606-.314.628-.18.03-.009.131-.011.554-.047.686.075.662.207.61.329.53.44.44.533.33.606.2.656.07.679-.07.679-.19.65-.33.597-.43.522-.53.425-.61.314-.657.189-.684.058-.686-.076-.659-.206ZM1008.49 731.855l.82.439.89.271.93.09.93-.093.9-.272.82-.442.17-.139.55-.455.59-.724.44-.825" stroke="#EFC018" stroke-width="5" stroke-linejoin="round"/><path d="m1009.96 731.368-.61-.325-.53-.439-.44-.534-.33-.61-.2-.663-.06-.688.06-.689.06-.203.06-.203.08-.257.33-.611.44-.535.53-.44.61-.327.28-.085.2-.063.18-.054.69-.069.68.067.67.2.61.326.53.438.44.535.32.61.21.662.06.689-.06.689-.2.662-.33.611-.44.536-.53.44-.61.327-.66.201-.69.069-.69-.067-.66-.2ZM1020.28 719.964l.82.441.88.271.92.092.91-.091.88-.27.28-.152.52-.287.71-.591.53-.673.04-.047.42-.822.26-.892.08-.927" stroke="#EFC018" stroke-width="5" stroke-linejoin="round"/><path d="m1022.28 718.917-.61-.326-.53-.439-.44-.534-.33-.609-.2-.66-.08-.688.05-.622.01-.065.03-.117.16-.542.31-.609.42-.533.52-.436.6-.326.65-.199.07-.006.16-.016.45-.044.68.068.65.2.6.326.54.438.44.534.33.609.2.661.08.687-.06.686-.19.661-.31.607-.42.533-.52.438-.6.325-.65.201-.68.066-.68-.068-.65-.201ZM1049.14 693.453l-.24.557-.26.349-.09.131-.45.385-.53.275-.58.154-.62.028-.63-.1-.62-.224-.58-.34-.52-.441-.45-.527-.35-.592-.05-.151-.05-.113-.14-.369-.12-.652.01-.644.12-.612.25-.557.35-.479.45-.384.27-.141.25-.133.59-.154.61-.027.64.101.61.224.17.095.11.067.3.177.53.441.44.526.35.591.24.633.12.651v.643l-.13.612Zm0 0-.67 1.922M1043.88 697.78l.85.135.84-.038.78-.209.71-.372.61-.52.47-.649.33-.752M1045.15 688.719l-2.08.26M1058.34 683.618l-.3.431-.39.337-.17.084-.3.145-.53.113-.58-.009-.59-.129-.59-.245-.56-.352-.52-.444-.16-.186-.08-.095-.21-.239-.36-.576-.27-.61-.15-.619-.04-.606.08-.568.19-.51.18-.262.11-.169.39-.336.47-.228.54-.111.57.009.6.13.58.245.57.351.51.444.16.183.1.113.19.223.36.575.27.609.15.618.04.605-.07.569-.19.51Zm0 0-1.2 2.595M1053.97 678.544l-2.74.814M1054.08 687.704l.77.011.73-.153.63-.31.53-.456.4-.584M1066.19 674.619l-.23.372-.32.277-.41.172-.47.06-.1-.01-.42-.044-.55-.166-.51-.249-.05-.022-.09-.065-.45-.302-.51-.448-.45-.512-.38-.557-.3-.579-.19-.579-.09-.557.01-.326.01-.188.12-.451.23-.371.33-.276.4-.171.48-.059.52.055.54.166.56.272.54.366.51.448.45.511.38.555.27.522.03.055.04.136.15.443.09.557-.02.514-.12.451Zm0 0-1.57 3.011M1061.77 669.627l-2.76 1.11M1063.32 678.741l.55-.233.44-.375.31-.503M1072.06 667.592l-.08.066-.17.142-.05.017-.28.089h-.4l-.46-.107-.5-.208-.52-.303-.52-.385-.12-.105-.38-.347-.46-.503-.17-.234-.23-.299-.32-.544-.24-.533-.15-.501-.05-.451.04-.263v-.006l.02-.115.15-.3.25-.207.34-.104.4.001.46.107.42.175.01.004.07.03.52.302.51.385.22.193v.003l.05.046v.002l.23.207.46.502.4.532.13.229.01.01.18.304.25.532.14.501.05.451-.05.384-.16.301Zm0 0-.01.016-.32.59-1.58 2.85M1067.42 662.495l-.76.359-.01.003-.48.224-.01.003-2.28 1.073M1178.8 820.311l-.32.188M1180.33 820.515v-.001l-.01-.005-.58.326-.55.308v.001l-.26.148M1183.38 824.541v-.001l-.02-.101-.06-.15-.12-.19-.16-.225-.2-.25-.04-.052v-.001l-.19-.213-.24-.272-.26-.267-.26-.252-.25-.227-.24-.195-.2-.153-.17-.106-.13-.056-.04-.001-.05-.002-.58.31-.6.311M1182.97 824.428l-.21-.153-.24-.194-.02-.019v-.001" stroke="#EFC018" stroke-width="5" stroke-linejoin="round"/><path d="m1180.8 822.128-.06-.149-.02-.101.03-.048v-.003M1183.38 824.54v.001l-.03.05-.08-.002M1181.51 823.06l-.05-.058v-.001l-.18-.208-.2-.25M1182.62 827.044v-.002l.03-.145-.03-.191-.08-.229-.12-.259-.01-.008v-.001l-.16-.269-.21-.288-.23-.285-.26-.272-.26-.249-.27-.215-.25-.175-.05-.025v-.001l-.05-.026-.14-.074-.11-.038v-.001l-.1-.035-.17-.018-.1.032-.01.001-.02.006-.48.233-.19.088v.001l-1.03.493" stroke="#EFC018" stroke-width="5" stroke-linejoin="round"/><path d="m1182.42 827.175-.18-.017-.03-.014-.17-.06-.24-.126-.25-.175-.27-.215-.27-.249-.25-.273-.24-.286-.2-.287-.17-.279-.02-.042v-.004l-.06-.118v-.002l-.05-.093-.07-.229M1179.92 824.515l.03-.145.07-.09.01-.003M1182.62 827.042v.001l-.08.093" stroke="#EFC018" stroke-width="5" stroke-linejoin="round"/><path d="M1182.62 827.045v.002l-.08.092-.13.039-.17-.018-.03-.012-.17-.061-.24-.126-.26-.175-.26-.216-.27-.249-.25-.272-.24-.286-.21-.288-.16-.278-.03-.051v-.003l-.06-.115v-.001l-.04-.089-.08-.229-.02-.191.03-.145.07-.094.03-.006v-.001l.1-.031.17.018.11.037v.001l.1.035.14.076.05.025v.001l.05.025.25.174.27.216.26.249.26.272.23.285.21.287.16.27.01.009.12.259.08.229.02.191-.02.143v.002Zm0 0-.24.405-.89 1.481-.05.092M1180.16 828.793l.17.117.32.171.28.099.23.023.17-.053.11-.127M1183.38 824.542l-.01.013-.02.038-.08-.003-.13-.055-.17-.106-.21-.154-.23-.194-.03-.019-.23-.208-.26-.253-.26-.267-.24-.272-.05-.059v-.001l-.18-.207-.2-.25-.16-.225-.11-.19-.07-.149-.02-.102.03-.05.05.002h.01l.02.001.13.055.18.107.2.153.24.194.25.228.26.252.26.267.24.272.18.212.01.001.04.053.2.25.16.225.11.19.07.149.02.102Zm0 0-.97 1.668" stroke="#EFC018" stroke-width="5" stroke-linejoin="round"/><path d="m1182.78 823.573.22-.398-.04-.045-.09-.095-.14-.141-.17-.181-.22-.215-.23-.24-.26-.256-.26-.262-.26-.258-.25-.245-.22-.221-.2-.189-.16-.15-.11-.105-.06-.056M1179.74 820.836l-.25-.191-.23-.154-.2-.109-.15-.061-.11-.01-.01.004-.31.185M1127.28 883.011l.16-.278.22-.236.27-.183.31-.125.34-.06.35.005.36.071.35.135.33.192.29.243.24.285.18.314.12.333.05.339-.03.33-.09.311-.15.278-.09.095-.01.004-.12.136-.27.184-.31.124-.34.06-.36-.005-.36-.072M1131.5 884.605v-.002l.3-.318.21-.376.12-.42.03-.447-.07-.457-.16-.45-.24-.426-.33-.384M1127.34 884.323l.18.314.24.284.29.243.32.193M1127.22 883.99l-.05-.338.02-.331.09-.288M1122.59 887.156l.33.03.35.092.33.149.32.202.29.246.24.28.19.305.13.317.06.317v.305l-.07.277-.01.003-.13.247-.2.202-.12.076M1125.83 889.315v-.001l.27-.274.18-.333.1-.38v-.412l-.08-.429-.18-.428-.25-.412-.33-.38M1159.29 853.836l.39.323.43.239.47.149.48.052.47-.047.45-.145.41-.235.36-.318.28-.39.2-.443" stroke="#EFC018" stroke-width="5" stroke-linejoin="round"/><path d="m1163.42 852.396-.09.21-.06.118-.21.288-.26.235-.3.174-.33.107-.35.035-.36-.038-.34-.111-.33-.177-.28-.238-.24-.29-.19-.33-.12-.358-.06-.372.02-.371.08-.357.15-.328.21-.287.26-.235.3-.175.33-.106.36-.035.35.039.04.013.3.097.33.177.28.238.24.29.19.33.12.357.06.372-.02.371-.08.357Zm0 0-.19.625M1162.3 849.904l-.58-.252M1123.92 887.633l.28.246.24.28.19.305M1124.76 888.781l.07.317-.01.305M1124.75 889.684l-.14.247-.19.202-.12.073M1125.49 889.52l.34-.204v-.002M1122.6 887.161l.32.029.34.092M1127.19 882.516l-.03 1.142.05.338.12.332.18.315.24.284.29.243.33.192.35.135.35.071.36.006.34-.061.31-.124 1.05-.532M1129.29 882.21l.35.134.32.193.29.243.24.284.18.315.12.333" stroke="#EFC018" stroke-width="5" stroke-linejoin="round"/><path d="m1130.82 884.381-.09.311-.16.278-.08.09M1127.92 882.318l.31-.124.34-.061M1127.16 883.657l.01-.12.01-.211.09-.299.01-.011.15-.279.22-.235M1131.13 884.857l.37-.249v-.003M1130.35 885.205l-.25.176-.01.007M1133.45 878.153l.23.609.17.323.24.287.29.24.33.185.36.123.37.055.37-.015.35-.084.64-.217M1136.8 879.659l.45-.202.38-.284.31-.354.24-.41.14-.452.04-.475-.05-.481-.15-.467-.25-.436-.32-.389" stroke="#EFC018" stroke-width="5" stroke-linejoin="round"/><path d="m1133.68 878.763-.12-.346v-.061l-.04-.294.04-.351.1-.334.17-.304.23-.262.29-.21.32-.15.36-.084.37-.015.37.055.35.122.33.185.29.241.24.288.18.322.11.346.04.356-.03.351-.11.334-.17.304-.23.262-.28.209-.04.017-.29.133M1140.36 873.118l.39.323.45.244.48.152.51.059.5-.041.49-.135.45-.227.39-.308.33-.38.24-.435.15-.476.05-.495-.05-.497-.15-.48-.24-.443" stroke="#EFC018" stroke-width="5" stroke-linejoin="round"/><path d="m1141.37 873.617-.33-.18-.29-.239-.24-.289-.17-.329-.11-.355-.04-.367.04-.367.11-.35.18-.323.24-.28.29-.229.33-.168.36-.101.37-.029.38.043.36.113.33.18.29.239.24.289.17.329.11.355.04.368-.04.366-.11.351-.18.322-.24.281-.29.228-.33.168-.36.101-.37.029-.38-.043-.36-.113ZM1146.82 866.839l.39.322.45.238.49.147.5.049.5-.051.49-.149.45-.241.39-.324.32-.394.24-.449.14-.488.05-.506-.05-.507-.15-.486" stroke="#EFC018" stroke-width="5" stroke-linejoin="round"/><path d="m1148.14 867.017-.33-.177-.29-.238-.24-.291-.18-.331-.11-.36-.04-.375.04-.375.11-.36.17-.333.24-.291.29-.24.33-.178.36-.11.37-.038.38.036.36.109.33.176.29.239.24.29.17.332.11.36.04.374-.04.375-.11.36-.17.333-.24.291-.29.24-.33.178-.36.11-.37.038-.37-.036-.36-.108ZM1153.2 860.342l.39.321.45.238.48.145.49.047.5-.054.47-.152.43-.243.38-.327.31-.397.22-.453.13-.49.04-.508-.06-.508-.15-.488-.25-.449" stroke="#EFC018" stroke-width="5" stroke-linejoin="round"/><path d="m1154.79 860.209-.33-.176-.29-.237-.23-.291-.18-.332-.12-.361-.04-.376.03-.377.09-.362.17-.335.23-.293.28-.242.32-.18.35-.112.36-.04.37.035.35.107.33.176.29.238.24.29.18.332.11.361.05.376-.03.376-.1.363-.17.334-.22.294-.28.242-.32.18-.35.113-.37.039-.36-.034-.36-.108ZM1165.27 847.853l.43.246.45.157.46.064.44-.032.42-.127.38-.217.31-.298.25-.369M1168.92 846.243l-.19.273-.11.108-.12.112-.28.161-.31.094-.33.023-.34-.047-.33-.117-.31-.181-.29-.24-.24-.287-.19-.326-.14-.35-.07-.362-.01-.36.06-.343.13-.314.18-.273.24-.22.28-.16.06-.02.25-.074.33-.024.33.048.34.117.31.181.28.239.25.288.19.325.13.35.07.362.01.36-.06.343-.12.314Zm0 0-.51 1.034M1167.18 843.316l-1.11.005M1170.2 841.949l.42.254.42.171.43.083.41-.009.39-.1.33-.188.27-.269.21-.338M1173.81 840.245l-.15.25-.2.199-.23.125-.02.014-.28.074-.31.006-.31-.061-.32-.127-.3-.187-.28-.241-.25-.285-.2-.319-.15-.339-.09-.347-.03-.342.03-.323.09-.292.15-.25.05-.043.16-.155.24-.139.28-.074.31-.006.32.061.31.127.31.188.28.241.24.284.2.318.15.339.09.347.03.342-.03.323-.09.292Zm0 0-.74 1.308M1171.69 837.389l-1.48.303M1177.69 835.139l-.16.169-.21.111-.25.049-.16-.01-.12-.006-.29-.08-.3-.14-.29-.196-.28-.243-.24-.281-.22-.309-.16-.325-.12-.328-.06-.319v-.296l.01-.047.05-.217.11-.22.17-.169.21-.11.24-.048.28.016.29.079.3.141.29.195.28.243.25.281.21.309.17.324.11.328.06.318v.297l-.06.264-.11.22Zm0 0-.91 1.532-.06.099M1175.38 832.172l-1.78.585M1174.71 836.896l.4.19.4.107.37.021.34-.065.28-.151.22-.227M1177.49 832.064l.38.277.37.211.36.137.33.058.28-.024.23-.104.17-.182M1180.71 830.611l-.13.134-.17.077-.21.018-.24-.043-.26-.102-.28-.156-.28-.205-.01-.005-.26-.241-.25-.277-.23-.299-.08-.143-.1-.164-.14-.305-.1-.29-.03-.265.01-.23.08-.185.12-.133.17-.077.21-.017.24.043.27.102.09.055.01.004.17.097.28.205.27.246.26.277.04.054v.007l.18.236.18.307.15.305.09.29.04.265-.02.23-.07.185Zm0 0-1.1 1.826M1178.32 827.72l-1.94.808M730.867 339.575l.369-.654.002-.014v-.001M726.155 335.538l-.226-.298-.16-.248-.088-.188-.013-.122.062-.05.137.023.204.095.264.164.314.226.295.235.001.001.056.044.376.323.386.353.382.37.362.373.328.362.283.336.225.297.161.248.088.189.014.122-.004.003-.058.048h-.002M729.407 338.423l-.203-.095-.264-.163-.314-.226-.352-.28-.377-.323-.212-.194-.002-.002-.173-.158-.382-.371-.362-.374-.328-.362-.126-.148M725.981 340.281l.285-.581.001-.002.082-.169.047-.186-.018-.127v-.003l-.016-.117-.113-.3-.04-.072v-.001l-.148-.268-.178-.258-.001-.001-.075-.11-.016-.019-.001-.001-.295-.362-.358-.381-.389-.366-.262-.216-.001-.001-.143-.119-.408-.293-.393-.24-.179-.087-.184-.089-.321-.108-.265-.033-.199.043-.002.001" stroke="#EFC018" stroke-width="5" stroke-linejoin="round"/><path d="m726.347 339.529-.005.004-.119.112h-.002l-.015.003h-.003l-.178.04-.265-.034-.32-.106-.364-.176-.268-.164-.007-.004-.118-.072-.215-.155h-.001l-.193-.138-.407-.336-.39-.368-.358-.382-.312-.383-.255-.369-.187-.341-.112-.299-.034-.248.047-.185.124-.114.001-.001" stroke="#EFC018" stroke-width="5" stroke-linejoin="round"/><path d="m726.22 339.644-.002.002-.011.002-.004.001-.183.04-.264-.033-.32-.106-.364-.177-.254-.154-.007-.004-.133-.081-.211-.152-.001-.001-.196-.141-.407-.337-.39-.366-.358-.382-.313-.383-.254-.369-.187-.341-.113-.3-.033-.247.047-.185.124-.115.001-.001h.002l.197-.042.265.033M722.387 335.814l-2.856 1.681M726.39 339.344l-.046.185M723.355 336.002l.18.087.393.24.407.293M724.742 336.958l.389.366.357.381M729.606 338.394l-.062.05v.001l-.1-.017h-.004l-.032-.006-.203-.094-.264-.164-.314-.226-.352-.28-.377-.323-.212-.194-.003-.002-.172-.158-.382-.371-.363-.373-.329-.362-.124-.148-.158-.189-.226-.298-.16-.248-.088-.188-.013-.122.059-.047.004-.003h.001l.135.023.204.095.264.164.314.227.296.235.001.001.055.043.376.323.386.353.382.371.361.372.329.362.282.336.226.298.16.248.089.188.014.123Zm0 0-.002.002M725.73 334.632l-1.812 1.045-.559.323M731.237 338.906l-.071-.087-.14-.156-.206-.22-.262-.275-.31-.32-.344-.353-.366-.371-.374-.375-.367-.365-.346-.342-.312-.304-.266-.255-.209-.196-.145-.13-.074-.059M727.445 335.098l-.5.277M639.134 411.818l.263-.38.003-.004.139-.126.007-.006.195-.177.404-.223.449-.128.479-.027.489.074.481.173.454.264.41.346.35.414.277.467.193.501.101.517.006.511-.09.487-.182.444-.267.384-.003.004-.338.305-.353.195-.013.007-.038.021-.449.126-.478.027-.489-.074-.481-.172-.454-.265-.409-.345-.35-.414-.277-.467-.192-.5-.102-.516-.006-.511.089-.488.182-.444Zm0 0 .003-.006M641.625 416.014l.496-.026M632.019 420.21l.217-.346.003-.004.293-.275.309-.164.005-.002.044-.023.407-.098.441-.001.458.095.458.188.439.274.405.348.354.41.289.456.214.484.131.493.042.484-.049.456-.136.411-.195.308-.004.007-.021.034-.003.003-.291.271-.358.19-.407.096-.441.001-.457-.096-.458-.188-.439-.273-.403-.348-.354-.409-.289-.455-.214-.484-.131-.493-.042-.483.047-.456.136-.411Zm0 0 .01-.018M635.062 424.305l.419-.098M626.385 427.279l.238-.231.304-.148.358-.058.263.021.006.001.128.01.422.123.43.207.422.285.398.352.358.404.305.442.239.461.164.465.084.448V430.477l-.084.368-.164.305-.003.002-.236.228-.304.147-.358.058-.397-.033-.422-.123-.43-.208-.421-.285-.397-.351-.358-.403-.304-.441-.239-.461-.165-.464-.084-.448-.001-.416.084-.368.162-.302.002-.003Zm0 0 1.394-2.369M629.715 431.528l.027-.01M622.023 433.462l.177-.179.245-.097.302-.013.349.072.382.155.4.231.403.299.391.355.362.398.321.424.267.436.202.429.131.408.053.368-.026.317-.104.252-.002.002-.176.176-.245.097-.303.012-.348-.072-.141-.058-.007-.002-.234-.095-.399-.231-.403-.299-.389-.355-.362-.397-.321-.424-.062-.102-.004-.007-.2-.326-.203-.429-.13-.406-.054-.369.025-.317.102-.25.001-.003Zm0 0 1.594-2.653M625.699 437.494l.003-.001M619.266 438.226l.001-.002.112-.119.181-.042.245.039.297.116.34.191.368.257.382.315.382.359.368.39.101.122.008.01.229.274.11.153.002.001.183.253.243.391.179.36.11.316.036.26-.039.193-.002.002-.111.118-.032.007-.002.001-.072.016-.077.017-.244-.039-.071-.027-.227-.09-.339-.19-.272-.191-.002-.001-.093-.066-.382-.314-.382-.358-.366-.39-.161-.193-.001-.002-.176-.21-.295-.406-.243-.39-.067-.136-.001-.001-.112-.224-.11-.316-.037-.26.039-.192v-.002Zm0 0 1.713-2.859M622.988 442.184l.003-.001M618.18 441.443l.004-.005.042-.053.118.017.185.093.245.164.295.229.229.195.001.001.105.09.362.331.374.364.372.382.355.386.326.375.283.35.23.31.168.26.099.199.026.131-.047.057-.118-.019-.185-.093-.245-.164-.296-.23-.334-.285-.361-.331-.373-.362-.372-.382-.355-.385-.325-.375-.019-.023-.001-.001-.263-.325-.23-.311-.168-.26-.1-.199-.027-.13v-.001Zm0 0 .936-1.596.366-.624M621.953 445.319l.003-.002M618.966 442.67l-.208.37.054.08.126.149.193.213.252.269.303.315.34.348.366.368.376.374.373.365.355.343.324.307.279.259.225.202.162.136.091.066M690.313 365.43l.161.498.005.045.052.468-.048.507-.151.482-.248.438-.337.378-.411.304-.469.216-.513.122-.533.022-.534-.078-.515-.176-.475-.267-.417-.347-.344-.414-.257-.465-.159-.499-.058-.513.048-.507.151-.482.249-.439.336-.378.412-.303.31-.142.161-.074.511-.121.533-.022.534.078.514.176.474.267.419.347.343.414.256.465ZM686.726 363.825l-.949.242M622.578 446.834l.001.001.019-.008M622.598 446.827l.314-.174" stroke="#EFC018" stroke-width="5" stroke-linejoin="round"/><path d="M621.999 445.262v.002l-.044.053-.003.004-.118-.019-.186-.093-.245-.164-.295-.23-.335-.285-.36-.33-.374-.363-.371-.382-.355-.385-.325-.375-.02-.024-.001-.001-.262-.324-.23-.311-.168-.26-.1-.199-.027-.131v-.001M620.867 443.639l.326.375.283.35.23.31M618.344 441.404l.185.093.245.164M621.953 445.322l.168-.09.242-.127.002-.001M622.813 440.937l.18.361.11.316.035.26-.039.191v.002l-.108.115-.005.004-.028.007h-.002l-.071.016-.081.019-.245-.039-.062-.024-.001-.001-.235-.092-.339-.191-.272-.191-.002-.001-.093-.065-.382-.314-.381-.359-.367-.389-.161-.194-.001-.001-.175-.211-.296-.405-.242-.391-.068-.136-.001-.001-.111-.223-.111-.317-.036-.26.039-.194.001-.001.111-.119.182-.042.244.038M622.02 439.834l.008.01.247.296.111.152.001.002M622.988 442.186l.594-.287.003-.001.281-.137M620.805 438.67l.382.314.383.36.367.39M625.978 437.069l-.103.249-.001.003-.172.172-.006.006-.245.097-.303.012-.349-.073-.13-.052-.007-.003-.244-.1-.4-.231-.402-.298-.389-.355-.362-.397-.321-.424-.068-.112-.005-.007-.193-.316-.203-.429-.131-.407-.053-.369.025-.316.103-.253.002-.002.175-.177.245-.098M625.352 435.111l.267.436.202.429.13.407M623.618 430.808l-1.598 2.659M622.742 433.176l.349.073.382.154.4.232M630.253 431.152l-.002.004-.239.23-.272.131-.032.016-.357.058-.398-.033-.421-.123-.43-.208-.422-.285-.397-.351-.357-.403-.304-.441-.239-.461-.165-.464-.085-.448v-.416l.083-.368.164-.305.003-.003M627.281 426.848l.269.022h.006l.122.01.422.122.431.208.422.285.398.352.358.404.304.442M627.792 424.893l-1.409 2.393M630.502 430.4V430.483l-.084.368M633.701 424.029l-.439-.273-.404-.348-.354-.409-.289-.455-.214-.484-.131-.493-.042-.483.048-.456.136-.411.015-.025.204-.325.003-.003.291-.272.314-.167.005-.002.038-.02.407-.098.441-.001.458.095.458.188.439.274.405.348.354.41.289.456.215.483.13.494.042.484-.048.456-.137.411-.19.301-.004.007-.023.037-.003.004-.294.274-.341.181-.017.008-.407.097-.44.001-.458-.096-.457-.188ZM633.086 418.272l-1.074 1.945M643.295 415.333l-.003.004-.342.309-.341.189-.012.005-.05.028-.425.12-.025.007-.478.027-.489-.074-.48-.173-.454-.264-.41-.346-.35-.414-.276-.466-.193-.501-.102-.514-.006-.513.089-.487.182-.444.01-.014.256-.37.004-.004M640.141 410.909l.449-.127.479-.027.489.074.481.172.454.265.41.346.351.414.276.467.193.501.101.516.006.512-.09.487M639.867 410.267l-.738 1.56M647.404 402.172l-.279.978-.122.508-.023.53.078.531.176.513.266.474.347.417.415.344.465.258" stroke="#EFC018" stroke-width="5" stroke-linejoin="round"/><path d="m647.125 403.15.111-.238.107-.229.304-.408.379-.333.44-.245.483-.148.508-.044.514.059.5.162.466.258.414.345.347.417.267.475.175.512.078.532-.023.53-.122.509-.218.467-.305.407-.379.333-.44.244-.483.148-.508.044-.346-.04-.168-.02-.499-.162M657.684 397.172l-.474-.255-.417-.344-.345-.418-.259-.478-.163-.519-.061-.539.043-.539.145-.519.243-.478.331-.419.406-.344.465-.255.508-.157.529-.054.531.054.512.156.474.255.418.344.345.419.259.478.163.518.061.539-.043.541-.146.517-.243.479-.331.418-.406.344-.465.256-.507.157-.529.053-.531-.053-.513-.157ZM667.221 387.429l-.478-.256-.419-.344-.344-.418-.255-.478-.157-.518-.052-.539.055-.538.158-.518.257-.476.346-.418.42-.343.48-.254.52-.156.54-.053.54.054.519.158.479.256.419.344.343.418.255.478.157.518.052.538-.054.539-.159.517-.257.477-.345.418-.421.343-.479.254-.52.156-.54.053-.541-.054-.519-.158ZM677.022 377.818l-.479-.26-.419-.345-.343-.417-.255-.474-.155-.511-.051-.53.056-.527.161-.506.259-.463.347-.404.422-.329.481-.241.522-.144.541-.042.542.063.519.164.479.26.419.344.343.418.254.473.156.511.051.529-.056.528-.161.505-.258.464-.347.404-.423.329-.481.241-.521.144-.542.042-.541-.062-.52-.164ZM699.71 358.332l-.031.477-.126.433-.004.016-.227.403-.313.342-.388.266-.448.182-.491.09-.514-.006-.519-.101-.503-.193-.468-.276-.414-.35-.346-.41-.262-.454-.171-.481-.071-.488.031-.479.132-.449.226-.402.214-.233.1-.108.388-.266.449-.182.49-.089.515.007.518.101.502.193.467.276.414.349.345.41.263.453.17.48.072.489ZM695.505 355.845l-1.536.7M708.108 351.763l-.101.407-.194.358-.274.291-.005.004-.353.221-.415.137-.46.049-.487-.041-.496-.13-.486-.213-.457-.289-.409-.354-.348-.404-.272-.439-.185-.458-.092-.458.005-.441.101-.408.046-.083.149-.274.279-.295.354-.22.415-.136.46-.049.487.042.496.13.485.213.456.289.409.353.347.403.272.439.185.457.092.458-.004.441ZM704.008 348.723l-1.926 1.035M715.442 346.384l-.152.305-.235.241-.309.166-.372.086-.42.002-.452-.082-.467-.164-.464-.237-.442-.305-.404-.357-.351-.398-.283-.422-.205-.43-.119-.423-.014-.189-.015-.209.063-.359.153-.305.236-.24.309-.166.373-.085.42-.001.451.083.467.164.463.237.441.304.404.356.35.397.283.422.205.43.119.423.029.397-.062.359ZM711.194 343.064l-2.382 1.371M721.531 342.316l-.183.181-.257.106-.321.028-.373-.05-.411-.128-.432-.201-.408-.247-.03-.018-.425-.319-.398-.362-.244-.27-.11-.12-.297-.403-.228-.401-.151-.383-.068-.351.017-.304.103-.247.183-.18.258-.106.321-.027.373.051.411.129.431.2.437.265.115.086.01.008.3.225.397.361.353.389.297.403.228.4.005.012.003.008.144.363.068.35-.017.305-.101.247ZM717.499 338.647l-2.651 1.562M751.18 352.598l.121-.21v-.001M750.32 352.051l.001-.002.012-.022.433-.767.001-.002.594-1.054.007-.013-.001-.001M748.96 351.099l.087-.162v-.003l.557-1.042.002-.003.104-.195-.018-.135-.101-.206-.177-.27-.246-.324-.309-.365-.355-.392-.392-.403-.412-.401-.417-.381-.405-.349-.131-.103v-.001l-.247-.197-.337-.243-.283-.175-.216-.101-.143-.023-.001.001" stroke="#EFC018" stroke-width="5" stroke-linejoin="round"/><path d="m749.71 349.694-.004.003-.059.054-.142-.021-.102-.048-.007-.003-.107-.05-.282-.174-.336-.243-.379-.302-.406-.348-.318-.292-.005-.005-.094-.086-.413-.401-.393-.405-.357-.392-.213-.253-.001-.001-.094-.111-.247-.324-.177-.27-.099-.206-.018-.134.064-.056v-.001M745.494 352.597l.001-.003.3-.609.002-.004.083-.169.001-.001.287-.583.002-.002.12-.244.046-.203-.011-.069v-.004l-.03-.197-.085-.221v-.001l-.04-.105-.205-.37-.044-.063-.001-.001-.233-.336-.198-.243-.002-.001-.139-.17-.387-.413-.421-.396-.433-.358-.001-.001-.005-.004-.146-.105-.293-.212-.207-.126-.216-.132-.294-.142-.001-.001-.096-.046-.343-.114-.138-.017-.145-.017-.211.048-.003.002" stroke="#EFC018" stroke-width="5" stroke-linejoin="round"/><path d="m746.29 350.982-.006.005-.125.123-.002.001-.093.021-.003.001-.113.026-.282-.033-.343-.113-.391-.189-.394-.24-.007-.005-.023-.013-.44-.317-.125-.104-.001-.001-.313-.259-.422-.396-.388-.414-.34-.415-.277-.401-.205-.371-.066-.17-.059-.156-.04-.27.047-.202.13-.126.002-.002" stroke="#EFC018" stroke-width="5" stroke-linejoin="round"/><path d="m746.32 350.701.001.003.011.077-.046.203-.129.127-.002.001-.09.021-.003.001-.117.027-.283-.033-.343-.113-.391-.189-.378-.231-.007-.004-.038-.023-.44-.317-.122-.101-.001-.001-.317-.262-.422-.396-.388-.414-.339-.415-.278-.401-.205-.371-.064-.167-.061-.159-.04-.27.047-.202.131-.127.001-.001h.001l.21-.048.147.018.136.016M742.006 346.964l-1.565.916-1.535.899M749.411 349.083l.177.27.099.207.019.134-.062.057-.001.001-.142-.022-.097-.045-.007-.003-.112-.052-.282-.175-.337-.243-.378-.301-.406-.349-.32-.293-.006-.005-.091-.084-.413-.401-.393-.405-.357-.393-.213-.252-.001-.001-.095-.112-.247-.324-.176-.27-.099-.206-.018-.134.061-.054.003-.003.001.001.142.022.217.101.282.175.336.243.248.198.001.001M747.281 346.817l.416.382.412.4.392.404.357.391M745.517 345.625l-2.52 1.451-.056.032M751.368 350.19l-.072-.091-.148-.167-.218-.236-.281-.296-.332-.345-.371-.38-.395-.401-.403-.406-.398-.395-.376-.37-.339-.33-.29-.278-.23-.214-.16-.143-.085-.065M747.27 346.073l-.524.291M751.303 352.385l-.002-.158-.08-.232-.155-.294-.225-.347-.071-.096M652.101 429.564l.287-.41.003-.005.119-.107.007-.006.245-.22.439-.24.488-.137.52-.028.531.082.523.187.492.288.445.375.38.449.299.505.209.543.109.558.005.554-.099.526-.198.48-.291.414-.004.004-.368.33-.346.188-.014.008-.078.043-.489.136-.519.027-.531-.082-.522-.187-.492-.287-.444-.375-.38-.449-.299-.505-.208-.542-.11-.558-.005-.553.098-.526.198-.48Zm0 0 .003-.006M655.316 434.081l.03-.002M644.348 438.605l.236-.372.003-.004.32-.296.312-.163.007-.004.07-.036.442-.104.48.001.498.105.497.205.476.297.439.378.383.444.314.493.231.523.141.534.044.522-.054.492-.15.443-.195.306-.005.008-.04.062-.004.003-.317.292-.389.203-.442.102-.415-.001h-.065l-.464-.098-.033-.007-.496-.205-.476-.297-.438-.377-.383-.444-.313-.492-.232-.523-.14-.533-.045-.522.053-.492.15-.443Zm0 0 .008-.016M648.086 442.938l.016-.004M638.199 446.197l.26-.247.331-.157.389-.061.268.024h.006l.159.014.458.135.467.226.458.31.432.381.387.438.33.478.258.499.177.501.09.483-.001.111-.001.227V449.67l-.093.395-.083.15-.098.177-.003.003-.258.243-.331.156-.1.016-.289.044-.432-.038-.242-.071-.216-.064-.466-.226-.458-.31-.43-.38-.296-.335-.091-.102-.246-.356-.083-.121-.259-.498-.177-.501-.09-.483.001-.449.092-.395.178-.324.002-.004Zm0 0 1.491-2.567M641.801 450.794l.036-.012M633.416 452.811l.194-.19.267-.103.33-.011.379.081.415.17.435.252.437.325.355.324.068.061.392.431.075.099.272.36.288.47.218.463.14.438.056.397-.031.339-.114.27-.002.002-.193.187-.267.101-.33.01-.38-.081-.128-.053-.008-.003-.278-.114-.434-.252-.436-.325-.423-.384-.285-.313-.106-.117-.347-.458-.11-.179-.004-.007-.02-.033-.154-.25-.218-.463-.14-.438-.056-.396.023-.264.006-.076.113-.267.001-.003Zm0 0 .526-.884 1.192-2.003M637.398 457.176l.003-.002M630.376 457.876l.012-.012.112-.114.199-.042.024.004.243.041.324.129.369.209.399.281.415.342.414.389.284.302.016.017.097.103.273.328.002.002.091.109.319.438.261.421.193.387.117.339.036.277-.044.206-.002.001-.111.112-.001.001-.011.011-.03.006-.001.001-.169.034-.235-.04h-.001l-.031-.005-.324-.13-.368-.209-.399-.281-.124-.102-.002-.002-.288-.237-.413-.389-.397-.421-.299-.359-.001-.001-.065-.078-.319-.437-.261-.42-.122-.246-.001-.001-.07-.141-.118-.339-.037-.278.044-.203v-.003Zm0 0 .006-.009 1.087-1.826.756-1.27M634.406 462.156l.003-.001M629.145 461.255l.003-.004.049-.055.13.023.202.104.267.181.321.251.156.133.001.001.207.177.392.36.405.394.402.413.384.417.352.404.305.375.247.333.179.278.105.211.026.137v.001l-.053.057-.13-.024-.203-.105-.267-.181-.321-.251-.363-.311-.391-.359-.404-.393-.402-.412-.384-.416-.351-.403-.076-.095-.001-.001-.227-.28-.248-.333-.179-.278-.106-.212-.027-.136v-.001Zm0 0 1.378-2.358.032-.054M633.227 465.446l.004-.002" stroke="#EFC018" stroke-width="5" stroke-linejoin="round"/><path d="m629.932 462.496-.217.385.061.09.138.165.211.234.275.294.328.342.369.378.396.399.407.404.403.394.383.369.348.329.301.278.241.214.173.143.097.067.012-.007 1.212-.675.003-.001.314-.175M635.07 466.3l.06.043.352.222.3.151.004.002M707.609 379.288l.174.541.009.082.054.475-.051.55-.162.524-.268.478-.363.41-.445.33-.508.236-.554.133-.577.025-.578-.084-.557-.19-.515-.289-.453-.376-.373-.449-.279-.506-.174-.541-.063-.557.051-.551.163-.522.269-.478.363-.411.445-.33.386-.178.123-.057.553-.132.577-.025.578.084.557.191.514.289.452.375.373.449.279.504Zm0 0 .31.853M704.276 377.42l-.858.197" stroke="#EFC018" stroke-width="5" stroke-linejoin="round"/><path d="m633.848 466.982 1.224-.682.003-.001.314-.175M631.94 464.576l-.391-.358-.403-.394-.401-.412-.384-.416-.351-.403-.078-.096v-.001l-.227-.279-.247-.333-.18-.277-.106-.212-.027-.138.001-.001.052-.058.129.023.202.104.267.181.321.251.156.133v.001l.209.177.39.36.406.394.403.413.384.417.352.404.304.376.248.333.179.277.105.211.026.136v.002l-.05.053-.003.004-.13-.024-.203-.105-.268-.181-.32-.251-.365-.311ZM633.227 465.448l.502-.265.002-.001.755-.399.36-.19.002-.002M634.577 461.829l-.045.203v.002l-.11.11-.001.002-.009.009-.005.005-.026.005-.174.036-.228-.039h-.001l-.038-.007-.324-.13-.368-.209-.399-.28-.124-.103-.002-.001-.288-.237-.413-.389-.397-.421-.299-.359-.001-.002-.065-.077-.319-.437-.261-.421-.122-.245-.001-.001-.07-.141-.117-.339-.038-.278.044-.206.002-.001.015-.017.107-.108M633.648 459.967l.319.438.261.421.193.387.117.339" stroke="#EFC018" stroke-width="5" stroke-linejoin="round"/><path d="m634.406 462.16.019-.009.002-.001.68-.333.003-.001.26-.127.002-.001.561-.274.004-.002.658-.322M630.965 457.756l.324.129.369.209.399.281M632.473 458.716l.414.39.247.262.016.017.135.143M637.593 456.989l-.002.003-.188.182-.006.007-.268.101-.33.011-.379-.082-.117-.048-.008-.003-.29-.119-.434-.252-.436-.325-.422-.384-.287-.315-.105-.115-.346-.458-.117-.19-.004-.007-.015-.025-.152-.247-.218-.463-.14-.438-.056-.396.022-.267.007-.073.114-.27.002-.002.192-.188.267-.103M636.297 453.726l.392.431.074.097.273.362.288.47.218.463M637.68 455.986l.056.397M635.136 449.922l-1.194 2.006-.528.888M637.395 457.181l3.122-1.358M635.434 453.017l.437.324.353.322M642.665 449.228l-.001.108-.001.221v.119l-.093.395-.081.146-.098.178-.001.003-.261.247-.291.137-.041.019-.105.016-.284.044-.432-.038-.246-.073-.212-.062-.466-.227-.458-.31-.43-.38-.298-.336-.089-.101-.247-.358-.082-.119-.258-.498-.178-.5-.09-.484.001-.448.092-.396.18-.327.003-.003.257-.244.332-.157.389-.061M640.531 446.138l.459.31.431.381.038.043.328.37.021.024.33.478M642.395 448.243l.177.501M639.707 443.594l-1.516 2.61M641.797 450.802l2.781-.994M639.605 445.776l.458.135M648.791 442.442l-.002.004-.321.295-.367.192-.022.011-.443.103-.417-.001-.062-.001-.467-.098-.03-.007-.496-.205-.477-.297-.437-.377-.383-.443-.313-.493-.232-.523-.14-.532-.045-.523.053-.492.149-.442.015-.024.225-.353.003-.003M646.211 437.635l.497.104.497.205.477.297.439.378.383.444.314.493.231.524.14.533M644.898 437.941l.319-.167.006-.004.064-.033.442-.103M645.49 436.484l-1.15 2.129M648.078 442.944l2.463-.607M656.872 430.306l.208.542.109.559.005.553-.098.527-.199.479-.287.41-.003.005-.372.333-.333.181-.013.008-.093.05-.451.126-.037.01-.52.028-.531-.082-.521-.188-.493-.287-.444-.375-.379-.449-.299-.504-.209-.542-.109-.559-.006-.553.098-.526.198-.48.011-.014.28-.401.004-.003M652.512 429.044l.007-.006.238-.214.438-.24.489-.136.52-.029.531.082.522.188M652.878 427.859l-.784 1.713M655.309 434.089l1.912-.127M661.079 419.12l-.283 1.083-.134.55-.025.574.084.575.19.556.288.513.376.452.45.374.505.28.541.176 1.082.339" stroke="#EFC018" stroke-width="5" stroke-linejoin="round"/><path d="m660.793 420.203.096-.207.14-.298.331-.441.412-.36.478-.264.525-.16.552-.047.557.065.542.176.506.281.45.373.376.453.289.514.189.555.084.576-.025.574-.134.55-.237.505-.331.441-.413.359-.478.265-.524.158-.552.048-.343-.041-.215-.025M672.259 413.742l-.514-.277-.453-.372-.374-.454-.28-.518-.177-.562-.066-.585.047-.583.158-.563.264-.518.359-.454.441-.372.065-.036.44-.241.55-.17.575-.058.576.058.15.046.406.125.514.276.453.373.374.454.281.519.177.562.066.585-.048.584-.158.562-.264.518-.36.453-.44.373-.506.276-.55.17-.574.058-.576-.058-.556-.171ZM682.607 403.184l-.519-.277-.454-.373-.373-.454-.277-.518-.169-.562-.057-.584.053-.53.006-.054.172-.561.279-.518.374-.453.456-.371.52-.276.563-.17.586-.057.586.059.158.048.405.123.519.277.454.373.373.454.277.518.169.562.057.584-.059.584-.172.561-.278.517-.375.454-.456.371-.519.276-.564.17-.586.057-.586-.059-.563-.171ZM693.233 392.754l-.519-.281-.454-.374-.373-.453-.275-.514-.124-.407-.045-.147-.056-.575.06-.573.174-.548.28-.504.376-.438.457-.358.521-.262.062-.017.503-.139.587-.046.586.067.563.178.519.281.454.374.372.453.276.513.169.555.056.574-.06.573-.173.548-.28.503-.376.439-.457.358-.521.262-.565.157-.587.046-.586-.067-.564-.178ZM717.748 371.56l-.031.519-.14.488-.014.026-.229.412-.338.372-.418.29-.484.199-.53.098-.557-.005-.561-.108-.544-.208-.507-.3-.449-.379-.374-.444-.286-.493-.185-.522-.078-.53.031-.52.141-.488.244-.438.259-.285.079-.086.419-.29.484-.198.53-.098.556.006.561.109.543.208.506.299.448.379.375.443.285.492.185.521.079.531Zm0 0-.088 1.688M713.195 368.868l-1.687.742M726.683 364.84l-.207.39-.3.322-.021.013-.359.227-.447.151-.496.055-.526-.043-.536-.14-.525-.23-.494-.313-.444-.383-.377-.438-.296-.477-.202-.497-.101-.498.003-.479.108-.443.063-.118.145-.272.3-.321.381-.24.447-.15.496-.054.526.044.535.14.525.23.493.313.444.382.376.437.295.476.202.497.04.194.062.303-.002.34v.139l-.108.443Zm0 0-.585 2.42M722.353 361.106l-2.107 1.108M734.667 358.519l-.161.333-.252.263-.332.182-.399.095h-.03l-.049.001-.374.003-.487-.088-.504-.175-.501-.257-.478-.329-.438-.387-.38-.43-.308-.458-.223-.468-.131-.459-.018-.225-.016-.208.066-.391.162-.332.252-.262.333-.182.4-.094.452-.003.487.088.503.176.5.257.26.179.218.149.249.22.187.166.38.43.307.458.224.466.114.399.018.06.034.433-.065.39Zm0 0-.2.561M730.064 354.927l-2.595 1.475M741.171 354.06l-.195.198-.274.117-.345.033-.4-.053-.442-.137-.466-.215-.472-.287-.034-.025-.152-.114-.274-.206-.304-.277-.126-.115-.242-.265-.142-.157-.323-.437-.249-.436-.166-.416-.077-.381.016-.332.108-.27.195-.196.275-.117.345-.032.085.011.316.042.441.138.465.216.446.27.026.016.044.033.011.008.404.303.306.28.123.111.383.422.323.437.249.434.019.049.004.009.143.358.077.381-.015.332-.106.27Zm0 0-1.348 3.082" stroke="#EFC018" stroke-width="5" stroke-linejoin="round"/><path d="m736.81 350.089-.565.329-2.319 1.355M688.513 433.213l-7.544 6.564-1.92 1.671-6.054 7.96-1.651 2.17-4.091 9.125-.964 2.148-2.336 9.724-.649 2.703-.052 10-.014 2.65 1.404 9.901.441 3.112 3.088 9.511 1.014 3.122 4.257 7.656 2.201 3.958 5.957 8.033 1.925 2.596 2.406 2.467 6.622 6.794 8.3 5.577 2.225 1.494 9.22 3.871 2.163.909 9.812 1.93 1.973.389 9.999-.171 1.685-.028 9.641-2.655 2.187-.602 8.887-4.586 1.557-.803M688.516 433.213l8.745-4.85 2.713-1.504 2.155-.665 9.555-2.951.556-.171 9.938-1.107 3.38-.376 9.938 1.111 2.966.331 9.497 3.131 2.897.954 8.752 4.837 2.883 1.593 7.388 6.739 2.4 2.189 5.633 8.262 1.934 2.836 4.151 9.098 1.522 3.334 2.4 9.708.921 3.723.579 9.983.229 3.943-1.28 9.918-.517 4.001-2.739 9.618-.926 3.251-4.688 8.833-1.722 3.245-6.18 7.862-.83 1.057-.911 1.159-7.661 6.428-1.989 1.67" stroke="#EFC018" stroke-width="5" stroke-linejoin="round"/><path d="m749.005 532.097-7.558 4.025-8.2 2.31-8.523.513-1.124-.171-7.397-1.127-8.195-3.053-7.558-4.689-4.559-4.219-2.077-1.923-5.466-7.361-4.091-8.301-.866-3.018-1.694-5.909-.935-9.217.253-3.174.477-5.984 1.822-6.736.545-2.017 1.255-2.565 2.666-5.45 5.327-6.97 6.537-5.655 2.872-1.578 4.627-2.543 8.176-2.421 8.541-.623 8.577 1.205 3.447 1.246 4.833 1.747 7.66 4.669 6.739 6.167 5.554 7.426 4.151 8.396.074.261 2.509 8.778.917 9.327-.785 9.25-2.454 8.814-4.022 8.034-5.43 6.945-4.448 3.754-2.177 1.837Z" stroke="#EFC018" stroke-width="5" stroke-linejoin="round"/><path d="m751.184 530.26-6.406 3.412-8.171 2.304-8.494.514-7.515-1.142-.976-.148-8.165-3.04-7.531-4.668-6.614-6.116-5.445-7.332-4.074-8.268-2.551-8.892-.561-5.542-.369-3.64.729-9.123 2.361-8.72 3.908-7.985 5.311-6.945 5.897-5.101M1189.26 845.509l8.21 5.716 4.67 3.254 8.07 5.896 8.08 5.898 1.89 1.379 6.8-6.131 1.44-3.82-6.77-7.359-5.61-6.096-6.77-7.358-5.59-6.075-6.77-7.359-5.56-6.05-6.78-7.36-5.54-6.03-5.67-5.951" stroke="#EFC018" stroke-width="5" stroke-linejoin="round"/><path d="m1184.37 830.996 6.21 4.47 8.19 5.73 8.2 5.729 1.98 1.383 8.06 5.909 8.07 5.91 1.9 1.393M1119.01 880.751l-.28-3.357-.46-5.659-.05-.671-.82-9.967-.48-5.891-.02-.015-.36-.304-7.66-6.432-7.66-6.432-7.65-6.432-7.66-6.432-7.66-6.433-7.65-6.432-7.66-6.432-7.66-6.432-7.65-6.432-7.66-6.432-7.66-6.432-7.65-6.433-7.66-6.432-2.7-2.269-7.17 6.813 4 9.167 3.99 9.168 3.99 9.168 2.85 6.541 4 9.168 3.99 9.168 3.99 9.167 3.04 6.97 2.79 6.41.83 1.906 4 9.168 3.99 9.168.15.345 7.27 6.866 7.27 6.866 7.27 6.866 2.1 1.976.09.089 7.27 6.865 7.27 6.866 7.27 6.866 7.27 6.866 7.27 6.866 6.17 5.827 7.42 6.713 7.39 6.698 7.41 6.712 7.37 6.673 7.41 6.713 7.34 6.647 7.41 6.713 7.31 6.622 7.48-6.64.13-.112 1.83-4.842-5.94-8.046-5.94-8.046-5.07-6.869-5.79-8.156-5.78-8.155-4.99-7.031-5.88-8.088-5.88-8.087-3.68-5.061-1.12-1.543-2.64-4.699-.41-.747-3-5.354-.38-.682-2.96-5.271v-.004l-.35-.628v-.006l-1.35-2.409v-.005l-.68-1.21v-.002l-2.75-4.901-.16-.292Z" stroke="#EFC018" stroke-width="5" stroke-linejoin="round"/><path d="m1014.3 769 4.02 9.155 4.03 9.154 4.02 9.154 2.87 6.533 4.03 9.155 4.02 9.154 4.03 9.154 4.02 9.155 4.02 9.154 2.13 4.831 3.34 7.608 1.4 3.175M1048.74 871.327l7.33-6.8.16-.145 7.27 6.868 7.27 6.868 7.12 6.732 7.27 6.868 7.27 6.867 7.27 6.868 7.27 6.868 7.27 6.868 7.26 6.868 1.32 1.242 7.41 6.717 7.41 6.718 7.41 6.716 7.38 6.693 7.41 6.716 7.35 6.667 7.41 6.717 7.33 6.642M1437.8 362.549l5.8 8.146 5.8 8.147.54.76 6.58 7.53 6.58 7.53.62.709 7.3 6.839 7.29 6.838.71.658 7.93 6.083 7.94 6.082.79.603 2.07 1.499 8.5 5.268 8.5 5.269 1.1.683 8.98 4.407 8.98 4.408 1.2.591 9.37 3.505 9.36 3.505 1.31.489 9.66 2.574 9.66 2.574 1.41.374 9.86 1.621 9.87 1.621 1.49.245 9.98.658 9.98.659 1.56.103 3.74-.082 9.99-.308 9.08-.281 2.61-.08 3.23-.412 9.92-1.268 8.43-1.078 9.75-2.214 9.75-2.214 1.76-.399 9.5-3.137 9.49-3.136 1.75-.579 9.15-4.03 9.15-4.031 1.73-.758 8.72-4.886 8.72-4.886 1.67-.931 3.04-1.985 8.21-5.698 8.22-5.698 1.47-1.017 7.63-6.458 7.64-6.458 1.37-1.157 6.98-7.161 6.98-7.161 1.25-1.283 6.26-7.798 6.26-7.799 1.11-1.39 5.48-8.366 5.48-8.367.97-1.477 4.64-8.858 4.64-8.858.8-1.542 3.76-9.268 3.75-9.269.65-1.586 2.83-9.591 2.83-9.592.47-1.61 1.87-9.823 1.87-9.823.31-1.615.16-1.193.89-9.961.89-9.96.11-1.245-.1-9.999-.11-10-.01-1.216-1.11-9.939-1.1-9.939-.13-1.179-2.1-9.778-2.09-9.778-.25-1.135-3.07-9.517-3.07-9.518-.35-1.086-4.01-9.159-4.02-9.158-.45-1.035-.5-.898-4.92-8.706-4.92-8.706-.73-1.292-5.77-8.163-5.78-8.163-.86-1.216-6.57-7.537-6.57-7.538-.99-1.132-7.3-6.835-7.3-6.834-1.11-1.04-7.95-6.066-7.95-6.065-1.24-.94-8.52-5.236-8.52-5.235-1.35-.829-9-4.357-9-4.357-1.46-.707-9.39-3.438-9.39-3.438-1.57-.572-9.68-2.49-9.69-2.492-1.65-.425-3.5-.624-9.88-1.523-9.88-1.523-1.87-.287-9.99-.547-9.98-.546-1.92-.105-9.99.432-9.99.432-1.96.084-9.9 1.4-9.9 1.401-1.97.278-9.72 2.353-9.72 2.353-1.95.472-9.44 3.28-9.45 3.278-1.9.66-3.54 1.452-9.09 4.173-9.09 4.174-1.76.81-8.64 5.026-8.65 5.027-1.67.97-8.12 5.833-8.12 5.834-1.56 1.114-7.52 6.585-7.53 6.585-1.41 1.24-6.86 7.276-6.86 7.278-1.26 1.341-6.13 7.902-6.13 7.902-1.1 1.419-5.34 8.457-5.34 8.456-.92 1.473-1.29 2.112-4.49 8.932-4.5 8.932-.63 1.256-3.61 9.326-3.61 9.325-.48 1.254-2.69 9.633-2.69 9.632-.34 1.235-1.73 9.849-1.73 9.848-.21 1.201-.76 9.971-.76 9.971-.09 1.155.22 9.997.23 9.998.02 1.101 1.21 9.927 1.21 9.926.13 1.044 2.19 9.757 2.19 9.758.22.984 3.14 9.493 3.15 9.493.3.924 4.07 9.134 4.08 9.133.39.867 4.96 8.683 4.95 8.683.47.813Z" stroke="#EFC018" stroke-width="5" stroke-linejoin="round"/><path d="m1643.7 288.64-8.15-5.08-6.61-5.089-7.15-6.655-5.72-6.264-5.62-7.756-4.59-7.587-3.9-8.153-3.17-9.014-.64-9.177 1.05-7.573-.54-8.441.46-8.873 1.31-8.719 2.13-8.482 2.92-8.181 2.52-4.838 1.41-2.703 2.42-2.03 3.75-3.155 5.83-5.208 6.56-6.544 7.19-5.767 6.29-4.487 6.62-3.875 6.9-3.252 6.37-2.343.75-.278 9.72-1.93 8.41-.49 7.32.948 7.09 1.322 8.04 2.085 9.14 3.36 6.27 2.971 6.07 3.246 6.51 4.01 7.95 6.068.11.086 5 4.652 4.79 4.909 4.75 5.446 5.78 8.16.19.274 3.58 6.322 3.17 6.429 2.85 6.756 1.6 9.158.5 9.09-.59 7.608-1.25 7.574-1.92 7.476-2.63 7.605-3.7 8.668-4.46 7.715-2.99 7.173-3.96 7.052-6.54 5.645-7.09 5.025-7.59 4.35-8.03 3.616-8.4 2.835-7.65 2.014-7.65 3.307-9.33.982-9.52-.672-5.13-.992-3.04-.587-9.21-2.466-9.01-3.426-7.54-3.85ZM1777.17 173.585l-4.43-7.835M1787.23 212.538l-.55-9.985-.07-1.28-1.72-9.849-.27-1.498M1779.33 250.049l3.26-9.427M1618.99 127.483l-7.81 6.251-1.11.894M1769.23 270.361l5-8.659.52-.907M1674.82 106.861l-9.98.581-.44.026M1713.96 116.405l-9.38-3.45-1.94-.71-9.68-2.506-.28-.074M1747.32 136.699l-7.94-6.068-2.04-1.557-8.08-4.968M1832.73 269.961l.83-1.673.52-1.59 1.12-5.262 1.01-5.326.22-1.579-.01-1.74.22-5.324.09-5.22-.3-1.842-.08-1.077-.06-4.764-.05-4.493-.04-3.533-.94-.753M1794.73 228.158l-2.02 5.822-.26 5.026-1.52 6.347" stroke="#EFC018" stroke-width="5" stroke-linejoin="round"/><path d="m1799.2 268.018 1.35-4.908.38-4.819.58-5.038.94-4.848 1.1-4.882 1.19-4.973.2-3.938 1.58-4.562 1.82-2.716 1.86-3.718 2.08-3.308 2.27-2.866.92-1.166 1.6-.291 2.2-.915 2.28-.563 2.39-.04 1.96-.087.53-.096.53-.098 1.84 1.566 1.85 2.353 1.81 2.813 1.75 3.242 1.05 1.626.5.777M1785.51 287.391l.94 4.896 1.4 4.111 1.32 4.709.87 3.689M1799.45 219.952l-2.39 4.741M1817.01 208.319l-3.04.044-2.92.71-2.81 1.161-2.05.367-1.18 1.484-2.9 3.651M1818.62 304.158l4.14-9.103 2.39-5.254 1.58-3.904 1.7-4.201.17-.417.64-2.174 1.79-4.647 1.7-4.497.12-.333M1833.56 268.288l-.71 1.34M1802.27 312.864l3.04-1.08 3.24-1.683 3.4-2.269 1.92.408 1.92-.088 2.84-3.994M1820.88 207.972l-1.36.242M1828.8 215.751l-5.58-5.779M1835.76 226.562l.44-.024M1791.97 310.112l2.26 2.295M1788.34 257.771l-.75 6.427M239.091 927.715l5.868 8.098.085.117 6.605 7.508.095.108 7.285 6.85.1.093 7.9 6.13.098.076 8.447 5.351.089.056 8.992 4.56 2.012.893 9.312 3.646.349.137 9.619 2.732.332.094 9.84 1.784.309.056 9.967.816.281.023 3.309.088 9.999-.17.466-.008 9.933-1.159.434-.05 9.768-2.143.403-.089 3.674-1.031 9.504-3.11.478-.156 9.143-4.052.446-.198 8.687-4.953.417-.237 3.397-2.064 8.141-5.808.397-.283 7.511-6.601.37-.325 2.648-2.821 6.804-7.329.281-.302 6.029-7.978.26-.345 5.194-8.545.237-.389 1.524-3.076 4.311-9.023.126-.265 3.387-9.409.111-.306 2.436-9.699.088-.35 1.467-9.892.058-.395.223-2.41.489-9.988.007-.142-.488-9.988-.009-.177-1.454-9.894-.03-.207-2.403-9.707-.057-.231-3.323-9.432-.087-.247-4.211-9.07-.118-.255-5.057-8.628-.149-.253-5.856-8.106-.176-.244-6.601-7.512-.198-.225-7.287-6.848-.214-.2-7.907-6.121-.221-.171-8.459-5.335-.219-.139-8.932-4.496-.21-.106-9.325-3.612-.192-.074-2.334-.822-9.632-2.689-.451-.126-9.849-1.734-.426-.075-9.971-.757-.395-.03-9.998.235-.36.009-3.479.089-9.924 1.228-.515.064-9.751 2.217-.475.108-3.617 1.187-9.479 3.186-.523.175-9.108 4.128-.481.218-8.645 5.028-.442.258-3.312 2.208-8.089 5.879-.399.289-7.452 6.668-.364.326-6.738 7.389-.333.365-2.471 2.881-5.958 8.031-.233.315-5.119 8.591-.209.35-4.234 9.06-.182.389-1.29 3.005-3.31 9.436-.08.228-2.36 9.717-.064.262-1.394 9.903-.042.297-.421 9.991-.014.33-.02 2.151.552 10.027 1.519 9.955 2.471 9.786 3.361 9.419.038.107 4.24 9.057.055.118 5.076 8.616.072.12Z" stroke="#EFC018" stroke-width="5" stroke-linejoin="round"/><path d="m288.976 913.422-3.938-2.473-3.176-2.484-3.413-3.254-2.701-3.075-2.647-3.803-2.139-3.726-1.787-4.009-1.434-4.425-.37-4.427.389-3.615-.095-4.18.375-4.384.782-4.307 1.175-4.19 1.547-4.039 1.989-3.702 2.794-2.415 2.76-2.492 3.293-3.235 3.594-2.852 3.181-2.245 3.328-1.94 3.444-1.629 3.538-1.312 4.742-.951.211-.012 3.864-.22 3.443.52 3.338.695 3.799 1.068 4.332 1.685 2.989 1.474 2.893 1.602 3.118 1.97 3.878 3.005 2.423 2.263 2.227 2.282.097.1 2.32 2.638 2.947 4.074 1.789 3.045 1.597 3.093 1.457 3.247.515 3.318.182 1.168.153 4.455-.401 3.749-.737 3.738-1.075 3.696-1.428 3.76-1.912 4.261-2.302 3.807-1.285 3.406-1.776 3.356-3.289 2.791-.422.295-3.138 2.197-3.804 2.166-4.017 1.809-4.198 1.431-3.794 1.012-3.511 1.515-4.499.463-4.662-.305-4.02-.741-4.488-1.189-4.387-1.654-3.658-1.869ZM365.815 873.152l-.123-3.545-.069-2-.869-5.585M279.419 835.132l-4.099 4.027M306.592 821.534l-5.904 1.182M346.263 836.2l-4.829-3.741M399.679 875.475l.086 1.706.109 2.169.116 2.302.015.075.086.428.407.788.249 2.435.126 2.514.127.803-.03.743-.377 2.566-.498 2.563-.32.811-.461.708-.96 2.404-.966 2.322-.262 1.046-.071.2-.723 2.017-.672 1.875" stroke="#EFC018" stroke-width="5" stroke-linejoin="round"/><path d="m373.75 899.288.527-2.339-.091-2.232.119-2.385.35-2.321.542-2.386.596-2.435.078-1.913 1.023-2.344 1.249-1.489 1.318-2.003 1.467-1.823 1.6-1.626.649-.661 1.223-.345 1.703-.735 1.756-.568 1.808-.313 1.492-.286.914-.274 1.53.479 1.526.873 1.479 1.111 1.42 1.338 1.275.949.379-.085.142-2.236M369.039 910.482l1.425 1.687 1.454 1.956 1.028 1.547M401.344 889.053l-.16-3.201-.317-3.102M400.352 897.552l.634-3.263.479-3.268.039-.946M378.774 870.49l-.829.843-2.043 2.072M396.57 906.838l.333-1.332 1.231-2.956 1.222-3.062M384.752 868.395l-2.24.722M395.559 909.662l.921-2.569M392.076 867.898l-1.951-.613-1.166.348-1.904.363M389.844 914.532l1.61-.084 1.559-.305M383.062 917.865l2.221-.84M400.347 881.746l-.088-.441-.04-.2M369.348 885.615l-.762 3.108M1386.16 283.994l-7.18-6.965-7.18-6.965-7.17-6.965-7.18-6.965-.76-.746-6.97 7.175-6.96 7.176-6.97 7.175-6.41 6.604-1.3 1.34 7.17 6.965 7.18 6.965 7.18 6.965 7.17 6.965.77.746 1.23-1.269 6.97-7.176 6.96-7.175 6.97-7.176 6.48-6.674ZM1352.13 252.127l-7.18-6.966-7.17-6.965-3.27-3.169-6.97 7.175-6.96 7.176-3.17 3.265 7.18 6.965 7.17 6.965 3.27 3.17 6.96-7.176 6.97-7.175 3.17-3.265ZM1370.34 237.399l-7.18-6.965-4.87-4.732-6.97 7.175-4.73 4.875 7.18 6.965 4.87 4.733 6.97-7.176 4.73-4.875ZM336.496 382.809l6.982 7.159 6.982 7.159 6.982 7.159 6.982 7.159 6.982 7.159 6.982 7.159 6.983 7.159 6.982 7.159 6.982 7.158 6.982 7.159 6.982 7.159 6.982 7.159 6.982 7.159 6.982 7.159 6.982 7.159 6.983 7.159 6.982 7.159 6.982 7.159 6.982 7.159 6.982 7.159 6.982 7.158 6.982 7.159 6.982 7.159 6.982 7.159 6.983 7.159 6.982 7.159 6.982 7.159 6.982 7.159 6.982 7.159 6.982 7.159 6.982 7.159 6.982 7.159 6.982 7.158 6.983 7.159 6.982 7.159 6.982 7.159 6.982 7.159 6.982 7.159 6.982 7.159 6.982 7.159 6.982 7.159 6.983 7.159 6.982 7.159 6.982 7.159 6.982 7.158 6.982 7.159 6.982 7.159 6.982 7.159 6.982 7.159 6.982 7.159 6.983 7.159 6.982 7.159 6.982 7.159 6.982 7.159 6.982 7.159 6.982 7.159 6.982 7.158 6.982 7.159 8.715 8.936 7.072-7.071 3.404-3.404-7.159-6.982-7.159-6.982-7.159-6.982-7.159-6.983-7.159-6.982-7.159-6.982-7.159-6.982-7.159-6.982-7.158-6.982-7.159-6.982-7.159-6.982-7.159-6.982-7.159-6.983-7.159-6.982-7.159-6.982-7.159-6.982-7.159-6.982-7.159-6.982-7.159-6.982-7.159-6.982-7.158-6.982-7.159-6.983-7.159-6.982-7.159-6.982-7.159-6.982-7.159-6.982-7.159-6.982-7.159-6.982-7.159-6.982-7.159-6.982-7.159-6.983-7.159-6.982-7.158-6.982-7.159-6.982-7.159-6.982-7.159-6.982-7.159-6.982-7.159-6.982-7.159-6.982-7.159-6.983-7.159-6.982-7.159-6.982-7.159-6.982-7.159-6.982-7.158-6.982-7.159-6.982-7.159-6.982-7.159-6.983-7.159-6.982-7.159-6.982-7.159-6.982-7.159-6.982-7.159-6.982-7.159-6.982-7.159-6.982-7.159-6.982-7.158-6.983-7.159-6.982-8.936-8.715ZM420.16 637.191l6.982 7.159 6.982 7.159 6.982 7.159 6.982 7.159 6.982 7.159 6.982 7.159 6.982 7.159 6.983 7.159 6.982 7.159 6.982 7.159 6.982 7.159 6.982 7.158 6.982 7.159 6.982 7.159 6.982 7.159 6.982 7.159 6.983 7.159 6.982 7.159 6.982 7.159 6.982 7.159 6.982 7.159 6.982 7.159 6.982 7.159 6.982 7.158 6.983 7.159 6.982 7.159 6.982 7.159 6.982 7.159 6.982 7.159 6.982 7.159 6.982 7.159 6.982 7.159 6.982 7.159 6.982 7.159 6.983 7.159 6.982 7.158 6.982 7.159 6.982 7.159 6.982 7.159 6.982 7.159 6.982 7.159 6.982 7.159 6.983 7.159 6.982 7.159 6.982 7.159 6.982 7.159 6.982 7.159 6.982 7.159 6.982 7.158 6.982 7.159 6.982 7.163 6.983 7.16 6.982 7.15 6.982 7.16 6.982 7.16 6.982 7.16 6.982 7.16 6.982 7.16 8.715 8.94 7.071-7.08 3.405-3.4-7.159-6.98-7.159-6.98-7.159-6.99-7.159-6.98-7.159-6.98-7.159-6.98-7.159-6.99-7.159-6.978-7.159-6.982-7.158-6.982-7.159-6.982-7.159-6.982-7.159-6.982-7.159-6.982-7.159-6.982-7.159-6.983-7.159-6.982-7.159-6.982-7.159-6.982-7.159-6.982-7.159-6.982-7.158-6.982-7.159-6.982-7.159-6.982-7.159-6.983-7.159-6.982-7.159-6.982-7.159-6.982-7.159-6.982-7.159-6.982-7.159-6.982-7.159-6.982-7.159-6.983-7.158-6.982-7.159-6.982-7.159-6.982-7.159-6.982-7.159-6.982-7.159-6.982-7.159-6.982-7.159-6.982-7.159-6.983-7.159-6.982-7.159-6.982-7.159-6.982-7.159-6.982-7.158-6.982-7.159-6.982-7.159-6.982-7.159-6.982-7.159-6.983-7.159-6.982-7.159-6.982-7.159-6.982-7.159-6.982-7.159-6.982-7.159-6.982-7.159-6.982-8.935-8.716ZM1641.33 461.856l6.98 7.159 6.98 7.159 6.99 7.159 6.98 7.159 6.98 7.159 6.98 7.159 6.98 7.159 6.99 7.159 6.98 7.159 6.98 7.158 6.98 7.159 6.98 7.159 6.99 7.159 6.98 7.159 6.98 7.159 6.98 7.159 6.98 7.159 6.99 7.159 6.98 7.159 6.98 7.159 6.98 7.159 6.99 7.159 6.98 7.158 6.98 7.159 6.98 7.159 6.98 7.159 6.99 7.159 6.98 7.159 6.98 7.159 6.98 7.159 6.98 7.159 6.99 7.159 6.98 7.159 6.98 7.159 2.94 3.009 7.07-7.072 2.14-2.145-7.16-6.982-7.16-6.982-7.15-6.982-7.16-6.982-7.16-6.982-7.16-6.983-7.16-6.982-7.16-6.982-7.16-6.982-7.16-6.982-7.16-6.982-7.16-6.982-7.15-6.982-7.16-6.982-7.16-6.983-7.16-6.982-7.16-6.982-7.16-6.982-7.16-6.982-7.16-6.982-7.16-6.982-7.15-6.982-7.16-6.982-7.16-6.983-7.16-6.982-7.16-6.982-7.16-6.982-7.16-6.982-7.16-6.982-7.16-6.982-7.15-6.982-7.16-6.983-7.16-6.982-7.47-7.278" stroke="#EFC018" stroke-width="5" stroke-linejoin="round"/><path d="m1329.38 283.518-7.16-6.982-7.16-6.982-7.16-6.982-7.16-6.982-7.15-6.982-7.16-6.982-7.16-6.982-7.16-6.982-7.16-6.982-7.16-6.983-7.16-6.982-7.16-6.982-7.16-6.982-7.15-6.982-7.16-6.982-7.16-6.982-7.16-6.982-7.16-6.983-7.16-6.982-7.16-6.982-7.16-6.982-7.16-6.982-7.16-6.982-7.15-6.982-7.16-6.982-7.16-6.982-7.69-7.5 6.98 7.159 6.98 7.159 6.98 7.159 6.99 7.159 6.98 7.159 6.98 7.158 6.98 7.159 6.99 7.159 6.98 7.159 6.98 7.159 6.98 7.159 6.98 7.159 6.99 7.159 6.98 7.159 6.98 7.159 6.98 7.159 6.98 7.158 6.99 7.159 6.98 7.159 6.98 7.159 6.98 7.159 6.98 7.159 6.99 7.159 6.98 7.159 6.98 7.159 6.98 7.159 6.99 7.159 6.98 7.159 6.98 7.159 6.98 7.158 6.98 7.159 6.99 7.159 6.98 7.159 6.98 7.159 6.98 7.159 6.98 7.159 6.99 7.159 6.98 7.159 6.98 7.159 6.98 7.159 6.99 7.159 6.98 7.158 6.98 7.159 6.98 7.159 6.98 7.159 6.99 7.159 6.98 7.159 6.98 7.159 6.98 7.159 6.98 7.159 6.99 7.159 7.87 8.075 7.07-7.071 2.15-2.145-7.16-6.982-7.16-6.982-7.16-6.982-7.16-6.982-7.16-6.983-7.15-6.982-7.16-6.982-7.16-6.982-7.16-6.982-7.16-6.982-7.16-6.982-7.16-6.982-7.16-6.982-7.16-6.983-7.15-6.982-7.16-6.982-7.16-6.982-7.16-6.982-7.16-6.982-7.16-6.982-6.78-6.611M618.18 441.444v.001M619.263 438.228l-.001.002M622.121 445.232l.792 1.42.001.001 2.726 4.887M629.146 461.256l-.001.001M630.377 457.876l-.002.003M633.848 466.981l.001.001M634.273 452.527l.31.066M649.204 441.417l-.024.211M725.863 338.18l.001.001.19.275M726.195 338.711l.001.001.046.084M729.41 338.761l.126-.237.001-.002.068-.128M735.496 342.172l-4.629-2.597M743.52 347.427l.136.084M745.902 349.732l.001.001.056.081M751.18 352.597l.12-.207.002-.003.001-.002M742.998 347.076l-.519-.351-1.581-1.066M938.098 786.819l-.293.526-.002.002-.333.598-.002.003-.937 1.677M939.592 786.471l-.126.231-.466.858-.204.376-.002.003-.611 1.126-.002.003-.4.737M942.428 785.239l-.002.003-.65 1.267-.002.005-.201.391-.001.002-.055.108-.001.003-.43.837-.001.002-.012.024-.077.149M943.035 788.521l.402.292M944.184 789.459l.256.242M945.184 790.531l.001.001.122.147M945.59 792.947l2.115 1.729.818.669M954.116 800.618l-.44.807M959.117 781.33l.021.187M958.867 798.629l-.159.321v.002l-.079.158-.001.002-.388.784-.001.002-.017.034-.05.101M964.088 794.633l-.748 1.667M1075.99 662.401l.07-.042M1074.1 665.74l1.89-3.339v-.002l.07-.115v-.002l.12-.219M1077.83 657.715l.34-.608M1086.22 682.745l1.97-3.557M1088.24 679.023l.57-1.018 1.27-2.3M961.938 805.324l5.049 3.038 1.964 1.181 8.568 5.155 8.57 5.155 8.57 5.154 8.571 5.155 8.57 5.155 8.57 5.155 8.56 5.154 8.57 5.155 3.1 1.865M1124.3 890.208l1.19-.687M1084 670.049l-4.3-7.126M1092.63 684.341l-3.82-6.336M1178.93 821.292l-.45-.793v-.001l-4.89-8.722-.34-.611-1.58-2.809" stroke="#EFC018" stroke-width="5" stroke-linejoin="round"/></svg>