<svg width="1920" height="1080" fill="none" xmlns="http://www.w3.org/2000/svg"><g clip-path="url(#a)" stroke="#EFC018" stroke-width="5" stroke-linejoin="round"><path d="m1084.48 669.416-.56.307M1084.48 669.415v.002l-.56.307M1085.4 670.012l-.3-.241-.29-.207-.21-.12-.12-.029M953.82 800.434l.012.118.105.226.194.304.143.194M1022.32 747.687l.33.602.21.649.08.672-.05.669-.19.64-.3.586-.42.51-.01.005-.51.409-.59.303-.2.056-.44.124-.67.049-.68-.083-.65-.211-.6-.332-.53-.441-.44-.531-.33-.602-.21-.649-.08-.672.05-.669.18-.639.31-.586.41-.505.01-.006.51-.414.59-.303.65-.179.22-.017.45-.033.67.083.66.211.6.332.53.441.44.531ZM1004.92 762.78l-.06-.107-.04-.067-.23-.42-.22-.639-.08-.657.04-.65.17-.62.3-.564.4-.482.01-.005.5-.392.58-.282.63-.16.67-.032.67.097.64.221.6.339.53.442.44.529.34.595.21.638.09.658-.05.65-.17.62-.3.564-.41.487v.005M1009.68 763.935l-.58.281-.63.159-.67.032-.32-.046-.06-.009-.28-.041-.65-.222-.6-.339M993.07 771.524l.025-.621.076-.297.007-.026.067-.263.271-.528.377-.446.005-.005.476-.355.554-.246.61-.127.642-.004.65.119.633.239.591.348.527.445.442.524.341.584.226.62.102.633-.025.621-.151.586-.272.528-.382.45-.005.004-.414.308-.012.009-.046.033-.554.246-.609.127-.642.003-.65-.12-.632-.238-.59-.349-.527-.444-.442-.524-.34-.582-.226-.62-.103-.632Zm0 0v-.212M997.832 774.904l.029-.008M982.877 779.87l.233-.48.222-.26.008-.01.107-.125.004-.005.436-.305.514-.198.573-.083.61.034.623.15.613.261.578.362.521.448.445.518.351.568.244.595.127.599.005.582-.116.54-.233.48-.065.075-.007.008-.27.316-.005.003-.431.301-.515.197-.573.083-.61-.035-.622-.15-.612-.262-.577-.361-.521-.448-.444-.517-.351-.566-.243-.595-.128-.599-.006-.581.115-.54Zm0 0 .004-.019M987.965 784.244l.006-.003M973.726 787.973l.182-.42.285-.334.003-.004.383-.244.246-.074.008-.002.209-.063.526-.03.567.08.588.188.586.289.561.378.514.452.449.51.364.548.267.564.16.559.045.533-.037.252-.001.007-.032.226-.184.42-.289.337-.004.003-.379.24-.464.139-.525.029-.567-.081-.588-.189-.585-.288-.559-.377-.514-.452-.448-.51-.364-.546-.267-.564-.16-.558-.046-.532.07-.486Zm0 0 .017-.05M978.746 792.388l.013-.006M966.426 793.764l.003-.004.319-.173.402-.073.454.029.015.001.517.134.08.034.011.005.455.192.554.32.54.396.506.457.452.501.381.525.295.53.003.007.004.011.191.494.093.477-.016.422-.123.351-.226.268-.004.002M970.144 798.882l-.517-.134-.545-.232M971.336 798.668l2.795-1.516M966.34 795.746l-.112-.289-.068-.178-.094-.476.015-.422M960.219 798.63l.138-.171.002-.003.012-.015.002-.003.128-.05.12-.048h.333l.405.097.46.191.499.277.518.354.517.416.497.463.004.004.453.487.399.5.326.491.241.462.147.416.046.353-.056.278-.156.191-.003.001-.246.096-.24-.001h-.093l-.405-.098-.46-.191-.499-.278-.517-.354-.516-.415-.495-.461-.263-.282-.193-.208-.399-.5-.326-.489-.241-.462-.147-.416-.047-.354.055-.278Zm0 0 .002-.005M965.254 803.32l3.483-1.949M956.121 801.242l.077-.111.001-.002.172-.019.259.075.336.167.399.251.448.326.48.389.493.436.486.468.461.48.419.475.1.125.018.022.242.304.288.409.204.352.002.006.11.276.016.2-.079.111-.001.001-.172.017-.26-.076-.298-.148h-.001l-.037-.018-.399-.252-.448-.326-.303-.246-.176-.143-.491-.435-.485-.467-.461-.479-.418-.474-.36-.45-.287-.409-.053-.091-.152-.261-.113-.282-.017-.201Zm0 0 .005-.01"/><path d="m961.051 805.983 1.029-.58 2.629-1.481M954.005 801.783l.093.061.182.151.264.236.337.311.396.375.439.425.467.457.476.473.466.469.44.449.394.41.336.356.263.288.181.21.091.122-.001.03-.094-.061-.184-.152-.265-.236-.336-.312-.396-.375-.439-.424-.466-.456-.474-.472-.466-.468-.438-.448-.394-.409-.336-.356-.263-.289-.181-.21-.093-.123.001-.032Zm0 0 .273-.507.231-.43M958.828 806.607l1.491-.829M1074.74 696.123l-.25.395-.34.3-.43.195-.07.011-.43.069-.54-.036-.56-.151-.57-.261-.55-.361-.51-.447-.45-.515-.38-.564-.28-.591-.18-.595-.08-.576.04-.535.13-.39.02-.084.26-.395.35-.299.42-.194.5-.079.54.037.56.152.57.261.55.36.51.446.45.514.37.563.29.59.18.594.07.576-.04.535-.15.475Zm0 0-1.29 2.69"/><path d="m958.825 806.606-.095-.061-.183-.152-.265-.237-.336-.311-.396-.375-.439-.424-.466-.456-.474-.472-.466-.468-.438-.448-.394-.41-.336-.356-.263-.288-.181-.21-.093-.124.001-.031h.001M957.957 805.601l.336.356.263.288.181.209.091.123M954.094 801.843l.182.151M954.879 802.542l.396.375M961.05 805.983l-.001.001-.173.018-.26-.076-.298-.148-.001-.001-.037-.018-.399-.251-.448-.327-.302-.245-.177-.143-.491-.436-.485-.466-.461-.48-.418-.473-.36-.45-.287-.409-.056-.096-.148-.257-.113-.282-.018-.201.008-.011.071-.101.172-.019M957.809 801.93l.479.389.493.437.486.467.462.481.419.474.094.119.023.029.243.303.287.41.204.352.002.006M961.051 805.984l.002-.001M965.462 802.854l-.056.278-.154.189-.001.002-.25.097-.234-.001h-.099l-.405-.098-.46-.191-.498-.278-.517-.353-.516-.416-.496-.461-.263-.283-.193-.207-.398-.499-.326-.49-.242-.462-.147-.416-.047-.353.055-.279.007-.008.135-.167.001-.003.012-.013.002-.001.131-.052.115-.045.333-.001M962.832 799.262l.517.416.496.463.004.004.453.487.399.5M965.27 802.085l.146.416M965.25 803.323l3.491-1.953M961.355 798.44l.461.191M966.99 792.154l-.794 1.88-.122.352-.015.422.094.476.065.17.115.295.018.047.295.528.38.525.451.499.505.457.54.396.553.319.545.232.517.134.468.031.403-.072.32-.172 3.236-1.755"/><path d="m966.195 794.035.008-.01.217-.259.003-.001.316-.172.402-.074.461.031h.007l.518.134.091.038.011.005.444.188.554.32.54.396.506.457.452.501.381.525.293.526.002.003.003.008.195.505.093.477-.016.422-.123.351-.224.265-.002.003M979.121 792.148l-.003.004-.363.23-.021.013-.463.138-.526.03-.567-.082-.587-.188-.585-.289-.56-.377-.513-.452-.448-.509-.364-.547-.267-.563-.16-.559-.046-.532.069-.485.025-.057.158-.363.288-.338.004-.003M977.301 787.365l.561.378.515.453.448.51.365.547M979.457 789.818l.159.559M978.734 792.395l2.765-1.384M988.734 783.548l-.058.068-.007.008-.273.319-.003.005-.422.293-.015.011-.515.197-.573.083-.609-.035-.623-.151-.611-.261-.578-.361-.52-.448-.445-.517-.35-.567-.244-.594-.128-.599-.006-.581.116-.541.012-.026.22-.453.23-.27.008-.009.103-.121.005-.003.431-.302M988.355 780.186l.351.567.244.596.127.599.006.582M987.957 784.252l2.339-.998M984.965 778.412l.61.034.623.15.612.261.578.362M999.507 773.334l-.271.528-.378.445-.004.005-.408.303-.012.009-.056.042-.517.229-.038.017-.609.126-.643.004-.649-.12-.632-.238-.591-.349-.526-.444-.442-.524-.34-.582-.226-.62-.103-.632.009-.221.015-.4.083-.323.007-.027.061-.236.271-.528.381-.451.005-.004.472-.351.554-.246M996.172 768.615l.65.119.632.239.592.348.526.445.443.524.34.584.226.62.102.633M997.824 774.912l1.664-.461M1004.91 762.79l.44.528.53.442.6.339.65.221.44.085"/><path d="m1004.91 762.79-.06-.103-.04-.071-.04-.068-.2-.353-.21-.638-.09-.657.05-.65.17-.62.3-.564.41-.488v-.004l.5-.388.58-.281.63-.16.67-.032.66.096.65.222.6.339.53.442.44.528.33.596.22.638.08.657-.04.651-.17.62-.3.564-.4.482-.01.005-.5.392-.58.281-.64.159-.66.032-.25-.036-.07-.01-.08-.012-.27-.039M1022.38 751.515l-.41.505v.005l-.52.415-.19.096-.4.206-.19.052-.45.128-.68.049-.67-.082-.65-.212-.61-.332-.53-.44-.44-.532-.33-.601-.21-.65-.08-.672.06-.668.18-.64.31-.586.42-.51v-.005l.51-.41M1018.73 746.15l.23-.017.45-.033.67.083.65.211.61.333.53.44.44.531.33.602.21.65.08.672-.05.668M1030.12 740.8l-.6-.33-.54-.439-.44-.532-.33-.604-.21-.653-.08-.677.05-.674.18-.646.3-.593.41-.517.52-.421.58-.31.64-.186.67-.054.67.078.65.208.6.33.53.439.44.532.34.604.21.653.08.676-.05.674-.18.646-.3.593-.42.517-.51.422-.58.31-.64.185-.67.056-.67-.079-.65-.208ZM1041.78 728.869l-.6-.332-.53-.44-.44-.531-.34-.601-.22-.648-.09-.671.03-.667.17-.638.28-.584.39-.509.49-.412.57-.301.62-.179.66-.048.65.083.64.212.6.332.53.439.44.531.34.6.22.648.09.67-.03.667-.17.638-.28.585-.39.508-.49.413-.57.302-.62.179-.65.049-.66-.083-.64-.212ZM1056.87 715.697l-.17.396-.08.165-.36.484-.45.39-.53.279-.59.158-.63.031-.64-.098-.62-.222-.58-.338-.53-.441-.44-.527-.35-.594-.23-.636-.12-.654.01-.648.13-.616.25-.561.36-.484.46-.389.53-.278.57-.151.02-.007.63-.03.63.098.62.222.59.338.52.441.45.526.34.593.24.635.11.654v.648l-.14.616Zm0 0-.35 1.567M1066.38 705.613l-.31.447-.2.173-.21.178-.49.243-.54.125-.59.002-.61-.121-.59-.238-.57-.349-.52-.443-.45-.522-.36-.581-.25-.616-.15-.629-.03-.617.09-.582.21-.523.31-.445.28-.24.13-.112.48-.241.55-.124.59-.002.6.122.6.238.57.348.52.443.44.521.36.579.26.616.14.628.03.617-.09.583-.2.522Zm0 0-.91 2.254M1081.47 688.078l-.18.333-.28.24-.36.136-.43.027-.49-.083-.18-.066-.34-.123-.53-.288-.53-.377-.5-.45-.46-.507-.39-.544-.32-.559-.22-.554-.06-.249-.06-.278-.02-.48.08-.414.19-.332.28-.238.36-.135.43-.027.49.084.52.189.53.288.53.376.5.45.45.506.39.542.32.559.22.553.13.527.02.479-.09.415Zm0 0-1.62 3.061M1076.67 683.272l-1.37.564M1086.26 681.984l-.21.169-.29.07-.36-.033-.43-.135-.47-.232-.49-.319-.51-.394-.49-.455-.46-.498-.41-.52-.35-.525-.14-.271v-.003l-.02-.038-.11-.195-.18-.471-.08-.417v-.07l.01-.276.11-.263.01-.008.01-.004.19-.156.2-.049.09-.02.36.035.43.135.47.232.49.319.51.394.33.307.01.007.15.14.18.198v.001l.28.297.41.52.34.523.27.507.18.471.01.031.08.385-.01.347-.11.264Zm0 0-1.9 3.448"/><path d="m1081.59 676.94-.23.105v.002l-.52.244v.002M1089.28 677.41l-.13.095-.21-.002-.13-.042-.17-.057-.12-.065-.24-.127-.42-.277-.04-.03v-.001l-.42-.322-.47-.414-.49-.459-.09-.101v-.002l-.02-.021-.35-.363-.43-.496-.39-.486-.31-.458-.24-.41-.15-.349-.07-.273.04-.187.05-.04.01-.002.06-.051.22.003.29.1.37.192.41.278.15.116.31.236.48.413.48.458.46.487.43.495.33.418v.001l.06.066.31.456.24.411.09.195.07.154.06.274-.03.187Zm0 0-.35.616-1.68 3.016"/><path d="m1084.56 672.47-.08.041-.01.001-1.25.642M1090.27 674.802l-.04.017-.14-.077-.22-.167-.3-.251-.31-.275v-.003l-.05-.047-.42-.387-.45-.434-.48-.465-.47-.476-.45-.471-.41-.446-.37-.405-.3-.348-.22-.278-.13-.193-.01-.003v-.001l-.04-.107.04-.016.14.078.22.167.31.252.36.325.42.387.45.433.47.463.47.476.45.469.41.446.37.404.3.348.22.279.14.197.04.109Zm0 0-1.09 1.993"/><path d="m1085.46 669.985-.05.027v.001l-.45.239v.001l-.54.293M723.661 335.319l-8.725-4.886-6.522-3.653-8.882-4.595-8.881-4.595-8.882-4.596-4.324-2.237-8.913-4.532-8.914-4.533-8.914-4.532-4.385-2.23-9.162-4.006-9.162-4.007-9.163-4.006-5.126-2.242-9.577-2.878-9.577-2.879-9.576-2.879-9.577-2.879-9.577-2.878-9.576-2.879-9.577-2.879-2.892-.869 2.85 9.585 2.851 9.585 2.85 9.585 2.85 9.586 2.85 9.585 2.851 9.585 2.85 9.585.864 2.906 3.985 9.171 3.986 9.172 3.985 9.171 2.232 5.137 4.516 8.922 4.515 8.923 4.515 8.923 2.224 4.395 4.579 8.89 4.578 8.89 4.579 8.89 2.234 4.338 4.871 8.733 3.498 6.272M1079.11 664.899l-1.62 3.258-4.12 5.699-5.55 6.768v.003l-.95 1.148v.008l-.03.031-3.33 3.81-.01.006-1.04 1.185v.007l-.46.521-2.65 3.025v.008l-1.2 1.366-1.88 2.056-.01.008-.88.964-.01.008-2.22 2.436-2.18 2.382-.01.008-3.34 3.654-.17.18-.01.009-.46.491-.01.009-3.41 3.605-1.85 1.953-.01.009-4.21 4.458-.01.01-.03.026-1.78 1.889-2.4 2.466-1.49 1.534-.01.009-4.48 4.607-.01.01-.51.524-3.98 4.085-.31.309-1.1 1.101v.009l-4.65 4.652-5.98 5.982-1.21 1.218-3.42 3.331-5.95 5.798-3.71 3.616-.743.703-5.674 5.371-.405.382-3.917 3.708-1.602 1.516-3.421 3.125-.882.806-3.482 3.18-3.308 3.022-.502.437-1.224 1.065-3.665 3.19-1.747 1.521-.228.198-2.033 1.771-7.344 5.923-5.027 3.464-2.553.914"/><path d="m947.713 794.633-.213.35.023 1.66 2.592-.922 5.112-3.52 7.474-6.027 2.759-2.401.41-.358 2.019-1.756 3.435-2.99.947-.824.303-.277 3.904-3.565 3.398-3.104.901-.823 2.792-2.55 2.267-2.146 3.887-3.679.404-.382 5.691-5.386.322-.305 4.12-4.02 5.94-5.782 3.26-3.18 1.38-1.387 5.96-5.967 4.67-4.667.01-.008 1.11-1.117.38-.375 3.86-3.971.52-.539.01-.011 4.5-4.622.01-.01 1.49-1.534 2.72-2.797 1.46-1.537.03-.039.01-.008 4.21-4.448v-.009l1.85-1.953 3.42-3.62.01-.009.47-.491.01-.009.71-.752 2.78-3.041v-.008l2.18-2.378 2.29-2.506.01-.007.88-.964.01-.008 2.57-2.817.44-.495v-.008l2.6-2.966.61-.696.01-.007 1.09-1.253.01-.007 3.11-3.557.01-.008.97-1.112.31-.371v-.005l.13-.161v-.003l6.2-7.559 4.19-5.797 1.64-3.31-.94-.743-1.27.67M739.765 344.797l-3.32.938-5.366 3.093-7.231 5.159-.351.28-.001.001-.051.04-.003.003-1.076.858-.007.006-2.669 2.13-.005.005-1.243.992-.006.004-1.201.958-2.215 1.768-.164.142-.007.005-2.362 2.031-.007.006-.853.732-.007.006-2.319 1.994-2.042 1.755-.007.005-2.315 1.991-1.257 1.143-.008.007-.142.129-.008.007-2.244 2.041-1.95 1.774-.007.006-4.799 4.365-.008.008-.511.464-2.855 2.725-.007.007-5.949 5.677-.009.009-2.445 2.333-.007.008-.06.057-6.449 6.436-2.34 2.336-2.47 2.466-3.477 3.631-3.076 3.213-4.161 4.345-.552.606-3.721 4.084-.047.052-3.473 3.813-1.93 2.118-1.93 2.25-.65.758-2.168 2.528-3.215 3.749-.372.434-.611.771-1.922 2.433-1.437 1.818-.312.394-2.337 2.957-4.655 6.705-2.532 4.791-.342 2.719M628.492 455.866l1.459 2.168.351.522M1070.6 654.515l-.5-.611v-.003l-.05-.058-6.33-7.737-6.34-7.737-6.33-7.737-6.34-7.736-3.09-3.769-6.5-7.599-6.5-7.598-6.5-7.599-6.5-7.599-6.5-7.598-5.51-6.447-6.683-7.443-6.679-7.442-6.679-7.443-6.678-7.443-6.679-7.443-5.617-6.259-6.853-7.283-6.853-7.283-6.853-7.282-6.853-7.283-6.852-7.283-5.73-6.089-7.47-6.649-7.469-6.649-7.47-6.649-7.469-6.649-7.469-6.649-6.289-5.598-7.694-6.387-7.695-6.387-4.646-3.856-7.694-6.387-7.695-6.387-7.694-6.388-1.93-1.601-8.062-5.916-8.063-5.916-8.062-5.916-8.063-5.915-8.062-5.916-7.198-5.282-8.29-5.593-5.765-3.889-8.29-5.593-8.289-5.593-6.961-4.696-1.136-.766-.848-.572"/><path d="m742.457 346.612.836-2.812-1.215-1.281-2.248-1.737-3.443.949-.631.361-4.935 2.824-2.307 1.64-.001.001-.495.352-.006.004-1.215.863-.003.002-1.964 1.396-.004.003-.69.491-.006.004-.811.576-.907.722-.005.004-.665.53-.005.004-2.53 2.014-.005.004-1.742 1.387-.008.006-1.169.93-.006.005-.872.695-.006.004-1.242.989-1.205 1.034-.006.005-5.102 4.378-.013.011-.844.724-.003.003-3.294 2.826-7.401 6.725-3.948 3.588-7.236 6.902-4.528 4.319-7.078 7.065-4.607 4.598-6.914 7.225-4.202 4.389-6.73 7.396-3.353 3.684-4.227 4.936-2.161 2.525-.523.611-.785.916-.942 1.1-.88 1.117-1.981 2.513-.667.846-1.294 1.641-.603.764-1.426 1.809-.309.448-.44.636-.853 1.233-3.206 4.64-1.777 3.391-.827 1.578-.331 2.82 1.736 2.25 1.912.586 1.844-.74"/><path d="m742.076 342.52-3.444.964-5.579 3.209-7.524 5.365-1.393 1.112-.002.001-.608.485-.004.003-1.861 1.485-.006.005-2.126 1.696-.006.005-1.282 1.022-.006.005-1.414 1.128-.486.388-1.796 1.543-.007.006-2.344 2.014-.007.007-.831.713-.007.007-2.231 1.916-2.057 1.768-.007.006-1.22 1.049-2.602 2.365-.008.008-.059.054-.001.001-.007.006-1.798 1.635-2.107 1.916-.007.007-4.808 4.372-.441.421-.009.008-2.777 2.651-.008.007-6.821 6.51-.009.009-1.282 1.223-.007.007-.46.439-7.078 7.065-.123.123-1.175 1.172-3.363 3.357-3.498 3.653-2.466 2.575-5.188 5.42-.017.017-3.412 3.746-.005.005-3.698 4.061-3.018 3.313-.796.928-.612.714-2.209 2.576-3.307 3.856-1.035 1.207-.725.845-.937 1.186-1.888 2.39-.847 1.072-3.218 4.072-4.839 6.977-2.625 4.98-.343 2.818M1079.11 664.9l-1.02-1.25-1.58-1.927M635.043 465.6l.001.002.698 1.038 5.583 8.296 5.583 8.297 4.889 7.263 5.582 8.297 3.887 5.776 5.909 8.068 5.908 8.068 5.908 8.068 5.908 8.068 5.909 8.068 5.293 7.229 6.383 7.698 6.383 7.698 6.382 7.698 1.613 1.945 6.383 7.698 6.382 7.698 3.865 4.661 6.646 7.472 6.646 7.471 6.646 7.472 6.647 7.472 6.646 7.472 5.621 6.319 7.284 6.851 7.284 6.852 7.284 6.851 7.284 6.852 7.284 6.851 6.119 5.756 7.445 6.676 7.445 6.677 7.445 6.676 7.445 6.676 7.445 6.676 6.29 5.641 7.602 6.497 7.601 6.497 7.602 6.498 7.602 6.497 7.602 6.497 6.476 5.535 7.741 6.331 7.741 6.332 7.74 6.331 7.741 6.331 4.033 3.298.557.456.001.001M1150.72 838.803l2.81-3.125 5.67-6.75 4.6-5.962 3.36-4.943 2-3.738.57-2.401M1095.88 885.892l2-.173 3.36-1.625 4.59-3.028 5.66-4.325 6.51-5.457 7.1-6.377.2-.194 7.2-6.847 2.4-2.409 3.21-3.221M947.52 796.644l6.3 3.79.685.413M1169.73 811.884l-1.6-2.651-5.17-8.562-5.17-8.561-5.16-8.561-5.17-8.562-5.17-8.561-5.17-8.561-5.16-8.562-5.17-8.561-5.17-8.561-5.17-8.562-5.16-8.561-5.17-8.561-5.17-8.562-5.17-8.561-5.16-8.561-1.69-2.787M1127.55 904.292l8.65 5.023 4.42 2.564 1.62-.055 2.62-1.142 3.53-2.193 4.3-3.164.04-.035 4.87-3.98 2.58-2.285 1.1-.977 1.64-1.448 4.33-4.089 1.01-.961.1-.091.08-.079 5.51-5.519 1.13-1.196M1185.05 873.57l3.16-3.85.93-1.25 2.44-3.277 2.44-3.788 1.41-2.907.35-1.918-5.03-8.64-2.73-4.688"/><path d="m1179.35 821.841-.38-.676v-.005l-.18-.308-4.88-8.726-1.57-2.795-.94-1.044-2.41.494-.86.452M1173.95 862.308l1.16-1.299 5-6.049 4.04-5.365 2.93-4.473.94-1.87.77-1.543.44-2.229-4.89-8.725-2.02-3.62M1111.33 898.579l8.74 4.872 3.42 1.913 1.88-.088 2.19-.984.88-.399 4.16-2.635 5.1-3.795 5.83-4.81 5.34-4.749 1-.889.59-.558 5.41-5.123.59-.56 1.02-1.015 5.56-5.578.36-.38M1093.55 884.494l-.85 2.663.61 1.37 8.74 4.872 3.02 1.688.92.514v.001"/><path d="m1172.34 809.331-.59 2.559-2.13 3.993-3.59 5.285-4.93 6.381-6.07 7.228-3.94 4.395M1138.51 852.522l-2.83 2.84-.46.461-.68.682-2.04 2.043-6.85 6.513-1.08 1.03-7.44 6.683-.16.148-6.97 5.841-6.06 4.625-4.91 3.235-3.59 1.731-2.13.173M1196.37 885.125l.6-.949.83-1.757.21-1.177-5.71-8.213-3.16-4.559M1152.73 905.291l8.22 5.695 4.37 3.027 1-.029 1.59-.672 2.11-1.291 1.94-1.406.63-.457.05-.039 2.86-2.324 3.15-2.773.68-.637.61-.575 1.97-1.861 3.25-3.253 2.27-2.427M965.132 809.324l-.781 9.97-.78 9.969-.781 9.97-.781 9.969-.582 7.444-.781 9.969-.781 9.97-.78 9.969-.781 9.97-.781 9.969-.78 9.97-.781 9.969-.78 9.97-.229 2.923.757.762 7.588 6.513 7.588 6.514 7.588 6.513 7.587 6.513 7.588 6.514 7.591 6.513 7.59 6.514 7.58 6.513 5.5 4.716 7.93 6.09 7.39 5.69 7.93 6.09 7.4 5.69 7.92 6.09 7.4 5.68 7.92 6.1 7.39 5.67 6.95-7.19 1.53-1.58-3.64-9.32-3.63-9.32-2.76-7.07-3.18-9.49-3.17-9.481-2.61-7.812-3.46-9.383-3.46-9.382-2.7-7.307-.74-9.972-.74-9.973-.74-9.972-.26-3.449 4.65-8.852 4.65-8.853 4.65-8.852 4.66-8.852 3.5-6.674-8.52-5.23-8.52-5.229-8.53-5.23-8.52-5.229-8.53-5.23-8.52-5.23-8.52-5.229-8.53-5.23-8.52-5.229-8.524-5.23-8.523-5.23-8.524-5.229-8.523-5.23-5.961-3.657-.793-.26Z"/><path d="m965.926 809.584-.78 9.97-.78 9.969-.781 9.97-.78 9.969-.597 7.626-.78 9.97-.781 9.969-.78 9.97-.781 9.969-.78 9.97-.78 9.969-.781 9.97-.78 9.969-.254 3.243M1236.05 776.616l9.39 3.447 9.38 3.447 6.56 2.409 9.49 3.157 9.49 3.156 7.02 2.334 9.32 3.624 9.32 3.624 6.3 2.451 2.11.238 6.94-7.195 1.31-1.352-6.12-7.915-5.58-7.227-6.11-7.914-5.58-7.224-6.11-7.914-5.58-7.221-6.11-7.915-5.58-7.218-6.52-7.579-6.52-7.58-6.52-7.58-6.53-7.579-6.52-7.58-6.52-7.58-6.53-7.579-6.52-7.58-3.99-4.636-9.96.835-9.97.835-9.96.834-9.97.835-9.96.834-9.97.835-9.96.835-9.97.834-.81.068-9.96.834-9.97.835-9.96.834-9.97.835-6.59.552-1.27.231 5.25 8.511 5.25 8.51 5.25 8.511 5.25 8.511 5.25 8.511 5.25 8.51 5.26 8.511 5.25 8.511 5.25 8.511 5.25 8.51 5.25 8.511 5.25 8.511 5.25 8.511 3.28 5.324 1.55.211 8.74-4.851 8.75-4.851 8.74-4.851 8.74-4.852 5.78-3.206 9.98.666 9.98.667 9.98.666.78.052Zm0 0 1.78.119"/><path d="m1092.76 680.771 5.25 8.51 5.25 8.511 5.25 8.51 5.25 8.511 5.25 8.511 5.25 8.51 5.25 8.511 5.25 8.512 5.25 8.51 5.25 8.511 5.25 8.51 5.25 8.51 5.25 8.511 3.56 5.768M1237.82 776.735l9.39 3.447 9.39 3.447 6.7 2.459 9.48 3.156 9.49 3.157 7.12 2.366 9.32 3.624 9.32 3.624 6.39 2.488M1072.69 652.352v-.001l-2.64 1.493"/><path d="M1072.69 652.351v.001l-2.64 1.492M1073.56 652.88l-.24-.188-.29-.202-.21-.115-.12-.024M937.88 786.59l-1.138 2.024.008.14.101.226.188.304.091.126M1000.92 734.313l.05-.176.15-.481.33-.606.43-.524.01-.005.53-.434.61-.322.36-.108.2-.06.1-.029.69-.064.69.071.66.202.61.328.53.439.44.534.33.608.2.659.06.686-.06.684-.2.657-.33.606-.44.53v.004l-.53.429M1007.89 737.849l.59-.716.44-.817.27-.888.09-.925-.09-.925-.27-.891-.44-.822M1005.07 738.459l-.69.065-.69-.071-.66-.203-.61-.327-.53-.439-.44-.534-.33-.608-.2-.659-.06-.685.06-.657M989.24 748.864l-.07-.128-.037-.068-.222-.405-.206-.648-.063-.556-.013-.114.003-.031.055-.635.19-.637.313-.583.421-.501.005-.006.521-.411.598-.3.65-.176.355-.025.158-.011.165-.011.679.085.655.213.606.333.533.441.439.532.329.601.207.648.075.67-.058.667-.19.637-.314.583-.426.506-.006.005-.516.406-.597.3-.65.176-.678.046-.369-.046-.068-.008-.242-.031-.655-.213-.605-.333-.532-.441-.44-.531Zm0 0-.073-.104M996.164 749.333l.006-.004.575-.684.424-.788.257-.86.079-.901-.102-.905-.278-.876-.445-.812M991.473 750.382l.166.033M976.984 758.056l.037-.636.095-.348.008-.027.062-.227.286-.546.393-.464.005-.005.493-.373.57-.263.624-.144.655-.018.649.107.012.002.11.039.531.191.597.344.529.444.441.526.337.589.218.63.093.645-.037.636-.166.602-.287.546-.398.468-.005.004-.45.34-.013.009-.025.02-.57.262-.625.143-.655.018-.66-.109-.64-.231-.596-.343-.529-.444-.441-.526-.336-.588-.043-.125-.044-.127-.132-.377-.093-.644Zm0 0 .009-.304M984.934 760.064l.006-.004.538-.633.388-.737.224-.814.05-.86-.124-.871-.296-.851-.454-.796M981.777 761.409l.027-.007M966.434 766.814l.246-.496.247-.29.008-.01.095-.112.004-.004.45-.322.528-.214.586-.098.621.022.632.14.62.254.417.256.116.071.05.03.523.448.444.52.348.573.237.603.119.611-.005.594-.128.556-.247.495-.08.094-.007.008-.268.314-.005.004-.446.317-.528.213M968.555 771.07l-.582-.357-.522-.447-.107-.124-.09-.106-.247-.289-.347-.572M974.57 769.692l.005-.004.481-.562.334-.67.174-.751.007-.803-.16-.826-.321-.816M956.974 775.307l.193-.433.296-.349.003-.004.394-.258.272-.088.009-.003.193-.063.535-.042.577.069.595.18.592.282.564.374.516.452.382.436.066.076.036.055.326.497.262.572.153.569.037.543-.044.274-.001.007-.035.218-.194.433-.3.352-.004.003-.39.254-.475.152-.535.042-.576-.07-.595-.18-.501-.239-.089-.043-.064-.042-.5-.332-.515-.451-.447-.511-.361-.551-.263-.571-.153-.568-.038-.543.079-.499Zm0 0 .022-.059M962.004 779.713l.012-.006M965.398 777.908l.005-.003.406-.476.262-.586.109-.674-.05-.735-.205-.769M949.221 781.679l.23-.277.003-.003.327-.186.41-.084.475.021.362.086.162.039.111.045.011.004.429.174.558.315.543.393.507.457.452.502.379.529.292.535.004.01.004.011.18.486.005.014.054.299.033.187-.022.432-.131.363-.234.279-.004.002-.324.183-.41.083-.071-.004-.288-.013-.117-.005-.523-.125-.55-.225-.557-.314-.542-.393-.506-.455-.451-.502-.379-.528-.125-.228-.167-.306-.067-.18-.126-.34-.088-.485.021-.433.13-.363Zm0 0 .002-.005M954.039 786.495l.161-.089M957.715 784.463l.004-.002.317-.378.177-.491.031-.585-.117-.658M943.086 786.539l.147-.186.002-.002.008-.01.001-.003.202-.085.051-.022.337-.008.409.089.464.185.502.272.52.35.519.414.498.461.21.227.01.011.236.255.398.503.325.495.238.468.143.423.043.361-.06.286-.16.2-.003.001-.251.104-.195.005h-.003l-.14.003-.409-.09-.463-.185-.502-.273-.519-.349-.518-.413-.496-.461-.072-.078-.384-.413-.397-.503-.325-.494-.238-.467-.144-.423-.043-.361.059-.287Zm0 0 .003-.006"/><path d="m948.129 791.222 2.808-1.602.529-.302.265-.151.006-.003.003-.002M951.742 789.162l.218-.271.064-.302.018-.085M938.922 789.329l.078-.116.001-.001.173-.025.26.07.336.161.401.247.449.323.48.386.493.435.487.468.462.481.418.476.216.272.144.182.287.413.203.357.033.084.079.202.015.206-.081.116-.002.001-.172.023-.26-.071-.226-.109h-.001l-.11-.053-.401-.247-.448-.323-.193-.155-.286-.231-.492-.434-.486-.466-.46-.48-.418-.476-.36-.453-.287-.412-.203-.357-.113-.287-.016-.207Zm0 0 .006-.012M943.855 794.067l1.857-1.068 1.924-1.106M936.824 789.965l.091.058.18.149.262.234.335.31.395.373.438.424.466.457.476.472.467.47.44.449.396.412.337.357.265.291.183.211.093.125.001.032-.092-.059-.18-.15-.263-.234-.335-.31-.394-.374-.438-.422-.465-.456-.475-.471-.466-.469-.439-.448-.395-.411-.337-.358-.265-.29-.184-.212-.095-.126-.002-.034Zm0 0 .307-.554.297-.538 1.01-1.826M941.648 794.79l1.545-.879M1062.01 679.462l-.27.407-.36.312-.44.205-.06.01-.45.08-.55-.027-.58-.145-.57-.256-.56-.358-.17-.147-.11-.096-.23-.203-.45-.517-.37-.567-.28-.597-.17-.603-.06-.585.05-.546.13-.378.03-.107.27-.406.36-.311.45-.204.51-.089.55.028.57.145.58.257.55.357.51.445.45.516.13.205.08.123.16.239.28.595.17.602.06.585-.05.546-.16.485Zm0 0-1.37 2.787M1057.62 674.423l-2.78.972M1056.2 683.045l.78.346.78.195.74.037.69-.123.6-.278.49-.423.36-.55"/><path d="m941.644 794.756.001.033-.092-.059-.181-.15-.262-.234-.335-.31-.394-.374-.438-.422-.465-.456-.475-.472-.466-.468-.439-.449-.395-.411-.337-.357-.265-.29-.184-.212-.094-.126-.003-.034.091.058.18.149M940.371 793.361l.396.411M941.105 794.13l.265.29M938.086 791.089l.438.424M943.172 792.507l.144.181.287.414.203.356.033.084v.001l.079.202.015.206-.08.115-.001.001-.174.024-.26-.071-.226-.109-.111-.053-.4-.248-.449-.322-.193-.156-.286-.23-.492-.435-.486-.466-.46-.48-.418-.475-.359-.453-.287-.413-.204-.356-.112-.288-.017-.206.009-.014.07-.104h.002M939.172 789.188l.26.07.337.161.4.246.449.323M943.852 794.067l.003-.001M948.127 791.223l-.002.002-.254.106-.188.004h-.004l-.145.003-.409-.09-.464-.185-.501-.273-.52-.349-.517-.413-.497-.461-.073-.079-.382-.412-.398-.502-.324-.494-.239-.468-.144-.422-.043-.362.059-.287.008-.009.143-.181.001-.002.007-.008.003-.001M948.16 789.956l.143.422.042.362-.06.285M943.445 786.254l.046-.019.337-.009.408.09.464.184M951.734 789.165l.001-.001M948.125 791.225l2.812-1.604.529-.302.271-.154M946.246 787.535l.497.462.208.224.011.012.238.256M954.726 785.674l-.131.362-.232.276-.002.003-.161.091-.167.094-.41.083-.069-.003-.288-.013-.119-.006-.523-.125-.551-.224-.557-.315-.542-.393-.506-.455-.451-.502-.378-.527-.126-.231-.166-.304-.07-.187-.123-.332-.088-.486.021-.433.13-.363.008-.01.225-.27.003-.002.324-.184.409-.084M952.293 781.818l.543.393.507.457.452.503.379.529M957.266 784.715l.444-.25.003-.003M954.031 786.5l3.235-1.785M950.66 781.155l.37.088.153.037M950.757 778.206l-.576 1.298-.966 2.18M962.966 778.179l-.043.266-.001.008-.036.224-.193.434-.297.348-.003.004-.375.244-.02.013-.474.152-.536.042-.576-.07-.594-.18-.5-.239-.091-.043-.062-.042-.501-.332-.516-.451-.446-.511-.362-.551-.262-.571-.153-.568-.038-.544.079-.498.029-.066.163-.368.299-.352.005-.003.389-.255.282-.091.008-.003.184-.06.535-.042M960.031 774.323l.592.282.564.374.517.452.382.437.065.075.037.056.325.496.262.572M964.863 778.26l.534-.348.003-.004M958.063 772.308l-1.098 3.007M961.996 779.72l2.866-1.46M967.058 764.234l-.633 2.587-.127.555-.005.595.119.61.238.602.347.572.248.29.09.106.106.123.523.447.581.357.619.254.632.141.62.022.586-.097.528-.213 2.425-1.055"/><path d="m966.426 766.821.014-.028.232-.468.255-.3.009-.01.09-.106.005-.004.445-.318.528-.213.586-.099.621.022.632.14.62.254.418.256.116.072.049.029.523.448.444.52.348.573.237.603.119.611-.005.595-.128.555-.247.495-.073.086-.007.008-.271.318-.004.004-.435.31-.016.011M973.957 770.13l.609-.434.004-.004M982.838 760.779l-.005.006-.443.334-.012.009-.038.029-.533.246-.037.017-.625.143-.654.017-.661-.109-.64-.23-.596-.344-.529-.443-.44-.526-.337-.589-.043-.124-.044-.127-.132-.378-.092-.644.018-.313.018-.323.103-.375.007-.027.055-.2.287-.546.397-.469.005-.004M983.41 757.257l.219.629M983.721 758.531l-.037.636M977.021 756.397l-.044 1.668M983.496 760.927l.77-.355.667-.503.004-.005M979.547 755.034l.655-.018M981.77 761.419l1.726-.492M980.863 755.123l.111.04.53.191M994.594 749.54l-.005.005-.521.411-.598.3-.65.176-.677.047-.302-.038-.068-.009-.133-.016-.177-.023-.654-.213-.606-.333-.532-.441-.439-.531-.063-.114-.045-.082-.037-.068-.184-.337-.207-.648-.062-.555-.013-.114.002-.031.056-.636.189-.636.314-.583.425-.507.006-.005M994.965 745.232l.329.601.206.648.075.671-.058.666-.19.637M988.922 748.435l.31.44M994.645 750.298l.807-.404.705-.555.005-.006M990.727 743.852l.65-.177M992.055 743.628l.68.085.655.213.606.334M991.461 750.393l.474.092M1003.02 738.262l-.61-.327-.53-.439-.44-.534-.33-.608-.2-.66-.07-.685.07-.656v-.028l.05-.176.15-.482.33-.605.43-.53.01-.005.53-.429.61-.321.36-.109.2-.059.1-.029.69-.064.68.07.67.203.61.327.53.439.44.534.32.609.21.659.06.685-.06.685-.2.657-.33.605-.43.524-.01.006-.53.434-.61.322-.66.196-.69.064-.69-.07-.66-.203ZM1015.42 725.884l-.61-.325-.53-.438-.44-.535-.33-.61-.2-.663-.07-.689.06-.69.04-.135.06-.202.1-.326.32-.612.44-.537.53-.44.6-.328.37-.112.2-.064.09-.027.68-.069.69.066.66.2.61.325.53.438.44.535.33.61.2.662.07.689-.07.69-.19.663-.32.612-.44.537-.53.44-.6.329-.66.202-.69.07-.68-.066-.66-.2ZM1020.98 723.567l.08-.931-.09-.931M1015.42 727.331l.93.09.92-.094M1025.36 714.748l.82.442.87.275.91.097.9-.084.87-.263.79-.431.33-.28.01-.007.35-.296M1027.58 713.467l-.6-.328-.53-.439-.44-.533-.33-.607-.22-.657-.08-.683.02-.301.02-.155.01-.226.18-.654.3-.603.42-.526.51-.431.58-.319.64-.194.42-.038.16-.015.09-.009.67.073.65.203.6.328.53.438.44.533.34.606.21.657.08.683-.05.681-.18.655-.3.602-.41.527-.51.431-.59.319-.64.195-.67.062-.67-.072-.65-.203ZM1036.44 703.196l.8.451.85.29.88.118.87-.059.82-.233.74-.398.64-.549.51-.677.36-.78M1043.3 699.736l-.17.371-.1.206-.38.501-.47.406-.55.294-.61.173-.64.043-.65-.087-.63-.215-.59-.334-.53-.44-.44-.53-.34-.598-.23-.645-.01-.061-.02-.131-.07-.473.02-.662.15-.631.27-.577.38-.5.47-.405.55-.294.56-.158.05-.014.64-.043.65.088.14.049.12.04.37.126.59.334.52.44.45.529.34.597.22.644.11.665-.02.661-.15.631Zm0 0-.38 1.624M1039.96 694.931l-1.56-.06M1046.58 692.35l.78.465.82.314.83.151.81-.018.76-.186.68-.347.58-.494.44-.622.3-.727M1053.46 688.741l-.22.538-.33.46-.2.167-.23.198-.5.257-.56.137-.6.013-.62-.112-.6-.233-.58-.344-.52-.443-.45-.524-.14-.242-.07-.107-.14-.236-.25-.624-.13-.638-.02-.629.11-.594.22-.538.33-.459.27-.233.15-.132.5-.255.57-.136.6-.012.61.112.61.233.57.344.07.056.09.08.36.306.45.523.35.584.25.623.14.638.01.628-.1.594Zm0 0-.88 2.146M1049.45 684.031l-2.29.492M1069.08 671.171l-.2.342-.29.248-.37.143-.45.035-.49-.076-.17-.058-.01-.004-.19-.067-.16-.055-.54-.285-.53-.375-.5-.45-.46-.508-.39-.546-.31-.564-.21-.56-.05-.226-.07-.307-.01-.488.1-.422.2-.34.29-.247.37-.142.45-.034.49.077.53.185.54.284.53.374.5.45.46.507.38.545.31.563.22.558.04.199.05.204.02.131.01.487-.09.422Zm0 0-1.71 3.17M1064.27 666.36l-.89.387-.01.003-1.88.818-.01.003M1064.22 675.031l.71.248.67.102.6-.048.51-.195.39-.335.27-.463M1074.13 664.915l-.22.175-.3.074-.37-.029-.43-.131-.48-.228-.5-.317-.51-.394-.49-.454-.46-.499-.41-.522-.27-.417v-.003l-.02-.034-.05-.073-.26-.511-.18-.475-.06-.319v-.006l-.01-.096.02-.351.12-.268v-.004l.01-.004.2-.165.21-.05.09-.023.38.03.43.132.48.229.5.316.5.393.39.355v.008l.1.091.38.406v.001l.08.09.41.521.34.526.27.51.17.475.01.076.07.345-.02.352-.12.268Zm0 0-1.15 2.043-.32.567-.54.957"/><path d="m1069.47 659.864-.24.115-.01.003-.61.303-.01.002-1.99.977-.01.003-.34.171M1070.63 668.693l.3.09.02.002.48.036.41-.102.29-.237M1077.34 660.258l-.13.097-.22-.001-.05-.016-.25-.081-.37-.191-.33-.217-.09-.06-.46-.351-.48-.414-.41-.391v-.001l-.01-.01-.06-.058-.47-.487-.43-.497-.38-.487-.31-.458-.23-.412-.15-.35-.06-.275.04-.187v-.001l.01-.002.13-.093.22.001.3.099.36.191.43.277.46.351.47.413.49.459.46.486.43.496.38.486.03.052v.001l.28.405.23.411.12.275.03.076.06.275-.04.189Zm0 0-.83 1.464-1.3 2.288M1072.62 655.315l-.14.077-.01.002-.8.425-.45.239-.12.061v.001l-.3.162-.01.002-.03.016-.45.24v.001l-1.37.724M1074.73 664.142h.3l.18-.132M1078.45 657.652l-.04.015-.14-.078-.23-.169-.3-.252-.29-.259-.01-.005-.07-.063-.42-.388-.45-.434-.47-.465-.47-.477-.45-.47-.42-.445-.36-.404-.3-.347-.22-.276-.07-.105v-.005l-.06-.085-.04-.106.05-.014.14.079.22.17.3.252.37.327.42.387.45.434.47.464.47.475.45.469.42.445.36.403.3.347.22.277.13.195.04.108Zm0 0-1.16 2.066M1073.64 652.834l-.08.045-.45.247v.001l-2.09 1.158v.002l-.41.228M1179.79 820.281l-.03.015-.97.555M1181.35 821.604l-.2-.202-.27-.252-.25-.234-.24-.208-.21-.173-.17-.132-.13-.086-.09-.036M1105.07 895.087l-.36.645-.03.04.03.092.08.139.12.182.17.216.2.244.09.104M1143.21 868.605l.11-.356.18-.328.24-.286.29-.235.34-.173.36-.106.37-.034.38.039.33.103.03.008.33.178.29.239.24.29.17.33.04.137.07.221.04.371-.04.371-.11.356-.18.328-.24.286-.29.235-.33.173-.36.106"/><path d="M1146.88 870.413v-.002l.32-.387.24-.443.14-.455.01-.027.05-.501-.05-.502-.14-.483-.24-.447-.32-.392M1145.09 870.892l-.37-.039-.36-.111-.33-.178M1143.5 870.036l-.18-.33-.11-.358-.03-.371M1136.76 874.372l.23-.272.29-.219.33-.158.36-.093.37-.022.37.049.36.118.33.183.29.24.24.288.18.326.11.35.04.361-.04.359-.11.343-.17.312-.24.271-.29.219M1140.43 876.589v-.002l.32-.367.05-.099.19-.323.14-.463.05-.485-.05-.489-.15-.474-.24-.44-.32-.389M1137.62 877.133l.36.118.08.01.29.039.38-.022M1136.59 876.097l-.11-.35-.01-.042-.03-.32.04-.358M1137 876.711l-.16-.2M1130.21 880.32l.23-.248.27-.196.32-.136.35-.072.36-.004.37.063.35.129.33.189.28.242.24.286.18.318.12.339.04.347-.02.34-.1.322-.16.29-.23.248-.01.006-.01.005-.26.185M1134.16 882.29v-.002l.3-.335.23-.392.13-.435.03-.461-.06-.468-.15-.458-.25-.431-.32-.387M1131.47 883.121l.36.064.37-.004M1129.97 881.62l-.05-.346.03-.307v-.034M1130.26 882.276l.24.286.29.242M1123.82 886.451l.02-.317.08-.295.14-.261.02-.015v-.005l.19-.197.25-.166.3-.108.33-.045.35.019.35.082.35.143.32.197.28.245.25.282.18.31.12.324.06.327-.01.317-.08.294-.09.162v.004l-.06.095-.2.218-.26.165-.3.108-.33.044-.35-.019M1128.26 887.34v-.002l.28-.294.2-.353.11-.399.01-.428-.07-.442-.17-.439-.25-.418-.33-.382M1124 887.102l.19.309.24.282.29.245.32.197M1118.39 890.208l.12-.227.18-.181.23-.129v-.001l.01-.001.27-.072.3-.013.33.047.33.105.33.159.32.207.28.248.24.278.2.298.13.307.08.303v.32l-.05.231-.12.226-.18.181-.01.002-.22.128-.28.072M1122.93 891.574l.24-.245.16-.305.08-.355-.01-.39-.1-.41-.18-.415-.26-.403M1119.27 892.191l.32.207.33.159.33.105M1121.39 892.494l1.51-.905.02-.013.01-.002M1118.34 890.758l.08.303.13.307M1113.88 893.255l.2-.089.24-.033.28.022.18.046v.002l.12.03.31.13.32.179.3.218.28.251.24.274.2.285.12.217v.005l.04.065.09.277.03.256-.03.226-.08.186-.15.14v.001M1118.32 894.872l.19-.19.12-.252.04-.306-.04-.346-.13-.375-.2-.388-.28-.386M1114.93 895.655l.31.178.31.131.3.078.28.023"/><path d="m1116.57 895.942 1.74-1.067v-.001l.01-.002M1113.62 893.81l.03.256.1.276.15.287M1114.1 894.913l.24.273.28.251M1109.87 895.722l.06-.054v-.001l.05-.041.16-.045.2.008.25.061.27.112.28.158.3.198.29.231.27.255.25.268.22.272.16.265.12.248.06.222.01.186-.05.144-.11.095v.001l-.16.045M1111.2 897.812l.29.198M1111.78 898.168l.12.048v.001l.15.063M1112.66 898.305l1.91-1.172M1114.58 897.133l.14-.13.07-.195v-.251l-.09-.301-.16-.334-.22-.36M1109.82 896.053l.07.221M1110 896.522l.17.265M1110.38 897.06l.25.268.27.254M1107.1 896.849h.11l.17.052.2.102.24.147.26.186.28.219.24.213.03.031.27.258.26.263.22.258.09.123.01.001.09.118.14.218.09.186.05.145-.02.099-.06.047v.004M1107.16 897.328l.14.218.19.243.22.257.13.134.12.129.27.258.28.243.27.219.06.039v.001l.2.147M1109.48 899.464l.17.053M1107.03 896.898l-.01.1"/><path d="m1109.77 899.518 1.56-.939.47-.283M1111.8 898.296l.09-.068.01-.009M1105.3 896.899l.02-.005.07.047.12.096.17.142.2.182.23.216.25.24.27.256.26.262.26.257.23.244.21.22.17.188.13.148.08.104.03.054v.001l-.02.004-.07-.047-.13-.097-.16-.142-.2-.182-.24-.215-.25-.24-.26-.256-.27-.261-.25-.257-.24-.244-.2-.219-.17-.188-.13-.149-.08-.104-.03-.055ZM1108 899.55l.83-.481M1171.75 839.196l.37.328.41.258.42.178.41.093.4.004.36-.086.31-.173.25-.252M1175.55 838.044l-.18.186-.24.127-.14.036-.12.028-.29-.003-.31-.069-.31-.132-.3-.191-.28-.242-.25-.283-.2-.315-.16-.333-.1-.339-.04-.333.02-.312.07-.28.06-.093.08-.145.19-.186.23-.126.26-.064.3.003.3.069.31.133.3.19.28.242.25.283.2.315.16.333.1.339.04.331-.02.313-.07.28-.14.238Zm0 0-.87 1.503M1173.28 835.038l-1.67.445"/><path d="m1106 895.602-.42.762-.2.386-.08.148.03.055.08.104.13.149.17.188.2.22.24.243.25.257.27.262.26.256.25.24.24.215.2.182.16.142.13.097.07.047.02-.004"/><path d="m1107.38 898.834.21.22.17.188M1105.3 896.898l.02-.004.07.047.12.096M1107.97 899.495l.03.055M1105.88 897.36l.23.215.25.24M1107.7 895.562l-.08.151-.05.094-.06.129-.14.277-.06.123-.28.564-.01.099.04.146.09.185.15.218.18.242.23.258.12.134.13.129.27.257.27.244.28.219.05.039.21.147.24.147.2.102.17.052.11.001M1109.15 898.319l.23.258.09.124v.001l.09.118.15.218.09.185.04.145-.01.1-.06.05"/><path d="M1107.03 896.9v-.003l.07-.048.11.001.17.052.2.101.24.147.26.187.28.219.24.213.03.03M1110.8 893.643l-.9 2v.002l-.03.08-.05.144v.187l.06.221.12.248.17.265.21.271.25.268.27.255.29.23.3.198.29.158.12.05.15.062.24.062.21.008.16-.044v-.002"/><path d="m1111.43 896.12.29.231.28.254.25.269.21.272M1112.63 897.411l.12.248.06.221v.186l-.05.144-.11.095v.002M1109.87 895.724v-.003l.06-.053v-.001l.05-.039.15-.045.21.008.24.061.27.112.29.158M1114.36 891.685l-.72 1.901-.03.226.04.256.09.277.15.286.2.285.25.274.28.25.3.219.31.178.32.13.3.078.27.023.25-.033.19-.089 1.75-1.07"/><path d="m1116.35 894.287.2.286.11.211M1116.83 895.393l-.03.226-.09.187-.15.138v.002M1113.64 893.585l.01-.029.08-.157.15-.141.19-.089.24-.034.28.023.19.047M1118.31 894.875v-.001M1115.52 893.544l.3.219M1118.87 888.487l-.48 1.724-.06.262.01.289.07.303.14.306.19.298.25.278.28.247.31.207.33.16.33.105.33.047.31-.013.27-.073.23-.129 1.54-.92"/><path d="m1121.52 890.93.14.307.07.303M1122.92 891.578v-.002M1118.39 890.211l.01-.014.11-.212.18-.182M1119.82 889.634l.34.105.33.159M1124.02 884.736l-.19 1.402-.01.317.06.326.12.324.19.309.24.283.28.244.32.197.35.143.35.083.35.019.33-.045.3-.107 1.2-.666M1125.85 885.148l.34.142.32.198.29.244.24.283.18.309.13.324"/><path d="m1127.41 886.976-.02.317-.08.294-.09.158v.004l-.05.1M1124.52 885.199l.3-.108.33-.045.35.019M1127.91 887.565l.35-.224v-.002M1123.83 886.138l.01-.033.07-.261.15-.262.02-.02v-.005l.18-.192M1126.96 888.065l-.24.155-.01.011M1129.8 880.259l.12 1.018.04.347.12.339.18.318.24.286.28.241.33.189.35.129.37.064.36-.004.35-.072.32-.136.92-.42"/><path d="m1130.71 879.881.32-.136.34-.072.37-.004.36.063.35.129.33.189.29.242.24.286.18.318.11.339.05.347-.03.34-.1.322-.16.29M1129.91 881.277l.01-.032.02-.292v-.017l.1-.321.16-.29.23-.248M1133.78 882.558l.37-.265v-.003M1133.13 882.782v.001l-.01.005-.26.183v.007M1136.78 876.459l.22.257.29.24.33.183.36.118.08.011.29.038.37-.022.39-.058M1139.93 874.492l.17.325"/><path d="m1137 876.716-.2-.232-.04-.056v-.003l-.18-.323-.11-.35v-.054l-.04-.307.04-.359.11-.342.17-.313.24-.271.29-.219.33-.159.35-.092.38-.022M1140.25 875.529l-.03.359-.11.342-.18.313-.23.271-.29.219-.33.159-.16.04-.02.006-.14.035-.04.011M1139.11 877.226l.48-.124.44-.215.39-.296.01-.003M1139.07 873.781l.33.182M1143.59 870.713l.45.241.49.15.5.053.45-.04.06-.006.49-.143.45-.234.39-.317v-.004"/><path d="m1146.45 870.351-.3.235-.33.173-.36.106-.37.034-.38-.04-.36-.11-.33-.179-.29-.238-.24-.29-.17-.33-.11-.358-.04-.371.04-.371.11-.356.18-.328.24-.286M1146.9 868.399l.08.239.03.371-.04.371M1146.87 869.736l-.18.328M1144.03 867.406l.33-.173M1144.72 867.127l.38-.034.37.039M1146.16 867.421l.29.239.24.29M1149.66 863.99l.39.322.44.238.49.145.5.047.5-.053.48-.152.36-.199M1152.49 864.04l-.29.092-.37.04-.37-.035-.36-.108-.33-.176-.29-.238-.24-.29-.18-.332-.11-.361-.04-.376.03-.377.03-.093M1165.98 849.498l-.14.323-.12.171-.08.111-.25.23-.29.169-.33.102-.34.031-.35-.042-.34-.112-.32-.179-.28-.239-.24-.289-.19-.328-.13-.355-.06-.368.01-.367.07-.352.14-.323.2-.282.25-.23.29-.169.32-.101.22-.02.13-.011.34.042.34.113.32.179.29.238.24.289.19.328.13.355.06.368-.01.367-.07.351Zm0 0-.32.758M1163.56 851.791l.01.002.47-.041.43-.138.4-.229.34-.311.27-.381.18-.437M1164.5 846.91l-.84-.153M1167.15 844.867l.39.325.41.248.45.163.44.072.43-.023.41-.116.35-.206.3-.286.23-.357M1171.17 843.529l-.16.263-.23.212-.03.02-.23.132-.3.086-.32.017-.33-.053-.32-.121-.31-.184-.29-.24-.24-.287-.2-.322-.14-.346-.08-.356-.01-.353.05-.335.11-.305.17-.264.22-.211.08-.048.18-.104.3-.085.32-.017.33.053.32.121.31.184.29.239.24.287.2.322.14.346.08.356.01.352-.04.335-.12.306Zm0 0-.61 1.157M1169.09 840.646l-1.34.141M1175.84 834.519l.38.269.4.199.38.12.35.037.31-.048.26-.131.2-.209M1179.15 833.034l-.15.154-.19.096-.23.035-.26-.027-.18-.055-.1-.034-.29-.146-.29-.2-.27-.245-.25-.279-.22-.304-.18-.318-.12-.318-.08-.307v-.013l-.01-.271.04-.249.09-.204.15-.155.19-.095.23-.036.27.028.28.089.29.146.28.2.28.245.25.278.21.305.18.318.12.316.08.307.01.283-.04.25-.09.206Zm0 0-1.03 1.721M1176.8 830.099l-1.85.688M1178.56 830.325l.37.284.37.222.34.151.3.075.27-.003.2-.083.14-.158M1181.69 828.915l-.11.117-.15.061-.19.002-.23-.056-.25-.112-.27-.164-.27-.21-.27-.247-.25-.275-.23-.293-.2-.299-.15-.293-.11-.277-.05-.25v-.213l.05-.168.1-.116.15-.058.01-.002.19-.002.23.056.25.112.27.164.27.209.27.247.25.275.23.293.19.298.12.224.04.07.1.277.06.249v.213l-.05.168Zm0 0-1.14 1.899M1179.12 826.121l-2.05.914M1183.1 825.806l-.06.076-.11.02-.15-.033-.19-.088-.23-.138-.04-.034-.2-.149-.26-.221-.26-.251-.15-.157-.01-.001-.1-.112-.24-.28-.22-.278-.18-.267-.14-.244-.09-.212-.04-.139v-.003l-.01-.031.01-.126.06-.075.02-.005h.01l.08-.015.15.034.19.088.22.138.25.183.26.221.25.239v.001l.01.01.26.27.24.279.21.278.08.117.1.15.15.244.09.212.04.173v.126Zm0 0-.79 1.329-.41.701"/><path d="m1180.49 823.063-.3.148v.001l-.06.03-.24.12v.001l-.37.185-.05.026v.002l-.68.338M1181.54 827.937l.14.03.14-.029.08-.102M1183.33 823.826l-.06-.021-.11-.073-.16-.12-.19-.167-.22-.203-.19-.181-.01-.001-.05-.051-.26-.254-.26-.265-.25-.266-.24-.257-.21-.237-.17-.209-.14-.172-.08-.13-.04-.083.01-.031.06.023.12.073.15.122.19.164.12.105.01.012.1.086.24.233.26.254.26.264.25.266.24.257.21.237.18.209.13.173.09.131.04.081-.02.031Zm0 0-.61 1.075M1180.7 821.105l-.2.112-.91.492v.002l-.24.13M731.434 339.672l.023-.041v-.001M731.457 339.629l-.042-.114-.112-.183-.18-.245-.24-.296-.29-.337-.101-.111M622.418 446.199l.322.264.084.063M665.148 388.774l.257.478.16.519.056.54-.049.54-.153.52-.251.479-.339.42-.004.004-.41.341-.473.256-.514.159-.535.054-.536-.053-.516-.157-.477-.255-.418-.343-.344-.419-.257-.478-.16-.519-.056-.54.049-.54.153-.52.251-.479.335-.415.003-.005.414-.345.473-.256.514-.159.536-.054.536.052.516.157.477.255.418.344.344.419ZM650.888 399.469l.003-.008.009-.037.122-.469.231-.473.313-.41.003-.004.393-.339.452-.252.495-.153.519-.05.523.056.505.159.47.257.416.344.346.418.263.476.17.516.069.536-.033.536-.134.514-.23.473-.318.414-.004.004-.388.335-.453.251-.495.153-.518.05-.523-.056-.505-.159-.444-.243-.026-.014-.112-.092-.304-.251-.346-.418-.263-.476-.169-.516-.07-.536.033-.536Zm0 0 .003-.03M652.121 402.294l.048.039M642.436 408.32l.198-.456.198-.275.008-.011.076-.105.003-.005.359-.321.421-.234.465-.137.493-.036.501.066.489.168.46.261.413.345.348.416.272.47.185.508.09.524-.008.521-.105.497-.199.456-.285.396-.004.003-.356.317-.42.234-.407.12-.016.005-.043.012-.492.036-.501-.067-.489-.167-.459-.262-.412-.345-.349-.415-.272-.47-.184-.507-.09-.523.007-.521.105-.498Zm0 0 .071-.172M645.082 412.095l.05.004M635.005 416.622l.239-.362.002-.004.316-.291.087-.048.006-.003.286-.155.426-.111.459-.014.472.085.469.181.446.269.407.347.352.412.284.461.204.492.117.504.025.498-.067.471-.158.426-.241.366-.004.003-.225.207-.008.007-.08.074-.378.205-.427.111-.458.013-.472-.085-.468-.181-.446-.269-.407-.347-.352-.411-.283-.46-.204-.492-.117-.504-.026-.497.067-.471.157-.427Zm0 0 .005-.01M638.012 420.753l.06-.01M628.602 424.475l.187-.322.002-.003.264-.252.328-.167.307-.062.005-.001.068-.014.418.017.438.11.443.198.43.28.401.35.356.407.298.448.227.472.15.478.064.465-.022.435-.089.319-.002.007-.017.061-.19.326-.002.002-.262.248-.328.167-.38.076-.417-.017-.438-.11-.443-.199-.429-.279-.4-.35-.356-.406-.297-.448-.228-.471-.149-.477-.066-.465.022-.435.107-.388Zm0 0 .185-.32M632.074 428.444l.019-.006M623.752 430.902l.205-.203.271-.12.328-.034.37.054.4.14.092.049.008.004.314.167.412.293.393.353.361.401.313.432.254.448.186.445.018.069.002.01.089.348.03.39-.052.34-.132.276-.002.002-.203.2-.272.12-.327.033-.371-.055-.399-.14-.413-.22-.411-.293-.393-.353-.36-.4-.313-.431-.254-.447-.186-.445-.11-.426-.03-.39.052-.341.129-.273.001-.003Zm0 0 1.518-2.54M627.137 435.086l.083-.033M620.274 436.31l.142-.146.21-.067.27.015.32.096.359.175.382.245.392.308.385.357.365.394.331.414.283.42.224.408.158.382.085.34v.014l.008.271-.068.22-.002.001-.014.016-.002.001-.124.128-.14.044-.07.022-.271-.016-.32-.097-.358-.174-.382-.246-.391-.307-.385-.357-.364-.392-.33-.414-.283-.419-.225-.408-.153-.371-.001-.002-.004-.008-.085-.34-.009-.286.067-.218v-.003Zm0 0 1.672-2.779M623.977 440.302l.003-.002M618.447 440.222l.002-.003.073-.083.146-.009.211.068.269.143.301.204.013.008.043.034.307.24.371.323.377.362.104.108.266.278.348.395.313.389.265.368.207.333.143.285.071.226-.003.158-.001.001-.075.084-.146.009-.212-.069-.268-.144-.315-.212-.006-.005-.343-.268-.37-.323-.377-.361-.077-.08-.292-.305-.347-.394-.313-.388-.159-.222-.001-.001-.105-.145-.208-.333-.142-.285-.072-.227.002-.157v-.002Zm0 0 .441-.744 1.304-2.196M622.199 444.134l.003-.001M618.318 442.514l.082.052.152.124.216.191.271.252.316.302.35.34.369.366.375.378.365.374.343.357.305.326.258.282.2.228.134.164.063.094-.009.021-.083-.052-.152-.125-.216-.192-.271-.251-.317-.302-.349-.34-.368-.365-.374-.377-.365-.374-.342-.356-.305-.326-.258-.282-.2-.228-.135-.164-.063-.094-.001-.001.009-.022Zm0 0 .656-1.14M711.425 349.449l-.176.335-.261.272-.269.158-.066.039-.397.116-.444.029-.472-.059-.484-.144-.477-.224-.451-.295-.407-.355-.349-.401-.276-.432-.194-.447-.103-.443-.009-.423.045-.202.04-.184.177-.336.262-.271.336-.197.397-.115.443-.028.472.059.484.145.476.223.45.295.406.355.349.401.276.431.194.445.103.443.01.423-.085.387ZM707.448 345.985l-2.085 1.165"/><path d="m622.116 446.345.001.002-.009.019-.001.002-.082-.053-.153-.125-.216-.191-.271-.252-.316-.301-.349-.34-.369-.366-.373-.377-.365-.373-.342-.357-.306-.325-.258-.283-.2-.227-.134-.165-.064-.095.009-.022M618.766 442.883l.271.251.317.302.35.34.369.367.374.377.366.375.342.357.306.326M621.922 446.087l.134.164M618.398 442.567l.151.124"/><path d="m622.105 446.367.309-.168.172-.093M622.277 443.894l-.003.157v.002l-.072.081-.004.004-.146.008-.212-.069-.268-.143-.315-.212-.002-.002-.347-.271-.37-.323-.377-.361-.077-.081-.292-.304-.347-.394-.313-.389-.159-.221-.001-.001-.105-.145-.208-.333-.142-.285-.072-.227.002-.159.001-.001.074-.085M618.879 440.198l.269.143.301.203.001.001.013.008.046.037.303.236.371.324.377.362.103.107.267.278.348.395.313.389.265.368.208.333M622.199 444.137l1.095-.557M624.12 440.158v.002l-.014.014-.001.001-.122.125-.005.006-.14.044-.071.022-.27-.015-.321-.098-.358-.174-.381-.246-.391-.306-.385-.358-.365-.392-.33-.414-.282-.418-.225-.409-.155-.374-.001-.003-.002-.004-.085-.339-.009-.287.067-.221.002-.001M623.934 438.934l.158.382M620.625 436.102l.271.015"/><path d="m623.977 440.306.169-.078.002-.001.244-.113M621.57 436.387l.383.245M627.611 434.766l-.001.003-.206.202-.185.082-.086.038-.328.033-.37-.054-.4-.141-.413-.22-.411-.292-.393-.353-.36-.4-.313-.432-.254-.447-.186-.445-.11-.426-.029-.39.051-.34.13-.277.003-.002M627.215 432.444l.255.447.185.446M625.27 428.358l-1.524 2.549M627.794 434.153l-.052.34M623.953 430.705l.272-.121M624.922 430.604l.4.14.099.053.008.004.306.164.412.292M632.663 428.029l-.003.004-.264.251-.304.154-.024.013-.38.076-.417-.018-.438-.11-.443-.198-.429-.28-.4-.349-.356-.407-.297-.447-.228-.472-.15-.477-.065-.465.022-.434.107-.388.189-.326.001-.001.002-.002M630.176 423.677l.438.11.443.199.43.279.401.35.356.407.298.448.227.472.149.478M632.96 427.32l-.087.312-.002.007-.019.069M629.047 423.905l.328-.168M629.831 422.34l-1.237 2.142M636.608 420.509l-.446-.269-.407-.347-.352-.412-.283-.46-.204-.492-.118-.504-.025-.497.067-.471.157-.426.011-.018.23-.348.004-.004.312-.288.093-.05.005-.003.28-.152.427-.112.459-.014.472.085.469.181.446.269.407.347.352.412.284.461.204.492.117.505.025.497-.067.471-.158.426-.239.362-.002.004-.222.204-.007.007-.088.08-.378.205-.361.094-.066.017-.458.014-.473-.086-.467-.18ZM635.929 414.851l-.933 1.78M647.408 409.506l-.008.521-.106.497-.198.456-.282.391-.003.005-.36.32-.42.234-.39.115-.017.005-.059.017-.435.032-.057.004-.501-.067-.489-.167-.46-.262-.412-.345-.348-.415-.272-.47-.184-.507-.091-.523.008-.521.105-.498.078-.18.12-.276.206-.286.008-.011.071-.099.004-.003.355-.318.42-.234.466-.137.493-.036M645.641 406.982l.46.261.412.345.349.416.272.47M642.935 407.11l-.505 1.218M655.472 401.977l-.004.005-.392.339-.453.251-.495.153-.518.049-.522-.055-.506-.16-.391-.213-.023-.013-.03-.016-.026-.014-.416-.344-.346-.418-.262-.476-.17-.516-.07-.536.033-.535.01-.039.002-.007.01-.037.112-.431.23-.474.317-.414.005-.004M655.943 398.993l.17.516.069.536-.033.535-.134.514-.23.474M651.957 397.737l.452-.251.495-.154.519-.049.522.055.506.159M650.929 398.874l-.046.604M665.16 391.859l-.335.416-.004.004-.414.345-.473.257-.514.158-.535.054-.536-.052-.517-.157-.476-.255-.418-.344-.345-.419-.256-.478-.16-.519-.056-.54.049-.54.153-.519.25-.479.339-.42.005-.004.409-.341.473-.257.514-.158.536-.054M665.556 389.78l.057.54-.05.54-.153.519M663.383 387.608l.516.157M664.375 388.021l.419.343.344.419M671.526 383.159l-.479-.257-.42-.344-.343-.418-.254-.477-.155-.516-.051-.535.056-.535.161-.514.259-.472.348-.413.423-.338.482-.25.522-.152.542-.049.542.057.52.159.479.257.419.345.343.418.255.476.155.516.05.535-.056.535-.16.514-.26.472-.347.413-.423.338-.482.251-.522.152-.542.049-.542-.057-.52-.16ZM683.941 369.099l.033.027.385.319.344.415.254.471.157.506.053.523-.053.519-.158.497-.255.454-.344.394-.419.319-.478.232-.518.135-.54.034-.539-.068-.518-.169-.478-.262-.418-.346-.344-.416-.255-.47-.157-.507-.052-.523.053-.52.158-.496.256-.454.344-.394.419-.319.478-.231.519-.136.539-.034.447.057.092.012.518.169.477.262ZM682.947 368.668l-.142-.028M694.59 362.244l.063.503-.024.286-.017.209-.143.469-.24.424-.328.363-.402.288-.462.203-.504.109-.526.01-.528-.087-.51-.183-.473-.27-.416-.349-.345-.412-.259-.461-.163-.491-.063-.503.042-.496.143-.468.241-.424.328-.363.258-.185.145-.103.462-.202.503-.109.526-.01.528.088.51.182.472.271.415.348.345.412.259.46.163.491ZM690.868 360.111l-1.141.42M703.504 355.556l-.119.431-.194.351-.019.034-.299.322-.375.247-.434.163-.478.073-.504-.021-.51-.113-.496-.201-.463-.282-.413-.351-.346-.408-.266-.448-.176-.47-.08-.477.02-.462.12-.432.214-.384.002-.002.298-.319.374-.247.435-.163.478-.072.504.021.509.113.495.202.463.281.412.351.346.407.266.447.176.471.08.475-.02.463ZM699.358 352.561l-1.713.854M718.337 344.293l-.13.28-.213.215-.287.14-.351.062-.4-.022-.074-.017-.36-.085-.453-.178-.452-.25-.435-.31-.402-.36-.352-.395-.289-.413-.215-.418-.05-.153-.082-.253-.046-.378.044-.335.132-.28.213-.214.288-.14.35-.06.401.021.434.103.452.18.451.25.435.309.401.359.351.393.289.413.215.417.133.406.046.377-.044.336ZM714.132 340.929l-2.507 1.464M723.834 340.887l-.157.153-.232.079-.297.002-.35-.075-.391-.149-.415-.218-.425-.278-.418-.326-.394-.364-.356-.387-.304-.394-.239-.387-.167-.365-.087-.328-.004-.28.078-.22.159-.152.232-.078.297-.001.351.076.302.115.088.034.415.218.425.277.416.327.394.363.355.385.303.394.24.386.167.365.087.328.005.28-.024.068-.054.152ZM719.836 337.198l-2.75 1.624M727.978 338.823l-.098.088-.17.014-.239-.059-.295-.132-.169-.098-.049-.028-.002-.002-.123-.07-.375-.258-.394-.306-.398-.344-.387-.369-.092-.097-.002-.001-.266-.28-.32-.374-.268-.355-.079-.126-.123-.196-.134-.277-.014-.055-.043-.166.02-.157.099-.087.172-.014.237.061.297.132.343.198.058.041.317.217.394.306.396.344.135.128.002.001.25.238.359.378.131.154.188.219.267.354.204.322.133.277.057.222-.018.149v.004l-.001.004Zm0 0-.499.98M724.056 335.088l-.395.231-2.528 1.478M730.524 338.423l-.033.022-.107-.051-.176-.122-.238-.188-.292-.248-.333-.298-.363-.336-.378-.361-.378-.373-.365-.37-.161-.169-.078-.083-.001-.001-.096-.1-.296-.322-.243-.279-.181-.225-.113-.163-.04-.094.034-.021.108.052.176.122.239.189.291.248.334.298.362.336.377.36.377.372.364.37.336.352.295.322.244.279.181.225.114.163.006.015.002.003.032.076Zm0 0-.22.403-.09.165M726.687 334.641l-1.523.866M750.812 352.25l.746-1.303-.001-.001M751.559 350.945l-.041-.121-.118-.196-.191-.262-.256-.319-.297-.347M633.727 466.319l.265.215.33.246.274.18.209.105.136.028.8-.454M680.359 404.643l.278.518.173.563.061.586-.053.585-.166.563-.273.52-.367.456-.005.004-.444.369-.514.278-.557.172-.581.057-.581-.057-.56-.17-.517-.276-.454-.373-.373-.454-.278-.519-.173-.563-.061-.585.053-.586.166-.563.272-.519.364-.45.004-.005.449-.374.293-.159.22-.119.558-.172.581-.058.581.057.247.075.313.095.517.277.453.372.374.455ZM664.848 416.804l.022-.36.003-.051.011-.168.146-.557.25-.513.341-.443.004-.005.426-.367.491-.271.538-.166.563-.053.567.061.549.173.51.278.451.373.375.454.285.516.183.559.075.581-.036.58-.146.557-.251.512-.345.448-.005.004-.421.363-.492.271-.537.166-.563.053-.567-.062-.548-.173-.454-.248-.056-.03-.121-.1-.33-.273-.375-.453-.285-.516-.183-.559-.075-.581Zm0 0 .011-.313M666.215 419.285l.055.044M655.69 425.789l.217-.492.177-.246.009-.012.12-.165.003-.005.391-.347.457-.252.506-.148.535-.038.544.074.531.182.499.283.447.375.378.45.295.51.199.549.097.567-.009.564-.115.539-.217.492-.31.427-.005.004-.386.343-.457.251-.41.12-.017.005-.079.023-.535.037-.544-.073-.531-.183-.498-.283-.447-.374-.378-.451-.294-.509-.199-.548-.098-.567.009-.564.115-.538Zm0 0 .035-.088M658.559 429.879l.062.004M647.602 434.744l.26-.39.003-.005.343-.314.066-.035.007-.003.339-.182.464-.119.498-.013.513.093.509.197.485.292.442.377.38.446.308.499.221.533.125.545.026.538-.075.508-.172.46-.263.395-.005.003-.219.2-.008.007-.112.103-.413.22-.464.118-.498.013-.513-.094-.508-.197-.484-.292-.44-.376-.382-.446-.306-.498-.221-.532-.125-.545-.028-.537.075-.509.172-.46Zm0 0 .005-.01M650.859 439.216l.079-.013M640.616 443.191l.204-.347.003-.004.287-.269.358-.179.314-.061.006-.001.093-.018.454.02.476.121.481.216.467.304.434.38.386.441.322.484.246.511.161.516.068.502-.025.468-.089.313-.002.008-.028.096-.208.35-.003.003-.285.266-.357.178-.414.08-.453-.021-.476-.121-.48-.217-.376-.245-.09-.058-.321-.281-.113-.099-.385-.44-.322-.484-.246-.509-.161-.516-.069-.501.025-.469.118-.417Zm0 0 .035-.061M644.379 447.488l.022-.007M635.315 450.077l.223-.216.296-.127.357-.033.403.06.435.154.087.047.008.004.354.189.446.318.427.384.39.433.339.468.039.068.236.415.09.217.11.264.01.039.002.011.105.409.029.421-.058.364-.144.295-.003.003-.222.213-.296.126-.357.033-.403-.062-.434-.153-.448-.241-.195-.139-.251-.179-.426-.382v-.001l-.39-.432-.338-.467-.275-.483-.099-.238-.101-.241-.117-.459-.002-.023-.029-.396.058-.367.142-.293.002-.003Zm0 0 1.633-2.765M638.98 454.603l.176-.07M631.497 455.844l.155-.155.23-.069.294.02.084.026.265.081.389.192.415.268.15.118.275.216.418.387.395.426.358.448.305.452.242.44.094.23.031.073.044.108.09.364.002.118.004.188-.076.234-.001.002-.006.006-.002.001-.146.145-.23.068-.295-.02-.056-.017-.293-.091-.389-.192-.415-.267-.423-.334-.418-.387-.394-.425-.357-.447-.305-.451-.163-.296-.079-.144-.169-.41-.02-.08-.001-.003-.069-.282-.008-.306.029-.09.045-.142.001-.002v-.001Zm0 0 1.503-2.518.3-.503M635.504 460.163l.003-.001M629.461 459.979l.002-.002.082-.086.16-.006.231.078.292.157.23.156.001.001.112.076.379.297.402.352.359.343.05.049.4.417.376.426.338.42.285.395.223.358.152.305.075.24-.005.168-.001.001-.084.087-.161.005-.231-.078-.292-.159-.342-.232-.379-.297-.401-.351-.409-.392-.215-.224-.184-.192-.375-.426-.337-.418-.227-.314-.001-.001-.058-.08-.223-.358-.152-.305-.076-.241.004-.167v-.002Zm0 0 .841-1.423.515-.871.529-.895M633.52 464.211l.004-.002M629.25 462.378l.012-.02.001.001.09.06.167.138.235.21.295.275.344.329.379.37.4.396.405.408.395.405.369.384.329.35.278.302.214.242.142.173.067.098-.001.001-.012.018-.092-.061-.167-.139-.235-.211-.296-.274-.343-.329-.378-.369-.399-.395-.404-.408-.394-.403-.369-.384-.329-.35-.278-.301-.214-.243-.144-.174-.066-.098-.001-.001Zm0 0 .715-1.244M633.359 466.519l.002-.001M730.354 361.869l-.188.366-.28.296-.316.19-.044.026-.427.127-.478.033-.51-.062-.523-.155-.515-.241-.487-.32-.442-.384-.378-.435-.301-.469-.211-.484-.113-.482-.012-.46.051-.239.039-.181.189-.366.28-.296.361-.215.428-.126.477-.032.51.062.522.155.514.242.487.319.441.384.377.434.081.126.219.342.021.048.191.436.114.481.012.46-.089.42Zm0 0-.716 2.407M726.05 358.118l-2.277 1.25"/><path d="m633.374 466.5.001.001-.011.016-.002.002-.092-.061-.166-.138-.236-.211-.295-.275-.343-.328-.379-.369-.398-.396-.405-.408-.394-.403-.369-.384-.329-.349-.277-.302-.215-.243-.143-.174-.067-.099.012-.019.091.06M632.344 465.335l.33.35M633.164 466.229l.143.175"/><path d="m633.359 466.52.368-.2.594-.324.722-.394M629.758 462.77l.295.275M630.773 463.742l.4.397.405.408M633.605 464.124v.002l-.08.083-.005.005-.161.005-.231-.079-.292-.158-.342-.232-.379-.298-.402-.351-.408-.391-.215-.225-.184-.191-.375-.426-.337-.418-.227-.315-.001-.001-.058-.08-.223-.357-.152-.305-.076-.241.004-.169.001-.001M632.875 462.659l.285.396M633.383 463.413l.152.304.075.241M629.547 459.895l.16-.006.231.077M633.52 464.215l.439-.225.784-.402.444-.227.258-.133M630.57 460.355l.379.298M631.352 461.005l.358.343.051.049.4.417M635.659 460.012l-.001.002-.004.005-.002.001-.144.143-.006.006-.23.068-.295-.021-.056-.017-.293-.091-.389-.191-.414-.268-.424-.334-.417-.386-.395-.425-.356-.447-.305-.452-.165-.299-.077-.14-.17-.41-.021-.085v-.003l-.069-.277-.008-.306.03-.094.045-.141.002-.002M634.562 457.358l.357.448.305.453.242.44M635.562 458.929l.031.075.043.105.091.365.001.106.005.199M631.648 455.694l.229-.069.295.019.079.025.269.083.39.191.415.268.148.116.277.218M635.504 460.168l.195-.092.003-.001.217-.101 1.715-.801M639.114 451.83l.237.417.089.215.11.265.008.03.003.01.106.419.03.42-.058.365-.143.293-.001.003-.225.215-.117.051-.179.076-.357.033-.403-.062-.434-.154-.449-.241-.197-.14-.248-.177-.426-.383-.002-.002-.388-.431-.338-.466-.275-.483-.1-.24-.1-.24-.117-.459-.002-.025-.029-.395.058-.365.143-.296.003-.003.221-.213.296-.128.357-.033.403.061.434.153.043.023.053.029.009.004M637.66 450.292l.263.187.427.383.39.434.339.468M636.953 447.305l-1.641 2.778M638.977 454.609l2.928-1.185M644.576 443.799l.322.485.015.031.2.416.031.064.16.516.069.502-.026.468-.087.305-.002.008-.029.104-.206.346-.002.004-.288.269-.33.164-.028.014-.413.08-.454-.021-.476-.121-.48-.217-.378-.246-.088-.058-.322-.281-.112-.098-.385-.44-.322-.484-.246-.509-.16-.516-.07-.501.025-.469.118-.417.041-.068.166-.283.003-.003.285-.266.357-.179.321-.062.006-.002.087-.016.454.02.476.121.481.216.466.304M641.937 440.856l-1.328 2.341M644.375 447.495l1.304-.408M652.583 437.209l-.075.509-.172.46-.252.378-.009.012-.003.005-.215.195-.008.008-.121.11-.15.08-.262.14-.378.097-.086.021-.498.013-.513-.094-.508-.197-.483-.292-.441-.376-.381-.446-.307-.499-.221-.531-.126-.545-.026-.537.074-.509.171-.46.012-.018.251-.377.004-.003.34-.311.072-.038.006-.004.334-.178.464-.12M650.086 433.783l.509.197.484.292.442.377.381.446.307.499.221.533M648.59 432.8l-.996 1.951M650.852 439.224l.521-.092.823-.146M660.966 428.185l-.216.493-.307.422-.003.005-.392.346-.457.252-.392.114-.017.005-.096.028-.466.033-.07.005-.542-.074-.533-.182-.498-.284-.446-.374-.377-.45-.296-.509-.199-.549-.097-.567.009-.563.114-.538.044-.097.173-.396.187-.257.007-.012.115-.159.005-.003.386-.343.458-.252M660.793 425.967l.2.549.096.567-.009.564M656.214 424.453l-.53 1.345M657.562 424.131l.535-.038.544.073.531.182M658.551 429.889l1.535.092M670.556 416.272l.075.581-.037.58-.146.557-.25.512-.342.443-.003.005-.427.367-.491.271-.538.166-.562.053-.567-.062-.549-.173-.396-.216-.05-.027-.008-.004-.055-.031-.451-.373-.375-.453-.285-.516-.184-.559-.075-.581.02-.322.006-.089.003-.051.007-.117.146-.557.25-.513.345-.448.005-.004.422-.363.491-.271.537-.166.563-.053.567.061M666.207 419.294l.498.396M664.858 416.338l-.018.474M669.258 414.37l.451.373.376.454M676.762 409.096l-.517-.276-.454-.373-.373-.454-.278-.519-.173-.562-.061-.586.053-.585.166-.564.272-.519.368-.455.005-.004.444-.37.307-.167.206-.111.558-.171.58-.059.582.057.241.073.319.097.517.277.453.373.374.454.278.518.173.563.061.586-.054.585-.166.564-.272.519-.363.45-.004.005-.449.374-.514.278-.557.171-.581.059-.582-.057-.559-.171ZM687.276 398.551l-.519-.278-.455-.374-.372-.453-.276-.517-.169-.559-.055-.581.061-.581.075-.24.002-.008.097-.309.281-.513.079-.094.298-.354.458-.367.522-.271.566-.166.587-.053.317.033.271.028.21.065.003.001.351.108.519.278.454.373.373.454.276.516.168.56.055.581-.06.58-.174.557-.281.513-.377.448-.458.368-.522.271-.566.166-.587.053-.588-.061-.564-.174ZM700.716 383.282l.011.008.444.367.372.451.277.51.17.549.057.568-.056.564-.171.539-.276.493-.372.428-.453.347-.516.253-.562.147-.584.038-.584-.073-.562-.183-.518-.284-.453-.375-.372-.451-.277-.511-.171-.549-.024-.239v-.004l-.034-.325.058-.565.054-.169.115-.37.278-.493.372-.428.454-.346.507-.247.009-.005.054-.014.006-.002.502-.132.584-.037.548.069.035.005.562.182.516.284Zm0 0 .202.113M699.639 382.817l-.178-.051M712.294 376.368l-.028.358-.015.179-.154.51-.258.461-.354.395-.434.314-.5.221-.544.119-.569.013-.572-.095-.552-.197-.512-.293-.451-.377-.374-.448-.281-.5-.179-.533-.068-.546.043-.539.155-.509.259-.461.354-.395.331-.239.104-.074.499-.22.545-.119.569-.012.571.094.552.198.511.292.45.378.374.446.281.5.178.533.069.546Zm0 0 .18 1.44M708.194 373.512l-1.26.438M721.837 368.534l-.126.469-.229.418-.001.001-.321.35-.404.27-.468.178-.517.08-.544-.021-.551-.121-.537-.218-.501-.305-.447-.38-.376-.442-.289-.486-.192-.511-.088-.517.02-.503.128-.47.229-.417.031-.034.292-.317.404-.269.469-.178.516-.079.544.021.551.122.535.217.501.305.447.38.375.442.289.485.192.511.088.516-.02.503Zm0 0-.183 1.248M717.351 365.289l-1.878.911M737.762 356.23l-.138.306-.227.235-.308.154-.376.068-.43-.021-.117-.027-.144-.033-.207-.048-.453-.179-.035-.014-.489-.27-.47-.335-.435-.389-.382-.428-.314-.449-.234-.453-.059-.178-.087-.263-.052-.411.045-.365.139-.306.228-.233.308-.154.376-.067.431.021.468.109.172.069.315.124.232.129.255.141.47.335.434.388.381.427.058.082.256.366.145.28.089.173.147.44.052.411-.044.365Zm0 0-1.131 2.856M733.215 352.591l-2.731 1.576M743.624 352.487l-.026.026-.002.002-.139.14-.247.087-.318.005-.376-.079-.42-.16-.447-.234-.459-.3-.451-.353-.426-.394-.234-.254-.152-.165-.33-.427-.129-.208-.133-.212-.182-.397-.098-.357-.008-.305.082-.241.168-.166.247-.087.318-.003.357.075.02.004.248.095.171.066.447.234.146.095.312.204.45.353.426.393.385.418.329.427.262.419.08.174.001.002.102.22.098.358.008.305-.029.086-.051.154Zm0 0-.019.04-.001.003-1.163 2.508"/><path d="m739.298 348.495-1.514.887-1.456.853M748.006 350.193l-.015.015-.003.002-.082.079-.002.002-.18.017-.254-.062-.316-.14-.368-.213-.135-.093-.038-.027-.003-.001-.228-.156-.425-.331-.43-.372-.418-.399-.257-.27-.001-.001-.039-.041-.093-.097-.347-.406-.291-.385-.154-.241-.069-.109-.148-.302-.065-.241.019-.173.102-.096.182-.017.254.063.316.141.347.202.02.011.404.277.424.331.429.371.008.008.002.001.408.389.389.409.347.404.29.385.224.35.147.301.067.242-.018.173Zm0 0-.01.018-.001.004-.052.1-.501.977-.03.06-.001.001-.063.123-.002.004-.15.293-.155.303-.001.001"/><path d="m743.769 346.152-1.07.623-.35.204-1.751 1.019M750.659 349.698l-.002.001-.001.001-.03.024-.111-.052-.186-.13-.254-.202-.312-.266-.358-.321-.391-.363-.407-.39-.409-.403-.395-.401-.333-.349-.013-.013-.001-.001-.019-.019-.321-.35-.266-.303-.2-.246-.126-.178-.047-.103.033-.026.112.054.187.13.254.203.313.266.357.321.39.362.407.389.408.403.394.399.365.382.321.349.266.304.2.245.127.179.048.104Zm0 0-.001.002-.001.001-.252.46-.001.001-.725 1.322M746.509 345.608l-1.642.933M822.777 473.212l-1.017 3.259-2.968 9.516-4.817 8.764-1.601 2.912-6.395 7.687-2.285 2.747-7.753 6.316-2.814 2.292-8.774 4.798-3.289 1.798-9.551 2.96-3.498 1.084-9.928 1.193-3.618.435-9.971-.764-3.53-.271-9.627-2.704-3.309-.93-8.901-4.557-2.971-1.52-7.831-6.219-2.509-1.993-6.38-7.701-2.077-2.508-4.683-8.836-1.585-2.992-2.671-9.01-1.122-3.787-.891-9.96-.302-3.387 1.039-9.946.375-3.585 3.001-9.539 1.047-3.326 4.757-8.796 1.709-3.161 6.442-7.649 2.244-2.664 7.783-6.28 2.743-2.213 8.907-4.544 3.076-1.569 9.595-2.817 3.349-.984 9.969-.782 3.454-.271 9.951.991 3.431.342 9.583 2.859 3.261.974 8.827 4.698 2.984 1.589 7.829 6.222 2.533 2.013 6.533 7.571 2.001 2.319 4.847 8.747 1.492 2.691 2.993 9.542.916 2.919 1.011 9.949.31 3.052-1.011 9.949-.313 3.077Z"/><path d="m801.693 469.088-.09.291-2.67 8.522-4.453 8.15-5.978 7.172-7.271 5.914-8.286 4.426-8.978 2.766-9.324.998-9.307-.809-1.346-.389-7.583-2.194-8.207-4.257-7.166-5.763-5.851-7.045-4.312-8.052-2.455-8.234-.154-.515"/><path d="m708.262 470.069-.325-3.662-.484-5.446 1.018-9.115 2.268-7.098.393-1.231.142-.446 4.479-8.098 5.98-7.114 7.252-5.86 7.671-4.077.575-.306 1.773-.544 7.152-2.196 9.265-.994 2.5.213 6.752.577 8.886 2.546 8.181 4.204 7.164 5.706 5.87 6.99 4.352 8.01 2.662 8.723.166 1.741.702 7.362-.963 9.134"/><path d="m708.416 470.584-.36-4.044-.392-4.416 1.014-9.078 2.792-8.739 4.46-8.066 5.955-7.085 7.222-5.836 8.212-4.365 8.888-2.729 9.227-.99 4.22.361 4.993.426 8.849 2.535 8.148 4.188 7.134 5.683 5.846 6.962 4.333 7.977 2.652 8.688.022.24.842 8.826-.87 8.257M1171.96 910.615l.87.852 1.75.72 6.71-6.935-1.35-1.442M1174.58 912.186l-1.94-2.068M1068.9 763.795l-7.62-6.476-7.62-6.476-7.62-6.475-3.74-3.172-7.01 7.127-.4.409 6.94 7.192 6.95 7.192 6.95 7.192 6.95 7.192 6.95 7.192 6.94 7.192 6.03 6.235 6.95 7.192 6.94 7.192 6.95 7.192 6.95 7.192 7.24 7.498 3.1 3.21 6.19 6.398.31.322.42.435 8.13 5.818 2.33 1.668.4.286 5.49 3.926 5.13 4.592.84.746 2.52 2.254.33.298.89.792.3.274 7.46 6.667 1.6 1.433.33.297 2.32 2.079 1.07 1.005 1.31 1.23 5.6 5.258 1.34 1.257.04.035 2.96 2.785 4.33 4.071.99.922 2.75 2.588.3.284 1.02.953 7.31 6.83 7.3 6.829 4.81 4.493 7.28 6.857 7.28 6.857 6.1 5.752 2.25.923 6.94-7.203.64-.661-7-7.143-6.92-7.065-7-7.143-6.95-7.093-7-7.144-6.1-6.232-.87-.888-1.9-1.939-7-7.143-1.55-1.585-1.64-1.667-1.91-1.959-1.82-1.837-1.59-1.614-4.14-4.185-.33-.335-7.03-7.113-.63-.632-.31-.32-2.09-2.117-2.57-2.6-7.03-7.113-2.87-2.906-.37-.369-7.03-7.113-1.62-1.645-.35-.348-7.02-7.113-7.03-7.113-7.03-7.113-3.64-3.682-7.62-6.476-7.62-6.476-7.62-6.475-7.62-6.476-7.62-6.476-7.62-6.476-2.38-2.026Z"/><path d="m1109.32 812.538-7.59-6.508-7.59-6.509-7.59-6.508-7.6-6.508-7.59-6.508-7.59-6.508-2.38-2.042-7.6-6.508-7.59-6.508-7.59-6.508-3.72-3.191M1229.76 934.809l-7-7.14-6.93-7.067-7-7.139-6.96-7.095-7-7.14-5.27-5.369-1.72-1.754-1.89-1.929-5.5-5.606-2.47-2.523-.25-.251-1.34-1.375-2.56-2.607-7.03-7.111-.27-.266-.31-.317-7.03-7.111-7.03-7.111-7.03-7.111-7.03-7.111-4.08-4.124-.32-.325-7.03-7.111-7.04-7.111-7.03-7.111-3.32-3.356 6.99-7.155.69-.707M1438.34 364.641l5.85 8.109 5.96 8.256 6.6 7.514 6.71 7.646 7.29 6.847 7.41 6.956 7.91 6.117 8.01 6.196 8.46 5.326 8.54 5.372 3.41 2.109 8.94 4.484 8.93 4.483.62.311 9.34 3.593 9.33 3.594.58.225 9.64 2.665 9.64 2.665.53.148 9.86 1.704 9.85 1.704.47.082 6.3.895 9.98.722 9.97.721.86.063 10-.276 9.99-.275.79-.022 2.82-.362 3.38-.435 9.92-1.273 4.42-.567 7.45-1.209 9.74-2.265 9.74-2.266.88-.204 9.46-3.238 9.46-3.237.8-.272 7.27-3.348 9.09-4.18 9.08-4.18.78-.356 8.61-5.08 8.61-5.081.7-.413 8.05-5.93 8.06-5.93.63-.468 6.15-5.135 7.41-6.716 7.41-6.716.47-.428 6.69-7.434 6.69-7.433.43-.476 5.9-8.071 5.91-8.07.39-.531 4.07-6.046 5.06-8.623 5.06-8.623.18-.294 4.17-9.086 4.18-9.086.16-.346 3.25-9.455 3.26-9.456.14-.405 1.51-5.729 2.3-9.73 2.29-9.659 1.34-9.909 1.34-9.892.38-9.993.37-10.031-.59-9.982-.6-10.075-1.54-9.88-1.57-10.021-2.48-9.688-2.52-9.869-.64-1.783-3.38-9.41-3.2-8.897-4.26-9.048-4.04-8.579-5.08-8.608-4.84-8.174-5.87-8.092-5.58-7.688-.79-.917-6.61-7.506-6.61-7.505-.17-.196-7.28-6.85-7.29-6.852-.18-.165-7.89-6.135-7.9-6.134-.17-.13-8.44-5.36-8.59-5.453-8.91-4.534-9.02-4.59-9.31-3.662-9.37-3.687-9.62-2.75-9.62-2.754-5.8-1.57-9.84-1.805-9.84-1.805-.49-.09-9.97-.839-9.96-.837-.45-.037-10 .147-10 .147-.39.005-7.32.474-9.94 1.135-9.93 1.134-.68.078-9.78 2.12-9.77 2.12-.63.135-9.51 3.088-9.51 3.087-.58.188-7.54 2.695-9.15 4.03-9.16 4.028-.66.295-8.7 4.932-8.7 4.932-.63.357-6.59 4.571-8.15 5.788-8.16 5.788-.55.39-7.52 6.582-7.53 6.584-.52.457-6.82 7.313-6.82 7.312-.5.534-4.77 5.734-6.04 7.964-6.05 7.965-.31.413-5.22 8.534-5.21 8.534-.3.494-4.33 9.014-4.33 9.014-.28.585-2.37 5.779-3.41 9.402-3.41 9.401-.09.253-2.45 9.694-2.46 9.693-.09.337-1.48 9.889-1.49 9.889-.06.424-.51 9.987-.51 9.987-.03.509.12 3.903.47 9.989.47 9.919 1.43 9.897 1.44 9.895 2.39 9.71 2.4 9.768 3.31 9.436 3.34 9.539 4.2 9.075 4.26 9.207 5.05 8.632 5.14 8.779Z"/><path d="m1682.68 251.498-8.05-5.171-6.59-5.132-.11-.106-7.07-6.557-5.83-6.223-5.81-7.673-3.1-4.799-1.72-2.672-4.21-7.988-3.53-8.802-1.02-8.991.73-7.416-.04-.344-1-7.756-.1-7.913v-.576l.72-8.308 1.52-8.049 2.29-7.728 3.32-7.103 5.75-4.938 5.34-4.877 5.81-6.007 6.47-5.237 5.63-4.01 5.99-3.418 6.29-2.818 6.54-2.215 9.04-1.493 7.9-.18 7.02 1.087 6.81 1.444 7.74 2.205 8.83 3.464 6.09 3.021 5.9 3.282 6.35 4.031 7.92 6.143 4.94 4.62 4.75 4.864 4.74 5.385 5.87 8.094.16.217 3.67 6.214 3.28 6.311 3 6.627 2.07 8.798 1.04 8.704-.04 7.233-.65 7.177-1.28 7.062-1.94 7.17-2.9 8.194-3.66 7.251-2.52 6.972-3.44 6.827-5.77 5.225-6.32 4.611-6.84 3.946-7.3 3.225-7.71 2.457-7.09 1.71-7.2 3.157-2.6.216-6.23.517-9.03-.936-7.81-1.795-6.43-1.929-2.46-.736-8.74-3.6-7.38-3.965ZM1809.23 186.453l-1.19-9.929-.1-.847-2.3-9.732-.27-1.158M1631.03 113.197l-6.63 6.04M1796.32 241.112l4.53-8.999 3.32-9.433.26-.732 2.4-8.891M1697.62 81.853l-9.78.217M1757.95 104.805l-7.87-4.989M1785.59 130.805l-5.86-6.663M1835.11 284.239l4.05-9.142 2.65-5.988 1.31-3.8 1.41-4.087.14-.406.5-2.118 1.35-4.39 1.37-4.576.51-1.205.34-1.48.78-5.079.7-5.181.15-1.562-.04-1.749.04-5.266-.04-5.2-.21-1.943-.11-1.073-.27-4.639-.26-4.372-.2-3.435-.32-.113M1816.29 202.52l-1.33 5.345.03 4.855-1.05 6.066-.95 5.97-.84 6.029"/><path d="m1825.63 225.176.42-9.992.1-2.269-.03-3.801 1.04-4.186 1.31-2.336 1.25-3.265 1.45-2.835 1.63-2.379.66-.968 1.19.044 1.59-.422 1.68-.075.32.077 1.48.354 1.48.305.72.089 1.4 1.947 1.46 2.696 1.47 3.119 1.46 3.511 1.25 2.644.01.023M1819.59 195.377l-1.61 4.162M1832.4 187.505l-2.3-.558M1841.92 193.518l-6.69-5.5M1827.43 288.4l2.66-1.736M1810.71 265.746l1.05 4.496M1813.37 279.339l-.08 2.6 1.39 3.395 1.68 2.831 1.96 2.242 2.22 1.633.86-.817 1.22-1.165 2.31-.522M1848.97 207.457l.3.09"/><path d="m1822.25 241.618 1.07-4.79.25-4.817.36-4.954.66-4.719.75-4.673.6-3.547.21-1.203M1811.36 243.267l-1.36 6.121M1824.79 267.156l.06-2.041.08-10 .02-3.363M238.154 926.649l5.783 8.158.439.619 6.575 7.536.502.575 7.298 6.836.564.527 7.947 6.07.623.475 8.515 5.244.681.419 8.995 4.368.735.357 1.256.558 9.385 3.453.893.329 9.68 2.508.943.245 9.88 1.542.983.154 9.984.567 1.014.058 9.991-.41 1.035-.043 9.904-1.378 1.042-.145 9.724-2.331 1.037-.248 1.763-.439 9.455-3.257 1.024-.353 9.097-4.153.99-.452 8.657-5.007.943-.546 8.136-5.815.884-.632 7.54-6.569.813-.708 6.874-7.262.733-.774.977-1.147 6.145-7.889.584-.75 5.355-8.445.498-.785 4.515-8.923.41-.809 3.628-9.319.32-.821 2.705-9.627.231-.823 1.752-9.846.144-.814.779-9.97.062-.798-.208-9.998-.016-.775-1.194-9.929-.089-.747-2.173-9.761-.159-.714-3.131-9.498-.224-.68-4.063-9.137-.286-.644-4.952-8.687-.345-.606-5.796-8.149-.402-.566-6.579-7.532-.459-.525-7.297-6.838-.515-.482-7.94-6.079-.57-.436-8.505-5.261-.624-.386-8.983-4.394-.678-.331-9.372-3.487-.729-.271-1.402-.419-9.669-2.55-.868-.229-9.873-1.593-.912-.147-9.981-.624-.949-.06-9.994.348-.975.034-9.914 1.311-.992.131-9.741 2.26-.995.231-9.479 3.186-.986.331-1.705.596-9.129 4.08-.956.428-8.697 4.936-.919.522-8.184 5.746-.87.612-7.596 6.504-.809.692-6.935 7.204-.737.765-6.211 7.837-.655.826-.781 1.176-5.426 8.4-.504.78-4.588 8.886-.419.812-3.702 9.289-.332.834-2.778 9.606-.244.844-1.821 9.832-.156.844-.844 9.964-.071.835.147 9.999.012.819 1.14 9.935.091.796 2.127 9.771.167.767 3.094 9.51.239.735 4.033 9.151.308.699 4.933 8.7.375.661Z"/><path d="m305.06 896.725-3.989-2.461-3.212-2.473-3.442-3.243-2.723-3.061-2.649-3.794-2.133-3.717-1.768-4.001-1.392-4.422-.097-1.781-.147-2.7.537-3.687-.045-4.16.449-4.37.868-4.295 1.269-4.179 1.65-4.031 2.11-3.709 2.994-2.504 2.918-2.54 3.419-3.23 3.719-2.848 3.269-2.227 3.416-1.927 3.53-1.618 3.623-1.308 4.859-.965 4.169-.253 3.538.47.44.084 2.983.566 3.884 1.019 4.41 1.635 3.031 1.442 2.927 1.575 3.146 1.943 3.893 2.978 2.418 2.25 2.313 2.373 2.298 2.633 2.896 4.076 1.739 3.056 1.539 3.107 1.39 3.266.638 4.469.088 4.442-.453 3.729-.791 3.719-1.131 3.677-1.49 3.743-2.005 4.263-2.389 3.806-1.438 3.488-1.935 3.438-3.385 2.805-3.656 2.506-3.9 2.179-4.111 1.823-4.29 1.443-3.884 1.032-3.697 1.623-4.632.517-4.758-.28-4.088-.73-4.572-1.167-4.458-1.638-3.71-1.856ZM382.165 852.207l-.798-5.559M294.982 820.09l-4.259 4.017M375 881.543l2.49-5.308M358.37 817.118l-3.913-2.417M414.057 879.314l.201-2.234.068-.768-.077-.838-.009-2.589-.036-.772-.082-1.753-.319-.863-.075-.52-.047-2.332-.043-2.197-.035-1.728-.38-1.696M386.757 865.128l-1.292 2.914-.159 2.459-.833 3.119"/><path d="m389.164 884.526.625-2.394.037-2.322.221-2.447.436-2.363.598-2.398.651-2.444.124-1.927 1.01-2.283 1.19-1.398 1.255-1.898.839-1.03.549-.675 1.508-1.497.612-.609 1.114-.224.394-.144 1.158-.422 1.6-.395 1.646-.139 1.358-.142.814-.167 1.352.653 1.343 1.043 1.301 1.275 1.244 1.492 1.112 1.082.009.008.337-.041M412.73 885.945l.729-3.303.595-3.328M414.257 877.08l-.152.85-.315 1.763-.572 2.592-.321.798-.447.682-1.001 2.403-1.001 2.315-.302 1.069-.08.205-.807 2.066-.751 1.921M389.882 860.924l-.004.006-1.601 2.415M409.203 893.846l1.276-2.952M408.123 856.159l-1.713-1.331-1.724-.834-1.038.211-1.734.18M405.059 902.584l1.673-2.035M390.41 905.545l1.889.703 2.029.399.607-.482.932-.716 2.055-.651 2.124-.944M412.791 861.076l-1.427-1.389-1.587-1.903M383.71 876.682l-.556 3.017-.284 3.123-.046 2.964M1386.16 283.994l-7.18-6.965-7.18-6.965-7.17-6.965-7.18-6.965-.76-.746-6.97 7.175-6.96 7.176-6.97 7.175-7.03 7.245-.68.699 7.17 6.965 7.18 6.965 7.18 6.965 7.17 6.965.77.746.61-.629 6.96-7.175 6.97-7.176 6.96-7.175 7.11-7.315ZM1352.13 252.127l-7.18-6.966-7.17-6.965-3.27-3.169-6.97 7.175-6.96 7.176-3.17 3.265 7.18 6.965 7.17 6.965 3.27 3.17 6.96-7.176 6.97-7.175 3.17-3.265ZM1370.34 237.399l-7.18-6.965-4.87-4.732-6.97 7.175-4.73 4.875 7.18 6.965 4.87 4.733 6.97-7.176 4.73-4.875ZM425.543 471.857l6.982 7.159 6.982 7.159 6.982 7.159 6.982 7.159 6.983 7.159 6.982 7.159 6.982 7.159 6.982 7.159 6.982 7.159 6.982 7.159 6.982 7.158 6.982 7.159 6.982 7.159 6.983 7.159 6.982 7.159 6.982 7.159 6.982 7.159 6.982 7.159 6.982 7.159 6.982 7.159 6.982 7.159 6.982 7.159 6.983 7.158 6.982 7.159 6.982 7.159 6.982 7.159 6.982 7.159 6.982 7.159 6.982 7.159 6.982 7.159 6.983 7.159 6.982 7.159 6.982 7.159 6.982 7.159 6.982 7.158 6.982 7.159 6.982 7.159 6.982 7.159 6.982 7.159 6.982 7.159 6.983 7.159 6.982 7.159 6.982 7.159 6.982 7.159 6.982 7.159 6.982 7.159 6.982 7.159 6.982 7.158 6.983 7.159 6.982 7.159 6.982 7.159 6.982 7.159 6.982 7.159 6.982 7.159 6.982 7.159 6.982 7.159 6.982 7.159 6.983 7.159 8.715 8.935 7.071-7.071 3.404-3.404-7.159-6.982-7.159-6.982-7.159-6.982-7.159-6.982-7.159-6.982-7.159-6.983-7.158-6.982-7.159-6.982-7.159-6.982-7.159-6.982-7.159-6.982-7.159-6.982-7.159-6.982-7.159-6.982-7.159-6.983-7.159-6.982-7.159-6.982-7.159-6.982-7.158-6.982-7.159-6.982-7.159-6.982-7.159-6.982-7.159-6.982-7.159-6.983-7.159-6.982-7.159-6.982-7.159-6.982-7.159-6.982-7.159-6.982-7.158-6.982-7.159-6.982-7.159-6.982-7.159-6.983-7.159-6.982-7.159-6.982-7.159-6.982-7.159-6.982-7.159-6.982-7.159-6.982-7.159-6.982-7.159-6.983-7.159-6.982-7.158-6.982-7.159-6.982-7.159-6.982-7.159-6.982-7.159-6.982-7.159-6.982-7.159-6.982-7.159-6.983-7.159-6.982-7.159-6.982-7.159-6.982-7.159-6.982-7.158-6.982-7.159-6.982-7.159-6.982-7.159-6.982-8.936-8.716ZM947.204 1153.76l-7.159-6.98-7.159-6.99-7.159-6.98-7.159-6.98-7.159-6.98-7.159-6.98-7.158-6.99-7.159-6.98-7.159-6.98-7.159-6.98-7.159-6.98-7.159-6.99-7.159-6.98-7.159-6.98-7.159-6.98-7.159-6.98-7.159-6.99-7.159-6.98-7.158-6.98-7.159-6.98-7.159-6.99-7.159-6.98-7.159-6.98-7.159-6.982-7.159-6.982-7.159-6.982-7.159-6.983-7.159-6.982-7.159-6.982-7.159-6.982-7.159-6.982-7.158-6.982-7.159-6.982-7.159-6.982-7.159-6.982-7.159-6.983-7.159-6.982-7.159-6.982-7.159-6.982-7.159-6.982-7.159-6.982-7.159-6.982-7.158-6.982-7.159-6.982-7.159-6.983-7.159-6.982-7.159-6.982-7.159-6.982-7.159-6.982-7.159-6.982-7.159-6.982-7.159-6.982-7.159-6.983-7.159-6.982-7.158-6.982-7.159-6.982-7.159-6.982-7.159-6.982-8.936-8.715 6.982 7.159 6.982 7.159 6.982 7.158 6.982 7.159 6.982 7.159 6.983 7.159 6.982 7.159 6.982 7.159 6.982 7.159 6.982 7.159 6.982 7.159 6.982 7.159 6.982 7.159 6.982 7.159 6.983 7.158 6.982 7.159 6.982 7.159 6.982 7.159 6.982 7.159 6.982 7.159 6.982 7.159 6.982 7.159 6.982 7.159 6.983 7.159 6.982 7.159 6.982 7.159 6.982 7.158 6.982 7.159 6.982 7.159 6.982 7.159 6.982 7.159 6.983 7.159 6.982 7.159 6.982 7.159 6.982 7.159 6.982 7.159 6.982 7.158 6.982 7.16 6.982 7.16 6.982 7.16 6.983 7.16 6.982 7.16 6.982 7.15 6.982 7.16 6.982 7.16 6.982 7.16 6.982 7.16 6.982 7.16 6.982 7.16 6.983 7.16 6.982 7.16 6.982 7.15 6.982 7.16 6.982 7.16 6.982 7.16 6.982 7.16 6.982 7.16 6.982 7.16 8.716 8.93M1941.35 749.534l-7.15-6.982-7.16-6.982-7.16-6.982-7.16-6.982-7.16-6.982-7.16-6.982-7.16-6.983-7.16-6.982-7.16-6.982-7.15-6.982-7.16-6.982-7.16-6.982-7.16-6.982-7.16-6.982-7.16-6.982-7.16-6.983-7.16-6.982-7.16-6.982-7.15-6.982-7.16-6.982-7.16-6.982-7.16-6.982-7.16-6.982-7.16-6.982-7.16-6.983-7.16-6.982-7.16-6.982-7.15-6.982-7.16-6.982-7.16-6.982-7.16-6.982-7.16-6.982-7.16-6.982-7.16-6.983-7.16-6.982-7.16-6.982-7.15-6.982-7.16-6.982-7.16-6.982-7.16-6.982-8.69-8.472"/><path d="m1328.76 284.159-7.16-6.982-7.16-6.982-7.16-6.982-7.16-6.982-7.16-6.983-7.16-6.982-7.16-6.982-7.15-6.982-7.16-6.982-7.16-6.982-7.16-6.982-7.16-6.982-7.16-6.983-7.16-6.982-7.16-6.982-7.16-6.982-7.15-6.982-7.16-6.982-7.16-6.982-6.7-6.533 6.98 7.159 6.98 7.159 6.99 7.159 6.98 7.159 6.98 7.159 6.98 7.159 6.98 7.158 6.99 7.159 6.98 7.159 6.98 7.159 6.98 7.159 6.98 7.159 6.99 7.159 6.98 7.159 6.98 7.159 6.98 7.159 6.99 7.159 6.98 7.159 6.98 7.159 6.98 7.158 6.98 7.159 6.99 7.159 6.98 7.159 6.98 7.159 6.98 7.159 6.98 7.159 6.99 7.159 6.98 7.159 6.98 7.159 6.98 7.159 6.99 7.159 6.98 7.158 6.98 7.159 6.98 7.159 6.98 7.159 6.99 7.159 6.98 7.159 6.98 7.159 6.98 7.159 6.98 7.159 6.99 7.159 6.98 7.159 6.98 7.159 6.98 7.158 6.98 7.159 6.99 7.159 6.98 7.159 6.98 7.159 6.98 7.159 6.99 7.159 6.98 7.159 7.87 8.076 7.07-7.071 2.15-2.146-7.16-6.982-7.16-6.982-7.16-6.982-7.16-6.982-7.15-6.982-7.16-6.982-7.16-6.983-7.16-6.982-7.16-6.982-7.16-6.982-7.16-6.982-7.16-6.982-7.16-6.982-7.15-6.982-7.16-6.982-7.16-6.983-7.16-6.982-7.16-6.982-7.16-6.982-7.16-6.982-7.16-6.982-7.16-6.982-7.15-6.982-7.16-6.983-7.16-6.982-7.16-6.982-7.16-6.982-7.77-7.578M618.45 440.224l-.001.002M620.275 436.312l-.002.003M624.18 439.67l.008.27M622.586 446.104v.002l.235.42 2.796 5.014M629.462 459.981l-.001.001M631.495 455.845l-.003.004M731.434 339.671l.019-.033.005-.008v-.001M735.755 342.092l-4.322-2.42-.001-.001-.004-.002-.001-.001-.372-.208-.009-.005-.831-.465M750.812 352.25l.743-1.299.002-.005.001-.001M742.697 346.775l-.241-.163-2.283-1.54-.407-.275M938.434 787.046l-1.01 1.827-.297.537-.307.555M940.738 785.905l-.526.988-.086.163-.121.228-.221.416-.167.313-.699 1.317M944.603 783.47l-.213.432-1.094 2.207-.104.209-.001.003-.109.22M945.715 792.998l1.998 1.634.993.812M954.508 800.846l-.231.429-.273.508M956.892 799.738l-.775 1.505M960.385 798.277l-.069.145-.001.003-.1.208M962.082 805.403l8.569 5.155 8.569 5.154 8.569 5.155 8.569 5.155 8.572 5.155 8.57 5.155 8.57 5.155 8.56 5.155 8.57 5.155 8.57 5.155 8.57 5.155 8.57 5.155 8.57 5.155 8.57 5.154 8.57 5.155 2.93 1.768 2.33 1.398M1121.38 892.496v.002M1138.88 877.24l-.15.038M1084.42 670.547l-.5-.822-3.62-6.002M1642.93 462.213l6.98 7.159 6.98 7.159 6.98 7.159 6.98 7.159 6.99 7.159 6.98 7.159 6.98 7.159 6.98 7.159 6.98 7.159 6.99 7.158 6.98 7.159 6.98 7.159 6.98 7.159 6.99 7.159 6.98 7.159 6.98 7.159 6.98 7.159 6.98 7.159 6.99 7.159 6.98 7.159 6.98 7.159 6.98 7.159 6.98 7.158 6.99 7.159 6.98 7.159 6.98 7.159 6.98 7.159 6.98 7.159 6.99 7.159 6.98 7.159 6.98 7.159 6.98 7.159 6.99 7.159 6.98 7.158 6.98 7.159 6.98 7.159 6.98 7.159 6.99 7.159 6.98 7.159 6.98 7.159 6.98 7.159 2.95 3.022"/></g><defs><clipPath id="a"><path fill="#fff" d="M0 0h1920v1080H0z"/></clipPath></defs></svg>