<svg width="1920" height="1080" fill="none" xmlns="http://www.w3.org/2000/svg"><g clip-path="url(#a)" stroke="#EFC018" stroke-width="5" stroke-linejoin="round"><path d="m954.086 800.467-.434.795.049.105.139.193.224.274.302.345.366.402.417.444.453.468.469.476.47.463.45.434.415.388.362.327.297.253.219.169.133.08.043-.014.145-.079"/><path d="m955.384 800.499-.301.567-.361.681-.034.067.058.158.151.241.108.143.13.174.314.379.379.428.43.459.462.473.481.469.476.448.43.384.026.024.419.353.055.043.31.243.297.205.216.119.13.027 2.427-1.361.251-.14"/><path d="m954.723 801.747.128.026.216.117.296.205.364.285.419.354.458.409.478.448.48.47.465.475.43.46.379.428.251.303.064.077.236.316.151.241.058.157-.036.066M958.082 799.544l-.133.266-.106.212-.161.321-.014.235.083.314.01.021.169.36.267.432.345.468.409.485.316.334.142.15.294.278.196.186.503.427.495.373.276.179.195.125.426.225.367.137.076.011.217.031.207-.053 3.595-2.024"/><path d="m957.684 800.344.113-.148.171-.045.035-.009.28.04.012.002.366.135.427.225.021.013.45.291.497.374.503.427.491.466.385.406.075.079.41.486.345.468.266.433.094.2.084.181.083.313-.006.096-.01.139-.113.146M1051.12 721.531l.01-.819-.1-.664-.23-.643-.34-.598-.44-.529-.53-.44-.59-.334"/><path d="m1051.13 720.712-.01.489-.01.171-.01.038-.01.028-.13.564-.27.576-.38.5-.01.004-.47.4-.55.294-.61.171-.64.042-.65-.088-.64-.215-.59-.335-.52-.44-.45-.529-.34-.599-.22-.643-.11-.665.03-.66.15-.63.27-.576.37-.494.01-.006.48-.404.55-.293.61-.17.64-.042.61.083.04.005v.001l.32.109.31.106M1034.03 729.865l.01-.006.5-.419.58-.307.63-.185.67-.052.66.078.65.209.6.33.53.44.44.531.33.603.22.651.08.676-.04.672-.17.644-.3.591-.41.515v.005M1037.3 735.749l-.67.053-.66-.079-.65-.208-.6-.331-.53-.439-.44-.532-.33-.603-.22-.652-.09-.675.05-.673M1038.51 735.256l-.58.308M1033.33 730.966l.3-.591M1027.57 742.437l.33.604.21.651.08.676-.06.672-.18.644-.31.591-.42.516v.004l-.51.415-.59.308-.65.184-.67.053-.67-.079-.65-.209-.61-.331-.53-.44-.44-.532-.33-.603-.21-.652-.08-.675.05-.673.19-.644.3-.591.42-.51v-.005l.52-.42.59-.307.64-.185.67-.053.68.08.65.209.6.331.54.439.44.532ZM1015.66 754.262l.34.599.21.644.08.665-.05.661-.18.63-.3.575-.42.499v.005l-.51.399-.58.292-.64.17-.67.041-.67-.089-.65-.217-.6-.335-.54-.441-.44-.53-.33-.598-.21-.644-.08-.665.05-.66.18-.63.3-.576.41-.494v-.005l.52-.404.58-.292.64-.171.67-.041.67.089.65.217.6.335.53.441.44.53ZM998.016 767.606l-.094-.644.008-.149.002-.033.024-.454.163-.602.283-.546.391-.463.004-.005.49-.373.567-.263.626-.143.65-.018.66.108.64.231.59.343.53.444.44.526.34.589.22.629.09.645-.03.636-.16.602-.29.546-.39.468-.01.004-.48.368-.5.23-.02.01-.05.023-.26.06-.36.083-.66.017-.65-.109-.64-.23-.598-.344-.326-.274-.202-.169-.441-.526-.337-.588-.118-.337-.102-.292Zm0 0-.063-.357M1002.09 770.458l.09-.015M987.176 776.983l.008-.599.133-.562.204-.41.008-.015.039-.078.356-.419.004-.004.455-.329.534-.22.591-.105.625.016.636.136.622.251.585.355.524.447.443.521.346.575.236.607.115.615-.009.6-.133.562-.252.502-.323.379-.007.008-.031.036-.005.004-.451.324-.534.22-.591.104M990.042 780.352l-.622-.251-.583-.355-.524-.446-.443-.521-.345-.574-.236-.606M977.591 784.598l.205-.447.309-.363.004-.004.279-.186.008-.005.121-.081.487-.166.547-.055.588.059.604.171.598.276.569.37.518.451.447.513.358.557.256.579.144.578.027.555-.092.51-.058.127-.004.008-.144.312-.314.366-.004.003-.404.268-.488.166-.547.054-.587-.06-.604-.171-.597-.276-.568-.37-.517-.45-.446-.513-.358-.556-.256-.577-.145-.577-.027-.555.091-.511Zm0 0 .008-.028M982.641 788.994l.009-.004M969.401 791.397l.251-.297.003-.003.348-.206.43-.103h.068l.32.002h.01l.096.001.541.109.565.212.569.306.549.388.51.455.451.505.373.535.282.545.181.534.023.165.001.008.047.329-.041.451-.151.382-.255.299-.004.003-.345.202-.43.102-.495-.004-.54-.11-.565-.212-.567-.305-.549-.388-.509-.454-.449-.504-.373-.535-.283-.544-.18-.533-.072-.502.001-.006.008-.089.031-.356.15-.382Zm0 0 .001-.005M974.223 796.219l.029-.015M962.632 796.842l.088-.105.097-.118.002-.003.28-.132.364-.033.434.068.486.165.52.257.534.338.278.214.25.193.501.461.455.495.391.511.312.508.221.485.122.443.019.385-.087.31-.187.225-.003.002-.279.129-.364.032-.434-.068-.486-.166-.216-.107-.303-.15-.533-.338-.527-.407-.5-.459-.454-.494-.39-.511-.094-.152-.218-.355-.222-.484-.062-.224-.061-.219-.019-.384.085-.312Zm0 0 .003-.005M967.711 801.51l3.371-1.867M1087.83 679.732l-.05.046-.12.091-.25.038-.34-.061-.39-.16-.45-.251-.48-.334-.49-.403-.49-.457-.46-.493-.18-.209-.24-.301-.37-.508-.19-.327-.1-.158-.2-.445-.02-.047-.1-.34-.02-.315.08-.229.17-.136.26-.038.33.063.13.051.06.022.21.087.07.036.38.216.48.333.49.402.49.456.46.492.32.39.1.119.36.507.29.485.2.445.12.387.02.284v.031l-.08.231Zm0 0-.02.039-1.94 3.501"/><path d="m1083.14 674.733-.69.34-.34.168M965.957 797.69l.501.46.454.496.391.511.313.508.221.485.122.443.018.385-.086.31-.185.223-.002.002-.282.131-.364.032-.434-.068-.486-.166-.205-.101-.314-.156-.534-.338-.526-.407-.5-.459-.454-.494-.39-.511-.095-.153-.217-.354-.222-.484-.065-.234-.058-.209-.019-.384.085-.312.008-.009.084-.101.095-.116.003-.001.277-.131.364-.033.433.068.487.165.52.257.534.338.278.215M967.707 801.514l3.389-1.877M971.618 795.695l-.549-.387-.508-.455-.45-.504-.373-.534-.282-.544-.181-.533-.072-.502.001-.01.008-.091.031-.35.15-.383.008-.01.246-.29.004-.002.344-.203.43-.104.074.001.324.002h.01l.087.001.54.109.565.212.569.305.55.388.51.456.45.505.373.535.283.545.18.534.022.156.001.008.048.338-.041.451-.151.382-.252.296-.003.003-.313.184-.036.021-.43.102-.495-.004-.54-.11-.564-.212-.568-.306ZM974.215 796.225l2.974-1.568M983.652 787.407l-.092.51-.055.12-.003.007-.148.32-.31.362-.004.004-.391.26-.017.011-.488.166-.547.054-.587-.06-.604-.171-.597-.276-.568-.37-.517-.45-.446-.513-.358-.556-.256-.577-.145-.577-.027-.555.09-.511.017-.035.189-.412.313-.367.004-.003.283-.188.008-.006.113-.075.487-.166.547-.055M983.48 786.274l.144.578M982.633 789.001l2.585-1.222M980.129 783.357l.604.171M981.902 784.174l.518.451.447.514M987.172 776.393l-.008.6.115.615.236.606.345.574.443.52.524.446.583.355.622.251.635.136.625.017.591-.104 1.945-.728"/><path d="m987.176 776.392.019-.08.114-.482.212-.425.008-.015.031-.062.36-.424.005-.004.45-.324.534-.221.591-.104.625.016.636.136.622.25.585.356.524.447.443.52.346.575.235.607.116.615-.009.601-.134.562-.251.502-.316.37-.007.008-.034.04-.004.005-.456.328-.402.165-.132.054M1003.99 765.574l.33.589.22.63.1.644-.04.636-.16.602-.29.546-.39.463v.005l-.49.373-.48.22-.02.009-.07.033-.24.056-.27.063-.11.024-.65.017-.66-.108-.64-.231-.596-.343-.311-.261-.217-.182-.441-.526-.337-.589-.117-.336-.103-.292-.053-.367-.041-.278.01-.181.001-.033.023-.421.163-.602.284-.546.394-.469.006-.004.484-.369.567-.263.624-.143.65-.018.66.109.64.23.6.343"/><path d="m1002.08 770.467.41-.064.8-.126M1016.2 755.515l.08.665-.05.661-.18.63-.3.575-.41.494-.01.006-.51.403-.58.292-.64.17-.67.041-.67-.089-.65-.217-.6-.335-.53-.441-.44-.53-.34-.598-.21-.644-.08-.665.05-.66.18-.63.3-.576.42-.499v-.005l.51-.399.58-.292.64-.171.67-.041.67.089M1027.63 746.285l-.41.509-.01.006-.51.42-.59.307-.65.184-.67.054-.67-.08-.66-.209-.6-.331-.53-.44-.44-.531-.33-.604-.21-.652-.08-.675.05-.673.19-.644.3-.591.42-.515.01-.005.51-.414M1027.55 742.447l.34.603.2.652M1025.33 740.936l.65.209.6.331M1035.31 735.525l-.6-.33-.53-.44-.44-.532-.34-.603-.21-.652-.09-.675.05-.673.17-.644.3-.591.4-.515.01-.005.5-.415.58-.307.63-.184.66-.054.67.079.65.209.6.33.53.44.44.531.33.603.21.652.09.675-.04.672-.18.644-.29.592-.4.509-.01.006-.5.42-.58.308-.64.184-.66.054-.67-.079-.64-.209ZM1050.95 722.012l-.27.576-.38.494v.006l-.48.404-.55.294-.61.171-.64.042-.65-.088-.63-.215-.6-.335-.52-.44-.45-.529-.34-.599-.22-.643-.11-.665.03-.66.15-.63.27-.576.38-.5.01-.004M1050.8 719.415l.22.643.11.664M1046.36 717.422l.61-.17.64-.042.65.088v.001l.06.02.57.195M1049.48 717.849l.53.44.44.529M1061.31 710.9l-.24.546-.19.261-.15.208-.43.374-.52.265-.57.145-.61.02-.62-.107-.61-.229-.58-.342-.52-.442-.45-.525-.35-.588-.25-.628-.12-.645-.01-.636.11-.602.24-.546.34-.469.43-.373.42-.215.1-.049.57-.144.61-.019.62.107.61.229.58.341.52.442.45.524.35.588.24.627.13.644.01.635-.11.603Zm0 0-.58 1.793M1070.25 701.271l-.29.425-.38.33-.09.047-.37.176-.52.107-.57-.014-.59-.133-.59-.248-.56-.353-.51-.445-.45-.519-.37-.574-.26-.606-.16-.615-.05-.6.07-.563.18-.503.25-.365.04-.059.38-.33.46-.222.53-.105.56.014.59.134.59.248.56.353.51.444.45.518.36.573.27.605.16.614.05.6-.07.562-.18.504Zm0 0-1.08 2.453M1077.92 692.383l-.22.369-.32.275-.4.17-.44.055-.03.003-.51-.056-.55-.167-.55-.273-.54-.367-.51-.449-.45-.511-.38-.556-.3-.577-.2-.578-.09-.555.01-.478v-.034l.12-.449.23-.368.31-.274.41-.169.46-.057.52.057.54.167.56.273.54.367.5.448.45.51.39.554.29.577.2.577.1.555-.02.512-.12.449Zm0 0-1.45 2.862M1083.71 685.36l-.25.21-.33.107-.4.001-.46-.104-.5-.208-.52-.301-.08-.062-.43-.323-.5-.452-.46-.503-.4-.534-.19-.321-.14-.223-.24-.534-.13-.447v-.005l-.02-.051-.05-.453.01-.073.05-.312.15-.302.25-.209.13-.043.01-.001.19-.062h.4l.46.105.5.208.47.275.05.026.51.384.5.451.46.502.14.195.26.338.33.543.24.534.15.502.05.453-.06.386-.15.303Zm0 0-.62 1.152-1.17 2.156M1079.07 680.262l-1.66.733M1089.97 676.015l-.09.06-.18-.035-.27-.128-.17-.116-.16-.102-.4-.298-.44-.368-.19-.175-.27-.248-.48-.461-.47-.483-.44-.485-.39-.469-.34-.434-.12-.166-.15-.217-.18-.318-.02-.056-.08-.183v-.152l.09-.06.18.036.27.129.14.091.19.128.4.298.44.367.46.422.48.461.46.481.44.484.4.468.34.434.18.255.08.128.19.318.09.24.01.154Zm0 0-.99 1.768-1.06 1.916"/><path d="m1085.22 671.121-.19.103-.62.327M1089.59 675.175l.49-.885-.02-.018-.1-.109-.19-.198-.27-.277-.34-.346-.4-.403-.44-.443-.47-.467-.47-.472-.46-.459-.44-.429-.38-.381-.33-.32-.25-.246-.17-.163-.08-.073-.97.531M724.113 335.44l-8.727-4.883-6.635-3.712-8.884-4.592-8.884-4.591-8.883-4.592-4.347-2.246-8.916-4.529-8.915-4.529-8.916-4.528-4.417-2.244-9.164-4.003-9.164-4.003-9.164-4.003-5.181-2.263-9.577-2.878-9.577-2.877-9.578-2.877-9.577-2.878-9.577-2.877-9.577-2.878-9.577-2.877-3.099-.931 2.849 9.585 2.848 9.586 2.849 9.586 2.849 9.586 2.848 9.585 2.849 9.586 2.849 9.586.805 2.71 3.987 9.171 3.986 9.171 3.987 9.171 2.211 5.086 4.517 8.921 4.517 8.922 4.517 8.922 2.21 4.365 4.58 8.889 4.581 8.889 4.58 8.889 2.225 4.318 4.873 8.732 3.918 7.019M1079.13 664.596l-1.18 2.834-3.71 5.296-6.13 7.592-1.87 2.157v.005l-.52.594-.01.006-2.07 2.392-.01.008-3.04 3.511-.01.007-.81.939-.21.222v.007l-1.38 1.515-2.4 2.647-.01.008-3.23 3.558-.01.009-.71.781-.01.008-2.29 2.523-.48.514-2.06 2.183-.01.009-3.83 4.071-.01.01-.25.27-.01.01-3.76 3.998-1.33 1.419-.36.367-.01.009-4.35 4.496-.01.009-.24.249-4.25 4.387-1.31 1.355-.01.009-2.22 2.291-2.35 2.364-.01.01-.74.741-4.33 4.353-.89.899-.01.01-4.63 4.654-.01.009-.26.266-.95.929-4.38 4.291-.4.393-.01.009-4.55 4.451-.01.009-1.632 1.6-1.215 1.191-2.995 2.849-.01.009-.112.107-.009.009-4.284 4.076-5.093 4.846-.31.285-.633.582-3.703 3.404-4.551 4.185-1.066.98-1.076.99-2.363 2.077-3.071 2.699-1.057.928-3.223 2.833-7.714 6.323-5.433 3.891-2.979 1.347"/><path d="m947.823 794.542-.503.9.457 1.229 3.026-1.365 5.526-3.954 7.734-6.339.117-.096 4.013-3.526 1.197-1.051 3.231-2.84 1.45-1.274 1.84-1.691 1.086-.999 4.616-4.244 3.652-3.358.355-.326.275-.262 5.43-5.167 4.284-4.076.009-.009.096-.091.01-.009 2.632-2.504 1.574-1.542 1.63-1.6.01-.009 4.56-4.466.01-.009.41-.396 4.34-4.256.86-.837.37-.375.01-.01 4.65-4.669.01-.01.91-.915 4.28-4.306.75-.757.01-.01 2.49-2.503 2.1-2.165.01-.01 1.32-1.363 4.22-4.363.24-.249.01-.009 4.36-4.502.01-.009.72-.75.98-1.04 3.76-3.999.01-.009.26-.271.01-.009 3.81-4.056.01-.009 2.04-2.168 1.09-1.155 1.74-1.919.01-.009.71-.781v-.009l3.18-3.491v-.008l2.39-2.623 1.48-1.629v-.007l.92-1.01.14-.165.01-.008 2.88-3.324.01-.008 2.27-2.621.01-.005.68-.782v-.004l2.5-2.876 6.23-7.727 3.77-5.386 1.2-2.877-1.37-.309-.7.41M740.119 344.854l-2.962.57-5.03 2.732-6.93 4.818-2.62 2.059-.002.002-.604.475-.424.333-.005.004-2.523 1.982-.007.005-2.298 1.807-.007.005-.09.071-1.018.865-.006.005-1.836 1.561-2.172 1.847-.007.005-2.785 2.367-.007.007-.598.508-.007.006-1.462 1.242-.971.876-1.945 1.754-.007.006-4.121 3.716-.008.007-.352.317-1.454 1.31-1.962 1.769-.151.144-.007.007-5.289 5.008-.008.008-2.988 2.829-.008.008-2.846 2.695-3.448 3.416-.009.008-2.269 2.248-.008.008-5.571 5.519-.854.885-.008.007-2.567 2.661-.008.008-5.408 5.603-.007.008-1.987 2.059-1.418 1.542-.008.009-4.111 4.473-3.914 4.257-.336.366-.133.146-2.648 3.052-3.668 4.228-.844.973-1.436 1.656-.483.601-2.556 3.181-1.021 1.271-2.87 3.573-5.001 7.007-2.899 5.129-.714 3.078M628.398 455.556l.108.16 1.544 2.295.159.235M785.809 375.655l-8.292-5.59-2.815-1.897-8.291-5.59-8.292-5.589-6.894-4.648-.909-.612-1.453-.98"/><path d="m742.466 346.435.81-2.201-.833-1.654-3.072.58-5.227 2.833-7.212 5.01-4.15 3.26-.005.004-1.333 1.047-.005.004-.259.204-2.657 2.087-.007.005-.518.407-1.505 1.279-.007.006-1.101.936-.006.005-1.902 1.616-2.171 1.846-.007.005-2.914 2.477-.008.007-.532.452-.008.007-.151.129-2.025 1.825-2.004 1.806-.007.007-4.414 3.979-.009.007-2.819 2.542-.685.648-.007.007-5.868 5.556-.009.009-2.22 2.102-.007.007-2.982 2.824-4.319 4.278-.008.008-1.041 1.031-.008.008-6.411 6.351-1.108 1.148-.007.007-1.65 1.71-.009.009-6.094 6.316-.007.007-2.424 2.511-.534.581-.008.009-4.436 4.827-3.739 4.067-.231.253-1.392 1.514-1.618 1.865-3.664 4.225-.837.964-1.865 2.152-.972 1.12-1.822 2.269-1.075 1.338-1.948 2.426-.735.915-.046.057-1.588 1.979-5.202 7.292-3.007 5.332-.731 3.193 1.536.966 2.42-.823"/><path d="m742.441 342.58-2.248-1.736-3.071.568-1.19.641-4.027 2.169-3.418 2.366-.124.086-.636.44-.774.536-.004.003-1.779 1.232-.006.003-.104.072-.004.003-.342.237-2.275 1.783-.005.004-.948.743-.006.005-1.531 1.2-.006.004-.989.776-.006.004-2.473 1.938-.006.005-.658.516-2.425 2.057-.008.008-.421.357-.006.006-2.808 2.381-.005.005-4.601 3.904-7.431 6.692-3.801 3.423-7.263 6.874-4.465 4.226-7.105 7.037-4.628 4.585-6.943 7.197-4.303 4.46-6.764 7.366-3.525 3.838-2.839 3.278-1.821 2.103-.034.038-3.576 4.129-.639.738-1.355 1.691-.81 1.011-1.096 1.367-1.052 1.313-2.081 2.597-.297.371-.484.603-.857 1.206-.461.648-1.047 1.473-.692.973-2.111 2.97-2.426 4.325-.559.996-.717 3.192 1.737 2.251M1079.13 664.595l-.88-1.079-1.66-2.023M1071.32 655.059l-.83-1.021-.33-.406-6.34-7.738-6.33-7.738-6.34-7.738-6.33-7.738-3.13-3.819-6.5-7.6-6.5-7.6-6.49-7.6-6.5-7.6-6.5-7.6-5.47-6.396-6.681-7.443-6.678-7.444-6.677-7.443-6.678-7.444-6.678-7.444-5.566-6.204-6.853-7.284-6.852-7.283-6.852-7.283-6.853-7.283-6.852-7.283-5.676-6.033-7.47-6.648-7.47-6.648-7.471-6.648-7.47-6.648-7.47-6.648-6.235-5.548-7.696-6.386-7.696-6.385-4.624-3.837-7.696-6.386-6.946-5.763M634.703 464.924l.857 1.273.084.125 5.585 8.295 5.585 8.295 4.9 7.278 5.585 8.295 3.892 5.782 5.91 8.067 5.91 8.067 5.91 8.066 5.91 8.067 5.91 8.067 5.321 7.263 6.383 7.697 6.384 7.698 6.384 7.697 1.635 1.971 6.383 7.697 6.384 7.698 3.884 4.682 6.646 7.471 6.647 7.472 6.647 7.471 6.647 7.471 6.647 7.471 5.67 6.373 7.284 6.852 7.283 6.852 7.284 6.852 7.284 6.851 7.283 6.852 6.176 5.81 7.445 6.677 7.444 6.677 7.444 6.677 7.445 6.677 7.444 6.677 6.345 5.691 7.601 6.498 7.601 6.498 7.601 6.498 7.601 6.498 7.601 6.498 6.528 5.581 7.74 6.332 7.739 6.332 7.74 6.332 7.74 6.333 3.846 3.146.217.178.829.678M1096.12 885.965l2.23-.419.93-.487 2.65-1.381 4.79-3.258 5.82-4.529 6.63-5.63 7.17-6.508 7.21-6.926.21-.201 7.03-7.109.34-.346 6.85-7.288.18-.192 6.4-7.202 5.5-6.634 2.11-2.784M947.777 796.671l6.307 3.796.996.599M1127.59 904.259l8.65 5.025 4.58 2.663 1.8-.241 2.78-1.323 3.67-2.364 3.68-2.768.73-.55 5-4.145 5.37-4.811 4.52-4.314 1.02-.971 5.48-5.549.68-.735 4.52-4.854 4.72-5.406 4.05-5.008.35-.476 2.87-3.937 2.27-3.648 1.24-2.746.17-1.743-5.04-8.642-2.64-4.545"/><path d="m1111.63 898.689 8.73 4.875 3.37 1.877 2.08-.308 1.78-.874 1.49-.726 4.33-2.84 5.24-3.979 5.93-4.964 6.4-5.757 6.61-6.319 6.55-6.626 6.22-6.666 5.65-6.436 4.85-5.949 3.87-5.228 2.73-4.304.6-1.294.89-1.926.23-2.02-4.89-8.727-1.5-2.682M1093.59 884.445l-.24.451-.65 2.6.87 1.111 8.73 4.874.48.266 2.1 1.177.58.321 1.08.605"/><path d="m1093.57 888.607 2.38-.439 3.78-1.965.04-.025 5.13-3.48 6.23-4.845 7.09-6.027 7.41-6.721.27-.25 6.19-5.94v-.004l.68-.648.01-.007 1.08-1.036 4.05-4.097v-.006l1.24-1.249.01-.006 2.6-2.63 6.84-7.289.68-.725 6.64-7.478.21-.236 5.9-7.104 1.07-1.41M1152.75 905.252l8.22 5.697 4.47 3.105 1.11-.139 1.68-.779 2.2-1.392 2.63-1.953 2.96-2.44 3.18-2.832 3.27-3.112 3.23-3.271 3.06-3.3 2.78-3.2 2.38-2.974 1.89-2.632 1.34-2.189.73-1.662.1-1.074-5.7-8.217-3.1-4.455M972.311 806.01l-.029 5.411-.055 10-.054 10-.054 10-.055 10-.005.86-.054 10-.054 10-.055 10-.054 10-.054 10-.055 10-.054 9.999-.054 10-.012 2.09 7.544 6.564 7.544 6.565 7.543 6.564 7.546 6.565 7.54 6.564 7.55 6.565 7.54 6.564 7.54 6.565 6.83 5.945 7.87 6.181 7.56 5.948 7.86 6.18 7.55 5.94 7.86 6.18 7.54 5.93 7.86 6.18 7.52 5.92 4.29-2.09 6.36-7.71.87-1.05-4.06-9.14-4.06-9.14-3.46-7.79-3.66-9.309-3.67-9.305-3.31-8.417-3.91-9.204-3.91-9.204-3.32-7.828-1.49-9.888-1.5-9.888-1.49-9.888-.53-3.513 1.98-4.685 3.58-8.466 3.89-9.212 3.89-9.212 2-4.732.37-.877 1.5-3.565-1.94-1.253-8.4-5.423-8.4-5.423-8.4-5.423-8.41-5.423-8.4-5.423-8.4-5.423-8.4-5.423-8.4-5.423-7.37-4.752-8.4-5.423-.64-.413-8.399-5.423-8.402-5.422-8.402-5.423-3.909-2.524-3.787 2.85Z"/><path d="m976.099 803.16-.048 10-.003.528-.048 10-.049 10-.049 10-.028 5.881-.049 10-.049 10-.048 10-.049 10-.049 10-.048 10-.049 10-.049 9.999-.011 2.338M971.613 934.37l3.859-2.464 7.543 6.565 7.544 6.565 7.543 6.565 7.548 6.565 7.54 6.565 7.54 6.565 7.55 6.565 7.54 6.565 7.06 6.145 7.86 6.183 7.62 5.996 7.86 6.18 7.6 5.98 7.86 6.18 7.58 5.97 7.86 6.18 7.58 5.96M1207.58 784.04l9.94 1.137.54.062 9.23 3.853 9.23 3.854 4.94 2.061 9.33 3.581 9.34 3.581 5.12 1.965 9.16 4.018 9.16 4.018 4.57 2.009 4.63-2.691 6.37-7.714-6.26-7.799-5.48-6.824-6.26-7.798-5.46-6.811-6.26-7.798-5.46-6.797-6.26-7.799-5.44-6.784-6.61-7.508-6.6-7.508-6.61-7.509-6.6-7.508-6.61-7.508-6.6-7.509-6.61-7.508-6.6-7.508-2.65-3.003-9.99.312-10 .311-9.99.312-10 .311-9.99.312-10 .311-9.99.312-1.19.037-9.99.311-10 .312-9.99.311-2 .062"/><path d="m1204.15 780.33 9.94 1.141 8.41.966 9.22 3.857 9.23 3.856 5.01 2.093 9.33 3.585 9.34 3.584 5.19 1.993 9.15 4.022 9.16 4.021 4.64 2.04M937.906 786.424l-.307.545-.037.183.058.268.019.046"/><path d="m938.121 786.603-.16.287-.323.577-1.118 1.999.044.104.135.192.221.274.298.344.364.402.415.444.451.468.47.476.469.464.452.434.417.388.365.327.299.253.223.17.138.08.046-.013.14-.078"/><path d="m939.358 786.529-.409.751-.051.093-.639 1.172-.737 1.35-.034.071.061.161.152.245.034.046.204.274.314.381.38.43.43.46.463.474.479.469.477.446.457.406.098.083.32.269.109.084.255.198.295.203.216.115.129.023 2.812-1.611"/><path d="m937.523 789.896.127.021.216.114.295.202.364.283.418.351.457.406.478.448.481.47.464.476.431.461.38.429.306.373.009.01.238.318.151.245.059.161-.035.069M941.917 785.623l-.438.847-.271.524-.259.501-.147.285-.11.212-.191.369-.012.179-.005.063.047.184.035.136.177.386.265.437.344.471.409.488.458.485.138.13.31.293.042.04.504.425.497.37.407.259.065.042.429.219.369.13.193.024.102.012.209-.06.321-.184 3.397-1.951"/><path d="m940.5 788.362.115-.156.209-.06.017.001.277.033.055.019.314.111.429.219.231.148.241.152.498.37.505.426.491.466.46.485.08.096.33.393.344.472.265.437.085.187.091.199.081.32-.004.054-.011.141-.004.047-.116.152M949.203 790.939l.158-.208.026-.327-.108-.433-.237-.523-.151-.25M1030.57 704.916l-.01-.07v-.075l.04-.6.17-.646.28-.593.4-.511v-.006l.5-.421.57-.309.63-.186.66-.055.21.025.14.016.25.029.03.004.03.004.15.049.49.158.6.33.53.439.44.531.33.604.22.652.09.676-.01.26-.02.414-.01.007v.028l-.16.61-.29.593-.4.518-.01.005-.49.417-.57.31-.62.186-.66.056M1035.11 701.729l-.79-.279M1036.1 709.098l.54-.699.39-.801.22-.873.05-.91M1037.3 705.815l.02-.854M1032.17 707.75l-.53-.439-.44-.532M1025.02 715.166l.32.609.21.661.08.688-.06.687-.19.662-.32.609-.43.535v.004l-.52.434-.6.326-.65.201-.68.068-.68-.067-.65-.201-.61-.326-.53-.438-.44-.534-.33-.61-.21-.661-.07-.688.05-.655.01-.033.04-.158.15-.503.31-.609.42-.529.01-.006.52-.438.6-.326.65-.2.17-.017.51-.051.68.068.66.2.6.326.54.438.44.534Z"/><path d="m1024.83 720.775.01-.005.58-.722.42-.823.26-.893.08-.929-.1-.929-.28-.893-.45-.822M1012.78 727.606l.32.61.2.662.07.688-.07.688-.2.662-.32.61-.44.535-.01.005-.52.434-.61.327-.67.201-.68.068-.69-.068-.66-.2-.61-.326-.54-.438-.44-.535-.32-.61-.2-.662-.07-.688.07-.688.04-.15.07-.205.09-.307.32-.61.44-.529v-.006l.54-.439.61-.326.29-.089.2-.062.17-.05.69-.068.68.067.67.201.61.325.53.439.44.534ZM1013.1 732.655v-.005l.6-.722.44-.824.27-.894.09-.93-.09-.93-.27-.893-.44-.824M1000.38 739.935l.33.605.2.654.07.678-.06.676-.2.647-.32.595-.433.519-.005.005-.524.418-.604.311-.657.187-.684.056-.684-.078-.659-.208-.607-.33-.534-.44-.439-.532-.327-.605-.203-.654-.071-.678.028-.299.016-.163.02-.213.196-.648.321-.595.428-.513.005-.006.529-.423.604-.311.657-.187.055-.005.155-.013.474-.038.684.077.659.208.608.33.534.44.438.533ZM1001.29 744.345l.01-.005.58-.701.43-.803.27-.875.09-.913-.1-.916-.27-.884M982.106 753.945l-.015-.117-.069-.54.013-.187.003-.033.031-.43.177-.62.301-.564.407-.481.004-.006.508-.392.584-.281.637-.159.667-.032.226.032.131.019.313.046.649.222.601.338.531.443.44.529.333.595.212.638.084.658-.048.651-.178.619-.301.564-.412.487-.006.004-.502.387-.547.263-.022.01-.015.007-.637.16-.666.031-.67-.097-.648-.222-.601-.339-.53-.442-.44-.528-.333-.595-.206-.619-.006-.019Zm0 0-.017-.115-.077-.532M986.203 756.774l.082-.014M989.797 755.451l.006-.004.557-.658.406-.762.241-.837.065-.879-.113-.888M970.887 763.153l.145-.578.231-.451.008-.016.027-.052.371-.436.004-.005.47-.346.548-.237.605-.119.637.003.646.125.605.233.025.01.084.05.506.301.526.445.443.523.342.581.228.616.106.627-.02.614-.146.577-.266.519-.35.41-.007.009-.019.022-.005.004-.466.341-.549.236-.604.119-.637-.004-.645-.125-.629-.243-.589-.351-.525-.445-.443-.523-.057-.097-.064-.109-.221-.373-.228-.615-.107-.626.02-.614Zm0 0 .014-.083M975.617 767.159l.096-.036M979.008 765.606l.005-.004.508-.595.36-.702.198-.781.028-.83M960.964 771.768l.218-.462.321-.378.004-.005.305-.209.009-.006.106-.072.499-.181.559-.068.597.047.613.162.604.269.573.366.466.403.054.047.046.054.4.462.355.562.251.586.137.588.017.567-.102.525-.069.145-.004.008-.146.309-.326.381-.004.004-.416.283-.5.18-.559.067-.597-.048-.611-.162-.604-.269-.572-.366-.006-.005-.107-.093-.406-.351-.445-.515-.355-.561-.251-.585-.137-.587-.018-.567.101-.525Zm0 0 .01-.032M966.031 776.154l.009-.005M969.273 774.479l.005-.003.44-.516.296-.625M952.511 778.91l.26-.31.003-.003.358-.219.439-.115.416-.007h.01l.077-.001.06.011.488.088.571.204.573.3.553.385.512.454.45.507.371.54.126.249.088.175.064.127.175.543.022.177.001.008.041.327-.049.462-.159.395-.265.312-.004.003-.354.215-.44.114-.503.007-.547-.1-.098-.035-.18-.065-.293-.104-.572-.3-.552-.384-.51-.454-.449-.506-.371-.538-.278-.551-.175-.542-.006-.047-.032-.252-.027-.212.048-.463.158-.395Zm0 0 .002-.005M957.34 783.738l.024-.014M945.556 784.647l.121-.149.069-.085.002-.002.287-.142.369-.043.439.059.491.157.524.251.538.334.53.405.069.064.432.395.455.497.389.515.31.513.218.491.118.452.013.393-.092.32-.193.235-.004.002-.284.139-.37.042-.439-.06-.491-.158-.171-.082-.352-.169-.537-.334-.528-.404-.501-.458-.453-.496-.293-.386-.096-.128-.31-.512-.218-.491-.063-.237-.056-.214-.014-.393.091-.321Zm0 0 .002-.006"/><path d="m950.645 789.306.953-.537.548-.309 1.986-1.121M954.523 786.044l-.15-.579-.009-.032-.091-.207-.203-.458M1075.8 662.616l-.13.101-.05.04-.26.041-.34-.058-.41-.157-.45-.25-.49-.332-.49-.402-.49-.457-.43-.457-.03-.036-.42-.512-.36-.509-.04-.078-.24-.41-.2-.448-.01-.017-.1-.373-.01-.318.08-.233.18-.14.27-.04.34.059.04.018.01.002.32.124.03.014.46.25.48.331.49.402.49.456.46.492.42.51.03.052.33.457.28.487.2.448.11.39.01.241v.078l-.08.234Zm0 0-.07.113-2 3.547M1071.11 657.611l-.72.367-.4.206-.6.307-1.15.583M1070.71 665.34l.14.11.65.448.62.337.55.212.46.078.36-.058.24-.191M950.642 789.308l-.002.002-.287.141-.37.042-.439-.06-.491-.158-.16-.077-.364-.174-.536-.334-.529-.404-.5-.458-.454-.496-.293-.387-.096-.126-.309-.513-.219-.49-.065-.248-.053-.203-.014-.394.091-.321.007-.01.118-.144.067-.082.003-.002M950.793 787.911l.118.451M946.027 784.272l.37-.043"/><path d="m950.637 789.31.957-.539.548-.309 2.003-1.131M946.836 784.288l.491.158M954.701 783.261l-.552-.384-.51-.454-.449-.506-.371-.538-.278-.551-.175-.542-.006-.049-.033-.257-.026-.206.048-.462.158-.395.009-.011.254-.302.004-.003.354-.216.439-.115.426-.007h.01l.067-.001.067.012.481.087.571.204.574.3.553.385.511.454.45.507.371.539.126.251.089.175.063.126.175.542.021.169.001.008.042.336-.049.462-.159.395-.262.309-.003.003-.327.198-.031.019-.44.115-.502.007-.548-.1-.096-.035-.18-.064-.295-.106-.572-.299ZM960.414 782.09l.485-.294M957.332 783.742l3.082-1.652M966.448 775.872l-.005.004-.403.274-.018.012-.499.18-.559.068-.597-.049-.612-.161-.603-.27-.571-.366-.005-.004-.107-.093-.408-.352-.444-.515-.356-.56-.251-.586-.137-.587-.018-.567.101-.525.018-.039.199-.423.325-.382.005-.003.31-.212.008-.006.098-.066.498-.181.56-.069M963.574 770.441l.612.161.605.269.573.367.466.404.054.046.047.054.399.461.355.562.251.586.136.588M967.091 774.507l-.103.524-.065.138-.003.008-.15.316M968.699 774.87l.569-.387.004-.004M961.854 768.944l-.901 2.83M966.02 776.161l2.68-1.291M976.661 766.547l-.007.009-.022.026-.005.005-.471.345-.443.191-.105.045-.604.119-.637-.004-.646-.126-.629-.242-.588-.351-.526-.445-.442-.523-.057-.096-.064-.109-.221-.375-.229-.614-.106-.627.02-.613.023-.092.122-.486.239-.467.008-.016.018-.036.375-.441.006-.004.465-.342.548-.237.604-.12.638.003.646.126.605.233.025.009.085.051.504.3M976.758 762.612l.342.581.229.615.106.627-.02.614-.147.578-.266.519M971.238 760.984l-.359 2.178M977.625 766.396l.741-.319.637-.466.004-.005M975.609 767.169l2.019-.773M988.816 754.282l-.178.62-.301.564-.408.481-.004.005-.508.392-.526.252-.021.011-.037.017-.545.136-.092.023-.667.032-.67-.097-.647-.222-.601-.339-.53-.442-.44-.529-.333-.594-.206-.619-.006-.019-.015-.117-.069-.54.016-.221.002-.033.029-.397.177-.619.3-.564.412-.487.006-.004.502-.388.583-.281M986.012 750.208l.648.222.601.339.531.443.441.529.333.595.212.638.084.658M981.918 752.757l.158 1.082.017.115M987.457 756.579l.861-.215.788-.379.686-.529.005-.005M985.344 750.111l.226.033.132.019M986.195 756.783l1.264-.204M996.142 745.01l-.608-.33-.534-.44-.438-.533-.327-.604-.203-.654-.071-.678.028-.299.015-.163.02-.214.196-.648.321-.594.433-.519.006-.005.523-.419.604-.311.657-.187.056-.005.155-.012.473-.039.685.077.659.208.608.33.533.44.437.533.33.605.2.654.07.678-.06.676-.2.648-.32.595-.426.513-.005.005-.529.423-.605.311-.657.187-.683.056-.685-.077-.658-.208Z"/><path d="m997.02 745.566.924.105.924-.076.887-.252.815-.42.72-.572v-.005M1012.33 732.066v.006l-.54.439-.61.326-.66.202-.68.068-.69-.068-.66-.2-.61-.326-.54-.439-.44-.534-.32-.61-.2-.662-.07-.688.07-.688.04-.151.06-.204.1-.307.32-.61.44-.535.01-.005M1011.18 726.318l.61.326.54.439.44.534.32.61M1013.29 728.89l.07.688M1013.29 730.266l-.2.662M1009.73 734.058l.93-.092.89-.271.82-.441.72-.593.01-.006M1008.48 726.32l.3-.09.2-.061.17-.051M1009.84 726.05l.68.068M1024.63 719.62l-.01.006-.52.439-.6.326-.65.201-.68.068-.68-.068-.66-.2-.6-.326-.54-.438-.44-.534-.33-.61-.2-.661-.08-.688.06-.656v-.032l.05-.159.14-.502.32-.61.43-.534v-.005l.52-.433M1025 715.176l.33.609M1025.61 717.134l-.06.687M1023.31 721.814l.81-.441.71-.592v-.006M1021.41 713.678v-.001l.16-.016.52-.051M1023.43 713.878l.6.326M1037.31 704.971l-.03.63-.01.044v.007l-.16.639-.29.593-.4.512v.005l-.5.422-.57.31-.63.187-.65.055-.67-.077-.64-.208-.6-.33-.53-.439-.44-.532-.33-.604-.22-.653-.08-.607-.01-.069v-.076l.04-.598.16-.646.29-.593.4-.517.01-.005.49-.417.57-.309.63-.186.66-.055.21.025.14.017.28.033.03.003.01.006.63.202.6.329.53.439.44.532.33.603.22.652.09.676Zm0 0v.25M1035.1 701.74l-.48-.169M1047.94 694.76l-.25.561-.19.248-.17.237-.45.389-.54.28-.58.158-.63.032-.63-.098-.62-.221-.59-.338-.52-.442-.45-.527-.34-.593-.1-.262-.05-.122-.09-.253-.12-.654.01-.649.13-.616.25-.561.36-.485.45-.389.41-.211.12-.067.59-.158.63-.03.63.097.62.222.04.024.11.063.43.251.53.441.44.527.35.592.24.635.11.654v.648l-.13.617Zm0 0-.61 1.859M1043.94 690.02l-2.01.196M1042.68 699.064l.85.131.85-.043M1050.66 687.887l.77.473.8.327.81.169.78.005.73-.16.65-.318.54-.465M1057.3 684.783l-.3.438-.4.343-.09.042-.39.193-.54.118-.58-.004-.6-.125-.59-.242-.57-.35-.52-.444-.25-.299-.09-.106-.1-.116-.37-.578-.26-.613-.15-.624-.03-.61.08-.575.2-.515.25-.359.05-.079.4-.342.48-.234.54-.117.58.004.6.126.59.243.56.349.52.444.04.049.1.107.31.364.36.577.26.611.15.623.04.61-.09.575-.19.516Zm0 0-1.15 2.542M1052.93 679.702l-2.48.699M1058.82 678.614l.06.051.05.037.69.457.75.362.76.217.71.065.65-.092.56-.243.45-.385.32-.514M1065.35 675.604l-.24.38-.33.284-.41.18-.45.061-.03.005-.53-.048-.56-.161-.56-.268-.11-.076-.15-.102-.28-.187-.51-.448-.45-.513-.38-.559-.29-.582-.19-.585-.09-.564.03-.462v-.059l.13-.458.24-.378.34-.284.41-.178.48-.066.53.049.55.162.56.268.54.365.51.446.45.513.38.557.17.336.08.162.04.084.19.583.09.564-.03.521-.13.458Zm0 0-1.53 2.965"/><path d="m1060.94 670.603-1.47.575v.002l-.61.238-.01.003M1065.45 670.931l.7.517.65.367.06.036.11.046.57.228.64.134.56-.01.46-.156.35-.293M1071.44 668.376l-.26.216-.34.114-.18.003-.23.005-.47-.1-.51-.203-.52-.299-.09-.065-.43-.318-.5-.452-.46-.503-.4-.537-.16-.286-.16-.262-.17-.401-.01-.004-.05-.133-.14-.509-.01-.053-.03-.406.06-.392.17-.309.25-.215.35-.113.41-.006.47.101.5.203.45.254.07.045.52.382.5.451.46.502.19.254.21.281.32.547.24.538.14.508.04.459-.05.311-.02.082-.16.31Zm0 0-.05.092-1.84 3.331"/><path d="m1066.8 663.268-2.07.957-.01.003-.04.02-.01.003-1.38.642M1078.09 658.853l-.09.061-.19-.035-.26-.129-.11-.07-.23-.147-.4-.299-.44-.367-.08-.067-.39-.356-.48-.462-.47-.483-.44-.485-.39-.469-.34-.434-.26-.384-.18-.317-.09-.24.01-.152.09-.06.19.036.2.097.07.033.33.218.4.298.44.368.47.422.48.46.46.482.44.484.4.468.33.434.22.314.04.069.18.318.09.241v.153Zm0 0-1.5 2.64-.66 1.164"/><path d="m1073.35 653.958-.87.473-1.16.628-.73.397-.04.024-.72.387M1075.73 662.729l.07.012.13-.084"/><path d="m1077.77 658.072.51-.905-.01-.021-.11-.113-.19-.2-.27-.279-.34-.349-.4-.404-.45-.444-.46-.467-.47-.472-.47-.458-.43-.427-.38-.38-.33-.317-.25-.244-.16-.159-.08-.07-1.17.652-.6.339-1.22.684"/><path d="m1072.31 653.015-.28-.149-.24-.081-.16.012-1.47.835M1104.89 894.924v.008l.1.202.15.235.14.199"/><path d="m1105.46 895.245-.18.323-.46.818v.022l.05.072.09.12.15.164.18.202.22.231.24.252.25.263.26.264.26.254.24.236.22.207.19.172.15.128.1.081.05.031.17-.093"/><path d="m1106.56 895.817-.02.033-.37.717-.25.476.01.075.06.122.12.165.16.201.19.23.23.249.26.26.26.26.27.25.16.137.1.094.25.202.22.167.18.124.14.077.09.027.05-.024 1.37-.807"/><path d="m1105.92 897.044.04-.025.09.027.14.077.19.124.21.166.25.203.26.231.27.25.27.261.25.26.14.154.09.095.2.23.16.202.11.164.07.122.01.075M1108.94 894.875l-.44.905-.02.042-.24.52-.03.064-.06.119-.01.041-.02.079.01.091.01.072.07.156.01.046.14.231.17.252.22.264.25.265.14.131.13.125.29.238.28.21.2.126.07.048.26.131.22.084.18.033.14-.02.72-.439 1.27-.767"/><path d="m1108.15 896.526.08-.071.02-.002.08-.012.04-.005.18.033.22.083.12.059.14.072.27.174.28.21.29.238.27.257.25.265.22.264.03.045.07.103.08.105.13.231.08.201.02.164-.03.119-.08.07M1112.9 897.922l.11-.094.05-.163-.04-.221-.11-.272-.03-.068M1162.56 853.769l.16-.589.08-.357.02-.372-.06-.373-.12-.358-.18-.329-.24-.291-.29-.238-.32-.177-.55-.289"/><path d="m1162.72 853.18-.01.02-.04.072v.012l-.1.226-.22.288-.26.237-.3.176-.34.107-.35.036-.36-.037-.35-.11-.32-.177-.29-.238-.24-.29-.18-.331-.12-.358-.06-.373.02-.372.08-.358.16-.329.21-.289.26-.236.31-.175.33-.108.35-.036.36.038.24.077.02.006.05.014.04.013M1162.06 854.608l.01-.002.28-.391.21-.445M1153.35 857.873l.28-.242.32-.18.36-.113.36-.039.37.034.35.107.33.176.29.238.24.291.18.332.11.361.05.376-.03.376-.1.363-.17.335-.23.294"/><path d="m1156.05 861.088.01-.003.31-.397.22-.453.14-.49.04-.509-.06-.508-.15-.488-.24-.449-.33-.393M1155.78 860.824l-.32.18-.35.113-.37.039-.37-.034-.35-.107-.33-.176-.29-.238-.24-.291-.18-.332-.11-.361-.05-.376.03-.377.1-.362.17-.335M1146.72 864.682l.29-.239.33-.177.36-.109.37-.038.38.037.36.109.33.177.29.238.24.29.17.332.11.359.04.374-.04.375-.11.359-.17.332-.24.291"/><path d="M1149.72 867.593v-.003l.32-.393.24-.448.15-.486.05-.506-.05-.505-.15-.486-.24-.448-.32-.393M1148.08 867.955l-.38-.036-.36-.109M1149.14 867.63l-.33.178-.36.109M1146.2 865.665l.1-.36.18-.331M1146.31 866.772l-.11-.36-.04-.374M1147.01 867.633l-.29-.239-.24-.29M1139.96 871.3l.29-.227.33-.166.36-.099.37-.028.38.044.36.114.33.181.29.239.24.289.17.328.11.354.04.366-.04.365-.11.35-.17.32-.24.279M1143.26 873.914v-.003l.32-.377.24-.433.15-.472.05-.493-.05-.495-.14-.479-.24-.443-.32-.391M1141.31 874.529l-.37-.044-.36-.115-.34-.18-.29-.239-.23-.289-.18-.328-.11-.354-.04-.366M1142.04 874.402l-.36.099M1139.43 872.249l.11-.35M1132.79 879.109l-.02-.176v-.02l-.02-.158.03-.349.11-.332.17-.301.23-.259.28-.207.33-.147.35-.082.37-.012.36.056.36.124.33.185.29.242.24.287.18.321.11.345.04.354-.03.349-.1.331-.17.302-.24.258-.24.176v.005l-.04.027-.32.146-.36.082-.36.012-.37-.056-.36-.124-.33-.186-.29-.24-.23-.287-.18-.322-.12-.344ZM1136.88 879.848l.01-.003.31-.35.23-.407.14-.448.04-.472-.06-.478-.15-.466-.24-.435M1126.45 884.268l.01-.328.09-.307.03-.045v-.008l.13-.222.21-.231.27-.18.31-.121.34-.058.35.008.36.074.35.136.32.193.29.244.24.284.18.313.12.332.05.336-.02.327-.08.308-.16.274-.05.053v.004l-.16.175-.27.18-.31.12-.34.058-.35-.009-.36-.073-.35-.136-.32-.194-.29-.243-.24-.284-.18-.313-.12-.331-.05-.336ZM1130.8 885.205v-.002l.29-.313.21-.372.12-.415.03-.443-.07-.455-.16-.447-.25-.424M1121.07 887.958l.03-.019v-.003l.21-.125.29-.088.31-.028.34.034.34.094.34.152.32.203.28.246.24.28.19.303.13.315.07.314v.302l-.06.229v.003l-.01.045-.13.242-.2.198M1120.74 889.29l.13.315.19.303.24.279.28.246.32.203.34.152M1122.58 890.883l.33.034M1120.67 888.675l.07-.277M1125.2 889.818v-.002l.26-.268.18-.327.09-.375v-.407l-.09-.425-.17-.426M1115.9 891.861l.21-.107.26-.052.08.002.21.004.31.064.32.119.33.17.3.213.28.25.25.276.2.291.14.296.08.288v.005l.03.266-.05.242-.1.205-.16.159v.001M1120.25 893.542l.22-.215.14-.277.05-.328-.03-.366-.11-.39-.19-.4-.27-.394M1115.84 893.322l.2.291.25.275.28.249.3.214M1117.52 894.64l.31.064.29.007"/><path d="m1118.59 894.552 1.65-1.005v-.004l.01-.001M1115.63 892.226l-.04.242.03.271M1111.45 894.836l.13-.116.18-.064.22-.01.25.044.29.095.3.147.3.188.3.225.27.254.25.271.21.277.16.275.11.261.05.237-.01.205-.07.162-.13.115v.002l-.18.063-.22.01-.26-.044-.28-.097-.3-.145-.15-.092-.15-.096-.3-.227-.27-.252-.25-.271-.21-.276-.16-.276-.11-.261-.01-.052-.03-.185.01-.203.06-.164ZM1116.11 896.269l.17-.157.09-.22.02-.276-.07-.321-.15-.353-.21-.372-.28-.376-.34-.366M1114.26 897.404l1.85-1.134M1179.07 828.434l.36.336.36.29.35.233.32.167.29.094.24.017.18-.059.11-.134M1181.28 829.377l1.05-1.763M1182.19 827.554l-.13-.011-.21-.069-.24-.123-.24-.161"/><path d="m1112.31 892.801-.86 2.037-.07.164-.01.203.04.178.01.059.11.261.16.275.21.277.24.271.28.252.29.226.17.1.14.089.3.145.28.097.26.044.22-.01.18-.064v-.002"/><path d="m1113.12 895.122.29.225.28.253.25.271.2.278M1114.41 896.686l.05.237-.01.204-.07.163-.12.114v.002M1111.45 894.839v-.005l.12-.112.18-.065.22-.01.26.044.29.096M1116.25 890.399l-.62 1.829-.04.242.02.271.08.288.15.296.19.291.25.275.28.249.31.214.32.169.32.119.31.064.29.007.26-.051.21-.107 1.66-1.01"/><path d="m1117.61 892.064.31.213.28.25.24.275.2.292M1118.78 893.391l.09.285v.004l.02.27-.04.242-.11.205-.16.157v.002M1115.63 892.228l.01-.019.09-.186.16-.159.22-.107.25-.052M1120.25 893.545v-.002M1116.45 891.707l.2.004.31.064.33.119M1121.02 887.145l-.35 1.535v.301l.06.314.13.314.19.303.25.28.28.246.32.203.33.152.34.094.34.035.32-.028.28-.089 1.35-.787M1122.59 887.827l.33.152.32.203.28.246.24.28.19.303.13.315"/><path d="m1124.15 889.941-.05.226-.01.003-.01.048-.13.243-.19.197-.18.109-.06.037M1120.67 888.679l.05-.211.02-.066.13-.243.19-.198.03-.021.01-.003.2-.122.29-.089.31-.028M1124.86 890.017l.33-.197v-.002M1126.5 883.099l-.06 1.174.05.335.12.331.19.314.24.284.28.243.33.193.34.136.36.074.36.008.34-.057.3-.121 1.09-.561M1128.19 882.78l.36.073.34.136.33.194.29.243.24.284.18.314.12.331.05.336M1130.08 885.02l-.09.307"/><path d="m1126.44 884.272.02-.328v-.008l.09-.299.03-.053v-.008l.12-.214.22-.232M1130.43 885.451l.36-.243.01-.003M1127.49 882.829l.34-.057M1129.62 885.833l-.26.171-.01.008M1132.55 878.349l.24.766.11.344.18.322.24.287.29.241.33.185.35.124.37.057.37-.013.35-.081.68-.251M1134.98 877.127l.36.124.32.186.29.241.24.287.18.322.11.344"/><path d="m1136.49 879.334-.1.332-.17.301-.23.259-.23.169-.01.006-.04.032-.29.13-.04.017M1132.79 879.114l-.01-.039-.02-.157v-.019l-.01-.139.03-.349.1-.332.17-.301.23-.259.28-.207.33-.147.35-.082M1136.06 880.33l.44-.199.38-.279.01-.003M1139.98 874.162l.45.244.49.154.5.06.51-.038.49-.134.44-.224.4-.307v-.003"/><path d="m1142.66 874.016-.29.226-.33.167-.36.098-.37.028-.38-.044-.36-.114-.33-.18-.29-.24-.24-.289-.17-.327-.11-.354-.04-.367.04-.365.11-.349.17-.32.24-.279M1140.24 871.079l.33-.166.36-.099.38-.028.37.044.36.114.33.18.29.239.24.29.18.328.11.354.03.366-.03.365-.11.349-.18.321M1146.45 867.922l.44.239.49.147.5.05.51-.05.48-.148.45-.24.39-.323.01-.003"/><path d="m1147.34 867.815-.34-.177-.29-.238-.23-.291-.18-.331-.11-.36-.04-.374.04-.374.11-.36.17-.331.24-.291.29-.239.33-.177.36-.11.38-.037.37.037.36.109.33.177.29.238.24.29.18.332.11.359.03.374-.03.374-.11.36-.18.332-.24.291-.29.238-.33.178-.36.109-.37.037-.38-.036-.35-.109ZM1156.54 858.845l.04.376-.03.376-.1.363-.16.335-.23.294-.28.242-.33.18-.35.113-.36.039-.37-.034-.36-.107-.32-.176-.29-.238-.24-.291-.18-.332-.12-.361-.04-.376.03-.377.1-.362.17-.335.23-.294.28-.242.32-.18.35-.113.37-.039.37.034M1153.29 861.676l.48.145.5.047.49-.054.48-.152.43-.244.38-.327v-.003M1155.72 857.622l.29.238.24.291M1158.98 854.923l.43.24.47.148.48.051.48-.049.45-.145.42-.238.35-.32.01-.003M1162.71 853.186l-.04.08v.012l-.11.238-.21.288-.27.237-.3.175-.34.108-.35.036-.36-.038-.34-.109-.33-.177-.28-.239-.24-.289-.19-.331-.12-.358-.05-.373.01-.372.09-.358.15-.329.21-.289.26-.236.31-.176.33-.107.36-.036.35.038.27.083.02.006.06.021.32.177.29.238.24.289.18.331.13.358.05.372-.02.372-.08.358ZM1164.25 848.261l.39.323.42.245.46.156.46.062.45-.034.42-.13.38-.22.32-.301.25-.372M1168.28 846.991l-.18.275-.08.072-.16.151-.28.163-.32.095-.33.026-.34-.046-.33-.116-.32-.181-.28-.239-.25-.288-.19-.326-.13-.352-.07-.363v-.362l.06-.345.13-.316.18-.275.24-.222.28-.163.15-.046.17-.049.33-.025.34.046.33.116.32.181.28.239.25.287.19.326.13.352.07.363v.361l-.06.345-.13.316Zm0 0-.47 1M1166.56 844.058l-1.08-.032M1169.28 842.297l.38.326.41.252.43.17.43.08.42-.012.39-.104.34-.192.27-.273.21-.342M1173.27 840.926l-.15.253-.21.202-.18.103-.07.039-.28.076-.31.009-.32-.059-.32-.126-.31-.186-.28-.241-.24-.285-.2-.32-.15-.341-.09-.349-.03-.344.04-.326.1-.295.15-.253.09-.09.12-.111.25-.142.28-.076.31-.009.32.06.32.125.3.187.29.241.24.285.2.319.15.34.09.349.02.344-.03.326-.1.295Zm0 0-.71 1.277M1171.16 838.063l-1.45.269M1173.5 836.898l.37.328.4.263.41.187.4.105.38.017.34-.07.29-.155.23-.234M1177.26 835.735l-.17.172-.21.115-.25.052-.1-.005-.18-.008-.3-.078-.3-.138-.29-.195-.28-.242-.25-.283-.21-.31-.16-.327-.11-.33-.06-.321v-.301l.03-.12.04-.147.11-.224.17-.172.22-.115.25-.051.28.013.29.078.3.138.3.194.27.243.25.282.21.31.17.326.11.33.06.322-.01.3-.06.267-.12.225Zm0 0-.94 1.604M1174.96 832.758l-1.76.557M1176.8 832.23l.36.332.39.277.37.208.37.133.33.052.29-.029.24-.109.17-.188M1180.4 831.101l-.13.139-.17.081-.21.021-.25-.039-.27-.099-.28-.154-.09-.063-.19-.141-.27-.245-.25-.278-.23-.3-.18-.309-.04-.096-.1-.212-.09-.294-.03-.269.02-.234.08-.189.13-.138.17-.081.22-.021.24.04.27.098.28.155.28.203.28.246.25.277.22.299.18.31.14.307.09.294.03.269-.02.234-.08.189Zm0 0-1.08 1.806M1178.03 828.2l-1.92.783M619.026 442.962l-.092.166.047.086.119.156.186.219.248.274.298.318.338.35.365.369.377.373.375.363.359.339.328.302.285.253.232.195.168.128.1.058.269-.15"/><path d="m619.323 439.73-.113.194-1.05 1.795.036.124.107.192.174.253.236.305.288.344.022.025.307.346.357.383.068.069.304.311.372.364.358.332.257.224.074.065.29.234.239.17.179.1.11.026.333-.177.53-.281"/><path d="m618.16 441.719.039-.05.11.025.178.099.238.17.291.234.292.255.039.034.359.333.373.364.372.381.358.384.329.371.288.345.236.305.174.252.107.192.034.123-.039.05M620.769 435.816l-1.722 2.878-.031.186.044.254.117.309.15.287.036.068.247.386.299.402.269.319.071.084.367.388.38.359.38.316.282.202.081.059.334.195.292.123.237.045.175-.035.126-.061.183-.09.19-.093"/><path d="m619.047 438.694.104-.113.175-.035.237.044.292.122.05.03.021.012.263.153.364.261.38.316.381.36.368.389.34.404.282.38.017.023.247.386.186.355.064.171.053.138.04.234.003.019-.032.186-.014.016-.091.096M689.196 366.44l-.257-.466-.343-.415-.418-.346-.475-.266-.515-.174-.535-.076-.535.024-.716.149"/><path d="m689.198 366.441.023.073.045.143.018.054.073.23.056.515-.049.51-.153.485-.25.442-.338.382-.005.004-.408.303-.472.22-.514.125-.534.025-.536-.076-.515-.174-.476-.266-.418-.346-.344-.415-.256-.467-.159-.5-.056-.515.049-.511.153-.485.251-.442.334-.377.004-.005.414-.306.418-.195.018-.008.036-.017.343-.083.17-.042M679.259 374.967l.254.474.156.512.05.531-.056.53-.161.507-.259.466-.347.406-.005.003-.418.328-.481.243-.522.147-.543.043-.541-.061-.52-.163-.479-.259-.42-.345-.343-.417-.254-.474-.155-.513-.051-.531.057-.529.161-.507.259-.466.344-.402.004-.004.422-.331.482-.244.522-.146.542-.043.541.061.52.163.479.259.419.345.343.417ZM669.434 384.489l.255.478.157.518.053.54-.054.539-.157.518-.256.477-.344.419-.005.004-.415.339-.478.256-.519.157-.54.053-.54-.054-.518-.157-.478-.256-.419-.343-.344-.419-.255-.478-.157-.519-.053-.539.053-.539.158-.518.256-.478.341-.414.003-.004.42-.344.478-.255.519-.157.54-.053.539.054.519.157.478.256.419.343.344.419ZM659.795 394.23l.26.477.165.518.062.539-.041.539-.144.518-.24.477-.329.419-.004.004-.399.339-.463.255-.505.156-.527.053-.529-.053-.511-.158-.473-.255-.418-.344-.345-.418-.259-.478-.165-.518-.063-.539.041-.538.144-.518.24-.478.325-.413.004-.005.403-.343.463-.255.505-.157.527-.053.529.053.512.158.473.255.417.344.345.419ZM646.112 404.254l.164-.356.011-.025.039-.084.296-.401.004-.004.375-.331.436-.243.48-.146.505-.043.511.061.498.163.464.259.415.344.347.417.268.474.177.512.08.53-.02.529-.119.506-.214.465-.301.405-.004.004-.371.326-.436.243-.48.145-.505.043-.147-.017-.028-.004-.336-.04-.497-.163-.464-.259-.414-.344-.348-.417-.267-.473-.177-.511-.081-.53.02-.529.119-.506Zm0 0 .008-.027M648.223 407.986l.063.017M638.23 412.86l.258-.377.003-.004.197-.179.006-.006.134-.121.398-.219.445-.125.474-.024.486.076.478.174.453.265.41.347.35.413.278.466.195.499.105.514.009.509-.085.484-.177.441-.261.38-.004.004-.333.302-.25.137-.012.007-.136.074-.445.124-.474.024-.486-.076-.478-.174-.452-.265-.409-.346-.35-.414-.278-.465-.195-.499-.105-.513-.01-.509.085-.484.176-.44Zm0 0 .003-.007M641.203 417.021l.029-.002M631.255 421.143l.21-.341.003-.004.287-.27.352-.185.02-.005.006-.002.375-.087.436.003.455.098.454.19.438.275.404.349.354.409.291.454.217.481.134.491.047.48-.043.452-.131.406-.143.231-.004.007-.066.106-.003.003-.285.267-.352.184-.401.093-.436-.003-.454-.098-.454-.191-.437-.274-.403-.348-.354-.409-.291-.454-.217-.481-.135-.489-.047-.48.043-.452.13-.406Zm0 0 .013-.023M634.715 425.135l.014-.003M625.785 428.081l.232-.225.297-.142.351-.054.361.034.006.001.025.002.417.126.427.21.42.287.397.352.359.404.306.439.242.459.169.46.089.444.004.213v.008l.002.19-.077.362-.158.299-.002.002-.23.222-.297.142-.351.053-.392-.038-.417-.126-.426-.21-.42-.287-.396-.351-.358-.403-.306-.439-.242-.458-.169-.46-.09-.444-.007-.411.077-.362.156-.296.001-.003Zm0 0 1.424-2.409M629.125 432.317l.032-.012M621.605 434.103l.17-.171.237-.092.296-.007.343.077.377.159.396.234.401.301.389.356.363.396.323.423.27.432.207.425.136.402.06.363-.018.31-.097.246-.002.001-.168.17-.238.09-.296.007-.179-.041-.164-.037-.376-.159-.396-.234-.4-.3-.389-.355-.362-.396-.322-.422-.26-.415-.01-.017-.208-.425-.136-.401-.06-.363.017-.311.095-.243.001-.003Zm0 0 1.612-2.68M625.289 438.128l.003-.001M725.851 339.775l-.132.125-.205.05-.211-.019-.061-.006-.209-.064-.117-.036-.37-.17-.398-.235-.412-.291-.409-.334-.391-.366-.358-.383-.311-.385-.251-.373-.183-.346-.107-.306-.027-.254.054-.193.133-.123.206-.05.271.026.327.1.117.054.253.117.398.235.411.29.408.334.39.365.357.382.152.188.159.197.232.345.019.027.165.312.018.034.107.306.028.254-.053.193Zm0 0-.256.53-.016.033-.149.31M721.887 336.065l-2.836 1.67"/><path d="m625.555 437.716-.096.242-.001.003-.164.166-.006.005-.238.091-.296.007-.171-.039-.172-.039-.376-.159-.396-.234-.4-.301-.389-.355-.362-.396-.322-.422-.266-.425-.004-.006-.208-.425-.136-.401-.06-.363.018-.311.095-.246.002-.002M623.027 434.074l.396.234.401.301.389.355.363.397.323.423.27.432.207.425.136.402M623.221 431.422l-1.616 2.686M629.885 431.295l-.077.362-.156.295-.002.004-.232.224-.261.124-.036.018-.352.053-.391-.038-.417-.126-.427-.211-.419-.286-.396-.351-.358-.403-.306-.439-.242-.458-.17-.46-.089-.444-.007-.411.077-.362.157-.299.003-.003.228-.222.298-.142.351-.054.366.035h.006l.02.002.417.126.427.21.42.287.397.352.358.403.307.44.242.459.169.46.089.444.003.205v.008M627.216 425.659l-1.435 2.428M635.349 424.685l-.003.004-.288.27-.332.174-.02.01-.401.093-.436-.003-.454-.099-.454-.19-.437-.274-.403-.349-.354-.408-.291-.454-.217-.481-.134-.49-.047-.479.042-.452.13-.406.019-.03.194-.315.003-.003M635.336 422.034l.217.481M635.734 423.486l-.043.452M632.102 420.349l.027-.006.006-.001.369-.086M632.36 419.162l-1.11 1.988M633.395 420.357l.455.19M642.788 414.053l.104.514.01.509-.086.484-.176.44-.259.377-.003.004-.337.305-.237.131-.012.007-.149.081-.409.114-.036.01-.474.024-.486-.076-.478-.174-.452-.266-.409-.346-.35-.413-.278-.465-.195-.499-.105-.514-.01-.508.085-.484.176-.441.01-.014.252-.366.003-.004.2-.181.006-.006.127-.115.398-.22.445-.124.474-.025M639.004 411.259l-.781 1.607M651.158 405.918l-.12.506-.214.465-.297.401-.003.004-.376.331-.436.242-.479.146-.505.043-.119-.015-.028-.003-.294-.035-.07-.009-.497-.163-.465-.258-.414-.345-.347-.416-.267-.474-.178-.511-.08-.53.019-.529.119-.506.016-.035.159-.346.012-.024.027-.06.3-.405.004-.004.372-.327.435-.243.48-.146M649.426 402.854l.465.259.414.344.348.417.267.474M646.433 403.233l-.328 1.029M660.212 395.234l.062.539-.041.539-.144.518-.24.477-.325.414-.004.004-.403.343-.463.255-.505.157-.527.053-.529-.054-.511-.157-.474-.256-.417-.343-.345-.419-.259-.477-.165-.518-.063-.539.041-.539.144-.518.24-.477.329-.418.004-.004.399-.34.463-.255.505-.157.527-.053.529.054M658.551 393.221l.474.256.417.343.345.419.26.478M669.891 386.034l-.053.539-.158.518-.256.478-.34.414-.004.004-.419.344-.479.255-.519.157-.539.053-.54-.053-.519-.158-.478-.255-.419-.344-.343-.419-.256-.478-.157-.518-.053-.539.054-.539.158-.518.256-.478.344-.419.005-.004.414-.339.479-.255.519-.157.539-.053M668.188 383.48l.478.255.419.344.342.419.257.478M678.891 378.395l-.004.005-.423.331-.481.244-.522.146-.542.044-.542-.061-.52-.163-.479-.259-.419-.345-.343-.418-.254-.474-.156-.512-.05-.532.056-.529.161-.507.259-.466.348-.406.005-.004M675.402 374.162l.481-.243.522-.147.542-.043.542.061.52.163.479.259.419.345.343.417.254.474.155.512.051.531-.057.53-.16.508-.259.465M685.123 365.073l.436-.203.018-.008.019-.008.513-.125.534-.025.535.077.516.174.475.265.417.347.344.414.256.467.052.161.017.054.091.285.056.515-.049.51-.153.485-.25.442-.335.378-.003.004-.413.307-.473.22-.513.125-.535.025-.535-.076-.516-.174-.475-.266-.418-.347-.344-.414-.256-.467-.16-.501-.056-.515.05-.51.153-.485.25-.442.339-.382.004-.003M698.653 359.241l-.033.481-.092.312-.042.142-.229.408-.317.346-.391.271-.452.187-.493.094-.518-.003-.521-.098-.504-.19-.469-.275-.415-.35-.345-.41-.262-.456-.169-.483-.069-.492.034-.481.134-.454.23-.407.269-.295.048-.051.392-.271.451-.186.494-.094.517.003.52.098.504.191.469.275.414.349.345.41.262.455.168.482.07.492ZM694.441 356.767l-1.488.656M707.155 352.535l-.105.413-.198.364-.212.225-.072.076-.358.226-.419.143-.464.054-.491-.036-.499-.126-.488-.211-.458-.288-.411-.353-.347-.404-.271-.442-.183-.46-.089-.462.008-.446.106-.413.081-.149.118-.215.284-.3.358-.226.42-.142.464-.054.49.037.499.127.487.21.458.288.41.352.347.404.27.441.183.46.09.462-.008.445ZM703.046 349.504l-1.882.998M714.624 346.996l-.157.312-.241.247-.315.174-.272.066-.105.026-.426.007-.456-.077-.471-.159-.466-.235-.445-.302-.405-.357-.35-.398-.281-.424-.203-.434-.116-.427-.017-.287-.007-.117.068-.365.158-.311.242-.247.315-.172.378-.092.425-.007.456.078.47.159.466.235.444.301.404.357.35.397.281.424.203.433.116.427.024.403-.067.365ZM710.356 343.688l-2.344 1.345M720.967 342.499l-.108.255-.19.188-.263.113-.328.036-.378-.044-.416-.123-.426-.191-.011-.005-.44-.262-.428-.317-.399-.361-.353-.391-.177-.243-.119-.163-.225-.404-.147-.388-.063-.356.023-.312.109-.254.19-.187.264-.113.328-.035.379.045.415.123.437.196.44.262.427.317.174.158.223.203.353.39.239.327.056.077.226.404.147.388.064.356-.023.311ZM716.817 339.09l-2.622 1.543M729.303 338.442l-.07.059-.143-.015-.21-.087-.271-.157-.32-.22-.357-.275-.381-.32-.186-.168-.203-.183-.007-.006-.376-.365-.362-.374-.327-.365-.178-.217-.102-.123-.221-.303-.154-.254-.081-.196-.006-.129.07-.058.144.015.211.088.271.157.32.221.249.191.108.084.38.319.389.351.382.37.361.374.327.364.224.272.055.068.221.303.155.254.082.195.001.029.005.101Zm0 0-.281.534M725.418 334.686l-1.303.755-1.306.755"/><path d="m730.872 339.222.252-.45-.005-.007-.078-.079-.148-.149-.213-.214-.268-.269-.315-.315-.348-.349-.369-.369-.375-.375-.366-.366-.344-.344-.308-.308-.261-.26-.204-.203-.137-.136-.068-.067-.708.395M629.985 462.803l-.09.161.053.097.131.173.204.24.269.299.324.346.367.38.394.4.408.403.405.391.387.365.354.324.307.27.248.207.18.135.105.059 1.466-.819.064-.036"/><path d="m630.379 459.382-1.258 2.159.035.13.114.204.187.27.254.327.276.33.034.04.355.399.162.174.224.239.402.411.403.394.388.361.359.315.204.165.112.091.26.187.195.112.122.032.991-.528.508-.27.705-.375"/><path d="m629.121 461.541.043-.05.122.031.194.111.261.187.315.256.227.198.133.117.389.362.404.394.403.413.386.414.356.4.31.37.253.326.187.27.113.204.035.128-.045.05M631.993 455.245l-.395.664-1.174 1.974-.215.362-.075.125-.036.198.046.271.125.331.11.212.089.169.266.415.323.434.165.195.202.24.397.42.413.389.411.343.072.053.09.064.233.168.362.214.318.135.259.053.192-.034.188-.093.189-.093.23-.114.563-.278.264-.13"/><path d="m630.133 458.37.094-.097.021-.021.191-.035.259.052.264.112.054.023.034.021.329.193.395.284.412.344.413.39.398.421.368.436.095.128.228.306.266.416.199.381.004.009.121.323.028.174.016.095-.029.158-.007.04-.116.117M706.768 381.184l-.369-.796-.279-.505-.372-.45-.453-.375-.515-.288-.558-.188-.579-.082-.579.027-.671.12-.005.001h-.005l-.005.001-.066.012"/><path d="m706.4 380.388.028.089.066.207.019.059.06.188.062.559-.053.554-.164.527-.27.481-.365.415-.005.004-.442.33-.511.24-.555.136-.579.028-.58-.082-.558-.188-.516-.288-.452-.376-.373-.45-.279-.506-.173-.543-.061-.559.021-.221v-.004l.031-.329.165-.528.251-.446.019-.034.362-.41.004-.005.447-.334.234-.109.125-.059.006-.003.004-.001.006-.003.13-.061.006-.003.026-.006.429-.105.1-.025M695.653 389.658l.276.515.168.555.056.577-.061.574-.173.551-.281.505-.376.441-.005.004-.453.356-.521.265-.566.159-.587.048-.587-.066-.564-.177-.519-.28-.455-.374-.372-.453-.276-.514-.169-.556-.055-.577.061-.574.174-.551.028-.052.005-.008.247-.446.373-.436.004-.005.271-.213.187-.146.521-.265.566-.159.587-.047.12.013.467.053.101.032.004.001.458.143.519.281.455.374.372.452ZM685.011 399.996l.276.518.171.562.057.585-.058.584-.171.562-.278.519-.373.453-.005.005-.45.368-.518.277-.563.17-.585.057-.586-.057-.562-.171-.519-.277-.454-.373-.373-.454-.277-.518-.17-.563-.057-.584.058-.585.171-.562.277-.518.37-.449.004-.005.455-.372.518-.277.204-.062.022-.006.337-.102.585-.058.586.058.06.018.009.003.493.15.518.277.455.373.373.454ZM674.552 410.556l.282.518.178.562.068.584-.046.583-.156.562-.261.517-.357.453-.005.004-.433.367-.503.276-.548.169-.572.057-.574-.058-.554-.171-.514-.277-.452-.373-.374-.454-.282-.518-.178-.561-.068-.584.045-.584.157-.561.261-.517.352-.448.004-.005.438-.372.503-.276.548-.169.572-.057.574.058.555.171.513.277.453.373.374.454ZM659.691 421.396l.15-.324.008-.018.074-.16.323-.434.004-.005.408-.357.473-.262.521-.157.549-.046.555.067.54.177.504.281.449.374.377.452.29.513.192.554.086.575-.022.572-.131.548-.233.503-.327.438-.004.004-.404.353-.473.261-.521.157-.549.046-.103-.013-.053-.006-.399-.049-.539-.177-.504-.281-.449-.373-.376-.452-.29-.513-.192-.554-.086-.574.022-.572.13-.548Zm0 0 .007-.024M661.977 425.44l.079.02M651.114 430.686l.281-.406.003-.005.183-.164.006-.006.177-.159.433-.236.484-.134.515-.025.528.084.519.19.491.288.445.376.38.448.301.504.21.541.113.556.009.55-.094.523-.193.476-.285.41-.004.004-.362.325-.234.127-.013.008-.186.101-.484.132-.515.025-.527-.084-.519-.19-.491-.288-.443-.375-.38-.448-.301-.504-.211-.54-.112-.555-.01-.55.093-.523.193-.476Zm0 0 .003-.007M654.336 435.194l.034-.003M643.514 439.609l.23-.367.003-.005.313-.29.382-.198.003-.001.007-.001.427-.097.474.005.494.108.493.207.475.298.438.379.384.443.315.491.234.521.145.53.049.519-.048.487-.144.437-.139.222-.005.008-.089.141-.003.003-.311.287-.383.197-.436.098-.474-.005-.31-.068-.183-.04-.288-.122-.205-.086-.474-.298-.437-.378-.383-.442-.315-.491-.235-.52-.144-.529-.05-.519.047-.487.143-.437Zm0 0 .01-.019M647.262 443.934l.017-.004M637.542 447.057l.253-.241.323-.15.383-.056.377.038h.008l.041.005.453.138.464.23.455.311.431.382.388.437.331.475.262.496.182.497.042.21.053.269.002.198v.009l.003.235-.013.056-.073.333-.173.321-.003.002-.25.237-.324.151-.383.054-.275-.028-.151-.015-.453-.139-.173-.086-.29-.143-.455-.312-.429-.381-.388-.436-.118-.17-.213-.304-.081-.155-.18-.34-.182-.496-.096-.479-.005-.442.085-.39.17-.317.002-.004Zm0 0 1.527-2.618M641.156 451.64l.042-.016M632.963 453.496l.186-.183.259-.095.323-.005.373.086.41.175.43.255.434.327.045.041.377.345.276.301.117.128.35.457.291.466.223.459.146.432.063.39-.023.332-.106.262-.002.002-.185.18-.259.095-.323.004-.173-.041-.2-.046-.409-.175-.43-.255-.434-.327-.421-.385-.392-.428-.135-.177-.214-.279-.291-.466-.011-.022-.013-.028-.199-.408-.146-.432-.064-.39.022-.332.104-.26.001-.003Zm0 0 .135-.226.843-1.415.76-1.276M636.949 457.852l.003-.001M745.764 351.257l-.138.137-.219.057-.289-.025-.169-.051-.105-.032-.077-.023-.397-.183-.429-.253-.444-.313-.442-.361-.422-.396-.388-.415-.337-.418-.275-.405-.043-.081-.157-.295-.119-.333-.033-.277.055-.211.139-.136.219-.056.291.026.175.053.175.053.021.01.376.174.428.253.444.313.441.361.422.394.371.397.016.017.336.417.274.405.041.076.16.3.021.059.098.274.034.277-.054.211Zm0 0-.184.38-.119.242-.038.079-.817 1.678M741.473 347.242l-1.069.626-2.009 1.177"/><path d="m636.189 454.876.349.457.292.466.223.459.146.432.062.39-.022.332-.105.259-.001.003-.181.176-.006.006-.26.095-.322.004-.164-.039-.209-.049-.409-.174-.43-.255-.434-.327-.421-.385-.392-.428-.137-.179-.212-.277-.291-.466-.013-.026-.016-.033-.194-.399-.146-.432-.064-.39.021-.332.106-.263.002-.002.184-.181.259-.096.323-.004.373.086.409.175.431.255.434.327"/><path d="m634.703 450.578-.761 1.277-.843 1.415-.138.231M636.945 457.856l3.144-1.39M641.732 451.253l-.002.004-.253.24-.277.128-.047.022-.383.054-.278-.028-.147-.015-.453-.139-.176-.087-.287-.142-.455-.311-.43-.381-.387-.436-.12-.172-.211-.303-.083-.156-.179-.339-.182-.496-.096-.479-.005-.442.085-.389.172-.322.003-.002M641.445 448.632l.262.496.182.497.041.208.054.271M639.083 444.416l-1.544 2.647M638.496 446.616l.385.039.007.001.034.003.453.138.464.23M641.152 451.646l2.814-1.036M648.184 443.083l-.135.214-.004.008-.091.144-.003.004-.314.29-.36.186-.023.012-.436.098-.474-.006-.312-.068-.181-.04-.29-.122-.203-.085-.474-.299-.437-.377-.384-.443-.314-.491-.235-.52-.145-.529-.049-.518.047-.487.143-.438.016-.026.217-.345.003-.003.31-.288M647.633 440.098l.315.492.234.521M644.701 437.441l-1.189 2.175M647.254 443.941l2.505-.656M645.348 438.662l.494.108M655.897 434.095l-.282.406-.003.004-.366.33-.221.119-.013.008-.2.108-.442.121-.041.012-.515.024-.527-.084-.519-.19-.491-.288-.444-.375-.379-.448-.301-.503-.211-.54-.112-.556-.01-.55.093-.523.192-.476.011-.015.274-.395.004-.004.185-.167.007-.006.17-.153M656.184 433.097l-.094.523M652.188 429.718l.484-.133M651.936 428.931l-.831 1.764M654.328 435.203l1.957-.181M653.715 429.644l.519.19M664.477 424.691l-.004.005-.408.356-.474.262-.521.157-.548.046-.048-.006-.055-.007-.365-.044-.087-.011-.539-.177-.504-.281-.449-.373-.376-.452-.29-.513-.192-.554-.086-.574.022-.572.13-.548.015-.033.143-.309.009-.019.065-.142.327-.438.004-.004.404-.353M663.289 419.887l.504.281.449.374.377.452.29.513M665.102 422.061l.086.574-.023.573M660.02 420.267l-.336 1.139M661.645 419.688l.549-.045.555.066M661.969 425.449l1.138.281M674.255 414.339l-.004.005-.438.371-.503.276-.547.169-.573.057-.574-.058-.554-.171-.513-.277-.453-.373-.374-.454-.281-.517-.179-.562-.067-.584.044-.583.157-.562.261-.517.357-.453.004-.004M670.453 409.734l.503-.276.548-.17.572-.057.574.058.555.171.513.277.453.373.374.454.282.518.178.562.068.584-.045.584-.157.561-.261.517M684.631 403.784l-.004.005-.455.372-.519.277-.562.17-.586.058-.585-.058-.562-.171-.519-.277-.454-.373-.373-.454-.277-.518-.17-.562-.057-.585.058-.585.171-.562.277-.518.374-.454.005-.004M681.359 398.9l.229-.069.022-.007.312-.094.585-.058.585.058.05.015.009.003.504.153.518.277.455.373.372.454.277.518.171.562.057.585-.058.585-.171.562M695.254 393.379l-.004.005-.458.36-.522.265-.565.159-.587.048-.587-.066-.564-.177-.519-.28-.455-.374-.372-.453-.276-.514-.169-.556-.055-.577.061-.574.174-.551.033-.061.005-.008.242-.437.377-.441.005-.004.267-.21.01-.008.175-.137M693.266 388.33h.002l.466.053.106.033.003.001.455.142.519.281.454.374.373.452.275.514.169.556.055.576M695.909 392.438l-.28.505M705.779 383.471l-.004.004-.447.334-.511.24-.555.136-.579.028-.58-.082-.558-.188-.516-.288-.452-.376-.373-.449-.279-.507-.173-.543-.061-.559.021-.224v-.004l.031-.326.165-.527.255-.454.004-.007.011-.02.366-.415.005-.003M706.411 382.58l-.27.48M701.988 378.911l.239-.112.002-.001.126-.059.006-.003.004-.002.006-.002.128-.061.026-.006.04-.01M705.285 379.066l.453.376.372.449M716.609 372.55l-.033.524-.109.371-.035.121-.247.444-.341.377-.422.295-.487.204-.534.103-.56-.001-.562-.106-.547-.205-.508-.298-.45-.379-.373-.445-.286-.494-.183-.525-.077-.534.036-.523.143-.493.247-.444.321-.352.021-.024.424-.295.487-.203.534-.103.559.002.563.106.544.205.508.298.448.378.375.445.284.494.185.523.075.534Zm0 0-.031 1.636M712.049 369.871l-1.635.695M725.77 365.239l-.111.449-.213.396-.252.271-.052.057-.386.247-.452.157-.5.06-.531-.038-.539-.136-.528-.227-.495-.311-.445-.383-.377-.439-.294-.478-.2-.501-.098-.502.007-.484.112-.449.103-.19.11-.206.306-.327.386-.247.452-.156.5-.06.53.039.539.136.527.228.495.31.444.382.376.439.294.478.2.499.098.501v.04l-.006.445Zm0 0-.067.3M721.318 361.958l-2.06 1.068M733.784 359.19l-.167.34-.257.27-.339.19-.087.022-.23.058-.089.022-.457.01-.493-.082-.508-.171-.504-.254-.48-.326-.439-.387-.379-.431-.307-.461-.221-.471-.127-.464-.021-.332-.007-.107.071-.397.168-.34.258-.269.339-.189.406-.101.458-.009.492.082.507.172.503.253.48.326.055.048.383.338.017.019.362.412.306.459.221.471.127.464.028.413.001.025-.07.397Zm0 0-.482 1.398M729.169 355.609l-2.556 1.445M740.458 354.541l-.202.206-.282.125-.351.04-.407-.046-.448-.13-.47-.211-.039-.023-.319-.19-.118-.07-.462-.343-.075-.068-.356-.323-.384-.424-.192-.264-.129-.175-.246-.44-.161-.421-.071-.388.022-.339.114-.277.203-.205.066-.029.216-.096.352-.039.387.044.02.002.447.132.47.211.475.282.313.233.148.11.069.062.362.328.08.089.302.334.307.421.014.018.246.438.162.421.071.388-.021.339-.113.278Zm0 0-1.314 3.059M736.084 350.575l-2.854 1.663M749.393 349.753l-.071.066-.15-.013-.224-.093-.289-.167-.344-.237-.384-.296-.41-.345-.42-.38-.174-.168-.24-.233-.392-.405-.355-.396-.27-.327-.035-.042-.241-.329-.171-.277-.091-.214-.011-.142.072-.065.152.014.224.093.29.168.343.237.195.151.189.145.409.345.419.379.413.4.392.405.354.394.304.369.074.1.168.229.171.277.093.214.01.143Zm0 0-.342.647-.186.349-.703 1.327M745.192 345.69l-2.065 1.192-.772.446"/><path d="m750.316 351.73.065-.116.411-.734.466-.83-.002-.004-.08-.083-.156-.16-.226-.228-.288-.29-.337-.34-.375-.376-.397-.399-.405-.405-.397-.397-.374-.372-.336-.334-.285-.283-.223-.221-.153-.15-.076-.074-.753.42"/><path d="m751.226 352.341.176-.305-.01-.151-.088-.224-.163-.288-.231-.341-.117-.153M844.592 466.911l-6.461 7.632-1.063 1.256-5.76 4.351-3.789 2.863-8.93 4.501-2.87 1.446-9.697 2.443-2.83.712-9.577 1.088-.686.078-3.617.41-9.977-.676-3.982-.27-9.706-2.406-3.842-.953-9.141-4.055-3.49-1.547-8.425-5.387-3.018-1.929-6.925-7.214-2.254-2.348-4.983-8.67-1.589-2.766-3.387-9.409-.942-2.615-1.352-9.908-.346-2.535 1.042-9.945.308-2.948 2.861-9.582.238-.796.37-1.238 4.904-8.715 1.18-2.097 6.691-7.432 1.093-1.214 8.143-5.805 1.552-1.107 9.317-3.634 1.37-.534 9.828-1.847 2.109-.396 9.984.572 2.074.118 6.794 1.252 5.84 1.076 9.421 3.353 2.943 1.047 8.646 5.025 2.751 1.598 8.098 5.867 2.579 1.868 7.45 6.671 2.127 1.904 5.988 8.009 1.462 1.955 3.476 7.021 1.809 3.653 2.595 9.658.347 1.294.498 9.987.037.756-2.346 9.721-.314 1.3-4.381 8.989-.245.504Z"/><path d="m826.239 455.809-3.251 3.804-1.958 2.291-6.591 4.934-7.723 3.576-8.56 2.072-9.064.482-9.213-1.134-8.999-2.708-5.368-2.66-3.062-1.518-7.528-5.483-6.328-6.571-4.883-7.398-.077-.188-3.172-7.743-1.493-8.153.313-8.056 2.097-7.647 2.588-4.739 1.204-2.205M745.172 406.764l5.332-5.979 6.661-4.791 4.136-1.834 2.332-1.034 1.26-.559 2.211-.504 6.29-1.435 2.956-.127 5.992-.258 9.059 1.179 8.83 2.696 8.272 4.109 7.404 5.368 6.259 6.428 4.877 7.248 3.308 7.798 1.609 8.056-.035 1.774-.064 3.249-.059 2.988-1.928 7.659-3.634 7.013"/><path d="m743.969 408.969 3.32-3.724 6.642-4.781 7.707-3.422 8.474-1.938 8.295-.361.625-.027 3.26.422 5.769.749 8.801 2.684 8.243 4.094 7.377 5.35 6.234 6.408 4.857 7.226 1.963 4.635 1.33 3.141.267 1.344 1.331 6.69-.164 7.989-1.928 7.639-3.382 6.525M1075.54 913.241l7.47 6.653 4.68 4.173 7.46 6.654 6.21 5.535 7.47 6.654 6.23 5.553 7.46 6.654 6.26 5.572 4.73-2.555 5.6-6.699-5.44-8.388-5.44-8.388-1.53-2.351-5.19-8.545-5.2-8.545-1.52-2.508-5.35-8.448-5.35-8.448-1.31-2.067"/><path d="m1133.51 958.134-5.46-8.382-5.45-8.381-1.55-2.377-5.2-8.538-5.21-8.538-1.54-2.533-5.37-8.441-5.36-8.441-1.69-2.66-3.62-9.322-3.24-8.343M1104.91 725.33l-1.14-.341-9.58-2.866-9.58-2.866-9.58-2.867-7.28-2.179-6.22 6.782 6.19 7.855 6.19 7.855 6.19 7.855 6.19 7.854 6.18 7.855 6.19 7.855 6.19 7.855 6.19 7.855 6.19 7.855 6.19 7.855 6.19 7.855 6.19 7.855 6.18 7.855 2.76 3.502.43-.037.84-.075 9.96-.879 6.2-.547.93-.081 7.99-.706h.01l1.48-.13v-.001l.46-.04v-.001l1.11-.097 1.66.729v.002l.27.121 1.72.753v.001l.4.178 1.33.582 1.84.809.82.364.14.06.46.202 9.16 4.026 9.15 4.025 1.07.469 8.41 5.412 8.4 5.411 6.88 4.428 8.5 5.278 8.49 5.278 7.34 4.564 8.36 5.491 8.36 5.491 7.09 4.659 5.88-3.169 5.94-7.297-6.59-7.529-6.45-7.376-6.58-7.529-6.47-7.402-6.58-7.528-6.49-7.427-6.59-7.528-6.51-7.453-6.79-7.34-6.8-7.34-6.79-7.34-5.59-6.05-3.44-3.71-6.79-7.34-6.79-7.34-6.79-7.34-6.79-7.34-5.22-5.636-9.58-2.866-9.58-2.867-9.58-2.866-9.58-2.866-9.58-2.867-3.41-1.02-9.1-2.722-6.45-1.93Z"/><path d="m1165.56 752.41-9.57-2.891-9.57-2.891-9.58-2.891-9.89-2.988-9.57-2.891-6.39-1.928-9.57-2.891-2.72-.823-9.58-2.891-9.57-2.891-9.57-2.891-8.45-2.55M1279.88 879.179l-6.59-7.525-6.48-7.404-6.58-7.526-6.5-7.429-6.59-7.526-6.52-7.454-6.58-7.526-6.55-7.48-6.79-7.339-6.8-7.338-6.79-7.339-6.79-7.338-6.99-7.546-6.79-7.339-6.79-7.338-6.8-7.338-6.79-7.339-.6-.645 6.21-7.076M1846.18 176.009l-3.05-9.524-.43-1.343-3.86-9.227-3.1-7.418-1.12-2.535-4.62-8.869-3.24-6.207-5.34-8.452-3.78-5.972-6.02-7.981-4.28-5.662-6.66-7.455-4.72-5.284-7.26-6.877-5.12-4.842-2.31-2.013-7.81-6.247-6.32-5.06-8.31-5.565-6.63-4.439-8.75-4.83-6.85-3.779-9.15-4.042-6.99-3.09-9.48-3.204-7.05-2.384-7.86-2.563-9.73-2.314-7.92-1.884-9.91-1.38-7.83-1.092-9.86-.703-9.99-.403-8.39-.338-9.98.605-8.17.496-9.91 1.324-1.09.146-9.87 1.638-8.38 1.393-9.64 2.677-8.03 2.231-9.5 3.13-1.78.585-9.29 3.71-7.93 3.168-8.82 4.712-7.47 3.99-8.8 4.753-1.93 1.04-8.24 5.668-7.08 4.877-7.85 6.204-1.61 1.275-7.55 6.558-6.5 5.65-6.77 7.365-5.89 6.416-6.63 7.485-1.07 1.211-5.91 8.073-5.1 6.987-5.15 8.573-.58.958-4.97 8.675-4.21 7.343-4.01 9.162-3.49 7.97-3.33 9.42-3.01 9.537-2.53 7.995-2 9.797-1.74 8.485-.94 8.452-1 9.949-.82 8.132-.01 10-.02 8.447.95 9.955.83 8.675 1.88 9.821 1.68 8.803.96 4.7 2.78 9.606 2.28 7.855 3.63 9.315 3.04 7.779 4.45 8.953 3.78 7.599 5.23 8.525 4.49 7.315 5.96 8.032 5.14 6.931 6.64 7.479 5.72 6.454 7.28 6.865 6.24 5.893 7.85 6.194 6.67 5.26 8.37 5.465 7 4.567 4.43 2.552 8.84 4.68 8.12 4.304 9.24 3.84 8.29 3.447 9.55 2.948 8.35 2.573 7.88 1.732 9.8 2.005 9.08 1.858 9.95 1.021 8.93.916 10-.003 8.7-.002 10-.097.35-.003 6.2-.655 1.19-.125 9.95-1.05 1.57-.166 9.79-2.05 1-.21 9.78-2.111 8.95-1.933 9.48-3.167 8.47-2.827 9.25-3.789 1.71-.699 9.07-4.204 8.12-3.761 8.54-5.198 7.52-4.578 8.45-5.357 1.85-1.172 7.89-6.133 6.91-5.364 7.38-6.752 1.63-1.495 7.16-6.986 6.12-5.982 6.33-7.747 5.43-6.658 6.04-7.968 1.09-1.429 5.42-8.4 4.53-7.005 4.47-8.941 3.8-7.576 4.42-8.968.41-.826 3.5-9.367 2.84-7.603 2.51-9.679 2.09-8.05 2.36-9.335 1.52-9.883 1.19-7.72.55-9.985.26-4.651"/><path d="m1719.76 214.492-7.83-5.32-6.5-5.191-7.19-6.657-5.92-6.146-6.02-7.507-5.11-7.252-4.58-7.686-4.02-8.414-1.59-8.558.19-7.016-1.72-7.538-.88-7.85-.09-7.628.67-7.334 1.41-6.986 2.44-6.371 5.04-4.401 4.57-4.27 4.77-5.147 5.43-4.395 4.74-3.28 5.11-2.715 5.44-2.15 5.74-1.585 8.1-.795 7.18.324 6.56 1.368 6.38 1.692 7.29 2.45 8.36 3.688 5.82 3.136 5.65 3.37 6.12 4.096 7.7 6.155 4.86 4.581 4.7 4.8 4.73 5.291 6.02 7.982.1.126 3.8 6.024 3.46 6.1 3.22 6.386 2.68 8.247 1.75 8.1.66 6.655.12 6.561-.45 6.415-1.03 6.48-1.84 7.412-2.61 6.48-1.81 6.507-2.65 6.315-4.71 4.5-5.28 3.897-5.8 3.245-6.29 2.543-6.74 1.8-6.27 1.164-6.48 2.725-8.04.229-8.32-1.414-7.27-2.166-8.35-3.02-8.31-3.897-7.11-4.155ZM1669.06 74.848l-6.77 5.43M1818.21 215.363l3.21-8.064M1714.19 62.3l-8.9-.412-10.05.967M1749.58 73.697l-9.15-4.034-1.21-.53-9.02-3.036M1780.84 94.419l-7.81-6.246-1.71-1.363M1846.83 267.753l3.81-9.247 2.52-6.119.93-3.568.85-3.269.14-.565.1-.38.31-1.995.78-3.987.79-4.17.28-1.027.13-1.323.3-4.749.27-4.887.06-1.502-.11-1.716-.26-5.072-.28-5.052-.18-1.998-.15-1.046-.59-4.402-.56-4.146-.43-3.257-.17-.208-1.02-2.893-1.23-3.723-1.18-3.379-1.13-3.002-.99-2.31-.39-.385-.99-.722-1.21-.933-1.05-.712-6.91-4.672"/><path d="m1841.63 245.774.09-2.111-.37-3.287-.59-4.239-.24-1.428-.39-2.326-.47-4.218-.11-4.978-.01-3.807.64-4.517.01-4.679.02-4.727.24-4.016.02-.43.27-4.321.31-4.378-.34-3.563.4-3.673.73-1.862.56-2.694.75-2.253.71-1.38.21-.413.37-.729.77.404.95.119.11.047.96.406M1845.33 270.85l1.5-3.097M1834.09 266.728l1.37 2.792 1.57 2.216.63-.656.86-.893 1.55.116 1.7-.488M1829.32 230.68l.14 6.364M1830.13 214.046v5.984l-.83 5.781M1830.52 202.314l-.35 5.686M237.671 926.387l5.757 8.176.546.776 6.566 7.543.635.73 7.303 6.832.725.679 7.959 6.054.816.62 8.53 5.219.902.552 9.011 4.337.985.475.471.222 9.398 3.418.969.353 9.689 2.473 1.033.264 9.885 1.511 1.085.166 9.985.543 1.124.061 9.991-.425 1.145-.048 9.904-1.382 1.151-.16 9.727-2.323 1.137-.271 9.462-3.237 1.107-.378 9.111-4.121 1.058-.479 8.68-4.965.993-.569.47-.304 8.169-5.767.994-.701 7.586-6.516.898-.772 6.93-7.209.793-.825 6.211-7.838.683-.863 5.428-8.398.571-.884 4.593-8.883.459-.889 3.708-9.287.352-.881 2.783-9.604.25-.861 1.825-9.832.154-.833.845-9.964.068-.798-.15-9.999-.012-.759-1.147-9.934-.083-.721-.147-1.091-2.137-9.769-.147-.671-3.107-9.505-.208-.636-4.047-9.144-.266-.603-4.945-8.692-.326-.571-5.792-8.152-.386-.542-6.578-7.532-.449-.514-7.297-6.838-.515-.483-7.938-6.081-.586-.449-8.499-5.268-.658-.408-8.974-4.412-.732-.36-9.361-3.517-.804-.302-9.657-2.597-.873-.234-9.862-1.657-.936-.158-9.975-.709-.991-.07-9.997.242-1.034.025-9.93 1.186-1.063.127-9.774 2.116-1.077.233-9.531 3.026-1.075.341-9.205 3.909-1.055.448-8.796 4.757-1.018.55-8.309 5.566-.965.646-7.745 6.326-.898.734-7.108 7.034-.817.808-6.403 7.681-.726.872-5.633 8.262-.628.92-4.805 8.77-.523.956-3.923 9.198-.417.977-2.997 9.54-.31.987-2.032 9.791-.204.985-1.041 9.946-.102.974-.063 1.13-.029 10-.002.967.987 9.951.094.944 2 9.798.187.917 2.995 9.541.278.885 3.961 9.182.367.852 4.885 8.726.456.815Z"/><path d="m322.894 878.864-3.997-2.478-3.223-2.475-1.562-1.459-1.898-1.772-2.747-3.033-2.675-3.752-2.161-3.665-1.8-3.932-1.421-4.341-.219-4.428.582-3.653-.093-4.036.219-2.299.186-1.939.826-4.156 1.228-4.036 1.612-3.884 2.087-3.574 3.058-2.461 2.938-2.456 3.378-3.067 3.679-2.689 3.218-2.08 3.369-1.787 3.486-1.488 3.583-1.188 4.826-.844 4.15-.173 3.553.492 3.435.668 3.587.954.306.082 4.414 1.647 3.031 1.446 2.924 1.576 3.139 1.941 2.281 1.744 1.598 1.223 2.406 2.238 2.298 2.359 2.283 2.616 2.868 4.044 1.717 3.03 1.518 3.08.352.835 1.013 2.401.671 4.357.126 4.32-.404 3.609-.735 3.59-1.068 3.54-1.425 3.602-1.944 4.112-.64 1.007-1.683 2.648-.638 1.496-.832 1.952-1.962 3.389-3.326 2.669-3.597 2.372-3.842 2.048-4.055 1.696-4.237 1.32-3.848.934-3.749 1.603-4.632.45-.062-.004-4.676-.355-4.068-.796-4.564-1.221-4.452-1.686-3.71-1.883ZM392.972 825.215l-2.136-3.766M397.562 843.859l-.153-5.055-.01-.319-.84-5.416M315.267 802.173l-4.585 3.342-4.212 3.812-3.665 3.055M387.781 871.386l2.883-4.555 2.412-5.123.424-1.078 1.34-3.406M343.436 792.803l-5.16.209-6.006 1.044M362.457 797.591l-5.488-2.051M373.761 803.765l-3.902-2.414M423.859 875.796l1.126-4.219.571-2.548.486-2.585.085-.772-.046-.856.047-2.6-.043-2.555-.243-.923-.06-.526-.031-2.307-.029-2.174-.023-1.708-.929-1.141"/><path d="m403.867 870.801.651-2.375.108-2.353v-.006l.26-2.436.454-2.338.583-2.338.631-2.378.122-1.89.917-2.147 1.068-1.248 1.116-1.721.328-.404.907-1.115 1.344-1.302.544-.529.974-.078 1.35-.352 1.395-.182.448.022.993.048 1.189.032.691-.041 1.157.836.764.803.39.411 1.12 1.431 1.076 1.636.067.085.259.33.639.81M399.914 887.196l.651 1.883.144 1.238 1.288 1.538M424.984 871.577l-.294.758-.091.141-.317.489-.961 2.322-.957 2.232-.31 1.059-1.427 4.54-.506 1.608M408.437 843.475l-.399.387-.297.287-1.718 1.659M415.031 842.79l-1.84-.091-1.781.23-1.726.446M418.969 887.596l1.05-2.611"/><path d="m422.054 878.578-.081.203-.031.076-.793 1.97-.766 1.904M406.855 894.732l.571-.435.86-.631 1.824-.404 1.905-.707 1.969-1 1.229.306 1.212.056M420.378 845.398l-1.472-1.548M422.25 847.72l-1.875-2.323M424.771 850.882l-.255-.01M425.414 852.013l.286.011M398.761 862.706l-.582 2.987-.016.153-.318 2.965-.138 3.005M400.321 856.685l-.809 3.036M1385.57 284.003l-7.17-6.965-7.18-6.965-7.17-6.966-7.36-7.14-6.96 7.176-6.97 7.175-6.96 7.175-7.14 7.356 7.17 6.965 7.18 6.965 7.17 6.966 7.36 7.14 6.96-7.176 6.97-7.175 6.96-7.175 7.14-7.356ZM1351.78 252.132l-7.17-6.965-7.18-6.966-2.91-2.828-6.97 7.176-6.96 7.175-2.83 2.914 7.17 6.965 7.18 6.965 2.91 2.828 6.97-7.175 6.96-7.176 2.83-2.913ZM1370.1 237.403l-7.18-6.965-4.63-4.499-6.97 7.175-4.5 4.635 7.18 6.965 4.63 4.499 6.97-7.176 4.5-4.634ZM514.594 560.907l6.982 7.159 6.982 7.158 6.982 7.159 6.983 7.159 6.982 7.159 6.982 7.159 6.982 7.159 6.982 7.159 6.982 7.159 6.982 7.159 6.982 7.159 6.983 7.159 6.982 7.159 6.982 7.158 6.982 7.159 6.982 7.159 6.982 7.159 6.982 7.159 6.982 7.159 6.982 7.159 6.983 7.159 6.982 7.159 6.982 7.159 6.982 7.159 6.982 7.159 6.982 7.158 6.982 7.159 6.982 7.159 6.982 7.159 6.983 7.159 6.982 7.159 6.982 7.159 6.982 7.159 6.982 7.159 6.982 7.159 6.982 7.159 6.982 7.159 6.982 7.158 6.983 7.159 6.982 7.159 6.982 7.159 6.982 7.159 6.982 7.159 6.982 7.159 6.982 7.159 6.982 7.159 6.983 7.159 6.982 7.159 6.982 7.159 6.982 7.158 6.982 7.159 6.982 7.159 6.982 7.159 6.982 7.159 6.982 7.159 6.982 7.159 6.983 7.159 6.982 7.159 8.715 8.936 7.071-7.071 3.404-3.405-7.159-6.982-7.159-6.982-7.159-6.982-7.158-6.982-7.159-6.982-7.159-6.982-7.159-6.982-7.159-6.983-7.159-6.982-7.159-6.982-7.159-6.982-7.159-6.982-7.159-6.982-7.159-6.982-7.159-6.982-7.158-6.982-7.159-6.983-7.159-6.982-7.159-6.982-7.159-6.982-7.159-6.982-7.159-6.982-7.159-6.982-7.159-6.982-7.159-6.982-7.159-6.983-7.159-6.982-7.158-6.982-7.159-6.982-7.159-6.982-7.159-6.982-7.159-6.982-7.159-6.982-7.159-6.982-7.159-6.983-7.159-6.982-7.159-6.982-7.159-6.982-7.159-6.982-7.158-6.982-7.159-6.982-7.159-6.982-7.159-6.982-7.159-6.983-7.159-6.982-7.159-6.982-7.159-6.982-7.159-6.982-7.159-6.982-7.159-6.982-7.159-6.982-7.158-6.983-7.159-6.982-7.159-6.982-7.159-6.982-7.159-6.982-7.159-6.982-7.159-6.982-8.936-8.715ZM1050.09 1256.65l-7.16-6.99-7.16-6.98-7.16-6.98-7.16-6.98-7.15-6.98-7.16-6.99-7.163-6.98-7.159-6.98-7.159-6.98-7.158-6.98-7.159-6.99-7.159-6.98-7.159-6.98-7.159-6.98-7.159-6.98-7.159-6.99-7.159-6.98-7.159-6.98-7.159-6.98-7.159-6.99-7.158-6.98-7.159-6.98-7.159-6.98-7.159-6.98-7.159-6.99-7.159-6.98-7.159-6.98-7.158-6.98-7.16-6.98-7.159-6.99-7.159-6.98-7.159-6.98-7.159-6.98-7.159-6.99-7.157-6.98-7.16-6.98-7.159-6.981-7.159-6.982-7.159-6.982-7.159-6.982-7.159-6.982-7.159-6.983-7.159-6.982-7.159-6.982-7.159-6.982-7.159-6.982-7.158-6.982-7.159-6.982-7.159-6.982-7.159-6.982-7.159-6.983-7.159-6.982-7.159-6.982-7.159-6.982-7.159-6.982-7.159-6.982-7.159-6.982-7.159-6.982-8.934-8.716 6.981 7.159 6.982 7.159 6.982 7.159 6.982 7.159 6.982 7.159 6.982 7.159 6.982 7.159 6.983 7.159 6.982 7.159 6.982 7.159 6.982 7.159 6.982 7.159 6.982 7.158 6.982 7.159 6.982 7.159 6.982 7.159 6.983 7.159 6.982 7.159 6.982 7.159 6.982 7.159 6.982 7.159 6.982 7.163 6.982 7.15 6.982 7.16 6.983 7.16 6.982 7.16 6.982 7.16 6.982 7.16 6.982 7.16 6.982 7.16 6.982 7.16 6.983 7.15 6.981 7.16 6.983 7.16 6.982 7.16 6.982 7.16 6.982 7.16 6.982 7.16 6.983 7.16 6.981 7.16 6.982 7.15 6.982 7.16 6.982 7.16 6.983 7.16 6.982 7.16 6.983 7.16 6.981 7.16 6.982 7.16 6.982 7.16 6.982 7.15 6.982 7.16 6.983 7.16 6.983 7.16 6.98 7.16 6.98 7.16 6.99 7.16 6.98 7.16 6.98 7.16 8.71 8.93M1991.84 800.016l-7.16-6.982-7.16-6.982-7.16-6.982-7.16-6.982-7.16-6.982-7.16-6.982-7.16-6.982-7.16-6.983-7.15-6.982-7.16-6.982-7.16-6.982-7.16-6.982-7.16-6.982-7.16-6.982-7.16-6.982-7.16-6.982-7.16-6.983-7.15-6.982-7.16-6.982-7.16-6.982-7.16-6.982-7.16-6.982-7.16-6.982-7.16-6.982-7.16-6.982-7.16-6.983-7.15-6.982-7.16-6.982-7.16-6.982-7.16-6.982-7.16-6.982-7.16-6.982-7.16-6.982-7.16-6.982-7.16-6.983-7.15-6.982-7.16-6.982-7.16-6.982-7.16-6.982-7.16-6.982-7.16-6.982-7.16-6.982-7.16-6.983-7.16-6.982-7.16-6.982-7.15-6.982-7.16-6.982-9.78-9.532M1236.52 195.448l6.98 7.159 6.98 7.159 6.99 7.159 6.98 7.159 6.98 7.159 6.98 7.159 6.98 7.159 6.99 7.158 6.98 7.159 6.98 7.159 6.98 7.159 6.99 7.159 6.98 7.159 6.98 7.159 6.98 7.159 6.98 7.159 6.99 7.159 6.98 7.159 6.98 7.159 6.98 7.159 6.98 7.158 6.99 7.159 6.98 7.159 6.98 7.159 6.98 7.159 6.98 7.159 6.99 7.159 6.98 7.159 6.98 7.159 6.98 7.159 6.99 7.159 6.98 7.159 6.98 7.158 6.98 7.159 6.98 7.159 6.99 7.159 6.98 7.159 6.98 7.159 6.98 7.159 6.98 7.159 6.99 7.159 6.98 7.159 6.98 7.159 6.98 7.158 6.98 7.159 6.99 7.159 6.98 7.159 6.98 7.159 6.98 7.159 6.99 7.159 6.98 7.159 7.87 8.076 7.07-7.071 2.15-2.146-7.16-6.982-7.16-6.982-7.16-6.982-7.16-6.982-7.15-6.982-7.16-6.982-7.16-6.983-7.16-6.982-7.16-6.982-7.16-6.982-7.16-6.982-7.16-6.982-7.16-6.982-7.15-6.982-7.16-6.982-7.16-6.983-7.16-6.982-7.16-6.982-7.16-6.982-7.16-6.982-7.16-6.982-7.16-6.982-7.15-6.982-7.16-6.982-7.16-6.983-7.16-6.982-7.16-6.982-7.16-6.982-7.16-6.982-7.16-6.982-7.16-6.982-7.16-6.982-7.15-6.982-7.16-6.983-7.16-6.982-7.16-6.982-7.16-6.982-7.16-6.982-7.16-6.982-7.16-6.982-7.16-6.982-7.15-6.982-7.16-6.983-7.16-6.982-7.16-6.982-7.16-6.982-7.16-6.982-7.16-6.982-7.16-6.982-7.16-6.982-7.15-6.983-8.08-7.876ZM622.273 445.409l.754 1.352 2.605 4.667M635.496 466.233l.148.089M735.934 342.053l-5.059-2.831-.749-.419-.829-.463M743.126 346.883l-.662-.447-2.296-1.547-.051-.035M947.244 781.083l-1.606 3.383-.087.184M945.805 792.891l2.019 1.652 1.134.927M953.592 776.286l-1.088 2.63M962.686 796.712l-.061.134M1088.9 881.619l.93.559 3.76 2.267 2.53 1.52M961.984 805.224l8.568 5.157 1.73 1.041M1085.03 671.224l-.58-.961-.15-.246-3.98-6.602M1120.46 729.982l-5.16-8.564-5.17-8.564-5.16-8.563-5.17-8.564-4.38-7.272-1.78-2.946-4.66-7.726M1644.4 462.45l6.98 7.159 6.99 7.159 6.98 7.159 6.98 7.159 6.98 7.159 6.99 7.159 6.98 7.159 6.98 7.159 6.98 7.159 6.98 7.159 6.99 7.159 6.98 7.158 6.98 7.159 6.98 7.159 6.98 7.159 6.99 7.159 6.98 7.159 6.98 7.159 6.98 7.159 6.99 7.159 6.98 7.159 6.98 7.159 6.98 7.159 6.98 7.158 6.99 7.159 6.98 7.159 6.98 7.159 6.98 7.159 6.98 7.159 6.99 7.159 6.98 7.159 6.98 7.159 6.98 7.159 6.98 7.159 6.99 7.159 6.98 7.158 6.98 7.159 6.98 7.159 6.99 7.159 6.98 7.159 6.98 7.159 6.98 7.159 6.98 7.159 6.99 7.159 6.98 7.159 6.98 7.159 6.98 7.159 10.06 10.313"/></g><defs><clipPath id="a"><path fill="#fff" d="M0 0h1920v1080H0z"/></clipPath></defs></svg>