<svg width="1920" height="1080" fill="none" xmlns="http://www.w3.org/2000/svg"><g clip-path="url(#a)" stroke="#EFC018" stroke-width="5" stroke-linejoin="round"><path d="m954.538 800.496-.236.438-.427.791.009.022.101.114.19.202.27.281.341.35.399.404.44.445.466.467.474.472.462.459.435.428.389.381.329.318.257.245.174.161.084.071 1.197-.663"/><path d="m953.875 801.726.083.07.173.16.256.244.329.319.39.38.435.429.464.46.474.473.467.468.442.446.399.405.341.35.27.281.189.201.1.113.008.021M953.934 800.13l.004.137.097.234.185.311.086.122M956.969 799.089l-1.134 2.188-.018.034-.055.107.027.192.121.273.211.345.293.403.364.445.42.47.461.478.484.467.489.439.027.022.002.002.445.368.441.332.346.228.046.031.328.175.251.085.163-.008 1.687-.95 1.985-1.117"/><path d="m955.762 801.419.07-.103.059-.004.103-.006.25.084.327.175.392.258.442.332.31.257.165.136.49.439.485.469.462.479.405.453.016.018.365.446.293.403.159.261.051.084.121.273.025.191-.071.102M960.346 797.559l-.505 1.048-.148.307-.065.136-.013.075-.033.194.054.345.154.409.246.455.331.485.302.375.02.024.078.098.457.488.494.462.513.418.134.093.379.264.492.284.454.199.396.106.325.009.021-.008.22-.08 3.515-1.971"/><path d="m959.629 799.049.146-.183.239-.089.046.002.278.007.397.105.453.198.493.283.514.358.514.418.176.165.32.298.457.49.401.498.331.486.246.456.153.408.054.345-.048.269-.146.181M965.522 794.386l-.127.295-.115.344-.007.414.066.31.034.159.203.507.298.523.383.522.451.498.504.458.537.397.549.324.54.237.51.14.462.04.394-.064.312-.164 3.271-1.783"/><path d="m965.395 794.68.215-.257.002-.002.312-.165.393-.065.462.038.51.141.381.166.134.059.026.011.55.324.538.398.505.458.452.5.383.522.146.256.153.269.203.507.099.469-.009.415-.116.343-.218.258M972.994 788.089l-.262.744-.064.478.052.526.164.553.27.559.366.545.448.508.512.452.558.38.581.292.129.042.454.151.562.087.519-.022.456-.131.821-.416 1.991-1.009"/><path d="m972.73 788.833.176-.412.28-.331.376-.236.361-.104.095-.028.521-.023.561.086.583.193.583.292.558.38.513.454.449.508.368.546.032.069.237.491.163.554.052.526-.02.143-.045.335-.177.412-.281.33-.378.235M1072.59 699.812l1.25-2.642.16-.48.04-.542-.07-.581-.17-.599-.28-.593-.38-.565-.45-.515-.51-.445-.55-.359-.57-.258-.57-.148-.54-.032-.5.085"/><path d="m1073.84 697.17-.01.018-.25.384v.004l-.35.303-.41.19-.01.003-.02.008-.5.086-.55-.031-.57-.147-.57-.258-.55-.36-.51-.446-.45-.516-.37-.566-.29-.594-.17-.599-.07-.582.05-.541.15-.481.01-.009v-.008l.25-.379v-.005l.36-.306.4-.182.04-.018M1059.71 702.768l.32-.446v-.005l.36-.31.01-.009.04-.037.5-.247.43-.102.12-.026.59-.006.61.118.6.237.57.346.32.271.2.172.44.522.36.581.26.618.14.632.02.621-.09.586-.17.412-.05.117-.26.373-.05.079-.01.004-.12.104-.01.007-.28.241M1063.52 707.998l-.59.007-.61-.118-.6-.236-.57-.347-.52-.443-.31-.363-.14-.16-.07-.11-.29-.472-.25-.619-.14-.633-.03-.621M1064.73 708.296l.42-1.092.36-.92M1055.54 717.675l.25-1.287.01-.651-.11-.656-.24-.637-.34-.594-.44-.527-.53-.44-.58-.338-.63-.219-.64-.097"/><path d="m1055.79 716.388-.07.307-.06.313-.11.24-.01.02-.14.305-.36.487-.01.005-.45.388-.54.282-.6.161-.62.034-.64-.094-.63-.221-.58-.338-.53-.441-.44-.528-.35-.594-.23-.638-.12-.657.02-.651.13-.619.26-.565.36-.482v-.005l.46-.393.54-.281.6-.16.16-.01h.03l.37-.021.07-.003M1044.31 725.282l.34.601.22.649.09.671-.04.669-.16.639-.29.587-.4.51v.005l-.49.41-.57.303-.62.181-.66.05-.66-.082-.64-.211-.6-.332-.53-.439-.44-.531-.33-.602-.22-.649-.1-.672.04-.669.17-.639.28-.587.4-.504v-.006l.49-.414.57-.303.63-.18.65-.05.66.082.65.211.59.332.53.439.44.531ZM1032.78 737.161l.33.604.21.652.09.677-.06.674-.18.646-.3.593-.42.517v.005l-.51.416-.58.31-.65.186-.67.055-.67-.078-.65-.208-.6-.33-.53-.44-.44-.532-.33-.604-.21-.653-.09-.676.05-.674.18-.646.31-.593.41-.512v-.005l.52-.422.58-.309.64-.186.67-.055.68.078.65.208.6.33.53.44.44.532ZM1015.58 748.437l.01-.006.51-.412.59-.301.64-.178.68-.048.67.083.65.213.61.333.53.44.44.531.33.601.21.649.08.671-.06.667-.18.638-.31.584-.41.509-.01.004M1016.82 754.053l-.6-.332-.53-.441-.44-.531-.33-.601M1020.05 753.823l-.59.301-.64.178M1014.68 750.162l.18-.638.31-.585M1003.22 763.493l-.02-.061-.02-.069-.17-.507-.09-.654.04-.648.18-.616.29-.561.4-.478v-.006l.51-.388.57-.278.63-.156.67-.03.66.099.65.223.6.34.53.442.44.528.33.594.22.637.08.655-.04.648-.17.616-.3.561-.4.483-.01.005-.49.383-.58.278-.63.156-.37.016-.05.003-.24.01-.67-.099-.64-.223-.6-.34-.53-.442-.44-.528-.34-.593Zm0 0-.03-.073M1006.44 765.719l.08.006M991.797 772.714l.021-.616.125-.493.006-.026.016-.063.267-.523.373-.44.004-.005.473-.349.55-.241.606-.123h.639l.647.123.631.241.589.35.527.445.442.523.342.582.227.617.105.63-.021.617-.148.581-.268.523-.378.445-.005.003-.314.232-.012.009-.142.105-.55.24-.606.122h-.638l-.647-.124-.63-.241-.589-.349-.526-.445-.442-.523-.341-.581-.228-.617-.105-.629Zm0 0 .021-.646M996.551 776.101l.035-.011M981.724 780.912l.227-.472.295-.346.008-.01.028-.032.004-.005.43-.299.509-.191.568-.078.606.039.619.154.61.264.576.364.521.45.445.516.352.565.247.592.13.595.01.576-.111.536-.226.465-.002.007-.002.002-.334.391-.005.002-.426.295-.509.19-.568.078-.605-.041-.619-.154-.609-.265-.575-.363-.52-.448-.445-.517-.352-.564-.246-.591-.131-.595-.011-.574.111-.536Zm0 0 .005-.019M986.805 785.291l.007-.003M1088.69 673.037l-.35-.379-.43-.452-.46-.469-.47-.467-.47-.448-.45-.411-.41-.359-.35-.292-.28-.215-.2-.129-.12-.038-.52.288"/><path d="m987.789 784.136-.221.459-.004.008-.003.006-.332.388-.004.004-.415.287-.016.011-.509.191-.568.076-.605-.039-.619-.155-.608-.264-.576-.364-.52-.448-.444-.516-.352-.564-.247-.591-.131-.595-.01-.576.11-.534.014-.028.213-.445.304-.356.008-.009.024-.028.004-.003.426-.295.509-.192M987.16 781.274l.353.565M987.891 783.026l.009.576M986.793 785.299l2.393-1.047M983.785 779.486l.605.039M985.617 779.944l.577.364M997.569 775.516l-.004.005-.307.227-.012.009-.154.113-.506.221-.044.02-.606.122-.639-.001-.647-.123-.63-.241-.589-.349-.525-.445-.443-.523-.341-.581-.228-.617-.105-.629.021-.617.01-.038.122-.48.006-.026.009-.037.268-.523.377-.445.005-.004M998.274 772.726l.105.63-.022.617-.148.581-.268.523M993.074 770.209l.55-.241.606-.123h.639l.647.123M996.539 776.111l1.724-.519M1009.5 763.833l-.3.56-.4.479v.005l-.5.388-.58.277-.63.157-.31.013-.06.003-.2.009-.09.004-.67-.099-.64-.224-.6-.339-.53-.442-.44-.528-.34-.594-.02-.082-.02-.047-.02-.069-.15-.438-.09-.654.04-.648.17-.616.3-.561.4-.484.01-.004.49-.384.58-.278M1006.86 759.15l.64.223.6.34.53.442.44.528.34.594.21.637M1002.83 762.776l.38.726M1006.43 765.729l.74.053M1016.81 754.064l-.6-.333-.53-.441-.44-.531-.33-.601-.21-.648-.08-.671.05-.667.18-.638.31-.584.42-.509v-.004l.51-.408.59-.301.64-.178.68-.048.67.084.65.212.61.333.53.44.44.531.33.602.21.648.08.671-.05.667-.19.638-.3.585-.42.502v.006l-.52.412-.59.301-.64.178-.67.048-.68-.084-.65-.212ZM1032.86 741.018l-.41.512v.005l-.52.422-.58.31-.64.185-.67.055-.68-.078-.65-.208-.6-.33-.53-.439-.44-.532-.33-.604-.21-.653-.08-.677.05-.674.18-.646.3-.593.42-.517v-.005l.51-.416M1032.77 737.171l.34.604.21.653.08.676M1029.88 735.583l.67.078.65.209.6.33M1044.07 729.613l-.01.005-.49.415-.57.304-.62.18-.66.05-.66-.082-.64-.211-.6-.331-.53-.44-.44-.531-.33-.602-.22-.649-.1-.672.04-.668.17-.64.28-.586.4-.511.01-.004M1044.86 726.541l.09.672-.03.668M1040.78 723.746l.65-.05M1055.03 718.065v.006l-.46.393-.54.282-.6.161-.63.034-.63-.095-.63-.221-.59-.337-.52-.441-.45-.528-.34-.594-.23-.638-.12-.657.02-.651.13-.619.26-.565.36-.488.01-.004M1055.45 714.453l.23.638.11.656-.01.651-.13.619-.1.22-.01.02-.15.325M1050.52 712.714l.54-.282.6-.16.19-.011.04-.001.4-.021.63.095.63.221M1065.5 706.293l-.21.529-.32.447v.005l-.12.101-.01.007-.28.248-.5.248-.55.129-.59.006-.61-.117-.6-.236-.57-.347-.52-.443-.45-.523-.07-.111-.29-.471-.25-.619-.14-.633-.03-.621.1-.587.21-.528.32-.451.01-.004.36-.315.01-.008.03-.029.5-.247.55-.128.59-.006.61.118.6.237.57.346.32.27.2.173.45.522.35.581.26.618.14.632.02.621-.09.586Zm0 0-.16.403M1061.48 701.596l-.1.017M1070.59 697.738l-.55-.36-.51-.446-.45-.516-.37-.566-.28-.594-.18-.6-.07-.581.05-.542.16-.48.01-.017v-.009l.25-.375v-.003l.35-.303.44-.2.5-.085.54.032.57.147.58.259.55.359.51.445.45.515.37.565.28.593.18.599.06.581-.04.542-.16.48-.25.398-.01.004-.35.307-.4.186-.01.004-.03.011-.5.086-.54-.031-.57-.147-.58-.258ZM1080.77 688.948l-.19.341-.29.247-.37.144-.44.034-.49-.077-.01-.002-.52-.182-.54-.285-.53-.375-.5-.449-.45-.508-.39-.547-.31-.563-.22-.559-.1-.443-.02-.091-.01-.486.07-.338.02-.084.06-.101.13-.239.29-.246.37-.142.44-.033.49.077.53.185.54.284.53.375.5.449.45.507.39.545.31.562.22.559.12.532.01.487-.09.422Zm0 0-1.59 3.021"/><path d="m1075.96 684.14-.27.109-.72.291M1085.77 682.652l-.21.179-.3.078-.37-.026-.44-.128-.47-.226-.5-.317-.51-.392-.49-.453-.46-.5-.41-.523-.14-.213-.21-.316-.26-.513-.17-.478-.08-.425.02-.354.12-.271.22-.178.3-.075.21.014.16.012.35.104.08.026.21.099.27.126.5.315.5.392.24.222.26.231.46.498.4.522.35.528.26.513.06.179.11.298.08.426-.02.354-.12.272Zm0 0-1.88 3.421M1081.11 677.597l-.9.42M1089.02 677.853l-.13.104-.23.006-.03-.008-.27-.083-.37-.184-.29-.187-.13-.085-.47-.349-.44-.377v-.005l-.04-.029-.34-.322-.14-.137-.46-.489-.43-.499-.05-.057-.13-.165-.2-.269-.31-.463-.24-.418-.14-.357-.05-.282.04-.196.14-.102.22-.006.3.092.37.185.43.272.46.349.33.286.15.124.48.458.36.383.1.105.43.498.38.489.06.094.25.369.23.418.13.301.02.056.05.283-.02.089-.02.108Zm0 0-2.01 3.614M1084.31 672.899l-.75.384-.15.073-.05.027M1090.27 675.007l-.06.026-.15-.068-.23-.159-.3-.244-.17-.143-.2-.176-.43-.383-.45-.432-.47-.464-.47-.478-.45-.473-.42-.451-.36-.412-.29-.355-.21-.286-.13-.206-.03-.117.05-.025.15.069.23.159.31.244.37.32.42.383.45.43.47.463.47.477.32.331.13.141.41.451.36.411.3.355.21.287.13.206.04.119Zm0 0-1.28 2.309M1085.44 670.187l-.15.081-.57.306M723.813 335.231l-8.727-4.882-6.053-3.385-8.884-4.59-8.884-4.591-8.884-4.591-4.366-2.256-8.916-4.527-8.916-4.528-8.917-4.528-4.445-2.258-9.164-4.003-9.164-4.003-9.164-4.003-5.23-2.284-9.577-2.881-9.576-2.88-9.576-2.881-9.576-2.88-9.576-2.881-9.576-2.881-9.576-2.88-3.289-.989 2.852 9.585 2.851 9.584 2.852 9.585 2.851 9.585 2.852 9.585 2.851 9.585 2.852 9.585.743 2.498 3.991 9.169 3.992 9.169 3.991 9.169 2.189 5.029 4.522 8.919 4.522 8.919 4.522 8.919 2.195 4.331 4.586 8.887 4.585 8.887 4.585 8.886 2.215 4.293 4.878 8.73 3.81 6.818M947.969 794.339l-.746 1.491.893.793 5.818 3.507.608.366 1.134.684.162.097M1079.08 664.365l-.75 2.408-3.29 4.887-5.73 7.219-5.1 5.945-1 1.158-1.89 2.196-1.02 1.138-3.08 3.412-.01.007-.92 1.021-.01.008-2.03 2.258-2.22 2.46-.01.008-.65.714-2.82 3.023-.01.008-.52.556-.01.009-3.27 3.496-1.88 2.01-.01.009-3 3.203-1.15 1.194-.01.01-.03.033-.01.009-4.14 4.292-1.53 1.59-.01.01-4.44 4.604v.01l-.46.468-.84.875-3.46 3.497-1.14 1.153-.01.01-4.62 4.668-.01.01-.95.953-3 3.032-1.33 1.311-.69.681-.01.01-4.64 4.56-.01.009-1.39 1.371-4.35 4.274-.19.189-.01.009-.58.571-3.916 3.745-.009.009-1.812 1.734-3.88 3.71-.009.009-.335.32-.009.008-2.679 2.563-1.304 1.207-.009.008-2.262 2.093-2.856 2.643-.008.007-.83.768-.008.008-3.483 3.223-.008.007-.803.743-1.949 1.728-1.253 1.111-.007.006-1.182 1.049-.007.006-3.553 3.15-2.067 1.833-.033.027-.429.357-7.613 6.333-5.835 4.314-3.403 1.781"/><path d="m948.113 796.624 3.457-1.806 5.936-4.386 7.688-6.394.531-.442.2-.177.64-.567 2.312-2.05 3.361-2.98.007-.006 1.212-1.074.007-.006 1.394-1.236 1.069-.948 1.63-1.509.008-.007 3.408-3.153.009-.008.841-.778.008-.008 2.906-2.689 2.257-2.089.009-.008.709-.656 3.236-3.095.01-.009.334-.32.009-.008 3.883-3.714 1.825-1.745.009-.009 3.582-3.424.91-.897.01-.009.19-.189 4.33-4.258 1.39-1.371.01-.01 4.66-4.575.01-.01.7-.697 1.24-1.213 3.05-3.083.96-.97.01-.01 4.64-4.683.01-.01 1.15-1.169 3.61-3.648.66-.677.46-.481.01-.01 4.45-4.62.01-.01 1.54-1.59 4.13-4.292.01-.009.02-.018.01-.009 1.56-1.624 2.59-2.767.01-.009 1.88-2.01 3.3-3.526.01-.009.51-.553.01-.009 3.43-3.66.02-.02v-.009l2.2-2.439 2.12-2.346.01-.008.92-1.025.01-.008 2.98-3.303 1.87-2.071 1.2-1.394 1.07-1.251 3.24-3.773.87-1.006 1.75-2.043 5.83-7.346 3.34-4.97.76-2.443-1.79.125-.18.107M740.411 344.972l-2.601.203-4.689 2.368-6.624 4.474-6.081 4.7-1.276.987-.964.744-2.402 2.019-2.331 1.959-.007.006-.923.775-.007.006-2.267 1.905-1.763 1.482-.304.271-.006.006-3.327 2.972-.009.007-.268.24-.008.007-2.338 2.089-1.927 1.722-.007.006-2.5 2.234-2.138 2.008-.008.008-3.506 3.293-.007.007-5.591 5.253-.278.273-.008.008-2.505 2.463-.008.008-6.514 6.404-.008.008-2.016 1.983-.221.226-.008.009-6.063 6.234-.008.008-2.969 3.053-.009.008-1.673 1.72-3.167 3.417-.007.007-1.857 2.003-1.69 1.822-.141.153-.008.008-.008.009-.007.008-3.221 3.473-.415.473-.006.007-1.724 1.966-2.123 2.421-.006.008-.594.677-.007.007-2.287 2.609-.006.006-1.678 1.914-.218.268-1.401 1.717-.005.007-.943 1.156-.005.006-1.898 2.328-1.769 2.169-.614.753-.38.466-5.343 7.302-3.263 5.462-1.086 3.434M628.367 455.184l.372.553 1.537 2.28.239.356"/><path d="m742.494 346.375.703-1.645-.453-2.026-2.695.198-4.871 2.454-6.892 4.65-4.006 3.096-.283.218-1.476 1.14-2.246 1.735-.653.505-.671.564-3.536 2.97-2.273 1.91-.007.006-.892.749-.007.006-2.213 1.86-.508.426-1.548 1.383-.007.006-3.592 3.209-.009.008-.014.012-.137.123-.008.007-1.958 1.749-2.058 1.839-.007.006-1.807 1.614-3.206 3.012-.009.008-2.996 2.815-.008.007-5.509 5.176-1.133 1.113-.008.009-1.465 1.44-.008.008-7.131 7.01-.553.544-.008.008-.942.926-.008.008-.564.555-6.497 6.68-.007.007-2.304 2.369-.008.009-2.6 2.673-2.741 2.956-.006.007-2.313 2.494-.488.526-.581.627-.007.008-3.882 4.187-.007.007-.509.549-1.277 1.458-1.975 2.252-.006.007-.546.622-.007.008-2.341 2.671-.006.006-1.904 2.172-1.155 1.318-.37.454-.005.006-.958 1.175-.005.006-1.667 2.045-2.127 2.608-1.048 1.286-1.352 1.659-5.558 7.6-3.388 5.68-1.118 3.563 1.156 1.346 3.061-.811"/><path d="m742.743 342.705-2.246-1.734-2.697.187-1.789.895-3.074 1.538-4.366 2.935-1.389.934-1.117.751-.649.5-.623.48-1.752 1.35-.538.415-2.596 2-1.56 1.203-.918.707-.359.301-.928.779-2.429 2.037-4.647 3.898-.01.008-1.512 1.268-.004.004-.179.15-7.462 6.658-3.639 3.248-7.291 6.844-4.387 4.12-7.131 7.01-4.636 4.557-6.972 7.17-4.391 4.516-6.796 7.336-3.686 3.978-6.588 7.524-.294.335-.004.006-2.284 2.608-.05.061-.002.002-.229.282-.007.008-.576.708-.008.01-2.135 2.624-2.005 2.464-.747.918-1.279 1.573-.452.555-.209.286-1.816 2.491-.277.38-1.078 1.479-2.144 2.941-3.097 5.217-.266.449-1.103 3.561 1.738 2.252M1079.08 664.365l-.78-.951-1.63-2M1070.99 654.479l-.61-.747-.1-.116-6.33-7.739-6.33-7.739-6.34-7.739-6.33-7.739-3.26-3.987-6.5-7.601-6.5-7.6-6.5-7.601-6.5-7.6-6.5-7.601-5.42-6.345-6.679-7.444-6.677-7.444-6.677-7.444-6.678-7.444-6.677-7.444-5.516-6.149-6.852-7.284-6.852-7.283-6.852-7.284-6.852-7.283-6.852-7.283-5.622-5.976-7.471-6.648-7.471-6.647-7.471-6.648-7.47-6.647-7.471-6.647-6.18-5.5-7.697-6.385-4.136-3.431M634.363 464.085l1.031 1.529.655.973 5.589 8.293 5.588 8.292 4.478 6.645 5.589 8.293 3.899 5.785 5.912 8.065 5.913 8.065 5.913 8.064 5.913 8.065 5.913 8.065 5.349 7.295 6.385 7.696 6.386 7.695 6.385 7.696 1.657 1.997 6.386 7.695 6.385 7.696 3.903 4.704 6.648 7.47 6.648 7.47 6.649 7.47 6.648 7.471 6.648 7.47 5.719 6.426 7.283 6.853 7.283 6.852 7.283 6.852 7.283 6.853 7.283 6.852 6.233 5.864 7.443 6.678 7.443 6.678 7.444 6.678 7.443 6.678 7.444 6.678 6.399 5.742 7.6 6.5 7.6 6.499 7.599 6.5 7.6 6.5 7.599 6.499 6.578 5.626 7.738 6.334 7.738 6.334 7.738 6.335 7.738 6.334 3.705 3.033.483.395 1.1.901M1101.07 884.11l1.59-.888 4.98-3.483 5.98-4.73 6.73-5.795 7.24-6.632 7.18-6.958.25-.245 7.01-7.14.33-.341 6.81-7.32.13-.134 6.26-7.126 5.33-6.511 4.2-5.64 2.91-4.553 1.52-3.297.08-1.926M1169.6 811.391l-1.35-2.237-1.09-1.8M1127.7 904.21l8.64 5.03 4.71 2.743 1.97-.425 2.94-1.505 3.81-2.533 3.02-2.315 1.51-1.152 5.07-4.271 5.41-4.905 3.62-3.488 1.93-1.857 5.32-5.447.13-.124 5.13-5.574 4.62-5.354 3.68-4.624.24-.296 3.07-4.295 2.1-3.503 1.05-2.582-.01-1.567-5.03-8.642-2.54-4.365"/><path d="m1111.41 898.444 8.73 4.879 3.85 2.157 2.29-.528 1.42-.742 2.04-1.073 4.5-3.042 5.37-4.157 6.03-5.114 6.46-5.869 6.61-6.389 6.52-6.652 6.14-6.646 5.53-6.372 4.69-5.842 3.68-5.085 2.53-4.13.29-.68.99-2.343.01-1.809-4.88-8.728-1.79-3.192M1100.76 885.546l5.12-3.577 6.39-5.061 7.22-6.204 7.37-6.758.38-.347 7.18-6.957.77-.742v-.005l.02-.013 1.27-1.302.01-.006 4.99-5.09.01-.006.89-.907v-.005l.69-.699 6.81-7.32.62-.666 6.6-7.513.1-.119 5.71-6.971 4.49-6.035 3.11-4.867 1.61-3.52.07-2.051-1.44-.522-2.5.871M1152.79 905.205l8.22 5.701 3.99 2.773.59.396 1.21-.248 1.77-.886 2.28-1.491 2.69-2.042 3.01-2.513 3.2-2.888 3.27-3.148 3.21-3.285 3.03-3.292 2.71-3.171 2.31-2.923 1.81-2.564 1.23-2.105.62-1.566-.01-.97-5.7-8.217-3.02-4.357"/><path d="m990.102 791.396 1.376 7.354 1.641 8.768 1.84 9.83 1.584 8.463 1.126 6.015 1.84 9.829 1.841 9.829 1.84 9.83 1.84 9.829 1.84 9.829 1.84 9.83 1.84 9.829.71 3.806 7.41 6.717 7.41 6.717 7.41 6.716 7.4 6.717 7.41 6.716 7.41 6.717 7.41 6.717 7.41 6.716 7.97 7.223 7.64 6.45 7.55 6.372.07.058 7.64 6.45 2.69 2.273 4.76 4.019 7.65 6.45 7.5 6.335 7.64 6.45 7.47 6.31 6.68-5.15 4.43-6.99-5.04-8.636-5.04-8.636-4.38-7.495-4.76-8.79-4.77-8.789-4.26-7.851-4.94-8.695-4.94-8.695-4.16-7.325-3.2-9.474-3.2-9.475-3.2-9.475-.52-1.535 1.64-7.786 1.31-6.217.31-1.437 2.06-9.785.84-4.004.27-1.282.62-2.942-8.04-5.942-8.04-5.942-8.05-5.942-8.04-5.943-8.04-5.942-8.05-5.942-8.04-5.942-8.04-5.942-8.04-5.943-8.05-5.942-8.04-5.942-8.04-5.942-8.05-5.942-4.03-2.981-6.168 5.529Z"/><path d="m996.27 785.867 1.86 9.826 1.659 8.772 1.861 9.826 1.86 9.826.42 2.21.84 4.44 1.85 9.825 1.86 9.826 1.86 9.826 1.86 9.825 1.86 9.826 1.86 9.826 1.76 9.275M1011.26 904.437l6.41-5.441 7.41 6.718 7.41 6.718 7.41 6.718 7.4 6.718 7.41 6.718 7.41 6.719 7.4 6.718 7.41 6.718 7.41 6.718.71.647 7.64 6.453 2.93 2.471 4.65 3.932 7.64 6.452 7.56 6.383 7.64 6.452 7.53 6.362 7.64 6.449 7.51 6.35M1176.38 803.927l9.62 2.718 3.01.85 8.74 4.869 8.73 4.87 3.11 1.733 8.84 4.671 8.84 4.672 3.05 1.607 8.66 4.989 8.67 4.989 2.79 1.606 6.26-5.018 3.61-5.692-6.53-7.568-5.51-6.38-6.54-7.568-.07-.086"/><path d="m1186.94 800 8.27 2.352 8.73 4.879 8.73 4.879 3.14 1.756 8.84 4.681 8.83 4.682 3.08 1.629 8.66 4.998 8.66 4.998 2.82 1.628M938.532 786.617l-1.037 1.869-.321.579-.471.848.012.025.104.116.192.203.273.283.343.351.399.406.442.445.466.467.473.472.462.458.433.427.388.38.327.317.254.243.172.159.082.07 1.231-.699"/><path d="m936.703 789.913.081.068.171.159.253.242.327.317.388.38.434.428.463.459.474.473.468.469.442.446.4.406.343.351.273.283.191.202.103.115.011.024M938.052 786.223l-1.18 2.096-.001.148.091.236.18.312.035.051M940.162 786.528l-.24.45-.013.025-.05.093-.226.422-.992 1.855-.079.147.027.197.12.279.211.348.294.407.362.447.421.473.461.478.485.467.489.437.136.113.338.277.441.329.393.255.018.009.31.161.251.081.165-.014 2.579-1.483 1.216-.698"/><path d="m938.562 789.52.071-.108.162-.014.252.079.328.17.391.254.443.329.476.391.489.438.485.468.463.479.422.474.084.105.279.343.294.407.201.335.008.014.121.277.024.196-.071.107M947.277 792.083l.097-.145-.024-.202"/><path d="m944.35 783.254-1.059 2.115-.575 1.15-.101.202-.127.254-.003.007-.051.277.052.353.15.415.245.461.328.489.4.5.099.106.006.006.351.377.495.462.515.415.321.221.194.133.495.278.456.193.401.099.328.001.083-.032.162-.064 3.368-1.925.269-.153M951.153 789.594l.205-.258.062-.33.008-.044-.067-.478-.202-.561-.329-.625-.444-.664-.542-.677"/><path d="m942.484 786.982.004-.006.145-.185.244-.097h.328l.4.098.457.192.496.278.515.354.516.417.405.377.091.085.458.491.4.5.329.491.244.461.15.415.05.353-.051.276-.151.19M949.971 778.855l-1.449 3.218-.132.292-.122.354-.014.425.094.478.087.227.112.287.295.531.381.524.451.5.505.456.54.395.552.32.545.229.517.133.357.021.111.008.257-.047.144-.028.32-.175 3.387-1.881M956.911 785.123l.306-.365.167-.479.021-.574-.126-.648-.267-.696-.049-.087-.098-.178-.252-.453-.515-.711"/><path d="m948.391 782.365.207-.25.017-.021.319-.176.401-.076.468.029.517.131.414.175.131.055.411.236.143.083.541.395.506.458.452.501.381.526.145.26.151.27.198.515.059.304.034.174-.004.112-.011.313-.122.354-.226.269M957.092 773.158l-1.085 2.883-.024.063-.04.105-.072.491.043.537.157.563.266.566.364.549.447.51.514.452.561.375.105.052.174.084.308.15.59.185.57.077.529-.035.467-.144 2.914-1.503M964.405 778.781l.396-.465.253-.575.1-.664-.057-.727-.212-.762-.359-.767-.491-.743"/><path d="m955.945 776.209.047-.108.027-.062.112-.255.291-.345.387-.25.391-.122.075-.023.117-.008.412-.028.571.076.59.184.588.286.562.377.516.452.448.511.069.104.084.128.21.318.266.567.157.563.043.538-.024.161-.05.329-.186.426-.293.344-.387.249M1055.58 676.438l.27-.409.01-.004.37-.318.4-.19.05-.021.51-.095.56.023.58.141.58.253.55.356.52.444.44.517.03.044.1.143.24.382.28.599.16.607.06.59-.06.552-.17.492-.01.018-.26.396-.01.003-.36.316-.41.193-.01.004-.03.015-.52.096-.55-.022-.58-.14-.58-.254-.56-.356-.32-.278M1056.21 679.85l-.37-.57-.27-.6-.17-.608-.05-.591.06-.552.16-.481"/><path d="m1056.68 675.496-1.37.459-1.5.505M1059.73 683.281l1.33-2.737M1059.36 683.841l.38-.56M1051.51 692.064l.82-2.087.11-.599-.01-.632-.13-.642-.25-.626-.35-.586-.45-.524-.46-.396-.06-.045-.06-.036-.51-.307-.61-.23-.62-.109-.61.016-2.23.431"/><path d="m1052.33 689.978-.09.211-.14.332-.33.466-.01.004-.11.096-.01.008-.3.263-.51.262-.57.142-.6.017-.62-.109-.61-.23-.58-.343-.52-.442-.45-.525-.23-.38-.06-.103-.06-.104-.25-.627-.13-.642-.01-.633.11-.599.23-.543.33-.46.01-.005.35-.307.01-.009.07-.054.51-.261.43-.107.13-.034M1050.74 693.432l.01-.004.45-.63.31-.734M1041.91 701.797l.27-1.337.02-.664-.1-.667-.23-.646-.34-.599-.44-.53-.53-.439-.59-.333-.48-.163-.13-.043-.02-.007-.65-.086-1.49-.128"/><path d="m1042.18 700.46-.05.2-.11.434-.09.211-.01.022-.17.348-.38.505-.01.005-.47.405-.56.298-.61.176-.64.046-.65-.085-.64-.213-.59-.333-.53-.44-.44-.53-.34-.6-.23-.646-.03-.198-.02-.13-.05-.341.03-.664.15-.634.28-.581.37-.499.01-.006.48-.408.55-.298.62-.175.13-.01.03-.002.41-.029.07-.005M1040.81 704.126v-.004l.52-.683.37-.785.21-.857M1024.93 709.202l.01-.006.51-.432.59-.321.64-.196.3-.028.18-.016.19-.019.68.071.65.203.6.327.53.438.44.533.33.607.21.658.08.684-.05.683-.18.656-.3.605-.42.529-.01.004M1026.18 714.918l-.61-.327-.53-.438-.44-.534-.33-.607M1027.5 715.191l-.67-.071M1024.03 710.985l.18-.657"/><path d="M1029.88 715.583v-.005l.56-.714.42-.816.24-.887.07-.923-.11-.923-.28-.889M1024.06 712.353l-.08-.684.03-.408M1018.22 722.113l.32.61.21.663.07.689-.07.689-.2.664-.32.612-.44.536v.005l-.53.436-.6.328-.66.203-.69.07-.68-.067-.66-.199-.61-.325-.54-.439-.44-.534-.32-.611-.2-.662-.07-.69.06-.689.06-.185.06-.204.08-.275.32-.612.43-.53.01-.006.53-.441.61-.328.3-.095.22-.065.13-.043.69-.069.69.066.66.2.6.325.54.438.44.535ZM1018.3 727.42l.01-.005.59-.725.43-.827.27-.896.09-.931-.09-.931M1005.84 734.543l.33.608.2.659.07.683-.07.683-.2.656-.33.604-.43.528-.01.004-.53.428-.61.319-.66.195-.68.063-.69-.072-.66-.204-.61-.328-.54-.439-.433-.533-.326-.608-.202-.658-.068-.684.06-.616.007-.067.039-.129.161-.527.325-.603.427-.522.01-.006.53-.432.61-.32.41-.121.2-.059.05-.015.69-.063.69.072.66.204.61.327.53.439.44.534ZM1006.48 739.242l.01-.004.59-.713.44-.815.27-.886.09-.923M987.495 749.629l-.034-.105-.022-.07-.151-.471-.053-.457-.017-.143-.007-.067.056-.663.187-.634.311-.579.418-.498.005-.005.519-.408.595-.296.647-.173.468-.031.153-.01.055-.003.678.087.654.215.605.334.533.441.439.531.33.6.207.647.077.668-.056.663-.188.633-.311.58-.424.503-.006.004-.513.403-.595.295-.648.173-.437.029-.059.003-.179.012-.678-.087-.653-.215-.605-.335-.532-.441-.439-.53-.33-.6Zm0 0-.039-.079M990.734 751.836l.07.005M994.801 750.654l.005-.006.573-.679.421-.781M975.693 758.669l.148-.55.007-.026.006-.021.282-.541.389-.458.004-.005.489-.368.566-.258.62-.138.652-.014.658.112.122.044.113.041.404.148.595.345.529.444.441.526.338.587.22.627.095.641-.033.632-.162.598-.283.54-.394.463-.005.004-.346.259-.012.01-.126.094-.566.257-.62.138-.652.013-.657-.112-.638-.233-.595-.345-.528-.443-.441-.526-.334-.581-.003-.006-.044-.125-.177-.501-.095-.64.033-.632Zm0 0 .002-.035M980.445 762.662l.033-.01M965.24 767.905l.24-.488.323-.38.008-.01.013-.015.004-.005.444-.314.522-.207.581-.092.616.026.628.145.617.257.57.352.011.007.084.073.438.375.445.519.349.571.24.6.122.606v.589l-.123.549-.241.489-.007.008-.007.008-.335.393-.005.003-.44.31-.522.207-.581.091-.616-.028-.627-.145-.616-.257-.58-.359-.519-.445-.003-.002-.094-.11-.349-.408-.349-.57-.241-.599-.122-.606-.001-.588.123-.55Zm0 0 .005-.021M970.336 772.273l.007-.002M974.386 768.787l.001-.797-.164-.819M1076.44 655.437l-.32-.334-.46-.469-.47-.467-.47-.447-.45-.408-.41-.356-.35-.289-.28-.21-.2-.125-.12-.034-2.35 1.328-.18.105"/><path d="m971.115 771.567-.338.396-.004.005-.429.302-.016.011-.522.207-.58.091-.616-.028-.628-.145-.616-.257-.58-.359-.518-.444-.003-.003-.093-.109-.351-.409-.349-.57-.24-.599-.123-.605v-.589l.122-.549.014-.03.226-.459.331-.39.009-.01.008-.01.005-.003.439-.311.522-.207.581-.092.616.026M970.777 768.155l.349.571M971.486 769.933l-.001.589-.123.549-.241.489M965.921 765.272l-.691 2.642M970.328 772.281l2.481-1.107M969.227 766.829l.571.353.01.006M981.496 762.042l-.005.005-.339.254-.012.009-.138.104-.523.238-.042.019-.621.138-.651.014-.658-.113-.638-.233-.595-.345-.527-.443-.441-.526-.334-.58-.004-.006-.044-.125-.177-.501-.095-.641.033-.632.012-.044.144-.532.005-.021.002-.004.281-.537.393-.463.005-.004M982.364 759.815l-.034.631-.162.598M977.008 756.71l.566-.258.62-.139.652-.014M975.807 756.727l-.123 1.952M982.227 762.119l.764-.348.661-.496M980.438 762.671l1.789-.552M979.504 756.411l.123.045.113.041M980.738 756.989l.529.444.441.526M993.897 749.845l-.312.579-.419.497-.005.006-.519.407-.595.295-.647.173-.378.025-.059.004-.158.01-.081.005-.677-.087-.654-.215-.604-.335-.532-.441-.44-.53-.329-.6-.029-.089-.028-.086-.022-.07-.129-.401-.052-.456-.017-.143-.008-.068.056-.663.187-.634.311-.579.424-.503.005-.005.514-.403.594-.296M991.949 745.327l.605.334.532.441.44.531.329.601M987.129 748.918l.356.72M991.5 751.9l.913-.059.875-.233.803-.4.702-.549.005-.006M990.723 751.847l.779.054M1000.47 739.797l.82.442.89.275.93.097.93-.084.89-.264.82-.431.73-.584v-.006"/><path d="m1006.42 736.504-.06.683-.2.656-.33.603-.43.522-.01.006-.53.432-.61.32-.66.195-.69.062-.68-.071-.66-.204-.61-.328-.54-.439-.435-.534-.326-.607-.201-.659-.069-.683.061-.616.006-.067.039-.129.161-.527.325-.603.439-.528v-.005l.53-.428.61-.319.41-.121.2-.059.05-.015.69-.063M1006.16 735.161l.2.658M1003.59 733.049l.66.203M1004.86 733.58l.53.439.44.534M1017.79 726.582l-.01.006-.53.441-.61.328-.65.203-.69.07-.69-.067-.66-.199-.6-.325-.54-.439-.44-.534-.32-.611-.21-.662-.07-.69.07-.69.05-.184.07-.204.08-.275.32-.612.44-.536v-.005M1016.62 720.826l.61.325.54.438.44.535.32.61M1018.73 723.396l.07.69M1018.54 725.439l-.32.612M1013.33 721.16l.61-.328.3-.095M1013.13 728.473l.89.27.93.089.92-.094.89-.274.82-.443.72-.595v-.006M1015.28 720.561l.68.066M1026.17 714.928l-.61-.327-.53-.438-.44-.534-.33-.608-.21-.658-.08-.684.03-.409.01-.154.01-.121.18-.656.31-.604.42-.529v-.005l.51-.428.59-.32.64-.196.3-.028.17-.017.2-.018.67.07.66.203.6.327.53.439.44.533.33.607.21.658.08.684-.05.683-.18.656-.31.604-.41.523v.006l-.52.433-.58.321-.65.197-.67.064-.67-.071-.65-.203ZM1025.7 716.863l.91.096.91-.087.86-.265.8-.434.69-.585.01-.006M1042.02 701.106l-.09.189-.01.022-.18.37-.38.499v.005l-.48.41-.55.298-.62.176-.64.046-.65-.085-.64-.213-.59-.333-.53-.44-.44-.53-.34-.6-.22-.646-.03-.199-.02-.129-.06-.34.03-.665.15-.634.28-.581.38-.504.01-.005.47-.404.56-.298M1038.68 696.293l.65.086.02.007.13.043.48.163.6.333.52.439.45.53.34.599.22.646.1.667M1037.71 705.389l.87-.063.83-.237.75-.404.65-.553v-.006M1052.42 688.755l.01.632-.11.6-.22.543-.33.46-.01.006-.11.092v.008l-.32.27-.51.262-.57.142-.6.017-.62-.109-.61-.23-.58-.343-.52-.442-.45-.525-.23-.38-.06-.103-.06-.104-.25-.626-.13-.643-.01-.633.11-.599.23-.543.34-.465v-.004l.37-.311.01-.009.05-.046.51-.261.57-.141.6-.016M1051.69 686.902l.35.586M1049.47 694.293l.69-.354.58-.501v-.005M1050.15 685.594l.52.307.06.036.05.044M1061.05 680.552l-.27.409v.005l-.37.319-.41.189v.004l-.04.019-.52.096-.56-.022-.58-.14-.58-.253-.55-.357-.32-.279-.11-.09-.09-.076-.45-.518-.36-.57-.28-.6-.17-.607-.05-.591.06-.553.17-.49V676.438l.27-.405.01-.004.37-.314.45-.211.51-.095.56.023.58.141.58.253.55.356.52.445.44.516.03.043.09.142.25.384.28.599.16.607.06.59-.06.552-.17.492Zm0 0v.01M1056.67 675.504l-.04.013M1068.34 672.066l-.21.351-.3.255-.38.151-.45.042-.5-.07v-.001l-.45-.148-.09-.031-.08-.044-.46-.237-.54-.372-.5-.449-.45-.51-.39-.549-.31-.568-.21-.565-.03-.186-.05-.238-.02-.116-.01-.495.11-.429.21-.349.3-.255.33-.128.05-.023.45-.04.5.071.54.179.54.282.53.372.51.448.45.508.39.548.3.567.19.508.02.057.04.19.07.349v.494l-.1.431Zm0 0-1.67 3.128"/><path d="m1063.53 667.253-.91.384-2.46 1.052M1063.45 675.942l.72.241.68.094M1067.77 668.054l.69.529.68.423.66.301.08.023.28.078.23.066.52.028.42-.114.3-.249M1073.61 665.599l-.22.184-.31.083-.38-.021-.44-.125-.48-.223-.51-.313-.51-.391-.49-.454-.46-.499-.31-.402-.1-.124-.34-.531-.26-.517-.16-.482-.07-.43.03-.36.13-.276.23-.183.3-.081.22.012.17.01.07.02.37.105.38.18.1.044.5.313.51.39.5.453.12.138.33.36.41.525.34.53.26.516.07.227.09.255.07.43-.03.36-.13.277Zm0 0-.83 1.48-.29.519-.86 1.54M1068.95 660.535l-1.12.547-.63.305-1.86.904M1077.07 660.705l-.14.106-.17.006-.06.003-.31-.09-.37-.183-.12-.074-.05-.028-.26-.169-.47-.347-.48-.412-.17-.159-.05-.043v-.004l-.27-.253-.46-.488-.21-.242-.16-.188-.06-.07-.37-.492-.31-.465-.23-.42-.14-.358-.04-.284.02-.103.03-.095.14-.104.23-.008.31.09.38.184.42.271.47.348.28.244.2.166.48.458.46.487.43.499.38.491.14.22.16.244.23.42.14.359.01.034.04.25-.05.199Zm0 0-.4.709-1.72 3.026M1072.36 655.749l-.23.121-.61.318-.13.068-.04.024-.61.319v.003l-1.19.626"/><path d="m1073.61 664.277.42.201.41.119.32-.012.19-.145M1078.44 657.853l-.06.025-.15-.069-.24-.16-.31-.245-.1-.088-.27-.233-.42-.384-.46-.432-.47-.464-.47-.478-.45-.473-.41-.451-.36-.41-.29-.354-.21-.285-.12-.205-.04-.116.06-.023.15.07.24.161.31.245.37.321.42.383.46.431.47.463.35.356.12.121.45.472.41.449.35.41.29.355.22.285.12.206.04.117Zm0 0-1.36 2.404M1073.61 653.03l-.17.096-1.83 1.011-.62.341-.56.312M1070.57 653.627l-.2-.033-.08.022M1105.94 895.392l-.37.695-.25.443-.15.29.03.05.09.099.13.145.17.184.21.217.24.242.26.257.26.261.26.258.25.242.23.219.2.186.16.147.12.101.06.053.02.002.69-.396"/><path d="m1105.17 896.819.01.001.07.052.12.102.16.146.2.187.22.218.25.243.27.258.26.262.26.257.23.242.21.217.18.184.13.145.09.099.03.05M1105.07 894.9l-.38.664.02.097.07.144.12.186.16.221.2.246.07.071M1107.47 895.57l-.04.075-.07.131-.02.044-.14.275-.44.865v.095l.04.14.1.181.15.214.19.24.22.256.06.06.2.202.26.258.28.245.27.221.02.014.24.176.23.151.2.107.16.057.11.007 1.91-1.14.09-.05"/><path d="m1106.77 896.96.06-.045.11.006.16.058.2.106.23.151.26.19.27.221.15.13.13.115.27.259.25.262.22.256.06.077.13.163.15.215.1.181.04.14v.094l-.06.045M1110.1 894.558l-.17.365v.012l-.36.777-.09.213-.05.139.01.182.07.217.12.244.17.263.21.27.25.267.27.255.29.232.29.2.28.156.01.006.09.039.17.077.24.066.2.014.16-.04 1.93-1.18M1114.19 897.331l.14-.123.07-.188-.01-.246-.09-.294-.17-.331-.23-.355-.29-.365-.33-.363"/><path d="m1109.48 895.924.1-.091.1-.026.05-.013.2.013.24.066.27.116.28.161.3.201.29.232.27.255.25.268.21.27.17.263.12.244.07.217.01.182-.05.139-.1.09M1113.89 891.996l-.75 1.919-.02.221.03.252.1.273.15.284.21.284.24.273.28.251.3.22.31.18.31.134.3.082.27.027.24-.029.19-.083 1.77-1.086M1117.82 895.198l.2-.183.11-.245.03-.3-.04-.341-.14-.37-.2-.384-.28-.384-.33-.37"/><path d="m1113.14 893.915.08-.182.15-.135.19-.084.24-.029.27.026.3.082.02.012.29.122.31.18.3.22.28.252.24.273.21.284.05.094.1.19.1.273.03.253-.02.221-.09.181-.14.136M1118.3 888.918l-.52 1.748-.05.258.01.284.08.3.14.304.19.297.24.277.28.248.32.209.32.161.34.108.32.05.3-.009.27-.068.23-.125 1.57-.94M1122.34 892.02l.23-.238.16-.3.07-.349-.01-.385-.1-.407-.19-.411-.26-.402-.33-.375"/><path d="m1117.79 890.666.11-.222.18-.177.22-.125.08-.018.19-.051.31-.009.32.05.33.108.33.162.31.208.29.248.24.278.19.297.14.304.08.301.01.252v.032l-.06.258-.11.222-.18.176M1174.69 839.332l.52-.888.08-.284.02-.315-.04-.335-.1-.341-.15-.335-.21-.315-.24-.284-.28-.241-.3-.19-.31-.131-.31-.067h-.3l-.27.066-1.65.414M1173.77 839.005l-.31-.131-.31-.19-.27-.242-.25-.284-.21-.315-.15-.335"/><path d="m1175.21 838.444-.14.241v.002l-.19.188-.24.13-.09.024h-.01l-.17.043M1172.13 836.831l.02-.315.08-.284.09-.143v-.005l.05-.093.19-.189.23-.123.01-.007"/><path d="m1174.21 840.161.48-.828.37-.647M1170 845.369l.59-1.125.11-.308.05-.337-.01-.355-.08-.357-.14-.347-.19-.323-.24-.287-.29-.24-.31-.183-.33-.12-.33-.051-.32.018-1.31.108"/><path d="m1170.59 844.244-.01.012-.17.254-.22.209v.005l-.27.155-.3.088-.32.019-.34-.052-.32-.119-.31-.183-.29-.24M1167.6 843.781l-.13-.346-.08-.359-.01-.354.05-.338.11-.308.18-.266.22-.214.14-.08.01-.006.12-.067.28-.081.02-.008M1169.77 845.731v-.002l.23-.36M1165.02 850.988l.29-.722.07-.353.01-.368-.06-.369-.13-.356-.18-.328-.24-.289-.29-.239-.32-.178-.34-.112-.8-.19M1163.4 851.372l-.35-.112M1164.71 851.106l-.29.171-.33.103-.34.032"/><path d="m1162.26 848.17.25-.232.3-.17.33-.103.33-.031.01-.001h.01l.28.034.06.007M1161.83 849.499l.01-.368.08-.353.14-.325M1165.31 850.267l-.03.062-.11.263-.08.109-.01.008-.12.166M1164.56 851.813v-.003l.27-.383.19-.439M1162.02 850.224l-.13-.356M1162.74 851.082l-.29-.239-.24-.289M1155.8 855.494l.16-.333.22-.293.27-.24.32-.179.34-.112.37-.038.36.035.35.108.33.176.29.238.24.29.18.332.11.36.05.375-.02.376-.1.361-.16.333-.22.293-.28.241-.31.179"/><path d="M1158.76 858.216v-.002l.3-.396.22-.451.13-.488.03-.508-.06-.507-.16-.487-.25-.448-.32-.392M1157.23 858.111l-.35-.108-.33-.176-.29-.238-.24-.29-.18-.332-.11-.36M1157.95 858.107l-.36.039M1155.68 856.231l.02-.375M1149.12 863.057l.04-.376.1-.362.18-.334.23-.293.29-.241.33-.18.36-.111.37-.039.37.034.36.108.33.176.29.238.23.291.18.332.11.361.04.375-.03.376-.11.362-.17.334-.24.293-.28.242-.33.18-.36.111-.37.039"/><path d="M1152.54 864.737v-.003l.32-.396.24-.452.14-.489.04-.508-.05-.508-.15-.488-.24-.449M1150.31 864.831l-.33-.177-.29-.238-.24-.29-.18-.332M1142.94 868.421l.29-.233.33-.172.37-.105.37-.032.37.04.36.111.34.179.29.238.24.29.17.33.11.357.04.37-.04.37-.11.355-.18.326-.24.285M1146.11 871.166v-.003l.33-.386.24-.441.15-.479.05-.5-.05-.501-.15-.483-.24-.445M1143.56 871.521l-.33-.178-.3-.239-.23-.29-.18-.329M1145.03 871.536l-.36.104-.38.033M1142.38 869.757l.03-.37.11-.354M1135.97 875.107l.23-.268.29-.217.33-.156.36-.091.37-.02.37.051.36.118.33.184.29.24.24.289.17.324.11.349.04.361-.03.357-.11.339-.17.312-.24.268-.29.216M1137.57 878.03l.37-.02M1139.67 877.293v-.002l.32-.364.24-.419.14-.46.05-.483-.05-.486-.15-.472M1135.65 876.115l.04-.357M1136.51 877.678l-.29-.24-.24-.288-.09-.173M1129.29 881.271l.16-.287.23-.245.27-.193.32-.133.34-.069.37-.002.36.066.35.13.33.19.29.242.24.285.18.318.11.337.05.345-.03.338-.09.319-.16.287-.2.21v.005l-.03.029-.27.193-.32.133-.34.069-.37.001-.36-.065-.35-.131-.33-.189-.29-.243-.24-.285-.18-.317-.11-.337-.05-.345M1133.43 882.927l.01-.002.3-.331.22-.388.13-.431.03-.457-.06-.466-.16-.456-.24-.429"/><path d="m1129.17 881.928.03-.338.02-.061v-.011M1123.32 887.656l-.12-.322-.06-.324.01-.314.08-.291.14-.257.06-.061v-.005l.14-.147.26-.162.29-.104.33-.042.35.022.35.085.34.145.32.198.29.245.24.282.18.308.13.323.06.324-.01.313-.08.291-.07.118v.004l-.07.136-.21.213-.25.162-.3.103-.33.041-.34-.022-.35-.085-.34-.144M1127.6 887.887v-.002l.27-.289.2-.348.1-.393.02-.424-.08-.439-.17-.436-.25-.416-.33-.382M1182.63 822.978l.01-.014-.03-.06-.07-.108-.13-.152-.17-.191-.2-.221-.23-.244-.26-.257-.26-.261-.27-.253-.25-.237-.23-.211-.21-.178-.17-.137-.12-.091-.08-.041-.03.009-.96.552-.02.008"/><path d="m1123.37 885.271-.22 1.43-.01.313.05.325.13.321.19.309.24.281.28.245.32.198.34.144.35.085.35.023.33-.041.29-.104 1.24-.693M1127.25 888.108l.34-.218v-.002"/><path d="m1123.14 886.701.02-.04.06-.251.15-.258.06-.066v-.005l.14-.142M1126.27 888.639l-.24.15-.01.012M1125.14 885.738l.35.145.32.198.28.245.24.282M1129.09 880.88l.08 1.052.04.344.12.338.18.317.24.285.29.242.32.19.35.13.37.066.36-.002.34-.068.32-.133.96-.451M1130.61 880.35l.36-.002.36.065.36.131.32.19.29.242.24.285.18.318.12.337.04.345-.02.338"/><path d="M1129.17 881.932v-.04l.02-.298.02-.072.01-.011.07-.235.16-.288.22-.244M1133.06 883.191l.37-.261v-.002M1132.38 883.448l-.27.186-.01.007M1135.71 876.76l.27.395.23.288.29.24.33.183.36.119.37.051.38-.02.42-.093M1136.82 874.471l.35-.09.37-.021.38.051.35.119.33.183.29.24.24.288.18.325.11.349.04.36-.04.357-.1.341"/><path d="m1135.97 877.154-.03-.072-.08-.137-.02-.037-.04-.079-.11-.349-.04-.36.03-.356.11-.341.17-.31.24-.269.29-.217M1138.36 877.922l.48-.122.44-.211.39-.293v-.003M1139.14 877.283l-.23.269-.29.216-.32.152-.01.005v.001l-.23.056-.13.033M1142.44 871.133l.39.323.45.241.48.151.51.054.51-.045.48-.141.45-.232.4-.315v-.003"/><path d="m1145.65 871.137-.3.233-.33.172-.36.105-.37.033-.38-.04-.36-.112-.33-.178-.29-.239-.24-.29-.17-.33-.11-.357-.04-.37.04-.37.11-.355.18-.326.24-.285M1146.07 869.073l.1.357.04.37-.04.37-.11.355M1143.56 868.023l.36-.105.37-.033.38.04.36.112M1148.9 864.76l.39.322.45.238.48.146.5.047.51-.053.48-.151.44-.243.39-.326v-.003"/><path d="m1152.89 863.418-.1.362-.18.334-.23.293-.29.242-.33.179-.36.112-.37.039-.37-.035-.36-.107-.33-.177-.29-.238-.24-.29-.17-.332-.11-.361-.04-.376.03-.376.11-.362.17-.334.24-.293.28-.241.33-.18.36-.112M1151.74 861.27l.33.176M1155.59 858.56l.44.238.48.146.49.047.49-.052.47-.15.42-.243.37-.325v-.004M1159.27 856.956l-.17.333-.22.293-.27.241-.32.179-.34.111-.36.039-.37-.035-.35-.108-.32-.176-.29-.238-.24-.29-.18-.332-.12-.361-.05-.375.03-.375.09-.362.16-.333.22-.293.28-.24.31-.179M1157.47 854.306l.37.035.35.108.32.176.29.238.24.29.18.332.12.36.05.375M1161.54 852.096l.43.241.47.151.47.056.47-.044.44-.14.4-.23.34-.314v-.003M1165.08 850.706l-.12.174-.25.232-.3.17-.32.104-.35.032-.35-.041-.34-.112-.32-.179-.29-.238-.24-.289-.19-.329-.12-.356-.06-.369.01-.368.07-.354.14-.324.21-.283.25-.232M1165.3 850.273l.08-.353.01-.368-.06-.369-.13-.356-.19-.329-.24-.289-.28-.238-.32-.179-.35-.111M1162.8 847.775l.33-.104.34-.031M1170.58 844.25l-.17.266-.21.205-.01.005v.005l-.27.154-.3.088-.33.019-.33-.051-.33-.12-.31-.183-.28-.24-.24-.287-.2-.323-.14-.348-.08-.357-.01-.355.05-.337.12-.308.17-.266.23-.214.15-.086v-.004l.12-.064.3-.088.32-.019.33.052.33.119.31.183.28.24.25.287.19.323.14.347.08.358.01.354-.05.337-.12.308ZM1167.36 846.147l.45.161.44.07.44-.026.41-.119.36-.209.31-.29v-.003M1171.62 840.165l.41.256.42.177.42.09h.4l.37-.09.32-.177.25-.256M1175.06 838.69l-.19.189-.23.131-.1.023-.18.043h-.29l-.31-.066-.31-.131-.3-.19-.28-.242-.25-.284-.2-.316-.16-.335-.09-.341-.05-.335.03-.315.08-.284.08-.148.01-.005.05-.088M1175.3 837.849l-.04-.334-.09-.341-.16-.335M1174.21 840.165v-.003M1173.98 835.809l-.31-.131-.31-.067-.29-.001M1174.56 836.24l-.28-.242M1175.07 834.742l.38.33.39.268.39.196.39.117.35.032.32-.053.27-.136.21-.214M1178.78 833.585l-.15.158-.2.1-.24.039-.26-.024-.09-.025-.2-.061-.29-.145-.29-.199-.27-.244-.25-.28-.22-.306-.17-.319-.12-.321-.07-.31-.01-.106v-.181l.04-.253.1-.209.15-.158.2-.101.24-.038.26.024.28.087.3.145.28.198.28.244.25.28.21.305.18.319.12.321.07.31.01.287-.04.253-.1.21Zm0 0-1.02 1.698M1176.44 830.64l-1.83.661M1177.93 830.442l.36.334.38.282.36.219.35.147.31.071.27-.01.21-.088.15-.165M1181.45 829.352l-.11.122-.16.065-.19.006-.24-.052-.25-.109-.27-.162-.28-.209-.27-.246-.25-.276-.23-.295-.19-.301-.15-.296-.1-.281-.05-.254v-.217l.06-.173.11-.121.15-.065.17-.005.03-.001.23.053.26.109.27.162.27.208.27.247.26.275.22.294.2.301.03.062.12.234.1.281.05.254-.01.217-.05.173Zm0 0-1.13 1.88M1178.88 826.554l-2.04.894M1182.99 826.12l-.06.08-.12.026-.15-.029-.2-.084-.22-.135-.18-.125-.07-.056-.27-.219-.26-.25-.06-.066-.2-.205-.24-.282-.01-.015-.2-.266-.18-.269-.13-.248-.01-.017-.04-.094-.03-.073-.01-.033-.04-.178.01-.131.04-.047.03-.033.11-.026.14.027.02.003.19.084.23.135.25.181.26.219.26.25.06.061.2.209.24.281.21.281.1.156.08.114.13.248.09.217.04.178-.01.131Zm0 0-.57.968-.62 1.049M1180.39 823.37l-.04.018-.26.129-.07.035-.25.125-.22.108-.4.198"/><path d="m1181.23 828.194.12.048.21.039.15-.035.09-.109M1183.36 824.011l-.07-.016-.11-.069-.16-.117-.2-.162-.23-.201-.14-.136-.1-.095-.26-.254-.26-.266-.26-.267-.23-.26-.21-.241-.17-.213-.13-.178-.08-.135-.03-.087.02-.036.07.017.11.068.16.118.2.162.22.201.25.231.26.253.26.265.25.268.1.108.01.009.13.142.2.241.17.213.13.178.09.135.03.087-.02.037Zm0 0-.7 1.22"/><path d="M1180.74 821.278v.001l-.81.433-.39.216-.43.227M618.941 441.757l-.533.931-.002.015.072.087.142.157.207.221.264.276.31.32.346.353.367.372.374.375.367.366.347.342.312.305.267.256.209.198.145.131.076.06.515-.282.14-.076"/><path d="m618.406 442.688.074.06.145.13.21.198.266.256.312.305.348.343.368.366.375.377.367.372.346.353.311.322.264.276.206.22.142.156.071.087-.002.013M622.727 446.24l.275.218.049.036M620.036 437.727l-.971 1.64-.721 1.218.006.152.079.219.15.279.214.326.146.197.124.166.315.385.35.392.37.384.025.024.082.079.268.258.368.325.345.277.31.216.262.149.16.059.044.017.03-.001h.109"/><path d="m618.344 440.584.068-.078.138-.002.204.075.262.148.31.217.053.043.293.233.368.326.376.362.165.172.063.064.143.149.35.393.316.385.27.363.213.327.149.278.079.219.005.151-.068.078M621.653 434.058l-1.684 2.802-.059.214.016.278.092.334.018.041.143.328.003.007.229.403.286.416.332.411.365.392.384.357.151.12.238.189.378.249.353.179.101.033.213.069.264.022.202-.06.339-.158.022-.01"/><path d="m619.969 436.859.134-.14.202-.06.264.021.314.102.353.179.379.249.389.309.384.358.366.392.333.413.286.416.229.403.164.376.091.334.015.258.001.021-.06.212-.135.139M624.798 429.042l-1.545 2.58-.123.271-.044.334.036.385.115.42.19.441.258.444.315.429.36.4.392.353.409.294.41.223.394.144.365.06.321-.028"/><path d="m623.254 431.622.198-.196.264-.114.321-.029.365.059.395.144.294.16.116.063.409.295.393.353.361.4.315.431.258.444.123.286.067.155.115.421.035.385-.044.334-.124.27-.199.195-.264.114M629.445 422.728l-1.333 2.294-.182.32-.101.383-.017.43.071.46.153.474.232.469.299.446.356.405.399.35.428.281.439.201.433.113.412.022.374-.072"/><path d="m628.109 425.021.257-.246.322-.162.374-.072.018.001.394.02.434.113.44.201.428.281.4.35.357.406.299.447.231.469.153.474.07.461-.016.43-.059.219-.043.163-.183.32-.258.246-.322.161M710.532 350.15l.09-.392-.006-.428-.1-.447-.192-.449-.275-.433-.348-.401-.407-.355-.452-.293-.478-.221-.487-.14-.477-.054-.448.033-.402.121-2.042 1.131"/><path d="m710.533 350.15-.011.021-.17.321-.266.278-.004.002-.19.115-.007.004-.139.083-.402.121-.448.035-.477-.054-.487-.14-.479-.221-.453-.294-.408-.354-.348-.402-.275-.434-.192-.45-.1-.447-.005-.428.064-.278.001-.006.025-.108.182-.342.264-.275.003-.003.302-.18.038-.023M702.499 356.403l.023-.466-.078-.48-.175-.473-.265-.449-.345-.407-.413-.351-.464-.28-.497-.199-.512-.11-.506-.017-.482.077-.439.168-1.666.813"/><path d="m702.5 356.403-.012.041-.111.396-.141.253-.006.012-.069.124-.304.327-.004.003-.374.25-.438.168-.482.078-.507-.017-.512-.109-.498-.199-.465-.28-.413-.351-.346-.409-.265-.449-.175-.474-.077-.479.024-.467.122-.437.218-.389.054-.058.006-.006.24-.259.004-.004.363-.242.015-.01M693.502 363.211l-.163-.493-.258-.462-.344-.412-.416-.348-.473-.27-.511-.18-.529-.085-.528.013-.506.112-1.09.373"/><path d="m693.502 363.211.016.127.045.378-.009.106-.002.025-.032.368-.145.472-.243.428-.33.368-.004.003-.401.289-.464.207-.507.112-.528.014-.53-.085-.511-.18-.473-.27-.417-.348-.344-.413-.258-.462-.163-.493-.061-.506.043-.499.146-.472.243-.428.327-.363.004-.005.337-.243.011-.008.057-.041.42-.186.045-.02M683.564 370.92l.255.471.156.508.052.524-.054.522-.159.499-.256.457-.345.397-.005.004-.415.318-.479.235-.52.138-.54.036-.54-.067-.519-.167-.478-.261-.418-.346-.344-.416-.255-.472-.156-.508-.052-.525.055-.522.158-.499.257-.456.342-.393.004-.004.42-.322.479-.234.519-.138.54-.036.54.066.519.168.477.261.419.346.343.416ZM673.761 380.248l.254.477.156.516.051.536-.056.536-.161.515-.258.474-.348.415-.004.004-.418.335-.481.252-.522.154-.542.049-.542-.055-.52-.159-.479-.257-.419-.344-.343-.419-.255-.476-.155-.517-.051-.537.056-.536.16-.514.259-.474.344-.41.004-.005.422-.339.481-.252.522-.153.542-.05.542.056.52.159.479.256.419.345.343.418ZM664.003 389.931l.257.478.161.519.057.54-.047.54-.152.52-.249.479-.336.42-.005.004-.407.341-.472.256-.512.158-.534.054-.535-.052-.515-.157-.476-.255-.418-.343-.344-.419-.258-.478-.16-.519-.058-.54.048-.54.151-.52.249-.479.333-.415.004-.005.412-.345.471-.256.513-.159.533-.054.535.053.516.156.475.255.419.344.344.419ZM649.831 400.603l.068-.267.009-.037.054-.209.227-.472.31-.408.004-.005.389-.338.449-.249.492-.152.516-.049.52.057.505.16.469.257.415.344.347.418.263.475.171.516.072.535-.03.534-.132.513-.227.472-.314.412-.004.004-.385.334-.45.249-.492.152-.515.048-.52-.056-.504-.16-.09-.049-.052-.029-.327-.179-.416-.344-.346-.418-.263-.475-.172-.515-.071-.535.03-.534Zm0 0 .008-.054M651.07 403.424l.157.099M641.674 408.942l.26-.365.008-.011.009-.013.003-.004.355-.318.416-.231.461-.136.489-.033.498.068.488.169.458.262.412.345.349.416.273.469.187.506.093.522-.005.519-.101.495-.195.452-.28.393-.004.004-.351.314-.416.231-.28.082-.017.004-.164.048-.489.034-.497-.069-.487-.169-.458-.262-.412-.345-.349-.415-.273-.469-.186-.505-.094-.522.004-.518.101-.495.194-.453Zm0 0 .003-.005M644.129 413.164l.07.002M634.175 417.608l.233-.358.002-.004.31-.287.147-.08.005-.003.221-.119.422-.108.454-.01.469.087.465.183.445.27.406.347.353.412.285.459.207.49.12.502.03.494-.062.467-.153.422-.236.362-.003.003-.152.141-.008.007-.147.136-.373.201-.422.107-.453.01-.469-.088-.465-.182-.444-.27-.406-.348-.352-.411-.285-.459-.207-.489-.121-.501-.03-.494.062-.467.152-.422Zm0 0 .006-.012M637.195 421.728l.082-.015M731.394 339.47l.037-.065-.049-.107-.12-.176-.187-.238-.246-.291-.295-.332-.334-.362-.36-.376-.371-.377-.368-.363-.352-.335-.321-.293-.279-.242-.225-.18-.022-.015"/><path d="m638.297 421.136-.003.004-.148.137-.007.007-.155.143-.373.201-.334.085-.088.022-.453.01-.469-.088-.465-.182-.444-.27-.406-.347-.352-.411-.285-.459-.207-.49-.121-.501-.03-.494.062-.467.152-.422.012-.019.223-.343.004-.003.306-.284M638.102 417.944l.285.46.207.49M638.683 420.356l-.152.423M635.144 415.789l-.972 1.825M635.965 416.646l.469.087.465.183.445.27M643.138 412.934l-.458-.262-.411-.345-.349-.415-.273-.469-.186-.505-.094-.522.004-.518.101-.495.194-.453.01-.013.258-.363.007-.011.005-.006.004-.004.351-.314.416-.232.461-.135.489-.033.498.068.487.169.459.262.412.345.349.416.273.469.186.506.093.522-.004.518-.101.496-.195.452-.277.389-.003.004-.355.318-.416.23-.264.078-.016.004-.181.053-.412.028-.077.006-.498-.069-.487-.169ZM642.288 407.522l-.62 1.428M654.404 403.114l-.004.005-.389.337-.449.25-.492.151-.516.049-.52-.057-.504-.16-.037-.02-.052-.029-.215-.117-.165-.091-.415-.344-.347-.417-.263-.476-.171-.515-.072-.535.03-.534.016-.062.062-.241.009-.037.044-.173.227-.472.314-.412.004-.004M654.863 400.138l.17.515M655.074 401.722l-.132.513-.227.472M650.883 398.877l.449-.25.492-.152M649.921 399.954l-.097.657M652.344 398.426l.52.057.505.16M664.47 391.477l-.048.54-.151.519-.249.479-.333.416-.004.004-.412.345-.471.257-.512.158-.534.054-.535-.052-.515-.157-.476-.255-.418-.344-.345-.419-.257-.478-.16-.519-.058-.54.048-.54.151-.519.249-.479.337-.42.004-.004.408-.341.471-.257.512-.158.534-.054M662.242 388.766l.515.157.476.255.418.344.345.419.257.478.161.519M670.363 384.304l-.479-.257-.419-.344-.344-.418-.254-.476-.156-.518-.051-.536.056-.536.161-.515.259-.474.347-.414.005-.004.418-.335.481-.252.522-.153.542-.051.541.056.52.159.479.257.419.344.343.418.255.477.155.516.051.537-.056.537-.16.514-.259.473-.343.411-.004.004-.423.34-.481.251-.522.154-.542.051-.541-.056-.52-.16ZM684.019 372.431l-.055.522-.158.499-.257.457-.341.393-.004.004-.42.322-.479.234-.519.139-.54.036-.54-.067-.519-.167-.478-.261-.419-.346-.343-.416-.255-.472-.156-.508-.052-.525.054-.522.159-.499.257-.456.345-.397.005-.004.415-.318.479-.234.52-.138M682.316 369.905l.478.261.418.346.343.416M693.555 363.725l-.007.079-.002.026-.034.393-.145.473-.243.428-.326.363-.004.004-.405.293-.465.206-.506.113-.528.014-.53-.085-.511-.181-.473-.269-.417-.348-.344-.413-.259-.462-.162-.494-.061-.506.043-.498.146-.473.243-.428.331-.367.004-.003.344-.248.011-.008.046-.033.464-.206.506-.112.528-.014M691.328 361.054l.511.181.473.269.416.348.344.412.258.462.163.493M701.852 357.559l-.003.004-.379.253-.438.168-.482.077-.507-.016-.512-.11-.498-.199-.464-.28-.413-.351-.346-.408-.266-.45-.174-.473-.077-.48.023-.467.123-.436.217-.39.06-.064.006-.006.238-.257.004-.002M702.437 355.464l.077.479-.023.467-.122.436-.135.242-.006.012-.076.136M698.34 353.423l.438-.167.482-.077.507.017.511.11M701.238 353.784l.413.35.346.408M707.445 350.72l-.452-.293-.409-.355-.348-.402-.275-.434-.191-.449-.1-.448-.006-.428.066-.284.001-.006.024-.102.181-.342.267-.277.004-.003.337-.2.402-.121.448-.034.476.054.487.141.478.221.452.293.408.354.348.401.274.434.192.448.1.447.006.428-.09.393-.181.341-.263.275-.003.003-.187.113-.007.004-.146.087-.402.122-.448.034-.477-.054-.487-.14-.479-.221ZM717.583 344.828l-.136.287-.219.222-.293.147-.356.068-.337-.012-.069-.003-.44-.096-.456-.175-.455-.247-.438-.308-.402-.359-.351-.395-.288-.416-.212-.422-.093-.294-.036-.116-.041-.383.05-.342.137-.287.22-.221.293-.147.357-.067.406.015.439.098.455.175.455.246.437.308.401.358.351.395.287.415.213.421.129.41.041.383-.049.342ZM713.37 341.476l-2.475 1.44M723.245 341.241l-.165.16-.239.087-.303.009-.357-.069-.396-.143-.42-.213-.428-.274-.42-.325-.395-.363-.355-.388-.302-.396-.237-.391-.162-.37-.082-.334.002-.287.085-.227.165-.159.239-.086.304-.008.357.069.396.144.148.075.271.137.428.274.419.325.394.362.355.387.302.396.236.39.163.37.082.334v.124l-.001.163-.084.227ZM719.236 337.559l-2.724 1.608M727.567 338.982l-.104.095-.179.022-.245-.052-.302-.125-.298-.165-.05-.027-.137-.091-.014-.009-.23-.153-.398-.303-.401-.342-.387-.368-.209-.22-.151-.159-.181-.215-.136-.162-.264-.358-.122-.201-.077-.126-.128-.284-.05-.228.028-.165.105-.094.176-.021.003-.001.246.054.302.125.348.193.003.001.377.251.398.303.039.033.361.309.032.03.355.337.358.378.318.376.263.358.089.146.11.181.128.283.052.229-.028.165Zm0 0-.09.18-.209.414-.033.065M723.637 335.252l-2.907 1.703M730.312 338.383l-.042.03-.114-.044-.184-.114-.245-.182-.297-.242-.339-.293-.366-.333-.381-.359-.379-.373-.364-.371-.302-.321-.032-.034-.292-.326-.239-.284-.176-.231-.106-.169-.032-.102.042-.029.115.044.184.115.245.183.298.242.338.293.258.234.108.098.38.359.378.371.363.371.334.354.292.326.239.284.176.231.106.17.034.102Zm0 0-.063.116-.138.253M726.465 334.606l-1.746.997M629.925 461.538l-.57.996-.003.012.075.09.151.166.222.235.284.296.334.344.373.379.396.401.405.406.398.397.375.371.339.332.29.28.229.217.159.146.084.069.593-.326.667-.366.672-.369"/><path d="m629.352 462.534.083.069.159.145.228.217.29.28.339.332.377.372.399.397.405.407.397.402.373.38.335.344.283.296.222.234.151.166.074.089-.004.011M634.059 466.35l.212.168.336.239.281.172.217.097.143.019.805-.457M631.186 457.234l-.312.53-.359.608-1.171 1.987.004.16.084.234.16.298.229.35.103.137.188.253.341.415.377.423.294.305.02.02.086.09.407.392.399.353.375.301.336.237.286.164.223.086.152.003.958-.495 1.004-.519.041-.022"/><path d="m629.344 460.359.075-.081.152.002.223.085.286.164.3.211.037.026.375.301.399.354.408.393.085.087.316.329.378.424.341.415.291.39.229.351.16.297.082.233.004.16-.076.08M632.978 453.381l-1.546 2.592-.271.454-.067.227.015.299.077.281.021.077.051.118.041.094.084.192.247.434.309.448.359.445.395.424.229.213.187.174.421.335.41.272.384.196.342.114.097.009.19.018.04-.011.182-.05.403-.191.957-.452"/><path d="m631.16 456.428.146-.147.222-.062.287.026.342.114.384.196.216.142.195.129.422.336.417.388.396.425.359.445.309.449.247.435.176.404.089.329.008.029.012.248.002.05-.067.226-.148.147M636.432 448.037l-1.664 2.81-.136.29-.049.355-.001.003.038.414.108.4.015.054.205.475.278.479.34.464.136.15.255.282.413.373.011.01.444.32.444.243.429.159.397.067.349-.027 2.957-1.223"/><path d="m634.77 450.847.216-.209.288-.121.349-.027.397.066.429.158.318.174.128.07.444.32.426.383.39.433.195.266.147.199.217.375.061.105.114.267.09.209.123.454.037.414-.051.358-.136.288-.217.209-.289.12M641.246 441.737l-1.362 2.383-.112.411-.018.463.074.497.166.512.249.506.323.483.28.318.106.121.319.28.114.099.464.305.476.22.471.124.448.026.407-.075.562-.183 1.578-.513"/><path d="m639.883 444.121.199-.345.281-.264.35-.172.407-.076.448.025.472.124.477.22.464.305.434.38.386.44.324.483.25.507.164.512.075.498-.02.463-.057.211-.055.2-.2.344-.281.263-.351.172M728.683 365.166l.717-2.53.094-.426-.008-.465-.111-.486-.048-.111-.161-.376-.077-.121-.222-.349-.377-.435-.441-.384-.489-.317-.517-.239-.526-.151-.514-.057-.483.038-.433.133-2.232 1.213"/><path d="m729.4 362.636-.013.024-.181.349-.285.303-.004.002-.232.142-.008.004-.122.075-.433.133-.483.039-.514-.057-.527-.15-.517-.239-.49-.317-.443-.384-.377-.436-.3-.471-.207-.488-.111-.486-.008-.465.072-.322.002-.007.022-.098.194-.372.283-.3.003-.003.336-.204.03-.018M720.552 371.125l.206-1.668.023-.507-.086-.52-.19-.514-.288-.487-.375-.442-.447-.38-.502-.303-.538-.215-.553-.118-.548-.017-.52.085-.473.183-1.827.867"/><path d="m720.754 369.458-.014.049-.117.426-.172.314-.007.013-.054.097-.326.356-.005.003-.403.273-.473.184-.52.085-.548-.016-.554-.118-.539-.215-.502-.304-.448-.38-.375-.442-.288-.488-.191-.514-.085-.521.024-.508.131-.474.234-.424.086-.094.006-.007.231-.251.004-.004.392-.264.016-.011M711.266 378.069l-.213-1.194-.178-.535-.28-.501-.373-.448-.451-.376-.512-.292-.554-.196-.573-.091-.571.016-.547.122-.608.195-.004.002-.593.19"/><path d="m711.05 376.874.022.182.045.367-.014.162-.002.028-.029.351-.157.514-.261.465-.356.4-.005.003-.433.315-.502.225-.547.123-.572.017-.573-.092-.554-.195-.513-.292-.451-.377-.374-.448-.28-.501-.178-.536-.066-.549.045-.542.14-.458.001-.002.016-.053.262-.466.353-.395.004-.004.258-.188.005-.004.154-.111.012-.009.009-.006.461-.207.041-.018M700.307 385.261l.277.511.17.551.057.569-.058.567-.171.542-.278.496-.373.431-.005.004-.449.346-.519.255-.562.151-.585.04-.585-.072-.562-.181-.519-.283-.454-.375-.372-.452-.276-.511-.17-.551-.057-.57.058-.567.171-.542.269-.48.005-.008.004-.008.369-.426.004-.005.455-.349.519-.255.562-.151.585-.04.374.047.211.026.562.181.517.283.454.374.372.452ZM689.701 395.393l.276.517.169.56.055.582-.06.582-.174.558-.28.514-.377.45-.005.005-.452.364-.522.273-.566.167-.587.054-.587-.06-.564-.172-.52-.279-.454-.373-.373-.454-.276-.517-.169-.56-.055-.582.061-.582.174-.558.28-.514.372-.445.004-.005.458-.369.522-.273.565-.167.588-.054.587.06.564.173.519.278.455.373.372.454ZM679.118 405.897l.279.519.174.562.062.586-.052.585-.164.563-.27.52-.366.455-.005.004-.442.369-.511.278-.556.171-.579.059-.58-.057-.559-.17-.516-.277-.454-.373-.373-.454-.279-.518-.174-.563-.062-.585.052-.586.164-.563.27-.519.361-.45.004-.005.448-.374.511-.278.556-.171.579-.059.58.057.559.17.516.277.454.373.373.454ZM663.732 417.449l.046-.179.01-.039.087-.337.246-.511.053-.068.008-.011.277-.362.004-.005.422-.366.488-.269.535-.165.56-.052.564.063.548.173.508.279.451.373.376.454.286.515.185.559.077.579-.034.579-.143.555-.247.511-.342.446-.004.004-.418.361-.488.27-.535.164-.56.051-.564-.062-.547-.174-.068-.037-.057-.032-.383-.21-.451-.373-.375-.452-.286-.516-.185-.558-.077-.579.018-.32v-.007l.015-.252Zm0 0 .005-.044M665.074 420.506l.234.143M654.65 426.95l.212-.489.245-.342.009-.012.047-.066.003-.005.386-.343.452-.249.502-.145.531-.036.54.076.53.183.497.285.447.375.378.45.296.509.201.547.1.565-.005.561-.111.536-.212.489-.305.424-.005.004-.381.339-.453.248-.272.079-.017.005-.212.061-.531.035-.54-.076-.529-.183-.497-.285-.446-.374-.378-.45-.295-.508-.202-.547-.1-.565.005-.56.11-.536Zm0 0 .094-.227M657.523 431.033l.091.002M646.7 435.804l.253-.386.003-.004.338-.309.131-.07.006-.003.269-.143.458-.116.494-.009.509.096.505.199.483.294.44.377.382.446.309.497.224.53.129.543.031.533-.069.505-.167.455-.257.39-.004.003-.14.128-.008.007-.186.17-.406.216-.459.114-.493.009-.508-.097-.505-.199-.482-.293-.44-.376-.382-.446-.308-.497-.224-.529-.129-.542-.032-.533.069-.504.166-.456Zm0 0 .005-.011"/><path d="m649.969 440.266.066-.013.051-.01M750.818 351.985l.727-1.275-.049-.114-.127-.188-.198-.255-.262-.313-.317-.358-.359-.39-.388-.406-.401-.408-.399-.392-.382-.363-.349-.319-.304-.263-.061-.048"/><path d="m651.165 439.631-.003.004-.135.124-.008.008-.195.177-.406.216-.335.083-.056.014-.067.017-.493.009-.509-.097-.505-.199-.482-.293-.44-.377-.381-.445-.309-.497-.223-.529-.13-.542-.031-.533.068-.504.166-.456.012-.019.245-.371.003-.004M651.496 437.21l.13.542.03.534M647.285 435.112l.137-.073.006-.003M648.152 434.78l.493-.009.509.096M647.729 433.812l-1.038 2M649.961 440.275l.061-.012.844-.167M659.388 430.266l-.003.005-.386.342-.452.249-.255.073-.017.005-.23.066-.432.029-.099.007-.54-.076-.528-.184-.497-.284-.446-.375-.379-.449-.295-.509-.202-.546-.1-.565.005-.561.111-.535.101-.236.11-.254.254-.353.008-.012.043-.059.004-.004.381-.339M659.719 427.148l.202.547M660.013 428.822l-.111.535M655.225 425.56l-.58 1.399M657.031 425.271l.541.075M657.516 431.042l1.589.035M658.598 425.815l.447.374.378.45M667.572 415.331l.509.279.451.373.375.454.286.515.185.559.077.579-.033.579-.143.555-.248.511-.337.441-.004.005-.423.365-.488.27-.534.164-.56.051-.565-.062-.546-.174-.011-.006-.057-.031-.198-.108-.243-.134-.45-.373-.376-.452-.286-.516-.185-.558-.077-.579.018-.313v-.007l.015-.259.014-.053.043-.166.01-.039.076-.297.247-.511.061-.079.008-.011.272-.356.005-.004.418-.362.488-.269M665.066 420.516l.557.338M663.813 416.724l-.086.735M665.902 415.147l.56-.052.565.063M679.41 408.722l-.27.519-.362.45-.004.005-.447.374-.511.277-.556.172-.579.058-.58-.057-.559-.17-.516-.277-.454-.372-.373-.455-.279-.518-.174-.563-.062-.585.052-.586.164-.563.27-.519.365-.455.005-.004.442-.37.512-.278.556-.171.579-.058M679.626 407.573l-.052.586M678.281 405.079l.454.373.373.454M690.132 397.642l-.173.558-.281.515-.372.445-.004.005-.458.368-.521.273-.566.167-.587.054-.588-.06-.564-.172-.519-.279-.455-.373-.372-.454-.276-.517-.169-.56-.055-.582.06-.582.174-.558.281-.514.376-.45.005-.004.453-.365.522-.273.565-.167M687.781 394.124l.564.172.519.278.454.373.373.454.276.517.168.56M700.747 387.468l-.171.541-.278.496-.369.427-.004.005-.454.35-.519.255-.563.15-.585.041-.584-.072-.563-.181-.518-.284-.454-.374-.372-.452-.277-.511-.17-.552-.057-.57.059-.566.171-.542.274-.489.004-.007.001-.001.372-.43.005-.004.45-.346.519-.255.562-.15M700.578 385.78l.17.551M698.395 383.979l.562.181M699.473 384.444l.454.374.372.451M710.294 379.346l-.004.005-.438.318-.502.225-.547.123-.572.017-.573-.092-.554-.195-.513-.292-.451-.377-.373-.448-.281-.501-.177-.536-.067-.549.045-.542.141-.458v-.002l.016-.053.262-.466.357-.399.005-.004M707.004 374.581l.547-.122.571-.016.574.091.553.196.512.292.451.376.373.448.281.501.177.535.067.549-.011.134-.002.028-.032.379-.157.513M720.45 370.24l-.007.013-.061.11-.323.352-.003.004-.408.276-.473.184-.52.085-.548-.016-.554-.118-.539-.215-.503-.304-.447-.38-.375-.442-.289-.488-.19-.514-.085-.521.024-.508.131-.474.233-.424.093-.101.006-.007.229-.248.004-.003.404-.272.473-.183M717.242 365.961l.547.017.554.118.538.215.502.303.447.38.375.442.288.487.19.514.086.52-.023.507-.131.475M728.916 363.313l-.003.004-.229.139-.008.005-.129.079-.433.133-.483.039-.391-.043-.123-.014-.312-.089-.215-.061-.518-.239-.489-.317-.442-.385-.378-.435-.299-.471-.209-.488-.11-.486-.008-.466.073-.328.002-.006.02-.092.195-.372.286-.303.004-.003M728.859 360.308l.223.35.076.12.162.378.047.109.11.485.009.465M725.996 358.725l.514.057.526.151.517.239.488.317M736.956 356.815l-.144.313-.234.243-.315.162-.382.075-.358-.011-.036-.001-.043-.002-.473-.103-.107-.041-.385-.147-.492-.266-.473-.334-.435-.388-.382-.428-.312-.452-.232-.457-.105-.333-.036-.113-.047-.417.05-.372.146-.313.234-.242.315-.161.383-.074.437.014.473.104.456.175.035.013.491.266.064.045.408.288.435.388.381.428.238.344.074.106.231.457.068.212.074.233.048.417-.05.372Zm0 0-1.09 2.826M732.394 353.188l-2.695 1.552M742.995 352.878l-.175.175-.253.096-.325.012-.383-.072-.427-.154-.453-.229-.461-.296-.453-.351-.428-.393-.004-.004-.381-.416-.176-.231-.152-.199-.258-.424-.179-.402-.091-.364-.001-.312.087-.249.177-.174.255-.095.325-.012.383.073.349.127.076.027.088.045.365.184.461.296.023.019.43.332.426.392.384.419.328.43.258.423.179.402.092.363v.155l.002.158-.088.249Zm0 0-.857 1.875"/><path d="m738.661 348.892-.918.537-1.354.793-.69.404M747.578 350.373l-.11.105-.188.027-.262-.055-.324-.133-.373-.206-.188-.125-.173-.115-.049-.032-.035-.027-.394-.301-.432-.369-.419-.398-.274-.289-.11-.116-.006-.006-.1-.118-.245-.29-.287-.389-.198-.322-.021-.034-.132-.289-.009-.019-.058-.249.026-.181.11-.105.19-.025.262.055.324.134.283.157.09.05.409.272.429.326.321.275.11.094.418.397.389.41.345.408.287.388v.001l.218.355.034.073.108.235.059.25-.025.181Zm0 0-.19.373-.163.321-.03.06-.263.519-.054.105-.419.825M743.325 346.336l-.477.279-.612.356-1.873 1.093M750.435 349.663l-.04.034-.12-.044-.194-.122-.262-.195-.319-.26-.363-.315-.395-.359-.41-.388-.41-.403-.394-.402-.364-.385-.048-.053-.27-.301-.261-.308-.193-.252-.119-.186-.039-.112.041-.034.121.046.195.122.262.195.318.261.364.315.394.358.017.017.392.371.409.402.394.4.362.385.318.353.261.309.194.252.119.186.04.113Zm0 0-.085.156-.735 1.349-.003.005M746.278 345.578l-1.891 1.079M863.396 451.749l-6.862 4.265-9.376 3.478-.365.136-4.706.358-5.678.433-8.468.031-4.132.015-5.232-.84-7.807-1.252-9.554-2.954-3.51-1.085-9.095-4.157-3.521-1.609-8.72-4.895-3.365-1.888-7.464-6.655-2.431-2.169-5.715-8.206-1.604-2.303-4.729-8.811-.887-1.652-2.981-9.545-.291-.93-.092-7.985-.034-2.875 1.368-8.948 4.007-8.096 5.226-5.517 7.205-3.877 3.698-.463 4.209-.527 9.533.493 9.449 3.272.13.045 9.343 3.567 1.545.59 8.926 4.51 2.188 1.105 8.203 5.719 2.312 1.613 8.184 5.748 2.503 1.758 8.163 5.776 2.319 1.641 7.24 6.898 1.508 1.438 6.424 7.664.689.823 5.263 8.268 3.309 7.626-.059 8.058-.042.172-1.455 5.9-4.769 5.839Z"/><path d="m846.829 438.675-2.302 1.399-2.46 1.496-5.763 1.611-.255.071-7.048.395-7.806-.917-8.26-2.202-8.386-3.403-8.176-4.474-7.639-5.365-6.794-6.043-5.681-6.477-4.343-6.651-2.839-6.56-1.233-6.211.044-.599.367-5.022 1.162-2.76.864-2.056"/><path d="m770.277 384.908 3.55-3.833 4.159-2.29.765-.421 6.101-1.496 2.752-.091 4.287-.141 7.707 1.03 8.085 2.247 8.162 3.375 7.938 4.375 7.422 5.213 6.632 5.859 5.598 6.289 4.352 6.489 2.938 6.448 1.408 6.165-.045 1.343-.095 2.867-.048 1.44-1.787 4.914-3.333 3.986"/><path d="m769.414 386.963 3.451-1.907 6.102-1.509 7.036-.248 7.701 1.014 1.559.431 5.339 1.475 1.178.326 8.149 3.36 7.923 4.362 7.404 5.201 6.614 5.848 5.578 6.282 2.584 3.867 1.748 2.617 1.269 2.8 1.651 3.646 1.39 6.166-.203 5.653-1.363 3.727M974.773 812.692l.163 9.998.162 9.999.022 1.345.163 9.998.162 9.999.163 9.999.162 9.998.163 9.999.162 9.999.115 7.073 7.467 6.651 7.467 6.652 7.467 6.652 7.469 6.652 7.46 6.652 7.47 6.652 7.47 6.652 7.46 6.652 2.72 2.414 7.73 6.343 6.66 5.466 7.73 6.343 6.67 5.477 7.73 6.343 6.7 5.489 7.73 6.343 6.7 5.498 7.09-5.573 3.58-5.406-2.89-6.055"/><path d="m1103.4 998.457-4.31-9.023-4.31-9.023-1.03-2.138M1130.18 695.253l-9.99-.451-9.99-.451-9.99-.451-1.47-.066-9.99-.451-3-.135-3.85 4.742 4.03 6.002 4.66 6.927 5.58 8.299 5.58 8.299 5.58 8.298 5.58 8.299 5.58 8.299 5.58 8.299 5.58 8.299 5.58 8.299 5.57 8.299 5.58 8.299 5.58 8.299 1.42 2.103 1.07 1.6 3.32 4.936 9.39-3.493 9.22-3.427 9.37-3.485 1.19-.441 9.28-3.45 9.8 1.969 9.8 1.969 9.39 1.885 3.14.63 9.07 4.214 4.24 1.971 9.07 4.214 3.34 1.554 9.17 3.987 9.17 3.987 8.14 3.539 9 4.351 9.01 4.352 7.6 3.675 7.86-6.185.32-.254 3.16-5.267-6.26-7.796-6.02-7.488-6.26-7.796-6.03-7.505-6.26-7.796-6.04-7.522-6.27-7.796-6.05-7.539-6.61-7.504-6.61-7.503-6.61-7.504-6.61-7.503-6.61-7.504-6.61-7.503-6.61-7.504-6.61-7.504-6.22-7.054-9.99-.451-9.99-.45-9.99-.451-9.99-.451-9.99-.451-9.99-.451-9.99-.451-9.1-.411Z"/><path d="m1205.68 703.686-9.99-.46-9.99-.459-9.98-.46-9.99-.46-9.99-.459-9.99-.46-9.99-.46-9.32-.428-9.98-.46-9.99-.459-4.67-.215-9.99-.46-9.91-.456M1314.34 832.408l-6.26-7.795-6.06-7.536-6.26-7.795-6.07-7.553-6.27-7.795-6.08-7.571-6.26-7.795-6.1-7.587-6.61-7.503-6.61-7.503-6.61-7.503-6.61-7.502-6.62-7.503-6.61-7.503-6.61-7.503-6.61-7.503-6.41-7.272 3.53-4.866M1760.82 60.931l-2.3-1.65-8.52-5.233-4.16-2.554-8.89-4.572-4.08-2.097-9.23-3.854-3.92-1.637-9.36-3.514-.22-.082-9.52-3.067-4.83-1.558-9.76-2.21-4.54-1.03-9.86-1.64-2.39-.397-9.92-1.279-5.18-.668-9.99-.272-4.78-.13-10 .004-4.15.002-9.97.806-5.14.417-9.89 1.5-4.71.713-9.81 1.941-5.32 1.052-9.57 2.884-5.01 1.51-9.5 3.112-5.3 1.736-9.09 4.165-5.04 2.305-9.03 4.288-5.12 2.43-8.45 5.348-4.79 3.031-8.4 5.431-4.8 3.105-7.66 6.428-4.31 3.62-7.61 6.494-4.37 3.731-6.72 7.402-3.65 4.019-6.68 7.444-3.84 4.28-5.65 8.251-3.38 4.948-5.65 8.257-2.69 3.947-4.56 8.901-2.77 5.399-4.4 8.979-1.81 3.683-3.44 9.388-2.08 5.679-3 9.541-.98 3.133-2.34 9.724-1.37 5.744-1.4 9.903-.32 2.333-1.26 9.921-.7 5.563-.22 9.997-.13 6.116.49 9.988.02.365.76 9.971.42 5.574 1.69 9.858 1.01 5.963 2.55 9.67 1.65 6.264 1.97 6.46 3.36 9.42 1.87 5.243 4.11 9.115 2.42 5.342 4.82 8.76 2.94 5.337 5.49 8.36 3.43 5.23.84 1.088 6.11 7.914 3.04 3.936 6.7 7.426 2.92 3.243 1.34 1.48 7.24 6.892 4.56 4.338 7.76 6.311 4.78 3.885 8.23 5.678 4.89 3.376 8.67 4.991 4.91 2.83 6.46 3.613 9.05 4.242 5.99 2.806 9.4 3.43 5.82 2.127 9.62 2.659 9.67 2.547 6.59 1.735 9.87 1.592 6.23 1.004 9.96.865 2.17.189 9.99.565 6.62.375 9.99-.529 6.1-.323 9.97-.743 3.88-.289 9.86-1.68 6.17-1.051 9.75-2.206 4.52-1.022 9.58-2.866 6.01-1.797 9.34-3.559 4.87-1.855 9.14-4.061 5.65-2.513 8.77-4.806 4.93-2.699 8.52-5.224 5.16-3.159 8.04-5.95 4.69-3.476 7.75-6.318 4.55-3.708 7.16-6.983 4.21-4.114 6.84-7.299 3.87-4.136 6.13-7.901 3.54-4.557 5.81-8.141 3.15-4.425 4.96-8.685 2.72-4.764 4.71-8.818 2.44-4.556 3.63-9.318 1.84-4.711 3.59-9.332 1.74-4.506 2.48-9.686 1.3-5.047 2.12-9.771.79-3.6 1.4-9.901.68-4.76.26-6.152M1850.56 193.133l-.87-3.672M1840.32 159.375l-3.19-7.759-2.51-5.084-2.57-5.158"/><path d="m1443.13 374.101 2.44 3.867 6.41 7.676 6.41 7.676.66.792 2.85 2.508M1833.51 148.973l.51 5.585.01 2.643v2.949l-.59 6.381-1.36 5.468-.93 5.815-1.67 5.559-3.45 3.528-4.02 2.934-4.56 2.298-5.07 1.623-5.55.912-5.27.418-5.51 2.043-7.03-.496-7.42-2.071-6.58-2.666-7.67-3.507-7.74-4.298-6.73-4.409-7.52-5.514-6.35-5.264-7.15-6.636-5.99-6.037-6.25-7.269-5.41-6.944-5.02-7.269-4.6-7.874-2.33-7.908-.52-6.403-2.53-6.794-1.8-7-1.08-6.727-.37-6.39.33-6.009 1.35-5.395 4.11-3.618 3.58-3.433 3.5-4.033 4.17-3.304 3.66-2.35 4.07-1.822 4.43-1.3 4.76-.786 6.95.11 2.51.39 3.81.594 5.96 1.764 5.84 2.04 5.83 2.43.89.373 7.79 4.005 5.47 3.303 5.35 3.503 5.83 4.196 7.44 6.186 4.76 4.537 4.64 4.722 4.72 5.171 6.23 7.839 3.97 5.769 3.68 5.812 3.49 6.057 3.39 7.546 2.56 7.329 1.02 4.096.45 1.822 1.01 5.776Zm0 0 1.24 9.923.85 6.79M1835.52 187.557l.73-7.957"/><path d="m1743.18 54.697-9.59-2.818-9.71-2.852M1723.88 49.028l-7.84-1.227M1858.23 242.267l.54-1.908.46-3.223.49-3.462.05-.343.06-1.815.13-3.469.13-3.644.03-.817-.09-1.131-.27-4.297-.27-4.469-.07-1.405-.2-1.644-.66-4.763-.62-4.788-.19-2.01-.21-.997-.97-4.073-.92-3.836-.71-3.013-.05-.323-.83-3.071-1.07-3.871-.97-3.582-.85-3.258-.63-2.635-.08-.677-.52-1.14-.66-1.433-.47-.988-.34-.673-.36-.769-7.79-5.364-.59-.405"/><path d="m1854.22 237.88-.65-2.603-.54-2.985-.43-3.339.03-1.441.02-.509v-.174l-.34-3.368-.5-4.37-.08-.592-.45-3.305-.49-4.258-.28-4.891-.18-3.712.02-.66.1-3.451-.3-3.781-.05-.64-.41-4.34v-.037l-.11-1.921-.11-2.132-.3-3.852-.28-3.888-.7-3.243-.3-2.967-.01-.093M1839.75 171.252l.89 4.145.34 4.97.37 4.927.28 5.186"/><path d="m1847.89 171.422.11-1.42-.17-2.047.01-1.603M1847.88 171.328l.12-1.327M1847.84 166.351l.19-1.145.08-.467M1839.73 158.971l-.11.591M1852.64 257.891l1.69-4.739 3.37-9.415.53-1.471-.28-1.006-.29-1.407-2.54-6.503-.1-.272-2.37-6.075M1847.45 252.439l.96 2.786M1845.42 238.351l-.07 2.716.56 4.26M237.647 926.942l5.791 8.152.408.575 6.579 7.531.494.565 7.296 6.838.579.543.475.371 7.935 6.085.418.321 8.493 5.278.475.295 8.967 4.427.524.259 9.353 3.539.563.213.589.22 9.649 2.623.886.241 9.857 1.684.903.154 9.973.734.902.066 9.998-.223.883-.02 9.93-1.177.848-.101 9.771-2.124.796-.173 9.523-3.052.73-.234 2.338-.84 9.183-3.958.832-.358 8.757-4.828.741-.409 8.245-5.659.646-.444 7.65-6.44.551-.463 2.278-2.031 6.977-7.163.516-.53 6.233-7.82.422-.53 5.421-8.403.336-.522 1.517-2.765 4.552-8.903.25-.49 3.633-9.316.184-.471 2.676-9.635.126-.453 1.691-9.856.075-.437.434-2.831.689-9.976.022-.309-.319-9.995-.01-.303-1.317-9.913-.041-.303-2.3-9.732-.073-.309-.566-2.087-3.253-9.457-.04-.116-4.168-9.09-.062-.136-5.035-8.64-.092-.156-5.848-8.111-.127-.177-6.601-7.512-.168-.192-7.287-6.848-.215-.202-7.902-6.13-.264-.204-8.443-5.359-.313-.2-8.907-4.547-.361-.185-9.291-3.698-.406-.162-9.594-2.822-.444-.13-9.814-1.921-.474-.093-9.949-1.004-.495-.05-10-.076-.505-.004-9.964.854-.505.043-9.84 1.783-.495.089-2.199.528-9.629 2.7-.693.195-9.329 3.6-.659.255-8.943 4.475-.616.308-8.469 5.318-.567.356-2.388 1.756-7.911 6.117-.611.472-7.271 6.866-.546.515-6.554 7.553-.479.553-5.763 8.172-.412.584-1.785 2.655-4.909 8.713-.354.629-3.994 9.167-.286.655-3.034 9.529-.217.679-.725 2.939-2.036 9.79-.129.62-1.015 9.949-.066.642.021 10 .001.666 1.054 9.945.073.689.395 2.386 2.076 9.782.11.522 3.07 9.517.176.545 4.028 9.152.247.562 4.938 8.696.325.573Z"/><path d="m341.6 860.724-3.96-2.524-3.209-2.49-3.466-3.218-2.774-2.993-1.719-2.324-1.003-1.355-2.221-3.571-1.882-3.808-1.519-4.187-.296-4.271.523-3.514-.239-3.818.247-3.993.66-3.899 1.057-3.768 1.437-3.609 1.922-3.308 2.982-2.288 2.824-2.248 3.174-2.756 3.478-2.386 3.035-1.813 3.191-1.532 3.316-1.248 3.423-.961 4.651-.599 4.02.004 3.491.581 3.375.746 3.829 1.115 4.346 1.719 2.988 1.484 2.885 1.604 3.1 1.963 3.839 2.973 2.385 2.228 2.283 2.34 2.271 2.587 2.866 3.981 1.724 2.97 1.53 3.014 1.384 3.161.79 4.157.263 4.102-.259 3.395-.574 3.361-.895 3.298-1.237 3.343-1.737 3.82-1.036 1.655-1.073 1.712-1.384 3.29-1.824 3.157-.032.055-3.119 2.395-3.389 2.1-3.636 1.781-3.853 1.435-2.7.714-1.341.355-3.689.728-3.665 1.455-2.94.175-1.561.092-4.602-.537-3.96-.935-1.698-.513-2.768-.837-4.37-1.792-3.659-1.95ZM410.968 832.165l-.335-5.103M402.539 857.814l1.398-2.243 1.22-1.957M357.061 781.522l-5.002-.01M375.762 786.706l-5.403-2.14M386.915 792.988l-3.853-2.44M432.926 868.439l1.706-4.832.244-.695.498-2.432.432-2.489.084-.756-.033-.854.041-2.549-.027-2.526-.184-.965-.056-.522-.067-2.23-.064-2.101-.05-1.65-.251-.102"/><path d="m417.172 858.749.603-2.285.122-2.325.235-2.372.407-2.248.497-2.211.541-2.243.072-1.807.753-1.943.892-1.05.909-1.484 1.018-1.274 1.117-1.053.453-.428.808.087 1.11-.107 1.155.06 1.205.302.732.166.26.06.551.098.956 1.018.967 1.376.948 1.575.92 1.76.795 1.315.021.035M412.125 872.615l.744 2.573.5 2.003M434.632 863.607l-.343.556-.754 1.935-.091.234-.839 2.077-.286 1.017-.864 2.373-1.482 4.07M428.887 878.622l.986-2.505"/><path d="m432.318 869.427-.076.195-.773 1.961-.491 1.245-.228.58M430.613 836.692l-2.808-2.562M421.281 882.948l1.625-.414 1.696-.711 1 .529M435.219 843.771l.23.068M415.652 881.775l1.344 1.229M1385 284.011l-7.18-6.965-7.17-6.965-7.18-6.965-6.77-6.569-6.96 7.175-6.97 7.175-6.96 7.176-6.57 6.767 7.17 6.966 7.18 6.965 7.17 6.965 6.77 6.569 6.97-7.175 6.96-7.175 6.97-7.176 6.57-6.768ZM1351.44 252.138l-7.18-6.965-7.18-6.965-2.56-2.487-6.96 7.175-6.97 7.175-2.48 2.563 7.17 6.965 7.18 6.965 2.56 2.487 6.96-7.176 6.97-7.175 2.49-2.562ZM1369.86 237.407l-7.17-6.965-4.4-4.265-6.96 7.175-4.27 4.394 7.18 6.965 4.39 4.266 6.97-7.176 4.26-4.394ZM603.645 649.956l6.983 7.159 6.981 7.159 6.982 7.159 6.982 7.159 6.982 7.158 6.982 7.159 6.983 7.159 6.982 7.159 6.982 7.159 6.982 7.159 6.982 7.159 6.982 7.159 6.982 7.159 6.983 7.159 6.982 7.159 6.982 7.159 6.982 7.158 6.982 7.159 6.982 7.159 6.982 7.159 6.983 7.159 6.982 7.159 6.982 7.159 6.982 7.159 6.982 7.159 6.982 7.159 6.981 7.159 6.984 7.159 6.982 7.158 6.982 7.159 6.982 7.159 6.982 7.159 6.982 7.159 6.981 7.159 6.982 7.159 6.982 7.159 6.984 7.159 6.982 7.159 6.982 7.159 6.982 7.159 6.981 7.158 6.982 7.159 6.982 7.159 6.982 7.159 6.984 7.159 6.982 7.159 6.982 7.159 6.981 7.159 6.982 7.156 6.982 7.16 6.982 7.16 6.982 7.16 6.982 7.16 6.984 7.16 6.981 7.16 6.982 7.16 6.987 7.15 6.98 7.16 8.71 8.94 7.07-7.07 3.41-3.41-7.16-6.98-7.16-6.98-7.16-6.98-7.158-6.98-7.159-6.99-7.159-6.98-7.159-6.98-7.159-6.98-7.159-6.98-7.159-6.988-7.159-6.982-7.158-6.982-7.159-6.982-7.159-6.982-7.159-6.982-7.159-6.982-7.159-6.982-7.158-6.982-7.159-6.983-7.159-6.982-7.159-6.982-7.159-6.982-7.159-6.982-7.159-6.982-7.158-6.982-7.159-6.982-7.159-6.982-7.159-6.983-7.159-6.982-7.159-6.982-7.159-6.982-7.159-6.982-7.159-6.982-7.159-6.982-7.16-6.982-7.159-6.983-7.157-6.982-7.159-6.982-7.159-6.982-7.159-6.982-7.159-6.982-7.16-6.982-7.159-6.982-7.159-6.982-7.159-6.983-7.159-6.982-7.159-6.982-7.159-6.982-7.159-6.982-7.158-6.982-7.159-6.982-7.159-6.982-7.159-6.982-7.159-6.983-7.159-6.982-7.159-6.982-7.158-6.982-7.159-6.982-8.936-8.715ZM1152.98 1359.54l-7.16-6.99-7.16-6.98-7.16-6.98-7.15-6.98-7.16-6.98-7.16-6.99-7.16-6.98-7.16-6.98-7.16-6.98-7.16-6.98-7.16-6.99-7.16-6.98-7.15-6.98-7.16-6.98-7.16-6.99-7.16-6.98-7.16-6.98-7.16-6.98-7.16-6.98-7.16-6.99-7.16-6.98-7.156-6.98-7.158-6.98-7.159-6.98-7.159-6.99-7.159-6.98-7.159-6.98-7.159-6.98-7.159-6.98-7.159-6.99-7.159-6.98-7.159-6.98-7.159-6.98-7.159-6.99-7.158-6.98-7.159-6.98-7.159-6.98-7.159-6.98-7.159-6.99-7.159-6.98-7.159-6.98-7.159-6.98-7.159-6.98-7.159-6.99-7.159-6.98-7.159-6.98-7.158-6.98-7.159-6.98-7.159-6.99-7.159-6.98-7.159-6.98-7.159-6.984-7.159-6.982-7.159-6.982-7.159-6.982-7.159-6.982-7.159-6.982-7.159-6.982-8.935-8.716 6.982 7.159 6.982 7.159 6.982 7.159 6.982 7.159 6.982 7.159 6.982 7.159 6.982 7.159 6.983 7.159 6.982 7.16 6.982 7.16 6.982 7.16 6.982 7.16 6.982 7.15 6.982 7.16 6.982 7.16 6.982 7.16 6.982 7.16 6.983 7.16 6.982 7.16 6.982 7.16 6.982 7.16 6.982 7.16 6.982 7.15 6.982 7.16 6.982 7.16 6.983 7.16 6.982 7.16 6.982 7.16 6.982 7.16 6.982 7.16 6.982 7.16 6.982 7.15 6.982 7.16 6.982 7.16 6.983 7.16 6.982 7.16 6.982 7.16 6.982 7.16 6.982 7.16 6.98 7.16 6.98 7.15 6.99 7.16 6.98 7.16 6.98 7.16 6.98 7.16 6.99 7.16 6.98 7.16 6.98 7.16 6.98 7.16 6.98 7.15 6.99 7.16 6.98 7.16 6.98 7.16 6.98 7.16 6.98 7.16 6.99 7.16 6.98 7.16 6.98 7.16 8.72 8.93M2042.32 850.499l-7.16-6.983-7.16-6.982-7.16-6.982-7.15-6.982-7.16-6.982-7.16-6.982-7.16-6.982-7.16-6.982-7.16-6.983-7.16-6.982-7.16-6.982-7.16-6.982-7.15-6.982-7.16-6.982-7.16-6.982-7.16-6.982-7.16-6.982-7.16-6.983-7.16-6.982-7.16-6.982-7.16-6.982-7.16-6.982-7.15-6.982-7.16-6.982-7.16-6.982-7.16-6.982-7.16-6.983-7.16-6.982-7.16-6.982-7.16-6.982-7.16-6.982-7.15-6.982-7.16-6.982-7.16-6.982-7.16-6.982-7.16-6.983-7.16-6.982-7.16-6.982-7.16-6.982-7.16-6.982-7.15-6.982-7.16-6.982-7.16-6.982-7.16-6.983-7.16-6.982-7.16-6.982-7.16-6.982-7.16-6.982-7.16-6.982-7.15-6.982-7.16-6.982-8.08-7.877 6.98 7.159 6.98 7.159 6.99 7.159 6.98 7.159 6.98 7.159 6.98 7.159 6.99 7.159 6.98 7.159 6.98 7.159 6.98 7.159 6.98 7.158 6.99 7.159 6.98 7.159 6.98 7.159 6.98 7.159 6.98 7.159 6.99 7.159 6.98 7.159 6.98 7.159 6.98 7.159 6.99 7.159 6.98 7.159 6.98 7.158 6.98 7.159 6.98 7.159 6.99 7.159 6.98 7.159 6.98 7.159 6.98 7.159 6.98 7.159 6.99 7.159 6.98 7.159 6.98 7.159 6.98 7.159 6.98 7.158 6.99 7.159 6.98 7.159 6.98 7.159 6.98 7.159 6.99 7.159 6.98 7.159 6.98 7.159 6.98 7.159 6.98 7.159 6.99 7.159 6.98 7.159 6.98 7.158 6.98 7.159 6.98 7.159 6.99 7.159 6.98 7.159 7.87 8.076M1287 245.931l6.99 7.159 6.98 7.159 6.98 7.159 6.98 7.159 6.98 7.159 6.99 7.159 6.98 7.159 6.98 7.159 6.98 7.159 6.98 7.158 6.99 7.159 6.98 7.159 6.98 7.159 6.98 7.159 6.99 7.159 6.98 7.159 6.98 7.159 6.98 7.159 6.98 7.159 6.99 7.159 6.98 7.159 6.98 7.159 6.98 7.158 6.98 7.159 6.99 7.159 6.98 7.159 6.98 7.159 6.98 7.159 6.99 7.159 6.98 7.159 6.98 7.159 6.98 7.159 6.98 7.159 6.99 7.158 6.98 7.159 6.98 7.159 6.98 7.159 6.98 7.159 6.99 7.159 6.98 7.159 6.98 7.159 6.98 7.159 6.98 7.159 6.99 7.159 6.98 7.159 6.98 7.158 6.98 7.159 6.99 7.159 6.98 7.159 6.98 7.159 6.98 7.159 7.88 8.076 7.07-7.071 2.14-2.146-7.15-6.982-7.16-6.982-7.16-6.982-7.16-6.982-7.16-6.982-7.16-6.982-7.16-6.982-7.16-6.982-7.16-6.983-7.15-6.982-7.16-6.982-7.16-6.982-7.16-6.982-7.16-6.982-7.16-6.982-7.16-6.982-7.16-6.982-7.16-6.983-7.16-6.982-7.15-6.982-7.16-6.982-7.16-6.982-7.16-6.982-7.16-6.982-7.16-6.982-7.16-6.983-7.16-6.982-7.16-6.982-7.15-6.982-7.16-6.982-7.16-6.982-7.16-6.982-7.16-6.982-7.16-6.982-7.16-6.983-7.16-6.982-7.16-6.982-7.15-6.982-7.16-6.982-7.16-6.982-7.16-6.982-7.16-6.982-7.16-6.982-7.16-6.983-7.16-6.982-7.16-6.982-7.15-6.982-7.16-6.982-7.16-6.982-7.16-6.982-7.16-6.982-8.08-7.877ZM621.918 444.472l.946 1.693.184.33 2.64 4.725M651.472 439.108l-.05.138M736.01 342.052l-4.618-2.583-1.283-.717M742.85 346.616l-.357-.24-2.083-1.404M768.279 363.752l-8.293-5.588-8.293-5.589-.877-.591-1.184-.798-.019-.013M946.062 792.781l1.904 1.558 1.322 1.082M990.41 745.038l.153-.01.055-.003M962.367 805.215l8.565 5.162 3.84 2.315 4.131 2.489 8.564 5.162 8.565 5.162.507.306M1099.45 891.764l5.62 3.137.87.491 1.26.704M1163.5 847.643l.32.038M1084.72 670.574l-.54-.907-3.91-6.484M1098.74 693.834l-5.16-8.564-4.53-7.526M1174.21 840.162l.01-.002M1178.97 820.883l-.03-.021M1179.53 821.929l-.58-1.037-.01-.029-4.88-8.728-1.86-3.329"/></g><defs><clipPath id="a"><path fill="#fff" d="M0 0h1920v1080H0z"/></clipPath></defs></svg>