<svg width="1920" height="1080" fill="none" xmlns="http://www.w3.org/2000/svg"><g clip-path="url(#a)" stroke="#EFC018" stroke-width="5" stroke-linejoin="round"><path d="m954.36 800.563-.001.003-.045.082-.537.991.074.08.164.169.248.253.321.325.383.386.431.433.46.462.474.474.467.467.444.442.403.401.347.344.278.273.197.193.109.103.017.012.909-.502M980.579 781.941l-.106.529.015.57.135.59.249.587.353.562.445.516.519.449.574.365.606.267.614.159.601.045.562-.071.504-.184 2.446-1.096"/><path d="m980.578 781.941.221-.466.33-.386.051-.035.373-.256.503-.185.563-.072.601.044.615.159.607.267.574.366.52.449.446.516.354.563.249.588.134.591.014.571-.106.528-.18.376-.043.09-.33.385-.425.291M953.777 801.639l.001.001M955.834 800.797l-.001.002-.303.581-.096.183.036.183.129.265.218.337.035.046.012.017.252.334.368.44.423.468.461.476.483.468.485.441.47.396.435.338.262.181.001.001.122.084.319.183.241.095.155.001 1.754-.987"/><path d="m955.434 801.563.061-.093h.153l.092.036.149.057.319.183.384.265.042.033.394.305.47.398.487.441.433.42.051.049.462.478.261.288.001.002.162.178.368.442.299.396.107.166.001.001.11.17.128.265.034.182-.061.092M959.534 798.481l-.002.002-.133.275-.33.678-.038.26.062.337.12.3.003.008.016.04.003.005.018.048.111.197.141.252.334.48.403.494.457.487.493.463.411.338.001.001.099.081.508.362.486.289.447.205.388.114.194.012.122.007.232-.079.029-.016 3.51-1.971"/><path d="m959.066 799.437.136-.173.231-.08.316.017.281.082.107.031.343.158.006.003.097.045.402.238.085.051.51.362.333.274.002.002.176.145.494.463.458.489.404.494.334.481.252.45.16.401.061.337-.039.259-.11.138-.028.034M965.249 793.851l-.634 1.45-.081.255-.002.006-.024.074v.406l.106.463.208.5.302.519.004.006.38.513.453.497.502.458.14.105.394.295.545.328.535.242.504.147.454.047.386-.055.304-.155 3.305-1.81"/><path d="m964.613 795.3.209-.25.303-.157.215-.031.171-.025.454.046.145.043.005.001.354.103.536.242.187.112.358.216.535.4.504.459.453.498.349.47.037.05.302.52.207.501.105.463-.001.406-.108.334-.21.25M972.466 787.725l-.706 1.937-.057.471.056.52.169.548.273.555.368.542.448.507.512.453.555.381.578.296.578.198.556.093.512-.015.45-.124 2.857-1.464"/><path d="m971.762 789.661.169-.404.273-.323.369-.227.449-.125.023-.001.49-.015.557.092.578.198.579.296.556.382.513.454.449.508.368.542.273.557.168.548.056.52-.004.032-.054.439-.17.404-.275.321-.369.227M990.541 773.284l-.018.613.108.625.229.614.343.579.442.522.525.446.588.351.628.243.644.127.635.004.602-.117 1.785-.577"/><path d="m990.543 773.284.143-.576.044-.086.219-.432.373-.439.468-.344.546-.236.602-.118.636.004.644.126.629.244.588.351.526.446.443.522.342.58.23.615.107.626-.018.613-.144.576-.264.517-.374.439-.217.16-.251.184-.546.235M1001.86 764.797l.33.592.45.528.52.442.6.341.65.225.66.101.81-.01"/><path d="m1001.86 764.797-.21-.598-.01-.036-.09-.652.04-.645.17-.612.29-.557.4-.48.5-.385.58-.274.63-.153.66-.027.66.101.64.226.6.34.53.443.44.528.34.592.21.635.09.652-.04.645-.17.613-.29.557-.4.48-.5.384-.58.273-.61.148-.01.005-.66.026M1015.41 755.443l-.61-.333-.53-.441-.44-.53-.33-.601-.21-.647-.08-.67.02-.21.03-.455.18-.636.31-.583.42-.506.51-.41.59-.299.64-.176.67-.047.68.085.65.214.6.333.53.441.44.53.34.601.21.648.08.669-.06.666-.17.603-.01.033-.31.582-.41.506-.52.411-.59.298-.64.176-.67.047-.67-.086-.65-.213ZM1027.3 743.639l-.6-.331-.53-.439-.44-.532-.33-.604-.21-.653-.08-.676.05-.674.18-.646.3-.593.42-.517.51-.421.59-.309.64-.186.67-.054.68.078.65.208.6.331.53.439.44.532.33.604.21.652.09.677-.06.674-.18.645-.3.593-.42.517-.51.421-.59.31-.64.185-.67.055-.68-.078-.65-.208ZM1084.89 669.369l-.8.441M1086.8 672.286l-.41-.456-.36-.417-.28-.363-.21-.295-.11-.215-.03-.125v-.002l.06-.034.16.06.23.147.01.002v.003l.32.237.37.314.43.378.46.428.47.463.47.478.44.475.41.455.08.095v.004l.27.318.04.048v.001l.25.314.21.295.12.216.02.128-.06.035M1089.07 674.513l-.43-.379M1090 675.214l-.24-.15-.31-.237-.09-.069v-.001M1085.4 670.413l-.72.383-.57.307M1088.18 673.706l-.47-.463-.47-.479M1086.74 681.914l2-3.597.05-.206-.03-.228-.01-.063-.14-.366-.22-.425-.14-.208-.17-.261-.37-.494-.43-.501-.2-.214-.26-.275v-.002l-.48-.455-.49-.408-.46-.344-.43-.267-.38-.179-.17-.046-.14-.037-.23.014-.37.185v.001l-.2.099v.001l-.29.146-.47.238"/><path d="M1088.74 678.318v.001l-.14.112-.15.01-.08.005-.31-.082-.25-.119-.01-.001-.12-.059-.43-.266-.47-.344-.48-.41-.1-.094-.39-.364-.46-.49-.43-.502-.37-.495-.1-.155v-.003l-.21-.311-.22-.426-.11-.288v-.004l-.03-.073-.04-.251v-.039l.05-.203v-.002l.14-.105.01-.007M1083.4 686.734l1.86-3.393.13-.28.02-.364-.07-.432-.16-.485-.08-.162-.01-.007-.17-.349-.34-.532-.41-.525-.45-.499-.5-.452-.51-.39-.19-.118-.31-.193-.48-.222-.27-.074v-.001l-.17-.047-.38-.02-.31.085-.26.119"/><path d="m1085.26 683.341-.01.002-.22.185-.3.086-.39-.018-.44-.122-.48-.221-.5-.312-.51-.39-.5-.454-.46-.499-.2-.26-.2-.267-.34-.533-.26-.519-.17-.485-.07-.432.03-.363.13-.276v-.003l.01-.009.21-.169.01-.008M1078.49 692.815l1.55-2.98.1-.429v-.494l-.12-.539-.21-.563-.31-.567-.38-.547-.46-.508-.5-.449-.53-.372-.54-.282-.53-.18-.5-.071-.09.008-.14.012-.22.02-.38.149"/><path d="m1080.04 689.835-.02.036-.18.313v.003l-.29.252-.38.15-.45.041-.35-.049-.01-.002-.14-.02-.53-.179-.54-.282-.54-.373-.5-.449-.45-.509-.39-.549-.31-.567-.21-.564-.11-.54V686.465l-.01-.223v-.188l.1-.429.2-.345.01-.003.28-.246.01-.008M1067.29 695.751l-.06-.587.05-.547.16-.487.07-.103.01-.009.19-.291v-.004l.36-.313.41-.189.04-.017.5-.091.56.027.57.144.58.256.55.357.51.445.45.516.37.567.28.596.17.603.06.587-.05.547-.16.487-.01.017-.26.391v.004M1070.78 699.24l-.58-.144-.58-.255M1072.28 698.967l-.33.152v.003l-.11.052-.51.092M1071.7 700.837l1.21-2.592M1067.73 696.953l-.27-.598M1063.68 709.457l.72-1.953.1-.591-.01-.625-.14-.635-.25-.621-.36-.583-.45-.523-.51-.442-.58-.345-.6-.234-.61-.115-.6.009"/><path d="m1064.4 707.504-.05.14-.16.394-.33.456v.004l-.05.04-.01.008-.36.31-.49.252-.56.134-.6.01-.61-.114-.61-.234-.57-.346-.52-.443-.45-.523-.35-.584-.25-.622-.14-.636-.02-.625.1-.591.22-.534.32-.45v-.006l.42-.36.05-.025.02-.008.43-.219.48-.113.08-.02M1054.36 718.94l.19-1.224.01-.653-.11-.659-.23-.638-.34-.596-.45-.527-.52-.44-.59-.336-.62-.22"/><path d="m1054.55 717.716-.02.112-.12.51-.04.086-.01.021-.21.461-.37.492v.004l-.46.392-.54.286-.6.164-.64.036-.64-.093-.63-.219-.58-.336-.53-.441-.44-.528-.35-.596-.23-.64-.11-.659.02-.653.14-.623.26-.568.36-.486.01-.005.46-.396.54-.285.6-.163.4-.023.03-.001.21-.012.18.027.46.067M1042.97 726.674l.34.602.22.65.09.673-.04.669-.17.641-.29.588-.4.512v.005l-.49.412-.58.305-.62.182-.66.051-.66-.081-.65-.21-.59-.332-.53-.439-.44-.531-.34-.603-.22-.65-.09-.673.04-.67.17-.641.29-.588.39-.506.01-.006.49-.416.58-.304.62-.181.66-.051.66.081.65.21.59.331.53.44.44.53Z"/><path d="m1043.11 730.508-.39.506-.01.006-.49.416-.58.305-.62.182-.66.051-.67-.081-.64-.21-.6-.331-.53-.44-.44-.531-.33-.602-.22-.65-.09-.673.04-.67.17-.642.29-.587.4-.512v-.005l.49-.411M1043.52 727.937l.09.673-.04.67M1039.43 725.143l.66-.051.66.081M1054.14 718.916l-.36.486-.01.006-.46.396-.54.286-.6.164-.63.036-.65-.093-.62-.219-.59-.337-.53-.44-.44-.529-.34-.595-.24-.64-.11-.659.02-.654.14-.622.26-.568.37-.491v-.005l.46-.391M1050.84 713.574l.04-.001.17-.01.64.094.62.219.59.336.53.44.44.528.34.596.23.638.12.659-.02.654-.14.622-.03.065-.01.021M1049.82 713.763l.6-.163M1064.5 706.922l-.1.591-.22.534-.32.451v.005l-.05.037-.01.007-.36.318-.5.252-.56.134-.6.01-.61-.114-.61-.234-.57-.346-.52-.442-.44-.524-.36-.584-.25-.622-.14-.636-.02-.625.1-.591.22-.534.33-.455v-.004l.42-.357.06-.033.02-.008.41-.211M1063.29 703.936l.44.523M1072.9 698.253l-.26.404-.01.004-.36.314-.32.148-.01.004-.11.055-.51.092-.55-.026-.58-.144-.57-.255-.56-.358-.51-.446-.45-.517-.37-.568-.28-.597-.17-.604-.06-.587.05-.547.16-.487.08-.112v-.008l.19-.287.01-.004.36-.309.44-.206.51-.091.55.027.57.144.58.256.55.357.51.445.45.516.37.567.28.596.17.603.06.587-.05.547-.16.487Zm0 0v.009M1068.51 693.212l-.03.009M1079.84 690.187v.004l-.3.254-.38.151-.45.041-.34-.049-.01-.001-.15-.021-.53-.18-.54-.281-.53-.373-.51-.449-.45-.509-.39-.549-.31-.567-.21-.565-.11-.539v-.311l-.01-.183.11-.429.2-.348v-.003M1079.5 687.25l.31.566.21.564M1076.55 684.912l.53.18.54.282M1078.16 685.746l.5.448.45.508M1085.41 682.702l-.03.364-.13.277v.004l-.22.186-.31.086-.38-.018-.44-.122-.48-.221-.51-.312-.51-.39-.49-.453-.46-.5-.2-.26-.21-.267-.34-.533-.25-.519-.17-.484-.07-.433.03-.362.13-.28v-.002l.02-.011.2-.173.31-.085M1084.92 681.268l.17.339v.007M1088.75 677.823l.01.063v.001l.03.228-.05.203v.003l-.14.113-.15.009-.08.006-.32-.083-.24-.115v-.001l-.13-.062-.43-.266-.47-.345-.49-.409-.09-.094-.39-.364-.46-.49-.43-.502-.37-.496-.11-.17-.01-.004-.19-.295-.22-.425-.11-.298-.01-.003-.02-.064-.04-.258v-.033l.05-.205v-.001l.14-.111.24-.014M1086.82 675.08l.26.275.2.213.43.502.37.494.17.26v.001l.13.208M1084.95 673.604l.43.266.47.344.48.409.48.45M1090.22 675.24l-.06.035-.16-.059-.24-.15-.31-.237-.08-.07-.3-.244-.43-.379-.45-.429-.48-.463-.47-.48-.44-.476-.41-.456-.36-.418-.28-.363-.21-.294-.12-.215-.02-.127.06-.034.16.06.24.15v.002l.31.237.38.313.43.379.46.428.47.462.47.478.44.476.41.455.07.088.01.003.27.326.04.047v.001l.25.315.21.295.11.216.03.126v.002Zm0 0-1.36 2.471-.1.172M1085.4 670.415l-.72.382-.57.307M1089.69 674.164l.01-.043-.08-.134-.17-.22-.25-.296-.32-.362-.39-.414-.43-.45-.47-.468-.47-.468-.47-.451-.44-.416-.4-.365-.35-.3-.27-.223-.19-.138-.11-.047"/><path d="M1084.89 669.369v.001l-.8.441M724.3 335.691l-8.725-4.887-6.141-3.439-8.881-4.598-8.88-4.597-8.881-4.597-4.392-2.274-8.913-4.535-8.912-4.535-8.913-4.534-4.49-2.285-9.16-4.014-9.159-4.013-9.159-4.013-5.312-2.327-1.149-.398-9.572-2.893-9.573-2.894-9.572-2.894-9.572-2.893-9.572-2.894-9.572-2.894-9.572-2.893-2.451-.741 2.866 9.58 2.865 9.581 2.866 9.581 2.866 9.58 2.865 9.581 2.866 9.581 2.866 9.58.965 3.228 3.993 9.168 3.993 9.168 3.992 9.168 2.273 5.218 4.52 8.92 4.519 8.921 4.52 8.92 2.25 4.441 4.583 8.888 4.583 8.888 4.583 8.888 2.251 4.366 4.874 8.731 3.321 5.948M1078.77 664.122l.1 1.552-2.43 4.058-4.92 6.452-6.43 7.656-.19.225-.63.748-.32.358-2.74 3.081-3.06 3.445-.95 1.068-2.26 2.533-1.89 2.052-3.42 3.69-.58.625-5.05 5.464-.09.101-4 4.184-.11.116-5.61 5.88-2.59 2.71-1.84 1.874-5.89 6.001-4.6 4.694-.73.74-5.27 5.233-4.64 4.605-.01.01-1.33 1.326-2.01 1.989-2.36 2.282-.25.245-.01.01-4.511 4.353-.009.009-1.763 1.703-3.958 3.822-.009.009-.026.025-.251.235-.009.009-4.081 3.822-.009.008-2.202 2.062-2.99 2.8-.008.008-.779.73-.009.008-1.654 1.549-1.886 1.699-.008.008-2.685 2.418-1.479 1.333-.008.007-1.153 1.039-.007.007-3.367 3.033-.088.076-.008.006-2.419 2.063-.005.005-.567.483-.004.004-5.681 4.847-6.621 5.148-4.243 2.647-1.741.091"/><path d="m947.787 794.677-.553 1.711 1.765-.085 4.313-2.688 6.737-5.237 6.451-5.5.004-.005.766-.654.006-.005 1.703-1.453.924-.831.007-.007 3.279-2.954.007-.005 1.175-1.06.008-.007 1.609-1.449 2.659-2.396.008-.007 1.112-1.001 2.346-2.198.008-.007.78-.731.008-.008 3.038-2.845 2.187-2.048.009-.008 3.839-3.595.221-.213.009-.008.273-.265.01-.009 3.957-3.823 1.777-1.716.009-.009 4.512-4.355.01-.01.25-.243 2.11-2.041 2.23-2.211 1.34-1.334.01-.01 4.66-4.62 5.27-5.234.71-.724 4.62-4.71 5.88-5.985 2.1-2.141 2.34-2.456 5.61-5.88.1-.099 4.09-4.284.39-.412 4.7-5.079.58-.625 3.37-3.642 2.59-2.807 1.63-1.831.97-1.091 2.95-3.313 2.87-3.228 1.08-1.214.01-.016 6.43-7.656.94-1.112 5-6.564 2.47-4.124-.12-1.572-1.64.615M1095.54 885.639l1.54.295 2.93-1.16 4.22-2.585 3.73-2.742 1.6-1.18 6.27-5.114 6.93-6.107.73-.68 6.61-6.177 7.12-7.021.32-.31 6.94-7.2.29-.306 1.47-1.607M740.804 345.39l-1.875-.528-3.993 1.636-5.99 3.773-7.778 5.79-.073.059-1.275 1.046-3.163 2.592-2.305 1.889-.989.811-1.468 1.203-2.781 2.437-3.177 2.785-.375.329-4.071 3.568-.26.24-4.475 4.137-3.654 3.377-2.724 2.518-2.945 2.852-2.69 2.605-5.726 5.545-.789.799-2.209 2.236-6.177 6.255-.008.008-1.951 1.976-.895.949-.009.009-4.994 5.297-.007.007-1.961 2.08-1.363 1.445-.319.338v.001l-.007.007-.001.001-.885.939-2.845 3.179-.006.007-1.736 1.94-2.168 2.423-.007.008-.529.59-.007.008-2.019 2.257-.392.468-.006.007-1.836 2.19-1.542 1.84-.005.006-.936 1.117-.005.006-1.88 2.244-.006.006-1.207 1.441-.808 1.058-.004.005-.34.445-.43.563-.001.002-4.426 5.795-3.984 6.111-1.829 4.137.361 2.033M628.848 456.287l1.197 1.778.405.601"/><path d="m742.51 346.541.332-.638.306-2.757-1.938-.564-2.665 1.087-.04.016-1.442.588-6.23 3.919-6.364 4.734-.062.047-1.059.788-.611.455-1.737 1.423-1.332 1.091-3.397 2.783-2.216 1.816-.975.799-.003.002-4.203 3.683-3.402 2.982-.255.224-2.982 2.613-1.126 1.04-4.81 4.446-3.171 2.931-2.477 2.289-3.892 3.769-1.774 1.718-6.179 5.984-1.483 1.502-.897.908-7.026 7.115-.171.172-.008.008-2.023 2.049-.065.069-.009.009-5.566 5.904-.007.007-3.287 3.486-.007.008-1.943 2.06-2.074 2.319-.006.006-1.786 1.996-1.979 2.213-.007.007-.476.532-.007.008-2.527 2.825-.006.006-.841.94-1.021 1.218-1.601 1.911-.005.007-.936 1.116-.005.007-1.706 2.036-.005.006-2.155 2.572-.213.254-.004.005-.489.583-.578.757-.003.004-5.672 7.43-4.139 6.357-1.893 4.298.39 2.103 2.618-.134.857-.423"/><path d="m743.148 343.146-2.244-1.733-1.943-.571-3.174 1.282-.968.391-6.155 3.854-.059.037-1.053.782-1.482 1.099-.643.477-1.799 1.335-.388.289-2.678 1.986-.028.02-1.289 1.055-1.339 1.095-1.005.822-2.429 1.986-3.562 2.914-.717.627-.018.015-2.008 1.759-7.526 6.586-.531.465-7.346 6.785-4.19 3.869-7.185 6.955-4.607 4.461-7.027 7.116-4.528 4.585-6.857 7.278-3.974 4.217-6.664 7.456-2.995 3.352-.049.057-.005.006-2.357 2.818-.006.007-.385.461-.008.009-2.531 3.026-.005.005-2.026 2.424-.005.005-.719.861-.071.092-.005.006-1.19 1.562-.004.006-.728.955-.002.005-1.99 2.614-.005.004-.109.144-.003.005-1.289 1.693-.003.004-.53.694-.003.005-.286.375-.212.327-.002.002-.102.158-3.796 5.854-.634 1.453-1.239 2.837.398 2.108 1.734 2.248M635.297 465.864l.615.914h.001l5.584 8.296 5.584 8.296 5.061 7.517 5.584 8.296 3.878 5.761 5.909 8.068 5.909 8.068 5.909 8.067 5.909 8.068 5.909 8.067 5.242 7.157 6.383 7.698 6.383 7.698 6.383 7.698 1.57 1.895 6.383 7.698 6.383 7.698 3.829 4.617 6.646 7.472 6.646 7.471 6.647 7.472 6.646 7.472 6.646 7.471 5.528 6.215 7.284 6.852 7.284 6.851 7.284 6.852 7.284 6.851 7.284 6.852 6.011 5.653 7.445 6.677 7.445 6.676 7.445 6.676 7.445 6.677 7.445 6.676 6.184 5.545 7.602 6.498 7.601 6.497 7.602 6.497 7.602 6.497 7.601 6.497 6.378 5.451 7.741 6.332 7.74 6.331 7.741 6.331 7.74 6.331 4.193 3.429.413.338M1078.76 664.123l-.46-.569-1.7-2.076M1070.92 654.538l-.58-.704v-.001l-.17-.21-6.33-7.738-6.34-7.738-6.33-7.739-6.34-7.738-3.39-4.145-6.5-7.6-6.5-7.6-6.5-7.6-6.49-7.6-6.5-7.6-5.34-6.24-6.677-7.444-6.678-7.444-6.678-7.443-6.677-7.444-6.678-7.444-5.417-6.037-6.852-7.284-6.852-7.283-6.852-7.283-6.853-7.284-6.852-7.283-5.515-5.862-7.47-6.648-7.471-6.648-7.47-6.647-7.47-6.648-7.471-6.648-6.07-5.403-5.727-4.751-.665-.552M947.234 796.387l7.08 4.261M1169.3 811.06l-1.1-1.825-5.17-8.563-1.84-3.053-.02-.03-5.16-8.562-5.17-8.563-5.17-8.563-5.16-8.562-5.17-8.563-5.16-8.563-5.17-8.562-5.16-8.563-5.17-8.563-5.16-8.562-5.17-8.563-5.16-8.563-5.17-8.562-2.5-4.154-.54-.881-2.12-3.529M1166.87 818.411l1.8-3.062 1.04-2.842-.41-1.446M1127.64 904.296l8.65 5.025 4.03 2.345 1.28.295.35-.118 1.96-.676 2.53-1.447.72-.414 3.37-2.366.7-.496 1.47-1.17 1.42-1.124 1.84-1.463 5.22-4.505 5.48-5.078 1.77-1.738 3.77-3.708 3.25-3.395 2.11-2.203 4.98-5.524 4.4-5.229.03-.029"/><path d="m1111.72 898.733 8.73 4.875 2.71 1.509 1.47.33 2.7-.968.31-.183 3.51-2.058.41-.292 4.41-3.142.96-.766 2.3-1.849 2.36-1.887 2.65-2.303 3.55-3.091 6.54-6.073 6.61-6.508 6.42-6.68 5.96-6.583 1.4-1.652M1093.63 884.495l-.8 1.903.12 1.854 1.65.327 3.12-1.231 4.51-2.759 5.71-4.194.54-.446 6.16-5.027 7.43-6.539 1.71-1.594 6.15-5.752 6.01-5.92 1.32-1.3.64-.635 4.4-4.571.6-.613 2.75-2.858 1.11-1.215M1168.19 809.235l1.73-.78h1.95l.45 1.537-1.1 3.033-2.6 4.427-1.14 1.594M1188.87 841.162l.36-1.099-.43-1.382-4.89-8.725-1.52-2.71"/><path d="m1092.95 888.252 8.73 4.875 3.25 1.814v.001l.84.468M1152.7 905.274l5.57 3.856 6.86 4.755.8.178 1.41-.466 1.95-1.096 2.43-1.685 2.81-2.212 3.09-2.651 3.24-2.99 3.26-3.208 3.16-3.303 2.94-3.265 2.59-3.1 2.14-2.814 1.62-2.418 1.03-1.93.41-1.37-.23-.759-.84-1.209M1127.8 793.449l-8.45-5.347-8.45-5.347-8.45-5.347-8.45-5.347-8.45-5.347-8.45-5.347-3.62-2.292-8.45-5.347-8.46-5.347-8.45-5.348-4.7-2.978"/><path d="m1043.42 740.054 6.7 7.418 6.71 7.417 6.71 7.418 6.7 7.418 6.71 7.417 6.71 7.418 6.7 7.418 6.71 7.417 6.71 7.418 6.7 7.417 6.71 7.418 6.71 7.418 6.7 7.417 1.83 2.025.3.333.34.372 9.46 3.255 3.71 1.277.52.18 1.4.481 4.2 1.446 1.42.49 5.87 4.223.01.003 3.51 2.528v.002l1.87 1.342.38.277 8.12 5.842.77.561.41.292 2.92 2.099 2 1.669 1.91 1.588 3.43 2.861 1.99 1.649 7.68 6.399 2.29 1.91 2.22 1.843 7.73 6.346 7.72 6.345 6.52 5.351 7.66 6.43 7.66 6.43 6.44 5.404 3.48-.388 6.76-7.367.46-.501-6.87-7.272-6.77-7.18-6.87-7.272-6.8-7.207-6.86-7.273-6.83-7.235-6.86-7.272-6.86-7.263-6.95-7.188-3.05-3.156-2.29-2.365-6.71-6.942v-.001l-3.49-3.611-1.84-1.9-.01-.01-2.48-2.563-4.57-4.724-.61-.636-4.52-4.673-.63-.647-6.95-7.189-6.95-7.188-6.95-7.188-5.68-5.874-8.48-5.314-8.47-5.314-8.47-5.314-8.47-5.313-8.47-5.314-8.47-5.314-3.62-2.272-8.47-5.314-8.48-5.314-8.47-5.314-4.71-2.958-6.94 7.199-.25.259Z"/><path d="m1246.37 917.348-6.87-7.269-6.79-7.19-6.87-7.269-6.82-7.217-6.87-7.269-6.84-7.245-6.87-7.269-4.65-4.917-2.22-2.356-6.95-7.186-1.34-1.384-.49-.506-6.96-7.186-2.16-2.235-3.58-3.702-6.96-7.186-6.95-7.187-2.58-2.665-.4-.412-6.95-7.186-6.96-7.186-6.95-7.187-4.54-4.691 6.88-7.26.51-.537M1141.95 911.843l2.9 2.761 7.24 6.899 5.97 5.694 2.73-.304 6.47-6.976-6.4-7.682-2.59-3.105"/><path d="m1160.79 926.893-6.41-7.673-6.42-7.672-1.36-1.627-.16-.201M938.255 786.882l-.665 1.195-.001.003-.338.606-.001.002-.636 1.145h-.001l.071.078.161.168.245.25.319.325.382.386.428.432.46.461.473.474.468.467.445.443.405.402.349.344.28.275.199.194.113.105.02.014.931-.527"/><path d="m937.844 786.544-.816 1.448-.001.003-.011.158.082.244.155.29M964.714 766.605l-.661 2.378-.115.543.005.583.125.6.243.596.35.567.446.517.014.015.106.089.401.344.576.361.614.26.623.15.611.033.574-.084.517-.2 2.535-1.159"/><path d="m964.055 768.983.234-.482.343-.402.071-.05.367-.258.516-.2.575-.086.611.032.624.149.614.26.579.362.12.103.099.085.302.26.445.518.351.568.243.597.126.601.004.584-.118.542-.197.404-.038.078-.343.402-.438.306M971.68 772.198l.593-.414.464-.543.319-.651.159-.734-.005-.789-.17-.813M936.613 789.832v.001M939.738 786.885l-.018.034-.434.805-.611 1.136-.001.002-.44.819.035.187.129.27.098.153.009.013.111.175.299.399.368.443.423.469.461.477.483.467.486.44.469.395.436.335.323.219v.001l.062.042.32.179.241.09.155-.004 2.552-1.466 1.255-.721"/><path d="m938.234 789.681.06-.098.154-.005.24.089.32.178.385.262.436.335.47.395.487.441.484.468.3.31.163.169.369.409.001.002.053.059.369.443.299.4.152.239.065.102.128.269.034.186-.061.097M943.323 784.601l-.002.005-.589 1.165-.002.005-.291.574-.001.003-.169.336-.357.705-.041.268.059.344.091.234.002.006.003.008.004.01.058.149.044.081.206.374.332.485.403.496.456.488.494.462.512.418.073.051.001.001.436.306.489.284.449.2.392.107.148.005.172.006.235-.086.091-.052 3.569-2.044"/><path d="m941.91 787.393.141-.181.234-.087.319.009.314.086.078.021.449.199.119.069.007.004.364.211.246.173.265.185.513.419.065.061.002.002.427.4.458.49.403.497.333.485.25.455.157.408.058.343-.042.268-.06.076-.082.104M949.209 779.479l-.709 1.548-.003.007-.044.097-.004.008-.86 1.879-.113.347-.003.149v.007l-.004.26.101.47.204.508.283.496.016.029.383.523.452.498.504.458.198.146.338.25.548.323.54.235.509.14.461.037.242-.04.151-.026.239-.127.072-.039 3.421-1.909"/><path d="m947.59 783.018.216-.261.31-.167.393-.067.304.024.156.012.51.139.212.092.004.002.324.141.226.133.324.19.537.398.505.458.453.5.348.474.036.049.299.526.203.508.1.471-.003.206-.004.21-.077.231-.038.114-.217.261M956.133 785.754l.295-.353.156-.466M956.145 773.984l-.453 1.168-.003.008-.214.552-.002.006-.528 1.361-.066.484.049.53.162.557.269.563.366.546.447.508.514.453.558.378.289.143.159.079.135.067.585.19.564.083.522-.027.46-.137 2.961-1.545"/><path d="m954.941 777.079.179-.417.284-.337.379-.241.459-.138.046-.002.476-.026.565.082.585.19.584.289.56.379.514.453.449.51.191.285.091.137.084.125.269.563.161.558.048.53-.006.048-.061.436-.179.417-.285.335-.38.241M962.918 779.951l.514-.325.386-.454.243-.565.091-.653-.064-.718M974.557 757.896l-.187 2.014-.03.627.099.637.222.623.005.008.06.104.274.474.441.524.528.445.593.346.635.235.655.116.648-.009.616-.133 1.852-.613"/><path d="m974.371 759.91.157-.592.06-.116.218-.419.389-.458.484-.362.561-.252.616-.134.649-.009.655.115.255.094.116.043.265.098.594.347.528.445.442.525.338.586.223.623.098.638-.031.627-.157.593-.279.535-.389.456-.246.184-.239.178-.561.252M980.969 763.294l.758-.34.655-.488.526-.618.377-.723.213-.8.042-.848-.132-.862-.301-.842M985.793 750.202l.287.789.33.598.44.53.531.441.604.336.652.216.675.09.847-.013"/><path d="m990.156 753.189.91-.054.872-.229.799-.395.698-.544.569-.674.417-.777.251-.852.073-.891-.106-.899-.281-.871-.447-.809"/><path d="m986.077 750.991-.209-.644v-.004l-.042-.348-.016-.136-.021-.177.054-.66.185-.63.308-.576.421-.499.516-.403.592-.293.645-.169.599-.037.075-.004.067.008.609.081.652.217.604.335.533.442.439.53.331.599.208.645.079.665-.054.66-.186.63-.309.575-.42.499-.517.403-.592.292-.645.17-.024.001-.65.039M1000.09 741.147l-.607-.328-.534-.44-.438-.533-.327-.607-.201-.657-.069-.683.054-.553.012-.128.013-.041.186-.613.324-.601.437-.526.532-.43.608-.318.5-.147.16-.046.03-.003.66-.058.68.073.66.204.61.329.54.439.44.534.32.607.2.657.07.683-.06.681-.2.654-.33.601-.43.526-.54.43-.6.318-.66.193-.69.061-.69-.074-.66-.204Z"/><path d="m1003.53 741.641.82-.429.72-.581.59-.71.44-.812.27-.883.09-.921-.09-.922-.28-.888-.44-.82M1012.48 728.84l-.61-.325-.53-.438-.44-.535-.32-.61-.21-.663-.07-.689.07-.69.06-.199.06-.202.08-.262.32-.612.44-.536.53-.441.61-.328.31-.094.21-.064.14-.044.69-.069.68.066.66.2.61.325.54.438.44.535.32.61.2.663.07.689-.06.689-.2.664-.33.611-.43.537-.53.44-.61.328-.66.203-.69.069-.69-.066-.66-.2Z"/><path d="m1016.9 728.838.59-.725.44-.826.27-.896.09-.931-.1-.931-.27-.895-.44-.824M1073.11 652.276l-2.01 1.133-.57.321-.19.103M1078.38 658.081l-.02-.128-.12-.215-.2-.294-.2-.26v-.001l-.08-.102-.17-.198v-.003l-.18-.215-.41-.455-.45-.475-.46-.478-.48-.462-.45-.429-.43-.379-.38-.315-.32-.238-.08-.047v-.003l-.16-.102-.16-.061-.07.033-1.4.766-1.15.634-.01.007-.8.442"/><path d="m1078.38 658.08-.06.034-.16-.06-.25-.151-.31-.238-.02-.014v-.001l-.36-.299-.43-.38-.46-.429-.48-.464-.46-.479-.45-.476-.41-.456-.35-.417-.28-.362-.2-.294-.12-.214-.02-.124v-.002M1074.66 664.894l1.94-3.417.17-.3.06-.208-.02-.115-.02-.179-.13-.367-.22-.428-.05-.079v-.001l-.25-.39-.37-.496-.43-.502-.06-.06-.18-.195-.22-.234-.48-.457-.49-.408-.47-.343-.43-.265-.39-.177-.31-.082-.01.001-.03.001-.2.015-.42.217-.2.103v.001l-.31.161-.45.237v.001l-.58.299-.87.453"/><path d="M1076.77 661.177v.001l-.15.115-.06.004-.1.007-.08.006-.32-.081-.27-.124v-.001l-.11-.051-.44-.265-.47-.344-.41-.346-.07-.062-.49-.459-.46-.49-.43-.503-.31-.416v-.005l-.06-.075-.3-.471-.22-.428-.08-.219v-.003l-.05-.145-.02-.185v-.002l-.01-.106.05-.205v-.002l.15-.107.01-.007M1068 662.074l.04-.368.13-.25.01-.032v-.003l.23-.184.01-.008.31-.09.39.014.17.043v.002l.28.074.49.218.51.309.09.067.42.321.5.453.45.499.41.527.33.535.19.398.01.007.05.117.16.489.07.438-.04.369-.14.286v.002l-.23.191-.32.091M1071.68 666.458l-.49-.217-.51-.309-.51-.389-.5-.454-.4-.442-.06-.058-.4-.529-.34-.536-.25-.523"/><path d="m1071.11 669.814 1.12-2 .34-.62.5-.889M1068.42 661.229l-.31.149-3.29 1.573M1065.94 676.065l1.64-3.086.11-.438v-.502l-.1-.546-.02-.045-.07-.203-.12-.322-.3-.571-.38-.55-.45-.51-.51-.448-.53-.37-.55-.277-.54-.175-.12-.016-.35-.044-.04-.005-.46.048-.39.158-2.85 1.19"/><path d="m1067.57 672.979-.02.032-.19.326v.003l-.31.261-.39.159-.46.048-.35-.043-.01-.001-.15-.02-.54-.174-.13-.067-.19-.094-.23-.116-.54-.371-.5-.449-.45-.51-.39-.552-.3-.572-.2-.57-.07-.326-.04-.221v-.062l.01-.44.11-.438.21-.353.01-.004.3-.253.01-.009M1065.64 676.552l.01-.003.29-.484M1058.8 684.341l1.28-2.685.18-.499.06-.558-.05-.596-.16-.611-.27-.603-.35-.542-.02-.029-.08-.091-.36-.427-.52-.444-.56-.354-.58-.251-.58-.136-.57-.018-.52.101-2.82.909"/><path d="m1060.08 681.657-.01.017-.27.403-.01.004-.37.322-.32.153-.01.004-.13.061-.52.103-.56-.018-.59-.136-.58-.25-.56-.354-.47-.409-.05-.037-.05-.062-.4-.456-.36-.572-.27-.604-.16-.612-.05-.596.06-.559.18-.498.06-.088.01-.009.21-.318v-.005l.38-.324.42-.199.04-.019M1058.41 684.914l.01-.004.38-.569M1050.41 693.267l.77-2.026.11-.604V690l-.13-.645-.25-.629-.35-.588-.44-.524-.52-.442-.07-.04-.12-.069-.39-.232-.61-.228-.63-.106-.61.021-2.17.368"/><path d="m1051.18 691.242-.05.109-.19.439-.34.471v.004l-.04.029v.007l-.39.336-.52.267-.57.147-.62.021-.62-.106-.61-.228-.58-.341-.52-.442-.45-.526-.31-.517-.04-.071-.02-.04-.22-.59-.13-.646-.01-.637.12-.604.23-.548.34-.466.01-.005.43-.375.03-.012.01-.008.48-.246.48-.122.09-.023M1049.63 694.65v-.004l.47-.637.31-.741M1040.67 703.109l.21-1.271.03-.666-.1-.67-.22-.648-.34-.6-.44-.53-.53-.44-.59-.332-.6-.198-.04-.013-.1-.013-1.1-.153"/><path d="m1040.88 701.838-.02.097-.14.541-.02.051-.01.022-.24.512-.39.508-.01.005-.47.408-.56.302-.62.179-.65.049-.65-.083-.64-.211-.59-.333-.53-.439-.44-.531-.34-.601-.23-.648-.05-.329-.02-.137-.03-.205.03-.667.16-.638.28-.584.38-.503.01-.005.48-.413.56-.301.62-.178.37-.028.03-.002.23-.017.02-.001.55.07.1.013M1028.85 711.204l.33.608.21.659.08.685-.05.684-.19.658-.31.606-.42.531v.005l-.51.43-.59.322-.65.198-.67.065-.68-.069-.65-.202-.6-.327-.54-.438-.44-.534-.33-.608-.21-.66-.08-.685.04-.495.02-.158v-.032l.18-.658.31-.606.42-.524v-.006l.52-.435.59-.322.64-.197.23-.022.17-.016.28-.027.67.07.66.202.6.326.53.438.44.534ZM1029.77 714.545l.07-.924-.11-.926"/><path d="M1028.5 715.64v.005l-.52.435-.59.323-.65.198-.67.065-.68-.07-.65-.202-.6-.326-.54-.439-.44-.533-.33-.609-.2-.659-.08-.686.04-.495.01-.158v-.031l.18-.658.31-.606.42-.531.01-.004M1029.38 712.481l.08.685M1029.41 713.852l-.19.658-.31.606M1024.03 710.229l.59-.322.64-.198.23-.021M1025.94 709.645l.67.07M1024.34 718.266l.91.094.91-.088M1033.89 705.887l.8.449.86.285.88.112.88-.066.83-.242.76-.408.65-.559M1040.8 700.512l.1.67-.03.667-.16.637-.01.03-.01.022-.25.533-.39.503v.005l-.49.414-.56.301-.61.179-.65.049-.66-.083-.63-.211-.6-.332-.52-.44-.45-.531-.34-.601-.22-.648-.05-.33-.02-.136-.03-.205.03-.667.16-.638.28-.584.39-.508v-.005l.48-.408.56-.301.62-.178.4-.03.04-.003.2-.015.56.071.1.012.04.013M1044.28 694.84l.78.461.83.308.85.142.82-.029.78-.198.69-.361.6-.509v-.005M1047.22 692.747l-.58-.342-.52-.442-.45-.525-.31-.519-.04-.07-.01-.041-.23-.588-.13-.646v-.637l.11-.605.24-.548.34-.47v-.005l.44-.371.04-.02.01-.008.46-.237.58-.146.61-.02.62.105.61.228.39.232.12.068.07.042.52.441.45.525.35.588.24.628.13.645.01.637-.12.604-.23.548-.34.466-.01.006-.02.025-.01.007-.4.344-.52.266-.57.147-.61.021-.63-.105-.61-.228ZM1053.48 684.771l.75.479.79.339.79.182.77.023.7-.138.62-.297.51-.44.01-.005M1059.79 682.081v.003l-.38.326-.31.15-.01.005-.13.063-.53.104-.56-.018-.59-.136-.58-.25-.56-.354-.47-.411-.04-.034-.06-.063-.39-.457-.37-.571-.27-.605-.16-.612-.05-.596.06-.557.18-.5.07-.096v-.008l.22-.316v-.002M1056.21 676.505l.57.018.58.137.59.25.55.354.52.444.37.426.08.092.01.028.35.543.27.603.17.611.05.596M1060.25 681.165l-.18.499M1067.36 673.341v.004l-.31.264-.39.159-.46.048-.34-.042-.01-.001-.16-.021-.54-.174-.14-.068-.18-.094-.23-.116-.54-.37-.5-.449-.46-.51-.38-.552-.3-.572-.21-.57-.06-.333-.04-.214v-.072l.01-.43.11-.438.21-.357.01-.003M1066.69 669.809l.39.551.3.571.11.32.07.204M1067.58 671.5l.1.546v.502M1062.75 668.17l.39-.158.46-.048M1061.69 676.345l.22.156.75.374.73.235.69.086.62-.066.53-.216.41-.358.01-.004M1064.11 668.029l.54.175.55.277.54.37M1073.06 666.312l-.23.192-.32.092-.39-.014-.44-.117-.49-.218-.51-.309-.52-.389-.49-.453-.41-.442-.05-.059-.4-.528-.34-.536-.25-.523-.16-.49-.06-.437.04-.369.13-.256.01-.029v-.002l.23-.19.32-.09.39.015.17.045.01.002.27.071.49.218.51.309.09.068.42.32.49.453.46.499.4.528.34.534.18.388.01.007.06.127.16.49.06.437-.04.369-.13.283-.01.004Zm0 0-.49.884-.35.621-1.1 1.983-.01.017v.004M1068.41 661.234v.003M1068.57 669.737l.52.231.14.063.08.021.52.137.53.017.43-.125.32-.261M1076.77 661.178v.003l-.15.115-.06.004-.1.008-.08.006-.32-.081-.26-.121-.01-.002-.11-.053-.44-.265-.47-.344-.41-.346-.08-.063-.48-.458-.46-.49-.43-.503-.33-.439v-.005l-.04-.053-.3-.471-.22-.427-.08-.228v-.003l-.05-.136-.03-.193-.01-.1.06-.208v-.001M1076.13 659.414l.25.39v.001l.05.079.22.427.14.368.02.179M1072.06 656.211l.22-.014.02-.002.32.082.38.177.44.265M1074.66 664.898v-.004l1.94-3.416.17-.296"/><path d="m1073.18 664.734.52.237.43.108.32-.024.21-.158M1074.39 657.47l.49.457.21.229.19.2M1078.36 657.955l.02.126v.002l-.06.034-.16-.06-.25-.151-.31-.238-.02-.015-.36-.3-.43-.379-.46-.43-.47-.463-.47-.479-.45-.477-.41-.455-.35-.417-.28-.362-.2-.294-.12-.214-.02-.126.07-.033M1077.41 656.667l.17.208v.003l.18.205.08.102v.001l.2.259M1073.56 653.256l-1.4.765-1.15.634-.01.007-.8.442M1074.03 653.437l.32.238.38.315M1075.61 654.796l.48.463.46.478"/><path d="m1077.84 657.184.06-.113.01-.048-.07-.138-.17-.223-.26-.299-.32-.365-.39-.416-.43-.451-.46-.468-.48-.468-.47-.45-.44-.414-.4-.362-.34-.296-.28-.22-.19-.134-.1-.043-.01.001-2 1.132-.57.322-.19.103"/><path d="m1071.1 653.409-.04-.016-.27-.056-.18.038-.44.248M1105.05 896.726l.01.007.06.058.12.106.15.152.2.19.22.222.25.245.26.259.26.263.26.256.24.24.21.215.18.181.13.14.09.094.04.044v.001l-.01-.007-.06-.058-.11-.107-.16-.152-.19-.19-.23-.222-.25-.245-.26-.259-.26-.262-.25-.256-.24-.24-.21-.214-.18-.181-.14-.14-.09-.095-.04-.045ZM1107.73 899.398l.55-.313M1104.93 894.942l-.22.389-.01.01.02.103.07.149.11.19.16.225.2.25.03.037M1122.72 885.791l-.26 1.46v.31l.06.321.12.32.19.307.24.281.29.245.32.2.34.146.34.088.35.025.32-.038.3-.099 1.26-.719M1126.59 888.638l.34-.213.28-.283.19-.342.1-.389.01-.42-.08-.435-.07-.162-.1-.271-.26-.415"/><path d="m1122.46 887.251.08-.288.14-.253.11-.111.09-.099.25-.157.3-.1.32-.038.34.025.35.087.34.147.32.2.29.245.24.281.19.307.12.32.06.322-.01.31-.07.288-.04.073-.1.18-.2.209-.25.158M1104.93 894.941l-.23.399M1105.77 895.41l-.21.385v.001l-.27.497v.002l-.24.43.04.044.09.095.14.14.18.181.21.214.24.24.25.256.26.263.26.258.25.245.23.222.19.191.16.151.11.107.06.058.01.007"/><path d="m1105.05 896.726.01.006.06.058.11.106.16.152.19.19.23.222.25.245.26.259.26.263.26.256.23.241.22.214.18.181.13.14.09.094.04.045M1107.23 895.604l-.24.483-.39.752v.002l-.08.164v.089l.05.136.1.176.15.211.19.237.13.146v.003l.1.105.25.262.27.258.27.247.25.209v.002l.02.013.25.193.23.156.2.11.15.063.11.012 1.83-1.089"/><path d="m1106.52 897.005.05-.04.11.012.15.063.2.111.23.155.25.193.27.224.05.045v.001l.23.201.26.259.26.262.22.254.03.029v.001l.16.207.16.211.1.177.05.135v.089l-.06.039M1109.72 894.773l-.01.002-.45.988-.16.332v.013l-.05.134.02.177.07.213.12.241.01.017.01.002.05.079v.001l.1.16.14.164.08.105.25.266.12.116.15.139.29.234.29.203.28.165.04.019.22.101.24.071.19.019v-.001l.15-.033 1.95-1.189M1113.83 897.511l.13-.115.06-.18-.02-.239-.09-.289-.17-.326-.23-.352-.3-.364"/><path d="m1109.1 896.108.01-.007v-.001l.09-.077.15-.034.18.017.01.001.23.071.27.12.28.164.29.204.29.233.27.256.25.267.21.268.18.26.12.241.07.213.01.177-.04.133-.1.086M1113.42 892.293l-.77 1.936-.02.216.04.248.1.27.15.282.21.282.24.272.28.251.3.222.31.182.31.137.29.086.27.032.23-.024.19-.078 1.79-1.099"/><path d="m1112.65 894.229.08-.177.14-.13.19-.079.23-.024.27.031.29.086.2.087.11.05.31.182.3.222.28.252.24.272.16.213.05.069.15.282.1.27.04.248-.02.217-.08.177-.14.13M1117.34 895.508l.19-.177.11-.239.03-.293-.06-.335-.13-.366-.21-.381M1117.73 889.336l-.54 1.77-.05.254.01.281.08.297.14.302.19.295.25.276.28.249.31.209.32.164.33.111.32.054.3-.005.27-.064.22-.12 1.5-.901.1-.059M1121.76 892.449l.23-.232.15-.294.07-.343-.02-.38-.1-.402-.19-.409-.26-.399"/><path d="m1117.19 891.106.11-.217.17-.172.23-.121.13-.033.13-.031.3-.005.32.054.33.111.33.163.31.21.28.249.24.277.2.295.14.302.08.297.01.188v.093l-.05.254-.11.217-.18.172M1128.38 881.492l.04 1.085.05.342.12.335.18.317.24.284.29.243.32.191.35.131.36.068.36.001.35-.066.31-.129.99-.482M1132.34 883.812l.37-.256.3-.326.22-.384.13-.427.03-.453-.06-.463-.16-.454-.25-.428-.32-.385"/><path d="m1128.43 882.578.02-.336.05-.155.04-.16.16-.284.22-.242.28-.189.31-.13.35-.066.36.001.36.067.35.132.32.191.29.242.24.285.18.317.12.336.05.342-.03.335-.09.316-.16.284-.15.168-.07.073-.28.19M1134.72 877.002l.29.546.18.324.24.288.29.24.33.184.36.121.37.052.37-.019.35-.088.59-.158M1138.09 878.492l.44-.208.39-.29.31-.36.24-.416.14-.457.05-.48-.06-.485-.15-.47-.24-.438-.32-.389"/><path d="m1135.01 877.549-.02-.071-.09-.276-.04-.359.03-.355.11-.338.17-.308.24-.266.28-.214.33-.154.36-.088.37-.019.37.052.36.12.33.184.29.241.23.287.18.325.11.348.04.358-.03.355-.11.338-.17.308-.24.266-.28.215-.25.114-.08.039M1142.75 872.302l-.33-.179-.29-.239-.24-.29-.18-.329-.11-.356-.03-.37.03-.368.11-.354.18-.325.24-.283.29-.232.34-.171.36-.103.37-.031.38.041.36.112.33.179.29.239.24.289.17.33.11.356.04.369-.04.369-.11.353-.18.325-.24.284-.29.232-.33.17-.36.103-.38.032-.37-.041-.36-.112Z"/><path d="m1142.51 872.433.48.152.51.055.51-.043.48-.139.45-.231.4-.313.32-.383.24-.439.15-.478.05-.498-.05-.5-.14-.481-.24-.445-.32-.392M1148.53 865.85l.44.238.49.146.5.048.5-.053.49-.15.44-.242.39-.326.32-.395.24-.451.14-.489.05-.507-.05-.508-.15-.487-.24-.449-.32-.392"/><path d="m1149.51 865.643-.33-.177-.29-.238-.24-.29-.18-.332-.11-.361-.04-.375.04-.376.1-.361.18-.334.23-.292.29-.241.33-.179.36-.111.37-.039.37.035.36.108.33.176.29.238.24.291.18.332.11.36.04.376-.04.375-.11.362-.17.333-.24.293-.28.241-.33.179-.36.111-.37.039-.38-.035-.35-.108ZM1180.11 820.379v-.001l-.02.004-.83.468-.34.195M1183.37 824.21l.02-.041-.03-.093-.07-.141-.13-.182-.17-.218-.2-.244-.09-.109v-.001l-.14-.152-.25-.269-.26-.266-.26-.253-.25-.229-.23-.199-.2-.159-.16-.113-.12-.064-.07-.011-.5.267-.74.391-.01.009M1182.58 823.665l-.1-.091M1183.37 824.21l-.07-.011-.12-.064"/><path d="m1180.96 821.922-.12-.182-.08-.14-.03-.093.03-.039v-.002M1182.87 826.446v-.001l.01-.137-.03-.183-.08-.221-.14-.252-.05-.077v-.001l-.12-.195-.21-.283-.24-.283-.13-.138v-.001l-.12-.132-.27-.249-.26-.218-.25-.179-.23-.131-.06-.024-.14-.056-.17-.026-.11.029v.002l-.14.068v.001l-.08.038-.49.24-.07.034-.91.446M1182.87 826.446v.001l-.07.084-.12.031-.16-.025-.2-.08-.23-.132-.02-.013v-.002"/><path d="m1180.6 824.84-.17-.273-.08-.155-.05-.097-.09-.222-.03-.165v-.017l.01-.089v-.001l.01-.047.06-.081.01-.003M1181.73 826.052l-.15-.124-.27-.25-.26-.272M1181.18 829.804l.01-.003.06-.178.01-.222-.05-.258-.1-.284-.14-.299-.08-.117v-.005l-.11-.182-.23-.295-.25-.276-.27-.246-.28-.207-.27-.16-.26-.106-.08-.017-.16-.032-.2.01-.16.069-2.02.873"/><path d="M1181.19 829.801v.001l-.12.125-.16.069-.2.011-.23-.049-.26-.106-.28-.16-.27-.207-.27-.247-.26-.276-.22-.296-.19-.303-.15-.3-.1-.284-.04-.258.01-.222.06-.177.11-.122v-.004M1158.3 855.951l.18.333.12.359.05.376-.03.377-.1.362-.16.333-.22.293-.28.241-.32.18-.34.112-.37.039-.36-.034-.35-.109-.33-.175-.29-.239-.24-.29-.18-.332-.12-.36-.04-.375.02-.377.1-.362.16-.334.23-.292.27-.242.32-.18.35-.112.36-.039.36.035.36.108.33.176.28.238.24.29Z"/><path d="M1158.04 858.989v-.003l.3-.396.22-.452.13-.489.04-.508-.06-.507-.16-.487-.24-.449-.33-.393M1154.47 859.012l.39.322.44.238.48.145.49.047.49-.053.47-.151.43-.243.37-.326v-.003"/><path d="m1158.48 856.289.12.36.04.376-.02.376-.1.362-.16.334-.23.293-.27.241-.32.18-.35.111-.36.04-.36-.035-.36-.108-.32-.176-.29-.238-.24-.29-.18-.332-.12-.361-.05-.375.03-.376.1-.362.16-.334.22-.293.28-.241.32-.18.35-.112.36-.039.36.035.35.108M1160.47 852.53l.39.323.43.241.47.15.47.053.47-.044.45-.142.02-.013M1181.18 829.802v.002l-.11.126-.16.07-.2.01-.24-.048-.26-.107-.27-.16-.28-.207-.27-.246-.25-.277-.23-.295-.19-.304-.14-.3-.1-.284-.05-.258.01-.222.07-.177M1181.21 829.147l-.1-.285M1180.07 831.666l1.12-1.861M1179.87 831.855l.04-.019.16-.171M1179.22 826.969l-.07-.015v-.001l-.17-.033M1182.63 825.654l.14.252.08.222.04.183-.02.135v.003l-.07.084-.12.03-.16-.025-.2-.08-.23-.131-.02-.017-.01-.002-.22-.16-.11-.089-.16-.129-.26-.25-.26-.271-.23-.283-.22-.284-.17-.273-.08-.155-.05-.097-.09-.221-.03-.17v-.013l.01-.091v-.002l.01-.043.07-.085.01-.002.11-.028"/><path d="M1182.58 825.577v-.001l-.12-.195-.21-.283-.24-.282-.13-.138-.12-.133-.27-.25-.26-.218-.25-.178-.23-.132-.06-.023-.14-.057-.16-.025M1181.68 828.45l.71-1.204.48-.799M1180.89 828.443l.05.024.27.108.22.033.16-.042.09-.116M1183.4 824.169l-.03.042-.07-.011-.12-.063-.17-.113-.2-.159-.23-.199-.1-.091v-.001l-.15-.138-.25-.253-.26-.266-.25-.269-.24-.262-.2-.245-.17-.217-.12-.183-.08-.14-.03-.092M1182.56 823.031l-.25-.269-.26-.266M1183.36 824.077l-.07-.14-.13-.183-.17-.217-.2-.245M1181.32 821.815l-.2-.159-.17-.114-.12-.063-.07-.012M1182.7 823.182l.08-.155-.03-.054-.08-.104-.13-.147-.17-.188-.2-.219-.24-.242-.25-.257-.27-.261-.26-.255-.25-.24-.23-.214-.2-.182-.17-.142-.12-.096-.07-.047M1179.27 820.85l-.2-.14-.23-.146-.21-.101-.04-.014M622.332 446.654l-.067-.068-.072-.071-.067-.067-.093-.093-.11-.11-.113-.113-.148-.148-.172-.172-.137-.136-.19-.19-.154-.154-.366-.367-.375-.375-.161-.161-.208-.208-.349-.349-.315-.315-.114-.114-.156-.156-.213-.214-.15-.149-.079-.08-.007-.007.001.001.066.066.138.137.126.126.078.078.261.261.136.136.173.172.344.345.367.367.376.376.37.369.349.35.315.315.27.27.213.214.149.149.079.079M634.369 416.715l-1.01 1.87-.146.418-.057.463.034.49.125.498.209.488.287.457.352.411.406.347.442.271.462.185.464.09.449-.006"/><path d="m633.359 418.585.229-.358.304-.283.212-.113.156-.084.416-.104.449-.007.465.09.463.185.443.271.405.348.353.411.287.458.21.488.124.498.034.491-.058.463-.146.418-.23.357-.083.077-.222.205-.367.197-.417.104M619.32 443.643l.173.173.345.345.367.367.376.376.37.369.349.35.315.315.27.27.213.214.149.149.078.079h.001l.004.005.001.001M621.161 445.486l-.153-.153-.366-.367-.375-.375-.162-.162M619.12 443.443l-.155-.155-.213-.214-.15-.149-.079-.08-.001-.001-.006-.006.067.067.138.137.125.125M622.332 446.655l.519-.286"/><path d="m622.191 446.515-.066-.066-.094-.094M621.808 446.132l-.147-.147-.173-.173M619.057 439.574l-.795 1.347.014.144.087.212.156.272.22.321.187.243.001.001.087.113.319.381.352.39.37.383.375.362.365.327.114.094.008.007.219.179.304.221.256.155.198.081.087.005.044.002.489-.254.002-.001"/><path d="m618.262 440.922.06-.071.131.005.197.082.255.154.305.221.117.096.001.001.224.183.365.327.376.363.352.365.002.001.017.018.313.347.039.043.32.382.243.317.032.041.219.321.156.271.086.212.013.144-.06.07M621.384 434.56l-1.695 2.823-.052.207.024.272.098.327.051.111.119.259.234.399.29.412.334.409.365.391.384.358.172.138.001.002.213.171.237.16.137.091.189.1.004.002.154.082.308.107.257.028.195-.053.46-.217.002-.001.09-.043"/><path d="m619.688 437.382.125-.132.194-.054.257.027.308.108.348.183.375.252.386.311.384.358.366.392.335.41.29.413.234.399.169.37.049.163.049.164.014.163.001.002.009.107-.052.206-.128.131M624.344 429.708l-1.566 2.61-.116.264-.037.328.043.379.121.416.194.436.261.441.317.427.216.238.145.161.391.354.259.188.148.107.405.226.39.148.359.065.315-.022"/><path d="m622.777 432.318.19-.189.257-.109.314-.023.36.064.39.148.406.226.137.1.27.196.392.354.362.399.317.429.261.441.016.035.178.402.121.416.042.379-.038.327-.116.264-.191.189-.257.108M628.819 423.538l-1.362 2.332-.176.314-.095.378-.01.424.076.457.157.47.234.466.301.444.357.404.398.351.426.282.435.204.43.116.406.026.368-.067"/><path d="m627.457 425.87.25-.241.315-.157.368-.067.109.007.298.018.429.116.437.204.426.282.399.351.357.406.301.444.234.467.157.471.075.456-.01.425-.029.115-.066.262-.177.314-.25.24-.316.156M641.384 408.541l-.663 1.477-.19.45-.097.492v.516l.096.52.189.503.274.468.35.415.41.345.457.263.485.17.494.071"/><path d="m640.719 410.018.275-.39.047-.042.302-.273.412-.228.457-.133.485-.031.495.07.485.17.457.263.411.346.35.415.274.468.189.504.096.52-.001.517-.097.492-.19.45-.275.389-.35.315-.412.228-.154.044-.303.088-.485.031M648.922 401.03l-.148.709-.028.532.074.534.173.514.264.475.347.418.415.344.468.257"/><path d="m648.773 401.739.128-.512.011-.024.212-.446.311-.411.385-.336.446-.248.489-.151.513-.047.518.058.503.16.468.258.415.344.347.418.264.475.173.515.074.534-.028.532-.128.512-.224.47-.311.411-.386.335-.445.248-.489.151-.513.047-.518-.058-.32-.103-.182-.058M659.587 395.195l-.475-.255-.418-.343-.345-.419-.258-.478-.161-.519-.059-.54.046-.539.149-.52.247-.479.335-.419.41-.345.469-.256.511-.159.532-.054.533.053.515.157.475.255.418.343.345.419.258.479.161.518.059.54-.046.54-.15.52-.247.478-.335.42-.41.345-.469.256-.51.158-.533.054-.533-.053-.514-.157ZM669.203 385.453l-.479-.256-.419-.344-.344-.419-.254-.477-.156-.517-.051-.538.055-.537.16-.516.259-.475.346-.416.422-.34.481-.253.521-.155.542-.051.541.055.52.159.478.256.42.344.343.419.255.477.155.517.052.537-.056.537-.16.516-.258.475-.347.416-.422.341-.48.253-.521.155-.542.051-.541-.055-.52-.159ZM731.184 339.546l.195-.343-.001-.002M729.592 339.26l.251-.466.231-.427-.026-.11-.1-.177-.171-.237-.111-.138-.004-.005-.118-.146-.289-.329-.332-.358-.362-.371-.38-.371-.13-.121-.004-.004-.248-.232-.34-.302-.002-.001-.028-.025-.343-.288-.304-.237-.252-.175-.191-.108-.123-.036"/><path d="m730.072 338.367-.004.002-.045.035h-.002l-.121-.035-.19-.107-.252-.176-.304-.236-.344-.288-.37-.329-.383-.357-.38-.372-.363-.372-.333-.358-.028-.032-.001-.001-.259-.297-.234-.289-.17-.237-.1-.177-.025-.108.049-.037M726.867 339.709l.105-.209.001-.002.085-.171.001-.001.082-.164.034-.173-.045-.235-.122-.29-.195-.332-.047-.065-.213-.297-.316-.378-.358-.379-.388-.367-.074-.062-.001-.001-.327-.276-.401-.3-.385-.247-.062-.033-.292-.154-.309-.119-.253-.045-.186.029-.002.001"/><path d="m727.139 339.162-.005.004-.108.1h-.002l-.024.004-.159.026-.077-.015h-.003l-.172-.031-.269-.103h-.002l-.038-.015-.354-.187-.386-.248-.003-.002-.399-.297-.403-.339-.388-.369-.359-.38-.316-.378-.26-.363-.133-.227h-.001l-.027-.048-.001-.001-.033-.056-.122-.289-.044-.236.035-.172.112-.101.001-.001M722.634 341.615l.091-.235.007-.293-.032-.137-.001-.006-.045-.198-.158-.374-.234-.394-.299-.398-.355-.388-.395-.362-.421-.322-.431-.271-.022-.011-.006-.002-.396-.195-.401-.138-.363-.063-.311.016-.246.093-2.698 1.592"/><path d="m722.633 341.615-.006.006-.166.162-.003.001-.242.092-.31.017-.363-.062-.401-.138-.425-.208-.432-.271-.422-.323-.396-.362-.355-.388-.3-.4-.233-.394-.158-.375-.077-.34.008-.293.091-.235.171-.165.001-.001M716.815 345.379l.054-.348-.037-.389-.125-.414-.21-.424-.286-.418-.35-.395-.403-.358-.438-.306-.458-.244-.46-.17-.443-.092-.411-.009-.363.073-.3.154-2.44 1.416"/><path d="m716.817 345.378-.018.037-.124.257-.225.229-.004.001-.295.153-.363.075-.209-.005h-.008l-.194-.004-.444-.091-.46-.171-.459-.243-.439-.307-.403-.358-.351-.396-.286-.419-.209-.424-.126-.415v-.009l-.001-.007-.035-.373.055-.348.143-.294.223-.225.002-.003M709.617 350.876l.094-.398-.002-.433-.097-.451-.189-.451-.274-.436-.348-.402-.408-.354-.453-.291-.481-.218-.49-.137-.48-.049-.453.039-.407.127-2 1.096"/><path d="m709.616 350.876-.01.02-.176.328-.27.284-.004.003-.117.071-.007.004-.218.132-.406.128-.453.04-.481-.049-.49-.137-.482-.218-.454-.292-.409-.354-.348-.403-.274-.436-.189-.452-.097-.451-.001-.433.085-.359.001-.006.008-.033.187-.348.268-.281.003-.003.316-.191.03-.018M701.471 357.274l.025-.471-.075-.483-.173-.476-.264-.45-.345-.409-.413-.35-.465-.278-.5-.197-.514-.107-.509-.013-.486.082-.442.173-1.619.772"/><path d="m701.474 357.274-.01.035-.116.406-.087.156-.007.012-.126.226-.307.333-.005.003-.377.255-.442.173-.486.082-.509-.012-.515-.107-.5-.196-.466-.279-.413-.351-.346-.408-.264-.452-.173-.476-.075-.483.026-.471.126-.441.221-.395.111-.12.006-.006.187-.202.004-.004.367-.247.015-.01M692.395 364.198l-.162-.495-.258-.463-.344-.413-.416-.348-.474-.268-.512-.179-.531-.082-.53.016-.508.116-1.039.325"/><path d="m692.397 364.198.008.073.036.307.004.031.011.097-.045.502-.147.476-.245.432-.333.372-.004.003-.403.293-.467.211-.508.116-.53.017-.532-.083-.512-.179-.474-.268-.417-.348-.344-.413-.258-.463-.162-.496-.059-.508.045-.502.148-.477.245-.431.329-.368.004-.004.408-.296.041-.019.025-.011.365-.164.036-.016M682.408 371.998l.254.471.156.51.052.526-.055.524-.159.502-.258.459-.346.4-.005.003-.416.321-.48.238-.52.14-.541.039-.541-.065-.519-.166-.478-.261-.419-.346-.344-.416-.254-.472-.156-.51-.051-.527.055-.524.159-.501.258-.46.343-.395.003-.004.421-.325.48-.237.521-.14.54-.038.541.065.519.166.478.261.419.345.343.417Z"/><path d="m680.101 370.752.54.065.519.166.478.261.419.345.343.417.255.472.156.509.051.526-.055.524-.159.502-.258.459-.342.395-.003.005-.421.324-.48.238-.521.14-.541.039-.54-.065-.519-.166-.479-.261-.419-.346-.343-.416-.255-.472-.155-.51-.052-.527.055-.524.16-.501.258-.46.346-.399.005-.004.416-.321.48-.237.52-.14M692.008 366.123l-.329.368-.004.004-.407.297-.467.21-.508.116-.53.017-.532-.082-.513-.179-.474-.269-.417-.347-.344-.414-.257-.463-.162-.495-.06-.509.046-.502.148-.476.245-.432.333-.371.004-.004.404-.293.066-.03.025-.011M688.652 362.089l.509-.115.529-.017.532.083.512.179.473.268.417.347.344.413.258.463.161.495.042.353.003.028.015.127-.045.502-.148.476M701.488 356.809l-.026.471-.125.441-.081.145-.007.012-.133.238-.304.329-.003.003-.382.258-.442.174-.485.082-.51-.013-.515-.106-.5-.197-.465-.279-.414-.35-.346-.409-.264-.451-.173-.476-.075-.483.026-.472.126-.441.222-.394.116-.126.006-.007.185-.199.004-.003.378-.255.443-.173.485-.081.509.013M700.633 354.992l.345.408.265.451.173.476M709.156 351.511l-.003.003-.114.069-.007.004-.225.137-.406.127-.453.04-.48-.049-.491-.136-.482-.218-.454-.292-.409-.354-.348-.403-.273-.436-.19-.453-.097-.451-.001-.433.087-.364.001-.007.007-.027.186-.347.271-.284.004-.003M707.453 347.447l.481.218.453.292.409.354.347.402.274.435.189.452.097.451M709.705 350.484l-.094.398-.185.347M705.621 347.427l.407-.127M706.48 347.261l.48.05M716.666 345.677l-.223.226-.002.003-.299.154-.362.075-.202-.004-.008-.001-.201-.004-.445-.091-.46-.171-.458-.243-.44-.307-.403-.358-.351-.396-.286-.418-.209-.425-.125-.415-.002-.015v-.006l-.034-.368.054-.348.143-.293.226-.229.003-.001.296-.152M716.492 343.808l.21.424.125.414.037.389-.054.348M712.582 342.042l-2.422 1.405M713.652 341.824l.444.092M722.727 341.09l-.007.293-.091.235-.17.166-.001.002-.246.093-.31.017-.362-.062-.402-.138-.425-.208-.431-.271-.422-.323-.396-.363-.355-.388-.3-.399-.234-.395-.158-.374-.077-.341.008-.293.092-.234.172-.167.003-.001.243-.092.31-.016.363.063M720.336 338.231l.006.003.013.006.431.271.421.322.396.362.354.388.3.398.233.394M718.611 337.94l-2.693 1.589M726.763 338.068l.047.066.195.332.123.289.044.236-.034.172-.111.103-.001.001-.022.003h-.001l-.163.026-.071-.012-.002-.001-.179-.032-.261-.099-.001-.001-.047-.018-.354-.186-.385-.248-.003-.002-.399-.298-.403-.34-.389-.367-.359-.38-.315-.379-.26-.362-.135-.23-.001-.001-.026-.044-.033-.058-.122-.289-.044-.235.035-.172.111-.102.001-.001h.002l.185-.029.252.046.31.118M724.301 335.761l.385.248.401.299.327.277.001.001.074.062.388.366.358.38.315.378M723.197 335.439l-2.888 1.695M730.023 338.404l-.123-.035-.19-.107-.252-.176-.304-.236-.344-.288-.37-.329-.383-.357-.38-.372-.363-.372-.333-.358-.027-.032-.001-.001-.26-.297-.234-.289-.17-.237-.1-.177-.025-.108.044-.033.006-.004h.001M729.25 337.226l.289.329.11.137.004.005M726.211 334.596l-1.911 1.095-.062.036M727.082 335.152l.343.288.029.025.001.001.34.302.259.242M731.377 339.201l-.057-.1-.128-.168-.193-.232-.252-.285-.301-.328-.338-.358-.362-.374-.372-.377-.368-.363-.349-.338-.318-.297-.274-.247-.219-.186-.156-.118-.088-.046M727.605 335.384l-.148.081M629.903 461.913l-.438.77.075.076.151.153.222.223.284.285.079.079.256.257.374.374.397.398.192.191.215.215.399.399.239.238.138.138.105.105.234.234.29.288.229.228.159.157.082.081h.001M634.406 466.354l.158.12.341.233.289.164.224.09.151.011.002-.001.003-.002.336-.19M646.889 434.809l-1.08 2.048-.16.451-.063.5.036.529.134.539.226.527.31.495.382.445.44.377.48.294.501.201.505.1.149-.002.339-.003.356-.077 1.875-.406"/><path d="m645.809 436.856.25-.385.332-.304.201-.107.198-.105.453-.111.488-.006.505.1.503.201.48.295.44.377.383.445.31.496.226.528.134.539.035.53-.063.499-.161.451-.251.385-.064.059-.268.245-.399.211-.453.11M635.57 466.971l.339-.193M632.348 465.571l.138.139.105.104M633.586 466.802v.001l.004.002M633.59 466.805l.817-.451.002-.001.733-.405.002-.001.152-.083M630.273 463.499l.257.258.374.374.397.398.191.19M630.927 457.858l-.475.808-1.202 2.045.012.152.092.226.167.29.236.344.147.19v.001l.149.194.345.41.38.421.4.414.406.392.396.355.279.23.011.009.08.066.331.242.279.171.216.092.144.011.6-.313.002-.001.392-.204 1.336-.697"/><path d="m629.25 460.712.066-.073.144.01.215.092.279.17.331.242.035.029.001.001.335.275.397.356.407.393.219.227.001.002.181.186.38.421.344.41.001.001.296.386.236.344.167.29.091.225.012.151-.068.072M632.677 453.914l-1.347 2.259-.483.809-.058.22.023.291.051.168.054.183.007.014.175.384.253.429.312.444.361.442.396.423.381.356.002.001.032.031.419.337.395.267.011.008.298.159.006.003.074.039.335.12.28.033.214-.053.332-.16.004-.001.274-.132.015-.007.002-.001 1.689-.809"/><path d="m630.848 456.982.139-.139.213-.055.279.033.336.119.244.13.134.071.407.275.419.338.416.388.397.424.361.443.313.445.252.43.182.398.037.125.057.193.001.003.009.03.023.29-.059.219-.139.139M635.935 448.749l-1.687 2.842-.118.261-.01.021-.042.352.044.408.002.007.128.44.209.471.282.475.258.348.085.115.125.138.266.293.119.108.304.275.36.263.081.059.441.246.423.163.391.072.342-.021.281-.113 3.083-1.3"/><path d="m634.25 451.591.208-.202.28-.114.342-.022.391.072.424.162.442.247.147.107.294.215.425.384.349.385.042.047.343.463.057.095.221.374.004.007.21.471.129.448.043.408-.043.351-.128.282-.209.201M640.832 442.143l-1.464 2.544-.192.338-.105.406-.012.458.08.492.17.507.253.504.325.48.095.107.291.331.057.05.375.33.462.307.473.222.466.128.442.031.139-.025.262-.045 1.348-.455"/><path d="m639.367 444.686.273-.258.344-.167.4-.07.099.006.343.023.467.128.474.222.462.307.433.381.386.439.326.481.253.504.169.508.08.493-.013.457-.025.099-.076.291-.004.016-.193.338-.274.257-.343.166M654.528 425.998l-.702 1.623-.207.486-.106.533-.001.558.103.562.204.545.297.507.379.449.445.375.496.285.526.185.537.078 1.64-.021"/><path d="m653.824 427.621.299-.421.019-.016.362-.324.447-.245.497-.142.527-.033.537.077.527.185.496.286.446.375.378.45.297.507.205.546.103.563-.002.558-.106.532-.208.486-.299.421-.381.339-.448.245-.134.039-.363.103-.526.032M662.728 417.885l-.023.129-.001.001-.024.138-.001.006-.001.003-.001.005-.091.511-.031.577.08.578.187.557.287.515.375.452.45.373.508.28.793.377"/><path d="m662.586 418.678.126-.501.005-.02.002-.005v-.003l.002-.005.004-.02.092-.191.152-.317.337-.445.254-.22.165-.143.484-.268.531-.163.238-.021.004-.001.316-.028.562.063.545.174.508.28.45.373.376.453.287.515.187.558.079.578-.031.577-.14.554-.243.508-.338.445-.419.363-.484.268-.531.162-.557.05-.562-.063-.286-.092-.259-.083M674.325 411.602l-.515-.277-.454-.373-.373-.454-.28-.518-.124-.398v-.001l-.051-.164-.054-.498-.009-.087.05-.585.162-.563.215-.416.053-.103.363-.454.445-.374.228-.124.008-.004.273-.149.554-.172.578-.058.579.057.558.17.515.277.454.373.373.454.28.519.175.562.063.585-.05.586-.162.563-.269.518-.363.455-.445.374-.509.277-.554.171-.578.058-.578-.057-.558-.17ZM684.757 401.041l-.519-.278-.455-.373-.372-.454-.276-.517-.17-.561-.052-.548-.003-.035.013-.127.047-.456.173-.559.28-.516.376-.451.457-.37.521-.274.565-.168.587-.055.587.059.564.172.519.278.454.373.373.454.276.517.169.561.056.583-.06.582-.173.56-.28.516-.376.451-.457.37-.521.274-.565.168-.588.056-.586-.06-.564-.172ZM750.637 352.021l.03-.052.835-1.471-.001-.001M748.982 351.886l.388-.718.268-.492.552-1.024-.031-.12-.112-.194-.138-.191-.003-.004-.047-.063-.255-.315-.315-.357-.36-.387-.393-.402-.411-.402-.401-.375-.003-.003-.007-.007-.399-.355-.034-.029-.001-.001-.333-.28-.325-.254-.269-.188-.203-.114-.129-.037"/><path d="m750.193 349.652-.003.004-.045.04-.002-.001-.126-.035-.203-.114-.269-.188-.325-.253-.369-.311-.399-.355-.413-.386-.411-.402-.394-.403-.361-.388-.111-.126-.001-.001-.202-.231-.256-.314-.187-.259-.111-.193-.032-.12.049-.042M746.377 352.059l.154-.306.26-.519.001-.001.126-.251.001-.001.088-.177h.001l.115-.23.033-.189-.052-.257-.136-.315-.213-.361-.065-.091-.154-.213-.065-.089-.342-.41-.389-.411-.419-.397-.228-.192-.001-.001-.205-.173-.433-.324-.414-.266-.162-.086-.218-.115-.331-.126-.269-.047-.198.033-.003.002"/><path d="m747.124 350.574-.005.005-.112.109h-.002l-.094.017-.101.017-.158-.027h-.003l-.108-.019-.331-.126-.171-.09-.002-.001-.207-.109-.415-.267-.284-.212-.149-.111-.435-.368-.42-.397-.389-.412-.343-.41-.284-.394-.17-.288-.001-.002-.043-.071-.019-.046-.001-.001-.115-.268-.051-.257.027-.15.007-.038.117-.112.001-.002M741.572 355.012l.191-.425.584-1.297.094-.257.005-.319-.03-.128-.002-.005-.055-.238-.174-.406-.255-.428-.325-.432-.384-.42-.428-.392-.157-.12-.298-.228-.465-.292-.089-.044-.007-.003-.048-.024-.313-.154-.432-.147-.389-.066-.333.019-.262.103-.165.096-1.464.857-1.305.764"/><path d="m742.35 353.29-.007.006-.175.178-.003.001-.259.103-.332.019-.39-.065-.432-.147-.457-.224-.466-.292-.456-.35-.165-.151-.263-.241-.349-.381-.036-.04-.326-.433-.255-.428-.174-.407-.086-.371.005-.319.096-.256.181-.181.002-.002M735.084 360.213l1.049-2.794.055-.379-.024-.245-.018-.178-.138-.45-.126-.253-.103-.208-.31-.453-.38-.428-.436-.387-.177-.124-.297-.208-.235-.124-.259-.138-.496-.184-.479-.098-.442-.008-.389.082-.322.169-2.659 1.524"/><path d="m736.134 357.419-.022.047-.129.273-.24.25-.004.002-.317.168-.325.069-.064.014-.257-.005h-.008l-.178-.003-.262-.053-.216-.044-.497-.184-.495-.262-.475-.332-.436-.388-.381-.429-.311-.454-.228-.461-.138-.451-.002-.021-.001-.008-.039-.394.056-.379.152-.32.238-.246.003-.003M727.747 365.918l.669-2.49.099-.433-.004-.47-.07-.319-.037-.171-.147-.347-.06-.144-.297-.472-.377-.436-.442-.383-.491-.316-.519-.235-.53-.147-.518-.052-.488.044-.438.139-2.187 1.175"/><path d="m728.415 363.429-.012.023-.187.356-.29.31-.005.003-.152.094-.008.004-.207.128-.438.14-.488.045-.519-.051-.53-.147-.52-.236-.491-.315-.443-.384-.378-.437-.297-.473-.207-.491-.107-.49-.003-.471.094-.41.002-.006.004-.017.199-.379.288-.306.004-.003.345-.213.027-.016M719.458 372.344l.192-1.938.026-.512-.083-.524-.189-.517-.287-.488-.374-.443-.448-.38-.503-.301-.541-.212-.556-.115-.55-.013-.524.09-.478.189-1.776.821"/><path d="m719.649 370.406-.012.041-.123.438-.114.208-.007.013-.115.209-.331.362-.005.003-.407.278-.477.189-.524.091-.551-.013-.557-.114-.541-.212-.504-.302-.448-.38-.375-.443-.287-.49-.189-.517-.082-.524.027-.512.134-.48.238-.429.148-.162.006-.007.173-.189.004-.004.397-.27.015-.01M710.127 379.086l-.272-1.138-.176-.537-.28-.503-.373-.448-.451-.376-.513-.291-.555-.193-.575-.089-.573.019-.55.127-1.149.334"/><path d="m709.857 377.948.011.09.047.395.006.055.002.012-.048.545-.158.517-.264.47-.359.404-.005.003-.436.32-.504.229-.55.127-.574.019-.575-.088-.555-.194-.514-.29-.452-.377-.373-.448-.28-.503-.176-.538-.065-.552.048-.545.159-.518.264-.469.356-.4.004-.004.44-.323.129-.058.019-.009.323-.146.034-.015M699.061 386.432l.276.512.17.552.056.572-.059.569-.172.544-.278.499-.374.434-.006.004-.45.349-.52.258-.563.153-.586.043-.586-.07-.563-.18-.518-.283-.454-.374-.373-.452-.276-.512-.169-.553-.057-.572.06-.569.172-.544.279-.499.37-.429.004-.005.456-.353.52-.258.563-.152.586-.042.585.07.563.18.518.282.454.374.372.452Z"/><path d="m698.675 390.118-.004.005-.455.353-.52.258-.564.153-.585.042-.586-.07-.563-.179-.518-.283-.454-.374-.373-.453-.276-.512-.17-.552-.056-.572.059-.569.173-.545.278-.498.375-.434.005-.004M697.707 385.332l.518.283.454.374.373.452.276.512M699.552 388.077l-.059.569-.172.544-.278.499M694.891 385.535l.519-.258.564-.153.585-.042.586.071M709.086 380.439l-.004.005-.441.323-.504.229-.55.127-.574.019-.575-.088-.555-.194-.514-.29-.452-.377-.373-.448-.28-.503-.176-.538-.065-.552.048-.545.159-.518.264-.469.36-.404.005-.004M709.391 376.916l.28.503.176.537M709.865 379.053l-.158.517M705.801 375.665l.55-.127M707.5 375.608l.555.193.513.291M718.942 371.68l-.003.004-.412.281-.477.19-.525.09-.551-.012-.556-.115-.541-.212-.504-.302-.448-.38-.375-.443-.287-.49-.189-.517-.082-.524.026-.512.135-.48.238-.429.154-.169.006-.006.171-.187.004-.003.408-.277.477-.189M717.781 367.248l.504.302.447.379.375.443.287.489M719.586 369.377l.082.524-.026.512M716.137 366.908l.55.013.556.115M728.189 361.55l.061.146.145.345.038.174.07.316.004.47-.099.433-.199.379-.288.307-.003.003-.149.092-.007.005-.215.132-.438.14-.488.045-.047-.004-.472-.047-.024-.007-.506-.14-.521-.236-.491-.315-.443-.384-.377-.437-.298-.473-.206-.491-.107-.49-.004-.471.096-.416.002-.007.002-.01.2-.379.291-.309.004-.003M724.09 359.692l.439-.139M725.016 359.509l.519.052.529.147.52.235M735.979 357.745l-.238.247-.002.003-.321.17-.322.068-.067.014-.248-.004h-.009l-.186-.003-.259-.053-.219-.045-.497-.183-.495-.263-.475-.331-.247-.22-.189-.168-.172-.193-.209-.236-.311-.454-.228-.462-.138-.45-.003-.029-.001-.007-.038-.387.056-.379.152-.32.241-.25.003-.001M733.941 353.988l.232.123.299.209.175.122.435.388.38.428.311.453.104.21M736.141 356.622l.018.181.024.242M731.553 353.81l-2.631 1.508-.024.014M732.707 353.567l.479.098.495.184M742.162 353.475l-.002.002-.262.104-.332.02-.39-.065-.431-.148-.458-.224-.466-.292-.456-.349-.164-.15-.264-.243-.347-.379-.038-.042-.326-.432-.255-.429-.174-.407-.086-.37.005-.32.096-.256.183-.183.003-.001M739.867 349.627l.465.292.3.23.155.119.428.391.384.42.325.432M742.356 352.346l.053.228.002.005.032.137-.004.32-.095.256M737.994 349.312l-.16.094-1.464.857-1.304.762M738.258 349.208l.332-.019.389.066.432.148.316.155M747.005 350.688l-.002.002-.091.016h-.001l-.105.018-.152-.026-.002-.001-.115-.019-.331-.126-.161-.085-.002-.001-.217-.114-.414-.267-.284-.212-.15-.111-.435-.368-.42-.397-.389-.412-.343-.411-.284-.393-.173-.293v-.001l-.04-.067-.02-.046v-.001l-.115-.269-.052-.256.028-.154.006-.035.117-.112.001-.001h.003l.195-.034.27.048.331.126.217.114.001.001.162.085.414.267M746.684 349.355l.071.098.214.361.135.315.053.257"/><path d="m742.861 346.546-.184.108-.322.188-1.819 1.062-.809.473M750.045 349.338l.112.194.032.121-.048.042v.001l-.128-.036-.203-.114-.269-.188-.325-.253-.369-.311-.399-.355-.413-.386-.411-.402-.394-.403-.361-.388-.11-.125-.001-.001-.203-.232-.256-.314-.187-.259-.111-.193-.032-.12.046-.039.004-.003h.001l.128.037.203.115.269.187.325.254.334.281M747.73 346.852l.392.366.411.402.392.402.361.387.314.357.256.315.041.056.002.004M746.019 345.574l-2.14 1.225M747.312 346.479l.398.354M751.501 350.497l-.057-.106-.134-.18-.206-.248-.269-.307-.323-.353-.363-.386-.39-.405-.402-.407-.399-.393-.379-.366-.346-.323-.299-.268-.24-.203-.173-.13-.099-.052M747.422 346.37l-.141.077M875.878 445.357l2.564-2.505.769-3.4-2.547-3.627-3.529-5.941-6.801-5.691-7.751-6.319-.516-.421-7.076-7.067-.289-.289-5.837-5.742-6.602-5.812-7.105-5.648-7.321-5.255-7.243-4.651-6.872-3.862-8.789-4.771-2.025-1.099-8.789-4.771-1.049-.57"/><path d="m798.908 373.257-8.41-5.411-7.125-4.583-5.244-1.895-3.031-.585-4.75 4.532"/><path d="m858.069 417.454-7.906-6.124-1.639-1.269-8.075-5.899-2.436-1.779-8.521-5.234-3.075-1.888-8.123-5.833-2.599-1.866-7.635-6.457-1.768-1.496-8.178-5.754-1.002-.705-8.04-5.233-5.697-4.653M966.14 809.556l-.657 9.978-.657 9.979-.658 9.978-.657 9.978-.5 7.601-.658 9.978-.657 9.979-.657 9.978-.657 9.978-.657 9.979-.658 9.978-.657 9.978-.657 9.979-.237 3.596 7.584 6.518 7.584 6.517 7.584 6.518 7.584 6.518 7.584 6.518 7.584 6.518 7.58 6.518 7.59 6.518 5.76 4.955 7.93 6.099 7.43 5.72 7.92 6.11 7.43 5.71 7.92 6.1 7.42 5.72 7.92 6.1 7.42 5.71 2.22.16 6.78-7.35 1.48-1.6-3.7-9.29-3.7-9.29-2.95-7.41-3.26-9.46-3.25-9.454-2.8-8.136-3.53-9.355-3.54-9.355-2.86-7.588-.88-9.961-.88-9.962-.88-9.961-.33-3.747 4.48-8.94 4.48-8.941 4.48-8.94 4.48-8.941 3.29-6.56-8.51-5.252-8.51-5.252-8.51-5.252-8.51-5.252-8.51-5.252-8.51-5.252-8.51-5.252-8.51-5.252-8.51-5.252-8.511-5.252-8.51-5.252-8.509-5.252-8.51-5.252-5.941-3.667-1.759.72Z"/><path d="m967.899 808.836-.657 9.978-.656 9.979-.656 9.978-.656 9.979-.511 7.777-.656 9.979-.656 9.978-.656 9.978-.656 9.979-.656 9.978-.656 9.979-.656 9.978-.656 9.979-.257 3.909M957.516 940.493l1.742-.229 7.584 6.518 7.584 6.518 7.583 6.518 7.584 6.518 7.584 6.518 7.583 6.518 7.58 6.518 7.59 6.518 6.02 5.172 7.92 6.1 7.49 5.77 7.92 6.1 7.49 5.76 7.92 6.1 7.48 5.76 7.92 6.1 7.47 5.75M1201.28 775.482l9.97.71 9.98.709 9.97.71.66.046 9.36 3.505 9.37 3.504 6.14 2.299 9.47 3.214 9.47 3.215 6.49 2.204 9.3 3.681 9.3 3.681 5.81 2.301 2.97-.72 6.79-7.348 1-1.089-6.14-7.892-5.53-7.112-6.15-7.892-5.53-7.105-6.14-7.892-5.52-7.098-6.14-7.892-5.52-7.092-6.54-7.566-6.54-7.566-6.54-7.566-6.54-7.566-6.54-7.566-6.54-7.566-6.53-7.566-6.54-7.566-3.55-4.104-9.97.778-9.97.777-9.97.777-9.97.778-9.97.777-9.97.778-9.97.777-8.47.661-9.97.778-9.97.777-9.97.778-9.97.777-5.49.428-.19.102"/><path d="m1091.17 681.139 5.3 8.481 5.3 8.481 5.3 8.482 5.29 8.481 5.3 8.481 5.3 8.481 5.3 8.482 5.3 8.481 5.29 8.481 5.3 8.482 5.3 8.481 5.3 8.481 5.29 8.481 3.45 5.518"/><path d="m1161.19 797.619 2.3-.707 8.7-4.933 8.7-4.934 8.7-4.934 8.7-4.933 2.98-1.696 1.6-.905M1202.87 774.577l9.98.71 9.97.71 9.98.71 1.76.126 9.37 3.505 9.37 3.506 6.23 2.332 9.47 3.215 9.46 3.215 6.59 2.236 9.3 3.682 9.29 3.681 5.9 2.336M1544.41 451.387l5.07 1.981 8.83 2.687 9.71 2.385 6.55 1.61 9.21 1.813 9.93 1.201 7.87.952 9.24.669 10 .068 8.91.061 8.92-.689 9.95-1.029 9.62-.995 9.78-2.079 9.67-2.056 8.6-2.295 9.51-3.092 9.51-3.092.37-.118 9.14-4.057 9.14-4.057.51-.227 7.61-3.982 8.67-4.976 8.68-4.976.69-.396 8.12-5.836 8.12-5.837.75-.537 7.47-6.639 7.48-6.639.79-.703 6.03-5.449 6.76-7.373 6.76-7.373.67-.732 5.95-8.034 5.96-8.034.64-.866 4.21-6.537 5.09-8.611 5.08-8.612.41-.701 4.14-9.103 4.14-9.103.36-.786 2.43-7.136 3.14-9.493 3.15-9.493.13-.402 2.08-9.78 2.08-9.781.1-.454.88-7.163.98-9.951.97-9.814-.16-9.999-.03-2.197-.13-7.735-.27-6.582-1.35-9.91-1.23-9.113-1.09-6.39-2.56-9.667-1.55-5.83M1814.54 112.233l-3.65-4.89-3.87-4.887-4.13-4.849-4.29-4.773-4.47-4.634-4.56-4.486-4.63-4.25-4.66-4.037-4.64-3.712-4.59-3.44M1704.56 34.03l-3.34-1.162-6.52-1.845-9.77-2.133-8.99-1.962-6.81-1.113-9.95-1.023-9.92-1.02-6.84-.113-10 .065-10 .066-.6.004-9.94 1.12-9.94 1.12-.5.055-7.18 1.216-9.76 2.147-9.77 2.147-.93.203-9.49 3.135-9.5 3.136-.78.257-6.96 2.885-9.13 4.087-9.12 4.086-.98.438-8.67 4.986-8.67 4.986-.78.451-8.12 5.837-8.12 5.837-.61.437-6.42 4.84-7.49 6.627-7.49 6.627-.55.491-6.78 7.354-6.77 7.354-.37.395-5.16 6.533-5.99 8.008-5.99 8.008-.19.26-5.13 8.586-5.17 8.658-3.66 7.874-4.2 9.074-4.06 8.759-3.2 9.473-3.01 8.898-2.09 8.656-2.15 9.766-1.88 8.527-1.03 9.947-.88 8.445-.65 8.717.14 9.999.11 7.616.52 8.867 1.38 9.905.91 6.5 1.47 8.657 2.47 9.257.19.69 2.55 9.07"/><path d="m1409.75 305.729-1.53 9.883-.99 6.431.2 7.262 2.25 9.179 4.1 9.119 2.72 6.045 5.2 8.544 2.48 4.085 5.71 8.21 3.3 4.749 6.11 7.922 3.56 4.625 6.7 7.428 6.69 7.429 1.19 1.318 7.33 6.805 5.54 5.145 7.7 6.374 4.33 3.585 8.04 5.947 3.99 2.949 8.6 5.108 5.07 3.015 9.32 3.633 1.69.657 7.61 1.12 9.99-.511 7.76-.397"/><path d="m1535.61 447.874-7.71-3.039-8.58-5.135-7.23-4.326-8.03-5.962-5.93-4.4-7.7-6.381-6.29-5.218-7.33-6.807-6.87-6.386-.78-.721-6.7-7.425-6.69-7.425-1.97-2.184-1.61-1.786-6.12-7.914-5.15-6.669-5.72-8.201-4.78-6.847-5.22-8.527-3.73-6.093-4.14-9.103-3.82-8.401-1.06-4.229M1848.68 150.521l-.68 1.136-1.23.559-1.79-.039-2.34-.656-2.9-1.283-2.99-1.446-.94.045-2.2.105-3.12-1.598-1.52-.78-5.29-3.724-4.96-3.901-6.03-4.727-6.34-5.288-5.8-5.027-6.72-5.98-5.92-5.428-6.95-6.559-6.07-5.751-6.66-6.648-6.03-6.155-5.93-6.213-5.86-6.5-4.07-6.16-2.26-4.725-4.29-4.98-3.87-4.92-3.29-4.525-.33-.51-2.37-3.58-1.21-2.103-.89-1.534-1.13-3.017 1.8-1.557 1.28-1.324.62-1.369 1.33-.702 1.26-.166 1.74.275 2.17.695 2.6 1.097 4.38 2.261 4.33 2.568 4.59 2.77 4.57 2.932 5.39 3.697 6.46 4.826 4.67 3.737 4.64 3.847 5.17 4.465 6.83 6.29 4.54 4.441 4.51 4.544 4.69 4.885 6.48 7.18 4.37 5.136 4.17 5.095 4.13 5.231 4.87 5.901 4.31 5.505 3.2 4.185 2.89 3.925 2.55 3.626 2.25 3.477 2.09 3.888 1.35 3.016 1.14 3.976.61 3.559Zm0 0-.74 9.972-.75 9.972-.29 3.805-.3 4.033-.1 1.305M1698.55 36.85l-1.67 1.653"/><path d="m1732.99 33.491-9.99.19-10 .188-8.44.16-1.69.031M1701.2 34.27l-1.75.874M1854.78 233.531l1.18-8.653.01-2.954-.04-3.242-.08-3.498-.13-3.72-.15-1.995-.48-3.308-.63-4.345-.57-3.931-.78-4.064-.9-4.391-.71-3.275-1.1-3.027-1.23-3.633-1.46-3.422-.8-1.802M440.919 825.13l-1.163-3.098-3.159-7.119-3.812-6.96-4.429-6.741-5.006-6.462-5.537-6.126-.649-.692-5.528-5.267-5.921-4.862-6.261-4.412-.927-.601-7.13-4.272-7.378-3.699-7.561-3.092-7.677-2.454-7.723-1.792-4.23-.812-8.264-1.192-8.166-.446-5.372.144-8.467.328-8.207 1.128-6.111 1.273-8.24 2.015-7.81 2.836-6.425 2.477-7.565 3.768-6.144 3.528-7.143 4.682-5.651 4.482-6.554 5.548-4.963 5.303-5.821 6.327-4.99 7.021-4.082 5.928-4.085 7.615-3.051 6.313-3.109 8.051-1.934 6.472-2.102 8.306-1.141 8.681-.737 6.085-.159 8.645.387 5.669.754 8.416 1.655 8.506 2.546 8.509 1.199 4.007 3.206 7.917 3.991 7.752 4.734 7.506 1.365 1.876 5.03 6.65 5.623 6.278 6.158 5.842 6.628 5.344 7.031 4.792 7.358 4.19 7.609 3.548 2.257 1.047 8.397 3.097 8.494 2.335 8.502 1.555 4.351.487 8.955.808 8.778-.038 5.428-.552 8.929-.923 8.562-1.79 6.05-1.738 8.404-2.729 7.855-3.568 6.21-2.942 7.41-4.476 5.85-3.968 6.798-5.319 5.283-4.873 6.046-6.067 4.534-5.629 5.184-6.692 4.31-7.282 3.574-6.099 3.353-7.686 2.542-6.399 2.376-7.927 1.452-6.481 1.415-7.996.527-8.262.314-5.976-.343-8.079-.18-1.333"/><path d="m420.857 797.09 1.651 2.784.343.645 1.194 2.249 1.245 3.557.79 3.433.27 2.748.005 2.668-.271 2.562-.557 2.549-.946 2.9-1.314 2.454-.886 2.674-1.296 2.533-2.321 1.509-2.59 1.22-2.844.913-3.074.59-3.285.253-3.053.042-3.124.83-3.886-.399-4.027-1.142-3.513-1.392-4.032-1.794-4.003-2.156-3.417-2.177-3.762-2.696-3.115-2.55-3.439-3.192-2.827-2.887-2.868-3.456-2.425-3.287-2.168-3.425-1.894-3.697-.731-3.687.119-2.967-.779-3.152-.367-3.236.009-3.098.375-2.933.73-2.747 1.223-2.452 2.45-1.609 2.229-1.52 2.349-1.779 2.662-1.431 2.327-.998 2.505-.748 2.657-.502 2.795-.257 3.931.197 3.479.587 3.158.931.566.196 2.503.863 3.506 1.431 4.021 2.014 2.793 1.644 2.713 1.736 2.937 2.069 3.69 3.029 2.33 2.209 2.25 2.294 2.264 2.505 2.927 3.779 1.818 2.769Zm0 0 2.567 4.302M428.943 812.887l-1.552-4.43M372.465 766.496l-4.906-.25M389.608 771.611l-5.049-1.903M447.224 853.917l.164-.38.039-.242.045-.275.16-2.024.136-2.116.023-.672-.063-.795-.141-2.285-.162-2.307-.121-.992-.078-.481-.282-1.945-.265-1.832-.208-1.439-.11-.18-.565-1.545-.675-1.933-.657-1.799-.633-1.647-.572-1.351-.251-.383-.563-.632-.689-.79-.618-.577-.218-.164-.345-.26-.441-.439-4.232-2.87M433.37 825.052l-.326 1.767.188 1.948-.23 2.307-.196 2.289-.176 2.43-.016 2.643.021 2.691-.408 2.46"/><path d="m437.766 836.873.3-6.787-.15-1.525.252-1.386.421-.553.35-.888.444-.671.033-.027.502-.421.216-.183M438.713 854.702l.009-1.038-.241-1.661-.301-1.998M435.624 821.793l-.686.569M442.414 868.652l2.833-7.333.456-1.509.491-1.621.049-.161.152-.854.414-1.596.416-1.661.005-.022M447.386 853.536l-.159.358M435.289 864.368l.788 1.734.887 1.492.331-.18.46-.209.871.543.941.268 1.002-.009.524.977.518.728M432.281 845.875l.132 3.025.377 2.665.484 2.466M437.5 842.575l.111-2.819-.004-.513-.014-1.591.009-2.067"/><path d="m437.297 841.679.207-1.26.024-.146.085-.517M437.602 835.585l.135-1.902.03-.353.12-1.438.177-1.807M434.035 860.244l.569 2.165M1383.84 284.029l-7.18-6.965-7.18-6.966-7.17-6.965-5.59-5.428-6.97 7.176-6.96 7.175-6.97 7.176-5.43 5.591 7.18 6.965 7.18 6.966 7.17 6.965 5.59 5.427 6.97-7.175 6.96-7.175 6.97-7.176 5.43-5.591ZM1350.74 252.147l-7.17-6.965-7.18-6.965-1.86-1.805-6.96 7.176-6.97 7.175-1.8 1.859 7.17 6.965 7.18 6.966 1.86 1.804 6.96-7.175 6.97-7.176 1.8-1.859ZM1369.39 237.413l-7.17-6.965-3.92-3.798-6.96 7.175-3.8 3.913 7.17 6.965 3.92 3.799 6.96-7.176 3.8-3.913ZM1205.9 1241.73l-7.16-6.98-7.16-6.98-7.16-6.98-7.16-6.99-7.16-6.98-7.16-6.98-7.16-6.98-7.16-6.98-7.15-6.99-7.16-6.98-7.16-6.98-7.16-6.98-7.16-6.98-7.16-6.99-7.16-6.98-7.16-6.98-7.16-6.98-7.16-6.99-7.15-6.98-7.16-6.98-7.16-6.98-7.16-6.98-7.16-6.99-7.16-6.98-7.16-6.98-7.16-6.98-7.16-6.98-7.15-6.99-7.164-6.98-7.159-6.98-7.159-6.98-7.158-6.99-7.159-6.98-7.159-6.98-7.159-6.981-7.159-6.982-7.159-6.982-7.159-6.982-7.159-6.982-7.159-6.982-7.159-6.983-7.159-6.982-7.159-6.982-7.159-6.982-7.158-6.982-7.159-6.982-7.159-6.982-7.159-6.982-7.159-6.983-7.159-6.982-7.159-6.982-7.159-6.982-7.159-6.982-7.159-6.982-7.159-6.982-7.158-6.982-7.159-6.982-7.159-6.983-8.936-8.715 6.982 7.159 6.982 7.159 6.982 7.159 6.982 7.159 6.982 7.159 6.983 7.159 6.982 7.159 6.982 7.159 6.982 7.159 6.982 7.158 6.982 7.159 6.982 7.159 6.982 7.159 6.982 7.159 6.983 7.159 6.982 7.159 6.982 7.159 6.982 7.159 6.982 7.159 6.982 7.159 6.982 7.159 6.982 7.158 6.982 7.159 6.983 7.159 6.982 7.161 6.982 7.16 6.982 7.16 6.982 7.15 6.982 7.16 6.982 7.16 6.982 7.16 6.983 7.16 6.98 7.16 6.98 7.16 6.99 7.16 6.98 7.16 6.98 7.15 6.98 7.16 6.98 7.16 6.99 7.16 6.98 7.16 6.98 7.16 6.98 7.16 6.99 7.16 6.98 7.16 6.98 7.15 6.98 7.16 6.98 7.16 6.99 7.16 6.98 7.16 6.98 7.16 6.98 7.16 6.98 7.16 6.99 7.16 6.98 7.16 6.98 7.15 6.98 7.16 6.98 7.16 8.72 8.94M2143.28 951.463l-7.16-6.982-7.16-6.983-7.15-6.982-7.16-6.982-7.16-6.982-7.16-6.982-7.16-6.982-7.16-6.982-7.16-6.982-7.16-6.982-7.16-6.983-7.15-6.982-7.16-6.982-7.16-6.982-7.16-6.982-7.16-6.982-7.16-6.982-7.16-6.982-7.16-6.982-7.16-6.983-7.15-6.982-7.16-6.982-7.16-6.982-7.16-6.982-7.16-6.982-7.16-6.982-7.16-6.982-7.16-6.982-7.16-6.983-7.16-6.982-7.15-6.982-7.16-6.982-7.16-6.982-7.16-6.982-7.16-6.982-7.16-6.982-7.16-6.982-7.16-6.983-7.16-6.982-7.15-6.982-7.16-6.982-7.16-6.982-7.16-6.982-7.16-6.982-7.16-6.982-7.16-6.983-7.16-6.982-7.16-6.982-7.15-6.982-7.16-6.982-7.16-6.982-8.08-7.876 6.98 7.159 6.99 7.158 6.98 7.159 6.98 7.159 6.98 7.159 6.98 7.159 6.99 7.159 6.98 7.159 6.98 7.159 6.98 7.159 6.99 7.159 6.98 7.159 6.98 7.158 6.98 7.159 6.98 7.159 6.99 7.159 6.98 7.159 6.98 7.159 6.98 7.159 6.98 7.159 6.99 7.159 6.98 7.159 6.98 7.159 6.98 7.159 6.98 7.158 6.99 7.159 6.98 7.159 6.98 7.159 6.98 7.159 6.99 7.159 6.98 7.159 6.98 7.159 6.98 7.159 6.98 7.159 6.99 7.159 6.98 7.159 6.98 7.159 6.98 7.158 6.98 7.159 6.99 7.159 6.98 7.159 6.98 7.159 6.98 7.159 6.98 7.159 6.99 7.159 6.98 7.159 6.98 7.159 6.98 7.159 6.99 7.159 6.98 7.158 6.98 7.159 7.88 8.076M1387.97 346.896l6.98 7.158 6.98 7.159 6.98 7.159 6.99 7.159 6.98 7.159 6.98 7.159 6.98 7.159 6.98 7.159 6.99 7.159 6.98 7.159 6.98 7.159 6.98 7.159 6.99 7.158 6.98 7.159 6.98 7.159 6.98 7.159 6.98 7.159 6.99 7.159 6.98 7.159 6.98 7.159 6.98 7.159 6.98 7.159 6.99 7.159 6.98 7.159 6.98 7.158 6.98 7.159 6.99 7.159 6.98 7.159 6.98 7.159 6.98 7.159 6.98 7.159 6.99 7.158 6.98 7.159 6.98 7.159 6.98 7.159 6.98 7.16 6.99 7.158 6.98 7.159 6.98 7.158 6.98 7.159 6.98 7.159 6.99 7.159 6.98 7.16 6.98 7.159 6.98 7.159 6.99 7.159 6.98 7.159 6.98 7.159 6.98 7.158 6.98 7.159 6.99 7.159 7.87 8.076 7.07-7.071 2.15-2.145-7.16-6.982-7.16-6.983-7.16-6.982-7.16-6.982-7.16-6.982-7.15-6.982-7.16-6.982-7.16-6.982-7.16-6.982-7.16-6.982-7.16-6.983-7.16-6.982-7.16-6.982-7.16-6.982-7.16-6.982-7.15-6.982-7.16-6.982-7.16-6.982-7.16-6.983-7.16-6.982-7.16-6.982-7.16-6.982-7.16-6.982-7.16-6.982-7.15-6.982-7.16-6.983-7.16-6.982-7.16-6.982-7.16-6.982-7.16-6.982-7.16-6.982-7.16-6.982-7.16-6.982-7.15-6.982-7.16-6.982-7.16-6.982-7.16-6.983-7.16-6.982-7.16-6.982-7.16-6.982-7.16-6.982-7.16-6.982-7.15-6.982-7.16-6.982-7.16-6.982-7.16-6.983-7.16-6.982-7.16-6.982-7.16-6.982-7.16-6.982-7.16-6.982-8.07-7.876ZM618.928 442.113l-.412.724M622.324 446.649l.005.005M622.852 446.369l2.825 5.06M731.184 339.545l.179-.316.016-.028M735.788 342.124l-4.603-2.578-.001-.001M750.74 352.09l-.072-.121M750.637 352.021l.03-.053.832-1.465.003-.006M742.678 346.655l-.166-.113-1.707-1.151M770.351 365.315l-8.292-5.591-8.29-5.591-3.029-2.043-.102-.069M938.254 786.881l-.665 1.196-.001.002-.337.606-.001.002-.637 1.145M937.843 786.543l-.816 1.449M945.695 792.965l2.093 1.712.633.518M954.36 800.563l-.001.002-.045.083-.537.99M1071.11 669.816v-.002M1076.81 660.854l1.57-2.772M1082.52 678.751l.19.118M1083.41 686.723l1.84-3.375M1086.74 681.913l2-3.592M1089.62 674.285l.07-.121M1090.22 675.239v-.001M962.094 805.33l8.568 5.157 8.568 5.156 8.568 5.157 8.568 5.156 8.564 5.157 8.57 5.156 8.57 5.157 8.57 5.156 8.57 5.157 8.56 5.156 8.57 5.157 8.57 5.156 8.57 5.157 8.57 5.156 8.56 5.157 3.02 1.817 1.9 1.144M1084.68 670.797l-.59-.986v-.001l-4.15-6.872M1180.89 828.434l-.11-.174M1182.48 823.574l-.15-.138M1182.59 825.575l.78-1.364M1178.92 821.046v-.001l-.33-.596-4.89-8.725-1.83-3.269"/></g><defs><clipPath id="a"><path fill="#fff" d="M0 0h1920v1080H0z"/></clipPath></defs></svg>