<svg width="1920" height="1080" fill="none" xmlns="http://www.w3.org/2000/svg"><g clip-path="url(#a)" stroke="#EFC018" stroke-width="5" stroke-linejoin="round"><path d="m961.288 797.854.066-.08.004-.005.098-.121.002-.002.263-.114.111-.005h.005l.231-.01.418.083.473.179.202.107.09.047.003.002.213.112.526.346.522.412.499.462.456.493.395.505.32.499.232.473.135.428.033.368-.07.293-.171.207-.003.001-.261.112-.348.014-.415-.083-.003-.001-.002-.001-.47-.179-.508-.268-.525-.346-.521-.411-.27-.25-.001-.001-.226-.21-.002-.002-.005-.005-.448-.485-.395-.504-.32-.498-.232-.472-.136-.429-.034-.368.014-.056v-.004l.055-.233Zm0 0 .003-.006M966.344 802.532l3.435-1.914M956.891 800.748l.001-.002.188-.035.274.06.35.152.412.238.459.317.488.381.497.433.329.314.001.001.079.075.001.002.079.074.46.483.415.48.334.434.001.001.018.024.278.42.192.365.059.179.001.001.038.117.001.01.001.206-.096.127-.002.001M960.065 804.872l-.051-.04-.001-.001-.434-.34-.497-.432M960.936 805.427l-.413-.239M956.797 800.878v-.003l.001-.002M961.75 805.606l.335-.188 3.293-1.856M957.723 802.633l-.353-.458-.278-.42-.192-.365-.099-.297M958.137 803.112l-.125-.145M954.289 801.815l.052.021.003.001.054.023.198.135.279.222.35.299.406.366.448.417.472.453.478.472.466.471.435.454.387.419.096.107.002.003.228.257.251.301.167.224.076.138-.017.046-.001.001-.11-.046-.199-.136-.279-.223-.35-.299-.406-.365-.447-.417-.471-.452-.477-.47-.464-.471-.434-.453-.387-.418-.326-.366-.251-.302-.168-.224-.077-.14.016-.048Zm0 0 .014-.026.001-.001.236-.441.19-.355M959.117 806.646l2.02-1.127M953.894 800.49l-.198.362v.001l-.001.001.03.123.121.211.208.29.248.31M1008.83 761.831l-.6-.336-.53-.442-.44-.529-.33-.597-.21-.641-.09-.66.05-.656.18-.624.3-.57.41-.494.5-.397.59-.286.63-.166.67-.037.67.094.65.218.6.337.53.442.44.529.33.597.21.642.09.66-.05.656-.18.625-.3.57-.41.493-.5.397-.59.287-.63.164-.67.037-.67-.092-.65-.221ZM953.695 800.853v.001"/><path d="m959.116 806.645-.111-.046-.198-.136-.281-.223-.349-.299-.406-.365-.446-.417-.471-.452-.477-.47-.464-.471-.435-.453-.387-.418-.325-.366-.253-.302-.167-.224-.076-.14.016-.048v.001M958.41 805.675l.002.003.229.258.251.301.166.224.076.138M954.395 801.86l.198.135.279.222.349.299.407.366M957.459 799.566l-.663 1.306-.002.003-.001.002.002.217.1.297.192.365.278.42.353.458.282.326.132.153.46.481.487.466.496.431.434.34.002.001.051.041.458.316.412.239.205.089.146.064.274.06.189-.034.338-.19 3.293-1.856"/><path d="m956.793 800.877.001-.002.002-.003.004-.005.087-.119h.002l.186-.035.274.06.35.151.412.239.459.317.487.381.498.433.332.317.076.073.002.001.079.075.46.483.415.48.334.434.001.001.018.024.278.42.192.365.059.179.039.118v.006l.002.21-.095.126-.001.001M966.341 802.534l-.002.001-.264.113-.348.016-.407-.083h-.005l-.006-.002-.472-.18-.508-.268-.525-.347-.521-.411-.27-.25-.002-.002-.225-.207-.008-.01-.005-.005-.442-.477-.395-.505-.319-.498-.233-.473-.135-.428-.034-.367.014-.064.001-.004.053-.226.008-.01.061-.075.004-.004.097-.119.003-.002M966.547 801.668l.033.368M966.34 802.535l3.447-1.92M962.062 797.52l.419.083M963.465 798.05l.525.347M964.512 798.809l.499.461.456.493M968.15 791.594l-.519 1.271-.135.366-.027.436.084.488.19.522.288.535.377.529.451.502.507.456.544.391.559.313.555.223.527.123.481.018.415-.086 3.057-1.637"/><path d="m967.633 792.865.238-.283.333-.189.415-.087.481.018.26.06.268.062.555.222.561.313.545.393.508.456.451.503.377.53.289.536.13.356.06.167.082.488-.027.436-.136.366-.24.282-.334.187M975.467 786.462l-.08.498.038.542.152.568.262.57.361.551.447.51.515.451.564.374.591.283.595.18.576.071.536-.04.475-.152 2.683-1.311"/><path d="m975.469 786.463.193-.433.3-.351.394-.257.075-.024.4-.128.536-.042.577.07.596.18.591.283.565.374.516.452.447.512.362.552.262.571.152.568.037.543-.071.434-.01.063-.194.432-.301.351-.395.256M984.767 778.595l-.001.59.122.606.239.6.349.57.443.519.175.149.347.298.58.358.617.256.232.054.396.09.617.026.582-.092.524-.208 2.245-.911"/><path d="m984.766 778.594.123-.551.241-.49.104-.122.246-.289.446-.316.523-.209.582-.094.617.026.63.144.617.256.581.358.017.015.505.433.445.519.348.571.24.601.121.607-.001.59-.124.551-.243.49-.184.216-.166.195-.446.315M995.281 769.454l.099.638.223.624.339.585.441.525.527.444.593.346.635.235.654.114.647-.01.621-.135 1.55-.359"/><path d="m995.281 769.455.029-.628.003-.01.154-.584.277-.536.388-.459.483-.364.56-.254.616-.135.648-.011.654.114.636.235.591.346.53.444.44.526.34.586.22.624.1.639-.03.628-.15.594-.28.536-.39.459-.48.363-.18.081-.38.172M1020.64 750.287l-.6-.332-.53-.44-.44-.531-.34-.603-.2-.651-.08-.674.05-.67.18-.642.31-.589.42-.513.51-.417.6-.306.64-.182.67-.051.68.081.65.21.6.332.53.44.44.531.33.603.21.651.08.673-.05.671-.18.642-.31.589-.42.513-.52.417-.59.305-.64.182-.67.052-.68-.081-.65-.21ZM1032.52 738.365l-.6-.33-.53-.44-.44-.532-.33-.603-.22-.653-.08-.676.05-.674.18-.646.3-.592.41-.517.5-.42.59-.31.64-.185.66-.054.67.078.65.208.6.33.53.44.44.531.33.604.22.652.08.676-.05.674-.17.645-.3.593-.41.517-.51.421-.59.309-.63.186-.67.054-.67-.078-.65-.208ZM1048.44 722.787l.06.392.04.276-.03.664-.16.635-.28.581-.39.504-.48.41-.56.298-.62.176-.64.046-.66-.085-.64-.214-.59-.333-.53-.44-.44-.53-.34-.6-.22-.646-.1-.668.03-.664.16-.635.27-.581.39-.505.49-.409.56-.297.62-.175.64-.046.66.085.63.214.38.212.22.121.53.439.44.53.34.599.22.646Zm0 0 .08.455M1046.91 720.573l-.46-.323M1058.95 713.461l-.24.555-.05.066-.3.411-.45.383-.53.273-.58.152-.62.026-.63-.101-.61-.225-.59-.34-.52-.442-.44-.526-.35-.591-.24-.633-.12-.65v-.642l.12-.611.25-.554.35-.477.44-.382.53-.272.24-.064.34-.088.62-.025.63.102.62.225.58.339.52.441.44.526.35.59.24.632.12.65v.642l-.12.61Zm0 0-.46 1.672M1084.04 669.547l-.28.153M1090.23 674.517v-.001l-.06-.093-.15-.182-.24-.263-.31-.335-.37-.394-.43-.438-.45-.464-.47-.473-.47-.465-.45-.437-.4-.394-.36-.335-.29-.263-.2-.182-.13-.093h-.03l-.53.287v.001l-.54.294v.001l-.17.094"/><path d="m1090.23 674.516-.03.001-.12-.092-.21-.181-.28-.263-.36-.335-.41-.394-.44-.439-.47-.465-.47-.475-.46-.465-.42-.438-.38-.394-.31-.335-.24-.263-.15-.181-.06-.091v-.001M1089.64 676.718l.01-.003.01-.172-.08-.258-.15-.305-.01-.029-.26-.398-.32-.447-.26-.313v-.002l-.13-.162-.44-.49-.46-.484-.48-.459-.47-.417-.45-.359-.41-.288-.35-.204-.28-.113-.07-.007-.13-.011-1.57.816"/><path d="M1089.64 676.715v.001l-.11.078-.19-.017-.28-.112-.01-.001v-.001l-.34-.202-.41-.287-.32-.253v-.001l-.13-.105-.47-.418-.42-.402-.06-.059-.47-.485-.43-.491-.39-.478-.33-.447-.25-.398-.17-.334-.07-.258.01-.169v-.001l.1-.071.01-.007M1082.17 676.027v-.002l.18-.147.01-.007.27-.054.35.047.42.147.46.241.48.325.5.398.18.167v.001l.31.287.46.494.42.515.35.515.28.497.19.459.1.404V680.646l-.09.248v.002M1086.22 681.059l-.41-.146-.46-.241-.49-.325-.5-.399-.49-.455-.01-.015v-.002l-.02-.02v-.003l-.43-.456-.41-.516-.36-.517-.28-.497-.19-.459M1082.07 676.272l.01-.001.09-.238M1086.85 681.05l-.28.055M1085.11 684.388l1.93-3.493M1082.36 675.871l-.23.11v.001l-.23.108v.002M1081.05 689.594l1.41-2.639.17-.319.07-.402-.03-.467-.14-.516-.23-.544-.32-.552-.4-.538-.45-.504-.5-.45-.52-.38-.53-.294-.1-.039v-.001l-.4-.154-.01-.002v-.002l-.47-.093-.42.014-.35.122-2.06.88"/><path d="M1082.46 686.955v.003l-.27.223-.34.123-.42.016-.48-.093-.51-.197-.01-.01-.01-.007-.5-.278-.53-.38-.5-.451-.45-.505-.4-.539-.32-.553-.18-.419v-.013l-.05-.113-.09-.349v-.005l-.05-.162-.03-.467.07-.401.17-.316v-.003l.26-.217.01-.008M1074.89 697.124l.86-1.745.51-1.027.14-.463.01-.365.01-.159-.08-.567-.19-.586-.03-.069-.26-.515-.38-.559-.45-.513-.51-.446-.54-.364-.56-.266-.56-.159-.53-.046-.48.07"/><path d="m1076.26 694.353-.01.021-.23.363v.003l-.33.285-.14.06-.28.124-.24.035-.01.001-.23.034-.53-.045-.56-.158-.56-.267-.54-.364-.51-.447-.46-.514-.37-.559-.29-.585-.19-.588-.08-.566.02-.525.06-.19v-.009l.08-.264.24-.378v-.004l.33-.288.36-.157.06-.025M1067.22 705.917l.99-2.347.19-.514.08-.573-.03-.609-.16-.622-.26-.611-.36-.577-.45-.52-.51-.443-.57-.35-.59-.243-.6-.127-.57-.005-.54.115"/><path d="m1068.21 703.57-.01.016-.29.421v.004l-.33.28-.01.006-.06.052-.47.234-.54.117-.58-.005-.59-.126-.6-.243-.56-.351-.52-.444-.45-.52-.36-.578-.26-.612-.15-.623-.04-.609.08-.573.2-.515.29-.431.01-.005.11-.095.01-.008.27-.238.45-.22.03-.013"/><path d="m1068.2 703.579-.29.432-.01.005-.32.276-.01.007-.06.059-.48.234-.54.116-.57-.004-.6-.127-.59-.243-.57-.35-.52-.444-.44-.521-.37-.577-.26-.612-.15-.623-.04-.609.08-.574.2-.514.3-.436v-.004l.12-.1.01-.008.27-.229.47-.233M1068.29 701.261l.15.622.04.609M1064.37 698.385l.58.006.59.127M1066.7 699.109l.52.444.44.52M1076.02 694.739v.004l-.34.289-.12.056-.29.127-.24.034v.001l-.24.036-.53-.045-.56-.159-.56-.266-.55-.364-.51-.447-.45-.514-.38-.56-.29-.585-.19-.587-.08-.567.03-.525.06-.198v-.009l.08-.255.24-.383v-.003M1075.86 691.636l.25.514.03.07.19.587.09.566-.01.152-.02.373-.13.463M1071.43 689.534l.42-.182.48-.069.53.045.55.159.56.267M1074.52 690.117l.5.447.45.512M1081.97 684.161l.32.552.23.544.14.516.03.467-.07.402-.16.316-.01.003-.26.226-.35.123-.42.016-.47-.093-.51-.197-.01-.003-.01-.007-.51-.285-.52-.38-.5-.451-.46-.505-.39-.539-.32-.553-.19-.432v-.011l-.05-.102-.09-.356v-.005l-.04-.155-.03-.467.07-.401.17-.319v-.003l.26-.222.35-.121.42-.015.47.093.01.004.01.003.39.152.01.001.09.038.53.294M1080.62 682.669l.5.45.46.504M1087.04 680.899l-.19.155-.28.055-.35-.046-.41-.147-.46-.24-.49-.326-.5-.398-.49-.456-.01-.014v-.002l-.02-.018v-.003l-.43-.458-.41-.516-.36-.517-.28-.498-.19-.459-.1-.403v-.338l.1-.239v-.004l.19-.152.27-.054.35.047.42.147.45.241.49.326.5.397.18.168v.001l.31.286.46.494.41.515.36.516.28.497.19.459.1.403v.332l-.09.246v.003Zm0 0-1.93 3.484M1082.35 675.875v.003M1089.64 676.716v.002l-.11.079-.19-.017-.28-.112-.01-.002-.34-.202-.41-.287-.32-.254v-.001l-.13-.105-.47-.418-.41-.394-.07-.066-.47-.485-.43-.491-.39-.478-.33-.447-.25-.398-.17-.334-.07-.258.01-.171v-.001M1088.01 674.143l.44.49M1088.58 674.794v.001l.26.314.32.446.25.398.02.029v.001M1087.61 680.377l1.25-2.243.78-1.415M1085.39 671.932l.35.204.41.287.45.359.47.418M1090.23 674.516v.001l-.03.001-.12-.092-.21-.181-.28-.263-.36-.335-.41-.394-.44-.439-.47-.465-.47-.475-.46-.465-.42-.438-.38-.394-.31-.335-.23-.263-.16-.181-.06-.092M1089.09 673.25l.38.394.31.335"/><path d="m1085.42 669.706-.53.286v.001l-.54.295v.001l-.17.094M1085.79 669.981l.28.263.36.335M1087.28 671.41l.47.465.47.473M1084.04 669.545v.001l-.28.153M1084.89 669.992l-.18-.138-.31-.191-.22-.105-.14-.013M723.629 335.498l-8.722-4.891-6.843-3.838-8.878-4.601-8.879-4.602-8.878-4.601-4.3-2.228-8.911-4.538-8.91-4.539-8.911-4.538-4.352-2.217-9.16-4.012-9.159-4.013-9.16-4.012-5.072-2.222-9.576-2.884-9.575-2.884-9.575-2.884-9.575-2.884-9.575-2.883-9.575-2.884-9.575-2.884-2.691-.81 2.856 9.583 2.855 9.584 2.856 9.584 2.855 9.583 2.856 9.584 2.855 9.584 2.856 9.583.914 3.066 3.987 9.171 3.987 9.171 3.988 9.17 2.251 5.178 4.516 8.922 4.516 8.922 4.516 8.922 2.237 4.419 4.579 8.89 4.579 8.889 4.579 8.89 2.243 4.353 4.871 8.733 3.29 5.897M1078.5 664.109l.53 1.125-2 3.638-4.51 6.058-5.39 6.502-.2.236-1.28 1.541-.27.314-3.17 3.589-1.07 1.214-3.4 3.857-1.08 1.224-2.08 2.255-.8.877-4.63 5.028-3.27 3.559-.38.405-.38.398-5.38 5.658-4.27 4.497-1.71 1.807-4.06 4.154-4.54 4.642-4.37 4.481-1.56 1.547-4.66 4.651-5.98 5.959-1.07 1.07-3.54 3.434-5.907 5.734-.001.002-3.551 3.446-.876.826-5.581 5.256-.51.479-3.792 3.573-.009.007-1.414 1.333-.949.861-2.45 2.223-.008.007-.971.882-.008.008-3.427 3.11-.008.007-2.949 2.677-.092.084-.456.392-.006.006-1.195 1.031-.006.005-3.967 3.422-.009.007-.952.821-.003.003-2.513 2.167-7.005 5.559-4.657 3.079-2.169.523"/><path d="m947.692 794.668-.34 1.888 2.201-.524 4.735-3.127 7.128-5.655 3.243-2.796.003-.003.12-.104.005-.004 1.385-1.194.007-.007 3.612-3.115.007-.005.89-.768.375-.341.007-.006.699-.634 2.902-2.634.008-.007 3.331-3.023.008-.008.971-.882.008-.007 2.521-2.287.232-.211 2.115-1.991.008-.008 3.762-3.544.508-.478 5.598-5.272.418-.394 3.99-3.872 5.911-5.733 3.34-3.247 1.28-1.275 5.96-5.943 4.68-4.667 1.6-1.591 4.31-4.42 4.55-4.658 4.35-4.448 1.42-1.493 4.27-4.498 5.39-5.674.38-.397.89-.941 2.74-2.983 4.67-5.077.82-.893 2.75-2.983.34-.394 3.5-3.967 1.1-1.241 3-3.399 1.22-1.383.57-.693.37-.448 6.05-7.286 4.58-6.163 2.03-3.697-.55-1.136-1.55.72M1095.7 885.791l1.79.049 3.15-1.405 4.42-2.82 5.51-4.136 6.39-5.298 7.03-6.252 7.27-6.863.1-.094 7.09-7.052.34-.33 6.91-7.231.26-.275 6.63-7.324 5.81-6.847 4.78-6.098 3.56-5.112.52-.925M740.906 345.692l-1.51-.891-3.64 1.269-5.665 3.416-6.959 5.071-.479.349-.055.04-1.83 1.48-2.39 1.932-1.204.974-3.619 2.926-.217.188-2.514 2.181-.747.648-4.398 3.817-2.365 2.051-1.516 1.39-.045.041-4.069 3.73-5.067 4.645-.327.299-2.835 2.725-6.153 5.914-2.322 2.231-.042.04-6.452 6.484-2.451 2.463-2.303 2.314-3.414 3.591-3.238 3.406-3.939 4.143-.507.563-3.811 4.217-.156.173-3.163 3.501-.006.007-1.809 2.003-.083.092-1.898 2.236-.006.007-.735.866-.006.007-2.022 2.383-.006.007-1.975 2.327-.982 1.158-.005.005-.458.541-.549.705-.004.005-2.139 2.748-.006.008-.694.892-.001.002-.022.028-.001.001-2.917 3.749-4.339 6.426-2.2 4.483-.008 2.395M789.438 378.453l-8.288-5.595-5.7-3.848-.027-.018-8.289-5.595-8.288-5.595-7.918-5.345-1.026-.693M628.633 456.094l1.321 1.963.265.394"/><path d="m742.474 346.751.096-.172.683-3.116-1.557-.942-3.779 1.308-5.89 3.547-7.799 5.679-.442.358-1.169.945-2.382 1.925-2.055 1.661-1.226.991-2.145 1.734-1.76 1.526-2.561 2.222-.703.61-4.304 3.734-1.343 1.165-2.753 2.523-.002.002-3.761 3.447-4.976 4.56-.575.553-2.506 2.409-7.128 6.849-1.06 1.019-.566.544-7.083 7.118-1.386 1.393-3.214 3.23-3.315 3.487-2.708 2.848-4.879 5.133-.138.146-3.406 3.77-.07.077-3.421 3.788-.006.006-1.824 2.02-1.211 1.34-.733.864-.006.007-.716.844-.006.007-2 2.357-.005.006-1.954 2.304-1.143 1.346-.005.006-1.072 1.265-.005.005-.785.926-.911 1.171-.006.007-1.45 1.864-.003.004-.416.535-.001.001-3.805 4.892-4.51 6.686-2.278 4.658.005 2.481 2.248.244 1.362-.611"/><path d="m743.252 343.462-2.242-1.732-1.564-.949-3.775 1.292-.154.093-5.722 3.428-1.893 1.375-.003.002-1.22.886-.005.004-.622.451-.003.003-2.302 1.671-.005.003-.79.574-.932.677-.723.583-.842.679-2.486 2.005-2.229 1.798-.947.765-.602.485-1.557 1.256-.99.857-7.558 6.548-2.082 1.804-7.375 6.753-4.069 3.727-7.212 6.928-4.572 4.392-7.053 7.088-4.576 4.599-6.888 7.25-4.1 4.314-6.699 7.424-2.02 2.239-.003.003-.654.724-.01.012-.501.555-3.922 4.629-.004.006-2.056 2.427-.005.005-.735.869-.006.006-.96 1.134-.006.007-.692.816-.711.916-.004.005-1.991 2.566-.004.005-.512.66-.004.005-1.325 1.708-.004.005-.519.669-.003.004-1.477 1.902-.001.002-.002.004-.828 1.232-.005.007-.324.483-.001.001-3.319 4.939-1.217 2.506-1.041 2.144.015 2.483 1.735 2.25M634.848 465.329l.771 1.145v.001l5.583 8.297 5.583 8.296 5.143 7.644 5.583 8.296 3.882 5.77 5.908 8.068 5.908 8.068 5.908 8.069 5.908 8.068 5.908 8.068 5.269 7.196 6.383 7.698 6.382 7.699 6.382 7.698 1.593 1.921 6.383 7.699 6.382 7.698 3.847 4.64 6.646 7.472 6.646 7.472 6.646 7.472 6.647 7.472 6.646 7.472 5.576 6.27 7.284 6.851 7.284 6.852 7.285 6.851 7.284 6.851 7.284 6.852 6.068 5.707 7.445 6.676 7.445 6.676 7.445 6.677 7.445 6.676 7.445 6.676 6.24 5.595 7.602 6.497 7.602 6.497 7.602 6.497 7.602 6.497 7.602 6.496 6.431 5.496 7.741 6.331 7.741 6.33 7.74 6.331 7.741 6.331 4.204 3.438.365.298.007.006.31.254M1078.5 664.109l-.38-.463-1.6-1.948M1070.48 654.315l-.45-.547-6.34-7.737-6.33-7.737-6.34-7.737-6.33-7.737-3.48-4.252-6.51-7.599-6.5-7.599-6.5-7.598-6.5-7.599-6.5-7.599-5.29-6.188-6.678-7.443-6.679-7.443-6.678-7.442-6.679-7.443-6.678-7.443-5.368-5.982-6.852-7.283-6.853-7.283-6.853-7.282-6.853-7.283-6.852-7.283-5.462-5.805-7.47-6.649-7.469-6.649-7.47-6.648-7.469-6.649-7.47-6.649-6.015-5.355-7.695-6.387-2.993-2.484-7.694-6.388-1.54-1.278-7.695-6.387-.566-.47M947.352 796.556l6.541 3.935.834.501M1127.59 904.314l8.65 5.023 4.22 2.455 1.46.111 2.48-.978 3.4-2.036 4.19-3.022.72-.578 4.11-3.317 5.27-4.616 5.51-5.155.74-.739 4.78-4.749 2.37-2.493 2.95-3.107 4.9-5.49 4.28-5.158 1.53-2.023 1.97-2.602 2.59-3.911 1.58-3.049.51-2.075-.56-1.028-5.04-8.637-2.22-3.802"/><path d="m1111.46 898.648 8.73 4.871 3.13 1.745 1.68.11 2.59-1.06.31-.127 4.01-2.45 4.96-3.626 5.74-4.666 6.27-5.525 6.57-6.164 6.6-6.557 6.36-6.682 5.86-6.54 5.13-6.133 4.2-5.483 3.11-4.622 1.27-2.401.63-1.182.63-2.416-.64-1.167-4.89-8.722-1.53-2.727M1093.6 884.527l-.86 2.289.38 1.601 1.9.063 3.37-1.493 4.73-3.012 5.89-4.423 6.85-5.669 7.52-6.695 7.28-6.864.62-.591 2.1-2.079.96-.963 4.9-4.867.11-.121 1.22-1.27 6.35-6.651 6.71-7.415.39-.431 6.23-7.332 5.11-6.526 3.17-4.557M1093.12 888.417l8.73 4.872 3.38 1.884v.001l.5.276v.003l.5.276M1152.71 905.289l8.22 5.694 4.29 2.977.91.069 1.5-.574 2.04-1.199 2.5-1.78 2.87-2.293 3.12-2.716 3.26-3.035 3.25-3.234 3.13-3.305 2.88-3.247 2.52-3.059 2.07-2.754 1.52-2.342.93-1.84.3-1.269-.34-.652-5.7-8.214-2.83-4.074M1180.14 735.593l-9.8-1.967-9.8-1.968-9.81-1.967-9.8-1.968-9.81-1.967-9.8-1.968-5.56-1.115-7.21-1.446-9.8-1.967-7.71-1.547-9.8-1.968-9.81-1.967-2.79-.559"/><path d="m1068.64 713.218 5.98 8.019 5.97 8.02 5.98 8.02 5.97 8.019 5.97 8.02 5.98 8.02 5.97 8.019 5.97 8.02 5.98 8.019 5.97 8.02 5.98 8.02 5.97 8.019 5.97 8.02 2.95 3.961 2.46-.499 1.15-.233 9.8-1.99 4.6-.934 1.27-.258 7.42-1.506 6.06-1.232 9.45 3.285 9.44 3.285 9.45 3.285 1.25.436 8.67 4.994 8.66 4.994 7.17 4.132 8.76 4.827 8.75 4.827 7.67 4.228 8.61 5.094 8.6 5.094 7.33 4.338 6.77-4.318 5.16-6.799-6.47-7.627-6.31-7.436-6.46-7.627-6.33-7.46-6.47-7.627-4.55-5.373-1.79-2.11-6.12-7.208-6.46-7.627-.26-.298-6.72-7.4-6.73-7.399-6.73-7.4-6.72-7.399-6.73-7.4-6.73-7.399-6.72-7.4-6.73-7.399-7.1-7.816-9.81-1.949-9.81-1.948-9.81-1.948-9.81-1.948-9.81-1.949-9.8-1.948-9.81-1.948-2.86-.568-3.47-.688-9.81-1.949-7.06-1.403-8.6-1.707-9.81-1.949-1.13-.224-5.58 6.265Z"/><path d="m1292.59 863.283-6.47-7.625-6.34-7.471-6.47-7.625-6.36-7.494-6.47-7.625-6.38-7.518-6.47-7.625-3.85-4.531-2.55-3.01-6.73-7.398-6.73-7.398-6.73-7.399-6.72-7.398-6.73-7.398-6.73-7.398-6.73-7.398-6.73-7.399-7.26-7.981 5.48-6.513M1088.7 950.89l.39.332 7.55 6.548 6.37 5.52 7.56 6.549 6.39 5.537 5.56-3.547 5.06-6.408-5.04-8.635-5.05-8.634-1.65-2.824-4.73-8.807-4.74-8.808-1.65-3.067-4.93-8.701-4.92-8.702-1.78-3.129-2.83-9.591-1.38-4.674"/><path d="m1122.52 971.828-5.05-8.63-5.06-8.629-1.67-2.86-4.75-8.802-4.74-8.802-1.68-3.103-4.93-8.696-4.94-8.696-1.8-3.165-2.84-9.587-.12-.398M944.18 785.715l.071-.089.004-.005.097-.12.002-.003.268-.123.261-.018h.005l.086-.007.423.076.478.172.511.262.073.047.088.057.002.001.365.237.524.41.5.461.455.494.396.509.316.503.229.479.132.436.029.376-.076.302-.174.216-.003.001-.268.121-.353.024-.376-.068-.003-.001-.044-.007-.476-.173-.511-.263-.528-.342-.523-.409-.061-.057-.002-.001-.31-.286-.006-.005-.119-.11-.455-.493-.392-.508-.319-.503-.228-.478-.133-.436-.03-.376.017-.067.001-.004.057-.232Zm0 0 .002-.006M952.809 788.362l.238-.292.103-.409-.038-.509-.003-.009-.079-.263-.095-.318-.309-.649-.429-.681-.533-.688M949.246 790.387l1.901-1.079.522-.297 1.129-.641.01-.006.004-.002M939.605 788.932l.04-.057.003-.003.052-.073.001-.002.19-.041.275.053.352.147.413.234.378.257.082.055.489.379.498.431.064.061.425.405.061.064.028.03.002.001.37.389.414.482.353.462.07.107v.001l.207.316.19.37.085.262.013.04-.001.223-.097.133-.002.001-.188.04-.277-.055-.066-.028h-.001l-.285-.12-.413-.234-.391-.266-.069-.047-.487-.378-.497-.43-.488-.465-.46-.482-.413-.481-.353-.462-.277-.423-.191-.371-.098-.302-.001-.223Zm0 0 .005-.01M944.562 793.658l1.115-.64 2.637-1.516v-.001l.003-.001"/><path d="m948.317 791.501.133-.182.001-.301-.13-.409-.071-.138M937.097 789.983l.105.041.002.001.196.133.278.219.348.297.406.363.447.416.472.453.477.471.466.472.436.455.388.42.115.129.003.003.209.237.253.304.168.226.077.141-.015.049v.001h-.001l-.108-.042-.197-.134-.278-.22-.348-.297-.406-.364-.446-.415-.471-.451-.476-.47-.465-.472-.435-.453-.388-.42-.327-.368-.252-.304-.169-.227-.079-.142.014-.051.001-.001Zm0 0 .03-.054v-.002l.244-.442.001-.002 1.144-2.081.002-.004.088-.161.567-1.031M941.93 794.814l2.095-1.196"/><path d="m937.925 786.68-1.334 2.377-.001.002.025.123.117.211.203.29.193.246M993.259 747.812l-.607-.332-.533-.44-.439-.532-.328-.603-.204-.65-.074-.674.007-.075.016-.171.038-.425.193-.642.317-.589.43-.513.525-.417.601-.305.654-.182.185-.014.158-.012.337-.026.683.082.657.21.607.332.533.44.439.532.328.604.205.651.073.674-.061.671-.193.642-.318.589-.43.513-.525.416-.602.305-.653.182-.681.051-.681-.081-.657-.211Z"/><path d="m993.383 747.949.887.284.921.11.92-.069.882-.245.746-.379.066-.033.71-.563.137-.164.444-.529.429-.795.261-.867.083-.907-.099-.911M941.927 794.814l-.108-.042-.197-.134-.279-.22-.348-.297-.405-.363-.446-.416-.471-.451-.477-.47-.464-.471-.435-.454-.388-.42-.327-.368-.253-.304-.169-.227-.078-.142.014-.052.001.001M940.73 793.305l.389.42M941.699 794.397l.168.226.078.141M937.203 790.025l.004.003.192.13M938.43 791.037l.447.416M944.56 793.66l-.001.001-.191.04-.276-.054-.067-.028-.285-.12-.413-.234-.391-.266-.001-.001-.068-.046-.487-.378-.498-.43-.487-.465-.46-.482-.414-.481-.352-.462-.277-.424-.191-.37-.098-.302-.001-.223.008-.012.034-.048.003-.003.051-.072h.002l.187-.041.276.053M942.953 790.875l.371.389.414.482.353.462.07.107M948.312 791.502v-.001"/><path d="m944.559 793.66 1.117-.642 2.637-1.516M940.926 789.192l.411.279.049.033.489.379.498.431.03.029M949.461 789.497l.029.376-.075.302-.173.213-.002.003-.27.122-.353.023-.368-.066-.005-.001-.049-.008-.477-.172-.511-.263-.528-.343-.523-.409-.062-.058h-.002l-.316-.293-.006-.006-.112-.102-.455-.494-.393-.506-.318-.504-.229-.478-.132-.436-.029-.376.017-.073.001-.005.055-.224.008-.011.068-.083.004-.005.095-.119.003-.001.265-.122.268-.019h.005l.079-.005.423.074M946.383 785.863l.074.048.085.055.002.001.367.238.524.41.5.461.455.494.395.508.317.504"/><path d="m949.238 790.391 1.904-1.082.523-.296 1.139-.647M951.826 777.817l-.003.007-.801 1.862-.003.007-.327.759-.143.379-.033.446.077.498.184.53.286.542.375.533.45.503.508.455.546.389.565.307.56.215.199.043.242.051.093.02.489.008.423-.098 3.167-1.726"/><path d="m950.691 780.452.247-.295.342-.201.423-.098.488.007.29.061.245.052.561.214.565.308.548.389.509.456.451.504.376.534.285.543.031.091.082.233.016.047.055.16.077.498-.035.447-.144.377-.248.295-.343.199M959.722 781.763l-.102-.674-.249-.718M959.689 771.055l-.92 2.668-.089.51.028.555.146.577.257.578.358.555.447.513.516.45.211.138.139.09.218.142.596.277.603.171.586.06.547-.054.486-.165 2.782-1.384"/><path d="m958.77 773.722.204-.447.312-.367.406-.272.097-.033.388-.133.547-.055.586.06.604.17.598.277.569.37.517.451.173.199.094.107.179.208.36.556.257.579.145.578.027.555-.081.46-.01.05-.204.447-.312.366-.408.271M966.602 776.735l.55-.366M968.866 763.172l-.483 2.294-.012.604.113.617.234.609.344.575.061.072.087.103.295.346.524.446.585.354.624.249.638.134.628.013.595-.107 2.139-.886"/><path d="m968.383 765.467.136-.566.255-.507.124-.146.24-.282.46-.333.537-.225.595-.108.629.013.639.133.624.249.202.122.104.062.28.17.525.447.443.521.345.577.234.609.112.618-.012.604-.137.566-.256.507-.204.239-.161.188-.46.333-.538.224M975.238 768.595l.727-.303.622-.449.494-.578.346-.684M979.207 754.334l.07 1.558.089.65.051.151.043.125.121.357.335.592.44.527.53.443.598.341.644.226.665.104.66-.025 1.396-.333"/><path d="m979.277 755.892.042-.643.009-.033.162-.578.293-.554.404-.478.5-.382.577-.272.631-.151.661-.024.428.066.136.021.101.015.645.227.599.341.53.443.44.528.335.592.216.634.088.651-.043.643-.171.61-.294.555-.405.477-.5.382-.221.103-.356.168-.631.15M984.852 759.05l.852-.203.779-.366.676-.516.547-.645.398-.749.231-.825.058-.869M1005.54 735.767l-.61-.326-.53-.439-.44-.534-.32-.609-.2-.661-.07-.687.07-.686.02-.072.06-.21.12-.378.32-.608.44-.532.54-.437.61-.324.29-.088.2-.06.17-.051.69-.067.68.069.66.202.61.326.54.439.44.534.32.609.2.661.07.687-.07.687-.2.659-.32.608-.44.533-.54.436-.61.325-.66.199-.69.066-.68-.069-.67-.202Z"/><path d="m1005.99 736.76.93.093.93-.09.72-.218.17-.05.82-.438.18-.141.55-.449.59-.719.44-.821.27-.892.09-.927-.09-.928-.27-.892M1017.93 723.349l-.61-.325-.53-.439-.44-.534-.33-.61-.21-.662-.07-.689.06-.689.03-.074.05-.2.12-.389.32-.611.43-.536.53-.44.6-.327.45-.141.2-.061.01-.001.68-.068.68.067.66.199.6.326.54.438.44.534.33.61.2.662.07.689-.06.689-.19.662-.32.611-.44.536-.52.441-.6.327-.66.202-.68.069-.69-.066-.65-.2Z"/><path d="m1018.74 725 .92-.094.89-.273.81-.442.71-.595.59-.724.43-.826.26-.895.08-.93-.09-.931-.28-.894-.44-.823M1034.52 707.13l.05.353.04.327-.05.678-.17.651-.3.598-.4.523-.51.428-.58.315-.63.191-.66.059-.67-.074-.65-.205-.6-.329-.53-.439-.44-.532-.33-.606-.22-.655-.08-.681v-.134l.01-.155.03-.389.17-.651.3-.598.41-.523.5-.427.58-.314.64-.191.61-.055.05-.004.09.01.58.064.64.206.36.198.24.13.53.439.44.532.34.605.21.655Zm0 0 .09.48"/><path d="m1032.02 712.842.78-.426.68-.578.55-.706.4-.809.23-.879.06-.916-.11-.918M1033 704.9l-.44-.302M1045.47 697.415l-.26.571-.04.047-.33.447-.46.398-.55.288-.6.166-.63.038-.64-.091-.63-.218-.59-.336-.52-.441-.44-.528-.35-.596-.18-.502-.04-.114-.01-.025-.11-.661.01-.655.15-.625.26-.57.37-.494.46-.398.54-.287.21-.057.39-.108.63-.038.65.093.36.126.12.041.14.051.59.335.53.44.44.528.34.596.23.64.11.66-.01.655-.14.624Zm0 0-.49 1.734M1044.13 700.587l.5-.667.35-.771M1042.12 692.626l-1.67.054M1072.25 652.508l-2.22 1.26M1074.37 653.427l-.31-.333-.23-.261-.15-.179-.06-.088.03.002.12.095.22.184.28.265.36.337.41.395.45.438.46.464.47.473.46.464.42.436.37.393.31.333.24.261.15.18.06.091-.03-.002-.13-.094-.21-.183-.28-.265M1077.42 656.496l-.41-.395-.45-.439M1073.61 652.565l-.57.321v.001l-.54.298v.001l-2.02 1.128M1075.62 654.722l-.46-.465-.42-.437M1077.74 659.561v-.003l.02-.173-.07-.259-.11-.234-.05-.102-.25-.398-.32-.447-.17-.205v-.001l-.22-.272-.43-.49-.47-.484-.15-.15-.03-.026-.3-.284-.47-.417-.11-.085-.01-.013-.33-.261-.41-.286-.36-.204-.28-.113-.21-.017-1.58.847-.11.062-.01.003-.36.195-.21.114-.19.101-.01.001-1 .539"/><path d="M1077.74 659.558v.001l-.12.079-.2-.016-.21-.083-.07-.029-.36-.203-.41-.287-.19-.155v-.001l-.26-.203-.48-.418-.48-.46-.46-.486-.44-.491-.38-.479-.33-.447-.24-.399-.16-.335-.07-.259.02-.169v-.002l.1-.07.01-.009M1072.92 667.415l.06-.11.33-.594 1.64-2.908.11-.253V663.214l-.09-.408-.19-.462-.27-.5-.35-.518-.41-.516-.46-.495-.1-.097-.01-.001-.38-.356-.5-.397-.49-.324-.47-.238-.42-.144-.36-.043-.28.058-.24.12v.001l-.29.145-.01.002-2.21 1.107-.01.004-.41.203"/><path d="M1074.95 663.802v.003l-.19.156-.29.06-.36-.042-.42-.143-.46-.239-.49-.324-.51-.398-.28-.263-.05-.049-.01-.003-.15-.14-.46-.496-.41-.518-.35-.518-.27-.5-.19-.464-.09-.406V659.281l.01-.099.09-.234v-.004l.01-.012v-.002l.19-.151.01-.007M1068.53 672.925l1.77-3.238.08-.408-.01-.108-.01-.256-.01-.111-.12-.522-.23-.549-.31-.555-.4-.541-.45-.505-.5-.45-.53-.378-.28-.153v-.001l-.25-.137-.35-.13v-.002l-.17-.061-.48-.088-.43.021-.36.129-2.35 1.055-.01.003"/><path d="m1070.3 669.688-.11.195-.07.133-.01.002-.27.231-.36.13-.43.022-.16-.03-.25-.045-.07-.012-.52-.192-.01-.008-.01-.007-.51-.276-.53-.379-.5-.451-.45-.506-.4-.542-.31-.556-.16-.394-.01-.011-.04-.104v-.007l-.02-.034-.12-.522-.03-.475.08-.408.19-.323v-.003l.26-.224.01-.009M1068.28 673.372v-.002l.25-.444M1062.15 680.507l1.45-2.871.15-.474.04-.534-.08-.575-.18-.594-.24-.514-.04-.075-.05-.074-.32-.489-.45-.514-.51-.446-.55-.36-.57-.262-.57-.153-.54-.037-.49.078-2.99 1.106"/><path d="m1063.6 677.636-.01.02-.24.374-.01.003-.34.296-.43.194-.23.038-.01.001-.26.041-.54-.037-.56-.152-.57-.262-.46-.301-.09-.06-.04-.029-.47-.418-.45-.515-.38-.564-.28-.59-.18-.594-.07-.576.04-.534.05-.173v-.009l.1-.291.25-.389v-.005l.35-.298.36-.163.07-.03M1054.11 689.596l1.05-2.432.21-.528.09-.585-.02-.62-.15-.631-.25-.618-.36-.581-.45-.522-.13-.115-.1-.089-.28-.239-.57-.346-.6-.237-.61-.119-.59.005-.55.127-2.58.642"/><path d="m1055.15 687.163-.01.015-.3.435-.01.004-.32.278-.01.007-.07.067-.5.247-.55.128-.59.006-.61-.118-.6-.237-.57-.347-.52-.443-.45-.523-.01-.016-.06-.108-.28-.458-.26-.619-.14-.632-.02-.62.09-.586.21-.527.32-.445v-.005l.1-.083.01-.009.3-.263.47-.232.02-.014"/><path d="m1055.36 686.644-.21.528-.32.445v.005l-.32.275-.01.007-.08.074-.49.247-.56.128-.59.006-.61-.118-.6-.237-.57-.347-.52-.443-.44-.523-.01-.017-.07-.108-.28-.457-.26-.619-.14-.632-.02-.62.09-.586.21-.527.32-.45.01-.004.1-.088.01-.008.29-.255.5-.246M1053.14 682.299l.57.346.27.238.11.089.13.116.45.522.36.581M1055.29 684.809l.14.631.02.62M1051.34 681.947l.59-.005.61.119M1050.08 691.052l.82.159.8-.008M1057.07 680.729l.74.488.77.353.77.206.73.048.67-.108.58-.263.47-.405M1063.71 676.06l.07.575-.04.535-.15.473-.25.39v.005l-.35.299-.43.194-.22.036-.01.001-.26.042-.54-.036-.57-.152-.57-.262-.46-.302-.09-.059-.03-.03-.48-.417-.45-.515-.38-.564-.28-.59-.18-.595-.07-.575.04-.535.06-.181v-.009l.09-.283.25-.393.01-.003M1062.87 674.315l.33.487M1061.36 672.994l.55.361M1064.05 672.618l.71.511.27.145.18.1.27.148.7.26.66.117.58-.031.49-.177.37-.316v-.004M1070.11 670.017v.004l-.28.233-.36.13-.43.023-.16-.031-.25-.045-.07-.011-.52-.193v-.001l-.01-.007-.52-.283-.53-.378-.5-.451-.45-.506-.4-.542-.31-.557-.17-.405v-.012l-.04-.101-.01-.006-.01-.026-.12-.522-.02-.475.08-.408.18-.326v-.003M1067.28 665.021l.25.136v.002l.28.152.52.377.5.45.46.505.39.542.32.555M1070.22 668.289l.13.521v.109l.02.255v.111l-.08.409M1065.49 664.889l.36-.129.43-.021.48.087.17.064.01.002M1069.23 666.172l.68.537.67.438.63.321.57.193.18.021.3.035.2-.042.19-.039.26-.217M1074.95 663.804v.002l-.2.16-.28.059-.36-.043-.42-.143-.47-.238-.49-.324-.5-.397-.28-.262v-.002l-.05-.046-.01-.003-.15-.143-.46-.496-.42-.517-.35-.519-.27-.501-.18-.462-.1-.407.01-.238v-.098l.1-.24v-.004l.01-.008v-.002l.19-.156M1074.51 661.849l.27.5.19.462.09.407"/><path d="m1072.91 667.419.01-.003v-.006l.06-.104.33-.594 1.64-2.905M1070.92 658.763l.42.143.46.239M1077.76 659.388l-.02.171v.002l-.11.08-.21-.016-.21-.083-.07-.029-.36-.203-.41-.287-.19-.155v-.001l-.26-.203-.47-.418-.48-.461-.47-.485-.44-.491-.38-.479-.32-.447-.25-.399-.16-.335-.07-.259.02-.172M1076.14 656.979l.43.49.22.273M1077.28 658.394l.25.399.04.101.12.235M1075.59 663.339l.93-1.64 1.22-2.138M1073.21 654.656l.29.113M1075.06 663.388l.1.039.27.021.16-.11M1074.27 655.26l.35.28.01.013.09.066.47.417M1078.43 657.378l-.03-.002-.13-.094-.21-.183-.28-.265-.36-.337-.41-.395-.45-.439-.47-.466-.47-.474-.45-.465-.43-.437-.37-.393-.31-.333-.23-.261-.15-.179-.06-.089.03.003.13.095.21.184.28.265.36.337.41.395.45.438.46.464.47.473.46.464.42.436.37.393.31.333.24.261.15.18.06.09v.001Zm0 0-.85 1.513M1073.61 652.566l-.57.32v.001l-.54.299v.001l-2.02 1.128M1072.25 652.508v.001l-2.22 1.259"/><path d="m1073.04 652.887-.12-.086-.3-.187-.23-.099-.14-.007M1110.52 895.495l.06-.153.11-.106.17-.054h.21l.25.053.28.105.29.152.3.194.29.228.28.254.25.269.21.275.16.27.11.254.06.228v.195l-.06.153-.12.105v.001l-.17.053h-.21l-.25-.053-.28-.105M1115.26 896.762l.16-.143.08-.207v-.263l-.07-.309-.15-.344-.23-.365-.28-.372-.34-.364M1110.52 895.506v.184l.05.228.11.254.17.269.21.275.25.269.27.253.29.229.3.194.21.107v.002M1113.38 897.917l1.88-1.155M1107.6 896.695l.12-.009.06.014v.001l.12.029.21.093.24.139.27.181.28.215.28.241.12.114v.001l.15.142.25.264.22.261.15.205.04.042.13.224.09.193.04.154-.03.108-.07.057v.003M1108.97 898.702l.28.215.12.081v.001M1109.51 899.099l.25.139"/><path d="m1110.27 899.366 1.19-.718.83-.498M1112.29 898.15l.1-.081.03-.147-.03-.149M1107.54 897.018l.08.192M1107.76 897.434l.18.247M1105.56 896.993l.03-.014.08.039.13.086.17.134.21.176.24.208.26.236.27.254.26.261.26.258.05.059v.001l.18.187.2.224.17.195.12.156.07.112.02.063v.002l-.03.013-.08-.039M1108.29 899.629l1.08-.629M1105.94 897.521l.2.224.09.089.01.015.14.141"/><path d="m1104.72 896.095.04.083.08.131.14.173.17.21.21.237.23.257.26.266.26.265.12.119M1138.46 875.585l.19.109.33.181.36.117.37.046.19.013M1139.9 876.051l.51-.034.48-.129.45-.219.39-.302.32-.371.24-.428.15-.467.05-.489-.05-.492-.15-.476-.24-.442"/><path d="m1138.65 875.694-.03-.024-.26-.216-.24-.288-.18-.327-.11-.352-.03-.364.03-.361.11-.346.18-.317.24-.275.28-.223.34-.162.35-.095.38-.025.37.046.36.116.33.182.29.24.24.288.18.327.11.352.03.364-.03.362-.11.346-.18.316-.24.275-.29.223-.33.162-.36.095-.31.021-.06.004M1138.07 875.262l.4.324M1105.23 895.174l-.5.888-.01.032v.001M1106.23 895.729l-.09.169v.003l-.48.904h-.01l-.1.188.03.064.07.112.12.157.17.195.2.224.07.075.02.016.14.154.26.258.26.261.27.254.25.235.24.21.21.175.18.133.13.088.08.039.03-.015"/><path d="m1105.97 897.237.21.175.24.21.26.236.26.253.27.261.25.259.06.059v.001l.18.187.2.224.17.194.12.156M1105.55 896.993l.01-.001.03-.013.08.037M1108.34 895.086l-.33.676-.02.028-.19.386v.003l-.16.336v.003l-.12.237-.01.057v.002l-.01.05.03.153.09.193.14.224.18.247.22.261.25.259v.001l.01.003.27.257.28.241.27.215.12.081V899l.15.098.25.14.21.094.17.043.13-.008v-.001"/><path d="M1109.3 897.713v.001l.15.142.25.264.22.261.15.206M1110.1 898.628l.14.224.09.193.03.153-.02.109M1107.78 896.701l.11.028.22.093.24.14.27.181.28.215.28.24M1107.52 896.755v-.003l.07-.057M1111.47 893.28l-.9 2.063-.06.153v.194l.06.229.11.254.17.269.21.275.24.269.28.253.29.228.3.194.21.11v.002l.08.041.28.104.25.054h.21l.17-.054v-.002"/><path d="m1110.57 895.344.01-.004.11-.102.17-.054h.21l.25.053.28.104.29.153.3.194.29.228.28.254.25.269.21.275.16.27.11.254.06.228v.195l-.06.153-.12.104v.001M1115.21 891.116l-.67 1.869-.04.233.03.263.09.282.15.291.2.288.24.274.28.25.31.216.31.174.32.125.31.072.28.015.25-.042.21-.097 1.7-1.044M1119.18 894.285l.21-.201.13-.264.05-.316-.04-.355-.12-.382-.2-.394-.27-.39-.33-.371"/><path d="m1114.54 892.985.09-.195.16-.149.2-.098.25-.042.26.014.02.001.31.071.32.125.32.174.3.217.28.25.24.274.2.289.15.291.04.111.05.171.03.263-.03.233-.1.195-.15.149M1119.89 887.717l-.43 1.683-.07.27.01.294.07.308.13.31.19.301.25.278.28.247.31.205.34.156.33.1.34.041.31-.02.28-.08.23-.137 1.5-.883"/><path d="m1123.95 890.789.25-.256.17-.316.09-.364-.01-.398-.09-.417-.18-.42-.26-.407M1119.46 889.399l.12-.233.19-.19.14-.08.09-.057.28-.08.31-.021.34.041.34.1.33.156.31.205.29.247.24.279.19.301.13.31.07.309.01.294-.03.126-.04.143-.12.234-.19.189M1125.16 883.795l-.13 1.351-.01.321.05.331.12.328.19.311.24.283.28.244.32.195.35.14.36.078.35.014.33-.051.3-.113 1.15-.619"/><path d="m1125.03 885.147.09-.301.1-.177.05-.091.21-.224.26-.172.3-.114.34-.051.35.014.35.078.35.139.32.196.29.244.24.283.18.311.12.328.06.331-.02.322-.08.301-.13.236-.02.031-.21.224-.26.173M1129.06 886.608l.36-.233.28-.302.21-.362.11-.406.02-.435-.07-.448-.17-.443M1131.1 879.646l.16.836.11.341.18.32.24.287.29.242.33.186.35.127.37.06.36-.008.35-.076.75-.317M1134.59 881.644l.44-.191.38-.272.3-.343.23-.399.14-.441.04-.466-.06-.473-.16-.462-.24-.433"/><path d="m1131.26 880.482-.05-.35.01-.11.02-.235.1-.326.17-.296.23-.253.28-.201.32-.142.35-.076.37-.008.36.06.36.126.32.188.29.241.24.286.18.321.12.341.04.35-.03.345-.1.326-.17.296-.23.253-.11.083-.17.118-.32.141M1144.91 869.432l.45.24.49.149.51.051.5-.048.49-.145.45-.238.39-.319.32-.391.24-.445.15-.484.05-.504-.05-.504-.14-.484-.24-.447-.33-.393"/><path d="m1145.73 869.401-.33-.177-.29-.239-.24-.29-.17-.33-.11-.36-.04-.372.04-.373.11-.358.18-.329.23-.289.3-.237.33-.175.36-.108.37-.035.38.037.36.11.33.179.29.237.24.29.17.332.11.358.04.372-.04.374-.11.357-.18.331-.24.287-.29.237-.33.176-.36.107-.37.035-.38-.037-.36-.11ZM1151.35 862.988l.44.238.48.144.5.047.5-.054.48-.152.44-.244.38-.327.32-.397.23-.453.14-.49.04-.509-.06-.508-.15-.488-.24-.449-.32-.393"/><path d="m1152.45 862.643-.33-.176-.29-.237-.24-.291-.18-.332-.11-.362-.04-.376.03-.376.11-.363.17-.335.23-.294.28-.242.33-.18.35-.112.37-.04.37.034.36.108.32.176.29.238.24.29.18.332.11.361.05.376-.04.377-.1.363-.17.334-.23.294-.29.242-.32.181-.35.112-.37.04-.37-.034-.36-.108ZM1161.36 854.418l-.05.193-.04.167-.16.331-.21.291-.27.239-.31.177-.34.11-.36.037-.36-.037-.35-.108-.32-.177-.29-.238-.24-.29-.18-.331-.12-.36-.05-.373.02-.374.09-.36.15-.331.22-.291.27-.239.31-.177.34-.109.35-.037.36.036.35.109.33.176.03.03.25.208.24.29.19.331.12.36.05.373-.02.374Zm0 0-.06.39"/><path d="m1158 856.701.47.147.48.049.49-.05.46-.149.41-.24.37-.322.29-.393.21-.448.12-.486M1160.79 852.691l-.26-.218M1163.35 850.062l.43.244.45.153.47.059.46-.038.43-.134.39-.225.33-.307.26-.377M1166.99 848.506l-.2.276v.003l-.24.226-.29.167-.32.099-.34.028-.34-.043-.34-.114-.32-.18-.28-.239-.24-.289-.19-.327-.13-.353-.07-.366v-.365l.07-.349.14-.32.19-.279.24-.226.29-.166.32-.099.01-.001.33-.027.34.043.34.114.32.18.28.239.25.288.18.327.13.354.07.365v.365l-.07.349-.13.32Zm0 0-.42.931M1165.28 845.561l-1.02-.105M1179.47 820.25v-.001l-.86.504M1183.26 823.525l-.05-.073-.1-.121-.14-.164-.18-.202-.22-.232-.24-.252-.25-.262-.26-.264-.26-.254-.24-.236-.22-.207-.19-.171-.15-.129-.1-.081-.05-.03-.16.087v.001l-.39.213v.001l-.94.518"/><path d="m1183.25 823.547-.05-.03-.1-.081M1180.74 821.061l-.09-.121M1180.6 820.868v-.02M1182.04 822.438l-.26-.264-.25-.263-.24-.252M1183.24 825.306l.01-.001-.01-.117-.05-.165-.1-.204-.15-.237-.15-.209-.04-.052-.22-.274-.24-.276-.26-.269-.13-.129v-.001l-.13-.121-.26-.223-.24-.187-.21-.144-.19-.094-.14-.042-.1.012-.72.368v.001l-.06.03-.2.099-.13.069-.08.04-.19.098v.002"/><path d="m1182.77 825.247-.22-.143-.12-.095-.12-.092-.26-.224M1183.25 825.305l-.01.001-.04.066-.1.012-.15-.042M1181.29 823.896l-.22-.275-.19-.26-.14-.237-.11-.205-.05-.164v-.117l.05-.063v-.003M1181.53 824.174l-.03-.042v-.001M1182.07 828.196v-.002l.04-.16-.01-.205-.06-.242-.06-.146v-.001l-.05-.124-.16-.288-.2-.294-.23-.29-.26-.274-.26-.248-.27-.211-.27-.168-.24-.118-.22-.062-.19-.005-.14.053-.09.042v.001l-1.97.905M1180.92 828.004l-.27-.212M1181.98 828.304l-.15.052-.18-.004-.22-.062-.25-.118M1179.36 825.884l-.01-.205M1182.07 828.194v.001"/><path d="m1180.38 827.544-.26-.275-.23-.29-.2-.295-.16-.288-.11-.27M1179.39 825.519l.03-.034v-.001l.07-.07v-.003M1178.7 833.876l1.06-1.761.08-.198.04-.243-.03-.276-.08-.301-.13-.313-.18-.314-.22-.302-.25-.278-.27-.245-.28-.201-.29-.151-.27-.093-.26-.033-.22.029-1.89.732"/><path d="M1179.76 832.115v.002l-.14.146-.18.089-.23.029-.25-.032-.28-.094-.08-.043v-.003l-.2-.105M1177.59 831.379l-.22-.302-.18-.314-.13-.314-.02-.096-.01-.007-.05-.197-.02-.277.03-.242.09-.199.13-.146.16-.075.03-.014M1175.47 838.505l.9-1.551.13-.232.07-.274.01-.307-.05-.327-.1-.335-.16-.33-.21-.312-.25-.283-.28-.242-.29-.192-.31-.136-.3-.072-.29-.008-.26.058-1.71.497M1174.82 837.099l-.3-.192"/><path d="M1176.37 836.954v.002l-.18.178-.22.122-.24.053v.001l-.02.004-.29-.007-.3-.073M1173.62 835.738l-.1-.335-.05-.327.01-.307.07-.259v-.015l.13-.232.18-.18.21-.113.01-.008M1173.99 836.381l-.2-.312M1171.51 843.52l.66-1.213.1-.301.05-.331-.02-.348-.09-.353-.14-.343-.2-.321-.24-.286-.29-.24-.3-.185-.33-.123-.32-.056-.32.013-1.39.201M1170.93 843.016l-.33-.056-.32-.123-.31-.185-.28-.24-.24-.286-.2-.321-.15-.344-.08-.353"/><path d="m1172.17 842.308-.01.016-.15.243-.22.207-.1.059v.002l-.16.087-.29.082M1169 840.76l.04-.331.1-.301.17-.259.18-.178.01-.005.02-.024.26-.147.26-.072.03-.009M1171.29 843.873v-.002l.22-.35M1168.15 843.668l.38.325.42.25.44.166.44.075.42-.018.4-.111.35-.199.29-.28v-.003"/><path d="m1172 842.571-.21.208-.1.056-.01.002-.15.089-.29.082-.32.013-.32-.056-.33-.123-.3-.185-.29-.24-.24-.286-.2-.321-.14-.344-.09-.353-.02-.349.05-.331.1-.301.16-.258M1172.17 842.313l.1-.3.04-.331-.02-.349-.08-.353-.15-.343-.19-.321-.25-.286-.28-.24-.31-.185-.32-.123-.32-.056-.32.013M1169.5 839.69v-.005l.02-.018.26-.146.29-.083M1172.58 838.119l.37.327.41.261.41.182.41.098.38.01.36-.079.3-.164.24-.244M1176.37 836.957v.003l-.18.18-.22.121-.24.053v.001l-.02.005-.29-.008-.3-.072-.31-.135-.29-.193-.28-.242-.25-.283-.21-.313-.16-.33-.1-.335-.05-.328.01-.306.07-.265v-.01l.13-.231M1176.42 835.484l-.16-.33-.21-.313-.25-.282-.27-.243-.3-.192-.3-.135"/><path d="M1175.46 838.51v-.003l.01-.021.9-1.527M1176.11 833.264l.36.332.39.272.39.203.37.126.34.044.3-.039.25-.122.19-.199M1178.99 829.895l.25.278.22.302.18.313.13.314.08.3.02.277-.03.243-.08.196v.002l-.14.147-.19.089-.22.03-.25-.033-.28-.094-.08-.039v-.003l-.21-.108-.28-.201-.27-.245-.25-.279-.22-.302-.18-.314-.13-.314-.03-.103v-.007l-.05-.191-.03-.276.03-.243.09-.198.14-.146.18-.09.23-.028.25.033.28.093.28.151.29.201"/><path d="M1178.7 833.88v-.005l1.05-1.756M1178.62 829.249l.37.335.36.287.36.226.34.159.29.083.25.006.2-.072.12-.147M1181.76 827.031l.16.288.05.124.01.001.06.146.06.242.01.205-.04.158v.003l-.1.107-.14.053-.19-.004-.21-.062-.25-.118-.27-.167-.27-.212-.26-.248-.26-.275-.23-.29-.2-.295-.16-.288-.11-.27-.06-.243-.01-.205.04-.159.03-.036v-.001l.07-.071.14-.053.18.005.22.062.25.118M1180.91 830.126l1.16-1.929M1181.34 826.448l-.26-.274-.26-.248M1183.24 825.189V825.311l-.04.062-.1.012-.15-.042-.18-.094-.22-.143-.12-.095v-.001l-.12-.091-.26-.224-.26-.251-.26-.269-.03-.043-.01-.001-.2-.233-.22-.274-.19-.261-.14-.237-.11-.205-.05-.164v-.117l.05-.066M1183.09 824.82l-.15-.237-.15-.208v-.002l-.04-.05-.22-.275-.24-.276-.26-.269-.13-.128v-.002l-.13-.12-.26-.224-.24-.187-.21-.144-.19-.094"/><path d="m1182.04 827.358.14-.233 1.06-1.818M1182.97 823.168l.14.164.1.121.05.072v.001l-.01.022-.05-.03-.1-.081-.15-.128-.19-.171-.22-.208-.24-.235-.26-.255-.26-.264-.25-.263-.24-.252-.22-.232-.18-.202-.14-.164-.1-.121-.05-.073v-.021l.06.03.1.081M1182.79 822.965l-.22-.232-.24-.252-.25-.262-.26-.264M1181.32 821.465l-.22-.207-.19-.171M1180.45 820.933l-.1-.089-.25-.201-.21-.166-.19-.124-.13-.077-.1-.027-.04.025-.82.479M620.85 435.328l.154-.158.223-.079.282.005.331.088.367.167.389.24.396.304.387.357.364.395.327.418.277.426.217.416.147.391.073.351-.004.297-.081.231-.002.002-.153.156-.172.06-.003.001-.048.017-.283-.006-.33-.088-.367-.167-.388-.24-.395-.304-.387-.356-.364-.394-.326-.418-.277-.425-.216-.415-.025-.066-.002-.004-.121-.321-.074-.351.003-.297.08-.23.001-.003Zm0 0 1.645-2.733M624.547 439.334l.003-.001M618.687 439.554l.002-.002.087-.096.109-.015.05-.006.223.057.279.133.19.12.134.084.356.268.375.32.27.256.001.002.108.103.369.387.345.399.306.396.257.376.056.097.001.002.067.117.073.127.131.297.058.238-.016.171-.001.001-.088.097-.081.01-.004.001-.075.009-.224-.057-.279-.134-.323-.204-.356-.268-.374-.319-.234-.223-.145-.137-.247-.26-.002-.002-.119-.125-.344-.398-.306-.395-.219-.321-.001-.001-.037-.054-.198-.343-.13-.297-.059-.239.015-.17v-.002Zm0 0 .135-.226 1.601-2.687M622.426 443.482l.002-.001M618.203 442.198l.013-.02.01-.015.095.039.164.113.226.181.28.244.323.295.095.09.001.002.172.164.086.081.371.366.374.379.362.379.336.363.298.335.247.292.188.24.122.176.05.108-.024.034-.095-.04-.081-.056-.007-.004-.076-.053-.227-.182-.28-.243-.323-.296-.353-.336-.37-.365-.373-.378-.361-.378-.336-.364-.298-.334-.248-.292-.188-.24-.122-.177-.05-.107-.001-.001Zm0 0 .892-1.537M621.992 446.044l.003-.001M621.816 445.95l.193.175.338.292.297.241.244.181.184.114.005.002M652.753 398.599l-.006-.058-.059-.479.036-.538.138-.516.235-.475.324-.417.397-.341.458-.253.5-.155.523-.052.526.055.508.158.472.256.416.344.346.418.261.477.167.517.067.538-.038.537-.139.516-.236.476-.321.416-.398.341-.459.253-.5.155-.521.052-.526-.055-.508-.158-.473-.256-.415-.344-.343-.413-.003-.005-.261-.477-.168-.517Zm0 0-.032-.136M653.18 399.594l.118.213"/><path d="m621.844 445.727.121.177.049.106.001.002-.021.031-.002.003-.096-.04-.075-.052-.006-.004-.083-.057-.226-.182-.281-.244-.322-.295-.354-.337-.37-.364-.373-.379-.361-.378-.336-.363-.297-.334-.248-.293-.189-.239-.122-.177-.05-.109.022-.035.095.04M618.711 442.498l.28.243.324.296.093.089.001.001.169.161.003.003.087.083.371.365.374.38.362.378.336.364.298.334M621.992 446.047l.38-.205h.001l.063-.034M622.515 443.386v.002l-.086.094-.004.004-.077.01h-.004l-.078.01-.224-.057-.279-.134-.323-.204-.356-.268-.375-.319-.227-.217-.151-.143-.248-.261-.001-.001-.119-.125-.344-.398-.306-.395-.22-.321-.037-.055-.198-.343-.131-.297-.059-.239.016-.172.001-.001M620.488 440.419l.269.256.001.001.109.104.369.387.344.399.307.396.257.376.055.097.002.002.065.113v.001l.075.13.13.297.059.238M618.773 439.458l.112-.015M618.934 439.438l.223.056M622.426 443.485l.962-.481M624.7 439.179l-.001.003-.149.152-.006.005-.167.059-.003.001-.053.018-.282-.005-.331-.088-.367-.168-.388-.24-.395-.304-.387-.356-.363-.394-.327-.418-.276-.424-.217-.416-.027-.071-.001-.004-.12-.316-.074-.351.004-.297.08-.232.002-.002.153-.157M622.207 435.354l.389.24.396.305.387.356.365.395.326.419.277.425.217.416.148.391M622.496 432.595l-1.648 2.738M621.227 435.096l.283.004M626.136 427.143l-1.485 2.495-.143.287-.063.351.019.4.101.434.178.452.248.452.31.435.359.402.395.352.414.289.42.216.407.134.381.046.338-.042"/><path d="m624.652 429.637.218-.213.283-.131.338-.043.381.046.241.079.167.054.42.216.415.29.395.353.36.402.31.436.249.452.178.453.086.374.014.06.018.4-.064.351-.143.286-.218.213-.284.13M630.97 420.899l-1.179 2.072-.119.396-.031.443.057.472.142.483.223.476.294.45.355.408.402.349.433.277.448.194.445.105.426.01.39-.083"/><path d="m629.789 422.971.2-.335.275-.261.339-.175.178-.039.212-.046.426.01.446.104.448.195.434.277.402.35.355.408.295.451.223.476.142.484.056.472-.032.443-.118.396-.045.074-.156.261-.276.259-.339.176M637.32 413.212l-.863 1.701-.167.434-.075.477.018.502.111.509.2.495.281.463.351.412.408.347.449.267.473.177.478.081.466-.018"/><path d="m636.457 414.914.25-.373.317-.291.009-.007.387-.212.436-.118.466-.019.479.081.473.177.449.267.408.347.352.413.281.463.2.496.111.509.018.503-.076.477-.167.433-.251.373-.326.298-.043.024-.345.188-.435.117M644.529 405.334l-.424 1.131-.112.502-.013.525.086.527.181.509.269.471.348.416.413.345.462.26.493.165"/><path d="m644.105 406.465.206-.46.098-.135.194-.266.367-.325.427-.239.473-.141.498-.04.506.064.494.165.462.26.413.345.348.416.27.472.181.51.085.527-.013.525-.112.502-.206.46-.293.4-.367.326-.428.238-.472.141-.228.018-.27.021-.506-.064M663.778 390.898l-.477-.255-.419-.343-.344-.419-.256-.478-.158-.519-.054-.54.051-.54.155-.519.254-.479.341-.419.417-.345.476-.256.516-.158.538-.054.538.053.517.157.478.255.418.343.344.419.256.479.159.518.054.54-.051.54-.156.519-.253.479-.342.42-.416.344-.476.256-.517.158-.537.054-.538-.053-.518-.157ZM673.525 381.203l-.479-.258-.419-.344-.343-.418-.254-.475-.156-.515-.05-.534.057-.532.161-.511.259-.47.349-.41.423-.335.482-.247.522-.15.542-.046.542.058.52.161.479.258.419.345.344.418.254.475.155.514.05.534-.056.532-.161.511-.26.47-.348.41-.423.335-.481.248-.523.149-.542.047-.542-.058-.521-.162ZM686.666 368.051l.032.059.224.41.158.503.054.52-.052.515-.155.491-.254.449-.341.389-.417.314-.475.226-.517.131-.537.031-.538-.072-.517-.171-.477-.264-.418-.346-.343-.416-.256-.469-.158-.504-.054-.519.052-.516.156-.491.254-.449.342-.388.416-.314.476-.226.447-.113.069-.018.537-.03.538.072.517.171.476.264.418.346.343.415ZM683.834 366.813l-.611.048M696.515 361.105l-.038.489-.021.07-.118.392-.235.417-.323.356-.398.28-.457.196-.499.102-.523.005-.525-.093-.507-.186-.471-.272-.416-.349-.345-.412-.26-.458-.166-.488-.065-.498.038-.489.139-.462.236-.417.323-.355.102-.071.297-.209.457-.195.499-.102.522-.004.525.092.507.186.47.273.416.348.344.411.26.458.166.487.066.498ZM692.741 358.457l-1.229.5M730.424 339.308l.243-.439.001-.001.179-.324-.053-.081-.125-.151-.192-.215-.251-.27-.301-.315-.34-.348-.364-.368-.376-.373-.373-.364-.356-.342-.324-.306-.281-.258-.227-.2-.164-.135-.094-.065-.021.008-.001.001"/><path d="m730.846 338.545-.002.001-.019.008-.093-.064-.163-.134-.227-.2-.281-.258-.324-.306-.356-.342-.374-.365-.377-.374-.365-.368-.34-.349-.302-.315-.251-.271-.191-.214-.125-.151-.052-.081M728.041 339.749l.592-1.143.008-.145-.062-.188-.007-.022-.143-.266-.212-.313-.272-.348-.323-.369-.36-.375-.071-.068-.001-.001-.312-.3-.394-.347-.387-.312-.216-.157-.002-.001-.149-.108-.332-.209-.285-.143-.226-.073h-.158l-.002.001"/><path d="m728.631 338.606-.004.004-.081.07h-.002l-.156.001-.225-.072-.285-.143-.332-.209-.367-.265-.388-.313-.394-.348-.266-.255-.001-.001-.118-.113-.265-.276-.096-.101-.323-.369-.273-.348-.004-.006v-.001l-.207-.306-.143-.267-.068-.209.008-.144.085-.073.001-.001M724.577 340.822l.002-.003.141-.3.001-.002.087-.185.031-.098.001-.003.034-.107-.015-.268-.097-.318-.174-.356-.245-.38-.306-.389-.356-.384-.392-.364-.413-.33-.418-.283-.408-.226-.377-.158-.004-.001-.339-.087-.286-.012-.22.065-.004.003"/><path d="m724.807 340.333-.006.005-.139.134-.003.001-.218.065-.203-.007h-.005l-.077-.003-.339-.087-.381-.159-.408-.225-.419-.284-.414-.33-.393-.365-.356-.384-.307-.391-.245-.38-.174-.356-.096-.319-.015-.267.067-.208.145-.137.002-.002M719.592 343.424l.034-.325-.054-.368-.14-.397-.219-.411-.292-.409-.352-.392-.399-.36-.432-.313-.446-.255-.445-.187-.425-.112-.391-.032-.34.049-.277.127-2.562 1.502"/><path d="m719.592 343.424-.04.088-.08.18-.203.203-.003.001-.273.127-.34.049-.391-.031-.375-.099-.01-.002-.041-.011-.445-.187-.447-.255-.432-.314-.4-.36-.352-.392-.292-.41-.155-.289-.004-.008-.061-.115-.139-.398-.054-.368.035-.324.121-.268.201-.2.002-.002M712.938 348.278l.077-.376-.017-.414-.109-.436-.197-.44-.279-.428-.349-.399-.406-.355-.447-.298-.471-.229-.477-.151-.466-.068-.435.019-.388.104-2.154 1.221"/><path d="m712.937 348.278-.013.024-.155.301-.252.261-.003.002-.323.184-.077.021-.007.002-.304.082-.435.019-.465-.067-.478-.151-.472-.229-.448-.298-.407-.356-.349-.4-.279-.428-.197-.441-.109-.436-.016-.414.011-.054.001-.005.066-.317.168-.325.25-.257.001-.001.001-.002.327-.186M705.221 354.125l.015-.454-.084-.47-.18-.466-.268-.444-.346-.406-.411-.351-.461-.284-.491-.206-.505-.119-.498-.029-.471.064-.428.155-1.792.921"/><path d="m705.222 354.125-.018.067-.094.356-.207.375-.087.093-.007.008-.198.212-.004.002-.363.236-.428.154-.472.064-.498-.028-.505-.119-.492-.205-.461-.285-.412-.352-.347-.406-.268-.445-.179-.466-.084-.47.015-.455.113-.423.15-.272.003-.005.054-.098.29-.308.003-.004.35-.226.018-.011"/><path d="m704.606 355.238-.004.004-.367.238-.427.154-.472.064-.498-.028-.505-.119-.493-.205-.461-.285-.411-.352-.347-.406-.268-.445-.18-.466-.083-.47.015-.455.113-.423.153-.277.003-.006.051-.092.293-.312.004-.002M704.695 352.297l.268.444M705.228 353.677l-.014.455-.113.423-.206.375M701.086 351.12l.428-.154.472-.063M702.484 350.932l.504.119M703.48 351.256l.46.284M712.881 347.056l.109.436.016.414-.077.377-.167.324-.249.258-.003.003-.326.186-.07.019-.007.003-.311.083-.435.019-.466-.067-.478-.151-.472-.229-.448-.297-.406-.357-.349-.4-.279-.428-.198-.44-.109-.437-.015-.414.012-.059.001-.006.064-.311.169-.325.252-.26.004-.002.323-.184.388-.104.435-.019.465.069.478.151M719.463 343.696l-.2.2-.002.002-.276.128-.34.05-.391-.032-.366-.096-.01-.002-.05-.013-.445-.187-.447-.255-.432-.314-.4-.36-.353-.393-.292-.41-.158-.296-.004-.008-.057-.108-.14-.397-.053-.368.035-.324.121-.268.203-.202.003-.002M715.408 340.043l-2.553 1.496M715.684 339.915l.34-.048M717.73 340.453l.431.313M724.803 340.334l-.142.136-.002.001v.001l-.002.002-.219.065-.204-.007h-.005l-.077-.003-.34-.086-.38-.159-.408-.226-.419-.283-.414-.331-.393-.364-.355-.385-.308-.39-.244-.381-.175-.356-.096-.318-.015-.268.067-.207.146-.139.003-.001.218-.064.287.011.338.087M721.668 336.671l.376.157.408.226.418.283.413.33.392.364.356.384.306.389.245.38.174.356.097.318.015.268-.034.107-.001.003M720.818 336.637l-2.791 1.647M728.627 338.607l-.084.073-.001.001-.158.001-.225-.072-.284-.144-.332-.208-.368-.266-.388-.312-.394-.348-.265-.254-.001-.002-.119-.113-.269-.281-.092-.096-.323-.369-.272-.348-.004-.006-.001-.001-.207-.307-.143-.266-.068-.209.009-.145.082-.071.003-.002h.002l.157-.001.226.074.284.143.332.209M725.875 335.396l.217.156.388.313.393.347.313.3.001.001.07.067.36.376.323.37.272.347M728.426 337.986l.143.266.006.019.063.191"/><path d="m724.723 334.862-1.094.636-1.856 1.081M729.92 337.511l.302.315.251.27.192.215.125.151.053.082-.021.009-.093-.064-.164-.135-.226-.2-.281-.258-.325-.306-.356-.342-.373-.365-.377-.374-.365-.368-.34-.349-.302-.315-.251-.27-.192-.215-.124-.15-.052-.08-.001-.001.022-.009.001.001M727.281 334.952l.226.201.281.258.325.305.355.342M727.003 334.762l-1.124.633M731.372 339.839l-.048-.093-.168-.256-.229-.306-.259-.316M632.13 454.799l.17-.167.243-.082.308.009.36.097.398.183.222.138.201.125.429.33.195.18.225.207.394.427.353.452.299.46.233.448.159.42.077.378-.007.317-.09.247-.002.002-.168.165-.096.032-.004.001-.077.025-.003.001-.064.022-.308-.009-.359-.099-.22-.101h-.001l-.178-.082-.422-.262-.428-.331-.419-.385-.393-.427-.353-.451-.148-.226-.151-.233-.233-.447-.055-.146-.002-.004-.101-.268-.001-.003-.078-.376.006-.319.088-.245.001-.003Zm0 0 .867-1.452.791-1.326M636.129 459.136l.003-.001M629.73 459.277l.001-.002.097-.101.175-.019.243.066.304.147.103.065.001.001.248.158.175.131.212.16.406.348.127.12.001.001.283.27.399.419.373.431.33.426.14.204.001.002.067.098.069.101.212.368.139.318.061.254-.02.181-.001.002-.098.1-.06.006-.004.001-.069.007-.042.004-.244-.066-.304-.148-.352-.224-.386-.291-.406-.347-.41-.39-.398-.419-.001-.001-.001-.001-.37-.428-.33-.425-.277-.405-.014-.025-.001-.001-.197-.342-.139-.317-.062-.255.018-.18.001-.002Zm0 0 .49-.827.414-.699.97-1.636M633.777 463.526l.004-.002M629.148 462.034l.004-.006.022-.028.105.047.18.126.247.199.304.266.351.323.013.012.001.001.064.061.306.292.402.395.404.41.391.409.362.392.321.359.266.313.202.255.129.188.052.112-.028.033-.058-.027-.004-.001-.044-.02-.179-.126-.247-.2-.305-.266-.35-.322-.383-.366-.401-.394-.403-.41-.391-.407-.362-.391-.321-.359-.266-.314-.202-.255-.13-.188-.052-.112v-.001Zm0 0 .96-1.658M633.246 466.193l.003-.002"/><path d="m633.188 466.168.028.026.364.313.318.257.263.192.196.119.122.042v-.001l.005-.002 1.136-.64M668.706 417.465l-.512-.277-.451-.373-.375-.454-.283-.517-.181-.56-.072-.582.041-.582.086-.319.065-.24.255-.515.351-.451.432-.369.497-.274.542-.168.568-.055.229.024.341.035.552.172.512.278.451.373.375.454.283.517.181.56.072.583-.041.582-.151.559-.256.515-.351.451-.432.369-.497.274-.542.167-.568.055-.57-.06-.551-.172ZM634.48 467.118l1.139-.642"/><path d="m633.222 466.049.051.111.001.001-.025.03-.003.003-.055-.025-.003-.001-.047-.021-.18-.126-.247-.201-.305-.266-.35-.322-.383-.365-.401-.395-.403-.409-.39-.408-.363-.391-.32-.359-.267-.313-.202-.255-.129-.188-.053-.113v-.001l.027-.033M632.305 464.935l.32.36.267.313M633.246 466.195l.44-.237.001-.001 1.162-.627.361-.195M630.012 462.641l.351.322.013.012.001.001.062.059.001.001.307.293.402.396.404.41M633.877 463.426v.002l-.094.096-.005.005-.057.006-.004.001-.069.007-.045.004-.244-.066-.304-.148-.352-.224-.386-.291-.406-.347-.41-.39-.398-.418-.002-.002-.001-.001-.369-.427-.33-.426-.277-.404-.015-.026v-.001l-.197-.342-.14-.317-.061-.255.018-.182.001-.001M633.207 461.901l.139.204.002.002.065.096.001.001M633.484 462.307l.212.369.139.317M630 459.158l.244.066.304.147M633.777 463.53l1.079-.544.001-.001.049-.024.002-.001.083-.042.003-.002.361-.181v-.001l.269-.135.001-.001M631.695 460.234l.126.12.002.001M636.389 458.726l-.089.245-.001.003-.164.161-.006.006-.088.029-.004.001-.08.026-.003.001-.069.023-.307-.009-.36-.098-.221-.102-.002-.001-.176-.081-.421-.262-.429-.33-.419-.386-.393-.427-.353-.451-.149-.228-.15-.23-.233-.448-.057-.152-.002-.004-.1-.264v-.001l-.078-.376.006-.318.089-.248.002-.002.168-.166.243-.081M634.031 455.106l.429.331.193.178.227.208.394.428.353.452M635.926 457.162l.234.448.158.421.077.376M636.129 459.14l2.511-1.145M632.848 454.563l.36.098.399.183M637.899 446.006l-1.598 2.719-.157.308-.07.376.019.431.107.468.053.134.138.353.152.276.117.213.335.47.389.435.427.382.05.034.4.28.347.179.108.057.443.146.414.053.369-.043 2.877-1.117"/><path d="m636.301 448.724.237-.228.309-.138.369-.044.414.052.25.083.193.064.456.235.451.315.428.383.389.435.336.471.268.489.04.101.152.387.06.266.023.102.023.101.019.43-.071.376-.158.308-.238.227-.309.137M643.18 439.309l-1.265 2.265-.13.427-.035.478.06.509.153.522.241.515.318.487.385.441.435.379.093.059.377.242.079.035.407.177.484.115.463.014.424-.089 2.584-.75"/><path d="m641.914 441.573.219-.36.3-.279.369-.188.175-.037.249-.052.463.013.485.114.487.212.47.302.436.379.385.442.319.488.24.515.153.522.06.51-.036.478-.131.426-.031.052-.188.308-.3.279-.37.187M650.107 431.035l-.921 1.866-.181.468-.083.516.019.543.119.55.216.535.304.501.381.447.442.376.487.29.513.193.52.09.506-.019 1.28-.179"/><path d="m649.184 432.902.274-.402.314-.285.04-.036.422-.229.473-.125.506-.019.52.089.514.193.488.29.442.377.381.447.304.501.216.537.12.55.018.544-.084.515-.182.468-.273.402-.355.321-.009.005-.413.222-.473.125M657.95 422.536l-.441 1.25-.122.543-.016.568.092.57.196.551.292.511.378.451.447.374.501.282.535.18 1.25.165"/><path d="m657.508 423.787.224-.498.069-.094.248-.339.399-.352.465-.257.513-.152.542-.042.549.07.536.18.501.282.448.375.378.451.292.511.196.552.092.571-.016.568-.122.543-.225.497-.318.433-.399.351-.465.257-.513.152-.199.015-.343.026-.549-.07M678.876 406.947l-.517-.277-.454-.373-.373-.454-.278-.518-.082-.269-.09-.294-.059-.585.056-.586.169-.563.275-.519.37-.455.452-.373.516-.278.101-.031.46-.14.583-.058.583.057.562.17.517.277.454.372.373.455.278.518.172.563.058.585-.055.586-.169.563-.275.519-.371.455-.452.373-.516.278-.56.171-.583.058-.584-.057-.561-.17ZM689.444 396.43l-.52-.28-.454-.373-.373-.454-.275-.515-.157-.52-.012-.038-.055-.579.061-.578.118-.375.057-.18.281-.51.377-.445.458-.364.522-.268.566-.163.588-.051.587.063.564.175.519.28.455.373.372.453.276.516.168.558.055.579-.061.577-.174.555-.281.51-.376.445-.459.364-.522.269-.566.163-.588.051-.587-.064-.564-.174ZM703.664 382.143l.05.091.227.417.172.547.059.564-.055.559-.167.534-.274.487-.369.423-.451.341-.514.247-.559.143-.582.033-.582-.077-.56-.185-.517-.286-.454-.375-.372-.451-.278-.508-.171-.547-.06-.564.056-.56.168-.534.274-.487.369-.423.451-.341.515-.246.559-.142.136-.008.445-.026.582.078.56.185.516.286.454.375.372.45Zm0 0 .39.503M701.18 380.769l-.481.021M714.305 374.58l-.039.532-.032.108-.117.394-.254.453-.348.387-.429.306-.494.213-.54.112-.565.006-.568-.099-.549-.201-.51-.295-.451-.378-.374-.447-.282-.497-.181-.529-.072-.541.039-.532.15-.502.254-.453.349-.387.162-.115.268-.19.494-.212.54-.112.564-.006.568.099.549.202.509.295.45.377.374.446.282.497.181.529.072.54Zm0 0 .082 1.532M710.218 371.712l-1.355.525M750.93 352.456l.602-1.046v-.002M749.904 351.764l.535-.965.001-.002.329-.593v-.001l.213-.384-.062-.091-.139-.165-.21-.235-.275-.293-.328-.342-.368-.378-.395-.397-.407-.404-.402-.393-.382-.369-.349-.329-.3-.277-.242-.215-.173-.144-.098-.068"/><path d="m750.981 349.819-.003.002-.015.01-.001-.001-.096-.066-.172-.143-.241-.215-.301-.277-.349-.329-.383-.369-.403-.394-.407-.405-.396-.399-.369-.377-.328-.343-.275-.294-.21-.234-.139-.165-.061-.09.019-.011M747.674 351.902v-.001l.015-.029.127-.243.21-.403.002-.003.278-.535.386-.742.005-.159-.078-.229-.158-.29-.232-.34-.297-.378-.35-.399-.391-.407-.213-.206-.002-.001-.2-.192-.425-.375-.417-.337-.308-.223-.001-.001-.086-.062-.356-.224-.304-.153-.24-.077-.168.002-.002.001"/><path d="m748.694 349.946-.004.005-.083.078h-.002l-.165.004-.24-.076-.304-.153-.356-.224-.395-.286-.418-.337-.425-.376-.417-.4-.036-.037-.001-.002-.354-.368-.351-.401-.297-.378-.071-.104v-.001l-.161-.235-.157-.291-.078-.228.006-.159.087-.081.001-.001M743.603 354.097l.818-1.723.002-.004.133-.28.001-.002.101-.213.068-.227-.02-.293-.007-.023-.001-.003-.1-.32-.191-.387-.267-.412-.333-.423-.385-.416-.425-.393-.446-.357-.451-.305-.379-.211-.059-.032-.409-.171-.101-.026h-.003l-.261-.066-.305-.01-.139.043-.096.029-.004.003"/><path d="m744.659 351.874-.006.006-.148.147-.003.001-.012.004-.003.001-.216.068-.305-.009-.364-.092-.138-.057-.003-.001-.268-.112-.44-.243-.451-.306-.447-.357-.425-.395-.387-.417-.257-.326-.076-.097-.267-.413-.191-.387-.038-.123-.069-.223-.02-.292.069-.227.154-.151.001-.002M737.902 358.184l1.198-2.906.034-.354-.061-.4-.154-.431-.239-.447-.168-.235-.149-.209-.381-.423-.001-.001-.432-.39-.466-.338-.482-.276-.282-.118-.197-.083-.455-.118-.004-.001-.419-.033-.366.054-.296.141-2.789 1.618"/><path d="m739.1 355.278-.083.193-.043.1-.216.221-.003.002-.293.139-.365.056-.419-.033-.439-.114-.011-.002-.009-.003-.324-.135-.156-.066-.464-.264-.019-.011-.467-.339-.433-.39-.382-.426-.317-.445-.175-.326-.005-.008-.06-.113-.153-.432-.061-.4.035-.353.127-.293.214-.218.003-.002M731.581 361.825l.395-1.235.081-.41-.02-.45-.12-.473-.216-.478-.255-.391-.048-.073-.269-.308-.109-.125-.439-.385-.484-.322-.509-.247-.515-.163-.502-.071-.469.022-.418.114-2.352 1.311"/><path d="m731.979 360.59-.014.028-.164.326-.27.284-.004.002-.346.202-.114.031-.007.003-.297.082-.469.022-.502-.071-.516-.162-.51-.247-.484-.323-.44-.385-.379-.434-.303-.465-.216-.478-.12-.474-.019-.45.015-.078.002-.006.064-.326.18-.354.267-.28.003-.003.279-.162.072-.042M723.458 368.223l.132-.715.098-.533.013-.494-.092-.51-.196-.506-.291-.482-.376-.44-.445-.381-.498-.307-.532-.222-.545-.128-.538-.03-.509.071-.462.168-1.963.985"/><path d="m723.687 366.974-.023.087-.097.373-.222.408-.117.127-.007.008-.19.206-.004.002-.391.257-.462.169-.509.071-.538-.029-.546-.128-.532-.222-.499-.307-.446-.382-.376-.44-.292-.483-.195-.506-.093-.51.015-.495.12-.46.177-.325.003-.006.042-.077.312-.336.003-.004.379-.247.017-.012"/><path d="m723.411 367.716-.073.134-.109.118-.007.008-.194.21-.004.004-.045.03-.35.23-.462.168-.509.072-.538-.029-.546-.128-.532-.222-.499-.308-.446-.381-.376-.441-.292-.482-.195-.506-.093-.511.015-.495.12-.46.18-.33.004-.006.038-.071.315-.34.005-.003.391-.256M722.293 364.168l.445.381.376.44M732.052 360.185l-.081.41-.178.354-.267.281-.003.004-.35.204-.106.029-.007.002-.305.084-.469.023-.502-.071-.516-.163-.119-.057-.391-.19-.018-.012-.466-.31-.44-.386-.379-.433-.303-.465-.216-.479-.12-.473-.019-.451.017-.083.001-.007.064-.319.179-.354.27-.284.004-.002.347-.201.418-.115.469-.022M729.066 356.771l.515.163.509.246.484.323.439.385.111.126.267.306.049.075.254.389.216.478.12.473M739.068 354.529l.061.4-.033.354-.127.293-.213.219-.003.002-.296.141-.364.056-.42-.033-.429-.111-.01-.003-.02-.005-.322-.135-.158-.066-.461-.263-.022-.012-.466-.339-.433-.39-.383-.426-.224-.314-.093-.131-.179-.334-.005-.008-.049-.092-.007-.013-.153-.432-.06-.4.034-.353.128-.293.216-.22.003-.002.294-.139.365-.054.42.033.007.002.451.117M736.316 351.661l.279.117.482.276.466.338.432.39.003.003.379.421.151.211.166.233M734.578 351.62l-2.777 1.611M744.703 351.358l.02.292-.068.227-.153.152-.001.002-.01.003-.003.001-.221.069-.305-.009-.364-.091-.138-.058-.003-.001-.269-.112-.439-.243-.452-.305-.447-.357-.424-.395-.387-.417-.256-.325-.077-.098-.268-.413-.191-.387-.037-.12-.07-.227-.019-.292.069-.227.155-.152.003-.001.096-.03M740.345 347.874l-2.482 1.455-.551.322M740.578 347.802l.305.01.265.067M742.992 348.979l.424.394.386.416M748.691 349.947l-.087.082-.001.001-.167.004-.24-.076-.304-.153-.356-.224-.395-.286-.418-.337-.425-.376-.417-.4-.036-.037-.001-.001-.354-.37-.351-.4-.297-.378-.07-.104-.001-.001-.16-.236-.158-.29-.078-.228.006-.159.086-.08.002-.002h.002M745.93 346.634l.418.337.424.375.201.192.001.002.213.204.391.408.35.399.297.378M748.617 349.559l.078.229M744.469 345.896l-1.753 1.017-.489.284-.957.555M745.539 346.348l.085.062M750.919 349.728l.062.09-.018.012-.097-.067-.173-.143-.241-.214-.3-.278-.349-.329-.383-.369-.403-.394-.407-.404-.396-.399-.369-.378-.328-.343-.275-.293-.211-.234-.138-.165-.061-.09.019-.012.001.001.097.067.173.144M749.203 347.916l.395.398.369.377.328.342.274.294.211.234M746.849 345.718l-1.224.691M751.529 351.407l-.026-.135-.104-.209-.178-.274-.245-.329-.21-.258M870.872 441.5l-.149-5.749-3.548-8.665-5.106-8.598-.371-.625-6.176-7.864-1.137-1.447-7.053-7.089-1.872-1.882-8.039-5.946-2.59-1.916-8.18-5.751-2.507-1.763-8.325-5.541-1.973-1.313-9.114-4.114-1.596-.721-9.59-2.836-.647-.191-8.613-1.754-8.409 1.095-.428.179M976.836 802.587l.392 9.992.078 1.994.392 9.993.392 9.992.392 9.992.117 2.98.392 9.993.392 9.992.392 9.992.392 9.993.392 9.992.392 9.992.392 9.993.398 10.128 7.51 6.602 7.511 6.602 7.508 6.602 7.51 6.602 7.51 6.603 7.52 6.602 7.51 6.602 7.51 6.602 7.25 6.372 7.81 6.248 7.58 6.071 7.81 6.247 7.57 6.06 7.81 6.25 7.55 6.04 7.81 6.25 7.53 6.02 5.14-3.1 6.13-7.9.38-.49-4.31-9.02-4.31-9.02-3.73-7.807-3.95-9.188-3.95-9.188-3.58-8.352-4.18-9.086-4.17-9.087-1.32-2.853-2.25-4.915-1.84-9.391-1.92-9.814-1.92-9.814-.68-3.471 3.49-9.373 1.36-3.651 3.48-9.372.47-1.24 2.47-6.664 3.27-8.78-4.42-2.953-1.68-1.125-8.32-5.554-8.32-5.553-8.31-5.554-8.32-5.554-8.32-5.554-8.31-5.553-8.32-5.554-8.31-5.554-8.32-5.554-8.32-5.553-8.43-5.634-7.168-4.787-8.301-5.543-4.625 3.762Z"/><path d="m981.461 798.825.401 9.992.35 8.707.401 9.992.401 9.992.256 6.368.401 9.992.401 9.992.401 9.992.401 9.992.401 9.992.401 9.992.401 9.992.415 10.329M981.742 927.605l4.751-3.456 7.51 6.603 7.507 6.603 7.51 6.602 7.51 6.603 7.51 6.603 7.51 6.603 7.51 6.602 7.51 6.603 7.47 6.559 7.8 6.249 7.64 6.111 7.8 6.25 7.62 6.1 7.81 6.24 7.6 6.09 7.8 6.25 7.58 6.06M1261.16 813.335l9.04 4.264 7.33 3.455 5.24-3.498 5.58-7.192-6.33-7.737-5.48-6.685-6.33-7.737-5.46-6.669-6.34-7.738-5.45-6.653-6.33-7.737-5.44-6.638-6.64-7.471-6.65-7.47-6.65-7.471-6.64-7.471-6.65-7.471-6.65-7.471-6.65-7.471-6.64-7.471-2.28-2.554-10-.082-10-.081-10-.082-10-.081-9.99-.082-10-.081-7.12-.058-10-.082-10-.081-2.78-.023"/><path d="m1253.25 804.017 7.39 3.089 9.04 4.27 9.04 4.269 4.05 1.911M1446.83 381.683l.97 1.233 6.39 7.781 2.88 3.191 2.84 3.171 3.02 3.036 3.03 3.067 3.04 2.761 3.94 3.617 2.51 2.237M1555.08 455.375l4.43 1.499 9.76 2.181 9.59 2.145 5.14 1.074 9.93 1.17 9.93 1.169.64.075 10 .157 10 .157.87.014 5.04.074 9.96-.827 9.97-.827 1.39-.116 9.84-1.8 9.83-1.8 1.56-.284 9.61-2.75 9.61-2.749 1.7-.484 4.33-1.299 9.3-3.663 9.31-3.663 1.83-.72 8.91-4.541 8.9-4.541 1.86-.943 8.42-5.379 8.44-5.378 1.83-1.171 7.87-6.167 7.87-6.167 1.78-1.395 7.24-6.901 7.24-6.901 1.69-1.611 2.56-2.552 6.53-7.573 6.53-7.572 1.43-1.658 5.76-8.177 5.76-8.177 1.26-1.803 4.92-8.706 4.92-8.706 1.09-1.924 4.03-9.153 4.02-9.154.89-2.022 3.09-9.512 3.08-9.512.68-2.095 2.11-9.776 2.1-9.776.47-2.145.49-2.52 1.08-9.941 1.09-9.941.2-1.842.05-10 .05-10 .01-1.847-1-9.95-1-9.95-.19-1.844-2.04-9.79-2.04-9.789-.38-1.832-.41-1.951-2.72-8.437M1699.65 32.437l-.15-.035-9.71-2.373-9.72-2.372-.67-.164-9.9-1.385-9.9-1.384-1.98-.276-9.99-.392-10-.393-1.98-.077-2.64-.1-9.98.586-9.98.586-2.33.137-9.87 1.551-9.88 1.552-2.27.355-9.68 2.5-9.68 2.497-2.17.56-9.4 3.416-9.4 3.416-2.04.743-9.03 4.3-9.03 4.301-1.89.902-2.9 1.508-8.58 5.14-8.57 5.14-1.92 1.151-8.05 5.934-8.05 5.934-1.7 1.252-7.44 6.675-7.45 6.675-1.46 1.312-6.78 7.358-6.77 7.358-1.23 1.336-6.03 7.975-6.03 7.975-1.01 1.323-5.23 8.521-5.23 8.521-.79 1.279-2.11 3.557-4.38 8.991-4.37 8.992-.59 1.2-3.46 9.38-3.47 9.38-.39 1.066-2.52 9.679-2.51 9.678-.24.921-.74 4.656-1.53 9.882-1.53 9.883-.08.545-.51 9.987-.5 9.987-.02.346.54 9.985.54 10.158.38 4.703 1.6 9.871 1.52 9.392 1.16 4.933.86 3.074"/><path d="m1408.8 303.501-1.9 9.817-1.9 9.818-.32 1.677.69 2.676 2.76 4.961 4.67 7.079 5.95 8.043 3.63 4.916 6.44 7.647 3.06 3.629 6.34 7.735 3.77 4.605 4.83 5.578 1.04 1.202.1.108 4.56 5.267 6.87 7.271 6.86 7.272 1.5 1.587 7.21 6.924.49.463 5.18 4.979 7.44 6.69 4.32 3.893 7.51 6.605 3.77 3.317 7.65 6.439 4.28 3.608 8.08 5.9.77.563 5.32 3.31 3.12 1.184 9.92-1.292 9.91-1.291 2.36-.307"/><path d="m1548.47 449.745-8.02-5.971-2.1-1.562-7.62-6.481-6.14-5.225-7.49-6.627-5.57-4.928-6.61-5.973-7.03-6.347-7.21-6.929-7.22-6.928-.55-.533-6.87-7.266-6.87-7.266-3.99-4.215-6.56-7.545-5.7-6.56-2.87-3.479-6.36-7.718-2.55-3.103-6.49-7.614-4.59-5.398-6-8.001-5.17-6.89M1840.77 134.71l-3.07-3.052-.35-.352-4.21-4.604-4.14-4.552-5.17-5.374-5.62-5.807-5.29-5.347-6.29-6.218-5.67-5.506-6.81-6.506-6.05-5.593-6.82-6.306-6.31-5.726-6.35-5.644-6.45-5.76-4.96-5.184-3.17-3.776-5.14-4.031-4.86-3.828-4.38-3.368-3.84-2.887-1.81-1.306-1.5-1.09-2.37-1.764"/><path d="m1730.14 31.13.6-.418.09-.193-.8.014-9.98.612-9.98.61-9.98.612-.59.036M1699.65 32.438l-.21.246M1845.12 173.385l.81-9.967.82-9.966.8-9.794-.43-1.277-1.01-1.861-1.59-2.444-1.85-2.439-4.97-3.979M1842.67 135.637l-1.9-.927M380.009 763.173l-1.004-.425-5.843-2.003-5.167-1.549-6.42-1.672-6.281-1.1-6.62-.771-6.649-.56-6.375.089-7.705.254-6.504.799-8.006 1.365-6.466 1.591-8.087 2.482-6.258 2.44-7.95 3.572-5.886 3.315-7.601 4.6-5.362 4.183-7.055 5.533-6.295 6.296-4.737 5.05-5.466 6.987-3.916 5.752-4.503 7.5-3.024 6.332-3.439 7.811-2.094 6.766-2.312 7.898-1.166 7.032-1.161 7.75-.276 7.119-.029 7.361.536 7.019 1.049 6.74 1.239 6.738 1.967 6.884 1.863 5.302 2.447 6.353.315.651 2.758 5.704 3.402 5.829.269.462 1.933 2.861 3.782 5.508 4.246 5.334 4.663 5.105 5.035 4.822 5.353 4.49 5.617 4.112 5.821 3.691 5.498 2.981.469.254 2.874 1.451 6.762 3.07 1.758.646 5.024 1.846 6.734 1.892 5.36 1.189 7.243 1.395 7.037.71 6.759.291 7.274.02 6.903-.716 7.715-.84 6.848-1.529 7.919-1.986 6.603-2.382 7.886-3.111 6.178-3.243 7.626-4.176 7.09-5.101 5.664-4.12 6.499-5.984 4.892-4.853 5.737-6.726 4.038-5.484 4.841-7.301 3.132-5.993 3.843-7.69 2.863-8.111 2.13-6.131 1.749-8.166 1.247-6.278.626-8.009.432-6.268-.11-2.318M444.707 837.516l-.004-.017M438.95 820.44l-2.415-5.483-2.238-4.208"/><path d="m229.766 914.656.841 6.361 2.403 6.83 3.791 6.833 4.349 6.564 6.49 7.608.644.755 6.795 6.089 6.622 5.025 7.063 4.408 8.885 3.861 7.886 1.842 4.471.144"/><path d="m278.143 965.555-3.865-1.683-8.171-5.107-7.667-5.82-7.446-6.675-.422-.378-6.491-7.606-1.772-2.077-5.037-7.596-1.346-2.424M433.68 807.44l.388 2.243.049.724.093 1.387-.053 1.028-.053 1.033-.412 2.323-.779 1.884-.51 2.254-.877 2.073-1.78.949-2.049.663-2.305.364-2.546.055-2.769-.263-2.615-.396-2.702.39-3.442-.841-3.623-1.53-3.202-1.684-3.721-2.083-3.741-2.39-3.242-2.325-3.614-2.809-3.039-2.594-3.41-3.18-2.849-2.827-2.959-3.319-2.554-3.112-2.357-3.189-2.147-3.389-1.059-3.296-.202-2.592-1.139-2.743-.784-2.767-.437-2.601-.094-2.414.242-2.21.73-1.914 2.029-1.145 1.789-1.042 1.778-1.171 2.098-.836 1.845-.496.685-.089 1.354-.175.789-.014 1.419-.025 2.366.179 3.432.701 3.101.96 2.908 1.17 2.843 1.273 3.268 1.649 3.785 2.219 2.653 1.756 2.591 1.828 2.824 2.147 3.591 3.075 2.297 2.203 2.234 2.268 2.268 2.456 2.986 3.651 1.898 2.64 1.75 2.634 1.66 2.719 1.553 3.189 1.146 3.021.623 2.353Zm0 0 .619 3.31 1.236 6.599M434.594 830.677l.968-2.373.51-2.918M384.269 763.527l-4.259-.355-6.022-.502M446.293 865.907l1.495-4.104 1.017-2.791.258-1.29.276-1.385.028-.138.05-.741.133-1.295.135-1.377.049-.246-.018-.411-.083-1.753-.09-1.861-.03-.608-.103-.744-.305-2.087-.303-2.131-.118-.976-.103-.449-.446-1.753-.42-1.651-.329-1.296-.051-.234-.473-1.608-.594-1.977-.55-1.87-.5-1.746-.405-1.487-.105-.517-.35-.827-.433-1.023-.347-.827-.284-.686-.256-.609-4.089-2.969"/><path d="m445.803 855.13-.421-1.526-.365-1.67-.306-1.799V850.025l.001-.191.002-.713-.216-1.657-.316-2.167-.321-1.951-.289-2.051-.169-2.259-.105-1.696.035-.621.059-1.051-.16-1.928-.081-.847-.094-1.002-.037-.846-.036-.819-.091-1.524-.075-1.53-.293-1.278-.004-.016-.011-.049-.057-1.061M440.766 851.177l.275 2.121-.004 1.298M438.25 823.515l.391 1.715.092 1.952.112 1.947.09 2.127.22 2.365"/><path d="m442.523 825.894.079-1.408.027-.558"/><path d="m442.453 824.767.146-.272.005-.01M438.952 820.44l-.109.064-.27.156-.155.434M442.629 823.927l.118-.343.208-.124.084-.051M444.648 864.113l.615.367.299 1.182M448.457 859.554l-.222-.741-.233-.927-.465-1.138-.095-.231-2.684-6.566M443.043 862.723l.223-.072.288-.038.522.876M1383.26 284.037l-7.18-6.965-7.17-6.965-7.18-6.965-5-4.857-6.97 7.175-6.96 7.176-6.97 7.175-4.85 5.004 7.17 6.965 7.18 6.965 7.17 6.965 5.01 4.857 6.96-7.175 6.97-7.176 6.96-7.175 4.86-5.004ZM1350.4 252.153l-7.18-6.965-7.17-6.965-1.51-1.463-6.97 7.175-6.96 7.175-1.47 1.508 7.18 6.965 7.17 6.965 1.51 1.464 6.97-7.176 6.96-7.175 1.47-1.508ZM1369.15 237.418l-7.17-6.965-3.68-3.565-6.96 7.175-3.57 3.673 7.18 6.965 3.67 3.565 6.97-7.175 3.56-3.673ZM1294.94 1330.78l-7.16-6.98-7.16-6.98-7.15-6.98-7.16-6.99-7.16-6.98-7.16-6.98-7.16-6.98-7.16-6.99-7.16-6.98-7.16-6.98-7.16-6.98-7.15-6.98-7.16-6.99-7.16-6.98-7.16-6.98-7.16-6.98-7.16-6.98-7.16-6.99-7.16-6.98-7.16-6.98-7.15-6.98-7.16-6.98-7.16-6.99-7.16-6.98-7.16-6.98-7.16-6.98-7.16-6.99-7.16-6.98-7.16-6.98-7.15-6.98-7.16-6.98-7.16-6.99-7.16-6.98-7.16-6.98-7.16-6.98-7.16-6.98-7.16-6.99-7.16-6.98-7.16-6.98-7.15-6.98-7.16-6.98-7.162-6.99-7.159-6.98-7.159-6.98-7.159-6.98-7.159-6.99-7.159-6.98-7.159-6.979-7.159-6.982-7.159-6.982-7.159-6.983-7.159-6.983-7.158-6.982-7.159-6.982-7.159-6.981-7.159-6.982-7.159-6.982-7.159-6.983-8.936-8.715 6.982 7.159 6.982 7.159 6.982 7.159 6.983 7.159 6.982 7.158 6.982 7.159 6.982 7.159 6.982 7.159 6.982 7.159 6.982 7.159 6.982 7.159 6.982 7.158 6.983 7.16 6.982 7.16 6.982 7.16 6.982 7.16 6.982 7.16 6.982 7.15 6.983 7.16 6.98 7.16 6.98 7.16 6.99 7.16 6.98 7.16 6.98 7.16 6.98 7.16 6.98 7.16 6.99 7.15 6.98 7.16 6.98 7.16 6.98 7.16 6.99 7.16 6.98 7.16 6.98 7.16 6.98 7.16 6.98 7.16 6.99 7.16 6.98 7.15 6.98 7.16 6.98 7.16 6.98 7.16 6.99 7.16 6.98 7.16 6.98 7.16 6.98 7.16 6.98 7.16 6.99 7.15 6.98 7.16 6.98 7.16 6.98 7.16 6.99 7.16 6.98 7.16 6.98 7.16 6.98 7.16 6.98 7.16 6.99 7.15 6.98 7.16 6.98 7.16 6.98 7.16 8.72 8.94M2193.77 1001.95l-7.16-6.987-7.16-6.982-7.16-6.983-7.16-6.982-7.16-6.982-7.16-6.982-7.15-6.982-7.16-6.982-7.16-6.982-7.16-6.982-7.16-6.982-7.16-6.983-7.16-6.982-7.16-6.982-7.16-6.982-7.16-6.982-7.16-6.982-7.15-6.982-7.16-6.982-7.16-6.982-7.16-6.983-7.16-6.982-7.16-6.982-7.16-6.982-7.16-6.982-7.15-6.982-7.16-6.982-7.16-6.982-7.16-6.982-7.16-6.983-7.16-6.982-7.16-6.982-7.16-6.982-7.16-6.982-7.16-6.982-7.15-6.982-7.16-6.982-7.16-6.982-7.16-6.983-7.16-6.982-7.16-6.982-7.16-6.982-7.16-6.982-7.15-6.982-7.16-6.982-7.16-6.982-7.16-6.983-7.16-6.982-7.16-6.982-7.16-6.982-7.16-6.982-8.07-7.876 6.98 7.159 6.98 7.159 6.98 7.158 6.99 7.159 6.98 7.159 6.98 7.159 6.98 7.159 6.98 7.159 6.99 7.159 6.98 7.159 6.98 7.159 6.98 7.159 6.98 7.159 6.99 7.159 6.98 7.158 6.98 7.159 6.98 7.159 6.99 7.159 6.98 7.159 6.98 7.159 6.98 7.159 6.98 7.159 6.98 7.159 6.99 7.159 6.98 7.159 6.98 7.159 6.98 7.158 6.99 7.159 6.98 7.159 6.98 7.159 6.98 7.159 6.98 7.159 6.99 7.159 6.98 7.159 6.98 7.159 6.98 7.159 6.99 7.159 6.98 7.159 6.98 7.158 6.98 7.159 6.98 7.159 6.98 7.159 6.99 7.159 6.98 7.159 6.98 7.159 6.98 7.159 6.99 7.159 6.98 7.159 6.98 7.159 6.98 7.159 6.98 7.163 7.88 8.07M1438.45 397.377l6.98 7.159 6.98 7.159 6.99 7.158 6.98 7.159 6.98 7.159 6.98 7.159 6.98 7.159 6.99 7.159 6.98 7.159 6.98 7.159 6.98 7.159 6.98 7.159 6.99 7.159 6.98 7.159 6.98 7.158 6.98 7.159 6.99 7.159 6.98 7.159 6.98 7.159 6.98 7.159 6.98 7.159 6.99 7.159 6.98 7.159 6.98 7.159 6.98 7.159 6.98 7.159 6.99 7.158 6.98 7.159 6.98 7.159 6.98 7.159 6.98 7.159 6.99 7.159 6.98 7.159 6.98 7.159 6.98 7.159 6.99 7.159 6.98 7.159 6.98 7.158 6.98 7.159 6.98 7.159 6.99 7.159 6.98 7.159 6.98 7.159 6.98 7.159 6.98 7.159 6.99 7.159 6.98 7.159 6.98 7.159 6.98 7.159 6.98 7.159 6.99 7.158 7.87 8.076 7.07-7.071 2.15-2.145-7.16-6.982-7.16-6.982-7.16-6.983-7.16-6.982-7.15-6.982-7.16-6.982-7.16-6.982-7.16-6.982-7.16-6.982-7.16-6.982-7.16-6.982-7.16-6.983-7.16-6.982-7.16-6.982-7.15-6.982-7.16-6.982-7.16-6.982-7.16-6.982-7.16-6.982-7.16-6.982-7.16-6.983-7.16-6.982-7.16-6.982-7.15-6.982-7.16-6.982-7.16-6.982-7.16-6.982-7.16-6.982-7.16-6.983-7.16-6.982-7.16-6.982-7.16-6.982-7.15-6.982-7.16-6.982-7.16-6.982-7.16-6.982-7.16-6.982-7.16-6.982-7.16-6.983-7.16-6.982-7.16-6.982-7.15-6.982-7.16-6.982-7.16-6.982-7.16-6.982-7.16-6.982-7.16-6.983-7.16-6.982-7.16-6.982-7.16-6.982-7.15-6.982-8.08-7.876ZM618.685 439.556l-.001.001M622.438 445.808l.151.273.004.005.485.869 2.56 4.592M629.148 462.035v.001M629.731 459.278l-.001.002M633.79 452.021l-.791 1.326-.87 1.457M634.48 467.116l.002.001M735.519 342.166l-4.148-2.327-.002-.001-.946-.53-.001-.001-.517-.29-.007-.004-1.32-.74M750.926 352.456l.601-1.044.002-.004M742.714 346.912l-.241-.162-1.567-1.059M937.924 786.68l-1.334 2.377M939.175 786.205l-.567 1.032-.088.16-.002.004-1.144 2.082-.001.001-.243.442-.001.002-.031.055M941.509 785.303l-.714 1.36-.001.001-.218.415-.052.1-.002.003-.141.269-.001.002-.053.101-.001.001-.4.762-.287.547-.002.004-.035.067M945.502 782.991l-.003.006-.96 1.974-.001.004-.306.629-.003.006-.053.108M945.676 793.019l2.017 1.649.845.692M953.893 800.49l-.198.362M954.726 800.991l-.19.354v.001l-.236.441v.001l-.015.027M961.581 797.225l-.002.004-.245.524-.002.006-.047.098M1072.91 667.415l.01-.001M1081.04 689.594l1.41-2.633M1089.43 675.981l.8-1.463M1091.36 883.185l2.24 1.343 2.1 1.264M962.086 805.417l8.569 5.155 6.652 4.001M1107.51 896.812v.003l-.01.049M1110.27 899.366v.001M1084.18 670.383l-.42-.683-4.09-6.773M1110.63 714.186l-5.17-8.56-5.17-8.56-2.04-3.381-2.4-3.969-5.17-8.56-1.82-3.022M1175.46 838.508v-.002M1178.7 833.877v-.001M1181.98 827.441l.06-.084M1182.79 824.372l.46-.825M1179.11 821.667l-.51-.913-2.65-4.739M1734.01 33.984l-3.19-3.465"/></g><defs><clipPath id="a"><path fill="#fff" d="M0 0h1920v1080H0z"/></clipPath></defs></svg>