<svg width="1920" height="1080" fill="none" xmlns="http://www.w3.org/2000/svg"><g clip-path="url(#a)" stroke="#EFC018" stroke-width="5" stroke-linejoin="round"><path d="m979.467 782.934.216-.459.319-.375.004-.004.129-.088.009-.006.28-.191.498-.178.557-.066.596.05.612.163.603.271.573.367.519.45.446.515.355.561.252.584.137.586.019.565-.101.522-.135.285-.003.008-.079.166-.324.379-.005.003-.414.28-.498.178-.557.065-.596-.051-.61-.163-.603-.271-.572-.367-.518-.449-.445-.514-.355-.56-.252-.584-.138-.585-.019-.565.1-.522Zm0 0 .006-.024M984.531 787.322l.008-.003M971.246 789.752l.003-.004.362-.219.442-.117.14-.003h.009l.357-.006.551.098.574.203.574.3.554.384.512.454.45.507.37.54.276.552.173.543.05.422.001.009.01.083-.052.463-.163.396-.267.314-.004.002M975.81 794.89l-.443.115-.506.008-.551-.099-.573-.203-.573-.3-.553-.383-.512-.453-.448-.507-.37-.538-.276-.552-.174-.543-.061-.513.05-.464.162-.396M963.869 795.889l.198-.239.002-.003.087-.043.004-.002.204-.102.378-.048.446.054.498.153.53.248.541.331.137.104.03.023.366.277.503.459.427.469.025.027.001.001.388.517.306.515.212.496.112.455.005.398-.1.326-.202.24-.003.002-.292.145-.379.047-.447-.055-.497-.154-.529-.248-.392-.24-.01-.007-.138-.084-.533-.403-.5-.458-.414-.453v-.001l-.039-.043-.387-.515-.306-.515-.006-.015-.004-.009-.203-.47-.112-.456-.006-.398.099-.326Zm0 0 .002-.005"/><path d="m968.965 800.545 1.608-.884 1.7-.936M958.541 799.792l.127-.162.001-.002.132-.042.003-.001.087-.027.307.026.1.032.014.004.266.085.439.213.481.294.018.013.012.009.205.149.008.006.262.19.508.423.494.464.458.487.258.312.001.001.147.179.338.476.257.444.167.393.015.073.002.009.052.246-.03.251-.017.02-.068.086-.001.001-.044.055-.002.001-.12.037-.001.001-.099.031-.308-.028-.38-.122-.407-.197-.032-.016-.159-.097-.001-.001-.321-.196-.504-.366-.323-.27-.002-.001-.182-.152-.492-.463-.457-.486-.406-.49-.338-.476-.044-.076v-.001l-.213-.366-.116-.274-.001-.001-.05-.119-.07-.328.003-.032.001-.003.025-.216Zm0 0 .003-.007M963.539 804.499l3.556-1.999M955.137 801.68l.05-.083.001-.001.144.009.232.103.12.074.008.005.182.112.377.272.43.344.465.402.484.444.482.469.332.341.007.007.125.129.426.465.372.436.305.391.05.073.175.256.136.256.043.172-.052.082v.001h-.002l-.143-.011-.233-.103-.311-.191-.194-.141-.001-.001-.182-.131-.429-.344-.465-.401-.482-.443-.482-.468-.462-.476-.425-.464-.372-.436-.304-.39-.226-.33-.137-.256-.044-.173Zm0 0 .01-.02"/><path d="m960.031 806.439 1.957-1.1 1.422-.799M954.189 800.645l-.478.878v.002l.064.089.155.178.239.26.314.333.377.391.426.438.457.463.472.476.469.466.446.438.407.396.353.338.284.266.206.184.118.095.026.002.625-.344M1037.68 733.096l-.6-.331-.53-.439-.44-.532-.33-.602-.22-.651-.09-.674.04-.671.17-.643.3-.589.4-.513.5-.418.57-.306.63-.182.66-.052.67.08.64.21.6.331.53.439.44.531.33.602.22.651.09.673-.04.671-.17.643-.29.589-.4.513-.5.418-.58.307-.63.182-.66.053-.66-.08-.65-.21ZM953.707 801.524l.001.001"/><path d="m959.729 805.673.001.001.173.255.137.256.043.172-.052.082-.145-.01-.233-.103-.311-.192-.194-.14v-.001l-.183-.132-.429-.343-.465-.401-.482-.443-.482-.469-.462-.475-.425-.464-.372-.436-.305-.39-.225-.33-.137-.256-.044-.174.012-.02.039-.063h.001l.143.009.231.102.127.079.009.005.175.107.377.273.43.344.465.401M959 804.773l.372.436.305.39M960.031 806.44l.001-.001M963.538 804.5l-.001.002-.124.038-.002.001-.097.03-.308-.027-.38-.122-.398-.193-.041-.02-.137-.084-.002-.001-.342-.21-.503-.366-.325-.27-.001-.001-.182-.151-.492-.463-.457-.487-.406-.49-.337-.476-.053-.091-.001-.001-.204-.351-.121-.285-.046-.108-.07-.329.004-.037.001-.003.024-.211.007-.009.121-.154.003-.001M962.719 802.271l.001.002.144.174.338.477.258.443.166.393M958.801 799.587l.003-.001.082-.026.307.026M963.662 804.339l-.015.018-.069.088M963.535 804.502l3.56-2.002M959.57 799.708l.439.212.481.295M960.723 800.382l.008.005.267.194.509.423M969.162 800.31l-.2.237-.002.003-.296.146-.378.047-.447-.055-.497-.154-.529-.248-.377-.231-.011-.006-.153-.093-.531-.404-.502-.458-.413-.451-.001-.002-.039-.042-.386-.517-.306-.514-.013-.029-.004-.01-.196-.456-.112-.455-.007-.399.099-.326.008-.009.193-.232.003-.001.09-.046.004-.001M964.734 795.456l.446.054.498.154.529.247.542.332.167.126.031.023.334.254.503.459.403.441.025.028.026.028.387.517.306.516.213.495.111.455.006.398M968.961 800.55l1.612-.887 1.725-.949M970.817 790.465l-.051.464.062.513.173.542.277.552.369.539.449.506.511.453.553.384.574.299.573.203.55.1.506-.009.443-.115 2.9-1.504"/><path d="m970.816 790.465.059-.144.103-.252.266-.315.004-.002.358-.217.442-.117.149-.003h.009l.348-.006.551.098.574.203.575.3.553.384.512.454.45.507.37.54.276.552.173.543.049.414.001.008.011.092-.052.463-.163.396-.264.31-.003.004-.336.202-.026.017M984.945 787.042l-.003.004-.403.273-.016.011-.498.177-.557.065-.596-.05-.611-.164-.602-.27-.572-.367-.518-.449-.445-.515-.356-.56-.251-.584-.138-.585-.02-.564.1-.522.015-.032.201-.428.324-.379.004-.003.133-.09.009-.006.272-.185.497-.179.558-.065M985.584 785.688l-.101.521-.131.278M984.523 787.33l2.497-1.144M983.855 782.425l.519.45.446.515M989.288 774.445l-.015.608.111.621.232.611.343.578.443.521.524.446.587.352.625.246.641.13.632.009.598-.112 1.844-.633"/><path d="m989.289 774.445.139-.571.107-.211.152-.302.369-.433.463-.339.542-.23.598-.113.632.008.641.13.626.246.588.353.525.446.443.522.344.578.231.612.11.622-.015.608-.14.571-.26.512-.369.433-.115.085-.349.253-.541.23M1000.3 765.447l.21.632.34.591.44.527.53.442.6.342.64.227.66.104.66-.023 1.1-.083"/><path d="m1000.3 765.447-.04-.233-.06-.417.04-.641.17-.609.29-.553.4-.476.49-.38.58-.271.62-.149.66-.024.66.104.64.227.6.342.53.443.44.527.34.591.21.633.1.65-.04.641-.17.609-.29.553-.4.476-.5.38-.57.27-.41.097-.21.052M1014 756.815l-.6-.334-.53-.441-.44-.53-.33-.6-.21-.646-.08-.668.05-.664.18-.634.31-.58.41-.504.51-.408.59-.297.64-.174.68-.045.67.087.65.214.6.334.53.441.44.531.33.6.22.646.08.668-.06.664-.18.634-.3.58-.42.504-.51.408-.59.296-.64.174-.67.045-.68-.087-.65-.214ZM1025.89 745.055l-.6-.331-.53-.439-.44-.532-.33-.604-.21-.652-.08-.676.05-.674.18-.646.31-.592.41-.516.52-.421.59-.309.64-.185.67-.054.68.078.65.209.6.33.53.44.44.532.33.603.21.653.08.676-.05.673-.18.646-.31.592-.42.517-.51.42-.59.309-.64.186-.67.054-.68-.079-.65-.208ZM1053.29 719.064l-.11.479-.04.147-.26.571-.37.495-.47.399-.55.289-.6.167-.64.038-.64-.091-.63-.218-.59-.335-.53-.441-.44-.528-.34-.597-.23-.641-.11-.662.02-.656.14-.625.27-.571.37-.495.47-.399.55-.288.6-.166.63-.038.06.007.59.085.63.217.59.336.52.44.45.528.34.596.23.641.11.661-.02.655Zm0 0-.13 1.161M1063.27 708.748l-.22.539-.3.428-.03.033-.42.366-.51.258-.56.138-.6.013-.62-.111-.61-.232-.57-.344-.52-.443-.45-.524-.22-.361-.13-.224-.25-.625-.14-.639-.01-.629.11-.596.22-.538.33-.461.43-.365.19-.099.31-.158.56-.137.61-.013.61.112.61.232.57.344.52.442.45.523.35.585.25.624.14.638.01.629-.07.398-.04.197Zm0 0-.66 1.895M1071.94 699.348l-.27.415-.37.32-.24.114-.21.099-.52.097-.55-.021-.58-.14-.58-.253-.56-.355-.51-.446-.45-.518-.37-.57-.28-.601-.16-.608-.06-.591.06-.553.17-.493.14-.206.13-.208.38-.319.45-.212.51-.097.56.022.58.141.57.252.56.356.51.445.45.516.37.57.27.599.17.608.06.591-.06.553-.17.493Zm0 0-1.16 2.542M1079.28 690.759l-.21.356-.3.262-.39.158-.46.047-.2-.026-.3-.039-.54-.175-.54-.278-.54-.371-.51-.449-.45-.51-.39-.551-.3-.571-.21-.569-.1-.546v-.5l.11-.437.21-.355.31-.261.38-.157.46-.046.5.066.54.175.54.278.54.371.5.448.46.509.38.55.3.57.21.568.11.545v.501l-.11.437Zm0 0-1.51 2.937M1085.05 669.387l-.98.541M1090.15 675.5v-.001l-.02-.137-.11-.225-.2-.304-.18-.248v-.001l-.09-.121-.35-.423-.4-.46-.45-.479-.47-.479-.47-.461-.46-.427-.43-.374-.38-.308-.33-.23-.25-.144-.16-.05-.69.365-.1.053v.002"/><path d="M1090.15 675.499v.001l-.07.044-.17-.05-.24-.143-.32-.228v-.001l-.01-.001-.38-.308-.43-.374-.46-.427-.48-.463-.47-.48-.44-.48-.41-.461-.34-.423-.28-.371-.2-.303-.11-.224-.02-.135.04-.023.04-.021M1086.45 682.39l1.99-3.578.06-.214-.01-.088-.03-.213-.13-.373-.22-.432-.02-.041-.28-.434-.37-.499-.42-.505v-.001l-.46-.487-.49-.457-.48-.407-.47-.339-.44-.262-.39-.172-.31-.076-.01.002-.24.022-.16.082-.01.003v.001l-.82.409v.002"/><path d="M1088.43 678.813v.002l-.15.12-.03.004-.2.019-.01.001-.32-.075-.39-.171-.43-.261-.47-.34-.35-.288v-.001l-.14-.118-.49-.458-.46-.491-.42-.505-.37-.5-.3-.475-.22-.433-.13-.373-.03-.299.06-.212v-.003l.01-.009v-.003l.13-.101.01-.007M1082.88 687.424l1.83-3.363.14-.289.04-.372-.06-.439-.16-.492-.26-.524v-.007l-.01-.008-.32-.521-.4-.528-.46-.5-.5-.452-.27-.21-.01-.001-.23-.176-.51-.308-.09-.041-.01-.003-.28-.123v-.004l-.11-.045-.44-.117-.39-.012-.32.093-1.81.822"/><path d="m1084.72 684.061-.01.002-.23.194-.31.094-.39-.011-.45-.116-.49-.216-.51-.308-.51-.388-.5-.453-.45-.501-.41-.529-.33-.537-.21-.426v-.006l-.05-.093-.16-.492-.06-.439.04-.371.14-.285v-.004l.22-.186.01-.008"/><path d="m1084.85 683.778-.14.284v.005l-.23.195-.32.094-.39-.012-.44-.115-.49-.216-.51-.308-.51-.387-.5-.454-.46-.502-.4-.529-.34-.536-.21-.435v-.006l-.04-.085-.16-.49-.06-.44.04-.372.14-.287v-.002l.23-.193.32-.092M1084.41 681.951l.25.524M1084.82 682.966l.07.44M1088.43 678.815v.002l-.15.122-.03.003-.2.02-.01.001-.32-.075-.39-.171-.43-.261-.47-.34-.35-.288v-.001l-.14-.118-.49-.458-.46-.491-.41-.484-.02-.021-.01-.017-.35-.483-.3-.476-.22-.432-.13-.373-.03-.3.06-.214v-.001l.01-.011v-.001l.01-.001.13-.107.24-.022v-.001l.32.077M1084.68 674.064l.44.261.47.34.48.407.49.456.46.488v.001l.42.505.37.499M1088.33 677.928l.13.374.02.213M1090.15 675.5v.001l-.07.045-.17-.05-.24-.143-.32-.228v-.001l-.01-.001-.38-.308-.43-.374-.46-.427-.48-.463-.47-.48-.44-.48-.4-.461-.35-.423-.28-.371-.2-.303-.11-.224-.02-.136.01-.001M1089.2 674.042l.35.423M1089.64 674.586l.18.249.2.304M1085.4 670.629l.17.051.25.144.32.23.38.308"/><path d="m1089.64 674.585.21-.399.01-.034-.09-.125-.18-.211-.25-.289-.34-.357-.39-.41-.43-.447-.47-.467-.47-.47-.47-.454-.44-.421-.39-.371-.34-.307-.26-.231-.19-.147-.09-.057h-.01l-.98.54M724.204 335.606l-8.725-4.886-7.029-3.936-8.882-4.594-8.882-4.595-8.882-4.595-4.326-2.238-8.914-4.532-8.914-4.532-8.914-4.532-4.388-2.231-9.163-4.006-9.162-4.006-9.163-4.006-5.132-2.244-9.577-2.878-9.577-2.878-9.576-2.879-9.577-2.878-9.577-2.879-9.577-2.878-9.577-2.879-2.913-.875 2.85 9.585 2.85 9.585 2.85 9.586 2.85 9.585 2.85 9.585 2.85 9.586 2.849 9.585.859 2.887 3.985 9.172 3.986 9.171 3.985 9.172 2.23 5.131 4.515 8.923 4.515 8.922 4.516 8.923 2.222 4.392 4.579 8.89 4.579 8.89 4.578 8.891 2.233 4.335 4.872 8.734 3.681 6.599M1079.11 664.865l-1.57 3.216-4.08 5.659-6.34 7.739-.15.183-1.57 1.797v.005l-.79.903-.01.007-2.49 2.852-.01.007-3.02 3.454-.01.007-.75.866-.22.234-.01.008-1.7 1.869-2.34 2.556-.01.009-3.32 3.637-.63.687-2.28 2.492-2.71 2.872-3.99 4.22-.17.177-5.06 5.355-.49.506-4.42 4.541-5.84 6.014-2.11 2.168-2.5 2.505-5.99 5.993-4.63 4.639-.14.139-5.86 5.712-4.512 4.405-2.709 2.641-3.089 2.926-.226.213-4.155 3.935-4.887 4.629-.385.351-.736.672-3.611 3.301-4.316 3.945-1.126 1.03-.945.863-2.513 2.19-2.679 2.334-.737.642-3.502 3.052-7.381 5.964-5.068 3.507-2.596.957"/><path d="m947.723 794.627-.243.405.065 1.617 2.636-.966 5.153-3.564 7.512-6.068 4.237-3.691.957-.834 2.851-2.483 1.558-1.358 1.74-1.59 1.146-1.048 4.396-4.017 3.545-3.241.497-.453.236-.224 5.298-5.016 4.14-3.92.225-.214 2.689-2.546 3.107-3.03 4.532-4.417 5.69-5.55.29-.287 4.64-4.655 5.97-5.977 2.6-2.607 2.03-2.081 5.83-5.999 4.43-4.555.82-.843 4.74-5.014.16-.172 3.98-4.21 3.27-3.463 1.76-1.925.63-.687 3.28-3.587.01-.008 2.32-2.539 1.78-1.951.01-.007.91-1.001.1-.113.01-.008 2.89-3.315.01-.008 2.63-3.005.01-.007.32-.371.63-.717.02-.026v-.004l2.19-2.504 6.34-7.739.26-.323 4.15-5.756 1.6-3.267-.98-.7-1.22.647M1108.32 879.162l3.28-2.504 6.52-5.475 7.1-6.391 7.24-6.896.17-.154 7.06-7.082.34-.342 6.87-7.261.23-.235 6.5-7.264 5.66-6.739 4.59-5.946 3.33-4.924 1.97-3.716.22-.946.33-1.431M739.807 344.8l-3.285.901-5.332 3.057-7.201 5.125-2.253 1.796-.005.003-1.235.984-.005.004-.352.281-2.61 2.08-.007.005-2.29 1.825-.007.005-.04.032-.979.841-.006.006-2.057 1.766-2.111 1.812-.006.005-3.034 2.605-.46.395-1.412 1.212-2.929 2.662-4.351 3.954-3.643 3.31-.123.118-5.521 5.264-2.802 2.673-2.883 2.75-3.535 3.525-2.259 2.253-5.47 5.456-.825.86-2.732 2.852-5.17 5.395-2 2.087-1.562 1.712-3.858 4.232-3.95 4.333-.373.409-.087.1-2.504 2.917-3.526 4.105-.915 1.067-1.331 1.549-.546.69-2.204 2.784-.943 1.191-2.957 3.734-4.689 6.735-2.569 4.826-.379 2.755M1070.95 654.892l-.73-.893-.23-.282-6.34-7.737-6.34-7.737-6.33-7.736-6.34-7.737-3-3.673-6.5-7.599-6.5-7.599-6.51-7.599-6.5-7.598-6.5-7.599-5.51-6.442-6.676-7.443-6.679-7.442-6.678-7.443-6.679-7.443-6.679-7.443-5.612-6.254-6.852-7.283-6.853-7.283-6.853-7.282-6.853-7.283-6.853-7.283-5.724-6.084-7.47-6.649-7.469-6.648-7.47-6.649-7.469-6.649-7.47-6.649-6.283-5.592-7.694-6.387-7.695-6.387-4.644-3.855-7.695-6.387-7.694-6.387-.683-.566-7.695-6.387-1.244-1.033-8.063-5.916-8.062-5.915-8.063-5.916-8.063-5.915-4.094-3.004-8.063-5.916-3.101-2.275-8.29-5.592-5.764-3.889-8.29-5.592-8.29-5.592-6.593-4.448-.001-.001-.74-.499-.001-.001-1.328-.896M628.484 455.838l1.475 2.193.526.781"/><path d="m742.456 346.587.838-2.748-1.176-1.318-3.408.925-5.543 3.172-7.494 5.33-3.976 3.168-.006.004-1.349 1.074-.005.005-.737.587-2.514 2.003-.007.005-.574.458-1.529 1.312-.007.005-1.012.869-.007.006-2.056 1.766-2.117 1.816-.007.006-3.234 2.777-.364.312-.155.133-3.959 3.597-4.68 4.252-2.746 2.496-.54.515-6.196 5.908-1.935 1.846-3.141 2.995-4.332 4.321-1.022 1.019-6.39 6.373-.939.98-1.932 2.016-5.778 6.03-2.534 2.644-.632.693-4.164 4.568-3.778 4.144-.409.448-1.171 1.285-1.505 1.753-3.549 4.134-.91 1.06-1.76 2.05-.988 1.15-1.526 1.929-1.077 1.361-4.32 5.457-4.875 7.009-2.664 5.015-.381 2.856 1.874.624 1.899-.752"/><path d="m742.119 342.522-2.249-1.737-3.405.911-.686.39-4.846 2.758-2.367 1.678-.666.472-.002.002-1.221.866-.005.003-.652.462-.004.004-1.845 1.307-.005.004-.234.166-.006.004-.464.329-2.171 1.726-.005.004-1.172.931-.006.005-1.416 1.126-.007.005-1.033.821-.005.004-2.435 1.936-.006.004-.881.7-2.932 2.514-.009.007-.109.094-.008.006-2.381 2.042-.006.004-5.003 4.289-7.404 6.721-3.934 3.572-7.239 6.899-4.522 4.311-7.08 7.062-4.61 4.597-6.917 7.222-4.213 4.398-6.734 7.392-3.37 3.7-2.47 2.881-2.24 2.614-.211.246-2.955 3.447-.789.92-1.199 1.518-.803 1.018-1.181 1.494-.84 1.064-.004.005-2.104 2.664-.003.005-.052.065-.004.005-.694.879-.667.963-.003.004-.473.681-.003.004-.687.991-.001.003-.271.39v.001l-2.74 3.952-1.84 3.486-.801 1.519-.37 2.856 1.736 2.251M634.402 464.635l.934 1.389.001.001.571.848.001.001 5.583 8.296 5.583 8.297 4.711 7.001 5.583 8.296 3.888 5.777 5.908 8.068 5.908 8.068 5.909 8.068 5.908 8.068 5.909 8.067 5.296 7.233 6.383 7.698 6.383 7.698 6.382 7.698 1.615 1.948 6.383 7.698 6.383 7.698 3.866 4.663 6.646 7.471 6.646 7.472 6.647 7.472 6.646 7.472 6.646 7.471 5.626 6.325 7.284 6.851 7.284 6.852 7.284 6.851 7.284 6.852 7.284 6.851 6.125 5.762 7.445 6.676 7.445 6.676 7.445 6.677 7.445 6.676 7.444 6.676 6.296 5.646 7.602 6.497 7.601 6.497 7.602 6.497 7.602 6.498 7.602 6.497 6.482 5.54 7.74 6.331 7.741 6.331 7.74 6.331 7.741 6.332 3.968 3.245.341.279.957.783M1079.11 664.865l-1-1.23-1.65-2.015M1169.73 811.856l-1.59-2.632-2.62-4.342M947.547 796.649l6.641 3.996 1.078.648.007.004.05.031M1127.56 904.289l8.65 5.023 4.43 2.575 1.64-.073 2.63-1.161 3.55-2.209 4.28-3.156.03-.024 4.92-4.028 5.33-4.721 5.26-4.98.26-.246 5.51-5.523 1.44-1.537 3.82-4.061 4.8-5.448 4.16-5.082.88-1.173 2.48-3.343 2.42-3.774 1.4-2.891.33-1.901-5.03-8.64-2.73-4.675"/><path d="m1111.68 898.768 8.73 4.871 3.11 1.735 1.89-.11 2.15-.975.94-.43 4.18-2.656 5.12-3.814 5.84-4.825 6.34-5.65 6.6-6.249 6.57-6.597 6.29-6.677 5.76-6.489 4.98-6.039 4.03-5.352 2.91-4.456.9-1.814.79-1.58.41-2.209-4.88-8.725-1.92-3.421M1108.23 880.116l1.88-1.443 6.98-5.86 7.44-6.687.17-.157 7.25-6.896.69-.657 4.03-4.042 1.26-1.269 2.64-2.644 2.75-2.91.08-.082 4.77-5.04 6.67-7.448.3-.333 6.06-7.215 4.9-6.364 3.57-5.265 1.07-2.021 1.03-1.949.57-2.534-.96-1.017-2.45.52-.79.421M1152.74 905.288l8.22 5.696 4.38 3.033 1.01-.04 1.59-.682 2.13-1.302 2.57-1.872 2.92-2.371 3.15-2.779 3.26-3.077 3.25-3.255 3.09-3.304 2.83-3.224 2.45-3.016 1.98-2.691 1.42-2.262.83-1.748.19-1.166-5.71-8.214-3.15-4.549M1213.56 692.482l-10 .008-10 .009-10 .008-10 .008-10 .009-10 .008-10 .009-10 .008-1.36.001-10 .009-10 .008-10 .008-4.46.004-10 .009-1.48.001"/><path d="m1086.26 692.589 5.45 8.387 5.44 8.388 5.45 8.387.31.476 5.44 8.388.23.349 5.44 8.388 5.45 8.387 5.44 8.388 5.45 8.387 5.44 8.388 5.45 8.387 5.44 8.388 5.45 8.388 5.44 8.387 1.21 1.859 1.74 2.685 4.99-2.114 1.51-.642 9.21-3.907 9.2-3.906 6.09-2.585 8.32-3.531.84-.357 9.89 1.526 9.88 1.526 9.88 1.525 3.19.493 9.19 3.941 9.19 3.94 7.65 3.277 9.29 3.693 9.29 3.693 8.21 3.26 9.12 4.09 9.13 4.09 7.59 3.405 7.66-6.428.9-.751 2.17-4.421-6.2-7.849-5.9-7.477-6.19-7.849-5.91-7.49-6.2-7.85-5.92-7.503-6.19-7.85-5.94-7.517-6.57-7.537-6.57-7.537-6.57-7.537-6.57-7.538-6.58-7.537-6.57-7.537-6.57-7.537-6.57-7.538-5.78-6.629-10 .014-10 .013-10 .014-10 .014-10 .014-10 .014-10 .013-10 .014-1.11.002-10 .014-10 .013-10 .014-9.63.014-6.17.008-2.95 3.913Z"/><path d="m1320.75 821.234-6.19-7.849-5.95-7.529-6.19-7.849-5.96-7.542-6.19-7.85-5.97-7.555-6.19-7.85-5.98-7.569-6.57-7.537-6.57-7.537-6.58-7.537-6.57-7.537-6.57-7.537-6.57-7.536-6.58-7.537-6.57-7.537-5.98-6.864 2.55-3.981M970.242 810.303l-.247 9.997-.247 9.997-.248 9.997-.027 1.085-.247 9.997-.247 9.997-.247 9.996-.248 9.997-.247 9.997-.247 9.997-.247 9.997-.032 1.267 7.506 6.608 7.505 6.608 7.506 6.608 7.505 6.608 7.507 6.609 7.5 6.608 7.51 6.608 7.51 6.608 3.18 2.801 7.79 6.266 6.81 5.478 7.8 6.265 6.82 5.488 7.8 6.265 6.84 5.498 7.79 6.26 6.85 5.51 7.62-6.4 2.79-4.79-4.05-9.142-4.05-9.142-2.07-4.671-3.62-9.322-3.62-9.321-2.03-5.209-3.89-9.213-3.88-9.213-2.12-5.014-.5-4.08"/><path d="m1097.07 1008.93-4.06-9.145-4.06-9.141-2.1-4.742-3.62-9.32-3.63-9.32-2.05-5.281-3.89-9.212-3.9-9.211-2.14-5.087-1.21-9.927-.29-2.341M962.905 770.023l.228-.475.332-.39.004-.005.151-.105.009-.006.271-.189.51-.193.569-.08.607.038.62.153.61.264.577.363.242.209.105.09.174.15.445.517.352.566.246.593.13.596.009.578-.112.536-.149.309-.004.008-.076.158-.337.394-.005.003-.427.296-.511.193-.569.078-.605-.038-.62-.154-.609-.263-.576-.363-.248-.214-.104-.09-.168-.144-.445-.517-.352-.565-.246-.592-.13-.596-.01-.577.112-.536Zm0 0 .007-.026M971.159 772.789l.456-.533.31-.642.152-.725-.012-.78-.175-.807-.332-.801-.476-.765M967.984 774.401l.008-.005M953.973 777.918l.171-.41.273-.324.004-.004.371-.233.452-.129.167-.007.009-.001.339-.013.558.088.581.195.58.293.557.381.513.453.45.509.307.455.06.09.033.067.24.492.166.552.045.44.001.009.008.075-.06.475-.173.41-.277.326-.004.003-.368.23-.453.128-.515.02-.558-.089-.486-.164-.094-.031-.074-.038-.505-.256-.556-.38-.512-.452-.448-.508-.368-.543-.272-.558-.167-.552-.054-.524.059-.475Zm0 0 .091-.229M962.484 780.443l.006-.003.375-.442.234-.554.081-.642-.071-.71-.224-.747-.369-.756-.367-.542-.092-.138-.037-.055M958.977 782.34l.017-.01M946.824 783.639l.205-.249.002-.003.25-.131.005-.003.047-.024.384-.058.452.045.503.145.535.241.545.327.193.145.031.023.31.232.504.459.411.452.025.027.018.02.386.52.303.521.208.502.107.464v.408l-.107.336-.208.251-.003.002-.3.155-.385.057-.452-.046-.503-.146-.533-.241-.348-.209-.01-.006-.186-.112-.534-.4-.503-.457-.175-.193-.001-.002-.015-.016-.003-.003-.258-.284-.385-.519-.303-.52-.013-.032-.004-.009-.192-.461-.107-.463-.001-.408.105-.337Zm0 0 .002-.005M955.388 786.353l.283-.34.145-.455.001-.552-.143-.627-.157-.377-.084-.203-.041-.1-.409-.705-.522-.704M951.934 788.289l.04-.021.524-.294 2.851-1.599.036-.02.003-.001M941.372 787.772l.13-.169.001-.002.202-.07.003-.001.02-.007.31.019.229.069.014.004.14.042.442.206.483.291.126.089.012.009.307.22.015.011.047.033.51.422.493.463.459.489.405.494.013.017v.002l.324.461.255.449.109.264.005.011.051.124.066.335-.034.258-.049.063v.001l-.083.106-.002.001-.224.076-.31-.02-.384-.116-.284-.133-.158-.074-.014-.009-.002-.001-.466-.28-.506-.363-.158-.13-.001-.002-.35-.288-.492-.463-.457-.487-.405-.493-.337-.479-.112-.197v-.001l-.143-.251-.163-.393v-.001l-.002-.005-.067-.335.01-.081v-.003l.022-.175Zm0 0 .004-.007M946.379 792.475l.179-.102.001-.001.142-.082.003-.001 3.352-1.922.002-.001.004-.002M950.061 790.364l.18-.231.046-.349-.089-.454-.221-.541-.344-.607-.215-.307M937.938 789.811l.049-.088v-.001l.144.006.232.097.276.167.009.005.025.016.377.269.43.341.465.4.485.443.482.469.325.334.008.008.13.135.427.467.372.438.305.393.097.145.002.001.126.187.137.26.043.177-.052.086v.001h-.001l-.143-.006-.232-.099-.312-.188-.136-.097v-.001l-.24-.172-.431-.341-.464-.399-.482-.442-.482-.468-.463-.476-.425-.466-.372-.437-.305-.393-.224-.333-.138-.261-.044-.177Zm0 0 .024-.047M942.832 794.567l2.83-1.624.988-.568M946.652 792.375l.051-.085"/><path d="m938.174 786.819-.467.838-.002.003-.338.606-.001.003-.81 1.453-.001.001.061.088.152.176.236.26.311.332.375.391.424.436.456.465.472.474.469.466.447.44.409.396.355.339.287.266.209.185.121.096.03.004.637-.359M937.833 786.539l-.62 1.1-.002.003-.02.167.073.253.101.206M1023.31 717.865l-.61-.327-.53-.438-.44-.534-.33-.609-.21-.66-.07-.687.04-.546.01-.14.01-.021.18-.638.31-.607.43-.532.51-.437.6-.323.65-.199.13-.013.17-.016.37-.037.68.069.65.201.61.326.53.439.44.533.33.609.21.66.07.686-.05.686-.19.659-.31.607-.42.533-.52.436-.6.324-.64.199-.68.067-.68-.069-.65-.201Z"/><path d="m1022.08 719.399.88.272.92.092.91-.09.88-.269.8-.437.7-.59.57-.719.42-.821.25-.89.08-.927-.11-.926M936.555 789.722v.001M942.841 794.304l.044.177-.052.086-.145-.005-.233-.099-.31-.188-.137-.097v-.001l-.242-.172-.428-.341-.465-.399-.482-.442-.482-.468-.463-.476-.425-.466-.372-.437-.305-.393-.225-.333-.137-.261-.044-.178.026-.047.023-.041h.003l.142.005M942.832 794.568l.001-.001M938.645 789.997l.008.005.019.012.377.269M946.375 792.477l-.002.002-.226.076-.31-.021-.384-.115-.275-.129-.162-.076h-.001l-.004-.002-.482-.29-.506-.362-.158-.132-.002-.001-.348-.288-.493-.462-.457-.487-.405-.494-.337-.48-.12-.211-.001-.002-.134-.235-.165-.398-.001-.005-.066-.331.01-.088.001-.003.021-.167.008-.01.123-.162h.003M946.055 790.867l.255.449.1.242.004.011.061.146.066.335M946.375 792.478l.184-.105.001-.001.141-.081.002-.001 3.355-1.924M942.035 787.545l.241.072.014.004.128.039.442.206.483.29M951.928 788.291l-.003.002-.302.158-.385.056-.453-.045-.502-.147-.534-.241-.332-.199-.01-.006-.202-.121-.533-.4-.503-.458-.176-.193-.002-.002-.017-.018-.002-.004-.256-.28-.385-.519-.303-.52-.019-.046-.004-.01-.186-.446-.107-.464-.001-.408.105-.336.008-.01.199-.242.004-.002M951.238 785.291l.386.52.303.521.209.503.106.463v.408M955.383 786.358l.002-.003M951.926 788.293l.044-.024.524-.294 2.887-1.617M947.711 783.176l.453.044.503.146.534.241.545.326M948.473 780.074l-1.137 2.449-.003.007-.229.492-.002.006-.286.616M959.63 779.826l.167.552.044.431.001.009.009.084-.061.476-.172.409-.274.323-.004.004-.347.216-.025.016-.452.128-.515.02-.558-.089-.485-.163-.095-.032-.072-.037-.507-.256-.556-.381-.512-.452-.448-.508-.368-.543-.272-.558-.167-.552-.055-.523.06-.476.098-.235.073-.175.276-.327.004-.003.368-.231.452-.129.176-.007.009-.001.33-.013.558.089.581.194M961.977 780.76l.503-.314.003-.003M958.969 782.346l3.007-1.586M965.063 774.224l-.575-.363-.247-.212-.105-.09-.169-.146-.444-.516-.352-.565-.246-.592-.13-.596-.01-.577.111-.536.016-.034.212-.441.336-.395.005-.003.156-.109.008-.006.263-.182.51-.194.569-.079.606.038.62.153.611.264.576.363.244.209.104.09.173.15.446.517.352.566.246.592.13.597.009.578-.113.536-.145.301-.004.008-.08.165-.333.39-.004.005-.415.287-.017.012-.51.192-.569.079-.606-.039-.619-.153-.61-.264ZM963.701 767.286l-.806 2.745M967.977 774.409l2.59-1.208M973.324 759.049l-.251 2.075-.026.622.101.633.225.621.088.151.063.107.189.325.441.524.527.444.591.348.634.238.651.119.644-.004.612-.128 1.914-.672"/><path d="m973.07 761.124.153-.587.126-.245.147-.284.384-.452.479-.356.557-.247.612-.129.644-.005.652.119.38.143.12.045.134.05.593.348.527.445.442.525.34.584.225.621.101.633-.027.623-.154.587-.274.529-.385.451-.14.104-.339.252-.557.246M982.224 761.521l.037-.841-.136-.857M984.18 750.606l.211.781.032.122.049.179.21.641.331.598.439.529.532.441.602.337.651.219.673.092.671-.037 1.15-.093"/><path d="m984.472 751.688-.025-.204-.013-.101-.004-.037-.039-.32.052-.657.182-.626.305-.572.418-.495.513-.399.589-.288.643-.167.671-.037.04.005.131.018.503.069.651.218.603.337.532.442.44.53.331.597.21.643.08.662-.052.657-.183.626-.306.572-.418.494-.513.399-.589.288-.451.116-.192.05M989.73 754.415l.868-.224.796-.389.694-.539M997.684 742.526l.822.444.891.278.923.101.93-.08.89-.258.71-.367.11-.059.72-.577.59-.707.2-.38.23-.429"/><path d="m998.633 742.577-.609-.329-.534-.44-.438-.533-.327-.606-.202-.656-.07-.681.044-.451.016-.162.006-.066.198-.652.323-.599.436-.524.531-.427.607-.316.58-.168.079-.023.093-.008.592-.052.682.075.67.206.6.329.54.439.44.533.32.607.21.656.06.681-.06.68-.2.652-.32.599-.44.523-.53.428-.61.315-.66.191-.681.059-.686-.075-.66-.205ZM1009.5 730.851l.82.44.89.27.93.09.93-.094.62-.19.27-.083.82-.442.72-.595.28-.341.31-.383.44-.825.27-.896.09-.931"/><path d="m1011.01 730.316-.61-.326-.53-.438-.44-.535-.33-.61-.2-.662-.06-.689.06-.69.05-.172.07-.203.08-.288.33-.611.43-.536.54-.44.61-.327.3-.092.2-.063.16-.048.68-.069.69.067.66.2.61.325.54.439.43.534.33.61.2.663.07.689-.07.689-.2.663-.32.611-.44.536-.53.441-.61.327-.66.202-.69.069-.69-.066-.66-.2ZM1039.56 703.238l-.1.412-.06.229-.28.588-.39.512-.49.417-.57.305-.62.181-.65.052-.66-.081-.64-.21-.59-.331-.53-.44-.44-.531-.34-.602-.22-.65-.06-.422-.02-.134-.02-.117.04-.67.16-.641.28-.587.39-.512.49-.416.57-.304.62-.182.64-.05.01-.001.42.053.15.018.08.011.64.21.6.331.53.439.44.531.34.601.22.649.09.673-.03.669Zm0 0-.14 1.205"/><path d="m1034.26 707.977.89.109.88-.07.83-.246.77-.412.66-.563.53-.692.38-.794.22-.866M1036.73 699.135l-.08-.018-.13-.027-.92-.19M1049.99 692.53l-.24.553-.3.422-.04.054-.45.382-.52.271-.58.151-.61.025-.63-.102-.62-.226-.58-.34-.52-.441-.45-.527-.35-.59-.01-.035-.05-.123-.18-.474-.12-.649v-.642l.12-.609.24-.553.35-.476.44-.38.18-.09.34-.181.58-.15.62-.024.63.103.61.225.26.153.11.065.21.122.52.441.45.526.35.589.24.632.12.648v.641l-.12.609Zm0 0-.71 1.965M1045.57 697.008l.83-.034.79-.204.7-.368.6-.515.47-.644.32-.748M1046 687.8l-2.12.305M1059.07 682.796l-.29.427-.38.332-.24.113-.23.112-.53.108-.57-.012-.59-.132-.59-.247-.56-.353-.52-.445-.06-.074-.09-.109-.29-.336-.37-.575-.27-.607-.15-.616-.05-.602.07-.564.19-.505.13-.194.16-.233.39-.331.46-.223.53-.108.57.013.59.133.59.247.56.353.51.444.25.285.09.109.11.124.36.573.27.606.16.616.05.601-.07.564-.19.506Zm0 0-1.23 2.633M1054.7 677.73l-2.77.854M1056.3 686.761l.63-.304.52-.45.39-.578M1066.77 673.93l-.22.366-.32.272-.4.166-.46.056-.2-.023-.32-.035-.54-.17-.33-.16-.18-.09-.05-.024-.54-.368-.51-.449-.45-.511-.38-.554-.3-.576-.2-.576-.09-.553v-.223l.01-.286.12-.446.23-.365.28-.242.01-.005.02-.023.4-.166.47-.054.52.059.36.114.18.056.55.274.54.368.51.448.45.51.38.553.3.575.04.105.06.185.1.285.09.552-.01.509-.12.446Zm0 0-1.6 3.043"/><path d="m1062.35 668.945-.44.184-.01.004-2.7 1.102M1064.88 677.468l.3-.495M1073.27 652.283v-.001l-1.7.954v.001l-.59.333v.002l-.76.427M1078.3 658.34v-.001l-.01-.137-.11-.225-.19-.303-.15-.192v-.001l-.13-.177-.34-.422-.4-.46-.45-.479-.47-.479-.47-.462-.46-.426-.43-.374-.39-.309-.32-.231-.26-.144-.17-.051-.08.043-.78.431-.01.001-1.12.615v.002l-.61.333-.58.317"/><path d="m1078.3 658.339-.08.044-.16-.051-.26-.143-.25-.18-.07-.05-.39-.309-.43-.375-.46-.427-.48-.463-.47-.48-.44-.48-.4-.46-.35-.424-.27-.37-.2-.302-.1-.224-.02-.134M1074.34 665.378l2.1-3.697.02-.061.02-.062v-.002l.03-.093-.03-.303-.12-.376-.17-.332v-.002l-.05-.1-.29-.477-.37-.5-.28-.341v-.002l-.14-.162-.46-.491-.49-.456-.48-.406-.48-.339-.44-.259-.16-.069-.23-.101-.33-.074-.06.007-.19.019-.21.108v.002l-.87.451v.002l-.05.025v.001l-.48.247-.01.003-1.24.64v.001"/><path d="M1076.44 661.681v.002l-.06.042v.001l-.1.08-.23.025-.02.002-.33-.073-.39-.169-.44-.259-.47-.34-.17-.14v-.002l-.32-.264-.49-.458-.46-.491-.43-.506-.36-.502-.3-.477-.21-.435-.12-.376-.03-.302.06-.186v-.01l.01-.018v-.003l.15-.116.01-.007M1070.56 670.522l1.36-2.451.32-.56.26-.468.14-.295.05-.378-.05-.445-.15-.496-.23-.491-.01-.008-.01-.029-.33-.54-.4-.53-.46-.501-.49-.451-.01-.007-.01-.002-.5-.377-.51-.305-.06-.025-.01-.003-.33-.145-.01-.004-.09-.036-.45-.112-.4-.007-.33.099-2.01.951-.01.003-.43.206-.01.004"/><path d="m1072.5 667.043-.01.002-.24.2-.32.099-.4-.005-.46-.111-.49-.212-.52-.306-.51-.386-.5-.453-.46-.502-.4-.531-.33-.541-.04-.078v-.006l-.21-.444-.15-.497-.05-.445.05-.378.15-.29v-.004l.23-.192.01-.008"/><path d="m1072.24 664.932.24.502.15.496.05.446-.04.378-.15.291v.004l-.24.201-.33.1-.4-.006-.45-.111-.5-.212-.51-.305-.52-.387-.5-.453-.45-.501-.41-.532-.33-.54-.04-.087v-.007l-.2-.435-.15-.497-.06-.445.05-.377.15-.294v-.002l.24-.199.33-.098.4.007.45.111.1.043.01.004M1068.25 670.62l.19.081.19.08.62.149M1075.84 659.877l.3.477.05.101v.001l.16.332.12.376.03.303-.03.095-.01.056-.02.065v.002l-.06.043v.001l-.11.081-.22.024-.02.002-.33-.072-.39-.169-.44-.26-.48-.339-.17-.14v-.002l-.32-.264-.48-.458-.47-.491-.42-.507-.37-.501-.29-.477-.21-.435-.13-.376-.02-.302.06-.191v-.01l.01-.016v-.001l.16-.123.19-.019.06-.006.32.074.25.105.15.065.44.259M1074.11 657.925l.48.456.47.49.13.163v.002M1074.34 665.382v-.005l2.1-3.692M1072.25 664.938l.56.325.53.229.44.097.34-.037.22-.17M1078.3 658.339v.001l-.08.045-.16-.051-.26-.143-.25-.18v-.001l-.07-.049-.39-.309-.43-.375-.46-.427-.48-.463-.47-.48-.44-.48-.4-.46-.35-.424-.27-.37-.2-.302-.1-.224-.02-.135v-.001l.08-.042M1076.52 655.945l.44.479.4.46M1077.98 657.677l.2.302"/><path d="m1073.47 653.512-.78.43-.01.001-1.12.615v.002l-.61.333-.58.317M1073.72 653.52l.25.144.33.231M1074.69 654.204l.43.374.46.426M1078.07 657.081v-.038l-.09-.128-.17-.215-.26-.292-.34-.359-.39-.412-.43-.448-.47-.468-.47-.469-.47-.453-.44-.419-.39-.368-.34-.305-.26-.228-.19-.143-.09-.053"/><path d="m1073.27 652.283-1.69.953-.01.002-.59.333v.001l-.76.427M1071.01 653.137l-1.02.58M1071.57 653.236l-.13-.062-.26-.065-.17.028M1122.01 887.251l.15-.151v-.005l.05-.049.25-.154.29-.096.32-.034.34.028.35.09.34.149.32.2.28.246.24.281.19.305.13.319.06.319-.01.307-.07.283-.01.029-.01.003-.12.218-.19.205-.25.153M1126.29 888.947v-.002l.27-.277.18-.337.1-.384.01-.415-.09-.431-.17-.431-.25-.413-.33-.38M1123.36 889.908l.34.09.34.029.32-.034M1121.8 887.784v.307l.06.319.13.318.19.305.24.281.28.245M1116.89 891.149l.22-.116.2-.046.01-.001.05-.012.3-.002.31.058.33.114.33.165.3.212.29.249.24.276.2.294.14.3.08.294v.124l.01.153-.04.25-.11.212-.17.167v.002M1121.2 892.862l.23-.226.14-.288.07-.338-.02-.375-.11-.398-.19-.405-.27-.398-.33-.374M1116.61 891.529l-.05.249.02.277.08.294.14.3.2.293.24.277.28.248.31.211.32.166.33.114.32.058.3-.001"/><path d="m1119.58 893.84 1.61-.971v-.006l.01-.001M1112.38 894.228l.19-.074.23-.019.26.036.29.09.31.14.12.074.01.008.17.103.3.223.28.252.25.272.01.014v.008l.19.259.16.279.1.266.04.244-.01.212-.08.172-.13.125-.01.001M1116.88 895.799l.18-.169.1-.232.03-.287-.06-.33-.14-.361-.21-.377-.28-.38-.33-.368M1112.3 895.247l.08.129v.008l.08.142.21.281.24.271.28.252.03.021.01.005.26.197.3.185M1114.39 896.968l.26.036.23-.019M1112.16 894.737l.01-.211.08-.172M1115.07 896.912l1.81-1.11v-.003M1109.03 896.173l.14.017.23.075.02.009v.001l.14.066v.002l.1.046.28.168.28.206.29.235.27.256.25.266.22.267.17.258.13.237.07.209.02.171-.02.073-.02.056-.09.078v.002M1109.84 898.076l.28.226.29.205.27.165v.003M1111.17 898.875l.19.024"/><path d="m1111.51 898.87.17-.102 1.79-1.093M1113.47 897.675l.13-.108.05-.174-.02-.233-.1-.282-.17-.321-.13-.191M1153.73 859.788l.39.321.45.238.48.145.49.047.49-.053.47-.152.43-.243.38-.327.31-.397.22-.452.13-.489.04-.509-.06-.508-.16-.487-.24-.449"/><path d="m1155.34 859.63-.32-.176-.29-.238-.24-.29-.18-.333-.12-.36-.04-.376.03-.377.09-.362.17-.334.23-.294.27-.241.32-.18.35-.112.36-.039.37.034.35.108.33.176.29.237.24.291.18.332.12.361.04.375-.03.377-.1.362-.16.334-.23.294-.27.241-.32.18-.35.113-.37.039-.36-.035-.36-.107ZM1109.03 896.174l.13.017.23.075.03.012.14.068.01.002.08.042.28.168.29.206.29.235.27.256.25.267.21.267.18.257.13.237.07.209.02.172M1111.62 898.734l-.02.058-.1.079v.001l-.14.028-.19-.024-.23-.075-.26-.125v-.002l-.01-.001-.27-.165-.29-.205-.27-.222M1111.5 898.872l.01-.001M1112.96 892.574l-.79 1.953-.02.212.05.244.1.266.06.118.01.008.08.153.21.281.25.271.27.252.04.029.01.005.25.189.31.185.3.14.29.09.27.036.23-.019.18-.073 1.82-1.112"/><path d="m1112.17 894.527.03-.073.05-.099.13-.125.19-.074.22-.019.27.036.29.09.3.14.14.082.01.007.16.096.3.223.28.252.24.272.01.006v.008l.2.267.16.279.1.267.04.244-.02.212-.07.171-.13.124-.01.001M1117.18 889.739l-.57 1.793-.05.249.02.278.08.294.14.299.19.294.25.276.28.248.31.212.32.165.33.114.32.058.29-.001.27-.059.22-.115 1.61-.979M1119.8 892.643l.08.294M1119.85 893.464l-.11.212"/><path d="m1117.1 891.036.21-.047.01-.001.04-.011M1121.19 892.865v-.002M1116.61 891.532v-.017l.1-.196.17-.167M1117.98 891.033l.32.114.33.166M1119.22 891.773l.25.276M1122.09 886.3l-.29 1.488-.01.307.07.319.12.318.19.305.24.281.29.245.32.201.33.148.35.09.34.029.32-.034.29-.096 1.3-.744M1123.75 886.884l.34.149.32.2.29.246.24.281.18.305.13.319"/><path d="m1125.31 889.01-.08.283-.01.025v.004l-.12.221M1122.45 886.896l.29-.096.33-.034M1125.95 889.157l.34-.208v-.002M1121.8 887.788l.01-.069.06-.215.14-.249.15-.156v-.005l.04-.044M1124.9 889.748l-.22.137-.03.016M1127.68 882.092l.01 1.119.05.339.11.334.19.315.24.285.28.243.33.191.35.134.36.07.36.003.34-.063.31-.126 1.03-.511M1131.64 884.425l.36-.252.3-.321.21-.38.13-.422.03-.45-.07-.46-.16-.452-.24-.426-.33-.385"/><path d="m1127.69 883.211.02-.333.07-.239.02-.074.16-.28.22-.238.27-.186.31-.127.34-.063.36.003.36.07.35.133.33.192.29.243.24.285.18.315.12.334.04.34-.02.333-.09.313-.16.28-.11.126-.11.112-.27.186M1133.98 877.676l.25.583.18.323.24.288.29.24.33.185.36.121.37.054.37-.016.35-.086.62-.193M1137.34 879.175l.44-.204.38-.286.32-.357.23-.413.14-.454.05-.477-.06-.482-.15-.469-.24-.437"/><path d="m1134.23 878.259-.09-.279-.02-.067-.04-.357.03-.353.11-.335.17-.306.23-.264.29-.212.32-.151.36-.086.37-.016.37.053.36.122.33.184.28.241.24.287.18.324.11.346.04.357-.03.353-.11.336-.17.306-.23.263-.29.212-.13.06-.19.091M1140.9 872.599l.39.323.45.243.49.152.51.057.5-.041.49-.137.45-.229.39-.311.33-.381.24-.437.14-.476.06-.496-.05-.498-.15-.481"/><path d="m1141.95 873.071-.34-.18-.29-.239-.23-.289-.18-.329-.11-.355-.03-.369.03-.367.11-.352.18-.323.24-.282.29-.23.33-.169.36-.102.38-.031.37.043.36.112.33.18.29.239.24.289.18.329.11.356.03.368-.03.368-.11.352-.18.323-.24.282-.29.23-.33.169-.36.101-.38.031-.37-.042-.36-.113ZM1147.37 866.294l.39.321.45.239.49.146.5.049.5-.052.49-.15.44-.241.39-.325.32-.395.24-.45.15-.488.05-.507-.06-.506-.14-.487-.24-.449"/><path d="m1148.71 866.445-.33-.177-.29-.238-.24-.29-.18-.332-.1-.36-.04-.375.03-.376.11-.36.18-.333.23-.293.29-.24.33-.178.36-.111.37-.038.38.036.35.108.34.176.29.239.23.29.18.332.11.36.04.375-.04.375-.1.361-.18.333-.24.292-.29.24-.33.179-.35.11-.38.039-.37-.036-.36-.108ZM1160.17 853.613l.44.24.46.15.48.052.47-.046.45-.143.41-.235.35-.317.28-.387.19-.443"/><path d="m1163.92 851.834-.13.304-.02.023-.2.287-.26.234-.3.174-.33.105-.35.035-.36-.039-.34-.111-.32-.178-.29-.238-.24-.289-.19-.33-.12-.358-.06-.371.02-.37.08-.356.15-.327.2-.287.26-.234.3-.173.33-.106.35-.034.28.031.08.008.34.11.32.178.29.238.24.29.19.329.12.358.06.37-.02.371-.08.356Zm0 0-.21.65M1162.8 849.344l-.61-.225M1165.72 847.336l.42.245.45.159.46.065.44-.031.42-.125.37-.214.31-.297.25-.367M1169.36 845.713l-.18.271-.14.135-.09.084-.27.159-.31.093-.33.022-.34-.048-.33-.118-.31-.182-.29-.239-.24-.288-.19-.325-.14-.349-.07-.361-.01-.359.06-.342.12-.312.18-.271.23-.219.28-.158v-.001l.31-.091.33-.023.33.049.33.117.32.182.28.239.24.288.2.324.13.35.08.361v.358l-.05.342-.13.312Zm0 0-.52 1.058M1167.63 842.791l-1.14.03M1174.19 839.765l-.15.248-.2.196-.25.137v.002l-.27.07-.31.005-.31-.062-.32-.128-.3-.188-.28-.242-.25-.284-.2-.318-.15-.338-.09-.346-.04-.34.03-.321.09-.29.15-.248.01-.009.19-.187.25-.136.27-.072.31-.005.31.063.32.128.3.188.28.241.25.285.2.317.15.338.09.345.03.34-.02.321-.09.29Zm0 0-.76 1.33M1171 841.728l.42.173.43.084.41-.006.37-.098.33-.185.27-.266.2-.335M1172.07 836.914l-1.5.326M1174.62 836.213l.4.266.4.191.39.11.37.024.33-.063.28-.146.22-.225M1177.99 834.721l-.16.167-.21.108-.24.046-.21-.014-.07-.004-.29-.081-.29-.142-.29-.196-.28-.244-.25-.281-.21-.308-.17-.324-.12-.326-.06-.316v-.294l.05-.261.11-.218.16-.165.21-.108.24-.046.28.018.29.082.29.141.29.196.28.244.25.281.21.307.17.324.12.325.06.316v.295l-.05.261-.11.217Zm0 0-.98 1.649M1175.67 831.76l-1.79.605M1178.62 820.346l-.07.042M1180.24 820.452l-.01-.002-.68.385-.57.32M1183.39 824.38l-.02-.098-.07-.146-.12-.187-.17-.222-.19-.248-.07-.076v-.001l-.16-.187-.25-.27-.26-.267-.26-.252-.25-.229-.23-.196-.21-.155-.16-.11-.13-.059-.08-.006-.19.1v.001l-.67.357-.29.152M1183.16 824.362l-.17-.109-.2-.156"/><path d="m1180.75 821.815-.02-.098.03-.044v-.002M1183.39 824.38l-.03.047M1181.31 822.617l-.2-.248-.16-.221M1181.78 823.153l-.24-.271M1182.73 826.789v-.001l.02-.142-.03-.187-.08-.226-.13-.256-.02-.038-.15-.238-.2-.286-.24-.284-.06-.068-.2-.204-.26-.249-.27-.217-.25-.176-.15-.08v-.001l-.02-.013-.06-.034-.01-.003-.2-.074-.03-.004-.13-.016-.02.005-.11.03-.31.152v.001l-.27.127-.51.25"/><path d="m1182.14 826.807-.21-.118-.26-.177-.26-.216-.27-.25-.25-.272-.24-.284-.09-.119v-.006l-.12-.161-.15-.242M1182.53 826.914l-.16-.021M1180.04 824.258l.02-.141.07-.087v-.003M1182.73 826.788v.001l-.07.089M1180.14 824.671l-.08-.226M1179.81 832.107l1.1-1.841.07-.181.01-.227-.04-.262-.09-.288-.14-.302-.19-.306-.02-.028-.01-.005-.2-.263-.25-.277-.27-.246-.28-.206-.27-.157-.11-.045-.01-.002-.15-.057-.23-.046-.21.015-1.95.824"/><path d="M1180.91 830.266v.002l-.11.129-.17.074-.21.015-.24-.046-.26-.103-.28-.158-.27-.206-.27-.246-.02-.012-.02-.03-.22-.235-.07-.094-.02-.034-.13-.169-.19-.306-.14-.302-.1-.288-.04-.263.02-.226.06-.181.12-.131.04-.014.13-.059M1177.34 831.383l.37.333.38.278.37.213.36.14.32.061.28-.02.22-.1.17-.177"/><path d="m1180.99 829.862-.01.226-.07.18v.002l-.12.131-.16.074-.21.014-.24-.045-.26-.104-.28-.157-.28-.206-.26-.238-.01-.008-.01-.012-.24-.265-.1-.128-.02-.034-.11-.136-.18-.305-.15-.303-.09-.288-.04-.262.01-.226.07-.182.12-.13.17-.074.2-.014.24.045"/><path d="M1179.81 832.111v-.004l1.1-1.837M1179.22 827.521l-.1-.041M1180.5 828.662l-.2-.255-.25-.277-.27-.245-.28-.206M1182.72 826.461l.03.188-.02.14v.003l-.07.089-.13.035-.16-.02-.21-.076-.01-.008-.22-.121-.26-.176-.26-.217-.27-.249-.25-.272-.24-.285-.09-.131-.01-.006-.11-.149-.15-.241v-.002l-.02-.033-.07-.152-.01-.012-.02-.05-.03-.042-.08-.226-.02-.188.02-.141.07-.09.11-.03.02-.005M1182.64 826.235l-.13-.256-.02-.037v-.001l-.15-.238-.2-.285-.24-.285-.06-.067-.01-.001-.19-.203-.26-.249-.27-.217-.25-.176-.15-.08v-.001l-.01-.009-.07-.039-.01-.001"/><path d="m1181.55 828.779.87-1.473.31-.516M1180.51 828.672l.27.148.27.103.23.027.17-.048.1-.123M1183.39 824.381l-.01.026-.02.021-.07-.006-.13-.059-.17-.109-.2-.155-.23-.196-.06-.049-.2-.18-.26-.253-.26-.267-.24-.271-.23-.264-.2-.248-.17-.222-.11-.187-.08-.145-.02-.098.03-.047.08.007.13.059.16.109.21.156.23.196.25.228.26.253.26.266.25.271.16.187.07.077.19.248.17.222.12.187.07.145.02.098Zm0 0-.9 1.558"/><path d="m1182.75 823.403.16-.296-.03-.049-.09-.099-.13-.143-.17-.184-.21-.217-.24-.241-.26-.256-.26-.262-.26-.256-.25-.243-.23-.218-.19-.186-.16-.147-.12-.101-.07-.053M1179.55 820.835l-.23-.17-.23-.15-.2-.105-.16-.058-.11-.006v.003l-.07.039M632.575 419.535l.221-.349.003-.004.298-.278.266-.142.005-.003.09-.048.411-.101.445-.003.461.093.46.186.441.273.405.348.353.41.288.457.213.486.127.495.039.487-.052.459-.141.414-.224.352-.003.003-.008.008-.007.006-.281.261-.361.193-.411.099-.444.003-.461-.093-.459-.187-.441-.272-.404-.348-.353-.41-.288-.456-.213-.485-.128-.495-.039-.486.052-.459.14-.414Zm0 0 .009-.016M635.613 423.637l.287-.064M626.827 426.695l.244-.235.308-.151.362-.063.196.015h.006l.199.015.425.12.433.206.424.284.398.351.358.405.303.442.237.464.162.467.08.452-.005.42-.002.009-.001.008-.085.354-.17.309-.003.003-.241.231-.309.151-.362.062-.401-.03-.424-.12-.433-.206-.423-.284-.397-.351-.358-.404-.302-.442-.237-.463-.162-.466-.081-.452.004-.42.088-.372.167-.305.002-.004Zm0 0 1.371-2.335M630.145 430.952l.026-.008M622.33 432.99l.183-.183.249-.103.308-.017.353.069.385.152.403.229.405.298.045.041.022.02.324.293.362.399.319.426.043.071.01.017.211.35.2.432.126.411.048.373-.03.322-.11.256-.002.002-.181.181-.25.101-.308.017-.353-.069-.385-.152-.018-.011-.012-.006-.372-.212-.404-.298-.39-.354-.362-.398-.195-.26-.008-.01-.115-.155-.265-.437-.199-.433-.127-.41-.049-.373.03-.322.108-.254.001-.003Zm0 0 1.581-2.633M626.004 437.029l.003-.001M619.435 437.881l.002-.002.116-.124.188-.047.249.034.302.112.343.188.371.255.384.313.383.359.367.391.336.408.207.288.001.002.086.119.135.223.004.007.1.164.175.365.105.32.031.265-.045.199-.002.001-.038.04-.002.002-.077.081-.188.047-.187-.026h-.003l-.06-.009-.302-.113-.259-.142h-.001l-.082-.046-.37-.255-.036-.029-.002-.001-.093-.077-.002-.001-.251-.204-.382-.359-.366-.39-.225-.272-.001-.001-.11-.134-.293-.408-.239-.394-.09-.186-.086-.178-.106-.321-.031-.265.044-.197v-.002Zm0 0 1.707-2.845M623.156 441.844l.003-.001M618.208 441.234v-.001l-.001-.001.004-.004.048-.059.123.012.19.088.25.16.299.226.182.153.002.001.154.13.363.329.375.363.371.383.12.132.003.002.231.254.324.378.167.211.112.142.226.315.163.265.093.204.018.113v.004l.003.019M620.776 444.344l-.363-.329-.374-.362M621.974 445.115l-.124-.013-.19-.088-.25-.161M618.713 442.154l-.225-.315-.164-.265-.094-.205M619.669 443.271l-.353-.387M618.941 442.447l-.293.517.06.074.13.144.198.209.256.266.305.312.342.347.366.368.376.374.372.367.353.346.32.311.275.263.22.207.156.141.087.072M677.858 377.019l-.479-.26-.419-.345-.343-.417-.255-.473-.155-.51-.051-.529.056-.526.16-.504.258-.462.347-.402.422-.327.481-.239.521-.143.541-.04.541.063.519.165.479.26.419.345.343.417.254.473.156.51.051.529-.056.526-.16.503-.258.462-.347.402-.421.328-.481.239-.521.143-.542.041-.541-.064-.519-.165ZM622.465 446.765l.001.001.013-.002M622.48 446.764l.366-.203"/><path d="m618.208 441.233-.001.001.022.137.094.205.163.265.226.315.231.291v.001l.049.061.322.377.354.387.371.382.374.363.362.329.338.283.299.226.249.16.191.088.123.014.051-.027.036-.019.002-.001.954-.498"/><path d="m618.207 441.234.052-.063.123.013.19.088.249.16.3.226.181.152.002.001.155.13.363.329.374.364.372.383.12.131.003.003.231.253.323.378.173.218.107.135.226.315.162.265.094.204.017.11v.004l.004.021v.001l-.013.015-.037.044-.003.004M623.316 441.525l-.045.196v.002l-.037.039-.002.002-.075.079-.005.005-.188.046-.18-.025h-.003l-.066-.009-.302-.113-.247-.136h-.001l-.095-.052-.37-.255-.036-.029-.002-.002-.067-.055-.002-.001-.277-.226-.382-.358-.366-.39-.225-.272-.001-.002-.11-.133-.293-.408-.239-.394-.09-.186v-.001l-.086-.178-.105-.321-.032-.265.045-.199.001-.001.117-.124M619.988 437.745l.302.113.343.188.371.255.384.313.383.359.367.391.337.407M622.676 440.053l.001.003.09.124.126.209.004.007M623.008 440.575l.175.364M623.152 441.848l.107-.052.003-.001.632-.303.002-.001M626.184 436.848l-.002.003-.177.177-.005.006-.25.101-.308.017-.353-.069-.386-.152-.001-.001-.012-.007-.388-.222-.404-.297-.39-.354-.362-.398-.206-.275-.008-.01-.105-.14-.265-.437-.198-.433-.127-.41-.049-.373.03-.322.109-.257.001-.002.18-.182.25-.102M624.211 433.142l.404.297.068.061.021.02.302.274.362.398.32.427.032.053.011.017M626.277 435.9l.048.373M623.912 430.355l-1.584 2.639M630.697 430.57l-.002.003-.243.234-.279.137-.03.014-.362.062-.401-.03-.425-.12-.432-.206-.423-.284-.398-.351-.357-.404-.303-.442-.237-.463-.162-.466-.081-.452.005-.42.088-.372.169-.309.002-.002M630.48 428.091l.236.463.162.467.08.452-.004.42-.001.002-.001.007M628.213 424.334l-1.389 2.367M627.938 426.267l.005.001.195.014.424.12.433.206M629.418 426.892l.399.351.357.405M633.454 418.718l.411-.101.444-.003.461.093.46.186.441.273.405.348.353.41.289.457.212.486.128.495.038.487-.052.459-.141.414-.221.348-.003.004-.004.004-.007.007-.287.267-.362.193-.118.028-.293.071-.444.003-.461-.093-.459-.187-.44-.272-.405-.348-.353-.41-.288-.456-.212-.485-.128-.495-.039-.486.051-.459.14-.414.015-.023.209-.33.003-.003.295-.275.271-.145M633.614 417.628l-1.048 1.914M640.496 409.551l-.707 1.525-.185.447-.092.489.003.513.099.518.191.502.276.467.35.414.41.346.455.263.482.172.491.072"/><path d="m639.785 411.076.27-.386.104-.095.241-.217.406-.225.453-.13.482-.029.491.073.483.171.455.264.411.345.35.415.276.468.191.502.098.518.004.513-.093.49-.186.446-.27.387-.345.311-.407.225-.028.008-.425.121-.481.028M648.108 401.41l-.244.941-.124.509-.025.532.076.532.175.513.265.475.347.417.415.344.466.258"/><path d="m647.863 402.351.07-.149.15-.32.307-.409.382-.334.443-.246.485-.149.511-.046.515.059.501.161.467.258.415.344.347.418.265.474.175.514.076.533-.025.531-.125.51-.221.468-.307.409-.382.334-.442.246-.486.149-.51.045-.488-.055-.027-.004-.501-.161M658.472 396.349l-.474-.255-.418-.344-.345-.418-.258-.478-.163-.519-.06-.539.045-.54.147-.519.244-.478.333-.419.408-.345.467-.256.508-.158.531-.053.532.052.513.157.475.255.417.344.345.419.259.478.162.519.061.539-.045.54-.147.519-.245.478-.333.42-.408.344-.467.256-.508.157-.531.054-.532-.053-.513-.157ZM668.044 386.605l-.479-.256-.419-.344-.343-.419-.255-.477-.156-.518-.052-.538.055-.538.159-.517.258-.476.346-.417.421-.342.48-.254.521-.155.541-.052.54.054.52.158.478.256.419.344.344.419.255.477.156.518.052.538-.055.538-.16.517-.257.476-.346.417-.421.342-.48.254-.521.155-.541.052-.54-.054-.52-.158ZM691.274 365.205l.021.185.037.326-.046.505-.15.479-.247.436-.335.376-.409.3-.469.215-.511.119-.531.02-.534-.08-.513-.177-.475-.267-.417-.348-.344-.414-.257-.464-.161-.498-.058-.511.047-.505.15-.479.247-.436.335-.375.41-.301.218-.099.251-.114.51-.119.532-.02.533.08.513.177.474.267.417.347.344.414.257.464.161.497ZM687.533 363.098l-.986.276M700.457 357.692l-.029.475-.128.445-.033.059-.191.341-.311.338-.385.263-.446.178-.489.086-.512-.008-.517-.104-.502-.194-.467-.277-.414-.35-.345-.41-.264-.453-.171-.478-.073-.487.029-.475.129-.446.225-.399.173-.188.138-.15.386-.262.446-.178.488-.086.513.009.516.104.501.194.467.277.413.35.345.409.264.452.171.479.073.486ZM696.258 355.196l-1.57.73M708.682 351.627l-.19.354-.276.29-.047.029-.302.187-.411.133-.458.046-.485-.045-.493-.132-.484-.216-.455-.29-.41-.353-.348-.404-.273-.438-.186-.455-.094-.456.001-.438.099-.403.021-.037.171-.317.276-.29.35-.215.413-.133.456-.045.485.045.492.133.484.215.454.29.41.353.347.403.273.438.186.455.095.455-.002.437-.099.404ZM704.687 348.177l-1.957 1.061M716.023 345.959l-.148.301-.231.235-.305.162-.368.081-.087-.001-.329-.002-.449-.086-.464-.166-.462-.241-.441-.304-.404-.358-.351-.397-.284-.42-.207-.429-.121-.419-.01-.118-.022-.276.06-.355.148-.3.232-.235.305-.161.368-.08.417.003.448.086.464.167.461.24.44.305.403.357.35.396.284.42.207.427.122.419.032.395-.058.354ZM711.777 342.631l-2.406 1.39M731.066 339.448l.23-.406.008-.02-.001-.001M729.569 338.824l.001-.003.087-.163.153-.284-.019-.117-.093-.184-.165-.243-.229-.294-.285-.334-.33-.359-.362-.373-.381-.37-.384-.355-.373-.325-.02-.016-.001-.001-.328-.266-.309-.231-.26-.169-.198-.1-.131-.029-.001.001"/><path d="m729.812 338.374-.004.003-.053.042h-.001l-.129-.027-.198-.1-.259-.169-.31-.23-.348-.284-.374-.325-.385-.355-.382-.372-.363-.373-.33-.36-.085-.1-.001-.001-.199-.233-.229-.294-.164-.243-.093-.184-.018-.116.056-.044.001-.001M726.364 340.018l.317-.642.001-.002.003-.007.008-.035.034-.145-.035-.218v-.001l-.004-.024-.117-.295-.19-.337-.178-.254-.001-.002-.078-.11-.313-.381-.358-.38-.389-.366-.183-.153-.001-.001-.22-.184-.405-.296-.39-.243-.129-.065h-.001l-.23-.116-.315-.111-.26-.039-.194.037-.002.001"/><path d="m726.685 339.367-.005.004v.001l-.001.001-.113.105h-.002l-.191.037-.259-.037-.316-.112-.36-.18-.39-.243-.231-.169-.001-.001-.173-.127-.406-.338-.052-.048-.016-.016-.321-.302-.359-.382-.313-.381-.257-.366-.191-.337-.116-.296-.038-.242.042-.18.119-.109.001-.001M722.002 342.014l.097-.242.013-.3-.072-.346-.04-.098-.003-.007-.112-.274-.23-.398-.298-.401-.354-.388-.396-.362-.423-.32-.14-.086-.007-.005-.288-.177-.428-.203-.407-.133-.369-.056-.316.023-.253.1-2.671 1.575"/><path d="m722.001 342.014-.006.006-.172.169-.003.001-.25.1-.316.024-.369-.056-.407-.132-.429-.203-.435-.268-.424-.321-.397-.362-.354-.389-.298-.402-.231-.398-.154-.379-.072-.347.014-.299.098-.242.177-.173.002-.002"/><path d="m721.821 342.19-.002.002-.252.101-.317.024-.369-.056-.406-.132-.429-.203-.436-.268-.424-.321-.397-.362-.354-.389-.298-.401-.231-.399-.154-.379-.072-.347.014-.299.098-.242.179-.175.003-.001M721.648 340.352l.231.398.107.264.003.006M722.034 341.129l.072.346-.013.3-.097.242M717.97 338.344l-2.665 1.572M718.223 338.244l.317-.023.368.056.407.133M720.18 338.881l.423.32.396.362.354.388M726.722 339.188l-.032.141-.009.04-.003.002-.001.001-.114.106-.001.001-.193.038-.26-.038-.315-.111-.36-.181-.39-.243-.231-.168-.002-.002-.173-.126-.405-.338-.015-.014-.017-.016-.358-.337-.358-.381-.314-.381-.257-.366-.19-.338-.117-.295-.037-.242.042-.18.118-.109.002-.001.001-.001.192-.036.26.038.316.112M726.57 338.65l.117.296M722.733 335.65l-2.87 1.687M724.879 336.668l.183.153.388.366.358.38M729.531 337.83l.165.243.093.184.019.117-.056.045-.131-.027-.198-.1-.259-.169-.31-.23-.348-.283-.374-.326-.386-.355-.381-.372-.363-.373-.33-.36-.085-.099-.001-.001-.199-.233-.229-.295-.165-.243-.092-.184-.018-.116.052-.041.005-.004.001.001M727.945 336.1l.381.371.362.372.33.359.285.334M725.938 334.608l-1.734.998-.47.271M726.07 334.637l.198.1.259.169M727.168 335.404l.001.001.018.015.374.325M731.305 339.021l-.065-.092-.135-.162-.201-.225-.258-.279-.306-.323-.341-.355-.365-.372-.373-.376-.367-.365-.348-.339-.314-.302-.269-.251-.213-.192-.15-.126-.08-.053M727.52 335.209l-.352.194M644.953 437.879l.242-.376.002-.004.325-.3.261-.137.006-.003.127-.067.447-.106.483-.002.5.102.5.204.478.296.439.377.383.445.312.494.23.525.137.536.041.526-.058.495-.155.446-.235.366-.005.008-.004.006-.004.003-.322.296-.393.206-.447.106h-.157l-.326.001-.257-.053-.243-.05-.499-.203-.478-.296-.438-.377-.383-.444-.312-.494-.229-.524-.138-.535-.041-.526.058-.495.153-.446Zm0 0 .008-.014M648.242 442.321l.458-.108M638.679 445.572l.266-.252.336-.161.394-.065.194.015.006.001.236.018.462.132.47.225.46.308.432.381.387.438.328.479.256.502.174.504.085.487-.005.36-.001.074v.018l-.098.4-.186.331-.003.003-.263.248-.337.161-.394.064-.436-.035-.461-.132-.47-.225-.459-.308-.431-.381-.169-.191-.217-.246-.109-.159-.219-.319-.256-.501-.174-.503-.086-.487.006-.453.097-.399.183-.329.002-.003Zm0 0 1.457-2.518M642.273 450.179l.032-.011M633.759 452.308l.2-.195.273-.107.335-.016.384.077.419.167.437.25.439.323.075.069.023.021.325.295.094.103.299.328.242.324.103.137.012.021.012.018.261.434.215.466.135.442.051.401-.036.345-.12.274-.003.003-.198.192-.273.106-.335.015-.384-.078-.398-.159-.009-.003-.012-.005-.436-.25-.438-.323-.423-.384-.139-.152-.253-.278-.271-.362-.008-.01-.005-.007-.061-.081-.285-.472-.214-.466-.136-.442-.048-.378-.003-.023.034-.345.119-.272.001-.003Zm0 0 .297-.5 1.406-2.365M637.734 456.68l.003-.002M630.566 457.51l.001-.001.129-.131.205-.047.272.04.23.087.099.038.373.206.402.278.417.34.415.389.397.423.322.39.002.002.04.048.316.441.083.136.004.007.171.282.188.391.111.344.031.283-.05.207v.003l-.001.001-.001.002-.129.129-.206.046-.134-.02h-.004l-.134-.02-.329-.126-.056-.031-.316-.175-.274-.189-.001-.001-.127-.088-.262-.213-.001-.001-.153-.125-.414-.389-.397-.422-.363-.439-.004-.006-.001-.001-.311-.433-.258-.424-.145-.302v-.001l-.043-.089-.112-.344-.022-.199-.01-.084.05-.21v-.002Zm0 0 .916-1.537.926-1.553M634.594 461.798l.003-.001M629.18 461.036l.003-.003.055-.062.136.018.208.099.272.176.325.248.106.089.001.001.26.218.394.358.405.394.402.414.002.001.002.003.379.414.349.407.301.38.242.338.174.282.099.218.003.02.001.003.017.12-.059.063-.136-.018-.209-.1-.272-.177-.325-.247-.366-.308-.393-.358-.405-.392-.401-.414-.382-.417-.348-.407-.108-.135-.001-.001-.193-.243-.242-.338-.175-.283-.1-.217-.021-.144Zm0 0 1.304-2.224.217-.37M633.258 465.235l.003-.002M629.909 462.263l-.307.544.066.085.144.16.215.229.279.29.331.34.371.376.396.399.407.405.401.396.381.372.345.333.296.282.236.22.167.149.091.073M634.785 466.331l.102.076.348.226.295.157.232.081.148.003M694.135 391.887l-.519-.282-.454-.374-.372-.452-.276-.513-.16-.522-.01-.032-.055-.574.06-.571.172-.547.064-.114.216-.388.375-.436.457-.356.521-.26.564-.155.586-.044.586.068.563.179.519.281.454.375.372.452.276.512.169.554.056.574-.059.571-.173.546-.279.502-.375.437-.457.355-.52.261-.565.155-.586.045-.587-.068-.563-.179ZM633.73 466.916l.013-.006"/><path d="m633.742 466.91 1.043-.579.002-.001.551-.305M633.295 465.031l.002.017.001.004.017.12v.002l-.055.059-.004.004-.136-.018-.208-.1-.272-.176-.325-.248-.366-.308-.394-.357-.404-.393-.402-.413-.382-.418-.348-.406-.108-.136-.001-.001-.192-.243-.243-.337-.174-.283-.1-.218-.021-.144v-.001M629.852 461.267l.326.247.105.089.261.22.394.357.406.394.402.414.002.002.002.003M632.477 463.814l.302.379M633.023 464.531l.174.283M629.238 460.974l.136.017.207.099M633.258 465.237l.152-.079.002-.002.993-.521.051-.027.002-.001 1.331-.7M633.87 459.576l.316.441.073.12.005.008.18.296.188.392.111.344.031.283-.048.202-.001.003-.001.004-.001.002-.125.126-.005.005-.206.046-.127-.019h-.004l-.141-.021-.329-.126-.043-.024-.329-.182-.256-.176-.001-.001-.145-.101-.262-.213-.001-.002-.153-.125-.414-.388-.397-.422-.363-.439-.004-.006-.001-.001-.311-.433-.257-.424-.146-.302v-.001l-.043-.089-.112-.344-.023-.202-.009-.081.05-.212.002-.002.128-.13.205-.047.272.04.226.086.103.039.373.205.402.279.417.34.415.389.397.423.317.383"/><path d="m634.59 461.802.177-.086.002-.001.638-.309.002-.001.116-.056.004-.002.604-.293.002-.001.162-.079.005-.002M637.69 454.562l.214.466.135.443.051.401-.036.344-.119.272-.001.003-.194.187-.007.007-.273.106-.335.015-.384-.078-.384-.153-.009-.004-.025-.01-.437-.249-.438-.324-.423-.384-.14-.154-.251-.276-.283-.377-.003-.004-.005-.007-.054-.072-.285-.472-.215-.466-.135-.442-.049-.381-.003-.02.035-.345.12-.275.002-.002M636.758 453.298l.3.33.241.322M635.461 449.44l-1.408 2.369-.299.504M634.227 452.011l.335-.016.384.077.05.02.369.147M637.73 456.685l3.107-1.334M636.242 452.812l.099.09.023.022M643.057 449.442l-.184.328-.002.004-.266.251-.3.143-.037.017-.394.064-.436-.035h-.002l-.459-.132-.469-.224-.459-.309-.432-.38-.17-.193-.216-.245-.11-.16-.218-.318-.256-.5-.174-.504-.086-.487.006-.452.097-.4.185-.332.003-.003.263-.248M642.645 447.098l.256.501M643.074 448.103l.085.488-.005.356-.001.069M640.171 442.995l-1.495 2.583M639.672 445.1l.2.016.006.001.23.018.462.131M642.27 450.185l.495-.173M649.855 440.364l.002.032-.058.496-.019.056-.135.39-.23.358-.005.008-.007.009-.002.005-.326.298-.376.197-.018.009-.446.106-.16.001-.323.001-.26-.054-.241-.049-.498-.204-.478-.295-.438-.378-.383-.444-.312-.493-.229-.525-.138-.535-.041-.525.058-.496.153-.446.014-.021.23-.359.004-.003.321-.296.267-.141.007-.003.119-.063.447-.107M647.34 436.994l.499.203.479.296.439.378.383.444.312.495.229.525M646.066 435.791l-1.121 2.095M648.234 442.328l2.276-.534M653.561 427.087l-.75 1.676-.202.483-.101.529.002.555.107.56.207.543.298.506.379.449.445.375.493.286.524.187.533.08 1.693-.078"/><path d="m652.809 428.763.294-.417.081-.073.294-.263.442-.243.492-.139.523-.03.534.08.524.187.494.286.445.375.38.45.298.506.207.544.106.56.002.556-.102.529-.202.482-.294.417-.376.336-.427.233-.015.009-.492.138-.523.03M661.655 419.041l-.197.85-.028.575.082.577.189.556.288.514.376.452.449.373.506.28.851.319"/><path d="m661.461 419.891.136-.552.052-.109.187-.398.334-.442.415-.361.48-.266.528-.161.554-.049.56.065.543.175.506.28.451.374.376.452.287.515.189.556.082.577-.028.575-.136.552-.24.507-.334.442-.415.361-.481.266-.527.16-.554.049-.497-.058-.063-.007-.543-.176M673.117 412.851l-.515-.277-.453-.372-.373-.454-.281-.518-.176-.563-.065-.584.049-.585.083-.293.077-.269.266-.519.361-.454.442-.373.507-.277.552-.171.575-.058.578.057.073.023.484.148.514.277.453.373.374.454.281.518.176.562.065.585-.049.585-.16.563-.266.518-.361.454-.443.373-.507.277-.552.171-.575.057-.577-.057-.557-.171ZM683.504 402.291l-.519-.278-.455-.373-.373-.454-.276-.518-.085-.283-.084-.278-.056-.584.059-.583.173-.561.279-.517.375-.452.456-.371.521-.275.407-.122.157-.047.587-.057.586.059.563.172.519.277.455.373.372.454.276.518.17.561.056.584-.059.583-.173.561-.279.517-.375.452-.456.371-.521.275-.564.169-.587.057-.586-.059-.563-.171ZM708.648 379.044l.027.234.037.321-.05.548-.16.521-.267.474-.361.408-.443.327-.507.233-.552.131-.576.023-.577-.086-.556-.192-.514-.289-.453-.377-.373-.449-.279-.504-.175-.54-.064-.555.05-.548.161-.521.267-.474.362-.408.443-.327.287-.132.22-.101.552-.13.575-.022.577.086.556.192.514.289.452.376.372.449.28.504.175.539Zm0 0 .33 1.083M704.592 376.761l-1.092.282M718.524 371.379l-.137.484-.057.102-.184.333-.335.368-.416.286-.481.195-.527.095-.555-.008-.559-.111-.543-.21-.505-.3-.449-.379-.375-.444-.286-.492-.187-.52-.08-.528.03-.516.138-.485.242-.434.216-.237.119-.131.416-.286.482-.194.527-.094.554.008.559.112.542.209.505.301.448.379.374.443.286.491.187.519.08.528-.029.516Zm0 0-.138 1.905M714.009 368.161l-1.724.776M727.408 364.247l-.203.385-.296.317-.078.049-.299.187-.444.146-.492.051-.523-.046-.534-.143-.523-.232-.493-.314-.444-.384-.377-.437-.296-.475-.204-.495-.104-.495.001-.476.104-.439.033-.062.172-.323.297-.316.377-.235.444-.146.492-.05.523.048.533.142.522.233.492.314.443.382.377.437.296.475.185.448.019.045.102.487.002.008v.475l-.104.439Zm0 0-.62 2.45M723.082 360.51l-2.141 1.136M735.284 358.055l-.157.327-.246.258-.181.098-.147.078-.395.091-.123-.001h-.325l-.484-.092-.501-.179-.498-.259-.477-.33-.437-.387-.381-.43-.309-.457-.226-.465-.133-.455-.013-.148-.024-.281.062-.387.157-.326.248-.257.328-.176.396-.089.448.002.483.092.5.179.498.259.077.053.399.276.056.05.38.337.38.429.309.456.226.464.034.117.1.338.037.429-.036.227-.025.159Zm0 0-1.006 2.761M730.692 354.453l-2.622 1.496M750.48 352l.256-.453.001-.002.698-1.235v-.001M749.03 351.327l.001-.003.119-.221.479-.891.001-.003.291-.542-.025-.128-.105-.201-.181-.266-.25-.32-.311-.361-.358-.39-.392-.403-.412-.401-.414-.383-.403-.351-.09-.073-.001-.001-.283-.231-.332-.247-.276-.181-.212-.107-.137-.028"/><path d="m749.92 349.667-.004.004-.053.048h-.002l-.135-.028-.21-.105-.276-.181-.332-.247-.375-.305-.403-.352-.415-.383-.413-.402-.393-.404-.359-.39-.171-.2-.001-.001-.138-.162-.251-.32-.181-.265-.104-.2-.024-.128.058-.051M745.852 352.4l.002-.004.307-.617v-.002l.105-.209.001-.003.352-.708.001-.002.007-.014v-.001l.019-.037.04-.197-.025-.15v-.001l-.02-.114-.13-.322-.208-.366-.28-.397-.088-.106-.001-.002-.252-.305-.202-.214-.185-.198-.421-.396-.347-.29-.001-.001-.088-.073-.437-.32-.419-.262-.238-.119-.001-.001-.148-.074-.338-.119-.155-.022-.122-.017-.18.037-.026.005-.003.002"/><path d="m746.646 350.803-.006.005-.022.022-.001.001-.01.01-.002.001-.084.083-.003.001-.202.042-.277-.038-.338-.119-.387-.194-.419-.261-.438-.32-.087-.073-.002-.002-.348-.29-.409-.386-.012-.011-.02-.021-.369-.392-.341-.413-.28-.398-.209-.367-.129-.321-.011-.066-.033-.199.041-.196.125-.121.001-.001M740.301 356.825l1.371-3.097.101-.264.011-.327-.081-.377-.034-.082-.003-.007-.133-.323-.251-.432-.324-.434-.383-.421-.358-.327-.071-.065-.457-.346-.221-.136-.002-.001-.005-.003-.241-.148-.462-.22-.437-.141-.396-.059-.295.023-.045.004-.27.111-1.07.625-1.835 1.073"/><path d="m741.673 353.728-.007.007-.183.185-.003.001-.266.111-.339.027-.396-.058-.438-.141-.462-.219-.47-.289-.331-.25-.127-.097-.43-.392-.11-.121-.274-.301-.324-.435-.251-.432-.17-.413-.08-.377.011-.326.103-.264.188-.189.002-.002"/><path d="m741.7 352.763.081.377-.011.327-.102.264-.187.19-.002.002-.269.112-.339.028-.396-.058-.438-.142-.462-.219-.47-.288-.329-.25-.129-.097-.43-.392-.108-.12-.276-.302-.324-.436-.252-.432-.169-.413-.054-.255-.026-.121.011-.327.103-.264.19-.191.003-.001.267-.11.049-.004.291-.023.396.059.437.142.462.219.248.153.004.002.007.004.209.129.458.347.073.067.356.324.383.421.324.435.251.431.128.312.003.007M737.312 349.756l-1.066.623-1.832 1.071M745.93 349.15l.002.002.087.106.28.397.209.366.129.322.019.107.027.157-.041.198-.025.025-.011.01-.001.001-.087.085-.001.001-.205.043-.277-.039-.338-.118-.386-.194-.42-.261-.437-.32-.088-.073-.002-.002-.348-.29-.369-.348-.018-.017-.034-.032-.389-.413-.341-.413-.28-.398-.208-.367-.129-.322-.01-.058-.035-.206.042-.197.125-.12.001-.001.002-.001.026-.005.177-.036.13.018.148.021.338.119.147.074.001.001.238.119.419.262.437.319.088.074.001.001"/><path d="m742.374 346.781-1.995 1.166-1.121.656M744.871 348.037l.42.396.175.186M749.92 349.668l-.057.051-.137-.027-.21-.106-.277-.18-.332-.248-.374-.305-.403-.351-.416-.384-.412-.402-.393-.404-.359-.39-.171-.199-.001-.001-.139-.162-.25-.32-.181-.266-.104-.2-.024-.128.055-.048.003-.003h.002l.135.029.211.106.277.181.332.247.284.232.001.001.089.072M748.297 347.598l.392.403.358.39M749.609 349.073l.181.265.105.201M745.737 345.595l-2.393 1.374M751.434 350.309l-.066-.097-.142-.173-.213-.241-.276-.3-.328-.349-.368-.382-.393-.402-.403-.407-.398-.395-.377-.368-.342-.327-.294-.273-.234-.21-.166-.137-.09-.06M747.345 346.188l-.365.201M751.218 352.5v-.015l-.075-.236-.15-.3-.22-.351-.039-.053M844.893 419.89l-5.881-8.088-.588-.808-7.326-6.808-2.119-1.969-8.062-5.916-2.313-1.698-8.711-4.912-2.167-1.222-8.117-2.665M997.398 784.839l2.732 9.619 2.74 9.619 2.73 9.619 1.05 3.703 1.47 5.169.75 2.609 2.73 9.618.13.472 2.74 9.619 2.73 9.618 2.74 9.619 2.73 9.619 2.74 9.619 2.03 7.157 7.35 6.781 7.35 6.781 7.35 6.781 7.35 6.781 7.35 6.781 1.93 1.78 3.9 3.6 7.35 6.781 7.35 6.781 7.35 6.781 2.36 2.173 7.54 6.564 7.49 6.518 7.55 6.563 7.46 6.495 7.55 6.564 7.44 6.472 7.54 6.564 7.42 6.451 7.18-5.95 3.3-6.091-5.44-8.395-5.43-8.394-4.69-7.239-5.21-8.533-5.22-8.533-4.58-7.503-5.35-8.448-5.35-8.447-4.45-7.019-3.93-9.198-3.92-9.197-1.12-2.615-.37-.867v-.005l-.18-.435-.07-.158v-.002l-.3-.699v-.002l-.05-.122v-.002l-.21-.482v-.001l-.12-.273v-.002l-.09-.218v-.002l-.26-.614-.01-.004v-.004l-1.29-3.021v-.019l-.19-.446.12-1.22v-.002l1.01-9.949.03-.283.09-.954 1.01-9.949.63-6.181.09-.926.07-.638-7.88-6.156-7.89-6.155-7.88-6.156-7.88-6.156-7.88-6.155-7.88-6.156-7.88-6.156-7.88-6.155-7.88-6.156-7.88-6.155-7.88-6.156-7.88-6.156-7.89-6.155-3.56-2.788-6.702 6.182Z"/><path d="m1004.1 778.657 2.76 9.612 2.76 9.612 2.76 9.612 2.55 8.885 2.3 8.025 2.76 9.611 2.16 7.516 2.76 9.612 2.76 9.612 2.75 9.612 2.76 9.611 1.25 4.342M1027.44 890.518l6.99-6.199 7.35 6.783 7.35 6.783 7.34 6.783 7.35 6.782 4.48 4.13 7.34 6.783 7.35 6.782 7.35 6.783 7.35 6.783 3.83 3.541 7.55 6.566 7.51 6.545 7.54 6.567 7.5 6.522 7.54 6.566 7.46 6.499 7.54 6.567 7.44 6.476M1175.93 815.704l2.5.929 8.49 5.288 8.49 5.288 2.62 1.635 8.59 5.125 8.59 5.125 2.49 1.491 8.43 5.385 8.43 5.385 2.33 1.49 6.57-5.578 2.64-4.879-6.64-7.477-5.55-6.247-6.64-7.477-5.53-6.225-6.64-7.477-5.51-6.204-6.64-7.477-3.1-3.493"/><path d="m1167.03 804.24 9.37 3.493 8.58 3.199 8.48 5.299 8.48 5.298 2.65 1.655 8.58 5.137 8.58 5.137 2.52 1.509 8.41 5.396 8.42 5.395 2.36 1.509M1462.93 401.404l7.64 6.449 4.72 3.98 3.58 3.018M1462.93 401.404l7.58 6.518 7.46 6.406 2.32 1.939 1 .832.37.31M1462.93 401.404l7.57 6.538 7.56 6.538 2.06 1.776"/><path d="m1483.8 419.268-.98-.804-.88-.714-.87-.711-.95-.783.36.268.9.675.28.21.08.055.35.247 8.13 5.811 1.03.729 1.26.903.64.459M1559.76 456.904l9.69 2.478 5.41 1.384 9.88 1.531 9.88 1.53 1.86.288 9.98.577 9.98.576 2.03.117 9.99-.378 9.99-.379 2.16-.081 9.92-1.324 9.91-1.324 2.27-.303.11-.017 9.74-2.255 9.75-2.256 2.19-.508 9.49-3.164 9.48-3.163 2.21-.737.18-.068 9.15-4.045 9.14-4.045 2.35-1.036 8.72-4.889 8.72-4.89 2.28-1.275 8.22-5.694 8.22-5.695 2.16-1.499 7.64-6.45 7.65-6.449 2.01-1.7 6.99-7.152 6.99-7.152 1.83-1.87 6.26-7.792 6.27-7.792 1.61-2.005 5.48-8.366 5.48-8.365 1.38-2.103 4.63-8.863 4.63-8.863 1.13-2.162 3.73-9.279 3.73-9.279.87-2.184 2.78-9.606 2.78-9.606.63-2.172 1.79-9.838 1.79-9.838.39-2.129.78-9.97.77-9.97.16-2.063-.26-9.997-.26-9.997-.05-1.979-.12-2.161-1.3-9.915-1.31-9.914-.22-1.71-2.35-9.72-2.35-9.72-.38-1.569-.87-2.464-3.37-9.414-1.34-3.741-2.4-6.698"/><path d="m1481.07 417.039.59.507 2.14 1.722.26.187.35.248.1.075 8.15 5.803.39.277 1.34.956 1.35.96M1484.06 419.455l1.14.904 8.15 5.788.1.068 1.34.951M1700.01 32.487l-1.25-.306-.97-.238-9.74-2.267-9.74-2.266-1.97-.459-9.92-1.282-9.91-1.281-2.11-.273-10-.295-9.99-.295-2.23-.066-9.98.685-9.97.686-2.31.158-9.86 1.648-9.87 1.648-2.35.394-1.9.322-9.66 2.584-9.66 2.584-2.33.621-9.37 3.489-9.37 3.49-2.25.839-9 4.362-9 4.362-2.15 1.042-8.54 5.191-8.55 5.192-2.01 1.222-8.02 5.975-8.02 5.974-1.85 1.376-7.42 6.704-7.42 6.704-1.66 1.498-6.75 7.376-6.75 7.376-1.46 1.587-6.02 7.982-6.02 7.982-1.24 1.642-5.24 8.519-5.23 8.52-1.03 1.662-4.39 8.981-4.4 8.981-.81 1.651-3.51 9.363-3.51 9.363-.61 1.612-2.59 9.659-2.59 9.659-.41 1.55-1.64 9.866-1.63 9.866-.25 1.471-.65 9.978-.66 9.978-.09 1.381.33 9.995.33 9.994.04 1.286 1.32 9.913 1.32 9.912.16 1.192 2.3 9.731 1.73 7.281M1445.03 380.133l1.8 2.25.02.032M1438.63 371.013l.95 1.359 4.54 6.526.45.576"/><path d="m1436.7 368.199 2.09 2.986.94 1.348 4.67 6.695.02.036.15.21.46.659 1.75 2.186.04.046.04.05 1.1 1.379"/><path d="m1446.71 382.123.03.04.73.978.49.653 6.48 7.619 6.47 7.619 2.02 2.372"/><path d="m1438.59 370.549 1.4 1.992.83 1.191 4.9 6.986.41.589.1.14.09.132.39.544.12.149.4.492 2.2 2.696.3.371 6.47 7.63 6.46 7.629.27.314-6.41-7.677-4.43-5.311-3-3.623M1493.45 426.215l7.46 6.655.51.456 7.56 6.548 5.5 4.761 7.17 6.972.89.87 4.56 4.292 6.83 3.102 4.45.733 9.85-1.705 9.86-1.706 1.67-.289M1409.7 307.518l-1.93 9.811-1.94 9.811-.35 1.743 1.08 4.826 3.08 5.781 4.58 3.968 6.63 7.485.08.095 6.64 7.485 6.63 7.484 4.43 5.006"/><path d="m1405.48 328.883 1.26-2.399 3.44.054 5.46 2.465 1.42.939 5.83 3.847 7.65 6.437 4.85 4.083 7.6 6.5 3.84 3.279 6.98 7.164 4.32 4.445 7.01 7.138 4.46 4.544 7.04 7.098 7.04 7.098 1.83 1.844 7.09 7.052 5.79 5.759 7.12 7.021 4.32 4.251 6.87 7.259 3.59 3.79 6.39 7.693 3.71 4.468 5.96 8.034.31.421.3.407 2.92 5.717.49 3.74-1.99 1.573M1420.94 351.038l2.77 3.272 6.54 7.562 4.76 5.498 4.57 5.002M1558.03 436.553l-2.58-3.581-6.34-7.74-5.25-6.42-3.36-3.574-6.85-7.285-1.88-2.001-7.11-7.034-6.14-6.075-7.08-7.057-2.01-1.995-5.86-5.839-7.05-7.091-4.76-4.792-6.7-6.731-7.02-7.121-5.25-5.327-1.07-1.082-4.61-4.704-7-7.14-1.55-1.577-7.64-6.449-5.68-4.789-7.71-6.361-6.86-5.652-2.92-1.862M1840.82 161.041l.45-9.99.44-9.99.2-4.357-.39-3.56-.81-3.394-.72-2.001-2.27-4.406-3.2-5.449-3.36-5.171-4.36-5.993-4.93-6.299-4.81-5.648-5.86-6.438-5.41-5.574-6.65-6.446-6.02-5.437-6.95-5.97-6.53-5.307-6.7-5.094-6.98-5.042-5.79-4.216-4.03-2.834-5.9-3.126-5.78-2.783-5.36-2.264-4.89-1.737-4.41-1.21-3.52-.565-9.99.523-9.98.523-7.55.395M294.73 972.835l2.902.934 2.416.777 5.129 1.305 7.674 1.267 5.413.874 5.06.289 8.876.301 5.074-.325 9.297-.81 9.21-1.892 5.181-1.082 9.254-2.999 4.757-1.861 9.074-4.079 8.618-5.045 4.264-2.697 8.111-5.984 7.449-6.819 3.515-3.438 6.674-7.546 5.843-8.21 2.618-3.999 4.873-8.671 3.913-9.139 1.682-4.313 2.829-9.297.869-4.625 1.733-9.264.665-9.389.037-1.423M440.866 824.838l-.927-2.238-.099-.24M372.363 760.429l-.624-.217-4.094-1.084-7.991-1.948-4.406-.755-8.712-.985-4.572-.292-9.237.052-4.588.29-9.559 1.14-4.45.972-9.677 2.256-9.364 3.275-4.391 1.824-9.035 4.286-.115.054-8.533 5.214-.087.053-4.023 2.733-7.937 6.083-.158.121-7.251 6.886-.114.108-3.399 3.59-6.48 7.617-.091.107-5.674 8.333-2.591 4.293-4.673 8.784-3.652 9.182-1.693 4.736-2.524 9.298-.863 5.111-1.381 9.192-.262 9.214-.08 4.965.86 8.734.554 4.917 1.178 5.232 1.789 7.495.492 1.507 1.116 3.422.076.185.112.276 2.465 6.038 1.743 4.157"/><path d="m224.954 902.802-.649 7.756.028 4.172 2.285 7.203 3.177 6.105 4.216 6.475 4.673 6.317 6.647 7.471.711.799 6.765 6.241 6.476 5.29 6.709 4.883 8.089 4.797 6.918 2.929 5.221 1.319 4.321.203 7.091-.993"/><path d="m290.819 971.418-7.968-3.393-8.593-5.115-.742-.443-7.754-5.655-7.49-6.124-7.349-6.782-.48-.443-6.649-7.47-1.868-2.098-5.41-7.303-4.882-7.48-1.166-2.232-2.512-4.807-1.715-5.371-.093-.293M439.479 812.535l-.191 1.28-.075 1.787-.395 1.565-1.184.351h-.016l-.031.001-1.403.065-1.711-.222-1.961-.518-2.201-.815-2.128-.865-2.211-.104-2.939-1.322-3.17-1.949-2.857-1.997-3.371-2.395-3.445-2.642-3.043-2.484-3.445-2.932-2.949-2.643-3.371-3.169-2.869-2.766-3.053-3.175-2.694-2.927-2.561-2.94-2.426-3.062-1.437-2.868-.576-2.176-1.535-2.313-1.244-2.271-.931-2.075-.614-1.863-.301-1.64.165-1.224v-.006l.015-.109 1.536-.632 1.285-.523 1.141-.525 1.469-.202 1.314.036 1.522.247 1.711.451 1.89.645 2.874 1.24 2.678 1.362 2.622 1.435 2.582 1.511 2.996 1.891 3.518 2.447 2.494 1.883 2.454 1.933 2.697 2.236 3.481 3.128 2.263 2.198 2.219 2.244 2.276 2.404 3.06 3.513 1.993 2.5 1.869 2.472 1.805 2.528 1.895 2.8 1.538 2.585 1.009 1.936.809 1.794.594 1.635.388 1.544.176 1.707Zm0 0 .359 9.825.006.162.003.1.114 3.126M367.289 760.744l-1.453.656"/><path d="m382.752 760.23-9.998.192-.392.008-3.21.062M449.675 859.555l.055-.248.026-1.045.028-1.121.002-.111-.067-.615-.178-.974-.181-1.048-.067-.13-.126-.299-.361-1.456-.352-1.577-.096-.535-.157-.679-.189-.694"/><path d="m448.896 855.178-.061-.351-.213-1.184-.253-1.662-.228-1.775-.13-1.183-.073-.685-.028-.967-.222-1.623-.31-2.135-.3-1.936-.325-1.982-.278-2.112-.203-1.572-.164-1.391-.341-1.719-.395-1.603-.312-1.403-.362-1.235-.355-1.23-.488-1.146-.383-.728-3.534-2.956M444.34 843.049l.384 2.478.396 2.732.283 2.078.034 1.238"/><path d="m447.672 865.897.07-.222 1.934-6.12-.054-.893-.073-1.067-.177-.582-.16-.761-.143-.934-.233-.491M446.668 860.322l.11.04.109.136.185 1.19.207.969.227.739.095 1.362.069 1.139M443.57 837.811l.355 2.702M440.863 824.838l.451 1.57.459 1.576.396 1.792.503 2.049.092.467M1382.68 284.046l-7.18-6.965-7.17-6.965-7.18-6.966-4.41-4.286-6.97 7.176-6.96 7.175-6.97 7.175-4.29 4.416 7.18 6.965 7.18 6.965 7.17 6.965 4.42 4.287 6.96-7.176 6.97-7.175 6.96-7.176 4.29-4.415ZM1350.05 252.158l-7.18-6.966-7.17-6.965-1.16-1.122-6.96 7.175-6.97 7.176-1.12 1.156 7.17 6.965 7.18 6.965 1.16 1.122 6.96-7.175 6.97-7.175 1.12-1.156ZM1368.92 237.42l-7.18-6.965-3.43-3.331-6.97 7.175-3.33 3.432 7.18 6.965 3.43 3.332 6.96-7.175 3.34-3.433ZM1383.99 1419.83l-7.16-6.98-7.16-6.98-7.15-6.99-7.16-6.98-7.16-6.98-7.16-6.98-7.16-6.98-7.16-6.99-7.16-6.98-7.16-6.98-7.16-6.98-7.15-6.98-7.16-6.99-7.16-6.98-7.16-6.98-7.16-6.98-7.16-6.98-7.16-6.99-7.16-6.98-7.16-6.98-7.15-6.98-7.16-6.99-7.16-6.98-7.16-6.98-7.16-6.98-7.16-6.98-7.16-6.99-7.16-6.98-7.16-6.98-7.15-6.98-7.16-6.98-7.16-6.99-7.16-6.98-7.16-6.98-7.16-6.98-7.16-6.99-7.16-6.98-7.16-6.98-7.15-6.98-7.16-6.98-7.16-6.99-7.16-6.98-7.16-6.98-7.16-6.98-7.16-6.98-7.16-6.99-7.16-6.98-7.16-6.98-7.15-6.98-7.16-6.98-7.16-6.99-7.16-6.98-7.16-6.98-7.158-6.98-7.159-6.99-7.159-6.98-7.159-6.98-7.159-6.98-8.936-8.72 6.982 7.16 6.983 7.16 6.982 7.16 6.982 7.16 6.982 7.16 6.979 7.16 6.98 7.16 6.99 7.15 6.98 7.16 6.98 7.16 6.98 7.16 6.99 7.16 6.98 7.16 6.98 7.16 6.98 7.16 6.98 7.16 6.99 7.15 6.98 7.16 6.98 7.16 6.98 7.16 6.98 7.16 6.99 7.16 6.98 7.16 6.98 7.16 6.98 7.16 6.98 7.16 6.99 7.15 6.98 7.16 6.98 7.16 6.98 7.16 6.99 7.16 6.98 7.16 6.98 7.16 6.98 7.16 6.98 7.16 6.99 7.15 6.98 7.16 6.98 7.16 6.98 7.16 6.98 7.16 6.99 7.16 6.98 7.16 6.98 7.16 6.98 7.16 6.98 7.15 6.99 7.16 6.98 7.16 6.98 7.16 6.98 7.16 6.99 7.16 6.98 7.16 6.98 7.16 6.98 7.16 6.98 7.15 6.99 7.16 6.98 7.16 6.98 7.16 6.98 7.16 8.72 8.94M2244.25 1052.43l-7.16-6.99-7.16-6.98-7.16-6.98-7.15-6.98-7.16-6.98-7.16-6.99-7.16-6.98-7.16-6.98-7.16-6.982-7.16-6.982-7.16-6.982-7.16-6.982-7.16-6.983-7.15-6.982-7.16-6.982-7.16-6.982-7.16-6.982-7.16-6.982-7.16-6.982-7.16-6.982-7.16-6.982-7.16-6.983-7.15-6.982-7.16-6.982-7.16-6.982-7.16-6.982-7.16-6.982-7.16-6.982-7.16-6.982-7.16-6.982-7.16-6.983-7.15-6.982-7.16-6.982-7.16-6.982-7.16-6.982-7.16-6.982-7.16-6.982-7.16-6.982-7.16-6.983-7.16-6.982-7.15-6.982-7.16-6.982-7.16-6.982-7.16-6.982-7.16-6.982-7.16-6.982-7.16-6.982-7.16-6.983-7.16-6.982-7.16-6.982-7.15-6.982-8.08-7.876 6.98 7.159 6.98 7.159 6.99 7.159 6.98 7.158 6.98 7.159 6.98 7.159 6.98 7.159 6.99 7.159 6.98 7.159 6.98 7.159 6.98 7.159 6.99 7.159 6.98 7.159 6.98 7.159 6.98 7.159 6.98 7.158 6.99 7.159 6.98 7.159 6.98 7.159 6.98 7.159 6.98 7.159 6.99 7.159 6.98 7.159 6.98 7.159 6.98 7.159 6.99 7.159 6.98 7.159 6.98 7.158 6.98 7.159 6.98 7.159 6.99 7.159 6.98 7.159 6.98 7.159 6.98 7.159 6.98 7.159 6.99 7.159 6.98 7.159 6.98 7.159 6.98 7.159 6.98 7.158 6.99 7.159 6.98 7.159 6.98 7.159 6.98 7.154 6.99 7.16 6.98 7.16 6.98 7.16 6.98 7.16 6.98 7.16 6.99 7.16 6.98 7.16 7.87 8.07M1488.93 447.859l6.99 7.159 6.98 7.159 6.98 7.159 6.98 7.158 6.98 7.159 6.99 7.159 6.98 7.159 6.98 7.159 6.98 7.159 6.98 7.159 6.99 7.159 6.98 7.159 6.98 7.159 6.98 7.159 6.98 7.159 6.99 7.158 6.98 7.159 6.98 7.159 6.98 7.159 6.99 7.159 6.98 7.159 6.98 7.159 6.98 7.159 6.98 7.159 6.99 7.159 6.98 7.159 6.98 7.159 6.98 7.158 6.98 7.159 6.99 7.159 6.98 7.159 6.98 7.159 6.98 7.159 6.99 7.159 6.98 7.159 6.98 7.159 6.98 7.159 6.98 7.159 6.99 7.159 6.98 7.158 6.98 7.159 6.98 7.159 6.98 7.159 6.99 7.159 6.98 7.159 6.98 7.159 6.98 7.159 6.98 7.159 6.99 7.159 6.98 7.159 6.98 7.159 7.88 8.075 7.07-7.071 2.14-2.145-7.16-6.982-7.15-6.982-7.16-6.982-7.16-6.983-7.16-6.982-7.16-6.982-7.16-6.982-7.16-6.982-7.16-6.982-7.16-6.982-7.15-6.982-7.16-6.982-7.16-6.983-7.16-6.982-7.16-6.982-7.16-6.982-7.16-6.982-7.16-6.982-7.16-6.982-7.15-6.982-7.16-6.982-7.16-6.983-7.16-6.982-7.16-6.982-7.16-6.982-7.16-6.982-7.16-6.982-7.16-6.982-7.15-6.982-7.16-6.983-7.16-6.982-7.16-6.982-7.16-6.982-7.16-6.982-7.16-6.982-7.16-6.982-7.16-6.982-7.16-6.982-7.15-6.982-7.16-6.983-7.16-6.982-7.16-6.982-7.16-6.982-7.16-6.982-7.16-6.982-7.16-6.982-7.16-6.982-7.15-6.983-7.16-6.982-7.16-6.982-7.16-6.982-8.08-7.876ZM226.257 906.685l-.019.017M443.199 834.825l.114.976M619.611 438.847l-.548.931-.856 1.454M619.435 437.882l-.001.002M622.027 445.091l.82 1.469v.001l2.774 4.972M629.18 461.037v.001M630.565 457.511l-.003.003M723.734 335.879l.13.065M726.199 338.058l.001.002.178.253M735.778 342.086l-4.711-2.638h-.001l-1.41-.79M750.477 351.999l.256-.453.002-.002.692-1.224.006-.011M742.702 346.754l-.246-.166-2.284-1.541-.367-.247M938.174 786.818l-.468.839-.001.003-.338.605-.002.003-.81 1.454M937.835 786.539l-.62 1.1M939.646 786.651l-.081.152v.001l-.432.797-.393.728-.003.003-.584 1.081-.002.002-.213.396M941.238 792.273l.136.14M942.574 793.857l.127.187M942.874 784.819l-.002.004-.449.881-.002.003-.569 1.117-.001.002-.147.288-.003.005-.135.265-.001.003-.198.388M945.664 792.943l2.06 1.684 1.005.823M949.969 784.101l.031.023.28.21M955.029 775.258l-1.06 2.666M954.185 800.645l-.478.878M955.878 800.269l-.556 1.059-.01.018-.001.003-.174.331M958.985 798.879v.002l-.166.336-.002.005-.124.251-.001.003-.157.318M964.383 794.722l-.003.006-.322.726-.002.005-.193.434M1070.54 662.877v.001l.01.006M1070.57 670.499l1.35-2.426.31-.561.26-.463M1077.84 657.482l.23-.401M1076.48 661.558l1.82-3.217M1082.89 687.407l1.82-3.34M1085.06 669.388l-.01-.001M1086.45 682.389l1.98-3.572M1088.48 678.511l.37-.663 1.3-2.347M961.988 805.339l8.252 4.964 3.09 1.859 8.569 5.155 8.569 5.156 8.569 5.155 8.573 5.155 4.13 2.484M1109.53 894.593l-.5 1.061v.001l-.07.142v.002l-.05.099M1110.21 898.948l.47-.274M1119.58 893.842l-.01.002M1084.71 670.992l-.64-1.065-3.77-6.239M1095.38 688.668l-5.17-8.562-1.36-2.258M1182.5 823.852l-.2-.18M1179.61 822.281l-.58-1.033-.01-.01-.04-.082v-.001l-.42-.747v-.003l-.01-.017-2.62-4.684-3.59-6.404M1494.79 427.166l7.49 6.62 7.5 6.62 7.49 6.62 5.85 5.165"/></g><defs><clipPath id="a"><path fill="#fff" d="M0 0h1920v1080H0z"/></clipPath></defs></svg>