<svg width="1920" height="1080" fill="none" xmlns="http://www.w3.org/2000/svg"><path d="m1006.34 762.369-.04-.052-.05-.059-.35-.418-.34-.595-.21-.64-.08-.658.04-.653.18-.622.29-.567.41-.484v-.005l.51-.395.58-.284.63-.162.67-.034.67.095.64.221.6.338.53.441.44.529.34.596.21.64.09.659-.05.653-.17.622-.3.566-.41.49-.01.004-.5.39-.58.283-.63.162-.67.034-.64-.091-.03-.004-.51-.177-.13-.044-.6-.338-.53-.441Zm0 0-.1-.101M1008.12 763.369l.06.02M994.828 768.47l.005-.005.479-.358.557-.25.612-.13.645-.007.651.117.635.237.592.347.527.445.442.524.337.585.23.622.1.635-.03.625-.15.589-.28.531-.382.454-.005.004M998.147 774.167l-.645.006-.651-.117-.633-.237-.592-.347-.527-.445-.441-.524-.34-.584-.225-.621-.101-.635.027-.624M999.316 773.788l-.019.008-.02.009M983.598 779.657l.119-.545.237-.484.169-.198.008-.01.163-.192.004-.004.44-.31.518-.202.577-.088.613.03.626.148.614.259.58.36.522.448.444.519.35.569.242.597.125.603.002.585-.119.545-.237.484-.115.134-.007.008-.224.262-.005.003-.435.305-.519.202-.576.087-.613-.031-.625-.148-.614-.259-.578-.36-.521-.447-.445-.518-.349-.568-.242-.597-.125-.602-.004-.585Zm0 0 .105-.511M988.809 783.483l.006-.002M974.449 787.349l.186-.425.29-.34.003-.004.388-.249.17-.053.009-.003.289-.089.53-.035.572.076.591.185.588.286.563.376.515.453.448.51.363.55.265.567.156.563.042.537-.05.328-.001.008-.024.154-.188.425-.294.343-.004.003-.384.245-.468.144-.53.035-.571-.077-.591-.185-.587-.286-.562-.376-.514-.452-.447-.51-.363-.548-.265-.567-.157-.562-.042-.536.074-.491Zm0 0 .014-.044M979.473 791.76l.012-.006M966.795 793.551l.164-.195.064-.076.003-.003.325-.18.407-.079.474.025.444.11.011.003.066.016.55.228.557.317.542.394.507.457.452.502.379.527.293.532.063.168.003.009.128.34.089.482-.021.427-.128.358-.232.273-.004.002-.322.177-.408.078-.474-.026-.521-.13-.549-.227-.556-.317-.541-.394-.506-.456-.451-.501-.379-.526-.136-.247-.156-.284-.195-.516-.089-.482.019-.428.128-.358Zm0 0 .002-.004M971.609 798.364l.167-.09M960.658 798.316l.023-.028.002-.002.134-.166.002-.002.255-.105.339-.007.41.092.465.186.503.273.521.351.305.243.215.171.497.462.457.492.397.503.324.494.237.466.142.421.04.36-.062.284-.161.197-.003.001-.253.103-.339.006-.113-.026h-.004l-.294-.066-.465-.187-.502-.274-.521-.35-.518-.414-.496-.461-.066-.071-.389-.42-.398-.501-.323-.493-.237-.466-.143-.421-.041-.36.06-.285Zm0 0 .003-.005M965.699 803.001l3.463-1.934M956.477 800.981l.001-.001.179-.026.265.069.342.16.404.246.453.322.483.386.495.435.487.467.461.481.417.477.209.266.001.001.147.187.059.086.225.328.199.358.028.077.078.211.01.207-.086.118h-.002M961.153 805.861l-.265-.069-.237-.112-.105-.049-.405-.247M956.799 802.081l-.086-.127-.2-.358-.107-.288-.011-.208" stroke="#EFC018" stroke-width="5" stroke-linejoin="round"/><path d="m961.332 805.836.88-.496 2.767-1.559M954.112 801.806l.099.055.19.144.271.23.341.307.401.371.443.421.469.456.476.472.466.47.438.451.391.414.331.36.26.294.174.215.084.129-.008.037v.001l-.101-.055-.189-.146-.27-.23-.343-.307-.4-.371-.442-.421-.469-.454-.474-.471-.466-.47-.437-.449-.391-.414-.331-.36-.258-.294-.176-.216-.086-.13.007-.039Zm0 0 .164-.305v-.001l.271-.505.001-.001.109-.203M958.938 806.634l1.71-.952" stroke="#EFC018" stroke-width="5" stroke-linejoin="round"/><path d="m953.906 800.338-.147.267v.001l-.001.002.021.132.112.219.199.298.186.244M1067.14 704.761l-.3.442-.26.219-.15.128-.48.24-.54.121-.58-.001-.61-.122-.59-.241-.57-.349-.52-.443-.44-.522-.36-.579-.26-.615-.15-.626-.03-.615.08-.578.2-.519.31-.442.22-.183.19-.164.48-.238.54-.12.58.001.6.123.6.241.57.348.51.444.45.52.36.579.26.613.15.626.03.614-.09.578-.2.52Zm0 0-.94 2.292M957.192 805.104l-.468-.454-.475-.471-.465-.47-.437-.45-.391-.413-.331-.36-.259-.294-.175-.216-.086-.13.006-.039.002.001.098.053.189.145.27.23.342.306.401.371.443.422.469.455.476.473.466.47.438.451.392.414.331.36.258.294.175.215.085.129-.008.037-.101-.054-.189-.146-.272-.231-.342-.306-.399-.371-.443-.421ZM956.84 800.225l-.449.877.012.207.107.289.199.357.083.122.201.292.357.453.416.476.46.48.486.466.494.435.282.225.001.001.199.159.452.322.405.246.104.05h.001l.237.111.265.07.18-.025.003-.001" stroke="#EFC018" stroke-width="5" stroke-linejoin="round"/><path d="m956.391 801.101.008-.011.077-.108.002-.001.177-.025.265.068.342.161.405.246.452.322.483.386.495.435.487.467.461.481.417.477.209.266.001.001.147.187.055.08.229.334.199.358.028.076.078.211.01.207-.085.117-.001.001M965.878 802.165l.041.359-.062.284-.16.195-.002.003-.256.103-.339.006-.106-.024-.004-.001-.3-.067-.466-.187-.502-.273-.52-.351-.518-.414-.497-.46-.066-.072-.389-.419-.397-.502-.324-.493-.237-.466-.142-.421-.001-.009-.041-.351.061-.284.007-.009.019-.024.002-.002.133-.164.002-.001.252-.104M965.695 803.005l3.473-1.94M972.22 796.651l.089.482-.021.427-.129.357-.229.271-.002.002-.153.084-.173.096-.408.078-.474-.026-.521-.13-.549-.227-.556-.318-.541-.393-.506-.457-.451-.501-.379-.526-.136-.247-.157-.284-.194-.516-.089-.482.019-.427.128-.359.008-.008.161-.193.061-.073.004-.002.322-.177.407-.08.473.025.455.113M971.602 798.369l3.095-1.67M968.746 793.177l.55.228M979.583 788.044l.363.549.265.567.157.563.041.537-.049.322-.001.007-.024.162-.188.424-.291.34-.003.004-.369.235-.02.013-.468.144-.53.034-.571-.077-.59-.185-.588-.286-.561-.376-.514-.451-.448-.51-.363-.549-.265-.566-.156-.562-.043-.537.074-.49.022-.051.165-.374.293-.344.004-.003.384-.247.179-.055.008-.003.281-.087.529-.035.572.077.591.184.589.286.562.377M979.465 791.767l2.732-1.354M989.24 783.178l-.003.005-.426.298-.015.01-.518.202-.577.087-.613-.031-.625-.148-.613-.259-.579-.36-.521-.448-.444-.517-.35-.568-.242-.597-.125-.602-.003-.585.113-.519.006-.026.236-.484.177-.208.009-.01.158-.186.005-.004.435-.306M986.438 777.662l.624.148.615.259.58.36.522.448.445.519.349.569.242.597.125.603.003.585M989.819 782.295l-.237.484M985.246 777.72l.577-.087M988.797 783.491l2.3-.961M993.984 770.672l.101.635.225.621.339.584.442.524.526.445.592.347.633.237.652.117.644-.006.612-.13 1.62-.419" stroke="#EFC018" stroke-width="5" stroke-linejoin="round"/><path d="m993.984 770.672.005-.132.021-.492.048-.183.007-.026.098-.38.274-.532.384-.453.005-.005.475-.354.556-.25.612-.13.645-.006.652.116.634.237.592.348.527.445.442.523.339.585.23.622.1.635-.03.625-.15.589-.28.531-.379.45-.004.005-.479.357h-.001l-.019.008-.503.226-.035.016M1011.16 762.595v.006l-.5.394-.59.283-.63.162-.67.034-.57-.082-.02-.003-.05-.007-.02-.003-.65-.221-.6-.338-.53-.441-.09-.111-.05-.06-.3-.358-.33-.596-.22-.639-.08-.659.04-.652.18-.622.3-.567.4-.49.01-.004M1006.11 762.159l.22.22M1012.09 760.271l-.05.652M1007.91 756.785l.66-.034M1008.11 763.379l.4.131M1019.23 751.684l-.6-.332-.53-.44-.44-.532-.34-.602-.2-.65-.08-.673.05-.669.18-.641.31-.587.42-.512.51-.415.59-.304.65-.181.67-.05.68.082.65.211.6.331.53.441.44.531.33.602.21.65.08.673-.05.67-.18.641-.31.587-.42.511-.52.416-.59.304-.64.18-.67.05-.68-.081-.65-.211ZM1031.12 739.786l-.6-.33-.53-.44-.44-.532-.33-.604-.22-.653-.08-.676.04-.479.01-.195.18-.646.3-.593.41-.517.51-.421.59-.31.64-.185.27-.022.4-.033.67.078.64.208.61.33.53.44.44.532.33.603.21.653.09.676-.05.674-.18.646-.3.593-.42.517-.51.421-.58.31-.64.186-.67.055-.67-.078-.65-.208ZM1046.91 723.517l.03.108.19.539.09.669-.03.666-.16.637-.28.583-.39.507-.49.412-.56.3-.62.177-.65.048-.66-.084-.64-.212-.59-.332-.53-.44-.44-.531-.34-.6-.22-.648-.1-.67.03-.666.16-.636.28-.583.4-.507.48-.411.57-.3.62-.177.65-.048.66.085.63.212.6.332.49.411.04.029.44.53.34.6Zm0 0 .06.161M1057.75 714.761l-.23.509-.02.049-.36.482-.45.387-.53.276-.58.156-.63.029-.63-.099-.62-.224-.58-.338-.53-.442-.44-.527-.35-.592-.24-.635-.11-.652v-.646l.13-.614.25-.558.35-.481.46-.386.53-.276.44-.117.14-.038.63-.028.63.099.62.223.58.339.52.441.45.526.35.592.23.634.12.652v.645l-.13.614Zm0 0-.4 1.611M1075.38 695.38l-.24.39-.35.296-.42.19-.14.022-.35.054-.53-.039-.57-.155-.56-.263-.55-.362-.51-.447-.45-.515-.38-.562-.28-.588-.19-.592-.07-.573.03-.531.1-.31.04-.159.25-.389.35-.295.42-.189.49-.075.53.04.56.155.57.264.55.361.5.446.46.514.37.561.29.587.18.591.08.572-.03.531-.15.47Zm0 0-1.33 2.724M1081.96 687.472l-.18.328-.27.233-.36.131-.42.022-.48-.086-.32-.117-.2-.076-.53-.291-.53-.378-.5-.45-.45-.507-.4-.541-.31-.557-.23-.55-.03-.106-.1-.417-.03-.474.08-.409.18-.327.28-.232.15-.057.01-.003.19-.07.43-.021.48.087.52.193.17.096v.001l.36.194.52.377.5.45.46.505.39.541.32.556.22.549.13.522.03.475-.08.409Zm0 0-1.64 3.089M1077.16 682.667l-2.25.946M1086.59 681.523l-.19.164-.29.063-.36-.038-.42-.14-.46-.235-.49-.322-.51-.396-.49-.455-.46-.497-.41-.519-.13-.184v-.008l-.22-.329-.27-.503-.19-.466-.09-.411.01-.341.1-.256.2-.162.01-.003.28-.06.35.04.41.137.01.002v.001l.47.236.49.321.5.396.48.441V678l.01.012.46.496.42.517.34.52.28.503.18.466.06.243.03.168v.341l-.11.257Zm0 0-1.91 3.468M1081.92 676.487l-1.21.575M1089.44 677.113l-.12.088-.2-.008-.2-.07-.09-.035-.36-.196-.01-.008-.4-.274-.16-.122-.3-.233-.47-.416-.48-.46-.47-.486-.43-.494-.39-.483-.32-.453-.24-.405-.16-.343-.07-.266.03-.18.12-.087.21.009.28.105.36.198.41.277v.004l.46.355.47.415.48.459.47.485.43.493.25.311v.001l.13.17.32.452.25.406.06.123.1.22.07.267-.03.181Zm0 0-.4.729-1.63 2.914" stroke="#EFC018" stroke-width="5" stroke-linejoin="round"/><path d="m1084.72 672.182-.7.359v.002M1084.31 669.46l-.25.134M1090.27 674.673l-.05-.102-.15-.191-.23-.272-.3-.343-.37-.4-.42-.442-.45-.468-.47-.474-.47-.464-.45-.435-.41-.39-.36-.329-.3-.256-.21-.174-.14-.084-.04.009-.25.135v.001l-.49.265v.001l-.19.102" stroke="#EFC018" stroke-width="5" stroke-linejoin="round"/><path d="m1090.27 674.672-.04.01-.13-.083-.22-.173-.29-.256-.36-.329-.42-.39-.45-.436-.28-.28-.02-.018-.17-.167-.47-.476-.45-.468-.34-.361-.02-.02-.06-.062-.37-.401-.3-.342-.23-.272-.14-.19-.06-.1v-.001" stroke="#EFC018" stroke-width="5" stroke-linejoin="round"/><path d="m1090.07 674.381.15.191.05.101v.002l-.04.009-.13-.083-.22-.172-.29-.256-.36-.33-.42-.39-.45-.436-.27-.273-.02-.018-.17-.174-.48-.475-.45-.469-.35-.37-.02-.02-.05-.053-.37-.4-.3-.343-.23-.271-.14-.19-.06-.102.04-.009.14.084M1085.45 669.858l-.25.135v.001l-.49.265-.19.103M1084.31 669.46l-.01.001-.24.134" stroke="#EFC018" stroke-width="5" stroke-linejoin="round"/><path d="m1085.21 669.992-.26-.196-.3-.201-.21-.113-.13-.022M723.84 335.279l-8.728-4.883-6.331-3.541-8.884-4.592-8.883-4.591-8.884-4.591-4.349-2.248-8.915-4.529-8.916-4.528-8.916-4.529-4.421-2.245L637.45 291l-9.164-4.003-9.164-4.003-5.187-2.265-9.577-2.878-9.577-2.877-9.577-2.878-9.577-2.878-9.577-2.877-9.577-2.878-9.577-2.877-3.119-.937 2.849 9.585 2.849 9.586 2.848 9.586 2.849 9.585 2.849 9.586 2.848 9.586 2.849 9.585.8 2.691 3.987 9.171 3.986 9.17 3.987 9.171 2.209 5.08 4.517 8.922 4.518 8.921 4.517 8.922 2.209 4.361 4.58 8.89 4.581 8.889 4.581 8.889 2.224 4.315 4.873 8.731 3.613 6.472M1079.13 664.569l-1.14 2.791-3.67 5.256-6.09 7.555-.66.763v.003l-.1.113v.005l-1.21 1.387v.008l-3.28 3.785-.01.007-1.04 1.2-.01.007-.64.746-1.36 1.563-1.24 1.365v.008l-3.12 3.433-.01.009-.84.924v.008l-2.34 2.569-2.14 2.36-.01.008-.51.569-3.09 3.28-.01.01-.42.449-.01.01-3.48 3.7-1.8 1.916-.01.009-2.91 3.094-1.32 1.372-.01.01-.07.066-4.21 4.351-1.46 1.51-.01.009-4.49 4.635-1.17 1.212-4.76 4.793-4.65 4.672-3.82 3.843-2.16 2.122-4.63 4.53-5.913 5.795-.447.438-4.026 3.832-5.614 5.345-.446.424-2.433 2.316-1.441 1.327-4.943 4.548-.919.845-3.435 3.16-.624.575-3.096 2.723-1.208 1.063-3.746 3.294-1.49 1.311-.157.138-.048.043-7.75 6.363-5.474 3.933-3.022 1.391" stroke="#EFC018" stroke-width="5" stroke-linejoin="round"/><path d="m947.841 794.527-.529.957.5 1.185 3.07-1.408 5.568-3.998 7.729-6.345.159-.13.748-.658.299-.263 1.821-1.602 3.465-3.047 1.264-1.113 2.325-2.044 1.484-1.365 3.353-3.086.926-.852 5.003-4.603.807-.742 3.024-2.879.447-.425 5.63-5.359 3.65-3.476.815-.798 5.901-5.781 4.64-4.546 2.04-2.001 3.93-3.949 4.66-4.688 4.89-4.921 1.03-1.066 4.5-4.651.01-.01 1.46-1.51 4.2-4.335.07-.071.01-.01 1.7-1.76 2.54-2.695v-.009l1.81-1.917 3.49-3.716.01-.009.42-.45.01-.009 3.58-3.807.01-.008.07-.08 2.07-2.279 2.39-2.633.01-.008.84-.928.01-.008 3.04-3.351.01-.008 2.04-2.245.5-.586.81-.931.01-.007 1.1-1.267v-.007l3.03-3.491v-.008l1.5-1.729.01-.005.22-.253v-.004l1.28-1.473 6.19-7.689 3.73-5.345 1.15-2.834-1.41-.265-.65.381M1135.17 855.205l5.96-6.026.13-.134 6.84-7.292.18-.186 2.56-2.886 3.82-4.309 5.49-6.622 4.38-5.788 3.12-4.731 1.73-3.497.3-2.141M1070.74 654.322v-.001l-.51-.621-6.33-7.739-6.34-7.738-6.33-7.738-6.33-7.739-3.2-3.908-6.5-7.6-6.5-7.6-6.5-7.6-6.5-7.6-6.5-7.599-5.46-6.391-6.681-7.444-6.678-7.444-6.678-7.443-6.677-7.444-6.678-7.444-5.561-6.199-6.853-7.283-6.852-7.283-6.852-7.284-6.853-7.283-6.852-7.283-5.67-6.027-7.471-6.648-7.47-6.648-7.47-6.648-7.471-6.648-7.47-6.647-6.229-5.544-7.696-6.385-7.696-6.386-4.622-3.835-7.696-6.385-7.696-6.386-7.696-6.385-1.901-1.578-8.065-5.913-8.064-5.913-8.064-5.913-8.065-5.913-8.064-5.913-7.162-5.252-8.292-5.589-5.759-3.882-8.292-5.59-8.292-5.59-7.183-4.841v-.001l-1.092-.736-.002-.001M740.154 344.862l-2.927.534-4.995 2.695-6.901 4.784-2.019 1.585-.002.001-.185.145-.003.003-1.411 1.107-.008.005-2.547 2-.007.004-1.24.973-.005.005-1.126.883-.234.198-2.286 1.942-.008.006-2.438 2.071-.007.006-.805.683-.008.006-2.378 2.021-1.716 1.456-.305.276-.007.006-3.662 3.298-.01.008-.002.002-.089.08-.008.007-2.211 1.992-1.966 1.77-.006.007-2.541 2.289-2.315 2.19-.008.008-3.32 3.141-.008.007-5.643 5.34-.441.437-2.362 2.338-6.53 6.464-1.975 1.956-.356.367-5.865 6.072-3.156 3.269-1.474 1.526-3.083 3.35-3.803 4.135-.08.086-2.974 3.233-.398.458-3.81 4.388-.688.791-2.118 2.441-1.608 1.85-1.47 1.829-.994 1.234-2.018 2.507-1.214 1.509-.198.247-1.065 1.325-5.036 7.037-2.935 5.162-.751 3.114M628.395 455.521l.131.194 1.544 2.293.263.393" stroke="#EFC018" stroke-width="5" stroke-linejoin="round"/><path d="m742.47 346.424.803-2.143-.796-1.692-3.033.542-5.192 2.795-7.18 4.975-3.113 2.441-.001.001-.791.62-.004.003-2.095 1.643-.006.005-2.099 1.646-.006.005-.793.622-.46.39-.006.006-1.493 1.267-2.262 1.92-.006.005-2.452 2.082-.007.006-.781.663-.008.006-2.248 1.909-.569.483-1.466 1.32-.006.006-3.928 3.537-.008.008-.025.022-.008.007-.097.088-1.614 1.453-2.149 1.935-.007.007-1.957 1.763-3.359 3.178-.009.008-2.717 2.571-.007.007-5.682 5.376-1.284 1.271-1.207 1.195-7.107 7.035-.59.583-1.134 1.123-.469.464-6.304 6.528-2.573 2.664-2.434 2.52-2.589 2.814-3.517 3.823-.023.026-3.622 3.937-.609.662-3.14 3.617-.667.767-2.139 2.464-3.036 3.498-.216.267-1.011 1.257-1.678 2.087-1.726 2.146-.693.861-1.923 2.392-5.237 7.323-3.046 5.368-.769 3.229 1.498 1.004 2.481-.827" stroke="#EFC018" stroke-width="5" stroke-linejoin="round"/><path d="m742.476 342.589-2.247-1.735-3.034.529-1.248.668-3.933 2.105-3.71 2.561-.003.002-.872.603-.006.004-.931.641-.003.003-1.635 1.128-.501.393-.005.003-.687.539-.005.003-1.676 1.312-.006.004-.748.586-.005.004-2.534 1.982-.006.004-1.961 1.536-.007.005-.736.577-.342.289-.007.005-.735.624-.005.003-2.47 2.094-.006.005-6.689 5.67-7.434 6.688-3.785 3.406-7.266 6.871-4.458 4.216-7.107 7.035-4.63 4.583-6.946 7.194-4.312 4.466-6.768 7.364-3.541 3.851-6.49 7.485-2.151 2.481-.294.34-.292.363-.863 1.075-1.601 1.995-2.019 2.515-.617.77-1.333 1.659-.482.601-.071.1-1.559 2.186-.62.872-.675.946-2.28 3.198-2.491 4.415-.531.941-.755 3.228 1.737 2.251M635.066 465.435l.001.001.728 1.08 5.585 8.296 5.586 8.295 4.746 7.05 5.586 8.295 3.893 5.782 5.91 8.067 5.91 8.066 5.91 8.067 5.91 8.066 5.91 8.067 5.324 7.267 6.384 7.697 6.384 7.697 6.384 7.697 1.637 1.974 6.384 7.697 6.384 7.697 3.885 4.685 6.647 7.471 6.647 7.471 6.647 7.471 6.647 7.471 6.647 7.471 5.675 6.378 7.283 6.852 7.284 6.852 7.284 6.852 7.283 6.852 7.284 6.852 6.182 5.815 7.444 6.677 7.444 6.677 7.444 6.677 7.445 6.677 7.444 6.677 6.351 5.696 7.601 6.499 7.6 6.498 7.601 6.498 7.601 6.498 7.601 6.498 6.533 5.585 7.739 6.333 7.74 6.332 7.739 6.333 7.74 6.332 3.901 3.192.001.001.607.497.449.367M1079.13 664.57l-.87-1.065-1.63-1.988M1096.14 885.97l2.26-.444 3.6-1.892 4.81-3.28 5.84-4.55 6.64-5.647 1.01-.919M1169.68 811.593l-1.48-2.449-5.16-8.564-5.17-8.564-5.16-8.564-5.16-8.563-5.17-8.564-5.16-8.564-5.16-8.564-5.17-8.564-5.16-8.564-5.16-8.563-5.17-8.564-5.16-8.564-5.16-8.564-5.17-8.564-5.16-8.564-1.71-2.844M947.812 796.669l6.094 3.669h.002l.751.453M1166.97 892.77l1.41-1.346 1.1-1.057 5.48-5.551.61-.65 1.8-1.939 1.32-1.417 1.47-1.582 3.65-4.189 1.06-1.212.17-.218 3.86-4.781.29-.398 2.92-4.004 2.25-3.634 1.22-2.729.15-1.726-5.03-8.642-2.64-4.529M1127.6 904.255l8.65 5.025 4.59 2.672 1.81-.259 2.8-1.342 3.69-2.381 3.62-2.724.81-.609 1.46-1.219" stroke="#EFC018" stroke-width="5" stroke-linejoin="round"/><path d="m1156.22 880.985 1.48-1.421 6.55-6.629 1.35-1.451 1.93-2.072 2.93-3.142 1.69-1.917 1.81-2.065 2.14-2.448 4.84-5.939 3.84-5.213 2.71-4.287.57-1.235.91-1.965.2-1.999-4.88-8.728-1.95-3.479M1093.6 884.439l-.27.513-.63 2.575.9 1.086 8.73 4.874 2.84 1.585.95.53v.001l.22.125" stroke="#EFC018" stroke-width="5" stroke-linejoin="round"/><path d="m1093.6 888.613 2.41-.466 3.84-2.016 5.14-3.503 6.25-4.868 7.11-6.044 2.32-2.111M1135.44 855.62l4.71-4.769 1.12-1.123.23-.236.39-.395 6.84-7.292.68-.72 1.79-2.027 5.04-5.68 5.88-7.09 4.69-6.194 3.32-5.058 1.84-3.734.31-2.281-1.22-.757-2.68.778-.18.102M1111.45 898.576l8.73 4.875 3.57 1.995 2.11-.329 1.74-.862 1.54-.76 4.35-2.861 5.25-3.996 5.07-4.242M1178.44 905.2l.82-.731 3.27-3.117 3.22-3.272 3.06-3.3.97-1.113.7-.805 1.1-1.279 2.38-2.969 1.81-2.514.08-.111.5-.831.82-1.35.72-1.653.09-1.063-5.7-8.217-3.09-4.444M1152.76 905.246l8.22 5.698 4.48 3.112.43-.057M1222.71 671.634l-9.97.786-9.97.787-9.97.786-9.97.787-9.96.786-9.97.787-9.97.786-9.97.786-2.56.203-9.97.786-9.97.787-9.97.786-9.97.787-7.33.578" stroke="#EFC018" stroke-width="5" stroke-linejoin="round"/><path d="m1093.19 681.851 5.24 8.518 5.24 8.519 5.24 8.519 5.23 8.518 5.24 8.519 5.24 8.518 5.24 8.519 5.23 8.518 5.24 8.519 5.24 8.518 5.24 8.519 5.24 8.519 5.23 8.518 3.64 5.914 8.83-4.698 8.82-4.697 8.83-4.698 8.83-4.698 6.39-3.402 9.98.731 9.97.73 9.97.731 3.21.235 9.38 3.462 9.38 3.461 7.15 2.638 9.48 3.175 9.49 3.175 7.62 2.555 9.32 3.636 9.32 3.636 6.9 2.693 7.13-7.008 1.5-1.472-1.02-1.38-6.1-7.924-5.61-7.289-6.11-7.923-5.61-7.291-6.1-7.924-5.61-7.292-6.1-7.923-5.62-7.294-6.51-7.585-6.52-7.585-6.52-7.585-6.51-7.585-6.52-7.585-6.52-7.585-6.51-7.585-6.52-7.585-4.32-5.03-9.97.786-9.97.787-9.97.787-9.97.786-9.97.787-9.97.787-9.96.786-9.97.787-2.25.177-9.97.787-9.97.786-9.97.787-9.96.787-7.15.564.12.929Z" stroke="#EFC018" stroke-width="5" stroke-linejoin="round"/><path d="m1326.42 798.691-6.1-7.924-5.66-7.348-6.1-7.924-5.66-7.349-6.1-7.924-5.65-7.35-6.1-7.924-5.66-7.352-6.52-7.585-6.52-7.585-6.51-7.585-6.52-7.585-6.52-7.585-6.51-7.585-6.52-7.585-6.52-7.585-4.54-5.283-.62-.892M1059.08 921.854l.12-.217m0 0 4.8-8.774 4.8-8.773 4.79-8.774 4.8-8.774 3.14-5.73-.08-1.687-8.52-5.248-8.51-5.248-8.51-5.248-8.51-5.249-8.52-5.248-8.51-5.248-8.51-5.248-8.51-5.248-8.51-5.248-8.517-5.249-8.512-5.248-8.512-5.248-8.512-5.248-5.372-3.312-.364 1.411-.814 9.967-.814 9.967-.813 9.967-.814 9.967-.556 6.812-.814 9.967-.813 9.967-.814 9.967-.814 9.967-.813 9.966-.814 9.967-.813 9.967-.814 9.967-.11 1.342 7.581 6.522 7.581 6.521 7.581 6.522 7.581 6.521 7.581 6.522 7.584 6.521 7.58 6.522 7.58 6.521 4.85 4.175 7.92 6.11 7.26 5.608 7.92 6.1 7.26 5.61 7.92 6.11 7.26 5.61 7.92 6.11 7.27 5.6 7.13-7 1.39-1.36-.11-2.26-3.64-9.32-3.63-9.32-2.52-6.46-3.16-9.487-3.17-9.485-2.4-7.179-3.45-9.384-3.46-9.384-2.48-6.744-.69-9.976-.7-9.976-.69-9.976-.07-1.012Z" stroke="#EFC018" stroke-width="5" stroke-linejoin="round"/><path d="m1081.53 880.812-8.51-5.248-8.52-5.248-8.51-5.249-8.51-5.248-8.51-5.248-8.51-5.248-8.52-5.249-8.51-5.248-8.51-5.248-8.512-5.248-8.512-5.249-8.512-5.248-8.512-5.248-5.817-3.587M1089.37 1031.6l-3.63-9.32-3.64-9.32-2.55-6.56-3.17-9.483-3.16-9.485-2.43-7.28-3.46-9.384-3.45-9.384-2.53-6.84-.69-9.976-.69-9.977-.69-9.976-.19-2.761M990.699 748.414l-.042-.052-.049-.059-.348-.421-.328-.601-.206-.65-.072-.652-.002-.019.013-.152.046-.516.191-.639.315-.586.422-.504.005-.005.523-.414.599-.302.652-.179.295-.022.154-.011.23-.016.681.083.656.212.606.333.533.441.439.531.329.602.206.65.074.672-.06.668-.191.639-.316.586-.427.509-.006.005-.518.409-.599.301-.651.179-.679.048-.68-.083-.478-.155-.071-.023-.107-.034-.606-.333-.533-.44Zm0 0-.094-.095-.014-.014M997.148 748.38l.578-.688.426-.791.259-.863.08-.903-.1-.908-.277-.877-.444-.814M991.836 749.188l.117.039.077.026M977.941 757.156l.039-.639.057-.205.007-.027.103-.374.29-.549.396-.467.004-.006.496-.377.573-.267.627-.146.658-.021.577.092.086.014.038.014.604.215.598.342.529.444.441.527.336.591.217.631.091.647-.039.639-.168.606-.29.55-.401.472-.006.004-.491.372-.055.026-.021.009-.497.231-.627.146-.657.021-.662-.107-.642-.229-.597-.342-.529-.443-.441-.527-.335-.59-.082-.238-.045-.13-.091-.262-.091-.647Zm0 0v-.15M985.859 759.194l.006-.005.542-.637.392-.743.227-.818.054-.864-.123-.875-.293-.853-.454-.798M982.738 760.504l.024-.006M967.172 766.58l.131-.56.249-.501.192-.226.009-.01.154-.18.004-.005.454-.326.532-.219.59-.102.624.018.635.137.622.252.346.21.105.065.133.081.524.447.444.52.346.575.236.606.116.614-.008.598-.132.56-.25.5-.132.155-.008.008-.22.258-.005.004-.45.321-.532.218-.589.102-.624-.019-.635-.138-.621-.251-.583-.356-.523-.447-.195-.228-.093-.109-.155-.183-.346-.573-.236-.605-.117-.613.008-.598Zm0 0 .133-.574M975.406 768.927l.005-.004.486-.569.339-.676.179-.756.011-.81-.156-.83-.319-.818-.468-.776M972.414 770.38l.007-.002M957.721 774.653l.197-.439.301-.355.003-.004.399-.263.196-.065.008-.003.275-.091.54-.048.581.065.599.176.594.28.566.373.517.451.311.356.094.108.042.049.361.554.26.574.149.573.034.548-.059.352-.002.008-.024.144-.198.439-.306.358-.004.003-.395.26-.48.157-.54.047-.58-.066-.598-.176-.593-.28-.057-.037-.151-.1-.357-.235-.516-.451-.447-.511-.36-.554-.26-.573-.15-.572-.034-.548.084-.504Zm0 0 .018-.05M962.758 779.056l.011-.006M966.125 777.274l.004-.003.413-.483.269-.594.115-.681-.044-.742-.202-.774-.351-.777M949.83 781.175l.236-.283.003-.003.153-.088.18-.104.415-.09.481.015.477.108.01.002.041.009.556.22.561.312.545.392.508.456.451.503.378.531.289.539.065.179.003.009.063.175.058.161.008.043.075.448-.028.439-.136.369-.24.285-.004.002-.33.189-.416.089-.313-.01-.168-.006-.125-.028-.403-.092-.554-.22-.56-.312-.544-.391-.507-.455-.451-.503-.278-.391-.099-.138-.289-.538-.189-.524-.084-.491.027-.438.135-.37Zm0 0 .002-.005M954.648 785.993l.074-.04M958.305 783.976l.003-.002.326-.387.185-.499.038-.593-.111-.665-.255-.709M943.534 786.205l.029-.036.002-.003.132-.166.002-.002.26-.114.343-.015.414.083.47.179.506.268.524.347.521.412.146.135.352.327.456.493.397.505.322.499.234.473.138.428.037.367-.067.293-.166.206-.003.002-.257.111-.344.014-.062-.013h-.004l-.349-.071-.469-.18-.506-.268-.522-.347-.52-.411-.361-.335-.136-.126-.456-.492-.396-.504-.321-.498-.235-.472-.138-.428-.01-.091-.028-.277.065-.293Zm0 0 .003-.006M948.586 790.885l2.5-1.423.554-.316.528-.3.008-.004.003-.002M952.18 788.839l.226-.28.091-.396-.015-.152-.033-.346-.009-.027-.177-.553M939.195 789.175l.086-.124.001-.001.18-.032.266.063.343.155.406.242.453.319.484.383.495.433.488.467.461.482.417.479.306.392.001.001.05.064.283.418.197.362.057.157.049.136.009.213-.088.124h-.002l-.179.03-.267-.064-.162-.074h-.001l-.18-.082-.406-.242-.453-.319-.087-.069-.001-.001-.395-.312-.494-.433-.486-.466-.46-.48-.417-.478-.356-.456-.283-.418-.198-.362-.107-.294-.01-.213Zm0 0 .006-.011M944.141 793.907l.847-.487.88-.507 2.043-1.175M947.91 791.738l.12-.168-.011-.288M936.931 789.983l.097.052.187.142.269.227.34.305.399.369.442.421.469.455.477.472.466.471.438.451.393.415.333.362.259.296.177.218.087.131-.006.04-.099-.052-.187-.143-.27-.229-.34-.304-.399-.369-.441-.42-.468-.454-.475-.471-.465-.47-.437-.45-.393-.415-.333-.362-.26-.296-.177-.218-.088-.132.005-.041v-.001Zm0 0 .189-.344.001-.001.276-.501.001-.001 1.199-2.174M941.758 794.812l1.772-1.01M937.987 786.466l-1.318 2.343v.001l-.001.002.016.132.107.22.194.299.133.176M1054.04 688.394l-.32.456-.25.215-.17.147-.5.252-.56.135-.59.008-.62-.114-.6-.234-.57-.345-.52-.444-.45-.522-.1-.164-.06-.104-.2-.317-.25-.621-.14-.637-.02-.625.11-.591.21-.532.33-.456.2-.174.22-.187.5-.251.55-.133.6-.009.61.116.61.233.57.345.16.139.11.093.25.211.44.523.36.582.25.621.14.636.02.625-.1.589-.22.534Zm0 0-.99 2.377M1048.16 691.941l.82.317.83.154.8-.014.76-.181.67-.342.57-.487.43-.617M1050.25 683.156l-2.33.536" stroke="#EFC018" stroke-width="5" stroke-linejoin="round"/><path d="m941.673 794.639.087.131-.006.04-.099-.052-.188-.143-.269-.229-.34-.304-.399-.37-.441-.419-.468-.454-.475-.471-.465-.47-.438-.45-.392-.415-.333-.362-.26-.296-.177-.218-.088-.133.005-.041.001.001.096.05.187.143M940.906 793.764l.333.362.259.296M937.48 790.404l.34.305.399.369M942.006 792.776l-.494-.432-.486-.466-.46-.481-.417-.477-.356-.457-.283-.417-.198-.363-.107-.293-.01-.213.009-.013.078-.112.002-.001.178-.031.266.063.343.155.406.242.453.318.484.384.495.433.488.467.461.482.417.479.306.392.001.001.05.064.283.418.197.362.057.157.049.136.009.212-.087.123-.001.001-.181.031-.267-.064-.162-.074-.181-.082-.406-.242-.453-.319-.087-.069-.001-.001-.395-.313ZM944.137 793.908l.85-.488M948.58 790.886l-.002.002-.26.112-.344.015-.056-.012h-.003l-.356-.073-.469-.18-.505-.268-.523-.346-.52-.412-.362-.335-.135-.125-.455-.492-.396-.504-.322-.498-.234-.472-.139-.428-.01-.1-.028-.268.065-.293.008-.01.025-.031.002-.003.131-.164.002-.001M945.688 786.403l.523.347.521.412.156.143.343.318.457.493.395.506.323.499M952.172 788.843l.002-.001M948.578 790.889l2.504-1.426.554-.315.535-.305M944.297 785.872l.415.084" stroke="#EFC018" stroke-width="5" stroke-linejoin="round"/><path d="m945.342 782.518-.775 1.576-.263.536-.752 1.53-.001.002-.024.048M954.976 785.805l-.002.004-.254.145-.08.046-.416.089-.311-.011-.17-.005-.124-.029-.404-.092-.555-.22-.56-.312-.543-.391-.507-.455-.451-.502-.279-.392-.098-.138-.289-.537-.19-.525-.083-.49.026-.439.136-.37.008-.01.23-.276.004-.002M951.82 780.747l.555.22.561.312.545.391.509.456.451.504.378.531.289.538.06.168.004.011.067.186M955.38 784.716l-.028.438M957.848 784.239l.453-.259.003-.003M950.812 780.612l.482.015.487.11M954.641 785.999l3.206-1.761" stroke="#EFC018" stroke-width="5" stroke-linejoin="round"/><path d="m951.337 777.727-.451 1.03-.795 1.813-.267.611M963.703 776.951l.033.548-.058.345-.001.007-.026.152-.198.439-.302.354-.003.004-.381.25-.019.012-.479.158-.54.047-.581-.066-.598-.176-.593-.28-.055-.036-.151-.1-.359-.236-.516-.451-.446-.511-.361-.554-.26-.573-.15-.572-.034-.548.084-.504.026-.057.171-.382.304-.359.005-.003.395-.26.204-.068.008-.003.266-.088.541-.048.58.065M965.582 777.633l.541-.356.004-.004M958.772 771.686l-1.061 2.974M962.75 779.062l2.831-1.428M973.47 769.143l-.25.501-.125.146-.007.008-.224.262-.004.004-.439.315-.016.011-.532.217-.589.102-.624-.019-.635-.137-.621-.252-.583-.356-.523-.446-.194-.228-.093-.109-.156-.183-.346-.574-.236-.605-.117-.613.008-.598.131-.56.011-.022.238-.478.201-.236.009-.011.149-.175.005-.003.449-.323.532-.219M969.477 764.459l.624.018.635.137.622.252.347.211.105.065.132.08.524.447.444.521.346.574.236.606.116.614-.008.598M967.708 764.237l-.544 2.351M974.789 769.372l.615-.44.004-.005M972.402 770.389l2.385-1.018M984.658 758.244l-.168.606-.29.549-.397.467-.004.005-.497.376-.034.016-.021.01-.484.225-.034.016-.627.146-.657.02-.662-.106-.642-.229-.597-.343-.529-.443-.441-.526-.335-.59-.082-.237-.045-.13-.091-.264-.091-.647.01-.159.029-.479.064-.232.008-.027.095-.347.29-.55.4-.472.006-.004.49-.373.573-.267.627-.147M977.93 755.543l.003 1.622M984.41 760.066l.774-.36.671-.508.004-.005M982.73 760.514l1.681-.448M991.828 749.197l.195.066M996.044 748.041l-.423.504-.005.005-.523.414-.599.302-.652.178-.679.049-.63-.078-.05-.006-.477-.154-.179-.058-.605-.333-.533-.44-.092-.111-.006-.008-.043-.052-.298-.36-.329-.602-.205-.649-.073-.652-.002-.02.013-.151.046-.517.191-.639.315-.586.428-.509.005-.005.518-.409M996 744.226l.328.602M990.484 748.22l.205.205M996.535 745.477l.074.672-.059.668M993.086 742.624l.681.083M994.422 742.919l.606.333M1004.07 737.225l-.61-.327-.53-.439-.44-.534-.33-.608-.2-.66-.07-.686.07-.685.02-.047.06-.214.12-.398.33-.606.44-.532.53-.435.61-.322.33-.1.21-.06.12-.038.69-.065.69.069.66.203.61.327.53.439.44.534.33.608.2.66.07.686-.07.686-.2.658-.33.607-.44.531-.53.435-.61.322-.66.198-.69.065-.69-.07-.66-.202ZM1010.18 734.438l.09-.925-.09-.927M1004.58 738.148l.93.095.93-.088M1014.71 725.613l.82.44.89.269.93.09.92-.094.89-.274.12-.067.69-.376.72-.595M1016.47 724.827l-.61-.325-.53-.438-.44-.535-.33-.61-.2-.662-.07-.69.06-.689.04-.146.06-.203.09-.314.33-.612.43-.536.53-.441.6-.327.4-.123.21-.066.05-.014.68-.069.69.066.66.2.6.325.54.438.44.535.32.61.21.662.07.689-.07.689-.19.664-.32.611-.44.537-.52.44-.61.328-.66.203-.68.069-.68-.066-.66-.2ZM1026.33 713.751l.82.443.87.276.91.098.9-.083.86-.261.78-.429.69-.581.56-.709.4-.812" stroke="#EFC018" stroke-width="5" stroke-linejoin="round"/><path d="m1032.94 707.905.03.087.18.57.09.681-.05.68-.18.653-.3.601-.41.525-.5.43-.59.317-.64.194-.66.061-.67-.073-.65-.204-.6-.328-.53-.439-.44-.533-.34-.606-.21-.657-.08-.682.01-.257.02-.154.01-.269.18-.653.3-.601.41-.525.51-.429.58-.317.64-.193.5-.046.17-.015v.001l.67.072.65.205.6.327.49.411.04.028.44.532.33.606Zm0 0 .08.182M1032.17 706.767l-.19-.218M1037.35 702.245l.79.452.86.292.87.12.86-.056.82-.23.74-.394.63-.545.51-.673.35-.776M1044.21 698.765l-.22.487-.04.087-.38.498-.47.403-.54.292-.61.17-.64.041-.64-.089-.63-.216-.59-.335-.53-.44-.44-.529-.34-.598-.23-.632v-.011l-.02-.117-.09-.547.02-.658.15-.629.26-.574.38-.498.47-.402.54-.291.42-.115.19-.054.63-.041.65.09.24.083.13.044.26.089.59.334.52.44.45.529.34.597.23.642.11.663-.02.658-.15.629Zm0 0-.43 1.67M1040.86 693.966l-1.6-.013M1062.68 678.697l-.26.401-.36.307-.43.2-.14.023-.37.063-.54-.031-.58-.148-.57-.258-.55-.36-.08-.071-.11-.093-.32-.282-.45-.516-.38-.566-.28-.594-.17-.599-.07-.582.05-.541.1-.297.06-.183.26-.401.36-.305.44-.2.5-.085.55.033.57.148.57.258.55.359.51.446.45.515.22.332.1.148.05.085.28.593.18.598.06.581-.04.541-.16.481Zm0 0-1.4 2.822M1058.29 673.664l-2.95 1.055M1057.66 682.626l.77.2.74.041.68-.117.59-.272.48-.415.36-.543M1069.6 670.546l-.19.336-.29.241-.37.139-.43.029-.49-.081-.03-.009-.19-.068-.09-.033-.22-.077-.53-.288-.53-.376-.51-.45-.45-.507-.39-.545-.31-.561-.22-.556-.02-.08-.1-.449-.02-.481.09-.417.19-.335.17-.137v-.004l.12-.099.37-.137.44-.028.49.081.52.188.53.288.14.095.39.28.5.45.46.506.39.543.31.56.22.555.08.371.04.157v.122l.02.36-.09.417Zm0 0-1.74 3.198" stroke="#EFC018" stroke-width="5" stroke-linejoin="round"/><path d="m1064.79 665.738-.17.074-.01.003-1.88.828-.01.004-1.36.599M1065.46 674.647l.67.108.59-.041.5-.187.38-.328.26-.455M1074.48 664.443l-.2.169-.3.068-.36-.035-.43-.136-.47-.232-.5-.32-.51-.395-.49-.455-.46-.498-.27-.351-.01-.007-.13-.162-.34-.524-.27-.506-.18-.47-.08-.416.01-.344.12-.261.2-.167.01-.001.29-.066.36.035.33.105.01.003.09.029.47.233.5.32.5.394.49.454.18.194.01.001.27.301.41.52.35.522.27.506.18.47.06.297.02.118-.01.345-.12.262Zm0 0-1.34 2.386-.3.541-.38.659" stroke="#EFC018" stroke-width="5" stroke-linejoin="round"/><path d="m1069.81 659.401-1.27.631-.01.003-.55.271v.001l-1.83.904M1071.79 668.351l.4-.093.28-.229M1077.52 659.957l-.13.089-.21-.007-.12-.041-.17-.062-.36-.196-.42-.281-.03-.024v-.001l-.43-.33-.48-.415-.48-.46-.46-.487-.43-.494-.39-.484-.31-.454-.24-.406-.16-.344-.06-.268.03-.181.13-.088.21.008.3.104.36.197.42.281.45.354.48.415.48.459.46.485.43.493.34.424v.001l.05.058.31.453.24.407.09.199.07.145.06.268-.03.183Zm0 0-.89 1.559-1.25 2.205" stroke="#EFC018" stroke-width="5" stroke-linejoin="round"/><path d="m1072.8 655.023-.79.42-.01.002-.23.127-.65.345-.24.124v.001l-.12.063-.48.259-.01.002-.27.147v.001M1072.52 652.406l-2.29 1.294" stroke="#EFC018" stroke-width="5" stroke-linejoin="round"/><path d="m1078.46 657.526-.05-.101-.15-.189-.22-.27-.3-.341-.37-.399-.42-.441-.45-.467-.47-.474-.47-.464-.45-.436-.41-.39-.37-.331-.29-.258-.22-.175-.14-.086-.04.006-.29.16v.001l-.48.269v.001l-2.13 1.18" stroke="#EFC018" stroke-width="5" stroke-linejoin="round"/><path d="m1078.46 657.526-.05.008-.13-.085-.22-.175-.29-.257-.37-.331-.41-.391-.45-.437-.47-.465-.15-.149-.04-.041-.28-.285-.36-.369-.05-.047-.05-.052-.41-.442-.37-.399-.3-.341-.23-.27-.14-.188-.05-.098v-.002" stroke="#EFC018" stroke-width="5" stroke-linejoin="round"/><path d="m1078.46 657.526-.01.001-.04.008-.13-.085-.22-.174-.29-.258-.37-.331-.41-.391-.45-.436-.47-.465-.13-.133-.04-.04-.3-.303-.38-.39-.05-.046-.03-.032-.41-.442-.37-.399-.3-.341-.23-.27-.14-.188-.05-.099M1076.95 655.786l.42.441M1078.04 656.968l.23.271" stroke="#EFC018" stroke-width="5" stroke-linejoin="round"/><path d="m1073.64 652.712-.29.158v.001l-.48.27v.001l-2.13 1.18M1073.68 652.705l.14.086.22.175M1074.7 653.556l.41.39M1072.52 652.405v.001l-2.29 1.294" stroke="#EFC018" stroke-width="5" stroke-linejoin="round"/><path d="m1073.35 652.87-.19-.144-.29-.196-.22-.108-.13-.017M1132.38 882.711l.36-.006.35-.073.32-.139M1130.46 880.8l.02-.218v-.017l.01-.108.1-.323.16-.293.15-.16M1130.62 881.486l.18.319M1124.55 885.191l.01-.008.01-.019.2-.221.26-.168.3-.111.34-.047.35.016.35.081.34.141.32.197.29.245.24.282.19.31.12.326.06.329-.02.319-.08.297-.11.193v.004l-.04.067-.21.22-.26.168M1128.74 886.941v-.002l.28-.298.2-.356.11-.402.02-.431-.07-.445-.17-.44-.25-.42-.32-.382M1124.33 885.725l-.01.319.06.329.12.325.18.31.24.283.29.244.32.196.35.142.35.08.35.017M1118.78 890.43v-.291l.06-.265.12-.229.18-.185.19-.108v-.003l.04-.022.28-.076.31-.016.33.044.33.103.33.158.32.206.28.248.24.278.2.3.13.308.07.305.01.291-.02.069v.004l-.04.192-.12.23-.19.184v.001l-.23.132-.27.075-.31.016-.33-.044M1123.36 891.25l.24-.249.17-.31.08-.359-.01-.394-.1-.413-.18-.417-.26-.404-.33-.377" stroke="#EFC018" stroke-width="5" stroke-linejoin="round"/><path d="m1121.83 892.155 1.49-.884.03-.019v-.002M1119.18 891.343l.25.279.28.247M1114.26 894.393l-.15-.288-.09-.279-.04-.259.04-.229.09-.19.15-.144.2-.093.24-.037.28.019.08.021.01.002.21.052.32.128.31.177.31.217.28.251.24.274.2.287.15.288.01.011v.005l.08.263.04.259-.04.229-.09.19-.15.144v.001l-.2.091-.24.037-.28-.019-.3-.076-.32-.128-.31-.176-.31-.218-.28-.25M1118.68 894.632l.2-.195.12-.257.05-.31-.05-.35-.12-.378-.2-.39-.27-.388M1116.95 895.692l1.72-1.056v-.001l.01-.002M1110.17 896.131l-.06-.224v-.19l.04-.127v-.002l.01-.019.11-.1.17-.049.2.005.25.058.27.108.29.156.3.196.29.23.28.254.24.269.22.273.16.268.12.25.06.224v.19l-.06.148-.11.099v.001l-.16.048-.21-.005-.24-.058-.22-.087M1114.86 896.984l.15-.135.07-.2v-.257l-.08-.303-.16-.339-.22-.362-.29-.369M1111.18 897.444l.29.229.3.197M1112.95 898.149l1.91-1.166M1110.29 896.383l.16.266.21.273M1107.3 896.789l.12-.003.17.049.21.098.24.143.26.185.28.217.28.242.03.03v.001l.24.227.25.264.22.259.12.157.07.087.14.221.09.188.04.149-.02.103-.06.051-.01.003M1108.42 898.529l.28.242.27.217" stroke="#EFC018" stroke-width="5" stroke-linejoin="round"/><path d="m1109.97 899.46 1.48-.884.55-.335M1112 898.242l.1-.074.01-.117M1107.35 897.285l.14.22.18.245.23.258M1106.24 897.919l-.23-.244-.21-.222-.17-.19-.12-.152-.08-.108-.03-.059.03-.008.06.035v.001l.01.007.13.092.17.139.2.179.24.213.25.238.27.255.26.262.22.219v.003l.04.036.23.245.21.221.17.191.12.152.08.107.03.058-.03.009v-.001l-.08-.043-.12-.092-.17-.139-.21-.179-.23-.213-.26-.238-.26-.255M1108.11 899.589l.94-.542M1104.7 895.913l.03.088.08.136.13.178.17.213.2.241.12.128M1167.57 844.364l.39.325.42.249.43.165.45.073.43-.021.4-.114.35-.203.3-.284.22-.354M1171.59 843.019l-.16.262-.22.21-.06.035-.2.115-.3.084-.32.015-.32-.054-.33-.121-.31-.185-.28-.24-.25-.287-.19-.321-.14-.346-.09-.354-.01-.351.04-.334.11-.303.17-.262.22-.21.03-.018.23-.131.29-.084.32-.015.33.054.32.122.31.184.28.24.25.286.2.322.14.345.08.354.02.351-.05.333-.11.304Zm0 0-.63 1.181M1169.5 840.14l-1.36.167M1105.17 895.072l-.46.803-.01.037v.001" stroke="#EFC018" stroke-width="5" stroke-linejoin="round"/><path d="m1106.12 895.603-.51.95v.001l-.19.343-.02.047.02.059.08.107.13.152.17.191.2.221.24.245.25.258.27.261.26.254.25.239.24.212.2.18.17.138.13.093.08.043.02-.008" stroke="#EFC018" stroke-width="5" stroke-linejoin="round"/><path d="m1106.49 897.84.26.255.27.261.21.219.01.003.03.037.24.244M1105.4 896.944v-.001l.02-.007.07.036v.001l.01.006.13.092M1108.09 899.53l.02.058M1107.92 895.452l-.15.298-.1.202v.015l-.04.073v.001l-.16.316-.06.123-.18.365-.02.103.04.149.09.188.15.221.18.244.22.259.18.186v.001l.08.076.27.258.27.242.28.217.08.057v.001l.18.126.24.144.21.098.17.049.12-.003v-.001" stroke="#EFC018" stroke-width="5" stroke-linejoin="round"/><path d="m1107.8 896.934.24.144.26.184.28.218.28.242.03.03v.001l.24.227.25.263.22.259.12.158.07.087.14.22.09.189M1107.23 896.845v-.003l.07-.052.12-.003.17.048M1110.05 899.304l-.01.104-.07.053v.001M1111.08 893.497l-.92 2.074-.01.016v.002l-.05.13v.19l.06.224.12.25.17.267.21.273.25.268.27.254.29.23.3.196.29.156.05.022.01.001.21.086.25.058.21.005.16-.049v-.001M1112.94 897.238l.11.251.06.224" stroke="#EFC018" stroke-width="5" stroke-linejoin="round"/><path d="M1110.16 895.571v-.004l.11-.096.16-.049.21.004M1113.12 897.903l-.06.147-.11.099v.001M1110.89 895.484l.27.109.29.156M1112.31 896.43l.25.269M1114.71 891.453l-.7 1.888-.03.229.03.258.09.279.15.289.2.286.25.274.28.25.3.217.32.177.31.128.3.076.28.019.25-.037.2-.092 1.73-1.06" stroke="#EFC018" stroke-width="5" stroke-linejoin="round"/><path d="m1114.01 893.341.01-.027.08-.164.15-.144.2-.092.25-.038.28.02.09.022v.002l.21.051.31.128.32.176.3.218.28.251.25.274.2.286.15.289v.011l.09.268.03.259-.03.229-.09.19-.15.142v.002M1119.3 888.172l-.47 1.707-.06.265.01.291.07.305.14.308.19.299.24.278.28.247.32.207.33.157.33.104.33.044.31-.016.28-.076.23-.133 1.52-.904" stroke="#EFC018" stroke-width="5" stroke-linejoin="round"/><path d="m1120.95 889.543.31.207.29.247.24.279.19.299M1122.19 891.189v.291l-.01.065v.004l-.05.196-.12.229M1119.37 889.331l.27-.076.31-.017.33.045M1123.35 891.254v-.002M1118.83 889.879l.01-.014.12-.216.18-.184M1124.5 884.349l-.17 1.381-.01.319.05.328.12.326.19.309.24.283.29.244.32.197.34.141.36.081.34.017.34-.048.3-.11 1.18-.646" stroke="#EFC018" stroke-width="5" stroke-linejoin="round"/><path d="m1124.33 885.729.01-.03.07-.267.14-.244v-.009l.01-.011.21-.221.25-.168.31-.11.33-.048.35.017.35.08.34.142.33.196.28.245.24.282.19.311.12.325.06.329-.02.319-.08.297-.1.189-.01.004-.04.071-.2.22-.25.159-.01.009M1128.39 887.17l.35-.227v-.003M1130.38 880.28l.12.871.11.34.18.319.24.286.29.242.33.188.35.128.37.062.36-.006.35-.073.32-.139.25-.109" stroke="#EFC018" stroke-width="5" stroke-linejoin="round"/><path d="m1130.5 881.152-.04-.347v-.008l.02-.227v-.108l.1-.323.17-.293.15-.166M1146.91 870.258l.12-.062.39-.318.33-.389.24-.444.15-.482.05-.503-.05-.502-.15-.484-.24-.447-.32-.392" stroke="#EFC018" stroke-width="5" stroke-linejoin="round"/><path d="m1144.23 867.172.08-.095.3-.236.33-.174.36-.107.37-.034.38.038.36.111.33.177.29.239.24.29.17.33.11.359.04.372-.04.371-.11.357-.18.329-.24.287-.29.236-.02.009M1150.2 863.439l.39.322.45.238.48.145.5.046.5-.053.48-.152.44-.244.39-.327.31-.397.23-.452.14-.49.05-.509-.02-.189-.04-.319-.15-.488-.24-.449" stroke="#EFC018" stroke-width="5" stroke-linejoin="round"/><path d="m1151.66 863.452-.33-.176-.29-.238-.24-.291-.18-.332-.11-.361-.04-.376.04-.376.1-.363.17-.335.23-.293.29-.242.33-.18.35-.113.37-.039.37.035.1.029.26.078.33.176.29.238.24.29.17.333.04.102.08.259.04.376-.04.376-.1.362-.17.335-.24.294-.28.242-.33.18-.35.112-.37.04-.37-.035-.36-.107ZM1156.45 856.911l.39.322.44.238.47.147.49.048.48-.051.47-.149.42-.241.36-.324.3-.394.21-.449.13-.487" stroke="#EFC018" stroke-width="5" stroke-linejoin="round"/><path d="M1160.63 855.219v.015l-.09.345-.16.332-.22.292-.27.239-.31.179-.34.11-.36.038-.36-.036-.35-.108-.33-.177-.29-.238-.24-.29-.18-.331-.12-.36-.05-.375.03-.374.09-.361.16-.332.21-.291.27-.24.32-.178.34-.11.36-.038.36.036.35.109.32.176.25.207.04.031.24.29.18.331.12.36.05.374-.02.375Zm0 0-.02.353M1160.06 853.488l-.22-.256M1162.3 850.485l.39.322.05.029.38.214.46.153.47.057.46-.04.43-.137.4-.227.33-.309.27-.38M1166.32 849.271l-.15.214-.05.066-.24.229-.29.168-.33.101-.34.03-.34-.043-.34-.113-.32-.179-.29-.239-.24-.289-.19-.328-.13-.354-.06-.367.01-.366.07-.351.13-.322.2-.28.25-.229.29-.168.32-.1.13-.012.21-.018.35.043.34.113.32.179.28.239.24.289.19.327.13.354.06.368v.365l-.07.351-.14.322Zm0 0-.38.896M1164.97 846.364l-.86-.126M1172.48 839.071l.4.259.42.181.41.095.39.006.36-.083.3-.17.25-.248M1175.9 837.587l-.18.184-.23.125-.19.043-.08.018-.29-.004-.3-.071-.31-.133-.3-.192-.27-.242-.25-.283-.21-.314-.16-.332-.1-.337-.05-.331.02-.31.07-.278.03-.05.11-.185.18-.183.23-.125.26-.061.29.005.31.071.3.133.3.192.28.242.25.283.2.313.16.332.1.337.05.33-.02.31-.07.278-.13.235Zm0 0-.89 1.524M1173.62 834.587l-1.69.467M1176.11 834.129l.39.271.39.2.37.123.35.039.31-.044.26-.127.19-.205M1179.41 832.648l-.15.151-.19.094-.22.032-.26-.029-.25-.081-.03-.01-.29-.148-.28-.201-.28-.244-.25-.28-.22-.302-.17-.317-.13-.316-.06-.238-.02-.066-.02-.281.04-.247.09-.201.15-.152.19-.093.22-.031.26.028.28.091.29.149.28.2.28.245.25.279.21.302.18.316.13.317.07.304.03.28-.04.246-.09.203Zm0 0-1.04 1.738M1177.06 829.72l-1.87.707M1181.85 828.611l-.1.114-.14.057h-.19l-.23-.059-.25-.114-.26-.166-.28-.21-.26-.248-.26-.275-.23-.292-.19-.297-.16-.291-.11-.274-.06-.247v-.21l.05-.164.1-.113.04-.018.1-.039.19.001.23.058.25.115.26.165.28.211.26.247.26.275.23.291.19.297.16.291.01.035.1.239.06.247v.21l-.05.164Zm0 0-1.14 1.912M1179.28 825.821l-2.06.929M1179.11 830.297l.36.224.34.155.31.078.25.001.2-.078.14-.154M1183.16 825.592l-.05.072-.1.017-.15-.037-.19-.09-.22-.14-.08-.059-.17-.126-.26-.222-.26-.251-.21-.22v-.001l-.05-.049-.24-.279-.21-.276-.19-.264-.14-.241-.1-.209-.05-.17.01-.122.05-.071.11-.017.14.037.19.091.22.14.25.185.26.222.2.19v.001l.06.059.26.27.24.278.21.276.07.089.12.175.14.241.1.209.05.17-.01.122Zm0 0-.82 1.403-.38.636M1180.55 822.854l-.27.139v.002l-.14.068-.34.171-.01.003v.001l-.05.025v.001l-.25.125-.24.124" stroke="#EFC018" stroke-width="5" stroke-linejoin="round"/><path d="m1181.74 827.75.01.002.14-.024.08-.097M1179.67 820.263l-.04.018-.79.457M1183.31 823.676l-.04-.079-.09-.126-.14-.169-.18-.206-.21-.235-.23-.255-.26-.264-.26-.265-.26-.254-.24-.233-.22-.205-.19-.168-.16-.125-.1-.076-.06-.025-.02.01-.33.18-.94.516" stroke="#EFC018" stroke-width="5" stroke-linejoin="round"/><path d="m1183.14 823.602-.15-.125-.19-.167-.22-.205-.23-.216v-.002l-.02-.016M1181.81 822.353l-.25-.265-.24-.255-.21-.235-.18-.206M1180.66 821.018v-.007l.01-.019" stroke="#EFC018" stroke-width="5" stroke-linejoin="round"/><path d="M1183.32 823.677v.001l-.01.027-.06-.025-.11-.076-.15-.124-.19-.168-.22-.205-.23-.216v-.002l-.02-.016-.26-.255-.26-.264-.25-.265-.24-.255-.21-.235-.18-.206-.14-.169-.09-.126-.04-.078M1183.18 823.472l-.13-.169-.18-.206-.21-.235-.24-.255M1181.4 821.592l-.22-.205-.19-.168-.15-.124-.11-.077M1180.65 821.002l-.14-.121-.23-.205-.22-.17-.17-.129-.14-.082-.08-.032h-.01M651.617 399.193l.013-.188.003-.047.019-.301.136-.515.232-.474.316-.411.004-.004.394-.341.455-.252.497-.154.521-.051.523.056.507.158.471.257.416.344.346.418.263.477.168.516.068.537-.035.536-.136.515-.232.475-.32.415-.005.003-.39.337-.455.251-.497.154-.52.051-.524-.056-.506-.158-.471-.257-.288-.238-.047-.038-.081-.067-.346-.418-.262-.477-.168-.516-.069-.537Zm0 0v-.102M652.465 401.142l.069.072M643.13 407.547l.201-.458.154-.212.008-.011.123-.17.003-.005.362-.323.424-.236.468-.139.496-.038.503.066.491.166.461.261.412.345.349.416.271.471.183.508.088.526-.01.522-.108.5-.202.457-.288.398-.004.004-.359.319-.424.235-.468.139-.043.004-.025.002-.427.032-.503-.066-.491-.167-.46-.26-.413-.345-.348-.416-.271-.47-.183-.508-.088-.525.01-.522.108-.5Zm0 0 .035-.088M645.77 411.326l.041.004M635.606 415.912l.243-.365.002-.004.32-.295.045-.024.006-.004.332-.18.43-.115.462-.015.475.083.47.179.448.268.408.347.352.413.282.462.202.493.115.507.022.499-.071.474-.162.429-.245.369-.004.003-.277.255-.008.007-.031.029-.383.208-.43.114-.462.015-.475-.084-.469-.179-.448-.268-.407-.347-.351-.412-.283-.461-.202-.493-.115-.506-.022-.499.07-.474.161-.429Zm0 0 .005-.01M638.609 420.049l.049-.008M629.09 423.852l.192-.326.002-.003.268-.256.333-.17.25-.052.006-.002.128-.026.421.014.442.107.445.197.432.279.401.349.356.408.296.449.226.474.146.48.061.469-.026.438-.11.384-.002.007-.195.329-.003.003-.266.251-.333.171-.384.079-.421-.014-.441-.108-.445-.197-.431-.278-.4-.35-.356-.407-.296-.448-.225-.474-.147-.479-.061-.468.025-.438.112-.392Zm0 0 .056-.097M632.562 427.825l.019-.005M623.984 430.661l.135-.278.001-.003.21-.207.277-.125.332-.037.374.05.378.129.007.002.019.006.416.219.413.291.395.353.36.402.312.434.252.449.182.449.051.208.002.01.052.211.025.395-.057.344-.136.281-.002.002-.209.204M626.79 434.559l-.403-.137M627.496 434.573l-.332.037M623.956 431.399l-.026-.394M624.245 432.276l-.183-.447M620.507 435.908l.147-.151.215-.072.275.01.325.093.362.172.385.243.393.306.387.357.364.394.329.416.281.422.221.412.153.386.08.344.001.105.002.185-.073.225-.002.002-.123.126-.002.002-.021.021-.19.063-.025.008-.201-.008-.075-.003-.324-.093-.362-.172-.384-.243-.393-.306-.386-.356-.364-.394-.328-.415-.281-.422-.221-.411-.107-.269-.002-.003-.045-.112-.08-.346-.004-.29.072-.223.001-.003Zm0 0 1.662-2.762M624.207 439.906l.003-.001M618.538 439.951l.002-.002.079-.089.152-.014.216.064.273.139.053.035.203.133.062.041.353.27.372.322.378.362.015.015.001.002.354.369.346.397.31.392.262.371.203.337.138.29.065.231-.008.164-.001.001-.081.09-.152.013-.216-.064-.273-.14-.318-.209-.214-.164-.138-.106-.372-.322-.377-.36-.149-.156-.001-.001-.219-.229-.346-.396-.31-.391-.184-.261-.001-.001-.076-.109-.204-.337-.138-.29-.066-.232.007-.163v-.002Zm0 0 .362-.608 1.38-2.321M622.285 443.871l.003-.002M618.258 442.404l.014-.028.088.046.157.12.22.187.275.248.319.3.351.339.37.365.02.02.01.011.344.348.365.376.339.36.303.329.079.09.009.01.165.187.195.232.129.169.058.1M621.311 445.637l-.319-.299M621.806 446.074l-.22-.188M622.049 446.24l-.088-.048M620.642 444.999l-.369-.365-.373-.377-.364-.376-.339-.359-.302-.329-.254-.287M622.211 446.155l.012.011.343.286.302.235.214.148M704.223 354.957l-.117.428-.21.381-.024.026-.273.292-.371.243-.432.159-.475.07-.502-.024-.507-.115-.495-.203-.462-.283-.413-.352-.346-.407-.267-.446-.178-.469-.081-.474.018-.459.117-.429.19-.341.021-.039.297-.317.372-.243.432-.159.476-.069.501.024.507.116.494.203.461.283.412.351.346.406.267.446.178.469.081.473-.017.459ZM700.082 351.954l-1.746.882" stroke="#EFC018" stroke-width="5" stroke-linejoin="round"/><path d="M618.273 442.376v.001l-.015.027v.001l.059.1.129.17.195.233.254.286.302.329.34.36.363.375.373.378.37.365.35.338.319.299.275.248.221.188.157.12.088.047.16-.086.001-.001.376-.204" stroke="#EFC018" stroke-width="5" stroke-linejoin="round"/><path d="m618.273 442.377.087.047.157.119.22.188.275.248.319.299.352.339.37.366.023.023.011.011.34.344.364.376.34.36.302.33.074.083.01.011.17.192.195.232.129.17.057.099v.001l-.014.024-.001.002M622.367 443.782v.002l-.078.086-.003.004-.153.014-.216-.065-.273-.139-.318-.209-.209-.16-.143-.11-.372-.322-.377-.361-.149-.155-.001-.001-.219-.229-.346-.396-.31-.391-.184-.262-.001-.001-.076-.108-.204-.337-.138-.29-.066-.232.007-.165.001-.001.08-.09.152-.014M621.398 441.998l.31.391.262.372.203.337M622.285 443.873l.61-.308M618.988 439.913l.273.139.057.037.198.13.001.001.062.04.353.271.372.322.378.362.015.015.001.001.354.37M624.424 439.244l.001.101.002.189-.073.223-.001.002-.121.125-.002.002-.019.019-.005.005-.188.062-.028.009-.2-.008-.075-.003-.325-.093-.361-.172-.385-.243-.393-.306-.385-.356-.364-.394-.329-.415-.28-.421-.221-.412-.109-.273-.001-.003-.044-.109-.081-.345-.003-.29.072-.226.002-.001.145-.15.216-.072.275.011M623.359 437.266l.329.416" stroke="#EFC018" stroke-width="5" stroke-linejoin="round"/><path d="m624.203 439.91.032-.014.002-.002.816-.372M621.828 435.964l.386.243.393.306M625.626 427.858l-1.508 2.527-.135.281-.057.344.026.395.106.429.182.448.252.449.312.433.359.401.394.352.412.291.416.219.403.137.375.052.332-.038" stroke="#EFC018" stroke-width="5" stroke-linejoin="round"/><path d="m624.117 430.386.003-.003.207-.204.277-.125.332-.038.375.051.384.131.007.002.012.004.416.218.413.292.395.353.36.401.312.434.252.45.182.448.049.198.002.01.055.222.024.394-.057.344-.134.278-.002.003-.211.206-.21.095-.066.029M633.466 426.686l-.108.377-.003.007-.002.007-.192.326-.002.003-.269.255-.31.159-.023.011-.384.08-.421-.015-.441-.108-.445-.197-.431-.278-.4-.349-.356-.407-.296-.449-.226-.473-.146-.48-.062-.468.026-.438.112-.391.061-.104.133-.226.003-.003.265-.252M632.762 424.376l.296.45.226.473M630.266 423.022l.421.014M630.299 421.745l-1.213 2.113M631.129 423.145l.445.196.432.279M637.198 419.808l-.447-.268-.407-.346-.352-.412-.282-.462-.202-.493-.115-.506-.022-.499.07-.473.161-.43.011-.017.234-.352.004-.003.316-.292.051-.027.005-.003.326-.178.431-.114.461-.016.476.083.47.18.448.268.407.347.352.412.283.462.202.494.115.506.022.5-.071.473-.162.43-.243.364-.002.004-.274.251-.007.007-.04.036-.382.208-.375.099-.056.015-.461.015-.475-.083-.47-.18ZM636.506 414.172l-.904 1.747M647.518 410.595l-.004.004-.362.323-.424.235-.468.139-.017.002-.026.002-.404.03-.048.004-.503-.066-.491-.167-.46-.26-.413-.345-.348-.416-.271-.47-.183-.508-.088-.525.01-.522.107-.5.043-.096.159-.362.161-.223.008-.011.119-.164.004-.003M647.852 407.688l.183.509.088.525-.01.522-.109.5M644.398 406.14l.468-.139.495-.038.503.066.492.166.461.261.412.345M643.593 406.373l-.472 1.182M656.244 401.162l-.003.005-.395.34-.455.252-.497.154-.52.05-.523-.055-.507-.159-.471-.256-.241-.199-.047-.039-.051-.042-.077-.064-.346-.418-.262-.476-.168-.517-.068-.536.007-.111.008-.125.003-.047.016-.254.136-.515.232-.474.32-.415.004-.004.391-.336M653.68 396.514l.521-.05.523.055.507.159.471.256.416.344.346.418.263.477.168.517.068.536-.035.537-.136.515M651.609 398.824l.003.378M662.64 392.056l-.477-.255-.418-.344-.344-.419-.257-.478-.159-.519-.055-.54.05-.54.154-.519.252-.478.34-.421.415-.345.474-.256.515-.159.537-.054.536.054.517.156.477.255.419.343.344.419.256.479.159.519.056.54-.05.54-.154.519-.252.48-.34.419-.416.345-.474.256-.515.158-.536.055-.537-.052-.517-.158ZM672.358 382.342l-.479-.257-.42-.345-.343-.418-.254-.476-.155-.515-.051-.535.057-.534.161-.512.259-.472.348-.412.423-.337.482-.248.522-.152.543-.048.541.058.521.16.479.258.419.344.343.418.254.476.155.515.051.535-.056.534-.161.512-.26.471-.348.413-.423.337-.481.249-.522.151-.543.048-.542-.057-.52-.161ZM685.179 368.687l.056.068.287.347.256.47.157.505.053.521-.053.518-.156.495-.255.451-.343.392-.418.317-.477.23-.518.134-.538.032-.539-.069-.518-.17-.477-.263-.418-.346-.344-.416-.255-.47-.157-.505-.053-.522.053-.518.157-.494.255-.452.343-.392.418-.316.477-.23.518-.133.363-.022.175-.011.538.07.518.17.477.263.418.346ZM683.228 367.838l-.369-.014M695.435 362.058l-.033.415-.007.078-.141.466-.238.421-.326.36-.401.285-.46.2-.502.106-.524.008-.527-.089-.509-.184-.472-.272-.416-.348-.345-.412-.259-.46-.165-.49-.063-.501.04-.493.142-.466.238-.421.326-.359.194-.138.207-.147.46-.199.502-.106.525-.008.526.09.509.184.471.271.416.348.344.412.259.459.165.49.064.5ZM691.654 359.417l-1.177.453M712.057 348.956l-.172.331-.257.267-.323.188-.009.005-.393.111-.44.025-.47-.061-.481-.148-.475-.226-.449-.297-.407-.355-.35-.401-.277-.43-.195-.444-.106-.44-.011-.42.03-.143.052-.239.173-.331.258-.267.332-.191.393-.111.44-.025.47.063.481.147.474.226.449.296.406.355.349.4.277.43.195.443.106.44.012.419-.082.383ZM708.087 345.489l-2.114 1.189M718.865 343.924l-.126.276-.209.209-.282.136-.346.056-.397-.025-.185-.046-.245-.06-.45-.183-.45-.252-.434-.311-.401-.36-.352-.394-.29-.412-.217-.415-.016-.048-.12-.355-.048-.373.04-.331.127-.275.209-.209.283-.135.347-.055.396.026.431.106.448.183.45.251.433.312.4.359.352.393.29.411.217.415.136.402.049.373-.04.331ZM714.671 340.553l-2.53 1.48M724.247 340.65l-.153.147-.227.073h-.007l-.284-.003-.346-.08-.387-.153-.412-.221-.423-.28-.416-.328-.393-.364-.357-.386-.304-.393-.242-.384-.17-.361-.091-.324-.008-.275.073-.215.154-.146.227-.073.293.004.346.08.143.057.243.097.412.221.422.28.415.328.393.363.355.385.305.392.242.384.17.361.091.324v.006l.004.126.001.003.004.14-.07.207-.003.008Zm0 0-.274.592-.002.003M720.255 336.956l-2.767 1.633M728.257 338.726l-.092.082-.166.009-.232-.065-.291-.137-.338-.202-.372-.261-.392-.309-.397-.346-.386-.369-.007-.007-.001-.002-.352-.368-.321-.372-.269-.352-.049-.075-.001-.001-.158-.243-.068-.135-.069-.137-.062-.217.016-.151.093-.082.167-.008.233.066.291.137.338.203.099.069.001.001.272.19.391.309.396.345.208.2.002.001.175.167.359.377.264.306.057.066.269.351.207.318.138.273.062.216-.015.153Zm0 0-.241.469-.001.003" stroke="#EFC018" stroke-width="5" stroke-linejoin="round"/><path d="m724.345 334.985-.502.294-2.433 1.419M730.404 338.95l.2-.363.001-.001.065-.12-.045-.089-.119-.158-.186-.221-.246-.275-.298-.319-.337-.351-.364-.368-.377-.373-.376-.362-.359-.338-.33-.301-.287-.252-.233-.194-.171-.128-.103-.057-.029.016" stroke="#EFC018" stroke-width="5" stroke-linejoin="round"/><path d="m730.669 338.465-.002.001-.026.016-.001-.001-.1-.056-.171-.127-.083-.069-.008-.006-.142-.119-.287-.252-.33-.301-.36-.338-.376-.363-.378-.373-.277-.282-.007-.006-.08-.082-.338-.351-.298-.319-.247-.275-.186-.221-.117-.158-.046-.088" stroke="#EFC018" stroke-width="5" stroke-linejoin="round"/><path d="m730.641 338.482-.102-.056-.17-.128-.079-.064-.007-.007-.148-.122-.287-.252-.329-.301-.36-.339-.376-.363-.378-.373-.28-.283-.007-.007-.078-.079-.338-.351-.298-.32-.246-.275-.186-.221-.118-.157-.045-.088v-.001l.029-.016.001.001.101.057.171.128M727.344 335.058l.287.253.329.3.36.339.375.362.377.372.364.369.338.35M730.504 338.218l.118.158M726.809 334.694l-1.336.758M731.282 339.44l-.136-.193-.235-.3-.287-.341-.019-.021M665.676 415.925l.007-.113.004-.051.027-.416.148-.558.252-.514.344-.444.004-.005.428-.368.494-.273.54-.166.565-.055.568.061.55.172.511.279.451.373.375.453.285.517.182.56.073.581-.038.581-.148.558-.253.513-.347.45-.005.004-.424.364-.494.272-.54.166-.564.054-.569-.061-.549-.172-.511-.278-.313-.259-.051-.042-.087-.072-.375-.453-.284-.517-.182-.559-.074-.582Zm0 0-.004-.067M666.59 418.036l.079.081M656.446 424.954l.22-.495.129-.177.008-.012.172-.236.003-.005.395-.348.46-.255.509-.15.538-.039.546.072.533.181.5.283.448.374.378.451.293.511.198.55.095.569-.012.565-.119.541-.22.494-.313.43-.004.004-.391.344-.46.254-.507.149-.002.001-.024.001-.514.038-.545-.073-.533-.181-.5-.283-.447-.374-.377-.45-.294-.51-.198-.55-.095-.568.012-.565.118-.541Zm0 0 .023-.061M659.309 429.05l.05.004M648.258 433.977l.264-.393.003-.005.349-.317.02-.011.006-.003.39-.21.468-.122.501-.015.516.091.511.196.486.291.442.377.381.446.306.501.219.534.123.547.023.54-.079.512-.176.463-.268.398-.004.003-.277.251-.008.008-.06.054-.416.223-.468.122-.501.015-.516-.092-.51-.196-.485-.291-.442-.376-.381-.446-.305-.5-.219-.533-.123-.547-.024-.54.078-.511.176-.464Zm0 0 .005-.009M651.512 438.458l.063-.011M641.153 442.52l.209-.351.003-.004.292-.274.363-.182.253-.051.006-.002.159-.032.457.018.48.118.484.215.468.303.435.379.385.441.321.486.244.513.157.518.065.506-.03.472-.113.384-.002.008-.009.029-.212.354-.004.003-.29.27-.362.182-.418.084-.458-.018-.479-.119-.483-.215-.158-.102-.309-.2-.138-.12-.297-.259-.385-.441-.32-.485-.244-.512-.157-.518-.066-.505.03-.472.123-.421Zm0 0 .023-.042M644.914 446.823l.021-.006M635.72 449.518l.229-.221.302-.132.361-.038.408.058.399.137.007.002.032.011.452.239.448.316.428.383.39.435.337.469.159.283.113.203.163.401.033.082.047.191.002.011.064.261.025.425-.064.369-.149.301-.003.002-.228.218-.301.131-.362.037-.408-.058-.437-.151-.429-.226-.023-.012-.447-.316-.22-.197-.207-.186-.389-.433-.337-.469-.27-.482-.002-.002-.196-.484-.049-.199-.065-.263-.025-.425.063-.37.147-.298.002-.003Zm0 0 1.615-2.739M639.375 454.056l.107-.042M631.753 455.417l.161-.16.236-.075.3.015.353.104.261.124.132.064.419.265.332.26.094.073.419.387.395.426.355.45.303.455.238.444.165.414.021.094.063.276.002.311-.082.239-.002.002-.126.124-.002.002-.032.032-.236.073-.053-.002-.247-.013-.302-.089-.052-.015-.393-.189-.417-.265-.426-.332-.418-.386-.394-.426-.355-.449-.302-.454-.05-.093-.189-.35-.15-.377-.001-.003-.014-.035-.085-.369v-.085l-.002-.226.08-.238.001-.003Zm0 0 1.245-2.085.545-.914M635.758 459.743l.003-.002M629.565 459.696l.002-.002.088-.092.166-.011.236.072.297.154.178.117h.001l.168.111.382.295.404.35.261.249.001.001.148.142.4.418.374.428.227.286.108.136.282.4.218.362.009.019.137.291.069.246-.011.174-.001.001-.089.092-.167.011-.237-.074-.297-.153-.346-.229-.382-.295-.403-.35-.409-.39-.293-.306-.001-.001-.105-.11-.374-.428-.334-.421-.255-.361v-.001l-.027-.037-.218-.362-.147-.311-.07-.246.01-.173v-.002Zm0 0 .766-1.294.354-.599.761-1.285M633.621 463.935l.003-.001M629.199 462.244l.007-.01.011-.016.097.055.171.133.24.206.3.271.346.326.381.368.401.396.286.29.018.018.1.101.394.406.366.388.032.034.019.02.275.3.273.306.209.248.137.179.06.104-.019.024-.098-.055-.172-.133-.24-.207-.299-.271-.347-.326-.38-.367-.4-.396-.403-.408-.393-.405-.366-.387-.326-.353-.272-.307-.21-.248-.137-.18-.061-.103v-.001Zm0 0 .815-1.416M633.305 466.392l.002-.001M633.512 466.281l.301.251.326.251.269.184.204.111.13.034v-.001l.005-.002 1.05-.594M722.609 367.88l-.124.466-.226.413-.049.054-.27.293-.4.265-.466.175-.513.076-.542-.024-.549-.124-.535-.219-.5-.306-.447-.381-.375-.441-.29-.485-.194-.509-.09-.515.018-.499.125-.466.219-.4.007-.013.32-.346.4-.265.466-.174.514-.076.541.025.548.124.535.219.499.306.446.381.375.441.291.483.193.509.09.514-.017.499Zm0 0-.16.984M718.132 364.629l-1.913.942M634.742 467.113l1.053-.596" stroke="#EFC018" stroke-width="5" stroke-linejoin="round"/><path d="m632.359 465.223.285.309.272.307.209.247.137.179.06.103v.001l-.017.022-.002.003-.097-.056-.173-.133-.24-.206-.299-.271-.346-.326-.38-.368-.4-.395-.404-.408-.392-.405-.366-.387-.326-.354-.273-.306-.209-.248-.138-.18-.061-.105.018-.025.097.054.172.133.24.206.299.271.347.326M631.953 464.79l.367.387M633.305 466.394l.206-.112.002-.001.537-.292 1.018-.553M631.156 463.976l.293.296M633.71 463.842v.002l-.086.089-.005.004-.166.011-.237-.074-.297-.154-.346-.228-.382-.295-.403-.35-.409-.39-.293-.307-.001-.001-.105-.109-.374-.428-.334-.421-.255-.361-.001-.002-.026-.036-.218-.362-.148-.311-.069-.247.01-.174.001-.001M630.699 460.047l.382.295.404.35.26.249.002.001.148.142.4.418.374.428.248.312.087.11.281.4.219.362M629.82 459.594l.236.072.297.154.177.116.001.001" stroke="#EFC018" stroke-width="5" stroke-linejoin="round"/><path d="m633.617 463.937.328-.167.365-.185.731-.372.001-.001.172-.088h.002l.182-.093.001-.001M635.92 459.585l-.001.003-.124.122-.002.002-.03.029-.006.006-.236.074-.048-.003-.252-.013-.302-.089-.051-.015-.393-.188-.418-.265-.426-.333-.417-.386-.395-.426-.355-.448-.302-.455-.051-.095-.187-.348-.152-.38-.001-.003-.012-.031-.085-.37-.001-.088-.001-.223.081-.24.001-.002M635.512 457.811l.239.443.164.415.02.088.065.282.001.31M633.542 452.418l-.545.914-1.247 2.09M631.91 455.261l.235-.073.3.014.353.103.256.122.138.066" stroke="#EFC018" stroke-width="5" stroke-linejoin="round"/><path d="m635.754 459.748.047-.021.002-.001 1.178-.545M639.51 451.184l.157.281.115.204.162.4.034.084.044.18.003.011.066.272.025.424-.064.37-.148.297-.002.004-.23.22-.19.083-.112.048-.361.037-.408-.058-.438-.151-.43-.227-.021-.011-.447-.317-.222-.198-.205-.184-.389-.434-.337-.468-.272-.484v-.001l-.197-.483-.049-.202-.064-.26-.026-.425.063-.37.149-.301.003-.003.227-.218.301-.132.362-.038.407.057.407.14.008.003.024.008.315.166.137.072M637.339 446.771l-1.624 2.754M639.371 454.061l2.908-1.157M645.789 445.976l-.002.008-.011.037-.211.35-.002.004-.293.273-.336.169-.027.013-.418.084-.457-.018-.48-.119-.482-.215-.16-.103-.308-.199-.139-.122-.295-.257-.385-.441-.321-.485-.243-.512-.158-.518-.065-.505.029-.472.123-.422.029-.048.183-.306.003-.003.29-.271M642.45 440.218l-1.302 2.309M644.906 446.83l1.888-.574M642.891 441.649l.48.118M653.002 437.408l-.265.393-.003.005-.272.246-.008.008-.069.062-.416.223-.398.103-.07.019-.501.015-.516-.092-.51-.196-.485-.291-.442-.376-.38-.446-.306-.5-.219-.533-.123-.547-.023-.54.077-.511.176-.464.012-.017.256-.381.003-.003.345-.314M650.77 433l.51.196.486.291.442.377.381.446.306.501.219.534M653.236 435.893l.023.54-.079.512M649.281 433.046l.468-.122.501-.015M649.215 432.069l-.965 1.916M651.504 438.466l.928-.151M661.206 428.262l-.003.005-.394.348-.462.254-.488.143-.018.006h-.002l-.48.035-.057.004-.547-.072-.533-.181-.5-.283-.446-.374-.378-.451-.292-.51-.2-.549-.094-.569.011-.565.119-.54.03-.07.189-.425.138-.189.008-.012.167-.229.005-.004M661.769 425.668l.095.568-.012.566-.118.54M657.828 423.435l.509-.15.538-.04.546.073M656.934 423.658l-.493 1.305M659.301 429.058l1.496.133M660.453 423.782l.447.374.378.451M670.694 418.064l-.004.005-.429.368-.494.272-.539.166-.565.054-.568-.06-.55-.173-.511-.278-.262-.217-.051-.042-.05-.042-.088-.072-.375-.453-.284-.517-.182-.559-.074-.582.005-.076.006-.088.003-.051.024-.365.148-.558.253-.514.347-.449.005-.004.424-.364M666.582 418.045l.298.307M671.219 414.826l.182.56.074.581-.038.581M665.645 415.501l.023.433M667.914 413.027l.565-.054.568.06.551.172.51.279M677.639 408.202l-.517-.277-.454-.373-.373-.454-.278-.519-.172-.562-.06-.586.054-.585.126-.425.041-.138.274-.52.368-.455.451-.374.514-.278.559-.171.582-.059.582.057.327.1.234.071.517.276.454.373.373.454.278.519.173.563.06.585-.055.586-.167.563-.273.519-.369.455-.451.374-.514.278-.559.171-.582.059-.582-.057-.561-.17ZM688.178 397.666l-.52-.279-.454-.374-.373-.453-.276-.516-.141-.47-.027-.089-.055-.581.061-.579.174-.556.281-.512.377-.447.458-.366.523-.27.565-.164.065-.006.523-.046.588.062.564.173.519.279.454.374.373.453.275.516.169.559.055.58-.061.58-.174.556-.281.511-.377.447-.458.366-.522.271-.566.164-.588.053-.587-.062-.564-.174ZM702.056 382.834l.06.073.312.378.277.509.171.548.059.567-.057.562-.169.537-.275.49-.37.426-.453.345-.516.25-.56.146-.583.036-.584-.075-.561-.184-.517-.285-.454-.375-.372-.451-.277-.509-.171-.549-.032-.313-.001-.006-.026-.247.049-.488.008-.075.169-.537.018-.03.082-.147.007-.013.169-.3.371-.426.452-.344.517-.25.56-.146.485-.029.098-.006.583.075.561.184.517.284.453.375Zm0 0 .318.287M699.944 381.916l-.424-.036M713.139 375.617l-.039.5-.003.035-.152.507-.256.457-.351.392-.433.311-.497.217-.543.117-.567.01-.57-.096-.552-.199-.511-.294-.451-.378-.373-.447-.282-.499-.18-.531-.07-.545.043-.535.152-.506.257-.458.352-.391.261-.188.172-.123.497-.217.543-.115.567-.01.57.096.55.199.511.294.45.377.373.447.282.498.18.531.07.544Zm0 0 .139 1.479M709.041 372.756l-1.299.475M731.036 361.332l-.184.361-.276.291-.356.211-.019.006-.404.116-.474.029-.507-.066-.52-.158-.513-.244-.486-.32-.441-.385-.379-.435-.301-.467-.213-.482-.116-.478-.015-.456.036-.175.05-.241.185-.361.277-.291.356-.21.424-.121.474-.028.506.066.52.158.512.244.485.32.44.385.292.335.086.099.234.361.068.105.213.481.116.478.016.456-.086.416Zm0 0-.626 2.038M726.738 357.576l-2.308 1.276M738.326 355.828l-.133.3-.222.229-.302.149-.372.063-.427-.026-.237-.057-.227-.056-.02-.008-.464-.188-.133-.074-.354-.198-.469-.337-.433-.389-.382-.427-.315-.447-.237-.451-.021-.063-.128-.374-.055-.407.04-.36.135-.3.222-.228.304-.148.372-.063.425.027.326.079.138.034.484.197.075.041.41.231.468.336.435.389.227.254.153.172.315.446.053.101.184.349.149.437.057.406-.041.361Zm0 0-1.159 2.877M733.79 352.179l-2.755 1.594M744.063 352.224l-.004.003-.158.159-.241.081-.313-.001-.063-.014-.003-.001-.305-.069-.415-.165-.444-.237-.456-.302-.449-.355-.426-.394-.386-.418-.027-.034-.305-.392-.264-.417-.036-.077-.15-.316-.101-.353-.013-.299.077-.235.162-.161.242-.081.313.002.007.002.364.083.075.03.341.135.43.231.013.007.455.302.448.354.426.393.385.418.331.426.264.415.179.378.001.002.006.012.102.353.001.028v.004l.012.269-.075.234Zm0 0-.002.004-.447.954-.002.004M739.741 348.228l-1.983 1.163-1.024.6M748.303 350.081l-.096.092-.16.01-.015.001-.248-.068-.311-.145-.363-.218-.4-.281-.422-.333-.428-.374-.2-.19-.218-.208-.165-.174-.002-.001-.223-.234-.349-.404-.293-.382-.12-.183-.001-.001-.106-.162-.152-.297-.07-.236.013-.167.096-.09.176-.011.249.069.311.146.363.218.025.018.374.263.422.333.427.372.088.085.002.001.327.313.389.408.349.402.293.382.227.346.152.297.071.236-.012.167Zm0 0-.106.204-.173.337-.002.003-.412.798v.001l-.076.147-.001.001-.119.232" stroke="#EFC018" stroke-width="5" stroke-linejoin="round"/><path d="m744.07 346.036-1.168.679-.692.402-1.323.77M750.969 352.155l.587-1.024v-.001M749.876 351.419l.55-.998v-.001l.285-.517.001-.002.089-.161-.054-.099-.132-.173-.204-.24-.27-.3-.324-.346-.366-.38-.394-.399-.408-.403-.405-.391-.386-.365-.354-.324-.308-.271-.249-.207-.181-.136-.106-.06" stroke="#EFC018" stroke-width="5" stroke-linejoin="round"/><path d="m750.805 349.74-.003.002-.023.019-.002-.001-.104-.058-.18-.136-.249-.207-.064-.056-.011-.01-.232-.205-.354-.324-.388-.365-.405-.392-.409-.404-.206-.209-.01-.01-.179-.181-.367-.38-.324-.347-.27-.299-.204-.241-.131-.172-.053-.098.027-.02" stroke="#EFC018" stroke-width="5" stroke-linejoin="round"/><path d="m750.775 349.76-.105-.058-.181-.136-.248-.207-.058-.051-.011-.01-.239-.21-.354-.324-.387-.365-.406-.393-.408-.403-.211-.213-.01-.01-.174-.177-.367-.381-.325-.346-.269-.3-.205-.24-.131-.173-.053-.098.019-.013.009-.006h.001l.105.059.181.136M748.648 347.399l.407.403.395.399.366.38.324.346.269.299M746.659 345.646l-1.468.831M750.746 349.641l.053.099M747.504 346.319l.354.324M751.559 351.129l-.035-.127-.112-.201-.186-.267-.251-.324-.26-.31M1024.12 759.449l6.32 7.753 6.32 7.753 6.31 7.753 3.15 3.867 6.32 7.753 6.32 7.753 6.31 7.753 6.32 7.753 6.31 7.754 6.32 7.753 2.09 2.561 7.12 7.018 7.12 7.018 7.13 7.018 3.88 3.821.34.341 7.13 7.018 1.37 1.35.37.367 1.52 1.494.63.629 1.01.99.15.153.03.024 6.39 6.297v.003l.5.484v.001l2.7 2.66v.003l.01.007.03.037.01.002 2.1 2.074.35.348 7.13 7.018.2.198.37.369 4.65 4.572 1.85 1.83 1.3 1.277 1.5 1.461 1.93 1.882 7.16 6.979 2.83 2.753.87.849.04.045 7.17 6.979 7.14 6.961 7.16 6.979 7.12 6.934 7.16 6.979 7.09 6.907 7.14-7.004.64-.634-.75-2.44-6.79-7.334-6.8-7.334-5.72-6.168-6.76-7.367-6.76-7.367-4.53-4.936-1-1.089-.16-.173-2.42-2.62-.98-1.061-4.22-4.572-2.57-2.781-.13-.133-1.28-1.39-5.11-5.537-1.23-1.332-1.05-1.137-2.07-2.389-.3-.338-6.55-7.553-1.38-1.583-.27-.319-.81-.934-.2-.227-2.48-2.859-.65-.747-4.42-5.099-1.03-1.584-.59-.903-1.71-2.616-.3-.47-.09-.134-.27-.415-5.46-8.379-1.63-2.507-.44-.414-.32-.309-7.22-6.914-7.23-6.914-7.22-6.914-7.23-6.914-7.22-6.914-7.23-6.915-7.22-6.914-7.23-6.914-7.22-6.914-7.23-6.914-7.22-6.914-7.23-6.914-7.22-6.914-1.78-1.701-7.1 7.042-.4.395Z" stroke="#EFC018" stroke-width="5" stroke-linejoin="round"/><path d="m1031.62 752.012 6.35 7.726 6.35 7.726 6.35 7.726 3.16 3.849 6.35 7.726 6.35 7.726 6.35 7.727 6.35 7.726 6.35 7.726 6.35 7.726 2.09 2.544" stroke="#EFC018" stroke-width="5" stroke-linejoin="round"/><path d="m1086.21 835.654 7.11-7.029.7-.686 7.12 7.02 7.12 7.02 7.12 7.02 3.46 3.409.32.321 7.13 7.02 2.62 2.584 3.46 3.414 6.15 6.059v.003l3.13 3.086v.004l7.13 7.02 2.86 2.826.32.314 7.12 7.02.32.316 2.48 2.42 1.44 1.402.75.727 1.73 1.69 6.41 6.258 1.52 1.482 1.59 1.552 7.16 6.983 5.56 5.416 7.15 6.983 7.12 6.94 7.16 6.983 7.08 6.914M1189.78 893.666l1.57 1.447 6.86-6.752-.58-1.901-1.28-1.303M1558.21 456.546l9.69 2.462 6.56 1.664 3.79.738 9.9 1.461 9.89 1.462 1.02.15 9.99.466 9.98.467 1.05.048 4.09-.081 9.99-.525 9.98-.525 1.59-.084 9.89-1.497 9.88-1.497 1.58-.238 9.69-2.456 9.7-2.455 1.55-.393 4.3-1.494 9.41-3.387 9.41-3.387 1.87-.673 9.03-4.282 9.04-4.282 1.77-.837 8.57-5.139 8.58-5.139 1.64-.982 8.04-5.953 8.03-5.954 1.49-1.106 3.99-3.529 7.41-6.713 7.41-6.713 1.49-1.343 6.71-7.414 6.71-7.414 1.26-1.396 5.94-8.047 5.93-8.047 1.05-1.418 5.09-8.607 5.1-8.606.83-1.411 2.75-5.36 4.18-9.082 4.19-9.082.61-1.334 3.22-9.469 3.21-9.47.42-1.222 2.19-9.756 2.2-9.756.25-1.102 1.15-6.261 1.13-9.937 1.12-9.936.08-.656.02-10 .02-10v-.478l-.19-6.51-1.12-9.937-1.1-9.688-1.26-6.737-2.29-9.735-2.01-8.561-2.05-6.603-3.5-9.368-2.67-7.142-2.53-6.119-3.28-6.546-.51-.925-1.6-2.944-4.79-8.781-.23-.434-3.25-5.597-3.81-5.824-4.32-5.992-4.79-6.097-4.96-5.996M1760.97 61.05l-6.39-4.25-6.23-3.783-6.02-3.275-5.74-2.738-9.06-4.24-5.03-2.356-6.64-2.673-.61-.193-2.73-.866-2.82-.893-9.55-2.974-7.85-2.449-6.56-1.418-9.83-1.814-9.22-1.7-6.59-.606-9.97-.7-9.98-.7-.26-.02-9.99.374-10 .373-.44.017-6.72.475-9.9 1.408-9.9 1.41-1.02.144-9.71 2.412-9.7 2.411-1.13.281-6.07 1.842-9.41 3.371-9.42 3.371-1.36.49-9.04 4.284-9.03 4.285-1.37.65-8.57 5.151-8.57 5.152-1.35.812-4.78 3.284-8.03 5.966-8.02 5.965-1.24.921-7.41 6.718-7.41 6.718-1.14 1.032-6.71 7.408-6.72 7.408-1.03 1.132-5.96 8.027-5.96 8.027-.91 1.218-2.78 4.201-5.15 8.573-5.15 8.572-.63 1.047-4.28 9.038-4.28 9.038-.5 1.061-3.36 9.418-3.36 9.418-.39 1.07-2.41 9.705-2.41 9.705-.26 1.077-.88 4.19-1.41 9.898-1.42 9.899-.1.663-.41 9.991-.4 9.992-.03.653.62 9.98.62 9.981.04.66.3 3.746 1.66 9.862 1.67 10.007 1.09 3.913 2.68 9.634 1.89 6.808" stroke="#EFC018" stroke-width="5" stroke-linejoin="round"/><path d="m1410.04 334.247 1.53-7.524 3-3.886.56-.712.42-.553 3.29-1.406 2.94-1.255 8.19-.128 5.07 1.23 4.79 1.163 8.9 4.56 6.6 3.383 8.53 5.222 4.86 2.975 7.58 6.525 4.96 4.272 7.44 6.679 4.97 4.467 7.23 6.915 7.22 6.916 2.17 2.076 6.96 7.18 5.9 6.086 3.08 3.342 6.79 7.347 1.2 1.305 6.19 7.857 3.45 4.376 4.97 8.674 3.27 5.7 3.52 9.362.76 2.027.52 8.25-.65 1.953-1.49 4.472-.98.894-1.08.977-2.7 2.459-7.28 2.006-9.62-.476-7.39-1.708-8.92-4.514-1.87-.947-8.47-5.314-6.77-4.242-8.09-5.873-6.2-4.497-7.66-6.424-7.66-6.425-.43-.357-7.29-6.849-6.37-5.99-6.79-7.341-6.79-7.34-.4-.433-6.34-7.732-5.09-6.208-5.72-8.206-4.45-6.387-5.04-8.637-2.73-4.689-1.96-6.224-.63-8.373Zm0 0 1.67-9.86 1.12-6.648 1.16-6.868M1542.72 459.434l9.83-1.832 5.66-1.055 8.71-1.622M1583.47 430.475l-3.39-9.409-1.38-3.834-4.91-8.715-4.5-8-6.15-7.883-4.95-6.335-6.77-7.361-6.04-6.57-6.95-7.186-6.96-7.185-.99-1.025-7.23-6.907-7.23-6.908-4.83-4.611-7.46-6.658-6.97-6.22-7.6-6.495-6.97-5.953-8.57-5.158-7-4.217-8.95-4.465-9.07-4.528M1832.36 141.669l-.49-9.988-.17-3.64-1.25-5.33-2.31-6.218-2.67-5.727-3.64-6.552-4.31-6.74-4.37-5.913-5.45-6.63-5.18-5.628-6.48-6.382-5.95-5.29-7.03-5.656-6.7-4.921-6.99-4.588-7.42-4.382-6.52-3.31-4.8-1.945-6.54-2.307-6.55-1.836-6.21-1.262-5.81-.694-5.36-.134-7.64.08M299.828 974.568l3.462 1.017 2.914.587 9.889 1.716 9.98.63.112.007 3.189.191 9.991-.416.471-.019 2.906-.391 9.895-1.442.717-.104 9.701-2.427.737-.184 9.412-3.38.752-.271 2.67-1.144 9.032-4.292.815-.388 8.57-5.153.781-.469 8.026-5.965.738-.548 7.407-6.718.685-.621 1.974-1.885 6.718-7.408.586-.647 5.961-8.028.508-.684 5.144-8.575.427-.712 4.275-9.041.347-.733 1.017-2.272 3.351-9.422.216-.608 2.388-9.711.146-.597 1.392-9.903.082-.587.227-2.345.255-6.953.113-3.084.007-.174.005-.135-.677-9.977-.023-.336M445.831 843.057l-.001-.005-.748-4.264-2.247-7.757-.468-1.616M428.433 801.417l-2.672-3.568-1.042-1.391" stroke="#EFC018" stroke-width="5" stroke-linejoin="round"/><path d="m425.76 797.849-2.028-2.743-1.278-1.54-1.217-1.474-1.441-1.58-1.404-1.541-1.55-1.561-1.537-1.548-1.6-1.485-1.614-1.498-1.589-1.352-1.631-1.39-1.519-1.17-1.587-1.23-6.527-4.539M370.006 759.819l-6.807-1.793-2.398-.628-9.883-1.522-.267-.042-2.341-.246-9.988-.504-.597-.031-9.987.503-.617.032-2.378.283-9.888 1.494-.851.128-9.693 2.457-.843.213-9.407 3.393-.827.298-2.286 1.071-9.03 4.296-.922.439-8.571 5.15-.863.519-8.029 5.96-.793.589-7.41 6.716-.716.649-1.865 2.016-6.715 7.41-.655.724-5.951 8.036-.551.745-5.119 8.59-.449.753-4.23 9.062-.351.751-1.084 2.684-3.285 9.446-.227.652-2.288 9.735-.143.607-1.256 9.921-.072.563-.305 2.892-.183 9.998-.006.302.908 9.959.023.244.27 2.849 2.006 9.668.102.423M223.186 897.272l-1.679 9.858-.23 1.345.182 1.861 1.245 2.988 3.63 5.929 4.051 5.308 4.709 6.06 5.045 6.03 6.822 7.313.783.838 6.717 6.404 6.29 5.579 6.293 5.4 7.181 5.816 5.815 4.116 4.059 2.535 3.044 1.515 1.916.399 9.832-1.826.934-.172" stroke="#EFC018" stroke-width="5" stroke-linejoin="round"/><path d="m288.266 966.863-3.593-2.563-7.755-6.313-.517-.421-7.263-6.25-7.268-6.458-7.236-6.902-.529-.505-6.825-7.308-1.972-2.112-5.839-6.963-5.449-6.991-.716-.932-3.974-5.177-4.205-6.805M369.234 759.858l.77-.039 9.987-.501 4.277-.215.743.012.471.129.808.439.756.57.981.765 1.19.946 1.39 1.116 2.285 1.789 2.229 1.776 2.313 1.714 2.301 1.761 2.704 2.146 3.229 2.69 2.326 2.017 2.307 2.044 2.563 2.33 3.367 3.189 2.228 2.196 2.206 2.218 2.288 2.353 3.145 3.374 2.099 2.355 2 2.303 1.965 2.33 2.253 2.409 1.951 2.144 1.411 1.515 1.246 1.342 1.063 1.154.902 1.022.791 1.085.422.664.395 1.3.123 1.034-.56-.26-.825-.539-1.09-.819-1.352-1.098-1.608-1.375-1.617-1.345-1.677-.621-1.133-.858-1.27-.962-2.694-2.377-2.493-2.314-3-2.712-3.132-2.901-2.831-2.648-3.263-3.058-2.852-2.691-3.325-3.161-2.883-2.706-3.147-3.032-2.836-2.743-2.77-2.69-2.717-2.732-1.844-2.424-.34-.602-.634-1.124-.009-.015-1.944-1.883" stroke="#EFC018" stroke-width="5" stroke-linejoin="round"/><path d="m388.874 765.644-1.724-1.772-1.446-1.545-1.16-1.309-.87-1.067-.401-.756.996-.092M442.348 830.141l.018-.726.252-9.997.103-4.085M447.691 864.672l.573-2.575.096-1.024.062-1.181.115-.855.109-1.009.101-1.155.052-.239.003-.117-.106-1.673-.118-1.766-.129-1.842-.138-1.9-.077-.902-.259-1.56-.345-2.066-.316-1.888-.395-1.879-.428-1.932-.328-1.422-.447-1.094-.549-1.488-.64-1.34-.574-1.127-.648-.938-.473-.669" stroke="#EFC018" stroke-width="5" stroke-linejoin="round"/><path d="m445.828 843.053.001.005.403 2.412M1382.1 284.055l-7.17-6.966-7.18-6.965-7.17-6.965-3.83-3.715-6.97 7.175-6.96 7.175-6.97 7.176-3.71 3.827 7.17 6.966 7.18 6.965 7.17 6.965 3.83 3.715 6.97-7.175 6.96-7.176 6.97-7.175 3.71-3.827ZM1349.7 252.163l-7.17-6.965-7.18-6.966-.8-.781-6.97 7.176-6.96 7.175-.78.805 7.17 6.965 7.18 6.965.8.781 6.97-7.175 6.96-7.176.78-.804ZM1368.68 237.424l-7.17-6.965-3.2-3.099-6.96 7.176-3.1 3.192 7.17 6.965 3.2 3.098 6.96-7.175 3.1-3.192ZM1539.41 498.342l6.99 7.159 6.98 7.159 6.98 7.159 6.98 7.159 6.99 7.158 6.98 7.159 6.98 7.159 6.98 7.159 6.98 7.159 6.99 7.159 6.98 7.159 6.98 7.159 6.98 7.159 6.98 7.159 6.99 7.159 6.98 7.159 6.98 7.159 6.98 7.158 6.98 7.159 6.99 7.159 6.98 7.159 6.98 7.159 6.98 7.159 6.99 7.159 6.98 7.159 6.98 7.159 6.98 7.159 6.98 7.159 6.99 7.158 6.98 7.159 6.98 7.159 6.98 7.159 6.98 7.159 6.99 7.159 6.98 7.159 6.98 7.159 6.98 7.159 6.98 7.159 6.99 7.159 6.98 7.159 6.98 7.159 6.98 7.158 6.99 7.159 6.98 7.159 6.98 7.159 6.98 7.159 6.98 7.159 6.99 7.159 6.98 7.159 6.98 7.159 6.98 7.159 7.88 8.075 7.07-7.071 2.14-2.145-7.15-6.982-7.16-6.982-7.16-6.982-7.16-6.982-7.16-6.983-7.16-6.982-7.16-6.982-7.16-6.982-7.16-6.982-7.15-6.982-7.16-6.982-7.16-6.982-7.16-6.982-7.16-6.983-7.16-6.982-7.16-6.982-7.16-6.982-7.16-6.982-7.15-6.982-7.16-6.982-7.16-6.982-7.16-6.982-7.16-6.983-7.16-6.982-7.16-6.982-7.16-6.982-7.16-6.982-7.15-6.982-7.16-6.982-7.16-6.982-7.16-6.982-7.16-6.983-7.16-6.982-7.16-6.982-7.16-6.982-7.16-6.982-7.15-6.982-7.16-6.982-7.16-6.982-7.16-6.983-7.16-6.982-7.16-6.982-7.16-6.982-7.16-6.982-7.16-6.982-7.16-6.982-7.15-6.982-7.16-6.982-7.16-6.983-7.16-6.982-7.16-6.982-8.08-7.876ZM401.396 777.809l-7.17-6.971-1.621-1.577-1.785-1.735M619.015 441.086l-.745 1.29M618.54 439.953l-.001.001M620.507 435.908l-.003.004M625.622 427.863l-1.501 2.516M622.297 445.428l.003.004.289.518v.001l.493.883.001.002 2.555 4.576M629.567 459.697l-.001.001M633.941 456.017l.095.075M634.742 467.111l.002.001M645.738 444.201l.127.421M735.947 342.051l-4.666-2.611-.002-.001-.876-.49M750.969 352.154l.585-1.02.002-.004.001-.001M742.901 346.715l-.432-.291-2.297-1.548-.02-.014M937.985 786.465l-1.317 2.345M938.596 786.962l-1.199 2.173-.001.002-.275.5-.001.001-.19.345M940.759 786.219l-.001.002-.117.222-.336.634v.001l-.031.059-.001.001-.141.267v.001l-.301.568-.118.223-.518.98M945.867 792.913l1.972 1.614 1.15.941M953.904 800.338l-.146.268M954.655 800.791l-.109.202-.001.002-.27.504-.001.002-.165.305M961.359 796.824l-.687 1.454-.002.003-.018.039M963.621 799.163l.204.163M966.912 793.26l-.123.296M1077.42 659.362l1.04-1.835M1089.29 676.445l.98-1.771M962.215 805.341l8.567 5.158 8.567 5.157 8.568 5.158 8.567 5.158 8.566 5.157 8.57 5.158 8.57 5.158 8.56 5.158 8.57 5.157 8.57 5.158 8.56 5.158 8.57 5.157 8.57 5.158 8.57 5.158 8.56 5.157 2.88 1.734 2.55 1.531M1109.05 899.047l.19.126M1121.83 892.156v.002M1133.61 882.351l-.2.142-.01.006M1133.61 882.351l-.2.143M1084.52 670.363l-.46-.767-3.74-6.207M1182.76 824.675l.55-.971M1179.38 821.698l-.54-.961-4.88-8.728-1.67-2.988M1195.77 886.1l2.44 2.262" stroke="#EFC018" stroke-width="5" stroke-linejoin="round"/></svg>