<svg width="1920" height="1080" fill="none" xmlns="http://www.w3.org/2000/svg"><g clip-path="url(#a)" stroke="#EFC018" stroke-width="5" stroke-linejoin="round"><path d="m1065.19 708.187.88-2.238.21-.525.09-.583-.02-.618-.15-.629-.26-.617-.35-.58-.45-.521-.52-.443-.57-.347-.6-.238-.6-.121-.59.003"/><path d="m1066.08 705.948-.01.016-.31.432v.005l-.18.151v.005l-.22.193-.49.243-.55.127-.59.002-.61-.119-.59-.237-.57-.349-.52-.443-.45-.521-.36-.583-.26-.617-.14-.63-.03-.618.1-.583.2-.525.31-.441.01-.005.29-.255.01-.008.11-.089.49-.245.39-.088.15-.037M1050.55 715.754l-.23-.637-.12-.655.01-.649.14-.617.25-.562.36-.48v-.005l.46-.39.53-.279.59-.158v-.001l.03-.001.52-.026.08-.004.64.097.62.222.58.338.53.44.44.527.35.593.23.636.12.655-.01.648-.13.617-.02.031-.14.321-.01.021-.09.189-.36.486v.004l-.45.386-.54.28-.59.159-.63.032-.63-.097-.63-.222M1056.19 717.612l.34-1.549M1045.26 724.289l.34.601.22.648.09.671-.03.667-.16.639-.29.585-.39.509-.01.004-.49.409-.56.303-.63.179-.65.049-.66-.083-.64-.211-.59-.332-.53-.44-.45-.531-.33-.601-.22-.649-.1-.671.04-.667.16-.639.29-.585.39-.503v-.006l.49-.413.57-.302.62-.178.66-.049.66.083.64.211.59.332.53.44.44.53ZM1033.78 736.147l.33.604.21.653.08.676-.05.674-.18.646-.3.593-.42.518v.004l-.51.417-.58.31-.64.186-.67.055-.67-.078-.65-.208-.61-.33-.53-.44-.44-.532-.33-.604-.21-.653-.08-.676.05-.674.18-.646.3-.593.41-.512.01-.006.51-.421.58-.31.64-.185.67-.055.67.078.65.208.61.33.53.439.44.532ZM1021.92 748.089l.33.602.21.649.08.672-.06.668-.18.639-.31.586-.42.509v.005l-.51.409-.59.302-.64.179-.68.049-.67-.083-.65-.211-.61-.333-.53-.44-.44-.531-.33-.602-.21-.649-.08-.671.06-.669.18-.639.31-.586.41-.503v-.006l.52-.414.59-.302.64-.18.68-.049.67.083.65.212.6.332.54.441.44.531ZM1004.53 763.155l-.13-.236-.04-.067-.16-.292-.22-.637-.09-.657.05-.649.17-.619.3-.563.4-.481v-.006l.51-.391.58-.28.63-.159.66-.032.67.098.64.222.6.339.53.442.44.528.34.595.21.638.09.657-.04.65-.18.618-.29.564-.41.486-.01.004-.49.386-.58.28-.64.159-.65.031h-.01l-.25-.037-.42-.06-.64-.223-.6-.338-.53-.442-.44-.528Zm0 0-.11-.161M1007.41 764.783l.05.007M993.527 769.691l.004-.005.476-.354.553-.244.608-.126.642-.003.649.12.632.239.591.349.527.445.442.524.341.583.226.619.103.632-.024.62-.15.585-.271.527-.38.448-.006.004M996.856 775.372l-.641.003-.649-.121M992.707 771.866l.024-.62M982.548 780.17l.231-.478.243-.285.008-.009.085-.1.004-.004.434-.303.513-.196.572-.082.608.035.622.152.612.262.577.362.522.449.445.517.351.567.244.594.128.599.007.579-.115.539-.231.478-.045.052-.007.008-.288.337-.005.003-.071.05-.359.249-.514.196-.571.081-.608-.036-.622-.152-.611-.262-.576-.362-.332-.286-.189-.162-.444-.517-.351-.566-.245-.593-.128-.598-.008-.58.114-.538Zm0 0 .005-.019M987.629 784.545l.006-.003M973.443 788.221l.18-.418.283-.332.003-.004.381-.242.276-.082.008-.003.177-.052.524-.028.566.082.586.189.585.29.56.378.515.453.448.51.365.547.268.563.161.558.046.53-.031.222-.001.007-.036.255-.182.417-.287.335-.004.003-.377.238-.462.136-.523.028-.566-.083-.586-.19-.584-.29-.559-.378-.513-.452-.448-.508-.365-.546-.268-.563-.161-.557-.047-.53.068-.483Zm0 0 .018-.054M978.457 792.636l.013-.007M1090.28 674.858l-.05.02-.14-.075-.23-.165-.3-.249-.23-.199-.14-.124-.41-.386-.46-.434-.47-.464-.47-.477-.45-.471-.42-.448-.36-.407-.3-.349-.22-.281-.13-.198-.04-.112.03-.01.02-.008.14.075.22.165.31.25.36.323.42.386.45.432.47.465.47.474.45.471.42.447.36.406.3.351.22.281.13.199.05.112Zm0 0-1.15 2.083M1085.45 670.039l-.39.215-.43.231"/><path d="m979.299 791.65-.181.417-.284.332-.003.004-.361.227-.021.013-.461.137-.524.027-.565-.083-.586-.19-.584-.289-.56-.378-.513-.452-.447-.509-.365-.546-.268-.562-.161-.557-.048-.531.068-.483.026-.06.154-.358.286-.336.005-.002.376-.239.285-.085.009-.003.168-.05M976.418 787.337l.585.289.56.379.514.453.449.509.365.547.268.563M978.449 792.642l2.112-1.06M988.059 784.246l-.004.005-.066.046-.354.245-.015.011-.513.195-.572.082-.608-.037-.612-.149-.009-.002-.611-.262-.577-.362-.331-.285-.189-.163-.445-.517-.351-.566-.244-.593-.129-.598-.007-.58.114-.539.013-.026.218-.451.251-.295.008-.009.08-.094.005-.004M988.61 781.659l.128.598.007.58-.115.539-.232.478M983.543 779l.513-.196.572-.082.609.035.622.152M987.621 784.553l.454-.195 1.901-.817M987.047 779.532l.521.449.445.517M992.699 771.875l.103.631.227.619.34.582.442.523.526.445.59.348.632.24.649.121.641-.003.608-.125 1.682-.478"/><path d="m992.699 771.876.011-.306.012-.314.097-.379.007-.026.046-.18.27-.527.38-.448.005-.004.47-.35.553-.244.609-.126.641-.003.649.12.633.239.59.349.527.445.442.524.341.583.227.619.103.632-.024.62-.151.585-.27.527-.377.443-.004.005-.379.281-.012.009-.085.063-.513.226-.04.018M1010.7 761.615l-.05.651-.17.618-.3.563-.4.481v.006l-.51.39-.57.28-.64.159-.59.028h-.01l-.05.002-.01.001-.67-.098-.64-.222-.6-.339-.53-.441-.44-.529-.1-.17-.07-.133-.04-.067-.13-.224-.21-.638-.09-.656.05-.65.17-.618.3-.564.4-.486.01-.004.49-.387.58-.28.64-.159.66-.032M1010.06 759.726l.34.595.21.638M1004.21 762.693l.31.471M1007.85 758.193l.64.223.6.338M1007.4 764.793l.7.1M1022.29 751.329l-.31.586-.41.504-.01.006-.51.413-.59.303-.65.179-.67.049-.67-.083-.65-.212-.61-.332-.53-.441-.44-.531-.33-.602-.21-.649-.08-.671.05-.668.19-.64.3-.585.42-.51.01-.004.51-.41.59-.302.64-.179.67-.049.68.083.65.211.6.333M1021.91 748.1l.33.602.21.649.08.672-.06.668M1034.16 739.411l-.3.593-.41.511v.006l-.51.422-.59.309-.64.186-.67.055-.67-.078-.65-.208-.6-.33-.53-.439-.44-.532-.34-.604-.21-.653-.08-.677.05-.674.18-.646.3-.593.42-.517v-.005l.51-.417.58-.309M1034.1 736.762l.21.652.08.677M1030.2 734.624l.67-.055.67.078.65.208M1045.9 726.219l-.03.667-.17.639-.28.585-.39.503-.01.006-.49.414-.56.302-.63.179-.65.049-.66-.083-.64-.211-.6-.332-.53-.44-.44-.53-.33-.602-.22-.648-.1-.671.04-.668.16-.638.28-.585.4-.509.01-.005.48-.408.57-.302.62-.179.65-.049.66.083M1045.25 724.299l.34.601M1043.68 722.998l.6.332M1056.53 716.074l-.15.331-.01.021-.09.21-.36.48-.01.006-.45.39-.54.28-.59.159-.62.032-.64-.097-.62-.222-.59-.338-.52-.441-.45-.527-.34-.594-.24-.636-.11-.656.01-.648.13-.618.25-.562.36-.485.01-.004.45-.385.53-.28.6-.158.03-.002.03-.001.56-.028.64.097.62.222.58.337.53.441.44.527.35.593.23.636.12.654-.01.649-.13.617Zm0 0-.01.021M1053.16 711.3l-.07-.006M1065.76 706.4v.005l-.18.147v.007l-.23.199-.49.244-.55.126-.59.003-.6-.119-.6-.238-.57-.348-.52-.443-.45-.523-.36-.581-.25-.617-.15-.63-.02-.618.09-.583.21-.525.31-.447v-.004l.3-.258.01-.009.1-.081.49-.244.55-.125M1065.58 702.405l.36.58.25.617.15.629.03.618M1062.84 700.735l.61.12.6.239.57.347M1074.49 696.421l-.26.397-.35.303-.43.196-.04.007-.45.075-.54-.034-.57-.151-.57-.26-.45-.293-.1-.067-.51-.447-.45-.515-.38-.565-.28-.592-.18-.596-.07-.578.04-.537.13-.421.02-.055.26-.396.35-.301.43-.196.49-.081.55.035.56.151.57.261.55.36.51.445.45.515.37.563.27.563.02.028.18.596.07.577-.01.105-.03.432-.15.476Zm0 0-1.29 2.677M1081.27 688.325l-.18.336-.28.241-.37.138-.43.03-.49-.081-.13-.047-.39-.141-.54-.287-.53-.376-.5-.45-.45-.508-.4-.544-.31-.561-.22-.555-.07-.305-.05-.224-.02-.482.09-.416.19-.335.28-.24.36-.137.44-.028.48.081.53.188.53.288.53.375.5.45.45.506.39.543.32.56.22.554.12.529.02.482-.09.416Zm0 0-1.61 3.05M1076.47 683.518l-1.05.431M1086.12 682.173l-.2.172-.3.072-.36-.031-.43-.133-.47-.23-.5-.318-.51-.394-.49-.455-.46-.497-.41-.522-.34-.526-.05-.091-.22-.418-.18-.473-.08-.419.01-.348.08-.174.04-.091.2-.171.19-.046.1-.023.01-.002.37.032.42.134.47.23.5.318.51.393.49.454.22.241.04.043.2.213.41.52.34.525.27.508.15.41.03.063.08.419-.01.349-.12.266Zm0 0-1.89 3.441M1081.45 677.125l-.35.168M1089.2 677.534l-.12.097H1088.86l-.1-.031-.2-.065-.36-.19-.41-.27-.01-.006-.46-.351-.48-.413-.48-.46-.03-.03-.44-.457-.43-.497-.38-.488-.31-.459-.24-.413-.15-.35-.06-.276.04-.189.13-.096h.21l.07.022.23.076.37.19.42.276.45.351.43.373.05.04.48.458.47.486.43.496.36.464.02.023.31.458.24.413.1.225.05.126.06.276-.04.191Zm0 0-.15.281-1.86 3.346M1084.49 672.59l-1.23.627M1085.49 670.028l-.33-.263-.28-.209-.21-.122-.12-.032-.43.235M953.909 800.221l-.061.112.011.141.103.228.191.306.127.173"/><path d="M954.579 800.623v.001l-.3.556-.318.589.003.029.095.121.183.207.266.287.337.354.395.408.439.447.466.468.474.472.465.457.438.425.393.376.335.314.263.239.18.154.091.065 1.406-.781"/><path d="m953.961 801.77.091.063.179.154.262.238.335.314.394.376.438.426.466.458.475.473.467.469.44.448.396.409.337.354.265.286.183.207.094.12.001.028M956.919 799.539l-.907 1.757.021.198.002.006.113.274.206.35.126.178.163.229.361.449.419.473.461.479.244.235.241.231.49.437.134.109.343.281.446.327.398.254.011.005.322.164.257.079.171-.015 1.358-.765 2.304-1.298"/><path d="m956.012 801.296.076-.11.17-.016.256.078.333.168.398.253.446.328.478.39.492.438.486.467.189.197.273.283.419.474.08.1.281.35.29.407.193.33.012.02.115.28.019.197-.077.109M960.371 798.073l-.195.407-.131.275-.053.276.049.351.149.414.243.459.289.432.038.057.4.499.113.121.173.186.17.182.495.462.515.416.516.354.496.28.459.193.402.1.177.002.154.001.247-.094 3.498-1.958"/><path d="m960.043 798.756.152-.189.06-.024.185-.072.331.002.037.01.365.09.458.193.498.279.516.355.517.417.255.237.16.15.081.075.457.491.4.499.327.49.243.46.148.414.048.351-.053.275-.153.188M965.965 794.222l-.12.35-.013.42.03.151.065.323.114.291.086.219.296.527.381.524.451.499.505.457.538.396.552.321.544.233.515.136.467.034.4-.07.318-.17 3.246-1.763"/><path d="m965.965 794.221.222-.266.318-.171.399-.071.466.033.485.128.031.008.168.072.376.16.553.321.54.397.506.458.452.5.381.525.258.458.038.069.2.511.094.475-.013.42-.121.349-.224.265M723.74 335.249l-8.727-4.883-5.733-3.208-8.883-4.593-8.882-4.593-8.883-4.593-4.382-2.266-8.915-4.53-8.915-4.53-8.915-4.531-4.473-2.272-9.162-4.007-9.162-4.007-9.162-4.007-5.278-2.308-9.573-2.889-9.574-2.889-9.573-2.889-9.574-2.889-9.574-2.889-9.573-2.889-9.574-2.889-3.476-1.049 2.86 9.582 2.86 9.582 2.86 9.583 2.86 9.582 2.86 9.582 2.86 9.583 2.86 9.582.67 2.245 4 9.165 4.001 9.165 4 9.165 2.166 4.96.595 1.362 4.525 8.917 4.526 8.918 4.526 8.917 2.262 4.457 4.588 8.885 4.589 8.885 4.588 8.885 2.259 4.375 4.879 8.728 3.078 5.507M1078.94 664.195l-.28 1.938-2.82 4.433-5.28 6.8-2.7 3.175-.67.786-3.44 4.051v.007l-.78.916-.25.279-.01.007-.42.471-2.67 2.986-.01.008-3.07 3.435-.01.008-.88.986-.01.008-2.16 2.417-.12.13-2.09 2.243-.01.008-3.52 3.786v.009l-.48.514-.01.009-3.35 3.597-1.8 1.945-.04.038-.01.009-4.23 4.414-.01.007v.002l-.01.007v.005l-4.18 4.357-1.49 1.558-.01.01-2.48 2.583-1.99 2.024-.01.01-.5.503-4.31 4.376-1.1 1.118-.01.01-4.62 4.683-.01.01-.58.589-.4.402-4.37 4.315-.64.638-.01.009-4.61 4.56-.01.01-1.43 1.41-1.77 1.747-2.59 2.494-.15.146-.01.01-4.474 4.301-.009.008-1.851 1.78-3.707 3.565-.081.076-.01.009-.381.355-.009.008-3.961 3.691-.009.008-2.274 2.118-2.749 2.562-.009.007-.859.8-.008.008-1.459 1.359-2.023 1.811-3.878 3.469-1.207 1.08-3.232 2.892-.338.285-1.926 1.626-.256.216-5.943 5.015-6.271 4.775-3.866 2.259-1.355-.299"/><path d="m947.861 794.564-.67 1.609 1.373.312 3.929-2.292 6.38-4.856 6.72-5.67.474-.4 1.421-1.199.722-.646 3.372-3.017 1.235-1.105 3.985-3.565 1.216-1.087 2.166-2.018.009-.008.875-.816.009-.008 2.797-2.606 2.274-2.118.009-.008 3.889-3.623.039-.038.009-.008.376-.362.009-.009 3.798-3.652 1.855-1.784.01-.009 4.478-4.301v-.01l.16-.146 2.3-2.215 2.04-2.014 1.42-1.411.01-.009 4.63-4.575.01-.01.66-.653 4.32-4.268.4-.397.6-.611.01-.009 4.63-4.699.01-.01 1.12-1.134 4.26-4.33.51-.518.01-.01 2.22-2.252 2.27-2.368.01-.009 1.5-1.558 4.16-4.342.02-.02.01-.01 4.22-4.405.01-.009.49-.512 1.36-1.463 3.36-3.618.01-.009.48-.512.01-.009 3.49-3.753.01-.008 2.2-2.367.55-.597 1.68-1.881.01-.008.88-.985.01-.008 2.99-3.333v-.008l2.64-2.944.56-.629.01-.007 1.01-1.129.11-.133.01-.006 3.09-3.648 1.12-1.314.08-.091 3.31-3.904 5.38-6.919 2.86-4.507.28-1.965-1.77.471M1070.92 654.391l-.4-.491-.17-.204-6.33-7.739-6.34-7.739-6.33-7.739-6.33-7.739-3.43-4.187-6.5-7.601-6.5-7.6-6.5-7.601-6.49-7.6-6.5-7.601-5.38-6.287-6.676-7.444-6.677-7.444-6.678-7.444-6.677-7.444-6.677-7.444-5.461-6.089-6.853-7.283-6.852-7.284-6.852-7.283-6.852-7.284-6.852-7.283-5.563-5.913-7.47-6.648-7.471-6.647-7.471-6.648-7.471-6.647-7.47-6.647-6.121-5.446-7.696-6.385-7.696-6.385-4.578-3.797-7.696-6.385-7.697-6.385-7.696-6.385-1.848-1.533-8.065-5.912-8.065-5.913-8.065-5.912-8.065-5.913-8.065-5.912-7.089-5.197-8.292-5.589-5.745-3.872-8.293-5.589-8.292-5.589-7.754-5.226-1.156-.78M740.654 345.172l-2.202-.199-4.308 1.966-6.279 4.089-4.388 3.326-.017.012-.759.575-2.816 2.135-.006.004-.04.03-1.203.998-.006.004-1.115.925-2.36 1.957-.007.005-2.387 1.98-.007.006-.887.735-.007.006-1.492 1.237-.815.721-2.026 1.791-.006.006-3.484 3.08-.009.008-.187.166-.008.007-2.285 2.019-1.721 1.522-.239.223-.007.007-4.698 4.374-.008.008-3.446 3.209-.008.007-2.775 2.584-3.126 3.049-.009.008-2.507 2.444-.007.008-5.708 5.565-.836.853-.008.007-2.26 2.305-.008.008-5.99 6.106-.007.008-1.949 1.987-1.065 1.138-.009.009-4.715 5.038-.007.007-1.85 1.978-1.83 1.955-.07.075-.008.008-.026.027-.007.008-.709.758-2.784 3.139-.006.007-1.741 1.963-2.126 2.397-.006.007-.642.724-.007.007-1.799 2.028-.41.496-3.18 3.839-.983 1.188-1.938 2.34-1.046 1.263-.53.707-.385.513-4.797 6.397-3.661 5.822-1.496 3.822.694 1.706M629.094 456.408l1.105 1.641.231.342"/><path d="m742.514 346.423.519-1.078-.035-2.429-2.245-1.733-2.283-.231-2.511 1.132-1.957.883-5.416 3.51-.403.261-.695.45-.595.45-1.872 1.414-.673.508-1.734 1.31-.645.487-2.596 1.961-.214.162-1.455 1.204-.007.006-1.174.971-.006.005-.896.741-.005.005-2.438 2.017-.005.004-3.844 3.181-1.172 1.035-.011.01-1.015.896-.003.002-7.496 6.62-1.245 1.099-7.321 6.812-4.285 3.988-7.161 6.98-4.628 4.511-7.001 7.14-4.474 4.561-6.83 7.304-3.85 4.116-6.631 7.486-2.62 2.959-.194.218-1.929 2.334-.464.562-.749.906-1.883 2.278-2.037 2.465-.702.85-.064.077-1.183 1.583-.603.807-1.735 2.321-.423.566-.958 1.281-1.006 1.346-3.776 6.04-.162.42-1.366 3.544.743 1.768 1.734 2.247 2.948-.473.423-.224"/><path d="m742.995 342.916-2.279-.222-4.475 2.035-6.531 4.25-5.554 4.206-.486.368-1.828 1.384-.488.37-1.615 1.339-.006.005-1.281 1.062-.006.005-1.316 1.09-2.333 1.934-.006.005-2.356 1.953-.007.006-.861.714-.007.006-.073.06-2.117 1.872-2.041 1.804-.007.006-3.771 3.334-.009.008-.044.039-.04.036-.009.007-1.83 1.618-1.117.987-.994.926-.007.006-5.125 4.773-.009.008-2.89 2.691-.007.007-2.623 2.442-4.083 3.981-.009.009-1.447 1.41-.007.008-6.295 6.138-1.376 1.402-.007.008-1.057 1.077-.008.008-6.935 7.071-.008.008-2.138 2.179-.233.249-.008.01-5.199 5.555-.007.007-2.138 2.285-.962 1.028-.363.388-.008.008-1.815 1.939-1.922 2.168-.006.007-1.784 2.012-1.999 2.254-.006.007-.599.674-.006.008-2.27 2.56-.901 1.016-2.404 2.904-1.001 1.208-1.684 2.034-2.01 2.428-.771.931-.223.298-5.721 7.632-3.802 6.056-.348.893-.021.054-1.176 3.021.736 1.763M635.25 465.548l.685 1.018 5.587 8.293 5.587 8.294 5.278 7.834 4.302 6.387 5.16 7.66 5.911 8.066 5.697 7.775 5.911 8.066 5.911 8.066 5.911 8.066 5.432 7.412 4.502 5.429 6.384 7.697 6.384 7.697 3.432 4.138 2.025 2.441 6.384 7.697 6.384 7.697 1.787 2.155 6.647 7.471 6.647 7.471 6.647 7.472 6.647 7.471 6.647 7.471 5.485 6.164 7.283 6.852 7.284 6.852 7.284 6.852 7.284 6.852 7.283 6.852 5.959 5.605 7.445 6.677 7.444 6.677 7.445 6.677 7.444 6.677 7.444 6.677 6.134 5.5 7.601 6.498 7.601 6.498 7.601 6.498 7.601 6.498 7.601 6.499 6.33 5.411 7.739 6.332 7.74 6.333 7.739 6.332 7.74 6.332 4.295 3.514.536.439M1078.94 664.195l-.59-.714-1.68-2.057M1095.42 885.467l1.33.516 2.73-.938 4.02-2.372 5.18-3.727 6.14-4.944 6.85-5.97 7.29-6.759 7.15-6.993.3-.285 6.96-7.173.32-.326 6.83-7.416 6.11-7.032 5.14-6.367 3.96-5.452 2.66-4.33 1.25-3.048-.13-1.112M947.191 796.172l6.719 4.048.172.103.499.301M1127.69 904.236l8.64 5.029 3.89 2.261 1.12.46 2.16-.628 3.11-1.701 3.95-2.716 2.17-1.692 2.48-1.936 5.15-4.402 5.45-5.003 2.6-2.535 2.95-2.869 4.13-4.271 1.27-1.318 5.06-5.55 4.5-5.288 2.88-3.688.89-1.13 2.89-4.158 1.91-3.341.86-2.398-.21-1.371-5.03-8.642-2.4-4.117"/><path d="m1111.46 898.478 8.73 4.878 2.85 1.598 1.29.526 2.51-.77.85-.474 2.81-1.576 4.68-3.26 5.51-4.349 6.13-5.271 6.5-5.984 6.62-6.459 6.46-6.671 6.05-6.615 5.39-6.291 4.52-5.718 3.47-4.92 2.28-3.89.02-.044 1.05-2.804-.24-1.575-4.88-8.727-1.69-3.014M1093.73 888.423l.52.207 2.91-.994 4.3-2.531 5.54-3.983 6.57-5.29 7.34-6.392 7.33-6.797.48-.445 6.01-5.882.01-.005 1.23-1.202v-.005l.72-.703 4.25-4.379.01-.006.91-.934v-.004l2.64-2.711 6.77-7.356.55-.589 6.53-7.531 5.5-6.817 4.24-5.832 2.84-4.629 1.05-2.592M1152.73 905.25l8.22 5.697 4.11 2.855.71.277 1.32-.369 1.87-1.001 2.36-1.599 2.76-2.136 3.06-2.591 3.22-2.945 3.27-3.184 3.18-3.296 2.98-3.28 2.65-3.133 2.22-2.865 1.7-2.485 1.13-2.01.5-1.459-.13-.854-5.7-8.217-2.96-4.265M1184.55 712.694l-6.7-7.428-4.49-4.98-9.98-.613-9.98-.613-9.98-.612-9.99-.615-9.98-.613-9.98-.613-2.81-.172-9.98-.614-.8-.05"/><path d="m1087.77 907.714 2.95-9.554 2.97-9.614.04-.123 1.03-3.353 1.74-5.625 2.65-8.573-7.94-5.533-.78-.542-8.21-5.715-8.2-5.714-8.21-5.715-8.21-5.715-8.2-5.714-8.21-5.715-8.21-5.714-8.2-5.715-8.21-5.715-8.2-5.714-8.21-5.715-8.207-5.715-2.753-1.916-1.346-.938-1.69 1.448-3.695 3.166.965 9.954.965 9.953.072.741.965 9.954.966 9.953.252 2.599.965 9.954.965 9.953.966 9.953.965 9.954.196 2.019.493 5.087.965 9.954.966 9.953.965 9.953.04.41 7.47 6.649 7.47 6.649 7.47 6.649 7.47 6.649 7.47 6.649 7.47 6.649 7.46 6.649 7.47 6.649 7.62 6.781 7.74 6.33 7.59 6.205 7.74 6.33 7.57 6.187 7.74 6.33 7.54 6.17 7.74 6.33 7.53 6.15 5.9-4.07 5.64-7.85-4.62-8.87-4.61-8.874-4.02-7.715-4.29-9.033-.71-1.492-.31-.652-4.29-9.033-2.86-6.036-4.5-8.933-4.49-8.933-3.83-7.615-1.79-7.098-2.45-9.697-2.44-9.697-1.26-5.018Z"/><path d="m987.855 793.367.979 9.952.978 9.952.896 9.115.979 9.952.419 4.257.978 9.952.979 9.952.978 9.952.979 9.952.979 9.952.75 7.626.978 9.952.982 9.989M994.141 918.325l5.568-4.403 7.471 6.65 7.47 6.65 7.46 6.65 7.47 6.65 7.47 6.65 7.47 6.65 7.47 6.65 7.47 6.65 7.8 6.95 7.74 6.333 7.63 6.24 7.74 6.332 7.6 6.223 7.74 6.33 7.59 6.21 7.74 6.33 7.56 6.19M1052.28 691.214l.86-2.129.11-.595-.01-.63-.14-.638-.25-.624-.35-.585-.45-.523-.37-.314-.1-.086-.05-.042-.57-.344-.61-.232-.61-.111-.61.013-2.27.475"/><path d="m1053.14 689.085-.22.54v.003l-.33.459v.004l-.17.143-.01.008-.25.211-.5.258-.56.139-.61.014-.61-.111-.61-.232-.58-.344-.52-.442-.44-.525-.18-.297-.07-.115-.11-.173-.25-.625-.13-.64-.01-.63.1-.595.23-.539.32-.457.01-.005.29-.247.01-.009.12-.11.51-.256.35-.086.21-.052M1051.53 692.568l.45-.625.3-.729M1042.78 700.867l.32-1.384.02-.662-.11-.665-.22-.645-.34-.597-.45-.53-.52-.44-.59-.332-.38-.13-.13-.042-.13-.044-.64-.086-1.54-.081"/><path d="m1043.09 699.484-.15.632v.009l-.15.316-.01.022-.1.231-.38.502-.01.005-.47.402-.55.296-.61.173-.64.044-.65-.086-.63-.215-.59-.333-.53-.44-.44-.53-.35-.599-.22-.645-.02-.117-.02-.137-.07-.413.03-.662.15-.632.27-.578.37-.496.01-.005.47-.407.56-.295.58-.165.02-.007.56-.038.08-.006M1041.7 703.185v-.004l.51-.679.37-.781.2-.854M1031.24 708.724l.33.607.21.658.08.682-.05.682-.18.655-.3.603-.41.528-.01.004-.5.427-.59.32-.64.195-.67.063-.67-.072-.65-.203-.6-.327-.54-.439-.44-.533-.33-.607-.21-.658-.08-.684.02-.345.01-.158.02-.179.18-.655.3-.603.41-.521.01-.006.51-.431.58-.319.64-.195.41-.038.17-.016.09-.008.68.071.65.204.6.327.53.439.44.532Z"/><path d="m1030.83 714.591.01-.005.56-.712.41-.815.24-.885.07-.921-.11-.922-.29-.888-.45-.819M1019.26 721.057l.32.61.21.663.07.689-.07.689-.2.664-.32.612-.43.536-.01.005-.52.436-.61.328-.66.203-.68.07-.69-.067-.66-.199-.6-.325-.54-.439-.44-.534-.32-.611-.21-.662-.07-.69.07-.689.05-.164.06-.201.08-.299.33-.612.43-.53v-.006l.53-.441.61-.328.37-.115.21-.064.08-.023.68-.07.69.067.66.199.6.325.54.438.44.535ZM1019.3 726.411l.01-.004.58-.725.44-.827.26-.896.09-.931-.09-.931-.28-.895M1006.89 733.497l.33.608.2.659.07.685-.07.684-.2.657-.33.605-.44.529v.005l-.53.428-.61.321-.66.196-.69.064-.68-.071-.67-.203-.6-.327-.54-.439-.44-.534-.32-.608-.2-.659-.07-.685.06-.659v-.025l.06-.175.14-.482.33-.605.43-.523.01-.006.53-.434.61-.321.4-.119.2-.059.06-.018.69-.064.69.071.66.203.61.328.53.439.44.534ZM1007.48 738.251l.01-.005.59-.715.44-.817.27-.886.09-.924-.09-.925M988.839 749.256l-.142-.259-.037-.067-.151-.275-.206-.647-.062-.546-.014-.123.001-.014.056-.651.189-.636.313-.582.42-.5.005-.006.521-.41.596-.299.65-.176.411-.028.155-.01.111-.008.679.086.655.213.605.334.533.441.44.531.329.601.206.648.076.669-.058.666-.189.636-.313.582-.426.505-.005.005-.516.405-.596.299-.649.175-.677.046-.238-.03-.068-.009-.373-.047-.655-.214-.605-.333-.532-.441-.439-.531Zm0 0-.125-.198"/><path d="m991.066 750.774.417.061.075.011M991.559 750.847l.182.023M995.773 749.712l.006-.005.574-.683.424-.786.256-.858.078-.9M976.605 758.413l.035-.634.111-.406.007-.027.046-.168.285-.545.392-.462.004-.005.492-.371.569-.262.623-.142.655-.017.66.109.049.018.115.042.476.171.596.345.529.443.442.527.336.589.22.628.093.644-.036.635-.165.601-.286.544-.397.467-.005.004-.42.317-.013.009-.054.041-.569.261-.623.142-.654.016-.659-.11-.64-.231-.596-.344-.528-.444-.441-.525-.336-.589-.039-.11-.042-.12-.139-.397-.093-.644Zm0 0 .019-.503M981.395 761.77l.029-.008M984.57 760.41l.005-.004.536-.63.387-.736M966.09 767.128l.244-.494.269-.316.009-.01.071-.084.004-.004.448-.32.527-.212.584-.096.62.023.631.141.619.255.483.297.099.061.01.009.513.439.444.519.348.573.239.602.119.609-.003.593-.127.554-.245.494-.059.069-.007.008-.288.337-.005.003-.444.315-.526.211-.584.096-.62-.024-.63-.142-.618-.255-.581-.357-.523-.447-.095-.112-.084-.097-.264-.31-.348-.571-.239-.602-.12-.609.003-.592.126-.554Zm0 0 .005-.02M971.195 771.492l.007-.003M956.679 775.566l.19-.432.183-.215.111-.131.003-.004.392-.256.304-.097.009-.003.159-.051.533-.041.575.072.594.181.591.283.564.375.516.452.443.506.004.005.084.127.279.425.263.57.154.567.039.542-.038.242-.002.007-.039.248-.191.431-.298.349-.004.003-.389.252-.472.15-.533.04-.575-.072-.593-.181-.484-.233-.106-.051-.034-.022-.528-.352-.515-.451-.447-.511-.362-.55-.264-.57-.154-.566-.039-.532v-.01l.077-.496Zm0 0 .023-.064M961.707 779.973l.013-.006M965.888 776.43l-.052-.733-.207-.767M1078.45 657.706l-.05.018-.14-.076-.23-.166-.3-.25-.17-.144-.2-.181-.42-.387-.46-.434-.47-.464-.47-.477-.45-.471-.41-.447-.36-.406-.3-.349-.22-.278-.13-.198-.04-.109.06-.017.14.077.23.167.3.251.37.324.42.387.45.433.47.463.47.476.45.47.41.446.37.405.29.349.22.279.13.199.04.11Zm0 0-1.22 2.16M1073.63 652.888l-.42.236-2.02 1.116-.27.152-.92.507"/><path d="m958.938 779.634-.033-.022-.53-.352-.515-.451-.447-.511-.362-.551-.263-.569-.155-.567-.038-.532-.001-.009.077-.496.031-.071.16-.361.19-.224.107-.126.004-.003.387-.253.313-.1.009-.003.15-.048.534-.041.575.072.594.18.59.284.564.374.516.452.444.508.004.004.084.128.278.424.263.57.154.567.039.542-.037.234-.001.008-.04.254-.192.431-.294.346-.004.004-.372.242-.02.013-.472.15-.534.04-.574-.073-.594-.181-.483-.232-.106-.051Z"/><path d="m957.785 772.554-.722 1.96-.391 1.06M961.699 779.981l2.88-1.473M972.233 770.274l-.245.494-.052.061-.007.008-.291.34-.004.005-.433.307-.016.011-.526.211-.584.096-.62-.024-.63-.142-.618-.254-.581-.358-.523-.447-.094-.111-.084-.097-.265-.311-.348-.571-.238-.602-.121-.609.003-.592.126-.554.014-.028.23-.466.278-.325.008-.01.067-.079.005-.004.443-.316.527-.212M968.859 765.622l.631.142.619.254.484.298.098.06.011.01.512.438.444.52.348.572.239.602.119.61M966.732 764.533l-.65 2.602M973.625 770.43l.607-.431M971.188 771.501l2.441-1.07M982.454 761.141l-.005.005-.413.312-.012.009-.067.05-.53.244-.039.017-.623.142-.654.016-.659-.11-.64-.231-.596-.344-.528-.443-.441-.526-.336-.588-.039-.11-.042-.12-.139-.398-.093-.644.029-.512.006-.122.118-.433.007-.026.039-.142.285-.545.397-.467.005-.004M979.16 755.4l.655-.017.66.11.05.018.115.041.475.172.596.344.529.444.442.526.336.589.22.629.093.644-.036.634M976.661 756.737l-.063 1.685M983.129 761.269l.768-.352.665-.502.005-.005M981.387 761.779l1.745-.509M994.186 749.935l-.005.006-.521.409-.597.299-.649.175-.671.045-.006.001-.237-.03-.442-.056-.654-.214-.605-.333-.533-.441-.439-.531-.114-.208-.065-.118-.037-.068-.113-.206-.207-.648-.062-.545-.014-.124.001-.013.057-.652.189-.636.312-.582.425-.506.006-.004M992.32 744.114l.654.213.606.334.533.441.439.531.329.601.207.648M988.535 748.806l.289.46M995.107 748.217l-.189.636"/><path d="m991.551 750.857.917.115.914-.061.877-.237.806-.403.704-.554.005-.005M990.316 744.25l.649-.176M991.059 750.784l.493.073M1006.88 737.405l-.43.524-.01.006-.53.433-.61.321-.66.196-.69.064-.69-.071-.66-.203-.61-.328-.53-.439-.44-.533-.33-.608-.2-.66-.06-.684.06-.659v-.025l.06-.175.14-.482.33-.605.44-.529v-.005M1004.64 732.004l.66.203.61.327.53.439.44.534.33.609.2.659M1007.47 735.459l-.06.684M1001.99 732.514l.61-.321"/><path d="m1002.29 739.257.89.274.93.096.93-.086.89-.265.83-.434.72-.585v-.006M1003.26 731.998l.69-.064M1019.26 724.994l-.43.531v.006l-.54.441-.6.328-.66.203-.68.069-.69-.066-.66-.199-.61-.326-.53-.438-.44-.534-.33-.611-.2-.662-.07-.69.06-.689.05-.164.06-.202.09-.298.32-.612.44-.536v-.005M1019.78 723.72l-.2.664M1015.02 727.735l.92.089.93-.094.89-.274.82-.443.71-.596.01-.006M1014.98 719.776l.37-.115.21-.064.07-.024M1027.18 713.884l-.6-.328-.53-.438-.44-.534-.34-.607-.21-.658-.08-.683.03-.346.01-.158.01-.178.18-.655.3-.603.42-.527.01-.005.5-.427.59-.319.64-.194.4-.038.17-.016.1-.009.67.072.65.204.6.327.53.438.44.533.33.607.21.657.09.683-.05.682-.18.655-.31.603-.41.521v.006l-.51.432-.59.32-.64.195-.67.063-.67-.072-.65-.203ZM1027.58 715.962l.9-.085.87-.264.79-.432.69-.583v-.006M1042.29 701.2l-.01.005-.47.407-.55.296-.61.173-.64.044-.65-.086-.63-.215-.6-.333-.52-.44-.45-.53-.34-.599-.22-.645-.02-.118-.02-.137-.07-.411.03-.662.15-.633.27-.578.38-.501v-.005M1037.79 695.83l.55-.295.61-.171v-.001l.03-.002.61-.042.65.087.13.044.12.042.39.129.59.333.52.44.44.529.35.598.22.645.11.665-.03.662-.14.632-.15.304-.01.022-.11.252M1040.3 704.142l.75-.4.64-.55v-.006M1053.23 687.87l.01.629-.1.596-.23.539-.32.457-.01.005-.16.14-.01.008-.25.219-.51.257-.56.139-.6.014-.62-.111-.61-.232-.57-.344-.52-.442-.45-.524-.18-.299-.07-.115-.11-.172-.24-.625-.14-.639-.01-.63.11-.596.22-.539.33-.461.01-.005.29-.252.01-.009.12-.101.5-.256.57-.138M1052.49 686.022l.36.585.25.625M1050.34 684.481l.61.232.58.344.04.041.1.086M1061.74 679.773l-.27.408-.37.314-.44.207-.03.006-.48.086-.55-.026-.58-.143-.58-.255-.55-.358-.23-.198-.12-.105-.17-.143-.45-.517-.37-.568-.27-.598-.17-.604-.06-.587.05-.547.14-.411.03-.076.27-.408.36-.313.45-.206.51-.091.55.027.58.143.57.256.56.357.51.445.45.516.11.18.09.135.17.252.27.597.17.603.07.587-.06.547-.16.488Zm0 0-1.36 2.772M1057.35 674.73l-2.37.817M1056.7 683.7l.78.194.75.034M1062.55 674.4l.64.449.08.056.06.033.67.351.72.246.67.1.61-.051.51-.198.39-.338M1068.87 671.425l-.2.344-.29.25-.38.146-.44.036-.5-.074-.12-.043-.13-.042-.24-.084-.04-.014-.54-.284-.53-.374-.51-.45-.45-.508-.39-.547-.31-.565-.21-.561-.06-.284-.05-.252-.01-.489.1-.425.2-.343.29-.248.38-.145.44-.036.5.076.53.183.54.283.53.374.51.449.45.507.39.546.3.564.22.56.03.155.05.236.03.144.01.49-.1.425Zm0 0-1.7 3.158M1064.06 666.613l-.48.207-1.76.761-.14.06M1068.17 667.539l.69.531.68.427.65.306.26.079.26.075.07.02.5.036.41-.105.3-.241M1073.98 665.109l-.21.177-.3.077-.38-.027-.43-.129-.48-.227-.51-.316-.5-.393-.5-.454-.46-.499-.4-.523-.17-.258-.18-.27-.26-.513-.17-.477-.07-.423.02-.354.03-.066.09-.204.22-.176.2-.049.09-.022.01-.005.38.028.44.13.47.227.5.316.51.392.49.454.39.417.07.075v.005l.41.522.34.527.26.512.17.462v.015l.08.424-.02.354-.13.271Zm0 0-.98 1.762-.35.611-.66 1.186"/><path d="m1069.32 660.054-.47.229-1.89.927-.43.211M1077.27 660.384l-.14.099-.22.002-.02-.006-.28-.089-.37-.188-.29-.184-.14-.091-.46-.351-.48-.413-.21-.202-.13-.122-.14-.135-.47-.488-.43-.498-.37-.488-.32-.461-.13-.233-.1-.181-.14-.352-.05-.277.04-.191.13-.098.17-.001h.06l.3.096.37.189.42.275.46.35.48.413.48.458.47.487.43.496.37.488.07.1.25.359.23.414.12.306.03.047.05.278-.04.192Zm0 0-.6 1.041-1.53 2.706"/><path d="m1072.55 655.437-.54.287-.75.395-.07.037-.18.099-.25.129-.32.172-1.32.695M1074.05 664.044l.19.098.41.128.3-.004.18-.136M1073.64 652.887l-.26-.206-.29-.204-.21-.118-.12-.027-2.41 1.364M937.944 786.451l-1.171 2.081.006.142.098.229.186.307.075.105M938.481 786.891l-1.038 1.875-.304.55-.354.638.005.032.098.122.186.21.267.288.339.356.396.409.44.448.466.468.474.471.464.457.437.424.392.375.333.312.26.237.178.152.089.063 1.455-.827"/><path d="m936.785 789.953.088.061.178.152.259.236.333.312.392.375.438.425.465.457.475.473.467.47.441.448.397.41.339.356.267.288.185.208.097.122.003.031M940.749 785.755l-.552 1.037-.134.253-.1.188-.142.265-.18.339-.825 1.55.019.204.115.285.192.33.013.024.289.411.361.451.418.475.461.48.485.466.036.032.455.403.244.197.234.19.447.325.398.249.083.041.251.124.258.073.172-.021 2.103-1.209 1.681-.967"/><path d="m938.816 789.387.076-.115.171-.021.257.072.334.164.398.249.447.324.479.388.492.436.486.468.462.48.42.476.179.224.182.228.288.411.206.355.022.055.091.229.019.203-.078.113M947.531 791.95l.107-.154-.023-.276-.024-.06"/><path d="m944.432 783.603-1.144 2.302-.236.477-.144.289-.056.284.045.359.146.421.235.455.005.01.326.493.398.502.304.327.152.163.314.292.181.169.517.414.518.351.5.274.462.187.406.093.229-.004.106-.001.251-.103 2.989-1.706.611-.349.019-.011M951.565 789.29l.214-.266.017-.081.062-.303-.032-.267-.027-.219-.195-.569-.324-.631-.44-.668-.539-.68"/><path d="m942.906 786.67.156-.198.072-.03.178-.074.335-.006.167.038.239.054.462.187.5.274.519.351.518.414.41.381.087.081.134.144.323.348.399.502.326.494.24.466.145.421.044.359-.057.283-.158.197M950.217 779.1l-1.239 2.782-.127.361-.019.431.045.244.044.239.195.518.077.141.216.392.379.527.451.501.506.456.541.393.556.316.549.226.521.127.179.009.247.013.048.002.407-.081 3.246-1.794M957.481 784.655l.314-.374.174-.487.028-.583-.119-.654-.263-.702-.131-.24-.104-.189-.16-.293-.513-.714"/><path d="m948.977 781.881.23-.277.325-.183.407-.082.474.023.521.127.199.081.19.078.161.066.557.316.542.394.507.457.452.502.38.528.256.466.037.068.194.519.024.128.048.26.017.096-.02.43-.128.36-.232.276-.326.182M1170.41 844.877l.6-1.148.11-.307.05-.335-.01-.353-.08-.357-.14-.346-.2-.322-.24-.287-.28-.24-.31-.183-.33-.121-.33-.052-.32.017-1.34.133M1170.05 844.445l-.32.017-.33-.053-.32-.12-.31-.184"/><path d="m1170.62 844.205-.03.014v.002M1168.14 841.295l.22-.213.1-.054.01-.004.16-.094.27-.079.03-.007M1171.01 843.729l-.01.013-.16.251M1170.18 845.237v-.003l.23-.357M1168.24 843.579l-.2-.323-.14-.347-.08-.356-.01-.353M1165.49 850.461l.3-.748.08-.352v-.367l-.06-.368-.12-.356-.19-.328-.24-.289-.29-.238-.32-.179-.34-.112-.83-.164M1164.91 850.72l-.33.102-.34.031-.35-.041-.34-.112-.32-.179-.28-.239-.24-.289-.19-.328-.13-.356-.06-.368.01-.367.07-.353"/><path d="m1162.75 847.615.25-.23.29-.17.33-.102.24-.022.02-.001.08-.008.26.031.09.011M1165.79 849.713l-.05.115-.09.209-.11.152v.008l-.09.122M1165.03 851.282v-.002l.27-.382.19-.437M1156.71 854.294l.28-.24.31-.179.35-.111.36-.038.36.035.35.108.32.177.29.238.22.268.02.022.15.27.03.061.12.36.05.375.02.184M1159.76 854.904l-.04-.074"/><path d="m1159.72 854.83-.25-.448-.32-.392M1158.49 857.531l-.36.039-.36-.036-.35-.108M1159.92 855.64v.051l-.02.324-.1.361-.16.333-.22.292"/><path d="M1159.27 857.666v-.002l.3-.395.21-.451.13-.488.03-.507M1156.38 856.389l-.11-.36-.05-.375.02-.375M1157.09 857.25l-.28-.238-.24-.29M1153.16 861.389l.18.332.11.361.04.375-.03.377-.11.362-.17.334-.24.294-.28.241-.33.18-.36.112-.37.04-.37-.035-.36-.108-.33-.176-.29-.238-.23-.29-.18-.333-.11-.361-.04-.375.03-.377.11-.362.17-.334.23-.294.29-.241.33-.18.35-.112.37-.039.38.035.35.107.33.176.29.238.24.291Z"/><path d="M1153.08 864.185v-.003l.31-.397.24-.452.14-.489.05-.509-.06-.508-.15-.487-.24-.449-.32-.393M1143.27 868.146l.24-.286.29-.234.34-.173.36-.106.37-.033.38.039.36.111.33.178.29.239.24.29.17.33.11.358.04.371-.04.37-.11.356-.18.327-.24.286-.29.235M1146.66 870.629v-.002l.32-.387.24-.442.15-.481.05-.501-.05-.502-.14-.483-.24-.446M1145.24 871.082l-.38.033-.37-.039M1142.99 869.571l-.04-.371.04-.371M1143.8 870.787l-.29-.239-.24-.29M1136.36 874.895l.17-.312.24-.271.29-.218.33-.158.36-.092.37-.022.37.05.36.118.33.183.29.24.24.288.17.325.11.35.04.361-.03.359-.11.341-.17.313-.24.27-.29.218-.33.158M1140.21 876.79v-.002l.32-.366.24-.422.14-.462.05-.484-.05-.488-.15-.473-.24-.44M1136.54 876.631l.02.026.22.262.29.24.33.183.36.118.37.049M1136.54 876.632l-.02-.036-.16-.29-.11-.349-.04-.361M1130.05 882.463l-.18-.318-.12-.339-.04-.345.02-.34v-.002l.01-.011.09-.308.16-.289.23-.247.27-.195.32-.136.35-.071.36-.003.37.064.35.129.33.189.28.242.24.286.18.318.12.339.05.346-.03.339-.1.321-.16.29-.22.24-.01.005v.001l-.27.195-.32.136-.35.07-.36.004-.37-.064-.35-.129-.33-.19M1133.95 882.474v-.002l.31-.334.22-.391.13-.434.04-.459-.07-.468-.15-.458M1125.54 888.52l-.35-.083-.35-.143-.32-.198-.28-.244-.24-.282-.19-.309-.12-.323-.06-.326.01-.316.08-.294.14-.26.03-.028.01-.005.17-.183.26-.165.29-.106.33-.045.35.02.35.083.34.144.33.197.28.245.24.282.19.309.12.324.06.326-.01.316-.08.294-.08.148-.01.004-.06.107-.2.217-.26.164-.3.106-.33.044M1128.07 887.496v-.001l.28-.292.2-.353.1-.397.02-.427-.08-.44-.17-.438-.25-.418M1118.52 889.935l.23-.129.01-.004.01-.002.25-.065.3-.012.33.047.33.106.33.16.31.208.29.248.24.278.19.297.14.306.07.303.01.287v.015l-.05.246-.12.225-.18.18v.001M1122.76 891.703l.24-.243.16-.304.08-.353-.01-.389-.1-.409-.19-.414-.26-.403-.33-.376M1118.17 890.888l.08.302.13.306.2.298.24.277.28.248.31.208.33.16.34.105M1120.4 892.839l.31-.012"/><path d="m1121.21 892.628 1.52-.912.02-.012.01-.002M1118.22 890.339l-.06.261M1183.34 823.877l-.06-.02-.11-.071-.16-.12-.19-.165-.23-.202-.18-.169-.06-.064-.26-.254-.26-.265-.26-.267-.23-.257-.21-.239-.17-.21-.14-.174-.08-.131-.04-.084.01-.032.07.02.11.072.16.121.19.164.23.202.24.233.26.253.02.022.24.243.25.266.24.258.21.238.17.21.14.174.08.132.04.084-.02.032Zm0 0-.63 1.117"/><path d="m1180.71 821.153-.14.08-.88.475-.24.131M1118.71 888.611l-.49 1.731-.06.261.01.288.07.302.14.306.19.297.25.278.28.247.31.208.33.16.33.106.33.048.3-.012.28-.072.23-.128 1.54-.925"/><path d="m1121.48 891.376.07.302.01.288v.011M1118.21 890.343l.01-.014.11-.211.18-.18.23-.128.02-.006.01-.002M1122.75 891.706l.01-.002M1121.39 892.451l-.18.178v.002M1119.32 889.726l.33.048.33.106M1120.62 890.246l.28.248.25.278M1123.84 884.891l-.2 1.41-.02.316.06.326.13.323.18.309.24.282.29.244.32.198.34.143.35.084.35.02.33-.044.3-.107 1.21-.673M1127.15 886.818l.06.326M1127.19 887.46l-.08.294"/><path d="m1123.63 886.3.01-.035.07-.258.15-.261.03-.033v-.005l.17-.178.26-.165M1127.72 887.721l.35-.222v-.003M1126.97 888.015l-.21.216-.24.154-.01.01M1124.62 885.259l.33-.044M1125.3 885.235l.35.083M1126.31 885.659l.29.244M1129.6 880.438l.1 1.028.04.345.12.34.18.318.24.284.29.242.32.19.36.13.36.063.36-.003.35-.07.32-.136.93-.429"/><path d="M1129.7 881.466v-.035l.03-.305v-.024l.09-.297.17-.289.22-.247.28-.195.31-.136.35-.071.36-.003.37.064.35.129.33.189.29.242.24.286.18.318.11.339.05.345M1133.3 882.438l-.16.289-.21.237M1133.57 882.74l.38-.263v-.003M1132.92 882.974l-.27.188-.01.007M1136.24 876.268l.3.369.24.288.29.24.33.183.35.118.38.05.37-.022.39-.067M1139.88 875.032l.11.35.03.361"/><path d="m1136.54 876.636-.02-.036v-.004l-.02-.032-.14-.253-.11-.35-.04-.361.04-.358.1-.342.18-.312.24-.27M1138.89 877.426l.48-.124.45-.213.39-.296v-.003M1139.47 877.025l-.29.219-.33.158-.1.027-.03.006-.17.045-.05.013M1138.11 873.828l.37.049.36.118M1139.17 874.179l.29.24.24.288M1142.98 870.604l.4.321.45.242.48.149.51.054.5-.046.49-.142.45-.234.4-.315v-.005"/><path d="m1146.22 870.575-.3.234-.33.173-.36.106-.37.033-.38-.039-.36-.111-.33-.178-.29-.239-.24-.29-.17-.33-.11-.357-.04-.372.04-.37.11-.356.18-.327.24-.286M1144.87 867.32l.37.039.36.111.33.178.29.239.24.29.18.33.11.357.03.371M1146.75 869.606l-.11.356-.18.327M1143.8 867.633l.33-.174.36-.105M1149.83 864.533l.45.238.48.145.5.047.5-.053.48-.151.45-.244.38-.326.01-.003"/><path d="m1153.45 862.84-.1.362-.18.334-.23.294-.29.241-.32.18-.36.112-.37.039-.37-.034-.36-.108-.33-.176-.29-.238-.24-.29-.18-.333-.11-.361-.04-.375.04-.377.1-.362.18-.334.23-.294.29-.241.32-.18.36-.112M1153.16 861.396l.17.331.12.362.03.375M1151.57 860.548l.37.035.36.107.33.176M1156.11 858.006l.44.239.48.145.49.048.49-.052.46-.15.42-.242.37-.324.01-.004M1159.75 854.91l.11.36.01.032.04.343v.018l-.02.357-.09.361-.16.333-.22.292-.28.241-.31.178-.34.111-.36.039-.37-.036-.35-.108-.32-.176-.29-.238-.24-.29-.18-.332-.12-.36-.05-.375.02-.375.1-.361.16-.333.22-.292.27-.24.32-.179.34-.111.36-.038.36.035.35.108"/><path d="m1159.04 854.052.29.237.24.291.14.27.02.033.02.028M1165.79 849.72l-.14.323-.1.146-.01.007-.09.13-.25.23-.3.17-.32.102-.34.031-.35-.041-.34-.113-.32-.179-.29-.238-.24-.289-.19-.329-.12-.355-.07-.368.01-.368.08-.352.14-.323.2-.283.25-.23.29-.169M1165.87 848.999l-.06-.368-.13-.355-.19-.328-.24-.289-.29-.238-.32-.179-.34-.113M1162.45 851.799l.46.152.47.056.47-.042.44-.138.39-.23.34-.311.01-.004M1163.89 847.094l.07-.006.34.041M1167.37 845.392l.42.249.44.162.45.071.43-.023.4-.118.36-.206.3-.287.01-.003M1170.93 842.037l.14.346.08.356.02.353-.05.336-.11.306-.17.264-.23.213-.01.011-.01.002-.24.139-.3.087-.32.017-.33-.052-.33-.121-.31-.183-.28-.24-.24-.287-.2-.323-.14-.346-.08-.357-.02-.353.05-.336.12-.306.17-.264.22-.212.1-.059.01-.005.16-.089.29-.086.33-.017.33.053.32.12.31.184M1171.61 839.379l.37.327.41.257.42.179.41.092.4.002.36-.087.32-.174.25-.253M1175.42 838.227l-.19.187-.23.128-.14.032-.13.033-.3-.002-.3-.069-.31-.132-.3-.19-.28-.242-.25-.284-.2-.315-.16-.333-.1-.34-.04-.333.02-.313.08-.282.06-.109.07-.129.19-.187.23-.128.27-.064.29.002.31.069.31.132.3.19.28.242.25.283.2.315.16.333.1.34.04.332-.02.313-.08.282-.13.239Zm0 0-.87 1.495M1173.14 835.22l-1.66.436M1175.36 834.345l.37.331.39.269.39.198.38.119.35.035.32-.049.26-.132.2-.211M1179.05 833.189l-.15.156-.2.097-.23.037-.26-.027-.15-.047-.13-.041-.29-.146-.29-.199-.27-.245-.25-.28-.22-.304-.18-.319-.12-.318-.07-.308v-.04l-.02-.244.04-.251.1-.206.15-.155.19-.098.24-.036.26.027.28.088.29.147.29.199.27.244.25.279.22.305.17.318.13.318.07.308.01.284-.04.25-.09.207Zm0 0-1.03 1.715M1176.7 830.251l-1.85.68M1178.12 830.118l.37.335.37.283.36.221.34.15.31.074.27-.005.2-.084.14-.16M1181.62 829.039l-.1.118-.16.062-.19.004-.23-.055-.25-.111-.27-.164-.28-.209-.26-.247-.26-.276-.23-.293-.19-.3-.15-.294-.11-.278-.05-.251v-.214l.05-.169.11-.118.15-.062h.04l.16-.003.22.055.26.112.27.163.27.209.27.247.25.275.23.293.19.299.1.185.06.109.1.278.05.251.01.215-.06.169Zm0 0-1.13 1.894M1179.05 826.243l-2.04.909M1183.07 825.894l-.06.077-.11.022-.15-.033-.2-.086-.22-.137-.03-.024-.22-.158-.26-.221-.26-.25-.13-.133-.13-.138-.24-.28-.21-.279-.19-.268-.13-.245-.1-.214-.01-.062-.03-.112.01-.127.06-.077.11-.022.01.003.14.03.19.087.23.137.25.182.26.221.26.25.01.01.25.26.24.28.21.279.09.128.09.139.14.245.09.214.05.174-.01.128Zm0 0-.7 1.174-.5.852"/><path d="m1180.46 823.149-.1.051-.12.058-.29.147-.02.008-.37.189-.03.012-.63.317M1181.46 828.016l.18.039.15-.031.08-.104M1181.99 822.24l-.05-.058-.23-.245-.25-.257-.27-.26-.26-.252-.26-.235-.24-.209-.2-.175-.18-.133-.13-.087-.08-.038-.03.013-.92.53M1105.13 894.938l-.45.776.03.094.08.14.12.183.16.218.21.245.08.094M1106.03 895.444l-.45.841-.22.403-.1.188.03.054.08.103.13.148.17.186.21.22.24.242.25.257.27.262.26.256.25.241.23.216.2.183.17.144.12.098.07.048.02-.002.79-.457"/><path d="m1105.26 896.876.02-.002.07.048.12.098.16.143.2.183.24.217.25.241.26.256.26.262.26.257.24.243.2.22.18.187.13.147.08.102.03.054M1107.71 895.405l-.14.289-.03.046-.07.151-.11.213-.03.065-.38.749-.01.098.04.144.1.184.15.217.18.242.23.257.1.113.15.149.27.258.27.244.28.22.04.031.22.156.23.148.21.103.16.054.12.003 1.77-1.061.27-.162"/><path d="m1106.95 896.918.07-.049.11.002.17.054.2.102.24.149.26.187.27.22.22.19.06.054.27.258.25.263.22.257.09.111.1.131.15.217.09.184.04.144-.01.098-.06.049M1111.73 898.316l.06-.042M1110.7 893.698l-.89 1.967-.06.118-.05.143.01.185.06.22.12.247.17.264.21.271.25.268.28.254.29.231.29.199.29.159.12.05.15.063.24.063.2.01.16-.043 1.92-1.175"/><path d="m1114.46 897.192.15-.128.07-.193-.01-.25-.09-.298-.16-.334-.23-.358-.28-.367-.34-.363M1109.75 895.784l.1-.083.01-.013.16-.042.2.008.24.063.27.114.29.159.29.198.29.231.28.254.25.27.21.271.17.265.12.246.06.22.01.185-.05.142-.11.095M1114.22 891.775l-.72 1.906-.03.225.03.254.1.276.15.286.2.285.25.273.28.25.3.219.31.179.31.131.3.08.28.024.24-.032.19-.088 1.76-1.074M1118.17 894.969l.2-.188.12-.251.03-.304-.04-.345-.13-.373-.21-.387-.27-.385-.33-.37"/><path d="m1113.5 893.681.08-.185.15-.139.19-.088.25-.032.27.023.22.059.08.02.31.132.32.178.3.219.28.252.24.273.2.285.1.183.06.103.09.276.04.255-.03.224-.09.186-.14.138M703.221 355.793l.021-.464-.079-.477-.176-.471-.266-.448-.346-.407-.412-.351-.463-.281-.496-.2-.51-.113-.504-.019-.479.073-.436.164-1.7.843"/><path d="m703.222 355.792-.012.045-.108.388-.179.323-.007.011-.028.051-.301.324-.004.003-.371.246-.436.164-.479.075-.505-.02-.51-.112-.496-.201-.464-.281-.413-.351-.346-.408-.266-.448-.176-.472-.078-.477.021-.464.12-.433.215-.385.013-.014.006-.007.279-.299.003-.003.36-.238.016-.011M694.284 362.515l-.164-.492-.259-.46-.344-.413-.416-.348-.472-.27-.51-.182-.528-.087-.527.011-.504.11-1.126.407"/><path d="m694.284 362.514.034.277.028.226-.019.234-.002.026-.02.236-.144.47-.24.425-.33.365-.003.003-.399.287-.462.203-.506.11-.526.012-.528-.087-.511-.182-.472-.27-.417-.349-.345-.412-.258-.461-.164-.492-.062-.504.043-.497.144-.469.241-.426.324-.36.005-.004.273-.195.011-.008.119-.086.407-.179.055-.024M684.385 370.156l.255.47.156.507.053.523-.054.521-.157.497-.256.454-.345.395-.004.004-.415.316-.478.233-.519.136-.539.035-.54-.068-.518-.168-.478-.262-.419-.345-.343-.417-.255-.471-.157-.507-.052-.523.054-.521.158-.497.256-.455.341-.39.004-.004.419-.32.478-.232.519-.137.539-.034.497.064.043.004.518.168.038.022.439.241.419.345.343.416ZM674.595 379.438l.255.477.155.515.051.536-.056.535-.161.514-.259.473-.348.414-.004.004-.418.334-.482.251-.522.153-.542.049-.542-.056-.52-.16-.479-.257-.419-.344-.344-.419-.254-.476-.156-.516-.05-.536.056-.535.161-.514.259-.473.344-.409.004-.005.423-.338.481-.251.522-.152.542-.049.542.056.52.16.479.257.419.344.343.418ZM664.82 389.104l.257.479.159.519.057.54-.049.54-.152.52-.251.478-.338.42-.004.004-.409.341-.473.257-.513.158-.535.054-.536-.052-.516-.157-.476-.255-.418-.344-.345-.418-.257-.479-.159-.519-.057-.54.049-.54.152-.519.25-.479.335-.416.003-.004.414-.345.472-.257.514-.158.535-.054.536.052.516.157.476.255.418.343.345.419ZM650.587 399.795l.022-.082.009-.037.102-.395.23-.473.312-.409.004-.005.391-.339.452-.25.494-.153.518-.05.522.056.505.16.47.256.416.344.346.418.263.476.17.516.07.536-.032.535-.133.514-.23.473-.316.414-.005.004-.387.334-.452.251-.494.153-.518.049-.521-.056-.505-.16-.343-.187-.053-.029-.074-.04-.415-.344-.346-.418-.264-.476-.169-.516-.071-.535.032-.535Zm0 0 .004-.036M651.82 402.618l.061.046M642.161 408.629l.197-.455.216-.301.008-.011.056-.078.003-.005.358-.32.419-.233.465-.137.491-.036.5.068.49.167.459.262.412.345.349.416.272.47.185.506.091.524-.007.52-.104.497-.198.455-.283.395-.004.003-.354.317-.42.233-.37.109-.016.004-.078.023-.491.035-.5-.067-.489-.168-.459-.261-.411-.345-.349-.416-.272-.469-.185-.507-.091-.523.006-.52.104-.497Zm0 0 .115-.274M644.809 412.401l.055.004M634.766 416.905l.236-.361.003-.004.314-.29.105-.057.005-.003.267-.145.426-.11.457-.013.471.086.468.181.446.269.407.348.352.411.284.461.205.492.118.503.026.496-.066.47-.156.426-.24.364-.003.003-.205.189M638.579 420.72l-.377.204-.426.11-.457.012-.471-.086M634.688 418.799l-.119-.503-.026-.496M635.939 420.509l-.407-.347-.352-.412M628.593 424.398l.262-.25.327-.165.329-.066.005-.001.044-.009.416.018.437.111.442.199.429.28.401.35.356.407.298.448.229.471.15.477.067.464-.021.433-.08.293-.002.007-.024.086-.188.324-.003.003-.259.246-.327.166-.378.074-.416-.018-.437-.111-.441-.2-.429-.279-.4-.35-.356-.406-.298-.447-.228-.471-.151-.476-.066-.464.02-.433.105-.386.185-.321.002-.004Zm0 0 1.053-1.819M631.883 428.691l.019-.006M730.468 338.408l-.036.025-.109-.049-.178-.12-.24-.186-.294-.247-.334-.296-.364-.335-.379-.361-.378-.373-.365-.37-.258-.272-.078-.082-.294-.323-.242-.28-.18-.227-.111-.165-.038-.095.037-.024.11.049.178.121.241.187.293.246.335.297.363.334.378.36.378.372.363.37.336.353.294.323.204.237.038.043.18.227.111.165.039.096Zm0 0-.175.321-.078.142M726.626 334.628l-1.587.903"/><path d="m632.468 428.278-.002.003-.262.25-.303.153-.024.012-.378.075-.416-.019-.437-.111-.441-.199-.429-.28-.4-.35-.356-.406-.298-.447-.228-.47-.151-.477-.066-.463.02-.434.105-.386.187-.324.003-.003M632.336 425.727l.229.471.15.477.066.464-.02.434M629.902 422.138l-1.312 2.268M629.18 423.989l.334-.067.006-.001.038-.007.416.018.437.11.442.2M635.704 415.119l-.943 1.793-.156.426-.066.47.027.496.118.503.205.491.284.46.352.411.407.347.445.269.467.181.471.087.457-.013"/><path d="m634.762 416.913.011-.018.228-.347.003-.003.311-.287.11-.059.005-.003.262-.142.425-.111.458-.013.471.086.468.181.446.27.407.347.352.412.284.46.205.492.118.503.026.497-.066.47-.156.425-.237.36-.003.005-.2.184-.008.007-.106.098-.378.204-.354.092-.071.018M646.816 411.29l-.28.39-.003.005-.358.32-.42.233-.354.104-.016.005-.094.027-.429.031-.062.004-.5-.067-.489-.168-.459-.261-.412-.345-.348-.416-.272-.47-.185-.506-.092-.523.007-.52.104-.497.122-.282.075-.173.223-.312.008-.011.052-.072.004-.003.354-.317M646.852 408.788l.185.506.091.524M642.674 407.403l-.518 1.233M644.367 407.061l.5.068.489.167M655.48 401.893l-.313.41-.003.004-.392.339-.451.25-.495.153-.517.049-.522-.056-.505-.159-.29-.159-.053-.029-.058-.031-.069-.038-.415-.343-.346-.418-.263-.477-.17-.515-.071-.536.032-.535.012-.044.019-.074.01-.038.093-.358.229-.473.316-.413.004-.004.388-.335M653.113 397.609l.522.056.505.16.47.256.416.344.346.419.263.476M655.84 400.907l-.133.514M650.639 399.184l-.061.619M652.102 397.812l.494-.153M661.509 393.215l-.476-.255-.419-.344-.344-.419-.257-.478-.16-.519-.056-.54.048-.54.153-.52.25-.479.338-.42.005-.004.408-.341.473-.256.514-.159.535-.054.535.053.516.156.477.255.418.344.344.419.257.478.16.519.057.54-.049.54-.153.52-.25.479-.334.415-.004.005-.414.345-.472.256-.514.159-.535.054-.535-.053-.516-.156ZM674.831 382.024l-.259.473-.343.409-.004.004-.423.339-.482.25-.521.153-.543.049-.541-.056-.521-.16-.479-.257-.419-.344-.343-.418-.255-.477-.155-.516-.051-.536.057-.535.16-.514.26-.473.347-.413.005-.004.418-.335.482-.25M673.824 378.685l.42.344.343.419.254.476M674.996 380.439l.05.536M684.788 372.185l-.158.497-.256.454-.34.391-.004.004-.419.32-.479.233-.518.136-.54.035-.539-.068-.519-.168-.478-.262-.418-.346-.344-.416-.254-.471-.157-.507-.053-.523.055-.521.158-.497.256-.455.344-.394.005-.004.415-.316.478-.233.519-.136.539-.034.539.068.518.168.478.262.418.346.343.416.255.47.157.507M693.588 364.776l-.004.004-.403.29-.463.203-.504.11-.527.012-.528-.087-.511-.182-.473-.27-.416-.348-.344-.413-.259-.461-.164-.492-.062-.504.042-.496.145-.47.241-.425.329-.364.004-.004M691.582 360.27l.528.087.51.183.472.27.416.348.344.412.259.46.164.492.062.504-.018.208M694.154 363.99l-.24.426M689.973 360.68l.011-.008.108-.078.463-.203M702.583 356.937l-.003.003-.375.249-.436.165-.479.074-.505-.019-.51-.113-.497-.2-.464-.282-.412-.351-.346-.407-.266-.449-.176-.471-.079-.477.021-.464.121-.434.214-.385.019-.02.006-.006.277-.297.004-.003.371-.245.436-.165.479-.073.505.02.51.112M701.496 352.9l.462.281.413.351.345.407.266.448M711.17 349.649l-.177.337-.262.274-.248.146-.089.053-.399.117-.444.031-.474-.058-.485-.143-.477-.223-.451-.294-.408-.355-.349-.402-.276-.432-.193-.448-.102-.444-.008-.424.051-.226.036-.163.178-.337.263-.273.337-.198.399-.117.444-.03.474.058.484.143.477.223.45.294.408.355.348.401.276.432.193.446.102.444.009.424-.087.389ZM707.193 346.188l-2.072 1.154M718.123 344.443l-.132.282-.215.217-.289.143-.352.063-.402-.02-.03-.007-.406-.093-.453-.178-.453-.249-.436-.31-.402-.359-.352-.394-.288-.415-.215-.419-.062-.193-.069-.214-.044-.379.045-.337.133-.282.216-.216.289-.142.352-.062.402.019.436.101.453.179.452.248.436.31.4.358.352.394.288.414.214.418.132.407.045.379-.045.337ZM713.916 341.083l-2.498 1.457M723.669 340.986l-.16.155-.233.081-.299.004-.352-.073-.392-.148-.417-.216-.426-.277-.418-.326-.395-.363-.355-.387-.304-.395-.238-.388-.166-.366-.085-.331-.003-.281.081-.222.16-.154.234-.08.3-.004.352.074.362.137.03.011.416.216.425.277.418.325.393.363.356.386.302.395.239.387.166.366.086.33.003.282-.005.013-.075.209ZM719.664 337.299l-2.742 1.619M727.862 338.866l-.099.09-.173.017-.24-.058-.298-.13-.299-.171-.045-.025-.377-.256-.395-.306-.399-.344-.387-.368-.127-.133-.233-.245-.319-.375-.266-.356-.093-.147-.11-.176-.131-.279-.055-.223.012-.083.011-.077.1-.089.174-.015.24.058.298.13.344.197.043.029.333.227.395.305.398.343.106.101.281.267.096.101.263.277.318.373.266.356.203.323.132.279.03.122.026.101-.023.16Zm0 0-.403.794M723.939 335.132l-.199.117-2.72 1.591M731.45 339.563l-.043-.113-.115-.181-.182-.242-.241-.295-.292-.336-.332-.364-.147-.155M622.5 446.213l.309.251.308.229.134.086"/><path d="m618.96 441.486-.621 1.081-.007.02.066.093.137.162.202.226.26.28.307.324.343.356.365.373.374.376.368.366.349.341.315.302.27.253.214.193.15.127.08.055.368-.201.333-.181"/><path d="m618.34 442.567.08.054.15.126.214.193.27.253.315.303.349.341.369.366.375.378.366.373.343.356.307.325.26.28.201.225.137.162.065.093-.008.019M620.164 437.387l-1.113 1.875-.633 1.069v.157l.074.224.144.284.21.331.117.16.15.206.313.387.348.394.321.334.048.051.377.361.369.323.348.274.313.214.24.13.027.015.209.07.144-.006 1.288-.657"/><path d="m618.418 440.33.073-.084.144-.007.209.07.266.145.314.213.006.005.342.269.37.324.064.062.313.3.139.144.231.242.349.394.313.388.267.367.209.331.144.283.074.224-.001.156-.074.083M621.857 433.687l-1.675 2.786-.065.219.011.283.087.339.003.007.157.373.226.406.283.418.331.413.365.393.384.357.391.307.38.247.357.176.318.098.269.017.196-.06.012-.004.224-.104.433-.201"/><path d="m620.184 436.473.139-.144.208-.066.268.017.319.098.357.176.381.246.391.308.385.358.365.393.331.414.284.419.226.407.16.38.086.338.008.219.003.064-.052.171-.014.047-.14.144M625.133 428.556l-1.53 2.558-.128.275-.049.339.031.389.112.424.187.444.255.446.313.431.36.4.393.353.41.292.413.222.398.141.369.056.325-.032"/><path d="m623.605 431.114.203-.2.269-.119.326-.033.369.056.398.141.149.08.264.141.411.293.394.354.36.4.314.432.255.447.187.444.003.012.108.413.031.389-.05.338-.129.274-.203.2-.27.118M721.351 370.126l.187-1.335.021-.504-.088-.518-.191-.511-.289-.486-.375-.441-.447-.381-.501-.304-.537-.216-.551-.121-.545-.021-.517.082-.47.179-1.864.898"/><path d="m721.538 368.791-.015.054-.113.417-.213.389-.007.013-.01.017-.323.353-.005.003-.4.268-.47.18-.518.082-.545-.02-.551-.12-.538-.217-.502-.304-.447-.381-.375-.442-.289-.486-.192-.513-.087-.518.02-.504.13-.471.231-.419.042-.047.006-.006.272-.295.004-.004.389-.26.016-.011M712.067 377.348l-.172-1.233-.178-.533-.282-.5-.373-.447-.451-.377-.511-.293-.552-.197-.572-.093-.569.013-.546.12-1.244.423"/><path d="m711.897 376.116.068.547-.001.01-.023.293-.003.027-.017.209-.154.51-.26.463-.354.396-.005.004-.43.311-.501.223-.545.12-.57.014-.572-.094-.553-.197-.512-.292-.451-.378-.373-.447-.282-.501-.178-.534-.068-.547.044-.539.156-.51.259-.463.351-.391.004-.005.348-.251.012-.008.076-.056.452-.2.048-.021M701.198 384.43l.277.511.17.549.058.569-.058.564-.17.54-.276.494-.372.429-.006.004-.448.344-.518.253-.561.149-.585.038-.584-.073-.562-.182-.518-.284-.453-.375-.373-.451-.277-.511-.17-.55-.057-.568.006-.061v-.006l.051-.498.171-.54.107-.191.17-.303.368-.424.004-.005.454-.348.518-.252.469-.124.092-.025.085-.005.006-.001.493-.032.584.073.562.183.517.283.454.375.372.451ZM690.601 394.514l.276.517.168.56.055.581-.06.58-.174.558-.281.513-.376.449-.005.004-.453.364-.522.272-.566.166-.588.053-.587-.061-.564-.173-.52-.278-.454-.374-.373-.453-.275-.517-.169-.56-.055-.581.061-.581.174-.558.215-.393.005-.009.06-.111.373-.444.004-.005.372-.298.086-.069.522-.272.566-.166.588-.053.39.04.197.021.422.13h.002l.14.043.519.278.454.374.373.453ZM680.006 405.001l.279.519.173.562.061.586-.053.585-.165.564-.272.519-.367.455-.005.004-.444.37-.512.278-.558.171-.58.059-.581-.057-.559-.171-.517-.276-.454-.373-.373-.454-.279-.519-.173-.562-.061-.586.053-.585.166-.563.271-.52.363-.45.004-.005.448-.374.513-.278.557-.171.581-.059.581.057.56.17.516.277.454.373.373.454ZM664.555 416.574l.005-.018.14-.538.249-.512.34-.443.004-.005.425-.366.491-.271.536-.166.562-.053.567.062.548.173.51.279.451.373.375.453.285.516.184.559.076.581-.036.579-.145.557-.25.512-.344.447-.004.004-.421.363-.491.27-.536.165-.562.053-.566-.062-.549-.173-.343-.188-.058-.031-.108-.059-.451-.373-.375-.453-.285-.516-.184-.559-.075-.58.028-.46.007-.12Zm0 0 .002-.032M665.891 419.636l.072.053M655.395 426.122l.215-.492.197-.273.009-.012.099-.137.003-.005.389-.346.456-.251.505-.147.534-.037.543.074.53.182.499.284.447.375.378.45.295.51.2.548.098.567-.009.563-.114.537-.215.492-.309.426-.004.004-.385.342-.456.251-.37.107-.018.005-.117.034-.533.037-.543-.074-.53-.183-.498-.284-.447-.374-.378-.45-.294-.509-.201-.548-.098-.566.008-.563.114-.537Zm0 0 .043-.107M658.262 430.21l.068.003M647.34 435.047l.259-.389.002-.004.343-.313.084-.045.006-.003.32-.171.462-.118.497-.012.512.094.508.198.484.292.441.377.382.446.307.499.221.532.127.544.028.537-.073.507-.171.459-.262.393-.004.003-.196.179-.009.008-.133.122-.411.219-.462.117-.497.011-.511-.094-.507-.198-.484-.292-.44-.377-.382-.445-.307-.498-.221-.531-.127-.544-.028-.536.072-.508.17-.459Zm0 0 .005-.01M650.602 439.518l.087-.016M640.409 443.455l.203-.344.002-.004.284-.268.357-.177.339-.065.006-.002.067-.012.452.021.475.122.48.217.466.305.434.38.385.44.323.484.247.51.162.515.07.5-.024.467-.08.285-.002.007-.034.124-.206.348-.003.003-.283.264-.356.176-.411.079-.452-.022-.475-.123-.479-.217-.449-.293-.016-.011-.338-.296-.096-.083-.385-.44-.323-.483-.246-.509-.162-.514-.071-.501.023-.467.116-.416Zm0 0 .043-.075M644.172 447.751l.023-.007M750.597 349.686l-.035.029-.113-.05-.189-.128-.256-.2-.314-.264-.36-.319-.391-.362-.409-.39-.409-.403-.395-.401-.364-.383-.001-.001-.32-.35-.265-.305-.198-.247-.123-.18-.045-.106.035-.028.115.051.189.128.256.201.314.265.36.319.391.361.407.389.409.402.393.4.365.382.32.351.264.305.199.247.002.004.122.177.046.106Zm0 0-.206.376-.668 1.221-.139.254M746.443 345.598l-1.713.974"/><path d="m645.154 446.084-.024.467-.078.277-.002.008-.037.131-.203.344-.002.004-.287.267-.327.162-.028.014-.412.079-.452-.023-.474-.122-.479-.217-.451-.295-.015-.009-.34-.298-.093-.081-.386-.44-.322-.484-.247-.508-.162-.515-.071-.5.024-.467.116-.416.048-.082.156-.266.004-.003.282-.265.355-.177.346-.067.006-.001.06-.012M642.586 442.733l.48.217.466.305.434.379.386.441.276.414.047.07.165.342.082.168M641.739 441.11l-1.337 2.352M644.164 447.758l1.073-.34M652.071 438.485l-.121.182-.138.206-.002.005-.193.175-.008.007-.142.13-.383.204-.027.014-.369.094-.094.024-.496.011-.512-.095-.507-.197-.483-.292-.441-.377-.381-.445-.307-.498-.222-.532-.127-.544-.028-.535.072-.508.171-.459.011-.018.25-.375.004-.004.338-.309.09-.048.006-.003.314-.168.462-.118.497-.012.512.094.508.198.484.292M651.633 435.407l.307.499.222.532.127.544.027.536-.073.508M648.344 433.09l-1.008 1.965M650.598 439.526l.425-.078.74-.136M660.141 429.434l-.003.005-.39.345-.456.251-.352.103-.018.005-.134.039-.458.031-.076.006-.543-.075-.53-.182-.498-.284-.447-.374-.378-.45-.294-.509-.2-.548-.098-.567.008-.562.113-.538.051-.115.164-.376.206-.285.008-.012.094-.13.005-.004M660.485 426.306l.2.549.098.566-.008.563-.114.538-.216.491M656.297 424.867l.455-.251.505-.147.534-.038.543.074.531.183M655.931 424.771l-.544 1.36M658.254 430.22l1.55.075M670.114 418.344l-.249.512-.34.442-.004.005-.426.367-.49.27-.537.165-.562.053-.566-.062-.548-.173-.286-.156-.058-.032-.085-.046-.08-.044-.451-.373-.375-.453-.285-.516-.184-.559-.076-.58.035-.58.005-.019.006-.022.005-.018.129-.497.25-.512.343-.448.005-.004.421-.362.49-.271M665.879 419.645l.514.379M664.589 415.89l-.046.694M668.922 414.726l.451.373.376.453M679.655 408.796l-.004.005-.449.374-.512.278-.558.171-.58.059-.581-.057-.56-.17-.516-.277-.454-.373-.373-.454-.279-.518-.173-.563-.061-.585.053-.586.165-.563.272-.519.367-.456.005-.004M679.996 405.011l.279.519.173.563.061.585-.053.586-.165.563M676.375 403.91l.557-.171.581-.058.581.056.56.17.516.277M690.205 398.276l-.005.005-.458.368-.522.272-.565.166-.588.053-.587-.061-.564-.173-.52-.278-.454-.373-.373-.454-.276-.517-.168-.56-.055-.581.06-.581.174-.557.221-.404.005-.009.055-.101.377-.448.005-.005M690.859 397.319l-.281.513M686.336 393.743l.01-.008.075-.06.522-.272M688.098 393.185l.389.04M689.766 393.696l.454.374.373.453M700.819 388.09l-.004.005-.453.348-.518.253-.562.148-.584.039-.584-.073-.562-.182-.518-.284-.454-.375-.372-.452-.277-.51-.17-.55-.058-.569.007-.066.001-.006.05-.493.171-.54.107-.191.004-.008.166-.295.372-.428.005-.004M701.633 385.499l.058.568-.058.565-.169.54-.276.494M697.035 383.514l.518-.253.47-.124M698.113 383.112l.092-.006h.006l.486-.032M711.149 378.575l-.004.004-.435.315-.5.222-.546.121-.57.013-.572-.093-.552-.197-.512-.292-.452-.378-.373-.447-.281-.501-.179-.534-.068-.547.045-.539.155-.51.26-.463.354-.396.005-.003M709.539 373.776l.552.197.512.293.451.377.373.447.281.5.178.533M711.957 376.67l-.022.275-.002.027-.019.237M707.855 373.817l.546-.12.569-.013M717.51 365.377l.517-.082.545.021.551.12.537.217.501.304.447.38.375.442.288.486.192.511.087.518-.02.504-.128.471-.206.376-.007.013-.017.03-.32.349-.003.004-.405.271-.47.18-.518.082-.545-.02-.552-.12-.537-.217-.502-.304-.447-.381-.375-.442-.289-.486-.192-.513-.087-.518.021-.504.129-.471.231-.419.048-.053.006-.007.27-.292.004-.003.401-.268M730.082 362.088l-.19.367-.281.299-.294.176-.068.042-.429.128-.479.035-.511-.06-.524-.154-.516-.241-.488-.319-.442-.384-.378-.435-.3-.47-.21-.485-.113-.483-.011-.461.058-.265.034-.158.19-.367.282-.298.363-.217.429-.128.479-.034.511.061.523.154.515.241.487.318.441.384.378.434.093.146.207.323.055.128.155.357.113.482.012.461-.091.423Zm0 0-.751 2.557M725.777 358.338l-2.265 1.239M737.533 356.395l-.14.308-.229.237-.31.156-.378.071-.432-.019-.069-.016-.055-.013-.345-.078-.342-.134-.147-.058-.49-.268-.471-.336-.435-.388-.382-.428-.313-.45-.234-.454-.073-.223-.072-.22-.05-.412.046-.367.141-.308.23-.236.31-.156.379-.069.432.019.469.108.204.08.284.112.32.176.169.092.47.335.434.388.381.427.08.113.234.336.202.392.031.062.145.441.051.413-.045.367Zm0 0-1.12 2.847M732.983 352.76l-2.721 1.569M743.446 352.597l-.169.17-.249.09-.32.007-.378-.078-.421-.158-.45-.232-.459-.299-.452-.353-.427-.393-.151-.165-.234-.254-.33-.428-.084-.137-.176-.285-.182-.398-.095-.359-.006-.307.083-.243.17-.169.25-.089.32-.005.378.078.094.035.221.083.106.04.449.233.263.171.196.127.45.352.427.393.384.418.329.428.261.42.181.397v.001l.097.359v.002l.007.305-.009.026-.074.217Zm0 0-1.089 2.357"/><path d="m739.118 348.605-1.305.765-1.306.766-.37.216M747.888 350.243l-.103.099-.184.021-.255-.061-.319-.138-.369-.211-.253-.172-.153-.104-.426-.329-.431-.372-.418-.398-.294-.31-.096-.1-.346-.406-.266-.353-.024-.033-.167-.264-.055-.088-.146-.304-.063-.243.021-.175.104-.099.184-.019.256.061.319.138.329.189.04.023.405.275.426.33.404.349.026.021.417.398.389.409.346.405.29.386.222.352.146.303.04.152.022.083.002.009-.02.176Zm0 0-.512 1.001-.013.025-.253.496-.096.187M743.643 346.202l-.782.456-.642.374-1.742 1.015M750.88 352.062l.678-1.187-.043-.119-.12-.194-.193-.26-.258-.317-.313-.362-.201-.221M633.82 466.33l.25.202.331.244.277.177.211.103.138.025.909-.515M629.951 461.254l-.665 1.158-.009.017.069.097.146.172.216.24.279.3.331.348.37.383.395.402.404.407.399.396.377.37.342.329.294.277.233.212.165.141.089.063.433-.236.615-.336.816-.446"/><path d="m629.285 462.412.089.063.164.14.233.212.294.277.343.329.378.371.399.397.406.407.395.404.37.383.331.348.279.3.217.24.145.171.068.096-.011.016M631.309 456.898l-.483.818-.398.675-1.005 1.702-.001.166.077.239.155.303.225.355.071.098.216.296.338.417.376.425.215.224.184.192.408.391.401.352.377.298.341.234.29.16.229.08.159-.002.697-.358.738-.379.328-.169.22-.113"/><path d="m629.426 460.093.082-.087.158-.004.228.08.29.16.251.172.09.061.378.299.402.352.397.381.011.011.401.417.376.426.339.418.287.394.225.356.154.302.077.239-.003.165-.082.086M633.204 452.988l-.296.496-1.511 2.532-.011.033-.062.2.01.304.065.253.027.11.167.396.005.012.243.438.306.451.357.446.395.425.417.387.423.334.413.268.388.193.347.11.047.004.246.018.227-.066.255-.119.432-.203 1.801-.843"/><path d="m631.395 456.016.153-.152.227-.067.292.021.08.025.267.084.388.193.414.269.048.038.376.296.418.388.395.426.358.447.306.451.244.439.149.358.021.05.092.363.009.303-.052.166-.021.066-.154.152M636.801 447.517l-1.647 2.787-.142.295-.055.363.029.376.003.042.12.458.053.127.148.351.275.482.339.466.358.397.032.035.426.383.146.104.299.214.447.242.433.155.401.063.355-.031 2.936-1.196"/><path d="m635.156 450.304.221-.214.294-.125.354-.032.402.062.433.155.149.081.299.161.446.318.426.384.391.433.309.425.03.042.276.482.043.103.147.351.011.026.119.457.031.418-.056.363-.142.294-.222.213-.294.125M656.691 497.374l.668 8.956 2.042 9.789.251 1.204 3.589 9.334.726 1.888 5.224 8.527 1.276 2.083 5.788 8.155 1.745 2.459 6.298 7.767 1.953 2.408 7.546 6.562 1.98 1.722 8.423 5.39 1.658 1.061 9.173 3.983 1.012.439 3.308.786M1192.99 720.076l-2.01-.242-9.93-1.195-9.93-1.195-9.93-1.195-9.92-1.194-9.93-1.195-9.93-1.195-9.93-1.195-4.05-.488-9.04-1.088-9.93-1.195-9.93-1.195-9.93-1.195-3.45-.415"/><path d="m1075.15 705.894 5.78 8.161 5.78 8.161 5.78 8.161 5.78 8.161 5.78 8.161 5.78 8.161 5.78 8.161 5.78 8.161 5.78 8.161 5.77 8.161 5.78 8.161 5.78 8.161 2.51 3.539.09.129 5.78 8.161.54.766 6.3-1.833 2.35-.682 7.44-2.166 2.47-.718 1.22-.354 9.6-2.794 6.28-1.826 9.65 2.629 9.64 2.63 9.65 2.63 1.97.535 8.87 4.613 8.87 4.612 7.4 3.847 8.98 4.416 8.97 4.416 7.93 3.904 8.81 4.731 8.81 4.73 7.5 4.028 7.51-5.359 4.29-6.169-6.36-7.712-6.17-7.475-6.37-7.712-6.18-7.495-6.37-7.712-6.2-7.516-6.37-7.712-6.22-7.536-6.67-7.452-6.67-7.451-6.67-7.452-6.66-7.452-6.67-7.451-6.67-7.452-6.67-7.452-6.67-7.451-6.72-7.508-9.93-1.181-3.15-.374-9.93-1.181-.77-.092-9.93-1.181-9.93-1.181-9.93-1.18-9.93-1.181-9.93-1.181-2-.238-9.93-1.181-7.94-.944-9.93-1.181-9.93-1.181-4.47-.531-1.05 1.227-3.79 4.405Z"/><path d="m1303.64 848.409-6.36-7.711-6.21-7.516-6.37-7.71-6.22-7.536-6.37-7.711-6.24-7.557-6.37-7.711-6.26-7.577-6.67-7.451-6.67-7.451-6.67-7.451-6.67-7.45-6.67-7.451-6.67-7.451-6.67-7.45-6.67-7.451-6.89-7.699 4.63-5.826M982.762 817.601l.547 6.465.843 9.965.843 9.964.842 9.964.843 9.965.843 9.964.843 9.965.149 1.767 2.69 2.436M1115.99 980.426l1.37-1.85-4.68-8.837-4.68-8.837-1.78-3.361-4.33-9.018-4.32-9.017-1.77-3.699-1.88-3.681M1518.58 440.034l4.7 2.37 7.24 3.324 9.19 3.933 2.32.989 9.43 3.313 2.03.711 9.65 2.627 1.67.454 9.05 2.079.02.004 2.76.633 9.82 1.868 2.5.475 9.95 1.021 2.01.205 9.97.672 4.44.299 10 .078 2.56.02 9.98-.73 5.37-.393 9.95-.972 2.91-.284 9.8-2.029 6.06-1.257 9.78-2.12 3.09-.67 9.46-3.238 6.49-2.221 9.42-3.352 3.11-1.108 9-4.37 6.62-3.217 8.87-4.629 3.02-1.58 8.41-5.421 6.47-4.176 8.08-5.894 2.85-2.081 7.69-6.395 6.04-5.03 7.07-7.073 2.61-2.614 6.86-7.279 5.38-5.714 5.91-8.066 4.52-6.159 5.87-8.094 2.31-3.188 4.86-8.744 3.58-6.462 4.56-8.902 1.86-3.63 3.68-9.298 2.56-6.47 3.18-9.479 1.35-4.008 2.4-9.709 1.52-6.155 1.83-9.83.8-4.262 1-9.95.55-5.517.54-9.985.24-4.328-.53-9.986-.24-4.582-.65-9.979-.28-4.156-1.74-9.847-.85-4.777-2.22-9.749-.55-2.374-2.72-9.621-1.2-4.237-3.62-9.323-1.81-4.679-4.1-8.869-4.41-8.975-1.85-3.752-5.13-8.584-2.38-3.983-5.78-8.16-2.91-4.105-6.37-7.709-3.4-4.116-6.9-7.232-3.84-4.02-7.4-6.729-4.21-3.825-7.84-6.198-4.49-3.54-8.26-5.637-4.65-3.176-8.64-5.042-4.71-2.756-8.98-4.407-4.67-2.29-9.28-3.729-4.5-1.808-9.54-2.994-4.23-1.327-9.39-2.622-9.75-2.202-5.18-1.167-9.91-1.339-4.66-.63-9.97-.755-2.51-.19-9.99-.402-5.16-.208-9.98.616-4.46.276-9.96.848-4.69.4-9.85 1.714-4.54.79-9.74 2.256-5.51 1.276-9.57 2.887-4.35 1.311-9.36 3.533-5.98 2.262-9.12 4.108-3.96 1.786-8.83 4.692-6.14 3.257-8.45 5.344-3.45 2.18-8.18 5.746-5.96 4.182-7.57 6.534-2.88 2.487-7.43 6.695-5.51 4.967-6.57 7.538-4.95 5.675-6.48 7.617-2.22 2.61-5.62 8.272-4.18 6.159-5.23 8.525-1.64 2.676-4.58 8.891-3.29 6.406-3.89 9.216-1.13 2.695-3.45 9.385-2.36 6.398-2.52 9.677-.69 2.663-2.25 9.744-1.42 6.134-1.2 9.927-.31 2.56-.97 9.953-.55 5.622.01 10 .01 2.352.39 9.992.2 4.886 1.11 9.937.23 2.008 1.84 9.828.75 3.968 2.1 9.776.32 1.502 2.97 9.548.62 1.983 2.42 6.609M1433.27 360.337l3.45 5.475"/><path d="m1430.64 340.048 1.61-6.092 1.48-5.558 2.79-9.601 1.12-3.815 4.42-8.967 1.84-3.718 6.53-7.57 2.45-2.839 8.22-5.699 3.09-2.146 9.33-3.597 3.88-1.492 9.88-1.495 4.76-.719 9.9 1.375 9.91 1.376 1.2.167 9.57 2.896 7.36 2.227 8.53 5.222 6.33 3.873 8.18 5.757 6.02 4.238 7.54 6.561 7.55 6.562 2.78 2.419 6.71 7.414 6.06 6.694 6.12 7.91 4.24 5.486 4.87 8.736 3.22 5.776 2.55 9.669 2.37 8.967.1 10 .06 6.307-2.74 9.616-1.02 3.562-5.04 8.636-1.76 3.024-7.06 7.079-2.63 2.633-8.59 5.125-3.74 2.237-9.53 3.032-5.11 1.625-6.84 1.925-5.89 1.657-6.65-.246-6.26-.232-3.09-.115-3.76-1.188-5.92-1.868-6.05-1.908-2.95-.932-.64-.2-8.99-4.379-8.07-3.934-8.36-5.496-8.35-5.496-1.34-.878-7.58-6.516-7.18-6.162-6.58-7.522-6.59-7.521-.93-1.055-2.96-4.382-3.76-5.581-1.75-2.588-2.16-3.195-.43-.924-.19-.411-.17-.38-4.2-9.077-3.16-6.841v-.008l-.03-.109-.03-.129-2.25-8.617-2.24-8.585Zm0 0-.69-9.976-.47-6.767"/><path d="m1639.87 387.406-.01-10-.02-8.864-2.49-9.684-2.49-9.685-.57-2.199-4.83-8.754-4.44-8.039-6.1-7.924-5.83-7.571-6.71-7.42-6.7-7.421-1.32-1.466-7.56-6.553-7.55-6.552-5.56-4.821-8.19-5.732-8.24-5.762-8.55-5.188-8.64-5.243-9.59-2.837-9.59-2.837-.41-.122-9.91-1.297-9.92-1.297-4.47-.584M1553.25 446.524l9.98-.747 6.84-.513M1417.74 334.039l.52 2.47 1.19 3.855.1.065 4.43 2.978.39.261"/><path d="m1415.24 319.81.76 4.308 1.74 9.922 1.6 2.819 1.38 1.449.77.962 1.59 2.311.44.645.73 1.24.12.203 2.01 3.425 2.31 3.859 2.38 5.007 3.2 5.404 2.45 4.449.52.945 2.64 5.014 2.15 4.313 1.86 3.952 1.69 3.011.96 1.733"/><path d="m1419.54 340.43 1.63 3.899.56 1.167 2.76 5.49 1.08 2.147 3.51 6.167 1.53 2.918 3.55 5.754 2.36 4.164 1.98 2.634 2.93 3.95 1.88 2.735.91 1.458.94 1.254.67.326.71.288 4.47 1.713M1426.77 337.125l-3.82-6.49-2.71-3.932-1.04-1.264-1.84-1.896M1521.53 440.966l.12.058 2.92 1.234 4.67 1.796 4.06 1.915M1570.2 458.888l-.87-.273 1.36.257-.11-.051-.5-.233-1.76-.828-1.54-.627-2.3-.937-4.51-1.691-2.71-.81-4.49-1.879-5.04-2.446-5.59-2.634-1.79-.691M1573.88 459.838v-.001l-.01-.003-2.94-.68M294 972.918l.637.238 1.464.49 9.681 2.508.779.201 9.886 1.509.811.123 1.568.181 9.987.515 1.046.053 9.988-.473 1.056-.05 9.895-1.448 1.053-.155 9.707-2.405 1.039-.257 1.674-.443 9.431-3.326 1.122-.396 9.068-4.214 1.064-.495 8.624-5.061.991-.582 8.1-5.864.908-.657 7.503-6.611.816-.719 1.329-1.368 6.835-7.3.736-.786 6.101-7.924.621-.806 5.303-8.478.507-.81 4.452-8.954.397-.799 3.551-9.348.295-.777.601-2.015 2.608-9.654.178-.659 1.62-9.868.098-.6.61-9.981.033-.541-.039-2.208-.422-9.991-.011-.281-1.472-9.891-.032-.215-.455-2.161-2.491-9.531-.742-2.16-1.069-2.776-1.553-4.031-.752-1.953-.125-.281-.762-1.717-1.161-2.215M257.859 952.793l.024.02.056.048 1.823 1.54M244.316 939.439l1.149 1.293.353.398M242.867 937.583l.302.356 1.263 1.488M241.75 935.986l1.561 1.933M387.058 766.309h-.001l-2.626-1.129-5.399-2.32-.569-.245-2.183-.863-9.569-2.926-2.205-.585-9.817-1.908-.4-.078-9.96-.894-.486-.043-2.286-.185-9.999.102-.768.008-9.94 1.088-.829.091-9.786 2.058-.882.185-2.13.45-9.543 2.992-.991.311-9.21 3.897-.994.42-8.793 4.764-.98.531-8.294 5.586-.95.64-1.532 1.217-7.72 6.357-.882.726-7.071 7.07-.808.808-6.355 7.722-.724.879-5.572 8.303-.63.939-4.733 8.809-.53.987-3.841 9.233-.425 1.022-.568 1.588-2.902 9.57-.279.922-1.92 9.814-.18.92-.912 9.959-.083.914.115 9.999.01.903.089 1.521 1.155 9.933.079.68 1.669 7.414"/><path d="m220.77 905.867.871-3.391 2.001-2.097.203-.052.588-.151 2.223-.57 3.895.548 2.751 1.366.829.412 2.998 1.489 4.709 2.891.149.092 1.082.664 5.809 5.141 5.868 5.381 7.189 6.951.938.906 6.569 6.725 5.835 6.186 1.809 2.185 3.543 4.281 4.045 6.165 1.142 1.741 3.407 6.571 1.546 5.043.016.23.284 3.987-.395 1.293-.36 1.178-.141.46-.087.286-2.275 2.058-3.541.767-2.359.129-4.223-1.873-6.901-4.235-6.805-4.937-7.635-6.457-.112-.095-6.97-6.59-6.807-7.326-.599-.646-6.28-7.5-5.897-8.026-4.904-7.51-2.236-4.006-1.427-5.052-.345-4.612Zm0 0 2.149-9.401.713-3.117M300.938 951.556l-2.238-4.368-5.461-8.377-.493-.757-6.16-7.47-6.726-7.144-6.985-7.156-.593-.607-7.194-6.947-2.189-2.115-6.779-6.199-6.71-5.915-6.865-4.18-7.6-3.721"/><path d="m284.27 974.602 9.731-1.684 2.677-.463M441.039 825.698l.298-9.054-.165-2.187-.453-2.422-.621-2.242-.582-1.643-1.336-2.769-1.758-3.182-1.782-2.905-2.268-3.31-2.513-3.383-2.408-2.953-2.897-3.298-2.651-2.787-3.223-3.149-2.896-2.604-3.316-2.771-3.1-2.405-3.165-2.234-3.273-2.123-2.666-1.572-1.819-.897-2.729-1.096-2.654-.856-2.449-.569-2.224-.283-9.358-.144M1380.94 284.073l-7.17-6.965-7.18-6.966-7.18-6.965-2.65-2.574-6.96 7.176-6.97 7.175-6.96 7.176-2.58 2.651 7.18 6.965 7.17 6.966 7.18 6.965 2.65 2.573 6.97-7.175 6.96-7.175 6.97-7.176 2.57-2.651ZM1349.01 252.174l-7.18-6.965-7.27-7.064-6.97 7.176-7.06 7.276 7.17 6.966 7.28 7.063 6.97-7.175 7.06-7.277ZM1368.2 237.431l-7.17-6.965-2.71-2.632-6.97 7.176-2.63 2.711 7.18 6.965 2.71 2.631 6.96-7.175 2.63-2.711ZM2013.56 963.27l-7.16-6.982-7.16-6.982-7.16-6.982-7.16-6.982-7.16-6.982-7.15-6.982-7.16-6.983-7.16-6.982-7.16-6.982-7.16-6.982-7.16-6.982-7.16-6.982-7.16-6.982-7.16-6.982-7.15-6.982-7.16-6.983-7.16-6.982-7.16-6.982-7.16-6.982-7.16-6.982-7.16-6.982-7.16-6.982-7.16-6.982-7.15-6.982-7.16-6.983-7.16-6.982-7.16-6.982-7.16-6.982-7.16-6.982-7.16-6.982-7.16-6.982-7.16-6.982-7.16-6.983-7.15-6.982-7.16-6.982-7.16-6.982-7.16-6.982-7.16-6.982-7.16-6.982-7.16-6.982-7.16-6.982-7.16-6.983-7.15-6.982-7.16-6.982-7.16-6.982-7.16-6.982-7.16-6.982-7.16-6.982-7.16-6.982-7.16-6.982-7.16-6.983-8.07-7.876 6.98 7.159 6.98 7.159 6.98 7.159 6.99 7.159 6.98 7.159 6.98 7.159 6.98 7.159 6.99 7.158 6.98 7.159 6.98 7.159 6.98 7.159 6.98 7.159 6.99 7.159 6.98 7.159 6.98 7.159 6.98 7.159 6.98 7.159 6.99 7.159 6.98 7.159 6.98 7.158 6.98 7.159 6.99 7.159 6.98 7.159 6.98 7.159 6.98 7.159 6.98 7.159 6.99 7.159 6.98 7.159 6.98 7.159 6.98 7.159 6.98 7.159 6.99 7.158 6.98 7.159 6.98 7.159 6.98 7.159 6.98 7.159 6.99 7.159 6.98 7.159 6.98 7.159 6.98 7.159 6.99 7.159 6.98 7.159 6.98 7.159 6.98 7.158 6.98 7.159 6.99 7.159 6.98 7.159 6.98 7.159 6.98 7.159 6.98 7.159 6.99 7.159 7.87 8.076M622.836 446.032l.418.747 2.464 4.408M689.109 393.375h.001l.138.043M707.277 374.092l.012-.008.064-.047M735.959 342.084l-4.507-2.521-.584-.327-.653-.365M742.862 346.658l-.349-.235-1.857-1.252M945.848 792.917l2.012 1.646.516.422M991.484 750.835l.014.005M1094.77 885.07l.65.397M962.301 805.274l8.566 5.16 8.566 5.16 3.329 2.006 1.71 1.029M1093.69 888.546l8.73 4.879 2.71 1.512.9.507M1084.63 670.486l-.51-.848-4-6.627M1104.33 703.154l-1.36-2.252-3.1-5.131-5.16-8.564-5.16-8.564-.5-.828M1179.45 821.839l-.38-.686-.18-.319-4.88-8.727-.81-1.44M1432.88 348.633l-3.02-6.358"/></g><defs><clipPath id="a"><path fill="#fff" d="M0 0h1920v1080H0z"/></clipPath></defs></svg>