<svg width="1920" height="1080" fill="none" xmlns="http://www.w3.org/2000/svg"><g clip-path="url(#a)" stroke="#EFC018" stroke-width="5" stroke-linejoin="round"><path d="m1081.76 688.875 1.78-3.299.16-.306.05-.388-.04-.454-.15-.505-.24-.535-.33-.545-.38-.504-.02-.029-.46-.502-.49-.451-.36-.268-.16-.115-.52-.301-.5-.206-.46-.104-.27.002-.13.001-.34.108-.97.429"/><path d="M1083.54 685.577v.002l-.24.21-.34.11-.4.003-.47-.103-.5-.206-.5-.291-.01-.007v-.002l-.52-.384-.5-.452-.46-.503-.4-.535-.25-.417-.01-.016-.07-.113-.24-.535-.04-.154-.1-.351-.05-.455.06-.387.15-.302v-.003l.24-.203.01-.008M1072.21 688.927l.12-.449.22-.366.01-.005.32-.276.31-.133.09-.037.47-.058.52.053.55.167.55.273.54.365.51.448.45.51.38.555.3.578.19.578.1.558-.02.514-.12.451-.01.023-.22.347v.003l-.32.275-.4.172-.42.053-.05.007-.52-.055-.55-.166-.55-.271-.54-.367M1073.16 691.714l-.38-.556-.3-.579-.2-.579-.09-.557.02-.507M1073.28 687.661l-1.69.618M1076.26 695.502l1.44-2.85M1068.9 704.024l1.07-2.438.18-.505.07-.564-.04-.601-.16-.616-.27-.606-.36-.573-.45-.518-.52-.444-.56-.353-.58-.247-.59-.133-.57-.013-.53.107"/><path d="m1069.97 701.586-.01.017-.27.41-.01.004-.38.329-.07.034-.01.005-.38.185-.53.107-.57-.011-.59-.132-.58-.248-.57-.352-.51-.445-.45-.52-.37-.574-.26-.606-.16-.617-.05-.602.07-.563.19-.505.26-.383v-.01l.02-.028.01-.005.38-.331.44-.211.03-.013M1060.43 713.029l.55-1.776.12-.604-.01-.636-.12-.644-.25-.629-.35-.587-.44-.525-.52-.442-.58-.341-.62-.228-.62-.107-.61.02"/><path d="m1060.98 711.252-.02.051-.21.497-.17.232-.01.012-.16.226-.01.004-.43.371-.52.266-.57.146-.61.021-.63-.106-.61-.228-.58-.342-.52-.442-.45-.525-.35-.589-.24-.629-.13-.645v-.637l.11-.603.24-.548.34-.464v-.006l.44-.374.44-.226.01-.008.06-.031.53-.134.05-.012M1050.77 721.901v-.8l-.1-.665-.23-.644-.34-.598-.44-.529-.53-.44-.59-.334-.63-.263"/><path d="m1050.77 721.101-.01.224-.01.397v.039l-.01.009-.15.622-.27.577-.38.5v.005l-.48.4-.55.294-.61.172-.53.036-.11.007-.66-.088-.63-.215-.59-.334-.53-.44-.44-.53-.34-.598-.23-.644-.1-.665.03-.661.15-.631.27-.577.38-.494v-.006l.48-.405.55-.293.61-.172.65-.042.61.083.04.005.06.02.06.023.33.111.18.061M1038.91 730.887l.33.603.22.652.08.675-.04.672-.18.645-.29.591-.41.516-.01.004-.49.416-.58.308-.64.185-.66.054-.67-.079-.65-.209-.6-.33-.53-.44-.44-.532-.33-.603-.21-.652-.09-.675.04-.673.18-.645.29-.591.41-.51v-.005l.51-.42.58-.308.63-.184.66-.054.67.079.65.209.6.33.53.439.44.532ZM1021.17 745.962l-.21-.651-.08-.676.05-.672.18-.644.31-.591.42-.509v-.006l.52-.419.59-.307.64-.184.67-.053.68.08.65.209.6.331.53.44.44.531.33.604.21.651.08.675-.05.673-.18.644-.31.591-.42.514v.005l-.51.415-.59.307-.65.184-.67.053-.68-.08-.65-.209M1015.27 754.656l.33.599.21.644.08.664-.05.66-.18.629-.3.575-.41.498-.01.005-.5.398-.59.292-.64.169-.67.04-.67-.09-.65-.217-.6-.335-.53-.441-.44-.53-.33-.598-.21-.644-.09-.664.05-.659.18-.63.3-.575.41-.492.01-.006.51-.403.58-.292.64-.169.67-.041.67.09.65.217.6.335.54.441.44.53ZM997.639 767.963l-.095-.644.011-.215.002-.032.021-.387.161-.601.283-.545.39-.462.004-.005.489-.372.566-.261.619-.143.66-.016.65.109.64.231.6.344.53.443.44.527.33.588.23.629.09.644-.03.634-.17.601-.28.545-.39.467-.01.004-.48.367-.45.208-.03.01-.09.043-.62.142-.65.016-.66-.109-.64-.231-.594-.344-.528-.443-.441-.526-.338-.588-.22-.628Zm0 0-.104-.651M1001.71 770.817l.12-.02"/><path d="M1003.38 770.046v.005l-.49.371-.43.199-.02.009-.12.053-.49.113-.13.029-.65.016-.66-.109-.638-.231-.595-.344-.528-.443-.441-.526-.337-.588-.221-.628-.095-.643.001-.017.012-.231.002-.032.019-.355.161-.601.283-.544.394-.468.006-.004M1001.39 764.398l.64.231.6.344.53.444.44.526.34.589.22.628M1004.22 768.439l-.17.601M999.465 764.449l.625-.142M1001.7 770.825l1.23-.207M1015.83 757.233l-.18.629-.3.575-.41.493-.01.005-.51.403-.58.292-.64.169-.67.04-.67-.09-.65-.217-.6-.335-.53-.441-.44-.53-.33-.598-.22-.643-.08-.665.05-.659.18-.63.3-.574.42-.499v-.004l.51-.399.58-.292.64-.169M1015.59 755.265l.21.644.08.664M1012.36 753.053l.67.09.65.217M1023.07 747.878l-.61-.33-.53-.44-.44-.532-.33-.603-.21-.652-.08-.675.05-.673.19-.644.3-.59.42-.515.01-.005.51-.414.59-.308.64-.183.68-.054.67.08.65.209.6.331.54.44.44.532.33.603.21.652.08.675-.06.672-.18.644-.31.591-.41.509-.01.006-.51.419-.59.307-.65.184-.67.053-.67-.079-.65-.21ZM1039.31 734.144l-.29.592-.41.509v.006l-.51.42-.57.308-.64.185-.66.054-.67-.079-.65-.209-.6-.33-.53-.44-.44-.531-.33-.604-.22-.652-.08-.675.04-.673.18-.644.29-.592.41-.515.01-.005.5-.415.57-.308.64-.184.66-.054.67.079.65.209.6.33M1038.9 730.896l.33.604.22.651.08.676M1050.31 722.979l-.38.495v.005l-.48.404-.55.296-.61.17-.52.036-.13.008-.65-.087-.63-.216-.59-.335-.53-.44-.44-.529-.34-.598-.23-.644-.1-.665.02-.661.15-.632.28-.576.38-.5v-.005l.48-.401M1050.09 719.203l.34.598.23.644M1047.86 717.68l.04.006.12.043.07.024.44.148.59.334M1061.08 710.023l.01.636-.12.603-.23.548-.16.221-.01.012-.17.232v.005l-.44.376-.51.266-.58.146-.61.02-.62-.106-.62-.228-.58-.341-.52-.442-.44-.526-.35-.588-.25-.629-.12-.647-.01-.636.12-.604.23-.547.34-.469.01-.005.43-.37.45-.234.02-.008.05-.023.57-.146.61-.019M1058.82 706.854l.57.341.53.442.44.524.35.589M1069.38 698.131l.37.573.26.606.16.615.05.601-.07.564-.18.505-.29.422v.005l-.39.332-.06.032-.01.004-.39.189-.53.108-.57-.012-.58-.133-.59-.247-.56-.353-.52-.444-.45-.52-.36-.574-.27-.607-.16-.616-.04-.602.07-.564.18-.505.27-.391v-.009l.02-.026v-.003l.38-.328.47-.223.53-.108.56.013.59.133.59.248.56.352M1077.69 692.659l-.22.367v.004l-.32.277-.41.172-.41.052v.001l-.06.007-.51-.054-.55-.166-.56-.272-.54-.367-.51-.448-.45-.512-.38-.556-.3-.579-.19-.579-.1-.557.02-.514v-.01l.12-.441.23-.37v-.003l.32-.273.4-.17.47-.059.52.055.55.166.55.272.54.366.51.448.45.511.38.555.3.577.2.578.09.557-.01.514-.13.451Zm0 0-.01.016M1073.28 687.669l-.08.029M1083.7 685.276l-.16.302v.004l-.25.212-.33.109-.41.004-.46-.103-.5-.206-.49-.284-.01-.007-.02-.01-.52-.383-.49-.452-.46-.504-.4-.534-.26-.433-.01-.017-.06-.096-.24-.536-.04-.151-.11-.353-.04-.455.05-.388.02-.029.14-.275v-.003l.25-.208M1082.99 682.85l.33.545.24.535.14.504.05.455M1079.37 680.37l.27-.001.46.104.5.206.52.3M1087.73 679.892l-.17.14-.26.041-.34-.06-.4-.158-.45-.249-.48-.333-.49-.402-.49-.457-.46-.493-.09-.104-.33-.407-.36-.509-.29-.488-.21-.447-.04-.139-.03-.108-.04-.142-.01-.317.08-.232.17-.139.26-.04.34.061.4.158.33.185.11.064.01.001.01.011.47.322.49.401.48.456.47.492.37.455.04.055.36.508.29.487.21.446.09.332.02.058.02.318-.07.213-.01.02Zm0 0-1.96 3.534M1083.04 674.889l-.63.307-.12.061M1089.93 676.108l-.1.063-.18-.032-.27-.126-.15-.098-.18-.118-.4-.297-.44-.366-.15-.133-.32-.289-.47-.462-.47-.483-.44-.485-.4-.47-.33-.437-.11-.149-.16-.236-.18-.32-.01-.033-.08-.209v-.155l.09-.062.19.034.26.127.34.216.4.297.42.353.02.013.46.421.48.46.47.482.44.485.39.469.34.436.19.278.07.107.18.32.1.243v.156Zm0 0-.99 1.778-1.06 1.903"/><path d="m1085.18 671.211-.2.109-.43.223M1089.58 675.282l.53-.966-.02-.015-.1-.108-.2-.195-.27-.275-.34-.345-.4-.401-.45-.443-.46-.466-.47-.472-.46-.46-.44-.43-.38-.384-.32-.322-.25-.249-.17-.165-.08-.076-1.01.552-.05.029M1084.29 670.061l-.06-.041-.05-.03M958.245 799.041l-.194.387-.176.352-.086.171-.238.474-.002.049-.01.184.086.311.181.379.268.43.346.467.41.484.459.484.157.149.075.071.257.244.502.427.494.374.228.149.241.158.424.227.365.138.034.006.256.04.204-.051 3.601-2.028"/><path d="m957.551 800.426.11-.145.204-.052.225.034.064.01.26.099.104.039.425.227.469.307.496.373.164.14.338.289.491.466.32.338.139.147.411.484.346.468.251.402.018.029.18.377.085.312-.004.061-.01.171-.111.144M954.041 800.497l-.389.712.046.107.137.196.222.277.299.346.364.404.416.445.452.469.469.476.47.463.451.434.416.386.364.325.298.251.222.167.135.077.046-.016.067-.037"/><path d="m955.405 800.348-.39.735-.361.681-.033.064.062.155.001.001.153.238.239.315.316.377.38.426.43.458.463.473.479.47.477.448.455.409.296.253.121.102.034.027.328.261.294.208.214.121.127.03 2.429-1.361.146-.082"/><path d="m954.652 801.764.125.028.213.12.294.208.362.287.418.355.456.41.477.449.48.471.464.474.431.459.381.427.232.277.084.1.239.315.152.238.061.154-.033.064M962.676 796.46l-.245.537-.083.309.021.382.03.107.095.334.223.483.14.225.173.28.391.51.454.494.5.459.526.408.532.339.423.211.095.048.483.167.432.071.362-.03.279-.128 3.398-1.883"/><path d="m962.43 796.996.184-.223.278-.129.016-.002.346-.029.431.07.484.167.519.258.533.34.159.123.043.034.325.251.5.46.455.495.392.511.313.506.223.484.124.441.02.381-.084.309-.185.222M969.134 791.616l-.124.321-.002.006-.021.054-.015.179-.001.004-.022.266.074.499.181.532.283.543.374.533.45.504.508.455.548.388.567.306.563.214.538.112.493.006.428-.1 2.986-1.578"/><path d="m969.137 791.617.252-.297.347-.203.427-.101.428.004H970.605l.051.001.539.111.564.213.567.307.549.388.51.456.45.505.374.534.283.544.182.532.017.121.056.379-.039.449-.149.38-.253.297-.347.202M977.277 784.875l-.089.509.029.553.146.576.257.576.358.555.446.513.517.45.567.371.597.277.602.172.586.061.546-.052.485-.163 2.6-1.236"/><path d="m977.277 784.875.204-.445.311-.365.313-.207.093-.063.485-.164.547-.053.585.061.604.172.597.277.568.371.518.45.447.514.358.556.257.577.146.577.028.553-.091.509-.046.1-.158.345-.312.364-.407.269M986.827 776.711l-.007.599.116.613.236.605.346.574.443.52.523.446.584.356.62.251.635.138.624.018.589-.102 1.962-.745"/><path d="m986.828 776.71.131-.56.23-.461.02-.04.359-.422.454-.326.532-.219.59-.103.624.017.635.137.622.252.583.356.524.446.444.521.346.574.236.606.116.615-.008.598-.132.561-.25.5-.304.356-.056.066-.454.326-.533.218M723.938 335.506l-8.725-4.887-5.765-3.23-8.88-4.598-8.88-4.598-8.881-4.597-4.393-2.275-8.912-4.536-8.912-4.535-8.912-4.536-4.493-2.286-9.159-4.014-9.159-4.014-9.159-4.014-5.314-2.329-1.134-.414-9.573-2.892-9.572-2.893-9.573-2.892-9.572-2.893-9.573-2.892-9.572-2.893-9.573-2.892-2.475-.748 2.865 9.581 2.864 9.581 2.865 9.581 2.864 9.581 2.864 9.581 2.865 9.581 2.864 9.581.961 3.212 3.992 9.168 3.992 9.169 3.992 9.169 2.27 5.213 4.519 8.921 4.52 8.92 4.519 8.921 2.249 4.439 4.582 8.888 4.582 8.888 4.583 8.889 2.25 4.364 4.874 8.732 3.533 6.329M1078.74 664.117l.15 1.509-2.39 4.016-4.88 6.413-5.26 6.267-.45.544-1.5 1.783-.51.577-3.1 3.489-1.04 1.167-3.69 4.153-.95 1.071-2.28 2.463-.74.802-4.81 5.199-3.18 3.447-.61.634-.01.009-.27.286-.01.01-3.77 3.947-1.7 1.787-.01.009-4.32 4.524-.01.009-.22.234-1.36 1.43-2.89 2.944-1.34 1.362-.01.01-4.56 4.651-.01.01-.71.729-3.53 3.6-.78.769-.92.913-.01.01-4.66 4.626-.01.009-1.19 1.183-4.35 4.326-.42.411-.01.01-.92.913-3.65 3.529-.01.009-1.63 1.575-4.218 4.08-.009.009-.091.089-.01.009-3.285 3.175-1.006.942-.009.009-2.041 1.912-3.408 3.193-.009.009-.603.565-.009.008-3.679 3.448-.009.008-1.239 1.162-1.24 1.118-2.123 1.913-.007.007-1.051.948-.008.006-3.425 3.089-.007.007-2.76 2.488-.36.307-.006.006-.085.073-1.023.873-.006.005-7.326 6.257-6.66 5.189-4.283 2.691-1.785.133"/><path d="m947.778 794.683-.536 1.724 1.808-.128 4.355-2.732 6.777-5.279 7.605-6.493.596-.51.006-.005.758-.647.474-.427.007-.006.176-.159 3.086-2.782.007-.007 3.296-2.972.008-.006 1.072-.967.008-.007 2.213-1.996.468-.422 1.974-1.849.008-.008 3.633-3.404.009-.008.603-.566.009-.008 3.44-3.223 2.041-1.913.009-.008.51-.478 3.774-3.647.01-.009.075-.073.01-.009 4.223-4.08 1.63-1.575.01-.01 3.42-3.305 1.16-1.155.01-.009.42-.419 4.32-4.287 1.21-1.199.01-.01 4.67-4.641.01-.01.94-.929.76-.758 3.49-3.562.73-.746.01-.01 4.58-4.667.01-.01 1.34-1.368 3.14-3.194 1.1-1.154.22-.234.01-.01 4.32-4.524v-.009l1.72-1.802 3.77-3.948.01-.009.27-.286.01-.009 1.08-1.134 2.7-2.92 4.84-5.235.74-.802 2.94-3.175.24-.275 3.79-4.262 1.06-1.192 2.94-3.308 1.43-1.612.8-.954.63-.749 5.91-7.044 4.96-6.525 2.42-4.082-.15-1.528-1.64.628M1070.51 654.061l-.35-.426-6.33-7.738-6.34-7.738-6.33-7.738-6.34-7.738-3.4-4.158-6.5-7.6-6.5-7.6-6.5-7.6-6.5-7.6-6.5-7.6-5.33-6.235-6.676-7.443-6.678-7.444-6.677-7.444-6.678-7.443-6.678-7.444-5.411-6.032-6.853-7.283-6.852-7.284-6.852-7.283-6.853-7.283-6.852-7.283-5.51-5.857-7.47-6.648-7.47-6.647-7.47-6.648-7.471-6.648-7.47-6.648-6.065-5.398-7.696-6.386-7.695-6.385-4.555-3.779-7.695-6.386-7.696-6.386-7.696-6.385-1.821-1.511-8.063-5.915-8.064-5.914-8.064-5.914-8.064-5.914-8.063-5.914-7.05-5.17-8.29-5.591-5.737-3.869-8.29-5.591-8.291-5.592-7.611-5.133-.925-.623M740.817 345.418l-1.838-.565-3.958 1.6-5.958 3.736-6.381 4.741-.972.722-.397.295-2.048 1.676-2.278 1.864-1.14.934-3.785 3.098-.254.223-2.713 2.375-.619.542-4.403 3.856-2.399 2.1-1.715 1.583-.002.002-.006.006-.002.002-.293.271-1.559 1.439-2.063 1.906-.007.006-5.326 4.919-.009.008-.122.113-2.826 2.735-.008.007-6.294 6.091-.009.009-2.224 2.152-.007.007-.008.008-6.41 6.486-.008.008-2.6 2.631-.009.008-2.1 2.125-3.334 3.534-.007.007-3.392 3.594-.008.009-3.716 3.936-.479.536-.007.007-1.717 1.918-2.124 2.371-.007.007-.312.349-.007.008-2.846 3.178-.006.006-1.821 2.033-.013.014-1.841 2.195-.006.007-.81.965-.006.007-1.92 2.288-.005.006-2.049 2.443-.619.737-.005.005-.582.694-.44.576-.004.005-5.598 7.314-4.019 6.143-1.867 4.172.325 2.069M628.824 456.27l1.208 1.795.159.236"/><path d="m742.507 346.559.309-.591.344-2.793-2.244-1.733-1.905-.609-3.252 1.296-.853.339-6.18 3.854-.159.118-.135.099-.592.439-.749.554-1.659 1.229-.195.144-2.607 1.93-.948.702-.998.739-.567.464-.96.783-2.444 1.996-2.975 2.43-.168.138-.101.082-.247.201-2.139 1.748-.725.634-7.529 6.582-2.53 2.212-7.349 6.782-4.178 3.856-7.187 6.952-4.605 4.455-7.029 7.113-4.534 4.587-6.861 7.275-3.987 4.227-6.667 7.453-1.3 1.453-.004.005-1.684 1.882-.008.009-.019.022-3.626 4.328-.004.006-2.018 2.409-.005.006-.821.98-.005.006-1.091 1.303-.006.006-.55.657-.546.716-.004.005-2.016 2.642-.004.005-.312.41-.004.005-1.357 1.778-.003.005-.481.63-1.169 1.532-.355.465-.444.683-3.704 5.691-.691 1.562-1.222 2.765.361 2.144 1.734 2.249 2.581-.096.906-.444"/><path d="m743.163 343.174-1.9-.602-2.74 1.102-.049.02-1.321.531-6.196 3.881-8.005 5.944-.062.046-1.275 1.043-2.804 2.295-2.057 1.683-1.14.933-2.36 1.931-1.708 1.495-2.817 2.467-.561.491-4.254 3.724-1.486 1.3-2.882 2.662-.008.008-3.545 3.273-.007.007-5.133 4.74-.751.727-.009.008-2.192 2.121-.007.007-7.186 6.954-.163.158-.01.009-.821.795-.007.007-.699.676-6.922 7.004-.007.007-1.675 1.695-.009.009-3.003 3.038-3.144 3.332-.007.007-2.936 3.111-.008.009-4.538 4.809-.006.007-.261.276-1.573 1.756-1.821 2.034-.007.008-.205.228-.007.008-3.054 3.41-.006.007-1.846 2.061-1.213 1.355-.654.779-.006.007-.795.948-.006.007-1.853 2.209-.005.006-1.996 2.379-.855 1.019-.005.006-1.104 1.316-.004.006-.886 1.056-.967 1.263-.006.008-.865 1.132-.003.003-.067.088-.001.001-4.379 5.725-4.177 6.39-1.931 4.334.352 2.141M717.09 577.422l6.383 7.698 5.446 6.567 4.767 5.75 6.647 7.472 6.646 7.472 6.646 7.472 6.646 7.471 6.647 7.472 5.533 6.22 7.284 6.852 7.284 6.851 7.284 6.852 7.284 6.851 7.284 6.852 6.016 5.659 7.445 6.676 7.445 6.676 7.445 6.677 7.445 6.676 7.445 6.676 6.19 5.551 7.601 6.497 7.602 6.497 7.602 6.497 7.602 6.497 7.602 6.497 6.383 5.456 7.74 6.331 7.741 6.331 7.74 6.331 7.741 6.331 4.184 3.422.197.161.1.083.708.578M1078.74 664.118l-.46-.557-1.68-2.061M1116.55 872.523l6.34-5.588 7.34-6.867 7.12-7.024.31-.313 6.94-7.203.29-.303 6.73-7.371 5.96-6.939 4.95-6.228.38-.536 3.37-4.74 2.42-4.122 1.01-2.82-.43-1.422M1169.28 811.047l-1.09-1.808-3.86-6.387M947.242 796.406l6.798 4.091.973.585M1129.08 905.14l8.64 5.024 2.61 1.516 1.3.276 2.33-.812 3.26-1.878 4.08-2.879 1.4-1.111 3.35-2.659 5.22-4.517 5.48-5.086 1.67-1.643 3.87-3.808 3.16-3.301 2.2-2.297 4.97-5.52 4.39-5.223 2.17-2.819 1.46-1.9 2.74-4.03 1.73-3.189.68-2.229-.4-1.191-5.03-8.64-2.31-3.964"/><path d="m1128.39 903.857 2.84-1.668 4.83-3.454 5.63-4.518 6.21-5.408 6.55-6.082 6.61-6.514 6.41-6.681 5.95-6.578 5.25-6.211 4.36-5.598 3.28-4.765 1.74-3.121.35-.631.45-1.393.38-1.207-.45-1.36-4.89-8.725-1.46-2.611M1116.58 873.22l5.62-4.957 7.31-6.832.56-.525 2.19-2.164.01-.004.68-.677.01-.006 5.08-5.009.04-.047.01-.006 1.29-1.348.01-.006 6.39-6.636 6.74-7.386.47-.511 6.37-7.43 4.16-5.231 1.14-1.437 4.02-5.643 2.58-4.405 1.07-3.008-.48-1.511-1.97.027-1.69.77M1152.7 905.275l8.22 5.695 4.22 2.922.81.168 1.42-.477 1.96-1.107 2.44-1.694 2.82-2.22 3.09-2.659 3.24-2.993 3.26-3.212 3.16-3.303 2.92-3.263 2.59-3.097 2.13-2.808 1.61-2.41 1.03-1.922.39-1.359-.24-.748-5.7-8.217-2.89-4.169"/><path d="m1188.85 841.236 8.27 5.615 7.67 5.206 8.14 5.81 8.14 5.81 1.95 1.395 6.78-6.049 1.64-4.001-6.75-7.38-5.59-6.12-6.75-7.379-5.58-6.099-6.75-7.379-5.56-6.076-6.75-7.379-5.53-6.054-4.36-4.596"/><path d="m1182.64 826.048 8.19 5.75 2.15 1.513 8.27 5.629 8.26 5.628 2.06 1.402 8.13 5.822 8.13 5.822 1.97 1.409M1117.01 882.6l-.09-1.938v-.006l-.05-1.087v-.01l-.1-2.247v-.005l-.05-1.042v-.001l-.14-3.043-.03-.698-.46-9.99-.29-6.143v-.13l-.29-.24-7.7-6.385-7.7-6.385-7.69-6.385-7.7-6.385-7.69-6.385-7.7-6.385-7.7-6.385-7.69-6.385-7.7-6.384-7.7-6.385-7.69-6.385-7.7-6.385-7.69-6.385-2.87-2.378-7.1 6.72 3.77 9.261 3.77 9.261 3.77 9.262 2.82 6.903 3.77 9.262 3.77 9.261 3.61 8.859 2.71 6.655 1.2 2.941 3.77 9.261 3.77 9.261 2.9 7.11 7.28 6.852 7.29 6.851 7.28 6.851 3.24 3.051.04.035 7.28 6.851 7.29 6.851 7.28 6.851 7.29 6.852 7.28 6.851 5.06 4.755 7.43 6.688 7.42 6.667 7.43 6.687 7.39 6.643 7.43 6.688 7.36 6.618 7.44 6.687 7.33 6.593 7.55-6.631 2.07-5.062-5.85-8.109-5.85-8.108-5-6.934-5.69-8.224-5.69-8.224-4.92-7.112-5.8-8.152-5.79-8.153-4.74-6.675-2.17-4.053-.69-1.282-.55-1.029-1.91-3.565-.51-.952-4.24-7.918-.69-1.304-3.48-6.49Z"/><path d="m1012.59 770.638 3.8 9.249 3.8 9.249 3.8 9.249 2.84 6.899 3.8 9.249 3.8 9.249 3.81 9.249 3.8 9.249 2.45 5.957 3.65 8.888 3.8 9.249.6 1.447"/><path d="m1045.12 874.654 7.42-6.834 7.28 6.853 7.28 6.854 7.29 6.853.95.896 7.28 6.853 7.28 6.853 7.28 6.853 7.29 6.853 7.28 6.854 7.47 7.033 7.44 6.691 7.43 6.689 7.43 6.691 7.4 6.664 7.43 6.691 7.38 6.639 7.43 6.691 7.35 6.614M1069.38 672.011l1.88-3.413.09-.176.08-.137.04-.237.02-.158-.04-.461-.13-.51-.24-.54-.32-.548-.33-.45-.07-.086-.45-.503-.5-.45-.41-.301-.11-.081-.53-.297-.5-.202-.44-.093-.03-.006-.42.008-.34.115-1.43.655-.21.1-1.87.86"/><path d="M1071.26 668.598v.002l-.26.216-.28.095-.06.022-.3.007-.12.002-.47-.098-.51-.201-.5-.288-.02-.007v-.003l-.52-.382-.5-.452-.46-.504-.4-.537-.22-.382-.01-.017-.09-.15-.07-.159-.16-.381-.14-.511-.04-.461.07-.394.16-.309.01-.003.25-.209.01-.009M1063.59 678.835l1.52-2.952.14-.461.03-.523-.09-.565-.19-.585-.08-.163-.09-.179-.12-.241-.37-.558-.46-.513-.5-.446-.55-.364-.56-.268-.55-.16-.53-.047-.49.067-1.1.431-.45.174-1.51.588"/><path d="m1065.11 675.883-.01.022-.23.359v.003l-.33.284-.42.181-.41.059-.01.001-.06.009-.53-.046-.56-.16-.56-.268-.16-.108-.13-.089-.25-.167-.51-.448-.45-.513-.38-.559-.29-.584-.19-.586-.08-.566.02-.492v-.031l.14-.46.24-.376v-.005l.34-.285.3-.132.11-.049M1063.27 679.354v-.003l.32-.516M1055.87 687.636l1.13-2.526.2-.518.09-.576-.04-.612-.15-.624-.26-.612-.36-.578-.36-.419-.09-.101-.01-.014-.5-.429-.57-.349-.59-.242-.6-.125-.58-.003-.54.118-2.26.628"/><path d="m1057 685.11-.01.016-.29.424-.01.003-.39.342-.06.03-.01.004-.41.203-.54.119-.58-.002-.61-.125-.59-.241-.57-.35-.51-.444-.29-.328-.08-.097-.08-.096-.36-.578-.26-.614-.15-.625-.04-.612.09-.576.2-.517.26-.377.01-.009.03-.049v-.005l.41-.344.44-.221.04-.015M1055.45 688.236l.01-.004.41-.595M1047 696.967l.6-1.841.13-.618.01-.649-.12-.655-.24-.636-.34-.593-.45-.526-.52-.441-.49-.283-.09-.054-.03-.01-.6-.212-.63-.097-.63.032-1.99.178"/><path d="m1047.6 695.126-.02.048-.23.514-.17.22v.012l-.19.255-.01.004-.45.387-.53.28-.59.16-.63.032-.63-.096-.62-.221-.59-.338-.52-.441-.45-.528-.34-.593-.11-.293-.05-.115-.08-.229-.12-.656.01-.649.13-.618.25-.563.36-.48.01-.005.45-.391.43-.223.01-.009.09-.047.54-.146.05-.013M1046.18 698.389v-.004l.49-.657.33-.761M1036.95 706.198l-.01-.835-.09-.677-.22-.652-.33-.604-.44-.531-.53-.439-.6-.329-.77-.299"/><path d="m1036.94 705.364-.01.164-.02.407v.059l-.01.045-.17.646-.29.594-.4.518v.005l-.49.418-.58.311-.62.187-.66.056-.67-.077-.64-.207-.6-.33-.53-.439-.44-.532-.33-.604-.22-.653-.09-.633v-.146l.04-.573.17-.647.29-.594.39-.512.01-.006.49-.422.58-.31.63-.187.65-.055.15.017.14.016.38.044.01.005.07.022.34.108.22.073M1035.72 709.49l.01-.005.54-.7.39-.803.23-.873.05-.911M1024.61 715.584l.33.61.2.661.08.687-.06.688-.19.662-.32.61-.43.534v.005l-.52.434-.6.326-.65.202-.68.068-.68-.068-.66-.2-.61-.325-.53-.439-.44-.534-.33-.61-.2-.661-.08-.688.06-.673v-.015l.05-.179.14-.483.32-.61.42-.528.01-.006.52-.439.6-.326.58-.178.07-.022.11-.011.57-.057.68.067.66.2.6.326.54.438.44.534ZM1024.44 721.176l.01-.004.57-.723.43-.823.26-.894.08-.929M1012.36 728.028l.33.61.2.662.07.688-.07.688-.2.662-.33.61-.44.534v.005l-.53.434-.61.326-.66.201-.69.068-.69-.068-.66-.201-.61-.326-.53-.438-.44-.535-.33-.609-.2-.662-.07-.688.07-.688.04-.146.07-.208.09-.308.33-.61.43-.528.01-.006.53-.439.61-.326.25-.076.2-.061.21-.064.69-.068.69.068.66.201.61.326.53.438.44.534ZM1012.7 733.057l.01-.005.59-.722.44-.824M999.967 740.344l.323.605.21.654.07.678-.07.675-.19.647-.321.594-.433.518-.006.004-.523.418-.604.31-.656.186-.684.055-.684-.078-.658-.208-.608-.33-.533-.44-.439-.532-.327-.605-.203-.653-.072-.678.025-.268.016-.168.022-.239.196-.647.32-.594.428-.512.005-.006.529-.422.604-.311.656-.186.035-.003.158-.013.49-.04.685.078.658.208.608.331.534.44.439.532ZM981.627 753.661l.019-.255.002-.033.026-.362.177-.618.299-.563.406-.48.005-.005.506-.391.583-.28.636-.158.666-.031.23.033.128.019.312.046.648.222.601.339.53.443.441.529.333.594.213.638.084.657-.047.65-.177.618-.3.562-.411.486-.006.004-.501.386-.501.24-.021.01-.061.029-.636.158-.666.03-.669-.098-.647-.222-.601-.339-.53-.443-.44-.528-.333-.594-.193-.577-.02-.06-.01-.075-.075-.581Zm0 0-.006-.048M985.812 757.149l.098-.017M990.628 753.556l.064-.878-.114-.887"/><path d="m987.938 755.846-.407.48-.004.005-.507.39-.48.23-.021.01-.082.04-.529.131-.108.027-.665.03-.669-.098-.648-.223-.6-.339-.53-.442-.44-.528-.333-.594-.192-.576-.021-.062-.01-.074-.075-.582.004-.057.017-.23.002-.034.024-.328.176-.618.3-.563.41-.486.006-.004.501-.386M988.379 753.358l.085.656M981.434 752.226l.184 1.445M984.941 750.495l.23.033.128.019.312.045M985.801 757.159l1.283-.223M986.859 751.154l.531.443.441.528M994.914 745.22l.821.446.889.281.924.106.923-.075.886-.251.813-.419.72-.57"/><path d="m999.548 744.718-.005.006-.529.422-.604.31-.656.187-.683.055-.684-.078-.659-.208-.607-.331-.534-.44-.439-.532-.327-.605-.203-.653-.071-.677.025-.268.015-.168.023-.239.195-.647.321-.594.432-.518.006-.005M997.715 738.844l.659.208.608.33.533.44.439.533.326.605.2.653M1000.49 742.966l-.19.647-.323.594M995.086 739.318l.604-.31.656-.187.036-.003.158-.012M1006.68 733.656l.82.44.9.271.93.092.92-.092.9-.271.82-.441.72-.592.01-.006"/><path d="m1008.32 726.665.2-.061.21-.064.69-.068.69.068.66.2.61.326.53.439.44.534.33.61.2.662.06.688-.06.688-.2.662-.33.609-.43.529-.01.006-.53.439-.61.326-.66.201-.69.067-.69-.067-.66-.201-.61-.326-.54-.438-.43-.535-.33-.609-.2-.662-.07-.688.07-.688.04-.145.07-.209.09-.308.32-.61.44-.534.01-.005.53-.434.61-.326M1018.5 721.779l.82.44.88.27.92.091.92-.092.88-.272.81-.441.71-.593v-.006M1024.6 715.594l.33.609.2.662.08.687-.06.688-.19.662-.32.609-.42.529-.01.006-.52.439-.6.326-.65.201-.68.069-.68-.068-.66-.2-.6-.326-.54-.438-.44-.534-.33-.61-.2-.661-.08-.688.06-.673v-.016l.06-.179.14-.482.31-.61.43-.534.01-.005.51-.434.6-.326.58-.178.07-.023.11-.01.57-.058.68.068.66.2.61.326M1036.72 706.696l-.29.593-.39.513-.01.006-.49.422-.58.311-.63.188-.65.056-.67-.077-.64-.208-.6-.329-.53-.44-.44-.531-.34-.605-.21-.653-.09-.633v-.146l.04-.573.16-.647.3-.593.4-.518v-.005l.49-.417.58-.311M1033.41 701.856l.15.017.14.016.38.045.08.027.07.022.49.158.6.329.53.439.44.532.33.603.22.653.09.676M1030.77 710.432l.87.28.89.104.89-.076.85-.253.78-.42.67-.572v-.005M1046.98 696.179v.005l-.46.391-.53.281-.59.16-.62.032-.64-.096-.62-.222-.59-.337-.52-.441-.45-.528-.34-.594-.11-.293-.04-.115-.09-.229-.11-.655v-.65l.14-.617.25-.563.36-.486v-.004M1045.57 690.733l.49.284.53.44.44.527.35.593.23.636.12.655M1047.72 694.518l-.13.618-.25.562M1042.47 690.832l.45-.232.01-.009.08-.039.59-.158M1042.33 699.433l.86.13.85-.044.79-.216.73-.38.61-.528v-.006M1044.22 690.361l.63.097.6.211M1056.69 685.553v.005l-.4.345-.05.027-.01.004-.42.206-.54.12-.58-.003-.6-.124-.6-.242-.56-.349-.52-.444-.28-.329-.09-.097-.08-.095-.36-.579-.26-.613-.15-.625-.03-.612.08-.576.2-.518.27-.385.01-.01.03-.044v-.004M1057.09 682.789l.15.624.04.612-.09.576M1052.15 680.271l.48-.236.54-.119.58.004.6.125M1052.74 689.187l.79.003.73-.163.65-.32.54-.467v-.005M1064.91 673.591l.08.164.19.585.09.565-.03.523-.13.461-.24.377v.004l-.34.287-.41.182-.41.058-.01.001-.07.009-.53-.046-.55-.16-.56-.267-.17-.109-.13-.09-.25-.166-.51-.447-.45-.514-.38-.559-.29-.584-.19-.586-.08-.565.03-.502V672.191l.13-.461.24-.38.01-.003.33-.283.42-.18.48-.068.53.047.55.161M1062.25 679.992l.56-.245.45-.39v-.003M1070.76 665.837l.32.548.23.54.14.51.04.461-.03.155-.04.24-.07.133-.09.176v.004l-.26.218-.29.096-.06.021-.3.006-.11.003-.47-.098-.51-.201-.5-.281-.01-.007-.02-.01-.52-.382-.5-.452-.45-.504-.4-.537-.23-.399-.01-.016-.08-.134-.07-.157-.17-.384-.14-.51-.03-.461v-.006l.07-.388.16-.312.01-.003M1066.62 663.491l.35-.115.41-.008.04.007.43.092.51.202.52.297"/><path d="M1069.38 672.018v-.005l.04-.074 1.84-3.335M1069.41 664.349l.49.45.46.503M1075.69 662.779l-.05.036-.14.107-.26.044-.35-.057-.4-.154-.46-.247-.48-.331-.5-.402-.49-.457-.33-.36-.13-.133-.42-.513-.35-.511-.29-.489-.19-.443v-.007l-.06-.22-.05-.173-.01-.321.09-.235.18-.142.27-.043.34.056.41.156.29.162.02.01.06.033.08.044.49.329.49.401.49.456.46.492.42.513.08.122.27.386.29.491.2.449.08.304.02.089.01.321-.08.237Zm0 0-.03.039-2.04 3.614"/><path d="m1071 657.771-.65.331-.18.091-.51.26-1.2.607M1071.38 666.069l.61.335.55.208M1078.05 658.947l-.1.063-.19-.032-.27-.126-.08-.053-.26-.162-.4-.297-.44-.367-.03-.025-.44-.397-.48-.461-.46-.484-.44-.486-.4-.47-.33-.436-.26-.386-.18-.32-.08-.242v-.155l.1-.063.19.034.27.127.34.216.4.297.18.147.26.219.47.421.48.46.46.482.44.485.39.47.34.435.23.339.03.047.18.32.08.244v.156Zm0 0-1.45 2.553-.71 1.248"/><path d="m1073.31 654.048-.68.37-1.26.686-.75.402-.01.005M1075.66 662.818l.1.016.13-.087"/><path d="m1077.76 658.18.55-.99-.01-.018-.11-.11-.2-.198-.27-.278-.35-.346-.4-.403-.44-.444-.47-.466-.47-.472-.46-.46-.43-.428-.38-.382-.32-.32-.25-.245-.17-.163-.07-.072-1.08.603-.6.336-1.32.738M1072.43 652.987l-.31-.165-.24-.084-.15.009-1.57.888M941.965 785.365l-.489.944-.365.704-.191.367-.193.372-.087.169-.257.496-.017.032-.01.163-.004.076.084.318.179.384.267.435.345.47.409.486.459.485.356.337.03.029.104.098.502.425.496.371.357.23.113.072.427.222.366.133.15.02.143.019.207-.058.338-.194 3.385-1.945"/><path d="m940.367 788.449.112-.152.206-.058.292.038.007.002.328.118.031.011.427.222.471.302.497.371.503.427.145.137.346.328.46.486.021.024.389.463.346.471.088.144.109.179.029.047.041.065.178.384.083.317-.002.022-.009.137-.005.08-.113.15M949.069 791.025l.154-.204.023-.323-.111-.43-.241-.52-.089-.146M937.84 786.552l-.167.297-.04.186.055.27.007.018"/><path d="m938.035 786.713-.025.044-.317.566-1.17 2.09.042.107.133.195.218.277.296.346.361.403.414.445.451.47.469.475.47.463.452.434.418.387.367.325.301.251.225.167.14.078.05-.016.058-.032"/><path d="m939.336 786.475-.402.735-.09.164-.554 1.015-.833 1.526-.031.068.046.117.017.041.154.243.24.317.317.38.38.428.431.459.463.474.479.469.476.447.455.408.397.336.019.017.089.069.273.215.293.205.214.118.125.026 2.704-1.548"/><path d="m937.457 789.914.124.024.213.117.292.205.362.284.417.353.455.408.478.448.48.471.464.474.432.461.381.428.288.345.029.035.239.317.154.242.062.158-.033.067M947.073 781.185l-1.442 3.028-.285.597-.088.318.004.109.012.282.027.099.094.35.219.489.086.14.225.371.004.005.386.508.453.495.501.459.528.404.535.335.473.229.049.024.488.16.437.062.368-.039.285-.138.975-.551.599-.338 1.942-1.097"/><path d="m945.348 784.81.19-.234.284-.139.087-.01.28-.031.437.062.489.159.522.253.536.335.461.352.057.045.011.007.502.461.454.497.391.513.311.511.219.49.12.45.015.391-.09.317-.19.232M953.949 787.485l.259-.315.122-.43-.019-.529-.124-.466-.037-.142-.044-.097-.252-.565-.42-.693M953.639 775.782l-1.398 3.359-.156.393-.015.151-.001.007-.03.302.029.222.001.004.037.284.176.54.279.549.372.538.449.505.51.454.551.385.571.301.358.129.21.076h.001l.546.103.501-.005.437-.112 3.094-1.663"/><path d="m960.16 782.305.483-.291.355-.419.213-.531.064-.623-.088-.69-.237-.731-.378-.745-.131-.19-.093-.136-.278-.402M952.242 779.141l.261-.311.355-.216.437-.113.471-.005.03-.001.465.087.004.001.077.014.57.205.572.301.552.385.511.455.45.506.372.539.142.28.084.166.053.105.176.54.017.132.049.379-.046.46-.158.392-.262.31-.356.215M961.555 769.214l-.916 2.844-.1.523.019.565.139.586.252.584.355.561.445.514.452.392.067.057.06.039.511.328.603.27.61.163.596.05.557-.065.497-.178 2.695-1.305M968.398 775.142l.567-.384.438-.513.293-.622.137-.706-.025-.765-.186-.793-.34-.791-.48-.759"/><path d="m960.641 772.057.215-.459.323-.38.341-.232.077-.054.497-.178.558-.066.595.049.612.163.604.269.572.367.489.424.03.027.06.069.386.446.356.56.252.586.138.586.018.567-.1.522-.056.117-.161.343-.324.378-.419.286M970.896 761.302l-.377 2.194-.019.612.108.625.229.614.247.418.069.117.026.044.443.522.525.446.588.351.628.244.645.126.636.005.603-.117 2.036-.788M978.656 765.933l.507-.593.358-.699.196-.779.026-.828-.144-.845-.31-.831-.462-.784"/><path d="m970.52 763.496.144-.576.257-.505.007-.013.373-.439.47-.344.546-.235.603-.118.637.004.645.126.623.242.006.002.095.057.494.294.526.446.442.523.343.58.229.615.107.626-.019.612-.145.576-.265.518-.328.385-.046.053-.47.344-.546.234M1179.24 833.037l1.08-1.799.08-.191.02-.235-.03-.27-.09-.295-.13-.308-.19-.31-.22-.3-.25-.277-.27-.246-.28-.203-.28-.154-.27-.098-.25-.038-.22.022-1.91.776"/><path d="m1179.55 831.444-.27-.098-.28-.154M1180.01 831.461l-.21.023M1177.56 828.748l.08-.191.13-.139.13-.061.04-.021M1180.32 831.238v.002l-.13.138M1177.57 829.252l-.03-.27M1178.19 830.466l-.22-.299-.18-.311-.06-.138-.01-.008M1178.72 830.989l-.27-.246M1176.2 837.498l.94-1.597.12-.225.07-.269v-.301l-.06-.322-.11-.331-.16-.327-.21-.31-.25-.282-.27-.242-.3-.194-.3-.138-.3-.077-.28-.013-.25.053-1.75.548"/><path d="M1177.14 835.901v.002l-.17.172-.22.116-.25.052-.08-.003-.2-.009-.29-.076-.31-.138-.29-.195-.28-.242-.25-.283-.21-.31-.16-.327-.11-.332-.05-.322v-.301M1174.3 833.57v-.006l.03-.126.12-.226.17-.173.2-.107.02-.008M1172.42 842.383l.71-1.268.09-.296.04-.326-.03-.345-.08-.35-.15-.341-.2-.319-.25-.285-.28-.241-.3-.186-.32-.125-.32-.059-.31.009-1.45.259M1171.59 841.743l-.32-.125-.3-.186"/><path d="m1170.11 838.927.16-.253.1-.099.01-.005.1-.098.25-.143.24-.064.05-.013M1173.12 841.115l-.01.021-.14.233-.21.202M1172.21 842.729v-.002l.21-.343M1170.44 840.904l-.2-.319-.15-.341M1167.64 848.19l.47-.99.12-.317.07-.346v-.361l-.07-.364-.14-.352-.19-.326-.24-.288-.28-.239-.32-.18-.33-.116-.34-.046-1.08-.042"/><path d="m1168.11 847.199-.01.01-.18.265-.07.061v.004l-.17.159-.28.163-.32.096-.33.026-.34-.046-.34-.115M1165.04 846.788l-.13-.352-.07-.363v-.362l.06-.346.13-.317.19-.275.24-.223.28-.163.16-.05.01-.004.14-.042.29-.022.05-.004M1167.38 848.564v-.003l.26-.372M1162.36 853.985l.15-.578.09-.358.02-.373-.06-.372-.12-.358-.18-.331-.24-.29-.29-.238-.43-.237M1160.89 854.582l-.36-.037"/><path d="m1159.08 851.938.15-.33.21-.289.27-.236.3-.176.34-.108.35-.036.36.038.28.089.02.006.03.008.02.006.32.177M1162.51 853.406l-.01.018-.02.049v.012l-.12.251-.21.289-.27.237-.3.175M1161.87 854.823v-.002l.29-.391.21-.446M1159.03 853.041l-.05-.372M1159.86 854.258l-.29-.238-.24-.291M1153.13 858.104l.28-.242.33-.181.35-.112.36-.04.37.035.36.107.33.176.28.238.24.29.18.332.12.361.04.376-.03.377-.1.363-.17.334-.23.294"/><path d="m1155.84 861.309.01-.003.31-.397.22-.453.14-.49.04-.509-.06-.508-.15-.488-.24-.449M1154.15 861.353l-.35-.108M1154.89 861.348l-.37.04M1155.56 861.055l-.32.181M1152.74 858.732l.17-.334M1152.61 859.473l.03-.377M1152.76 860.21l-.11-.361M1146.25 865.201l.24-.29.29-.239.33-.177.36-.109.38-.037.37.037.36.109.33.177.29.238.24.29.18.332.11.359.03.374-.03.374-.11.36-.18.331-.24.29-.29.239M1147.47 868.145l-.36-.109-.33-.177-.29-.238-.24-.29-.17-.332-.11-.359M1149.5 867.811v-.003l.33-.393.23-.448.15-.486.05-.505-.05-.505-.15-.486M1139.73 871.519l.29-.227.33-.166.36-.098.38-.028.37.045.36.114.33.181.29.239.24.289.18.328.11.354.03.366-.04.364-.1.349-.18.32-.24.278M1143.04 874.123l.01-.003.32-.376.24-.432.15-.472.05-.493-.05-.495-.15-.478-.24-.443M1140.35 874.586l-.33-.18-.29-.24-.24-.289-.18-.327M1142.15 874.453l-.33.165-.36.099-.38.027M1139.32 872.117l.17-.32M1132.57 878.604l.1-.331.17-.299.23-.259.28-.207.33-.146.35-.081.37-.011.36.057.36.124.33.186.29.241.24.286.18.322.11.344.04.354-.03.347-.1.331-.17.301-.23.259-.23.161v.006l-.06.039-.32.145-.35.081M1136.67 880.04l.01-.002.31-.349.23-.406.14-.448.04-.471-.06-.478-.15-.465-.24-.435-.33-.388M1132.58 879.306l.11.344.18.322.24.286.29.242.33.186.35.124"/><path d="m1132.35 878.534.22.777.11.343.18.322.24.287.29.241.33.186.35.124.37.057.37-.012.35-.081.69-.26M1135.11 877.455l.33.186.29.241.24.287.18.322M1136.3 879.188l-.03.348-.1.331"/><path d="m1132.57 879.312-.01-.043-.02-.192v-.019l-.01-.1.03-.348.1-.331.17-.3.23-.259.28-.206M1135.85 880.518l.44-.198.38-.278v-.003M1136 880.169l-.23.258-.21.156-.01.006-.06.044-.29.128-.04.018M1133.67 877.367l.35-.081.37-.012M1139.38 874.043l.39.324.44.244.49.155.51.06.5-.037.49-.134.45-.223.39-.306v-.003"/><path d="m1142.68 871.874.17.328.11.353.04.366-.04.365-.11.349-.18.32-.23.278-.29.226-.34.166-.36.098-.37.028-.37-.045-.36-.114-.33-.181-.29-.239-.24-.289-.18-.328-.11-.353-.04-.366.04-.365.11-.349.18-.319.24-.279.29-.226.33-.166.36-.098.37-.028.38.044.36.115.33.18M1145.84 867.815l.39.323.45.239.48.146.51.05.5-.05.49-.148.45-.238.39-.322v-.003"/><path d="m1147.11 868.042-.33-.177-.29-.238-.24-.291-.18-.331-.11-.359-.03-.375.03-.373.11-.359.18-.333.24-.289.29-.24.33-.177.36-.108.37-.038.37.038.36.108.34.177.29.239.23.29.18.332.11.358.04.375-.04.374-.11.359-.18.332-.23.289-.29.24-.34.177-.35.109-.38.037-.37-.037-.36-.109ZM1152.24 861.339l.39.321.45.238.48.145.5.046.49-.054.48-.151.43-.245.38-.327.01-.003"/><path d="m1153.79 861.251-.33-.175-.29-.238-.24-.291-.18-.332-.11-.361-.04-.376.03-.377.1-.363.17-.334.23-.294.28-.242.32-.181.35-.112.37-.04.37.035.35.107.33.176.29.238.24.29.18.332.11.361.04.376-.03.377-.1.363-.17.334-.22.294-.29.242-.32.181-.35.112-.37.04-.36-.034-.36-.108ZM1158.39 854.82l.39.321.43.24.47.148.48.05.48-.048.46-.146.41-.238.36-.321v-.003M1162.35 853.743l-.21.288-.26.237-.31.176-.33.108-.36.036-.35-.037-.35-.11-.32-.177-.29-.238-.24-.29-.19-.33-.12-.359-.05-.373.02-.372.08-.358.15-.33.22-.289.26-.237M1162.51 853.413l.08-.358.02-.373-.05-.372-.13-.359-.18-.33-.24-.29-.29-.238"/><path d="m1162.51 853.412-.03.055v.012M1160.01 850.913l.33-.108.36-.036.35.038.31.095.02.006.02.008.32.177M1164.46 848.793l.42.244.46.156.46.062.45-.035.42-.13.39-.221.32-.302v-.003M1167.9 845.14l.19.326.13.351.07.364v.362l-.06.345-.13.317-.19.276-.06.055v.005l-.17.162-.29.164-.31.096-.33.026-.35-.046-.33-.115-.32-.182-.28-.238-.24-.288-.19-.326-.14-.352-.07-.364v-.362l.07-.346.12-.316.19-.275.24-.224.28-.163.18-.053.01-.004.13-.039.33-.025.34.046.34.115.31.18.29.24M1169.5 842.815l.41.253.44.169.43.08.42-.013.38-.106.34-.193.28-.273.01-.003M1172.96 841.374l-.2.203-.17.094v.002l-.09.046-.28.078-.31.009-.32-.059-.32-.125-.31-.186-.28-.241-.24-.285-.2-.32-.15-.341-.09-.35-.02-.345.03-.327.1-.296.16-.253.1-.104M1173.22 840.825l.03-.326-.02-.345-.09-.35-.15-.341M1170.73 838.333l.28-.077.31-.009.32.059.32.125M1177.14 835.904v.003l-.17.174-.22.115-.25.053-.08-.004-.2-.008-.3-.077-.3-.138-.29-.194-.28-.243-.25-.282-.21-.311-.16-.327-.11-.331-.06-.322.01-.301.03-.142v-.005l.03-.122.12-.225M1177.26 835.681l.06-.268.01-.301-.06-.323-.11-.33M1174.62 833.042l.22-.115.25-.052.28.012.3.077"/><path d="M1176.2 837.503v-.003l.01-.012.93-1.582M1174.14 837.661l.41.186.4.104.38.016.34-.072.3-.156.23-.235M1176.79 833.821l-.25-.281-.28-.243M1177.07 832.705l.38.276.38.207.37.133.33.051.29-.03.24-.112.18-.189M1180.32 831.241v.002l-.13.139-.18.083-.22.022-.24-.038-.27-.098-.28-.154-.03-.018-.01-.006-.25-.179-.27-.246-.25-.278-.22-.3-.18-.31-.07-.146v-.008l-.07-.155-.09-.295-.03-.27.03-.235.07-.19M1180.3 830.252l-.14-.309-.18-.31-.22-.299"/><path d="M1179.24 833.041v-.003l1.08-1.796M1178.67 828.453l-.27-.098M1179.01 828.546l.36.336.36.29.35.232.33.165.29.093.24.015.18-.061.11-.136M1182.4 827.521l-.08.101-.14.045-.17-.012-.21-.069-.25-.122-.26-.172-.26-.214-.27-.249-.26-.273-.23-.288-.2-.29-.17-.283-.12-.264-.07-.235v-.061l-.01-.136.03-.151.08-.1.13-.04.01-.004.17.012.22.069.24.122.11.076.01.006.14.09.27.214.11.103.15.145.15.155.11.118.23.287.2.291.17.282.02.052.1.212.07.235.01.159.01.038-.04.151Zm0 0-1.17 1.958"/><path d="m1179.81 824.748-.31.149-.94.442M1183.34 824.852l-.04.058-.09.004-.13-.05-.18-.101-.21-.149-.2-.16-.04-.031-.25-.226-.27-.252-.25-.268-.19-.206-.06-.068-.22-.27-.2-.255-.15-.23-.11-.196-.06-.156-.01-.108.04-.057.08-.004.14.05.18.101.21.149.24.191.23.208.02.018.26.251.26.268.24.274.22.26.01.01.19.254.16.23.11.197.06.156.01.108Zm0 0-.7 1.196-.39.679M1180.72 822.131l-.09.044-.84.439-.42.217M1183.12 823.316l-.04-.039-.1-.089-.14-.135-.18-.177-.21-.212-.24-.238-.26-.255-.26-.263-.26-.261-.24-.247-.23-.226-.18-.194-.16-.156-.1-.112-.06-.064v-.012l.04.039.1.089.14.136.18.177.22.212.23.237.26.255.26.263.26.26.24.247.22.226.2.194.14.157.11.112.06.063v.013Zm0 0-.32.581M1180.46 820.636l-.4.223-.49.269-.47.264"/><path d="m1180.06 820.859-.05-.038-.25-.196-.22-.158-.19-.116-.14-.068-.11-.017-.47.279M1121.18 890.393l.22.185.31.203.34.153.34.095.34.035.31-.026.29-.088 1.36-.794M1124.69 890.156l.33-.196.25-.266.18-.325.09-.374v-.406l-.09-.424-.17-.425-.26-.409-.33-.379"/><path d="m1120.48 889.09.01-.267.06-.275.13-.242.19-.196.05-.031.2-.114.28-.088.32-.027.33.035.35.096.33.152.32.203.28.246.24.28.19.303.14.314.06.314v.3l-.05.215-.02.061-.13.241-.19.196-.24.145M1120.84 887.28l-.36 1.542M1126.31 883.263l-.07 1.182.05.335.12.331.18.313.24.284.29.243.32.194.35.136.36.075.35.009.34-.057.31-.119 1.09-.57M1130.24 885.619l.36-.242.29-.312.21-.37.12-.414.02-.442-.07-.454-.16-.447-.25-.423-.32-.384"/><path d="m1126.24 884.444.02-.327.09-.306.03-.07.12-.204.21-.23.27-.179.31-.12.34-.057.35.009.36.074.35.137.32.194.29.243.24.284.18.313.12.331.05.335-.02.327-.09.307-.15.273-.04.04-.17.191-.27.179M720.783 342.622l.024-.313-.062-.358-.146-.389-.225-.405-.237-.326-.057-.079-.353-.391-.033-.03-.365-.33-.428-.317-.441-.26-.437-.195-.417-.121-.38-.043-.33.036-.266.116-2.614 1.537"/><path d="m720.782 342.623-.11.257-.003.003-.188.187-.003.001-.262.114-.33.038-.38-.043-.418-.121-.353-.157-.011-.005-.073-.032-.442-.261-.428-.317-.399-.361-.354-.391-.226-.312-.008-.011-.06-.083-.225-.406-.146-.389-.062-.358.025-.313.111-.256.19-.187.002-.002M714.391 347.17l.069-.366-.023-.405-.115-.428-.202-.435-.281-.424-.35-.398-.404-.356-.444-.301-.467-.234-.471-.158-.458-.076-.426.009-.379.093-.318.174-2.333 1.336"/><path d="m714.392 347.169-.013.027-.145.287-.243.249-.003.002-.313.173-.243.061-.008.001-.128.032-.427.01-.458-.076-.472-.158-.467-.234-.445-.301-.405-.357-.35-.399-.281-.425-.202-.434-.115-.429-.017-.309v-.005l-.005-.091.069-.366.159-.314.241-.246.002-.003M706.892 352.751l.009-.447-.089-.463-.183-.46-.27-.442-.347-.404-.41-.352-.458-.287-.488-.21-.499-.126-.492-.035-.465.055-.421.144-1.869.987"/><path d="m706.89 352.752-.031.12-.075.295-.2.365-.194.206-.007.008-.084.088-.004.003-.355.225-.421.145-.465.056-.492-.036-.5-.125-.488-.21-.459-.287-.411-.352-.347-.406-.27-.441-.183-.462-.088-.463.009-.447.107-.414.089-.162.002-.005.109-.199.282-.298.003-.004.34-.214.02-.013M698.358 359.495l-.068-.492-.169-.483-.261-.456-.345-.41-.414-.349-.469-.274-.505-.19-.521-.098-.517-.001-.495.095-.452.187-1.474.644"/><path d="m698.358 359.495-.007.107-.026.376-.082.277-.005.016-.048.162-.23.409-.317.347-.005.004-.388.269-.452.188-.495.095-.518-.001-.521-.097-.505-.19-.469-.275-.415-.349-.345-.411-.262-.456-.168-.483-.069-.493.034-.483.135-.455.231-.409.28-.305.006-.007.029-.031.003-.004.379-.263.014-.009M684.391 365.674l.004-.005.414-.307.455-.213.017-.008.398-.097.117-.029.535-.025.535.076.515.173.476.266.417.346.344.415.256.466.02.063.015.048.017.054.107.336.056.515-.05.511-.153.486-.25.443-.339.383-.005.004-.409.304-.473.222-.513.125-.535.026M685.825 370.178l-.516-.174M683.805 366.496l.251-.443M685.796 365.016l-.702.135M683.815 368.51l-.159-.501M678.928 375.281l.254.474.155.513.051.531-.057.53-.16.508-.26.466-.347.407-.005.004-.418.328-.482.244-.522.147-.542.044-.542-.061-.52-.163-.479-.259-.419-.344-.343-.418-.254-.474-.156-.513-.05-.532.056-.529.161-.508.26-.467.344-.402.003-.004.423-.332.482-.244.522-.147.542-.043.542.06.52.163.479.259.419.345.343.417ZM669.107 384.818l.256.478.157.518.053.539-.053.539-.158.519-.256.478-.343.418-.005.004-.415.34-.478.255-.518.158-.54.053-.539-.053-.519-.158-.478-.255-.418-.344-.344-.419-.256-.478-.157-.518-.053-.539.053-.54.158-.518.256-.478.34-.414.004-.005.419-.343.478-.256.518-.157.54-.053.539.053.519.158.478.255.418.344.344.419ZM659.477 394.559l.26.477.164.518.064.539-.041.539-.143.518-.24.477-.328.418-.004.003-.398.34-.463.254-.504.157-.526.052-.529-.053-.511-.158-.473-.255-.417-.344-.345-.419-.26-.477-.165-.518-.063-.538.041-.539.143-.518.239-.477.324-.413.004-.005.402-.343.463-.255.504-.156.526-.053.529.053.511.158.473.255.417.344.346.419ZM645.825 404.57l.188-.411.01-.025.013-.029.297-.4.003-.005.374-.329.435-.243.479-.145.504-.043.51.062.497.163.464.259.414.344.349.417.268.474.177.511.081.53-.019.528-.119.506-.212.464-.299.405-.005.003-.37.326-.435.242-.478.145-.504.043-.08-.01-.039-.004-.393-.048-.495-.163-.464-.259-.414-.344-.347-.417-.268-.473-.179-.511-.08-.53.018-.528.119-.505Zm0 0 .008-.029M647.938 408.301l.072.018"/><path d="m648.631 403.01.497.163.465.259.414.345.347.417.268.473.178.511.081.53-.019.528-.119.506-.213.464-.296.4-.003.005-.374.33-.435.241-.479.145-.504.043-.028-.004-.051-.006-.351-.042-.08-.01-.497-.163-.464-.259-.413-.344-.348-.417-.268-.473-.177-.511-.082-.53.019-.528.118-.505.017-.037.182-.398.012-.025.002-.004.299-.405.004-.004.37-.326.435-.243.478-.145.505-.043M646.157 403.534l-.341 1.044M656.27 398.65l-.473-.256-.417-.343-.345-.419-.26-.477-.165-.518-.063-.539.041-.538.142-.518.24-.477.328-.418.004-.004.398-.339.463-.255.504-.157.526-.053.529.054.511.157.473.256.417.344.345.418.26.478.165.518.064.539-.041.538-.143.518-.24.477-.324.413-.004.005-.403.343-.462.255-.504.156-.526.053-.529-.054-.511-.157ZM665.741 388.915l-.478-.256-.419-.344-.344-.418-.255-.478-.157-.519-.053-.539.053-.539.157-.519.256-.477.344-.419.005-.004.414-.34.478-.255.519-.157.539-.053.54.053.518.157.478.256.419.343.344.419.255.478.157.519.053.539-.053.539-.157.518-.256.478-.34.414-.004.005-.419.344-.478.255-.519.157-.539.053-.539-.053-.519-.157ZM678.56 378.715l-.004.004-.423.332-.481.244-.522.147-.542.044-.542-.061-.52-.162-.479-.259-.42-.345-.343-.418-.254-.474-.155-.513-.051-.531.057-.53.161-.508.259-.466.348-.407.005-.004.418-.328.481-.244.522-.146.543-.044.541.06.52.163.479.259.419.345.343.417.254.474M679.328 376.276l.05.531M679.321 377.338l-.161.508M688.867 366.74l.025.08.01.031.124.389.056.516-.05.511-.153.486-.251.443-.335.379-.003.004-.414.308-.473.221-.514.126-.535.026-.535-.076-.516-.173-.476-.266-.418-.346-.344-.415-.256-.467-.159-.501-.056-.516.05-.511.154-.486.251-.443.339-.383.004-.003.41-.305.472-.22.036-.009.478-.117.535-.025.535.075.516.174.475.265.418.347.343.414.257.467Zm0 0 .028.055M685.788 365.023l-.108.021M698.183 360.441l-.231.409-.314.344-.003.003-.393.273-.452.188-.494.095-.519-.001-.521-.097-.505-.19-.469-.275-.415-.349-.345-.411-.262-.456-.168-.483-.069-.493.034-.483.135-.455.231-.409.286-.312.006-.006.026-.029.005-.003M698.285 359.011l.069.492-.034.483-.077.261-.005.016M694.586 356.844l.495-.094.517.001.522.098M696.625 357.037l.469.275.414.349.345.41M706.776 353.172l-.199.366-.187.199-.007.007-.088.093-.003.003-.359.228-.421.145-.465.056-.492-.036-.5-.125-.489-.21-.458-.287-.411-.353-.347-.405-.27-.441-.183-.462-.088-.463.009-.447.107-.415.091-.167.003-.005.106-.193.285-.302.004-.002.356-.225.421-.144M704.148 349.566l.499.126.488.21.458.286.41.353.347.404.27.441.183.461.088.463M714.386 347.174l-.159.314-.239.246-.003.003-.317.175-.235.058-.008.002-.135.034-.427.009-.458-.075-.472-.158-.467-.234-.445-.302-.405-.356-.35-.399-.281-.425-.202-.435-.115-.428-.018-.315v-.005l-.005-.085.07-.367.159-.313.243-.249.004-.002M713.832 345.116l.281.424.202.435.114.427M710.117 343.869l-2.277 1.304M720.778 342.626l-.11.256-.189.188-.002.002-.266.116-.329.037-.38-.042-.418-.121-.342-.152-.011-.005-.084-.038-.442-.26-.429-.318-.398-.36-.354-.392-.234-.323-.008-.011-.052-.072-.225-.405-.146-.39-.062-.358.025-.313.111-.256.192-.189.003-.001.263-.114M719.719 340.365l.353.39.028.039.266.367M720.594 341.566l.146.388M716.622 339.221l-2.606 1.533M718.453 339.428l.441.261.428.316.393.356M725.709 339.849l-.133.126-.109.028-.099.025-.273-.023-.059-.018-.27-.08-.371-.169-.4-.234-.413-.289-.41-.334-.391-.365-.357-.384-.31-.386-.251-.374-.181-.347-.106-.308-.025-.256.056-.194.134-.126.208-.052.274.023.329.099.097.044.274.125.399.234.412.289.409.333.391.365.357.383.111.138.19.236.008.011.179.267.072.106.181.348.106.307.026.257-.055.195Zm0 0-.138.288-.106.22M721.739 336.141l-2.829 1.667M729.21 338.458l-.001.001-.07.06-.146-.012-.213-.085-.272-.155-.322-.219-.359-.274-.326-.272-.055-.046-.39-.351-.044-.043-.34-.328-.361-.375-.327-.365-.193-.236-.085-.105-.22-.305-.152-.255-.08-.198-.004-.131.073-.06.146.013.213.085.273.156.322.218.235.18.123.094.381.318.389.351.383.37.361.374.135.15.191.214.278.341.22.305.153.255.08.198.004.132Zm0 0-.198.377"/><path d="m725.325 334.704-1.385.802-1.292.748M731.094 338.734l-.008-.005-.08-.077-.151-.147-.214-.211-.27-.268-.316-.314-.35-.348-.369-.369-.375-.374-.366-.367-.344-.344-.307-.309-.26-.262-.201-.204-.136-.139-.066-.068.009.005.081.078.15.147.215.212.271.268.315.314.349.347.369.368.374.374.366.366.343.344.307.308.259.262.202.204.137.14.066.069Zm0 0-.333.594-.045.08M727.279 334.928l-.767.429M620.714 435.938l-1.725 2.883-.028.185.046.251.119.308.161.304.026.049.249.384.3.401.296.35.044.053.368.388.38.359.378.317.336.242.027.019.332.197.29.124.235.047.173-.033.251-.123.152-.075.261-.128"/><path d="m618.988 438.822.103-.111.172-.033.235.046.29.124.071.042.105.062.156.093.363.261.38.317.381.36.367.389.341.403.301.402.03.046.218.339.031.058.156.295.119.308.01.052.036.198-.008.046-.022.138-.103.11M619.048 443.039l-.06.108.044.089.117.158.186.22.245.276.298.319.337.35.364.369.378.373.375.362.36.338.329.3.287.252.234.193.171.126.101.056.256-.143"/><path d="m619.287 439.869-.039.068-1.084 1.855.037.122.11.19.176.251.238.303.289.343.035.038.254.285.041.047.358.382.372.38.372.363.357.334.33.289.289.236.181.131.056.041.176.101.109.028.383-.204.608-.322"/><path d="m618.164 441.792.036-.048.108.027.176.102.237.171.289.235.311.274.019.016.358.334.373.364.372.381.358.383.331.37.289.343.238.303.176.251.109.19.036.121-.036.047M623.113 431.594l-1.621 2.694-.093.244-.016.309.062.361.138.4.174.353.035.07.271.431.323.421.362.396.389.355.399.301.395.235.375.16.255.059.086.02.294-.004.236-.089"/><path d="m621.492 434.287.168-.17.235-.09.294-.005.341.079.376.159.395.236.4.301.389.356.363.396.324.422.271.431.208.424.138.401.062.361-.017.308-.094.243-.168.17M627.059 425.875l-1.442 2.438-.155.297-.075.361.008.409.092.442.17.459.243.458.307.438.358.403.396.351.419.287.425.211.416.127.39.039.349-.051"/><path d="m625.617 428.312.229-.224.296-.14.349-.052.39.038.008.002.408.125.426.211.419.287.397.352.359.403.307.44.243.458.17.459.091.443.003.175.005.234-.076.36-.156.297-.23.223-.295.14M632.161 419.413l-1.121 2-.128.404-.041.451.049.479.135.489.218.48.291.453.354.408.403.349.437.275.453.19.453.1.434.004.4-.092"/><path d="m631.039 421.413.212-.344.285-.269.35-.184.048-.011.352-.081.435.004.453.099.453.191.437.275.404.349.354.409.292.453.218.481.135.49.048.479-.041.45-.129.405-.129.208-.083.135-.286.268-.35.183M638.758 411.541l-.793 1.621-.175.439-.083.483.011.508.106.513.195.498.279.465.35.413.409.346.452.266.477.174.484.077.474-.023"/><path d="m637.965 413.161.26-.38.219-.2.116-.105.396-.218.444-.124.473-.024.485.077.478.175.452.265.409.347.351.413.279.466.195.499.106.513.011.508-.084.483-.176.439-.26.38-.335.304-.22.121-.177.097-.443.123M738.951 357.731l1.304-3.052.116-.28.023-.341-.07-.389-.161-.423-.245-.44-.162-.222-.158-.217-.221-.245-.162-.178-.153-.139-.277-.252-.07-.051-.392-.291-.476-.281-.472-.21-.364-.105-.084-.024-.409-.045-.321.038-.033.004-.284.127-2.845 1.657"/><path d="m740.255 354.679-.007.007-.196.201-.003.001-.281.127-.353.042-.409-.044-.449-.129-.425-.188-.012-.006-.035-.015-.331-.196-.146-.086-.45-.333-.013-.01-.431-.39-.384-.424-.247-.34-.009-.012-.064-.089-.245-.44-.16-.423-.07-.39.024-.341.116-.279.202-.205.003-.002M733.028 360.874l.511-1.495.018-.103.054-.296-.028-.441-.127-.464-.22-.472-.305-.46-.283-.322-.096-.11-.297-.261-.141-.124-.48-.326-.504-.252-.509-.17-.493-.081-.46.011-.408.103-.34.191-2.545 1.436"/><path d="m733.54 359.38-.016.032-.153.31-.259.272-.004.002-.202.114-.134.075-.287.073-.008.002-.113.029-.459.012-.494-.08-.509-.17-.505-.253-.481-.326-.439-.386-.379-.432-.306-.461-.22-.472-.126-.466-.022-.355-.001-.006-.005-.079.073-.399.17-.342.257-.268.003-.003M725.001 367.683l.38-1.74.102-.467.003-.245.004-.241-.098-.503-.199-.5-.293-.479-.376-.438-.445-.382-.495-.31-.528-.227-.539-.135-.531-.037-.502.061-.454.158-2.046 1.056"/><path d="m725.483 365.476-.05.197-.063.253-.214.398-.232.251-.008.007-.066.072-.004.002-.383.246-.453.159-.502.062-.531-.037-.54-.134-.529-.227-.496-.311-.445-.382-.377-.439-.293-.479-.199-.501-.098-.504.008-.486.114-.45.11-.205.003-.005.101-.188.303-.325.004-.004.368-.236.019-.012M716.279 374.45l.016-1.621-.076-.535-.184-.525-.284-.494-.374-.444-.449-.379-.507-.297-.546-.205-.564-.105h-.56l-.534.104-.489.204-1.619.682"/><path d="m716.293 372.828-.01.148-.025.376-.098.334-.005.018-.041.142-.248.445-.342.379-.005.003-.419.294-.488.205-.535.104h-.56l-.564-.104-.547-.205-.508-.298-.449-.379-.374-.445-.285-.494-.183-.526-.076-.535.036-.525.144-.494.249-.445.33-.364.007-.007.002-.002.004-.004.41-.287.013-.01M706.44 381.486l-.386-.78-.278-.506-.373-.449-.452-.376-.516-.287-.558-.188-.579-.081-.579.028-.19.031h-.005l-.002.001-.392.063h-.002l-.194.032"/><path d="m706.054 380.707.024.075.034.107.018.059.097.303.061.56-.052.554-.165.528-.27.482-.366.416-.005.004-.443.331-.511.241-.556.137-.579.029-.581-.081-.558-.188-.516-.287-.453-.376-.373-.45-.278-.507-.173-.543-.061-.561.053-.554.019-.06.001-.006.145-.463.271-.481.362-.411.005-.005.246-.184.201-.151.335-.157.177-.083.068-.017.04-.01.246-.06.002-.001.004-.001h.002l.112-.028.082-.02M695.294 390l.276.514.168.556.055.577-.06.575-.174.551-.28.506-.377.442-.005.004-.452.356-.522.266-.566.159-.587.049-.587-.066-.564-.176-.519-.28-.455-.374-.372-.453-.276-.515-.169-.556-.055-.577.061-.575.174-.551.281-.506.192-.226.007-.009.173-.202.004-.005.458-.361.522-.265.565-.159.588-.048.587.065.228.072.335.105.519.28.455.374.372.453ZM684.652 400.352l.277.518.17.563.058.585-.058.584-.17.562-.278.519-.373.454-.005.004-.449.369-.519.276-.562.171-.585.058-.585-.058-.562-.171-.519-.277-.454-.373-.373-.454-.277-.518-.17-.562-.058-.585.058-.585.171-.562.277-.518.369-.45.004-.005.454-.372.519-.277.562-.171.585-.057.585.057.563.171.518.277.454.373.373.454ZM674.209 410.912l.282.517.178.562.069.584-.045.583-.156.561-.26.517-.356.453-.005.004-.433.367-.501.276-.548.169-.571.056-.574-.058-.554-.171-.513-.278-.452-.372-.374-.454-.282-.518-.178-.561-.069-.584.045-.583.155-.561.261-.517.351-.447.004-.005.437-.372.502-.276.547-.169.572-.057.574.059.554.171.513.277.453.373.374.454ZM659.377 421.739l.168-.364.008-.018.056-.12.321-.434.004-.004.407-.358.472-.26.52-.158.548-.044.554.067.539.178.504.281.449.374.377.452.29.513.192.554.087.573-.021.572-.129.548-.232.501-.326.438-.004.004-.403.351-.472.262-.52.156-.543.045h-.005l-.047-.006-.506-.061-.539-.178-.504-.281-.449-.374-.376-.451-.29-.513-.192-.553-.088-.574.021-.571.129-.547Zm0 0 .008-.026M661.668 425.78l.092.021"/><path d="m661.117 425.611-.503-.281-.449-.374-.376-.451-.29-.513-.193-.553-.087-.574.021-.571.129-.548.016-.034.16-.347.009-.019.047-.102.325-.437.004-.004.402-.353.473-.261.52-.157.547-.045.555.067.539.178.504.281.449.374.377.452.29.513.192.554.087.574-.021.571-.129.547-.232.502-.322.433-.004.005-.407.356-.472.261-.52.156-.516.043-.028.002h-.004l-.453-.055-.101-.012-.539-.178ZM659.722 420.592l-.351 1.155M661.656 425.789l1.155.264M673.917 414.694l-.004.005-.437.371-.502.276-.547.169-.572.056-.573-.058-.554-.171-.513-.277-.453-.373-.374-.454-.282-.517-.178-.562-.069-.583.045-.584.155-.561.261-.517.356-.452.004-.004.433-.368.501-.275.548-.17.571-.057.574.059.554.171.513.277.453.373.374.454.282.518.178.561.069.584-.045.584-.156.561-.26.516M681.002 404.794l-.518-.277-.454-.372-.373-.455-.277-.518-.17-.562-.058-.585.058-.585.171-.562.277-.518.373-.454.005-.005.449-.368.519-.277.562-.17.585-.058.585.058.563.17.518.277.454.373.373.454.277.519.17.562.058.585-.058.584-.171.563-.277.518-.369.449-.004.005-.454.373-.519.277-.562.17-.585.058-.585-.058-.563-.171ZM695.267 393.289l-.372.437-.004.005-.458.36-.521.266-.566.159-.587.049-.587-.066-.564-.176-.52-.281-.454-.373-.373-.453-.275-.515-.169-.556-.055-.577.061-.575.174-.551.28-.507.201-.235.007-.008.169-.198.005-.004.453-.357M692.199 388.708l.587-.048.587.065.228.071.001.001.335.105.519.28.454.374.373.453.275.514.169.556.055.577-.06.575M703.865 378.908l.558.188.516.287.452.376.373.45.278.506.039.122.019.059.115.362.061.56-.052.554-.165.529-.271.481-.361.412-.004.004-.448.335-.511.241-.556.138-.579.028-.581-.081-.558-.188-.516-.287-.453-.376-.373-.45-.278-.506-.173-.544-.061-.56.053-.555.02-.066.002-.006.143-.456.271-.482.367-.416.004-.003M701.438 379.383l.011-.009.189-.141.334-.157M702.262 378.966l.04-.01.214-.053h.001l.004-.001.002-.001.187-.046.578-.028M716.025 371.776l.183.524.076.535-.035.525-.092.317-.005.017-.047.16-.248.445-.338.374-.004.004-.423.297-.489.205-.534.105h-.56l-.564-.105-.547-.205-.508-.297-.45-.379-.374-.445-.284-.495-.184-.525-.075-.535.035-.525.145-.494.248-.445.337-.371.006-.007.001-.001.004-.002.419-.294.488-.204M712.742 369.852l.56.001.563.104.546.205.508.298.449.378.374.445M724.923 366.573l-.007.008-.07.075-.003.004-.156.1-.232.149-.453.158-.076.01-.426.052-.531-.036-.54-.135-.529-.227-.496-.31-.445-.382-.376-.44-.294-.479-.199-.501-.098-.503.009-.486.113-.451.113-.21.003-.006.098-.181.307-.33.004-.002.384-.246M721.477 362.046l.502-.061.531.037.539.135.528.227.496.31.444.382.376.439.293.478.2.5.098.503M725.478 365.24l-.004.242-.113.451-.046.086-.167.311M733.106 359.996l-.003.003-.201.113-.139.078-.279.072-.008.002-.12.03-.46.012-.494-.08-.509-.17-.505-.253-.047-.032-.384-.26-.05-.034-.438-.386-.38-.432-.306-.461-.22-.472-.126-.466-.022-.361-.001-.006-.004-.073.072-.399.17-.342.26-.271.004-.002.337-.189.408-.103.459-.011.493.081M732.641 356.828l.281.32.305.46.221.472.126.465.028.44-.054.301-.018.098-.168.342"/><path d="m728.912 355.808-2.188 1.235-.353.199M731.121 355.754l.504.252.48.326.144.126M738.781 351.557l.308.279.123.111.163.181.219.242.127.174.193.266.245.44.161.422.07.39-.023.341-.115.28-.201.205-.003.003-.283.127-.354.043-.409-.044-.449-.129-.412-.183-.012-.006-.048-.021-.329-.194-.147-.087-.448-.332-.015-.011-.432-.391-.383-.424-.256-.351-.009-.013-.055-.076-.221-.396-.025-.044-.16-.423-.052-.29-.018-.1.024-.341.117-.279.204-.208.003-.001.282-.125.037-.005.316-.037.409.044.087.025.362.105.471.21.476.281.395.292M735.874 350.718l-2.835 1.652M745.611 351.339l-.14.139-.221.059-.058-.004-.234-.018-.111-.033-.241-.071-.399-.181-.431-.252-.445-.312-.442-.361-.424-.396-.387-.415-.337-.418-.273-.406-.033-.063-.166-.315-.117-.335-.031-.279.056-.213.142-.139.222-.058.292.023.252.075.099.029.001.001.399.181.43.252.444.312.442.36.422.395.324.346.063.068.336.418.085.126.166.246.022.033.2.378.117.335.032.279-.056.214Zm0 0-.109.225-.104.214-.06.124-.75 1.545M741.318 347.325l-.784.46-2.288 1.34M749.3 349.774l-.073.069-.153-.011-.227-.09-.291-.166-.345-.234-.386-.295-.411-.344-.421-.379-.214-.208-.2-.193-.392-.406-.355-.396-.285-.349-.018-.022-.24-.331-.169-.278-.09-.216-.007-.144.074-.068.154.012.227.09.291.166.345.235.18.138.205.157.411.344.42.378.413.4.391.405.227.253.127.142.303.37.241.331.169.279.09.216.009.145Zm0 0-.252.477-.28.529-.655 1.24"/><path d="m745.096 345.713-2.07 1.195-.842.487M751.225 350.009l-.004-.002-.083-.081-.158-.157-.228-.227-.29-.288-.339-.338-.376-.375-.398-.398-.405-.405-.397-.397-.373-.373-.335-.336-.283-.284-.222-.223-.15-.152-.075-.076.005.003.083.081.159.158.229.227.289.288.339.338.376.375.397.397.405.404.396.396.372.373.334.335.283.284.222.223.151.153.076.077Zm0 0-.429.766-.401.716-.157.281M747.11 345.897l-.817.456M751.164 352.395l.263-.456-.012-.149-.09-.221-.165-.286-.233-.34-.13-.168M631.93 455.375l-.422.71-1.054 1.773-.264.443-.121.205-.034.196.048.268.127.33.123.231.078.148.268.413.324.433.194.229.174.205.397.42.412.389.411.344.13.095.191.138.072.052.361.216.316.137.257.055.189-.032.324-.16.155-.077.308-.152.442-.22.414-.205"/><path d="m630.07 458.505.113-.116.061-.011.127-.021.257.053.286.124.029.013.191.113.171.103.394.285.411.344.413.39.398.421.369.435.148.199.176.234.127.197.141.217.201.38.115.301.011.028.042.239.005.029-.034.195-.114.115M630.007 462.884l-.054.097.05.1.129.175.202.242.268.3.323.347.365.381.395.4.408.402.405.391.388.364.355.322.309.269.25.204.183.133.107.056 1.453-.813"/><path d="m630.333 459.53-1.216 2.087.038.127.116.202.19.268.255.325.291.344.021.024.16.18.196.218.386.413.402.411.403.394.388.361.357.316.314.257.259.19.068.04.125.073.12.035 1.129-.603.364-.194.876-.467"/><path d="m629.117 461.617.042-.048.119.033.192.114.258.189.315.257.246.217.112.099.388.362.404.395.403.412.387.413.356.399.312.368.255.325.189.268.115.201.038.126-.042.048M634.585 450.761l-.738 1.239-.81 1.359-.199.333-.103.261-.02.331.066.388.148.43.115.234.038.078.071.145.293.464.207.27.142.186.393.428.42.385.433.327.429.256.408.176.3.072.071.017.32-.002.258-.093 1.355-.602.008-.004.81-.359"/><path d="m632.836 453.691.184-.18.257-.094.32-.003.371.089.408.175.429.257.434.327.422.386.19.207.203.222.35.456.292.465.225.457.147.431.065.388-.02.33-.104.26-.184.18M638.908 444.647l-1.553 2.658-.17.319-.083.387.008.441.097.477.184.495.107.201.155.293.182.26.15.214.387.436.43.381.454.312.143.071.319.159.451.14.119.013.305.032.381-.053 2.823-1.048"/><path d="m637.355 447.305.251-.239.322-.15.38-.053.421.043.003.001.452.139.463.231.455.312.43.381.388.437.332.475.263.495.183.495.034.17.063.308.002.158.004.247v.035l-.083.387-.171.319-.251.238-.322.149M644.477 437.711l-1.2 2.189-.141.436-.046.486.051.517.146.528.235.519.316.49.383.443.437.378.474.298.088.038.404.17.121.027.37.083.473.006.434-.097 2.517-.669"/><path d="m643.277 439.899.23-.37.312-.289.38-.197.033-.007.402-.09.473.006.492.109.493.208.474.298.437.379.384.443.316.491.235.52.146.529.051.517-.047.486-.141.436-.124.198-.108.171-.312.288-.381.196M651.673 429.233l-.843 1.779-.192.475-.091.522.011.548.113.555.212.54.301.503.38.448.443.375.491.288.518.19.526.085.514-.024 1.905-.189"/><path d="m650.828 431.013.283-.41.207-.186.157-.142.431-.235.482-.132.515-.025.526.085.519.19.49.288.444.376.38.448.302.504.212.54.113.555.01.55-.092.522-.191.474-.284.41-.365.328-.201.109-.23.125-.482.131M675.488 547.38l3.309 5.031 4.098 6.231 6.4 7.683 1.837 2.205 6.905 7.233 1.334 1.397 7.415 6.71.429.389 7.013 5.421 7.325 2.082 5.176.958 2.189-1.033"/><path d="m649.723 487.318-2.164 2.323-.934 4.578.513 6.647 3.357 6.976 4.219 9.037 5 8.66.712 1.234 5.716 8.206 4.766 6.842 5.184 7.354 2.704 3.235"/><path d="m660.426 526.773 6.047 7.964 1.42 1.87 5.762 8.173 1.832 2.599M1219.12 683.373l-9.99.361-10 .361-9.99.361-9.99.361-10 .362-9.99.361-9.99.361-10 .361-2.65.096-9.99.361-10 .361-9.99.362-9.99.361-1.59.057-5.3.192"/><path d="m1089.66 688.052 5.34 8.453 5.35 8.453 5.34 8.453 5.34 8.453 5.35 8.453 5.34 8.453 1.29 2.039 1.52 2.402 5.34 8.453 5.34 8.453 5.34 8.453 3.43 5.417 5.34 8.453 5.34 8.453 5.35 8.453 2.69 4.265 1.63-.76 4.87-2.272 8.62-4.02 9.06-4.229 9.06-4.228 8.05-3.758 9.93 1.177 9.93 1.178 9.94 1.177 3.45.41 9.28 3.724 9.28 3.724 7.61 3.05 9.38 3.46 9.38 3.46 8.15 3.006 9.22 3.885 9.21 3.884 7.49 3.155 7.48-6.632 1.28-1.131 1.16-3.508-6.14-7.889-5.8-7.441-6.14-7.889-5.81-7.45-6.14-7.889-5.81-7.46-6.15-7.889-5.82-7.469-6.54-7.563-6.55-7.562-6.54-7.562-6.54-7.562-6.55-7.562-6.54-7.562-6.54-7.562-6.55-7.562-5.32-6.159-10 .364-9.99.364-9.99.364-10 .365-9.99.364-9.99.364-10 .364-9.99.364-2.36.086-10 .364-9.99.364-9.99.364-10 .364-5.17.189-1.55.057-2.01 3.02Z"/><path d="m1325 811.871-6.14-7.888-5.84-7.497-6.15-7.888-5.85-7.506-6.14-7.889-5.86-7.516-6.14-7.889-5.87-7.526-6.54-7.561-6.54-7.562-6.55-7.562-6.54-7.562-6.55-7.562-6.54-7.562-6.54-7.562-6.55-7.562-5.54-6.404 1.56-3.042M1061.13 914.458l2.07-3.666 4.91-8.711 2.14-3.786"/><path d="m967.361 808.514-.536 9.986-.536 9.985-.536 9.986-.478 8.905-.536 9.986-.536 9.985-.537 9.986-.536 9.986-.536 9.985-.536 9.986-.536 9.986-.272 5.055 7.538 6.572 7.537 6.572 7.538 6.571 7.537 6.572 7.537 6.572 7.533 6.572 7.54 6.572 7.54 6.571 3.68 3.21 7.85 6.2 6.96 5.503 7.85 6.201 6.97 5.511 7.84 6.2 6.99 5.52 7.84 6.2 6.99 5.52 7.49-6.63.56-.5 1.93-4.09-3.85-9.23-3.86-9.225-2.2-5.272-3.4-9.402-3.41-9.403-2.13-5.885-3.69-9.296-3.68-9.296-2.22-5.609-.94-9.956-.94-9.955-.94-9.956-.04-.473"/><path d="m1092.57 1017.84-3.86-9.23-3.86-9.223-2.23-5.352-3.41-9.402-3.41-9.402-2.16-5.967-3.68-9.296-3.69-9.296-2.26-5.69-.94-9.956-.94-9.956-.94-9.955-.06-.658M1561.13 456.257l2.92.922 9.75 2.255 5.52 1.277 9.89 1.452 5.33.782 9.68.934 9.98.601 6.16.37 10-.302 5.84-.177 9.95-.974 1.65-.161 9.92-1.252 6.36-.804 9.75-2.245 5.91-1.364 9.65-2.63 3.08-.84 9.45-3.268 6.15-2.124 9.12-4.108 3.38-1.525 9.03-4.307 6.14-2.929 8.46-5.333 5.56-3.508 8.4-5.431 3.8-2.461 7.75-6.321 5.31-4.334 7.5-6.614 3.46-3.052 6.9-7.237 4.88-5.112 6.43-7.655 2.92-3.476 5.93-8.054 4.27-5.802 5.2-8.542 2.24-3.684 4.86-8.742 3.53-6.36 3.8-9.25 1.5-3.644 3.72-9.284 2.69-6.744 2.54-9.672 1.94-7.347 2.21-9.753.66-2.905 1.36-9.907 1.02-7.468.43-9.991.1-2.173.2-9.998.15-7.318-.91-9.958-.71-7.756-1.61-9.869-.07-.432-1.97-9.805-1.44-7.221-2.96-9.553-2.31-7.471-3.88-9.218-3.2-7.615-2.91-6.537-4.72-8.812-3.54-6.592-5.51-8.347-4.3-6.518-6.22-7.828-5.03-6.328-6.87-7.264-5.7-6.02-7.46-6.657-6.29-5.608-7.99-6.01-6.78-5.097-8.46-5.325-7.16-4.505-8.88-4.602-7.42-3.844-9.23-3.838-7.55-3.138-9.53-3.036-7.56-2.407-9.75-2.192-7.44-1.67-7.54-1.374-9.91-1.305-8.34-1.096-9.99-.377-7.96-.299-9.99.59-7.49.442-9.98.607-.9.054-9.88 1.593-7.79 1.256-9.69 2.479-1.82.468-9.65 2.618-7.77 2.105-9.3 3.66-7.03 2.763-9.13 4.063-2.94 1.303-8.83 4.697-6.64 3.53-8.39 5.444-3.14 2.035-8.21 5.704-6.05 4.2-7.47 6.64-3.08 2.73-7.46 6.656-5.3 4.728-6.59 7.529-4.51 5.168-6.42 7.668-2.72 3.242-5.59 8.288-3.72 5.501-5.22 8.528-2.15 3.519-4.53 8.917-2.88 5.676-3.89 9.211-1.52 3.585-3.41 9.402-2.06 5.68-2.43 9.699-.86 3.436-2.28 9.738-1.28 5.515-1.15 9.933-.68 5.864-.84 9.966-.2 2.393-.06 10-.03 5.501.91 9.957.16 1.735.97 9.953.48 4.953 1.94 9.81 1.03 5.221 2.83 9.589 1.61 5.439 2.61 8.632 3.67 9.304 1.82 4.627 4.43 8.966 2.34 4.736M1529.31 444.695l9.29 3.72 4.47 1.793M1498.58 427.668l4.27 2.9 1.48.863.22.122 8.64 5.022 2.68 1.555 8.99 4.389 1.6.783M1447.78 380.577l6.37 7.714 2.91 3.535 6.91 7.234 3.4 3.567 7.4 6.725 3.08 2.799"/><path d="m1453.38 344.446-.1-.596-1.67-9.86-1.49-8.832 3.5-9.368 1.79-4.794 3.45-9.387 2.28-6.21 4.79-8.776 3.33-6.083 6.55-7.552 4.39-5.058 7.99-6.012 5.31-3.994 9.04-4.27 6.12-2.888 9.7-2.432 6.81-1.708 9.99.339 10 .339 3.19.108 9.78 2.051 8.5 1.781 8.85 4.659 6.94 3.655 8.45 5.355 6.46 4.098 7.67 6.41 7.68 6.41 3.01 2.513 6.6 7.509 6.11 6.937 5.83 8.121 4.22 5.867 4.35 9.001 3.13 6.464 1.78 9.841 1.77 9.841.14.731-.75 9.973-.63 8.421-3.3 9.438-2.05 5.835-5.23 8.521-3.3 5.376-6.92 7.218-4.61 4.808-8.28 5.62-5.96 4.053-9.24 3.841-7.31 3.041-9.28 3.735-5.67 2.287-9.96.907-5.77.525-2.46.224-9.77-2.122-9.77-2.122-1.47-.318-9.26-3.771-8.96-3.651-8.6-5.102-8.6-5.103-1.84-1.09-7.71-6.376-7.56-6.259-6.52-7.585-6.51-7.585-1.2-1.391-5.3-8.476-5.07-8.09-3.62-9.321-3.63-9.32-.13-.351Zm0 0-3.53-9.357-.62-1.655"/><path d="m1673.19 358.923.81-9.968.8-9.968.11-1.278-1.73-9.85-1.73-9.849-.68-3.859-4.33-9.015-4.24-8.832-5.82-8.132-5.73-8.006-6.6-7.514-6.6-7.513-1.43-1.63-7.69-6.402-7.68-6.402-5.81-4.843-8.46-5.335-8.45-5.335-.29-.18-8.86-4.63-8.87-4.629-.49-.257-9.8-2.005-9.79-2.004-1.5-.307-10-.28-10-.28-6.72-.188M1558.9 432.479l9.89 1.468 1.18.174M1426.14 343.762l-.95-4.988v-.003l.35-.251.21-.146-.72-4.431.06-3.115M1422.73 316.031l-.07 4.181"/><path d="m1458.71 385.62-6.62-2.592-1.18-.828-.13-.096-1.82-.631-1.18-.895-1.51-1.144-3.22-3.807-1.96-2.734-2.76-3.925-3.74-5.757-1.67-2.869-3.35-6.53-.96-2.333-.4-1.089-1.87-5.06-1.93-9.868M1448.96 381.473l1.95.727"/><path d="m1422.88 326.694 1.29 6.762.53 2.784.49 2.534M1452.66 370.832l1.21 4.947 1.19 3.61.24 2.496-1.68.652-.3.097-.59.19-.08.023-.56.181M1458.71 385.619l2.05-.647 2.26-.862M1426.34 345.33l-.2-1.567M1462.72 380.785l-1.57-4.819"/><path d="m1433.68 336.521 3.54 4.363 2.83 3.472 2.34 5.212 3.39 5.401 2.92 5.627 2.36 5.463 1.6 4.772.05.175 1.16 4.772M1430.68 320.246l-1.71-.651-3.13-.688M1573.47 458.688l-1.48-.511 3.14.273M1542.64 448.083l8.88 4.617 1 .521 1.09.377"/><path d="m1493.48 426.96 2.09 1.306 4.47 2.916 3.27 2.113.19.04 4.86 2.758 5.21 2.996.55.322 2.99 1.459 5.48 2.68 2.23 1.091 1.42.57 5.6 2.245 3.92 1.57 4.95 1.551 4.79 1.487 9.66 2.592 5.97 1.601 1.12.3M1564.76 456.971l5.42 1.115M1526.74 425.651l-6.46-2.857-7.44-3.308M1584.51 459.822l-1.62-1.128-2.24-1.354.28-1.24-.03-1.074 1.52.089-1.65-1.805-3.06-2.332-3.82-2.373-2.61-.91-4.25-2.143-4.49-3.016-5.18-3.075-6.48-2.456"/><path d="m1481.02 415.958 3.14 4 2.35 1.851 3.11 2.445 3.36 2.53.5.176 7.74 2.706"/><path d="m1473.38 406.509 4.47 5.643 2.6 3.288.57.518.33.301 1.03 1.22 1.43 1.605M1491.7 410.548l-5.01-2.509-2.55.002-3.67-1.009-2.73-1.059-1.66-.906-1.61-.036-.99.53-.1.947M1501.8 415.245l-6.61-2.644M1526.46 443.301l-2.26-.907-.98-.393-1.55-.753-3.78-1.851-2.07-1.008-.38-.223-3.6-2.071-3.36-1.907-.14-.028-2.25-1.46-1.6-1.045-.21-.133-1.28-.836-1.67-1.046-.11.025-.16-.12-2.16-1.626-.32-.252-1.82-1.438-1.63-1.279.14-.052-.04-.052-.32-.489-.97-1.101-.7-.836-.62-.565.07-.463.52-.246.83.039.84.464 1.39.544 1.86.525M1501.95 424.006l1.74 1.03 3.32 1.335M1501.33 429.641l-.27-.095M288.506 970.701l1.524.585.008.003 4.235 1.625 1.414.436 2.151.662 8.909 2.194 3.763.748 9.567 1.204 3.818.261 10.025.139 3.727-.347 9.955-.943.324-.031 9.802-1.983.3-.06 3.728-1.12 9.542-2.99.483-.151 9.186-3.951.434-.186 8.736-4.867.389-.216 3.547-2.065 8.198-5.727.419-.293 7.575-6.528.35-.301 2.947-2.926 6.872-7.265.291-.308 6.093-7.929.214-.279 5.243-8.515.151-.246 2.155-3.589 4.323-9.017.05-.106 3.358-9.467 1.327-3.988 2.248-9.506.603-4.348 1.136-9.336.057-9.325-.047-4.168-1.014-8.807-.548-4.111-1.049-4.435-1.874-7.53-1.35-4.128-1.768-4.331-2.42-5.869-.483-.998-.044-.093-.006-.013-1.306-2.7-2.16-3.9-2.462-3.957-2.152-3.15-2.217-3.217-2.419-3.197-2.596-3.147-2.749-3.064-2.874-2.952-2.97-2.809-3.036-2.638-3.073-2.441-3.034-2.398-3.803-2.745-3.771-2.443-3.701-2.118-.428-.214-5.344-2.673-4.243-2.093-4.071-1.663-7.509-2.489-4.409-1.392-4.122-.87-8.883-1.747-4.223-.379-9.504-.733-9.606.333-4.461.25-9.875 1.417-4.153.998-9.693 2.461-.235.06-9.386 3.452-.276.102-3.812 1.852-8.979 4.402-.397.194-8.483 5.295-.399.249-7.899 6.132-.402.312-3.198 2.693-7.231 6.907-.368.351-6.486 7.611-.338.397-2.363 3.355-5.666 8.239-.237.344-4.776 8.786-.196.36-3.824 9.24-.158.383-1.41 3.604-2.809 9.597-.054.183-1.749 9.846-.034.189-.619 3.658-.626 9.863-.007 3.789.497 9.487.492 3.768 1.555 8.907.862 3.596.982 3.152"/><path d="m224.447 899.491 1.257-2.542 1.058-2.137 3.441-3.368 4.408-1.993 5.201-.587 8.035 2.012 6.861 2.87 6.361 4.681 6.278 5.055 7.363 6.767 1.013.93 6.478 6.868 5.587 6.47 4.873 6.96 4.204 8.87 2.221 7.715.319 6.209-1.035 5.475-1.889 3.577-.503.954-2.923 2.662-.793.723-2.815 1.167-1.312.545-.838.347-.645.251-.024.009-3.157 1.227-5.638-.597-8.014-3.299-7.545-4.357-8.047-5.937-.28-.206-7.212-6.487-6.694-7.43-.654-.725-5.961-7.903-5.132-8.583-.094-.158-3.906-8.507-.808-5.364-.088-6.29.806-4.513.243-1.361Zm0 0 2.007-9.797.429-2.095M312.879 943.401l-2.525-8.899-4.259-9.049-.559-1.185-5.602-8.031-6.434-7.464-6.859-7.276-.606-.643-7.366-6.763-2.293-2.104-7.243-5.816-7.34-5.382-7.917-3.282-9.271-2.278"/><path d="m283.473 971.207 5.035-.506.016-.002 4.399-.441.124-.013 1.659-.166M295.688 973.35l-2.529-.91-3.12-1.151-.002-.001-.006-.002M437.085 816.179l-.043-1.216-.079-2.281-.85-3.184-1.337-3.525-1.464-3.156-1.936-3.565-2.234-3.59-2.216-3.083-2.728-3.4-2.556-2.83-3.171-3.147-2.894-2.563-3.386-2.664-3.21-2.266-3.334-2.045-3.518-1.869-3.046-1.198-2.212-.522-3.072-.772-1.471-.227M1380.36 284.08l-7.17-6.965-7.18-6.965-7.17-6.965-2.07-2.003-6.96 7.175-6.97 7.176-6.96 7.175-2 2.064 7.17 6.965 7.17 6.965 7.18 6.965 2.06 2.003 6.97-7.175 6.96-7.176 6.97-7.175 2-2.064ZM1348.66 252.177l-7.17-6.965-6.93-6.723-6.96 7.176-6.72 6.925 7.17 6.965 6.93 6.723 6.96-7.175 6.72-6.926ZM1367.97 237.434l-7.18-6.966-2.47-2.398-6.96 7.176-2.4 2.47 7.17 6.965 2.47 2.398 6.97-7.175 2.4-2.47ZM2064.04 1013.75l-7.16-6.98-7.16-6.984-7.16-6.982-7.16-6.982-7.15-6.982-7.16-6.982-7.16-6.982-7.16-6.982-7.16-6.983-7.16-6.982-7.16-6.982-7.16-6.982-7.16-6.982-7.15-6.982-7.16-6.982-7.16-6.982-7.16-6.982-7.16-6.983-7.16-6.982-7.16-6.982-7.16-6.982-7.16-6.982-7.15-6.982-7.16-6.982-7.16-6.982-7.16-6.983-7.16-6.982-7.16-6.982-7.16-6.982-7.16-6.982-7.16-6.982-7.15-6.982-7.16-6.982-7.16-6.982-7.16-6.983-7.16-6.982-7.16-6.982-7.16-6.982-7.16-6.982-7.16-6.982-7.16-6.982-7.15-6.982-7.16-6.982-7.16-6.983-7.16-6.982-7.16-6.982-7.16-6.982-7.16-6.982-7.16-6.982-7.16-6.982-7.15-6.982-8.08-7.877 6.98 7.159 6.98 7.159 6.99 7.159 6.98 7.159 6.98 7.159 6.98 7.159 6.98 7.159 6.99 7.159 6.98 7.159 6.98 7.158 6.98 7.159 6.99 7.159 6.98 7.159 6.98 7.159 6.98 7.159 6.98 7.159 6.99 7.159 6.98 7.159 6.98 7.159 6.98 7.159 6.98 7.159 6.99 7.158 6.98 7.159 6.98 7.159 6.98 7.159 6.98 7.159 6.99 7.159 6.98 7.159 6.98 7.159 6.98 7.159 6.99 7.159 6.98 7.159 6.98 7.159 6.98 7.158 6.98 7.159 6.99 7.159 6.98 7.159 6.98 7.159 6.98 7.159 6.98 7.159 6.99 7.159 6.98 7.159 6.98 7.159 6.98 7.159 6.98 7.159 6.99 7.158 6.98 7.159 6.98 7.159 6.98 7.156 6.99 7.16 6.98 7.16 7.87 8.08M437.13 816.273l-.087-1.309M622.328 445.452l.744 1.333 2.602 4.661M634.699 464.998l.717 1.066.127.189 5.584 8.296 5.584 8.296 3.011 4.473.032.047 2.361 3.507M735.762 342.128l-5-2.801M743.026 346.908l-.518-.349-1.692-1.141M945.684 792.971l2.094 1.712.649.531M1050.74 721.731l-.01.039M1081.79 688.834l1.75-3.252M961.918 805.238l5.443 3.275 2.145 1.291 8.568 5.156 8.568 5.156 8.568 5.156 8.57 5.156 8.57 5.157 8.56 5.156 8.57 5.156 5.19 3.125M1084.24 670.091l-.06-.1-4.26-7.058M1093.22 684.976l-4.28-7.09M1176.2 837.5v-.002M1179.1 821.391l-.47-.847-4.89-8.725-1.89-3.378M1504.29 431.523l.05-.092M1504.55 431.553l-.06.103"/></g><defs><clipPath id="a"><path fill="#fff" d="M0 0h1920v1080H0z"/></clipPath></defs></svg>