<svg width="1920" height="1080" fill="none" xmlns="http://www.w3.org/2000/svg"><g clip-path="url(#a)" stroke="#EFC018" stroke-width="5" stroke-linejoin="round"><path d="M1090.26 675.07v-.001l-.04-.121-.12-.21-.22-.289-.29-.357-.08-.095-.27-.318-.41-.452-.45-.473-.47-.477-.47-.463-.46-.43-.42-.381-.37-.318-.31-.242-.24-.158-.15-.066-.05.028-.06.028-.98.528"/><path d="m1090.26 675.069-.06.028-.15-.065-.23-.156-.31-.242-.15-.122-.23-.196-.42-.382-.46-.431-.47-.463-.47-.479-.45-.474-.41-.453-.36-.413-.29-.357-.21-.289-.12-.208-.04-.119M1084.1 673.13v-.002l.13-.098.01-.007.22-.008.31.089.37.184.43.27.46.347.48.411.02.021.39.363.07.073.47.488.42.499.38.491.09.14.22.324.23.42.13.332.01.028.05.285-.04.199v.002M1088.81 678.085h-.01l-.22.009-.3-.088-.37-.183-.25-.155-.18-.116-.17-.131-.1-.068v-.004l-.19-.144-.48-.411-.28-.257-.21-.202-.46-.488-.43-.501-.38-.492-.17-.261-.01-.006-.13-.198-.04-.07-.19-.35-.14-.359v-.016l-.05-.268"/><path d="m1086.94 681.589 1.91-3.425.1-.185M1084.24 673.022l-.48.243-.27.137-.1.048v.001l-.5.254M1083.76 686.256l1.87-3.413.12-.275.03-.357-.08-.427-.14-.381v-.005l-.03-.094-.26-.514-.34-.529-.41-.523-.46-.498-.49-.453-.51-.391-.5-.314-.01-.004-.47-.221-.43-.128-.07-.004h-.01l-.3-.02-.3.079-.4.183-.86.399"/><path d="M1085.63 682.842v.002l-.22.179-.3.08-.37-.024-.44-.126-.48-.225-.5-.315-.51-.391-.49-.454-.46-.499-.41-.525-.04-.057-.3-.473-.26-.514-.17-.48-.08-.427.03-.357.12-.27v-.004l.21-.172.01-.007M1078.99 692.204l1.58-3.009.09-.425-.01-.488-.11-.535-.22-.56-.31-.563-.39-.546-.45-.507-.51-.449-.53-.374-.53-.284-.53-.183-.49-.076-.45.035-.34.131-.03.013-.53.212"/><path d="m1080.57 689.195-.03.042-.17.301v.003l-.29.246-.37.146-.44.036-.46-.069-.01-.002-.03-.004-.52-.183-.54-.284-.53-.374-.51-.45-.45-.508-.39-.547-.31-.565-.22-.56-.1-.487-.01-.011v-.09l-.01-.025v-.411l.09-.424.02-.037.17-.302.01-.003.28-.24.01-.009M1072.33 700.102l1.25-2.628.16-.482.04-.544-.06-.582-.18-.6-.28-.594-.37-.565-.45-.516-.51-.445-.55-.358-.58-.258-.57-.147-.54-.03-.51.087"/><path d="m1073.58 697.474-.01.017-.25.386-.01.004-.35.305-.39.179-.01.004-.04.02-.5.088-.55-.03-.57-.146-.57-.258-.56-.358-.51-.446-.45-.517-.37-.566-.28-.595-.18-.601-.06-.583.05-.543.15-.483.03-.036v-.008l.23-.354.01-.004.35-.308.41-.184.03-.018M1064.43 708.626l.77-1.995.09-.587-.02-.622-.14-.633-.25-.619-.36-.582-.45-.522-.52-.443-.57-.346-.6-.236-.61-.117-.59.007"/><path d="m1065.19 706.631-.1.264-.11.267-.32.452v.004l-.1.087-.01.007-.3.26-.5.249-.55.131-.6.007-.61-.116-.6-.236-.57-.346-.52-.443-.45-.523-.35-.583-.26-.62-.14-.633-.02-.623.1-.588.21-.53.32-.447v-.005l.39-.332.01-.009.02-.016.49-.248.46-.106.1-.024M1049.71 713.482v-.006l.47-.393.54-.283.59-.161.23-.012.04-.002.3-.017.06-.003.64.095.63.22.58.337.53.441.44.527.34.594.24.638.11.657-.01.651-.05.204-.09.416-.09.196-.01.021-.16.349-.36.489-.01.004M1053.68 719.118l-.6.162-.63.035-.64-.095-.62-.22M1049.29 717.099l-.24-.639-.11-.657.01-.652.14-.62M1055.2 718.035l.24-1.269M1043.93 725.678l.34.602.22.649.09.672-.04.668-.16.641-.29.586-.4.511v.005l-.49.411-.57.304-.63.18-.65.051-.66-.082-.65-.211-.59-.331-.53-.44-.44-.531-.34-.602-.22-.649-.09-.672.04-.669.16-.641.29-.586.39-.505.01-.006.49-.415.57-.303.63-.181.65-.05.67.082.64.211.59.331.53.44.44.53ZM1032.39 737.567l.33.602.21.654.08.676-.05.675-.18.644-.31.593-.41.519-.01.004-.5.417-.59.31-.64.185-.67.055-.68-.078-.29-.095-.36-.113-.6-.331-.53-.438-.44-.532-.33-.604-.09-.283-.12-.37-.09-.677.06-.674.18-.646.3-.594.41-.51.01-.006.51-.421.59-.31.64-.185.67-.055.67.078.65.208.6.329.54.44.44.533Z"/><path d="m1032.46 741.423-.41.511v.006l-.52.422-.58.309-.65.186-.67.055-.67-.078-.27-.086-.38-.122-.27-.146-.33-.185-.53-.439-.44-.532-.33-.604-.04-.122-.07-.19-.11-.341-.08-.676.05-.675.19-.645.3-.593.42-.517v-.005l.51-.417M1028.16 736.229l.65-.186.67-.055.67.078.65.208.6.331.53.439.44.532.33.604.21.653.09.676-.05.674-.19.646M1040.03 730.676l-.6-.332-.52-.44-.45-.531-.33-.601-.22-.65-.09-.672.03-.669.17-.64.29-.587.4-.511v-.004l.49-.411.57-.303.63-.18.65-.051.66.082.64.211.6.331.53.44.44.531.34.601.22.649.09.672-.04.669-.16.64-.29.587-.39.505-.01.006-.49.415-.57.304-.63.181-.66.05-.66-.082-.64-.21ZM1055.43 716.775l-.14.62-.08.175-.01.021-.16.37-.36.483-.01.006-.46.394-.54.283-.6.162-.63.035-.64-.095-.62-.22-.59-.337-.52-.441-.45-.528-.34-.595-.23-.638-.12-.658.02-.651.13-.621.26-.565.37-.489v-.004l.46-.389.54-.283.59-.161.27-.014.03-.002.33-.018.64.095.63.22.58.337.53.44.44.528.35.594.23.637.11.658-.01.651Zm0 0-.04.194M1051.93 712.615l-.05-.007M1065.26 705.431l.02.622-.09.587-.22.531-.31.447-.01.005-.09.083-.01.008-.31.267-.5.249-.55.131-.59.007-.61-.116-.61-.236-.57-.346-.52-.443-.44-.523-.36-.583-.25-.62-.14-.633-.03-.623.1-.588.21-.53.33-.452v-.004l.39-.337.01-.009.01-.007.5-.248.55-.13.59-.007M1062.97 702.285l.57.346.52.443.45.522.36.582M1073.57 697.482l-.26.399v.004l-.36.309-.38.176-.01.003-.05.024-.5.088-.55-.03-.57-.146-.57-.258-.55-.358-.52-.446-.45-.517-.37-.566-.28-.595-.17-.601-.07-.583.05-.543.16-.483.03-.044v-.008l.23-.351v-.003M1070.8 692.538l.57.258.55.358.51.445.45.516.37.565.28.594M1080.37 689.541v.004l-.29.249-.37.145-.45.036-.44-.068-.01-.001-.04-.006-.53-.183-.54-.284-.53-.374-.5-.449-.46-.509-.39-.547-.31-.564-.21-.561-.11-.497v-.011l-.01-.027v-.069l-.01-.42.1-.423.02-.046.17-.297.01-.003M1078.66 685.128l.5.449.46.507M1085.63 682.845v.003l-.22.181-.3.08-.37-.024-.44-.126-.48-.225-.5-.314-.51-.392-.49-.454-.46-.499-.41-.525-.04-.055-.3-.474-.26-.515-.17-.48-.08-.427.03-.357.09-.201.03-.072v-.002M1084.51 679.742l.41.523.34.529.26.514M1085.56 681.399l.14.389.07.427M1081.27 677.71l.3.02h.01l.06.004.44.128.47.222v.003l.51.314.5.391M1088.95 677.983l-.14.106-.01.001-.22.009v-.001l-.3-.088-.37-.183-.25-.154-.18-.116-.16-.124-.09-.065-.01-.004-.2-.155-.49-.411-.26-.256-.22-.202-.46-.489-.43-.5-.38-.492-.18-.277-.01-.006-.12-.182-.04-.083-.19-.337-.14-.359-.05-.285.05-.198v-.002l.14-.104.22-.008.31.09.37.183.43.271.46.347.48.41.03.031.38.358.07.069.46.487.43.499.38.491.09.141.22.324.23.42.13.331v.001l.01.027.05.285-.04.198v.002Zm0 0-.1.182-1.91 3.424M1084.23 673.025v.004M1090.22 674.949l.04.12v.001l-.06.029-.15-.065-.23-.157-.31-.241-.15-.123-.23-.195-.42-.382-.46-.431-.47-.464-.47-.478-.45-.475-.41-.452-.36-.413-.29-.358-.21-.288-.12-.198v-.011l-.04-.12.06-.027M1086.56 671.005l.42.381.46.43.47.463.47.477.44.473.42.452M1089.51 674.001l.08.092.29.358"/><path d="m1085.43 670.248-.05.028-.98.528"/><path d="m1089.51 673.997-.01-.022-.16-.225-.25-.302-.32-.366-.38-.417-.43-.451-.47-.468-.47-.468-.47-.449-.45-.412-.4-.361-.35-.294-.28-.217-.2-.132-.11-.041-.92.507M954.223 800.689l.025.043.07.1M972.834 788.001l-.001.005-.38 1.066-.062.476.053.524.165.552.271.558.367.544.448.507.512.453.557.38.58.293.582.195.56.089.517-.021.455-.129 2.824-1.436"/><path d="m972.453 789.071.173-.41.279-.328.374-.234.392-.112.063-.018.517-.021.56.088.582.195.581.293.558.38.514.454.448.508.367.545.272.559.164.552.052.525-.014.111-.048.365-.175.409-.28.328-.374.232M954.353 800.768l-.034.063-.001.002-.47.87.011.02.104.111.192.2.273.278.342.348.4.404.441.443.467.467.472.473.462.459.433.429.388.382.327.321.254.247.171.164.082.074 1.114-.617"/><path d="m953.848 801.703.081.073.17.162.254.247.327.32.387.383.434.43.463.46.474.473.467.469.442.444.401.404.342.348.273.279.191.198.103.111.01.019M955.821 801.166l-.001.003-.152.293.016.107.013.082.123.272.213.342.295.401.365.444.421.47.461.477.484.467.26.234.007.007.22.198.473.394.44.334.321.215.069.046.325.177.248.088.161-.006 1.456-.819 2.22-1.25"/><path d="m955.668 801.461.066-.099.161-.008.22.078.027.01.324.177.391.26.44.334.473.394.489.44.194.187.291.281.462.479.364.406.001.001.057.064.365.444.295.401.145.234.068.109.122.271.028.188-.068.099M960.342 797.351l-.624 1.29-.002.004-.003.007-.134.277-.001.003-.112.23-.044.267.057.343.156.406.248.454.331.483.198.246.003.003.2.247.312.333.145.155.494.462.016.014.018.015.478.39.067.047.002.001.443.311.034.019.456.266.452.2.394.109.322.011.089-.031.149-.054 3.522-1.975"/><path d="m959.465 799.161.143-.179.013-.004.003-.001.221-.081.078.002.099.003.145.005.394.107.452.201.491.285.512.358.514.421.079.074.002.002.414.387.457.488.403.498.331.484.248.455.155.406.056.342-.045.266-.145.179M965.498 794.099l-.003.007-.326.754-.112.341-.006.412.026.119.001.003.075.346.204.504.299.523.383.52.453.498.503.458.536.398.548.325.538.238.509.143.459.041.392-.061.31-.161 3.281-1.791"/><path d="m965.172 794.86.215-.257.309-.163.386-.061.005-.001.012.001.448.04.508.142.117.051.012.006.185.082.004.001.15.066.072.032.548.325.537.399.505.458.453.499.384.522.098.172.201.351.204.506.101.467-.007.412-.113.341-.216.256M981.39 781.214l-.109.533.011.574.132.593.247.59.353.564.444.516.52.448.575.364.608.265.617.156.604.041.567-.075.507-.189 2.408-1.061"/><path d="m981.391 781.214.225-.471.324-.38.01-.011.428-.296.508-.19.566-.076.604.04.619.156.608.265.576.364.52.449.446.517.353.564.247.591.131.594.011.575-.11.532-.212.441-.014.03-.335.391-.429.295M991.446 772.444l-.02.615.106.628.228.616.342.581.442.522.525.445.589.35.63.242.646.124.637.002.605-.121 1.742-.536"/><path d="m991.445 772.444.145-.575.001-.005.266-.522.376-.443.471-.348.549-.24.605-.121.638.001.647.124.63.241.589.351.526.445.443.523.342.582.228.616.106.629-.021.615-.147.58-.267.522-.376.443-.29.213-.182.134-.549.239M1002.83 763.874l.33.593.44.528.53.442.6.339.65.224.66.1.77.035"/><path d="m1002.83 763.874-.09-.263-.13-.373-.09-.654.05-.647.17-.615.29-.56.4-.482.5-.388.58-.276.63-.156.66-.029.67.1.64.224.6.339.53.443.44.528.34.593.21.637.09.654-.04.647-.17.615-.3.56-.4.482-.5.387-.58.276-.63.156-.25.01-.41.018M1016.41 754.457l-.6-.332-.53-.441-.44-.531-.34-.601-.2-.648-.09-.67.06-.667.18-.637.31-.584.41-.508.52-.412.59-.3.64-.178.67-.047.68.084.65.212.6.333.53.441.44.531.33.601.21.648.08.671-.05.667-.18.637-.31.584-.42.507-.51.412-.59.301-.64.177-.67.047-.68-.084-.65-.213ZM723.426 335.355l-8.723-4.891-6.594-3.697-8.879-4.601-8.878-4.6-8.879-4.6-4.303-2.23-8.911-4.537-8.911-4.538-8.911-4.538-4.356-2.217-9.16-4.012-9.16-4.012-9.16-4.012-5.079-2.224-9.575-2.883-9.575-2.883-9.576-2.883-9.575-2.883-9.576-2.883-9.575-2.883-9.575-2.883-2.714-.817 2.855 9.584 2.855 9.584 2.855 9.583 2.854 9.584 2.855 9.584 2.855 9.584 2.855 9.584.908 3.049 3.987 9.171 3.987 9.17 3.987 9.171 2.249 5.173 4.516 8.923 4.516 8.922 4.516 8.922 2.235 4.416 4.579 8.89 4.579 8.89 4.579 8.89 2.241 4.351 4.872 8.734 3.45 6.185M1078.47 664.111l.57 1.081-1.96 3.597-4.46 6.018-6.38 7.7-.45.544-1.37 1.548-1.01 1.147-2.86 3.242-3.04 3.449-.68.782-.25.265-4.27 4.652-3.45 3.75-.54.585-2.25 2.445-2.89 3.047-4.14 4.365-.06.065-5.01 5.274-.62.639-4.48 4.578-5.88 6.024-1.98 2.033-2.65 2.642-.01.009-.93.931-4.35 4.338-.7.7-.01.009-4.61 4.598-.01.006v.004l-1.39 1.346-4.37 4.249-.21.204-.01.01-4.479 4.346-.009.009-1.788 1.736-.748.726-3.177 2.994-.009.009-.319.301-.01.008-4.017 3.786-.008.008-2.225 2.096-2.436 2.295-.452.411-.009.008-.826.751-.008.007-3.527 3.204-.008.007-2.714 2.465-1.309 1.189-.007.006-1.174 1.067-.008.007-.846.768-2.702 2.334-.008.006-2.164 1.869-.006.005-.435.375-.004.004-3.82 3.299-7.043 5.599-4.698 3.122-2.212.566"/><path d="m947.681 794.655-.31 1.913 2.244-.569 4.778-3.171 7.167-5.696 4.566-3.943.004-.003.635-.548.005-.005 2.402-2.073.007-.006 1.686-1.455 1.645-1.495.007-.006 1.202-1.091.007-.007 1.436-1.304 2.689-2.443.008-.007 3.454-3.137.009-.008.631-.574.196-.184.009-.008 2.928-2.76 2.221-2.092.008-.008 3.99-3.759.009-.009.319-.301.01-.009 2.738-2.58 1.181-1.147 1.802-1.75.01-.009 4.476-4.347.01-.009.21-.204 4.36-4.229 1.2-1.173.19-.181v-.009l4.63-4.614.01-.009.72-.716 4.3-4.29.95-.947.01-.01 2.71-2.705 1.94-1.985 5.86-6.008 4.49-4.593.91-.937 4.72-4.972.05-.05 4.14-4.365 3.42-3.602 1.76-1.915.54-.583 3.4-3.703 4.34-4.715.91-.998.04-.046 2.94-3.328 2.99-3.396 1.1-1.247 2.06-2.336 1.23-1.493.68-.814 5.04-6.084 4.54-6.123 1.98-3.654-.59-1.093-1.54.729M740.915 345.725l-1.473-.928-3.605 1.232-5.632 3.38-7.464 5.427-2.129 1.719-1.268 1.024-3.321 2.682-2.302 1.858-.05.044-.932.808-4.274 3.704-3.331 2.887-.308.267-1.329 1.152-2.934 2.687-4.593 4.207-3.487 3.193-.072.069-5.752 5.524-2.631 2.526-2.896 2.781-3.593 3.608-.007.008-2.28 2.288-.008.009-5.324 5.346-.79.831-.007.007-2.898 3.046-.009.009-4.897 5.147-.007.008-1.936 2.034-.061.064-1.48 1.638-.185.204-.007.008-.002.002-.007.008-3.637 4.021-.006.007-1.756 1.942-2.161 2.39-.007.008-.308.341-.261.306-.006.008-2.289 2.694-.006.007-1.867 2.197-1.465 1.725-.005.006-.967 1.137-.005.006-1.25 1.472-.628.806-.006.006-1.792 2.3-.004.004-.595.764-.001.002-3.339 4.282-4.374 6.458-2.237 4.518-.045 2.43"/><path d="m628.617 456.069 1.335 1.984.416.618M1070.11 653.906l-.13-.159-6.34-7.737-6.33-7.737-6.34-7.737-6.33-7.736-3.46-4.224-6.5-7.599-6.5-7.599-6.5-7.599-6.5-7.598-6.51-7.599-5.28-6.182-6.683-7.443-6.678-7.443-6.679-7.443-6.679-7.443-6.678-7.442-5.363-5.976-6.853-7.283-6.852-7.283-6.853-7.283-6.853-7.283-6.853-7.282-5.456-5.799-7.47-6.649-7.469-6.649-7.47-6.649-7.469-6.649-7.469-6.649-6.01-5.35-7.694-6.387-7.695-6.388-4.53-3.761-7.695-6.387-7.694-6.387-7.694-6.388-1.794-1.489-8.062-5.917-8.061-5.917-8.062-5.917-8.061-5.917-8.062-5.917-7.007-5.144-8.288-5.595-5.726-3.866-8.288-5.595-8.288-5.596-8.243-5.564"/><path d="m742.472 346.774.07-.126.721-3.152-2.241-1.732-1.527-.986-3.738 1.254-.206.123-5.636 3.361-1.302.943-1.308.947-1.659 1.202-.652.472-1.801 1.305-.513.372-.51.369-2.067 1.665-1.461 1.177-1.293 1.041-.989.797-2.442 1.967-1.109.894-3.367 2.913-1.745 1.511-5.501 4.76-7.378 6.75-4.056 3.712-7.214 6.925-4.568 4.385-7.056 7.085-4.58 4.6-6.891 7.246-4.111 4.324-6.703 7.42-3.207 3.55-2.156 2.543-.005.006-2.275 2.682-.003.003-.234.276-.006.007-.54.637-.008.009-2.267 2.674-.005.005-.915 1.079-1.072 1.379-.004.006-.741.952-.004.006-1.23 1.581-.004.006-.679.874-.004.004-1.923 2.474-.003.004-.218.28-.004.005-.701.902-.448.664-.002.004-.638.946-.005.007-.068.101-.003.004-3.353 4.974-1.278 2.607-1.019 2.079-.023 2.521 1.735 2.249 2.211.283 1.414-.628"/><path d="m743.262 343.497-1.519-.98-3.742 1.27-5.855 3.509-7.729 5.616-.04.029-.245.198-1.396 1.127-2.24 1.808-1.323 1.068-3.546 2.862-.645.52-1.588 1.377-.901.781-4.257 3.688-3.61 3.129-.178.154-.119.103-3.875 3.549-4.977 4.557-2.63 2.408-.407.391-6.501 6.244-1.632 1.566-3.293 3.163-4.298 4.316-.008.007-1.076 1.08-.008.009-6.3 6.326-.794.835-.007.007-2.197 2.31-.009.009-5.405 5.681-.006.007-2.637 2.771-.715.791-.007.008-3.883 4.294-.006.007-1.802 1.994-2.005 2.217-.007.008-.527.582-.007.008-1.001 1.107-1.389 1.635-.005.007-1.863 2.193-1.539 1.811-.005.007-.973 1.144-.005.007-1.703 2.004-.005.006-.972 1.144-1.213 1.557-.004.005-.002.002-1.014 1.303-.003.003-4.389 5.632-4.546 6.719-2.318 4.694-.033 2.518M1078.47 664.112l-.37-.455-1.6-1.954M728.141 590.838l5.404 6.519 6.646 7.472 6.646 7.472 6.646 7.471 6.646 7.472 6.646 7.472 5.582 6.275 7.284 6.852 7.284 6.851 7.284 6.852 7.284 6.851 7.284 6.852 6.074 5.712 7.445 6.676 7.445 6.677 7.445 6.676 7.446 6.676 7.445 6.676 6.245 5.6 7.602 6.497 7.602 6.497 7.602 6.497 7.602 6.497 7.602 6.497 6.436 5.499 7.741 6.331 7.741 6.331 7.741 6.331 7.74 6.331 4.097 3.35.465.38M1095.72 885.803l1.81.024 3.18-1.429 4.43-2.844 5.53-4.157 6.41-5.315 7.03-6.267 4.47-4.216 2.91-2.751 4.92-4.897M1147.18 842.73l5.51-6.092 5.8-6.837 4.76-6.083 3.54-5.093 2.19-3.91.76-2.588-.68-1.179"/><path d="m1169.06 810.949-1-1.66-5.17-8.559-5.17-8.559-5.17-8.559-5.17-8.56-5.17-8.559-5.18-8.559-5.17-8.559-5.17-8.56-5.17-8.559-5.17-8.559-5.17-8.56-5.17-8.559-5.17-8.559-5.17-8.559-5.17-8.56-1.66-2.735M947.371 796.567l6.852 4.122.004.002.126.076M1181.67 877.496l1.75-1.963 4.27-5.152 1.46-1.933 2.03-2.681 2.57-3.897 1.56-3.034.49-2.057-.58-1.01-5.04-8.637-2.2-3.781M1127.59 904.312l8.64 5.023 4.25 2.468 1.48.092 2.49-.996 3.41-2.053 4.21-3.039.64-.517 4.2-3.391 5.28-4.627 1.24-1.167.65-.612 3.62-3.383.63-.632 2.04-2.027.69-.683 1.47-1.47M1111.23 898.521l8.73 4.872 3.38 1.883 1.71.088 2.53-1.052.38-.156 4.02-2.471 4.99-3.644 5.74-4.683 6.29-5.538 3.11-2.923.95-.897 2.51-2.353 3.44-3.427 1.01-1.002.97-.965"/><path d="m1147.54 843.096 6.59-7.29 6.21-7.321 5.1-6.511 3.78-5.446 2.33-4.178.8-2.76-.73-1.251-2.22.286-1.34.664M1170.48 866.205l3.88-4.337 5.12-6.124 4.18-5.471 3.09-4.605 1.22-2.318.66-1.246.61-2.396-4.89-8.722-2.05-3.662M1136.79 854.26l-.12.12-.01.006-1.21 1.206v.005l-4.03 4.005-2.49 2.35-5.41 5.114-7.54 6.711-6.86 5.689-5.91 4.446-4.74 3.035-3.4 1.521-1.93-.037-.4-1.575.85-2.33M1093.14 888.431l8.73 4.871 3.09 1.723.87.485M1152.71 905.29l8.22 5.694 4.31 2.983.91.058 1.51-.585 2.05-1.21 2.51-1.789 2.88-2.3.26-.229.37-.326 2.49-2.169 3.25-3.039.98-.975.38-.372 1.9-1.889.05-.059M1193.38 889.359l1.92-2.571 1.51-2.334.92-1.83.29-1.259-.35-.641-5.7-8.215-2.82-4.062"/><path d="m1175.36 907.911.45.454 1.56.923 6.75-6.915-1.29-1.343M1177.37 909.289l-1.64-1.703M1066.44 766.309l-7.42-6.699-7.43-6.699-7.42-6.699-3.6-3.244-5.73 5.802-.62.63-1.09 1.102 6.99 7.146 7 7.145 7 7.145 2.37 2.425 7 7.146 6.99 7.145 7 7.145 6.99 7.146 7 7.145 7 7.145 6.99 7.146 7 7.145 3.99 4.078 7 7.146 2.32 2.373.32.322.43.44 7.75 6.32 2.14 1.747.38.308.06.051v.002l.45.364v.005l1.89 1.542.01.005.92.754.01.003 1.85 1.51 1.26 1.183 4.97 4.64.02.017 1.27 1.186.02.019 1.95 1.822.3.281 7.31 6.826 1.59 1.483.32.3 2.27 2.126 1.04.999 1.28 1.23 5.61 5.398 1.21 1.164.13.128 2.98 2.869 4.15 3.994.94.906 2.82 2.707.38.371.98.938 7.22 6.924 7.21 6.924 4.69 4.499 7.2 6.941 7.2 6.941 6.04 5.822 1.99 1.184 6.97-7.169.66-.673-7.03-7.117-6.95-7.041-7.02-7.117-6.98-7.068-7.02-7.117-5.59-5.656-1.42-1.441-.2-.21-.77-.777-1.57-1.588-5.75-5.823-.68-.69-1.32-1.335-1.45-1.473-2.31-2.345-2.32-2.334-1.4-1.406-3.7-3.732-.33-.33-7.04-7.098-1.06-1.061-.29-.301-7.05-7.098-3.53-3.562-1.14-1.142-1.5-1.509-.68-.691-.32-.318-.36-.365-7.04-7.097-1.97-1.986-.33-.327-7.04-7.098-7.05-7.097-7.04-7.098-3.47-3.491-7.42-6.699-7.43-6.699-7.42-6.699-7.42-6.699-7.43-6.699-7.42-6.699-2.26-2.034Z"/><path d="m1105.53 816.391-7.4-6.73-7.39-6.731-7.4-6.731-1.03-.941-7.4-6.731-7.39-6.73-7.4-6.731-1.22-1.109-7.39-6.73-7.4-6.731-7.4-6.731-3.58-3.263M1226.34 938.318l-7.03-7.113-6.96-7.041-7.03-7.113-6.98-7.069-7.03-7.113-5.16-5.225-1.86-1.873-2.15-2.184-5.04-5.094-2.89-2.924-.08-.08-1.24-1.256-2.66-2.7-7.05-7.096-.2-.203-.32-.315-7.04-7.096-2.73-2.744v-.003l-3.34-3.363v-.004l-7.05-7.095-7.05-7.095-5.19-5.23-.32-.317-7.04-7.096-7.05-7.095-7.05-7.095-3.27-3.295 7.01-7.134.71-.72M1078.43 657.913l-.04-.121-.12-.208-.21-.288-.29-.357-.1-.124-.25-.288-.41-.451-.45-.473-.47-.477-.47-.463-.45-.43-.43-.382-.37-.319-.31-.243-.24-.159-.15-.067-.07.026-.07.04-1.76.97-1.03.571-.15.079"/><path d="m1078.42 657.913-.06.027-.15-.066-.24-.158-.31-.242-.08-.067-.29-.252-.43-.383-.46-.431-.47-.464-.47-.478-.45-.475-.41-.451-.35-.413-.29-.356-.21-.288-.12-.207-.03-.118M1074.87 664.564l1.63-2.862.49-.868.05-.202-.03-.213-.01-.074-.14-.361-.23-.422-.13-.198-.17-.268-.38-.492-.42-.5-.46-.488-.03-.023-.46-.435-.48-.409-.47-.347-.43-.269-.37-.182-.32-.088-.23.01-.39.205-.16.085-.26.136-.09.046v.001l-.53.276-.12.065v.001l-1.02.534-1.12.588"/><path d="M1076.99 660.835v.001l-.15.107-.13.007h-.01l-.09.004-.31-.086-.38-.182-.11-.07-.32-.199-.13-.096-.12-.088-.1-.077v-.004l-.11-.081-.49-.411-.1-.094-.38-.365-.47-.489-.42-.501-.38-.493-.08-.13-.01-.005-.16-.255-.05-.076-.23-.422-.14-.361-.01-.123-.03-.164.05-.198.01-.002.13-.1.01-.008M1071.49 669.325l.89-1.588.33-.588.75-1.354.14-.28.03-.363-.07-.432-.11-.338-.01-.006-.04-.14-.26-.518-.34-.532-.4-.525-.46-.498-.49-.453-.51-.39-.26-.161-.25-.151-.48-.222-.45-.123-.08-.004-.3-.016-.31.084-.63.302-.71.347-2.27 1.097"/><path d="M1073.46 665.795v.002l-.22.184-.31.085-.39-.019-.44-.122-.48-.222-.51-.312-.51-.39-.5-.454-.46-.5-.2-.263-.2-.263-.34-.533-.25-.518-.17-.485-.07-.431.04-.363.13-.276v-.003l.22-.177.01-.008M1066.46 675.436l1.67-3.116.1-.433v-.497l-.08-.42-.03-.122-.03-.083-.17-.482-.31-.568-.38-.549-.46-.508-.5-.449-.54-.371-.54-.28-.53-.179-.51-.069-.23.022-.22.021-.39.152-.39.167-2.96 1.257"/><path d="m1068.13 672.32-.02.036-.19.316v.002l-.3.256-.39.153-.45.044-.46-.062v-.001l-.04-.005-.49-.16-.05-.018-.14-.072-.41-.208-.53-.372-.51-.449-.45-.51-.39-.55-.3-.569-.15-.419-.06-.148-.09-.468v-.011l-.01-.063v-.496l.1-.433.18-.291.03-.056v-.004l.29-.248.02-.009M1066.18 675.915v-.002l.28-.477M1059.47 683.582l1.31-2.722.18-.494.06-.554-.06-.592-.16-.608-.28-.6-.27-.429-.09-.127-.01-.014-.44-.517-.52-.444-.55-.356-.58-.252-.58-.14-.56-.021-.52.097-1.03.344-1.82.604"/><path d="m1060.79 680.86-.02.017-.26.398-.01.004-.36.317-.39.182-.01.004-.06.028-.51.098-.56-.021-.58-.139-.59-.252-.55-.356-.36-.305-.11-.098-.05-.042-.45-.518-.37-.571-.27-.601-.16-.609-.06-.592.06-.554.18-.494.01-.018v-.009l.26-.383v-.005l.38-.319.41-.193.04-.02M1059.09 684.148v-.004l.38-.562M1051.2 692.406l.81-2.069.11-.601-.01-.634-.13-.642-.25-.627-.35-.586-.45-.525-.49-.422-.03-.019-.08-.051-.49-.291-.61-.23-.62-.108-.61.017-2.21.413"/><path d="m1052.01 690.336-.07.166-.16.378-.34.468-.01.004-.08.076-.01.008-.33.284-.51.263-.57.143-.61.019-.62-.108-.61-.23-.58-.342-.52-.442-.45-.525-.24-.409-.07-.109-.04-.07-.25-.627-.13-.644-.01-.634.12-.601.23-.544.33-.462.01-.005.38-.33.01-.009.04-.032.51-.262.45-.112.12-.031M1050.43 693.777v-.004l.46-.632.3-.736M1041.56 702.17l.25-1.318.03-.665-.11-.668-.22-.647-.34-.599-.44-.53-.53-.439-.59-.333-.51-.171-.12-.04-.01-.002-.65-.084-1.47-.147"/><path d="m1041.81 700.853-.04.152-.12.483-.07.165-.01.022-.19.395-.39.506v.005l-.48.406-.55.299-.62.177-.64.047-.65-.085-.64-.213-.59-.332-.53-.44-.44-.53-.34-.601-.23-.647-.03-.22-.02-.134-.05-.314.03-.665.15-.636.28-.582.38-.5v-.005l.48-.41.56-.299.62-.176.2-.015.03-.002.35-.025.06-.004M1040.45 704.503l.01-.004.52-.684.37-.786M1029.85 710.168l.33.608.21.658.08.684-.05.684-.18.656-.31.605-.41.53-.01.004-.51.429-.59.322-.64.196-.67.065-.68-.071-.65-.202-.6-.327-.53-.439-.44-.533-.34-.608-.21-.659-.08-.684.04-.413.01-.157.01-.114.18-.657.31-.605.41-.523v-.006l.52-.433.59-.321.64-.196.3-.029.17-.016.2-.019.68.07.65.203.6.327.53.438.44.533ZM1017.8 722.535l.33.611.2.662.07.689-.07.69-.19.663-.33.612-.43.537-.01.005-.52.436-.61.328-.66.202-.69.07-.68-.066-.66-.2-.61-.325-.54-.438-.43-.535-.33-.61-.2-.663-.07-.689.06-.69.05-.161.06-.202.09-.301.32-.611.44-.531v-.006l.53-.441.61-.328.34-.104.2-.063.12-.035.68-.07.69.067.66.199.61.326.53.438.44.534ZM1019.2 725.371l.09-.932-.09-.931"/><path d="m1018.12 725.861-.32.612-.43.531v.006l-.54.441-.6.328-.66.202-.69.07-.68-.066-.66-.2-.61-.325-.54-.438-.44-.535-.32-.61-.2-.663-.07-.689.06-.69.05-.161.06-.203.09-.3.32-.611.44-.537.01-.005.52-.436.61-.328M1017.79 722.546l.33.61M1013.62 729.146l.93.089.93-.094M1016.21 721.248l.61.325M1023.62 716.547l.81.442.88.273.91.095.91-.087.87-.266.8-.434.69-.586M1029.51 714.597l-.01.006-.51.434-.59.321-.64.197-.67.065-.68-.071-.65-.202-.6-.327-.54-.439-.44-.533-.33-.608-.21-.659-.08-.685.03-.413.02-.157v-.113l.19-.657.3-.605.42-.529.01-.005M1026.27 708.67l.3-.028.16-.016.21-.02.67.071.66.203.6.326.53.439.44.533.33.607.21.659.08.684-.05.683M1030.23 713.469l-.31.605M1025.04 709.188l.59-.321M1034.81 704.922l.8.449.86.287.88.114.87-.064.83-.238.75-.405.65-.555v-.006M1041.37 702.079l-.38.501v.005l-.48.411-.56.299-.61.177-.65.047-.65-.085-.64-.212-.59-.333-.53-.44-.44-.53-.34-.6-.22-.647-.04-.222-.02-.134-.04-.313.02-.665.16-.636.27-.582.39-.505v-.005l.48-.405.55-.299.62-.176M1041.73 699.529l.1.668-.03.665-.15.635-.07.144-.01.021M1037.94 696.712l.37-.027.66.085M1045.11 693.943l.78.463.83.309.84.146.82-.025.77-.195.69-.355.58-.504.01-.005M1051.43 691.352v.005l-.08.073-.01.008-.34.291-.51.263-.57.144-.61.018-.62-.108-.61-.229-.58-.343-.52-.442-.45-.525-.24-.409-.07-.11-.04-.069-.25-.627-.12-.643-.01-.634.11-.601.23-.545.34-.466v-.005M1049.22 685.718l.61.23.49.291.08.051.03.019.5.423.44.524.35.587.25.626M1052.1 689.111l.01.633M1051.99 690.346l-.22.544M1060.5 681.279v.004l-.37.321-.38.179-.01.003-.07.032-.51.098-.56-.02-.58-.14-.58-.252-.56-.356-.35-.306-.12-.098-.05-.041-.45-.518-.36-.571-.28-.601-.16-.609-.06-.592.07-.554.17-.494.02-.027v-.008l.26-.38v-.003M1060.52 678.02l.27.6.16.608M1061.01 679.819l-.06.554-.17.494M1055.94 676.03l.45-.213.52-.097.56.021.58.14.58.252M1054.95 684.453l.78.341.79.187.75.028.7-.134.62-.289.5-.435v-.004M1059.19 676.488l.51.444.45.517M1068.23 671.894l-.11.432-.2.348-.01.004-.3.258-.38.154-.46.044-.44-.061-.01-.001-.05-.007-.48-.16-.06-.017-.14-.073-.4-.207-.54-.372-.5-.45-.46-.509-.38-.55-.31-.569-.15-.419-.06-.148-.09-.479v-.011l-.01-.052v-.497l.1-.432.18-.3.03-.051.01-.003.3-.254.38-.152.22-.021M1065.73 667.844l.53.372.51.448.45.509.39.548M1063.23 676.206l.72.24.68.091.62-.059.52-.209.41-.35v-.004M1064.15 667.316l.5.069M1073.46 665.797v.003l-.23.186-.31.086-.38-.019-.44-.123-.49-.221-.51-.312-.51-.391-.49-.454-.46-.499-.2-.263-.21-.264-.33-.533-.26-.518-.16-.485-.07-.431.03-.362.14-.279v-.003M1073.62 665.156l-.03.363"/><path d="m1071.48 669.33.01-.003v-.014l.88-1.575.33-.587.76-1.351M1069.86 669.571l.38.104.52.025.42-.117.3-.253M1071.44 661.715l.49.453.46.498M1077.04 660.636l-.05.2v.002l-.15.109-.13.006-.1.005-.31-.087-.38-.181-.11-.07-.32-.199-.11-.087-.12-.088-.11-.076v-.004l-.12-.092-.49-.41-.1-.095-.38-.364-.47-.489-.42-.501-.38-.493-.09-.146-.01-.005-.16-.256-.04-.06-.23-.422-.08-.217-.05-.144-.02-.13-.03-.156.05-.201.01-.001.14-.106M1076.32 659.1l.18.269.13.197M1074.87 664.568v-.003l1.63-2.862.49-.865M1074.36 664.731l.31-.016.2-.148M1078.42 657.913v.002l-.06.027-.15-.066-.24-.158-.31-.243-.08-.066-.29-.253-.43-.382-.45-.432-.48-.463-.47-.479-.45-.474-.4-.452-.36-.412-.29-.357-.21-.287-.05-.097-.07-.11-.03-.119v-.001M1073.82 653.133l.23.158.32.244.37.318.42.382.46.431.47.463.47.477.45.473.41.451.25.297.1.115.29.357.21.287M1073.6 653.092l-.07.039-1.76.969-1.03.571-.15.08"/><path d="m1077.67 656.816-.12-.163-.25-.305-.32-.369-.38-.418-.43-.453-.46-.469-.48-.467-.47-.448-.44-.41-.41-.357-.35-.291-.28-.213-.2-.128-.11-.036-2.25 1.27-.51.291-.1.056"/><path d="m1070.73 653.559-.23-.042-.19.044-.33.186M936.914 788.229l-.004.151.088.239.178.315.019.029M956.821 773.396l-.925 2.435-.003.007-.06.161-.003.005-.173.457-.071.487.045.536.159.56.267.567.364.548.447.509.514.452.561.375.176.088.153.075.256.125.589.186.568.078.527-.032.465-.143 2.927-1.515"/><path d="m955.656 776.461.184-.425.047-.055.006-.007.129-.154.006-.006.101-.119.385-.248.422-.13.042-.013.256-.016h.003l.268-.017.569.077.589.186.587.286.561.378.515.452.448.511.105.157.095.143.165.249.266.566.159.562.044.534-.019.13-.053.36-.184.422-.291.343-.385.245M963.602 779.358l.521-.333.394-.462.25-.572.098-.661-.06-.725-.213-.759M937.83 786.6l-.916 1.628M938.293 786.979l-.773 1.393-.001.002-.326.587-.001.002-.516.93.014.021.107.114.194.201.275.279.345.351.401.404.442.443.466.468.473.472.461.458.432.43.385.38.325.32.252.245.169.162.079.072 1.144-.648"/><path d="m936.676 789.893.078.071.168.161.251.245.324.319.386.381.433.429.462.46.474.474.467.468.443.445.402.405.345.349.274.28.194.2.105.113.014.02M940.153 786.419l-.184.344-.003.004-.115.215-.03.056-.444.829-.729 1.36-.001.003-.182.339.029.194.123.276.213.347.294.404.365.446.422.472.461.478.484.467.272.244.012.011.203.182.473.392.441.331.383.252.007.004.326.174.248.082.162-.01 2.278-1.309 1.52-.874"/><path d="m938.465 789.568.067-.105.161-.012.248.082.106.057.219.116.391.256.44.331.474.392.489.438.485.468.463.48.422.472.046.057.001.002.318.388.294.405.189.307.024.039.122.276.027.193-.068.104M944.191 783.369l-.895 1.783-.002.004-.648 1.292-.002.004-.06.119-.114.227-.001.003-.152.302-.047.274.053.35.153.413.246.459.33.488.302.377.005.005.093.117.065.069.392.42.457.426.01.01.027.025.514.417.251.173.002.001.26.181.113.064.381.216.454.194.398.101.326.005.152-.059.09-.035 3.373-1.928.271-.155"/><path d="m942.316 787.102.147-.189.087-.034.003-.001.151-.059.198.002h.054l.074.001.398.1.454.194.494.28.515.355.515.417.308.288.002.002.186.173.457.491.401.499.33.489.246.46.152.412.052.35-.048.274-.149.187M950.988 789.711l.201-.254.048-.261.019-.11M949.755 779.035l-1.244 2.749-.003.006-.259.572-.004.008-.083.184-.119.352-.012.423.092.454v.002l.004.02.019.047.001.003.18.462.297.528.381.524.452.5.504.457.539.395.551.32.544.231.514.135.466.031.031-.005.331-.06.037-.006.318-.173 3.396-1.889"/><path d="m948.16 782.554.106-.127.116-.141.317-.174.279-.051.01-.002.109-.019.466.03.515.134.502.213.042.018.125.072.009.005.109.063.003.002.307.178.539.396.506.458.453.501.381.525.099.175.198.354.2.513.085.425.01.051-.01.316-.003.106-.12.352-.223.267M956.688 785.305l.302-.362.164-.475.018-.571-.128-.645M965.601 765.564l-.708 2.655-.12.548.001.587.124.604.241.598.35.569.39.456.054.062.04.035.481.413.579.359.615.258.627.146.614.029.579-.089.521-.204 2.496-1.122"/><path d="m964.895 768.22.238-.486.348-.408.006-.005.435-.307.521-.205.578-.091.615.029.627.146.617.257.579.36.03.025.102.087.391.336.445.519.349.57.242.599.123.605v.587l-.121.548-.231.47-.008.016-.349.407-.442.312M972.484 771.469l.599-.421.47-.55.324-.658.165-.74-.001-.794-.166-.818-.326-.809M975.45 757.062l-.141 1.969-.032.63.096.641.196.552.026.073.025.044.312.542.441.526.528.443.594.346.638.234.656.112.651-.011.619-.137 1.807-.57M981.867 762.456l.763-.345.659-.494.531-.623.381-.728.217-.806.045-.851-.13-.867-.298-.844-.457-.794"/><path d="m975.309 759.032.16-.596.013-.024.268-.515.392-.461.488-.366.564-.257.619-.137.651-.013.657.113.165.061.119.043.354.13.595.345.529.444.441.526.338.587.221.626.096.64-.033.631-.16.596-.282.539-.393.461-.321.24-.166.125-.565.256M986.75 749.285l.335.74.33.599.44.531.532.441.604.334.653.216.677.088.799.035M992.902 751.979l.803-.398.7-.549.571-.677.42-.781.253-.855.076-.895-.105-.901-.28-.873-.446-.81"/><path d="m987.082 750.026-.1-.311-.107-.334-.048-.413-.016-.137-.014-.117.056-.662.186-.633.31-.578.423-.502.518-.406.594-.296.647-.172.519-.033.156-.01.678.088.653.215.605.335.532.441.44.531.33.6.208.646.077.666-.056.663-.187.632-.311.579-.423.501-.518.406-.594.295-.647.172-.319.02-.356.023M1001.14 740.119l-.61-.328-.535-.439-.439-.534-.326-.607-.201-.658-.068-.684.056-.577.01-.105.023-.073.177-.582.325-.603.437-.528.531-.431.61-.32.46-.135.2-.059.69-.062.68.072.67.204.61.327.53.44.44.533.32.608.21.658.06.684-.06.682-.2.656-.33.602-.44.528-.53.431-.61.319-.66.195-.68.062-.69-.072-.66-.204ZM1006.07 739.644l.6-.712.43-.815.27-.885.09-.922-.09-.923-.27-.889-.44-.821M1183.37 824.064l.02-.037v-.001l-.04-.089-.08-.137-.13-.179-.17-.214-.2-.242-.12-.132-.1-.109-.01-.019-.26-.268-.25-.265-.26-.253-.25-.231-.23-.2-.2-.161-.16-.117-.05-.027-.06-.04-.07-.015-.72.387-.67.361"/><path d="m1183.02 823.866-.2-.161-.23-.2-.13-.122-.12-.109M1180.84 821.591l-.08-.137-.03-.088.01-.036.01-.002M1183.37 824.065l-.07-.015M1181.83 822.755l-.26-.269-.23-.26-.2-.242M1182.96 826.21v-.001l.01-.133-.03-.179-.09-.219-.14-.249-.07-.103-.1-.167-.22-.282-.24-.281-.17-.189-.08-.082-.27-.25-.26-.219-.25-.18-.22-.133-.17-.071-.03-.012-.16-.029-.11.027-.18.087-.04.017-.09.046-.2.1-.3.146-.3.151M1181.95 825.892l-.26-.219-.27-.25-.26-.271M1182.78 826.318l-.16-.028-.2-.083-.21-.125"/><path d="m1180.28 823.672.01-.133.06-.078.01-.003M1182.96 826.209v.001l-.07.081M1180.59 824.407l-.05-.089-.14-.249-.02-.047-.06-.15v-.002l-.01-.019M1181.37 829.479v-.002l.06-.175.01-.218-.05-.255-.1-.282-.14-.28v-.003l-.01-.014-.19-.302-.23-.294-.25-.276-.27-.246-.28-.208-.27-.162-.25-.108-.22-.049h-.01l-.01-.003-.2.008-.15.066-2.03.888M1180.91 829.673l-.23-.051-.26-.108M1181.38 829.477v.001"/><path d="m1179.87 829.143-.27-.246-.25-.276-.23-.295-.19-.302-.15-.297-.1-.282M1178.7 826.798l.11-.118v-.004M1177.66 835.43l1.01-1.691.1-.211.05-.254-.01-.288-.07-.311-.12-.321-.18-.32-.21-.306-.25-.28-.27-.244-.29-.197-.3-.145-.28-.086-.27-.023-.23.039-1.83.653"/><path d="m1177.24 833.787-.29-.198-.27-.244M1178.67 833.738v.002l-.15.158-.2.101-.24.04-.26-.023M1175.85 831.678v-.005l-.01-.155.05-.255.1-.21.15-.159.18-.091.02-.011M1176.04 832.438l-.12-.321-.07-.311M1174.27 840.011l.8-1.382.08-.284.02-.316-.04-.336-.1-.342-.15-.335-.2-.315-.25-.284-.28-.242-.3-.189-.31-.131-.31-.066h-.3l-.27.067-1.64.406"/><path d="m1175.07 838.628-.13.222-.01.021-.2.19-.23.132-.09.02v.001l-.18.046-.3.001-.31-.067-.31-.13-.3-.19-.28-.241-.25-.284-.2-.316-.16-.336-.1-.342-.04-.335.03-.317.08-.284.09-.159.01-.005.04-.078.19-.19.23-.125.01-.007M1174.08 840.341v-.003l.19-.327M1169.84 845.566l.58-1.115.11-.308.06-.339-.02-.354-.07-.358-.14-.348-.2-.323-.24-.287-.28-.24-.31-.183-.33-.119-.34-.051-.32.019-1.3.098M1169.44 845.177l-.32.019-.33-.051-.33-.119-.31-.183-.28-.24-.25-.287-.19-.323-.14-.348-.08-.358-.01-.355"/><path d="m1167.25 842.593.12-.308.17-.267.23-.215.16-.092.01-.004.1-.058.28-.082.02-.007M1170.42 844.451l-.01.012-.17.255-.21.198v.005l-.01.012-.27.155M1169.6 845.929v-.003l.24-.361M1164.84 851.199l.27-.712.08-.354.01-.368-.06-.369-.13-.356-.18-.329-.24-.289-.29-.238-.32-.179-.34-.111-.79-.201"/><path d="m1165.11 850.487-.02.052-.12.273-.07.093v.008l-.13.183-.26.232-.29.172-.33.104-.34.031-.36-.039-.34-.112-.32-.178-.28-.239-.25-.289-.18-.33-.13-.355-.06-.37.01-.369.08-.354.14-.324.2-.284.26-.231.29-.171.33-.105.35-.031.02.003.02.002.26.029.05.007M1164.37 852.025v-.003l.28-.384.19-.439M1148.68 864.979l.39.323.45.237v.002"/><path d="m1160.96 851.988.39.323.43.241.46.151.48.054.46-.043.45-.141.4-.231.34-.314v-.003M1164.76 851.102l-.25.232-.3.171-.32.104-.35.032-.35-.04-.34-.112-.32-.178-.29-.239-.24-.289-.19-.329-.12-.356-.06-.37.01-.368.07-.354.15-.325.2-.284M1165.19 849.772l-.06-.369-.12-.356-.19-.329-.24-.289-.29-.239-.32-.178M1166.39 845.777l.38.324.42.248.45.161.44.069.44-.026.41-.121.37-.209.3-.291v-.003M1170.24 844.722l-.21.195v.004l-.02.016-.27.155-.3.089-.32.02-.33-.051-.33-.12-.31-.183-.29-.239-.24-.287-.2-.324-.14-.348-.07-.358-.01-.355.05-.338.11-.309.18-.266M1170.57 843.455l-.08-.358M1170.41 844.456l.12-.309M1167.77 841.808l.16-.097.01-.004.09-.054M1168.99 841.598l-.33-.052M1171.1 840.022l.38.326.41.257.42.176.42.089.4-.001.37-.091.32-.178.26-.258v-.002M1174.92 838.876l-.19.191-.24.131-.08.02v.001l-.19.047h-.3l-.31-.066-.31-.13-.3-.19-.28-.241-.25-.285-.2-.316-.15-.335-.1-.342-.04-.336.02-.316.09-.284.09-.165v-.005l.05-.072M1175.14 838.349l.03-.316-.04-.335-.1-.342-.15-.335-.21-.316-.24-.284-.28-.241-.3-.189-.31-.131-.31-.066h-.3l-.27.067M1175.33 835.231l.39.268.4.195.39.116.35.031.32-.054.27-.138.21-.216M1178.67 833.741v.002l-.15.16-.2.101-.24.04-.27-.023-.05-.017v-.001l-.23-.068-.29-.144-.29-.198-.28-.244-.25-.281-.21-.306-.17-.32-.13-.321-.06-.311-.01-.133v-.155l.04-.255.1-.21M1178.77 833.531l.05-.254-.02-.288M1176.14 830.898l.2-.101.23-.04"/><path d="M1177.66 835.433v-.003l.01-.004 1-1.684M1178.21 830.906l.38.281.37.218.34.147.32.069.27-.011.21-.09.15-.166M1181.37 829.479l-.11.123-.15.066-.2.008-.23-.051-.26-.109-.27-.161-.28-.208-.27-.247-.25-.276-.23-.295-.19-.302-.15-.297-.1-.282-.05-.255.01-.219.06-.173.11-.123.15-.066.2-.007.02.003v.001l.22.047.25.109.27.161.28.208.27.246.25.276.23.294.19.302v.009l.01.003.14.285.1.282.05.255-.01.219-.05.172-.01.002Zm0 0-1.12 1.875M1182.71 825.432l.13.249.09.218.04.179-.01.132v.001l-.01.003-.06.079-.11.027-.16-.028-.2-.083-.21-.125v-.001l-.02-.008-.04-.034-.21-.146-.26-.219-.26-.25-.26-.271-.24-.282-.21-.281-.12-.19-.06-.081-.13-.249-.02-.048-.06-.154v-.003l-.01-.014-.02-.114-.01-.039-.01-.026.02-.132.06-.082.12-.026.16.028.03.013M1182.64 825.327l-.1-.167-.22-.281-.23-.282-.18-.189M1181.77 828.224l.53-.899.66-1.114"/><path d="m1181.15 828.267.16.068.21.037.16-.037.09-.111M1181.83 824.328l-.27-.25-.26-.219-.25-.18-.23-.134M1183.35 823.94l.04.088-.02.038-.07-.014-.12-.067-.16-.116-.2-.161-.23-.201-.13-.123-.11-.108-.26-.253-.26-.266-.26-.268-.23-.26-.2-.242-.17-.215-.13-.179-.08-.136-.03-.089.02-.037M1182.54 822.908l-.25-.268M1182.77 823.167l-.12-.132M1183.27 823.802l-.12-.179-.17-.215M1181.77 822.121l-.25-.231"/><path d="m1182.65 823.034.03-.054-.03-.058-.07-.107-.13-.151-.17-.189-.2-.221-.24-.243-.25-.257-.26-.261-.27-.254-.25-.238-.24-.212-.2-.179-.17-.138-.12-.092-.08-.044-.02.008-.93.528-.28.162"/><path d="m1179.06 820.872-.17-.12-.24-.143-.16-.074M1104.96 895.024l-.26.463-.01.015.02.099.07.145.12.187.16.222.2.248.05.061M1118.13 889.039l-.52 1.754-.05.257.01.283.08.299.14.304.19.296.24.277.28.248.32.209.32.162.33.109.33.051.3-.008.27-.066.22-.124 1.58-.946M1122.17 892.143l.24-.237.15-.298.07-.347-.01-.384-.1-.405-.19-.411-.26-.401"/><path d="m1117.61 890.792.12-.221.17-.175.23-.124.09-.022.18-.045.3-.008.32.051.34.109.32.162.31.209.29.248.24.277.19.297.14.304.08.299.01.234v.05l-.05.257-.12.22-.17.175M1104.96 895.024l-.27.477M1105.83 895.51l-.27.494v.001l-.25.459v.001l-.18.329.04.048.09.098.13.143.18.184.21.216.23.241.26.257.26.262.26.257.25.243.23.22.2.188.16.148.11.103.07.054.01.003.65-.372"/><path d="m1105.13 896.794.02.002.06.054.12.103.16.148.19.188.23.219.25.244.26.258.27.262.25.257.24.241.21.217.18.183.13.143.09.098.03.048M1107.38 895.622l-.04.082v.003l-.01.021-.25.479-.39.767v.094l.04.139.01.012v.005l.09.162.15.214.19.239.09.101v.002l.14.152.04.038v.001l.21.223.27.258.27.245.27.222.01.006.25.185.23.153.2.107.16.06.11.008 1.81-1.079.14-.083"/><path d="m1106.7 896.974.05-.043.12.008.15.059.2.107.23.152.26.191.27.223.12.106v.001l.16.138.27.259.25.262.22.256.05.063.14.176.15.213.1.18.05.139-.01.093-.06.043M1110.12 894.332l-.24.524v.002l-.01.032-.01.003-.38.835-.11.251-.05.137.01.18.07.216.12.244.17.261.22.27.24.267.28.255.29.232.2.14.09.061.28.163.08.033.19.084.23.067.2.015.16-.037 1.93-1.183"/><path d="m1109.37 895.979.1-.09.15-.038.2.015.24.067.26.117.29.162.29.202.29.232.27.256.25.267.22.27.17.262.12.243.07.216.01.18-.05.138-.1.089M1114.09 897.383l.14-.121.06-.186-.01-.244-.09-.292-.17-.329-.23-.355M1113.75 892.082l-.75 1.924-.02.22.03.251.1.272.16.283.2.284.24.272.28.251.3.221.31.181.31.134.3.083.27.029.24-.027.19-.083 1.78-1.089"/><path d="m1117.68 895.288.19-.181.12-.244.03-.297-.05-.34-.13-.368-.21-.384-.27-.384M1113 894.006l.08-.18.14-.134.2-.083.23-.027.27.028.3.083.07.032.24.102.31.181.3.221.28.251.25.273.2.284.03.054.12.229.1.273.04.251-.03.219-.08.181-.14.133M1123.19 885.42l-.24 1.439-.01.313.06.323.13.321.18.308.24.281.29.245.32.199.34.145.35.086.34.023.33-.041.3-.102 1.24-.7M1127.06 888.26l.34-.217.28-.287.19-.346.1-.392.02-.423-.08-.438-.17-.435-.26-.416-.32-.381"/><path d="m1122.95 886.859.08-.29.14-.256.07-.079.13-.134.25-.16.3-.103.33-.04.34.022.35.086.34.145.32.199.29.245.24.282.19.307.12.322.06.324-.01.312-.08.29-.05.105-.09.152-.2.212-.25.16M1128.89 881.056l.07 1.061.04.344.12.337.18.317.24.285.29.242.32.19.35.131.37.066.36-.001.34-.068.32-.132.97-.46M1132.86 883.367l.37-.258.3-.329.22-.387.13-.43.03-.456-.06-.464-.16-.457-.24-.428-.33-.387"/><path d="m1128.96 882.117.02-.337.03-.096.07-.222.16-.286.22-.244.28-.191.31-.133.35-.068.36-.001.36.066.35.131.33.19.29.242.24.286.18.317.11.337.05.344-.02.337-.1.318-.16.286-.18.198-.04.046-.28.191M1135.49 876.953l.26.406.24.288.29.24.33.184.36.119.37.051.37-.02.43-.103M1138.14 878.118l.48-.12.45-.211.39-.292.31-.362.24-.419.14-.459.05-.482-.05-.486-.15-.471-.24-.439-.32-.39"/><path d="m1135.75 877.359-.15-.279-.03-.045-.11-.349-.04-.359.04-.357.1-.339.18-.31.23-.268.29-.217.33-.155.35-.09.37-.019.38.05.35.12.33.183.29.24.24.288.18.325.11.349.04.359-.03.357-.11.339-.18.31-.23.268-.29.216-.3.145-.03.011-.35.089M1142.61 871.666l.45.241.48.151.51.054.51-.043.48-.141.45-.232.4-.315.32-.384.24-.441.15-.479.05-.5-.05-.5-.14-.482-.24-.446-.32-.392"/><path d="m1143.32 871.748-.33-.179-.29-.239-.24-.289-.18-.33-.1-.357-.04-.37.04-.369.11-.355.18-.326.24-.284.29-.233.33-.172.36-.104.37-.032.38.04.36.112.33.178.29.239.24.29.18.329.1.357.04.371-.04.369-.11.354-.18.326-.24.285-.29.233-.33.171-.36.104-.37.033-.38-.04-.36-.112ZM729.911 338.994l.317-.583.018-.035-.031-.104-.105-.172-.174-.233-.237-.285-.291-.327-.333-.355-.363-.371-.379-.372-.381-.358-.303-.274-.002-.001-.062-.056-.339-.291-.3-.241-.247-.18-.186-.113-.117-.042h-.001"/><path d="m730.247 338.376-.003.002-.04.03h-.002l-.115-.041-.185-.113-.248-.18-.299-.24-.34-.292-.367-.331-.381-.359-.38-.372-.364-.371-.32-.342-.014-.014-.291-.328-.237-.285-.174-.233-.104-.171-.031-.104.044-.031h.001M727.165 339.599v-.001l.048-.095.238-.474.017-.094.013-.073-.05-.231-.126-.285-.099-.165-.055-.089-.044-.074-.263-.36-.316-.376-.359-.379-.022-.02-.362-.344-.003-.003-.401-.341-.398-.301-.382-.252-.015-.008h-.001l-.333-.183-.305-.123-.247-.051-.182.023-.002.002"/><path d="m727.453 339.03-.004.004-.102.094h-.003l-.178.024-.247-.05-.181-.074-.123-.049-.104-.057-.004-.002-.242-.132-.209-.137-.173-.114-.399-.303-.402-.341-.154-.147-.233-.221-.36-.379-.317-.377-.112-.154-.002-.003-.149-.203-.133-.221-.065-.107-.125-.285-.049-.231.03-.167.033-.03.073-.065.001-.002M723.076 341.343l.086-.23.002-.227v-.004l.001-.057-.081-.337-.161-.37-.236-.392-.301-.396-.355-.387-.394-.363-.42-.323-.428-.273-.2-.101-.005-.002-.216-.109-.398-.142-.358-.067-.306.01-.241.088-2.717 1.603"/><path d="m723.074 341.344-.006.005-.161.157-.002.001-.238.087-.305.012-.359-.067-.397-.142-.422-.211-.429-.273-.421-.325-.395-.363-.355-.387-.301-.398-.236-.392-.161-.371-.081-.336.004-.288.087-.23.165-.159.002-.002M717.372 344.979l.05-.344-.039-.384-.13-.411-.211-.422-.287-.416-.351-.395-.401-.358-.436-.308-.457-.245-.456-.174-.44-.095-.409-.014-.357.069-.295.149-2.465 1.433"/><path d="m717.372 344.979-.019.041-.119.248-.22.224-.004.002-.291.148-.358.069-.3-.009-.008-.001-.099-.003-.441-.095-.458-.174-.456-.245-.438-.308-.402-.359-.352-.395-.287-.417-.211-.422-.102-.327-.002-.007-.024-.078-.039-.385.05-.343.139-.289.219-.221.003-.002M705.496 347.725l.184-.344.265-.276.002-.003.308-.184.035-.021.403-.122.449-.036.478.053.488.139.479.22.452.293.408.354.348.402.274.434.191.449.1.448.004.43-.091.394-.01.02-.172.323-.267.28-.004.002-.17.102-.007.005-.161.097M708.63 351.344l-.478-.054-.488-.138-.48-.22-.453-.293-.408-.354-.348-.403-.275-.434-.191-.451-.099-.448-.004-.429.07-.302.001-.006M706.289 346.897l-2.031 1.121M702.206 356.65l.023-.468-.076-.48-.174-.474-.265-.449-.346-.408-.413-.35-.464-.28-.498-.198-.512-.109-.508-.016-.482.078-.44.169-1.653.802"/><path d="m702.206 356.65-.011.039-.112.399-.126.226-.007.012-.085.153-.305.329-.004.003-.375.251-.439.17-.483.078-.508-.015-.513-.109-.498-.198-.465-.28-.414-.351-.345-.408-.265-.45-.175-.474-.076-.481.024-.468.124-.438.218-.391.071-.075.006-.006.225-.243.003-.004.365-.244.015-.01M693.188 363.49l-.162-.493-.259-.462-.343-.413-.417-.347-.473-.27-.511-.18-.53-.084-.529.014-.506.113-1.075.36"/><path d="m693.187 363.491.013.105.048.402-.005.054-.002.025-.037.42-.146.474-.243.429-.331.369-.004.003-.402.29-.465.208-.507.113-.528.015-.531-.084-.511-.18-.474-.269-.417-.348-.344-.413-.258-.463-.162-.494-.061-.506.044-.5.147-.473.243-.43.328-.364.003-.004.363-.262.011-.008.033-.023.423-.189.042-.019M683.235 371.227l.254.471.156.508.052.526-.054.522-.159.5-.257.457-.345.398-.005.003-.415.32-.48.235-.519.139-.541.037-.54-.066-.519-.167-.478-.261-.419-.346-.343-.417-.255-.471-.156-.508-.052-.526.055-.523.159-.499.257-.458.342-.393.004-.004.42-.323.479-.235.52-.139.54-.036.54.066.519.167.478.261.418.346.344.416ZM673.432 380.571l.254.477.156.516.051.537-.056.537-.16.515-.259.474-.347.415-.005.004-.417.336-.482.252-.521.154-.542.05-.541-.055-.521-.159-.479-.257-.419-.344-.343-.419-.255-.476-.155-.517-.051-.537.056-.536.16-.515.259-.475.343-.41.004-.005.422-.34.481-.251.522-.154.542-.05.541.055.52.159.479.257.419.344.344.418Z"/><path d="m673.063 384.046-.004.004-.422.34-.481.252-.522.154-.542.05-.541-.055-.52-.159-.479-.257-.419-.344-.344-.418-.254-.477-.156-.517-.051-.537.056-.536.16-.515.259-.474.348-.415.004-.004M672.66 379.816l.419.344.343.419.255.476M673.832 381.572l.051.537M673.828 382.646l-.16.515M671.117 379.346l.542.055M679.855 375.118l-.478-.261-.419-.347-.344-.416-.254-.472-.156-.507-.052-.526.055-.523.158-.5.258-.457.345-.397.005-.004.416-.319.479-.235.52-.139.54-.036.54.066.518.167.478.261.419.346.343.415.255.472.156.508.052.526-.055.522-.158.5-.257.457-.342.393-.003.005-.421.323-.479.234-.52.14-.54.037-.54-.066-.519-.167ZM692.481 365.772l-.004.004-.407.294-.464.207-.507.114-.529.015-.531-.084-.511-.181-.473-.269-.417-.348-.344-.413-.258-.462-.164-.494-.06-.507.045-.5.146-.473.244-.429.331-.369.005-.003M691.012 361.334l.511.18.473.269.416.347.344.413.258.462.163.494M693.236 364.059l-.039.446-.146.473M689.449 361.377l.506-.113M698.732 357.995l-.465-.28-.413-.351-.346-.408-.265-.45-.174-.475-.077-.48.025-.468.123-.438.219-.391.076-.082.006-.006.223-.241.004-.002.375-.251.44-.169.483-.079.507.016.513.109.498.198.464.28.413.351.345.407.265.45.174.474.077.48-.024.468-.123.438-.119.213-.007.012-.092.165-.301.326-.003.003-.38.254-.439.17-.483.079-.508-.015-.513-.109-.498-.198ZM710.267 350.361l-.183.344-.264.276-.003.003-.167.101-.007.004-.168.101-.403.123-.45.036-.477-.052-.489-.139-.479-.22-.453-.293-.409-.355-.348-.402-.275-.435-.191-.45-.099-.448-.004-.43.072-.307.001-.006.019-.081.183-.343.268-.28.004-.002.338-.203.403-.122.45-.036.477.053.488.14.479.22.452.293.408.354.348.401.274.434.191.45.1.448.004.429-.09.394Zm0 0-.004.015M706.282 346.902l-.028.016M717.227 345.271l-.219.222-.002.002-.295.15-.358.069-.292-.009h-.008l-.107-.004-.441-.095-.457-.173-.457-.246-.438-.308-.402-.359-.352-.395-.287-.417-.211-.422-.104-.334-.002-.007-.022-.071-.039-.385.051-.343.138-.289.222-.223.003-.002.292-.147M715.559 341.945l.437.307.402.358.351.395.286.416.212.422M713.144 341.635l-2.449 1.424M714.207 341.431l.44.095M723.069 341.346l-.164.16-.002.002-.241.088-.305.011-.358-.066-.398-.142-.421-.211-.43-.274-.42-.324-.396-.363-.355-.388-.301-.397-.236-.392-.161-.371-.08-.336.003-.289.087-.229.168-.161.002-.001.239-.087.305-.011M721.633 338.584l.395.363.355.387.301.396.235.391M723.078 340.491l.08.336M719.061 337.665l-2.713 1.6M720.785 337.986l.429.273M727.429 338.633l.049.231-.012.068-.017.099-.106.097-.001.001-.18.024-.247-.05-.174-.07-.131-.053-.093-.051-.003-.002-.253-.138-.209-.137-.173-.114-.4-.302-.401-.342-.136-.129-.252-.238-.359-.38-.317-.377-.118-.162-.002-.002-.143-.195-.133-.222h-.001l-.064-.107-.126-.285-.048-.23.03-.167.035-.033.07-.063.002-.001h.001M726.137 336.877l.03.029.358.379.317.376M727.105 338.02l.044.074.057.094.097.16M723.515 335.303l-.091.053-2.811 1.648M723.945 335.33l.304.124M729.405 337.255l.291.326.237.286.174.233.105.172.032.104-.031.022-.013.01-.117-.041-.185-.113-.247-.18-.3-.24-.34-.292-.367-.331-.381-.359-.38-.372-.364-.372-.319-.34-.015-.016-.291-.327-.237-.285-.174-.233-.104-.172-.031-.103.036-.025.009-.006.117.041.186.114.248.18.299.241.34.291M726.395 334.601l-1.809 1.034M728.332 336.156l.379.372.363.37"/><path d="m731.205 339.718.214-.375-.051-.105-.123-.174-.188-.236-.248-.29-.297-.331-.335-.36-.36-.376-.372-.377-.368-.363-.351-.335-.32-.295-.278-.243-.223-.182-.161-.114-.093-.041-.003.002M629.265 422.96l-1.342 2.305-.18.319-.1.381-.014.428.072.46.155.472.231.468.3.446.356.405.4.35.426.281.438.202.433.114.41.023.372-.07"/><path d="m627.922 425.265.255-.244.32-.161.373-.071.043.003.367.019.433.114.439.202.427.282.4.35.357.406.299.446.232.469.155.473.071.46-.015.428-.049.19-.051.191-.181.318-.255.244-.321.16M618.935 441.86l-.497.872v.013l.075.085.143.155.209.219.265.274.313.319.346.352.367.37.375.376.367.366.346.343.311.305.265.258.208.199.144.133.073.063.466-.256"/><path d="m618.438 442.732.072.062.143.133.207.199.265.257.312.306.347.344.367.366.375.377.369.371.347.352.312.32.264.274.21.218.143.155.073.084.001.012M619.97 437.892l-1.006 1.701-.644 1.089.008.15.081.217.152.277.215.325.158.21.114.151.316.384.35.391.37.384.061.059.003.002.312.301.367.325.344.277.308.219.208.12.052.03.202.077.137.001.089-.045.002-.001"/><path d="m618.32 440.681.065-.076.136.001.202.076.26.15.309.218.071.058.273.22.368.326.239.231.137.131.262.272.001.002.107.111.351.392.317.384.272.362.215.325.151.276.081.217.007.149-.003.004-.063.071M621.577 434.201l-1.687 2.809-.058.211.019.277.094.332.027.061.138.313.231.402.287.415.333.41.134.144.231.248.384.357.048.039.002.002.017.013.003.002.317.254.377.25.352.18.312.104.262.023.017-.005h.002l.181-.053.416-.195.061-.029.004-.001"/><path d="m619.887 437.01.131-.138.2-.058.262.023.312.103.352.18.377.25.389.31.384.358.366.392.333.412.288.415.23.402.165.374.094.332.01.151.008.126-.059.211-.132.136M624.667 429.233l-1.55 2.589-.122.269-.042.332.038.383.117.42.191.439.259.443.316.429.36.399.392.353.408.295.408.224.394.145.363.061.319-.026"/><path d="m623.117 431.822.195-.194.262-.113.319-.027.363.06.394.145.358.197.051.028.409.294.392.354.361.4.316.43.259.443.094.216.097.224.117.42.037.383-.043.332-.122.268-.196.194-.262.112M634.92 416.055l-.982 1.838-.15.421-.061.466.031.492.122.501.208.489.285.458.352.411.406.347.444.271.464.183.467.088.453-.009"/><path d="m633.938 417.893.232-.361.309-.286.169-.091.202-.109.421-.107.453-.01.466.089.466.183.443.27.407.348.352.411.286.459.208.49.122.5.031.493-.062.466-.151.422-.234.36-.135.125-.173.16-.372.2-.42.106M642.029 407.813l-.632 1.442-.193.452-.099.494-.003.518.094.521.187.505.273.469.349.415.412.345.457.262.486.169.497.069"/><path d="m641.395 409.255.278-.392.006-.005.348-.313.414-.23.461-.134.488-.033.497.069.486.169.458.262.412.345.349.416.274.469.187.505.094.522-.004.518-.1.494-.193.452-.279.392-.353.317-.415.23-.245.071-.215.062-.488.033M649.525 400.934l.096-.378.035-.135.226-.471.313-.412.388-.338.448-.249.491-.152.515-.048.52.057.504.16.468.257.416.344.346.418.264.476.172.515.072.535-.03.534-.13.512-.226.472-.314.412-.388.337-.448.249-.491.151-.515.048-.52-.057-.496-.158-.007-.002-.469-.257-.415-.344-.346-.418-.264-.475-.172-.515-.072-.535.029-.533Zm0 0 .113-.672M660.386 394.37l-.476-.255-.418-.344-.344-.418-.258-.478-.16-.519-.058-.54.047-.54.151-.52.248-.479.336-.42.412-.345.47-.256.512-.158.534-.054.534.052.515.157.476.255.418.343.344.419.258.479.161.519.058.54-.048.54-.151.519-.248.479-.336.42-.412.345-.47.256-.512.158-.534.054-.534-.052-.515-.157ZM749.395 351.45l.231-.426.706-1.298.038-.07-.038-.115-.117-.188-.192-.254-.259-.31-.317-.355-.362-.385-.393-.401-.41-.402-.41-.387-.355-.321-.04-.036-.365-.314-.321-.258-.264-.193-.197-.121-.123-.042"/><path d="m750.37 349.656-.004.003-.039.034h-.001l-.121-.042-.197-.119-.263-.193-.321-.258-.365-.314-.396-.358-.411-.387-.41-.403-.394-.402-.363-.386-.067-.075-.25-.28-.259-.31-.192-.254-.116-.188-.037-.114.043-.036M746.442 352.426l.342-.677.001-.001.113-.223.223-.442.001-.001.047-.093.228-.451.058-.113.027-.184-.022-.099-.035-.152-.14-.311-.217-.357-.11-.149-.005-.007-.171-.233-.344-.408-.389-.411-.418-.397-.144-.122-.289-.246-.429-.326-.41-.27-.11-.06-.001-.001-.265-.144-.326-.132-.264-.053-.192.028-.002.001"/><path d="m747.454 350.426-.006.005-.106.103h-.002l-.189.028-.264-.052-.326-.131-.006-.003-.246-.134-.004-.002-.119-.065-.411-.271-.107-.081-.323-.245-.434-.369-.419-.398-.286-.302-.103-.109-.345-.408-.087-.12-.002-.003-.197-.268-.154-.254-.056-.091v-.001l-.007-.011-.139-.311-.057-.251.029-.183.111-.106.001-.001M742.012 354.759l.038-.083.767-1.686.09-.251v-.233l-.001-.081-.09-.366-.177-.403-.257-.424-.327-.431-.385-.419-.427-.392-.401-.31-.052-.04-.462-.295-.287-.143-.005-.003-.045-.023-.117-.058-.427-.153-.385-.07-.327.013-.258.097-.655.384-1.501.879-.798.467"/><path d="m742.819 352.99-.006.007-.17.171-.003.001-.254.097-.327.015-.385-.07-.427-.152-.454-.228-.463-.295-.455-.35-.296-.273-.132-.12-.385-.42-.171-.225-.156-.206-.257-.426-.177-.403-.09-.366v-.314l.091-.251.175-.175.002-.002M735.648 359.799l1.079-2.817.051-.374-.046-.418-.056-.18-.085-.267-.23-.458-.011-.015-.301-.436-.38-.428-.435-.388-.386-.271-.087-.061-.427-.23-.065-.035-.492-.187-.475-.102-.438-.013-.385.077-.317.163-2.685 1.543"/><path d="m736.728 356.981-.025.055-.121.26-.236.245-.003.002-.313.162-.385.078-.22-.006-.134-.004h-.008l-.076-.003-.475-.101-.062-.023-.431-.164-.493-.265-.473-.333-.436-.388-.381-.429-.312-.452-.231-.458-.115-.368-.003-.008-.022-.072-.046-.418.053-.374.147-.315.233-.241.003-.003M728.417 365.377l.703-2.518.095-.429-.007-.466-.11-.487-.035-.085-.173-.403-.033-.052-.265-.419-.377-.436-.442-.383-.489-.317-.518-.237-.526-.15-.516-.056-.484.04-.435.135-2.219 1.202"/><path d="m729.118 362.859-.013.023-.182.351-.287.305-.004.003-.21.128-.007.004-.147.09-.434.135-.484.041-.516-.055-.527-.15-.519-.238-.49-.317-.442-.384-.378-.436-.299-.471-.208-.489-.109-.487-.007-.467.079-.347.001-.007.017-.075.196-.374.284-.301.003-.003.34-.207.028-.017M720.246 371.406l.195-1.679.024-.509-.084-.521-.19-.515-.288-.487-.375-.443-.447-.379-.503-.303-.538-.214-.554-.117-.549-.016-.521.086-.474.185-1.813.854"/><path d="m720.44 369.727-.012.046-.118.43-.156.283-.008.013-.07.129-.329.358-.005.003-.403.274-.474.186-.523.087-.548-.016-.554-.117-.539-.214-.503-.303-.448-.38-.375-.443-.289-.488-.19-.515-.084-.522.024-.509.133-.476.234-.425.105-.114.007-.006.214-.234.002-.003.394-.267.016-.01M710.94 378.356l-.229-1.178-.177-.536-.281-.501-.373-.447-.452-.377-.511-.291-.555-.195-.573-.091-.572.017-.548.123-.252.079-.937.293"/><path d="m710.713 377.179.017.141.049.409-.009.106-.002.028-.035.408-.157.515-.262.467-.357.401-.005.003-.433.316-.503.227-.548.124-.572.017-.574-.091-.554-.194-.513-.292-.452-.377-.373-.448-.281-.502-.177-.536-.066-.55.046-.543.158-.514.173-.307.09-.16.353-.396.004-.004.439-.32.013-.006.027-.012.175-.078.249-.112.039-.018M699.952 385.593l.276.512.17.551.057.57-.058.567-.171.543-.278.497-.374.432-.005.004-.449.347-.519.256-.563.151-.585.041-.585-.071-.563-.181-.518-.283-.454-.375-.373-.452-.276-.511-.17-.552-.057-.57.059-.568.172-.542.278-.497.369-.427.004-.005.255-.196.2-.155.519-.255.563-.151.585-.041.366.045.219.027.562.18.518.283.454.375.372.451ZM689.34 395.743l.276.517.169.56.055.583-.06.582-.174.558-.28.515-.376.45-.005.004-.453.365-.521.274-.566.167-.587.055-.587-.06-.564-.173-.519-.278-.455-.373-.372-.454-.276-.517-.169-.561-.056-.582.061-.582.173-.559.281-.514.372-.445.004-.005.458-.369.521-.274.566-.167.587-.054.587.06.564.172.519.278.454.373.373.454Z"/><path d="m689.599 398.554-.281.514-.372.445-.003.005-.459.37-.521.273-.565.167-.588.055-.586-.06-.565-.173-.519-.278-.455-.373-.373-.454-.276-.517-.169-.56-.055-.583.06-.582.175-.558.279-.515.377-.45.005-.004.453-.365.521-.274M686.246 394.47l.588-.054.587.06.563.172.52.278.454.373.372.454.276.517.169.561.056.582-.06.582M696.868 384.281l.585-.04.365.045.22.026.562.181.518.283.454.375.372.451.276.511.17.552.057.57-.058.567-.172.543-.277.497-.37.427-.004.005-.455.351-.519.256-.562.151-.586.041-.585-.072-.562-.18-.518-.283-.454-.375-.373-.452-.276-.511-.17-.552-.057-.571.059-.567.171-.542.278-.497.374-.432.005-.004.26-.201.19-.146.519-.256M710.303 379.261l-.353.396-.004.005-.438.319-.503.227-.548.124-.572.017-.574-.09-.554-.195-.513-.292-.452-.377-.373-.448-.281-.502-.176-.536-.067-.55.046-.543.158-.514.175-.311.088-.156.357-.4.005-.004.434-.316.04-.018.025-.011.154-.069.284-.128.548-.123.572-.017.573.091.554.195.512.291M710.246 376.149l.281.501.177.536.067.55M720.154 370.479l-.007.013-.078.142-.325.354-.003.004-.409.277-.474.186-.522.087-.548-.016-.555-.117-.539-.214-.504-.303-.447-.38-.376-.443-.287-.488-.19-.515-.085-.522.025-.509.132-.476.235-.425.11-.12.007-.007.211-.23.005-.004M715.934 366.5l.474-.185.521-.086.549.016.554.117.538.214.503.303.447.379.375.443.288.487.189.515.085.521-.024.509-.131.476M728.636 363.542l-.003.003-.206.126-.008.005-.154.094-.434.135-.485.041-.286-.031-.229-.025-.259-.073-.269-.076-.518-.238-.49-.317-.443-.384-.377-.436-.299-.471-.208-.489-.109-.487-.007-.467.08-.354.001-.006.016-.069.195-.374.288-.305.004-.002M729.203 361.97l.007.467M725.719 358.945l.515.056M727.766 359.706l.442.383.377.436M733.742 357.223l-.473-.333-.39-.348-.046-.041-.359-.403-.022-.025-.312-.452-.231-.459-.118-.375-.002-.008-.02-.064-.046-.419.052-.374.147-.315.237-.243.003-.002.314-.162.385-.077.438.013.474.102.493.187.067.036.425.229.089.063.384.27.435.387.38.428.303.439.009.013.23.457.085.27.056.177.046.419-.051.374-.146.315-.233.242-.003.003-.316.164-.385.077-.217-.006-.128-.003-.009-.001-.084-.002-.475-.101-.06-.023-.433-.164-.493-.265ZM732.158 353.363l-2.662 1.53-.019.01M740.322 352.538l-.455-.35-.295-.271-.132-.122-.386-.42-.169-.223-.158-.208-.257-.426-.177-.403-.09-.366v-.314l.091-.251.177-.177.003-.001.255-.096.327-.013.385.07.427.153.12.06.05.025.006.003.278.139.462.295.054.042.399.308.427.392.385.419.327.431.257.424.177.403.091.366v.314l-.09.251-.174.176-.002.002-.257.098-.327.015-.384-.07-.428-.152-.454-.228-.463-.295Z"/><path d="m738.471 349.008-.65.381-1.501.879-.797.467M747.37 350.503l-.031.03-.001.001-.192.029-.263-.052-.323-.13-.003-.001-.242-.132-.004-.002-.129-.071-.411-.27-.107-.081-.324-.245-.433-.369-.419-.398-.271-.286-.119-.125-.344-.409-.094-.128-.002-.003-.19-.259-.158-.261-.052-.084v-.001l-.007-.012-.14-.31-.056-.251.028-.183.111-.106.002-.001.001-.001.191-.027.264.053.326.131.265.145.001.001.109.059.41.271M745.195 347.352l.288.245.144.123.419.397.389.41.344.408M746.957 349.177l.109.148.217.357.14.31.033.148.024.104-.028.183"/><path d="m743.196 346.394-.693.404-.07.041-2.038 1.189-.348.203M750.328 349.693l-.043-.014-.08-.028-.196-.119-.264-.193-.321-.258-.365-.314-.396-.358-.411-.387-.41-.403-.394-.402-.363-.386-.066-.074-.251-.281-.259-.31-.192-.254-.116-.188-.037-.114.039-.033.004-.003h.002M746.527 345.737l.264.193.32.258.365.314.038.035.357.322.41.387.41.402.393.401.362.385.317.355.259.31.192.254.117.188M746.205 345.574l-1.959 1.118"/><path d="m750.61 352.27.926-1.624-.052-.112-.128-.185-.2-.254-.265-.311-.318-.356-.36-.389-.39-.406-.401-.407-.399-.393-.38-.364-.349-.32-.302-.264-.245-.199-.179-.125-.048-.022M634.152 466.354l.196.153.338.238.283.169.219.096.146.017.001-.001.004-.003.468-.266M641.053 441.984l-1.372 2.395-.109.41-.017.462.076.495.167.51.25.506.324.482.232.263.154.176.203.178.23.201.463.306.475.22.47.126.446.027.405-.074.174-.057 1.792-.589"/><path d="m639.68 444.379.198-.343.278-.262.349-.171.405-.074.028.001.418.025.47.126.477.219.463.306.434.381.386.439.325.483.25.506.166.511.076.496-.018.462-.048.179-.062.23-.198.342-.183.172-.096.09-.069.033-.28.137M635.336 467.026l.471-.268M629.916 461.648l-.531.931-.002.009.078.088.154.163.224.233.285.294.336.342.374.379.397.4.405.406.397.396.375.372.338.333.288.281.227.219.157.148.081.072.656-.361.002-.001.685-.377.002-.001.321-.176"/><path d="m629.383 462.58.08.07.157.148.227.218.288.282.338.333.375.373.399.397.406.407.397.401.374.379.337.342.285.294.223.232.154.163.076.088-.002.008M631.107 457.416l-.099.169-.641 1.087-1.055 1.79.007.158.087.231.162.296.23.349.116.153.177.235.342.414.378.422.371.384.003.003.026.028.407.392.398.353.373.302.335.239.284.166.221.088.151.005.169-.088.001-.001.593-.307 1.334-.691"/><path d="m629.312 460.462.073-.078.15.004.221.087.283.165.32.228.016.011.373.302.399.355.408.392.122.127.001.001.278.288.378.423.343.414.292.389.232.349.161.295.086.231v.047l.005.11-.073.078M632.889 453.536l-1.51 2.531-.311.521-.064.225.018.296.086.307.014.05.025.057.152.345.249.433.31.446.359.444.395.424.001.001.254.236.001.002.1.092.004.004.056.052.421.336.409.273.382.197.34.116.285.029.171-.046.003-.001.005-.001.002-.001.039-.01.462-.22 1.169-.555.004-.001"/><path d="m631.07 456.588.145-.145.219-.06.285.028.34.115.382.198.204.135.206.137.421.337.417.388.396.424.36.445.31.448.249.433.177.402.099.356.007.129.003.043v.005l.007.119-.065.225-.145.144M636.289 448.242l-1.671 2.819-.134.287-.031.242-.015.115.039.412.065.238.06.214.205.474.279.478.342.464.103.114.287.317.289.26.136.124.442.32.445.244.427.16.394.068.347-.025.288-.118 3.065-1.276"/><path d="m634.621 451.062.213-.207.286-.119.348-.026.395.068.428.159.387.213.057.032.443.32.426.384.391.432.1.137.241.328.196.336.084.143.082.19.123.284.125.452.039.412-.049.357-.134.286-.214.207M647.488 434.097l-1.05 2.014-.164.454-.067.503.032.532.131.541.225.529.308.496.382.446.44.376.481.294.504.199.508.098.389-.006.102-.002.696-.141"/><path d="m646.438 436.11.255-.389.336-.308.155-.082.248-.132.456-.114.492-.009.508.097.505.2.482.294.44.377.383.446.31.497.224.529.13.542.033.532-.068.503-.166.454-.255.389-.12.11-.216.197-.404.214-.458.113M654.946 425.873l-.594 1.414-.109.535-.005.56.101.564.203.546.296.508.378.45.446.374.497.285.528.184.539.076 1.603.019"/><path d="m654.352 427.286.21-.488.273-.382.03-.042.384-.342.451-.248.5-.144.53-.035.54.076.528.184.497.285.447.374.378.451.296.508.203.547.101.564-.005.561-.11.534-.21.488-.304.424-.385.342-.45.247-.233.067-.267.077-.53.034M663.4 417.806l.076-.299.066-.255.245-.511.341-.446.347-.3.007-.007.067-.057.487-.27.533-.163.56-.052.564.062.546.174.509.279.451.374.375.453.286.515.186.558.078.58-.033.578-.142.555-.246.51-.341.446-.422.364-.487.269-.533.164-.559.051-.564-.063-.523-.166-.023-.008-.508-.279-.451-.373-.375-.453-.286-.515-.186-.558-.078-.579.013-.237.001-.001.019-.34Zm0 0 .102-.752M664.742 420.862l.573.321M675.195 410.708l-.516-.277-.454-.373-.373-.454-.279-.518-.175-.563-.062-.585.051-.586.164-.563.27-.519.365-.455.446-.373.511-.278.555-.172.579-.058.58.057.558.17.516.277.454.373.373.454.28.518.174.563.062.585-.051.586-.164.563-.27.519-.365.455-.446.374-.511.277-.555.172-.579.058-.58-.057-.558-.17ZM647.612 484.298l-4.404 4.336-.04.041 5.982 8.013 5.982 8.014 1.631 2.185 2.113 2.884 3.073 4.16 3.916 5.279 4.61 6.196 5.121 6.866 5.426 7.262 5.512 7.364 5.377 7.169 5.024 6.686 4.472 5.937 3.746 4.956 2.876 3.786 1.902 2.48 5.982 8.013 5.982 8.013.177.238 1.195 1.501 4.876-4.839"/><path d="m643.168 488.675 2.813.835 3.949 3.23 6.562 3.928 3.973 3.887.006.006.746.729.644.63 1.396 1.366 1.026 1.099 6.589 7.057 7.034 7.108 1.687 1.705 5.99 8.008 1.953 2.613 4.953 8.688 1.884 3.305 5.232 8.522 1.743 2.839 5.012 8.653 1.254 2.165 4.668 8.844.563 1.067.616 1.397 3.241 7.35 3.954 5.648 1.416 4.822M1220.5 670.141l-9.96.836-9.97.835-9.96.835-9.97.835-9.96.836-9.97.835-9.96.835-9.97.836-1.18.099-9.97.835-9.96.836-9.97.835-9.96.835-6.77.567"/><path d="m1091.89 680.87 1.08-.039 5.25 8.515 5.24 8.514 5.25 8.514 5.24 8.514 5.25 8.514 5.24 8.514 5.25 8.514 5.24 8.514 5.25 8.514 5.24 8.514 5.25 8.514 5.24 8.514 5.25 8.515 3.58 5.813"/><path d="m1237.43 776.852 9.39 3.443 9.39 3.443 5.96 2.186 9.49 3.152 9.49 3.153 7.11 2.363 9.32 3.62 9.32 3.62 6.4 2.484 1.92.432 6.98-7.163 1.35-1.389-6.1-7.917-5.6-7.25-6.11-7.917-5.59-7.248-6.11-7.917-5.59-7.245-6.11-7.918-5.58-7.243-6.53-7.581-6.52-7.582-6.52-7.581-6.52-7.581-6.52-7.582-6.52-7.581-6.52-7.582-6.52-7.581-4.09-4.749-1.56.079-9.96.835-9.97.836-9.96.835-9.97.835-9.96.836-9.97.835-9.96.835-9.97.836-.88.073-9.96.836-9.97.835-9.96.835-9.97.836-6.59.552 5.25 8.514 5.24 8.514 5.25 8.514 5.24 8.514 5.25 8.515 5.24 8.514 5.25 8.514 5.24 8.514 5.25 8.514 5.24 8.514 5.25 8.514 5.24 8.514 5.25 8.514 3.3 5.37 1.36.405 8.76-4.83 8.75-4.829 8.76-4.83 8.75-4.83 5.95-3.281 9.98.668 9.98.668 9.98.668 1.78.12Zm0 0 .91.061"/><path d="m1238.34 776.913 9.39 3.443 9.39 3.443 6.78 2.487 9.49 3.153 9.49 3.153 7.21 2.396 9.32 3.62 9.32 3.62 6.49 2.52M1060.23 923.211l4.68-8.837 4.68-8.837 4.68-8.837 4.68-8.838 3.5-6.62-1.04-.728-8.53-5.23-8.52-5.229-8.52-5.229-8.53-5.23-8.52-5.229-8.53-5.229-8.52-5.229-8.52-5.23-8.53-5.229-8.521-5.229-8.524-5.23-8.524-5.229-8.523-5.229-5.513-3.382-.795 9.968-.795 9.969-.794 9.968-.795 9.968-.587 7.36-.795 9.968-.795 9.969-.794 9.968-.795 9.968-.795 9.969-.795 9.968-.795 9.969-.794 9.968-.215 2.695.562.956 7.587 6.514 7.588 6.514 7.587 6.513 7.588 6.514 7.587 6.514 7.585 6.514 7.59 6.513 7.59 6.514 5.39 4.63 7.93 6.098 7.38 5.67 7.93 6.09 7.37 5.67 7.93 6.1 7.37 5.67 7.93 6.09 7.37 5.67 6.98-7.17 1.52-1.56-3.63-9.32-3.63-9.32-2.72-7-3.17-9.484-3.16-9.485-2.59-7.736-3.45-9.385-3.45-9.385-2.66-7.241-.73-9.974-.72-9.973-.73-9.974-.24-3.362Z"/><path d="m1082.45 881.242-8.52-5.229-8.53-5.23-8.52-5.229-8.52-5.229-8.53-5.23-8.52-5.229-8.53-5.229-8.52-5.229-8.52-5.23-8.526-5.229-8.524-5.229-8.523-5.23-8.524-5.229-5.959-3.656"/><path d="m965.086 809.151.6.454-.795 9.969-.794 9.968-.795 9.969-.795 9.968-.601 7.542-.795 9.968-.794 9.969-.795 9.968-.795 9.968-.794 9.969-.795 9.968-.795 9.968-.794 9.969-.24 3.014M1776.08 71.372l-8.1-5.87-8.1-5.87-.42-.308-8.61-5.088-8.61-5.09-.48-.285-9.05-4.27-9.04-4.27-.49-.232-9.4-3.413-9.4-3.413-.45-.164-9.68-2.527-9.67-2.527-.36-.093-9.87-1.613-9.87-1.614-.2-.033-9.98-.68-9.99-.68-6.03-.276-9.99.274-10 .275-.61.017-9.92 1.237-9.92 1.237-.34.042-9.75 2.204-9.8 2.213-8.06 2.128-9.49 3.165-9.48 3.164-.31.103-9.11 4.11-9.13 4.115-8.33 4.51-8.64 5.03-8.7 5.062-8.07 5.908-7.88 5.773-7.59 6.509-.14.12-7.4 6.73-7.15 6.507-6.63 7.486-6.25 7.066-6.13 7.906-.28.358-5.78 8.159-5.33 7.523-4.86 8.737-4.42 7.94-4.42 8.971-.14.274-3.89 9.212-3.42 8.099-2.88 9.576-2.53 8.389-2.41 9.475-1.85 9.827-1.55 8.251-.81 9.967-.69 8.429-.23 8.908.21 9.998.17 8.002 1.21 9.927.98 8.074 2.17 9.761 1.8 8.086 1.63 6.852 3.09 9.511 2.39 7.345 3.95 9.184 3.13 7.249 4.77 8.788 3.85 7.085 5.53 8.332 4.54 6.853 2.12 3.099 6.23 7.821 4.65 5.834 6.88 7.262 5.21 5.511 7.46 6.659 5.74 5.126 7.99 6.017 6.21 4.682 8.46 5.336 6.63 4.184 8.87 4.62 6.98 3.637 9.22 3.871 7.26 3.048 9.51 3.09 7.47 2.425 3.93 1.061 9.74 2.277 8.52 1.992 9.9 1.437 8.59 1.247 9.98.569 8.57.488 9.99-.322 8.46-.273 7.52-.659 9.92-1.234 9.05-1.124 9.76-2.156 8.78-1.937 9.51-3.086 8.41-2.73 8.96-3.124 9.16-4.01 8.53-3.737 8.71-4.92 8.01-4.528 8.51-5.246.26-.155 8.14-5.798 7.76-5.523 7.49-6.634 7.08-6.277 7.26-6.874.51-.482 6.72-7.405 6.49-7.155 5.87-8.101 5.68-7.84 5.71-8.203.39-.555 4.93-8.702 4.82-8.502 3.92-9.199 3.87-9.086 3.88-9.217.09-.199 2.87-9.579 2.82-9.441 1.79-9.84 1.79-9.884 1.6-9.194.69-9.977.68-9.859-.41-9.991-.41-10.121-.69-8.05-1.47-9.89-1.45-9.676-2.51-9.679-2.53-9.726-3.51-9.366-3.5-9.366-.11-.296-2.31-5.254-4.43-8.962-4.32-8.712-5.31-8.474-5.28-8.43-6.11-7.914-6.21-8.03-6.85-7.288-6.84-7.288-.22-.23-7.51-6.603-7.51-6.604-.33-.293Z"/><path d="m1656.65 380.377-8.02 5.962-7.5 5.563-8.99 4.369-8.86 4.304-8.99 4.379-7.68 3.737-9.84 1.778-9.84 1.778-.21.039-9.9-1.46-9.89-1.46-2.51-.371-9.44-3.307-9.44-3.307-.25-.089-8.78-4.791-8.78-4.791-2.3-1.255-7.79-6.264-7.91-6.361-6.47-7.625-6.47-7.625-1.46-1.718-5.1-8.603-5.13-8.663-3.23-9.465-3.23-9.465-.41-1.2-1.1-9.939-1.1-9.939-.11-.95 3.98-9.174 3.1-7.159 3.78-9.26 3.3-8.093 4.95-8.688 4.48-7.867 6.53-7.574 5.81-6.74 7.84-6.214 6.88-5.456 8.84-4.674 7.7-4.072 9.54-3.008 8.3-2.616 9.99-.355 1.53-.054 9.99-.355 3.2-.114 9.9 1.46 9.32 1.376 9.06 4.213 7.42 3.442 8.64 5.036 6.78 3.954 7.77 6.29 7.78 6.289 3.15 2.55 6.52 7.58 6.12 7.114 5.62 8.275 2.56 3.779 1.63 2.396 3.09 7.083 3.98 9.116 1.3 9.915.06.415 1.3 9.914.21 1.536-1.19 9.929-.07.546-1.14 9.552-3.53 9.356-.4 1.043-2.46 6.521-5.25 8.508-4.42 7.158-6.77 7.36-5.99 6.506Z"/><path d="m1707.76 327.562 1.23-9.924 1.22-9.925.4-3.182-1.28-9.919-1.28-9.918-.38-2.969-.29-2.254-3.98-9.175-2.2-5.087-1.9-4.381-5.61-8.282-4.89-7.231-.75-1.115-6.52-7.584-6.52-7.583-1.49-1.734-7.78-6.284-7.78-6.284-5.95-4.809-8.65-5.02-8.65-5.019-.45-.262-9.08-4.19-9.08-4.19-.8-.371-9.9-1.428-9.9-1.428-2.3-.333-2 .079-9.99.396-9.99.395-6.43.254-.08.025M1462.14 375.387l-3.86-2.212-3.53-3.638-1.96-2.823-3.19-3.64-3.99-5.712-1.86-2.788-3.25-6.843-.86-2.5-.83-3.024-1.03-3.735.16-1.963-.26-5.822 1.13-.968-.33-4.957.59-3.727"/><path d="m1467.08 347.475 2.14 5.864 1.21 5.544.52 5.562.72 4.194-.46 3.259-2.63 1.609-2.36 1.321-1.7-.579-2.72.231-.84-.31-2.68-.995M1436.23 317.545l-1.5 1.31.37 7.772M1479.43 373.711l.63-4.344-.94-5.598-.67-7.431M1437.35 338.247l2.28 6.984M1457.51 314.981l-5.69-5.047-4.34-2.553-2.37-.024-4.41.542M1458.15 330.969l2.37 5.358M1465.21 326.184l-3.16-7.163M1575.29 454.373l6.35.194 4.12-.221-.95-1.015 3.81-.4M1510.98 432.74l.12.451 4.87 2.833 5.36 2.923.58.304 3.16 1.326 5.81 2.434 2.36.991 7.78 3.042M1547.85 411.963l-6.8-2.591M1511.11 433.192l.07-.3"/><path d="m1497.96 421.877 3.69 3.66 2.13 1.847 4.31 3.165 2.89 2.192.2.151M1541.02 447.045l2.06.671 8.14 2.641 5.69 1.848M1598.76 453.489l-.93-1.811-1.49-2.095 1.28-2.252.79-1.912 1.66-.06-.95-2.546-2.24-3.173-3.07-3.138-2.46-1.057-3.94-2.474-3.9-3.66-4.71-3.596-6.44-2.525"/><path d="m1486.29 411.742 6.8 6.369 2.44 1.832 2.48 1.87.73.55 3.17 2.793"/><path d="m1485.73 403.957.48 1.917 1.12 3.099-.09 1.948-.95.822"/><path d="m1484.31 402.242 1.41 1.714 5.96 7.241.93.824"/><path d="m1509.47 399.726-5.82-1.797-3.53.96-4.73.003-3.4-.443-2.13-.478-2.67.998-2.03 1.567-.85 1.707M1520.75 403.409l-7.48-1.873M1538.31 441.476l-4.12-1.335-1.04-.338-1.63-.684-4.01-1.681-2.19-.916-.4-.21-3.71-2.02-3.36-1.959.05-.208-2.13-1.619-2.97-2.187-1.47-1.275.18-.262-2.18-1.927-2.22-1.672-1.68-1.265.49-.407.07-.974-.54-1.551-.3-1.25-.64-.569.44-.846 1.05-.768 1.37-.481 1.07.25 1.72.236 2.4.019M1517.26 416.031l1.9.911 3.75.95M269.264 960.721l1.598 1.044 4.824 2.735 4.664 2.361 5.477 2.635 5.413 2.13 2.287.692 3.011.912 4.409 1.316 2.56.764 5.714 1.183 7.747 1.115 5.985.62 8.314.077 6.102-.064 8.661-1.012 6.062-.843 8.786-2.117 5.865-1.691 8.692-3.208 5.518-2.575 8.39-4.247 7.816-5.149 5.111-3.519 7.201-6.013 4.449-4.348 6.426-6.745 5.571-7.38 3.649-5.028 4.581-7.825 2.821-5.599 3.511-8.07 1.977-6.024 2.393-8.099 1.154-6.282 1.265-7.905.382-6.362.159-7.485-.307-6.26-.889-6.846-.885-5.98-1.482-6.183-1.698-5.355-1.85-5.659-2.355-5.727-2.839-5.737-3.294-5.69-3.718-5.585-.922-1.371-3.581-4.731-3.882-4.542-4.143-4.306-4.365-4.027-1.415-1.206-5.204-4.25-5.354-3.842-5.448-3.394-5.488-2.913-4.698-2.113-6.117-2.688-6.035-2.091-6.374-1.617-6.457-1.618-6.233-.929-7.699-.794-6.408-.251-8.246.253-6.405.529-8.567 1.347-6.23 1.379-8.658 2.459-5.886 2.265-8.526 3.545-8.106 4.529-5.467 3.196-7.628 5.487-4.785 4.021-6.966 6.334-6.216 7.107-3.95 4.689-5.296 7.698-3.099 5.262-4.271 8.104-2.242 5.692-3.173 8.308-2.12 8.639-1.324 5.625-.943 8.489-.581 5.652.073 6.022.212 7.607.662 5.801 1.268 6.935 1.123 5.422 1.639 5.583.264.703"/><path d="m228.187 904.324.814-5.188.344-2.197 2.333-6.976 3.642-5.801 4.767-4.477 5.687-3.058 6.402-1.583 9.376.901 7.698 2.186 6.877 4.259 6.657 4.749 7.517 6.594 1.08.947 6.382 6.989 5.344 6.72 4.424 7.391 3.22 9.467.081.24 1.134 8.716-.8 7.232-2.252 6.579-3.674 5.685-5.028 4.554-6.265 3.201-5.214 2.734-.701.059-3.982.33-2.298.191-.911-.247-3.99-1.083-4.15-1.126-.757-.352-2.738-1.277-.084-.039-4.656-2.17-8.382-5.454-.491-.32-7.44-6.395-6.596-7.517-.703-.801-5.67-8.26-4.406-8.977-.197-.402-.9-2.849-.041-.131-.589-1.866-.039-.122-.91-2.884-.489-1.55.064-.741.085-.981.026-.3.399-4.6Zm0 0 1.123-8.754"/><path d="m325.73 929.835-1.263-9.92-.015-.121-3.201-9.474-.578-1.71-5.082-8.516-6.148-7.742-6.741-7.386-.605-.663-7.52-6.591-2.383-2.088-7.67-5.46-7.925-4.89-8.871-2.498-9.957-.928-.845-.079M281.754 964.768l2.7.07 6.368.164M226.594 911.177l.546 1.457.842 2.155.358.238.193.128"/><path d="m225.223 903.679.002.013 1.367 7.485.484 1.27.265.487.173.364.775 1.374.166.331.076.152.933 1.868.177.345M228.34 915.026l1.177 2.218.167.254M227.79 908.923l-.308-.617-1.034-1.826-.228-.479-.353-.639M269.125 960.644l.141.077.13.07 2.129 1.085 2.147 1.099 2.199 1.162 2.809 1.348 1.448.578 2.395.89 1.528.723M296.113 971.195l-2.453-1.028M304.599 974.922l-.91-.422.602.062-1.611-.804M309.004 976.446l-1.546-.469-1.915-.573M293.527 972.317l1.219.595.617.168 5.584 1.465M1379.78 284.089l-7.17-6.965-7.18-6.965-7.17-6.966-1.48-1.432-6.96 7.176-6.97 7.175-6.96 7.175-1.44 1.476 7.18 6.965 7.17 6.965 7.18 6.965 1.48 1.433 6.96-7.176 6.97-7.175 6.96-7.176 1.43-1.475ZM1348.32 252.183l-7.18-6.965-6.57-6.381-6.97 7.175-6.38 6.574 7.18 6.965 6.57 6.382 6.97-7.176 6.38-6.574ZM1367.73 237.438l-7.17-6.965-2.23-2.165-6.97 7.176-2.16 2.23 7.17 6.965 2.23 2.164 6.97-7.175 2.16-2.23ZM2114.52 1064.23l-7.15-6.98-7.16-6.98-7.16-6.98-7.16-6.99-7.16-6.98-7.16-6.98-7.16-6.98-7.16-6.98-7.16-6.99-7.15-6.978-7.16-6.982-7.16-6.982-7.16-6.982-7.16-6.982-7.16-6.982-7.16-6.982-7.16-6.983-7.16-6.982-7.16-6.982-7.15-6.982-7.16-6.982-7.16-6.982-7.16-6.982-7.16-6.982-7.16-6.982-7.16-6.983-7.16-6.982-7.16-6.982-7.15-6.982-7.16-6.982-7.16-6.982-7.16-6.982-7.16-6.982-7.16-6.982-7.16-6.983-7.16-6.982-7.16-6.982-7.15-6.982-7.16-6.982-7.16-6.982-7.16-6.982-7.16-6.982-7.16-6.982-7.16-6.983-7.16-6.982-7.16-6.982-7.15-6.982-7.16-6.982-7.16-6.982-7.16-6.982-7.16-6.982-8.08-7.877 6.99 7.159 6.98 7.159 6.98 7.159 6.98 7.159 6.98 7.159 6.99 7.159 6.98 7.159 6.98 7.159 6.98 7.159 6.98 7.158 6.99 7.159 6.98 7.159 6.98 7.159 6.98 7.159 6.99 7.159 6.98 7.159 6.98 7.159 6.98 7.159 6.98 7.159 6.99 7.159 6.98 7.159 6.98 7.158 6.98 7.159 6.98 7.159 6.99 7.159 6.98 7.159 6.98 7.159 6.98 7.159 6.99 7.159 6.98 7.159 6.98 7.159 6.98 7.159 6.98 7.159 6.99 7.158 6.98 7.159 6.98 7.159 6.98 7.159 6.98 7.159 6.99 7.159 6.98 7.159 6.98 7.159 6.98 7.155 6.98 7.16 6.99 7.16 6.98 7.16 6.98 7.16 6.98 7.16 6.99 7.16 6.98 7.16 6.98 7.15 6.98 7.16 7.88 8.08M622.711 446.307l2.925 5.243M635.164 465.799l.645.958v.001l5.583 8.297 5.583 8.296.637.947M688.949 361.607l.011-.008.021-.015M710.761 377.843l-.038.436M723.158 340.883l-.002.234M724.582 335.636l.001.001.014.008M735.549 342.155l-4.345-2.437-1.293-.725-.001-.001M742.503 346.798l-.034-.023-1.555-1.05M937.831 786.6l-.916 1.627v.001l-.001.002M945.664 793.006l2.017 1.649.875.716M1069.42 660.664l.01.001.07.003M1071.48 669.326l.01-.002M1075.05 657.604l.01.016M1077.01 660.42l1.41-2.505M1083.76 686.246l1.86-3.398M1088.93 677.466l1.32-2.397M962.039 805.392l8.569 5.154 8.569 5.155 8.569 5.154 8.569 5.155 8.575 5.155 8.56 5.154 8.57 5.155 8.57 5.154 8.57 5.155 8.57 5.155 8.57 5.154 8.57 5.155 8.57 5.154 8.57 5.155 8.57 5.155 3.01 1.815 2.13 1.278M1163.35 847.867l.28.033M1083.84 669.879l-4.2-6.951M1177.66 835.431l.01-.001M1177.76 833.999l-.01-.001-.22-.067M1180.89 821.387l-.07-.041M1182.64 825.325l.73-1.26M1179.56 822.437l-.2-.359-.01-.001-.58-1.043-.28-.499-4.89-8.722-1.25-2.223"/></g><defs><clipPath id="a"><path fill="#fff" d="M0 0h1920v1080H0z"/></clipPath></defs></svg>