<svg width="1920" height="1080" fill="none" xmlns="http://www.w3.org/2000/svg"><g clip-path="url(#a)" stroke="#EFC018" stroke-width="5" stroke-linejoin="round"><path d="m1090.19 674.423-.07-.087-.16-.175-.24-.258-.32-.33-.37-.389-.43-.434-.46-.462-.47-.473-.46-.464-.45-.439-.4-.397-.35-.339-.28-.269-.21-.187-.11-.1-.03-.007-.73.397v.001l-.38.207"/><path d="m1090.19 674.422-.02-.006-.12-.098-.2-.187-.28-.268-.35-.339-.4-.397-.45-.44-.47-.466-.47-.474-.46-.463-.42-.435-.38-.389-.32-.33-.24-.257-.16-.175-.07-.084v-.001M1089.77 676.454v-.003l.01-.165-.08-.252-.18-.328-.02-.031v-.001l-.23-.361-.33-.442-.35-.415v-.002l-.04-.053v-.004l-.44-.488-.47-.483-.47-.459-.47-.419-.45-.362-.4-.291-.35-.21-.27-.119-.15-.019-.01-.001-.03-.004-2.2 1.146"/><path d="M1089.77 676.451v.001l-.1.072-.19-.023-.27-.119-.07-.04-.28-.168-.4-.292-.43-.35v-.001l-.02-.011-.47-.42-.48-.461-.33-.345-.13-.139-.44-.489-.39-.474-.33-.443-.26-.392-.17-.329-.08-.251.01-.162v-.002l.09-.063.01-.008M1085.39 683.976l1.95-3.511.09-.242v-.024l-.01-.302-.11-.398-.2-.454-.28-.492-.3-.44-.01-.001-.04-.072-.42-.513-.46-.493-.49-.455-.03-.028-.01-.001-.15-.125v-.001l-.31-.244-.48-.329-.45-.244-.41-.152-.27-.041-.08-.012-.1.019-.01.001-.16.029-.39.191v.001l-.87.419"/><path d="M1087.34 680.465v.002l-.18.147-.27.049-.35-.051-.4-.151-.46-.245-.48-.328-.5-.401-.49-.456-.24-.252v-.002l-.22-.24-.42-.514-.36-.514-.28-.493-.2-.454-.1-.397-.01-.326.01-.025v-.003l.08-.21v-.003l.18-.14v-.007M1081.59 688.85l.44-.817.64-1.186.25-.475.16-.314.07-.395-.04-.463-.14-.511-.24-.54-.32-.549-.4-.536-.45-.503-.5-.451-.52-.381-.52-.297-.51-.201-.03-.006-.44-.092-.41.01-.33.112-.01.004"/><path d="M1082.92 686.372v.003l-.26.217-.34.118-.41.01-.47-.097-.51-.201-.21-.121-.01-.007-.3-.168-.52-.382-.5-.452-.46-.504-.4-.537-.32-.55-.01-.033-.08-.172v-.014l-.15-.322-.14-.512-.03-.462.06-.395.16-.31.01-.003.25-.211v-.008M1071.71 689.1l.01-.004.33-.283.34-.149.07-.028.47-.066.53.05.55.162.56.269.54.364.51.447.45.512.38.557.29.582.19.583.09.562-.02.52-.13.459-.01.021-.22.357-.01.003-.32.281-.41.178M1074.9 694.495l-.56-.162-.55-.269M1072.46 688.636l-.67.237M1075.47 696.441l1.4-2.804M1071.9 692.181l-.29-.582M1067.93 705.123l1.02-2.385.19-.511.08-.569-.04-.606-.16-.62-.26-.608-.37-.576-.44-.519-.52-.444-.56-.351-.59-.244-.59-.13-.58-.008-.53.112"/><path d="m1068.95 702.738-.01.015-.28.417-.01.004-.37.326-.01.006v.002l-.48.23-.53.113-.57-.008-.6-.128-.59-.245-.56-.351-.52-.445-.44-.52-.37-.576-.26-.61-.16-.62-.04-.606.08-.569.19-.511.29-.427.01-.005.04-.039.01-.008.34-.29.44-.216.03-.013M1059.31 714.246l.5-1.715.12-.608v-.64l-.13-.647-.24-.63-.35-.59-.44-.525-.53-.441-.58-.341-.61-.226-.63-.104"/><path d="m1059.81 712.531-.02.042-.22.509-.1.136-.01.012-.24.327v.004l-.44.376-.52.27-.58.15-.61.023-.63-.103-.62-.226-.58-.341-.52-.442-.45-.526-.35-.589-.24-.632-.12-.648v-.64l.12-.607.24-.552.34-.469.01-.005.44-.379.52-.27.08-.019.02-.006.46-.119.02-.004.61-.024"/><path d="m1059.22 713.561-.01.007-.44.378-.52.27-.58.151-.62.024-.62-.104-.62-.227-.58-.34-.52-.441-.45-.526-.35-.591-.24-.631-.12-.648v-.64l.12-.608.24-.551.34-.475.01-.004M1057.66 708.119l.58.34.52.442.44.525.35.589M1055.22 707.961l.1-.026.03-.007M1065.5 703.48l-.57-.352-.51-.444-.45-.52-.37-.576-.26-.61-.16-.62-.04-.607.08-.569.19-.51.3-.432v-.004l.05-.044.01-.008.33-.281.47-.229.53-.113.58.009.59.129.59.245.56.351.52.444.45.519.36.575.26.609.16.619.04.606-.08.569-.19.511-.29.428v.005l-.37.323-.01.006-.01.009-.47.23-.54.113-.57-.008-.59-.129-.59-.244ZM1076.86 693.644l-.23.374v.004l-.33.284-.41.178-.31.043v.001l-.17.023-.52-.049-.56-.162-.55-.268-.55-.365-.51-.448-.45-.513-.38-.558-.29-.583-.19-.584-.09-.562.02-.521.04-.117v-.008l.09-.332.24-.378v-.003l.33-.28.41-.177.48-.065.52.049.55.162.56.269.54.365.51.447.45.512.38.557.29.581.2.583.08.563-.02.52-.13.458Zm0 0-.01.014M1072.45 688.644l-.06.021M1082.92 686.375v.003l-.26.22-.34.118-.42.01-.47-.097-.5-.201-.2-.114-.02-.007-.3-.175-.53-.382-.49-.452-.46-.504-.4-.537-.32-.55-.02-.036-.08-.183v-.014l-.14-.308-.14-.512-.04-.462.07-.395.16-.313.01-.003M1079.04 681.139l.44.093.03.005.5.201.53.297.52.381.49.451.46.503.4.536.32.549.24.54.14.511M1086.06 677.533l.41.513.05.066v.001l.31.445.28.493.2.454.1.397.01.297V680.228l-.08.24-.01.003-.18.148-.26.05-.35-.052-.41-.151-.45-.245-.49-.328-.5-.4-.48-.456-.24-.252v-.002l-.23-.241-.41-.514-.36-.513-.28-.493-.2-.455-.1-.397-.01-.325.01-.031v-.003l.08-.208v-.001M1083.01 675.42l.25.039.41.152.46.245.48.328.3.242v.001l.16.127M1089.77 676.452v.002l-.1.072-.19-.023-.28-.118-.06-.04v-.001l-.28-.168-.4-.291-.44-.351v-.001l-.01-.01-.47-.42-.48-.461-.32-.337-.15-.147-.43-.489-.39-.475-.34-.442-.25-.393-.18-.328-.08-.251.01-.164v-.001l.11-.071M1085.85 671.897l.4.291.44.362.47.419.48.461.47.482.43.489h.01l.04.056v.001l.35.417.33.44M1089.7 676.037l.08.252M1087.73 680.122l1.21-2.169.83-1.499M1090.19 674.422v.001l-.02-.006-.12-.098-.2-.187-.28-.268-.35-.339-.4-.398-.45-.439-.47-.466-.47-.474-.46-.463-.42-.435-.38-.39-.32-.329-.24-.257-.16-.175-.07-.085.03.007.11.1.21.187.28.269.35.339.4.396.45.44.46.464.47.473.46.462.43.434.37.389"/><path d="m1085.38 669.614-.72.397-.01.001-.38.207M1084.65 670.01l-.13-.096-.31-.186-.23-.098-.07-.003M957.102 800.698l.099-.133.001-.003.195-.041.28.052.356.146.417.234.463.313.029.021.462.357.5.43.489.466.092.096.001.002.368.386.413.482.35.463.064.099.21.325.187.371.078.254.015.048-.005.223-.078.102-.024.032-.002.001-.194.04-.281-.054-.075-.03h-.001l-.28-.117-.417-.234-.401-.27-.001-.001-.061-.041-.49-.378-.498-.43-.45-.427-.038-.038-.46-.482-.412-.482-.135-.178-.008-.01-.207-.273-.274-.424-.187-.371-.094-.302.004-.224Zm0 0 .003-.008M962.066 805.423l.04-.022 3.575-2.015M954.406 801.86l.023-.055.116.038.204.129.286.216.354.294.411.361.452.414.474.452.368.362.017.017.094.092.465.473.433.456.385.422.161.186.001.001.159.184.246.307.161.23.07.144-.024.053-.001.001h-.001l-.115-.039-.205-.13M957.44 805.182l-.473-.451-.478-.47-.464-.471-.263-.278M958.656 806.251l-.355-.295-.41-.361M959.266 806.636l2.245-1.255M955.208 802.913l-.321-.371-.246-.307"/><path d="m953.951 800.495-.282.516-.001.001.036.117.128.205.213.284.292.354.358.409.412.449.448.472.156.159M996.219 768.574l.097.641.165.464.057.161.338.587.441.525.528.443.593.345.637.234.656.112.649-.013 1.3-.269"/><path d="m996.219 768.574.024-.477.007-.154.159-.596.28-.54.39-.463.486-.367.562-.257.618-.138.65-.014.655.112.64.233.59.346.53.444.44.525.28.483.06.104.22.627.1.64-.03.631-.16.597-.28.54-.39.462-.49.367-.29.133-.27.124-.62.137M953.668 801.011v.001M954.841 801.031l-.294.552-.001.001-.117.22-.023.055.07.146.162.23.246.307.322.371.384.422.07.073.05.053.313.329.464.471.477.47.473.451.451.413.411.361.354.295.286.216.205.131.117.038h.001"/><path d="m954.43 801.805.115.038.205.129.285.216.355.294.411.361.451.414.474.452.403.396.076.075.465.473.433.456.385.422.162.187.001.001.159.183.246.307.161.23.069.145-.024.053M962.065 805.424l-.002.001-.195.041-.281-.054-.076-.031-.28-.115-.417-.235-.402-.271-.061-.041-.49-.378-.499-.43-.461-.439-.027-.026-.459-.482-.412-.482-.143-.188-.009-.01-.198-.263-.274-.424-.188-.37-.093-.304.003-.224.007-.009.094-.125h.002l.192-.043.281.054.356.145.417.235.463.312.029.021.011.009.451.348.5.43.489.466.091.096.002.003.367.385.413.482.351.462.063.099.001.001M961.887 804.396l.187.37"/><path d="m962.062 805.425.045-.024 3.575-2.015M962.333 796.259l-.579 1.249-.074.3.011.15.001.005v.006l.016.213.111.367.002.007.019.06.228.476.317.501.393.507.454.493.127.117.003.003.369.34.523.409.528.344.512.264.243.089.005.002.229.084.424.078.353-.021.271-.119 3.426-1.905"/><path d="m961.754 797.508.176-.214.269-.12.354-.022.248.045.175.032.478.174.512.264.206.134.003.002.32.208.524.41.5.461.455.494.394.508.317.502.228.477.131.434.027.373-.076.3-.176.213M968.791 791.012l-.344.852-.002.005-.195.485-.14.372-.032.441.08.493.186.526.287.539.375.53.45.503.508.455.545.39.563.311.558.218.532.119.486.013.421-.092 3.027-1.612"/><path d="m968.25 792.354.244-.29.339-.194.42-.093.486.012.126.028.406.09.559.218.564.311.546.391.509.455.451.504.376.532.286.54.172.486.014.04.079.493-.032.442-.142.371-.245.288-.339.194M976.217 785.811l-.084.502.034.547.15.571.259.572.361.553.446.512.516.45.565.373.593.28.598.177.581.067.54-.045.479-.157 2.649-1.28"/><path d="m976.215 785.81.198-.439.304-.357.399-.262h.001l.478-.157.541-.047.58.067.599.176.594.28.567.373.516.452.447.512.361.554.26.573.149.572.033.547-.085.503-.003.006-.195.431-.306.357-.4.261M985.621 777.816l-.004.594.119.609.238.602.348.572.443.519.523.447.581.357.618.254.632.141.62.023.584-.096 2.02-.8"/><path d="m985.621 777.816.126-.555.245-.494.051-.061.303-.355.449-.32.527-.213.585-.098.62.022.632.141.619.254.582.358.524.447.444.52.347.572.238.603.119.61-.004.594-.127.555-.246.494-.234.274-.121.141-.449.32-.528.213M1009.83 760.877l-.61-.336-.53-.441-.44-.53-.33-.597-.21-.642-.09-.662.05-.658.18-.626.3-.572.41-.496.51-.4.59-.289.63-.167.67-.038.67.091.65.219.6.336.53.441.44.53.34.597.21.643.08.662-.05.658-.17.626-.31.572-.41.496-.51.4-.58.288-.64.167-.67.038-.67-.092-.64-.218ZM1021.65 749.284l-.6-.331-.53-.44-.44-.532-.33-.603-.21-.651-.08-.674.05-.672.18-.643.31-.589.42-.514.51-.418.6-.306.64-.183.67-.052.68.08.65.21.6.331.53.44.45.532.33.603.2.651.08.674-.05.672-.18.643-.31.589-.42.514-.51.418-.6.306-.64.183-.67.052-.68-.08-.65-.21ZM1033.52 737.35l-.6-.33-.53-.44-.44-.531-.34-.604-.21-.652-.08-.676.04-.674.18-.645.3-.592.41-.516.5-.421.59-.308.63-.185.67-.055.67.079.64.208.6.331.53.439.44.532.34.603.21.652.09.676-.05.673-.18.645-.29.592-.41.517-.51.42-.58.309-.64.186-.66.054-.67-.078-.65-.209ZM1049.47 722.475l-.01.22-.02.443-.16.633-.27.579-.39.503-.48.408-.56.297-.61.174-.65.045-.65-.087-.63-.214-.6-.333-.53-.44-.44-.53-.34-.599-.22-.646-.1-.667.03-.663.15-.633.28-.579.38-.503.48-.407.56-.296.62-.174.64-.044.66.086.59.201.04.013.59.334.53.439.44.53.34.599.23.645.1.666Zm0 0 .07.735M723.897 335.418l-8.725-4.886-6.686-3.743-8.883-4.594-8.882-4.595-8.882-4.594-4.328-2.239-8.915-4.532-8.914-4.531-8.914-4.532-4.392-2.232-9.163-4.005-9.162-4.006-9.163-4.005-5.138-2.246-9.577-2.879-9.577-2.878-9.577-2.878-9.577-2.878-9.576-2.878-9.577-2.878-9.577-2.878-2.935-.882 2.85 9.585 2.849 9.586 2.85 9.585 2.849 9.585 2.85 9.586 2.85 9.585 2.849 9.586.853 2.868 3.985 9.171 3.986 9.172 3.985 9.171 2.228 5.127 4.515 8.922 4.516 8.923 4.515 8.922 2.221 4.39 4.579 8.89 4.578 8.89 4.579 8.89 2.232 4.334 4.872 8.733 3.429 6.147M1085.07 671.546v-.004l-.01-.01-.79-1.313-.36-.591-3.6-5.973-1.02-.657-1.16.623M1079.12 664.832l-1.53 3.174-4.04 5.619-6.33 7.743-.12.142-.21.248-.35.397-1.78 2.037-3.13 3.583-1.05 1.197-2.1 2.405-1.43 1.57-3.2 3.499-.77.848-4.69 5.126-.39.427-3.35 3.55-.34.357-5.39 5.714-2.83 2.987-1.47 1.521-5.8 5.965-4.54 4.667-1.04 1.071-4.92 4.93-4.65 4.661-3.68 3.689-2.31 2.248-4.59 4.483-5.874 5.729-.028.027-.291.284-4.129 3.912-.009.008-1.983 1.88-3.517 3.332-.009.008-.542.514-.009.008-2.177 2.063-1.573 1.439-.009.008-2.43 2.223-2.294 2.098-.008.007-1.011.925-.008.007-3.389 3.099-.007.007-.414.379-2.706 2.36-.258.225-.007.006-1.163 1.014-.005.005-4.177 3.643-.008.007-.49.427-.003.003-.647.564-7.418 6.004-5.108 3.55-2.639 1"/><path d="m947.735 794.622-.274.458.109 1.575 2.679-1.011 5.196-3.607 7.55-6.109 1.331-1.162.004-.003.027-.023.005-.004 1.125-.982.007-.006 3.702-3.229.007-.005 1.243-1.084.007-.006.493-.43 1.684-1.469 1.327-1.213.007-.007 3.286-3.005.008-.007 1.011-.925.007-.007 2.38-2.176 2.412-2.207.009-.007.902-.825 2.796-2.65.009-.008.54-.512.009-.008 3.543-3.357 1.983-1.879.009-.009 3.716-3.52.699-.681.012-.012 5.875-5.729 4.61-4.499 2.14-2.09 3.83-3.833 4.66-4.676 5.01-5.02.94-.964 4.55-4.683 5.78-5.95 1.83-1.875 2.48-2.627 5.41-5.731.34-.356 3.72-3.94.18-.19 4.55-4.981.79-.863 3.12-3.419 2.21-2.418 1.43-1.646 1.08-1.227 2.96-3.389 1.97-2.251.51-.59.83-.944 6.32-7.744.23-.281 4.11-5.716 1.55-3.223M628.473 455.81l1.493 2.219.242.359M739.845 344.803l-3.249.865-5.299 3.021-7.171 5.091-1.176.936-.675.537-2.11 1.678-2.362 1.88-1.176.936-1.28 1.018-2.611 2.239-2.611 2.24-.706.605-4.119 3.533-.3.272-3.944 3.581-.023.021-4.033 3.662-2.612 2.371-2.523 2.404-3.119 2.972-5.685 5.418-.577.575-2.259 2.251-6.484 6.463-1.949 1.942-.514.536-5.614 5.854-3.314 3.455-1.297 1.353-3.015 3.303-.006.007-1.75 1.917-2.105 2.308-.007.007-.221.242-.007.008-2.653 2.906-.385.448-.006.007-1.761 2.049-1.952 2.27-.006.007-.779.907-.006.007-1.991 2.316-.006.006-1.496 1.741-.501.631-.809 1.021-.005.005-1 1.262-.004.005-4.363 5.501-4.724 6.766-2.605 4.859-.417 2.791M1071.35 655.347l-.91-1.114v-.001l-.41-.496-6.33-7.737-6.34-7.737-6.33-7.737-6.34-7.737-3.04-3.72-6.5-7.599-6.5-7.599-6.5-7.599-6.5-7.599-6.51-7.599-5.5-6.437-6.68-7.443-6.679-7.443-6.678-7.443-6.679-7.443-6.678-7.442-5.607-6.249-6.853-7.283-6.853-7.283-6.852-7.283-6.853-7.282-6.853-7.283-5.719-6.078-7.469-6.649-7.47-6.649-7.47-6.648-7.469-6.649-7.47-6.649-6.278-5.588-7.694-6.386-7.695-6.387-4.642-3.853-7.695-6.386-7.695-6.387-7.695-6.387-1.924-1.597-8.063-5.915-8.063-5.916-8.063-5.915-8.062-5.915-8.063-5.915-7.192-5.276-8.291-5.593-5.763-3.887-8.291-5.592-8.29-5.592-6.785-4.577-.001-.001-.984-.664-1.544-1.041"/><path d="m742.458 346.566.839-2.684-1.138-1.356-2.248-1.737-3.369.873-.74.419-4.756 2.691-3.452 2.441-1.443 1.02-.432.305-2.113 1.496-.346.274-.817.648-1.596 1.267-.91.722-2.486 1.973-2.578 2.046-.379.301-.367.315-.362.309-2.646 2.266-7.054 6.04-7.407 6.718-3.921 3.556-7.24 6.896-4.518 4.302-7.083 7.059-4.612 4.597-6.92 7.219-4.223 4.405-6.737 7.389-3.388 3.716-.865 1.009-.005.005-1.23 1.434-.008.009-4.017 4.68-.005.005-2.071 2.414-.005.005-.487.567-.268.338-.005.007-.996 1.26-.005.007-1.249 1.578-.003.005-2.026 2.561-.005.006-.443.559-.003.005-1.367 1.726-.003.005-.489.618-.003.004-.052.065-1.219 1.754-.002.004-1.005 1.443-2.654 3.819-1.904 3.582-.776 1.458-.408 2.894 1.736 2.251 1.836.662 1.956-.763"/><path d="m742.157 342.526-3.37.887-5.508 3.134-7.463 5.295-2.337 1.859-1.267 1.007-2.579 2.051-2.06 1.639-.9.716-.292.25-3.945 3.383-2.669 2.289-.651.558-2.912 2.496-1.374 1.248-4.191 3.805-3.704 3.363-2.105 1.91-3.517 3.352-2.444 2.329-5.847 5.571-1.383 1.379-1.028 1.024-7.083 7.059-.55.548-1.382 1.377-.323.323-6.093 6.353-2.823 2.944-2.28 2.377-2.428 2.661-.006.007-1.872 2.051-1.752 1.919-.007.008-.099.108-.02.023-.008.009-3.295 3.61-.006.007-.683.749-1.114 1.296-1.904 2.215-.006.007-.751.874-.007.007-1.947 2.266-.006.007-1.991 2.316-1.013 1.179-.035.044-.004.005-1.047 1.321-.005.006-1.75 2.208-.005.006-1.224 1.544-.003.003-.262.331-.001.002-2.62 3.304-4.912 7.04-2.701 5.051-.421 2.893M1079.12 664.832l-.99-1.211-1.6-1.953M726.504 588.77l6.383 7.698.602.727 6.646 7.471 6.647 7.472 6.646 7.472 6.646 7.472 6.647 7.471 5.63 6.33 7.284 6.851 7.284 6.852 7.284 6.852 7.284 6.851 7.284 6.852 6.131 5.766 7.444 6.677 7.445 6.676 7.445 6.677 7.445 6.676 7.445 6.676 6.301 5.651 7.602 6.497 7.601 6.497 7.602 6.498 7.602 6.497 7.601 6.497 6.487 5.545 7.741 6.331 7.74 6.331 7.741 6.332 7.74 6.331 4.016 3.285h.001l.089.073.734.6M1095.93 885.91l2.04-.222 3.41-1.674.12-.08 4.51-2.994 5.69-4.366 6.53-5.493 7.12-6.404 7.24-6.899.16-.159 7.06-7.085.34-.343 6.87-7.265.22-.23 6.5-7.257 5.64-6.728 1.58-2.051M947.566 796.655l6.383 3.839.891.537M1127.56 904.287l8.65 5.022 4.45 2.586 1.65-.092 2.66-1.179 3.55-2.227 4.22-3.113.11-.082 4.92-4.041 5.34-4.731 5.18-4.91.35-.323 5.5-5.526 1.35-1.446 3.9-4.151 4.8-5.444 4.15-5.074.81-1.096 2.53-3.408 2.4-3.761 1.38-2.874.32-1.884-5.04-8.64-2.71-4.662"/><path d="m1093.55 884.478-.19.593-.66 2.157.66 1.318 2.19-.227 3.63-1.782 2.66-1.762 2.29-1.522 6.1-4.669 6.99-5.88 7.43-6.69.19-.168 7.24-6.899.69-.664.09-.087.97-.972 5.03-5.045 1.25-1.263.59-.592 6.87-7.264.73-.766 6.67-7.451.29-.322 6.03-7.204.55-.711M1111.51 898.672l8.73 4.872 3.3 1.839 1.92-.132 2.1-.964 1.01-.463 4.2-2.677 5.12-3.831 5.85-4.842 6.36-5.662 6.59-6.257 6.57-6.599 6.29-6.677 5.74-6.482 4.97-6.031 4.01-5.338 2.89-4.44.87-1.756.8-1.619.39-2.186-4.33-7.739M1093.36 888.546l1.84 1.028 8.74 4.872 1.37.764.05.03v.002l.97.541M1152.74 905.284l8.22 5.696 4.39 3.042 1.02-.051 1.6-.693 2.14-1.312 2.58-1.881 2.92-2.379 3.15-2.785 3.27-3.081 3.24-3.257 3.09-3.304 2.83-3.221 2.44-3.012 1.96-2.684 1.42-2.254.81-1.738.19-1.157-5.71-8.214-3.15-4.539M1076.71 908.805l7.45 6.675 6.15 5.515 7.45 6.676 6.18 5.543 7.44 6.675 6.21 5.562 7.44 6.675 6.23 5.581 4.56-2.354 5.7-6.744-5.53-8.333-5.52-8.333-1.51-2.266-5.29-8.486-5.29-8.486-1.5-2.407-5.44-8.391-1.89-2.922"/><path d="m1135.82 955.353-5.54-8.326-5.54-8.325-1.52-2.291-5.3-8.478-5.3-8.479-1.53-2.43-5.45-8.384-5.45-8.384-1.67-2.568-3.32-8.114M1102.91 727.56l-9.51-3.068-9.52-3.067-9.52-3.068-8.03-2.586-6.33 6.87 6.24 7.818 6.23 7.82 6.24 7.82 6.23 7.818 6.23 7.82 6.24 7.82 6.23 7.818 6.23 7.819 6.24 7.819 6.23 7.82 6.23 7.819 6.24 7.819 6.23 7.819 2.73 3.417.17-.009.78-.049 9.98-.607 6.26-.382.88-.053 6.34-.388.94-.057 2.41-.146.88-.055.04-.002 2.94 1.356 3.29 1.513v.003l2.33 1.07v.001l3.88 1.786 9.08 4.182 6.16 2.833 8.35 5.5 8.35 5.498 6.82 4.487 8.43 5.372 8.44 5.373 7.27 4.632 8.3 5.573 8.31 5.574 7.04 4.726 5.68-2.929 6.08-7.379-6.61-7.509-6.48-7.362-6.6-7.506-6.5-7.388-6.61-7.508-6.52-7.413-6.61-7.508-6.55-7.439-6.8-7.327-6.81-7.326-6.8-7.328-6.81-7.328-3.86-4.157-3.21-3.457-6.8-7.328-6.81-7.327-6.81-7.327-6.8-7.328-.45-.482-9.52-3.068-9.51-3.067-9.52-3.068-9.52-3.066-7.96-2.567-7.29-2.347-7.37-2.379-5.16-1.66Z"/><path d="m1162.42 755.955-9.51-3.093-9.51-3.093-9.51-3.094-4.33-1.409-9.51-3.093-4.44-1.443-9.51-3.093-9.52-3.099-9.51-3.093-9.51-3.094-9.51-3.093-8.05-2.617M1277.11 882.509l-6.6-7.504-6.51-7.388-6.61-7.505-6.53-7.413-6.61-7.505-6.55-7.439-6.61-7.505-6.57-7.465-6.81-7.325-6.81-7.326-6.81-7.326-6.8-7.326-6.81-7.325-3.17-3.416-6.81-7.325-6.81-7.326-6.8-7.326-4.47-4.81 6.34-7.172M1072.04 652.599l-2 1.138M1078.39 657.289l-.07-.085-.15-.172-.25-.256-.31-.327-.38-.388-.42-.433-.46-.461-.47-.472-.47-.465-.44-.44-.41-.397-.35-.341-.28-.271-.21-.19-.11-.101-.03-.011-.78.438v.002l-.57.314v.001l-1.79.998"/><path d="m1078.39 657.289-.03-.01-.11-.099-.21-.19-.28-.271-.35-.341-.41-.398-.44-.441-.47-.466-.47-.473-.46-.462-.43-.434-.37-.388-.32-.328-.24-.255-.16-.172-.06-.081v-.001M1077.88 659.294v-.003l.02-.166-.08-.252-.15-.294v-.001l-.02-.034-.25-.394-.33-.442-.25-.307v-.001l-.02-.023v-.001l-.12-.142-.44-.488-.46-.483-.48-.46-.47-.419-.45-.362-.4-.291-.35-.209-.28-.118-.2-.024-.01.007v.001l-1.78.959-.54.289-.01.004v.002l-.11.057-.41.22v.001"/><path d="M1077.88 659.291v.001l-.11.072-.2-.022-.27-.116v-.002l-.35-.208-.41-.291-.31-.251v-.001l-.14-.111-.47-.419-.48-.461-.46-.485-.44-.489-.39-.475-.33-.443-.25-.393-.17-.329-.08-.252.02-.163.09-.063.01-.002.01-.008M1073.22 666.993l.21-.364 1.84-3.265.08-.207v-.003l.02-.036-.01-.33-.09-.402-.19-.457-.28-.495-.16-.232v-.001l-.19-.282-.42-.514-.46-.494-.32-.295v-.001l-.07-.071v-.001l-.1-.087-.5-.398-.48-.327-.46-.242-.42-.149-.35-.049-.03.006h-.01l-.22.043-.01.001-.01.002-.41.208v.001l-.96.48v.003l-2.33 1.169"/><path d="M1075.27 663.364v.002l-.19.151-.27.053-.36-.049-.41-.148-.46-.242-.49-.327-.5-.399-.49-.456-.02-.025-.01-.001-.43-.469-.42-.515-.35-.516-.28-.496-.19-.457-.1-.401v-.33l.01-.013v-.003l.09-.226v-.003l.18-.143.01-.008M1068.75 672.795l1.85-3.38.18-.321.04-.202.03-.201-.01-.147-.02-.322-.13-.517-.23-.545-.32-.552-.39-.539-.46-.504-.49-.45-.53-.38-.53-.293-.16-.064-.35-.133-.48-.093-.42.016-.32.11-.03.014-3.48 1.576"/><path d="M1070.6 669.415v.003l-.27.225-.35.124-.37.015-.05.002-.25-.047-.23-.044-.51-.197-.22-.119-.01-.007-.3-.168-.53-.379-.5-.452-.46-.505-.39-.54-.09-.153-.23-.4-.07-.178-.01-.014-.15-.354-.13-.518-.03-.469.08-.402.17-.317v-.003l.26-.218.01-.008M1062.76 679.803l1.48-2.905.14-.468.04-.53-.08-.571-.18-.59-.17-.341-.08-.17-.04-.075-.37-.561-.46-.514-.5-.446-.55-.362-.57-.264-.56-.156-.53-.041-.37.055-.12.019-3.03 1.142"/><path d="m1064.24 676.897-.01.021-.24.368v.003l-.34.291-.42.189-.31.047-.01.001-.17.027-.54-.041-.56-.155-.57-.264-.36-.237-.12-.082-.07-.044-.51-.447-.45-.514-.37-.562-.29-.588-.18-.591-.08-.571.04-.53.02-.089.01-.009v-.026l.11-.344.25-.383v-.005l.34-.293.35-.152.08-.035M1062.42 680.332l.01-.004.33-.526M1054.85 688.773l1.09-2.472.2-.524.09-.581-.03-.617-.14-.628-.26-.615-.36-.58-.45-.521-.01-.016-.11-.095-.39-.332-.57-.348-.6-.239-.6-.121-.59.002-.55.123-2.61.684"/><path d="m1055.93 686.301-.01.016-.3.43v.004l-.38.326-.01.007-.02.014-.48.243-.55.125-.59.002-.6-.12-.6-.239-.57-.348-.52-.444-.4-.465-.05-.057-.02-.041-.33-.539-.26-.617-.15-.629-.02-.617.09-.582.2-.523.31-.441.01-.005.02-.024.01-.008.37-.318.46-.227.03-.015M1045.83 698.229l.54-1.778.13-.622.02-.653-.12-.658-.23-.638-.35-.595-.44-.527-.52-.44-.59-.337-.01-.005-.13-.046-.48-.168-.64-.094-.63.035-1.93.113"/><path d="m1046.37 696.451-.02.041-.24.526-.09.119v.012l-.27.36-.01.004-.45.391-.54.285-.6.164-.63.035-.64-.093-.62-.22-.59-.336-.52-.441-.45-.528-.34-.595-.16-.434-.04-.112-.04-.094-.11-.658.01-.653.14-.622.26-.567.36-.485v-.005l.46-.395.54-.284.04-.01.02-.007.5-.134.04-.012"/><path d="m1046.16 693.89.24.638.11.658-.01.653-.14.621-.26.568-.07.106-.01.012-.28.367v.005l-.46.396-.54.285-.6.163-.62.036-.64-.094-.63-.219-.59-.336-.52-.441-.45-.528-.34-.596-.16-.434-.04-.112-.03-.093-.12-.659.02-.652.13-.622.26-.567.37-.491v-.004l.46-.39.54-.285.06-.016.02-.007.51-.139.63-.035.64.094.48.168.13.045.01.006M1041.12 700.733l.86.126.85-.049M1049.28 689.406l.77.47.81.323.82.162.79-.003.74-.169.66-.329.55-.475M1051.08 681.46l.48-.242.55-.124.59-.001.6.121.6.239.57.348.38.331.11.095.02.017.45.521.36.579.26.616.14.628.03.617-.09.581-.2.524-.31.441-.01.005-.37.323-.01.007-.02.021-.49.243-.55.125-.59.002-.6-.12-.6-.239-.57-.348-.52-.444-.4-.466-.04-.056-.03-.042-.33-.538-.26-.617-.14-.629-.03-.617.09-.582.21-.523.31-.446v-.004l.04-.028.01-.009M1057.62 679.884l.11.098.74.49.77.357.76.209.72.055.66-.103.58-.255.46-.399v-.004M1061.06 677.392l-.35-.238-.13-.082-.06-.043-.51-.447-.46-.514-.37-.562-.29-.588-.18-.591-.08-.571.04-.53.03-.098v-.009l.01-.024.1-.337.25-.388.01-.003.33-.29.43-.188.13-.019.36-.055.53.042.57.156.56.264.55.362.51.446.45.513.37.561.04.074.08.17.17.343.18.59.08.571-.03.529-.15.469-.24.384-.01.005-.34.294-.42.188-.3.047-.01.001-.18.028-.54-.041-.56-.155-.57-.264ZM1064.56 672.004l.71.513.42.231.17.095.13.071.69.265.65.123.57-.024.48-.169.37-.308M1070.6 669.418v.004l-.27.227-.35.124-.37.015-.06.002-.24-.047-.24-.044-.51-.197-.2-.112-.01-.007-.32-.174-.52-.38-.5-.452-.46-.505-.39-.54-.09-.156-.23-.397-.08-.192-.01-.014-.14-.34-.13-.518-.03-.469.07-.402.18-.32v-.003l.27-.223.05-.016.3-.108M1070.69 667.711l.13.517M1070.84 668.548l.01.149-.04.198-.04.205M1068.75 672.801v-.004l.24-.438 1.61-2.937M1066.75 664.159l.48.092M1075.27 663.366v.002l-.19.153-.28.053-.35-.048-.42-.148-.46-.242-.49-.327-.5-.399-.48-.456-.03-.025v-.001l-.44-.469-.41-.516-.35-.515-.28-.496-.19-.458-.1-.401v-.329l.01-.019v-.003l.09-.223v-.002M1074.8 661.438l.27.497.2.456M1070.59 658.347l.02-.003v-.001l.23-.043M1073.22 666.998V666.989l.21-.359 1.84-3.262"/><path d="m1070.26 666.246.66.442.63.327.56.199.45.06.03.004.37-.073.26-.207M1071.22 658.345l.41.148.46.243M1073.08 659.461l.09.084v.001l.08.074v.001l.32.295.46.494M1077.81 658.875l.08.253-.01.164v.002l-.11.073-.2-.023-.27-.116v-.002l-.35-.208-.41-.291-.31-.251v-.001l-.14-.11-.47-.42-.48-.461-.46-.484-.44-.489-.39-.475-.33-.443-.25-.393-.17-.329-.08-.252.02-.165v-.001l.1-.062v-.002l.01-.007M1076.68 657.236l.11.14v.001l.02.025v.002l.25.307.33.442.25.393M1075.73 663.082l.8-1.414 1.35-2.374M1075.35 663.157l.23.025.15-.1M1073.62 654.525l.35.209.41.291.45.361M1077.93 656.777l.24.257.15.172.07.083m0 0-.02-.008-.12-.101-.2-.19-.29-.27-.35-.34-.4-.398-.45-.442-.47-.466-.47-.474-.46-.462-.42-.434-.38-.388-.32-.326-.24-.256-.15-.172-.07-.082.03.01M1076.35 655.168l.46.461M1077.23 656.062l.38.389M1073.58 652.48l-.78.437v.002l-.57.315v.001l-1.79.998M1073.73 652.591l.2.19M1074.21 653.052l.35.341M1074.97 653.791l.44.44M1072.04 652.598v.001l-2 1.138"/><path d="m1072.8 652.917-.07-.045-.31-.181-.23-.092-.15-.001M939.91 788.971l.005-.23.102-.141.001-.001.196-.049.121.021.162.026.357.141.419.229.465.308.344.263.009.006.139.107.501.429.489.465.255.268.002.002.204.215.412.484.254.338.096.128.148.233.001.001.124.195.185.376.091.308-.001.037-.005.192-.104.141h-.002l-.196.047-.275-.047M943.159 792.783l-.491-.375M943.624 793.091l-.276-.183M944.883 793.464l.842-.485 2.895-1.664.004-.003M948.622 791.312l.142-.191.01-.311-.122-.417-.172-.35M940.186 789.655l-.186-.376M940.81 790.549l-.236-.315-.011-.014-.102-.136M942.171 791.98l-.489-.465-.459-.483M937.24 789.965l.115.035.203.126.284.213.353.292.41.359.451.413.474.45.479.471.465.473.019.02.415.437.386.424.219.254.001.001.102.118.247.31.162.233.072.148-.023.056v.001l-.002-.001-.114-.035-.204-.127-.284-.214-.354-.292-.41-.359-.45-.412-.473-.449-.477-.47-.464-.472-.433-.456-.371-.407-.014-.016-.013-.014-.31-.36-.247-.309-.163-.234-.072-.149.021-.058Zm0 0 .134-.243v-.002l1.039-1.894.002-.003.312-.569.341-.623M942.07 794.799l2.332-1.334"/><path d="m937.989 786.653-.069.122-.002.004-1.366 2.436-.001.002.032.116.123.205.21.284.288.354.355.409.409.449.039.041M937.899 786.58l-.008.031.027.167M980.133 753.461l.117 1.511.087.653.013.038.044.129.158.468.334.592.44.528.53.443.599.34.645.225.667.101.663-.027 1.348-.288"/><path d="m980.25 754.972.036-.524.008-.122.174-.613.295-.558.408-.481.502-.386.579-.275.634-.155.663-.027.369.056.13.019.168.026.646.225.6.34.53.443.441.528.334.593.214.636.087.653-.045.646-.174.614-.296.558-.408.48-.503.385-.338.161-.241.114-.633.154"/><path d="m985.777 758.174.856-.207.782-.371.68-.52.551-.65.401-.754.235-.829.06-.873-.117-.882M936.551 789.215l.001.001M942.07 794.798v.001l-.115-.036-.204-.127-.285-.214-.354-.292-.409-.358-.45-.413-.473-.449-.478-.47-.464-.472-.433-.456-.385-.423-.012-.014-.018-.021-.292-.338-.248-.31-.163-.233-.072-.149.022-.059.001.001M941.289 793.678l.22.254.001.001.102.119.247.309.162.233.071.148M937.352 790l.203.126.284.213.354.292.41.359M939.527 791.854l.478.47.466.473M941.483 785.736l-.644 1.232-.049.093v.002l-.304.582-.001.001-.006.011-.001.001-.021.042-.002.003-.353.676-.19.364-.006.23.093.308.186.376.273.429.092.122.01.015.247.328.412.483.459.483.488.465.5.428.491.375.187.124.001.001.276.184.419.229.358.141.006.001h.001l.276.047.197-.047.846-.487 2.896-1.664"/><path d="m939.91 788.743.008-.011.095-.131.002-.001.194-.047.128.021.154.025.358.141.419.229.465.308.353.27.139.106.5.429.49.465.255.268.001.002.204.215.413.484.244.325.106.141.148.233.124.196.186.376.091.308-.001.037-.006.192-.102.139-.002.002M945.649 783.287l-.003.006-.274.568-.003.006-.715 1.483-.074.287-.001.005-.005.017.01.144v.005l.015.234.127.441.021.045.004.008.2.43.315.506.392.509.454.494.426.393.003.003.07.064.525.407.53.339.516.258.293.102.005.002.184.064.428.07.36-.03.275-.129 1.607-.91.531-.301 1.408-.798"/><path d="m944.652 785.35.181-.224.275-.13.359-.031.428.069.151.052.331.115.516.258.532.34.025.019.002.002.499.386.5.461.456.495.392.511.315.507.225.483.126.441.023.383-.081.308-.182.223M953.55 786.589l-.082-.29-.035-.124-.304-.654M952.771 776.521l-.902 2.123-.003.008-.368.866-.009.021-.039.092-.005.01-.116.276-.043.11-.002.004-.104.269-.039.453.073.503.181.534.283.546.374.534.449.505.509.453.549.388.567.305.537.2.027.011.231.047.308.062.494.003.429-.104 3.137-1.701"/><path d="m951.328 779.916.253-.302.347-.207.429-.105.494.002.063.013.007.001.082.017.387.077.565.211.568.305.55.387.509.456.451.505.374.536.263.507.02.039.05.148.12.355.011.032.071.503-.039.452-.15.384-.254.301-.348.206M959.289 783.039l.471-.279M960.514 770.145l-.416 1.24-.002.007-.005.013-.002.006-.546 1.627-.094.516.025.559.143.581.255.58.357.558.445.513.518.45.067.043.146.095.356.231.599.273.606.168.59.056.551-.059.491-.171 2.746-1.351"/><path d="m959.543 773.037.209-.452.317-.373.411-.277.021-.007.469-.165.551-.059.591.055.607.167.6.274.57.369.518.45.104.119.091.106.252.29.357.558.255.582.142.581.024.56-.095.515-.009.021-.201.432-.317.371-.412.276M967.344 776.079l.557-.373.429-.503.285-.611M969.708 762.4l-.44 2.252-.014.607.11.621.232.611.32.537.024.04.061.072.381.45.525.445.586.353.626.247.641.13.631.01.599-.111 2.096-.846"/><path d="m969.27 764.652.139-.57.258-.511.07-.082.299-.351.464-.338.542-.229.598-.112.631.009.643.13.625.247.133.079.104.063.351.211.526.446.443.522.344.578.231.612.11.621-.015.608-.141.57-.26.511-.256.301-.112.131-.464.337-.541.229M976.086 767.818l.732-.308.627-.455.499-.585.352-.691.189-.77.021-.821M994.285 746.816l-.607-.331-.533-.44-.439-.532-.328-.604-.204-.652-.072-.675.017-.188.016-.173.029-.312.194-.644.318-.591.431-.515.527-.42.602-.307.655-.184.145-.011.154-.012.383-.03.683.08.658.209.607.331.534.441.439.532.328.604.203.652.073.676-.063.672-.194.645-.319.591-.431.515-.527.419-.602.307-.655.184-.682.052-.683-.079-.657-.21Z"/><path d="m995.25 747.284.922.108.921-.071.885-.248.813-.415.712-.566.587-.696.43-.798.26-.87.08-.909-.09-.913-.28-.881M1006.59 734.723l-.61-.326-.53-.438-.44-.535-.32-.609-.21-.661-.06-.688.07-.687.04-.146.06-.212.1-.303.32-.608.44-.534.54-.437.6-.325.29-.088.21-.061.17-.051.68-.067.69.068.66.201.61.326.54.439.44.534.32.61.2.661.07.687-.07.688-.2.66-.32.609-.44.534-.54.437-.61.325-.66.2-.69.067-.68-.068-.67-.202Z"/><path d="m1007.92 735.857.93-.091.89-.27.83-.438.72-.592.59-.72.44-.822.27-.893.1-.928-.09-.929-.28-.892-.44-.824M1018.97 722.292l-.61-.326-.53-.438-.44-.534-.33-.61-.21-.662-.07-.689.06-.689.02-.076.06-.2.12-.386.31-.611.43-.535.53-.44.6-.326.52-.161.13-.041.07-.006.62-.062.68.067.66.2.6.325.54.438.43.534.33.61.21.662.07.688-.06.689-.19.662-.32.611-.43.535-.53.44-.6.327-.65.202-.68.068-.69-.066-.65-.2Z"/><path d="m1021.54 723.625.81-.442.71-.594.58-.723.43-.825.26-.894.08-.93-.09-.93-.28-.894-.44-.823M1035.58 706.792l-.01.16-.03.517-.17.649-.3.596-.4.521-.5.426-.58.313-.63.19-.66.058-.67-.075-.64-.206-.6-.329-.53-.439-.44-.533-.34-.605-.21-.654-.09-.679v-.086l.01-.153.03-.438.17-.65.3-.596.4-.521.5-.425.58-.313.63-.189.66-.057.05.005.15.017.47.053.56.18.08.026.6.329.53.439.44.532.34.604.21.654.09.679Zm0 0 .07.767M1034.42 710.861l.54-.704.4-.806.23-.877.06-.914M1033.37 703.555l-.7-.367M1178.93 833.524l1.07-1.778.08-.195.03-.239-.03-.274-.08-.299-.14-.311-.18-.312-.22-.301-.25-.278-.27-.245-.28-.202-.29-.152-.27-.095-.25-.035-.22.026-1.9.75"/><path d="m1178.77 831.781-.12-.061-.28-.202-.27-.245-.26-.279-.22-.301M1179.68 831.976l-.22.026-.25-.035M1180 831.745v.002M1177.31 830.072v-.007l-.08-.294-.03-.274M1177.31 829.062l.14-.143.14-.07.04-.016M1175.78 838.082l.92-1.57.12-.229.07-.272.01-.305-.05-.325-.11-.333-.16-.329-.21-.311-.25-.283-.28-.242-.29-.193-.31-.136-.29-.075-.29-.009-.26.055-1.72.519"/><path d="m1176.02 836.864-.26-.009-.3-.074-.3-.136-.3-.194-.27-.242-.25-.283-.21-.312-.16-.329-.11-.333-.05-.325M1173.82 834.322l.05-.208v-.006l.01-.058.13-.229.17-.177.21-.111.01-.008M1176.7 836.512l-.01.002-.17.175-.22.12M1171.89 843.044l.68-1.236.1-.299.04-.329-.02-.347-.09-.352-.14-.342-.2-.32-.25-.286-.28-.24-.3-.186-.33-.124-.32-.057-.31.012-1.42.225"/><path d="m1172.57 841.809-.01.017-.15.24-.21.205-.13.074-.01.003-.12.068-.29.08-.31.012-.32-.057M1169.52 840.951l-.08-.352-.03-.346.04-.33.11-.298.16-.258.15-.145v-.005l.06-.053.25-.146.26-.07.03-.01M1171.68 843.393v-.002l.21-.347M1170.39 842.141l-.28-.241-.25-.286M1167.02 848.911l.44-.955.13-.318.07-.349v-.362l-.07-.366-.13-.353-.19-.325-.24-.289-.29-.239-.31-.181-.34-.114-.34-.044-1.04-.078"/><path d="m1167.46 847.957-.01.009-.18.268-.03.024v.005l-.21.196-.29.165-.32.098-.33.028-.35-.045-.33-.114-.32-.18-.28-.239-.25-.289-.19-.327-.13-.353-.06-.365v-.363l.06-.348.13-.318.2-.278.24-.225.28-.165.25-.077.01-.003.06-.018.3-.024.04-.003M1166.76 849.289v-.003l.26-.375"/><path d="m1163.43 849.208.38.323.43.244.46.155.46.06.46-.037.43-.133.38-.223.33-.305v-.003M1167.45 847.962l-.19.277-.02.021v.004l-.22.201-.28.165-.32.098-.34.027-.34-.044-.34-.115-.31-.18-.29-.239-.24-.288-.19-.327-.13-.353-.07-.365v-.364l.07-.347.13-.319.19-.277.24-.226M1167.59 847.642l.06-.347v-.364l-.06-.364M1165.09 845.146l.26-.081.01-.003.05-.014.33-.027.35.044M1167.27 845.887l-.25-.288-.28-.239M1168.56 843.175l.38.325.42.251.43.167.44.077.42-.016.39-.108.35-.197.29-.278v-.003M1170.78 838.932l.32.057.32.124.31.186.28.24.25.286.19.32.15.342.09.352.02.347-.04.329-.1.299-.16.257-.21.205-.13.072-.01.003-.12.07-.29.081-.31.011-.32-.057-.33-.124-.3-.185-.29-.241-.24-.286-.2-.32-.14-.343-.09-.352-.02-.347.04-.329.1-.299.16-.256.16-.151v-.005l.05-.049.26-.145.29-.08M1172.91 837.678l.38.328.4.261.41.184.41.101.38.012.35-.076.3-.161.23-.24M1176.89 836.015l-.07.272-.12.227v.002l-.18.178-.22.119-.26.056-.01-.001h-.01l-.26-.008-.3-.075-.3-.136-.3-.193-.28-.243-.25-.282-.2-.312-.17-.329-.1-.334-.06-.325.01-.304.06-.214v-.005l.01-.053.12-.229.18-.178.22-.118M1176.84 835.386l-.11-.334-.16-.328-.21-.312-.24-.282-.28-.242-.3-.193-.3-.137-.3-.074M1175.77 838.088l.01-.003v-.016l.92-1.552M1176.36 832.889l.37.331.38.274.39.205.36.128.34.048.3-.036.25-.118.18-.195M1179.21 829.541l.25.278.22.301.18.312.14.311.08.298.03.275-.03.239-.08.193-.01.002-.13.144-.18.087-.22.026-.25-.035-.28-.095-.16-.086v-.003l-.12-.063-.28-.202-.28-.245-.25-.279-.22-.301-.18-.313-.13-.311v-.011l-.08-.288-.03-.274.03-.239.08-.195.14-.143.18-.087.22-.026.25.036.27.095.28.152M1178.93 833.526v-.004l1.07-1.773M1178.79 828.951l.36.336.37.288.35.228.34.162.29.087.24.01.19-.067.08-.093M1107.74 896.898l-.03-.106.03-.112.08-.063v-.002l.13-.011.06.014.11.025.07.026.14.058v.002l.01.003.14.08.01.003.1.055.27.177.28.213.28.24.01.01.01.008v.001l.25.239.25.264.19.224v.002l.03.036.17.24h.01v.01l.14.226.08.196.03.156-.02.113-.08.061v.003l-.13.013-.18-.041-.21-.089-.25-.138-.12-.08-.13-.084-.02-.013-.28-.214-.28-.239-.22-.211"/><path d="m1110.49 899.288 1.02-.616.99-.596M1112.5 898.076l.11-.087.03-.152-.04-.213-.03-.072M1107.75 896.949l.09.196.13.227.18.249.22.261.25.265M1105.68 897.018l.03-.017.09.033.13.084.18.13.21.172.24.207.26.234.27.253.27.261.25.259.09.092v.001l.14.154.21.227.16.196.12.16.07.115.01.067-.03.018-.09-.034-.13-.083-.18-.131-.21-.172-.24-.207-.17-.154v-.002l-.09-.078-.27-.252-.26-.26-.26-.259-.23-.248-.2-.226-.16-.196-.12-.16-.07-.116-.02-.068ZM1108.41 899.647l1.14-.662.05-.03"/><path d="m1104.75 896.214.04.079.09.127.14.17.17.207.22.235.23.255.26.265.26.264.25.254.25.234.22.204.19.167.15.123.11.075.03.009M1131.62 879.187l.18.811.12.343.18.32.23.287.29.241.33.187.36.125.36.059.37-.01.35-.078.73-.293M1135.12 881.178l.43-.194.38-.274.31-.346.23-.402.14-.444.04-.468-.06-.475-.15-.463-.24-.434"/><path d="m1131.8 879.997-.04-.351v-.021l.03-.325.1-.328.17-.298.23-.255.28-.204.32-.143.35-.079.37-.009.37.058.35.126.33.187.29.241.24.287.18.32.11.343.04.351-.03.347-.1.328-.17.297-.22.256-.17.116-.12.087-.32.143M1105.31 895.21l-.55.975-.01.028M1106.33 895.783l-.19.361v.002l-.44.83-.02.042.02.068.07.116.12.159.16.197.2.226.23.247.26.259.26.261.27.252.08.077.01.002.17.155.24.207.21.172.18.13.13.084.09.034.03-.017"/><path d="m1107.36 898.374.25.26.09.093v.001l.14.153.2.227.17.196.12.159.06.116.02.068M1105.68 897.018v-.001l.03-.016.09.033.13.084.18.13.21.172.24.207.26.234M1108.39 895.343l-.23.465v.001l-.08.167-.14.288v.001l-.03.056-.04.08-.09.19-.04.089-.03.113.03.106v.002l.01.049.08.196.14.227.18.249.22.261.25.265.05.044v.001l.22.211.28.24.28.213.03.018.12.08.12.08.25.137.21.09.18.039.13-.012v-.001M1109.94 898.023l.18.217M1110.16 898.284l.18.241v.009"/><path d="M1107.74 896.68v-.002l.08-.061.01-.001M1108.02 896.62l.1.023.06.026.01.001M1108.86 897.048l.28.213.28.24M1111.77 893.116l-.89 2.054-.06.157-.01.127V895.525l.06.231.11.256.16.272.21.275.25.27.27.253.3.227.3.192.09.05.01.001.19.099.28.102.25.05.22-.004.17-.057 1.87-1.148M1115.55 896.594l.17-.148.08-.212.01-.267-.07-.314-.15-.347-.22-.367-.29-.373-.33-.366"/><path d="m1110.88 895.17.12-.109.17-.058.22-.004.25.049.28.102.3.15.3.192.29.228.28.253.24.27.21.276.17.271.11.257.05.231v.198l-.07.157-.12.109M1115.58 890.867l-.66 1.854-.03.237.02.266.09.284.15.292.2.289.24.275.28.25.3.215.32.172.32.123.31.069.29.012.25-.045.21-.101 1.69-1.032M1119.56 894.027l.21-.206.14-.268.05-.32-.04-.36-.12-.385-.19-.396-.27-.391"/><path d="m1114.93 892.722.09-.198.16-.153.21-.101.25-.045.2.008.08.003.31.069.32.123.32.172.31.216.28.25.24.274.2.29.15.293.05.181.03.103.03.266-.04.236-.1.199-.15.152M1120.32 887.384l-.41 1.665-.07.272.01.297.06.31.14.312.19.301.24.28.28.246.32.204.33.155.34.098.34.038.31-.022.28-.083.24-.141 1.47-.868"/><path d="m1119.91 889.049.13-.237.19-.192.1-.06.13-.081.29-.083.31-.023.33.038.34.098.34.155.31.204.29.247.24.279.19.302.13.312.07.31v.297l-.04.166-.02.106-.13.237-.19.192M1124.39 890.448l.26-.26.17-.32.09-.368v-.401l-.1-.42-.17-.422M1125.65 883.394l-.11 1.329-.02.324.06.332.12.329.18.312.24.283.29.244.32.195.35.138.35.077.36.012.33-.054.31-.116 1.12-.598M1129.55 886.2l.36-.237.28-.307.21-.365.12-.409.02-.439-.07-.45-.17-.445-.24-.422"/><path d="m1125.54 884.722.09-.303.07-.132.08-.138.21-.227.26-.176.31-.116.33-.054.36.012.35.077.35.138.32.195.29.244.24.283.18.312.13.329.05.333-.02.324-.09.303-.15.268v.002l-.21.227-.26.175M1139.01 875.08l.45.245.48.156.51.062.5-.036.49-.13.44-.222.4-.303.32-.373.24-.43.14-.469.05-.491-.05-.493-.14-.477-.24-.442-.32-.391"/><path d="m1139.55 875.343-.34-.181-.29-.24-.23-.288-.18-.327-.11-.353-.04-.365.04-.363.11-.347.18-.318.23-.276.29-.225.34-.163.35-.097.38-.026.37.045.36.116.33.181.29.239.24.289.18.327.11.353.03.365-.03.363-.11.347-.18.318-.24.276-.29.225-.33.163-.36.097-.37.026-.37-.046-.36-.115ZM1145.46 868.894l.45.239.48.148.51.051.51-.049.48-.146.45-.239.39-.321.33-.391.24-.446.14-.485.05-.505-.05-.504-.14-.485-.24-.448-.32-.392"/><path d="m1146.31 868.836-.33-.177-.29-.239-.24-.29-.18-.331-.11-.359-.04-.373.04-.373.11-.359.18-.33.24-.29.29-.237.33-.176.36-.109.37-.036.38.037.36.11.33.177.29.239.24.29.17.331.11.359.04.373-.04.373-.11.359-.17.33-.24.29-.29.237-.34.176-.36.109-.37.036-.37-.038-.36-.109ZM1153.01 862.064l-.33-.176-.29-.237-.24-.291-.18-.332-.11-.361-.04-.377.03-.376.1-.363.17-.335.23-.294.29-.242.32-.18.35-.113.37-.039.37.034.36.107.33.176.29.238.23.291.18.332.12.361.04.376-.03.377-.11.362-.17.335-.23.294-.28.242-.32.181-.36.112-.36.04-.37-.034-.36-.108Z"/><path d="m1152.33 862.673.48.144.5.047.5-.054.47-.152.44-.244.38-.327.31-.398.23-.452.14-.49.04-.509-.05-.509-.15-.488-.25-.449-.32-.393M1158.07 855.912l.43.239.47.147.49.05.48-.05.46-.147.41-.239.36-.322.29-.392.21-.447.12-.485"/><path d="m1161.88 853.849-.08.321-.01.038-.15.331-.22.29-.27.239-.3.175-.34.109-.36.037-.36-.037-.34-.109-.33-.175-.29-.24-.24-.289-.18-.332-.12-.358-.05-.374.02-.373.09-.359.15-.331.21-.29.27-.238.31-.177.34-.108.35-.037.36.037.35.109.16.089.16.088.29.238.24.291.18.329.12.359.06.375-.02.372Zm0 0-.09.417M1161.01 851.885l-.39-.275M730.639 339.191l.058-.105.001-.001.261-.47-.059-.076-.129-.146-.196-.211-.255-.266-.304-.312-.34-.347-.366-.367-.375-.373-.371-.366-.353-.344-.321-.309-.276-.262-.222-.205-.158-.141-.089-.07-.016.003"/><path d="m730.959 338.615-.002.001-.013.003-.001-.001-.087-.069-.158-.14-.221-.204-.277-.262-.321-.31-.353-.344-.372-.367-.376-.374-.366-.367-.341-.347-.304-.313-.255-.267-.196-.21-.129-.146-.058-.075M728.883 338.536l.003-.139-.074-.205-.017-.03-.002-.005-.001-.001-.127-.226-.215-.31-.275-.344-.324-.367-.087-.091-.002-.002-.267-.277-.001-.002-.003-.004-.384-.369-.392-.348-.384-.315-.177-.131-.001-.001-.186-.137-.328-.213-.279-.148-.221-.079-.153-.005-.002.001"/><path d="m728.883 338.536-.004.004-.075.065h-.002l-.151-.005-.22-.077-.28-.148-.328-.213-.363-.269-.386-.315-.392-.349-.173-.167-.002-.001-.209-.202-.205-.213-.157-.163-.324-.368-.243-.304v-.001l-.032-.04-.215-.31-.147-.262-.073-.204.004-.139.079-.067.001-.001M721.074 336.552l.14-.131.002-.002.215-.06.281.017.335.092.026.011h.001l.073.032.002.001.275.119.404.229.415.286.412.331.391.364.357.384.307.387.248.378.177.352.1.314.02.263-.062.202-.005.005-.136.129-.002.001-.176.05M723.846 340.046l-.405-.229-.416-.286-.412-.332M721.214 336.419l-.003.002M721.863 338.45l-.308-.388-.247-.378-.177-.353-.1-.313-.019-.263M720.095 343.082l.03-.32-.057-.363-.142-.394-.222-.408-.293-.408-.352-.392-.399-.359-.43-.315-.444-.257-.442-.191-.422-.115-.386-.037-.336.044-.272.122-2.584 1.517"/><path d="m720.095 343.082-.058.132-.058.132-.197.197-.004.001-.268.122-.336.044-.386-.036-.423-.115-.109-.047-.011-.005-.322-.138-.445-.258-.43-.315-.4-.36-.353-.392-.293-.409-.08-.148-.005-.01-.136-.251-.142-.394-.057-.364.03-.319.117-.264.196-.194.003-.002M713.551 347.81l.074-.373-.019-.41-.112-.432-.199-.438-.28-.426-.349-.399-.405-.356-.446-.299-.469-.231-.475-.154-.462-.071-.432.015-.385.099-.322.181-2.297 1.308"/><path d="m713.55 347.81-.013.025-.151.295-.247.256-.004.002-.319.18-.144.037-.008.002-.232.061-.432.015-.462-.071-.475-.153-.47-.231-.447-.3-.406-.356-.35-.399-.279-.427-.2-.439-.111-.432-.018-.404-.001-.006.075-.373.164-.32.246-.253.003-.003M701.434 350.765l.003-.003.346-.221.019-.012.425-.15.469-.06.495.031.502.122.491.208.459.285.411.352.346.405.269.443.181.463.086.467-.012.452-.022.081-.088.338-.204.371-.131.141-.007.007-.151.161-.004.002M703.064 354.938l-.491-.208-.46-.285M704.062 355.091l-.496-.031M701.802 350.529l-1.825.949M701.352 353.688l-.269-.445-.181-.464-.086-.467M697.294 360.425l-.067-.496-.167-.485-.26-.457-.344-.411-.415-.349-.47-.273-.506-.188-.523-.094-.521.002-.497.099-.456.191-1.423.601"/><path d="m697.292 360.425-.005.072-.031.414-.046.157-.005.016-.086.286-.233.414-.321.352-.004.003-.391.275-.456.192-.497.099-.521.003-.523-.095-.507-.187-.47-.274-.415-.349-.345-.411-.261-.457-.167-.486-.067-.496.037-.487.137-.459.234-.413.318-.348.003-.004.025-.018.011-.007.347-.244.013-.009"/><path d="m697.207 361.058-.004.017-.091.302-.233.414-.317.348-.004.004-.395.278-.456.192-.497.099-.521.003-.523-.095-.507-.187-.47-.274-.415-.349-.345-.411-.261-.457-.167-.486-.067-.496.037-.487.137-.459.234-.413.321-.352.005-.003M695.562 357.961l.47.273.415.349.345.411.26.457.167.485M692.711 358.217l.349-.245.456-.191.497-.099M694.531 357.68l.524.094M705.916 353.553l-.109.419-.205.371-.125.133-.006.008-.154.164-.004.004-.363.233-.426.151-.469.06-.495-.031-.503-.121-.492-.207-.458-.286-.412-.352-.348-.406-.269-.444-.18-.464-.086-.467.014-.452.109-.419.128-.232.004-.005.073-.134.29-.308.004-.003.36-.23.425-.15.469-.06.496.031.501.122.49.207.46.286.412.352.346.405.268.443.182.463.086.467-.013.452Zm0 0-.015.075M701.793 350.535l-.012.006M713.596 347.032l.02.41-.074.373-.164.32-.245.253-.003.003-.322.182-.137.035-.008.002-.239.063-.432.015-.462-.071-.476-.153-.47-.231-.446-.3-.406-.356-.35-.399-.28-.427-.199-.439-.111-.433-.019-.409v-.001l.001-.005.073-.367.165-.32.248-.256.004-.002.319-.179.385-.1.431-.014.462.071.475.154.47.231M713.008 345.735l.279.426.2.438M709.26 344.521l-2.147 1.222M719.971 343.349l-.196.195-.002.002-.271.124-.336.044-.386-.036-.423-.115-.098-.042-.011-.005-.333-.144-.445-.257-.43-.315-.4-.361-.353-.392-.293-.408-.086-.158-.005-.01-.131-.241-.142-.394-.056-.364.03-.32.117-.263.198-.196.003-.002.27-.121M719.406 341.192l.293.408.221.409.143.393M720.12 342.767l-.03.32M715.923 339.693l-2.575 1.512M716.531 339.526l.386.037M717.34 339.68l.442.19.444.257.43.315M725.189 340.124l-.139.132-.002.002-.173.049h-.003l-.038.011-.28-.016-.335-.091-.377-.163-.405-.229-.416-.286-.412-.332-.392-.365-.358-.384-.308-.388-.247-.378-.177-.353-.1-.313-.019-.263.062-.202.142-.133v-.001h.002l.213-.059.281.016.335.092.027.011v.001l.068.029.002.001.28.121.404.229.415.286.412.331.391.365.357.383.307.388.248.377.177.352.1.314.02.263-.062.203Zm0 0-.001.002M721.209 336.421l-2.807 1.656M728.172 337.276l.274.345.215.31.122.216.004.007v.001l.022.038.073.204-.003.14-.078.068-.001.001-.153-.005-.22-.078-.279-.148-.328-.212-.364-.269-.385-.316-.393-.349-.173-.166-.001-.001-.21-.202-.209-.218-.152-.158-.325-.368-.242-.304-.001-.001-.032-.04-.215-.31-.147-.262-.073-.204.004-.139.077-.066.003-.002h.002M724.981 334.788l-1.084.63-1.827 1.061M725.137 334.793l.221.078.28.149.328.213.186.137M726.328 335.502l.385.315M727.105 336.165l.384.369.004.004.001.002.272.282.003.004.081.083M730.944 338.618l-.088-.069-.158-.14-.222-.205-.276-.262-.321-.309-.353-.345-.372-.366-.376-.375-.366-.367-.342-.347-.304-.313-.254-.266-.196-.211-.129-.145-.057-.075-.001-.001.016-.003.001.001.088.069.158.141.222.205M729.672 337.256l.341.347M730.316 337.915l.255.267.196.21.129.146M727.126 334.822l-.974.547M728.211 335.807l.353.344M618.805 439.255l.002-.002.093-.101.164-.027.229.053.283.129.141.086v.002l.187.113.359.265.376.319.131.124.008.007.043.041.001.002.197.187.043.045.005.005.321.338.343.4.159.21.006.007.087.114.006.008.046.059.194.291.001.002.058.088.193.347.126.301.045.207.008.036-.022.178h-.001l-.094.102-.165.025-.229-.053-.283-.13-.071-.043-.004-.002-.252-.156-.359-.265-.376-.318-.379-.36-.318-.334-.001-.001-.049-.051-.079-.093-.263-.308-.304-.397-.244-.365v-.001l-.009-.013-.194-.348-.126-.301-.053-.243.015-.135.005-.042v-.002Zm0 0 1.732-2.901M622.543 443.191l.003-.002M618.18 442.037l.007-.011.021-.03.1.034.169.108.231.178.284.24.326.293.047.044.001.002.307.29.372.365.373.38.361.38.333.366.295.338.14.171.103.126.183.244.116.183.045.113-.029.039-.101-.035-.169-.108-.231-.178-.284-.24-.325-.293-.355-.335-.371-.364-.373-.379-.076-.081-.016-.016-.268-.283-.333-.366-.294-.338-.244-.296-.183-.245-.117-.183-.045-.112v-.001Zm0 0 .986-1.696M621.965 445.891l.002-.001"/><path d="m619.676 443.877.081.095.293.322.335.353.364.369.377.372.378.36.363.334.334.295.293.246.24.185.178.12.109.048.012-.007.034-.019M645.204 404.587l-.39 1.095-.114.504-.016.525.084.529.18.509.269.473.347.416.413.344.463.26.495.164"/><path d="m644.812 405.682.209-.462.055-.073.241-.329.37-.328.43-.24.476-.143.501-.041.507.063.495.164.464.259.413.345.347.417.27.472.18.511.083.528-.017.526-.113.504-.21.462-.295.402-.37.327-.431.24-.475.143-.361.029-.141.011-.506-.063M623.023 446.976l.044-.025M621.834 445.557l.116.182.044.112-.027.038-.002.003-.101-.035-.169-.108-.231-.178-.284-.24-.325-.293-.355-.335-.371-.364-.373-.38-.062-.066-.015-.016-.282-.297-.334-.366-.294-.338-.243-.297-.184-.244-.117-.183-.045-.114.028-.04M619.672 443.187l.371.365.373.38.361.381.334.366.294.338.133.162.007.008.103.127M621.965 445.893l.174-.093h.001l.221-.119M618.477 442.141l.231.177.284.24M622.635 443.089v.002l-.091.098-.004.005-.165.025-.229-.053-.283-.13-.069-.041-.003-.003-.256-.157-.358-.264-.376-.319-.379-.36-.318-.334-.001-.001-.049-.052-.071-.082-.272-.318-.303-.397-.244-.366-.001-.001-.009-.013-.193-.347-.126-.301-.054-.244.017-.139.004-.039.001-.001M621.727 441.245l.142.185.006.008.083.108.007.009.066.088M622.227 441.934l.002.002.058.087.193.348.125.301.045.203v.003l.008.037M618.898 439.155l.164-.026.229.052.283.129.14.086M622.543 443.195l.354-.176.003-.001.33-.164M619.902 439.511l.359.265M620.637 440.096l.154.146.007.007.021.019.001.001.197.188.055.057.005.006.309.325M622.748 432.185l-1.637 2.72-.086.237-.009.302.069.356.144.394.046.09.002.004.165.325.275.427.325.419.363.395.387.356.397.303.391.238.37.164.335.084.175.001h.004l.109.001.228-.083"/><path d="m621.109 434.904.16-.163.228-.083h.287l.335.084.371.164.391.238.398.303.388.356.364.396.325.42.275.428.213.419.143.395.069.355-.01.302-.087.237-.16.162M626.511 426.62l-1.467 2.472-.148.291-.068.355.015.404.096.438.175.454.246.455.309.436.358.402.395.352.417.288.422.214.411.131.384.043.343-.046"/><path d="m625.047 429.092.222-.218.289-.135.343-.047.384.043.143.045.269.086.422.214.417.288.396.353.359.402.309.438.246.455.175.455.096.438.002.043.012.361-.069.354-.148.291-.223.217-.289.134M631.458 420.285l-1.156 2.042-.122.4-.035.446.053.475.138.486.221.477.294.452.355.408.401.348.435.277.45.193.448.102.43.008.395-.087"/><path d="m630.305 422.327.205-.338.28-.264.343-.179.124-.028.271-.06.429.007.449.102.451.193.435.277.403.349.354.408.294.452.22.479.14.486.053.475-.036.446-.123.4-.079.13-.127.208-.28.263-.343.179M637.915 412.521l-.835 1.668-.17.436-.078.479.015.505.109.51.198.497.28.463.35.413.409.346.45.267.474.176.481.079.469-.02"/><path d="m637.082 414.188.255-.376.276-.253.053-.049.392-.214.439-.121.469-.02.481.079.475.176.451.266.408.347.351.413.281.464.198.497.108.511.015.505-.079.48-.171.436-.255.375-.329.301-.117.064-.275.15-.439.12M655.187 399.795l-.472-.256-.417-.343-.345-.419-.261-.477-.166-.517-.065-.538.038-.538.141-.517.237-.476.325-.417.399-.342.46-.254.502-.156.524-.052.527.054.51.158.472.255.417.344.345.419.261.477.166.518.065.538-.039.538-.14.516-.238.477-.324.417-.4.342-.46.253-.502.156-.524.052-.527-.054-.509-.158ZM664.595 390.072l-.478-.256-.418-.343-.344-.419-.256-.478-.158-.519-.054-.54.053-.539.156-.519.254-.479.343-.419.418-.344.476-.256.518-.158.538-.053.539.052.518.158.477.255.419.344.344.418.256.479.158.518.054.54-.053.539-.156.519-.254.479-.343.419-.418.344-.477.256-.517.158-.539.053-.538-.052-.518-.157ZM674.357 380.393l-.479-.258-.42-.345-.343-.418-.254-.475-.155-.514-.05-.533.056-.531.161-.51.26-.468.348-.409.423-.334.482-.246.522-.148.542-.045.542.059.52.162.479.258.419.345.343.417.255.475.155.514.05.532-.056.532-.161.509-.26.469-.347.409-.423.334-.482.246-.522.148-.543.046-.542-.059-.52-.162ZM687.476 367.307l.17.31.086.157.158.503.055.518-.051.513-.154.49-.253.446-.34.386-.416.312-.474.224-.515.129-.537.028-.537-.073-.516-.172-.477-.264-.418-.347-.344-.415-.255-.468-.159-.503-.054-.518.051-.514.155-.489.252-.446.341-.387.416-.311.474-.224.261-.065.255-.063.536-.028.536.073.517.172.476.265.418.346.343.415ZM684.653 366.064l-.649.084M751.066 352.373l.432-.75M750.079 351.708l.35-.627.001-.002.359-.645.001-.002.302-.543-.068-.084-.144-.161-.215-.229-.278-.29-.331-.339-.37-.375-.395-.398-.406-.403-.4-.395-.38-.371-.344-.333-.296-.282-.236-.22-.167-.15-.092-.073-.013.005"/><path d="m751.092 349.889-.002.002-.01.005-.001-.001-.09-.072-.167-.149-.236-.22-.295-.282-.345-.333-.38-.371-.401-.396-.407-.404-.396-.398-.371-.377-.331-.339-.278-.29-.215-.229-.144-.16-.066-.084M747.951 351.786l.061-.118.002-.004.523-.996.42-.802-.001-.153-.017-.046-.002-.004-.064-.174-.163-.286-.235-.336-.3-.374-.352-.398-.38-.396-.003-.003-.007-.007-.132-.127-.001-.002-.282-.271-.422-.376-.415-.34-.264-.195-.001-.001-.126-.093-.351-.229-.299-.159-.235-.082-.162-.004-.001.001"/><path d="m748.956 349.866-.004.004-.078.073-.161-.003-.234-.082-.299-.158-.351-.228-.391-.29-.415-.34-.424-.377-.355-.342-.001-.001-.06-.057-.391-.407-.352-.399-.3-.375-.035-.05-.001-.001-.199-.285-.163-.286-.082-.223v-.153l.081-.075.001-.001M744.505 352.809l.001-.003.385-.803.001-.002.173-.36.063-.222-.004-.041v-.003l-.021-.243-.108-.329-.002-.004-.002-.008-.194-.383-.27-.409-.334-.421-.012-.012-.003-.003-.372-.4-.423-.395-.444-.358-.448-.308-.435-.246-.107-.046-.298-.13-.037-.009-.003-.001-.056-.015-.001-.001-.262-.071-.301-.015-.229.066-.004.003"/><path d="m745.067 351.641-.006.006-.143.141-.002.001-.206.061-.003.001-.017.005-.3-.015-.134-.036-.003-.001-.222-.059-.405-.175-.436-.247-.448-.308-.446-.359-.424-.395-.387-.416-.335-.421-.081-.125-.188-.285-.195-.384-.111-.341-.024-.287.064-.221.148-.145.001-.002M738.414 357.829l1.226-2.926.029-.348-.065-.396-.156-.428-.242-.443-.276-.384-.042-.058-.383-.425-.229-.207-.202-.182-.464-.34-.48-.278-.446-.192-.03-.013-.454-.123-.35-.032-.066-.006-.36.049-.291.135-2.813 1.635"/><path d="m739.638 354.903-.122.288-.004.004-.207.211-.003.002-.288.134-.36.05-.415-.037-.455-.123-.159-.069-.012-.005-.306-.131-.046-.027-.434-.251-.132-.097-.333-.243-.432-.391-.383-.425-.319-.443-.089-.163-.005-.011-.148-.27-.156-.428-.064-.396.03-.348.123-.287.209-.213.003-.002M731.885 362.353l.524-1.59.225-.685.077-.406-.023-.445-.123-.47-.217-.476-.304-.462-.074-.084-.305-.348-.079-.07-.36-.314-.482-.325-.507-.249-.512-.166-.499-.075-.465.017-.413.11-2.383 1.335"/><path d="m732.636 360.078-.015.029-.159.32-.266.279-.004.002-.342.197-.181.048-.008.002-.224.061-.465.018-.499-.075-.513-.166-.508-.249-.483-.324-.439-.386-.38-.433-.304-.463-.217-.476-.123-.47-.022-.446.002-.012.001-.006.075-.388.175-.348.263-.276.003-.003.208-.119.139-.079M724.24 367.354l.172-.867.028-.143.012-.491-.095-.507-.197-.503-.293-.48-.375-.44-.445-.381-.497-.309-.53-.224-.543-.131-.535-.032-.506.067-.459.163-1.997 1.015"/><path d="m724.441 366.343-.029.113-.088.343-.218.404-.165.179-.007.008-.139.149-.004.003-.388.252-.458.165-.506.067-.535-.032-.544-.13-.531-.224-.497-.309-.446-.382-.376-.44-.292-.481-.198-.504-.094-.508.012-.491.117-.456.149-.275.004-.006.066-.123.308-.331.004-.004.374-.243.018-.012M715.187 375.409l-.041-1.569-.074-.538-.182-.527-.283-.496-.374-.446-.449-.377-.509-.296-.548-.203-.566-.102-.562.004-.538.108-1.393.561"/><path d="m715.143 373.84-.007.09-.031.438-.058.203-.005.017-.084.279-.251.45-.345.383-.005.004-.422.299-.492.209-.537.109-.564.004-.566-.101-.549-.203-.508-.296-.451-.379-.374-.445-.282-.497-.182-.527-.075-.539.038-.529.149-.499.252-.449.341-.379.004-.004.08-.056.01-.008.337-.238.309-.131.183-.078"/><path d="m715.135 373.847-.037.529-.055.185-.005.017-.087.297-.252.449-.341.38-.004.004-.427.302-.492.21-.538.109-.562.004-.567-.102-.548-.202-.51-.297-.45-.378-.374-.446-.283-.496-.182-.528-.073-.538.038-.529.147-.499.252-.45.346-.383.005-.003.086-.06.011-.009.326-.229.491-.21.538-.108.563-.003.566.101M713.266 371.167l.508.296.45.378.373.445.284.496M723.791 367.542l-.004.004-.392.255-.06.022-.398.142-.506.068-.535-.032-.544-.131-.53-.224-.498-.309-.446-.381-.376-.44-.292-.482-.198-.504-.094-.507.012-.491.118-.457.152-.28.003-.006.063-.117.312-.336.004-.002M724.348 365.353l.095.507-.011.491-.042.162M719.969 363.082l.458-.164M720.934 362.852l.535.033.543.131M723.039 363.547l.445.382.376.439M732.192 360.708l-.003.003-.346.199-.173.047-.008.002-.232.062-.465.018-.499-.075-.513-.165-.288-.142-.22-.108-.158-.106-.325-.218-.439-.385-.379-.433-.305-.464-.217-.476-.123-.47-.022-.446.003-.018.001-.006.074-.381.175-.349.266-.279.004-.002.343-.196M732.344 358.287l.217.475M731.582 357.324l.077.068.307.35M739.304 355.408l-.003.002-.29.136-.36.05-.416-.037-.454-.123-.147-.063-.012-.006-.318-.136-.045-.026-.435-.252-.131-.095-.334-.245-.433-.391-.383-.425-.318-.443-.036-.066-.059-.108-.006-.01-.141-.26-.086-.236-.07-.192-.065-.396.031-.348.123-.287.211-.215.003-.002M738.883 352.85l.043.061.275.382.242.443M739.663 354.56l-.029.348-.122.287M735.125 351.236l-2.801 1.628M735.418 351.101l.36-.049.069.006.346.031M736.68 351.228l.445.191.479.278.464.34M744.916 351.789l-.002.002-.203.06-.003.001-.022.007-.3-.015-.134-.036-.004-.001-.221-.06-.405-.175-.436-.246-.449-.309-.445-.358-.424-.395-.387-.417-.335-.421-.08-.122-.19-.288-.194-.383-.111-.342-.024-.287.064-.22.149-.147.003-.001.226-.066M744.188 349.577l.002.003.336.421.268.409.19.375.005.007.001.001.112.342M740.76 347.637l-.351.206-2.63 1.541-.068.04M741.551 347.657h.001l.046.012.003.001.047.013.3.13.105.045.435.247.448.308.444.358M748.952 349.867l-.08.076h-.001l-.161-.002-.235-.082-.298-.158-.352-.228-.391-.29-.415-.34-.424-.377-.354-.341-.001-.002-.06-.057-.392-.407-.352-.399-.3-.375-.035-.05v-.001l-.2-.286-.162-.285-.083-.223v-.153l.08-.074.002-.002h.002M747.445 347.705l.375.39.352.397.299.375.236.336.162.286.062.167.002.005"/><path d="m744.739 345.811-1.831 1.061-.668.387-.685.396M745.914 346.377l.001.001.263.195.415.34.422.376.282.271.002.002M751.092 349.889l-.012.006-.091-.073-.167-.149-.236-.22-.296-.281-.344-.333-.38-.372-.402-.396-.406-.404-.396-.398-.371-.376-.331-.34-.278-.29-.215-.229-.144-.16-.065-.083-.001-.001.013-.005.001.001.091.073M749.688 348.41l.369.375.331.339.279.29.215.229M746.956 345.79l-1.042.586M748.105 346.843l.38.371.4.395.406.404M751.5 351.622l-.021-.141-.098-.214-.173-.279-.24-.334-.175-.221M629.865 458.964l.001-.002.103-.107.181-.024.249.06.213.099.096.045.048.03.308.19.389.289.409.346.031.03.001.001.372.353.008.007.001.002.397.417.207.241.014.017.15.175.328.429.009.013.001.002.263.394.207.373.116.279.018.043.055.26-.025.187-.002.002-.104.106-.181.023-.249-.061-.066-.03-.243-.114-.167-.103-.005-.003-.184-.114-.389-.289-.408-.345-.411-.39-.398-.419-.073-.086-.001-.001-.295-.345-.328-.428-.273-.409-.042-.075-.001-.001-.165-.296-.134-.323-.056-.26.025-.186v-.002Zm0 0 .342-.576.35-.59 1.133-1.908M633.906 463.22l.004-.002M629.129 461.869l.004-.005.029-.035.111.041.185.121.251.195.309.262.315.285.001.001.038.034.386.364.402.396.404.411.389.41.36.395.124.141.193.222.262.318.196.26.123.193.046.119-.033.038-.112-.042-.185-.121-.252-.195-.309-.263-.353-.319-.385-.364-.402-.394-.19-.194-.021-.021-.191-.195-.389-.41-.36-.394-.317-.363-.261-.318-.197-.261-.124-.193-.046-.118-.001-.001Zm0 0 1.066-1.836M633.223 466.035l.003-.001"/><path d="m631.031 464.144.074.081.363.383.394.4.408.402.408.388.391.359.361.317.314.262.258.197.19.125.116.048.006-.003 1.274-.716M658.683 421.729l-.105.315-.002.005-.003.011-.002.004-.292.876-.125.544-.017.57.09.571.194.553.291.511.377.452.448.373.502.282.537.179 1.21.206"/><path d="m658.277 422.94.227-.5.02-.027.301-.408.104-.091.008-.007.291-.256.468-.259.11-.033h.002l.404-.121.544-.043.551.069.537.179.503.281.448.374.377.452.292.512.194.553.09.572-.018.569-.125.545-.228.5-.321.434-.403.354-.468.258-.516.154-.343.027-.201.016-.551-.069M634.312 467.105l1.279-.718M633.211 465.88l.045.117-.03.037-.003.003-.112-.042-.185-.121-.252-.195-.308-.263-.354-.319-.385-.364-.401-.394-.172-.175-.021-.021-.21-.214-.389-.41-.36-.394-.316-.363-.262-.318-.197-.261-.124-.193-.046-.119v-.001l.032-.039M632.312 464.745l.115.131.008.01.195.223M633.223 466.037l.219-.118 1.347-.723.049-.027.003-.001M629.707 462.188l.309.263M630.758 463.134l.402.396.404.41M634.014 463.114v.002l-.1.102-.005.005-.181.023-.25-.061-.06-.028-.248-.115-.163-.101-.006-.003-.187-.117-.389-.288-.408-.346-.411-.39-.398-.419-.074-.086-.001-.001-.295-.345-.328-.428-.273-.408-.042-.076v-.001l-.165-.296-.134-.323-.056-.26.024-.188.002-.001M631.062 459.257l.391.289.409.346.031.03v.001l.38.36.05.053.037.039.312.328.162.19.015.017.193.225.328.429.008.013.002.003M633.848 462.347l.113.274.002.004.019.045M630.148 458.833l.25.061.218.101"/><path d="m633.906 463.223.559-.28.003-.001.233-.117.001-.001.035-.017.001-.001.575-.288h.001l.025-.013h.001M633.862 451.924l-.821 1.376-.626 1.049-.095.253-.011.324.073.381.099.274.055.151.012.023.002.005.215.423.265.412.031.049.352.453.393.427.42.386.43.328.424.26.403.181.364.094.208.003h.004l.101.001.25-.085 2.024-.913"/><path d="m632.414 454.349.176-.174.249-.086.313.004.364.093.403.18.425.26.116.089.315.24.365.335.056.052.394.428.352.454.296.461.229.452.154.425.072.381-.012.324-.096.252-.176.173M638.313 445.446l-1.579 2.694-.163.313-.075.381.014.435.103.471.153.4.035.091.265.489.001.002.334.472.388.435.428.381.295.205.157.109.458.233.123.04.324.104.418.049.373-.047 2.856-1.088"/><path d="m636.734 448.14.243-.232.314-.143.373-.048.419.048.142.046.305.098.458.233.453.314.429.382.389.436.334.473.266.491.118.31.07.182.102.471v.001l.001.014.013.421-.077.38-.163.312-.243.232-.315.142M643.713 438.648l-1.238 2.234-.135.431-.039.481.056.512.15.525.238.516.318.489.384.442.436.378.308.197.163.103.308.133.181.077.487.113.467.011.428-.092 2.557-.717"/><path d="m642.477 440.882.224-.364.304-.284.374-.191.115-.025.314-.068.467.01.488.112.489.211.472.3.437.379.384.442.318.489.238.518.15.525.056.513-.041.481-.135.43-.069.113-.155.251-.305.283-.375.191M650.755 430.289l-.889 1.83-.186.471-.086.518.015.546.117.552.214.537.303.502.38.447.443.376.488.289.515.192.523.087.509-.02 1.591-.197"/><path d="m649.863 432.119.277-.405.27-.244.089-.081.426-.231.476-.128.51-.022.523.088.516.192.489.289.443.376.38.448.304.502.214.538.116.553.015.545-.087.519-.186.47-.278.406-.359.323-.089.049-.337.182-.477.128M669.547 416.581l-.512-.277-.452-.373-.374-.453-.283-.518-.18-.56-.04-.336-.03-.247.042-.583.153-.56.258-.515.353-.452.434-.371.466-.256.033-.018.544-.169.57-.056.572.059.552.172.513.277.452.373.374.454.283.518.18.561.07.583-.042.582-.153.56-.259.516-.352.452-.435.37-.499.274-.544.169-.569.055-.572-.059-.553-.172ZM679.758 406.05l-.518-.277-.454-.373-.373-.454-.277-.519-.123-.403-.048-.159-.059-.585.057-.585.17-.563.055-.104.221-.415.371-.455.453-.373.518-.277.561-.171.584-.058.584.057.562.17.518.277.454.373.373.454.277.519.171.562.058.585-.056.585-.17.563-.276.519-.371.455-.454.373-.517.277-.561.171-.584.058-.584-.057-.562-.17ZM690.346 395.55l-.52-.28-.454-.374-.373-.453-.275-.515-.169-.557-.055-.579.061-.576.174-.554.281-.508.377-.444.458-.362.522-.267.566-.162.588-.049.587.064.564.175.519.28.455.373.372.453.275.515.169.558.055.578-.061.576-.174.553-.28.509-.377.444-.458.362-.522.268-.566.161-.588.05-.587-.064-.564-.175ZM704.543 381.333l.2.365.078.142.172.545.06.562-.054.558-.166.531-.273.485-.368.42-.449.339-.513.244-.558.141-.581.032-.581-.079-.56-.186-.516-.287-.453-.375-.373-.451-.278-.507-.172-.546-.06-.563.054-.557.167-.532.273-.485.368-.42.45-.338.513-.244.393-.099.165-.041.581-.031.581.079.559.186.516.286.453.376.372.45Zm0 0 .348.544M701.481 379.987l-.727.072M650.737 476.104l-3.977 3.786-.789 1.923-1.588 3.87.52 6.451 1.821 8.245 4.542 8.354 4.531 8.914.537 1.057 5.132 8.583 1.117 1.868 5.491 8.358 2.821 4.294 5.212 7.384 5.658 6.786 3.072 4.7 6.373 7.706 1.328 1.605 6.903 7.237.677.71 7.115 6.342 6.256 4.614 6.654 1.274 4.48.042 1.882-1.437 2.434-1.86"/><path d="m662.293 493.951 3.19-.887.586-.163 4.638.509 5.325 2.059 5.806 3.542 6.06 4.89 6.072 6.052 2.166 2.586 3.674 4.386 5.373 7.616 2.028 3.437 2.663 4.514 3.821 7.969 2.802 7.666 1.676 7.061.492 6.181-.673 4.851-.029.214-1.86 3.76-2.936 2.323-.118.025-3.771.785-4.687-.722-5.303-2.213-5.716-3.611-5.914-4.868-5.894-5.937M670.894 541.806l-4.578-7.712-3.771-7.755-2.824-7.513-1.768-6.991-.637-6.204.525-5.179.261-.613 1.005-2.366.411-.968 2.775-2.554"/><path d="m717.991 566.22-1.494.317-4.698-.702-5.31-2.192-1.71-1.073-4.01-2.517-5.914-4.847-5.891-5.919-5.65-6.769-5.202-7.37-4.563-7.701-3.756-7.748-2.684-7.181-.122-.328-1.748-6.992-.618-6.209.544-5.186.317-.739"/><path d="m650.734 476.103 6.688-2.723 7.593-.125 9.749 1.115 5.501 2.434 3.969 1.756 8.369 5.473 1.311.858 7.917 6.109 2.115 1.632 6.429 7.659 2.104 2.506 4.812 8.767 1.877 3.42 4.365 8.997 1.644 3.388 3.409 9.402 1.148 3.165.4 1.722 2.262 9.74.061.264.134.575.319 4.03.604 7.636.485 9.134-2.301 8.473-2.762 5.399M1199.64 782.03l9.94 1.078 10.09 1.094 9.24 3.809 9.25 3.809 5.06 2.083 9.35 3.534 9.36 3.534 5.25 1.986 9.18 3.976 9.17 3.976 4.7 2.035 4.49-2.522 6.41-7.675.11-.131-6.24-7.809-5.48-6.853-6.25-7.809-5.47-6.84-6.25-7.809-5.46-6.827-6.25-7.809-5.45-6.815-6.59-7.515-6.6-7.515-6.6-7.515-6.6-7.515-6.59-7.515-6.6-7.515-6.6-7.515-6.6-7.515-2.72-3.102-9.99.376-9.99.375-10 .375-9.99.375-9.99.375-10 .376-9.99.375-1.96.073-9.99.375-9.99.376-10 .375-3.93.147"/><path d="m1196.43 778.574 9.94 1.081 9.94 1.082 7.65.832 9.24 3.812 9.25 3.813 5.12 2.114 9.36 3.537 9.35 3.538 5.33 2.014 9.17 3.979 9.18 3.979 4.76 2.067M1072.49 918.605l3.96-9.183.27-.617 3.69-8.562 3.96-9.183 3.96-9.182.18-.429 1.66-3.859-8.41-5.4-8.42-5.401-8.41-5.401-8.42-5.401-8.42-5.4-8.41-5.401-8.42-5.401-8.42-5.401-4.18-2.684-8.42-5.401-1.06-.682-8.42-5.401-8.412-5.401-8.416-5.401-8.696-5.58-3.612 2.662-.06 4.595-.13 9.999-.129 10-.13 9.999-.129 9.999-.025 1.892-.129 9.999-.13 9.999-.13 9.999-.129 9.999-.13 10-.129 9.999-.13 9.999-.13 9.999-.031 2.398 7.549 6.558 7.55 6.558 7.549 6.558 7.549 6.559 7.55 6.558 7.55 6.558 7.55 6.558 7.55 6.558 6.74 5.863 7.87 6.17 7.56 5.931 7.87 6.17 7.55 5.92 7.87 6.17 7.53 5.9 7.87 6.17 7.51 5.9 4.11-1.89 6.41-7.67.95-1.14-4.01-9.16-4.02-9.15-3.41-7.79-3.61-9.324-3.62-9.325-3.26-8.418-3.86-9.223-3.86-9.224-3.28-7.83-1.42-9.899-1.42-9.899-1.42-9.899-.51-3.584Z"/><path d="m975.238 803.834-.117 9.396-.124 9.999-.125 10-.124 9.999-.09 7.233-.125 9.999-.124 9.999-.125 9.999-.124 10-.124 9.999-.125 9.999-.124 9.999-.125 9.999-.033 2.655M969.953 935.371l3.674-2.262 7.549 6.559 7.549 6.558 7.549 6.559 7.546 6.559 7.55 6.558 7.55 6.559 7.55 6.559 7.55 6.558 6.98 6.065 7.87 6.171 7.61 5.966 7.87 6.18 7.59 5.96 7.87 6.17 7.59 5.94 7.86 6.18 7.57 5.93M1775.09 70.01l-8.16-5.78-8.16-5.782-1.44-1.017-8.69-4.94-8.7-4.94-1.59-.906-9.14-4.06-9.14-4.06-1.72-.766-9.5-3.146-9.49-3.146-1.82-.603-9.75-2.21-9.75-2.21-1.88-.425-9.92-1.257-9.92-1.257-1.88-.239-10-.298-9.99-.297-1.85-.055-9.98.664-9.98.663-1.76.118-9.87 1.617-9.87 1.617-1.65.27-3.86.932-9.67 2.558-9.67 2.557-1.94.513-9.37 3.475-9.38 3.476-1.74.644-9 4.366-8.99 4.365-1.52.737-8.53 5.218-8.53 5.217-1.29.787-7.98 6.026-7.98 6.025-1.06.798-4.61 3.578-7.36 6.78-7.35 6.778-1 .926-6.65 7.472-6.64 7.473-.78.88-5.87 8.095-5.88 8.095-.58.808-3.36 5.289-5.03 8.641-5.03 8.641-.43.736-4.15 9.102-4.14 9.101-.29.639-3.2 9.472-3.21 9.472-.18.541-1.39 5.978-2.24 9.746-2.24 9.747-.06.284-1.25 9.922-1.24 9.922-.03.209-.24 9.997-.25 10.152.76 9.971.77 10.094.75 5.124 1.74 9.846 1.71 9.613 2.7 9.626 2.65 9.415 3.64 9.316 3.57 9.146 4.53 8.918 4.46 8.807 5.36 8.443 5.33 8.397 6.14 7.895 6.15 7.917 1.56 1.947 6.85 7.283 6.56 6.975 7.5 6.612 7.26 6.395 8.08 5.892 7.89 5.755 8.58 5.126 8.47 5.055 9.02 4.325 8.97 4.302 9.37 3.489 9.4 3.501 9.65 2.628 9.75 2.657 9.85 1.747 10.01 1.776 9.96.851 9.97.85.22.019 2.84.139 10-.057 10-.056.83-.005 9.96-.966 9.95-.965.87-.084 9.82-1.875 9.82-1.875.87-.167 9.61-2.774 9.61-2.775.86-.248 9.31-3.661 9.3-3.661.83-.327 4.73-2.313 8.92-4.523 8.92-4.524 1.13-.575 8.45-5.356 8.44-5.357 1.06-.672 7.88-6.15 7.89-6.149.97-.76 7.25-6.895 7.24-6.896.88-.837 4.32-4.606 6.52-7.582 6.52-7.582.9-1.049 5.72-8.202 5.72-8.203.78-1.124 4.86-8.743 4.85-8.743.66-1.196 2.57-5.88 3.92-9.198 3.92-9.198.53-1.242 2.95-9.557 2.94-9.557.41-1.31 1.92-9.813 1.92-9.814.27-1.379.88-9.962.88-9.961.12-1.454.25-5.715-.18-9.998-.19-9.998-.02-1.283-1.25-9.922-1.24-9.922-.17-1.354-2.29-9.735-2.28-9.735-.34-1.422-3.3-9.44-3.3-9.439-.52-1.482-1.69-3.805-4.28-9.04-4.27-9.04-.52-1.098-5.19-8.546-5.2-8.545-.69-1.138-6.05-7.963-6.05-7.963-.87-1.154-6.84-7.3-6.83-7.303-1.07-1.14-7.54-6.572-7.53-6.57-1.26-1.097Z"/><path d="m1692.77 348.622-7.83 6.224-7.82 6.224-.41.321-8.81 4.724-2.72 1.456-6.91 3.704-8.77 4.809-8.94 4.902-9.72 2.352-9.72 2.352-1.55.376-9.95-1.028-9.94-1.029-3.19-.329-9.54-3.01-9.53-3.011-.63-.197-8.89-4.585-8.88-4.584-2.65-1.365-7.85-6.191-7.86-6.19-.35-.273-6.45-7.641-6.45-7.641-1.7-2.015-4.99-8.665-4.99-8.665-.27-.464-3.02-9.532-3.03-9.532-.6-1.897-.81-9.967-.81-9.967-.16-2.015 4.19-9.078 4.12-8.928 3.89-9.215 3.93-9.329 4.97-8.678 4.97-8.677.16-.28 2.63-3.102 6.47-7.626 3.94-4.651 7.72-6.356 7.71-6.345 8.71-4.913 8.53-4.812 9.43-3.336 9.07-3.209 9.97-.76 9.97-.76 2.51-.192 3.06-.233 9.94 1.121 9.7 1.095 9.2 3.91 7.68 3.26 2.22 1.22 8.76 4.819 4.72 2.598 7.84 6.209 7.84 6.21 3.19 2.527 6.47 7.626 6.11 7.21 5.48 8.369 4.17 6.38 2.61 6.33 3.81 9.246.44 1.084 1.13 9.936 1.12 9.937.31 2.755-1.32 9.912-1.33 9.912-.16 1.259-3.53 9.357-3.26 8.631-4.96 8.251-5.15 8.576-6.6 7.517-6.64 7.572Z"/><path d="m1741.73 294.966 1.34-9.91 1.34-9.91.6-4.364-1.11-9.938-1.11-9.939-.67-6.089-3.8-9.251-3.8-9.251-.25-.619-5.47-8.373-.62-.953-4.96-7.604-6.47-7.628-6.47-7.628-.98-1.16-.52-.609-7.84-6.205-7.84-6.206-5.97-4.723-8.77-4.808-8.76-4.808-.5-.27-9.21-3.896-9.21-3.896-.94-.4-9.94-1.102-9.94-1.103-2.65-.294-9.97.784-9.97.784-9.31.731M1475.17 358.403l-1.72-1.992-1.87-2.717-.13-.178-3.64-3.318-4.29-5.616-2.06-2.676-3.24-7.086-.8-2.637-1.54-7.289.48-2.332.32-6.574 1.66-1.522-.02-5.401 1.03-4.272M1456.41 289.688l-1.36 5.709"/><path d="m1491.84 327.668 2 6.191.87 6.068-.03 6.278.32 4.73-1.08 3.983-3.52 2.532-3.13 2.124-2.07-.233-3.59 1.086-4.32-.568-2.93-2.624-.91-.824M1497.77 359.807l4.71-3.37 1.46-5.31M1451.83 316.519l2.04 9.695M1503.53 344.818l.05-8.385M1454.95 329.717l4.15 9.098.14.316M1481.95 294.501l-6.66-4.243M1467.68 350.146l3.89 3.549M1470.14 288.421l-3 .588-5.6 1.729M1482.45 311.097l2.46 5.43M1490.52 305.172l-3.29-7.251M1579.25 446.765l8.07.572.73-.83M1574.9 391.795l-7.04-2.4-8.41-2.492M1520.29 422.603l3.95 3.55-.46.778 6.56 4.026"/><path d="m1523.78 426.93 1.92-.71.34-.572-1.8.504M1554.7 441.271l2.16.586 8.51 2.308 5.94 1.613M1617.52 435.988l2.2-3.256 1.56-2.746 1.75-.179-.25-3.3-1.43-4.048-2.32-3.953-2.26-1.247-3.59-2.86-3.29-4.35-4.19-4.175-6.29-2.69M1504.58 406.28l4.51 3.284 4.05 4.205M1503.54 392.438l-.12 3 .3 4.007-.91 2.818-1.65 1.531"/><path d="m1502.26 390.958 1.28 1.479 6.44 7.454.94.832M1503.81 388.497l-1.55 2.461M1527.24 380.916l-4.42 1.885-5.72.979-4.02.152-2.57-.056M1613.53 441.428l4.99-.044-.25-2.523M1546.07 384.806l-8.22-1.171M1555.18 432.424l-4.31-1.166-1.09-.296-1.7-.63-4.18-1.549-2.28-.845-.42-.2-3.78-2.003-3.33-2.044.24-.396-2-1.802-2.83-2.387-1.26-1.526.49-.56-2.05-2.127-2.28-1.663-1.73-1.259.85-.767.48-1.414-.13-2.012.09-1.673-.65-.573.8-1.227 1.54-1.288 1.87-.996 1.3.038 2.03-.063 2.88-.47M1539.25 401.183l2.03.803 4.12.601M295.075 972.651l7.272 2.008 5.567 1.245 7.743 1.389 7.614.608 6.673.286 7.842-.19 7.026-.808 7.9-1.073 7.528-1.94 7.399-1.977 7.324-2.887 7.202-3.05 6.955-3.831 6.788-4.044 6.429-4.737 6.177-4.917 5.769-5.569 5.393-5.64 4.997-6.296 4.466-6.184 4.143-6.887 3.428-6.527 3.237-7.319 2.318-6.651 2.318-7.573 1.488-8.021 1.098-6.168.612-7.99-.012-5.744-.193-7.769-.961-7.948-1.722-8.048-.874-3.932-2.287-7.475-2.956-7.416-3.599-7.284-4.205-7.077-4.771-6.799-.324-.411-4.819-5.879-.146-.162-5.753-6.04-6.161-5.567-6.504-5.037-6.785-4.458-6.994-3.834-7.133-3.173-4.108-1.698-7.772-2.678-7.765-1.905-5.544-1.007-8.171-1.187-7.998-.337-6.609-.04-8.135.538-6.955 1.051-8.085 1.476-7.067 2.155-7.851 2.439-7.322 3.335-7.064 3.29-6.834 4.263-6.637 4.276-6.2 5.124-6.01 5.146-5.447 5.884-5.208 5.862-4.604 6.517-4.261 6.398-3.705 6.997-3.204 6.73-2.785 7.31-2.069 6.843-1.878 7.442-1.078 7.822-.837 6.294-.258 7.682.297 5.852.47 7.364 1.173 7.498 1.864 7.564 1.129 3.945 2.326 6.938.138.325M267.238 958.949l3.416 2.3 1.941 1.104.281.16 4.244 2.414 3.502 1.65M241.988 935.046l.317.441 4.96 5.983 5.366 5.618 2.451 2.228"/><path d="m234.664 901.523.373-1.565 1.464-6.146 2.245-8.278 3.433-7.852 4.781-6.695 5.901-5.359 6.783-3.907 7.428-2.38 10-.001h.526l8.406 1.635 7.326 3.893 6.982 4.484 7.649 6.443 1.132.954 6.285 7.08 5.12 6.922 4.03 7.734 2.371 9.715.16.655.206 9.52-1.748 8.05-3.279 7.465-4.758 6.615-6.138 5.498-7.368 4.125-6.448 3.804-8.181 1.592-6.625-1.166-3.333-.587-8.836-3.41-8.634-5.044-.722-.422-7.643-6.32-6.518-7.584-.745-.867-5.027-7.933-.393-.621-.872-2.123-3.191-7.78-2.066-9.784-.076-.36Zm0 0-.586-6.109"/><path d="m340.541 914.722-.2-9.998-.02-.954-2.359-9.717-.537-2.215-4.627-8.899-5.885-7.965-6.637-7.48-.591-.665-7.65-6.44-2.453-2.065-8.035-5.152-8.431-4.469-9.673-1.869-10 .018-2.111.004M279.387 953.771l6.033 1.63M226.449 902.369l1.07 6.994.01.066.339 1.463.221.955"/><path d="m227.527 909.429-.006-.059-.209-1.707M244.833 936.145l-2.845-1.098-.654-.253-.069-.049-.431-.312-.509-.049-1.008-.81-1.537-1.893-1.025-1.426-1.237-1.923-1.843-2.936-.791-1.447-1.8-3.442-.544-1.246-1.387-3.331-.266-.919-.825-2.796-.195-1.322M240.324 934.383l.94.361M228.062 912.215l.027-.367"/><path d="m230.438 909.823 1.494 2.056 1.202 1.637 1.203 2.69 1.644 2.725 1.512 2.91 1.335 2.896 1.074 2.697.915 2.673.85 2.02.461 1.511-.31.486-.097.152-.147.195-.138.184-.091.12-.013.018M244.833 936.144l.522-.687.548-.849-.612-2.013-1.128-2.693-1.218-3.565M232.316 905.593l-1.992-2.735M228.891 901.398l-.57-.158-1.024-.011"/><path d="m227.312 907.663.094.101.115.124.248.266.399.429 3.4 3.224M289.422 968.896l4.997 2.566.774.319M254.07 948.019l1.011 1.298 2.556 3.281.462.419.832.824 1.061 1.039.599.616.172.216 1.194.938 1.575 1.238 1.86 1.378.31.123 1.427.883 2.433 1.567 1.804 1.154.243.11 2.549 1.424 2.644 1.493.277.157 1.47.69 2.696 1.265 1.097.515.693.257 2.724 1.014 1.902.708 7.409 2.025M301.906 974.04l2.271.206M273.368 953.082l-3.552-1.493M295.07 972.65l.004.001 3.159.831M307.157 972.276l-.424-.996-.486-.844.697-.018-1.256-1.171-2.021-1.463-2.367-1.449-1.41-.497-2.338-1.178-2.63-1.726M253.746 947.281l.324.737M257.134 947.154l-1.371-.169-1.091-.328-.629-.318M307.906 973.866l2.036.162-1.218-.811M264.781 949.863l-2.98-1.06"/><path d="m283.037 967.618-.955-.355-.923-.344-.477-.177-.757-.355-1.859-.872-1.014-.476-.191-.108-1.824-1.03-1.757-.983-.168-.075-.397-.254-.256-.164-.591-.378-1.677-1.081-.983-.608-.212-.084-1.281-.95-.477-.374-.61-.48-.822-.646-.115-.145-.002-.003-.41-.423-.728-.715-.571-.566-.317-.289-.159-.368.001-.305.16-.159.319.162.552.169.694.089M266.754 955.628l.827.479 1.498.535M1379.2 284.098l-7.17-6.966-7.18-6.965-7.17-6.965-.89-.861-6.97 7.175-6.96 7.176-6.97 7.175-.86.887 7.18 6.965 7.17 6.966 7.18 6.965.89.861 6.96-7.175 6.97-7.176 6.96-7.175.86-.887ZM1347.97 252.189l-7.18-6.965-6.22-6.04-6.96 7.176-6.04 6.222 7.17 6.965 6.22 6.04 6.97-7.175 6.04-6.223ZM1367.5 237.442l-7.18-6.966-1.99-1.931-6.96 7.175-1.94 1.99 7.18 6.965 1.99 1.932 6.96-7.176 1.94-1.989ZM2165.01 1114.72l-7.16-6.99-7.16-6.98-7.16-6.98-7.16-6.98-7.16-6.98-7.16-6.99-7.16-6.98-7.16-6.98-7.15-6.98-7.16-6.99-7.16-6.98-7.16-6.98-7.16-6.98-7.16-6.98-7.16-6.99-7.16-6.98-7.16-6.98-7.16-6.983-7.15-6.982-7.16-6.982-7.16-6.982-7.16-6.982-7.16-6.982-7.16-6.982-7.16-6.982-7.16-6.982-7.16-6.983-7.15-6.982-7.16-6.982-7.16-6.982-7.16-6.982-7.16-6.982-7.16-6.982-7.16-6.982-7.16-6.982-7.16-6.983-7.15-6.982-7.16-6.982-7.16-6.982-7.16-6.982-7.16-6.982-7.16-6.982-7.16-6.982-7.16-6.982-7.16-6.983-7.15-6.982-7.16-6.982-7.16-6.982-7.16-6.982-7.16-6.982-7.16-6.982-8.08-7.877 6.99 7.159 6.98 7.159 6.98 7.159 6.98 7.159 6.99 7.159 6.98 7.159 6.98 7.159 6.98 7.159 6.98 7.159 6.99 7.159 6.98 7.159 6.98 7.158 6.98 7.159 6.98 7.159 6.99 7.159 6.98 7.159 6.98 7.159 6.98 7.159 6.99 7.159 6.98 7.159 6.98 7.159 6.98 7.159 6.98 7.159 6.99 7.158 6.98 7.159 6.98 7.159 6.98 7.159 6.98 7.159 6.99 7.159 6.98 7.159 6.98 7.159 6.98 7.159 6.98 7.159 6.99 7.159 6.98 7.155 6.98 7.16 6.98 7.16 6.99 7.16 6.98 7.16 6.98 7.16 6.98 7.16 6.98 7.16 6.99 7.15 6.98 7.16 6.98 7.16 6.98 7.16 6.98 7.16 6.99 7.16 6.98 7.16 6.98 7.16 6.98 7.16 7.88 8.07M272.457 962.424l.136-.07M272.876 962.514l-.161.075M618.806 439.257l-.001.001M622.359 445.681l.618 1.108.007.012.051.092.005.009.028.049 2.552 4.576M629.129 461.87v.001M629.865 458.964l-.002.002M634.309 467.105h.002M634.789 465.196l.801 1.19.001.001 5.583 8.296 4.797 7.129M724.676 341.207l.362-.763.001-.002.038-.08.001-.003.113-.238M730.896 339.336l-.201-.251M735.8 342.081l-4.902-2.745-.004-.002-.256-.143-.001-.001-1.843-1.032-.001-.001M751.062 352.372l.432-.746.001-.004.002-.001M742.909 346.871l-.451-.305-2.286-1.542-.328-.221M937.989 786.653l-.069.121-.002.004-1.367 2.437M939.066 786.63l-.341.623-.312.568-.002.004-1.039 1.895v.001l-.134.244M945.723 792.979l2.01 1.643 1.018.834M953.951 800.494l-.283.517M954.842 801.031l-.294.552-.001.002-.117.219M957.622 799.663l-.012.023v.001l-.029.057-.002.003-.481.952M962.152 805.021h.001l.014.047M1067.57 664.385l.17.063M1068.75 672.797v-.002M1073.22 666.994v-.001M1077.67 658.579l.72-1.29M1081.59 688.849l.44-.816.64-1.184.25-.471M1085.39 683.973l1.94-3.503M1089.51 675.675l.68-1.252M1088.51 881.449l4.47 2.69.57.339 2.38 1.432M962.105 805.401l8.569 5.155.89.535M1093.36 885.071l-.38-.932M1110.49 899.288v.001M1122.73 733.946l-5.17-8.562-5.17-8.562-5.16-8.562-5.17-8.562-5.17-8.562-2.16-3.586-1.66-2.754-4.13-6.843M1175.77 838.084v-.002"/></g><defs><clipPath id="a"><path fill="#fff" d="M0 0h1920v1080H0z"/></clipPath></defs></svg>