<svg width="1920" height="1080" fill="none" xmlns="http://www.w3.org/2000/svg"><g clip-path="url(#a)" stroke="#EFC018" stroke-width="5" stroke-linejoin="round"><path d="m1084.94 669.371-.75.414M1090.2 675.311l.01-.001-.03-.131-.12-.218-.2-.298-.23-.296v-.001l-.05-.068-.36-.419-.34-.384v-.005l-.06-.067-.45-.477-.47-.478-.47-.462-.46-.428-.42-.377-.17-.136-.01-.004-.2-.172-.32-.235-.24-.149-.16-.058-.65.348-.54.289-.01.002"/><path d="m1090.2 675.31-.06.038-.16-.057-.24-.148-.32-.235-.06-.048v-.001l-.32-.263-.43-.378-.46-.428-.47-.463-.47-.48-.45-.477-.4-.458-.35-.419-.29-.365-.2-.297-.12-.217-.02-.128v-.001l.07-.038M1083.79 674.103l-.02-.145v-.003l-.02-.145.04-.161.01-.044v-.002l.14-.108.01-.007.24-.016.31.081.38.177.43.265.08.055.06.047.33.241.08.068.03.023.37.317.48.457.32.334v.002l.15.153.42.501.38.496.19.309.01.001.1.161.22.427.14.368.01.103.03.19-.05.209-.01.001-.14.115-.12.008-.12.009M1087.96 678.51l-.04-.018v-.001l-.34-.157-.43-.265-.47-.343M1086.66 682.047l2-3.591M1083.95 673.487l-.21.108-.01.001-.23.119-.01.001-.2.103v.001l-.6.303M1084.82 675.865l-.37-.497-.31-.471M1083.25 686.929l1.85-3.384.13-.283.04-.365-.07-.435-.17-.486-.13-.271v-.007l-.12-.242-.34-.533-.41-.527-.46-.498-.49-.453-.51-.389-.06-.04-.01-.002-.43-.268-.49-.22-.16-.046-.01-.001-.27-.074-.38-.017-.16.042v.002l-.15.043"/><path d="M1085.1 683.545v.002l-.22.188-.31.088-.39-.016-.44-.12-.48-.22-.51-.311-.51-.389-.49-.454-.46-.5-.26-.337v-.001l-.15-.189-.34-.534-.25-.521-.17-.486-.07-.435.04-.365.13-.279v-.003l.22-.181.01-.007M1078.29 693.062l1.54-2.967.1-.432v-.496l-.11-.54-.22-.565-.3-.568-.39-.548-.45-.508-.5-.449-.54-.371-.54-.281-.53-.178-.35-.049v-.001l-.02-.002-.13-.018-.45.041"/><path d="m1079.83 690.095-.02.034-.18.317-.01.003-.29.254-.38.152-.45.043-.31-.043-.01-.001-.18-.025-.54-.179-.54-.28-.53-.372-.51-.45-.45-.509-.39-.549-.31-.569-.21-.566-.11-.541v-.495l.05-.221v-.005l.05-.205.21-.347v-.004l.29-.249.01-.006.38-.152"/><path d="m1079.82 690.102-.2.347v.004l-.3.256-.38.153-.45.043-.3-.042-.01-.001-.19-.027-.53-.178-.55-.28-.53-.373-.51-.449-.45-.509-.39-.55-.3-.568-.21-.566-.11-.541-.01-.127v-.368l.06-.228v-.005l.05-.199.2-.35v-.003l.3-.253M1075.84 685.096l.13.019h.01l.01.003.35.048.53.179.54.28.54.372.5.449.45.508.39.548.31.568.21.565.11.54M1085.1 683.546v.004l-.23.189-.31.088-.38-.016-.44-.12-.49-.22-.5-.31-.51-.39-.5-.453-.46-.5-.26-.34v-.001l-.14-.187-.34-.534-.26-.52-.16-.487-.07-.435.03-.365.14-.282v-.002M1084.77 681.46l.12.231v.008l.14.281M1085.26 682.901l-.03.366M1080.44 678.48l.16-.045.01-.001.14-.041M1081.42 678.486v.001l.16.043.48.22M1083.08 679.449l.49.453.46.499M1088.66 678.461l-.15.115-.12.009-.12.009-.31-.081-.03-.014v-.001l-.35-.161-.43-.264-.47-.344-.49-.408-.03-.03v-.001l-.45-.427-.46-.491-.43-.503-.37-.496-.31-.471-.22-.428-.01-.02v-.002l-.12-.345-.02-.152v-.003l-.02-.138.04-.166.01-.042v-.001l.15-.113.24-.017.31.082.38.176.43.265.16.12.07.047.24.176.04.036.03.023.41.349.49.457.31.335v.002l.15.152.42.502.38.496.19.308.01.002.1.16.22.428.14.367.01.104v.001l.03.189-.05.206v.003Zm0 0-2 3.586M1083.95 673.491l-.01.003M1090.2 675.31v.002l-.06.037-.16-.056-.24-.148-.32-.235-.06-.049-.32-.263-.43-.378-.46-.428-.47-.463-.47-.48-.45-.478-.4-.457-.36-.419-.28-.365-.2-.297-.12-.218-.02-.129M1085.45 670.449l.15.057.25.15.31.235.22.18.01.005.15.127.43.377.46.428.47.462.47.478.44.477.05.057.01.004.35.395M1090.06 674.963l.12.218M1089.74 674.167l.01-.04-.08-.132-.17-.217-.26-.294-.32-.361-.39-.412-.44-.449-.46-.468-.47-.469-.47-.452-.44-.417-.4-.367-.34-.301-.28-.226-.19-.141-.1-.05"/><path d="M1084.94 669.371v.001l-.75.413M971.492 789.888l.167-.402.27-.316.003-.004.365-.225.448-.123.049-.001h.01l.452-.013.554.094.578.2.578.296.555.383.513.454.448.508.37.541.171.348.102.208.17.547.057.518v.007l-.055.461-.169.402-.273.319-.003.003-.363.222-.065.017-.383.104-.512.014-.136-.024-.417-.071-.578-.2-.575-.297-.555-.382-.512-.453-.449-.507-.367-.54-.274-.555-.171-.546-.057-.518.054-.469Zm0 0 .037-.097M976.488 794.315l.017-.009M968.817 797.141l.257.346.014.02.114.153.304.519.209.499.106.46.001.404-.106.332-.207.247-.004.002-.298.151-.384.053-.452-.049-.502-.15-.533-.243-.544-.329-.207-.156-.017-.012-.309-.233-.502-.458-.453-.497-.385-.518-.088-.149-.008-.015-.207-.354-.21-.498-.107-.461-.002-.404.105-.332.097-.117.005-.006.102-.122.002-.003.301-.154.384-.054.059.007.192.02.006.001.195.021.502.148.534.244.283.171.016.009.245.149.535.401.503.459.454.498ZM969.508 800.12l3.276-1.797M958.915 799.538l.132-.168.002-.002.228-.077.313.02.386.115.119.056.007.003.318.148.486.291.325.232.008.006.026.019.149.106.226.188.002.001.282.233.494.464.458.488.405.493.335.48.253.448.162.399.064.334-.037.257-.046.058-.002.002-.087.11h-.003l-.106.035-.003.001-.118.039-.313-.02-.387-.117-.444-.207-.484-.291-.507-.363-.163-.134-.002-.002-.345-.285-.493-.463-.457-.487-.404-.492-.335-.479-.253-.448-.062-.151-.002-.006-.098-.242-.03-.154-.001-.005-.018-.092-.001-.007-.015-.076.036-.258Zm0 0 .002-.006M963.926 804.242l.06-.035.003-.001 3.476-1.952M955.348 801.599l.057-.09.001-.001.151.003.238.096.316.185.383.267.434.34.469.398.485.443.484.469.463.477.043.048.175.193.002.002.204.225.369.44.301.394.091.14.001.001.128.194.13.262.037.179-.058.089-.001.001-.152-.004-.239-.097-.316-.186-.143-.1-.24-.167-.434-.34-.468-.398-.484-.441-.482-.468-.462-.476-.424-.467-.369-.439-.3-.395-.22-.335-.132-.262-.003-.012-.001-.005-.034-.163Zm0 0 .008-.015"/><path d="m960.25 806.354 1.902-1.07 1.786-1.004M954.319 800.568l-.565 1.041.071.083.162.171.245.255.319.327.382.389.429.434.459.462.473.474.468.467.445.442.404.399.349.342.279.271.199.19.112.101.02.01.828-.457M1026.9 744.044l-.6-.331-.53-.439-.44-.532-.34-.604-.21-.653-.08-.676.06-.674.18-.646.3-.592.42-.517.51-.421.59-.31.64-.185.67-.055.68.079.65.208.6.33.53.44.44.532.33.604.22.652.08.676-.06.674-.18.646-.3.593-.42.516-.51.422-.59.309-.64.186-.67.054-.68-.078-.65-.208Z"/><path d="m960.306 806.266-.058.089-.001.001-.152-.004-.239-.097-.317-.186-.142-.099-.001-.001-.239-.167-.434-.34-.468-.398-.484-.441-.483-.468-.462-.476-.423-.467-.369-.439-.301-.395-.22-.335-.131-.262-.004-.017-.001-.005-.033-.158.01-.016.048-.075h.001l.149.003M960.25 806.355l.002-.001M957.879 803.241l.483.469.463.477M963.612 802.637l.253.448.162.399.064.334-.037.257-.043.053-.002.003-.089.111-.002.002-.1.033-.003.001-.126.042-.313-.021-.387-.116-.444-.208-.485-.291-.506-.362-.164-.135-.001-.001-.345-.285-.493-.463-.457-.487-.404-.492-.335-.48-.253-.447-.067-.164-.003-.007-.092-.228-.032-.163-.001-.005-.017-.09-.002-.008-.013-.068.035-.258.007-.009.128-.161.002-.001.226-.076.313.019.386.116.134.062.007.004.303.141.486.291M963.918 804.244l.065-.036.003-.001 3.478-1.954M961.922 800.712l.494.463.458.489M964.453 795.347l-.003.005-.053.121-.104.333.001.404.108.46.209.499.194.332.009.015.1.171.385.517.453.498.502.458.334.25.016.012.184.138.543.329.533.244.502.149.452.049.384-.053.302-.152 3.314-1.818"/><path d="m964.395 795.473.008-.009.093-.112.005-.006.101-.121.003-.001.298-.153.383-.053.064.006.183.02.007.001.198.021.502.149.534.243.299.181.017.01.229.138.534.401.504.459.453.498.242.327.015.019.129.173.303.519.209.499.107.461v.404l-.105.332-.206.244-.002.003M977.348 792.898l.001.008-.056.468-.168.402-.27.316-.003.003-.343.21-.024.015-.053.014-.395.107-.511.014-.13-.023-.424-.072-.577-.2-.576-.297-.555-.382-.511-.453-.449-.507-.368-.54-.275-.555-.169-.546-.058-.518.055-.468.043-.104.124-.299.272-.32.004-.002.362-.223.448-.123M976.484 794.321l2.869-1.476M975.516 789.782l.512.454.449.508M980.252 782.229l-.104.527.016.568.136.59.249.586.355.561.445.515.519.45.572.365.605.268.614.16.599.048.561-.07.502-.182 2.461-1.11"/><path d="m980.254 782.229.22-.464.328-.384.075-.052.347-.237.502-.184.561-.07.6.046.614.16.606.268.574.366.519.45.446.516.354.562.25.587.135.59.015.569-.104.526-.167.35-.054.114-.329.384-.423.288M990.181 773.618l-.017.611.109.624.23.613.343.579.442.522.525.445.588.352.627.244.643.127.634.006.601-.116 1.802-.592"/><path d="m990.18 773.618.143-.574.061-.122.201-.395.371-.438.467-.343.544-.233.602-.117.634.005.644.128.628.243.588.353.525.445.443.522.343.58.23.613.108.625-.017.612-.143.574-.263.516-.372.438-.188.138-.279.205-.545.232M1001.18 764.354l.29.811.34.593.44.526.53.443.59.341.65.226.66.102.83-.029"/><path d="m1001.47 765.165-.22-.634v-.052l-.09-.599.04-.644.17-.612.29-.556.41-.478.49-.384.58-.273.63-.152.65-.026.67.102.64.226.6.341.53.443.44.527.33.592.22.635.09.651-.04.644-.17.612-.29.556-.4.478-.5.383-.57.273-.56.133-.07.019-.66.025M1015 755.836l-.6-.334-.53-.44-.44-.531-.33-.6-.21-.647-.08-.669.05-.665.18-.636.31-.581.42-.506.51-.41.59-.298.64-.176.67-.046.67.086.66.213.6.334.53.441.44.53.33.601.21.647.08.669-.05.665-.18.636-.31.582-.42.505-.51.41-.59.298-.64.175-.67.046-.68-.086-.65-.213ZM1038.66 732.086l-.6-.331-.53-.439-.44-.532-.33-.602-.22-.65-.09-.674.04-.67.17-.641.29-.589.4-.512.5-.417.57-.305.63-.181.66-.051.66.08.64.21.6.332.53.439.44.531.34.602.21.65.09.673-.04.67-.16.641-.29.589-.41.512-.49.417-.58.305-.62.182-.66.052-.67-.081-.64-.21ZM1054.18 718.107l-.14.623-.02.042-.24.527-.37.493-.46.397-.55.287-.6.165-.63.036-.64-.092-.63-.219-.59-.336-.53-.441-.44-.528-.34-.596-.23-.64-.11-.66.01-.654.14-.624.27-.568.37-.492.46-.397.55-.286.6-.164.49-.029.14-.008.64.093.63.219.59.336.52.44.45.528.34.595.23.64.11.659-.02.654Zm0 0-.17 1.206M1064.08 707.865l-.16.386-.06.15-.33.457-.03.025-.39.337-.5.254-.56.135-.6.011-.61-.112-.61-.235-.57-.345-.52-.441-.45-.525-.35-.584-.25-.623-.14-.637-.02-.626.11-.593.22-.534.32-.458.42-.362.11-.052.39-.201.56-.133.6-.012.61.114.61.234.57.346.15.128.37.313.45.523.28.471.07.112.25.622.14.636.02.626-.1.593Zm0 0-.15.401-.56 1.536M1072.63 698.565l-.27.41-.37.315-.3.142-.14.067-.51.094-.55-.025-.58-.143-.58-.254-.55-.357-.52-.446-.45-.517-.37-.569-.27-.598-.17-.605-.06-.588.05-.549.17-.489.09-.139.18-.27.36-.315.45-.207.51-.093.55.026.58.142.57.255.56.357.51.445.45.516.37.568.27.597.18.604.06.588-.06.549-.16.489Zm0 0-.8 1.714M724.407 335.589l-8.727-4.882-6.869-3.842-8.883-4.592-8.884-4.591-8.884-4.591-4.351-2.248-8.916-4.529-8.916-4.528-8.916-4.528-4.423-2.247-9.164-4.003-9.164-4.002-9.164-4.003-5.191-2.267-9.578-2.878-9.577-2.878-9.577-2.877-9.577-2.878-9.577-2.878-9.577-2.878-9.577-2.877-3.138-.943 2.849 9.585 2.849 9.586 2.849 9.586 2.849 9.585 2.848 9.586 2.849 9.586 2.849 9.585.793 2.67 3.988 9.171 3.987 9.17 3.987 9.171 2.207 5.074 4.517 8.922 4.518 8.921 4.518 8.921 2.207 4.359 4.581 8.889 4.581 8.889 4.582 8.888 2.222 4.313 4.874 8.732 3.785 6.779M1079.13 664.543l-1.1 2.749-3.62 5.215-6.06 7.518-3.37 3.892v.005l-.05.06-.44.509-.39.444v.007l-2.63 3.032v.008l-1.39 1.599-1.66 1.828-.97 1.073-4.12 4.539-3.36 3.701-.08.087-.52.552-5.07 5.403-4.04 4.292-.12.135-1.95 2.069-3.67 3.792-4.42 4.571-4.64 4.795-1.22 1.228-4.63 4.662-5.97 6.006-1.4 1.415-3.25 3.184-5.97 5.855-3.94 3.857-.562.535-5.784 5.509-.268.254-4.081 3.888-1.839 1.752-3.4 3.13-.776.715-3.564 3.281-3.647 3.357-.555.489-1.161 1.022-3.5 3.082-.008.007-2.446 2.154-.007.005-.636.561-.005.003-1.458 1.284-7.785 6.403-5.515 3.975-3.063 1.435"/><path d="m947.853 794.512-.556 1.015.544 1.141 3.112-1.452 5.609-4.042 7.724-6.35.201-.165 2.166-1.907.004-.003.828-.729.006-.006 2.663-2.344.007-.007 3.322-2.924.958-.843.224-.206 4.28-3.94 3.498-3.221.776-.714 2.819-2.595 2.443-2.328 4.066-3.872.268-.255 5.791-5.516.199-.19 4.305-4.215 5.95-5.839 3.15-3.084 1.52-1.532 5.95-5.991 4.65-4.678 1.35-1.36 4.5-4.645 4.43-4.586 4.04-4.174 1.58-1.682.11-.119 4.04-4.293 5.1-5.433.6-.639.49-.517 2.84-3.126 4.17-4.604 1-1.095 2.36-2.61.58-.664.01-.008 2.76-3.195.01-.006.04-.052.98-1.126v-.005l4.05-4.673 6.15-7.651 3.69-5.303 1.11-2.791-1.46-.222-.59.352M628.387 455.486l.155.229 1.543 2.292.419.623M740.183 344.872l-2.89.497-4.962 2.658-6.87 4.75-4.168 3.266-.005.004-1.268.993-.006.004-.578.453-2.503 1.961-.078.066-.007.006-2.237 1.897-.99.84-4.248 3.603-2.3 1.95-.865.779-.387.349-4.302 3.871-4.497 4.046-.744.671-2.9 2.741-5.633 5.326-2.691 2.545-.066.062-6.396 6.327-2.267 2.242-2.649 2.62-3.536 3.658-2.854 2.953-4.472 4.627-.612.664-3.579 3.887-3.791 4.117-1.977 2.147-1.934 2.225-.509.586-2.428 2.792-3.484 4.008-.291.335-.63.781-1.842 2.286-.005.007-2.062 2.558-.004.005-.246.306-.638.791-.002.002-1.563 1.94-5.069 7.066-2.972 5.196-.789 3.15M1071.06 654.686l-.69-.841-.19-.231-6.33-7.738-6.34-7.739-6.33-7.738-6.33-7.739-3.15-3.842-6.5-7.6-6.5-7.6-6.5-7.6-6.5-7.6-6.5-7.601-5.46-6.385-6.674-7.444-6.678-7.444-6.677-7.443-6.678-7.444-6.678-7.444-5.556-6.194-6.852-7.283-6.853-7.283-6.852-7.283-6.852-7.284-6.852-7.283-5.665-6.021-7.471-6.648-7.47-6.648-7.471-6.648-7.47-6.647-7.47-6.648-6.224-5.539-7.696-6.385-7.696-6.385-4.621-3.834-7.695-6.385-7.696-6.385-7.696-6.386-1.899-1.575-8.064-5.913-8.065-5.913-8.064-5.913-8.065-5.913-8.064-5.913-7.159-5.248-8.292-5.59-5.759-3.881-8.292-5.59-8.292-5.589-7.38-4.975-.005-.003-.153-.103-.001-.001-1.284-.866"/><path d="m742.47 346.414.795-2.086-.757-1.729-2.248-1.735-2.996.492-1.306.694-3.84 2.04-3.555 2.447-.904.623-.003.002-1.438.99-.004.003-.64.44-.005.004-.579.398-1.218.951-.005.004-.337.264-.005.003-2.616 2.044-.005.004-1.289 1.007-.006.005-1.383 1.08-.007.005-1.013.792-.006.004-.961.751-1.462 1.238-.005.005-4.076 3.45-.055.047-2.176 1.842-2.46 2.083-7.437 6.685-3.77 3.389-7.268 6.868-4.45 4.205-7.11 7.032-4.632 4.581-6.948 7.191-4.322 4.473-6.771 7.359-3.557 3.868-4.698 5.411-2.387 2.75-.324.373-1.554 1.79-1.124 1.399-.004.005-1.974 2.455-.004.006-.795.988-.005.006-1.214 1.51-.004.006-.775.963-.003.005-1.336 1.661-.709.993-.004.004-.048.069-.004.005-1.284 1.796-.002.004-.533.745-.003.005-.513.717-.002.003-.123.172-.001.001-2.014 2.819-2.558 4.506-.503.884-.794 3.265 1.738 2.252 1.46 1.041 2.542-.829"/><path d="m742.508 342.6-2.996.504-5.157 2.757-7.148 4.939-2.712 2.123-.001.001-.033.026-.002.001-.756.592-.007.006-2.487 1.947-.006.004-1.345 1.054-.005.004-.945.74-.582.456-1.826 1.548-.006.005-2.147 1.82-.987.837-4.248 3.603-1.059.897-2.277 2.049-.278.251-4.112 3.7-4.585 4.125-.254.241-3.144 2.972-6.354 6.007-1.728 1.634-.289.274-7.11 7.032-.177.175-1.027 1.016-3.481 3.443-3.71 3.839-2.112 2.185-5.501 5.691-.168.182-3.195 3.47-4.065 4.415-2.952 3.207-.838.964-.453.521-2.545 2.928-3.532 4.063-.946 1.089-.695.799-1.007 1.251-.005.006-2.111 2.62-.249.31-.005.005-1.075 1.335-.003.004-2.824 3.505-5.272 7.355-3.084 5.402-.808 3.267M1079.12 664.543l-.86-1.051-1.66-2.036M715.844 575.644l1.015 1.225 6.384 7.697 6.384 7.697 3.887 4.686 6.647 7.471 6.647 7.472 6.648 7.471 6.647 7.471 6.647 7.471 5.679 6.383 7.284 6.852 7.284 6.852 7.283 6.852 7.284 6.852 7.283 6.852 6.188 5.821 7.444 6.677 7.444 6.677 7.444 6.677 7.445 6.677 7.444 6.677 6.356 5.701 7.601 6.499 7.6 6.498 7.601 6.498 7.601 6.499 7.601 6.498 6.537 5.589 7.74 6.333 7.739 6.333 7.74 6.332 7.739 6.333 3.816 3.122.391.321 1.008.824M1099.9 884.742l2.18-1.153 4.82-3.302 5.85-4.57 6.65-5.664 7.19-6.533 7.21-6.932.21-.211 7.03-7.115.34-.345 6.84-7.295.17-.181 6.37-7.188 5.47-6.61 4.37-5.772 3.09-4.711 1.7-3.475.28-2.117M947.84 796.667l6.478 3.901h.001l.229.138.005.003.956.576"/><path d="m1169.67 811.569-1.47-2.432-.7-1.167M1127.61 904.25l8.64 5.026 4.61 2.68 1.83-.277 2.82-1.36 3.7-2.398 3.55-2.68.89-.668 5-4.17 5.39-4.83 4.34-4.156 1.2-1.142 5.47-5.554.53-.565 4.66-5.022 4.7-5.396 4.02-4.991.24-.319 2.95-4.07 2.24-3.62 1.2-2.713.13-1.708-5.03-8.642-2.63-4.512"/><path d="m1099.54 886.288.39-.203 5.16-3.529 6.26-4.888 7.12-6.063 7.4-6.729.3-.27 7.21-6.931.74-.721 2.02-2.041 1.26-1.275 4.62-4.678.46-.496.65-.687 6.4-6.826 6.63-7.486.19-.213 5.86-7.077 4.66-6.177 3.3-5.037 1.82-3.711.28-2.255-1.24-.73-2.71.803-.12.069M1111.77 898.749l8.73 4.875 3.28 1.829 2.12-.353 1.71-.849 1.59-.794 4.37-2.88 5.27-4.015 5.95-4.995 6.41-5.779 6.61-6.334 6.54-6.632 6.21-6.662 5.63-6.424 4.82-5.929 3.83-5.199 2.68-4.27.54-1.174.92-2.006.18-1.979-4.88-8.727-1.83-3.268M1152.76 905.242l8.21 5.698 4.5 3.12 1.13-.161 1.7-.8 2.21-1.412 2.65-1.971 2.97-2.455 3.18-2.843 3.27-3.12 3.22-3.274 3.06-3.299 2.76-3.195 2.37-2.964 1.88-2.618 1.32-2.172.71-1.644.07-1.053-5.7-8.216-3.08-4.434M975.895 813.558l.26 9.997.232 8.897.261 9.996.261 9.997.261 9.997.26 9.996.261 9.997.261 9.996.162 6.202 7.458 6.661 7.458 6.662 7.46 6.661 7.46 6.662 7.45 6.661 7.46 6.661 7.46 6.662 7.46 6.661 2.62 2.342 7.72 6.36 6.63 5.465 7.72 6.359 6.64 5.477 7.72 6.36 6.66 5.49 7.72 6.36 6.67 5.503 6.97-5.405 1.75-2.596M1104.85 996.234l-3.34-6.869"/><path d="m1129.01 696.77-9.98-.559-9.99-.559-9.58-.536-9.99-.559-4.56-.256-4.02 4.9 1.69 2.493 4.48 6.614 5.61 8.279 5.61 8.278 5.61 8.278 5.61 8.279 5.61 8.278 5.61 8.278 5.61 8.278 5.61 8.279 5.61 8.278 5.61 8.278 5.61 8.279 3.47 5.128 1.01 1.486 3.87 5.719 9.41-3.386.97-.347 9.41-3.386 4.39-1.581 9.41-3.386 1.21-.438 3.24-1.164 9.78 2.07 9.78 2.069 9.79 2.069 2.6.551 9 4.254 9.04 4.276 7.6 3.598.79.347 9.14 4.053 9.14 4.053 7.33 3.251 8.98 4.409 8.97 4.41 7.6 3.732 7.9-6.131.18-.142 3.36-5.427-6.28-7.783-6.04-7.489-6.28-7.783-6.05-7.506-6.28-7.783-6.07-7.523-6.28-7.784-6.08-7.54-6.62-7.496-6.62-7.496-6.62-7.496-6.62-7.495-6.62-7.496-6.62-7.496-6.62-7.496-6.61-7.495-6.3-7.135-9.99-.559-9.98-.559-9.99-.558-9.98-.559-9.99-.559-9.98-.559-9.99-.559-8.62-.483Z"/><path d="m1203.81 706.199-9.99-.569-9.98-.568-9.98-.569-9.99-.568-9.98-.569-9.98-.568-9.99-.568-8.82-.503-9.99-.568-9.98-.569-2.46-.14-9.99-.568-9.98-.569-1.81-.103M1312.78 834.883l-6.28-7.782-6.08-7.535-6.28-7.783-6.09-7.553-6.28-7.782-6.11-7.57-6.28-7.783-6.12-7.588-6.62-7.495-6.62-7.495-6.62-7.495-6.62-7.495-6.62-7.495-6.62-7.495-6.62-7.495-6.62-7.495-6.49-7.348 3.72-5.035M1073.15 652.275l-1.92 1.081v.002l-.58.324v.002l-.28.16M1078.36 658.152v-.001l-.02-.13-.11-.218-.2-.296-.19-.241v-.001l-.09-.123-.35-.418-.2-.218v-.005l-.21-.233-.44-.477-.47-.478-.47-.462-.46-.428-.43-.378-.32-.261v-.004l-.06-.048-.32-.236-.25-.149-.16-.059-.07.036-1.22.669v.002l-1.16.634v.002l-.1.054-.81.445"/><path d="m1078.36 658.151-.07.037-.16-.057-.25-.149-.31-.231-.01-.005-.38-.313-.43-.378-.46-.429-.47-.463-.47-.48-.45-.477-.4-.457-.35-.419-.28-.364-.2-.296-.11-.217-.02-.127v-.002M1074.57 665.029l2.03-3.573.08-.138.06-.211-.01-.073-.03-.223-.12-.37-.22-.429-.02-.032v-.001l-.28-.44-.37-.497-.42-.502v-.001l-.47-.489-.26-.25-.01-.009-.21-.198-.49-.407-.47-.342-.42-.258-.01-.006-.01-.002-.38-.172-.09-.023-.23-.057-.24.019-.26.135-.24.125v.001l-.22.115-.59.306-.4.206v.002l-.77.4-.01.003-1.08.562"/><path d="m1076.68 661.319-.01.002-.11.088-.04.028-.02.002-.22.018-.32-.078-.05-.024v-.001l-.33-.149-.44-.264-.47-.342-.35-.287v-.001l-.14-.12-.49-.458-.46-.491-.42-.504-.37-.498-.3-.472-.15-.291v-.003l-.07-.136-.13-.37-.01-.091v-.003l-.02-.201.03-.117.03-.091v-.002l.14-.109.01-.008M1070.96 670.015l1.18-2.116.29-.535.48-.85.14-.288.04-.372-.06-.44-.16-.491-.1-.227-.01-.007-.14-.29-.33-.536-.4-.528-.46-.5-.49-.452-.31-.23v-.002l-.21-.156-.51-.308-.49-.216-.18-.046v-.002l-.27-.069-.39-.012-.21.061-.01.001-.1.031-3.22 1.535"/><path d="m1072.91 666.514-.01.003-.23.193-.32.093-.39-.011-.45-.116-.49-.216-.51-.308-.52-.388-.49-.453-.45-.491v-.001l-.01-.009-.41-.529-.33-.538-.25-.524-.16-.492-.05-.439.04-.371.14-.285v-.003l.23-.186.01-.008M1065.72 676.321l1.63-3.074.11-.44.01-.504-.1-.548-.05-.151-.07-.176-.08-.244-.3-.572-.39-.552-.45-.509-.51-.448-.53-.369-.55-.277-.44-.14v-.001l-.1-.032-.02-.002v-.001l-.49-.06-.46.049-.4.16-2.09.872-.01.004"/><path d="m1067.35 673.247-.02.03-.2.331v.002l-.31.263-.39.162-.46.05-.31-.037-.01-.001-.2-.024-.54-.173-.17-.084-.16-.086-.22-.106-.54-.37-.5-.449-.45-.511-.39-.552-.3-.573-.2-.572-.1-.549v-.267l.01-.237.11-.44.22-.355v-.004l.3-.256.01-.009"/><path d="m1066.48 670.067.38.552.3.572.09.242.06.176.06.153.1.548-.01.504-.12.44-.21.356v.004l-.31.266-.4.162-.46.05-.29-.036-.01-.001-.21-.025-.54-.173-.17-.085-.17-.086-.21-.105-.54-.37-.51-.449-.45-.511-.38-.552-.3-.573-.21-.572-.09-.549v-.504l.12-.44.22-.359v-.003l.31-.262.39-.16.46-.049.5.061.01.002.11.033v.001l.43.139.55.277.54.369M1062.42 677.146l.73.234.69.084M1067.01 669.011l.69.525.7.416.4.177.26.112v.002l.61.156.53.014.43-.128.32-.265M1073.08 665.859l-.04.372-.14.286v.003l-.23.195-.32.094-.4-.011-.44-.116-.5-.216-.51-.308-.51-.388-.5-.454-.45-.493v-.001l-.01-.007-.4-.529-.33-.537-.25-.525-.16-.491-.06-.44.05-.371.14-.288v-.002l.23-.192.12-.032v-.002l.2-.058M1072.75 664.69l.12.237.15.492"/><path d="M1070.95 670.02v-.003l.02-.019 1.16-2.098.3-.534.47-.846M1068.96 661.359l.28.071.01.002.17.043M1070.42 662l.2.157M1070.93 662.388l.49.453.46.499M1076.7 660.814l.03.224.01.073-.06.209v.002l-.12.087-.04.031-.02.002-.22.018-.32-.078-.04-.021-.01-.001-.34-.153-.43-.263-.47-.342-.35-.287v-.001l-.14-.12-.49-.458-.46-.491-.42-.504-.37-.498-.3-.473-.16-.303v-.002l-.06-.124-.13-.37-.01-.098v-.002l-.02-.195.03-.122v-.001l.03-.088v-.001l.15-.115.25-.019M1072.92 656.584l.02.009.01.01.41.245.47.341.49.408.19.184.01.009.28.264.46.489v.001l.43.502.36.497.28.44v.001l.02.031.22.43"/><path d="M1074.57 665.033v-.005l2.03-3.573.07-.133M1072.76 664.695l.31.187.53.235.43.105.33-.028.21-.161M1078.34 658.023l.02.128v.002l-.07.037-.16-.057-.25-.15-.31-.23v-.001l-.01-.004-.38-.313-.43-.378-.46-.429-.47-.463-.47-.48-.45-.477-.4-.457-.35-.419-.28-.364-.2-.297-.11-.216-.02-.129.07-.036M1074.72 654.047l.43.378.46.428.47.462.47.478.44.477.2.223v.004l.21.229M1077.75 657.145l.09.123.19.241.2.297"/><path d="m1073.54 653.326-1.22.668v.002l-1.16.634v.002l-.1.055-.81.444M1073.77 653.349l.25.15.32.236M1077.95 657.071l.01-.045-.08-.135-.17-.221-.26-.298-.33-.363-.38-.414-.44-.45-.46-.469-.47-.468-.47-.451-.44-.415-.4-.364-.34-.298-.28-.222-.19-.137-.1-.046"/><path d="M1073.15 652.275v.001l-1.92 1.08v.002l-.58.325v.001l-.28.16M1070.72 653.305l-.54.309"/><path d="m1071.23 653.357-.06-.029-.27-.058-.18.035M955.456 779.988l-.367-.545-.27-.561-.163-.555-.051-.529.064-.481.177-.416.279-.33.003-.003.377-.239.457-.136.074-.003.009-.001.437-.022.563.084.585.191.582.291.559.379.513.453.449.509.205.305.106.157.056.085.27.562.162.556.05.529-.001.014-.002.007-.061.46-.177.415-.284.333-.005.003-.372.235-.459.134-.52.025M963.165 779.856l.383-.45.241-.562.089-.65-.067-.716-.22-.752-.364-.76-.434-.648M958.137 781.81l-.583-.192-.043-.021-.166-.083-.373-.186-.558-.379M947.373 783.195l.211-.256.003-.003.307-.164.391-.065.458.039.136.038.332.092.005.001.035.01.538.237.323.19.017.01.208.124.537.398.505.458.453.5.247.337.015.019.122.166.3.525.205.506.102.469-.004.294-.001.12-.113.343-.214.258-.004.001-.305.162-.02.003-.371.06-.458-.04-.508-.141-.537-.237-.547-.323-.15-.112-.017-.012-.369-.275-.503-.457-.453-.498-.194-.265-.007-.008-.182-.248-.106-.185-.007-.012-.187-.327-.206-.506-.044-.2-.002-.013-.056-.256.004-.414.095-.293.002-.006.014-.044Zm0 0 .003-.005M955.921 785.924l.291-.349.152-.464.008-.56-.136-.635-.209-.518-.068-.167-.012-.022-.393-.688-.519-.706"/><path d="m952.488 787.841.198-.111 3.177-1.775.052-.029.004-.002M941.758 787.502l.136-.176.002-.002.232-.085.316.013.389.108.168.076.008.003.272.123.487.286.51.359.165.135.003.002.01.009.3.245.002.002.032.027.495.463.458.489.403.496.334.484.252.454.159.405.06.341-.037.244-.001.008-.002.012-.139.178-.002.001-.171.061-.003.001-.056.02-.317-.013-.39-.11-.447-.201-.487-.287-.505-.356-.001-.001-.003-.002-.511-.419-.493-.462-.457-.488-.403-.495-.334-.483-.251-.453-.093-.236-.003-.007-.064-.162-.048-.268-.001-.005-.011-.061-.002-.007.001-.001.038-.265Zm0 0 .004-.006"/><path d="m946.77 792.202.16-.092.003-.001 3.498-2.004.003-.002.003-.002M950.438 790.1l.19-.24.054-.358-.08-.462-.214-.549-.34-.613-.443-.644M938.185 789.905l-.025-.122-.001-.006-.011-.057.056-.094.001-.001.151-.002.238.091.317.181.382.264.435.337.469.396.486.441.483.469.463.478.243.269.001.001.084.093.001.001.096.105.369.443.301.398.137.211.083.127.13.266.037.184-.059.094h-.002l-.15.001-.239-.092M941.528 793.598l-.469-.396"/><path d="m943.051 794.472 2.793-1.604 1.017-.585M946.859 792.283l.081-.127-.009-.048M938.536 790.51l-.22-.339M939.205 791.349l-.369-.441M938.317 786.709l-.696 1.25-.001.003-.338.608-.002.002-.686 1.232.068.081.159.171.242.253.317.326.379.388.428.433.459.463.472.473.468.467.446.442.406.401.351.342.282.272.202.192.115.103.023.01.847-.479"/><path d="m937.927 786.389-.849 1.506v.001l-.002.002-.014.161.081.246.138.267M1012.06 729.262l-.61-.325-.53-.439-.44-.534-.33-.611-.2-.662-.07-.689.07-.69.05-.168.06-.204.09-.291.32-.612.44-.536.53-.44.61-.328.29-.09.21-.063.16-.05.69-.069.68.067.66.199.61.326.54.438.44.535.32.61.2.662.07.689-.06.69-.2.663-.33.612-.43.536-.54.441-.6.327-.66.203-.69.069-.69-.066-.66-.2Z"/><path d="m1011.32 730.287.89.269.93.09.93-.094.89-.273.82-.443.72-.595.59-.725.44-.826.27-.896.09-.931-.1-.931M937.078 787.895v.001M939.708 786.821l-.037.068-.346.644-.635 1.177-.002.003-.543 1.008.011.052v.006l.026.127.132.267.22.338.301.398.368.441.425.468.462.477.482.468.485.44.468.396.433.337.3.206.083.058.318.182.239.092.151-.001.003-.001"/><path d="m938.145 789.721.016-.026.042-.069.151-.002.237.091.317.181.383.264.433.337.469.396.487.442.484.468.463.478.245.272.083.091.001.001.095.105.37.443.3.398.138.211.081.127.132.266.037.184-.06.093v.001M946.912 791.993l-.001.007-.004.026-.137.176-.002.002-.168.06-.002.001-.062.022-.317-.013-.39-.11-.447-.202-.487-.286-.505-.356-.002-.001-.002-.002-.511-.419-.493-.462-.457-.488-.403-.495-.334-.483-.251-.453-.099-.249-.002-.007-.059-.149-.05-.277-.001-.005-.011-.059.001-.007.038-.259.008-.009.13-.169.002-.001.229-.084.317.013M945.738 789.582l.403.496.334.484M950.434 790.104l.001-.001"/><path d="m946.766 792.204.164-.094.003-.002 3.5-2.004M943.762 787.851l.51.36.166.136.003.003.019.015.01.008.279.229M952.057 785.125l.015.02.136.186.301.524.204.507.102.469-.004.297-.001.117-.112.342-.213.255-.002.003-.309.164-.017.003-.374.06-.458-.04-.507-.141-.538-.237-.547-.324-.129-.096-.013-.009-.394-.293-.503-.457-.453-.499-.183-.25-.007-.008-.193-.263-.116-.202-.007-.012-.177-.309-.205-.506-.048-.22-.003-.012-.052-.237.004-.414.097-.299.002-.006.012-.038.009-.01.205-.249.003-.002.305-.163.39-.064.458.039.138.038.328.091.005.001.037.011.538.236.34.201.016.01.193.113.536.399.505.458.453.5M955.914 785.93l.002-.003M952.484 787.846l.202-.113 3.229-1.803M955.633 774.836l-.294.753-.002.006-.675 1.728-.064.482.05.528.164.555.27.562.366.545.448.508.512.453.558.378.375.187.167.084.04.02.584.191.562.085.52-.025.458-.135 2.974-1.556"/><path d="m954.66 777.323.06-.141.116-.274.282-.334.004-.003.373-.236.457-.135.083-.005h.009l.428-.022.563.084.584.191.583.291.559.379.514.453.449.51.205.306.105.156.056.084.27.562.163.556.05.529-.001.007-.001.007-.063.467-.178.415-.28.33-.003.003-.354.224-.023.014M964.485 766.577l-.764 2.707-.116.541.007.582.128.599.243.594.351.567.445.517.076.067.109.093.335.288.577.362.612.261.622.15.61.035.574-.083.514-.198 2.551-1.172"/><path d="m963.719 769.284.232-.48.341-.4.096-.067.339-.238.515-.198.573-.084.61.033.623.151.613.261.578.361.135.117.108.093.279.239.445.518.351.568.243.595.128.6.005.582-.116.541-.183.376-.05.103-.342.4-.436.304M972.885 770.156l-.007-.786-.171-.811M974.203 758.228l-.205 2.032-.029.625.099.636.223.623.038.066.064.11.237.408.441.525.528.444.592.347.635.236.654.117.647-.008.615-.132 1.869-.629"/><path d="m973.996 760.26.155-.591.08-.153.197-.38.387-.456.483-.361.56-.251.615-.132.647-.008.654.116.271.101.123.045.242.09.593.348.528.444.442.525.339.585.223.623.099.637-.029.626-.157.591-.277.533-.388.455-.216.161-.267.199-.56.25M980.609 763.628l.757-.338.653-.486M985.41 750.567l.267.807.331.598.439.53.532.442.603.335.652.218.675.09.866-.032"/><path d="m985.675 751.375-.209-.643-.009-.076-.025-.209-.017-.141-.028-.238.053-.659.184-.629.308-.574.419-.498.516-.402.591-.292.644-.169.614-.036.059-.004.084.011.592.08.652.217.604.336.532.441.44.531.33.598.209.644.079.664-.053.66-.185.628-.308.575-.42.497-.516.402-.591.291-.598.156-.046.013-.673.039"/><path d="m989.773 753.556.909-.053.87-.228.799-.393.697-.543.567-.672.417-.776M998.672 741.555l.822.443.896.277.92.1.93-.082.89-.26.82-.428.72-.58.59-.709.44-.812.27-.882.09-.92"/><path d="m999.675 741.556-.609-.328-.534-.439-.439-.534-.326-.606-.202-.657-.069-.682.049-.502.016-.164.001-.015.199-.653.324-.601.436-.525.532-.43.608-.317.509-.148.15-.045.04-.003.65-.057.68.073.66.205.61.329.54.439.44.533.32.607.2.658.07.682-.06.681-.2.653-.33.601-.43.525-.53.429-.61.317-.66.192-.69.061-.68-.074-.665-.205ZM1024.33 716.815l-.6-.326-.54-.439-.44-.534-.33-.608-.21-.66-.07-.686.04-.49.01-.155v-.04l.19-.658.31-.606.42-.531.51-.435.6-.323.64-.198.19-.018.16-.016.33-.031.67.07.65.201.61.327.53.438.44.533.33.608.21.66.08.685-.06.685-.18.658-.31.607-.42.531-.52.435-.59.323-.65.199-.67.065-.68-.069-.65-.202Z"/><path d="m1023.94 718.666.92.094.91-.089.87-.268.8-.436.7-.588.57-.718.41-.819.25-.889.08-.925-.11-.926-.28-.891M1040.49 702.245l-.15.638-.01.006-.27.58-.39.51-.49.414-.56.302-.61.18-.65.049-.66-.082-.64-.211-.59-.332-.53-.439-.44-.531-.34-.6-.22-.65-.05-.336-.02-.131-.03-.203.03-.669.16-.638.28-.586.39-.51.48-.412.56-.302.62-.18.48-.036.17-.014.51.064.13.018.02.002.63.211.6.331.52.44.45.529.33.601.23.648.09.672-.03.667Zm0 0-.18 1.252M1036.07 707.119l.87-.068.84-.243.76-.409.65-.56.53-.688.37-.791.22-.863"/><path d="m1037.66 698.145-.01-.002-.13-.021-1.04-.162M1050.83 691.614l-.23.55-.34.473-.02.013-.42.364-.52.268-.58.148-.61.022-.62-.104-.62-.227-.58-.341-.52-.442-.45-.526-.31-.529-.04-.06-.02-.051-.22-.58-.12-.646-.01-.639.12-.605.23-.55.35-.472.44-.377.08-.04.44-.227.57-.147.61-.021.63.105.61.227.34.201.11.064.13.076.52.441.45.525.35.588.24.63.13.646v.638l-.12.605Zm0 0-.75 2.009M1048.01 695.878l.7-.362.59-.511.46-.639.32-.743M1046.83 686.89l-2.15.35M1059.79 681.985l-.29.422-.38.328-.3.142-.16.078-.52.104-.57-.015-.58-.135-.59-.25-.56-.354-.49-.421-.02-.024-.07-.078-.38-.44-.37-.573-.27-.605-.16-.613-.05-.598.07-.56.18-.501.08-.124.21-.297.38-.327.46-.219.52-.103.57.017.58.135.58.25.56.353.52.444.32.373.09.106.04.039.36.572.27.604.16.612.05.598-.06.559-.18.501Zm0 0-1.27 2.671M1055.41 676.926l-2.8.894M1058.14 685.227l.38-.571M1180.15 820.398l-.02.002-.79.444v.001l-.33.189M1183.37 824.27l.03-.043-.03-.094-.08-.142-.12-.184-.17-.219-.2-.245-.09-.099v-.001l-.14-.162-.25-.27-.26-.266-.26-.253-.25-.229-.23-.198-.2-.158-.16-.112-.13-.062-.07-.01-.41.219v.001l-.73.386v.002l-.61.325"/><path d="m1182.57 823.731-.08-.079v-.001M1183.37 824.27l-.08-.009-.12-.062-.16-.113M1181.13 822.204l-.17-.219-.12-.184-.08-.141-.03-.094.03-.041v-.002M1182.06 823.248l-.26-.266-.25-.27M1182.83 826.543v-.002l.02-.138-.03-.184-.09-.223-.13-.253-.04-.066v-.001l-.13-.207-.21-.284-.24-.283-.11-.117v-.001l-.15-.153-.26-.249-.26-.218-.26-.177-.23-.131-.01-.006v-.001l-.15-.057-.04-.015-.16-.024-.01.002-.11.029-.08.037-.02.014-.55.265v.001l-.02.011v.001l-.85.413"/><path d="m1182.83 826.541-.07.087-.12.032-.16-.024-.2-.078-.23-.131-.03-.021-.23-.157-.26-.218-.02-.013v-.01l-.25-.226-.25-.272-.24-.284-.21-.284-.17-.274-.05-.1-.01-.001-.07-.152-.09-.223-.03-.184.02-.137v-.002l.02-.023v-.001l.05-.057v-.004M1181.11 829.936v-.004l.06-.178.01-.224-.04-.259-.1-.285-.14-.3-.11-.18-.01-.005-.07-.119-.23-.296-.25-.276-.27-.246-.28-.207-.27-.159-.26-.106-.02-.004-.01-.001-.21-.043-.2.012-1.96.841"/><path d="M1181.11 829.933v.002l-.12.126-.16.071-.2.011-.24-.047-.26-.106-.27-.159-.28-.207-.27-.246-.25-.277-.23-.296-.19-.304-.14-.301-.1-.285-.04-.259.01-.223.06-.179.11-.124.01-.003.16-.07M1177.29 835.973l.99-1.667.11-.215.05-.258-.01-.292-.07-.313-.12-.324-.17-.322-.21-.307-.25-.281-.27-.243-.29-.197-.3-.143-.29-.083-.27-.02-.24.043-1.81.625"/><path d="M1178.28 834.306v.002l-.16.162-.2.105-.24.044-.26-.019v-.001h-.01l-.29-.083M1175.62 833.022l-.11-.324-.07-.314v-.224l-.01-.068.05-.258.11-.215.16-.163.18-.096.02-.009M1174.55 835.472l.37.33.4.266.39.193.39.112.37.027.33-.059.27-.143.21-.221"/><path d="m1178.27 834.311-.15.163-.21.105-.24.044-.25-.019-.02-.001-.29-.083-.29-.143-.29-.197-.28-.244-.25-.281-.21-.307-.17-.322-.12-.324-.06-.314-.01-.224v-.068l.05-.258.11-.215.16-.163.2-.105.24-.043.27.02.29.083.29.143.29.197.28.244.25.28.21.307.17.322.12.324.06.314.01.291-.05.259-.1.212-.01.003Zm0 0-.98 1.657v.006l-.01.003M1177.56 831.041l.36.333.38.28.37.215.35.143.32.064.28-.016.22-.096.15-.173M1181.17 829.757l-.06.177v.002l-.12.127-.16.071-.2.012-.24-.048-.26-.106-.27-.159-.28-.207-.27-.246-.25-.277-.23-.296-.19-.304-.14-.3-.1-.286-.04-.259.01-.223.06-.178.12-.127M1180.9 828.69l-.12-.187v-.004l-.07-.113M1181.14 829.275l-.1-.286M1179.99 831.792l1.12-1.855M1179.68 827.361l-.27-.16M1182.83 826.544v.002l-.07.084-.12.033-.17-.024-.2-.079-.23-.131-.02-.018-.23-.16-.26-.217-.04-.033-.01-.01-.22-.207-.26-.272-.23-.283-.21-.284-.18-.274-.05-.1v-.002l-.08-.152-.08-.222-.03-.184.02-.138v-.003l.02-.024v-.001l.05-.058.11-.03.01-.002.16.024.04.017.15.056.01.006.23.131.25.178.27.217.26.25.15.152v.001l.11.118.24.283.21.284.13.206v.001l.04.067.13.253.08.223.04.184-.02.136v.002Zm0 0-.38.639-.81 1.36M1180.79 828.506l.1.06.27.107.23.031.16-.043.09-.118M1182.32 822.813l.25.269.14.162v.001l.09.1.2.245.17.219.12.183.08.142.03.093v.002l-.03.043-.07-.01-.13-.062-.16-.112-.2-.158-.23-.198-.09-.079v-.001l-.16-.149-.26-.253-.26-.267-.25-.27-.23-.262-.2-.246-.17-.219-.12-.183-.08-.142-.03-.094.03-.043.07.01M1181.8 822.294l-.25-.23-.23-.197-.2-.158"/><path d="m1182.71 823.244.11-.196-.03-.053-.08-.102-.13-.146-.17-.186-.21-.219-.24-.242-.25-.256-.26-.262-.27-.255-.25-.241-.23-.215-.2-.183-.16-.144-.12-.097-.07-.049M1179.35 820.845l-.21-.148-.23-.147-.2-.103-.03-.01M1117.4 892.65l-.19-.294-.14-.302-.08-.296-.02-.28.05-.252.11-.216.18-.171.22-.119.15-.036.01-.002.1-.025.3-.004.32.055.33.112.33.164.31.21.28.249.24.277.2.295.14.301.08.297V892.785l.01.108-.05.252-.11.216-.17.17-.01.002-.22.117-.26.063-.3.003-.32-.055-.33-.111M1121.6 892.566l.23-.23.15-.292.07-.342-.02-.379-.11-.401-.19-.407-.26-.399-.33-.375M1120 893.531l1.59-.957.01-.006v-.002M1112.63 895.044l-.1-.269-.04-.246.02-.216.08-.175.14-.129.18-.077.24-.023.26.033.3.087.24.108.01.004.05.025.31.184.3.222.28.251.25.273.11.157.01.008.08.117.16.281.1.269.04.247-.02.215-.08.175-.14.129v.001l-.19.076-.23.022-.27-.033-.29-.087-.31-.138M1117.21 895.592l.18-.174.11-.237.03-.292-.06-.334-.13-.364-.21-.38-.28-.382-.33-.368M1113.52 896.13l.29.222M1115.41 896.695l1.8-1.101v-.002M1108.97 896.464l-.02-.175.05-.132.09-.084.05-.011v-.001l.1-.021.19.02.09.027.01.001.14.044.26.121.28.166.29.204.29.234.27.255.25.267.21.268.18.26.12.24.07.211.02.175-.04.132-.1.083v.002l-.15.032-.19-.021-.24-.072M1113.72 897.559l.14-.114.05-.179-.02-.237-.09-.286-.17-.325-.23-.351-.13-.157M1110.36 898.198l.29.204.28.166"/><path d="M1111.77 898.75v-.001l1.95-1.189M1109.07 896.729v.003l.09.185.04.06v.002l.08.11v.005M1109.55 897.443l.13.141.12.125.27.255M1106.5 896.977l.11.014.15.064.2.112.22.156.26.195.27.225.02.019v.001l.25.227.27.259.25.261.23.254.01.016.18.221.15.21.11.175.05.134v.087l-.05.032-.01.006M1107.43 898.372l.26.259.28.247.24.202v.001l.02.022M1108.49 899.297l.23.156M1109.17 899.644l1.79-1.062M1106.45 897.103l.05.134M1106.75 897.621l.14.162v.004M1105.02 896.695l.01.009.06.059.11.108.16.152.19.192.22.223.25.246.26.259.26.263.26.256.24.24.21.214.18.18.14.139.09.092.04.043-.01-.008v-.001l-.04-.037-.02-.022-.11-.108-.15-.153-.2-.191-.22-.223-.25-.246-.26-.259-.26-.262-.25-.256-.24-.24-.22-.213-.18-.18-.13-.139-.1-.093-.04-.044ZM1107.7 899.37l.51-.289M1104.91 894.92l-.19.345-.01.009v.001l.02.103.06.151.12.192.15.225.2.251.02.027M1147.91 865.747l.4.322.44.238.49.146.5.048.5-.052.49-.15.44-.242.39-.325.32-.396.24-.451.14-.488.05-.508-.05-.507-.15-.487-.24-.448"/><path d="m1149.28 865.871-.33-.176-.29-.238-.24-.291-.18-.331-.11-.361-.04-.375.04-.376.11-.361.17-.333.24-.293.29-.24.32-.18.36-.111.37-.038.38.035.36.108.33.177.29.238.23.29.18.332.11.361.04.375-.04.375-.1.362-.18.333-.23.293-.29.24-.33.179-.36.111-.37.039-.37-.036-.36-.108ZM1104.91 894.92l-.2.353M1105.74 895.383l-.18.328-.28.513v.001l-.26.471.04.043.09.093.14.139.18.18.21.214.24.239.26.256.26.262.26.259.25.246.22.223.19.191.16.153.11.109"/><path d="m1105.02 896.695.01.008.06.059.11.108.15.153.2.191.22.223.25.246.26.26.26.262.26.257.24.239.21.214.18.18.13.139.1.093.04.043-.01-.009-.04-.037M1107.2 895.534v.017l-.26.501-.35.684v.001l-.14.278v.087l.05.134.1.176.15.21.13.157v.005l.07.074.22.253.25.262.27.259.28.246.24.203.02.022.26.194.23.157.19.112.15.065.11.013"/><path d="m1107.43 897.518.27.225.02.02.01.001.25.226.26.259.26.262.22.254.02.015v.001l.18.22M1109.17 899.386l.05.134v.088l-.05.037M1106.45 897.016v-.002l.05-.036.11.013.15.064M1109.66 894.727l-.49 1.047v.002l-.09.195v.002l-.09.186-.04.132.01.176.08.211.02.049v.003l.1.188.04.061.07.102v.005l.06.091.22.268.13.135.12.131.27.256.29.234.29.203.28.166.03.013.23.108.23.072.2.021.14-.033.01-.001M1111.52 897.649l.17.259.13.24"/><path d="m1108.99 896.158.01-.003.09-.081.05-.012.1-.021M1111.86 898.667l-.09.081M1109.43 896.062l.09.03.01.001M1109.66 896.133l.27.121.28.166M1113.29 892.375l-.78 1.941-.02.215.04.247.1.269.16.28.12.166.01.02.07.096.25.272.01.016.02.013.24.222.3.222.31.184.31.137.29.087.27.033.23-.022.19-.077 1.8-1.103M1115.14 895.099l.11.15"/><path d="m1115.35 895.38.15.281.1.269.04.247-.02.215M1113.14 893.911l.27.033.3.087.25.112M1112.51 894.317l.02-.053.06-.123.13-.129M1114.01 894.169l.31.183M1117.57 889.452l-.55 1.777-.05.253.01.28.08.296.14.301.2.294.24.277.28.248.31.211.33.164.33.112.32.055.29-.004.27-.063.22-.118 1.6-.966M1120.09 892.019l.14.302M1121.59 892.569l.01-.001"/><path d="m1117.02 891.229.01-.016.1-.2.17-.171M1118.74 890.823l.32.164M1119.38 891.198l.28.248.24.277M1122.54 885.938l-.27 1.468v.31l.06.319.12.32.19.306.24.282.29.245.32.2.34.146.34.088.35.027.32-.037.29-.098 1.28-.727M1126.41 888.787l.34-.211.27-.281.18-.341.11-.387.01-.419-.09-.434-.17-.432-.25-.415-.33-.38"/><path d="m1122.27 887.405.08-.286.14-.252.12-.124.08-.084.25-.157.29-.099.32-.037.35.026.34.089.34.147.32.2.29.245.24.281.19.307.12.319.07.321-.01.31-.08.286-.03.06-.11.192-.19.208-.26.157M1128.18 881.664l.03 1.095.05.341.12.335.18.316.24.285.29.243.32.191.35.132.36.068.36.002.35-.065.31-.129 1-.49M1132.14 883.989l.37-.254.3-.325.21-.383.13-.426.03-.452-.06-.462-.16-.453-.25-.428"/><path d="m1128.21 882.759.02-.335.06-.179.04-.136.16-.283.22-.24.27-.188.31-.13.35-.065.36.002.36.068.35.132.32.191.29.243.24.285.18.316.12.336.05.341-.03.335-.09.315-.16.283-.14.155-.08.085-.27.188M1134.5 877.196l.29.556.18.324.23.288.29.24.33.184.36.121.37.052.37-.018.36-.087.59-.168"/><path d="m1134.79 877.753-.04-.109-.07-.238-.04-.358.03-.354.11-.338.17-.307.23-.266.29-.213.33-.154.35-.087.37-.018.37.053.36.12.33.184.29.241.24.287.18.324.11.348.04.358-.04.354-.1.338-.18.307-.23.266-.29.213-.22.103-.1.05"/><path d="m1137.87 878.688.44-.207.39-.289.31-.359.24-.415.14-.457.05-.479-.06-.484-.15-.469M1141.45 872.077l.39.323.45.243.49.151.5.056.51-.042.49-.139.45-.23.39-.312.32-.383.24-.438.15-.478.05-.498-.04-.499-.15-.481-.24-.445"/><path d="m1142.52 872.522-.34-.178-.29-.24-.23-.289-.18-.33-.11-.355-.03-.37.03-.367.11-.354.18-.325.24-.282.29-.231.33-.17.36-.104.38-.031.37.042.36.111.34.18.29.238.23.291.18.328.11.357.04.368-.04.369-.11.354-.18.323-.24.284-.29.231-.33.17-.36.102-.38.033-.37-.043-.36-.112ZM1154.65 859.555l.44.238.48.146.49.047.49-.053.47-.152.43-.243.38-.326.3-.397.22-.451.13-.49.04-.508-.07-.507-.15-.488-.25-.448-.32-.393"/><path d="m1155.89 859.052-.33-.176-.29-.238-.24-.291-.18-.332-.11-.36-.05-.376.03-.376.09-.362.17-.334.22-.293.28-.242.32-.179.35-.112.36-.039.36.035.36.107.32.176.29.238.24.29.18.332.12.361.04.375-.02.376-.1.362-.16.334-.23.294-.28.241-.31.18-.35.112-.36.039-.37-.035-.35-.107ZM1160.66 853.07l.44.24.46.15.48.054.47-.046.45-.142.4-.233.35-.316.27-.386.2-.441"/><path d="m1164.42 851.275-.15.326-.02.032-.18.254-.26.233-.3.173-.33.105-.35.033-.35-.039-.34-.111-.32-.178-.29-.239-.24-.289-.19-.33-.12-.356-.06-.371.01-.37.08-.355.15-.326.2-.285.26-.234.3-.172.33-.105.35-.033.18.02.17.019.34.111.32.178.29.239.24.289.19.329.12.357.06.37-.01.37-.08.355Zm0 0-.24.676M1162.95 848.676l-.76-.237M1169.8 845.188l-.18.268-.17.161-.06.057-.27.157-.3.091-.33.021-.33-.049-.33-.118-.32-.182-.28-.24-.24-.288-.2-.324-.14-.349-.07-.359-.01-.357.06-.341.12-.31.17-.27.23-.217.24-.133.04-.023.3-.091.33-.021.33.048.33.119.32.182.28.239.24.288.2.324.13.348.08.361.01.356-.06.34-.12.312Zm0 0-.54 1.081M1166.58 847.067l.45.159.45.067.44-.029.42-.123.36-.213.32-.294.24-.364M1168.06 842.271l-1.16.055M1170.96 841.003l.41.255.42.174.43.087.4-.004.38-.096.32-.182.27-.262.19-.332M1174.56 839.291l-.15.245-.2.194-.24.134-.04.01-.23.061-.3.003-.32-.064-.31-.129-.3-.189-.28-.241-.25-.285-.2-.317-.15-.337-.1-.344-.03-.338.02-.319.09-.288.13-.219.02-.026.19-.194.24-.134.28-.07.3-.003.31.064.32.129.3.189.28.241.24.284.21.317.15.337.09.344.04.338-.03.319-.08.288Zm0 0-.77 1.351M1172.43 836.444l-1.52.349M731.344 339.173l.014-.024-.001-.001M729.586 339.134l.267-.498.145-.269-.024-.111-.098-.179-.169-.239-.232-.291-.288-.33-.331-.358-.362-.372-.38-.37-.383-.357-.355-.314h-.001l-.015-.013-.345-.287-.305-.235-.254-.173-.194-.106-.125-.034"/><path d="m729.999 338.367-.003.003-.048.037h-.002l-.123-.033-.193-.105-.254-.174-.305-.234-.345-.287-.371-.328-.384-.357-.38-.371-.364-.373-.332-.358-.044-.052-.001-.001-.242-.278-.233-.291-.168-.239-.098-.178-.023-.111.052-.039M726.82 339.602l.001-.001.069-.139v-.001l.101-.202v-.001l.02-.04.036-.175-.043-.237-.12-.291-.194-.334-.084-.118-.002-.002-.173-.243-.315-.379-.358-.379-.388-.367-.105-.088-.002-.001-.296-.25-.402-.298-.387-.247-.08-.042-.275-.143-.311-.116-.255-.044-.188.031-.003.002"/><path d="m727.012 339.218-.005.005-.026.024-.083.077h-.002l-.115.019-.002.001-.069.011-.153-.025-.001-.001-.1-.017-.311-.116-.356-.184-.387-.247-.066-.05-.002-.001-.334-.248-.404-.339-.389-.367-.359-.381-.315-.379-.259-.364-.17-.293-.001-.001-.023-.039-.12-.291-.042-.238.037-.174.113-.104.002-.001M718.434 338.052l.002-.002.248-.095.312-.017.364.06.403.136.426.207.063.041.006.003.363.226.422.323.395.362.354.388.299.398.233.395.157.375.026.116.001.006.049.221-.009.295-.092.237-.006.006-.168.163-.002.002-.245.094M721.358 341.952l-.403-.136-.426-.207-.433-.27-.423-.323-.396-.362-.355-.389M718.433 338.051l-2.691 1.587M718.388 339.469l-.157-.376-.075-.342.009-.295M716.59 345.541l.055-.349-.035-.391-.125-.415-.208-.426-.286-.418-.35-.395-.403-.358-.439-.306-.458-.242-.461-.17-.445-.09-.413-.007-.364.075-.301.156-2.431 1.408"/><path d="m716.591 345.54-.017.036-.127.26-.226.231-.004.002-.297.155-.364.076-.175-.003h-.008l-.23-.004-.445-.09-.462-.169-.459-.243-.44-.306-.403-.358-.351-.396-.285-.419-.209-.426-.124-.416-.004-.039v-.006l-.031-.345.056-.35.144-.296.225-.227.003-.003"/><path d="m716.219 346.069-.002.002-.301.157-.364.076-.166-.003h-.008l-.239-.004-.445-.089-.461-.17-.46-.242-.44-.306-.403-.358-.351-.397-.285-.419-.209-.425-.124-.417-.004-.045-.001-.005-.03-.34.056-.35.144-.295.228-.231.003-.001M713.016 341.978l.413.007.445.091.461.169.459.243.438.305.403.358.351.395.285.419.209.425.124.416.035.39-.055.35M712.352 342.208l-2.411 1.397M722.449 341.73l-.171.168-.002.001-.248.096-.312.019-.364-.06-.403-.136-.426-.207-.433-.27-.422-.323-.397-.362-.354-.389-.3-.4-.233-.395-.156-.376-.076-.342.01-.295.093-.237.174-.169.003-.001.245-.094.312-.018.365.061.403.136.425.207.073.046.007.004.352.22.422.322.395.362.355.388.299.399.232.395.158.375.023.108.002.005.05.229-.008.296-.093.237Zm0 0-.001.003M718.427 338.054l-2.685 1.584M727.009 339.221l-.029.026-.084.078-.001.001-.113.019-.002.001-.073.012-.148-.025h-.001l-.106-.018-.31-.116-.356-.185-.387-.246-.067-.05-.001-.001-.335-.248-.403-.34-.389-.367-.359-.38-.315-.38-.26-.363-.169-.292-.001-.001-.023-.041-.12-.291-.043-.237.037-.174.114-.104.001-.001h.001l.001-.001.187-.03.254.043.311.117.275.143h.001l.08.042.386.246.403.299.296.25M725.367 336.695l.388.366.359.38.314.379.174.243.001.002.085.118.193.333.121.291.043.238M723.067 335.497l-2.883 1.693M729.944 338.407l-.125-.033-.193-.105-.254-.173-.305-.235-.345-.287-.371-.328-.384-.357-.38-.371-.364-.373-.332-.358-.044-.051-.001-.001-.242-.279-.233-.291-.168-.239-.097-.178-.024-.111.046-.035.006-.004h.002l.123.034.194.106.254.173"/><path d="m726.136 334.598-1.728.992-.31.178M731.358 339.148v-.001l-.059-.097-.13-.167-.195-.23-.254-.283-.302-.327-.339-.357-.363-.374-.372-.376-.368-.364-.349-.338-.317-.298-.272-.248-.218-.188-.154-.12-.085-.049-.206.114M627.275 426.104l.248-.239.314-.156.366-.065.129.008h.006l.27.018.429.117.435.204.425.283.399.351.357.406.302.444.235.466.158.469.077.455-.009.424-.021.085-.002.007-.07.283-.175.313-.002.003-.247.235-.313.155-.366.065-.405-.027-.428-.117-.435-.205-.425-.282-.398-.351-.357-.404-.301-.444-.235-.465-.159-.469-.077-.455.008-.423.093-.376.172-.31.002-.003Zm0 0 1.345-2.3M630.586 430.369l.023-.008M622.649 432.509l.188-.188.255-.107.312-.021.358.065.389.149.405.227.207.151.011.008.188.137.392.355.362.399.318.427.225.379.011.018.026.044.195.435.123.415.044.377-.036.326-.115.261-.002.003-.186.185-.256.106-.312.02-.357-.065-.389-.15-.366-.205-.012-.007-.027-.015-.405-.296-.391-.354-.322-.354-.014-.017-.025-.027-.318-.427-.262-.439-.196-.436-.122-.414-.045-.377.035-.326.113-.259.001-.003Zm0 0 1.567-2.612M626.32 436.555l.002-.002M619.612 437.524l.002-.001.121-.129.194-.052.253.029.308.109.346.184.373.253.387.312.383.358.367.392.334.409.291.412.235.397.172.369.005.014v.004l.031.102.002.003.063.203.024.269-.05.204-.002.001-.123.129-.193.051-.255-.03-.086-.031-.003-.001-.216-.077-.194-.103-.004-.003-.148-.079-.374-.253-.162-.131-.002-.001-.222-.179-.381-.358-.367-.391-.335-.408-.29-.411-.236-.397-.11-.238-.06-.131-.101-.325-.027-.27.05-.202v-.003Zm0 0 1.7-2.83M623.332 441.495l.003-.002M618.242 441.01l.003-.004.054-.064.129.007.195.083.254.156.303.223.136.112.001.001.203.168.365.328.376.363.371.383.018.02.001.002.334.368.16.191.003.002.157.187.277.357.221.319.158.27.088.209.015.142-.054.063-.004.004-.129-.008-.195-.084-.254-.156-.02-.014-.008-.006-.275-.202-.34-.281-.365-.328-.374-.362-.371-.383-.352-.388-.32-.38-.076-.098-.2-.259-.222-.319-.158-.27-.089-.21-.016-.14v-.002Zm0 0 .822-1.393.683-1.159M622.008 444.9l.003-.001"/><path d="m618.929 442.211-.378.665.065.069.136.139.201.205.26.262.308.31.344.345.367.367.376.376.37.369.35.348.317.314.271.268.215.212.151.147.081.077M668.871 385.782l-.479-.256-.419-.344-.344-.419-.254-.477-.156-.518-.051-.537.055-.537.16-.517.258-.475.346-.416.422-.342.481-.253.521-.155.541-.051.541.055.52.159.478.256.42.344.343.418.255.477.156.518.051.537-.055.537-.16.517-.258.475-.347.417-.421.341-.481.253-.521.155-.541.051-.541-.055-.52-.158ZM622.363 446.685l.001.001.008.003M622.371 446.688l.491-.27"/><path d="m621.305 443.538.276.357.221.319.158.27.088.209.016.14v.002l-.053.062-.002.002-.003.004-.129-.008-.196-.084-.254-.156-.012-.009-.008-.007-.283-.207-.34-.281-.364-.327-.375-.363-.37-.382-.352-.389-.321-.38-.075-.098-.001-.001-.2-.257-.221-.32-.159-.269-.088-.21-.016-.142v-.001l.057-.068.128.007M622.008 444.903l.006-.004.641-.333.002-.001M618.625 441.035l.254.155.303.223M619.316 441.525l.001.001.204.168.365.328.375.363.371.383M623.379 440.57l.001.004v.005l.033.104.001.003.065.209.025.27-.051.201v.003l-.12.124-.005.005-.193.051-.255-.029-.078-.029-.005-.001-.222-.08-.182-.096-.005-.003-.159-.085-.373-.253-.163-.131-.001-.001-.223-.179-.381-.358-.367-.391-.334-.409-.291-.41-.235-.398-.111-.238-.06-.13-.101-.326-.027-.27.05-.204.002-.001M622.973 439.804l.236.398M619.734 437.398l.193-.051.255.029.306.109.347.184M623.328 441.498l.607-.288.001-.001.095-.045.002-.001M621.211 437.921l.386.312.384.358.366.392M626.504 436.37l-.001.002-.183.181-.006.007-.255.106-.312.02-.358-.065-.388-.15-.35-.196-.011-.006-.044-.025-.406-.296-.391-.354-.341-.376-.012-.013-.008-.009-.317-.427-.262-.439-.196-.436-.123-.414-.044-.377.035-.326.114-.262.002-.002M625.711 433.689l.318.427.215.362.011.017.036.062.196.435M624.216 429.896l-1.571 2.619M622.836 432.326l.255-.107.312-.021M624.148 432.412l.406.227.218.159.011.008.177.129M631.392 429.372l-.002.007-.072.29-.172.31-.002.003-.249.238-.286.141-.028.014-.366.065-.405-.027-.428-.117-.435-.204-.424-.283-.399-.351-.356-.404-.302-.444-.235-.465-.158-.469-.077-.455.008-.423.093-.376.173-.313.003-.003.246-.236.313-.156.366-.065M630.953 427.48l.235.466.159.469.076.456M628.64 423.768l-1.37 2.342M628.34 425.658l.264.017.429.117.435.205M629.895 426.28l.399.35.358.406M634.15 416.978l-1.021 1.883-.144.417-.055.462.035.489.126.497.21.486.287.458.353.41.405.347.442.272.461.185.463.091.448-.005"/><path d="m633.129 418.86.228-.357.303-.281.228-.123.137-.073.415-.103.448-.006.464.091.462.185.442.271.406.348.353.411.287.458.21.487.125.498.036.489-.056.462-.145.417-.228.356-.063.058-.24.223-.366.195-.415.103M641.128 408.831l-.676 1.49-.188.449-.096.492.001.515.097.519.189.503.275.468.349.414.411.346.456.263.484.17.493.071"/><path d="m640.449 410.322.273-.389.064-.057.285-.257.41-.227.456-.132.484-.031.494.071.484.171.457.263.411.346.349.414.275.469.189.503.097.52.001.515-.096.492-.189.448-.274.389-.349.314-.41.227-.118.034-.338.097-.484.03M648.638 401.336l-.163.724-.026.532.074.533.173.514.265.475.347.418.415.344.467.257"/><path d="m648.477 402.061.127-.511.029-.06.194-.41.309-.41.385-.336.445-.247.488-.151.512-.047.517.058.503.161.467.258.415.344.347.418.265.475.173.514.075.534-.027.532-.128.511-.223.47-.309.41-.385.335-.445.248-.488.149-.512.047-.517-.058-.214-.069-.288-.092M659.267 395.525l-.475-.255-.418-.343-.344-.419-.258-.478-.162-.519-.059-.54.045-.539.149-.52.246-.478.334-.42.41-.345.468-.256.51-.158.532-.054.533.053.514.156.475.256.418.343.345.419.258.478.162.519.059.54-.046.54-.149.519-.246.479-.334.419-.41.345-.468.256-.51.158-.532.054-.533-.053-.514-.157ZM678.686 376.224l-.479-.26-.418-.345-.344-.417-.254-.473-.156-.509-.051-.528.055-.524.16-.502.258-.46.346-.401.421-.325.481-.238.52-.14.541-.04.541.066.519.165.478.26.419.346.343.416.254.472.156.51.052.527-.056.525-.159.503-.258.459-.346.4-.421.326-.48.238-.521.141-.541.039-.541-.064-.519-.167ZM692.07 364.49l.038.324.021.185-.045.502-.148.477-.246.434-.333.372-.408.298-.468.212-.508.117-.531.018-.532-.082-.513-.179-.474-.268-.417-.347-.344-.414-.258-.463-.161-.496-.059-.51.046-.503.148-.477.246-.433.333-.372.409-.298.122-.055.345-.156.509-.116.531-.018.531.082.513.178.473.268.417.347.344.414.258.463.161.496ZM688.332 362.376l-1.023.312M701.169 357.532l-.127.442-.073.129-.149.267-.307.334-.383.26-.443.174-.487.084-.51-.012-.516-.105-.5-.196-.466-.279-.414-.35-.346-.409-.263-.452-.173-.476-.074-.485.027-.472.126-.442.223-.396.133-.144.175-.19.383-.259.443-.174.487-.083.51.012.516.106.499.196.466.278.413.35.345.408.264.452.172.476.075.484-.026.472ZM697.003 354.556l-1.605.761M709.346 351.094l-.187.349-.272.286-.1.061-.247.151-.408.129-.454.042-.482-.048-.491-.135-.482-.218-.455-.291-.409-.354-.348-.403-.273-.437-.189-.453-.096-.452v-.435l.093-.387.002-.012.188-.35.273-.285.347-.212.409-.128.453-.041.482.048.491.136.481.217.454.291.409.354.347.402.273.436.189.453.096.452.001.434-.095.4ZM705.355 347.64l-1.988 1.087M750.645 351.924l.043-.077.002-.002.795-1.403M748.998 351.723l.36-.666.277-.514.002-.003.478-.886-.03-.123-.11-.195-.185-.261-.255-.316-.313-.359-.014-.015-.014-.016-.331-.357-.393-.402-.083-.081-.01-.009-.318-.311-.413-.385-.399-.353-.05-.042-.002-.001-.318-.266-.327-.252-.272-.186-.205-.112-.131-.035-.001.001"/><path d="m750.116 349.654-.003.004-.048.042-.001-.001-.129-.033-.205-.111-.271-.186-.327-.252-.371-.309-.4-.354-.413-.385-.412-.402-.394-.403-.36-.389-.128-.147-.001-.001-.184-.211-.255-.316-.185-.261-.109-.195-.029-.122.051-.044.001-.001M745.872 352.867l.476-.95.001-.002.079-.157.001-.001.319-.638.087-.175.001-.001.105-.21.001-.001.048-.095.035-.192-.05-.259-.134-.317-.213-.363-.258-.36-.001-.002-.023-.032-.162-.194-.18-.216-.388-.412-.42-.396-.262-.221-.001-.001-.172-.144-.433-.322-.416-.265-.183-.096-.199-.103-.333-.124-.271-.045-.175.031-.025.005-.003.001"/><path d="m746.991 350.637-.006.005-.067.065v.001l-.047.045-.002.001-.177.032-.002.001-.018.003-.271-.044-.03-.011-.001-.001-.302-.112-.382-.198-.417-.265-.353-.263-.002-.001-.079-.059-.436-.367-.42-.397-.389-.412-.342-.411-.283-.395-.212-.363-.015-.035v-.001l-.014-.034-.105-.247-.049-.259.036-.191.119-.114.002-.001M740.764 356.525l1.394-3.112.097-.259.006-.322-.05-.219-.002-.005-.033-.148-.173-.408-.254-.429-.325-.433-.384-.42-.428-.391-.12-.092-.335-.256-.455-.284-.009-.006-.002-.001-.005-.002-.454-.221-.433-.146-.391-.064-.335.021-.265.105-.118.069-1.391.815-1.416.828"/><path d="m742.155 353.413-.006.006-.178.18-.003.001-.261.105-.334.022-.391-.063-.434-.146-.459-.222-.467-.291-.456-.349-.095-.086-.334-.306-.29-.317-.095-.104-.325-.434-.254-.429-.173-.409-.084-.372.007-.322.098-.258.182-.183.002-.003M734.859 360.382l1.037-2.785.057-.381-.018-.185-.023-.239-.137-.452-.047-.095-.181-.367-.31-.454-.38-.428-.435-.387-.117-.082-.358-.249-.083-.044-.412-.218-.497-.182-.48-.096-.444-.007-.391.084-.324.171-2.648 1.516"/><path d="m735.893 357.597-.021.045-.131.277-.243.253-.003.001-.319.17-.26.056-.131.029-.218-.003h-.009l-.217-.003-.201-.04-.279-.055-.498-.183-.496-.261-.476-.331-.436-.388-.381-.43-.31-.454-.228-.462-.137-.453-.005-.058-.001-.007-.034-.359.058-.381.153-.322.24-.249.003-.003"/><path d="m735.906 356.796.022.243.018.182-.057.381-.152.322-.24.249-.002.003-.323.172-.257.055-.134.03-.21-.003h-.009l-.226-.003-.198-.04-.281-.056-.498-.182-.497-.262-.474-.331-.197-.174-.24-.213-.141-.159-.24-.271-.31-.454-.228-.463-.136-.452-.007-.066-.001-.007-.033-.352.059-.38.152-.323.244-.251.002-.002.321-.169.39-.084.446.006.479.097M731.309 353.991l-2.618 1.498M733.441 354.021l.415.219M734.414 354.613l.436.387.38.429M742.248 353.157l-.097.259-.182.184-.002.002-.264.106-.334.022-.391-.063-.434-.145-.459-.223-.467-.291-.456-.349-.093-.084-.336-.308-.288-.315-.097-.106-.325-.434-.254-.429-.173-.409-.084-.372.007-.322.098-.258.184-.185.003-.001"/><path d="m737.802 349.437-.113.066-1.391.814-1.415.828M739.227 349.52l.459.223M740.605 350.381l.428.391.384.421M746.869 350.754l-.002.001-.174.032-.002.001-.023.004-.271-.044-.021-.008-.002-.001-.31-.115-.382-.198-.416-.266-.353-.262-.002-.001-.079-.059-.436-.367-.421-.397-.389-.412-.342-.412-.283-.394-.212-.363-.016-.038-.013-.032-.104-.247-.05-.259.037-.191.119-.115.001-.001h.002M746.625 349.508l.212.363M742.723 346.61l-.421.246-1.935 1.131-.773.452M744.324 347.208l.434.322M750.062 349.699l-.001.001-.13-.034-.205-.111-.271-.186-.327-.252-.371-.309-.4-.353-.414-.386-.411-.402-.394-.403-.36-.389-.128-.146-.001-.001-.184-.212-.255-.316-.185-.26-.109-.196-.029-.122.048-.041.004-.004.001.001.13.034M747.246 346.472l.399.353.413.385.344.336.012.011.055.054.393.403.299.322.014.015.046.05.313.359.255.316.185.261M745.939 345.577l-2.212 1.268M746.277 345.725l.272.186.327.252.319.266M751.481 350.44l-.06-.103-.137-.178-.207-.246-.272-.305-.324-.352-.364-.385-.391-.403-.403-.407-.398-.394-.379-.366-.345-.325-.297-.269-.239-.205-.17-.132-.097-.055M747.4 346.315l-.205.113M750.8 352.031l-.106-.176-.006-.009M639.17 444.936l.271-.256.341-.165.399-.069.121.008.006.001.313.022.466.129.473.223.461.307.433.381.386.439.327.48.253.503.171.507.081.491-.011.457-.016.066-.003.008-.041.163-.043.166-.191.336-.003.003-.268.253-.342.164-.399.068-.12-.008-.32-.023-.465-.13-.472-.222-.46-.308-.432-.38-.019-.02-.364-.414-.004-.004-.326-.479-.253-.503-.171-.506-.082-.491.011-.456.102-.404.188-.333.002-.004Zm0 0 1.401-2.431M642.754 449.553l.029-.01M634.107 451.794l.205-.2.279-.112.34-.02.388.073.423.164.44.247.224.164.012.009.205.15.424.384.285.313.107.119.344.462.03.05.182.306.011.019.06.1.21.47.131.447.046.405-.041.35-.126.279-.002.003-.205.197-.278.111-.34.019-.389-.074-.422-.164-.353-.198-.012-.007-.075-.042-.44-.322-.375-.34-.048-.044-.391-.431-.031-.041-.008-.011-.123-.165-.182-.244-.282-.475-.211-.469-.131-.446-.009-.074-.038-.332.04-.349.124-.278.002-.003Zm0 0 .036-.061 1.651-2.781M638.082 456.173l.004-.002M630.767 457.134l.001-.001.135-.137.211-.052.278.035.333.121.202.108.175.094.405.275.419.339.416.389.396.423.363.442.314.444.253.429.115.248.002.005.044.093.003.007.02.043.106.349.025.288-.057.217-.001.001-.135.135-.212.052-.277-.036-.005-.002-.329-.119-.09-.049-.007-.004-.28-.15-.404-.275-.399-.323-.001-.001-.018-.015-.415-.388-.396-.422-.362-.442-.313-.443-.254-.427-.167-.36-.017-.036-.063-.207-.044-.142-.026-.289.056-.215v-.002Zm0 0 .705-1.182 1.129-1.893M634.789 461.428l.003-.002M629.227 460.805l.002-.003.062-.068.142.012.213.094.276.172.33.244.056.046.001.001.313.259.395.356.407.393.259.268.002.002.141.145.274.303.107.118.346.409.297.384.238.342.169.288.093.223.014.149v.001l-.065.068-.142-.012-.213-.095-.131-.081-.008-.005-.138-.086-.33-.244-.369-.306-.395-.356-.405-.392-.401-.414-.381-.419-.345-.41-.137-.176-.001-.001-.16-.206-.238-.342-.169-.288-.094-.224-.015-.148v-.001Zm0 0 1.277-2.175.354-.603M633.297 465.012l.004-.001M629.9 462.017l-.4.705.072.079.149.154.22.225.283.287.334.337.373.375.397.398.406.405.4.398.378.375.341.337.292.287.231.225.161.155.085.079M634.512 466.351l.141.108.344.231.29.162.227.087.153.008h.001l.004-.002.311-.177M684.398 401.398l-.519-.278-.455-.373-.372-.454-.276-.517-.043-.142-.127-.42-.055-.583.059-.583.174-.56.279-.515.021-.025.355-.427.457-.37.521-.275.565-.168.587-.056.586.06.564.171.519.278.454.373.373.454.276.518.169.561.056.583-.06.582-.173.561-.279.515-.376.452-.457.37-.521.275-.565.168-.587.056-.586-.059-.564-.172ZM635.668 466.947l.313-.179"/><path d="m633.621 466.837.001.001h.006M633.629 466.838l.882-.488.002-.001.75-.415.002-.001.113-.062M633.361 464.944v.001l-.061.066-.004.004-.143-.013-.213-.095-.123-.076-.008-.005-.146-.091-.329-.244-.369-.305-.395-.356-.406-.392-.401-.414-.38-.42-.346-.409-.137-.177-.001-.001-.159-.205-.238-.343-.169-.288-.095-.223-.015-.15.001-.001M631.824 462.729l.27.297.004.004M633.297 465.015l.77-.403.002-.001.341-.178 1.274-.666M629.922 461.016l.329.243.055.046.001.001.314.259M634.979 461.079l-.056.214-.001.002-.131.131-.006.006-.211.051-.271-.034-.004-.001h-.003l-.333-.122-.077-.041-.007-.003-.293-.158-.405-.276-.398-.322-.001-.001-.018-.015-.415-.388-.396-.422-.362-.442-.313-.443-.254-.427-.167-.36-.001-.001-.016-.035-.064-.21-.043-.139-.026-.289.056-.218.002-.001.134-.136.211-.052M634.098 459.173l.314.444.254.428M634.785 461.432l.489-.235.004-.002.177-.085.002-.001.218-.104.002-.001 1.696-.816M631.922 457.21l.177.095.405.275M637.779 453.552l.029.049.172.289.011.019.071.119.211.47.131.446.045.406-.041.349-.124.277-.002.003-.199.192-.007.007-.279.111-.34.019-.389-.073-.422-.164-.334-.189-.013-.007-.093-.052-.439-.322-.378-.342-.046-.041-.391-.431-.043-.058-.008-.011-.113-.151-.179-.242-.283-.474-.211-.47-.131-.446-.009-.077-.037-.328.04-.35.125-.28.002-.003.109-.106.095-.092.199-.08.079-.032.34-.02.389.074.357.138.065.025"/><path d="m635.798 448.949-1.654 2.785-.039.066M638.078 456.178l3.09-1.31M643.64 448.466l-.042.168-.044.17-.189.332-.002.005-.271.254-.308.148-.034.017-.399.068-.124-.009-.316-.023-.465-.129-.472-.223-.461-.306-.431-.381-.02-.023-.365-.413-.002-.002-.326-.48-.253-.502-.171-.507-.082-.491.01-.455.103-.405.19-.336.003-.003.268-.252.341-.167M641.555 444.835l.462.308.432.38.339.384.048.055.242.356.085.125.253.503M640.641 442.388l-1.473 2.556M642.75 449.56l1.291-.44M646.651 435.09l-1.092 2.062-.158.45-.061.498.037.528.135.538.227.526.311.495.382.444.439.377.479.295.501.202.466.093.038.008.486-.004.209-.047 2.035-.451"/><path d="m645.559 437.153.249-.384.329-.303.22-.116.178-.094.451-.11.487-.004.504.1.501.202.48.295.44.377.382.445.311.496.227.527.135.538.037.528-.062.499-.159.45-.249.383-.042.038-.288.264-.398.21-.451.109M654.249 426.311l-.716 1.639-.205.485-.105.531v.557l.104.562.205.545.298.506.378.449.445.375.495.286.526.185.536.079 1.655-.038"/><path d="m653.531 427.949.298-.42.037-.033.342-.306.446-.245.495-.141.526-.032.537.078.525.186.496.285.446.375.378.45.298.507.205.545.104.562-.001.558-.105.531-.206.485-.298.42-.379.338-.446.244-.096.027-.4.114-.525.032M662.417 418.217l-.157.809-.03.577.08.577.188.557.287.515.375.452.45.373.507.28.81.36"/><path d="m662.262 419.026.138-.553.007-.014.23-.483.005-.011.013-.017.324-.427.418-.363.483-.267.53-.162.515-.047.041-.004.562.064.545.175.507.279.45.374.376.453.287.515.187.557.081.578-.03.576-.139.553-.243.509-.337.443-.418.363-.483.267-.53.162-.556.049-.561-.063-.171-.055-.374-.12M673.978 411.96l-.515-.278-.453-.372-.374-.455-.28-.518-.175-.562-.01-.093-.054-.492.05-.585.161-.563.268-.519.362-.454.445-.374.508-.277.414-.128.14-.044.577-.058.578.058.558.17.515.277.453.372.374.455.28.518.175.564.064.584-.05.585-.162.564-.267.517-.363.455-.444.373-.509.278-.553.171-.577.057-.579-.057-.557-.169ZM695.034 391.024l-.518-.283-.455-.374-.372-.452-.276-.513-.17-.553-.055-.572.059-.57.172-.545.279-.499.375-.435.456-.354.52-.258.564-.154.586-.042.585.069.563.18.518.282.454.374.372.452.276.512.17.553.056.572-.059.57-.172.545-.279.5-.374.435-.456.353-.52.259-.564.154-.586.043-.586-.07-.563-.179ZM709.505 378.266l.045.385.02.167-.048.546-.16.518-.264.471-.36.406-.441.324-.505.23-.551.128-.574.021-.576-.088-.555-.193-.514-.29-.452-.377-.373-.449-.28-.503-.176-.538-.065-.553.049-.546.16-.519.265-.471.36-.405.441-.323.188-.086.318-.144.55-.128.574-.02.575.088.555.193.513.29.452.377.373.448.28.503.176.538Zm0 0 .288 1.122M705.457 375.978l-1.133.319M719.324 370.688l-.135.481-.098.177-.14.254-.332.364-.413.282-.478.191-.525.092-.552-.011-.558-.113-.541-.212-.505-.301-.448-.38-.375-.443-.287-.491-.188-.517-.081-.526.027-.513.136-.482.239-.43.172-.188.16-.175.414-.283.478-.19.525-.091.552.012.556.113.541.212.504.301.448.379.374.443.287.49.188.517.082.525-.027.513Zm0 0-.177 1.941M714.813 367.463l-1.762.809M728.122 363.664l-.2.381-.293.312-.133.083-.24.148-.439.142-.489.047-.52-.051-.531-.145-.522-.235-.492-.315-.443-.383-.377-.437-.297-.474-.206-.492-.106-.492-.002-.472.101-.435.003-.006.198-.374.293-.312.373-.23.44-.141.489-.046.52.051.53.145.521.235.491.315.442.383.377.436.297.473.114.273.092.219.055.253.051.238.003.472-.1.434Zm0 0-.655 2.479M723.802 359.924l-2.173 1.164M669.295 453.861l-7.404 6.722-.146.133-5.54 8.324-.317.477-2.978 9.546-.035.111-1.136 9.935-.104.903-.026.229 1.488 9.889.188 1.244 2.408 9.705.574 2.312 3.748 9.271 1.078 2.669 5.271 8.498 1.614 2.601 5.781 8.16 1.832 2.585 6.278 7.785 1.796 2.227 7.581 6.521 1.733 1.491 8.519 5.237 1.304.802 9.315 3.637.606.236 3.12.532 6.433 1.098 9.951-1.691 8.222-3.44 7.671-6.415.142-.118"/><path d="m734.721 548.744-5.019 4.251-.332.283-6.269 2.96-6.939 1.283-1.901-.112-5.444-.32-7.469-2.122-4.597-2.341-2.716-1.382-6.884-5.181-6.199-6.439-5.285-7.456-4.174-8.195-2.907-8.629-.241-1.377-1.289-7.366-.091-8.528.196-1.156.72-4.24.441-2.598 1.905-4.936.855-2.218 4.068-6.039 1.244-1.115 3.983-3.57 1.48-.752 4.712-2.392 6.924-1.471 7.391.27 7.572 2.008 7.456 3.677 7.044 5.208 6.354 6.536 5.409 7.608 4.25 8.379 2.923 8.817 1.483 8.905-.012 8.642-1.499 8.04-2.921 7.127-4.032 5.674-.19.267Z"/><path d="m734.913 548.477-.118.1-6.259 2.96-2.413.449-4.515.84-7.33-.422-5.584-1.579-1.869-.529-7.296-3.705-6.867-5.159-6.182-6.415-5.268-7.43-4.159-8.169-2.895-8.604-1.054-6.047-.465-2.671-.084-8.507 1.362-7.974 2.51-6.488.252-.651 4.065-6.028 1.115-.999"/><path d="m669.293 453.861 8.796-4.757 1.114-.603 4.039-1.023 6.666-1.69 9.976-.693 2.271-.157 9.819 1.897 1.946.376 9.222 3.867 2.252.944 8.514 5.248 2.605 1.604 6.981 7.16 2.273 2.331 5.127 8.586 1.901 3.183 4.016 9.158 1.558 3.552 2.522 9.677.987 3.786.912 9.959.344 3.763-.047.558-.311 3.697-.779 9.264-1.958 9.806-.398 1.993-3.908 8.37-1.29 2.763-5.839 8.119-.344.479M1191.93 799.179l5.4 1.453 8.77 4.8 8.77 4.801 3.25 1.777 8.88 4.596 8.88 4.596 3.2 1.654 8.71 4.923 8.7 4.922 2.93 1.655"/><path d="m1181.3 803.002 9.66 2.582.25.067 8.78 4.791 8.78 4.791 3.21 1.754 8.89 4.586 8.88 4.586 3.17 1.633 8.71 4.914 8.7 4.914 2.9 1.63 6.19-4.895 3.79-5.846-6.51-7.586-3.16-3.675M1096.19 900.905l2.21-9.623 1.14-4.995.36-1.545 2.23-9.747.74-3.224.34-1.48.79-3.454-8.07-5.902-8.08-5.902-8.07-5.902-8.07-5.902-8.07-5.902-8.08-5.902-8.07-5.902-8.07-5.902-8.07-5.902-8.08-5.902-8.07-5.902-8.07-5.902-8.074-5.902-4.136-3.024-6.049 5.387.502 2.947 1.525 8.954 1.68 9.857 1.679 9.858.1.585 1.486 8.724 1.68 9.858 1.679 9.858 1.678 9.858 1.68 9.858 1.68 9.858 1.68 9.858 1.68 9.858.76 4.45 7.42 6.704 7.42 6.705 7.42 6.704 7.42 6.705 7.42 6.705 7.41 6.704 7.42 6.705 7.42 6.704 7.92 7.156 7.66 6.429 7.56 6.343 7.66 6.429 3 2.517 4.23 3.553.31.254.55.466 7.66 6.432 6.96 5.83 7.66 6.43 7.48 6.29 6.57-4.98 4.64-7.15-4.97-8.678-4.96-8.679-4.32-7.54-4.68-8.835-4.69-8.835-4.2-7.914-4.86-8.739-4.86-8.739-4.1-7.381-3.07-9.519-3.06-9.519-3.06-9.519-.55-1.688Z"/><path d="m994.922 787.087 1.698 9.855.685 3.977 1.698 9.855 1.697 9.855 1.28 7.421.23 1.353 1.7 9.855 1.7 9.855 1.7 9.855 1.69 9.855 1.7 9.855 1.7 9.854 1.7 9.855.55 3.19"/><path d="m1008.36 906.855 6.29-5.278 7.41 6.706 7.42 6.706 7.42 6.706 7.42 6.706 7.42 6.706 7.42 6.706 7.41 6.706 7.42 6.706 8.08 7.303 7.66 6.431 7.59 6.376 6.41 5.382 7.66 6.431 1.16.974 7.65 6.431 7.55 6.337 7.66 6.43 7.52 6.32M1774.95 69.187l-8.18-5.75-8.18-5.752-1.74-1.222-8.73-4.887-8.72-4.886-1.92-1.077-9.17-3.98-9.18-3.983-2.09-.907-9.52-3.043-9.53-3.044-2.24-.715-9.78-2.085-9.78-2.085-2.36-.503-9.94-1.114-9.93-1.114-2.45-.275-10-.142-10-.142-2.5-.035-9.97.825-9.96.826-2.52.208-9.84 1.777-9.84 1.778-2.48.448-9.63 2.71-9.62 2.71-2.41.677-9.33 3.612-9.32 3.612-2.3.89-8.94 4.48-8.94 4.481-2.15 1.078-8.48 5.307-8.48 5.307-1.97 1.236-7.94 6.086-7.93 6.087-1.77 1.36-7.32 6.813-7.32 6.812-1.56 1.447-6.64 7.479-6.64 7.479-1.33 1.498-5.89 8.079-5.89 8.079-1.11 1.513-5.08 8.608-5.09 8.609-.89 1.494-4.23 9.059-4.23 9.06-.68 1.447-3.33 9.428-3.33 9.429-.49 1.377-2.4 9.708-2.39 9.709-.32 1.291-1.43 9.898-1.42 9.897-.18 1.195-.21 2.37-.45 9.991-.44 9.99-.05 1.152.55 9.985.55 9.985.06 1.057 1.54 9.88 1.54 9.881.16.97 2.52 9.677 2.52 9.677.23.896 3.48 9.376 3.47 9.377.31.835 4.4 8.982 4.39 8.982.39.787 5.27 8.5 5.26 8.501.47.75 6.08 7.934 6.09 7.935.55.722 6.84 7.295 6.84 7.294.66.699 1.46 1.388 7.52 6.586 7.53 6.586.66.58 8.13 5.821 8.14 5.82.78.559 8.66 5.003 8.65 5.003.91.526 9.1 4.146 9.1 4.147 1.05.478 9.46 3.256 9.45 3.257 1.19.409 9.72 2.345 9.72 2.345 1.33.32 9.9 1.416 9.9 1.416 1.46.209 9.99.482 9.99.481 1.58.076 9.99-.455 9.99-.454 1.67-.077 9.91-1.382 9.9-1.383 1.75-.244 9.74-2.298 9.73-2.298 1.79-.424 9.48-3.193 9.48-3.192 1.81-.61 9.14-4.061 9.14-4.061 1.79-.797 8.72-4.896 8.72-4.896 1.74-.978 8.22-5.693 8.22-5.693 1.66-1.149 7.65-6.442 7.65-6.443 1.55-1.305 7-7.141 7-7.141 1.41-1.441 6.28-7.779 6.29-7.779 1.25-1.555 5.5-8.351 5.5-8.351 1.09-1.644.95-1.799 4.66-8.848 4.66-8.849.97-1.849 3.76-9.267 3.76-9.266.77-1.898 2.82-9.595 2.81-9.595.57-1.924 1.83-9.831 1.83-9.83.36-1.931.83-9.966.82-9.966.16-1.921-.21-9.998-.2-9.998-.04-1.897-1.24-9.923-1.24-9.923-.23-1.865-2.27-9.74-2.27-9.74-.42-1.824-3.27-9.45-3.27-9.45-.62-1.777-4.24-9.055-4.24-9.056-.81-1.722-1.03-2.199-5.16-8.563-5.17-8.562-.97-1.605-6.03-7.976-6.03-7.976-1.16-1.533-6.83-7.306-6.83-7.306-1.35-1.447-7.55-6.56-7.54-6.56-1.55-1.345Z"/><path d="m1729.28 314.611-7.65 6.443-7.65 6.443-.48.407-8.68 4.959-8.69 4.958-.85.488-8.6 5.102-2.3 1.362-7.09 4.206-9.63 2.698-9.63 2.697-2.09.586-6.43-.534-9.96-.83-1.66-.138-5.22-.434-9.57-2.898-9.57-2.898-.73-.221-5.47-2.753-8.93-4.5-6.29-3.172-5.95-4.648-7.87-6.16-2.46-1.919-6.46-7.629-6.47-7.629-1.91-2.262-5-8.664-4.99-8.665-.45-.776-3.01-9.535-3.02-9.534-.74-2.344-.78-9.969-.78-9.97-.2-2.611 4.22-9.063 4.23-9.064.42-.911 3.82-9.244 3.81-9.244.24-.571 4.87-8.736 4.86-8.735.29-.521 6.37-7.709 6.37-7.709.24-.29 7.63-6.46 7.73-6.543 8.65-5.034 8.54-4.976 9.38-3.471.41-.152 8.65-3.204 9.96-.909 9.96-.909 5.56-.509 9.95 1.028 9.59.991 9.26 3.768 7.68 3.125 8.82 4.718 6.92 3.704 7.86 6.174 7.87 6.174 3.12 2.449 6.45 7.644 6.08 7.217 5.42 8.404 4.17 6.46 3.79 9.252 3.1 7.559 1.2 9.928 1.2 9.928.37 3.04-1.19 9.928-1.2 9.929-.19 1.622-3.33 9.429-3.17 8.964-4.93 8.7-4.86 8.584-6.39 7.697-6.38 7.698-.16.194Z"/><path d="m1773.25 262.894 1.2-9.927 1.2-9.928.57-4.731-1.19-9.929-1.2-9.929-.76-6.357-3.79-9.254-3.79-9.254-.3-.744-5.42-8.406-5.42-8.406-.13-.211-6.45-7.646-6.45-7.645-1.45-1.728-7.87-6.172-7.87-6.173-5.85-4.591-8.82-4.714-8.82-4.713-.38-.206-9.27-3.761-9.26-3.761-.87-.353-9.95-1.02-9.95-1.021-2.46-.252-9.96.919-9.96.92-9.24.853M1522.04 301.858l1.95 6.419.64 6.483-.42 6.871.01 5.18-1.6 4.624-4.27 3.368-3.79 2.85-2.41.093-4.36 1.887-5.04.134-4.17-3.247-2.03-2.944-4.1-2.975-4.62-5.469-2.3-2.536-3.3-7.238-.8-2.734-1.34-7.7.74-2.654.75-7.195 2.14-2.032.15-5.731 1.36-4.713M1479.74 274.105l-.2 7.634M1517.36 341.199l3.22-.12 5.06-3.789 5.71-4.481 2.15-6.163M1476.7 284.458l-.99 9.578M1474.74 297.57l1.72 9.851.07.383M1533.49 319.735l.58-9.17M1511.24 268.638l-7.58-3.439-5.88-1.155M1512.02 285.438l2.63 5.417M1520.75 278.665l-3.51-7.227M1574.68 429.037l2.21.53 8.73 2.09 6.1 1.46 8.29.584 8.57.001 1.08-1.214 4.29-1.34 7.76-1.382 5.48-1.71.09-2.107M1543.4 414.751l6.43 4.26 7.51 3.986.84.384M1543.4 414.751l3.59-2.36.59-.842-3.37 2.057M1540.54 409.667l3.67 3.939M1528 374.22l-.79 3.914-.46 4.891-1.66 3.659-2.28 2.217 3.49 2.492 4.6 3.29 3.77 4.617-1.48 1.693M1643.01 390.019l-.4-.765-2.01-3.79-3.66-4.783M1643.43 420.621l-.04-3.655 2.99-4.192 2.24-3.529 1.79-.26.37-4.025-.68-4.913-1.58-4.776"/><path d="m1526.73 372.832 1.26 1.387 6.75 7.383.08.09.96.841M1551.43 360.228l-6.56 1.861-4.53.689-2.96.337-4.57 2.981-3.9 3.565M1578.2 416.89l-4.42-1.056-1.13-.268-1.74-.597-4.29-1.467-2.34-.799-.43-.195-3.81-2.022-3.25-2.163.41-.584-1.85-1.999-2.68-2.61-1.03-1.786.76-.857-1.9-2.335-2.33-1.664-1.76-1.261 1.17-1.116.86-1.84.25-2.459.44-2.081-.66-.58 1.12-1.586 1.98-1.776 2.32-1.479 1.49-.16 2.29-.334 3.3-.913M1567.15 379.844l2.14.715 4.4.31M408.102 779.44l-7.573-5.625-7.985-4.894-8.314-4.117-8.563-3.298-3.344-1.275-9.174-2.575-9.253-1.656-4.458-.437-9.605-.753-9.495.222-5.176.605-9.558 1.225-9.255 2.209-5.459 1.737-9.023 3.223-8.535 4.165-5.312 2.825-8.031 5.102-4.785 3.759-7.368 5.945-6.651 6.734-3.982 4.477-5.804 7.373-4.982 8.014-2.925 4.853-4.026 8.397-1.829 5.098-3.042 8.588-2.159 8.96-1.259 9.249-.517 4.346-.332 9.05.54 9.156 1.406 9.176.512 2.941 2.135 8.621 2.92 8.479 3.675 8.257 4.395 7.959 5.073 7.587 5.704 7.144 6.28 6.636 6.799 6.063 7.255 5.437 7.642 4.758 7.958 4.035 2.868 1.296 8.666 3.458 8.843 2.62 8.937 1.755 4.481.634 9.34.912 9.263-.02 5.225-.418 9.395-.984 9.138-1.942 5.533-1.552 8.985-2.945 8.547-3.882 5.41-2.65 8.121-4.839 4.884-3.576 7.528-5.719 6.849-6.538 4.109-4.307 6.052-7.24 5.25-7.924 3.082-4.704 4.315-8.385 2.005-4.943 3.335-8.66 2.437-9.082.779-4.614 1.456-9.059.55-9.291-.365-9.433-.36-3.39-1.215-9.018-2.073-8.973-2.911-8.841-3.722-8.62-4.499-8.313-5.229-7.923-5.91-7.454-6.531-6.912-7.088-6.299Z"/><path d="m332.134 925.308-6.983 6.161-8.208 4.775-7.46 4.633-9.167 2.379-9.934-1.145-.747-.087-9.313-3.1-8.809-4.732-.939-.505-7.811-6.267-6.465-7.629-.778-.917-5.122-8.589-.106-.178-3.335-9.427-.302-.854-1.367-9.907-.108-.784 2.909-8.566 3.108-8.912 4.287-8.451 5.664-7.304 6.78-5.963 7.63-4.49 8.223-2.935 9.985-.562 1.437-.081 8.942 1.248 7.684 3.608 7.238 4.274 7.748 6.321.682.556.485.395 6.194 7.137 4.926 7.065.814 1.746 2.899 6.223 1.761 9.844.175.977-.509 10.079-2.47 8.618-4.059 8.081-5.579 7.265Z"/><path d="m356.584 898.796.511-9.987.082-1.595-.18-1.008-1.757-9.845-.282-1.583-4.22-9.066-.043-.094-2.772-3.977-2.887-4.143-2.654-3.058-4.463-5.144-7.75-6.32-2.496-2.036-7.026-4.145-1.294-.763-8.832-4.141-9.905-1.377-.373-.052-9.984.569-3.142.179M244.581 929.54l-2.419-1.383-1.675-1.783-1.01-1.453-1.435-1.748-1.932-2.87-.865-1.383-1.697-3.549-.476-1.311-1.114-3.589-.065-1.103-.112-.852-.304-2.319.33-.647-.31-2.639.093-2.04"/><path d="m243.853 913.182 1.176 3.048.804 2.949.541 3.023.574 2.279.079 1.87-.919 1.105-.835.924-.698-.183-.919.362-.065.026-1.431-.427M231.004 906.011l.955 4.461M251.078 927.139l-.101-2.491M239.48 904.858l1.173 2.718.859 1.731M242.587 902.11l-1.564-3.622M244.582 929.54l1.907.57M306.695 970.23l1.669-.418-.789-.701 1.598-.45 2.564-.008 2.247-.006-.868-1.164M265.645 955.375l.829.981 1.273 1.057 2.343 1.697 1.712 1.274.104.247 2.552 1.467 2.731 1.459.292.147 2.769 1.21M302.64 971.17l-.042-.365M292.918 969.452l2.793.827M294.231 950.11l-3.961-1.872"/><path d="m258.812 949.434 2.963 2.931 1.232.923 1.625 1.218 1.013.87.742.64M280.25 964.914l2.137.853M257.098 944.589l.478 1.026 1.002 1.875.374 1.283-.14.66M304.723 956.112l-2.328-2.051M310.251 959.886l-1.993-1.84M256.215 943.496l.884 1.093 2.783 3.44.47.418"/><path d="m265.9 940.048-2.607-.669-1.346.797-1.933.335-1.439-.019-.872-.099-.868.847-.545 1.138-.075 1.118M284.768 963.987l-2.02-.598-.513-.152-.806-.321-1.981-.79-1.08-.431-.201-.101-1.883-1.006-1.76-1.012-.071-.171-1.18-.878-1.614-1.17-.876-.729-.058-.235-1.209-1.04-1.121-.84-.848-.635.074-.331-.184-.645-.501-.943-.359-.776-.323-.288.042-.56.279-.569.442-.421.441.052.726.012.976-.164M271.148 949.188l.907.417 1.724.348M1378.62 284.106l-7.17-6.965-7.18-6.965-7.18-6.965-.29-.291-6.97 7.176-6.96 7.175-6.97 7.175-.29.3 7.17 6.965 7.18 6.965 7.18 6.965.29.291 6.97-7.176 6.97-7.175 6.96-7.175.29-.3ZM1347.63 252.194l-7.18-6.966-5.87-5.699-6.97 7.176-5.7 5.871 7.18 6.965 5.87 5.699 6.97-7.175 5.7-5.871ZM1367.26 237.445l-7.18-6.965-1.75-1.698-6.96 7.175-1.7 1.749 7.17 6.966 1.75 1.698 6.97-7.176 1.7-1.749ZM2215.48 1165.2l-7.15-6.98-7.16-6.99-7.16-6.98-7.16-6.98-7.16-6.98-7.16-6.98-7.16-6.99-7.16-6.98-7.16-6.98-7.15-6.98-7.16-6.99-7.16-6.98-7.16-6.98-7.16-6.98-7.16-6.98-7.16-6.99-7.16-6.98-7.16-6.98-7.15-6.98-7.16-6.98-7.16-6.99-7.16-6.98-7.16-6.98-7.16-6.983-7.16-6.982-7.16-6.982-7.16-6.982-7.16-6.982-7.15-6.983-7.16-6.982-7.16-6.982-7.16-6.982-7.16-6.982-7.16-6.982-7.16-6.982-7.16-6.982-7.16-6.982-7.15-6.983-7.16-6.982-7.16-6.982-7.16-6.982-7.16-6.982-7.16-6.982-7.16-6.982-7.16-6.982-7.16-6.983-7.15-6.982-7.16-6.982-7.16-6.982-7.16-6.982-7.16-6.982-8.08-7.876 6.99 7.159 6.98 7.158 6.98 7.159 6.98 7.159 6.98 7.159 6.99 7.159 6.98 7.159 6.98 7.159 6.98 7.159 6.99 7.159 6.98 7.159 6.98 7.159 6.98 7.159 6.98 7.158 6.99 7.159 6.98 7.159 6.98 7.159 6.98 7.159 6.98 7.159 6.99 7.159 6.98 7.159 6.98 7.159 6.98 7.159 6.98 7.159 6.99 7.159 6.98 7.158 6.98 7.159 6.98 7.156 6.99 7.16 6.98 7.16 6.98 7.16 6.98 7.16 6.98 7.16 6.99 7.16 6.98 7.16 6.98 7.16 6.98 7.15 6.98 7.16 6.99 7.16 6.98 7.16 6.98 7.16 6.98 7.16 6.99 7.16 6.98 7.16 6.98 7.16 6.98 7.15 6.98 7.16 6.99 7.16 6.98 7.16 6.98 7.16 6.98 7.16 7.88 8.07M618.242 441.013v.001M619.615 437.525l-.002.003M622.016 444.899l.423.758.003.005.421.754.001.002 2.778 4.976M629.224 460.807l-.001.001M630.764 457.133l-.002.003M635.668 466.946h.002M634.41 464.433l.968 1.438v.001l.604.896 5.585 8.295 5.586 8.295 4.481 6.655M731.219 339.399l.127-.226M735.956 342.051l-4.739-2.651-.001-.001-1.364-.763M750.641 351.923l.044-.077.001-.002.791-1.396.005-.007v-.001M742.75 346.604l-.282-.19-2.288-1.542M938.316 786.709l-.695 1.25-.002.002-.338.608-.001.002-.686 1.233M937.927 786.389l-.849 1.506M943.339 784.377l-.003.005-.564 1.115-.003.005-.337.665-.001.003-.283.558-.001.002-.393.775M948.522 780.678l-.003.007-.016.034-.003.007-1.137 2.475M945.844 792.868l2.008 1.643 1.167.955M954.319 800.568l-.565 1.041M955.843 800.646l-.002.002-.333.637-.164.315M959.516 798.303l-.24.492-.002.002-.364.745M1074.57 665.03v-.001M1077.84 657.266l.11-.195M1076.73 661.034l1.63-2.882M1083.26 686.916l1.84-3.365M1089.63 674.367l.11-.2M1089.63 674.368v.001l.23.296M1088.68 678.058l.24-.425 1.28-2.321M962.152 805.284l8.567 5.158 5.174 3.115 4.353 2.622 8.567 5.158 5.545 3.338M1112.91 895.494l-.14-.15M1115.41 896.695v.001M1117.68 890.686l.01-.002.1-.023M1119.99 893.533v.002M1098.4 891.282l6.51 3.638.83.462v.001l1.2.669M1084.8 670.795l-.61-1.01-3.87-6.423"/><path d="m1099.46 695.115-5.17-8.564-5.16-8.564-.21-.354M1177.29 835.974v-.001M1182.56 825.677l.81-1.405M1179.62 822.129l-.61-1.094v-.001l-.34-.597v-.001l-4.88-8.728-1.52-2.714"/></g><defs><clipPath id="a"><path fill="#fff" d="M0 0h1920v1080H0z"/></clipPath></defs></svg>