<svg width="1920" height="1080" fill="none" xmlns="http://www.w3.org/2000/svg"><g clip-path="url(#a)" stroke="#EFC018" stroke-width="5" stroke-linejoin="round"><path d="m1084.12 669.519-.02.011M1090.25 674.558l-.06-.096-.15-.184-.24-.266-.31-.338-.37-.395-.42-.439-.46-.465-.47-.474-.47-.464-.44-.437-.41-.392-.36-.334-.29-.261-.21-.179-.12-.091-.04.002-.44.244-.01.001-.45.248-.07.038-.01.001"/><path d="m1090.25 674.558-.04.003-.12-.089-.21-.179-.29-.261-.36-.333-.41-.393-.44-.438-.47-.465-.47-.475-.46-.466-.42-.44-.38-.396-.3-.337-.24-.266-.15-.183-.06-.094v-.001M1089.59 676.828v-.003l.02-.175-.08-.26-.14-.282-.02-.055-.25-.401-.33-.447-.22-.273v-.002l-.16-.204-.44-.491-.46-.484-.48-.459-.48-.417-.45-.358-.35-.25-.05-.035-.36-.203-.28-.111-.2-.015-1.32.685"/><path d="M1089.59 676.825v.001l-.11.081-.2-.015-.26-.1-.03-.01-.35-.202-.41-.285-.11-.089-.16-.127-.18-.143-.47-.417-.48-.46-.47-.486-.43-.492-.39-.479-.33-.448-.24-.401-.17-.336-.07-.26.02-.172v-.002l.1-.073.01-.007"/><path d="M1089.59 676.826v.002l-.11.082-.2-.015-.26-.1v-.001l-.03-.009-.35-.202-.41-.285-.1-.084-.17-.132v-.001l-.18-.142-.47-.417-.48-.46-.47-.486-.43-.492-.39-.479-.33-.449-.25-.4-.16-.336-.07-.26.02-.174v-.001l.11-.08.2.016.28.111M1088.4 674.729l.17.204v.002l.22.272.32.449M1089.36 676.055l.03.055v.001l.14.281M1087.55 680.482l1.51-2.712.53-.942M1085.75 672.273l.35.247.45.358M1088.82 673.307l-.44-.438-.47-.465-.47-.475-.46-.466-.42-.44-.37-.396-.31-.337-.24-.265-.15-.184-.06-.095.04-.002.12.091.21.179.29.261.36.334.41.392.44.437.47.464.47.474.46.465.42.439.37.396.31.337.24.266.15.184.06.095v.001l-.04.003-.12-.089-.21-.179-.29-.261-.36-.333-.41-.393Z"/><path d="m1085.43 669.746-.44.243-.01.001-.46.249-.06.038-.01.001"/><path d="m1084.99 669.99-.21-.154-.3-.195-.23-.107-.13-.015v.001l-.02.01M994.92 769.795l.028-.627.009-.033.005-.021.142-.539.276-.535.382-.452.005-.006.482-.362.559-.253.615-.133.646-.01.654.115.636.235.592.347.529.444.44.525.34.586.22.623.1.638-.03.627-.15.593-.28.535-.39.457v.004l-.48.358-.13.06-.02.009-.409.183-.614.133-.647.009-.653-.115-.635-.235-.592-.347-.527-.444-.442-.524-.339-.585-.223-.623-.099-.637Zm0 0-.006-.086M999.691 773.163l.023-.005M984.797 777.856l.116-.137.009-.009.219-.258.004-.005.444-.314.522-.207.58-.092.616.027.629.145.616.257.581.359.522.448.444.519.349.57.241.6.122.606v.588l-.123.55-.241.488-.164.192-.007.008-.178.208-.005.004-.44.31M987.309 782.838l-.616-.257-.58-.359-.522-.448-.443-.518-.349-.57-.24-.598M975.18 786.713l.191-.43.295-.346.003-.004.393-.255.095-.03.009-.003.368-.117.535-.04.575.072.595.182.59.283.564.375.516.452.448.512.362.551.263.57.153.566.038.542-.064.404-.002.008-.013.083-.192.43-.299.349-.004.003-.389.251-.473.149-.534.039-.575-.073-.594-.181-.59-.284-.563-.375-.515-.451-.447-.51-.362-.551-.262-.569-.154-.565-.039-.541.078-.496Zm0 0 .013-.039M980.207 791.121l.011-.006M967.391 793.059l.234-.278.002-.003.331-.186.413-.085.479.02.305.072.01.003.211.049.554.224.559.314.544.393.508.457.451.502.378.529.291.536.11.303.004.009.076.209.085.486-.026.433-.134.364-.237.28-.004.002-.328.183-.413.083-.479-.02-.526-.125-.553-.224-.558-.314-.543-.393-.507-.455-.45-.502-.378-.528-.29-.534-.191-.521-.085-.486.024-.433.133-.364Zm0 0 .002-.005M972.207 797.875l.075-.04M961.102 797.988l.165-.203.002-.002.261-.111.123-.005.221-.008.342.07.005.001.069.014.47.181.06.032.448.238.524.348.521.412.499.462.456.492.396.505.321.498.233.471.137.426.035.365-.068.291-.168.204-.003.001-.258.109-.346.012-.323-.067-.005-.001-.088-.018-.47-.182-.506-.27-.524-.347-.52-.412-.354-.328-.002-.002-.141-.131-.455-.491-.082-.105-.007-.009-.307-.39-.32-.497-.234-.47-.138-.426-.036-.366.03-.132.001-.004.036-.155Zm0 0 .002-.005M966.156 802.669l3.443-1.92M956.783 801.451l-.102-.295-.005-.214.09-.124.002-.002.128-.023h.005l.052-.009.271.062.348.154.41.241.457.318.486.383.497.433.316.302.003.003.169.161.461.483.415.479.298.385.001.001.055.071.173.259.107.16.194.363.051.149v.001l.049.144.005.213-.093.125h-.003M960.82 805.487l-.41-.241M961.441 805.706l-.272-.064-.172-.076-.001-.001"/><path d="m961.625 805.674.829-.467.314-.177 2.493-1.405M954.232 801.816l.107.047.19.134.004.004h.001l.277.224.347.302.405.366.446.419.471.454.478.471.465.472.436.453.285.305.005.005.099.107.328.365.253.299.169.222.078.135-.014.044-.001.001-.001-.001-.106-.048-.196-.139-.277-.225-.348-.301-.404-.367-.446-.418-.47-.453-.477-.47-.464-.471-.435-.452-.388-.416-.328-.365-.253-.299-.17-.222-.079-.137.013-.045Zm0 0 .057-.106.001-.001.246-.46v-.001l.33-.616M959.062 806.645l1.932-1.077M954.059 800.146l-.351.638-.001.002.028.126.118.213.205.294.23.29M1058.61 713.831l-.25.556-.03.039-.32.44-.45.384-.52.273-.59.154-.62.026-.63-.1-.62-.225-.58-.339-.52-.442-.45-.526-.35-.592-.23-.633-.13-.651.01-.643.12-.611.25-.556.35-.479.45-.383.53-.273.3-.078.28-.074.62-.026.63.101.62.224.58.34.52.441.45.526.34.59.24.633.12.65v.643l-.12.611Zm0 0-.45 1.655"/><path d="m958.249 805.579.327.365.253.299.169.222.079.135-.015.044v.001l-.108-.049-.196-.139-.277-.225-.347-.301-.405-.367-.445-.418-.47-.453-.477-.47-.464-.471-.435-.452-.389-.416-.327-.365-.253-.299-.17-.222-.08-.137.014-.045h.001l.105.047.194.137.002.001.003.003.273.221.348.301.404.367.447.419.471.454.477.471.466.472.436.453.283.303.004.005M959.062 806.646v-.001M957.395 799.524l-.593 1.165-.002.003-.128.252.005.214.101.294.195.364.098.146.181.272.354.456.415.479.46.481.487.465.495.433.39.307.001.001.095.074.456.318.41.241.175.078.001.001.172.076.272.063.186-.031.833-.469.314-.177"/><path d="m956.672 800.944.007-.01.084-.116h.002l.132-.023.004-.001.048-.009.271.062.348.155.41.241.457.318.486.382.497.434.314.3.004.003.17.163.461.482.415.48.298.385.001.001.055.071.169.253.111.166.194.363.051.149.049.145.004.213-.092.123-.001.002M965.981 800.915l.233.471.137.426.035.366-.067.29-.167.202-.001.002-.262.11-.346.013-.315-.066-.005-.001-.095-.02-.471-.182-.506-.269-.524-.348-.52-.412-.355-.329-.001-.001-.141-.13-.455-.492-.092-.117-.007-.009-.296-.378-.321-.496-.234-.471-.137-.426-.037-.365.032-.139.001-.003.034-.149.007-.009.16-.196.003-.002.258-.11.135-.005.21-.008.35.072.005.001.06.013.471.181.056.03.451.239M966.152 802.672l3.453-1.926M972.773 797.415l-.234.277-.004.003-.25.14-.081.045-.412.084-.48-.021-.526-.125-.553-.224-.559-.314-.543-.392-.506-.456-.451-.502-.377-.528-.289-.534-.192-.52-.086-.487.025-.433.133-.364.008-.01.229-.271.003-.002.328-.184M970.484 793.194l.544.393.508.457.451.502.378.53M972.848 796.132l.084.486M972.203 797.88l3.067-1.647M968.844 792.532l.316.075.01.002.201.048M981.086 790.095l-.192.43-.295.345-.004.004-.374.241-.019.012-.473.15-.534.039-.575-.073-.594-.182-.59-.283-.563-.375-.515-.451-.447-.511-.361-.55-.263-.569-.154-.566-.039-.541.078-.495.021-.046.171-.385.298-.349.004-.003.388-.252.105-.033.008-.003M980.348 787.37l.362.552.263.57.153.566.038.541-.063.397M976.527 785.535l.534-.04.575.072.595.182.591.283.564.375M980.199 791.127l2.697-1.323M984.426 778.902v.588l.123.606.24.599.349.569.444.518.521.448.58.359.616.257.627.145.616.027.58-.091.523-.206 2.261-.925"/><path d="m984.426 778.902.049-.22.073-.329.24-.489.125-.146.008-.01.215-.253.005-.003.439-.311.522-.207.58-.092.617.027.628.145.616.257.581.359.522.448.445.519.349.57.24.6.122.606v.588l-.123.55-.241.488-.157.184-.007.008-.181.212-.004.004-.43.303-.014.011M1000.73 772.553l-.01.005-.48.362-.11.051-.02.009-.396.178-.032.014-.615.133-.646.01-.653-.116-.635-.235-.593-.346-.527-.444-.441-.525-.339-.585-.224-.623-.099-.637.004-.095.024-.532.015-.054.005-.02.136-.519.276-.535.387-.457.005-.004M999.348 767.184l.593.347.529.444.44.525.34.586M1001.57 770.346l-.03.627M996.238 767.23l.559-.253M997.41 766.843l.647-.01M999.68 773.172l1.58-.377M1008.44 762.211l-.6-.337-.53-.441-.44-.529-.33-.596-.22-.641-.08-.66.04-.655.18-.623.3-.569.41-.493.51-.397.58-.286.64-.164.66-.036.67.094.65.219.6.337.53.442.44.529.33.597.22.641.08.66-.05.655-.17.624-.3.569-.41.492-.51.397-.58.285-.64.164-.66.036-.67-.094-.65-.22ZM1020.23 750.685l-.6-.331-.53-.44-.44-.532-.33-.602-.21-.651-.08-.673.05-.671.19-.642.3-.588.42-.512.52-.417.59-.305.64-.182.68-.051.67.081.65.211.61.331.53.44.44.532.33.603.21.65.08.674-.06.67-.18.642-.31.588-.42.513-.51.416-.59.305-.65.182-.67.051-.67-.081-.66-.211ZM1032.12 738.771l-.6-.33-.53-.44-.44-.532-.33-.604-.21-.652-.09-.677.05-.673.18-.646.3-.593.41-.516.51-.421.58-.31.64-.185.67-.055.67.079.64.208.61.33.53.439.44.532.33.604.21.652.09.676-.05.674-.18.646-.3.592-.41.517-.51.421-.58.31-.64.185-.67.055-.67-.078-.65-.208ZM1048.06 723.18l.04.262.06.406-.02.5-.01.165-.16.635-.27.581-.39.506-.49.41-.56.299-.62.176-.65.047-.65-.085-.64-.213-.59-.333-.53-.44-.44-.53-.34-.6-.23-.647-.08-.547-.01-.122.03-.664.16-.636.28-.581.39-.505.48-.41.56-.298.62-.176.65-.046.65.085.64.213.51.283.08.05.53.439.44.53.34.6.22.646Zm0 0 .1.435M1067.9 703.915l-.3.438-.31.265-.09.079-.48.235-.53.118-.58-.004-.6-.125-.6-.242-.56-.35-.52-.444-.45-.521-.36-.578-.26-.613-.15-.623-.04-.611.09-.575.19-.516.31-.437.14-.127.25-.216.48-.235.54-.117.58.005.6.125.59.243.57.349.51.444.45.52.36.577.26.612.15.623.04.61-.08.574-.2.517Zm0 0-.97 2.331M1076.01 694.649l-.24.385-.34.291-.42.185-.21.032-.27.041-.53-.044-.56-.157-.56-.266-.55-.363-.51-.447-.45-.514-.38-.561-.29-.586-.19-.588-.08-.569.03-.526.07-.231.07-.234.24-.384.34-.29.42-.184.48-.071.54.044.55.158.56.265.55.363.51.447.45.513.38.559.28.585.19.588.08.568-.02.526-.14.465Zm0 0-1.36 2.758M1082.44 686.877l-.17.322-.27.228-.35.125-.42.018-.48-.091-.46-.176-.05-.02-.53-.293-.52-.38-.5-.451-.46-.505-.39-.54-.32-.554-.21-.501-.02-.046-.14-.518-.02-.38v-.006l-.01-.083.07-.403.18-.321.27-.227.35-.124.42-.017.47.092.45.17v.002l.06.024.07.037v.002l.46.255.52.379.5.45.46.504.39.539.32.553.23.545.14.518.03.47-.07.403Zm0 0-1.67 3.117M1077.63 682.074l-1.44.614M1086.91 681.074l-.19.158-.28.057-.35-.044-.42-.144-.46-.239-.49-.325-.5-.398-.49-.455V679.675l-.46-.487-.41-.517-.35-.518-.28-.499-.19-.461-.1-.405v-.334l.1-.25.06-.048v-.001l.03-.02v-.003l.1-.085.28-.056.35.045.42.145.46.239.49.325.5.397.26.246v.001l.23.207.46.495.41.515.35.517.28.499.19.461.1.405V680.823l-.1.251Zm0 0-1.92 3.486"/><path d="m1082.23 676.047-.13.061v.002l-.03.013v.001M723.926 335.297l-8.727-4.882-6.116-3.42-8.884-4.591-8.884-4.591-8.884-4.591-4.369-2.258-8.916-4.528-8.916-4.528-8.916-4.528-4.452-2.26-9.163-4.003-9.164-4.004-9.164-4.003-5.239-2.289-9.576-2.882-9.576-2.881-9.575-2.882-9.576-2.882-9.576-2.881-9.576-2.882-9.576-2.882-3.324-1 2.853 9.584 2.852 9.585 2.853 9.584 2.853 9.585 2.852 9.584 2.853 9.585 2.852 9.584.731 2.454 3.993 9.169 3.992 9.168 3.993 9.168 2.185 5.017 4.523 8.918 4.523 8.919 4.523 8.919 2.193 4.323 4.587 8.886 4.586 8.886 4.587 8.886 2.212 4.288 4.88 8.729 3.716 6.647M1079.06 664.328l-.67 2.322-3.2 4.805-5.65 7.144-2.31 2.703-.01.003-.16.192-.01.005-1.41 1.655-.01.007-3.16 3.688-.01.007-.83.973-.23.25-.01.007-.85.949-2.54 2.821-.01.008-3.13 3.478-.01.008-.8.885-.01.008-2.3 2.561-.15.155-2.13 2.281-.01.008-3.65 3.91-.01.009-.38.408-.01.01-3.53 3.78-1.61 1.717-.17.177-.01.01-4.28 4.447-5.75 5.972-2.38 2.471-2.15 2.171-5.94 6.009-4.64 4.685-.45.459-5.56 5.47-4.59 4.527-3.06 3.009-2.859 2.737-4.453 4.264-5.365 5.136-.195.18-.494.458-3.847 3.565-4.836 4.48-.958.887-1.285 1.192-2.154 1.913-3.578 3.177-1.195 1.061-3.152 2.8-.685.571-1.206 1.006-.022.018-6.233 5.2-5.915 4.397-3.487 1.869-.97-.685"/><path d="m947.955 794.362-.748 1.538.98.706 3.543-1.895 6.017-4.472 7.018-5.852.183-.152 1.092-.911.488-.434 3.514-3.12 1.263-1.122 3.688-3.275 1.309-1.162 2.026-1.878.958-.887 4.901-4.54 3.814-3.535.131-.121.358-.343 5.572-5.334 4.443-4.253 2.545-2.433 3.36-3.313 4.62-4.542 5.47-5.396.52-.519 4.65-4.7 5.92-5.994 2.34-2.361 2.21-2.294 5.74-5.957 4.28-4.447.01-.009.59-.615 1.19-1.274 3.55-3.795.01-.01.38-.408.01-.009 3.62-3.879.01-.008 2.13-2.281.79-.843 1.72-1.91.01-.008.81-.903.01-.009 3.06-3.392v-.008l2.51-2.787.98-1.082.01-.007.96-1.07.15-.176.01-.007 2.94-3.44.01-.007 1.68-1.961.01-.006.31-.361v-.004l2.95-3.439 5.75-7.269 3.25-4.886.67-2.356-1.88.212-.07.043M628.363 455.102l.417.618 1.555 2.306.083.124M740.457 345.002l-2.528.13-4.62 2.294-6.562 4.405-3.615 2.784-.001.001-.332.256-.003.002-1.749 1.347-.007.006-2.459 1.893-.006.005-.096.074-1.105.927-.006.005-1.464 1.227-2.276 1.908-.007.006-2.521 2.113-.007.006-.767.644-.008.006-1.499 1.257-.899.802-1.975 1.76-.007.006-3.803 3.392-.008.007-.048.043-.005.004-.008.008-2.129 1.898-1.785 1.592-.204.191-.007.007-4.94 4.634-3.263 3.06-2.825 2.65-3.284 3.224-2.381 2.338-5.677 5.573-.859.882-2.374 2.437-5.772 5.926-1.966 2.017-1.231 1.326-4.445 4.785-3.858 4.154-.116.125-.492.529-2.715 3.09-3.815 4.342-.736.838-1.629 1.853-.435.533-2.94 3.593-1.012 1.239-2.118 2.589-.788.963-.183.25-.072.097-5.155 7.013-3.336 5.528-1.161 3.505M1070.77 654.194l-.47-.57-6.33-7.739-6.34-7.739-6.33-7.739-6.33-7.739-3.3-4.025-6.49-7.6-6.5-7.601-6.5-7.601-6.5-7.6-6.5-7.601-5.41-6.334-6.681-7.444-6.678-7.444-6.677-7.444-6.677-7.444-6.677-7.444-5.506-6.139-6.852-7.283-6.852-7.284-6.853-7.283-6.852-7.284-6.852-7.283-5.611-5.965-7.471-6.647-7.47-6.647-7.471-6.648-7.471-6.647-7.471-6.648-6.169-5.489-7.697-6.385-7.696-6.385-4.598-3.814-7.697-6.385-7.696-6.384-7.697-6.385-1.872-1.553-8.065-5.912-8.065-5.912-8.065-5.912-8.065-5.912-8.066-5.912-7.122-5.222-8.293-5.588-5.752-3.876-8.293-5.589-8.293-5.588-7.382-4.975-1.049-.707"/><path d="m742.494 346.375.675-1.539-.378-2.099-2.246-1.734-2.622.111-1.914.942-2.877 1.415-5.109 3.413-.003.002-1.196.799-.005.003-.495.331-.175.134-.004.003-2.212 1.699-.005.004-.751.576-.005.005-1.657 1.272-.006.004-.83.638-.005.004-2.531 1.943-.005.004-.394.303-1.731 1.449-.008.006-.958.801-.006.006-.654.547-.005.004-2.517 2.106-.006.005-4.142 3.466-7.467 6.651-3.606 3.211-7.296 6.839-4.37 4.097-7.137 7.004-4.636 4.551-6.976 7.164-4.408 4.526-6.802 7.329-3.717 4.005-3.668 4.18-.567.646-4.586 5.226-.4.456-1.627 1.994-.703.861-.932 1.143-1.455 1.782-2.05 2.512-.56.686-.225.277-1.067 1.456-.514.702-1.459 1.991-.815 1.114-.474.647-1.266 1.727-3.232 5.391-.206.344-1.18 3.634 1.085 1.429 1.734 2.245 3.199-.793"/><path d="m742.795 342.737-2.619.122-4.8 2.377-6.827 4.578-4.754 3.661-.002.001-1.008.776-.004.003-2.359 1.816-.006.005-.476.366-1.538 1.289-.006.005-1.218 1.021-.006.005-1.6 1.341-2.256 1.891-.006.006-2.567 2.151-.007.006-.726.608-.007.006-.127.106-2.094 1.868-2.022 1.802-.007.007-4.06 3.62-.008.007-.001.001-.008.007-.273.243-1.244 1.11-1.4 1.248-.87.816-.007.007-5.419 5.082-2.621 2.458-2.799 2.626-4.22 4.143-1.222 1.199-6.383 6.266-1.285 1.319-1.262 1.296-6.616 6.792-2.275 2.335-.366.394-4.883 5.258-3.587 3.862-.046.05-1.689 1.819-1.796 2.043-3.747 4.266-.718.817-2.071 2.358-.937 1.065-2.173 2.659-1.039 1.27-1.721 2.105-1.574 1.925-.567.693-.52.636-5.628 7.661-3.464 5.749-1.195 3.637 1.08 1.422M1079.06 664.328l-.76-.929-1.62-1.979M634.023 463.498l.674 1 .012.018.47.697.756 1.123h.001l5.589 8.292 5.59 8.292 4.593 6.814 5.589 8.292 3.901 5.787 5.914 8.064 5.913 8.064 5.914 8.064 5.913 8.064 5.914 8.064 5.354 7.301.795 1.034 6.386 7.695 6.386 7.696 6.386 7.695 1.531 1.845 6.385 7.696 6.386 7.696 3.796 4.574 6.648 7.47 6.648 7.471 6.648 7.47 6.648 7.47 6.648 7.47 5.441 6.115 7.283 6.852 7.284 6.852 7.283 6.853 7.283 6.852 7.283 6.852 5.907 5.558 7.444 6.678 7.444 6.678 7.443 6.678 7.444 6.677 7.443 6.678 6.082 5.456 7.6 6.5 7.6 6.499 7.6 6.5 7.6 6.499 7.6 6.499 6.281 5.373 7.738 6.334 7.739 6.334 7.738 6.334 7.738 6.334 4.403 3.605h.001l.094.077.003.002.561.46M1125.02 864.935l2.81-2.59 7.18-6.964.26-.253 7-7.146.33-.339 6.81-7.326.11-.122 4.24-4.837 1.99-2.272 5.3-6.486 4.16-5.606 2.4-3.779.46-.734 1.47-3.252.03-1.879M948.188 796.605l5.872 3.541.807.485v.002l2.206 1.329M1169.57 811.349l-1.32-2.186-5.16-8.565-5.16-8.565-5.16-8.564-5.16-8.565-5.17-8.565-5.16-8.564-5.16-8.565-.5-.819M1150.76 906.762l2.01-1.548 1.69-1.294 5.08-4.294 5.43-4.924 3.43-3.312 2.11-2.044 5.1-5.225.34-.351 5.13-5.57 4.59-5.342 3.54-4.455.35-.447 2.28-3.2.76-1.07 2.07-3.475.18-.457.84-2.091-.05-1.531-.27-.46-5.03-8.643-2.25-3.863"/><path d="m1125.16 865.501 2.35-2.155 6.05-5.877 1.07-1.038.85-.817 4.15-4.239 1.1-1.124 2.6-2.657 6.8-7.326.61-.654 3.48-3.971 3.19-3.643 5.67-6.944 4.45-5.998.73-1.152 2.33-3.672 1.56-3.472.02-2-1.5-.47-2.42.871M1141.36 894.458l4.49-3.822 6.47-5.89 6.61-6.403 6.51-6.656 6.12-6.641 5.51-6.358 2.66-3.322 2-2.498 2.87-3.988.73-1.011.04-.056 2.49-4.095.23-.552 1.01-2.432-.02-.746-.02-1.02-4.88-8.728-1.86-3.323M1093.06 885.803l-.31 2.042 1.18.799 4.99 2.789M1152.77 905.214l8.22 5.7 4.02 2.789.61.374 1.23-.27 1.79-.907 2.29-1.511 2.71-2.059 3.02-2.528 3.2-2.898 3.27-3.155 3.21-3.287 3.01-3.291 2.71-3.163 2.29-2.914 1.79-2.549 1.21-2.088.6-1.547-.03-.949-5.7-8.218-3.01-4.34M965.788 807.216l-.719 9.974-.719 9.975-.719 9.974-.719 9.974-.35 4.847-.719 9.974-.719 9.974-.719 9.974-.72 9.974-.719 9.974-.719 9.974-.719 9.974-.598 8.292 7.562 6.543 7.562 6.544 7.562 6.543 7.562 6.544 7.562 6.543 7.56 6.544 7.56 6.543 7.56 6.544 4.21 3.634 7.88 6.15 7.1 5.54 7.89 6.148 7.11 5.55 7.89 6.15 7.11 5.54 7.89 6.15 7.12 5.56 7.32-6.81 1.02-.96 1.03-3.3-3.72-9.28-3.71-9.29-2.34-5.837-3.26-9.455-3.25-9.455-2.25-6.513-3.54-9.351-3.54-9.352-2.34-6.159-.77-9.971-.77-9.97-.77-9.97-.06-.85"/><path d="m1059.46 918.469 1.21-2.152 4.88-8.726 4.89-8.725 4.88-8.726 4.89-8.726 1.2-2.159.73-1.89"/><path d="m1081.42 879.255-8.47-5.314-8.47-5.315-8.47-5.315-8.48-5.315-8.47-5.315-8.47-5.315-8.47-5.315-8.47-5.314-8.47-5.315-8.469-5.315-8.47-5.315-1.647-1.033M1089.96 1025.07l-3.72-9.28-3.71-9.28-2.38-5.93-3.26-9.457-3.25-9.455-2.28-6.605-3.54-9.351-3.54-9.351-2.37-6.25-.77-9.97-.77-9.97-.78-9.971-.13-1.731M1140.13 679.547l-9.98.612-9.98.612-9.98.612-9.98.612-7.2.44-.51 1.034-.53 1.05 5.28 8.497 5.27 8.495 5.28 8.497 5.27 8.495 5.27 8.495 5.28 8.497 5.27 8.495 2.74 4.401 5.27 8.497 5.27 8.495 5.28 8.497 5.27 8.495 5.28 8.495 5.27 8.497.9 1.446 8.94-4.476 8.94-4.477 8.95-4.476 8.94-4.475 6.06-3.034 9.96.922 9.95.919 9.96.922 3.49.323 9.34 3.568 9.34 3.566 7.46 2.848 9.44 3.29 9.44 3.291 7.99 2.781 9.27 3.737 9.28 3.735 7.27 2.93 7.33-6.811 1.47-1.375.16-2.552-6.12-7.914-5.7-7.382-6.11-7.913-5.71-7.388-6.12-7.914-5.71-7.393-6.11-7.914-5.72-7.4-6.52-7.577-6.53-7.578-6.52-7.578-6.53-7.578-6.52-7.578-6.53-7.578-6.52-7.578-6.53-7.578-4.86-5.649-9.99.612-9.98.612-9.98.612-9.98.612-9.98.612-9.98.612-9.98.612-9.98.612-2.81.172Z"/><path d="m1222.23 676.547-9.98.611-9.98.611-9.98.611-9.98.611-9.98.61-9.99.611-9.98.611-9.98.611-3.11.19-9.98.611-9.98.611-9.98.611-9.99.611-6.25.383-1.12.068M1326.99 804.521l-6.11-7.913-5.75-7.439-6.12-7.914-5.75-7.445-6.11-7.914-5.76-7.452-6.11-7.913-5.77-7.458-6.52-7.578-6.53-7.578-6.52-7.578-6.53-7.576-6.52-7.578-6.53-7.578-6.52-7.578-6.53-7.578-5.08-5.904.55-2.068M1072.33 652.475l-2.03 1.149M1078.44 657.417l-.06-.094-.15-.182-.23-.263-.31-.336-.37-.395-.42-.438-.45-.464-.47-.474-.47-.464-.45-.437-.41-.393-.36-.336-.29-.263-.21-.182-.13-.092h-.03l-.5.274v.002l-.52.289v.003l-1.84 1.022"/><path d="M1078.44 657.417h-.04l-.12-.091-.22-.18-.29-.263-.35-.336-.41-.393-.45-.438-.47-.466-.47-.474-.46-.466-.42-.439-.37-.394-.31-.336-.23-.263-.15-.182-.06-.092M1077.68 659.67v-.003l.02-.175-.07-.262-.1-.209v-.001l-.06-.128-.24-.401-.33-.449-.13-.163v-.001l-.25-.315-.43-.491-.47-.485-.48-.459-.47-.416-.45-.358-.42-.285-.35-.201-.29-.111-.21-.014-1.21.646-.23.123v.003l-.51.274-.26.135-.1.054v.001l-.9.481"/><path d="M1077.68 659.667v.001l-.12.082-.21-.014-.18-.069-.1-.04-.36-.201-.41-.285-.15-.117v-.001l-.31-.24-.47-.417-.48-.46-.47-.486-.43-.492-.39-.481-.32-.449-.24-.401-.16-.337-.07-.261.02-.173v-.002l.11-.072.01-.009"/><path d="M1077.68 659.668v.002l-.12.083-.21-.014-.18-.07-.1-.039-.36-.201-.41-.285-.15-.117v-.001l-.31-.24-.47-.417-.48-.46-.47-.486-.43-.493-.39-.48-.32-.449-.24-.401-.16-.337-.07-.262.02-.174.01-.001M1076.09 657.075l.43.491.25.315M1076.91 658.045l.32.449.24.401M1077.53 659.024l.1.209.07.262M1072.95 654.745l.21.015.29.111.36.201M1075.53 663.445l1.15-2.025 1-1.75M1074.22 655.357l.45.358.47.416M1078.23 657.143l.15.181.06.093-.04.002-.12-.091-.22-.182-.29-.263-.35-.335-.41-.394-.45-.438-.47-.466-.47-.474-.46-.466-.42-.438-.37-.395-.31-.334-.23-.265-.15-.18-.06-.094M1075.06 653.87l.45.438.46.464.47.473.46.465M1077.69 656.542l.31.336M1073.62 652.604l-.49.274v.002l-.52.29v.002l-1.84 1.023M1073.66 652.605l.13.093.21.182.29.263M1072.33 652.475v.001l-2.03 1.148"/><path d="m1073.13 652.878-.14-.102-.3-.189-.22-.102-.14-.01M978.902 756.249l.041-.642.017-.061.007-.028.145-.52.293-.553.398-.471.005-.005.499-.381.575-.271.63-.149.66-.024.498.078.132.02.035.006.644.227.598.342.53.443.441.527.335.592.216.633.089.65-.042.642-.17.609-.293.553-.404.476-.005.004-.494.376-.173.081-.021.01-.382.179-.629.149-.66.023M986.793 758.309l.546-.642.395-.748.231-.823.057-.867-.12-.879-.292-.855-.453-.799M968.042 765.78l.134-.564.254-.505.137-.161.009-.011.213-.249.004-.005.458-.331.536-.223.593-.107.628.014.638.135.623.249.261.158.108.066.217.131.524.447.444.521.345.576.234.608.114.617-.011.603-.136.564-.254.505-.184.215-.007.009-.173.201-.005.004-.454.327-.536.222-.593.106-.627-.015-.637-.135-.623-.249-.585-.355-.523-.446-.281-.33-.081-.095-.081-.096-.345-.575-.235-.607-.114-.617.011-.602Zm0 0 .072-.33M976.25 768.151l.005-.003.491-.576.345-.682.183-.763.016-.814-.154-.834-.316-.822-.466-.778M973.289 769.574l.006-.003M958.471 773.985l.202-.445.306-.36.004-.004.404-.27.118-.04.009-.003.357-.121.544-.053.585.061.602.173.597.277.568.371.517.451.227.261.098.112.122.14.36.556.257.578.147.576.029.553-.075.43-.001.008-.013.071-.203.444-.31.364-.005.003-.4.266-.484.163-.545.052-.584-.062-.602-.173-.595-.277-.198-.129-.125-.082-.244-.16-.517-.45-.446-.512-.359-.556-.258-.576-.147-.575-.03-.553.088-.509Zm0 0 .016-.044M966.858 776.627l.005-.003.42-.492.275-.601.121-.688-.039-.748-.198-.779-.348-.781-.485-.752M963.52 778.384l.01-.006M950.273 781.478l.032-.444.141-.376.242-.29.002-.003.34-.198.421-.097.486.01.334.072.011.002.188.041.559.216.564.309.547.39.509.455.451.505.376.533.286.541.073.208.039.109.003.009.032.093.039.11.078.496-.032.445-.142.375-.246.292-.004.002-.336.195-.422.095M958.9 783.477l.004-.002.333-.395.192-.508.045-.601-.105-.671-.25-.716-.308-.584-.079-.148-.021-.03M952.703 784.922l-.546-.389-.508-.455-.45-.503-.375-.532M954.357 785.563l-.066-.015-.209-.045-.258-.056M943.989 785.857l.17-.211.002-.003.266-.12.105-.007.245-.015.42.077.14.051.008.003.327.12.462.239.048.025.527.344.524.41.499.461.456.494.394.508.319.502.231.477.133.434.031.374-.073.299-.173.213-.003.001-.264.118-.35.021-.282-.052-.005-.001-.133-.025-.475-.175-.51-.264-.526-.343-.522-.41-.146-.135-.002-.002-.35-.323-.454-.493-.094-.12-.007-.009-.294-.377-.318-.502-.231-.476-.134-.434-.032-.374.035-.145.001-.004.035-.151Zm0 0 .003-.006M949.051 790.532l2.137-1.214.583-.331.842-.479.009-.005.003-.002M952.627 788.501l.235-.289.099-.405-.034-.426-.007-.08-.081-.268-.098-.319-.311-.646M939.484 789.004l.092-.13.001-.002.187-.039.038.008.007.002.228.047.349.149.411.236.458.314.487.38.498.432.464.443.003.003.021.02.461.483.415.481.354.461.038.057.241.366.192.368.077.231.001.001.022.067.003.219-.095.131-.002.001-.186.037-.274-.058-.094-.04h-.001l-.254-.11-.411-.236-.436-.299-.001-.001-.021-.014-.486-.38-.496-.431-.488-.465-.46-.482-.414-.48-.353-.46-.279-.422-.193-.368-.101-.3-.003-.22Zm0 0 .005-.01M944.438 793.732l1.614-.929 2.141-1.23.004-.002M948.197 791.571l.129-.178-.003-.297-.133-.406-.034-.065M937.043 789.986l.105.045.193.135.11.088.006.005.159.129.346.299.404.365.446.417.47.453.478.472.466.472.436.454.274.294.005.005.111.119.329.367.254.302.171.224.08.138-.013.046-.001.001-.105-.045-.194-.137-.276-.222-.346-.299-.403-.365-.445-.417-.47-.452-.476-.47-.465-.471-.435-.453-.39-.418-.328-.367-.255-.301-.171-.225-.082-.139.012-.049Zm0 0 .076-.137.254-.461v-.002l1.188-2.159.003-.004.208-.378M941.875 794.816l2.003-1.142M938.114 786.307l-1.507 2.682v.001l-.002.001.023.126.114.213.201.293.175.226M1045.11 697.799l-.26.572-.01.019-.36.476-.47.4-.54.289-.6.167-.63.039-.65-.091-.63-.217-.58-.336-.53-.44-.44-.529-.35-.597-.19-.547-.04-.094v-.029l-.11-.633.02-.656.14-.626.26-.571.37-.495.47-.399.54-.288.27-.074.34-.093.63-.038.64.091.35.122.13.043.15.053.59.335.52.44.44.528.35.596.23.641.11.661-.02.656-.14.625Zm0 0-.47 1.716M1039.03 701.752l.85.293.87.123.86-.053.81-.226.73-.391.63-.541.5-.669.36-.772M1041.76 693.008l-1.65.034M936.609 788.988v.001"/><path d="m941.805 794.631.081.138-.013.047-.106-.045-.194-.137-.276-.222-.346-.299-.403-.365-.445-.417-.47-.452-.476-.47-.465-.471-.436-.453-.389-.418-.328-.367-.255-.301-.172-.225-.081-.139.012-.049.001.001.103.044.194.135.113.092M937.617 790.388l.346.299.404.365.445.417.471.453.478.472.466.472.436.454.271.291.006.006M941.055 793.738l.328.367.255.302M944.528 793.603l-.093.13-.001.001-.188.038-.274-.058-.094-.04-.001-.001-.254-.109-.411-.236-.436-.299-.001-.001-.021-.014-.486-.38-.497-.431-.487-.465-.46-.482-.414-.48-.353-.46-.279-.422-.193-.368-.101-.3-.004-.22.009-.012.085-.12h.002M943.992 792.353l.241.364.192.368M944.434 793.734l1.618-.931 2.14-1.23M940.383 789.041l.411.236.458.314M941.493 785.18l-.714 1.357v.002l-.227.43-.002.004-.056.108-.149.282-.001.002-.078.148-.204.387-.409.778-.002.004-.171.324M949.048 790.534l-.002.002-.266.12-.351.021-.274-.052h-.005l-.141-.026-.475-.176-.509-.264-.526-.344-.522-.409-.148-.135-.001-.003-.349-.322-.455-.493-.103-.133-.008-.009-.283-.365-.319-.501-.231-.476-.134-.434-.032-.374.036-.151.001-.004.035-.144.007-.01.164-.205.003-.001M949.262 789.65l.031.373M952.621 788.505l.002-.002M949.047 790.536l2.141-1.217.583-.331.85-.483M944.539 785.519l.235-.015.42.078.152.056.007.002M951.817 777.485l-.856 1.979-.519 1.199-.141.376-.031.444.079.496.186.529.286.54.376.532.45.503.508.455.546.389.562.309.559.217.259.056.209.045.065.014.486.011.421-.096 3.178-1.736"/><path d="m950.441 780.663.009-.01.236-.282.004-.003.335-.196.421-.096.486.009.346.075.01.002.177.038.56.216.564.309.547.39.508.456.452.504.376.533.286.542.074.209.034.098.003.009.037.104.038.109.078.496-.033.444-.142.375-.243.289-.003.003-.284.165-.056.032M958.438 783.748l.46-.267.003-.003M963.917 778.118l-.003.004-.387.256-.018.013-.484.163-.545.052-.584-.062-.602-.173-.595-.277-.197-.128-.125-.082-.245-.161-.517-.45-.446-.512-.359-.555-.258-.577-.147-.575-.03-.553.088-.509.024-.051.178-.394.31-.364.004-.003M963.602 774.403l.121.139.36.557M964.49 776.252l.029.553-.074.422-.001.008-.014.079M966.305 776.994l.548-.363.003-.004M959.863 772.749l.544-.052.585.061M959.489 771.051l-1.024 2.941M963.512 778.391l2.796-1.397M962.191 773.207l.568.371M970.265 769.511l-.585-.355-.523-.446-.28-.328-.081-.096-.082-.096-.346-.575-.234-.608-.114-.616.011-.602.081-.339.053-.226.254-.505.146-.171.009-.011.208-.244.005-.003.453-.328.536-.223.593-.106.628.014.637.134.624.25.262.158.108.066.216.131.524.446.444.522.345.575.234.609.114.617-.012.602-.135.565-.254.504-.177.207-.007.009-.176.205-.004.005-.444.319-.015.011-.536.222-.593.106-.627-.015-.637-.135-.623-.249ZM968.532 763.479l-.501 2.31M975.625 768.602l.62-.446.004-.005M973.281 769.583l2.345-.98M978.84 754.682l.051 1.576.089.65.06.176.041.119.115.337.335.591.44.527.53.443.597.342.644.227.664.104.66-.023.629-.15 1.635-.403"/><path d="m978.891 756.257.006-.107.035-.534.024-.089.008-.027.137-.494.293-.553.403-.476.005-.004.494-.377.575-.27.63-.15.66-.023.499.077.132.021.034.005.644.227.598.342.53.443.441.528.335.592.216.633.089.65-.042.642-.17.609-.293.553-.399.47-.005.006-.499.38-.152.071-.021.01-.371.174-.032.014M992.845 748.209l-.606-.332-.533-.44-.439-.532-.328-.603-.205-.65-.074-.673.005-.058.015-.164.041-.448.192-.641.316-.588.429-.512.525-.417.6-.304.653-.181.246-.018.155-.012.28-.021.682.082.656.211.607.332.533.441.44.532.328.602.205.651.073.674-.061.67-.192.641-.317.588-.43.512-.524.416-.601.304-.653.181-.68.05-.681-.082-.657-.211ZM999.388 745.085l.082-.905-.099-.91M993.879 748.61l.92.111.919-.069M1003.87 736.443l.82.441.89.273.93.093.93-.089.73-.219.17-.049.82-.437.72-.589"/><path d="m1005.12 736.184-.61-.327-.53-.438-.44-.534-.33-.609-.2-.661-.06-.686.06-.687.02-.068.07-.206.11-.385.33-.608.44-.532.53-.436.61-.324.34-.1.2-.061.12-.037.69-.066.69.069.66.201.61.327.54.439.43.534.33.609.2.661.07.686-.07.686-.2.66-.33.607-.43.533-.54.436-.61.323-.66.199-.69.066-.69-.069-.66-.202ZM1015.71 724.604l.82.44.89.269.92.09.92-.094.89-.273.81-.443.72-.594.58-.725.43-.825"/><path d="m1017.51 723.771-.61-.326-.53-.438-.44-.534-.33-.611-.2-.662-.08-.689.07-.689.03-.097.05-.2.11-.366.32-.611.43-.536.53-.44.6-.328.48-.145.18-.057.02-.002.66-.067.69.067.65.199.61.326.54.438.43.534.33.61.21.662.07.689-.06.689-.2.663-.32.611-.43.536-.53.441-.6.327-.66.203-.68.069-.68-.067-.66-.199ZM1027.29 712.757l.81.443.88.277.9.1.9-.082.86-.259.78-.427.68-.578.56-.708.4-.809.23-.88.06-.917"/><path d="m1034.13 707.538.03.221.06.459-.05.679-.17.652-.3.599-.41.523-.5.428-.58.316-.64.192-.66.06-.67-.074-.65-.205-.6-.328-.53-.439-.44-.533-.33-.606-.22-.656-.08-.68.01-.176.01-.158.02-.345.18-.652.3-.599.4-.523.51-.428.58-.315.64-.191.61-.055.05-.005.09.01.58.064.64.205.5.269.1.059.53.439.44.532.34.606.21.655Zm0 0 .11.46M1032.61 705.306l-.42-.322M1054.83 687.519l-.31.452-.31.263-.11.095-.49.248-.56.13-.59.007-.61-.117-.6-.236-.57-.347-.52-.443-.45-.523-.04-.068-.07-.117-.25-.397-.25-.62-.14-.633-.02-.622.09-.587.22-.529.32-.452.13-.115.28-.241.5-.247.55-.13.59-.005.61.117.6.236.57.346.27.226.1.089.15.128.45.522.35.582.26.618.14.632.02.622-.09.587-.22.529Zm0 0-1.03 2.416M1050.47 682.42l-2.56.625M1049.77 691.395l.82.158.8-.01.75-.176.67-.336.56-.484.43-.611M1063.33 677.942l-.25.396-.35.302-.44.195-.2.034-.29.048-.55-.035-.56-.151-.57-.261-.52-.34-.03-.02-.1-.088-.41-.359-.46-.515-.37-.565-.28-.591-.18-.596-.07-.577.04-.537.07-.214.08-.261.26-.395.35-.301.43-.194.5-.081.54.036.57.152.57.261.55.36.51.446.45.514.31.468.06.095.03.051.26.539.17.595.08.577-.05.537-.15.475Zm0 0-1.43 2.857M1058.94 672.917l-2.98 1.091M1059.09 682.073l.73.047.67-.111.59-.265.47-.409.35-.536M1070.09 669.936l-.18.329-.28.236-.36.133-.43.024-.24-.042-.25-.043-.04-.018-.42-.153-.06-.021-.53-.29-.53-.377-.5-.451-.46-.507-.39-.542-.31-.558-.2-.475-.03-.077-.12-.524v-.041l-.02-.435.08-.411.19-.329.28-.234.36-.132.43-.023.49.086.51.192.17.091.01.003.24.131v.001l.12.064.52.377.5.45.46.505.39.542.31.556.23.551.12.524.01.067.01.279.01.131-.09.411Zm0 0-1.76 3.226M1065.29 665.129l-1.73.771-.01.003-1.6.716M1067.22 674.108l.49-.181.38-.319.24-.447M1074.82 663.986l-.2.161-.29.062-.36-.04-.42-.141-.47-.237-.49-.322-.5-.397-.23-.208v-.001l-.27-.247-.46-.496-.41-.518-.35-.521-.27-.502-.18-.465-.09-.409.01-.338.1-.255.04-.026v-.003l.02-.014v-.002l.15-.115.28-.061.36.041.43.142.46.237.5.323.5.396.47.435v.001l.02.018.46.495.41.517.35.52.27.501.18.465.09.409V663.479l-.01.251-.1.256Zm0 0-1.51 2.676-.29.522-.23.406M1070.14 658.952l-.16.083-.01.002-.02.012v.002l-2.13 1.058v.003l-.46.228v.002M1179.53 820.252v-.001l-.04.023-.67.385M1183.27 823.566l-.04-.075-.1-.122-.14-.166-.18-.203-.21-.233-.24-.252-.26-.264-.26-.263-.26-.255-.24-.234-.22-.207-.19-.17-.15-.128-.1-.079-.06-.029-.12.065-.37.204-.79.434M1183.27 823.59l-.06-.028M1180.76 821.105l-.1-.122M1180.62 820.909v-.023"/><path d="m1182.05 822.487-.26-.264-.13-.135-.04-.033M1183.22 825.385v-.12l-.05-.165-.1-.206-.15-.239-.14-.198-.04-.063-.22-.275-.25-.277-.25-.269-.12-.108v-.001l-.15-.142-.25-.222-.24-.187-.22-.142-.19-.094-.14-.04-.1.013-.52.266-.08.036v.001l-.32.162-.11.057-.12.065-.06.028v.002"/><path d="m1182.74 825.333-.22-.143-.11-.084-.13-.102-.26-.223-.26-.251-.26-.27-.01-.015v-.001M1183.07 825.466l-.14-.04M1180.56 822.836l-.01-.118.05-.065.01-.003M1183.22 825.384v.001l-.05.067M1180.71 823.208l-.1-.206M1181.26 823.983l-.22-.275-.18-.262"/><path d="M1183.22 825.386v.005l-.05.063-.1.014-.14-.04-.19-.093-.22-.143-.11-.084v-.001l-.13-.101-.26-.223-.26-.251-.26-.27-.01-.015v-.001l-.23-.261-.22-.275-.19-.262-.14-.238-.1-.206-.06-.165v-.119l.06-.068.1-.013.14.04.19.094.21.142.25.187.25.223.15.141v.001l.12.108.25.269.25.278.21.274.05.062.14.199.15.239.1.206.05.165v.119Zm0 0-.9 1.531-.3.517M1181.91 827.533l.04-.006.07-.092M1182.99 823.204l.14.166.1.123.04.073v.024l-.06-.028-.1-.08-.15-.127-.19-.17-.22-.207-.24-.235-.26-.255-.26-.264-.12-.125-.03-.031-.11-.108-.23-.252-.05-.048-.02-.025-.15-.16-.18-.203-.14-.166-.1-.122-.04-.074v-.023l.06.029.1.079M1182.36 822.516l-.26-.264M1182.81 823.002l-.21-.233M1181.12 821.293l-.19-.17M1181.58 821.734l-.24-.234M1180.5 820.951l-.11-.098-.24-.203-.21-.167-.18-.125-.14-.078-.09-.029v.001M1131.52 879.103l.28-.2.32-.141.35-.076.37-.007.37.06.35.127.33.188.29.242.24.286.18.32.11.341.04.349-.03.344-.1.326-.16.294-.23.253-.1.07M1135.2 881.365v-.002l.31-.341.22-.398.14-.441.04-.465-.06-.472-.16-.461-.24-.433-.32-.387M1133.18 882.227l.1-.002.35-.075M1162.77 849.952l.39.323.43.243.46.154.46.058.46-.039.43-.135.39-.225.33-.308.27-.378M1166.79 848.723l-.17.259-.02.02-.24.228-.29.167-.32.099-.34.029-.35-.043-.33-.114-.32-.18-.29-.238-.24-.289-.19-.328-.13-.353-.06-.367v-.365l.07-.349.13-.321.2-.279.24-.227.29-.167.32-.099.04-.004.3-.025.35.044.33.113.32.18.29.239.24.288.19.327.13.354.06.366v.365l-.07.349-.14.321Zm0 0-.4.921M1165.09 845.777l-1.01-.115"/><path d="m1131.28 879.38.01-.018.23-.253.28-.2.32-.141M1134.62 881.268l-.17.295-.23.252-.09.065v.005l-.18.13-.04.015-.29.126-.35.075-.08.002M1134.38 881.829l.44-.19.37-.271.01-.003M1133.62 882.155l.76-.326M1138.25 875.786l.17.12.33.181.36.117.37.047.2.002M1139.68 876.253l.51-.033.48-.128.45-.219.39-.3.32-.37.24-.427.15-.468.05-.488-.05-.492-.15-.474-.24-.442-.32-.391"/><path d="m1138.42 875.906-.09-.073-.2-.167-.24-.288-.18-.327-.11-.352-.03-.363.03-.361.11-.345.18-.316.24-.275.28-.222.34-.162.35-.095.38-.024.37.047.36.116.33.182.29.24.24.288.18.327.11.352.03.363-.03.361-.11.346-.18.315-.24.275-.29.222-.33.162-.36.094-.25.017-.12.008M1137.86 875.463l.39.323M1144.3 869.324l.39.322.45.24.49.149.5.051.51-.048.49-.145.45-.236.39-.32.32-.389.24-.446.15-.483.05-.503-.05-.504-.14-.484-.24-.447"/><path d="m1145.5 869.626-.33-.177-.29-.239-.24-.29-.17-.331-.11-.358-.04-.373.04-.372.11-.358.18-.329.23-.288.3-.237.33-.175.36-.107.37-.035.38.038.36.11.33.177.29.239.24.29.17.33.11.359.04.373-.04.372-.11.357-.18.33-.24.288-.29.236-.33.176-.36.107-.37.035-.38-.038-.36-.11ZM1150.74 862.887l.39.322.45.238.48.144.5.047.5-.054.47-.151.44-.244.39-.328.31-.397.23-.452.14-.49.05-.509-.06-.509-.15-.488"/><path d="m1152.22 862.874-.32-.176-.29-.238-.24-.291-.18-.332-.11-.361-.04-.376.03-.377.1-.362.17-.335.23-.294.29-.242.32-.18.36-.113.37-.039.37.034.35.108.33.175.29.238.24.291.18.332.11.361.04.376-.03.377-.1.362-.17.335-.24.294-.28.242-.33.18-.35.113-.37.039-.37-.034-.36-.107ZM1156.96 856.36l.39.321.44.239.47.147.49.049.48-.051.46-.148.42-.241.36-.323.3-.393.21-.448.12-.487"/><path d="m1161.15 854.646-.03.142-.06.218-.16.332-.21.291-.27.239-.31.177-.34.11-.36.038-.36-.037-.35-.108-.32-.177-.29-.238-.24-.29-.18-.331-.12-.36-.05-.374.02-.374.09-.36.15-.331.22-.291.27-.239.31-.178.34-.109.36-.037.36.036.35.108.32.177.1.08.19.158.24.29.18.331.12.359.05.374-.02.374Zm0 0-.05.379M1160.58 852.918l-.25-.229M1168.37 844.191l.41.25.44.165.44.075.43-.019.4-.112.35-.2.29-.281.22-.352M1172 842.513l-.16.26-.22.208-.09.052-.17.096-.29.083-.32.014-.32-.056-.33-.122-.3-.185-.29-.24-.24-.286-.2-.322-.14-.344-.09-.354-.02-.349.05-.332.1-.301.17-.26.2-.197.01-.011.26-.147.3-.083.31-.013.33.055.32.123.31.185.28.24.25.286.19.321.15.344.08.353.02.349-.04.332-.11.301Zm0 0-.65 1.204M1169.91 839.637l-1.39.192M1172.82 838.624l.4.26.41.182.41.097.24.005.15.004.35-.081.31-.165.07-.072.17-.174M1176.23 837.137l-.18.182-.22.122-.22.05-.04.009-.29-.006-.3-.072-.31-.135-.3-.192-.27-.242-.25-.284-.21-.312-.16-.331-.1-.336-.05-.328.01-.308.07-.276.01-.008.12-.224.18-.181.23-.122.26-.059.28.007.31.072.3.135.3.192.28.242.24.282.21.313.16.331.11.335.04.328-.01.308-.07.275-.13.233Zm0 0-.9 1.543M1173.95 834.144l-1.71.488M1179.66 832.269l-.14.148-.19.091-.22.03-.26-.032-.27-.093-.05-.024-.24-.125-.29-.202-.27-.244-.25-.279-.22-.303-.18-.314-.13-.315-.03-.142-.05-.16-.02-.278.03-.243.09-.199.14-.148.19-.09.22-.03.26.032.27.093.29.149.29.201.27.245.25.279.22.302.18.314.13.314.07.302.03.278-.04.243-.08.2Zm0 0-1.05 1.755M1177.3 829.347l-1.88.725M1176.75 834.019l.39.202.37.125.35.043.3-.041.25-.123.19-.2M1178.92 829.705l.36.286.36.226.34.157.05.014.25.068.25.005.19-.074.13-.149M1182.01 828.314l-.1.11-.14.054-.19-.004-.22-.061-.25-.116-.26-.167-.27-.212-.27-.248-.26-.274-.23-.291-.2-.295-.15-.29-.11-.271-.07-.244v-.206l.04-.161.06-.068v-.001l.04-.04.14-.054.19.004.22.061.25.116.26.167.27.212.27.247.25.274.23.291.2.295.16.289.04.099v.002l.07.17.06.244.01.206-.04.162Zm0 0-1.16 1.924"/><path d="m1179.43 825.529-.05.023-2.01.919M727.311 335.192l-.19-.215-.122-.154-.05-.083.023-.01v-.001l.097.063.165.133.229.199.283.256.326.304.356.341.374.364.376.373.365.368.339.348.3.316.25.272.19.217.123.153.051.084h-.002l-.021.011-.001-.001-.095-.061M730.51 338.336l-.228-.198-.283-.256-.326-.305-.357-.341M728.945 336.872l-.377-.374-.365-.369-.34-.349-.301-.316M728.033 339.589l.492-.952.01-.147-.067-.211-.141-.269-.211-.314-.076-.098-.195-.251-.322-.369-.36-.377-.101-.096-.001-.001-.283-.271-.394-.346-.389-.312-.232-.166-.001-.001-.135-.097-.333-.207-.287-.142-.228-.071-.161.003-.001.001"/><path d="m728.525 338.638-.004.004-.083.073-.16.003-.227-.07-.287-.142-.333-.206-.369-.265-.389-.311-.395-.347-.302-.29-.002-.001-.081-.078-.361-.377-.322-.37-.272-.35-.017-.025-.001-.001-.033-.049-.159-.239-.142-.269-.066-.211.011-.146.086-.075.001-.001"/><path d="m728.44 338.715-.001.001-.161.003-.227-.07-.286-.142-.334-.206-.369-.265-.389-.311-.395-.347-.302-.29-.001-.001-.082-.079-.361-.376-.322-.371-.272-.349-.017-.025-.036-.054-.157-.236-.141-.268-.067-.211.011-.147.085-.073.003-.002h.001M727.844 337.348l.192.246.079.103.211.314.141.268.067.212-.01.147M724.615 334.896l-.691.402-2.256 1.314M724.777 334.893l.228.071.287.142M725.992 335.576l.388.311M730.793 338.52l-.023.01-.096-.062-.165-.132-.229-.199-.282-.255-.326-.305-.357-.341-.375-.365-.377-.373-.365-.369-.34-.349-.3-.316-.25-.273-.19-.216-.122-.153-.05-.082h-.001l.024-.011.001.001.095.061.166.134.229.198.282.257.326.304.357.34.374.364.376.373.364.368.339.349.3.316.25.271.191.218.123.152.051.085Zm0 0h-.001M726.946 334.739l-1.184.669M731.045 339.279l-.125-.165-.272-.33M643.829 406.769l.205-.459.109-.15.008-.011.17-.234.004-.005.365-.325.427-.238.471-.141.498-.039.505.065.493.165.462.26.413.345.348.417.27.471.182.509.086.527-.013.524-.111.502-.205.459-.291.4-.004.003-.362.321-.426.238-.472.14-.175.014-.025.002-.297.023-.505-.065-.492-.165-.462-.26-.412-.345-.348-.416-.27-.471-.182-.509-.086-.526.012-.524.11-.502Zm0 0 .022-.057M645.957 410.487l.524.071M636.216 415.194l.247-.368.002-.003.324-.298.003-.002.006-.003.377-.206.434-.117.465-.018.478.082.472.178.449.267.408.347.352.413.281.463.201.495.112.508.019.502-.075.476-.165.432-.249.372-.004.003-.321.294-.014.007-.012.007-.36.196-.434.117-.464.017-.478-.082-.472-.178-.448-.267-.408-.347-.351-.412-.281-.462-.201-.495-.112-.507-.02-.502.074-.476.165-.433Zm0 0 .005-.008M639.211 419.338l.043-.006M629.591 423.219l.196-.329.002-.004.274-.259.337-.175.194-.041.006-.002.188-.04.425.011.445.106.447.195.433.277.402.35.355.408.296.45.223.476.143.483.058.471-.03.442-.117.394-.03.051-.004.007-.165.275-.003.003-.271.255-.337.174-.389.083-.424-.012-.444-.105-.447-.196-.433-.277-.401-.349-.355-.407-.295-.45-.223-.475-.144-.483-.058-.471.03-.441.116-.395Zm0 0 .031-.053M633.059 427.197l.017-.005M624.5 429.847l.215-.211.281-.129.337-.042.379.047.274.091.007.002.125.042.419.216.415.291.395.353.36.401.31.435.25.453.179.451.077.329.002.009.023.095.02.398-.062.349-.142.285-.002.002-.213.208-.282.129-.337.041-.378-.048-.407-.135-.418-.216-.414-.289-.395-.354-.359-.401-.31-.434-.25-.452-.179-.45-.102-.433-.021-.399.062-.348.139-.283.002-.003Zm0 0 1.484-2.493M627.867 434.051l.051-.02M620.747 435.495l.153-.156.22-.077.28.007.329.089.366.168.388.241.395.305.387.357.364.395.328.417.278.425.218.415.149.389.075.349-.002.295-.079.23-.002.002-.151.154-.087.029-.003.002-.025.008-.002.001-.104.036-.281-.008-.108-.029-.221-.06-.365-.169-.387-.241-.394-.304-.387-.356-.363-.394-.328-.417-.277-.424-.218-.415-.048-.125-.002-.004-.1-.26-.075-.349.001-.295.077-.228.001-.002v-.001Zm0 0 1.652-2.745M624.445 439.5l.003-.002M618.638 439.669l.002-.002.084-.094.157-.019.222.059.193.094.084.041.209.133.001.001.112.071.355.269.374.32.305.291.001.001.073.069.369.387.345.399.308.394.258.375.109.186.002.004.088.152.133.294.06.237-.011.142-.001.006-.002.021-.001.001-.086.094-.157.019-.222-.06-.277-.135-.322-.206-.254-.192-.101-.076-.374-.32-.378-.361-.219-.23-.001-.001-.148-.155-.345-.398-.307-.393-.209-.303v-.001l-.049-.071-.199-.341-.133-.295-.061-.237.013-.168v-.002Zm0 0 .329-.552 1.409-2.365M622.383 443.595l.003-.001M618.211 442.259l.021-.033.093.041.161.115.225.183.278.245.323.297.113.108.001.001.009.008.23.22.37.366.374.379.363.378.337.362.299.333.249.291.191.237.123.175.052.105v.001l-.012.019-.001.001-.008.012-.093-.043-.162-.115-.225-.183-.279-.245-.321-.296-.353-.338-.37-.364-.373-.379-.362-.377-.337-.362-.299-.333-.249-.29-.191-.238-.124-.175-.052-.105-.001-.001Zm0 0 .854-1.474M622.004 446.104l.002-.001M622.02 446.097l.047.042.339.29.297.239.248.179.184.112.118.041v-.001l.007-.004.086-.048M696.205 361.375l-.038.49-.011.036-.129.427-.236.418-.324.357-.398.282-.458.197-.5.103-.523.006-.526-.091-.508-.186-.471-.272-.416-.349-.345-.412-.26-.458-.165-.489-.065-.499.038-.49.141-.463.237-.418.323-.357.128-.09.271-.191.458-.196.501-.103.522-.006.525.092.508.185.471.273.415.348.344.411.26.459.166.487.065.499ZM692.428 358.73l-1.213.487M623.254 447l.093-.052"/><path d="m621.661 445.556.19.237.123.175.052.104.001.001-.013.018v.001l-.007.011-.001.002-.094-.042-.162-.115-.225-.184-.278-.244-.322-.297-.353-.337-.37-.365-.373-.378-.362-.377-.336-.362-.299-.333-.25-.291-.19-.237-.124-.176-.053-.106.02-.033.093.042.162.114.224.184.279.244.322.297M620.773 444.568l.337.363"/><path d="m622.004 446.104.014-.007.001-.001.447-.241.001-.001.205-.11M619.438 443.225l.231.221.37.365M622.468 443.501v.002l-.083.091-.004.004-.158.019-.221-.06-.277-.135-.322-.206-.249-.188-.106-.08-.374-.32-.378-.361-.22-.23-.001-.001-.147-.155-.345-.398-.307-.393-.209-.304-.001-.001-.048-.07-.199-.341-.133-.295-.061-.237.013-.17.001-.001.085-.095.157-.019.222.059M621.18 441.293l.345.399.308.394.258.375.109.187M622.289 442.803l.133.294.06.236-.011.139M622.383 443.598l.125-.062.003-.002.925-.464M619.301 439.712l.08.039.208.133M619.703 439.956l.355.269.374.32M624.675 439.118l-.078.228-.001.002-.147.15-.006.006-.078.027-.003.001-.029.01-.002.001-.109.037-.28-.007-.11-.03-.002-.001-.217-.059-.365-.168-.388-.242-.394-.304-.386-.356-.364-.394-.327-.417-.278-.424-.218-.414-.05-.131-.001-.004-.098-.254-.076-.349.001-.296.079-.23.001-.002.151-.155M621.73 435.362l.365.168.388.242.395.304.388.357.364.395.327.418.278.424.218.415.149.389M628.564 433.084l-.062.348-.14.282-.002.003-.215.211-.227.103-.055.025-.337.041-.378-.048-.407-.134-.418-.217-.414-.29-.394-.352-.36-.401-.31-.435-.25-.451-.179-.451-.102-.433-.021-.398.062-.349.141-.286.002-.002.213-.209.281-.129M625.707 429.519l.281.093.008.002.117.039.419.217.415.29.395.353.36.402.31.435.25.452.179.451M625.987 427.348l-1.491 2.504M633.807 424.649l.143.482.058.472-.031.441-.117.395-.027.044-.004.007-.165.278-.003.004-.273.258-.315.162-.023.012-.389.082-.424-.011-.445-.106-.446-.195-.432-.277-.401-.35-.356-.407-.295-.45-.224-.475-.143-.482-.057-.471.028-.441.117-.395.037-.06.161-.274.003-.002M630.055 422.633l.338-.174.2-.043.006-.001.182-.039.425.011M630.775 421.143l-1.189 2.084M640.822 416.939l.02.502-.075.476-.165.433-.247.367-.003.004-.324.297-.002.002-.012.006-.372.203-.385.103-.049.013-.465.018-.477-.082-.472-.178-.449-.268-.407-.345-.351-.413-.282-.462-.2-.495-.112-.508-.02-.502.074-.476.165-.432.011-.016.238-.356.004-.004.32-.293.009-.004.005-.004.372-.203.434-.117.465-.017M639.02 414.446l.449.268.408.347.351.412.282.463M637.086 413.488l-.875 1.714M648.509 409.419l-.288.395-.003.005-.366.324-.427.238-.471.14-.15.012-.025.002-.296.023-.026.002-.505-.065-.493-.165-.461-.26-.413-.345-.348-.416-.27-.471-.181-.509-.087-.526.013-.524.11-.501.029-.066.176-.394.116-.161.008-.01.166-.229.004-.003.362-.322M648.57 406.898l.181.509.087.527-.013.524-.111.502M644.257 405.632l-.437 1.146M645.578 405.214l.498-.039.505.065M647.535 405.665l.413.345.349.417M652.377 398.389v-.009l.036-.528.138-.516.234-.475.322-.416.397-.341.457-.253.499-.155.522-.051.525.054.508.159.471.256.417.343.346.419.261.477.168.517.067.537-.037.537-.138.516-.235.475-.322.416-.397.341-.456.253-.499.155-.522.051-.525-.055-.508-.159-.471-.256-.417-.343-.271-.328-.074-.091-.262-.476-.167-.517-.067-.537Zm0 0-.041-.34M652.871 399.918l.133.198M663.451 391.229l-.477-.255-.419-.344-.344-.419-.256-.478-.159-.519-.054-.539.051-.54.155-.52.253-.478.341-.42.416-.345.475-.256.517-.158.537-.054.538.053.517.156.477.256.419.343.344.419.256.478.158.519.055.54-.051.54-.155.519-.253.479-.341.42-.417.345-.475.256-.516.158-.537.054-.538-.053-.517-.157ZM673.189 381.528l-.479-.257-.419-.345-.343-.418-.255-.475-.155-.515-.05-.534.057-.533.161-.512.259-.47.348-.411.423-.335.482-.248.523-.15.542-.047.542.058.52.161.479.258.419.344.343.418.254.476.156.514.05.534-.056.533-.161.512-.26.47-.348.41-.423.336-.482.248-.522.15-.542.047-.542-.058-.521-.161ZM685.994 367.935l.24.291.104.124.255.469.158.504.054.52-.052.516-.156.493-.254.449-.342.39-.417.315-.476.227-.517.132-.537.031-.538-.071-.518-.171-.477-.264-.418-.346-.343-.415-.256-.469-.158-.505-.053-.52.052-.516.156-.493.254-.449.343-.39.417-.314.476-.227.517-.132.134-.007.403-.023.538.071.517.171.476.263.418.346ZM684.044 367.084l-.407.022M704.93 354.365l-.114.425-.208.376-.069.074-.224.24-.368.24-.429.155-.473.066-.499-.026-.506-.118-.493-.205-.462-.284-.411-.352-.347-.407-.268-.445-.179-.467-.083-.471.016-.456.114-.425.164-.295.045-.081.294-.314.368-.239.43-.155.473-.065.498.027.505.118.493.205.461.284.411.351.346.406.268.445.179.467.083.47-.015.456ZM700.798 351.356l-1.778.911M712.68 348.473l-.169.326-.253.263-.328.188-.052.014-.338.093-.436.021-.467-.066-.479-.15-.473-.228-.448-.298-.407-.355-.349-.4-.278-.43-.197-.441-.108-.437-.015-.416.018-.084.061-.294.17-.327.254-.262.328-.187.39-.106.436-.02.467.066.478.15.472.228.448.297.406.355.349.4.278.428.197.441.108.437.015.415-.078.379ZM708.716 345.003l-2.142 1.212M719.377 343.567l-.122.271-.204.204-.278.13-.342.052-.392-.03-.32-.083-.107-.027-.446-.186-.448-.254-.433-.313-.4-.36-.353-.393-.291-.411-.184-.346-.035-.066-.138-.399-.052-.37.036-.326.123-.27.204-.204.279-.13.342-.05.392.03.428.111.445.185.448.254.431.313.4.36.352.392.291.41.219.412.138.398.053.37-.036.326ZM715.197 340.187l-2.552 1.496M724.645 340.422l-.099.095-.002.001-.047.045-.144.045-.008.002-.07.021-.287-.008-.069-.017-.007-.002-.012-.003-.003-.001-.25-.062-.383-.157-.409-.224-.42-.283-.414-.329-.393-.365-.357-.385-.306-.391-.244-.381-.173-.358-.094-.32-.013-.27.069-.209.148-.141.223-.067.287.009.342.085.037.015.003.001.342.141.409.225.419.282.414.329.392.364.356.384.306.391.244.381.173.357.095.32.013.255v.015l-.068.21Zm0 0-.06.127-.001.002-.053.114-.001.003M720.659 336.725l-2.784 1.643M751.066 352.15l.473-.822v-.002M750.016 351.443l.418-.755.001-.002.317-.572.001-.001.177-.32-.06-.093-.137-.168-.209-.236-.273-.295-.326-.343-.368-.378-.395-.399-.407-.403-.403-.393-.384-.367-.349-.328-.303-.275-.244-.213-.175-.142-.1-.065"/><path d="m750.932 349.793-.003.002-.018.012h-.001l-.098-.064-.175-.141-.243-.213-.303-.275-.35-.328-.384-.368-.404-.393-.407-.405-.396-.399-.369-.378-.327-.344-.273-.295-.209-.236-.136-.168-.059-.092.022-.013M747.758 351.568v-.001l.268-.516.002-.004.363-.699.19-.367.008-.161-.078-.231-.156-.292-.23-.342-.296-.379-.35-.4-.39-.408-.245-.236-.003-.001-.167-.161-.426-.375-.419-.336-.326-.234v-.001l-.07-.049-.357-.222-.307-.152-.243-.074-.169.005-.002.001"/><path d="m748.585 349.981-.005.005-.085.081h-.002l-.167.005-.242-.073-.306-.151-.359-.222-.396-.285-.419-.336-.426-.375-.417-.399-.074-.077-.001-.002-.316-.329-.35-.402-.296-.379-.085-.127-.001-.001-.145-.214-.156-.292-.075-.231.008-.161.089-.083.001-.001"/><path d="m748.492 350.067-.001.001-.169.005-.242-.073-.306-.151-.358-.222-.397-.285-.419-.336-.426-.375-.417-.399-.073-.077-.001-.001-.317-.33-.35-.402-.296-.379-.085-.126-.001-.001-.144-.215-.156-.292-.076-.231.008-.161.088-.082.002-.002h.002l.168-.005.243.075M748.355 349.298l.158.292M744.354 345.934l-1.351.784-.882.512-.961.558M745.434 346.376l.069.049M749.353 348.417l-.404-.393-.408-.404-.395-.399-.369-.379-.327-.344-.273-.295-.209-.236-.136-.167-.059-.092.004-.002.017-.012.002.001.099.064.175.142.244.213.302.276.35.327.384.368.403.392.407.404.394.398.368.378.327.343.273.296.209.236.137.167.059.093-.02.015-.099-.065-.175-.141-.243-.212-.303-.276-.35-.328-.384-.368ZM746.796 345.694l-1.292.73M751.539 351.326l-.028-.133-.107-.207-.18-.272-.246-.328-.224-.273M657.205 424.114l.223-.496.08-.11.009-.011.224-.307.003-.005.398-.351.464-.256.511-.152.541-.041.548.071.535.18.501.283.448.374.378.451.292.511.197.551.093.571-.015.567-.121.542-.224.497-.316.432-.005.004-.393.346-.464.256-.512.151-.141.011-.028.002-.371.028-.548-.071-.535-.18-.5-.282-.448-.374-.377-.451-.293-.511-.196-.551-.093-.569.014-.567.121-.543Zm0 0 .017-.045M660.062 428.213l.042.005M648.922 433.204l.268-.396.003-.005.325-.295.007-.006.021-.019.42-.227.472-.125.505-.018.519.09.512.194.488.291.442.376.381.447.305.501.216.536.121.55.019.542-.082.514-.18.467-.272.401-.004.003-.334.302-.009.008-.006.006-.421.227-.471.124-.505.017-.519-.09-.512-.194-.486-.29-.442-.376-.381-.447-.305-.5-.216-.535-.121-.55-.02-.542.082-.514.18-.467Zm0 0 .004-.008M652.168 437.692l.053-.008M641.696 441.84l.215-.354.002-.004.298-.278.367-.186.193-.04.006-.002.224-.046.462.014.483.116.485.213.47.301.436.379.385.442.32.488.241.514.154.522.061.508-.034.476-.129.425-.016.027-.005.008-.196.323-.004.003-.295.274-.367.186-.423.087-.461-.015-.483-.116-.485-.213-.014-.009-.392-.252-.063-.04-.435-.379-.385-.441-.319-.487-.241-.513-.154-.521-.062-.508.034-.476.127-.426Zm0 0 .018-.031M645.453 446.15l.02-.006M636.133 448.949l.235-.226.307-.137.366-.042.412.054.287.096.008.002.147.05.455.236.45.315.428.383.39.435.336.471.254.459.015.029.193.487.035.149.039.169.002.009.033.139.02.429-.069.375-.156.305-.002.003-.234.222-.307.136-.366.041-.412-.054-.442-.148-.242-.126-.212-.111-.412-.289-.037-.026-.427-.382-.389-.434-.336-.47-.176-.318-.093-.169-.147-.371-.046-.115-.109-.467-.021-.429.068-.374.153-.303.002-.003Zm0 0 1.596-2.713M639.777 453.497l.078-.031M632.021 454.978l.167-.166.24-.079.306.01.358.099.397.185.123.077.298.186.429.331.125.116.294.271.395.427.354.452.3.458.234.447.16.419.08.374-.005.316-.077.215-.001.003-.009.027-.002.002-.166.163-.113.037-.003.001-.126.041-.305-.011-.358-.1-.131-.061-.003-.002-.042-.019-.002-.001-.219-.102-.421-.263-.427-.331-.419-.386-.394-.426-.353-.451-.247-.376-.053-.081-.235-.446-.081-.212-.001-.004-.078-.203-.016-.073-.064-.302.004-.316.086-.243.001-.003Zm0 0 .949-1.591.829-1.389M636.02 459.312l.003-.001M629.68 459.399l.002-.002.094-.099.172-.016.242.067.301.149.125.08.001.001.225.144.385.293.406.348.165.157.001.001.245.234.399.418.073.084.3.346.332.425.205.299.003.003.07.102.214.366.141.316.008.032.055.22-.011.112v.005l-.006.062-.001.001-.096.098-.173.016-.241-.068-.302-.15-.35-.225-.385-.292-.406-.348-.409-.39-.369-.387-.001-.002-.029-.029-.372-.43-.331-.424-.279-.403-.003-.006-.001-.001-.21-.359-.141-.316-.064-.252.016-.178v-.002Zm0 0 .74-1.25.131-.22 1.006-1.697M633.73 463.646l.004-.002M629.16 462.096l.005-.006.019-.025.103.049.177.128.245.201.303.268.35.323.048.047.003.002.332.318.401.396.404.409.392.408.364.391.322.357.268.312.204.253.131.185.043.088.002.003.009.019-.025.03-.103-.05-.178-.128-.245-.202-.303-.267-.349-.323-.383-.366-.4-.395-.403-.409-.391-.407-.364-.39-.322-.358-.268-.311-.204-.253-.132-.186-.054-.109-.001-.002Zm0 0 .918-1.587M633.258 466.252l.003-.001M633.305 466.229l.337.287.321.256.265.19.198.116.124.04.005-.003 1.382-.779M713.972 374.874l-.04.533-.021.07-.129.433-.254.455-.349.388-.43.307-.495.214-.541.114-.565.007-.569-.098-.55-.201-.511-.294-.45-.378-.374-.447-.282-.498-.181-.53-.071-.542.04-.532.151-.504.255-.454.349-.388.191-.136.24-.171.495-.213.54-.113.566-.007.568.098.549.201.51.294.45.378.374.446.282.497.181.53.071.541Zm0 0 .098 1.517M709.878 372.009l-1.339.51M634.551 467.118l1.386-.782"/><path d="M633.285 466.222v.001l-.022.028-.003.003-.103-.05-.178-.129-.245-.201-.303-.268-.349-.323-.382-.366-.401-.395-.403-.409-.391-.407-.363-.39-.322-.357-.269-.311-.204-.254-.132-.185-.055-.111h.001M630.359 463.036l.049.046.003.003.331.317.401.396.405.41.391.408M632.305 465.006l.322.358"/><path d="m633.258 466.254.046-.025.001-.001.481-.259.001-.001 1.393-.754M629.707 462.445l.303.267M633.824 463.547v.002l-.092.094-.005.005-.173.016-.242-.068-.302-.15-.35-.225-.385-.292-.405-.348-.41-.39-.369-.388-.001-.001-.028-.029-.372-.429-.332-.425-.278-.403-.004-.006v-.001l-.21-.359-.142-.316-.064-.252.017-.18.001-.001.095-.099.172-.017M633.426 462.437l.214.366M633.785 463.143l.057.228-.01.107M633.727 463.648l.164-.082.003-.002.13-.066.881-.446h.001l.084-.042.001-.001.209-.106.004-.001.159-.081.385-.195M630.188 459.353l.302.149M631.227 460.02l.406.349M636.277 458.59l-.004.316-.076.21-.001.003-.01.029-.001.003-.162.159-.006.006-.108.035-.003.001-.13.042-.306-.011-.358-.1-.129-.06-.003-.001-.044-.02-.002-.001-.219-.103-.42-.263-.428-.33-.419-.386-.394-.427-.353-.45-.249-.379-.051-.078-.234-.447-.084-.217-.001-.004-.076-.198-.016-.076-.064-.298.004-.317.087-.245.002-.002M635.148 456.44l.354.451.3.458.235.447M633.797 451.997l-.829 1.39-.952 1.596M632.426 454.737l.305.011"/><path d="m636.016 459.316.296-.136.003-.001 2.413-1.105M633.484 455.032l.12.075M640.219 451.08l.193.486.034.148.038.162.002.009.034.148.02.429-.069.374-.153.303-.002.003-.236.225-.225.099-.082.037-.367.041-.411-.054-.442-.149-.245-.127-.209-.109-.415-.29-.034-.025-.428-.382-.389-.434-.335-.47-.177-.32-.093-.167-.148-.373-.045-.113-.109-.467-.02-.429.068-.374.154-.307.003-.002.233-.223.306-.137.367-.042.412.054.294.098M637.735 446.225l-1.606 2.729M639.773 453.503l2.886-1.129M637.891 448.752l.455.236M638.797 449.303l.094.084M646.116 445.689l-.002.004-.298.277-.342.173-.026.013-.422.087-.462-.015-.482-.116-.486-.213-.016-.01-.391-.252-.062-.039-.435-.379-.384-.441-.319-.486-.242-.514-.154-.521-.062-.508.034-.476.128-.426.023-.038.194-.32.003-.003.294-.275M646.035 442.89l.174.372.067.142.088.296M646.434 443.926l.061.508-.034.476M642.574 441.025l.198-.042.007-.001.217-.044.462.013.483.116.486.213M642.967 439.569l-1.276 2.278M645.445 446.156l2.286-.673M653.407 437.026l-.003.005-.329.298-.009.007-.015.014-.421.227-.411.108-.06.016-.505.017-.519-.09-.512-.194-.486-.29-.442-.376-.381-.447-.304-.5-.217-.535-.121-.55-.02-.542.082-.514.18-.467.011-.016.26-.385.004-.003M651.969 432.405l.487.291.442.376.381.447.305.501M649.957 432.264l.472-.125M649.847 431.332l-.933 1.88M652.16 437.7l1.164-.171M661.969 427.419l-.003.004-.398.351-.464.256-.512.151-.113.009-.028.002-.349.026-.05.004-.547-.071-.536-.18-.5-.283-.448-.374-.377-.451-.292-.51-.196-.551-.094-.57.014-.567.122-.542.024-.054.198-.443.09-.121.008-.012.219-.299.005-.004M662.355 424.264l.197.551.094.57-.016.568-.121.542M658.602 422.588l.512-.152.54-.041.548.071.535.18M657.655 422.857l-.456 1.266M660.055 428.222l1.458.173M666.568 415.636l-.014-.11-.058-.472.04-.582.15-.558.183-.37v-.001l.071-.144.35-.45.431-.37.496-.273.542-.168.567-.054.51.053.059.006.552.172.511.278.452.373.375.454.283.517.182.56.072.583-.04.581-.151.559-.255.514-.35.451-.431.369-.496.273-.542.167-.566.055-.57-.06-.551-.172-.511-.278-.452-.373-.315-.381-.059-.072-.284-.517-.181-.56Zm0 0-.039-.188M667.035 416.713l.124.189M678.521 407.304l-.517-.276-.454-.373-.373-.454-.278-.519-.172-.563-.006-.057-.053-.528.055-.585.168-.563.275-.519.37-.456.451-.373.516-.278.56-.171.244-.025.339-.034.583.057.561.171.518.276.454.373.373.454.277.519.172.563.06.585-.056.586-.168.563-.275.519-.37.455-.451.373-.516.278-.56.171-.583.059-.583-.057-.561-.171ZM689.08 396.783l-.52-.28-.454-.373-.373-.454-.275-.516-.031-.1-.138-.458-.055-.579.061-.579.175-.555.281-.51.246-.292.131-.154.458-.364.522-.269.566-.164.588-.051.587.063.564.175.519.279.455.373.372.453.276.516.168.558.055.58-.06.578-.175.555-.281.51-.376.446-.459.365-.522.269-.566.163-.588.052-.587-.063-.564-.174ZM702.936 382.017l.26.315.113.135.277.509.172.547.059.564-.056.561-.168.534-.274.489-.37.423-.451.343-.515.247-.559.144-.582.034-.583-.076-.56-.185-.517-.285-.454-.376-.372-.45-.278-.509-.171-.548-.059-.564.056-.561.168-.535.275-.488.37-.423.451-.342.515-.248.559-.143.236-.014.346-.02.583.077.56.185.516.285.453.375Zm0 0 .277.328M700.824 381.095l-.465.004M723.371 367.236l-.121.461-.223.41-.097.106-.218.236-.397.262-.463.17-.51.073-.539-.028-.547-.127-.533-.221-.5-.307-.446-.381-.376-.441-.291-.483-.195-.507-.091-.512.015-.496.122-.462.191-.35.032-.059.317-.342.397-.26.463-.17.51-.072.539.028.546.127.532.221.499.307.445.381.376.44.291.483.195.506.092.511-.015.496Zm0 0-.108.605-.141.793M718.898 363.979l-1.949.972M731.703 360.803l-.18.356-.272.287-.352.206-.086.024-.333.093-.47.024-.504-.069-.517-.161-.511-.246-.485-.322-.44-.386-.379-.434-.302-.465-.215-.48-.119-.474-.018-.452.022-.11.061-.302.181-.356.272-.286.353-.205.419-.116.471-.024.503.07.516.161.51.246.484.322.44.385.14.16.238.273.086.133.216.332.215.478.119.475.019.451-.082.412Zm0 0-.452 1.428M727.41 357.045l-2.34 1.301M738.876 355.435l-.129.295-.218.224-.297.143-.367.058-.422-.031-.379-.096-.081-.021-.193-.08-.288-.12-.372-.211-.112-.063-.467-.339-.434-.389-.382-.426-.317-.446-.207-.388-.032-.06-.151-.433-.059-.403.036-.355.129-.294.219-.223.298-.143.367-.057.422.031.055.015.405.103.288.12.192.08.483.274.467.338.432.39.053.059.329.366.208.292.108.152.239.448.152.433.06.402-.035.355Zm0 0-1.187 2.898M734.354 351.777l-2.78 1.612M744.486 351.973l-.114.115-.002.001-.04.04-.039.013-.005.001-.192.062-.307-.007-.366-.09-.234-.095-.001-.001-.176-.072-.441-.242-.453-.304-.447-.357-.426-.394-.386-.418-.161-.204-.172-.219-.266-.415-.19-.388-.042-.139-.063-.21-.018-.294.072-.229.157-.155.236-.075.035.001.273.007.316.078h.003l.047.012.411.169.177.097.263.145.452.304.447.356.424.394.386.416.332.423.267.414.189.388.069.224v.002l.037.122.019.295-.071.229Zm0 0-.07.15-.002.002-.032.069-.002.004-.775 1.638M740.173 347.972l-2.395 1.404-.63.37M707.303 419.542l-8.764 4.817-2.999 1.649-7.597 6.503-2.305 1.973-6.172 7.868-1.949 2.486-4.321 9.018-1.243 2.595-2.585 9.66-.811 3.032-.401 9.992-.121 3.013 1.188 9.93.392 3.28 2.957 9.553.992 3.208 4.772 8.788 1.594 2.935 6.045 7.966 1.961 2.585 7.209 6.93 2.15 2.067 8.49 5.284 2.412 1.502 9.367 3.5 2.474.924 9.883 1.526 2.43.375 9.984-.553 2.288-.127 9.596-2.816 2.69-.789 8.829-4.695 2.181-1.16"/><path d="m707.301 419.542 5.984-1.875 6.61-2.071 9.938-1.114 3.552-.398 9.951.988 3.19.317 9.543 2.987 3.051.955 8.796 4.757 2.941 1.59 7.512 6.602 2.438 2.142 5.842 8.117 1.947 2.705 4.272 9.041 1.514 3.203 2.467 9.691.914 3.592.591 9.982.227 3.837-1.306 9.915-.517 3.931-2.875 9.578-1.03 3.434-4.765 8.792-1.825 3.366-6.251 7.806-2.038 2.544-4.449 3.718-5.608 4.687"/><path d="m756.598 524.166-7.857 4.242-8.5 2.53-8.815.724-3.516-.441-5.277-.662-8.432-2.885-7.753-4.552-6.779-6.043-5.549-7.301-4.109-8.281-2.516-8.946-.827-9.272.113-1.171.78-8.075 2.026-6.96.556-1.909.927-1.811 3.247-6.344 5.61-7.129 6.834-5.829 7.801-4.303.881-.271 7.59-2.337 8.816-.808 8.824 1.026.291.097 8.199 2.73 7.826 4.522 6.859 6.044 5.622 7.336 4.165 8.342.872 3.09 1.674 5.934.826 9.356-.925 9.323-2.639 8.927-4.248 8.185-5.689 7.127-6.063 5.086-.845.709Z"/><path d="m757.444 523.458-6.179 3.336-8.467 2.521-8.782.723-8.059-1.01-.7-.088-8.401-2.872-7.723-4.532-6.752-6.018-5.528-7.27L692.76 500l-2.506-8.909-.477-5.352-.347-3.883.891-9.209 2.573-8.833 4.158-8.123 5.589-7.1 6.809-5.807 5.994-3.306M1195.37 855.672l2.97 2.307 7.8 6.263 7.79 6.263 1.67 1.344"/><path d="m1191.84 864.756 7.81 6.25 7.8 6.25 1.28 1.02 6.87-6.427.64-3.071-6.87-7.275-5.66-6.002-6.86-7.276-5.64-5.979-2.12-2.258M1127.1 873.122l-.5-1.943-.25-1.011-1.19-4.667-.14-.567-2.47-9.692-1.11-4.364-.3-.266-.34-.305-7.49-6.624-7.5-6.624-7.49-6.623-7.49-6.624-7.49-6.624-7.49-6.624-7.49-6.624-7.5-6.624-7.49-6.623-7.49-6.624-7.49-6.624-7.49-6.624-7.49-6.624-2.18-1.918-7.18 6.954-.18.175 4.91 8.709 4.92 8.71 4.91 8.709 2.96 5.242 4.91 8.71 4.91 8.709 4.92 8.71 4.91 8.709 4.92 8.71 4.91 8.709 2.51 4.452 7.21 6.925 7.22 6.926 7.21 6.925 2.66 2.549 5.19 4.991 2.49 2.388 3.38 3.242 7.21 6.926 7.22 6.925 7.21 6.926 7.21 6.926 1.91 1.83 7.32 6.818 7.31 6.816 7.31 6.818 7.29 6.79 7.32 6.818 7.25 6.763 7.32 6.818 7.23 6.738 7.34-6.794.41-.386.81-3.92-6.28-7.78-6.29-7.78-5.32-6.595-6.18-7.863-6.18-7.863-5.26-6.698-6.25-7.811-4.07-5.093-5.02-6.282-2.2-2.748-2.18-3.274-.29-.429-5.56-8.314-.07-.105-.29-.441-1.97-2.937v-.005l-.24-.365-.01-.007-1.65-2.474v-.002l-.38-.57-.01-.004-3.79-5.683Z"/><path d="m1021.23 762.279 4.95 8.69 4.95 8.691 4.95 8.691 2.97 5.227 4.95 8.69 4.94 8.691 4.95 8.691 4.95 8.69 4.94 8.691 4.95 8.691 2.53 4.436"/><path d="m1063.56 857.487 7.24-6.897.46-.432 7.21 6.928 7.21 6.927 7.21 6.928 5.67 5.448.59.562 7.21 6.928 2.8 2.693 2.94 2.821 2.69 2.584v.002l.49.467.01.01 1.87 1.794.01.011.8.774 7.22 6.928 1.28 1.235.72.689.4.382 7.21 6.928 2.62 2.514 7.31 6.822 7.32 6.831 7.31 6.822 7.3 6.805 7.31 6.822 7.26 6.778 7.32 6.822 7.24 6.752M1775.65 68.913l-8.16-5.78-8.16-5.782-1.31-.929-8.7-4.933-8.7-4.933-1.43-.81-9.14-4.04-9.15-4.04-1.54-.68-9.51-3.109-9.5-3.109-1.64-.537-9.77-2.154-9.76-2.155-1.73-.38-3.56-.629-9.93-1.182-9.93-1.18-1.93-.23-10-.206-10-.204-1.98-.04-9.97.772-9.97.773-2.01.155-9.85 1.736-9.85 1.736-2.01.354-9.63 2.68-9.64 2.681-1.98.551-9.33 3.596-9.33 3.595-1.92.742-3.53 1.45-8.94 4.476-8.95 4.477-1.77.89-8.47 5.313-8.47 5.314-1.67 1.047-7.92 6.103-7.93 6.103-1.54 1.188-7.3 6.834-7.3 6.834-1.4 1.31-6.61 7.503-6.61 7.503-1.24 1.406-5.85 8.104-5.86 8.104-1.07 1.478-1.38 2.275-5.05 8.631-5.05 8.632-.75 1.285-4.19 9.079-4.19 9.079-.6 1.297-3.29 9.443-3.29 9.444-.45 1.29-2.36 9.718-2.35 9.719-.31 1.266-1.39 9.903-1.4 9.902-.17 1.229-.42 9.991-.41 9.991-.05 1.18.57 9.984.57 9.984.06 1.124 1.56 9.879 1.55 9.879.17 1.065 2.52 9.675 2.53 9.676.26 1.005 3.47 9.378 3.47 9.377.35.945 4.39 8.986 4.39 8.985.43.887 5.26 8.505 5.26 8.505.52.831 6.08 7.939 6.08 7.939.59.776 6.84 7.297 6.84 7.296.67.722 7.53 6.582 7.53 6.581.76.666 1.95 1.399 8.14 5.805 8.14 5.805 1.07.763 8.68 4.972 8.68 4.972 1.17.674 9.13 4.096 9.12 4.096 1.28.575 9.48 3.183 9.48 3.182 1.38.464 9.75 2.243 9.74 2.243 1.48.34 9.92 1.285 9.91 1.285 1.57.203 9.99.32 10 .321 1.63.052 3.77-.08 9.98-.645 9.98-.645 1.76-.114 9.87-1.6 9.87-1.601 1.79-.29 9.68-2.54 9.67-2.54 1.8-.473 9.39-3.452 9.38-3.453 1.79-.657 9.01-4.334 9.01-4.335 1.74-.839 8.56-5.175 8.56-5.174 1.68-1.015 3.01-1.961 8.02-5.97 8.02-5.97 1.48-1.095 7.41-6.71 7.42-6.71 1.36-1.234 6.74-7.392 6.73-7.391 1.24-1.357 5.99-8.005 5.99-8.005 1.1-1.46 5.19-8.547 5.19-8.547.94-1.542 4.33-9.01 4.34-9.011.77-1.602 3.44-9.391 3.43-9.391.6-1.641 2.5-9.682 2.5-9.683.43-1.659 1.53-9.882 1.53-9.882.26-1.657.15-1.073.54-9.985.55-9.985.07-1.282-.46-9.989-.45-9.99-.06-1.249-1.45-9.895-1.45-9.894-.18-1.209-2.44-9.698-2.44-9.698-.29-1.162-3.4-9.403-3.41-9.403-.4-1.111-4.34-9.011-4.33-9.011-.51-1.057-.57-1.007-5.22-8.526-5.23-8.526-.8-1.306-6.06-7.953-6.06-7.953-.93-1.224-6.84-7.3-6.83-7.3-1.07-1.135-7.53-6.572-7.54-6.572-1.19-1.038Z"/><path d="m1764.19 280.172-7.48 6.642-7.2 6.4-8.61 5.096-8.57 5.078-8.48 5.3-8.48 5.3-.48.301-9.59 2.845-9.59 2.846-1.74.517-9.96-.874-9.96-.873-2.9-.254-9.54-2.986-7.36-2.302-2.71-.85-8.91-4.548-8.9-4.548-2.81-1.434-7.86-6.178-7.87-6.178-.62-.492-6.52-7.59-3.73-4.348-4.87-5.681-5.1-8.599-5.11-8.599-.57-.97-3.21-9.471-3.21-9.472-.44-1.295-.4-1.193-1.01-9.949-1-9.95-.27-2.663 4.1-9.122 4.1-9.122.49-1.086 3.56-9.342 2.48-6.485 1.14-3.003 4.63-8.863 4.56-8.714 6.22-7.829 5.9-7.425 7.56-6.538 6.95-6.002 8.63-5.051 7.73-4.521 9.39-3.426 8.28-3.019 9.96-.809 9.97-.809 4.71-.383 9.93 1.185 8.97 1.07 9.25 3.793 7.43 3.047 8.8 4.742 6.71 3.615 7.86 6.187 7.86 6.187 2.94 2.316 6.46 7.635 6.03 7.134 5.46 8.381 4.17 6.406 3.94 9.188 3.21 7.462 1.53 9.883 1.52 9.883.43 2.801-.8 9.968-.81 9.967-.1 1.253-2.92 9.563-2.62 8.541-4.57 8.894-4.16 8.103-6.11 7.917-5.71 7.4Z"/><path d="m1800.62 233.08.81-9.967.8-9.968.35-4.288-1.53-9.883-1.52-9.883-.94-6.032-3.94-9.188-3.95-9.187-.29-.659-5.45-8.382-5.55-8.524-6.46-7.635-6.45-7.635-1.37-1.615-7.86-6.186-7.85-6.186-5.62-4.42-8.8-4.741-8.93-4.81-9.26-3.792-9.25-3.792-.56-.232-9.93-1.185-9.93-1.186-1.75-.208-9.96.81-9.97.808-8.24.67M1556.33 271.141l2.02 6.527.55 6.754-.65 7.294-.12 4.188-.04 1.326-1.97 5.136-4.84 4.055-4.29 3.451-2.69.378-4.98 2.582-5.65.753-4.46-3.046-2.1-2.965-4.53-2.628-4.98-5.276-2.53-2.375-3.47-7.284-.82-2.781-1.3-7.96.91-2.905 1-7.637 2.52-2.463.19-5.919 1.53-5.015M1549.04 314.248l3.58-.5M1508.62 255.764l-3.34 3.286-1.29 9.917-.03.24M1567.67 289.572l.87-9.728M1535.68 235.854l-6.51-.552M1526.17 310.672l2.79 3.942M1545.53 255.097l2.86 5.318M1554.53 247.841l-3.75-6.945-.08-.138M1640.72 411.124l8.14-1.936M1625.86 414.892l8.85-.407 1.38-1.568M1566.85 390.195l3.37 4.342-1.11 1.49M1569.11 396.027l3.41-2.644 1.73-1.343.81-1.096-2.57 1.907-2.27 1.686M1600.29 410.632l2.23.51 3.16.726 5.61 1.285 6.13 1.403M1661.12 346.454l-7.18-4.386M1583.66 405.069l4.64 1.553M1680.96 383.771l.88-4.68-.02-5.714-.92-5.558-1.8-1.723-2.81-3.723-2.12-5.722M1558.1 349.763l-1.39 4.725-.56 2.922"/><path d="m1556.81 348.439 1.29 1.324 6.96 7.175.23.239.98.852M1671.32 401.555l.92-3.885.58-4.389 3.6-5.005 2.76-4.212M1584.75 332.036l-7.17 2.588-4.93 1.131-3.27.674-5.05 3.655-.22.157-4.61 4.405-2.69 3.793M1655.32 404.263l5.1-1.985M1611.58 330.174l-5.53-.106M1606.51 395.344l-4.45-1.017-1.13-.259-1.76-.587-4.31-1.444-2.36-.787-.43-.194-3.79-2.081-3.15-2.313.57-.758-1.7-2.203-1.21-1.371-1.3-1.474-.83-2.043 1.01-1.132-1.76-2.543-1.74-1.237-.62-.441-1.78-1.271 1.44-1.431 1.18-2.227.57-2.864.74-2.453-.67-.587 1.37-1.9 2.34-2.201.5-.361 2.17-1.537 1.64-.331 2.49-.558 3.6-1.281M1599.82 352.815l1.82.542.38.113 4.58.1M407.562 778.769l-8.108-5.853-.23-.166-8.633-5.047-.226-.132-9.079-4.193-.214-.099-2.159-.755-9.442-3.293-.474-.165-9.718-2.358-.453-.11-9.903-1.394-.426-.06-9.992-.412-.393-.016-3.361.086-9.983.582-.551.032-9.875 1.576-.512.081-9.667 2.559-.471.125-3.655 1.198-9.361 3.519-.517.195-8.957 4.448-.477.237-8.46 5.331-.439.276-3.316 2.211-7.876 6.162-.394.309-7.211 6.929-.361.346-2.525 2.941-6.473 7.623-.255.301-5.671 8.237-.231.335-4.814 8.765-.205.374-1.352 3.137-3.914 9.202-.092.216-2.98 9.546-.078.249-2.024 9.793-.059.285-1.054 9.944-.033.32-.03 2.363-.081 10.033.893 10.023 1.856 9.916 2.771 9.609.031.107 3.672 9.302.048.122 4.538 8.911.065.129 5.359 8.443.082.13 6.133 7.899.095.123 6.85 7.285.104.111 7.509 6.605.107.095 8.1 5.864.104.075 8.621 5.067.093.055 9.142 4.257 2.12.935 9.429 3.331.354.125 9.707 2.404.335.083 9.895 1.448.31.045 9.989.472.282.014 3.391.087 9.986-.516.466-.024 9.887-1.504.434-.066 9.686-2.484.403-.103 3.718-1.045 9.389-3.443.477-.175 8.994-4.371.445-.217 3.399-2.065 8.506-5.258.424-.262 7.93-6.092.396-.304 7.272-6.864.368-.347 2.632-2.804 6.54-7.565.28-.325 5.744-8.186.259-.368 4.889-8.723.233-.415 1.498-3.022 3.991-9.168.126-.289 3.057-9.521.107-.332 2.099-9.777.081-.377 1.124-9.936.048-.419.217-2.314.147-9.999.003-.164-.828-9.966-.017-.198-1.788-9.839-.041-.227-2.728-9.62-.071-.248-3.637-9.315-.102-.261-4.512-8.924-.134-.266-5.341-8.454-.165-.26-6.123-7.906-.191-.246-6.848-7.288-.211-.225-7.513-6.6-.225-.198Z"/><path d="m348.502 908.84-7.509 6.502-8.631 5.051-.105.062-8.187 5.168-9.597 2.811-.285.083-9.966-.827-1.211-.1-9.637-2.928-8.911-4.537-1.115-.568-7.932-6.239-6.442-7.649-.799-.95-4.984-8.669-.123-.213-3.043-9.526-.309-.965-.913-9.958-.096-1.045 3.728-9.138 3.694-9.247 4.845-8.735 6.239-7.593 7.352-6.25 8.183-4.775 8.742-3.213 9.966-.822 2.045-.169 3.548.401 5.732.646 7.93 3.418 7.409 4.128 7.817 6.237.228.182.948.757 6.113 7.156 4.774 7.14 3.491 8.086.992 7.065.557 3.969-.935 9.956-.038.406-2.926 8.904-4.547 8.392-1.889 2.356-4.203 5.24Z"/><path d="m373.09 882.834.934-9.956.182-1.943-1.237-8.808-.543-3.862-3.964-9.181-.045-.104-5.481-8.199-4.943-5.787-2.076-2.431-7.817-6.237-2.51-2.002-8.509-4.74-.58-.25-8.526-3.672-2.325-.263-8.331-.94-9.966.821-3.826.315M248.315 918.94l-1.37-1.294-1.002-1.468-1.647-1.565-2.044-2.78-.952-1.306-.45-.995-1.183-2.617-.424-1.356-.888-3.787.119-1.264-.056-3.48.621-.905-.106-2.805.362-2.264"/><path d="m253.703 901.485 1.054 3.153.575 3.148.211 3.312.33 2.498-.276 2.186-1.399 1.526-1.254 1.292-.891-.015-1.443.794-1.845-.065-.52-.477-1.3-1.191M253.195 921.248l1.924-1.055 1.188.02M236.969 891.506l.076 4.633M236.887 897.822l1.18 5.039M240.805 909.468l.496 1.059M249.042 884.916l-2.916-1.907-2.247-.74-1.246.438M249.227 893.264l1.177 2.705M303.527 965.026l3.794.038.161-.559 1.638-.616 3.235-.631 2.08-.783-.516-.973 1.922-.732 2.75-.143 2.408-.126-.515-1.51-.804-1.707M263.056 938.025l.554 2.308-.07 1.702-.513 1.006 1.723 1.247 2.275 1.647 2.241 2.249-.19.76 1.509 1.688 3.049 2.511 2.191 1.916-.052.522 3.451 2.092"/><path d="m275.773 955.581.118-.921.038-.383-.104.782M291.307 932.022l-4.065-1.125M291.465 962.678l1.072.266 4.218 1.044M304.996 938.171l-3.934-1.951M320.277 955.318l.357-1.651.837-.128-.521-1.896-1.185-2.304-1.603-2.232-1.257-.684-2.016-1.545-2.008-2.381-2.408-2.254-3.27-1.389M262.102 935.507l.689.811 3.099 3.651.476.419"/><path d="m275.194 929.063-2.988-.355-1.829 1.22-2.457.788-1.765.259-1.105.104-1.406 1.33-1.08 1.625-.462 1.473M280.964 930.16l-3.831-.37M290.006 957.057l-2.131-.527-.541-.134-.845-.298-2.076-.733-1.132-.4-.209-.097-1.923-1.001-1.742-1.057.027-.264-1.106-.968-1.538-1.268-.76-.852.098-.384-1.129-1.134-1.148-.831-.869-.629.262-.506.039-.856-.275-1.161-.149-.978-.328-.288.236-.74.549-.813.711-.666.558-.05.889-.128 1.238-.392M279.137 939.473l.976.366 1.924.189M1378.04 284.115l-7.17-6.965-7.18-6.965-6.89-6.685-6.96 7.175-6.97 7.175-6.68 6.887 7.17 6.965 7.18 6.965 6.89 6.685 6.96-7.175 6.97-7.175 6.68-6.887ZM1347.28 252.199l-7.18-6.965-5.52-5.358-6.97 7.175-5.35 5.52 7.17 6.965 5.52 5.358 6.97-7.176 5.36-5.519ZM1367.02 237.45l-7.18-6.966-1.5-1.464-6.97 7.175-1.46 1.509 7.17 6.965 1.51 1.465 6.97-7.176 1.46-1.508ZM2265.97 1215.68l-7.16-6.98-7.16-6.98-7.16-6.99-7.16-6.98-7.15-6.98-7.16-6.98-7.16-6.99-7.16-6.98-7.16-6.98-7.16-6.98-7.16-6.98-7.16-6.99-7.16-6.98-7.16-6.98-7.15-6.98-7.16-6.98-7.16-6.99-7.16-6.98-7.16-6.98-7.16-6.98-7.16-6.99-7.16-6.98-7.16-6.98-7.15-6.98-7.16-6.98-7.16-6.99-7.16-6.98-7.16-6.98-7.16-6.98-7.16-6.98-7.16-6.986-7.16-6.982-7.15-6.982-7.16-6.982-7.16-6.982-7.16-6.982-7.16-6.982-7.16-6.982-7.16-6.983-7.16-6.982-7.16-6.982-7.15-6.982-7.16-6.982-7.16-6.982-7.16-6.982-7.16-6.982-7.16-6.983-7.16-6.982-7.16-6.982-7.16-6.982-7.15-6.982-8.08-7.876 6.98 7.159 6.98 7.159 6.99 7.158 6.98 7.159 6.98 7.159 6.98 7.159 6.98 7.159 6.99 7.159 6.98 7.159 6.98 7.159 6.98 7.159 6.98 7.159 6.99 7.159 6.98 7.159 6.98 7.158 6.98 7.159 6.99 7.159 6.98 7.159 6.98 7.159 6.98 7.159 6.98 7.156 6.99 7.16 6.98 7.16 6.98 7.16 6.98 7.16 6.98 7.16 6.99 7.16 6.98 7.15 6.98 7.16 6.98 7.16 6.98 7.16 6.99 7.16 6.98 7.16 6.98 7.16 6.98 7.16 6.99 7.16 6.98 7.16 6.98 7.15 6.98 7.16 6.98 7.16 6.99 7.16 6.98 7.16 6.98 7.16 6.98 7.16 6.98 7.16 6.99 7.16 6.98 7.15 6.98 7.16 6.98 7.16 6.99 7.16 6.98 7.16 7.87 8.08M618.642 439.671l-.001.001M620.748 435.496l-.002.004M623.25 446.999l.001.001M621.156 443.028l1.517 2.715.001.001.672 1.203.001.001 2.358 4.218M629.681 459.4l-.001.002M727.062 336.506l.1.096M730.535 338.994l.114-.208.001-.001.146-.265"/><path d="m736.011 342.056-4.964-2.777-.003-.002-.509-.284M751.066 352.15l.471-.82.002-.004M743.003 346.717l-.508-.342-2.038-1.373M938.115 786.307l-1.506 2.682M938.772 786.845l-.208.377-.002.004-1.189 2.159v.002l-.253.46-.001.001-.076.138M945.553 782.646l-1.014 2.076-.002.005-.296.606-.257.529M946.051 792.803l1.903 1.558.436.357M954.057 800.146l-.35.639M954.865 800.631l-.331.616-.245.461-.002.001-.057.107M961.575 796.975l-.002.004-.239.509-.236.504M968.043 791.469l-.656 1.595M1077.54 659.021l.9-1.604M1084.11 669.52v-.001M1089.39 676.109l.86-1.549M962.457 805.207l3.332 2.009 1.259.759 8.564 5.164 8.564 5.163 2.417 1.457 8.564 5.163 8.563 5.164 8.57 5.163 8.56 5.163 8.56 5.163 8.57 5.163 8.56 5.164 8.57 5.163 8.56 5.163 8.56 5.163 8.57 5.163 1.22.74.12.071 5.72 3.447M1095.54 888.191l-1.61.453M1084.52 670.239l-.42-.697v-.001l-.01-.011-3.84-6.385M1092.5 683.469l-3.44-5.698M1182.78 824.457l.49-.867M1179.34 821.589l-.52-.93-4.88-8.728-1.77-3.169"/></g><defs><clipPath id="a"><path fill="#fff" d="M0 0h1920v1080H0z"/></clipPath></defs></svg>