<svg width="32" height="32" viewBox="0 0 32 32" fill="none" xmlns="http://www.w3.org/2000/svg">
<g clip-path="url(#clip0_1202_2)">
<path d="M9.33352 14.6667V13.3333C9.33352 12.9797 9.19304 12.6406 8.94299 12.3905C8.69294 12.1405 8.3538 12 8.00018 12C7.64656 12 7.30742 12.1405 7.05737 12.3905C6.80733 12.6406 6.66685 12.9797 6.66685 13.3333V14.6667H5.33352C4.97989 14.6667 4.64076 14.8071 4.39071 15.0572C4.14066 15.3072 4.00018 15.6464 4.00018 16C4.00018 16.3536 4.14066 16.6928 4.39071 16.9428C4.64076 17.1929 4.97989 17.3333 5.33352 17.3333H6.66685V18.6667C6.66685 19.0203 6.80733 19.3594 7.05737 19.6095C7.30742 19.8595 7.64656 20 8.00018 20C8.3538 20 8.69294 19.8595 8.94299 19.6095C9.19304 19.3594 9.33352 19.0203 9.33352 18.6667V17.3333H10.6668C11.0205 17.3333 11.3596 17.1929 11.6097 16.9428C11.8597 16.6928 12.0002 16.3536 12.0002 16C12.0002 15.6464 11.8597 15.3072 11.6097 15.0572C11.3596 14.8071 11.0205 14.6667 10.6668 14.6667H9.33352ZM8.00018 8H24.0002C25.3346 7.99997 26.6479 8.33376 27.8204 8.97097C28.9929 9.60818 29.9874 10.5286 30.7133 11.6483C31.4391 12.7681 31.8734 14.0516 31.9765 15.3821C32.0795 16.7126 31.8481 18.0477 31.3034 19.2659C30.7586 20.4841 29.9177 21.5467 28.8574 22.3568C27.797 23.167 26.5508 23.6991 25.2323 23.9046C23.9137 24.1101 22.5647 23.9825 21.3081 23.5334C20.0515 23.0843 18.9272 22.328 18.0375 21.3333H13.9628C13.0732 22.328 11.9489 23.0843 10.6923 23.5334C9.43565 23.9825 8.08665 24.1101 6.7681 23.9046C5.44956 23.6991 4.20337 23.167 3.143 22.3568C2.08263 21.5467 1.24177 20.4841 0.696997 19.2659C0.152221 18.0477 -0.0791686 16.7126 0.0238989 15.3821C0.126966 14.0516 0.561217 12.7681 1.28711 11.6483C2.013 10.5286 3.00747 9.60818 4.17996 8.97097C5.35246 8.33376 6.66572 7.99997 8.00018 8ZM24.0002 14.6667C24.3538 14.6667 24.6929 14.5262 24.943 14.2761C25.193 14.0261 25.3335 13.687 25.3335 13.3333C25.3335 12.9797 25.193 12.6406 24.943 12.3905C24.6929 12.1405 24.3538 12 24.0002 12C23.6466 12 23.3074 12.1405 23.0574 12.3905C22.8073 12.6406 22.6668 12.9797 22.6668 13.3333C22.6668 13.687 22.8073 14.0261 23.0574 14.2761C23.3074 14.5262 23.6466 14.6667 24.0002 14.6667ZM21.3335 17.3333C21.6871 17.3333 22.0263 17.1929 22.2763 16.9428C22.5264 16.6928 22.6668 16.3536 22.6668 16C22.6668 15.6464 22.5264 15.3072 22.2763 15.0572C22.0263 14.8071 21.6871 14.6667 21.3335 14.6667C20.9799 14.6667 20.6408 14.8071 20.3907 15.0572C20.1407 15.3072 20.0002 15.6464 20.0002 16C20.0002 16.3536 20.1407 16.6928 20.3907 16.9428C20.6408 17.1929 20.9799 17.3333 21.3335 17.3333ZM26.6668 17.3333C27.0205 17.3333 27.3596 17.1929 27.6097 16.9428C27.8597 16.6928 28.0002 16.3536 28.0002 16C28.0002 15.6464 27.8597 15.3072 27.6097 15.0572C27.3596 14.8071 27.0205 14.6667 26.6668 14.6667C26.3132 14.6667 25.9741 14.8071 25.724 15.0572C25.474 15.3072 25.3335 15.6464 25.3335 16C25.3335 16.3536 25.474 16.6928 25.724 16.9428C25.9741 17.1929 26.3132 17.3333 26.6668 17.3333ZM24.0002 20C24.3538 20 24.6929 19.8595 24.943 19.6095C25.193 19.3594 25.3335 19.0203 25.3335 18.6667C25.3335 18.313 25.193 17.9739 24.943 17.7239C24.6929 17.4738 24.3538 17.3333 24.0002 17.3333C23.6466 17.3333 23.3074 17.4738 23.0574 17.7239C22.8073 17.9739 22.6668 18.313 22.6668 18.6667C22.6668 19.0203 22.8073 19.3594 23.0574 19.6095C23.3074 19.8595 23.6466 20 24.0002 20Z" fill="#EBE4CC"/>
<path d="M9.33352 14.6667V13.3333C9.33352 12.9797 9.19304 12.6406 8.94299 12.3905C8.69294 12.1405 8.3538 12 8.00018 12C7.64656 12 7.30742 12.1405 7.05737 12.3905C6.80733 12.6406 6.66685 12.9797 6.66685 13.3333V14.6667H5.33352C4.97989 14.6667 4.64076 14.8071 4.39071 15.0572C4.14066 15.3072 4.00018 15.6464 4.00018 16C4.00018 16.3536 4.14066 16.6928 4.39071 16.9428C4.64076 17.1929 4.97989 17.3333 5.33352 17.3333H6.66685V18.6667C6.66685 19.0203 6.80733 19.3594 7.05737 19.6095C7.30742 19.8595 7.64656 20 8.00018 20C8.3538 20 8.69294 19.8595 8.94299 19.6095C9.19304 19.3594 9.33352 19.0203 9.33352 18.6667V17.3333H10.6668C11.0205 17.3333 11.3596 17.1929 11.6097 16.9428C11.8597 16.6928 12.0002 16.3536 12.0002 16C12.0002 15.6464 11.8597 15.3072 11.6097 15.0572C11.3596 14.8071 11.0205 14.6667 10.6668 14.6667H9.33352ZM8.00018 8H24.0002C25.3346 7.99997 26.6479 8.33376 27.8204 8.97097C28.9929 9.60818 29.9874 10.5286 30.7133 11.6483C31.4391 12.7681 31.8734 14.0516 31.9765 15.3821C32.0795 16.7126 31.8481 18.0477 31.3034 19.2659C30.7586 20.4841 29.9177 21.5467 28.8574 22.3568C27.797 23.167 26.5508 23.6991 25.2323 23.9046C23.9137 24.1101 22.5647 23.9825 21.3081 23.5334C20.0515 23.0843 18.9272 22.328 18.0375 21.3333H13.9628C13.0732 22.328 11.9489 23.0843 10.6923 23.5334C9.43565 23.9825 8.08665 24.1101 6.7681 23.9046C5.44956 23.6991 4.20337 23.167 3.143 22.3568C2.08263 21.5467 1.24177 20.4841 0.696997 19.2659C0.152221 18.0477 -0.0791686 16.7126 0.0238989 15.3821C0.126966 14.0516 0.561217 12.7681 1.28711 11.6483C2.013 10.5286 3.00747 9.60818 4.17996 8.97097C5.35246 8.33376 6.66572 7.99997 8.00018 8ZM24.0002 14.6667C24.3538 14.6667 24.6929 14.5262 24.943 14.2761C25.193 14.0261 25.3335 13.687 25.3335 13.3333C25.3335 12.9797 25.193 12.6406 24.943 12.3905C24.6929 12.1405 24.3538 12 24.0002 12C23.6466 12 23.3074 12.1405 23.0574 12.3905C22.8073 12.6406 22.6668 12.9797 22.6668 13.3333C22.6668 13.687 22.8073 14.0261 23.0574 14.2761C23.3074 14.5262 23.6466 14.6667 24.0002 14.6667ZM21.3335 17.3333C21.6871 17.3333 22.0263 17.1929 22.2763 16.9428C22.5264 16.6928 22.6668 16.3536 22.6668 16C22.6668 15.6464 22.5264 15.3072 22.2763 15.0572C22.0263 14.8071 21.6871 14.6667 21.3335 14.6667C20.9799 14.6667 20.6408 14.8071 20.3907 15.0572C20.1407 15.3072 20.0002 15.6464 20.0002 16C20.0002 16.3536 20.1407 16.6928 20.3907 16.9428C20.6408 17.1929 20.9799 17.3333 21.3335 17.3333ZM26.6668 17.3333C27.0205 17.3333 27.3596 17.1929 27.6097 16.9428C27.8597 16.6928 28.0002 16.3536 28.0002 16C28.0002 15.6464 27.8597 15.3072 27.6097 15.0572C27.3596 14.8071 27.0205 14.6667 26.6668 14.6667C26.3132 14.6667 25.9741 14.8071 25.724 15.0572C25.474 15.3072 25.3335 15.6464 25.3335 16C25.3335 16.3536 25.474 16.6928 25.724 16.9428C25.9741 17.1929 26.3132 17.3333 26.6668 17.3333ZM24.0002 20C24.3538 20 24.6929 19.8595 24.943 19.6095C25.193 19.3594 25.3335 19.0203 25.3335 18.6667C25.3335 18.313 25.193 17.9739 24.943 17.7239C24.6929 17.4738 24.3538 17.3333 24.0002 17.3333C23.6466 17.3333 23.3074 17.4738 23.0574 17.7239C22.8073 17.9739 22.6668 18.313 22.6668 18.6667C22.6668 19.0203 22.8073 19.3594 23.0574 19.6095C23.3074 19.8595 23.6466 20 24.0002 20Z" fill="#EBE4CC"/>
<path d="M9.33352 14.6667V13.3333C9.33352 12.9797 9.19304 12.6406 8.94299 12.3905C8.69294 12.1405 8.3538 12 8.00018 12C7.64656 12 7.30742 12.1405 7.05737 12.3905C6.80733 12.6406 6.66685 12.9797 6.66685 13.3333V14.6667H5.33352C4.97989 14.6667 4.64076 14.8071 4.39071 15.0572C4.14066 15.3072 4.00018 15.6464 4.00018 16C4.00018 16.3536 4.14066 16.6928 4.39071 16.9428C4.64076 17.1929 4.97989 17.3333 5.33352 17.3333H6.66685V18.6667C6.66685 19.0203 6.80733 19.3594 7.05737 19.6095C7.30742 19.8595 7.64656 20 8.00018 20C8.3538 20 8.69294 19.8595 8.94299 19.6095C9.19304 19.3594 9.33352 19.0203 9.33352 18.6667V17.3333H10.6668C11.0205 17.3333 11.3596 17.1929 11.6097 16.9428C11.8597 16.6928 12.0002 16.3536 12.0002 16C12.0002 15.6464 11.8597 15.3072 11.6097 15.0572C11.3596 14.8071 11.0205 14.6667 10.6668 14.6667H9.33352ZM8.00018 8H24.0002C25.3346 7.99997 26.6479 8.33376 27.8204 8.97097C28.9929 9.60818 29.9874 10.5286 30.7133 11.6483C31.4391 12.7681 31.8734 14.0516 31.9765 15.3821C32.0795 16.7126 31.8481 18.0477 31.3034 19.2659C30.7586 20.4841 29.9177 21.5467 28.8574 22.3568C27.797 23.167 26.5508 23.6991 25.2323 23.9046C23.9137 24.1101 22.5647 23.9825 21.3081 23.5334C20.0515 23.0843 18.9272 22.328 18.0375 21.3333H13.9628C13.0732 22.328 11.9489 23.0843 10.6923 23.5334C9.43565 23.9825 8.08665 24.1101 6.7681 23.9046C5.44956 23.6991 4.20337 23.167 3.143 22.3568C2.08263 21.5467 1.24177 20.4841 0.696997 19.2659C0.152221 18.0477 -0.0791686 16.7126 0.0238989 15.3821C0.126966 14.0516 0.561217 12.7681 1.28711 11.6483C2.013 10.5286 3.00747 9.60818 4.17996 8.97097C5.35246 8.33376 6.66572 7.99997 8.00018 8ZM24.0002 14.6667C24.3538 14.6667 24.6929 14.5262 24.943 14.2761C25.193 14.0261 25.3335 13.687 25.3335 13.3333C25.3335 12.9797 25.193 12.6406 24.943 12.3905C24.6929 12.1405 24.3538 12 24.0002 12C23.6466 12 23.3074 12.1405 23.0574 12.3905C22.8073 12.6406 22.6668 12.9797 22.6668 13.3333C22.6668 13.687 22.8073 14.0261 23.0574 14.2761C23.3074 14.5262 23.6466 14.6667 24.0002 14.6667ZM21.3335 17.3333C21.6871 17.3333 22.0263 17.1929 22.2763 16.9428C22.5264 16.6928 22.6668 16.3536 22.6668 16C22.6668 15.6464 22.5264 15.3072 22.2763 15.0572C22.0263 14.8071 21.6871 14.6667 21.3335 14.6667C20.9799 14.6667 20.6408 14.8071 20.3907 15.0572C20.1407 15.3072 20.0002 15.6464 20.0002 16C20.0002 16.3536 20.1407 16.6928 20.3907 16.9428C20.6408 17.1929 20.9799 17.3333 21.3335 17.3333ZM26.6668 17.3333C27.0205 17.3333 27.3596 17.1929 27.6097 16.9428C27.8597 16.6928 28.0002 16.3536 28.0002 16C28.0002 15.6464 27.8597 15.3072 27.6097 15.0572C27.3596 14.8071 27.0205 14.6667 26.6668 14.6667C26.3132 14.6667 25.9741 14.8071 25.724 15.0572C25.474 15.3072 25.3335 15.6464 25.3335 16C25.3335 16.3536 25.474 16.6928 25.724 16.9428C25.9741 17.1929 26.3132 17.3333 26.6668 17.3333ZM24.0002 20C24.3538 20 24.6929 19.8595 24.943 19.6095C25.193 19.3594 25.3335 19.0203 25.3335 18.6667C25.3335 18.313 25.193 17.9739 24.943 17.7239C24.6929 17.4738 24.3538 17.3333 24.0002 17.3333C23.6466 17.3333 23.3074 17.4738 23.0574 17.7239C22.8073 17.9739 22.6668 18.313 22.6668 18.6667C22.6668 19.0203 22.8073 19.3594 23.0574 19.6095C23.3074 19.8595 23.6466 20 24.0002 20Z" fill="#EBE4CC"/>
<path d="M9.33352 14.6667V13.3333C9.33352 12.9797 9.19304 12.6406 8.94299 12.3905C8.69294 12.1405 8.3538 12 8.00018 12C7.64656 12 7.30742 12.1405 7.05737 12.3905C6.80733 12.6406 6.66685 12.9797 6.66685 13.3333V14.6667H5.33352C4.97989 14.6667 4.64076 14.8071 4.39071 15.0572C4.14066 15.3072 4.00018 15.6464 4.00018 16C4.00018 16.3536 4.14066 16.6928 4.39071 16.9428C4.64076 17.1929 4.97989 17.3333 5.33352 17.3333H6.66685V18.6667C6.66685 19.0203 6.80733 19.3594 7.05737 19.6095C7.30742 19.8595 7.64656 20 8.00018 20C8.3538 20 8.69294 19.8595 8.94299 19.6095C9.19304 19.3594 9.33352 19.0203 9.33352 18.6667V17.3333H10.6668C11.0205 17.3333 11.3596 17.1929 11.6097 16.9428C11.8597 16.6928 12.0002 16.3536 12.0002 16C12.0002 15.6464 11.8597 15.3072 11.6097 15.0572C11.3596 14.8071 11.0205 14.6667 10.6668 14.6667H9.33352ZM8.00018 8H24.0002C25.3346 7.99997 26.6479 8.33376 27.8204 8.97097C28.9929 9.60818 29.9874 10.5286 30.7133 11.6483C31.4391 12.7681 31.8734 14.0516 31.9765 15.3821C32.0795 16.7126 31.8481 18.0477 31.3034 19.2659C30.7586 20.4841 29.9177 21.5467 28.8574 22.3568C27.797 23.167 26.5508 23.6991 25.2323 23.9046C23.9137 24.1101 22.5647 23.9825 21.3081 23.5334C20.0515 23.0843 18.9272 22.328 18.0375 21.3333H13.9628C13.0732 22.328 11.9489 23.0843 10.6923 23.5334C9.43565 23.9825 8.08665 24.1101 6.7681 23.9046C5.44956 23.6991 4.20337 23.167 3.143 22.3568C2.08263 21.5467 1.24177 20.4841 0.696997 19.2659C0.152221 18.0477 -0.0791686 16.7126 0.0238989 15.3821C0.126966 14.0516 0.561217 12.7681 1.28711 11.6483C2.013 10.5286 3.00747 9.60818 4.17996 8.97097C5.35246 8.33376 6.66572 7.99997 8.00018 8ZM24.0002 14.6667C24.3538 14.6667 24.6929 14.5262 24.943 14.2761C25.193 14.0261 25.3335 13.687 25.3335 13.3333C25.3335 12.9797 25.193 12.6406 24.943 12.3905C24.6929 12.1405 24.3538 12 24.0002 12C23.6466 12 23.3074 12.1405 23.0574 12.3905C22.8073 12.6406 22.6668 12.9797 22.6668 13.3333C22.6668 13.687 22.8073 14.0261 23.0574 14.2761C23.3074 14.5262 23.6466 14.6667 24.0002 14.6667ZM21.3335 17.3333C21.6871 17.3333 22.0263 17.1929 22.2763 16.9428C22.5264 16.6928 22.6668 16.3536 22.6668 16C22.6668 15.6464 22.5264 15.3072 22.2763 15.0572C22.0263 14.8071 21.6871 14.6667 21.3335 14.6667C20.9799 14.6667 20.6408 14.8071 20.3907 15.0572C20.1407 15.3072 20.0002 15.6464 20.0002 16C20.0002 16.3536 20.1407 16.6928 20.3907 16.9428C20.6408 17.1929 20.9799 17.3333 21.3335 17.3333ZM26.6668 17.3333C27.0205 17.3333 27.3596 17.1929 27.6097 16.9428C27.8597 16.6928 28.0002 16.3536 28.0002 16C28.0002 15.6464 27.8597 15.3072 27.6097 15.0572C27.3596 14.8071 27.0205 14.6667 26.6668 14.6667C26.3132 14.6667 25.9741 14.8071 25.724 15.0572C25.474 15.3072 25.3335 15.6464 25.3335 16C25.3335 16.3536 25.474 16.6928 25.724 16.9428C25.9741 17.1929 26.3132 17.3333 26.6668 17.3333ZM24.0002 20C24.3538 20 24.6929 19.8595 24.943 19.6095C25.193 19.3594 25.3335 19.0203 25.3335 18.6667C25.3335 18.313 25.193 17.9739 24.943 17.7239C24.6929 17.4738 24.3538 17.3333 24.0002 17.3333C23.6466 17.3333 23.3074 17.4738 23.0574 17.7239C22.8073 17.9739 22.6668 18.313 22.6668 18.6667C22.6668 19.0203 22.8073 19.3594 23.0574 19.6095C23.3074 19.8595 23.6466 20 24.0002 20Z" fill="#EBE4CC"/>
<path d="M9.33352 14.6667V13.3333C9.33352 12.9797 9.19304 12.6406 8.94299 12.3905C8.69294 12.1405 8.3538 12 8.00018 12C7.64656 12 7.30742 12.1405 7.05737 12.3905C6.80733 12.6406 6.66685 12.9797 6.66685 13.3333V14.6667H5.33352C4.97989 14.6667 4.64076 14.8071 4.39071 15.0572C4.14066 15.3072 4.00018 15.6464 4.00018 16C4.00018 16.3536 4.14066 16.6928 4.39071 16.9428C4.64076 17.1929 4.97989 17.3333 5.33352 17.3333H6.66685V18.6667C6.66685 19.0203 6.80733 19.3594 7.05737 19.6095C7.30742 19.8595 7.64656 20 8.00018 20C8.3538 20 8.69294 19.8595 8.94299 19.6095C9.19304 19.3594 9.33352 19.0203 9.33352 18.6667V17.3333H10.6668C11.0205 17.3333 11.3596 17.1929 11.6097 16.9428C11.8597 16.6928 12.0002 16.3536 12.0002 16C12.0002 15.6464 11.8597 15.3072 11.6097 15.0572C11.3596 14.8071 11.0205 14.6667 10.6668 14.6667H9.33352ZM8.00018 8H24.0002C25.3346 7.99997 26.6479 8.33376 27.8204 8.97097C28.9929 9.60818 29.9874 10.5286 30.7133 11.6483C31.4391 12.7681 31.8734 14.0516 31.9765 15.3821C32.0795 16.7126 31.8481 18.0477 31.3034 19.2659C30.7586 20.4841 29.9177 21.5467 28.8574 22.3568C27.797 23.167 26.5508 23.6991 25.2323 23.9046C23.9137 24.1101 22.5647 23.9825 21.3081 23.5334C20.0515 23.0843 18.9272 22.328 18.0375 21.3333H13.9628C13.0732 22.328 11.9489 23.0843 10.6923 23.5334C9.43565 23.9825 8.08665 24.1101 6.7681 23.9046C5.44956 23.6991 4.20337 23.167 3.143 22.3568C2.08263 21.5467 1.24177 20.4841 0.696997 19.2659C0.152221 18.0477 -0.0791686 16.7126 0.0238989 15.3821C0.126966 14.0516 0.561217 12.7681 1.28711 11.6483C2.013 10.5286 3.00747 9.60818 4.17996 8.97097C5.35246 8.33376 6.66572 7.99997 8.00018 8ZM24.0002 14.6667C24.3538 14.6667 24.6929 14.5262 24.943 14.2761C25.193 14.0261 25.3335 13.687 25.3335 13.3333C25.3335 12.9797 25.193 12.6406 24.943 12.3905C24.6929 12.1405 24.3538 12 24.0002 12C23.6466 12 23.3074 12.1405 23.0574 12.3905C22.8073 12.6406 22.6668 12.9797 22.6668 13.3333C22.6668 13.687 22.8073 14.0261 23.0574 14.2761C23.3074 14.5262 23.6466 14.6667 24.0002 14.6667ZM21.3335 17.3333C21.6871 17.3333 22.0263 17.1929 22.2763 16.9428C22.5264 16.6928 22.6668 16.3536 22.6668 16C22.6668 15.6464 22.5264 15.3072 22.2763 15.0572C22.0263 14.8071 21.6871 14.6667 21.3335 14.6667C20.9799 14.6667 20.6408 14.8071 20.3907 15.0572C20.1407 15.3072 20.0002 15.6464 20.0002 16C20.0002 16.3536 20.1407 16.6928 20.3907 16.9428C20.6408 17.1929 20.9799 17.3333 21.3335 17.3333ZM26.6668 17.3333C27.0205 17.3333 27.3596 17.1929 27.6097 16.9428C27.8597 16.6928 28.0002 16.3536 28.0002 16C28.0002 15.6464 27.8597 15.3072 27.6097 15.0572C27.3596 14.8071 27.0205 14.6667 26.6668 14.6667C26.3132 14.6667 25.9741 14.8071 25.724 15.0572C25.474 15.3072 25.3335 15.6464 25.3335 16C25.3335 16.3536 25.474 16.6928 25.724 16.9428C25.9741 17.1929 26.3132 17.3333 26.6668 17.3333ZM24.0002 20C24.3538 20 24.6929 19.8595 24.943 19.6095C25.193 19.3594 25.3335 19.0203 25.3335 18.6667C25.3335 18.313 25.193 17.9739 24.943 17.7239C24.6929 17.4738 24.3538 17.3333 24.0002 17.3333C23.6466 17.3333 23.3074 17.4738 23.0574 17.7239C22.8073 17.9739 22.6668 18.313 22.6668 18.6667C22.6668 19.0203 22.8073 19.3594 23.0574 19.6095C23.3074 19.8595 23.6466 20 24.0002 20Z" stroke="black"/>
<path d="M24 14.6667C24.3536 14.6667 24.6928 14.5262 24.9428 14.2761C25.1929 14.0261 25.3333 13.687 25.3333 13.3333C25.3333 12.9797 25.1929 12.6406 24.9428 12.3905C24.6928 12.1405 24.3536 12 24 12C23.6464 12 23.3072 12.1405 23.0572 12.3905C22.8071 12.6406 22.6667 12.9797 22.6667 13.3333C22.6667 13.687 22.8071 14.0261 23.0572 14.2761C23.3072 14.5262 23.6464 14.6667 24 14.6667ZM21.3333 17.3333C21.687 17.3333 22.0261 17.1929 22.2761 16.9428C22.5262 16.6928 22.6667 16.3536 22.6667 16C22.6667 15.6464 22.5262 15.3072 22.2761 15.0572C22.0261 14.8071 21.687 14.6667 21.3333 14.6667C20.9797 14.6667 20.6406 14.8071 20.3905 15.0572C20.1405 15.3072 20 15.6464 20 16C20 16.3536 20.1405 16.6928 20.3905 16.9428C20.6406 17.1929 20.9797 17.3333 21.3333 17.3333ZM26.6667 17.3333C27.0203 17.3333 27.3594 17.1929 27.6095 16.9428C27.8595 16.6928 28 16.3536 28 16C28 15.6464 27.8595 15.3072 27.6095 15.0572C27.3594 14.8071 27.0203 14.6667 26.6667 14.6667C26.313 14.6667 25.9739 14.8071 25.7239 15.0572C25.4738 15.3072 25.3333 15.6464 25.3333 16C25.3333 16.3536 25.4738 16.6928 25.7239 16.9428C25.9739 17.1929 26.313 17.3333 26.6667 17.3333ZM24 20C24.3536 20 24.6928 19.8595 24.9428 19.6095C25.1929 19.3594 25.3333 19.0203 25.3333 18.6667C25.3333 18.313 25.1929 17.9739 24.9428 17.7239C24.6928 17.4738 24.3536 17.3333 24 17.3333C23.6464 17.3333 23.3072 17.4738 23.0572 17.7239C22.8071 17.9739 22.6667 18.313 22.6667 18.6667C22.6667 19.0203 22.8071 19.3594 23.0572 19.6095C23.3072 19.8595 23.6464 20 24 20Z" fill="#D0666F"/>
<path d="M24 14.6667C24.3536 14.6667 24.6928 14.5262 24.9428 14.2761C25.1929 14.0261 25.3333 13.687 25.3333 13.3333C25.3333 12.9797 25.1929 12.6406 24.9428 12.3905C24.6928 12.1405 24.3536 12 24 12C23.6464 12 23.3072 12.1405 23.0572 12.3905C22.8071 12.6406 22.6667 12.9797 22.6667 13.3333C22.6667 13.687 22.8071 14.0261 23.0572 14.2761C23.3072 14.5262 23.6464 14.6667 24 14.6667ZM21.3333 17.3333C21.687 17.3333 22.0261 17.1929 22.2761 16.9428C22.5262 16.6928 22.6667 16.3536 22.6667 16C22.6667 15.6464 22.5262 15.3072 22.2761 15.0572C22.0261 14.8071 21.687 14.6667 21.3333 14.6667C20.9797 14.6667 20.6406 14.8071 20.3905 15.0572C20.1405 15.3072 20 15.6464 20 16C20 16.3536 20.1405 16.6928 20.3905 16.9428C20.6406 17.1929 20.9797 17.3333 21.3333 17.3333ZM26.6667 17.3333C27.0203 17.3333 27.3594 17.1929 27.6095 16.9428C27.8595 16.6928 28 16.3536 28 16C28 15.6464 27.8595 15.3072 27.6095 15.0572C27.3594 14.8071 27.0203 14.6667 26.6667 14.6667C26.313 14.6667 25.9739 14.8071 25.7239 15.0572C25.4738 15.3072 25.3333 15.6464 25.3333 16C25.3333 16.3536 25.4738 16.6928 25.7239 16.9428C25.9739 17.1929 26.313 17.3333 26.6667 17.3333ZM24 20C24.3536 20 24.6928 19.8595 24.9428 19.6095C25.1929 19.3594 25.3333 19.0203 25.3333 18.6667C25.3333 18.313 25.1929 17.9739 24.9428 17.7239C24.6928 17.4738 24.3536 17.3333 24 17.3333C23.6464 17.3333 23.3072 17.4738 23.0572 17.7239C22.8071 17.9739 22.6667 18.313 22.6667 18.6667C22.6667 19.0203 22.8071 19.3594 23.0572 19.6095C23.3072 19.8595 23.6464 20 24 20Z" fill="#D0666F"/>
<path d="M24 14.6667C24.3536 14.6667 24.6928 14.5262 24.9428 14.2761C25.1929 14.0261 25.3333 13.687 25.3333 13.3333C25.3333 12.9797 25.1929 12.6406 24.9428 12.3905C24.6928 12.1405 24.3536 12 24 12C23.6464 12 23.3072 12.1405 23.0572 12.3905C22.8071 12.6406 22.6667 12.9797 22.6667 13.3333C22.6667 13.687 22.8071 14.0261 23.0572 14.2761C23.3072 14.5262 23.6464 14.6667 24 14.6667ZM21.3333 17.3333C21.687 17.3333 22.0261 17.1929 22.2761 16.9428C22.5262 16.6928 22.6667 16.3536 22.6667 16C22.6667 15.6464 22.5262 15.3072 22.2761 15.0572C22.0261 14.8071 21.687 14.6667 21.3333 14.6667C20.9797 14.6667 20.6406 14.8071 20.3905 15.0572C20.1405 15.3072 20 15.6464 20 16C20 16.3536 20.1405 16.6928 20.3905 16.9428C20.6406 17.1929 20.9797 17.3333 21.3333 17.3333ZM26.6667 17.3333C27.0203 17.3333 27.3594 17.1929 27.6095 16.9428C27.8595 16.6928 28 16.3536 28 16C28 15.6464 27.8595 15.3072 27.6095 15.0572C27.3594 14.8071 27.0203 14.6667 26.6667 14.6667C26.313 14.6667 25.9739 14.8071 25.7239 15.0572C25.4738 15.3072 25.3333 15.6464 25.3333 16C25.3333 16.3536 25.4738 16.6928 25.7239 16.9428C25.9739 17.1929 26.313 17.3333 26.6667 17.3333ZM24 20C24.3536 20 24.6928 19.8595 24.9428 19.6095C25.1929 19.3594 25.3333 19.0203 25.3333 18.6667C25.3333 18.313 25.1929 17.9739 24.9428 17.7239C24.6928 17.4738 24.3536 17.3333 24 17.3333C23.6464 17.3333 23.3072 17.4738 23.0572 17.7239C22.8071 17.9739 22.6667 18.313 22.6667 18.6667C22.6667 19.0203 22.8071 19.3594 23.0572 19.6095C23.3072 19.8595 23.6464 20 24 20Z" fill="#D0666F"/>
<path d="M24 14.6667C24.3536 14.6667 24.6928 14.5262 24.9428 14.2761C25.1929 14.0261 25.3333 13.687 25.3333 13.3333C25.3333 12.9797 25.1929 12.6406 24.9428 12.3905C24.6928 12.1405 24.3536 12 24 12C23.6464 12 23.3072 12.1405 23.0572 12.3905C22.8071 12.6406 22.6667 12.9797 22.6667 13.3333C22.6667 13.687 22.8071 14.0261 23.0572 14.2761C23.3072 14.5262 23.6464 14.6667 24 14.6667ZM21.3333 17.3333C21.687 17.3333 22.0261 17.1929 22.2761 16.9428C22.5262 16.6928 22.6667 16.3536 22.6667 16C22.6667 15.6464 22.5262 15.3072 22.2761 15.0572C22.0261 14.8071 21.687 14.6667 21.3333 14.6667C20.9797 14.6667 20.6406 14.8071 20.3905 15.0572C20.1405 15.3072 20 15.6464 20 16C20 16.3536 20.1405 16.6928 20.3905 16.9428C20.6406 17.1929 20.9797 17.3333 21.3333 17.3333ZM26.6667 17.3333C27.0203 17.3333 27.3594 17.1929 27.6095 16.9428C27.8595 16.6928 28 16.3536 28 16C28 15.6464 27.8595 15.3072 27.6095 15.0572C27.3594 14.8071 27.0203 14.6667 26.6667 14.6667C26.313 14.6667 25.9739 14.8071 25.7239 15.0572C25.4738 15.3072 25.3333 15.6464 25.3333 16C25.3333 16.3536 25.4738 16.6928 25.7239 16.9428C25.9739 17.1929 26.313 17.3333 26.6667 17.3333ZM24 20C24.3536 20 24.6928 19.8595 24.9428 19.6095C25.1929 19.3594 25.3333 19.0203 25.3333 18.6667C25.3333 18.313 25.1929 17.9739 24.9428 17.7239C24.6928 17.4738 24.3536 17.3333 24 17.3333C23.6464 17.3333 23.3072 17.4738 23.0572 17.7239C22.8071 17.9739 22.6667 18.313 22.6667 18.6667C22.6667 19.0203 22.8071 19.3594 23.0572 19.6095C23.3072 19.8595 23.6464 20 24 20Z" fill="#D0666F"/>
<path d="M9.33333 14.6667V13.3333C9.33333 12.9797 9.19286 12.6406 8.94281 12.3905C8.69276 12.1405 8.35362 12 8 12C7.64638 12 7.30724 12.1405 7.05719 12.3905C6.80714 12.6406 6.66667 12.9797 6.66667 13.3333V14.6667H5.33333C4.97971 14.6667 4.64057 14.8071 4.39052 15.0572C4.14048 15.3072 4 15.6464 4 16C4 16.3536 4.14048 16.6928 4.39052 16.9428C4.64057 17.1929 4.97971 17.3333 5.33333 17.3333H6.66667V18.6667C6.66667 19.0203 6.80714 19.3594 7.05719 19.6095C7.30724 19.8595 7.64638 20 8 20C8.35362 20 8.69276 19.8595 8.94281 19.6095C9.19286 19.3594 9.33333 19.0203 9.33333 18.6667V17.3333H10.6667C11.0203 17.3333 11.3594 17.1929 11.6095 16.9428C11.8595 16.6928 12 16.3536 12 16C12 15.6464 11.8595 15.3072 11.6095 15.0572C11.3594 14.8071 11.0203 14.6667 10.6667 14.6667H9.33333Z" fill="black"/>
</g>
<defs>
<clipPath id="clip0_1202_2">
<rect width="32" height="32" fill="white"/>
</clipPath>
</defs>
</svg>
