<svg width="32" height="32" viewBox="0 0 32 32" fill="none" xmlns="http://www.w3.org/2000/svg">
<g clip-path="url(#clip0_1202_15)">
<path d="M5.40444 7.11108L6.63704 9.38664H4.17185L3.60296 12.8H2.08593L2.65481 9.38664H1.13778L0 16.2133H3.03407L2.65481 18.4889H5.30963L3.31852 21.9022H5.54667L7.39556 18.4889H11.5674L13.4163 21.9022H15.6444L13.6533 18.4889H16.3081L15.9289 16.2133H18.963L17.8252 9.38664H16.3081L16.877 12.8H15.36L14.7911 9.38664H12.3259L13.5585 7.11108H11.9467L10.6193 9.38664H8.3437L7.0163 7.11108H5.40444ZM5.59407 11.6622H7.11111V13.9378H5.59407V11.6622ZM11.8558 11.6622H13.3728V13.9378H11.8558V11.6622Z" fill="#B111A1"/>
</g>
<g clip-path="url(#clip1_1202_15)">
<path d="M18.4416 7.11108L19.6741 9.38664H17.209L16.6401 12.8H15.123L15.6919 9.38664H14.1749L13.0371 16.2133H16.0712L15.6919 18.4889H18.3467L16.3556 21.9022H18.5838L20.4327 18.4889H24.6045L26.4534 21.9022H28.6816L26.6904 18.4889H29.3453L28.966 16.2133H32.0001L30.8623 9.38664H29.3453L29.9141 12.8H28.3971L27.8282 9.38664H25.363L26.5956 7.11108H24.9838L23.6564 9.38664H21.3808L20.0534 7.11108H18.4416ZM18.6312 11.6622H20.1482V13.9378H18.6312V11.6622ZM24.8929 11.6622H26.4099V13.9378H24.8929V11.6622Z" fill="#1181B1"/>
</g>
<g clip-path="url(#clip2_1202_15)">
<path d="M11.923 10.6667L13.1556 12.9423H10.6904L10.1215 16.3556H8.60448L9.17337 12.9423H7.65633L6.51855 19.769H9.55263L9.17337 22.0445H11.8282L9.83707 25.4579H12.0652L13.9141 22.0445H18.086L19.9349 25.4579H22.163L20.1719 22.0445H22.8267L22.4474 19.769H25.4815L24.3437 12.9423H22.8267L23.3956 16.3556H21.8786L21.3097 12.9423H18.8445L20.0771 10.6667H18.4652L17.1378 12.9423H14.8623L13.5349 10.6667H11.923ZM12.1126 15.2179H13.6297V17.4934H12.1126V15.2179ZM18.3744 15.2179H19.8914V17.4934H18.3744V15.2179Z" fill="#E3B820"/>
</g>
<defs>
<clipPath id="clip0_1202_15">
<rect width="18.963" height="28.4444" fill="white"/>
</clipPath>
<clipPath id="clip1_1202_15">
<rect width="18.963" height="28.4444" fill="white" transform="translate(13.0371)"/>
</clipPath>
<clipPath id="clip2_1202_15">
<rect width="18.963" height="28.4444" fill="white" transform="translate(6.51855 3.55566)"/>
</clipPath>
</defs>
</svg>
